<?xml version="1.0" encoding="UTF-8" standalone="no"?>
<!DOCTYPE svg PUBLIC "-//W3C//DTD SVG 1.1//EN"
 "http://www.w3.org/Graphics/SVG/1.1/DTD/svg11.dtd">
<!-- Generated by graphviz version 2.43.0 (0)
 -->
<!-- Title: bio/alphabet/aminoacid/aa27.hpp Pages: 1 -->
<svg width="544pt" height="307pt"
 viewBox="0.00 0.00 544.00 307.00" xmlns="http://www.w3.org/2000/svg" xmlns:xlink="http://www.w3.org/1999/xlink">
<g id="graph0" class="graph" transform="scale(1 1) rotate(0) translate(4 303)">
<title>bio/alphabet/aminoacid/aa27.hpp</title>
<polygon fill="white" stroke="transparent" points="-4,4 -4,-303 540,-303 540,4 -4,4"/>
<!-- Node1 -->
<g id="node1" class="node">
<title>Node1</title>
<g id="a_node1"><a xlink:title="Provides bio::alphabet::aa27, container aliases and string literals.">
<polygon fill="#bfbfbf" stroke="black" points="180.5,-268.5 180.5,-298.5 311.5,-298.5 311.5,-268.5 180.5,-268.5"/>
<text text-anchor="start" x="188.5" y="-286.5" font-family="Helvetica,sans-Serif" font-size="10.00">bio/alphabet/aminoacid</text>
<text text-anchor="middle" x="246" y="-275.5" font-family="Helvetica,sans-Serif" font-size="10.00">/aa27.hpp</text>
</a>
</g>
</g>
<!-- Node2 -->
<g id="node2" class="node">
<title>Node2</title>
<g id="a_node2"><a xlink:href="alphabet_2aminoacid_2all_8hpp.html" target="_top" xlink:title="Meta&#45;header for the aminoacid submodule; includes all headers from alphabet/aminoacid/.">
<polygon fill="white" stroke="black" points="115.5,-67.5 115.5,-97.5 246.5,-97.5 246.5,-67.5 115.5,-67.5"/>
<text text-anchor="start" x="123.5" y="-85.5" font-family="Helvetica,sans-Serif" font-size="10.00">bio/alphabet/aminoacid</text>
<text text-anchor="middle" x="181" y="-74.5" font-family="Helvetica,sans-Serif" font-size="10.00">/all.hpp</text>
</a>
</g>
</g>
<!-- Node1&#45;&gt;Node2 -->
<g id="edge1" class="edge">
<title>Node1&#45;&gt;Node2</title>
<path fill="none" stroke="midnightblue" d="M202.3,-263.11C189.92,-255.33 177.94,-245.05 171,-232 147.45,-187.75 165.33,-125.29 175.38,-97.62"/>
<polygon fill="midnightblue" stroke="midnightblue" points="200.9,-266.35 211.31,-268.34 204.42,-260.3 200.9,-266.35"/>
</g>
<!-- Node4 -->
<g id="node4" class="node">
<title>Node4</title>
<g id="a_node4"><a xlink:href="translation_8hpp.html" target="_top" xlink:title="Provides functions for translating a triplet of nucleotides into an amino acid.">
<polygon fill="white" stroke="black" points="218.5,-134.5 218.5,-164.5 349.5,-164.5 349.5,-134.5 218.5,-134.5"/>
<text text-anchor="start" x="226.5" y="-152.5" font-family="Helvetica,sans-Serif" font-size="10.00">bio/alphabet/aminoacid</text>
<text text-anchor="middle" x="284" y="-141.5" font-family="Helvetica,sans-Serif" font-size="10.00">/translation.hpp</text>
</a>
</g>
</g>
<!-- Node1&#45;&gt;Node4 -->
<g id="edge3" class="edge">
<title>Node1&#45;&gt;Node4</title>
<path fill="none" stroke="midnightblue" d="M289.7,-263.11C302.08,-255.33 314.06,-245.05 321,-232 333.27,-208.95 313.5,-181.06 298.46,-164.6"/>
<polygon fill="midnightblue" stroke="midnightblue" points="287.58,-260.3 280.69,-268.34 291.1,-266.35 287.58,-260.3"/>
</g>
<!-- Node5 -->
<g id="node5" class="node">
<title>Node5</title>
<g id="a_node5"><a xlink:href="translate_8hpp.html" target="_top" xlink:title="Provides bio::views::translate and bio::views::translate_single.">
<polygon fill="white" stroke="black" points="279.5,-73 279.5,-92 446.5,-92 446.5,-73 279.5,-73"/>
<text text-anchor="middle" x="363" y="-80" font-family="Helvetica,sans-Serif" font-size="10.00">bio/ranges/views/translate.hpp</text>
</a>
</g>
</g>
<!-- Node1&#45;&gt;Node5 -->
<g id="edge14" class="edge">
<title>Node1&#45;&gt;Node5</title>
<path fill="none" stroke="midnightblue" d="M293.81,-263.88C309.02,-255.99 324.79,-245.45 336,-232 371.24,-189.74 366.83,-116.88 364.11,-92.07"/>
<polygon fill="midnightblue" stroke="midnightblue" points="291.9,-260.91 284.46,-268.45 294.98,-267.2 291.9,-260.91"/>
</g>
<!-- Node8 -->
<g id="node8" class="node">
<title>Node8</title>
<g id="a_node8"><a xlink:href="translation__details_8hpp.html" target="_top" xlink:title="Provides translation details for nucleotide to aminoacid translation.">
<polygon fill="white" stroke="black" points="180.5,-201.5 180.5,-231.5 311.5,-231.5 311.5,-201.5 180.5,-201.5"/>
<text text-anchor="start" x="188.5" y="-219.5" font-family="Helvetica,sans-Serif" font-size="10.00">bio/alphabet/aminoacid</text>
<text text-anchor="middle" x="246" y="-208.5" font-family="Helvetica,sans-Serif" font-size="10.00">/translation_details.hpp</text>
</a>
</g>
</g>
<!-- Node1&#45;&gt;Node8 -->
<g id="edge8" class="edge">
<title>Node1&#45;&gt;Node8</title>
<path fill="none" stroke="midnightblue" d="M246,-258.11C246,-249.15 246,-239.32 246,-231.58"/>
<polygon fill="midnightblue" stroke="midnightblue" points="242.5,-258.4 246,-268.4 249.5,-258.4 242.5,-258.4"/>
</g>
<!-- Node9 -->
<g id="node9" class="node">
<title>Node9</title>
<g id="a_node9"><a xlink:href="structured__aa_8hpp.html" target="_top" xlink:title="Provides the composite of aminoacid with structure alphabets.">
<polygon fill="white" stroke="black" points="0,-201.5 0,-231.5 124,-231.5 124,-201.5 0,-201.5"/>
<text text-anchor="start" x="8" y="-219.5" font-family="Helvetica,sans-Serif" font-size="10.00">bio/alphabet/structure</text>
<text text-anchor="middle" x="62" y="-208.5" font-family="Helvetica,sans-Serif" font-size="10.00">/structured_aa.hpp</text>
</a>
</g>
</g>
<!-- Node1&#45;&gt;Node9 -->
<g id="edge11" class="edge">
<title>Node1&#45;&gt;Node9</title>
<path fill="none" stroke="midnightblue" d="M196.33,-264.96C166.7,-254.48 129.56,-241.37 101.85,-231.58"/>
<polygon fill="midnightblue" stroke="midnightblue" points="195.48,-268.37 206.07,-268.4 197.81,-261.76 195.48,-268.37"/>
</g>
<!-- Node3 -->
<g id="node3" class="node">
<title>Node3</title>
<g id="a_node3"><a xlink:href="alphabet_2all_8hpp.html" target="_top" xlink:title="Meta&#45;header for the alphabet module.">
<polygon fill="white" stroke="black" points="69.5,-6 69.5,-25 182.5,-25 182.5,-6 69.5,-6"/>
<text text-anchor="middle" x="126" y="-13" font-family="Helvetica,sans-Serif" font-size="10.00">bio/alphabet/all.hpp</text>
</a>
</g>
</g>
<!-- Node2&#45;&gt;Node3 -->
<g id="edge2" class="edge">
<title>Node2&#45;&gt;Node3</title>
<path fill="none" stroke="midnightblue" d="M162.52,-59.66C152.54,-47.86 140.78,-33.97 133.36,-25.19"/>
<polygon fill="midnightblue" stroke="midnightblue" points="159.93,-62.02 169.07,-67.4 165.28,-57.5 159.93,-62.02"/>
</g>
<!-- Node4&#45;&gt;Node2 -->
<g id="edge4" class="edge">
<title>Node4&#45;&gt;Node2</title>
<path fill="none" stroke="midnightblue" d="M253.12,-129.02C237.1,-118.9 217.87,-106.77 203.31,-97.58"/>
<polygon fill="midnightblue" stroke="midnightblue" points="251.33,-132.02 261.65,-134.4 255.06,-126.1 251.33,-132.02"/>
</g>
<!-- Node4&#45;&gt;Node5 -->
<g id="edge5" class="edge">
<title>Node4&#45;&gt;Node5</title>
<path fill="none" stroke="midnightblue" d="M308.91,-128.01C323.57,-115.94 341.36,-101.3 352.43,-92.19"/>
<polygon fill="midnightblue" stroke="midnightblue" points="306.64,-125.34 301.14,-134.4 311.09,-130.75 306.64,-125.34"/>
</g>
<!-- Node6 -->
<g id="node6" class="node">
<title>Node6</title>
<g id="a_node6"><a xlink:href="ranges_2views_2all_8hpp.html" target="_top" xlink:title="Meta&#45;header for the views submodule .">
<polygon fill="white" stroke="black" points="236.5,-6 236.5,-25 371.5,-25 371.5,-6 236.5,-6"/>
<text text-anchor="middle" x="304" y="-13" font-family="Helvetica,sans-Serif" font-size="10.00">bio/ranges/views/all.hpp</text>
</a>
</g>
</g>
<!-- Node5&#45;&gt;Node6 -->
<g id="edge6" class="edge">
<title>Node5&#45;&gt;Node6</title>
<path fill="none" stroke="midnightblue" d="M348.15,-65.13C336.61,-52.42 321.06,-35.3 311.83,-25.13"/>
<polygon fill="midnightblue" stroke="midnightblue" points="345.73,-67.68 355.04,-72.73 350.91,-62.98 345.73,-67.68"/>
</g>
<!-- Node7 -->
<g id="node7" class="node">
<title>Node7</title>
<g id="a_node7"><a xlink:href="translate__join_8hpp.html" target="_top" xlink:title="Provides bio::views::translate_join.">
<polygon fill="white" stroke="black" points="390,-0.5 390,-30.5 536,-30.5 536,-0.5 390,-0.5"/>
<text text-anchor="start" x="398" y="-18.5" font-family="Helvetica,sans-Serif" font-size="10.00">bio/ranges/views/translate</text>
<text text-anchor="middle" x="463" y="-7.5" font-family="Helvetica,sans-Serif" font-size="10.00">_join.hpp</text>
</a>
</g>
</g>
<!-- Node5&#45;&gt;Node7 -->
<g id="edge7" class="edge">
<title>Node5&#45;&gt;Node7</title>
<path fill="none" stroke="midnightblue" d="M385.07,-67.15C401.81,-56.27 424.69,-41.4 441.32,-30.59"/>
<polygon fill="midnightblue" stroke="midnightblue" points="382.96,-64.35 376.49,-72.73 386.78,-70.22 382.96,-64.35"/>
</g>
<!-- Node8&#45;&gt;Node2 -->
<g id="edge9" class="edge">
<title>Node8&#45;&gt;Node2</title>
<path fill="none" stroke="midnightblue" d="M227.52,-193.33C221.05,-184.84 214.14,-174.83 209,-165 197.29,-142.59 188.84,-114.25 184.45,-97.58"/>
<polygon fill="midnightblue" stroke="midnightblue" points="224.81,-195.55 233.75,-201.25 230.31,-191.23 224.81,-195.55"/>
</g>
<!-- Node8&#45;&gt;Node4 -->
<g id="edge10" class="edge">
<title>Node8&#45;&gt;Node4</title>
<path fill="none" stroke="midnightblue" d="M259.4,-192.58C264.86,-183.24 270.99,-172.75 275.77,-164.58"/>
<polygon fill="midnightblue" stroke="midnightblue" points="256.27,-191 254.25,-201.4 262.31,-194.53 256.27,-191"/>
</g>
<!-- Node10 -->
<g id="node10" class="node">
<title>Node10</title>
<g id="a_node10"><a xlink:href="alphabet_2structure_2all_8hpp.html" target="_top" xlink:title="Meta&#45;header for the structure module. It includes all headers from alphabet/structure/.">
<polygon fill="white" stroke="black" points="0,-134.5 0,-164.5 124,-164.5 124,-134.5 0,-134.5"/>
<text text-anchor="start" x="8" y="-152.5" font-family="Helvetica,sans-Serif" font-size="10.00">bio/alphabet/structure</text>
<text text-anchor="middle" x="62" y="-141.5" font-family="Helvetica,sans-Serif" font-size="10.00">/all.hpp</text>
</a>
</g>
</g>
<!-- Node9&#45;&gt;Node10 -->
<g id="edge12" class="edge">
<title>Node9&#45;&gt;Node10</title>
<path fill="none" stroke="midnightblue" d="M62,-191.11C62,-182.15 62,-172.32 62,-164.58"/>
<polygon fill="midnightblue" stroke="midnightblue" points="58.5,-191.4 62,-201.4 65.5,-191.4 58.5,-191.4"/>
</g>
<!-- Node10&#45;&gt;Node3 -->
<g id="edge13" class="edge">
<title>Node10&#45;&gt;Node3</title>
<path fill="none" stroke="midnightblue" d="M73.35,-125.1C87.82,-95.25 112.14,-45.08 121.83,-25.1"/>
<polygon fill="midnightblue" stroke="midnightblue" points="70.06,-123.85 68.85,-134.37 76.36,-126.9 70.06,-123.85"/>
</g>
</g>
</svg>
