<?xml version="1.0" encoding="UTF-8" standalone="no"?>
<!DOCTYPE svg PUBLIC "-//W3C//DTD SVG 1.1//EN"
 "http://www.w3.org/Graphics/SVG/1.1/DTD/svg11.dtd">
<!-- Generated by graphviz version 2.43.0 (0)
 -->
<!-- Title: bio/meta/add_enum_bitwise_operators.hpp Pages: 1 -->
<svg width="1090pt" height="307pt"
 viewBox="0.00 0.00 1090.44 307.00" xmlns="http://www.w3.org/2000/svg" xmlns:xlink="http://www.w3.org/1999/xlink">
<g id="graph0" class="graph" transform="scale(1 1) rotate(0) translate(4 303)">
<title>bio/meta/add_enum_bitwise_operators.hpp</title>
<polygon fill="white" stroke="transparent" points="-4,4 -4,-303 1086.44,-303 1086.44,4 -4,4"/>
<!-- Node1 -->
<g id="node1" class="node">
<title>Node1</title>
<g id="a_node1"><a xlink:title="Provides bio::add_enum_bitwise_operators.">
<polygon fill="#bfbfbf" stroke="black" points="302.94,-268.5 302.94,-298.5 457.94,-298.5 457.94,-268.5 302.94,-268.5"/>
<text text-anchor="start" x="310.94" y="-286.5" font-family="Helvetica,sans-Serif" font-size="10.00">bio/meta/add_enum_bitwise</text>
<text text-anchor="middle" x="380.44" y="-275.5" font-family="Helvetica,sans-Serif" font-size="10.00">_operators.hpp</text>
</a>
</g>
</g>
<!-- Node2 -->
<g id="node2" class="node">
<title>Node2</title>
<g id="a_node2"><a xlink:href="meta_2all_8hpp.html" target="_top" xlink:title="Meta&#45;header for the core module .">
<polygon fill="white" stroke="black" points="54.44,-11.5 54.44,-30.5 150.44,-30.5 150.44,-11.5 54.44,-11.5"/>
<text text-anchor="middle" x="102.44" y="-18.5" font-family="Helvetica,sans-Serif" font-size="10.00">bio/meta/all.hpp</text>
</a>
</g>
</g>
<!-- Node1&#45;&gt;Node2 -->
<g id="edge1" class="edge">
<title>Node1&#45;&gt;Node2</title>
<path fill="none" stroke="midnightblue" d="M292.61,-266.95C193.95,-247.49 43.16,-211.05 9.44,-165 -26.61,-115.78 55.58,-53.18 89.05,-30.6"/>
<polygon fill="midnightblue" stroke="midnightblue" points="292.1,-270.42 302.58,-268.9 293.44,-263.55 292.1,-270.42"/>
</g>
<!-- Node3 -->
<g id="node3" class="node">
<title>Node3</title>
<g id="a_node3"><a xlink:href="debug__stream__type_8hpp.html" target="_top" xlink:title="Provides bio::debug_stream and related types.">
<polygon fill="white" stroke="black" points="318.44,-201.5 318.44,-231.5 442.44,-231.5 442.44,-201.5 318.44,-201.5"/>
<text text-anchor="start" x="326.44" y="-219.5" font-family="Helvetica,sans-Serif" font-size="10.00">bio/meta/detail/debug</text>
<text text-anchor="middle" x="380.44" y="-208.5" font-family="Helvetica,sans-Serif" font-size="10.00">_stream_type.hpp</text>
</a>
</g>
</g>
<!-- Node1&#45;&gt;Node3 -->
<g id="edge2" class="edge">
<title>Node1&#45;&gt;Node3</title>
<path fill="none" stroke="midnightblue" d="M380.44,-258.11C380.44,-249.15 380.44,-239.32 380.44,-231.58"/>
<polygon fill="midnightblue" stroke="midnightblue" points="376.94,-258.4 380.44,-268.4 383.94,-258.4 376.94,-258.4"/>
</g>
<!-- Node12 -->
<g id="node12" class="node">
<title>Node12</title>
<g id="a_node12"><a xlink:href="translate_8hpp.html" target="_top" xlink:title="Provides bio::views::translate and bio::views::translate_single.">
<polygon fill="white" stroke="black" points="766.94,-207 766.94,-226 933.94,-226 933.94,-207 766.94,-207"/>
<text text-anchor="middle" x="850.44" y="-214" font-family="Helvetica,sans-Serif" font-size="10.00">bio/ranges/views/translate.hpp</text>
</a>
</g>
</g>
<!-- Node1&#45;&gt;Node12 -->
<g id="edge22" class="edge">
<title>Node1&#45;&gt;Node12</title>
<path fill="none" stroke="midnightblue" d="M468.04,-270.38C561.42,-257.47 706.87,-237.36 788.85,-226.02"/>
<polygon fill="midnightblue" stroke="midnightblue" points="467.47,-266.93 458.05,-271.77 468.43,-273.86 467.47,-266.93"/>
</g>
<!-- Node4 -->
<g id="node4" class="node">
<title>Node4</title>
<g id="a_node4"><a xlink:href="debug__stream_8hpp.html" target="_top" xlink:title="Provides bio::debug_stream and related types.">
<polygon fill="white" stroke="black" points="382.44,-78.5 382.44,-97.5 536.44,-97.5 536.44,-78.5 382.44,-78.5"/>
<text text-anchor="middle" x="459.44" y="-85.5" font-family="Helvetica,sans-Serif" font-size="10.00">bio/meta/debug_stream.hpp</text>
</a>
</g>
</g>
<!-- Node3&#45;&gt;Node4 -->
<g id="edge3" class="edge">
<title>Node3&#45;&gt;Node4</title>
<path fill="none" stroke="midnightblue" d="M452.79,-215.9C545.79,-214.7 699.6,-206.3 735.44,-165 744.47,-154.59 744.36,-144.5 735.44,-134 710.32,-104.46 609.07,-94.26 536.49,-90.77"/>
<polygon fill="midnightblue" stroke="midnightblue" points="452.55,-212.4 442.59,-216.01 452.63,-219.4 452.55,-212.4"/>
</g>
<!-- Node6 -->
<g id="node6" class="node">
<title>Node6</title>
<g id="a_node6"><a xlink:href="meta_2detail_2all_8hpp.html" target="_top" xlink:title="Meta&#45;header for implementation details in the core module.">
<polygon fill="white" stroke="black" points="173.94,-78.5 173.94,-97.5 300.94,-97.5 300.94,-78.5 173.94,-78.5"/>
<text text-anchor="middle" x="237.44" y="-85.5" font-family="Helvetica,sans-Serif" font-size="10.00">bio/meta/detail/all.hpp</text>
</a>
</g>
</g>
<!-- Node3&#45;&gt;Node6 -->
<g id="edge5" class="edge">
<title>Node3&#45;&gt;Node6</title>
<path fill="none" stroke="midnightblue" d="M308.07,-215.97C214.58,-214.85 59.54,-206.57 23.44,-165 -21.93,-112.76 95.48,-96.43 173.8,-91.32"/>
<polygon fill="midnightblue" stroke="midnightblue" points="308.28,-219.47 318.31,-216.07 308.35,-212.47 308.28,-219.47"/>
</g>
<!-- Node7 -->
<g id="node7" class="node">
<title>Node7</title>
<g id="a_node7"><a xlink:href="debug__stream__alphabet_8hpp.html" target="_top" xlink:title="Provides bio::debug_stream and related types.">
<polygon fill="white" stroke="black" points="174.94,-134.5 174.94,-164.5 299.94,-164.5 299.94,-134.5 174.94,-134.5"/>
<text text-anchor="start" x="182.94" y="-152.5" font-family="Helvetica,sans-Serif" font-size="10.00">bio/meta/detail/debug</text>
<text text-anchor="middle" x="237.44" y="-141.5" font-family="Helvetica,sans-Serif" font-size="10.00">_stream_alphabet.hpp</text>
</a>
</g>
</g>
<!-- Node3&#45;&gt;Node7 -->
<g id="edge7" class="edge">
<title>Node3&#45;&gt;Node7</title>
<path fill="none" stroke="midnightblue" d="M340.02,-197.13C317.3,-186.8 289.38,-174.11 268.41,-164.58"/>
<polygon fill="midnightblue" stroke="midnightblue" points="338.86,-200.44 349.41,-201.4 341.75,-194.07 338.86,-200.44"/>
</g>
<!-- Node8 -->
<g id="node8" class="node">
<title>Node8</title>
<g id="a_node8"><a xlink:href="debug__stream__optional_8hpp.html" target="_top" xlink:title="Provides bio::debug_stream and related types.">
<polygon fill="white" stroke="black" points="318.44,-134.5 318.44,-164.5 442.44,-164.5 442.44,-134.5 318.44,-134.5"/>
<text text-anchor="start" x="326.44" y="-152.5" font-family="Helvetica,sans-Serif" font-size="10.00">bio/meta/detail/debug</text>
<text text-anchor="middle" x="380.44" y="-141.5" font-family="Helvetica,sans-Serif" font-size="10.00">_stream_optional.hpp</text>
</a>
</g>
</g>
<!-- Node3&#45;&gt;Node8 -->
<g id="edge10" class="edge">
<title>Node3&#45;&gt;Node8</title>
<path fill="none" stroke="midnightblue" d="M380.44,-191.11C380.44,-182.15 380.44,-172.32 380.44,-164.58"/>
<polygon fill="midnightblue" stroke="midnightblue" points="376.94,-191.4 380.44,-201.4 383.94,-191.4 376.94,-191.4"/>
</g>
<!-- Node9 -->
<g id="node9" class="node">
<title>Node9</title>
<g id="a_node9"><a xlink:href="debug__stream__range_8hpp.html" target="_top" xlink:title="Provides bio::debug_stream and related types.">
<polygon fill="white" stroke="black" points="460.44,-134.5 460.44,-164.5 584.44,-164.5 584.44,-134.5 460.44,-134.5"/>
<text text-anchor="start" x="468.44" y="-152.5" font-family="Helvetica,sans-Serif" font-size="10.00">bio/meta/detail/debug</text>
<text text-anchor="middle" x="522.44" y="-141.5" font-family="Helvetica,sans-Serif" font-size="10.00">_stream_range.hpp</text>
</a>
</g>
</g>
<!-- Node3&#45;&gt;Node9 -->
<g id="edge13" class="edge">
<title>Node3&#45;&gt;Node9</title>
<path fill="none" stroke="midnightblue" d="M420.57,-197.13C443.13,-186.8 470.86,-174.11 491.69,-164.58"/>
<polygon fill="midnightblue" stroke="midnightblue" points="418.88,-194.05 411.25,-201.4 421.8,-200.42 418.88,-194.05"/>
</g>
<!-- Node10 -->
<g id="node10" class="node">
<title>Node10</title>
<g id="a_node10"><a xlink:href="debug__stream__tuple_8hpp.html" target="_top" xlink:title="Provides bio::debug_stream and related types.">
<polygon fill="white" stroke="black" points="602.44,-134.5 602.44,-164.5 726.44,-164.5 726.44,-134.5 602.44,-134.5"/>
<text text-anchor="start" x="610.44" y="-152.5" font-family="Helvetica,sans-Serif" font-size="10.00">bio/meta/detail/debug</text>
<text text-anchor="middle" x="664.44" y="-141.5" font-family="Helvetica,sans-Serif" font-size="10.00">_stream_tuple.hpp</text>
</a>
</g>
</g>
<!-- Node3&#45;&gt;Node10 -->
<g id="edge16" class="edge">
<title>Node3&#45;&gt;Node10</title>
<path fill="none" stroke="midnightblue" d="M451.72,-199.19C498.23,-188.54 558.33,-174.78 602.78,-164.61"/>
<polygon fill="midnightblue" stroke="midnightblue" points="450.68,-195.83 441.71,-201.48 452.24,-202.66 450.68,-195.83"/>
</g>
<!-- Node11 -->
<g id="node11" class="node">
<title>Node11</title>
<g id="a_node11"><a xlink:href="debug__stream__variant_8hpp.html" target="_top" xlink:title="Provides bio::debug_stream and related types.">
<polygon fill="white" stroke="black" points="32.44,-134.5 32.44,-164.5 156.44,-164.5 156.44,-134.5 32.44,-134.5"/>
<text text-anchor="start" x="40.44" y="-152.5" font-family="Helvetica,sans-Serif" font-size="10.00">bio/meta/detail/debug</text>
<text text-anchor="middle" x="94.44" y="-141.5" font-family="Helvetica,sans-Serif" font-size="10.00">_stream_variant.hpp</text>
</a>
</g>
</g>
<!-- Node3&#45;&gt;Node11 -->
<g id="edge19" class="edge">
<title>Node3&#45;&gt;Node11</title>
<path fill="none" stroke="midnightblue" d="M308.95,-199.25C262.07,-188.6 201.38,-174.81 156.52,-164.61"/>
<polygon fill="midnightblue" stroke="midnightblue" points="308.2,-202.67 318.73,-201.48 309.76,-195.85 308.2,-202.67"/>
</g>
<!-- Node5 -->
<g id="node5" class="node">
<title>Node5</title>
<g id="a_node5"><a xlink:href="load_8hpp_source.html" target="_top" xlink:title=" ">
<polygon fill="white" stroke="black" points="400.94,-0.5 400.94,-41.5 517.94,-41.5 517.94,-0.5 400.94,-0.5"/>
<text text-anchor="start" x="408.94" y="-29.5" font-family="Helvetica,sans-Serif" font-size="10.00">/home/hannes/devel</text>
<text text-anchor="start" x="408.94" y="-18.5" font-family="Helvetica,sans-Serif" font-size="10.00">/bio&#45;core/doc/howto</text>
<text text-anchor="middle" x="459.44" y="-7.5" font-family="Helvetica,sans-Serif" font-size="10.00">/use_cereal/load.hpp</text>
</a>
</g>
</g>
<!-- Node4&#45;&gt;Node5 -->
<g id="edge4" class="edge">
<title>Node4&#45;&gt;Node5</title>
<path fill="none" stroke="midnightblue" d="M459.44,-68.04C459.44,-59.71 459.44,-49.94 459.44,-41.54"/>
<polygon fill="midnightblue" stroke="midnightblue" points="455.94,-68.23 459.44,-78.23 462.94,-68.23 455.94,-68.23"/>
</g>
<!-- Node6&#45;&gt;Node2 -->
<g id="edge6" class="edge">
<title>Node6&#45;&gt;Node2</title>
<path fill="none" stroke="midnightblue" d="M210.32,-73.94C183.58,-61.07 143.47,-41.76 120.44,-30.67"/>
<polygon fill="midnightblue" stroke="midnightblue" points="208.98,-77.18 219.51,-78.37 212.02,-70.88 208.98,-77.18"/>
</g>
<!-- Node7&#45;&gt;Node4 -->
<g id="edge8" class="edge">
<title>Node7&#45;&gt;Node4</title>
<path fill="none" stroke="midnightblue" d="M299.55,-131.85C341.24,-120.68 394.41,-106.43 427.7,-97.51"/>
<polygon fill="midnightblue" stroke="midnightblue" points="298.52,-128.51 289.77,-134.47 300.33,-135.27 298.52,-128.51"/>
</g>
<!-- Node7&#45;&gt;Node6 -->
<g id="edge9" class="edge">
<title>Node7&#45;&gt;Node6</title>
<path fill="none" stroke="midnightblue" d="M237.44,-124.29C237.44,-114.86 237.44,-104.65 237.44,-97.66"/>
<polygon fill="midnightblue" stroke="midnightblue" points="233.94,-124.4 237.44,-134.4 240.94,-124.4 233.94,-124.4"/>
</g>
<!-- Node8&#45;&gt;Node4 -->
<g id="edge11" class="edge">
<title>Node8&#45;&gt;Node4</title>
<path fill="none" stroke="midnightblue" d="M407.4,-128.19C421.24,-117.77 437.35,-105.63 447.94,-97.66"/>
<polygon fill="midnightblue" stroke="midnightblue" points="405.04,-125.59 399.16,-134.4 409.25,-131.18 405.04,-125.59"/>
</g>
<!-- Node8&#45;&gt;Node6 -->
<g id="edge12" class="edge">
<title>Node8&#45;&gt;Node6</title>
<path fill="none" stroke="midnightblue" d="M337.21,-130.52C311.05,-119.63 278.86,-106.23 258.24,-97.66"/>
<polygon fill="midnightblue" stroke="midnightblue" points="335.97,-133.79 346.55,-134.4 338.66,-127.33 335.97,-133.79"/>
</g>
<!-- Node9&#45;&gt;Node4 -->
<g id="edge14" class="edge">
<title>Node9&#45;&gt;Node4</title>
<path fill="none" stroke="midnightblue" d="M499.99,-127.3C489.18,-117.09 476.81,-105.41 468.6,-97.66"/>
<polygon fill="midnightblue" stroke="midnightblue" points="497.83,-130.08 507.51,-134.4 502.64,-124.99 497.83,-130.08"/>
</g>
<!-- Node9&#45;&gt;Node6 -->
<g id="edge15" class="edge">
<title>Node9&#45;&gt;Node6</title>
<path fill="none" stroke="midnightblue" d="M450.31,-133.44C395.89,-122.08 323.2,-106.9 278.39,-97.55"/>
<polygon fill="midnightblue" stroke="midnightblue" points="449.74,-136.9 460.24,-135.52 451.17,-130.05 449.74,-136.9"/>
</g>
<!-- Node10&#45;&gt;Node4 -->
<g id="edge17" class="edge">
<title>Node10&#45;&gt;Node4</title>
<path fill="none" stroke="midnightblue" d="M606.1,-131.57C567.76,-120.44 519.23,-106.35 488.74,-97.51"/>
<polygon fill="midnightblue" stroke="midnightblue" points="605.53,-135.05 616.11,-134.47 607.49,-128.33 605.53,-135.05"/>
</g>
<!-- Node10&#45;&gt;Node6 -->
<g id="edge18" class="edge">
<title>Node10&#45;&gt;Node6</title>
<path fill="none" stroke="midnightblue" d="M592.08,-133.85C484.38,-116.35 370.21,-103.04 300.99,-95.56"/>
<polygon fill="midnightblue" stroke="midnightblue" points="591.71,-137.34 602.15,-135.5 592.85,-130.43 591.71,-137.34"/>
</g>
<!-- Node11&#45;&gt;Node4 -->
<g id="edge20" class="edge">
<title>Node11&#45;&gt;Node4</title>
<path fill="none" stroke="midnightblue" d="M166.64,-133.83C252.34,-118.69 340.54,-105.65 397.91,-97.51"/>
<polygon fill="midnightblue" stroke="midnightblue" points="165.97,-130.4 156.74,-135.59 167.2,-137.29 165.97,-130.4"/>
</g>
<!-- Node11&#45;&gt;Node6 -->
<g id="edge21" class="edge">
<title>Node11&#45;&gt;Node6</title>
<path fill="none" stroke="midnightblue" d="M137.66,-130.52C163.83,-119.63 196.02,-106.23 216.63,-97.66"/>
<polygon fill="midnightblue" stroke="midnightblue" points="136.21,-127.33 128.33,-134.4 138.9,-133.79 136.21,-127.33"/>
</g>
<!-- Node13 -->
<g id="node13" class="node">
<title>Node13</title>
<g id="a_node13"><a xlink:href="ranges_2views_2all_8hpp.html" target="_top" xlink:title="Meta&#45;header for the views submodule .">
<polygon fill="white" stroke="black" points="782.94,-140 782.94,-159 917.94,-159 917.94,-140 782.94,-140"/>
<text text-anchor="middle" x="850.44" y="-147" font-family="Helvetica,sans-Serif" font-size="10.00">bio/ranges/views/all.hpp</text>
</a>
</g>
</g>
<!-- Node12&#45;&gt;Node13 -->
<g id="edge23" class="edge">
<title>Node12&#45;&gt;Node13</title>
<path fill="none" stroke="midnightblue" d="M850.44,-196.54C850.44,-184.17 850.44,-168.62 850.44,-159.13"/>
<polygon fill="midnightblue" stroke="midnightblue" points="846.94,-196.73 850.44,-206.73 853.94,-196.73 846.94,-196.73"/>
</g>
<!-- Node14 -->
<g id="node14" class="node">
<title>Node14</title>
<g id="a_node14"><a xlink:href="translate__join_8hpp.html" target="_top" xlink:title="Provides bio::views::translate_join.">
<polygon fill="white" stroke="black" points="936.44,-134.5 936.44,-164.5 1082.44,-164.5 1082.44,-134.5 936.44,-134.5"/>
<text text-anchor="start" x="944.44" y="-152.5" font-family="Helvetica,sans-Serif" font-size="10.00">bio/ranges/views/translate</text>
<text text-anchor="middle" x="1009.44" y="-141.5" font-family="Helvetica,sans-Serif" font-size="10.00">_join.hpp</text>
</a>
</g>
</g>
<!-- Node12&#45;&gt;Node14 -->
<g id="edge24" class="edge">
<title>Node12&#45;&gt;Node14</title>
<path fill="none" stroke="midnightblue" d="M880.87,-203.06C907.81,-192.05 947.08,-175.99 975.12,-164.53"/>
<polygon fill="midnightblue" stroke="midnightblue" points="879.48,-199.84 871.55,-206.87 882.13,-206.32 879.48,-199.84"/>
</g>
</g>
</svg>
