<?xml version="1.0" encoding="UTF-8" standalone="no"?>
<!DOCTYPE svg PUBLIC "-//W3C//DTD SVG 1.1//EN"
 "http://www.w3.org/Graphics/SVG/1.1/DTD/svg11.dtd">
<!-- Generated by graphviz version 2.43.0 (0)
 -->
<!-- Title: bio/ranges/views/add_reverse_complement.hpp Pages: 1 -->
<!--zoomable 486 -->
<svg id="main" version="1.1" xmlns="http://www.w3.org/2000/svg" xmlns:xlink="http://www.w3.org/1999/xlink" xml:space="preserve" onload="init(evt)">
<style type="text/css"><![CDATA[
.edge:hover path { stroke: red; }
.edge:hover polygon { stroke: red; fill: red; }
]]></style>
<script type="text/javascript"><![CDATA[
var edges = document.getElementsByTagName('g');
if (edges && edges.length) {
  for (var i=0;i<edges.length;i++) {
    if (edges[i].id.substr(0,4)=='edge') {
      edges[i].setAttribute('class','edge');
    }
  }
}
]]></script>
        <defs>
                <circle id="rim" cx="0" cy="0" r="7"/>
                <circle id="rim2" cx="0" cy="0" r="3.5"/>
                <g id="zoomPlus">
                        <use xlink:href="#rim" fill="#404040">
                                <set attributeName="fill" to="#808080" begin="zoomplus.mouseover" end="zoomplus.mouseout"/>
                        </use>
                        <path d="M-4,0h8M0,-4v8" fill="none" stroke="white" stroke-width="1.5" pointer-events="none"/>
                </g>
                <g id="zoomMin">
                        <use xlink:href="#rim" fill="#404040">
                                <set attributeName="fill" to="#808080" begin="zoomminus.mouseover" end="zoomminus.mouseout"/>
                        </use>
                        <path d="M-4,0h8" fill="none" stroke="white" stroke-width="1.5" pointer-events="none"/>
                </g>
                <g id="dirArrow">
                        <path fill="none" stroke="white" stroke-width="1.5" d="M0,-3.0v7 M-2.5,-0.5L0,-3.0L2.5,-0.5"/>
                </g>
               <g id="resetDef">
                       <use xlink:href="#rim2" fill="#404040">
                               <set attributeName="fill" to="#808080" begin="reset.mouseover" end="reset.mouseout"/>
                       </use>
               </g>
        </defs>

<script type="text/javascript">
var viewWidth = 1172;
var viewHeight = 486;
var sectionId = 'dynsection-0';
</script>
<script xlink:href="svgpan.js"/>
<svg id="graph" class="graph">
<g id="viewport">
<title>bio/ranges/views/add_reverse_complement.hpp</title>
<polygon fill="white" stroke="transparent" points="-4,4 -4,-482 1168.26,-482 1168.26,4 -4,4"/>
<!-- Node1 -->
<g id="node1" class="node">
<title>Node1</title>
<g id="a_node1"><a xlink:title="Provides bio::views::add_reverse_complement.">
<polygon fill="#bfbfbf" stroke="black" points="519,-447.5 519,-477.5 665,-477.5 665,-447.5 519,-447.5"/>
<text text-anchor="start" x="527" y="-465.5" font-family="Helvetica,sans-Serif" font-size="10.00">bio/ranges/views/add</text>
<text text-anchor="middle" x="592" y="-454.5" font-family="Helvetica,sans-Serif" font-size="10.00">_reverse_complement.hpp</text>
</a>
</g>
</g>
<!-- Node2 -->
<g id="node2" class="node">
<title>Node2</title>
<g id="a_node2"><a target="_blank" xlink:href="https://en.cppreference.com/w/cpp/header/ranges.html" xlink:title=" ">
<polygon fill="white" stroke="black" points="670,-185 670,-204 720,-204 720,-185 670,-185"/>
<text text-anchor="middle" x="695" y="-192" font-family="Helvetica,sans-Serif" font-size="10.00">ranges</text>
</a>
</g>
</g>
<!-- Node1&#45;&gt;Node2 -->
<g id="edge1" class="edge">
<title>Node1&#45;&gt;Node2</title>
<path fill="none" stroke="midnightblue" d="M579.76,-447.12C572.46,-437.57 563.88,-424.36 560,-411 541.98,-348.88 604.95,-255.6 613,-246 626.78,-229.57 647.33,-216.93 664.41,-208.4"/>
<polygon fill="midnightblue" stroke="midnightblue" points="665.95,-211.54 673.48,-204.09 662.95,-205.22 665.95,-211.54"/>
</g>
<!-- Node3 -->
<g id="node3" class="node">
<title>Node3</title>
<g id="a_node3"><a xlink:href="alphabet_2nucleotide_2concept_8hpp.html" target="_top" xlink:title="Provides bio::alphabet::nucleotide_alphabet.">
<polygon fill="white" stroke="black" points="377.5,-313.5 377.5,-343.5 508.5,-343.5 508.5,-313.5 377.5,-313.5"/>
<text text-anchor="start" x="385.5" y="-331.5" font-family="Helvetica,sans-Serif" font-size="10.00">bio/alphabet/nucleotide</text>
<text text-anchor="middle" x="443" y="-320.5" font-family="Helvetica,sans-Serif" font-size="10.00">/concept.hpp</text>
</a>
</g>
</g>
<!-- Node1&#45;&gt;Node3 -->
<g id="edge2" class="edge">
<title>Node1&#45;&gt;Node3</title>
<path fill="none" stroke="midnightblue" d="M572.79,-447.45C559.61,-437.6 541.89,-423.94 527,-411 504.52,-391.47 480.25,-367.59 463.61,-350.74"/>
<polygon fill="midnightblue" stroke="midnightblue" points="466.03,-348.22 456.53,-343.54 461.04,-353.12 466.03,-348.22"/>
</g>
<!-- Node23 -->
<g id="node23" class="node">
<title>Node23</title>
<g id="a_node23"><a xlink:href="deep_8hpp.html" target="_top" xlink:title="Provides bio::views::deep.">
<polygon fill="white" stroke="black" points="569.5,-386 569.5,-405 716.5,-405 716.5,-386 569.5,-386"/>
<text text-anchor="middle" x="643" y="-393" font-family="Helvetica,sans-Serif" font-size="10.00">bio/ranges/views/deep.hpp</text>
</a>
</g>
</g>
<!-- Node1&#45;&gt;Node23 -->
<g id="edge33" class="edge">
<title>Node1&#45;&gt;Node23</title>
<path fill="none" stroke="midnightblue" d="M603.07,-447.4C610.94,-437.36 621.55,-423.84 629.85,-413.25"/>
<polygon fill="midnightblue" stroke="midnightblue" points="632.76,-415.22 636.18,-405.19 627.25,-410.9 632.76,-415.22"/>
</g>
<!-- Node27 -->
<g id="node27" class="node">
<title>Node27</title>
<g id="a_node27"><a xlink:href="transform__by__pos_8hpp.html" target="_top" xlink:title="Provides bio::views::transform_by_pos.">
<polygon fill="white" stroke="black" points="756,-380.5 756,-410.5 906,-410.5 906,-380.5 756,-380.5"/>
<text text-anchor="start" x="764" y="-398.5" font-family="Helvetica,sans-Serif" font-size="10.00">bio/ranges/views/transform</text>
<text text-anchor="middle" x="831" y="-387.5" font-family="Helvetica,sans-Serif" font-size="10.00">_by_pos.hpp</text>
</a>
</g>
</g>
<!-- Node1&#45;&gt;Node27 -->
<g id="edge45" class="edge">
<title>Node1&#45;&gt;Node27</title>
<path fill="none" stroke="midnightblue" d="M643.57,-447.48C680.5,-437.43 730.41,-423.86 769.44,-413.24"/>
<polygon fill="midnightblue" stroke="midnightblue" points="770.38,-416.61 779.12,-410.61 768.55,-409.86 770.38,-416.61"/>
</g>
<!-- Node4 -->
<g id="node4" class="node">
<title>Node4</title>
<g id="a_node4"><a target="_blank" xlink:href="https://en.cppreference.com/w/cpp/header/concepts.html" xlink:title=" ">
<polygon fill="white" stroke="black" points="0,-56.5 0,-75.5 60,-75.5 60,-56.5 0,-56.5"/>
<text text-anchor="middle" x="30" y="-63.5" font-family="Helvetica,sans-Serif" font-size="10.00">concepts</text>
</a>
</g>
</g>
<!-- Node3&#45;&gt;Node4 -->
<g id="edge3" class="edge">
<title>Node3&#45;&gt;Node4</title>
<path fill="none" stroke="midnightblue" d="M377.35,-317.19C286.15,-299.16 123.09,-252.77 41,-143 28.67,-126.52 27.21,-102.28 28,-85.63"/>
<polygon fill="midnightblue" stroke="midnightblue" points="31.5,-85.75 28.79,-75.5 24.52,-85.2 31.5,-85.75"/>
</g>
<!-- Node5 -->
<g id="node5" class="node">
<title>Node5</title>
<g id="a_node5"><a xlink:href="alphabet_2concept_8hpp.html" target="_top" xlink:title="Core alphabet concept and free function/type trait wrappers.">
<polygon fill="white" stroke="black" points="373,-252 373,-271 513,-271 513,-252 373,-252"/>
<text text-anchor="middle" x="443" y="-259" font-family="Helvetica,sans-Serif" font-size="10.00">bio/alphabet/concept.hpp</text>
</a>
</g>
</g>
<!-- Node3&#45;&gt;Node5 -->
<g id="edge4" class="edge">
<title>Node3&#45;&gt;Node5</title>
<path fill="none" stroke="midnightblue" d="M443,-313.4C443,-304.06 443,-291.71 443,-281.52"/>
<polygon fill="midnightblue" stroke="midnightblue" points="446.5,-281.19 443,-271.19 439.5,-281.19 446.5,-281.19"/>
</g>
<!-- Node6 -->
<g id="node6" class="node">
<title>Node6</title>
<g id="a_node6"><a target="_blank" xlink:href="https://en.cppreference.com/w/cpp/header/type_traits.html" xlink:title=" ">
<polygon fill="white" stroke="black" points="799.5,-56.5 799.5,-75.5 868.5,-75.5 868.5,-56.5 799.5,-56.5"/>
<text text-anchor="middle" x="834" y="-63.5" font-family="Helvetica,sans-Serif" font-size="10.00">type_traits</text>
</a>
</g>
</g>
<!-- Node5&#45;&gt;Node6 -->
<g id="edge5" class="edge">
<title>Node5&#45;&gt;Node6</title>
<path fill="none" stroke="midnightblue" d="M483.06,-252C516.76,-243.92 565.61,-230.03 605,-210 670.13,-176.88 674.2,-149.35 737,-112 758.16,-99.42 783.42,-87.8 802.86,-79.52"/>
<polygon fill="midnightblue" stroke="midnightblue" points="804.3,-82.71 812.17,-75.62 801.59,-76.25 804.3,-82.71"/>
</g>
<!-- Node7 -->
<g id="node7" class="node">
<title>Node7</title>
<g id="a_node7"><a xlink:href="tag_8hpp.html" target="_top" xlink:title="Provides the customisation tags for the alphabet concepts.">
<polygon fill="white" stroke="black" points="460,-179.5 460,-209.5 576,-209.5 576,-179.5 460,-179.5"/>
<text text-anchor="start" x="468" y="-197.5" font-family="Helvetica,sans-Serif" font-size="10.00">bio/alphabet/custom</text>
<text text-anchor="middle" x="518" y="-186.5" font-family="Helvetica,sans-Serif" font-size="10.00">/tag.hpp</text>
</a>
</g>
</g>
<!-- Node5&#45;&gt;Node7 -->
<g id="edge6" class="edge">
<title>Node5&#45;&gt;Node7</title>
<path fill="none" stroke="midnightblue" d="M453.11,-251.73C463.54,-242.7 480.18,-228.27 494,-216.3"/>
<polygon fill="midnightblue" stroke="midnightblue" points="496.48,-218.78 501.74,-209.59 491.89,-213.49 496.48,-218.78"/>
</g>
<!-- Node8 -->
<g id="node8" class="node">
<title>Node8</title>
<g id="a_node8"><a xlink:href="exception_8hpp.html" target="_top" xlink:title="Exceptions thrown by entities in the alphabet module.">
<polygon fill="white" stroke="black" points="50.5,-118 50.5,-137 199.5,-137 199.5,-118 50.5,-118"/>
<text text-anchor="middle" x="125" y="-125" font-family="Helvetica,sans-Serif" font-size="10.00">bio/alphabet/exception.hpp</text>
</a>
</g>
</g>
<!-- Node5&#45;&gt;Node8 -->
<g id="edge7" class="edge">
<title>Node5&#45;&gt;Node8</title>
<path fill="none" stroke="midnightblue" d="M422.14,-251.84C367.31,-229.08 219.02,-167.53 155.04,-140.97"/>
<polygon fill="midnightblue" stroke="midnightblue" points="156.11,-137.62 145.53,-137.02 153.42,-144.09 156.11,-137.62"/>
</g>
<!-- Node11 -->
<g id="node11" class="node">
<title>Node11</title>
<g id="a_node11"><a xlink:href="core_8hpp.html" target="_top" xlink:title="Provides platform and dependency checks.">
<polygon fill="white" stroke="black" points="472.5,-56.5 472.5,-75.5 549.5,-75.5 549.5,-56.5 472.5,-56.5"/>
<text text-anchor="middle" x="511" y="-63.5" font-family="Helvetica,sans-Serif" font-size="10.00">bio/core.hpp</text>
</a>
</g>
</g>
<!-- Node5&#45;&gt;Node11 -->
<g id="edge16" class="edge">
<title>Node5&#45;&gt;Node11</title>
<path fill="none" stroke="midnightblue" d="M442.39,-251.6C441.66,-236.23 441.54,-204 451,-179 457.98,-160.54 467.14,-160.1 477,-143 487.91,-124.08 497.79,-101.01 504.05,-85.29"/>
<polygon fill="midnightblue" stroke="midnightblue" points="507.41,-86.3 507.78,-75.72 500.89,-83.76 507.41,-86.3"/>
</g>
<!-- Node15 -->
<g id="node15" class="node">
<title>Node15</title>
<g id="a_node15"><a xlink:href="core__language_8hpp.html" target="_top" xlink:title="Provides concepts for core language types and relations that don&#39;t have concepts in C++20 (yet).">
<polygon fill="white" stroke="black" points="525.5,-112.5 525.5,-142.5 650.5,-142.5 650.5,-112.5 525.5,-112.5"/>
<text text-anchor="start" x="533.5" y="-130.5" font-family="Helvetica,sans-Serif" font-size="10.00">bio/meta/concept/core</text>
<text text-anchor="middle" x="588" y="-119.5" font-family="Helvetica,sans-Serif" font-size="10.00">_language.hpp</text>
</a>
</g>
</g>
<!-- Node5&#45;&gt;Node15 -->
<g id="edge17" class="edge">
<title>Node5&#45;&gt;Node15</title>
<path fill="none" stroke="midnightblue" d="M481.31,-251.99C518.93,-242.77 572.46,-227.09 585,-210 596.93,-193.74 596.51,-170.34 593.8,-152.79"/>
<polygon fill="midnightblue" stroke="midnightblue" points="597.19,-151.9 591.9,-142.72 590.31,-153.2 597.19,-151.9"/>
</g>
<!-- Node16 -->
<g id="node16" class="node">
<title>Node16</title>
<g id="a_node16"><a xlink:href="type__inspection_8hpp.html" target="_top" xlink:title="Provides traits to inspect some information of a type, for example its name.">
<polygon fill="white" stroke="black" points="217,-112.5 217,-142.5 333,-142.5 333,-112.5 217,-112.5"/>
<text text-anchor="start" x="225" y="-130.5" font-family="Helvetica,sans-Serif" font-size="10.00">bio/meta/detail/type</text>
<text text-anchor="middle" x="275" y="-119.5" font-family="Helvetica,sans-Serif" font-size="10.00">_inspection.hpp</text>
</a>
</g>
</g>
<!-- Node5&#45;&gt;Node16 -->
<g id="edge21" class="edge">
<title>Node5&#45;&gt;Node16</title>
<path fill="none" stroke="midnightblue" d="M431.98,-251.84C405.58,-231.1 338.15,-178.12 300.83,-148.8"/>
<polygon fill="midnightblue" stroke="midnightblue" points="302.93,-146 292.91,-142.57 298.61,-151.5 302.93,-146"/>
</g>
<!-- Node20 -->
<g id="node20" class="node">
<title>Node20</title>
<g id="a_node20"><a xlink:href="priority__tag_8hpp.html" target="_top" xlink:title="provides bio::meta::priority_tag.">
<polygon fill="white" stroke="black" points="351.5,-112.5 351.5,-142.5 468.5,-142.5 468.5,-112.5 351.5,-112.5"/>
<text text-anchor="start" x="359.5" y="-130.5" font-family="Helvetica,sans-Serif" font-size="10.00">bio/meta/tag/priority</text>
<text text-anchor="middle" x="410" y="-119.5" font-family="Helvetica,sans-Serif" font-size="10.00">_tag.hpp</text>
</a>
</g>
</g>
<!-- Node5&#45;&gt;Node20 -->
<g id="edge27" class="edge">
<title>Node5&#45;&gt;Node20</title>
<path fill="none" stroke="midnightblue" d="M437.56,-251.95C431.65,-242.21 422.47,-225.61 418,-210 412.66,-191.34 410.74,-169.41 410.11,-153"/>
<polygon fill="midnightblue" stroke="midnightblue" points="413.6,-152.54 409.86,-142.63 406.6,-152.71 413.6,-152.54"/>
</g>
<!-- Node21 -->
<g id="node21" class="node">
<title>Node21</title>
<g id="a_node21"><a xlink:href="basic_8hpp.html" target="_top" xlink:title="Provides various type traits on generic types.">
<polygon fill="white" stroke="black" points="776,-179.5 776,-209.5 892,-209.5 892,-179.5 776,-179.5"/>
<text text-anchor="start" x="784" y="-197.5" font-family="Helvetica,sans-Serif" font-size="10.00">bio/meta/type_traits</text>
<text text-anchor="middle" x="834" y="-186.5" font-family="Helvetica,sans-Serif" font-size="10.00">/basic.hpp</text>
</a>
</g>
</g>
<!-- Node5&#45;&gt;Node21 -->
<g id="edge29" class="edge">
<title>Node5&#45;&gt;Node21</title>
<path fill="none" stroke="midnightblue" d="M494.52,-251.94C564.18,-240.36 688.56,-219.68 765.88,-206.82"/>
<polygon fill="midnightblue" stroke="midnightblue" points="766.71,-210.23 776,-205.14 765.56,-203.33 766.71,-210.23"/>
</g>
<!-- Node8&#45;&gt;Node4 -->
<g id="edge8" class="edge">
<title>Node8&#45;&gt;Node4</title>
<path fill="none" stroke="midnightblue" d="M111.39,-117.98C95.94,-108.3 70.51,-92.37 52.18,-80.89"/>
<polygon fill="midnightblue" stroke="midnightblue" points="53.92,-77.85 43.59,-75.51 50.2,-83.78 53.92,-77.85"/>
</g>
<!-- Node9 -->
<g id="node9" class="node">
<title>Node9</title>
<g id="a_node9"><a target="_blank" xlink:href="https://en.cppreference.com/w/cpp/header/stdexcept.html" xlink:title=" ">
<polygon fill="white" stroke="black" points="78.5,-56.5 78.5,-75.5 143.5,-75.5 143.5,-56.5 78.5,-56.5"/>
<text text-anchor="middle" x="111" y="-63.5" font-family="Helvetica,sans-Serif" font-size="10.00">stdexcept</text>
</a>
</g>
</g>
<!-- Node8&#45;&gt;Node9 -->
<g id="edge9" class="edge">
<title>Node8&#45;&gt;Node9</title>
<path fill="none" stroke="midnightblue" d="M122.99,-117.98C121,-109.49 117.87,-96.2 115.31,-85.32"/>
<polygon fill="midnightblue" stroke="midnightblue" points="118.7,-84.44 113,-75.51 111.89,-86.04 118.7,-84.44"/>
</g>
<!-- Node10 -->
<g id="node10" class="node">
<title>Node10</title>
<g id="a_node10"><a target="_blank" xlink:href="https://en.cppreference.com/w/cpp/header/string.html" xlink:title=" ">
<polygon fill="white" stroke="black" points="188,-0.5 188,-19.5 232,-19.5 232,-0.5 188,-0.5"/>
<text text-anchor="middle" x="210" y="-7.5" font-family="Helvetica,sans-Serif" font-size="10.00">string</text>
</a>
</g>
</g>
<!-- Node8&#45;&gt;Node10 -->
<g id="edge10" class="edge">
<title>Node8&#45;&gt;Node10</title>
<path fill="none" stroke="midnightblue" d="M131.39,-117.82C145.42,-98.76 179.13,-52.95 197.52,-27.96"/>
<polygon fill="midnightblue" stroke="midnightblue" points="200.43,-29.91 203.54,-19.78 194.79,-25.76 200.43,-29.91"/>
</g>
<!-- Node8&#45;&gt;Node11 -->
<g id="edge11" class="edge">
<title>Node8&#45;&gt;Node11</title>
<path fill="none" stroke="midnightblue" d="M172.36,-117.95C184,-115.93 196.44,-113.83 208,-112 317.85,-94.65 348.35,-94.54 462.09,-76.08"/>
<polygon fill="midnightblue" stroke="midnightblue" points="462.95,-79.49 472.25,-74.42 461.82,-72.58 462.95,-79.49"/>
</g>
<!-- Node11&#45;&gt;Node10 -->
<g id="edge15" class="edge">
<title>Node11&#45;&gt;Node10</title>
<path fill="none" stroke="midnightblue" d="M472.49,-57.75C469.28,-57.15 466.09,-56.56 463,-56 383.64,-41.5 290.16,-25.03 242.11,-16.61"/>
<polygon fill="midnightblue" stroke="midnightblue" points="242.46,-13.12 232.01,-14.84 241.26,-20.02 242.46,-13.12"/>
</g>
<!-- Node12 -->
<g id="node12" class="node">
<title>Node12</title>
<g id="a_node12"><a target="_blank" xlink:href="https://en.cppreference.com/w/cpp/header/cinttypes.html" xlink:title=" ">
<polygon fill="white" stroke="black" points="556,-0.5 556,-19.5 618,-19.5 618,-0.5 556,-0.5"/>
<text text-anchor="middle" x="587" y="-7.5" font-family="Helvetica,sans-Serif" font-size="10.00">cinttypes</text>
</a>
</g>
</g>
<!-- Node11&#45;&gt;Node12 -->
<g id="edge12" class="edge">
<title>Node11&#45;&gt;Node12</title>
<path fill="none" stroke="midnightblue" d="M523.21,-56.32C534.78,-48.11 552.38,-35.6 566.16,-25.81"/>
<polygon fill="midnightblue" stroke="midnightblue" points="568.44,-28.48 574.57,-19.83 564.39,-22.77 568.44,-28.48"/>
</g>
<!-- Node13 -->
<g id="node13" class="node">
<title>Node13</title>
<g id="a_node13"><a target="_blank" xlink:href="https://en.cppreference.com/w/cpp/header/ciso646.html" xlink:title=" ">
<polygon fill="white" stroke="black" points="412,-0.5 412,-19.5 466,-19.5 466,-0.5 412,-0.5"/>
<text text-anchor="middle" x="439" y="-7.5" font-family="Helvetica,sans-Serif" font-size="10.00">ciso646</text>
</a>
</g>
</g>
<!-- Node11&#45;&gt;Node13 -->
<g id="edge13" class="edge">
<title>Node11&#45;&gt;Node13</title>
<path fill="none" stroke="midnightblue" d="M499.43,-56.32C488.58,-48.18 472.12,-35.84 459.12,-26.09"/>
<polygon fill="midnightblue" stroke="midnightblue" points="460.88,-23.03 450.78,-19.83 456.68,-28.63 460.88,-23.03"/>
</g>
<!-- Node14 -->
<g id="node14" class="node">
<title>Node14</title>
<g id="a_node14"><a target="_blank" xlink:href="https://en.cppreference.com/w/cpp/header/cstddef.html" xlink:title=" ">
<polygon fill="white" stroke="black" points="484.5,-0.5 484.5,-19.5 537.5,-19.5 537.5,-0.5 484.5,-0.5"/>
<text text-anchor="middle" x="511" y="-7.5" font-family="Helvetica,sans-Serif" font-size="10.00">cstddef</text>
</a>
</g>
</g>
<!-- Node11&#45;&gt;Node14 -->
<g id="edge14" class="edge">
<title>Node11&#45;&gt;Node14</title>
<path fill="none" stroke="midnightblue" d="M511,-56.08C511,-49.01 511,-38.86 511,-29.99"/>
<polygon fill="midnightblue" stroke="midnightblue" points="514.5,-29.75 511,-19.75 507.5,-29.75 514.5,-29.75"/>
</g>
<!-- Node15&#45;&gt;Node4 -->
<g id="edge18" class="edge">
<title>Node15&#45;&gt;Node4</title>
<path fill="none" stroke="midnightblue" d="M525.24,-117.84C509.51,-115.79 492.65,-113.71 477,-112 299.31,-92.56 250.54,-104.1 70.24,-75.99"/>
<polygon fill="midnightblue" stroke="midnightblue" points="70.58,-72.5 60.15,-74.39 69.48,-79.41 70.58,-72.5"/>
</g>
<!-- Node15&#45;&gt;Node6 -->
<g id="edge19" class="edge">
<title>Node15&#45;&gt;Node6</title>
<path fill="none" stroke="midnightblue" d="M645.99,-112.47C689.86,-101.86 749.21,-87.51 789.4,-77.79"/>
<polygon fill="midnightblue" stroke="midnightblue" points="790.29,-81.17 799.19,-75.42 788.65,-74.37 790.29,-81.17"/>
</g>
<!-- Node15&#45;&gt;Node11 -->
<g id="edge20" class="edge">
<title>Node15&#45;&gt;Node11</title>
<path fill="none" stroke="midnightblue" d="M569.75,-112.4C557.87,-103.22 542.39,-91.26 530.31,-81.92"/>
<polygon fill="midnightblue" stroke="midnightblue" points="532.26,-79 522.2,-75.66 527.98,-84.54 532.26,-79"/>
</g>
<!-- Node16&#45;&gt;Node10 -->
<g id="edge24" class="edge">
<title>Node16&#45;&gt;Node10</title>
<path fill="none" stroke="midnightblue" d="M258.92,-112.47C249.02,-103.04 236.78,-89.86 229,-76 220.91,-61.58 215.97,-43.39 213.17,-29.92"/>
<polygon fill="midnightblue" stroke="midnightblue" points="216.57,-29.09 211.29,-19.91 209.69,-30.38 216.57,-29.09"/>
</g>
<!-- Node16&#45;&gt;Node11 -->
<g id="edge26" class="edge">
<title>Node16&#45;&gt;Node11</title>
<path fill="none" stroke="midnightblue" d="M330.63,-112.47C372.41,-101.94 428.83,-87.72 467.38,-78"/>
<polygon fill="midnightblue" stroke="midnightblue" points="468.42,-81.34 477.26,-75.51 466.71,-74.56 468.42,-81.34"/>
</g>
<!-- Node17 -->
<g id="node17" class="node">
<title>Node17</title>
<g id="a_node17"><a target="_blank" xlink:href="https://en.cppreference.com/w/cpp/header/functional.html" xlink:title=" ">
<polygon fill="white" stroke="black" points="389.5,-56.5 389.5,-75.5 454.5,-75.5 454.5,-56.5 389.5,-56.5"/>
<text text-anchor="middle" x="422" y="-63.5" font-family="Helvetica,sans-Serif" font-size="10.00">functional</text>
</a>
</g>
</g>
<!-- Node16&#45;&gt;Node17 -->
<g id="edge22" class="edge">
<title>Node16&#45;&gt;Node17</title>
<path fill="none" stroke="midnightblue" d="M309.84,-112.4C334.5,-102.42 367.29,-89.15 391.03,-79.53"/>
<polygon fill="midnightblue" stroke="midnightblue" points="392.65,-82.65 400.61,-75.66 390.03,-76.17 392.65,-82.65"/>
</g>
<!-- Node18 -->
<g id="node18" class="node">
<title>Node18</title>
<g id="a_node18"><a target="_blank" xlink:href="https://en.cppreference.com/w/cpp/header/memory.html" xlink:title=" ">
<polygon fill="white" stroke="black" points="238,-56.5 238,-75.5 296,-75.5 296,-56.5 238,-56.5"/>
<text text-anchor="middle" x="267" y="-63.5" font-family="Helvetica,sans-Serif" font-size="10.00">memory</text>
</a>
</g>
</g>
<!-- Node16&#45;&gt;Node18 -->
<g id="edge23" class="edge">
<title>Node16&#45;&gt;Node18</title>
<path fill="none" stroke="midnightblue" d="M273.1,-112.4C272.03,-104.38 270.66,-94.23 269.5,-85.57"/>
<polygon fill="midnightblue" stroke="midnightblue" points="272.97,-85.1 268.16,-75.66 266.03,-86.04 272.97,-85.1"/>
</g>
<!-- Node19 -->
<g id="node19" class="node">
<title>Node19</title>
<g id="a_node19"><a target="_blank" xlink:href="https://en.cppreference.com/w/cpp/header/typeinfo.html" xlink:title=" ">
<polygon fill="white" stroke="black" points="314.5,-56.5 314.5,-75.5 371.5,-75.5 371.5,-56.5 314.5,-56.5"/>
<text text-anchor="middle" x="343" y="-63.5" font-family="Helvetica,sans-Serif" font-size="10.00">typeinfo</text>
</a>
</g>
</g>
<!-- Node16&#45;&gt;Node19 -->
<g id="edge25" class="edge">
<title>Node16&#45;&gt;Node19</title>
<path fill="none" stroke="midnightblue" d="M291.12,-112.4C301.4,-103.4 314.75,-91.72 325.33,-82.47"/>
<polygon fill="midnightblue" stroke="midnightblue" points="327.88,-84.88 333.11,-75.66 323.27,-79.61 327.88,-84.88"/>
</g>
<!-- Node20&#45;&gt;Node11 -->
<g id="edge28" class="edge">
<title>Node20&#45;&gt;Node11</title>
<path fill="none" stroke="midnightblue" d="M433.94,-112.4C450.13,-102.86 471.41,-90.32 487.5,-80.84"/>
<polygon fill="midnightblue" stroke="midnightblue" points="489.46,-83.75 496.3,-75.66 485.91,-77.72 489.46,-83.75"/>
</g>
<!-- Node21&#45;&gt;Node6 -->
<g id="edge31" class="edge">
<title>Node21&#45;&gt;Node6</title>
<path fill="none" stroke="midnightblue" d="M834,-179.48C834,-156.72 834,-111.7 834,-86.06"/>
<polygon fill="midnightblue" stroke="midnightblue" points="837.5,-85.79 834,-75.79 830.5,-85.79 837.5,-85.79"/>
</g>
<!-- Node21&#45;&gt;Node15 -->
<g id="edge32" class="edge">
<title>Node21&#45;&gt;Node15</title>
<path fill="none" stroke="midnightblue" d="M780.92,-179.48C742.82,-169.41 691.32,-155.8 651.11,-145.17"/>
<polygon fill="midnightblue" stroke="midnightblue" points="651.97,-141.78 641.4,-142.61 650.18,-148.55 651.97,-141.78"/>
</g>
<!-- Node22 -->
<g id="node22" class="node">
<title>Node22</title>
<g id="a_node22"><a target="_blank" xlink:href="https://en.cppreference.com/w/cpp/header/tuple.html" xlink:title=" ">
<polygon fill="white" stroke="black" points="746.5,-118 746.5,-137 787.5,-137 787.5,-118 746.5,-118"/>
<text text-anchor="middle" x="767" y="-125" font-family="Helvetica,sans-Serif" font-size="10.00">tuple</text>
</a>
</g>
</g>
<!-- Node21&#45;&gt;Node22 -->
<g id="edge30" class="edge">
<title>Node21&#45;&gt;Node22</title>
<path fill="none" stroke="midnightblue" d="M819.46,-179.4C808.81,-169.06 794.34,-155.02 783.3,-144.31"/>
<polygon fill="midnightblue" stroke="midnightblue" points="785.58,-141.65 775.96,-137.19 780.7,-146.67 785.58,-141.65"/>
</g>
<!-- Node23&#45;&gt;Node2 -->
<g id="edge34" class="edge">
<title>Node23&#45;&gt;Node2</title>
<path fill="none" stroke="midnightblue" d="M631.58,-385.93C620.59,-376.9 604.69,-361.56 598,-344 593.1,-331.12 593.34,-325.97 598,-313 613.54,-269.77 652.64,-231.12 676.18,-210.73"/>
<polygon fill="midnightblue" stroke="midnightblue" points="678.69,-213.19 684.07,-204.07 674.17,-207.84 678.69,-213.19"/>
</g>
<!-- Node24 -->
<g id="node24" class="node">
<title>Node24</title>
<g id="a_node24"><a xlink:href="ranges_2views_2detail_8hpp_source.html" target="_top" xlink:title=" ">
<polygon fill="white" stroke="black" points="755.5,-319 755.5,-338 906.5,-338 906.5,-319 755.5,-319"/>
<text text-anchor="middle" x="831" y="-326" font-family="Helvetica,sans-Serif" font-size="10.00">bio/ranges/views/detail.hpp</text>
</a>
</g>
</g>
<!-- Node23&#45;&gt;Node24 -->
<g id="edge35" class="edge">
<title>Node23&#45;&gt;Node24</title>
<path fill="none" stroke="midnightblue" d="M667.96,-385.87C700.92,-374.47 759.12,-354.35 796.33,-341.49"/>
<polygon fill="midnightblue" stroke="midnightblue" points="797.92,-344.64 806.23,-338.06 795.64,-338.02 797.92,-344.64"/>
</g>
<!-- Node24&#45;&gt;Node2 -->
<g id="edge36" class="edge">
<title>Node24&#45;&gt;Node2</title>
<path fill="none" stroke="midnightblue" d="M804.2,-318.91C782.9,-310.92 753.53,-297.2 734,-277 716.66,-259.07 705.82,-231.97 700.09,-214.01"/>
<polygon fill="midnightblue" stroke="midnightblue" points="703.37,-212.77 697.17,-204.17 696.66,-214.76 703.37,-212.77"/>
</g>
<!-- Node24&#45;&gt;Node21 -->
<g id="edge38" class="edge">
<title>Node24&#45;&gt;Node21</title>
<path fill="none" stroke="midnightblue" d="M831.2,-318.84C831.65,-299.02 832.77,-249.77 833.45,-219.84"/>
<polygon fill="midnightblue" stroke="midnightblue" points="836.95,-219.86 833.68,-209.78 829.95,-219.7 836.95,-219.86"/>
</g>
<!-- Node24&#45;&gt;Node22 -->
<g id="edge37" class="edge">
<title>Node24&#45;&gt;Node22</title>
<path fill="none" stroke="midnightblue" d="M824.17,-318.72C810.11,-300.02 778.29,-254.35 767,-210 761.67,-189.06 762.7,-164.09 764.4,-147.36"/>
<polygon fill="midnightblue" stroke="midnightblue" points="767.89,-147.59 765.61,-137.24 760.94,-146.75 767.89,-147.59"/>
</g>
<!-- Node25 -->
<g id="node25" class="node">
<title>Node25</title>
<g id="a_node25"><a xlink:href="type__traits_8hpp.html" target="_top" xlink:title="Provides various transformation traits used by the range module.">
<polygon fill="white" stroke="black" points="848,-252 848,-271 992,-271 992,-252 848,-252"/>
<text text-anchor="middle" x="920" y="-259" font-family="Helvetica,sans-Serif" font-size="10.00">bio/ranges/type_traits.hpp</text>
</a>
</g>
</g>
<!-- Node24&#45;&gt;Node25 -->
<g id="edge39" class="edge">
<title>Node24&#45;&gt;Node25</title>
<path fill="none" stroke="midnightblue" d="M843,-318.73C857.55,-308.11 882.28,-290.05 899.78,-277.26"/>
<polygon fill="midnightblue" stroke="midnightblue" points="902.18,-279.85 908.19,-271.13 898.05,-274.2 902.18,-279.85"/>
</g>
<!-- Node25&#45;&gt;Node2 -->
<g id="edge41" class="edge">
<title>Node25&#45;&gt;Node2</title>
<path fill="none" stroke="midnightblue" d="M890.12,-251.87C848.64,-239.89 773.77,-218.26 729.82,-205.56"/>
<polygon fill="midnightblue" stroke="midnightblue" points="730.72,-202.18 720.14,-202.76 728.78,-208.9 730.72,-202.18"/>
</g>
<!-- Node25&#45;&gt;Node6 -->
<g id="edge42" class="edge">
<title>Node25&#45;&gt;Node6</title>
<path fill="none" stroke="midnightblue" d="M924.21,-251.92C935.46,-227.67 963.39,-157.45 934,-112 921.65,-92.9 899.05,-81.83 878.46,-75.45"/>
<polygon fill="midnightblue" stroke="midnightblue" points="879.14,-72.01 868.57,-72.68 877.25,-78.75 879.14,-72.01"/>
</g>
<!-- Node25&#45;&gt;Node11 -->
<g id="edge43" class="edge">
<title>Node25&#45;&gt;Node11</title>
<path fill="none" stroke="midnightblue" d="M920.05,-251.79C919.72,-235.87 917.03,-201.65 901,-179 869.02,-133.82 847.76,-131.62 796,-112 716.68,-81.94 617.6,-71.96 559.6,-68.64"/>
<polygon fill="midnightblue" stroke="midnightblue" points="559.79,-65.15 549.62,-68.12 559.42,-72.14 559.79,-65.15"/>
</g>
<!-- Node25&#45;&gt;Node21 -->
<g id="edge44" class="edge">
<title>Node25&#45;&gt;Node21</title>
<path fill="none" stroke="midnightblue" d="M908.4,-251.73C896.22,-242.53 876.65,-227.73 860.63,-215.63"/>
<polygon fill="midnightblue" stroke="midnightblue" points="862.73,-212.83 852.64,-209.59 858.51,-218.41 862.73,-212.83"/>
</g>
<!-- Node26 -->
<g id="node26" class="node">
<title>Node26</title>
<g id="a_node26"><a target="_blank" xlink:href="https://en.cppreference.com/w/cpp/header/iterator.html" xlink:title=" ">
<polygon fill="white" stroke="black" points="986.5,-185 986.5,-204 1039.5,-204 1039.5,-185 986.5,-185"/>
<text text-anchor="middle" x="1013" y="-192" font-family="Helvetica,sans-Serif" font-size="10.00">iterator</text>
</a>
</g>
</g>
<!-- Node25&#45;&gt;Node26 -->
<g id="edge40" class="edge">
<title>Node25&#45;&gt;Node26</title>
<path fill="none" stroke="midnightblue" d="M932.54,-251.73C947.88,-241.01 974.06,-222.72 992.38,-209.91"/>
<polygon fill="midnightblue" stroke="midnightblue" points="994.46,-212.72 1000.66,-204.13 990.45,-206.99 994.46,-212.72"/>
</g>
<!-- Node27&#45;&gt;Node24 -->
<g id="edge55" class="edge">
<title>Node27&#45;&gt;Node24</title>
<path fill="none" stroke="midnightblue" d="M831,-380.4C831,-371.06 831,-358.71 831,-348.52"/>
<polygon fill="midnightblue" stroke="midnightblue" points="834.5,-348.19 831,-338.19 827.5,-348.19 834.5,-348.19"/>
</g>
<!-- Node28 -->
<g id="node28" class="node">
<title>Node28</title>
<g id="a_node28"><a target="_blank" xlink:href="https://en.cppreference.com/w/cpp/header/utility.html" xlink:title=" ">
<polygon fill="white" stroke="black" points="963.5,-319 963.5,-338 1008.5,-338 1008.5,-319 963.5,-319"/>
<text text-anchor="middle" x="986" y="-326" font-family="Helvetica,sans-Serif" font-size="10.00">utility</text>
</a>
</g>
</g>
<!-- Node27&#45;&gt;Node28 -->
<g id="edge46" class="edge">
<title>Node27&#45;&gt;Node28</title>
<path fill="none" stroke="midnightblue" d="M864.63,-380.4C891.95,-368.94 930.11,-352.94 956.31,-341.95"/>
<polygon fill="midnightblue" stroke="midnightblue" points="957.85,-345.1 965.71,-338.01 955.14,-338.65 957.85,-345.1"/>
</g>
<!-- Node29 -->
<g id="node29" class="node">
<title>Node29</title>
<g id="a_node29"><a xlink:href="ranges_2concept_8hpp.html" target="_top" xlink:title="Additional non&#45;standard concepts for ranges.">
<polygon fill="white" stroke="black" points="607,-319 607,-338 737,-338 737,-319 607,-319"/>
<text text-anchor="middle" x="672" y="-326" font-family="Helvetica,sans-Serif" font-size="10.00">bio/ranges/concept.hpp</text>
</a>
</g>
</g>
<!-- Node27&#45;&gt;Node29 -->
<g id="edge47" class="edge">
<title>Node27&#45;&gt;Node29</title>
<path fill="none" stroke="midnightblue" d="M796.5,-380.4C768.35,-368.89 728.99,-352.8 702.11,-341.81"/>
<polygon fill="midnightblue" stroke="midnightblue" points="703.39,-338.55 692.81,-338.01 700.74,-345.03 703.39,-338.55"/>
</g>
<!-- Node30 -->
<g id="node30" class="node">
<title>Node30</title>
<g id="a_node30"><a xlink:href="random__access__iterator_8hpp.html" target="_top" xlink:title="Provides the bio::ranges::detail::random_access_iterator class.">
<polygon fill="white" stroke="black" points="1010.5,-246.5 1010.5,-276.5 1149.5,-276.5 1149.5,-246.5 1010.5,-246.5"/>
<text text-anchor="start" x="1018.5" y="-264.5" font-family="Helvetica,sans-Serif" font-size="10.00">bio/ranges/detail/random</text>
<text text-anchor="middle" x="1080" y="-253.5" font-family="Helvetica,sans-Serif" font-size="10.00">_access_iterator.hpp</text>
</a>
</g>
</g>
<!-- Node27&#45;&gt;Node30 -->
<g id="edge50" class="edge">
<title>Node27&#45;&gt;Node30</title>
<path fill="none" stroke="midnightblue" d="M856.85,-380.35C874,-370.68 896.78,-357.26 916,-344 934.23,-331.43 935.87,-324.15 955,-313 977.56,-299.85 1004.19,-288.57 1027.07,-280.03"/>
<polygon fill="midnightblue" stroke="midnightblue" points="1028.43,-283.26 1036.62,-276.54 1026.03,-276.68 1028.43,-283.26"/>
</g>
<!-- Node29&#45;&gt;Node2 -->
<g id="edge48" class="edge">
<title>Node29&#45;&gt;Node2</title>
<path fill="none" stroke="midnightblue" d="M673.51,-318.84C677.2,-297.67 686.73,-242.95 691.77,-214.03"/>
<polygon fill="midnightblue" stroke="midnightblue" points="695.25,-214.47 693.52,-204.02 688.35,-213.27 695.25,-214.47"/>
</g>
<!-- Node29&#45;&gt;Node5 -->
<g id="edge49" class="edge">
<title>Node29&#45;&gt;Node5</title>
<path fill="none" stroke="midnightblue" d="M641.59,-318.87C600.76,-307.28 528.13,-286.66 482.93,-273.83"/>
<polygon fill="midnightblue" stroke="midnightblue" points="483.75,-270.43 473.17,-271.06 481.83,-277.16 483.75,-270.43"/>
</g>
<!-- Node30&#45;&gt;Node6 -->
<g id="edge53" class="edge">
<title>Node30&#45;&gt;Node6</title>
<path fill="none" stroke="midnightblue" d="M1115.99,-246.35C1131.55,-238.22 1148.19,-226.32 1157,-210 1183.06,-161.74 1131.28,-136.07 1082,-112 1016.15,-79.84 930.33,-70.5 878.84,-67.89"/>
<polygon fill="midnightblue" stroke="midnightblue" points="878.86,-64.38 868.71,-67.44 878.54,-71.38 878.86,-64.38"/>
</g>
<!-- Node30&#45;&gt;Node11 -->
<g id="edge54" class="edge">
<title>Node30&#45;&gt;Node11</title>
<path fill="none" stroke="midnightblue" d="M1078.36,-246.37C1075.52,-228.31 1068.04,-197.2 1049,-179 978.72,-111.79 679.24,-80.6 560.14,-70.68"/>
<polygon fill="midnightblue" stroke="midnightblue" points="560.11,-67.17 549.86,-69.84 559.54,-74.15 560.11,-67.17"/>
</g>
<!-- Node30&#45;&gt;Node26 -->
<g id="edge52" class="edge">
<title>Node30&#45;&gt;Node26</title>
<path fill="none" stroke="midnightblue" d="M1065.46,-246.4C1054.81,-236.06 1040.34,-222.02 1029.3,-211.31"/>
<polygon fill="midnightblue" stroke="midnightblue" points="1031.58,-208.65 1021.96,-204.19 1026.7,-213.67 1031.58,-208.65"/>
</g>
<!-- Node31 -->
<g id="node31" class="node">
<title>Node31</title>
<g id="a_node31"><a target="_blank" xlink:href="https://en.cppreference.com/w/cpp/header/cassert.html" xlink:title=" ">
<polygon fill="white" stroke="black" points="1096,-185 1096,-204 1148,-204 1148,-185 1096,-185"/>
<text text-anchor="middle" x="1122" y="-192" font-family="Helvetica,sans-Serif" font-size="10.00">cassert</text>
</a>
</g>
</g>
<!-- Node30&#45;&gt;Node31 -->
<g id="edge51" class="edge">
<title>Node30&#45;&gt;Node31</title>
<path fill="none" stroke="midnightblue" d="M1089.11,-246.4C1095.47,-236.56 1103.99,-223.38 1110.76,-212.89"/>
<polygon fill="midnightblue" stroke="midnightblue" points="1113.89,-214.49 1116.38,-204.19 1108.02,-210.69 1113.89,-214.49"/>
</g>
</g>
</svg>
        <g id="navigator" transform="translate(0 0)" fill="#404254">
                <rect fill="#f2f5e9" fill-opacity="0.5" stroke="#606060" stroke-width=".5" x="0" y="0" width="60" height="60"/>
                <use id="zoomplus" xlink:href="#zoomPlus" x="17" y="9" onmousedown="handleZoom(evt,'in')"/>
                <use id="zoomminus" xlink:href="#zoomMin" x="42" y="9" onmousedown="handleZoom(evt,'out')"/>
                <use id="reset" xlink:href="#resetDef" x="30" y="36" onmousedown="handleReset()"/>
                <g id="arrowUp" xlink:href="#dirArrow" transform="translate(30 24)" onmousedown="handlePan(0,-1)">
                  <use xlink:href="#rim" fill="#404040">
                        <set attributeName="fill" to="#808080" begin="arrowUp.mouseover" end="arrowUp.mouseout"/>
                  </use>
                  <path fill="none" stroke="white" stroke-width="1.5" d="M0,-3.0v7 M-2.5,-0.5L0,-3.0L2.5,-0.5"/>
                </g>
                <g id="arrowRight" xlink:href="#dirArrow" transform="rotate(90) translate(36 -43)" onmousedown="handlePan(1,0)">
                  <use xlink:href="#rim" fill="#404040">
                        <set attributeName="fill" to="#808080" begin="arrowRight.mouseover" end="arrowRight.mouseout"/>
                  </use>
                  <path fill="none" stroke="white" stroke-width="1.5" d="M0,-3.0v7 M-2.5,-0.5L0,-3.0L2.5,-0.5"/>
                </g>
                <g id="arrowDown" xlink:href="#dirArrow" transform="rotate(180) translate(-30 -48)" onmousedown="handlePan(0,1)">
                  <use xlink:href="#rim" fill="#404040">
                        <set attributeName="fill" to="#808080" begin="arrowDown.mouseover" end="arrowDown.mouseout"/>
                  </use>
                  <path fill="none" stroke="white" stroke-width="1.5" d="M0,-3.0v7 M-2.5,-0.5L0,-3.0L2.5,-0.5"/>
                </g>
                <g id="arrowLeft" xlink:href="#dirArrow" transform="rotate(270) translate(-36 17)" onmousedown="handlePan(-1,0)">
                  <use xlink:href="#rim" fill="#404040">
                        <set attributeName="fill" to="#808080" begin="arrowLeft.mouseover" end="arrowLeft.mouseout"/>
                  </use>
                  <path fill="none" stroke="white" stroke-width="1.5" d="M0,-3.0v7 M-2.5,-0.5L0,-3.0L2.5,-0.5"/>
                </g>
        </g>
        <svg viewBox="0 0 15 15" width="100%" height="30px" preserveAspectRatio="xMaxYMin meet">
         <g id="arrow_out" transform="scale(0.3 0.3)">
          <a xlink:href="add__reverse__complement_8hpp__incl_org.svg" target="_base">
           <rect id="button" ry="5" rx="5" y="6" x="6" height="38" width="38"
                fill="#f2f5e9" fill-opacity="0.5" stroke="#606060" stroke-width="1.0"/>
           <path id="arrow"
             d="M 11.500037,31.436501 C 11.940474,20.09759 22.043105,11.32322 32.158766,21.979434 L 37.068811,17.246167 C 37.068811,17.246167 37.088388,32 37.088388,32 L 22.160133,31.978069 C 22.160133,31.978069 26.997745,27.140456 26.997745,27.140456 C 18.528582,18.264221 13.291696,25.230495 11.500037,31.436501 z"
             style="fill:#404040;"/>
          </a>
         </g>
        </svg>
</svg>
