<?xml version="1.0" encoding="UTF-8" standalone="no"?>
<!DOCTYPE svg PUBLIC "-//W3C//DTD SVG 1.1//EN"
 "http://www.w3.org/Graphics/SVG/1.1/DTD/svg11.dtd">
<!-- Generated by graphviz version 2.43.0 (0)
 -->
<!-- Title: bio/ranges/views/add_reverse_complement.hpp Pages: 1 -->
<!--zoomable 478 -->
<svg id="main" version="1.1" xmlns="http://www.w3.org/2000/svg" xmlns:xlink="http://www.w3.org/1999/xlink" xml:space="preserve" onload="init(evt)">
<style type="text/css"><![CDATA[
.edge:hover path { stroke: red; }
.edge:hover polygon { stroke: red; fill: red; }
]]></style>
<script type="text/javascript"><![CDATA[
var edges = document.getElementsByTagName('g');
if (edges && edges.length) {
  for (var i=0;i<edges.length;i++) {
    if (edges[i].id.substr(0,4)=='edge') {
      edges[i].setAttribute('class','edge');
    }
  }
}
]]></script>
        <defs>
                <circle id="rim" cx="0" cy="0" r="7"/>
                <circle id="rim2" cx="0" cy="0" r="3.5"/>
                <g id="zoomPlus">
                        <use xlink:href="#rim" fill="#404040">
                                <set attributeName="fill" to="#808080" begin="zoomplus.mouseover" end="zoomplus.mouseout"/>
                        </use>
                        <path d="M-4,0h8M0,-4v8" fill="none" stroke="white" stroke-width="1.5" pointer-events="none"/>
                </g>
                <g id="zoomMin">
                        <use xlink:href="#rim" fill="#404040">
                                <set attributeName="fill" to="#808080" begin="zoomminus.mouseover" end="zoomminus.mouseout"/>
                        </use>
                        <path d="M-4,0h8" fill="none" stroke="white" stroke-width="1.5" pointer-events="none"/>
                </g>
                <g id="dirArrow">
                        <path fill="none" stroke="white" stroke-width="1.5" d="M0,-3.0v7 M-2.5,-0.5L0,-3.0L2.5,-0.5"/>
                </g>
               <g id="resetDef">
                       <use xlink:href="#rim2" fill="#404040">
                               <set attributeName="fill" to="#808080" begin="reset.mouseover" end="reset.mouseout"/>
                       </use>
               </g>
        </defs>

<script type="text/javascript">
var viewWidth = 1150;
var viewHeight = 478;
var sectionId = 'dynsection-0';
</script>
<script xlink:href="svgpan.js"/>
<svg id="graph" class="graph">
<g id="viewport">
<title>bio/ranges/views/add_reverse_complement.hpp</title>
<!-- Node1 -->
<g id="node1" class="node">
<title>Node1</title>
<g id="a_node1"><a xlink:title="Provides bio::views::add_reverse_complement.">
<polygon fill="#999999" stroke="#666666" points="256.5,-470 125.5,-470 125.5,-440 256.5,-440 256.5,-470"/>
<text text-anchor="start" x="133.5" y="-458" font-family="Helvetica,sans-Serif" font-size="10.00">bio/ranges/views/add</text>
<text text-anchor="middle" x="191" y="-447" font-family="Helvetica,sans-Serif" font-size="10.00">_reverse_complement.hpp</text>
</a>
</g>
</g>
<!-- Node2 -->
<g id="node2" class="node">
<title>Node2</title>
<g id="a_node2"><a target="_blank" xlink:href="https://en.cppreference.com/w/cpp/header/ranges.html" xlink:title=" ">
<polygon fill="white" stroke="#666666" points="46,-200.5 0,-200.5 0,-181.5 46,-181.5 46,-200.5"/>
<text text-anchor="middle" x="23" y="-188.5" font-family="Helvetica,sans-Serif" font-size="10.00">ranges</text>
</a>
</g>
</g>
<!-- Node1&#45;&gt;Node2 -->
<g id="edge1" class="edge">
<title>Node1&#45;&gt;Node2</title>
<path fill="none" stroke="#63b8ff" d="M125.48,-448.34C94.67,-442.19 60.14,-429.59 39,-404 -7.85,-347.3 8.54,-250.42 18.11,-210.27"/>
<polygon fill="#63b8ff" stroke="#63b8ff" points="21.51,-211.08 20.57,-200.53 14.72,-209.37 21.51,-211.08"/>
</g>
<!-- Node3 -->
<g id="node3" class="node">
<title>Node3</title>
<g id="a_node3"><a xlink:href="alphabet_2nucleotide_2concept_8hpp.html" target="_top" xlink:title="Provides bio::alphabet::nucleotide.">
<polygon fill="white" stroke="#666666" points="679,-338 563,-338 563,-308 679,-308 679,-338"/>
<text text-anchor="start" x="571" y="-326" font-family="Helvetica,sans-Serif" font-size="10.00">bio/alphabet/nucleotide</text>
<text text-anchor="middle" x="621" y="-315" font-family="Helvetica,sans-Serif" font-size="10.00">/concept.hpp</text>
</a>
</g>
</g>
<!-- Node1&#45;&gt;Node3 -->
<g id="edge2" class="edge">
<title>Node1&#45;&gt;Node3</title>
<path fill="none" stroke="#63b8ff" d="M237.43,-439.96C316.91,-415.93 478.77,-367 564.61,-341.05"/>
<polygon fill="#63b8ff" stroke="#63b8ff" points="565.88,-344.32 574.44,-338.08 563.86,-337.62 565.88,-344.32"/>
</g>
<!-- Node24 -->
<g id="node24" class="node">
<title>Node24</title>
<g id="a_node24"><a xlink:href="deep_8hpp.html" target="_top" xlink:title="Provides bio::views::deep.">
<polygon fill="white" stroke="#666666" points="181.5,-398.5 48.5,-398.5 48.5,-379.5 181.5,-379.5 181.5,-398.5"/>
<text text-anchor="middle" x="115" y="-386.5" font-family="Helvetica,sans-Serif" font-size="10.00">bio/ranges/views/deep.hpp</text>
</a>
</g>
</g>
<!-- Node1&#45;&gt;Node24 -->
<g id="edge33" class="edge">
<title>Node1&#45;&gt;Node24</title>
<path fill="none" stroke="#63b8ff" d="M174.13,-439.8C162.05,-429.62 145.79,-415.93 133.38,-405.48"/>
<polygon fill="#63b8ff" stroke="#63b8ff" points="135.41,-402.61 125.5,-398.84 130.9,-407.96 135.41,-402.61"/>
</g>
<!-- Node28 -->
<g id="node28" class="node">
<title>Node28</title>
<g id="a_node28"><a xlink:href="transform__by__pos_8hpp.html" target="_top" xlink:title="Provides bio::views::transform_by_pos.">
<polygon fill="white" stroke="#666666" points="334,-404 200,-404 200,-374 334,-374 334,-404"/>
<text text-anchor="start" x="208" y="-392" font-family="Helvetica,sans-Serif" font-size="10.00">bio/ranges/views/transform</text>
<text text-anchor="middle" x="267" y="-381" font-family="Helvetica,sans-Serif" font-size="10.00">_by_pos.hpp</text>
</a>
</g>
</g>
<!-- Node1&#45;&gt;Node28 -->
<g id="edge45" class="edge">
<title>Node1&#45;&gt;Node28</title>
<path fill="none" stroke="#63b8ff" d="M207.87,-439.8C218,-431.26 231.08,-420.25 242.35,-410.75"/>
<polygon fill="#63b8ff" stroke="#63b8ff" points="244.79,-413.28 250.18,-404.16 240.28,-407.93 244.79,-413.28"/>
</g>
<!-- Node4 -->
<g id="node4" class="node">
<title>Node4</title>
<g id="a_node4"><a target="_blank" xlink:href="https://en.cppreference.com/w/cpp/header/concepts.html" xlink:title=" ">
<polygon fill="white" stroke="#666666" points="789,-74 733,-74 733,-55 789,-55 789,-74"/>
<text text-anchor="middle" x="761" y="-62" font-family="Helvetica,sans-Serif" font-size="10.00">concepts</text>
</a>
</g>
</g>
<!-- Node3&#45;&gt;Node4 -->
<g id="edge3" class="edge">
<title>Node3&#45;&gt;Node4</title>
<path fill="none" stroke="#63b8ff" d="M679.3,-310.01C756.56,-290.28 886.24,-242.44 913,-140 916.37,-127.1 920.99,-120.67 913,-110 906.02,-100.68 841.71,-84.21 799,-74.13"/>
<polygon fill="#63b8ff" stroke="#63b8ff" points="799.72,-70.7 789.19,-71.84 798.13,-77.52 799.72,-70.7"/>
</g>
<!-- Node5 -->
<g id="node5" class="node">
<title>Node5</title>
<g id="a_node5"><a xlink:href="alphabet_2concept_8hpp.html" target="_top" xlink:title="Core alphabet concept and free function/type trait wrappers.">
<polygon fill="white" stroke="#666666" points="683.5,-266.5 558.5,-266.5 558.5,-247.5 683.5,-247.5 683.5,-266.5"/>
<text text-anchor="middle" x="621" y="-254.5" font-family="Helvetica,sans-Serif" font-size="10.00">bio/alphabet/concept.hpp</text>
</a>
</g>
</g>
<!-- Node3&#45;&gt;Node5 -->
<g id="edge4" class="edge">
<title>Node3&#45;&gt;Node5</title>
<path fill="none" stroke="#63b8ff" d="M621,-307.8C621,-298.7 621,-286.79 621,-276.9"/>
<polygon fill="#63b8ff" stroke="#63b8ff" points="624.5,-276.84 621,-266.84 617.5,-276.84 624.5,-276.84"/>
</g>
<!-- Node6 -->
<g id="node6" class="node">
<title>Node6</title>
<g id="a_node6"><a target="_blank" xlink:href="https://en.cppreference.com/w/cpp/header/type_traits.html" xlink:title=" ">
<polygon fill="white" stroke="#666666" points="406,-74 344,-74 344,-55 406,-55 406,-74"/>
<text text-anchor="middle" x="375" y="-62" font-family="Helvetica,sans-Serif" font-size="10.00">type_traits</text>
</a>
</g>
</g>
<!-- Node5&#45;&gt;Node6 -->
<g id="edge5" class="edge">
<title>Node5&#45;&gt;Node6</title>
<path fill="none" stroke="#63b8ff" d="M609.7,-247.28C584.7,-227.96 522.79,-180.12 471,-140 444.39,-119.38 413.66,-95.53 394.28,-80.47"/>
<polygon fill="#63b8ff" stroke="#63b8ff" points="396.27,-77.59 386.23,-74.22 391.98,-83.12 396.27,-77.59"/>
</g>
<!-- Node7 -->
<g id="node7" class="node">
<title>Node7</title>
<g id="a_node7"><a xlink:href="tag_8hpp.html" target="_top" xlink:title="Provides the customisation tags for the alphabet concepts.">
<polygon fill="white" stroke="#666666" points="867,-206 763,-206 763,-176 867,-176 867,-206"/>
<text text-anchor="start" x="771" y="-194" font-family="Helvetica,sans-Serif" font-size="10.00">bio/alphabet/custom</text>
<text text-anchor="middle" x="815" y="-183" font-family="Helvetica,sans-Serif" font-size="10.00">/tag.hpp</text>
</a>
</g>
</g>
<!-- Node5&#45;&gt;Node7 -->
<g id="edge6" class="edge">
<title>Node5&#45;&gt;Node7</title>
<path fill="none" stroke="#63b8ff" d="M647.16,-247.37C676.6,-237.66 725.16,-221.64 762.49,-209.32"/>
<polygon fill="#63b8ff" stroke="#63b8ff" points="763.81,-212.57 772.21,-206.12 761.62,-205.92 763.81,-212.57"/>
</g>
<!-- Node8 -->
<g id="node8" class="node">
<title>Node8</title>
<g id="a_node8"><a xlink:href="exception_8hpp.html" target="_top" xlink:title="Exceptions thrown by entities in the alphabet module.">
<polygon fill="white" stroke="#666666" points="903.5,-134.5 770.5,-134.5 770.5,-115.5 903.5,-115.5 903.5,-134.5"/>
<text text-anchor="middle" x="837" y="-122.5" font-family="Helvetica,sans-Serif" font-size="10.00">bio/alphabet/exception.hpp</text>
</a>
</g>
</g>
<!-- Node5&#45;&gt;Node8 -->
<g id="edge7" class="edge">
<title>Node5&#45;&gt;Node8</title>
<path fill="none" stroke="#63b8ff" d="M630.03,-247.38C646.85,-231.64 684.6,-197.86 721,-176 746.99,-160.39 778.74,-147.06 802.45,-138.1"/>
<polygon fill="#63b8ff" stroke="#63b8ff" points="803.92,-141.29 812.08,-134.53 801.48,-134.72 803.92,-141.29"/>
</g>
<!-- Node11 -->
<g id="node11" class="node">
<title>Node11</title>
<g id="a_node11"><a xlink:href="core_8hpp.html" target="_top" xlink:title="Provides platform and dependency checks.">
<polygon fill="white" stroke="#666666" points="656,-74 586,-74 586,-55 656,-55 656,-74"/>
<text text-anchor="middle" x="621" y="-62" font-family="Helvetica,sans-Serif" font-size="10.00">bio/core.hpp</text>
</a>
</g>
</g>
<!-- Node5&#45;&gt;Node11 -->
<g id="edge16" class="edge">
<title>Node5&#45;&gt;Node11</title>
<path fill="none" stroke="#63b8ff" d="M621,-247.32C621,-218.37 621,-124.7 621,-84.32"/>
<polygon fill="#63b8ff" stroke="#63b8ff" points="624.5,-84.23 621,-74.23 617.5,-84.23 624.5,-84.23"/>
</g>
<!-- Node16 -->
<g id="node16" class="node">
<title>Node16</title>
<g id="a_node16"><a xlink:href="core__language_8hpp.html" target="_top" xlink:title="Provides concepts for core language types and relations that don&#39;t have concepts in C++20 (yet).">
<polygon fill="white" stroke="#666666" points="592.5,-140 479.5,-140 479.5,-110 592.5,-110 592.5,-140"/>
<text text-anchor="start" x="487.5" y="-128" font-family="Helvetica,sans-Serif" font-size="10.00">bio/meta/concept/core</text>
<text text-anchor="middle" x="536" y="-117" font-family="Helvetica,sans-Serif" font-size="10.00">_language.hpp</text>
</a>
</g>
</g>
<!-- Node5&#45;&gt;Node16 -->
<g id="edge17" class="edge">
<title>Node5&#45;&gt;Node16</title>
<path fill="none" stroke="#63b8ff" d="M615.42,-247.47C602.44,-227.61 569.83,-177.74 550.67,-148.44"/>
<polygon fill="#63b8ff" stroke="#63b8ff" points="553.6,-146.52 545.2,-140.07 547.74,-150.35 553.6,-146.52"/>
</g>
<!-- Node17 -->
<g id="node17" class="node">
<title>Node17</title>
<g id="a_node17"><a xlink:href="type__inspection_8hpp.html" target="_top" xlink:title="Provides traits to inspect some information of a type, for example its name.">
<polygon fill="white" stroke="#666666" points="1062,-140 960,-140 960,-110 1062,-110 1062,-140"/>
<text text-anchor="start" x="968" y="-128" font-family="Helvetica,sans-Serif" font-size="10.00">bio/meta/detail/type</text>
<text text-anchor="middle" x="1011" y="-117" font-family="Helvetica,sans-Serif" font-size="10.00">_inspection.hpp</text>
</a>
</g>
</g>
<!-- Node5&#45;&gt;Node17 -->
<g id="edge21" class="edge">
<title>Node5&#45;&gt;Node17</title>
<path fill="none" stroke="#63b8ff" d="M638.93,-247.37C658,-237.96 688.82,-222.08 714,-206 732.73,-194.04 733.69,-185.02 754,-176 788.31,-160.77 885.32,-144.38 949.85,-134.66"/>
<polygon fill="#63b8ff" stroke="#63b8ff" points="950.54,-138.1 959.91,-133.16 949.51,-131.18 950.54,-138.1"/>
</g>
<!-- Node21 -->
<g id="node21" class="node">
<title>Node21</title>
<g id="a_node21"><a xlink:href="priority__tag_8hpp.html" target="_top" xlink:title="provides bio::meta::priority_tag.">
<polygon fill="white" stroke="#666666" points="752.5,-140 649.5,-140 649.5,-110 752.5,-110 752.5,-140"/>
<text text-anchor="start" x="657.5" y="-128" font-family="Helvetica,sans-Serif" font-size="10.00">bio/meta/tag/priority</text>
<text text-anchor="middle" x="701" y="-117" font-family="Helvetica,sans-Serif" font-size="10.00">_tag.hpp</text>
</a>
</g>
</g>
<!-- Node5&#45;&gt;Node21 -->
<g id="edge27" class="edge">
<title>Node5&#45;&gt;Node21</title>
<path fill="none" stroke="#63b8ff" d="M626.25,-247.47C638.42,-227.69 668.9,-178.17 686.96,-148.82"/>
<polygon fill="#63b8ff" stroke="#63b8ff" points="690.08,-150.42 692.34,-140.07 684.12,-146.75 690.08,-150.42"/>
</g>
<!-- Node22 -->
<g id="node22" class="node">
<title>Node22</title>
<g id="a_node22"><a xlink:href="basic_8hpp.html" target="_top" xlink:title="Provides various type traits on generic types.">
<polygon fill="white" stroke="#666666" points="346.5,-206 243.5,-206 243.5,-176 346.5,-176 346.5,-206"/>
<text text-anchor="start" x="251.5" y="-194" font-family="Helvetica,sans-Serif" font-size="10.00">bio/meta/type_traits</text>
<text text-anchor="middle" x="295" y="-183" font-family="Helvetica,sans-Serif" font-size="10.00">/basic.hpp</text>
</a>
</g>
</g>
<!-- Node5&#45;&gt;Node22 -->
<g id="edge29" class="edge">
<title>Node5&#45;&gt;Node22</title>
<path fill="none" stroke="#63b8ff" d="M577.37,-247.44C520.64,-236.3 421.19,-216.77 356.73,-204.12"/>
<polygon fill="#63b8ff" stroke="#63b8ff" points="357.19,-200.64 346.7,-202.15 355.84,-207.51 357.19,-200.64"/>
</g>
<!-- Node8&#45;&gt;Node4 -->
<g id="edge8" class="edge">
<title>Node8&#45;&gt;Node4</title>
<path fill="none" stroke="#63b8ff" d="M825.79,-115.37C813.89,-106.21 794.86,-91.56 780.49,-80.51"/>
<polygon fill="#63b8ff" stroke="#63b8ff" points="782.32,-77.49 772.26,-74.17 778.05,-83.04 782.32,-77.49"/>
</g>
<!-- Node9 -->
<g id="node9" class="node">
<title>Node9</title>
<g id="a_node9"><a target="_blank" xlink:href="https://en.cppreference.com/w/cpp/header/stdexcept.html" xlink:title=" ">
<polygon fill="white" stroke="#666666" points="866.5,-74 807.5,-74 807.5,-55 866.5,-55 866.5,-74"/>
<text text-anchor="middle" x="837" y="-62" font-family="Helvetica,sans-Serif" font-size="10.00">stdexcept</text>
</a>
</g>
</g>
<!-- Node8&#45;&gt;Node9 -->
<g id="edge9" class="edge">
<title>Node8&#45;&gt;Node9</title>
<path fill="none" stroke="#63b8ff" d="M837,-115.37C837,-107.25 837,-94.81 837,-84.39"/>
<polygon fill="#63b8ff" stroke="#63b8ff" points="840.5,-84.17 837,-74.17 833.5,-84.17 840.5,-84.17"/>
</g>
<!-- Node10 -->
<g id="node10" class="node">
<title>Node10</title>
<g id="a_node10"><a target="_blank" xlink:href="https://en.cppreference.com/w/cpp/header/string.html" xlink:title=" ">
<polygon fill="white" stroke="#666666" points="925.5,-74 884.5,-74 884.5,-55 925.5,-55 925.5,-74"/>
<text text-anchor="middle" x="905" y="-62" font-family="Helvetica,sans-Serif" font-size="10.00">string</text>
</a>
</g>
</g>
<!-- Node8&#45;&gt;Node10 -->
<g id="edge10" class="edge">
<title>Node8&#45;&gt;Node10</title>
<path fill="none" stroke="#63b8ff" d="M847.03,-115.37C857.58,-106.3 874.39,-91.84 887.19,-80.82"/>
<polygon fill="#63b8ff" stroke="#63b8ff" points="889.63,-83.34 894.93,-74.17 885.06,-78.04 889.63,-83.34"/>
</g>
<!-- Node8&#45;&gt;Node11 -->
<g id="edge11" class="edge">
<title>Node8&#45;&gt;Node11</title>
<path fill="none" stroke="#63b8ff" d="M805.59,-115.49C767.76,-105.25 704.09,-88 662.31,-76.69"/>
<polygon fill="#63b8ff" stroke="#63b8ff" points="663.01,-73.25 652.45,-74.02 661.18,-80.01 663.01,-73.25"/>
</g>
<!-- Node12 -->
<g id="node12" class="node">
<title>Node12</title>
<g id="a_node12"><a target="_blank" xlink:href="https://en.cppreference.com/w/cpp/header/cinttypes.html" xlink:title=" ">
<polygon fill="white" stroke="#666666" points="544,-19 488,-19 488,0 544,0 544,-19"/>
<text text-anchor="middle" x="516" y="-7" font-family="Helvetica,sans-Serif" font-size="10.00">cinttypes</text>
</a>
</g>
</g>
<!-- Node11&#45;&gt;Node12 -->
<g id="edge12" class="edge">
<title>Node11&#45;&gt;Node12</title>
<path fill="none" stroke="#63b8ff" d="M604.13,-54.98C587.39,-46.54 561.5,-33.47 542.11,-23.68"/>
<polygon fill="#63b8ff" stroke="#63b8ff" points="543.68,-20.55 533.18,-19.17 540.53,-26.8 543.68,-20.55"/>
</g>
<!-- Node13 -->
<g id="node13" class="node">
<title>Node13</title>
<g id="a_node13"><a target="_blank" xlink:href="https://en.cppreference.com/w/cpp/header/ciso646.html" xlink:title=" ">
<polygon fill="white" stroke="#666666" points="612,-19 562,-19 562,0 612,0 612,-19"/>
<text text-anchor="middle" x="587" y="-7" font-family="Helvetica,sans-Serif" font-size="10.00">ciso646</text>
</a>
</g>
</g>
<!-- Node11&#45;&gt;Node13 -->
<g id="edge13" class="edge">
<title>Node11&#45;&gt;Node13</title>
<path fill="none" stroke="#63b8ff" d="M615.39,-54.75C610.68,-47.42 603.83,-36.73 598.03,-27.7"/>
<polygon fill="#63b8ff" stroke="#63b8ff" points="600.86,-25.62 592.51,-19.09 594.96,-29.4 600.86,-25.62"/>
</g>
<!-- Node14 -->
<g id="node14" class="node">
<title>Node14</title>
<g id="a_node14"><a target="_blank" xlink:href="https://en.cppreference.com/w/cpp/header/cstddef.html" xlink:title=" ">
<polygon fill="white" stroke="#666666" points="679.5,-19 630.5,-19 630.5,0 679.5,0 679.5,-19"/>
<text text-anchor="middle" x="655" y="-7" font-family="Helvetica,sans-Serif" font-size="10.00">cstddef</text>
</a>
</g>
</g>
<!-- Node11&#45;&gt;Node14 -->
<g id="edge14" class="edge">
<title>Node11&#45;&gt;Node14</title>
<path fill="none" stroke="#63b8ff" d="M626.61,-54.75C631.32,-47.42 638.17,-36.73 643.97,-27.7"/>
<polygon fill="#63b8ff" stroke="#63b8ff" points="647.04,-29.4 649.49,-19.09 641.14,-25.62 647.04,-29.4"/>
</g>
<!-- Node15 -->
<g id="node15" class="node">
<title>Node15</title>
<g id="a_node15"><a target="_blank" xlink:href="https://en.cppreference.com/w/cpp/header/string_view.html" xlink:title=" ">
<polygon fill="white" stroke="#666666" points="764,-19 698,-19 698,0 764,0 764,-19"/>
<text text-anchor="middle" x="731" y="-7" font-family="Helvetica,sans-Serif" font-size="10.00">string_view</text>
</a>
</g>
</g>
<!-- Node11&#45;&gt;Node15 -->
<g id="edge15" class="edge">
<title>Node11&#45;&gt;Node15</title>
<path fill="none" stroke="#63b8ff" d="M638.67,-54.98C656.29,-46.5 683.58,-33.35 703.93,-23.54"/>
<polygon fill="#63b8ff" stroke="#63b8ff" points="705.52,-26.66 713.01,-19.17 702.48,-20.36 705.52,-26.66"/>
</g>
<!-- Node16&#45;&gt;Node4 -->
<g id="edge18" class="edge">
<title>Node16&#45;&gt;Node4</title>
<path fill="none" stroke="#63b8ff" d="M589.89,-109.99C631.01,-99.3 686.62,-84.84 723.13,-75.35"/>
<polygon fill="#63b8ff" stroke="#63b8ff" points="724.09,-78.71 732.89,-72.81 722.33,-71.94 724.09,-78.71"/>
</g>
<!-- Node16&#45;&gt;Node6 -->
<g id="edge19" class="edge">
<title>Node16&#45;&gt;Node6</title>
<path fill="none" stroke="#63b8ff" d="M497.44,-109.99C470.21,-100.1 434.12,-86.98 408.18,-77.56"/>
<polygon fill="#63b8ff" stroke="#63b8ff" points="409.37,-74.26 398.78,-74.14 406.98,-80.84 409.37,-74.26"/>
</g>
<!-- Node16&#45;&gt;Node11 -->
<g id="edge20" class="edge">
<title>Node16&#45;&gt;Node11</title>
<path fill="none" stroke="#63b8ff" d="M556.58,-109.84C569.67,-100.83 586.59,-89.18 599.8,-80.09"/>
<polygon fill="#63b8ff" stroke="#63b8ff" points="602.01,-82.82 608.26,-74.27 598.04,-77.05 602.01,-82.82"/>
</g>
<!-- Node17&#45;&gt;Node10 -->
<g id="edge24" class="edge">
<title>Node17&#45;&gt;Node10</title>
<path fill="none" stroke="#63b8ff" d="M985.61,-109.99C968.71,-100.66 946.62,-88.47 929.84,-79.21"/>
<polygon fill="#63b8ff" stroke="#63b8ff" points="931.1,-75.91 920.65,-74.14 927.72,-82.04 931.1,-75.91"/>
</g>
<!-- Node17&#45;&gt;Node11 -->
<g id="edge26" class="edge">
<title>Node17&#45;&gt;Node11</title>
<path fill="none" stroke="#63b8ff" d="M959.61,-116.29C882.83,-104.77 739.37,-83.26 666.29,-72.29"/>
<polygon fill="#63b8ff" stroke="#63b8ff" points="666.45,-68.78 656.04,-70.76 665.41,-75.7 666.45,-68.78"/>
</g>
<!-- Node18 -->
<g id="node18" class="node">
<title>Node18</title>
<g id="a_node18"><a target="_blank" xlink:href="https://en.cppreference.com/w/cpp/header/functional.html" xlink:title=" ">
<polygon fill="white" stroke="#666666" points="1071.5,-74 1012.5,-74 1012.5,-55 1071.5,-55 1071.5,-74"/>
<text text-anchor="middle" x="1042" y="-62" font-family="Helvetica,sans-Serif" font-size="10.00">functional</text>
</a>
</g>
</g>
<!-- Node17&#45;&gt;Node18 -->
<g id="edge22" class="edge">
<title>Node17&#45;&gt;Node18</title>
<path fill="none" stroke="#63b8ff" d="M1018.5,-109.84C1022.73,-101.87 1028.04,-91.84 1032.55,-83.33"/>
<polygon fill="#63b8ff" stroke="#63b8ff" points="1035.77,-84.74 1037.35,-74.27 1029.58,-81.46 1035.77,-84.74"/>
</g>
<!-- Node19 -->
<g id="node19" class="node">
<title>Node19</title>
<g id="a_node19"><a target="_blank" xlink:href="https://en.cppreference.com/w/cpp/header/memory.html" xlink:title=" ">
<polygon fill="white" stroke="#666666" points="1142,-74 1090,-74 1090,-55 1142,-55 1142,-74"/>
<text text-anchor="middle" x="1116" y="-62" font-family="Helvetica,sans-Serif" font-size="10.00">memory</text>
</a>
</g>
</g>
<!-- Node17&#45;&gt;Node19 -->
<g id="edge23" class="edge">
<title>Node17&#45;&gt;Node19</title>
<path fill="none" stroke="#63b8ff" d="M1036.15,-109.99C1052.89,-100.66 1074.77,-88.47 1091.39,-79.21"/>
<polygon fill="#63b8ff" stroke="#63b8ff" points="1093.46,-82.06 1100.49,-74.14 1090.05,-75.95 1093.46,-82.06"/>
</g>
<!-- Node20 -->
<g id="node20" class="node">
<title>Node20</title>
<g id="a_node20"><a target="_blank" xlink:href="https://en.cppreference.com/w/cpp/header/typeinfo.html" xlink:title=" ">
<polygon fill="white" stroke="#666666" points="994.5,-74 943.5,-74 943.5,-55 994.5,-55 994.5,-74"/>
<text text-anchor="middle" x="969" y="-62" font-family="Helvetica,sans-Serif" font-size="10.00">typeinfo</text>
</a>
</g>
</g>
<!-- Node17&#45;&gt;Node20 -->
<g id="edge25" class="edge">
<title>Node17&#45;&gt;Node20</title>
<path fill="none" stroke="#63b8ff" d="M1000.83,-109.84C994.92,-101.61 987.44,-91.18 981.21,-82.51"/>
<polygon fill="#63b8ff" stroke="#63b8ff" points="983.97,-80.35 975.29,-74.27 978.28,-84.43 983.97,-80.35"/>
</g>
<!-- Node21&#45;&gt;Node11 -->
<g id="edge28" class="edge">
<title>Node21&#45;&gt;Node11</title>
<path fill="none" stroke="#63b8ff" d="M681.63,-109.84C669.43,-100.91 653.69,-89.41 641.31,-80.35"/>
<polygon fill="#63b8ff" stroke="#63b8ff" points="643.13,-77.34 632.99,-74.27 638.99,-82.99 643.13,-77.34"/>
</g>
<!-- Node22&#45;&gt;Node6 -->
<g id="edge31" class="edge">
<title>Node22&#45;&gt;Node6</title>
<path fill="none" stroke="#63b8ff" d="M304.18,-175.72C318.96,-152.71 347.99,-107.53 363.91,-82.76"/>
<polygon fill="#63b8ff" stroke="#63b8ff" points="367.03,-84.37 369.49,-74.07 361.14,-80.59 367.03,-84.37"/>
</g>
<!-- Node22&#45;&gt;Node16 -->
<g id="edge32" class="edge">
<title>Node22&#45;&gt;Node16</title>
<path fill="none" stroke="#63b8ff" d="M346.7,-176.27C383.8,-166.42 433.99,-153.09 473.37,-142.63"/>
<polygon fill="#63b8ff" stroke="#63b8ff" points="474.37,-145.99 483.14,-140.04 472.57,-139.22 474.37,-145.99"/>
</g>
<!-- Node23 -->
<g id="node23" class="node">
<title>Node23</title>
<g id="a_node23"><a target="_blank" xlink:href="https://en.cppreference.com/w/cpp/header/tuple.html" xlink:title=" ">
<polygon fill="white" stroke="#666666" points="178,-134.5 140,-134.5 140,-115.5 178,-115.5 178,-134.5"/>
<text text-anchor="middle" x="159" y="-122.5" font-family="Helvetica,sans-Serif" font-size="10.00">tuple</text>
</a>
</g>
</g>
<!-- Node22&#45;&gt;Node23 -->
<g id="edge30" class="edge">
<title>Node22&#45;&gt;Node23</title>
<path fill="none" stroke="#63b8ff" d="M265.15,-175.95C241.62,-164.88 209.07,-149.56 186.23,-138.82"/>
<polygon fill="#63b8ff" stroke="#63b8ff" points="187.64,-135.61 177.1,-134.52 184.66,-141.94 187.64,-135.61"/>
</g>
<!-- Node24&#45;&gt;Node2 -->
<g id="edge34" class="edge">
<title>Node24&#45;&gt;Node2</title>
<path fill="none" stroke="#63b8ff" d="M99.55,-379.35C85.53,-370.7 65.37,-356.09 54,-338 28.68,-297.71 23.74,-240.1 22.96,-210.75"/>
<polygon fill="#63b8ff" stroke="#63b8ff" points="26.46,-210.62 22.84,-200.66 19.46,-210.7 26.46,-210.62"/>
</g>
<!-- Node25 -->
<g id="node25" class="node">
<title>Node25</title>
<g id="a_node25"><a xlink:href="ranges_2views_2detail_8hpp.html" target="_top" xlink:title="Auxiliary header for the views submodule .">
<polygon fill="white" stroke="#666666" points="198.5,-332.5 63.5,-332.5 63.5,-313.5 198.5,-313.5 198.5,-332.5"/>
<text text-anchor="middle" x="131" y="-320.5" font-family="Helvetica,sans-Serif" font-size="10.00">bio/ranges/views/detail.hpp</text>
</a>
</g>
</g>
<!-- Node24&#45;&gt;Node25 -->
<g id="edge35" class="edge">
<title>Node24&#45;&gt;Node25</title>
<path fill="none" stroke="#63b8ff" d="M117.16,-379.37C119.48,-370.07 123.26,-354.98 126.28,-342.9"/>
<polygon fill="#63b8ff" stroke="#63b8ff" points="129.74,-343.46 128.77,-332.91 122.95,-341.76 129.74,-343.46"/>
</g>
<!-- Node25&#45;&gt;Node2 -->
<g id="edge36" class="edge">
<title>Node25&#45;&gt;Node2</title>
<path fill="none" stroke="#63b8ff" d="M113.86,-313.34C98.13,-304.68 75.07,-290.06 60,-272 44.64,-253.59 34.22,-227.75 28.45,-210.47"/>
<polygon fill="#63b8ff" stroke="#63b8ff" points="31.66,-209 25.32,-200.51 24.98,-211.1 31.66,-209"/>
</g>
<!-- Node25&#45;&gt;Node22 -->
<g id="edge38" class="edge">
<title>Node25&#45;&gt;Node22</title>
<path fill="none" stroke="#63b8ff" d="M161.04,-313.35C184.68,-305.44 217.45,-291.91 241,-272 259.57,-256.3 274.44,-232.69 283.84,-215.19"/>
<polygon fill="#63b8ff" stroke="#63b8ff" points="287.01,-216.67 288.48,-206.18 280.79,-213.46 287.01,-216.67"/>
</g>
<!-- Node25&#45;&gt;Node23 -->
<g id="edge37" class="edge">
<title>Node25&#45;&gt;Node23</title>
<path fill="none" stroke="#63b8ff" d="M121.91,-313.45C112.84,-304.22 99.48,-288.61 94,-272 89.82,-259.34 90.63,-254.9 94,-242 104.05,-203.5 130.04,-164.25 145.94,-142.72"/>
<polygon fill="#63b8ff" stroke="#63b8ff" points="148.82,-144.72 152.06,-134.63 143.24,-140.49 148.82,-144.72"/>
</g>
<!-- Node26 -->
<g id="node26" class="node">
<title>Node26</title>
<g id="a_node26"><a xlink:href="type__traits_8hpp.html" target="_top" xlink:title="Provides various transformation traits used by the range module.">
<polygon fill="white" stroke="#666666" points="231.5,-266.5 102.5,-266.5 102.5,-247.5 231.5,-247.5 231.5,-266.5"/>
<text text-anchor="middle" x="167" y="-254.5" font-family="Helvetica,sans-Serif" font-size="10.00">bio/ranges/type_traits.hpp</text>
</a>
</g>
</g>
<!-- Node25&#45;&gt;Node26 -->
<g id="edge39" class="edge">
<title>Node25&#45;&gt;Node26</title>
<path fill="none" stroke="#63b8ff" d="M135.86,-313.37C141.25,-303.78 150.1,-288.05 156.99,-275.8"/>
<polygon fill="#63b8ff" stroke="#63b8ff" points="160.14,-277.34 161.99,-266.91 154.04,-273.91 160.14,-277.34"/>
</g>
<!-- Node26&#45;&gt;Node2 -->
<g id="edge41" class="edge">
<title>Node26&#45;&gt;Node2</title>
<path fill="none" stroke="#63b8ff" d="M147.58,-247.37C122.99,-236.44 80.43,-217.52 51.99,-204.88"/>
<polygon fill="#63b8ff" stroke="#63b8ff" points="53.13,-201.56 42.57,-200.7 50.29,-207.96 53.13,-201.56"/>
</g>
<!-- Node26&#45;&gt;Node6 -->
<g id="edge42" class="edge">
<title>Node26&#45;&gt;Node6</title>
<path fill="none" stroke="#63b8ff" d="M164.71,-247.26C161.15,-231.63 156.04,-198.42 170,-176 206.41,-117.52 285.16,-87.94 333.77,-74.69"/>
<polygon fill="#63b8ff" stroke="#63b8ff" points="334.86,-78.02 343.65,-72.11 333.09,-71.25 334.86,-78.02"/>
</g>
<!-- Node26&#45;&gt;Node11 -->
<g id="edge43" class="edge">
<title>Node26&#45;&gt;Node11</title>
<path fill="none" stroke="#63b8ff" d="M160.35,-247.47C141.94,-222.79 94.03,-150.48 131,-110 145.91,-93.68 457.09,-74.66 575.66,-67.97"/>
<polygon fill="#63b8ff" stroke="#63b8ff" points="576.07,-71.46 585.86,-67.4 575.68,-64.47 576.07,-71.46"/>
</g>
<!-- Node26&#45;&gt;Node22 -->
<g id="edge44" class="edge">
<title>Node26&#45;&gt;Node22</title>
<path fill="none" stroke="#63b8ff" d="M184.26,-247.37C203.02,-237.99 233.56,-222.72 257.82,-210.59"/>
<polygon fill="#63b8ff" stroke="#63b8ff" points="259.39,-213.72 266.77,-206.12 256.26,-207.46 259.39,-213.72"/>
</g>
<!-- Node27 -->
<g id="node27" class="node">
<title>Node27</title>
<g id="a_node27"><a target="_blank" xlink:href="https://en.cppreference.com/w/cpp/header/iterator.html" xlink:title=" ">
<polygon fill="white" stroke="#666666" points="225.5,-200.5 178.5,-200.5 178.5,-181.5 225.5,-181.5 225.5,-200.5"/>
<text text-anchor="middle" x="202" y="-188.5" font-family="Helvetica,sans-Serif" font-size="10.00">iterator</text>
</a>
</g>
</g>
<!-- Node26&#45;&gt;Node27 -->
<g id="edge40" class="edge">
<title>Node26&#45;&gt;Node27</title>
<path fill="none" stroke="#63b8ff" d="M171.72,-247.37C176.96,-237.78 185.57,-222.05 192.27,-209.8"/>
<polygon fill="#63b8ff" stroke="#63b8ff" points="195.4,-211.36 197.13,-200.91 189.26,-208 195.4,-211.36"/>
</g>
<!-- Node28&#45;&gt;Node25 -->
<g id="edge55" class="edge">
<title>Node28&#45;&gt;Node25</title>
<path fill="none" stroke="#63b8ff" d="M237.15,-373.95C213.62,-362.88 181.07,-347.56 158.23,-336.82"/>
<polygon fill="#63b8ff" stroke="#63b8ff" points="159.64,-333.61 149.1,-332.52 156.66,-339.94 159.64,-333.61"/>
</g>
<!-- Node29 -->
<g id="node29" class="node">
<title>Node29</title>
<g id="a_node29"><a target="_blank" xlink:href="https://en.cppreference.com/w/cpp/header/utility.html" xlink:title=" ">
<polygon fill="white" stroke="#666666" points="311,-332.5 271,-332.5 271,-313.5 311,-313.5 311,-332.5"/>
<text text-anchor="middle" x="291" y="-320.5" font-family="Helvetica,sans-Serif" font-size="10.00">utility</text>
</a>
</g>
</g>
<!-- Node28&#45;&gt;Node29 -->
<g id="edge46" class="edge">
<title>Node28&#45;&gt;Node29</title>
<path fill="none" stroke="#63b8ff" d="M272.33,-373.8C275.81,-364.5 280.4,-352.27 284.15,-342.26"/>
<polygon fill="#63b8ff" stroke="#63b8ff" points="287.45,-343.44 287.68,-332.84 280.89,-340.98 287.45,-343.44"/>
</g>
<!-- Node30 -->
<g id="node30" class="node">
<title>Node30</title>
<g id="a_node30"><a xlink:href="ranges_2concept_8hpp.html" target="_top" xlink:title="Additional non&#45;standard concepts for ranges.">
<polygon fill="white" stroke="#666666" points="447,-332.5 329,-332.5 329,-313.5 447,-313.5 447,-332.5"/>
<text text-anchor="middle" x="388" y="-320.5" font-family="Helvetica,sans-Serif" font-size="10.00">bio/ranges/concept.hpp</text>
</a>
</g>
</g>
<!-- Node28&#45;&gt;Node30 -->
<g id="edge47" class="edge">
<title>Node28&#45;&gt;Node30</title>
<path fill="none" stroke="#63b8ff" d="M293.55,-373.95C314.21,-363.03 342.68,-347.97 362.95,-337.25"/>
<polygon fill="#63b8ff" stroke="#63b8ff" points="364.69,-340.29 371.9,-332.52 361.42,-334.1 364.69,-340.29"/>
</g>
<!-- Node31 -->
<g id="node31" class="node">
<title>Node31</title>
<g id="a_node31"><a xlink:href="random__access__iterator_8hpp.html" target="_top" xlink:title="Provides the bio::ranges::detail::random_access_iterator class.">
<polygon fill="white" stroke="#666666" points="449.5,-272 326.5,-272 326.5,-242 449.5,-242 449.5,-272"/>
<text text-anchor="start" x="334.5" y="-260" font-family="Helvetica,sans-Serif" font-size="10.00">bio/ranges/detail/random</text>
<text text-anchor="middle" x="388" y="-249" font-family="Helvetica,sans-Serif" font-size="10.00">_access_iterator.hpp</text>
</a>
</g>
</g>
<!-- Node28&#45;&gt;Node31 -->
<g id="edge50" class="edge">
<title>Node28&#45;&gt;Node31</title>
<path fill="none" stroke="#63b8ff" d="M261.29,-373.91C255.35,-356.77 248.63,-327.69 262,-308 274.67,-289.34 295.51,-277.65 316.62,-270.32"/>
<polygon fill="#63b8ff" stroke="#63b8ff" points="317.84,-273.6 326.32,-267.25 315.73,-266.93 317.84,-273.6"/>
</g>
<!-- Node30&#45;&gt;Node2 -->
<g id="edge48" class="edge">
<title>Node30&#45;&gt;Node2</title>
<path fill="none" stroke="#63b8ff" d="M375.2,-313.46C350.36,-297.24 293.44,-261.86 241,-242 177.76,-218.06 99.68,-203.55 56.22,-196.72"/>
<polygon fill="#63b8ff" stroke="#63b8ff" points="56.61,-193.24 46.2,-195.19 55.55,-200.16 56.61,-193.24"/>
</g>
<!-- Node30&#45;&gt;Node5 -->
<g id="edge49" class="edge">
<title>Node30&#45;&gt;Node5</title>
<path fill="none" stroke="#63b8ff" d="M419.42,-313.37C460.88,-301.98 533.95,-281.91 579.79,-269.32"/>
<polygon fill="#63b8ff" stroke="#63b8ff" points="580.99,-272.62 589.7,-266.6 579.13,-265.87 580.99,-272.62"/>
</g>
<!-- Node31&#45;&gt;Node6 -->
<g id="edge53" class="edge">
<title>Node31&#45;&gt;Node6</title>
<path fill="none" stroke="#63b8ff" d="M387.04,-241.99C384.75,-208.35 378.92,-122.97 376.31,-84.64"/>
<polygon fill="#63b8ff" stroke="#63b8ff" points="379.78,-84.1 375.6,-74.36 372.79,-84.58 379.78,-84.1"/>
</g>
<!-- Node31&#45;&gt;Node11 -->
<g id="edge54" class="edge">
<title>Node31&#45;&gt;Node11</title>
<path fill="none" stroke="#63b8ff" d="M392.01,-241.98C401.07,-212.87 425.92,-145.6 471,-110 501.11,-86.23 543.64,-75.14 575.73,-69.98"/>
<polygon fill="#63b8ff" stroke="#63b8ff" points="576.37,-73.42 585.76,-68.5 575.35,-66.5 576.37,-73.42"/>
</g>
<!-- Node31&#45;&gt;Node27 -->
<g id="edge52" class="edge">
<title>Node31&#45;&gt;Node27</title>
<path fill="none" stroke="#63b8ff" d="M341.45,-241.92C310.94,-232.42 270.33,-219.24 235,-206 233.62,-205.48 232.2,-204.94 230.78,-204.38"/>
<polygon fill="#63b8ff" stroke="#63b8ff" points="232.01,-201.1 221.43,-200.57 229.37,-207.58 232.01,-201.1"/>
</g>
<!-- Node32 -->
<g id="node32" class="node">
<title>Node32</title>
<g id="a_node32"><a target="_blank" xlink:href="https://en.cppreference.com/w/cpp/header/cassert.html" xlink:title=" ">
<polygon fill="white" stroke="#666666" points="490.5,-200.5 441.5,-200.5 441.5,-181.5 490.5,-181.5 490.5,-200.5"/>
<text text-anchor="middle" x="466" y="-188.5" font-family="Helvetica,sans-Serif" font-size="10.00">cassert</text>
</a>
</g>
</g>
<!-- Node31&#45;&gt;Node32 -->
<g id="edge51" class="edge">
<title>Node31&#45;&gt;Node32</title>
<path fill="none" stroke="#63b8ff" d="M405.31,-241.8C417.71,-231.62 434.4,-217.93 447.13,-207.48"/>
<polygon fill="#63b8ff" stroke="#63b8ff" points="449.71,-209.89 455.22,-200.84 445.27,-204.48 449.71,-209.89"/>
</g>
</g>
</svg>
        <g id="navigator" transform="translate(0 0)" fill="#404254">
                <rect fill="#f2f5e9" fill-opacity="0.5" stroke="#606060" stroke-width=".5" x="0" y="0" width="60" height="60"/>
                <use id="zoomplus" xlink:href="#zoomPlus" x="17" y="9" onmousedown="handleZoom(evt,'in')"/>
                <use id="zoomminus" xlink:href="#zoomMin" x="42" y="9" onmousedown="handleZoom(evt,'out')"/>
                <use id="reset" xlink:href="#resetDef" x="30" y="36" onmousedown="handleReset()"/>
                <g id="arrowUp" xlink:href="#dirArrow" transform="translate(30 24)" onmousedown="handlePan(0,-1)">
                  <use xlink:href="#rim" fill="#404040">
                        <set attributeName="fill" to="#808080" begin="arrowUp.mouseover" end="arrowUp.mouseout"/>
                  </use>
                  <path fill="none" stroke="white" stroke-width="1.5" d="M0,-3.0v7 M-2.5,-0.5L0,-3.0L2.5,-0.5"/>
                </g>
                <g id="arrowRight" xlink:href="#dirArrow" transform="rotate(90) translate(36 -43)" onmousedown="handlePan(1,0)">
                  <use xlink:href="#rim" fill="#404040">
                        <set attributeName="fill" to="#808080" begin="arrowRight.mouseover" end="arrowRight.mouseout"/>
                  </use>
                  <path fill="none" stroke="white" stroke-width="1.5" d="M0,-3.0v7 M-2.5,-0.5L0,-3.0L2.5,-0.5"/>
                </g>
                <g id="arrowDown" xlink:href="#dirArrow" transform="rotate(180) translate(-30 -48)" onmousedown="handlePan(0,1)">
                  <use xlink:href="#rim" fill="#404040">
                        <set attributeName="fill" to="#808080" begin="arrowDown.mouseover" end="arrowDown.mouseout"/>
                  </use>
                  <path fill="none" stroke="white" stroke-width="1.5" d="M0,-3.0v7 M-2.5,-0.5L0,-3.0L2.5,-0.5"/>
                </g>
                <g id="arrowLeft" xlink:href="#dirArrow" transform="rotate(270) translate(-36 17)" onmousedown="handlePan(-1,0)">
                  <use xlink:href="#rim" fill="#404040">
                        <set attributeName="fill" to="#808080" begin="arrowLeft.mouseover" end="arrowLeft.mouseout"/>
                  </use>
                  <path fill="none" stroke="white" stroke-width="1.5" d="M0,-3.0v7 M-2.5,-0.5L0,-3.0L2.5,-0.5"/>
                </g>
        </g>
        <svg viewBox="0 0 15 15" width="100%" height="30px" preserveAspectRatio="xMaxYMin meet">
         <g id="arrow_out" transform="scale(0.3 0.3)">
          <a xlink:href="add__reverse__complement_8hpp__incl_org.svg" target="_base">
           <rect id="button" ry="5" rx="5" y="6" x="6" height="38" width="38"
                fill="#f2f5e9" fill-opacity="0.5" stroke="#606060" stroke-width="1.0"/>
           <path id="arrow"
             d="M 11.500037,31.436501 C 11.940474,20.09759 22.043105,11.32322 32.158766,21.979434 L 37.068811,17.246167 C 37.068811,17.246167 37.088388,32 37.088388,32 L 22.160133,31.978069 C 22.160133,31.978069 26.997745,27.140456 26.997745,27.140456 C 18.528582,18.264221 13.291696,25.230495 11.500037,31.436501 z"
             style="fill:#404040;"/>
          </a>
         </g>
        </svg>
</svg>
