<?xml version="1.0" encoding="UTF-8" standalone="no"?>
<!DOCTYPE svg PUBLIC "-//W3C//DTD SVG 1.1//EN"
 "http://www.w3.org/Graphics/SVG/1.1/DTD/svg11.dtd">
<!-- Generated by graphviz version 2.42.2 ()
 -->
<!-- Title: bio/ranges/container/aligned_allocator.hpp Pages: 1 -->
<svg width="365pt" height="207pt"
 viewBox="0.00 0.00 364.50 207.00" xmlns="http://www.w3.org/2000/svg" xmlns:xlink="http://www.w3.org/1999/xlink">
<g id="graph0" class="graph" transform="scale(1 1) rotate(0) translate(4 203)">
<title>bio/ranges/container/aligned_allocator.hpp</title>
<polygon fill="white" stroke="transparent" points="-4,4 -4,-203 360.5,-203 360.5,4 -4,4"/>
<!-- Node1 -->
<g id="node1" class="node">
<title>Node1</title>
<g id="a_node1"><a xlink:title="Provides bio::ranges::aligned_allocator.">
<polygon fill="#bfbfbf" stroke="black" points="66,-168.5 66,-198.5 176,-198.5 176,-168.5 66,-168.5"/>
<text text-anchor="start" x="74" y="-186.5" font-family="Helvetica,sans-Serif" font-size="10.00">bio/ranges/container</text>
<text text-anchor="middle" x="121" y="-175.5" font-family="Helvetica,sans-Serif" font-size="10.00">/aligned_allocator.hpp</text>
</a>
</g>
</g>
<!-- Node2 -->
<g id="node2" class="node">
<title>Node2</title>
<g id="a_node2"><a target="_blank" xlink:href="https://en.cppreference.com/w/cpp/header/limits.html" xlink:title=" ">
<polygon fill="white" stroke="black" points="0,-112.5 0,-131.5 40,-131.5 40,-112.5 0,-112.5"/>
<text text-anchor="middle" x="20" y="-119.5" font-family="Helvetica,sans-Serif" font-size="10.00">limits</text>
</a>
</g>
</g>
<!-- Node1&#45;&gt;Node2 -->
<g id="edge1" class="edge">
<title>Node1&#45;&gt;Node2</title>
<path fill="none" stroke="midnightblue" d="M97.06,-168.4C80.87,-158.86 59.59,-146.32 43.5,-136.84"/>
<polygon fill="midnightblue" stroke="midnightblue" points="45.09,-133.72 34.7,-131.66 41.54,-139.75 45.09,-133.72"/>
</g>
<!-- Node3 -->
<g id="node3" class="node">
<title>Node3</title>
<g id="a_node3"><a target="_blank" xlink:href="https://en.cppreference.com/w/cpp/header/memory.html" xlink:title=" ">
<polygon fill="white" stroke="black" points="58,-112.5 58,-131.5 110,-131.5 110,-112.5 58,-112.5"/>
<text text-anchor="middle" x="84" y="-119.5" font-family="Helvetica,sans-Serif" font-size="10.00">memory</text>
</a>
</g>
</g>
<!-- Node1&#45;&gt;Node3 -->
<g id="edge2" class="edge">
<title>Node1&#45;&gt;Node3</title>
<path fill="none" stroke="midnightblue" d="M112.23,-168.4C107.02,-160.02 100.37,-149.33 94.83,-140.42"/>
<polygon fill="midnightblue" stroke="midnightblue" points="97.64,-138.3 89.38,-131.66 91.69,-142 97.64,-138.3"/>
</g>
<!-- Node4 -->
<g id="node4" class="node">
<title>Node4</title>
<g id="a_node4"><a target="_blank" xlink:href="https://en.cppreference.com/w/cpp/header/type_traits.html" xlink:title=" ">
<polygon fill="white" stroke="black" points="128,-112.5 128,-131.5 190,-131.5 190,-112.5 128,-112.5"/>
<text text-anchor="middle" x="159" y="-119.5" font-family="Helvetica,sans-Serif" font-size="10.00">type_traits</text>
</a>
</g>
</g>
<!-- Node1&#45;&gt;Node4 -->
<g id="edge3" class="edge">
<title>Node1&#45;&gt;Node4</title>
<path fill="none" stroke="midnightblue" d="M130.01,-168.4C135.41,-159.93 142.33,-149.1 148.05,-140.14"/>
<polygon fill="midnightblue" stroke="midnightblue" points="151.04,-141.97 153.47,-131.66 145.14,-138.2 151.04,-141.97"/>
</g>
<!-- Node5 -->
<g id="node5" class="node">
<title>Node5</title>
<g id="a_node5"><a xlink:href="ranges_2biocpp_8hpp.html" target="_top" xlink:title="Module header with module&#45;wide definitions.">
<polygon fill="white" stroke="black" points="208,-112.5 208,-131.5 320,-131.5 320,-112.5 208,-112.5"/>
<text text-anchor="middle" x="264" y="-119.5" font-family="Helvetica,sans-Serif" font-size="10.00">bio/ranges/biocpp.hpp</text>
</a>
</g>
</g>
<!-- Node1&#45;&gt;Node5 -->
<g id="edge4" class="edge">
<title>Node1&#45;&gt;Node5</title>
<path fill="none" stroke="midnightblue" d="M154.89,-168.4C178.88,-158.42 210.77,-145.15 233.88,-135.53"/>
<polygon fill="midnightblue" stroke="midnightblue" points="235.3,-138.73 243.19,-131.66 232.61,-132.27 235.3,-138.73"/>
</g>
<!-- Node6 -->
<g id="node6" class="node">
<title>Node6</title>
<g id="a_node6"><a xlink:href="platform_8hpp.html" target="_top" xlink:title="Provides platform and dependency checks.">
<polygon fill="white" stroke="black" points="208.5,-56.5 208.5,-75.5 319.5,-75.5 319.5,-56.5 208.5,-56.5"/>
<text text-anchor="middle" x="264" y="-63.5" font-family="Helvetica,sans-Serif" font-size="10.00">bio/meta/platform.hpp</text>
</a>
</g>
</g>
<!-- Node5&#45;&gt;Node6 -->
<g id="edge5" class="edge">
<title>Node5&#45;&gt;Node6</title>
<path fill="none" stroke="midnightblue" d="M264,-112.08C264,-105.01 264,-94.86 264,-85.99"/>
<polygon fill="midnightblue" stroke="midnightblue" points="267.5,-85.75 264,-75.75 260.5,-85.75 267.5,-85.75"/>
</g>
<!-- Node7 -->
<g id="node7" class="node">
<title>Node7</title>
<g id="a_node7"><a target="_blank" xlink:href="https://en.cppreference.com/w/cpp/header/cinttypes.html" xlink:title=" ">
<polygon fill="white" stroke="black" points="165,-0.5 165,-19.5 221,-19.5 221,-0.5 165,-0.5"/>
<text text-anchor="middle" x="193" y="-7.5" font-family="Helvetica,sans-Serif" font-size="10.00">cinttypes</text>
</a>
</g>
</g>
<!-- Node6&#45;&gt;Node7 -->
<g id="edge6" class="edge">
<title>Node6&#45;&gt;Node7</title>
<path fill="none" stroke="midnightblue" d="M252.59,-56.32C241.89,-48.18 225.66,-35.84 212.84,-26.09"/>
<polygon fill="midnightblue" stroke="midnightblue" points="214.69,-23.1 204.61,-19.83 210.46,-28.67 214.69,-23.1"/>
</g>
<!-- Node8 -->
<g id="node8" class="node">
<title>Node8</title>
<g id="a_node8"><a target="_blank" xlink:href="https://en.cppreference.com/w/cpp/header/ciso646.html" xlink:title=" ">
<polygon fill="white" stroke="black" points="239,-0.5 239,-19.5 289,-19.5 289,-0.5 239,-0.5"/>
<text text-anchor="middle" x="264" y="-7.5" font-family="Helvetica,sans-Serif" font-size="10.00">ciso646</text>
</a>
</g>
</g>
<!-- Node6&#45;&gt;Node8 -->
<g id="edge7" class="edge">
<title>Node6&#45;&gt;Node8</title>
<path fill="none" stroke="midnightblue" d="M264,-56.08C264,-49.01 264,-38.86 264,-29.99"/>
<polygon fill="midnightblue" stroke="midnightblue" points="267.5,-29.75 264,-19.75 260.5,-29.75 267.5,-29.75"/>
</g>
<!-- Node9 -->
<g id="node9" class="node">
<title>Node9</title>
<g id="a_node9"><a target="_blank" xlink:href="https://en.cppreference.com/w/cpp/header/cstddef.html" xlink:title=" ">
<polygon fill="white" stroke="black" points="307.5,-0.5 307.5,-19.5 356.5,-19.5 356.5,-0.5 307.5,-0.5"/>
<text text-anchor="middle" x="332" y="-7.5" font-family="Helvetica,sans-Serif" font-size="10.00">cstddef</text>
</a>
</g>
</g>
<!-- Node6&#45;&gt;Node9 -->
<g id="edge8" class="edge">
<title>Node6&#45;&gt;Node9</title>
<path fill="none" stroke="midnightblue" d="M274.93,-56.32C285.17,-48.18 300.72,-35.84 313,-26.09"/>
<polygon fill="midnightblue" stroke="midnightblue" points="315.22,-28.79 320.88,-19.83 310.87,-23.31 315.22,-28.79"/>
</g>
</g>
</svg>
