<?xml version="1.0" encoding="UTF-8" standalone="no"?>
<!DOCTYPE svg PUBLIC "-//W3C//DTD SVG 1.1//EN"
 "http://www.w3.org/Graphics/SVG/1.1/DTD/svg11.dtd">
<!-- Generated by graphviz version 2.42.2 ()
 -->
<!-- Title: bio/alphabet/composite/alphabet_tuple_base.hpp Pages: 1 -->
<svg width="577pt" height="296pt"
 viewBox="0.00 0.00 577.50 296.00" xmlns="http://www.w3.org/2000/svg" xmlns:xlink="http://www.w3.org/1999/xlink">
<g id="graph0" class="graph" transform="scale(1 1) rotate(0) translate(4 292)">
<title>bio/alphabet/composite/alphabet_tuple_base.hpp</title>
<polygon fill="white" stroke="transparent" points="-4,4 -4,-292 573.5,-292 573.5,4 -4,4"/>
<!-- Node1 -->
<g id="node1" class="node">
<title>Node1</title>
<g id="a_node1"><a xlink:title="Provides bio::alphabet::alphabet_tuple_base.">
<polygon fill="#bfbfbf" stroke="black" points="109.5,-257.5 109.5,-287.5 237.5,-287.5 237.5,-257.5 109.5,-257.5"/>
<text text-anchor="start" x="117.5" y="-275.5" font-family="Helvetica,sans-Serif" font-size="10.00">bio/alphabet/composite</text>
<text text-anchor="middle" x="173.5" y="-264.5" font-family="Helvetica,sans-Serif" font-size="10.00">/alphabet_tuple_base.hpp</text>
</a>
</g>
</g>
<!-- Node2 -->
<g id="node2" class="node">
<title>Node2</title>
<g id="a_node2"><a xlink:href="cigar_8hpp.html" target="_top" xlink:title="Provides the bio::alphabet::cigar alphabet.">
<polygon fill="white" stroke="black" points="0,-190.5 0,-220.5 93,-220.5 93,-190.5 0,-190.5"/>
<text text-anchor="start" x="8" y="-208.5" font-family="Helvetica,sans-Serif" font-size="10.00">bio/alphabet/cigar</text>
<text text-anchor="middle" x="46.5" y="-197.5" font-family="Helvetica,sans-Serif" font-size="10.00">/cigar.hpp</text>
</a>
</g>
</g>
<!-- Node1&#45;&gt;Node2 -->
<g id="edge1" class="edge">
<title>Node1&#45;&gt;Node2</title>
<path fill="none" stroke="midnightblue" d="M136.8,-252.71C116.77,-242.46 92.38,-229.98 74,-220.58"/>
<polygon fill="midnightblue" stroke="midnightblue" points="135.45,-255.96 145.94,-257.4 138.64,-249.72 135.45,-255.96"/>
</g>
<!-- Node3 -->
<g id="node3" class="node">
<title>Node3</title>
<g id="a_node3"><a xlink:href="alphabet_2composite_2all_8hpp.html" target="_top" xlink:title="Meta&#45;header for the composite submodule; includes all headers from alphabet/composite/.">
<polygon fill="white" stroke="black" points="66,-56.5 66,-86.5 183,-86.5 183,-56.5 66,-56.5"/>
<text text-anchor="start" x="74" y="-74.5" font-family="Helvetica,sans-Serif" font-size="10.00">bio/alphabet/composite</text>
<text text-anchor="middle" x="124.5" y="-63.5" font-family="Helvetica,sans-Serif" font-size="10.00">/all.hpp</text>
</a>
</g>
</g>
<!-- Node1&#45;&gt;Node3 -->
<g id="edge2" class="edge">
<title>Node1&#45;&gt;Node3</title>
<path fill="none" stroke="midnightblue" d="M155.76,-249.32C149.94,-240.91 144.06,-230.96 140.5,-221 123.75,-174.11 123.13,-114.03 123.86,-86.91"/>
<polygon fill="midnightblue" stroke="midnightblue" points="152.98,-251.45 161.7,-257.46 158.63,-247.32 152.98,-251.45"/>
</g>
<!-- Node5 -->
<g id="node5" class="node">
<title>Node5</title>
<g id="a_node5"><a xlink:href="masked_8hpp.html" target="_top" xlink:title="Extends a given alphabet with the mask alphabet.">
<polygon fill="white" stroke="black" points="149.5,-196 149.5,-215 301.5,-215 301.5,-196 149.5,-196"/>
<text text-anchor="middle" x="225.5" y="-203" font-family="Helvetica,sans-Serif" font-size="10.00">bio/alphabet/mask/masked.hpp</text>
</a>
</g>
</g>
<!-- Node1&#45;&gt;Node5 -->
<g id="edge4" class="edge">
<title>Node1&#45;&gt;Node5</title>
<path fill="none" stroke="midnightblue" d="M191.25,-249.32C200.62,-237.6 211.59,-223.88 218.54,-215.19"/>
<polygon fill="midnightblue" stroke="midnightblue" points="188.3,-247.4 184.78,-257.4 193.76,-251.77 188.3,-247.4"/>
</g>
<!-- Node7 -->
<g id="node7" class="node">
<title>Node7</title>
<g id="a_node7"><a xlink:href="qualified_8hpp.html" target="_top" xlink:title="Provides quality alphabet composites.">
<polygon fill="white" stroke="black" points="347,-190.5 347,-220.5 448,-220.5 448,-190.5 347,-190.5"/>
<text text-anchor="start" x="355" y="-208.5" font-family="Helvetica,sans-Serif" font-size="10.00">bio/alphabet/quality</text>
<text text-anchor="middle" x="397.5" y="-197.5" font-family="Helvetica,sans-Serif" font-size="10.00">/qualified.hpp</text>
</a>
</g>
</g>
<!-- Node1&#45;&gt;Node7 -->
<g id="edge7" class="edge">
<title>Node1&#45;&gt;Node7</title>
<path fill="none" stroke="midnightblue" d="M231.81,-254.58C268.19,-244.02 314.47,-230.59 348.87,-220.61"/>
<polygon fill="midnightblue" stroke="midnightblue" points="230.46,-251.33 221.83,-257.48 232.41,-258.05 230.46,-251.33"/>
</g>
<!-- Node4 -->
<g id="node4" class="node">
<title>Node4</title>
<g id="a_node4"><a xlink:href="alphabet_2all_8hpp.html" target="_top" xlink:title="Meta&#45;header for the alphabet module.">
<polygon fill="white" stroke="black" points="163,-0.5 163,-19.5 264,-19.5 264,-0.5 163,-0.5"/>
<text text-anchor="middle" x="213.5" y="-7.5" font-family="Helvetica,sans-Serif" font-size="10.00">bio/alphabet/all.hpp</text>
</a>
</g>
</g>
<!-- Node3&#45;&gt;Node4 -->
<g id="edge3" class="edge">
<title>Node3&#45;&gt;Node4</title>
<path fill="none" stroke="midnightblue" d="M154,-50.78C169.78,-40.23 188.4,-27.78 200.55,-19.66"/>
<polygon fill="midnightblue" stroke="midnightblue" points="151.96,-47.93 145.59,-56.4 155.85,-53.75 151.96,-47.93"/>
</g>
<!-- Node6 -->
<g id="node6" class="node">
<title>Node6</title>
<g id="a_node6"><a xlink:href="alphabet_2mask_2all_8hpp.html" target="_top" xlink:title="Meta&#45;header for the mask submodule; includes all headers from alphabet/mask/.">
<polygon fill="white" stroke="black" points="149.5,-129 149.5,-148 277.5,-148 277.5,-129 149.5,-129"/>
<text text-anchor="middle" x="213.5" y="-136" font-family="Helvetica,sans-Serif" font-size="10.00">bio/alphabet/mask/all.hpp</text>
</a>
</g>
</g>
<!-- Node5&#45;&gt;Node6 -->
<g id="edge5" class="edge">
<title>Node5&#45;&gt;Node6</title>
<path fill="none" stroke="midnightblue" d="M222,-185.54C219.72,-173.17 216.85,-157.62 215.09,-148.13"/>
<polygon fill="midnightblue" stroke="midnightblue" points="218.62,-186.54 223.88,-195.73 225.51,-185.26 218.62,-186.54"/>
</g>
<!-- Node6&#45;&gt;Node4 -->
<g id="edge6" class="edge">
<title>Node6&#45;&gt;Node4</title>
<path fill="none" stroke="midnightblue" d="M213.5,-118.44C213.5,-90.62 213.5,-40.04 213.5,-19.76"/>
<polygon fill="midnightblue" stroke="midnightblue" points="210,-118.81 213.5,-128.81 217,-118.81 210,-118.81"/>
</g>
<!-- Node8 -->
<g id="node8" class="node">
<title>Node8</title>
<g id="a_node8"><a xlink:href="aliases_8hpp.html" target="_top" xlink:title="Provides aliases for qualified.">
<polygon fill="white" stroke="black" points="296,-123.5 296,-153.5 397,-153.5 397,-123.5 296,-123.5"/>
<text text-anchor="start" x="304" y="-141.5" font-family="Helvetica,sans-Serif" font-size="10.00">bio/alphabet/quality</text>
<text text-anchor="middle" x="346.5" y="-130.5" font-family="Helvetica,sans-Serif" font-size="10.00">/aliases.hpp</text>
</a>
</g>
</g>
<!-- Node7&#45;&gt;Node8 -->
<g id="edge8" class="edge">
<title>Node7&#45;&gt;Node8</title>
<path fill="none" stroke="midnightblue" d="M380.2,-182.45C372.71,-172.9 364.16,-162 357.54,-153.58"/>
<polygon fill="midnightblue" stroke="midnightblue" points="377.51,-184.69 386.43,-190.4 383.01,-180.37 377.51,-184.69"/>
</g>
<!-- Node9 -->
<g id="node9" class="node">
<title>Node9</title>
<g id="a_node9"><a xlink:href="alphabet_2quality_2all_8hpp.html" target="_top" xlink:title="Meta&#45;header that includes all headers from alphabet/quality/.">
<polygon fill="white" stroke="black" points="296,-56.5 296,-86.5 397,-86.5 397,-56.5 296,-56.5"/>
<text text-anchor="start" x="304" y="-74.5" font-family="Helvetica,sans-Serif" font-size="10.00">bio/alphabet/quality</text>
<text text-anchor="middle" x="346.5" y="-63.5" font-family="Helvetica,sans-Serif" font-size="10.00">/all.hpp</text>
</a>
</g>
</g>
<!-- Node7&#45;&gt;Node9 -->
<g id="edge11" class="edge">
<title>Node7&#45;&gt;Node9</title>
<path fill="none" stroke="midnightblue" d="M406.55,-180.58C411.43,-163.73 414.91,-141.06 406.5,-123 399.32,-107.57 384.85,-95.17 371.91,-86.52"/>
<polygon fill="midnightblue" stroke="midnightblue" points="403.18,-179.62 403.43,-190.22 409.84,-181.78 403.18,-179.62"/>
</g>
<!-- Node10 -->
<g id="node10" class="node">
<title>Node10</title>
<g id="a_node10"><a xlink:href="trim__quality_8hpp.html" target="_top" xlink:title="Provides bio::views::trim_quality.">
<polygon fill="white" stroke="black" points="453.5,-123.5 453.5,-153.5 563.5,-153.5 563.5,-123.5 453.5,-123.5"/>
<text text-anchor="start" x="461.5" y="-141.5" font-family="Helvetica,sans-Serif" font-size="10.00">bio/ranges/views/trim</text>
<text text-anchor="middle" x="508.5" y="-130.5" font-family="Helvetica,sans-Serif" font-size="10.00">_quality.hpp</text>
</a>
</g>
</g>
<!-- Node7&#45;&gt;Node10 -->
<g id="edge12" class="edge">
<title>Node7&#45;&gt;Node10</title>
<path fill="none" stroke="midnightblue" d="M430.3,-185.3C447.66,-175.12 468.62,-162.85 484.46,-153.58"/>
<polygon fill="midnightblue" stroke="midnightblue" points="428.45,-182.32 421.59,-190.4 431.98,-188.36 428.45,-182.32"/>
</g>
<!-- Node8&#45;&gt;Node9 -->
<g id="edge9" class="edge">
<title>Node8&#45;&gt;Node9</title>
<path fill="none" stroke="midnightblue" d="M346.5,-113.11C346.5,-104.15 346.5,-94.32 346.5,-86.58"/>
<polygon fill="midnightblue" stroke="midnightblue" points="343,-113.4 346.5,-123.4 350,-113.4 343,-113.4"/>
</g>
<!-- Node9&#45;&gt;Node4 -->
<g id="edge10" class="edge">
<title>Node9&#45;&gt;Node4</title>
<path fill="none" stroke="midnightblue" d="M305.66,-52.23C281.44,-41.39 251.86,-28.16 232.85,-19.66"/>
<polygon fill="midnightblue" stroke="midnightblue" points="304.42,-55.51 314.98,-56.4 307.28,-49.12 304.42,-55.51"/>
</g>
<!-- Node11 -->
<g id="node11" class="node">
<title>Node11</title>
<g id="a_node11"><a xlink:href="ranges_2views_2all_8hpp.html" target="_top" xlink:title="Meta&#45;header for the views submodule .">
<polygon fill="white" stroke="black" points="447.5,-62 447.5,-81 569.5,-81 569.5,-62 447.5,-62"/>
<text text-anchor="middle" x="508.5" y="-69" font-family="Helvetica,sans-Serif" font-size="10.00">bio/ranges/views/all.hpp</text>
</a>
</g>
</g>
<!-- Node10&#45;&gt;Node11 -->
<g id="edge13" class="edge">
<title>Node10&#45;&gt;Node11</title>
<path fill="none" stroke="midnightblue" d="M508.5,-113.25C508.5,-102.02 508.5,-89.38 508.5,-81.19"/>
<polygon fill="midnightblue" stroke="midnightblue" points="505,-113.4 508.5,-123.4 512,-113.4 505,-113.4"/>
</g>
</g>
</svg>
