<?xml version="1.0" encoding="UTF-8" standalone="no"?>
<!DOCTYPE svg PUBLIC "-//W3C//DTD SVG 1.1//EN"
 "http://www.w3.org/Graphics/SVG/1.1/DTD/svg11.dtd">
<!-- Generated by graphviz version 2.43.0 (0)
 -->
<!-- Title: bio/alphabet/aminoacid/concept.hpp Pages: 1 -->
<!--zoomable 441 -->
<svg id="main" version="1.1" xmlns="http://www.w3.org/2000/svg" xmlns:xlink="http://www.w3.org/1999/xlink" xml:space="preserve" onload="init(evt)">
<style type="text/css"><![CDATA[
.edge:hover path { stroke: red; }
.edge:hover polygon { stroke: red; fill: red; }
]]></style>
<script type="text/javascript"><![CDATA[
var edges = document.getElementsByTagName('g');
if (edges && edges.length) {
  for (var i=0;i<edges.length;i++) {
    if (edges[i].id.substr(0,4)=='edge') {
      edges[i].setAttribute('class','edge');
    }
  }
}
]]></script>
        <defs>
                <circle id="rim" cx="0" cy="0" r="7"/>
                <circle id="rim2" cx="0" cy="0" r="3.5"/>
                <g id="zoomPlus">
                        <use xlink:href="#rim" fill="#404040">
                                <set attributeName="fill" to="#808080" begin="zoomplus.mouseover" end="zoomplus.mouseout"/>
                        </use>
                        <path d="M-4,0h8M0,-4v8" fill="none" stroke="white" stroke-width="1.5" pointer-events="none"/>
                </g>
                <g id="zoomMin">
                        <use xlink:href="#rim" fill="#404040">
                                <set attributeName="fill" to="#808080" begin="zoomminus.mouseover" end="zoomminus.mouseout"/>
                        </use>
                        <path d="M-4,0h8" fill="none" stroke="white" stroke-width="1.5" pointer-events="none"/>
                </g>
                <g id="dirArrow">
                        <path fill="none" stroke="white" stroke-width="1.5" d="M0,-3.0v7 M-2.5,-0.5L0,-3.0L2.5,-0.5"/>
                </g>
               <g id="resetDef">
                       <use xlink:href="#rim2" fill="#404040">
                               <set attributeName="fill" to="#808080" begin="reset.mouseover" end="reset.mouseout"/>
                       </use>
               </g>
        </defs>

<script type="text/javascript">
var viewWidth = 700;
var viewHeight = 441;
var sectionId = 'dynsection-1';
</script>
<script xlink:href="svgpan.js"/>
<svg id="graph" class="graph">
<g id="viewport">
<title>bio/alphabet/aminoacid/concept.hpp</title>
<polygon fill="white" stroke="transparent" points="-4,4 -4,-437 695.5,-437 695.5,4 -4,4"/>
<!-- Node1 -->
<g id="node1" class="node">
<title>Node1</title>
<g id="a_node1"><a xlink:title="Provides bio::alphabet::aminoacid_alphabet.">
<polygon fill="#bfbfbf" stroke="black" points="185.5,-402.5 185.5,-432.5 316.5,-432.5 316.5,-402.5 185.5,-402.5"/>
<text text-anchor="start" x="193.5" y="-420.5" font-family="Helvetica,sans-Serif" font-size="10.00">bio/alphabet/aminoacid</text>
<text text-anchor="middle" x="251" y="-409.5" font-family="Helvetica,sans-Serif" font-size="10.00">/concept.hpp</text>
</a>
</g>
</g>
<!-- Node2 -->
<g id="node2" class="node">
<title>Node2</title>
<g id="a_node2"><a xlink:href="aa10li_8hpp.html" target="_top" xlink:title="Provides bio::alphabet::aa10li, container aliases and string literals.">
<polygon fill="white" stroke="black" points="28.5,-268.5 28.5,-298.5 159.5,-298.5 159.5,-268.5 28.5,-268.5"/>
<text text-anchor="start" x="36.5" y="-286.5" font-family="Helvetica,sans-Serif" font-size="10.00">bio/alphabet/aminoacid</text>
<text text-anchor="middle" x="94" y="-275.5" font-family="Helvetica,sans-Serif" font-size="10.00">/aa10li.hpp</text>
</a>
</g>
</g>
<!-- Node1&#45;&gt;Node2 -->
<g id="edge1" class="edge">
<title>Node1&#45;&gt;Node2</title>
<path fill="none" stroke="midnightblue" d="M226.54,-395.94C194.31,-368.84 138.46,-321.88 110.68,-298.52"/>
<polygon fill="midnightblue" stroke="midnightblue" points="224.29,-398.62 234.2,-402.37 228.8,-393.26 224.29,-398.62"/>
</g>
<!-- Node3 -->
<g id="node3" class="node">
<title>Node3</title>
<g id="a_node3"><a xlink:href="alphabet_2aminoacid_2all_8hpp.html" target="_top" xlink:title="Meta&#45;header for the aminoacid submodule; includes all headers from alphabet/aminoacid/.">
<polygon fill="white" stroke="black" points="240.5,-67.5 240.5,-97.5 371.5,-97.5 371.5,-67.5 240.5,-67.5"/>
<text text-anchor="start" x="248.5" y="-85.5" font-family="Helvetica,sans-Serif" font-size="10.00">bio/alphabet/aminoacid</text>
<text text-anchor="middle" x="306" y="-74.5" font-family="Helvetica,sans-Serif" font-size="10.00">/all.hpp</text>
</a>
</g>
</g>
<!-- Node1&#45;&gt;Node3 -->
<g id="edge19" class="edge">
<title>Node1&#45;&gt;Node3</title>
<path fill="none" stroke="midnightblue" d="M175.15,-408.58C101.26,-396.17 0,-364.56 0,-284.5 0,-284.5 0,-284.5 0,-215.5 0,-111.65 150.44,-88.53 240.36,-84"/>
<polygon fill="midnightblue" stroke="midnightblue" points="174.95,-412.09 185.38,-410.21 176.05,-405.18 174.95,-412.09"/>
</g>
<!-- Node5 -->
<g id="node5" class="node">
<title>Node5</title>
<g id="a_node5"><a xlink:href="aa10murphy_8hpp.html" target="_top" xlink:title="Provides bio::alphabet::aa10murphy, container aliases and string literals.">
<polygon fill="white" stroke="black" points="177.5,-268.5 177.5,-298.5 308.5,-298.5 308.5,-268.5 177.5,-268.5"/>
<text text-anchor="start" x="185.5" y="-286.5" font-family="Helvetica,sans-Serif" font-size="10.00">bio/alphabet/aminoacid</text>
<text text-anchor="middle" x="243" y="-275.5" font-family="Helvetica,sans-Serif" font-size="10.00">/aa10murphy.hpp</text>
</a>
</g>
</g>
<!-- Node1&#45;&gt;Node5 -->
<g id="edge4" class="edge">
<title>Node1&#45;&gt;Node5</title>
<path fill="none" stroke="midnightblue" d="M235.66,-393.54C230.95,-385.23 226.39,-375.53 224,-366 218.1,-342.46 227.99,-314.95 235.57,-298.67"/>
<polygon fill="midnightblue" stroke="midnightblue" points="232.76,-395.51 240.93,-402.26 238.75,-391.89 232.76,-395.51"/>
</g>
<!-- Node6 -->
<g id="node6" class="node">
<title>Node6</title>
<g id="a_node6"><a xlink:href="aa20_8hpp.html" target="_top" xlink:title="Provides bio::alphabet::aa20, container aliases and string literals.">
<polygon fill="white" stroke="black" points="326.5,-268.5 326.5,-298.5 457.5,-298.5 457.5,-268.5 326.5,-268.5"/>
<text text-anchor="start" x="334.5" y="-286.5" font-family="Helvetica,sans-Serif" font-size="10.00">bio/alphabet/aminoacid</text>
<text text-anchor="middle" x="392" y="-275.5" font-family="Helvetica,sans-Serif" font-size="10.00">/aa20.hpp</text>
</a>
</g>
</g>
<!-- Node1&#45;&gt;Node6 -->
<g id="edge6" class="edge">
<title>Node1&#45;&gt;Node6</title>
<path fill="none" stroke="midnightblue" d="M324.88,-398.82C342.82,-391.35 360.43,-380.81 373,-366 389.26,-346.84 392.22,-316.35 392.43,-298.6"/>
<polygon fill="midnightblue" stroke="midnightblue" points="323.55,-395.58 315.49,-402.45 326.08,-402.11 323.55,-395.58"/>
</g>
<!-- Node7 -->
<g id="node7" class="node">
<title>Node7</title>
<g id="a_node7"><a xlink:href="aa27_8hpp.html" target="_top" xlink:title="Provides bio::alphabet::aa27, container aliases and string literals.">
<polygon fill="white" stroke="black" points="475.5,-268.5 475.5,-298.5 606.5,-298.5 606.5,-268.5 475.5,-268.5"/>
<text text-anchor="start" x="483.5" y="-286.5" font-family="Helvetica,sans-Serif" font-size="10.00">bio/alphabet/aminoacid</text>
<text text-anchor="middle" x="541" y="-275.5" font-family="Helvetica,sans-Serif" font-size="10.00">/aa27.hpp</text>
</a>
</g>
</g>
<!-- Node1&#45;&gt;Node7 -->
<g id="edge8" class="edge">
<title>Node1&#45;&gt;Node7</title>
<path fill="none" stroke="midnightblue" d="M306.46,-399.31C333.31,-390.39 365.77,-378.7 394,-366 439.64,-345.46 490.1,-315.87 518.44,-298.56"/>
<polygon fill="midnightblue" stroke="midnightblue" points="305.25,-396.03 296.84,-402.47 307.43,-402.68 305.25,-396.03"/>
</g>
<!-- Node13 -->
<g id="node13" class="node">
<title>Node13</title>
<g id="a_node13"><a xlink:href="aminoacid__base_8hpp.html" target="_top" xlink:title="Provides bio::alphabet::aminoacid_base.">
<polygon fill="white" stroke="black" points="232.5,-335.5 232.5,-365.5 363.5,-365.5 363.5,-335.5 232.5,-335.5"/>
<text text-anchor="start" x="240.5" y="-353.5" font-family="Helvetica,sans-Serif" font-size="10.00">bio/alphabet/aminoacid</text>
<text text-anchor="middle" x="298" y="-342.5" font-family="Helvetica,sans-Serif" font-size="10.00">/aminoacid_base.hpp</text>
</a>
</g>
</g>
<!-- Node1&#45;&gt;Node13 -->
<g id="edge20" class="edge">
<title>Node1&#45;&gt;Node13</title>
<path fill="none" stroke="midnightblue" d="M267.16,-394.16C274.01,-384.68 281.79,-373.92 287.82,-365.58"/>
<polygon fill="midnightblue" stroke="midnightblue" points="264.22,-392.24 261.2,-402.4 269.89,-396.34 264.22,-392.24"/>
</g>
<!-- Node2&#45;&gt;Node3 -->
<g id="edge2" class="edge">
<title>Node2&#45;&gt;Node3</title>
<path fill="none" stroke="midnightblue" d="M116.76,-261.14C160.28,-220.29 254.21,-132.11 290.89,-97.68"/>
<polygon fill="midnightblue" stroke="midnightblue" points="114.14,-258.79 109.25,-268.19 118.93,-263.9 114.14,-258.79"/>
</g>
<!-- Node4 -->
<g id="node4" class="node">
<title>Node4</title>
<g id="a_node4"><a xlink:href="alphabet_2all_8hpp.html" target="_top" xlink:title="Meta&#45;header for the alphabet module.">
<polygon fill="white" stroke="black" points="249.5,-6 249.5,-25 362.5,-25 362.5,-6 249.5,-6"/>
<text text-anchor="middle" x="306" y="-13" font-family="Helvetica,sans-Serif" font-size="10.00">bio/alphabet/all.hpp</text>
</a>
</g>
</g>
<!-- Node3&#45;&gt;Node4 -->
<g id="edge3" class="edge">
<title>Node3&#45;&gt;Node4</title>
<path fill="none" stroke="midnightblue" d="M306,-57.25C306,-46.02 306,-33.38 306,-25.19"/>
<polygon fill="midnightblue" stroke="midnightblue" points="302.5,-57.4 306,-67.4 309.5,-57.4 302.5,-57.4"/>
</g>
<!-- Node5&#45;&gt;Node3 -->
<g id="edge5" class="edge">
<title>Node5&#45;&gt;Node3</title>
<path fill="none" stroke="midnightblue" d="M250.59,-258.53C263.85,-216.65 290.84,-131.4 301.51,-97.68"/>
<polygon fill="midnightblue" stroke="midnightblue" points="247.21,-257.6 247.53,-268.19 253.89,-259.71 247.21,-257.6"/>
</g>
<!-- Node6&#45;&gt;Node3 -->
<g id="edge7" class="edge">
<title>Node6&#45;&gt;Node3</title>
<path fill="none" stroke="midnightblue" d="M358.86,-262.59C348.01,-254.44 336.97,-244.07 330,-232 304.66,-188.13 303.94,-125.47 305.08,-97.69"/>
<polygon fill="midnightblue" stroke="midnightblue" points="356.86,-265.46 367.04,-268.38 360.9,-259.74 356.86,-265.46"/>
</g>
<!-- Node7&#45;&gt;Node3 -->
<g id="edge9" class="edge">
<title>Node7&#45;&gt;Node3</title>
<path fill="none" stroke="midnightblue" d="M472.03,-265.94C425.99,-254.35 372.4,-239.64 364,-232 343.22,-213.09 318.93,-130.8 309.76,-97.53"/>
<polygon fill="midnightblue" stroke="midnightblue" points="471.47,-269.4 482.02,-268.43 473.16,-262.61 471.47,-269.4"/>
</g>
<!-- Node8 -->
<g id="node8" class="node">
<title>Node8</title>
<g id="a_node8"><a xlink:href="translation_8hpp.html" target="_top" xlink:title="Provides functions for translating a triplet of nucleotides into an amino acid.">
<polygon fill="white" stroke="black" points="410.5,-134.5 410.5,-164.5 541.5,-164.5 541.5,-134.5 410.5,-134.5"/>
<text text-anchor="start" x="418.5" y="-152.5" font-family="Helvetica,sans-Serif" font-size="10.00">bio/alphabet/aminoacid</text>
<text text-anchor="middle" x="476" y="-141.5" font-family="Helvetica,sans-Serif" font-size="10.00">/translation.hpp</text>
</a>
</g>
</g>
<!-- Node7&#45;&gt;Node8 -->
<g id="edge10" class="edge">
<title>Node7&#45;&gt;Node8</title>
<path fill="none" stroke="midnightblue" d="M534.8,-258.41C530.02,-241.76 522.61,-219.38 513,-201 506.15,-187.9 496.14,-174.47 488.25,-164.75"/>
<polygon fill="midnightblue" stroke="midnightblue" points="531.53,-259.71 537.55,-268.42 538.28,-257.85 531.53,-259.71"/>
</g>
<!-- Node9 -->
<g id="node9" class="node">
<title>Node9</title>
<g id="a_node9"><a xlink:href="translate_8hpp.html" target="_top" xlink:title="Provides bio::views::translate and bio::views::translate_single.">
<polygon fill="white" stroke="black" points="439.5,-73 439.5,-92 606.5,-92 606.5,-73 439.5,-73"/>
<text text-anchor="middle" x="523" y="-80" font-family="Helvetica,sans-Serif" font-size="10.00">bio/ranges/views/translate.hpp</text>
</a>
</g>
</g>
<!-- Node7&#45;&gt;Node9 -->
<g id="edge18" class="edge">
<title>Node7&#45;&gt;Node9</title>
<path fill="none" stroke="midnightblue" d="M547.24,-258.41C553.89,-228.67 562.07,-176.78 551,-134 546.88,-118.08 536.55,-101.83 529.65,-92.21"/>
<polygon fill="midnightblue" stroke="midnightblue" points="543.79,-257.77 544.89,-268.3 550.6,-259.38 543.79,-257.77"/>
</g>
<!-- Node12 -->
<g id="node12" class="node">
<title>Node12</title>
<g id="a_node12"><a xlink:href="translation__details_8hpp.html" target="_top" xlink:title="Provides translation details for nucleotide to aminoacid translation.">
<polygon fill="white" stroke="black" points="372.5,-201.5 372.5,-231.5 503.5,-231.5 503.5,-201.5 372.5,-201.5"/>
<text text-anchor="start" x="380.5" y="-219.5" font-family="Helvetica,sans-Serif" font-size="10.00">bio/alphabet/aminoacid</text>
<text text-anchor="middle" x="438" y="-208.5" font-family="Helvetica,sans-Serif" font-size="10.00">/translation_details.hpp</text>
</a>
</g>
</g>
<!-- Node7&#45;&gt;Node12 -->
<g id="edge15" class="edge">
<title>Node7&#45;&gt;Node12</title>
<path fill="none" stroke="midnightblue" d="M510.12,-263.02C494.1,-252.9 474.87,-240.77 460.31,-231.58"/>
<polygon fill="midnightblue" stroke="midnightblue" points="508.33,-266.02 518.65,-268.4 512.06,-260.1 508.33,-266.02"/>
</g>
<!-- Node8&#45;&gt;Node3 -->
<g id="edge11" class="edge">
<title>Node8&#45;&gt;Node3</title>
<path fill="none" stroke="midnightblue" d="M429.76,-130.82C402.43,-120.37 368.31,-107.32 342.82,-97.58"/>
<polygon fill="midnightblue" stroke="midnightblue" points="428.52,-134.09 439.11,-134.4 431.02,-127.56 428.52,-134.09"/>
</g>
<!-- Node8&#45;&gt;Node9 -->
<g id="edge12" class="edge">
<title>Node8&#45;&gt;Node9</title>
<path fill="none" stroke="midnightblue" d="M492.29,-125.97C500.71,-114.33 510.49,-100.8 516.71,-92.19"/>
<polygon fill="midnightblue" stroke="midnightblue" points="489.22,-124.24 486.2,-134.4 494.89,-128.34 489.22,-124.24"/>
</g>
<!-- Node10 -->
<g id="node10" class="node">
<title>Node10</title>
<g id="a_node10"><a xlink:href="ranges_2views_2all_8hpp.html" target="_top" xlink:title="Meta&#45;header for the views submodule .">
<polygon fill="white" stroke="black" points="556.5,-6 556.5,-25 691.5,-25 691.5,-6 556.5,-6"/>
<text text-anchor="middle" x="624" y="-13" font-family="Helvetica,sans-Serif" font-size="10.00">bio/ranges/views/all.hpp</text>
</a>
</g>
</g>
<!-- Node9&#45;&gt;Node10 -->
<g id="edge13" class="edge">
<title>Node9&#45;&gt;Node10</title>
<path fill="none" stroke="midnightblue" d="M545.11,-67.27C565.11,-54.4 593.89,-35.88 610.59,-25.13"/>
<polygon fill="midnightblue" stroke="midnightblue" points="543.14,-64.38 536.62,-72.73 546.92,-70.27 543.14,-64.38"/>
</g>
<!-- Node11 -->
<g id="node11" class="node">
<title>Node11</title>
<g id="a_node11"><a xlink:href="translate__join_8hpp.html" target="_top" xlink:title="Provides bio::views::translate_join.">
<polygon fill="white" stroke="black" points="392,-0.5 392,-30.5 538,-30.5 538,-0.5 392,-0.5"/>
<text text-anchor="start" x="400" y="-18.5" font-family="Helvetica,sans-Serif" font-size="10.00">bio/ranges/views/translate</text>
<text text-anchor="middle" x="465" y="-7.5" font-family="Helvetica,sans-Serif" font-size="10.00">_join.hpp</text>
</a>
</g>
</g>
<!-- Node9&#45;&gt;Node11 -->
<g id="edge14" class="edge">
<title>Node9&#45;&gt;Node11</title>
<path fill="none" stroke="midnightblue" d="M508.27,-64.99C498.79,-54.36 486.6,-40.7 477.57,-30.59"/>
<polygon fill="midnightblue" stroke="midnightblue" points="505.91,-67.6 515.18,-72.73 511.13,-62.94 505.91,-67.6"/>
</g>
<!-- Node12&#45;&gt;Node3 -->
<g id="edge16" class="edge">
<title>Node12&#45;&gt;Node3</title>
<path fill="none" stroke="midnightblue" d="M416.92,-193.75C400.87,-177.25 378.17,-154.07 358,-134 345.51,-121.58 331.13,-107.64 320.66,-97.56"/>
<polygon fill="midnightblue" stroke="midnightblue" points="414.75,-196.53 424.23,-201.26 419.77,-191.65 414.75,-196.53"/>
</g>
<!-- Node12&#45;&gt;Node8 -->
<g id="edge17" class="edge">
<title>Node12&#45;&gt;Node8</title>
<path fill="none" stroke="midnightblue" d="M451.4,-192.58C456.86,-183.24 462.99,-172.75 467.77,-164.58"/>
<polygon fill="midnightblue" stroke="midnightblue" points="448.27,-191 446.25,-201.4 454.31,-194.53 448.27,-191"/>
</g>
<!-- Node13&#45;&gt;Node2 -->
<g id="edge21" class="edge">
<title>Node13&#45;&gt;Node2</title>
<path fill="none" stroke="midnightblue" d="M244.04,-332.31C211.04,-321.79 169.34,-308.51 138.29,-298.61"/>
<polygon fill="midnightblue" stroke="midnightblue" points="243.4,-335.77 253.99,-335.48 245.52,-329.11 243.4,-335.77"/>
</g>
<!-- Node13&#45;&gt;Node5 -->
<g id="edge22" class="edge">
<title>Node13&#45;&gt;Node5</title>
<path fill="none" stroke="midnightblue" d="M279.58,-327.74C271.45,-318.12 262.11,-307.09 254.91,-298.58"/>
<polygon fill="midnightblue" stroke="midnightblue" points="276.93,-330.02 286.07,-335.4 282.28,-325.5 276.93,-330.02"/>
</g>
<!-- Node13&#45;&gt;Node6 -->
<g id="edge23" class="edge">
<title>Node13&#45;&gt;Node6</title>
<path fill="none" stroke="midnightblue" d="M326.99,-329.45C341.45,-319.45 358.59,-307.6 371.64,-298.58"/>
<polygon fill="midnightblue" stroke="midnightblue" points="324.63,-326.83 318.4,-335.4 328.61,-332.59 324.63,-326.83"/>
</g>
<!-- Node13&#45;&gt;Node7 -->
<g id="edge24" class="edge">
<title>Node13&#45;&gt;Node7</title>
<path fill="none" stroke="midnightblue" d="M360.25,-332.85C399.86,-322.25 450.61,-308.68 488.25,-298.61"/>
<polygon fill="midnightblue" stroke="midnightblue" points="359.18,-329.51 350.43,-335.48 360.99,-336.27 359.18,-329.51"/>
</g>
</g>
</svg>
        <g id="navigator" transform="translate(0 0)" fill="#404254">
                <rect fill="#f2f5e9" fill-opacity="0.5" stroke="#606060" stroke-width=".5" x="0" y="0" width="60" height="60"/>
                <use id="zoomplus" xlink:href="#zoomPlus" x="17" y="9" onmousedown="handleZoom(evt,'in')"/>
                <use id="zoomminus" xlink:href="#zoomMin" x="42" y="9" onmousedown="handleZoom(evt,'out')"/>
                <use id="reset" xlink:href="#resetDef" x="30" y="36" onmousedown="handleReset()"/>
                <g id="arrowUp" xlink:href="#dirArrow" transform="translate(30 24)" onmousedown="handlePan(0,-1)">
                  <use xlink:href="#rim" fill="#404040">
                        <set attributeName="fill" to="#808080" begin="arrowUp.mouseover" end="arrowUp.mouseout"/>
                  </use>
                  <path fill="none" stroke="white" stroke-width="1.5" d="M0,-3.0v7 M-2.5,-0.5L0,-3.0L2.5,-0.5"/>
                </g>
                <g id="arrowRight" xlink:href="#dirArrow" transform="rotate(90) translate(36 -43)" onmousedown="handlePan(1,0)">
                  <use xlink:href="#rim" fill="#404040">
                        <set attributeName="fill" to="#808080" begin="arrowRight.mouseover" end="arrowRight.mouseout"/>
                  </use>
                  <path fill="none" stroke="white" stroke-width="1.5" d="M0,-3.0v7 M-2.5,-0.5L0,-3.0L2.5,-0.5"/>
                </g>
                <g id="arrowDown" xlink:href="#dirArrow" transform="rotate(180) translate(-30 -48)" onmousedown="handlePan(0,1)">
                  <use xlink:href="#rim" fill="#404040">
                        <set attributeName="fill" to="#808080" begin="arrowDown.mouseover" end="arrowDown.mouseout"/>
                  </use>
                  <path fill="none" stroke="white" stroke-width="1.5" d="M0,-3.0v7 M-2.5,-0.5L0,-3.0L2.5,-0.5"/>
                </g>
                <g id="arrowLeft" xlink:href="#dirArrow" transform="rotate(270) translate(-36 17)" onmousedown="handlePan(-1,0)">
                  <use xlink:href="#rim" fill="#404040">
                        <set attributeName="fill" to="#808080" begin="arrowLeft.mouseover" end="arrowLeft.mouseout"/>
                  </use>
                  <path fill="none" stroke="white" stroke-width="1.5" d="M0,-3.0v7 M-2.5,-0.5L0,-3.0L2.5,-0.5"/>
                </g>
        </g>
        <svg viewBox="0 0 15 15" width="100%" height="30px" preserveAspectRatio="xMaxYMin meet">
         <g id="arrow_out" transform="scale(0.3 0.3)">
          <a xlink:href="alphabet_2aminoacid_2concept_8hpp__dep__incl_org.svg" target="_base">
           <rect id="button" ry="5" rx="5" y="6" x="6" height="38" width="38"
                fill="#f2f5e9" fill-opacity="0.5" stroke="#606060" stroke-width="1.0"/>
           <path id="arrow"
             d="M 11.500037,31.436501 C 11.940474,20.09759 22.043105,11.32322 32.158766,21.979434 L 37.068811,17.246167 C 37.068811,17.246167 37.088388,32 37.088388,32 L 22.160133,31.978069 C 22.160133,31.978069 26.997745,27.140456 26.997745,27.140456 C 18.528582,18.264221 13.291696,25.230495 11.500037,31.436501 z"
             style="fill:#404040;"/>
          </a>
         </g>
        </svg>
</svg>
