<?xml version="1.0" encoding="UTF-8" standalone="no"?>
<!DOCTYPE svg PUBLIC "-//W3C//DTD SVG 1.1//EN"
 "http://www.w3.org/Graphics/SVG/1.1/DTD/svg11.dtd">
<!-- Generated by graphviz version 2.43.0 (0)
 -->
<!-- Title: bio/alphabet/composite/detail.hpp Pages: 1 -->
<!--zoomable 363 -->
<svg id="main" version="1.1" xmlns="http://www.w3.org/2000/svg" xmlns:xlink="http://www.w3.org/1999/xlink" xml:space="preserve" onload="init(evt)">
<style type="text/css"><![CDATA[
.edge:hover path { stroke: red; }
.edge:hover polygon { stroke: red; fill: red; }
]]></style>
<script type="text/javascript"><![CDATA[
var edges = document.getElementsByTagName('g');
if (edges && edges.length) {
  for (var i=0;i<edges.length;i++) {
    if (edges[i].id.substr(0,4)=='edge') {
      edges[i].setAttribute('class','edge');
    }
  }
}
]]></script>
        <defs>
                <circle id="rim" cx="0" cy="0" r="7"/>
                <circle id="rim2" cx="0" cy="0" r="3.5"/>
                <g id="zoomPlus">
                        <use xlink:href="#rim" fill="#404040">
                                <set attributeName="fill" to="#808080" begin="zoomplus.mouseover" end="zoomplus.mouseout"/>
                        </use>
                        <path d="M-4,0h8M0,-4v8" fill="none" stroke="white" stroke-width="1.5" pointer-events="none"/>
                </g>
                <g id="zoomMin">
                        <use xlink:href="#rim" fill="#404040">
                                <set attributeName="fill" to="#808080" begin="zoomminus.mouseover" end="zoomminus.mouseout"/>
                        </use>
                        <path d="M-4,0h8" fill="none" stroke="white" stroke-width="1.5" pointer-events="none"/>
                </g>
                <g id="dirArrow">
                        <path fill="none" stroke="white" stroke-width="1.5" d="M0,-3.0v7 M-2.5,-0.5L0,-3.0L2.5,-0.5"/>
                </g>
               <g id="resetDef">
                       <use xlink:href="#rim2" fill="#404040">
                               <set attributeName="fill" to="#808080" begin="reset.mouseover" end="reset.mouseout"/>
                       </use>
               </g>
        </defs>

<script type="text/javascript">
var viewWidth = 758;
var viewHeight = 363;
var sectionId = 'dynsection-1';
</script>
<script xlink:href="svgpan.js"/>
<svg id="graph" class="graph">
<g id="viewport">
<title>bio/alphabet/composite/detail.hpp</title>
<polygon fill="white" stroke="transparent" points="-4,4 -4,-359 754,-359 754,4 -4,4"/>
<!-- Node1 -->
<g id="node1" class="node">
<title>Node1</title>
<g id="a_node1"><a xlink:title=" ">
<polygon fill="#bfbfbf" stroke="black" points="373.5,-324.5 373.5,-354.5 504.5,-354.5 504.5,-324.5 373.5,-324.5"/>
<text text-anchor="start" x="381.5" y="-342.5" font-family="Helvetica,sans-Serif" font-size="10.00">bio/alphabet/composite</text>
<text text-anchor="middle" x="439" y="-331.5" font-family="Helvetica,sans-Serif" font-size="10.00">/detail.hpp</text>
</a>
</g>
</g>
<!-- Node2 -->
<g id="node2" class="node">
<title>Node2</title>
<g id="a_node2"><a xlink:href="alphabet__tuple__base_8hpp.html" target="_top" xlink:title="Provides bio::alphabet::alphabet_tuple_base.">
<polygon fill="white" stroke="black" points="291,-257.5 291,-287.5 433,-287.5 433,-257.5 291,-257.5"/>
<text text-anchor="start" x="299" y="-275.5" font-family="Helvetica,sans-Serif" font-size="10.00">bio/alphabet/composite</text>
<text text-anchor="middle" x="362" y="-264.5" font-family="Helvetica,sans-Serif" font-size="10.00">/alphabet_tuple_base.hpp</text>
</a>
</g>
</g>
<!-- Node1&#45;&gt;Node2 -->
<g id="edge1" class="edge">
<title>Node1&#45;&gt;Node2</title>
<path fill="none" stroke="midnightblue" d="M414.58,-317.88C402.88,-308.01 389.16,-296.43 378.68,-287.58"/>
<polygon fill="midnightblue" stroke="midnightblue" points="412.39,-320.62 422.29,-324.4 416.91,-315.27 412.39,-320.62"/>
</g>
<!-- Node13 -->
<g id="node13" class="node">
<title>Node13</title>
<g id="a_node13"><a xlink:href="alphabet__variant_8hpp.html" target="_top" xlink:title="Provides bio::alphabet::alphabet_variant.">
<polygon fill="white" stroke="black" points="451.5,-257.5 451.5,-287.5 582.5,-287.5 582.5,-257.5 451.5,-257.5"/>
<text text-anchor="start" x="459.5" y="-275.5" font-family="Helvetica,sans-Serif" font-size="10.00">bio/alphabet/composite</text>
<text text-anchor="middle" x="517" y="-264.5" font-family="Helvetica,sans-Serif" font-size="10.00">/alphabet_variant.hpp</text>
</a>
</g>
</g>
<!-- Node1&#45;&gt;Node13 -->
<g id="edge15" class="edge">
<title>Node1&#45;&gt;Node13</title>
<path fill="none" stroke="midnightblue" d="M463.74,-317.88C475.59,-308.01 489.48,-296.43 500.11,-287.58"/>
<polygon fill="midnightblue" stroke="midnightblue" points="461.37,-315.31 455.92,-324.4 465.85,-320.68 461.37,-315.31"/>
</g>
<!-- Node3 -->
<g id="node3" class="node">
<title>Node3</title>
<g id="a_node3"><a xlink:href="cigar_8hpp.html" target="_top" xlink:title="Provides the bio::alphabet::cigar alphabet.">
<polygon fill="white" stroke="black" points="320,-190.5 320,-220.5 424,-220.5 424,-190.5 320,-190.5"/>
<text text-anchor="start" x="328" y="-208.5" font-family="Helvetica,sans-Serif" font-size="10.00">bio/alphabet/cigar</text>
<text text-anchor="middle" x="372" y="-197.5" font-family="Helvetica,sans-Serif" font-size="10.00">/cigar.hpp</text>
</a>
</g>
</g>
<!-- Node2&#45;&gt;Node3 -->
<g id="edge2" class="edge">
<title>Node2&#45;&gt;Node3</title>
<path fill="none" stroke="midnightblue" d="M365.71,-247.4C367.1,-238.37 368.63,-228.41 369.83,-220.58"/>
<polygon fill="midnightblue" stroke="midnightblue" points="362.23,-246.98 364.17,-257.4 369.15,-248.04 362.23,-246.98"/>
</g>
<!-- Node4 -->
<g id="node4" class="node">
<title>Node4</title>
<g id="a_node4"><a xlink:href="alphabet_2composite_2all_8hpp.html" target="_top" xlink:title="Meta&#45;header for the composite submodule; includes all headers from alphabet/composite/.">
<polygon fill="white" stroke="black" points="442.5,-190.5 442.5,-220.5 573.5,-220.5 573.5,-190.5 442.5,-190.5"/>
<text text-anchor="start" x="450.5" y="-208.5" font-family="Helvetica,sans-Serif" font-size="10.00">bio/alphabet/composite</text>
<text text-anchor="middle" x="508" y="-197.5" font-family="Helvetica,sans-Serif" font-size="10.00">/all.hpp</text>
</a>
</g>
</g>
<!-- Node2&#45;&gt;Node4 -->
<g id="edge3" class="edge">
<title>Node2&#45;&gt;Node4</title>
<path fill="none" stroke="midnightblue" d="M402.95,-253.27C426.2,-242.92 454.87,-230.15 476.38,-220.58"/>
<polygon fill="midnightblue" stroke="midnightblue" points="401.39,-250.13 393.68,-257.4 404.24,-256.53 401.39,-250.13"/>
</g>
<!-- Node6 -->
<g id="node6" class="node">
<title>Node6</title>
<g id="a_node6"><a xlink:href="masked_8hpp.html" target="_top" xlink:title="Extends a given alphabet with the mask alphabet.">
<polygon fill="white" stroke="black" points="0,-196 0,-215 170,-215 170,-196 0,-196"/>
<text text-anchor="middle" x="85" y="-203" font-family="Helvetica,sans-Serif" font-size="10.00">bio/alphabet/mask/masked.hpp</text>
</a>
</g>
</g>
<!-- Node2&#45;&gt;Node6 -->
<g id="edge5" class="edge">
<title>Node2&#45;&gt;Node6</title>
<path fill="none" stroke="midnightblue" d="M292.32,-255.15C237.96,-242.39 164.65,-225.19 121.35,-215.03"/>
<polygon fill="midnightblue" stroke="midnightblue" points="291.7,-258.6 302.24,-257.48 293.3,-251.78 291.7,-258.6"/>
</g>
<!-- Node8 -->
<g id="node8" class="node">
<title>Node8</title>
<g id="a_node8"><a xlink:href="qualified_8hpp.html" target="_top" xlink:title="Provides quality alphabet composites.">
<polygon fill="white" stroke="black" points="188,-190.5 188,-220.5 302,-220.5 302,-190.5 188,-190.5"/>
<text text-anchor="start" x="196" y="-208.5" font-family="Helvetica,sans-Serif" font-size="10.00">bio/alphabet/quality</text>
<text text-anchor="middle" x="245" y="-197.5" font-family="Helvetica,sans-Serif" font-size="10.00">/qualified.hpp</text>
</a>
</g>
</g>
<!-- Node2&#45;&gt;Node8 -->
<g id="edge8" class="edge">
<title>Node2&#45;&gt;Node8</title>
<path fill="none" stroke="midnightblue" d="M327.68,-252.44C309.33,-242.24 287.12,-229.9 270.34,-220.58"/>
<polygon fill="midnightblue" stroke="midnightblue" points="326.17,-255.6 336.61,-257.4 329.57,-249.48 326.17,-255.6"/>
</g>
<!-- Node5 -->
<g id="node5" class="node">
<title>Node5</title>
<g id="a_node5"><a xlink:href="alphabet_2all_8hpp.html" target="_top" xlink:title="Meta&#45;header for the alphabet module.">
<polygon fill="white" stroke="black" points="408.5,-0.5 408.5,-19.5 521.5,-19.5 521.5,-0.5 408.5,-0.5"/>
<text text-anchor="middle" x="465" y="-7.5" font-family="Helvetica,sans-Serif" font-size="10.00">bio/alphabet/all.hpp</text>
</a>
</g>
</g>
<!-- Node4&#45;&gt;Node5 -->
<g id="edge4" class="edge">
<title>Node4&#45;&gt;Node5</title>
<path fill="none" stroke="midnightblue" d="M507.56,-179.87C506.41,-149.92 502.44,-98.16 489,-56 484.7,-42.5 476.4,-28.3 470.78,-19.54"/>
<polygon fill="midnightblue" stroke="midnightblue" points="504.07,-180.32 507.87,-190.21 511.07,-180.11 504.07,-180.32"/>
</g>
<!-- Node7 -->
<g id="node7" class="node">
<title>Node7</title>
<g id="a_node7"><a xlink:href="alphabet_2mask_2all_8hpp.html" target="_top" xlink:title="Meta&#45;header for the mask submodule; includes all headers from alphabet/mask/.">
<polygon fill="white" stroke="black" points="13.5,-62 13.5,-81 156.5,-81 156.5,-62 13.5,-62"/>
<text text-anchor="middle" x="85" y="-69" font-family="Helvetica,sans-Serif" font-size="10.00">bio/alphabet/mask/all.hpp</text>
</a>
</g>
</g>
<!-- Node6&#45;&gt;Node7 -->
<g id="edge6" class="edge">
<title>Node6&#45;&gt;Node7</title>
<path fill="none" stroke="midnightblue" d="M85,-185.78C85,-156.75 85,-102.04 85,-81.02"/>
<polygon fill="midnightblue" stroke="midnightblue" points="81.5,-185.84 85,-195.84 88.5,-185.84 81.5,-185.84"/>
</g>
<!-- Node7&#45;&gt;Node5 -->
<g id="edge7" class="edge">
<title>Node7&#45;&gt;Node5</title>
<path fill="none" stroke="midnightblue" d="M140.53,-60.21C148.73,-58.76 157.08,-57.31 165,-56 249.56,-42 347.86,-27.61 408.24,-18.99"/>
<polygon fill="midnightblue" stroke="midnightblue" points="139.88,-56.77 130.65,-61.98 141.11,-63.66 139.88,-56.77"/>
</g>
<!-- Node9 -->
<g id="node9" class="node">
<title>Node9</title>
<g id="a_node9"><a xlink:href="aliases_8hpp.html" target="_top" xlink:title="Provides aliases for qualified.">
<polygon fill="white" stroke="black" points="301,-123.5 301,-153.5 415,-153.5 415,-123.5 301,-123.5"/>
<text text-anchor="start" x="309" y="-141.5" font-family="Helvetica,sans-Serif" font-size="10.00">bio/alphabet/quality</text>
<text text-anchor="middle" x="358" y="-130.5" font-family="Helvetica,sans-Serif" font-size="10.00">/aliases.hpp</text>
</a>
</g>
</g>
<!-- Node8&#45;&gt;Node9 -->
<g id="edge9" class="edge">
<title>Node8&#45;&gt;Node9</title>
<path fill="none" stroke="midnightblue" d="M278.39,-185.3C296.07,-175.12 317.4,-162.85 333.53,-153.58"/>
<polygon fill="midnightblue" stroke="midnightblue" points="276.44,-182.38 269.52,-190.4 279.93,-188.44 276.44,-182.38"/>
</g>
<!-- Node10 -->
<g id="node10" class="node">
<title>Node10</title>
<g id="a_node10"><a xlink:href="alphabet_2quality_2all_8hpp.html" target="_top" xlink:title="Meta&#45;header that includes all headers from alphabet/quality/.">
<polygon fill="white" stroke="black" points="366,-56.5 366,-86.5 480,-86.5 480,-56.5 366,-56.5"/>
<text text-anchor="start" x="374" y="-74.5" font-family="Helvetica,sans-Serif" font-size="10.00">bio/alphabet/quality</text>
<text text-anchor="middle" x="423" y="-63.5" font-family="Helvetica,sans-Serif" font-size="10.00">/all.hpp</text>
</a>
</g>
</g>
<!-- Node8&#45;&gt;Node10 -->
<g id="edge12" class="edge">
<title>Node8&#45;&gt;Node10</title>
<path fill="none" stroke="midnightblue" d="M312.16,-189.66C359.95,-178.43 416.9,-163.37 424,-154 438.69,-134.59 433.19,-104.47 428,-86.8"/>
<polygon fill="midnightblue" stroke="midnightblue" points="311.07,-186.32 302.12,-192 312.66,-193.14 311.07,-186.32"/>
</g>
<!-- Node11 -->
<g id="node11" class="node">
<title>Node11</title>
<g id="a_node11"><a xlink:href="trim__quality_8hpp.html" target="_top" xlink:title="Provides bio::views::trim_quality.">
<polygon fill="white" stroke="black" points="161,-123.5 161,-153.5 283,-153.5 283,-123.5 161,-123.5"/>
<text text-anchor="start" x="169" y="-141.5" font-family="Helvetica,sans-Serif" font-size="10.00">bio/ranges/views/trim</text>
<text text-anchor="middle" x="222" y="-130.5" font-family="Helvetica,sans-Serif" font-size="10.00">_quality.hpp</text>
</a>
</g>
</g>
<!-- Node8&#45;&gt;Node11 -->
<g id="edge13" class="edge">
<title>Node8&#45;&gt;Node11</title>
<path fill="none" stroke="midnightblue" d="M236.58,-180.7C233.35,-171.59 229.78,-161.49 226.98,-153.58"/>
<polygon fill="midnightblue" stroke="midnightblue" points="233.37,-182.14 240.01,-190.4 239.97,-179.8 233.37,-182.14"/>
</g>
<!-- Node9&#45;&gt;Node10 -->
<g id="edge10" class="edge">
<title>Node9&#45;&gt;Node10</title>
<path fill="none" stroke="midnightblue" d="M379.19,-116.31C388.94,-106.56 400.24,-95.26 408.92,-86.58"/>
<polygon fill="midnightblue" stroke="midnightblue" points="376.7,-113.85 372.1,-123.4 381.65,-118.8 376.7,-113.85"/>
</g>
<!-- Node10&#45;&gt;Node5 -->
<g id="edge11" class="edge">
<title>Node10&#45;&gt;Node5</title>
<path fill="none" stroke="midnightblue" d="M438.81,-48.1C445.81,-38.19 453.63,-27.11 458.89,-19.66"/>
<polygon fill="midnightblue" stroke="midnightblue" points="435.86,-46.21 432.95,-56.4 441.58,-50.25 435.86,-46.21"/>
</g>
<!-- Node12 -->
<g id="node12" class="node">
<title>Node12</title>
<g id="a_node12"><a xlink:href="ranges_2views_2all_8hpp.html" target="_top" xlink:title="Meta&#45;header for the views submodule .">
<polygon fill="white" stroke="black" points="174.5,-62 174.5,-81 309.5,-81 309.5,-62 174.5,-62"/>
<text text-anchor="middle" x="242" y="-69" font-family="Helvetica,sans-Serif" font-size="10.00">bio/ranges/views/all.hpp</text>
</a>
</g>
</g>
<!-- Node11&#45;&gt;Node12 -->
<g id="edge14" class="edge">
<title>Node11&#45;&gt;Node12</title>
<path fill="none" stroke="midnightblue" d="M229.35,-113.6C232.84,-102.28 236.78,-89.46 239.32,-81.19"/>
<polygon fill="midnightblue" stroke="midnightblue" points="225.94,-112.81 226.34,-123.4 232.63,-114.87 225.94,-112.81"/>
</g>
<!-- Node13&#45;&gt;Node4 -->
<g id="edge16" class="edge">
<title>Node13&#45;&gt;Node4</title>
<path fill="none" stroke="midnightblue" d="M513.66,-247.4C512.41,-238.37 511.03,-228.41 509.95,-220.58"/>
<polygon fill="midnightblue" stroke="midnightblue" points="510.21,-247.97 515.05,-257.4 517.14,-247.01 510.21,-247.97"/>
</g>
<!-- Node14 -->
<g id="node14" class="node">
<title>Node14</title>
<g id="a_node14"><a xlink:href="gapped_8hpp.html" target="_top" xlink:title="Provides bio::alphabet::gapped.">
<polygon fill="white" stroke="black" points="592,-196 592,-215 750,-215 750,-196 592,-196"/>
<text text-anchor="middle" x="671" y="-203" font-family="Helvetica,sans-Serif" font-size="10.00">bio/alphabet/gap/gapped.hpp</text>
</a>
</g>
</g>
<!-- Node13&#45;&gt;Node14 -->
<g id="edge17" class="edge">
<title>Node13&#45;&gt;Node14</title>
<path fill="none" stroke="midnightblue" d="M559.74,-253.46C589.5,-240.9 627.82,-224.72 650.84,-215.01"/>
<polygon fill="midnightblue" stroke="midnightblue" points="558.27,-250.28 550.42,-257.4 560.99,-256.73 558.27,-250.28"/>
</g>
<!-- Node15 -->
<g id="node15" class="node">
<title>Node15</title>
<g id="a_node15"><a xlink:href="alphabet_2gap_2all_8hpp.html" target="_top" xlink:title="Meta&#45;header for the gap submodule; includes all headers from alphabet/gap/.">
<polygon fill="white" stroke="black" points="570,-129 570,-148 704,-148 704,-129 570,-129"/>
<text text-anchor="middle" x="637" y="-136" font-family="Helvetica,sans-Serif" font-size="10.00">bio/alphabet/gap/all.hpp</text>
</a>
</g>
</g>
<!-- Node14&#45;&gt;Node15 -->
<g id="edge18" class="edge">
<title>Node14&#45;&gt;Node15</title>
<path fill="none" stroke="midnightblue" d="M661.67,-186.66C655.11,-174.13 646.63,-157.91 641.51,-148.13"/>
<polygon fill="midnightblue" stroke="midnightblue" points="658.68,-188.5 666.41,-195.73 664.88,-185.25 658.68,-188.5"/>
</g>
<!-- Node15&#45;&gt;Node5 -->
<g id="edge19" class="edge">
<title>Node15&#45;&gt;Node5</title>
<path fill="none" stroke="midnightblue" d="M616.88,-122.7C580.75,-96.13 505.96,-41.12 476.9,-19.76"/>
<polygon fill="midnightblue" stroke="midnightblue" points="615.05,-125.7 625.18,-128.81 619.2,-120.06 615.05,-125.7"/>
</g>
</g>
</svg>
        <g id="navigator" transform="translate(0 0)" fill="#404254">
                <rect fill="#f2f5e9" fill-opacity="0.5" stroke="#606060" stroke-width=".5" x="0" y="0" width="60" height="60"/>
                <use id="zoomplus" xlink:href="#zoomPlus" x="17" y="9" onmousedown="handleZoom(evt,'in')"/>
                <use id="zoomminus" xlink:href="#zoomMin" x="42" y="9" onmousedown="handleZoom(evt,'out')"/>
                <use id="reset" xlink:href="#resetDef" x="30" y="36" onmousedown="handleReset()"/>
                <g id="arrowUp" xlink:href="#dirArrow" transform="translate(30 24)" onmousedown="handlePan(0,-1)">
                  <use xlink:href="#rim" fill="#404040">
                        <set attributeName="fill" to="#808080" begin="arrowUp.mouseover" end="arrowUp.mouseout"/>
                  </use>
                  <path fill="none" stroke="white" stroke-width="1.5" d="M0,-3.0v7 M-2.5,-0.5L0,-3.0L2.5,-0.5"/>
                </g>
                <g id="arrowRight" xlink:href="#dirArrow" transform="rotate(90) translate(36 -43)" onmousedown="handlePan(1,0)">
                  <use xlink:href="#rim" fill="#404040">
                        <set attributeName="fill" to="#808080" begin="arrowRight.mouseover" end="arrowRight.mouseout"/>
                  </use>
                  <path fill="none" stroke="white" stroke-width="1.5" d="M0,-3.0v7 M-2.5,-0.5L0,-3.0L2.5,-0.5"/>
                </g>
                <g id="arrowDown" xlink:href="#dirArrow" transform="rotate(180) translate(-30 -48)" onmousedown="handlePan(0,1)">
                  <use xlink:href="#rim" fill="#404040">
                        <set attributeName="fill" to="#808080" begin="arrowDown.mouseover" end="arrowDown.mouseout"/>
                  </use>
                  <path fill="none" stroke="white" stroke-width="1.5" d="M0,-3.0v7 M-2.5,-0.5L0,-3.0L2.5,-0.5"/>
                </g>
                <g id="arrowLeft" xlink:href="#dirArrow" transform="rotate(270) translate(-36 17)" onmousedown="handlePan(-1,0)">
                  <use xlink:href="#rim" fill="#404040">
                        <set attributeName="fill" to="#808080" begin="arrowLeft.mouseover" end="arrowLeft.mouseout"/>
                  </use>
                  <path fill="none" stroke="white" stroke-width="1.5" d="M0,-3.0v7 M-2.5,-0.5L0,-3.0L2.5,-0.5"/>
                </g>
        </g>
        <svg viewBox="0 0 15 15" width="100%" height="30px" preserveAspectRatio="xMaxYMin meet">
         <g id="arrow_out" transform="scale(0.3 0.3)">
          <a xlink:href="alphabet_2composite_2detail_8hpp__dep__incl_org.svg" target="_base">
           <rect id="button" ry="5" rx="5" y="6" x="6" height="38" width="38"
                fill="#f2f5e9" fill-opacity="0.5" stroke="#606060" stroke-width="1.0"/>
           <path id="arrow"
             d="M 11.500037,31.436501 C 11.940474,20.09759 22.043105,11.32322 32.158766,21.979434 L 37.068811,17.246167 C 37.068811,17.246167 37.088388,32 37.088388,32 L 22.160133,31.978069 C 22.160133,31.978069 26.997745,27.140456 26.997745,27.140456 C 18.528582,18.264221 13.291696,25.230495 11.500037,31.436501 z"
             style="fill:#404040;"/>
          </a>
         </g>
        </svg>
</svg>
