<?xml version="1.0" encoding="UTF-8" standalone="no"?>
<!DOCTYPE svg PUBLIC "-//W3C//DTD SVG 1.1//EN"
 "http://www.w3.org/Graphics/SVG/1.1/DTD/svg11.dtd">
<!-- Generated by graphviz version 2.43.0 (0)
 -->
<!-- Title: bio/alphabet/composite/alphabet_tuple_base.hpp Pages: 1 -->
<svg width="754pt" height="296pt"
 viewBox="0.00 0.00 754.00 296.00" xmlns="http://www.w3.org/2000/svg" xmlns:xlink="http://www.w3.org/1999/xlink">
<g id="graph0" class="graph" transform="scale(1 1) rotate(0) translate(4 292)">
<title>bio/alphabet/composite/alphabet_tuple_base.hpp</title>
<polygon fill="white" stroke="transparent" points="-4,4 -4,-292 750,-292 750,4 -4,4"/>
<!-- Node1 -->
<g id="node1" class="node">
<title>Node1</title>
<g id="a_node1"><a xlink:title="Provides bio::alphabet_tuple_base.">
<polygon fill="#bfbfbf" stroke="black" points="254,-257.5 254,-287.5 396,-287.5 396,-257.5 254,-257.5"/>
<text text-anchor="start" x="262" y="-275.5" font-family="Helvetica,sans-Serif" font-size="10.00">bio/alphabet/composite</text>
<text text-anchor="middle" x="325" y="-264.5" font-family="Helvetica,sans-Serif" font-size="10.00">/alphabet_tuple_base.hpp</text>
</a>
</g>
</g>
<!-- Node2 -->
<g id="node2" class="node">
<title>Node2</title>
<g id="a_node2"><a xlink:href="cigar_8hpp.html" target="_top" xlink:title="Provides the bio::cigar alphabet.">
<polygon fill="white" stroke="black" points="0,-190.5 0,-220.5 104,-220.5 104,-190.5 0,-190.5"/>
<text text-anchor="start" x="8" y="-208.5" font-family="Helvetica,sans-Serif" font-size="10.00">bio/alphabet/cigar</text>
<text text-anchor="middle" x="52" y="-197.5" font-family="Helvetica,sans-Serif" font-size="10.00">/cigar.hpp</text>
</a>
</g>
</g>
<!-- Node1&#45;&gt;Node2 -->
<g id="edge1" class="edge">
<title>Node1&#45;&gt;Node2</title>
<path fill="none" stroke="midnightblue" d="M256.27,-255.14C209.12,-243.91 147.52,-229.24 104.34,-218.96"/>
<polygon fill="midnightblue" stroke="midnightblue" points="255.56,-258.56 266.1,-257.48 257.18,-251.75 255.56,-258.56"/>
</g>
<!-- Node3 -->
<g id="node3" class="node">
<title>Node3</title>
<g id="a_node3"><a xlink:href="alphabet_2composite_2all_8hpp.html" target="_top" xlink:title="Meta&#45;header for the composite submodule; includes all headers from alphabet/composite/.">
<polygon fill="white" stroke="black" points="28.5,-56.5 28.5,-86.5 159.5,-86.5 159.5,-56.5 28.5,-56.5"/>
<text text-anchor="start" x="36.5" y="-74.5" font-family="Helvetica,sans-Serif" font-size="10.00">bio/alphabet/composite</text>
<text text-anchor="middle" x="94" y="-63.5" font-family="Helvetica,sans-Serif" font-size="10.00">/all.hpp</text>
</a>
</g>
</g>
<!-- Node1&#45;&gt;Node3 -->
<g id="edge2" class="edge">
<title>Node1&#45;&gt;Node3</title>
<path fill="none" stroke="midnightblue" d="M243.92,-263.66C211.66,-256.85 176.29,-244.25 151,-221 110.95,-184.18 98.79,-116.09 95.31,-86.66"/>
<polygon fill="midnightblue" stroke="midnightblue" points="243.33,-267.11 253.81,-265.59 244.67,-260.24 243.33,-267.11"/>
</g>
<!-- Node5 -->
<g id="node5" class="node">
<title>Node5</title>
<g id="a_node5"><a xlink:href="masked_8hpp.html" target="_top" xlink:title="Extends a given alphabet with the mask alphabet.">
<polygon fill="white" stroke="black" points="160,-196 160,-215 330,-215 330,-196 160,-196"/>
<text text-anchor="middle" x="245" y="-203" font-family="Helvetica,sans-Serif" font-size="10.00">bio/alphabet/mask/masked.hpp</text>
</a>
</g>
</g>
<!-- Node1&#45;&gt;Node5 -->
<g id="edge4" class="edge">
<title>Node1&#45;&gt;Node5</title>
<path fill="none" stroke="midnightblue" d="M299.78,-251.01C284.93,-238.94 266.91,-224.3 255.7,-215.19"/>
<polygon fill="midnightblue" stroke="midnightblue" points="297.67,-253.81 307.64,-257.4 302.09,-248.37 297.67,-253.81"/>
</g>
<!-- Node7 -->
<g id="node7" class="node">
<title>Node7</title>
<g id="a_node7"><a xlink:href="qualified_8hpp.html" target="_top" xlink:title="Provides quality alphabet composites.">
<polygon fill="white" stroke="black" points="348,-190.5 348,-220.5 462,-220.5 462,-190.5 348,-190.5"/>
<text text-anchor="start" x="356" y="-208.5" font-family="Helvetica,sans-Serif" font-size="10.00">bio/alphabet/quality</text>
<text text-anchor="middle" x="405" y="-197.5" font-family="Helvetica,sans-Serif" font-size="10.00">/qualified.hpp</text>
</a>
</g>
</g>
<!-- Node1&#45;&gt;Node7 -->
<g id="edge7" class="edge">
<title>Node1&#45;&gt;Node7</title>
<path fill="none" stroke="midnightblue" d="M350.37,-250.88C362.53,-241.01 376.78,-229.43 387.68,-220.58"/>
<polygon fill="midnightblue" stroke="midnightblue" points="347.91,-248.37 342.36,-257.4 352.33,-253.81 347.91,-248.37"/>
</g>
<!-- Node12 -->
<g id="node12" class="node">
<title>Node12</title>
<g id="a_node12"><a xlink:href="structured__aa_8hpp.html" target="_top" xlink:title="Provides the composite of aminoacid with structure alphabets.">
<polygon fill="white" stroke="black" points="480,-190.5 480,-220.5 604,-220.5 604,-190.5 480,-190.5"/>
<text text-anchor="start" x="488" y="-208.5" font-family="Helvetica,sans-Serif" font-size="10.00">bio/alphabet/structure</text>
<text text-anchor="middle" x="542" y="-197.5" font-family="Helvetica,sans-Serif" font-size="10.00">/structured_aa.hpp</text>
</a>
</g>
</g>
<!-- Node1&#45;&gt;Node12 -->
<g id="edge14" class="edge">
<title>Node1&#45;&gt;Node12</title>
<path fill="none" stroke="midnightblue" d="M381.49,-254.58C416.73,-244.02 461.57,-230.59 494.89,-220.61"/>
<polygon fill="midnightblue" stroke="midnightblue" points="380.39,-251.25 371.82,-257.48 382.4,-257.96 380.39,-251.25"/>
</g>
<!-- Node14 -->
<g id="node14" class="node">
<title>Node14</title>
<g id="a_node14"><a xlink:href="structured__rna_8hpp.html" target="_top" xlink:title="Provides the composite of nucleotide with structure alphabets.">
<polygon fill="white" stroke="black" points="622,-190.5 622,-220.5 746,-220.5 746,-190.5 622,-190.5"/>
<text text-anchor="start" x="630" y="-208.5" font-family="Helvetica,sans-Serif" font-size="10.00">bio/alphabet/structure</text>
<text text-anchor="middle" x="684" y="-197.5" font-family="Helvetica,sans-Serif" font-size="10.00">/structured_rna.hpp</text>
</a>
</g>
</g>
<!-- Node1&#45;&gt;Node14 -->
<g id="edge17" class="edge">
<title>Node1&#45;&gt;Node14</title>
<path fill="none" stroke="midnightblue" d="M406.28,-257.87C464.03,-248.03 543.37,-234.21 613,-221 615.84,-220.46 618.75,-219.9 621.68,-219.33"/>
<polygon fill="midnightblue" stroke="midnightblue" points="405.39,-254.47 396.11,-259.6 406.56,-261.37 405.39,-254.47"/>
</g>
<!-- Node4 -->
<g id="node4" class="node">
<title>Node4</title>
<g id="a_node4"><a xlink:href="alphabet_2all_8hpp.html" target="_top" xlink:title="Meta&#45;header for the alphabet module.">
<polygon fill="white" stroke="black" points="265.5,-0.5 265.5,-19.5 378.5,-19.5 378.5,-0.5 265.5,-0.5"/>
<text text-anchor="middle" x="322" y="-7.5" font-family="Helvetica,sans-Serif" font-size="10.00">bio/alphabet/all.hpp</text>
</a>
</g>
</g>
<!-- Node3&#45;&gt;Node4 -->
<g id="edge3" class="edge">
<title>Node3&#45;&gt;Node4</title>
<path fill="none" stroke="midnightblue" d="M157.52,-53.92C200.37,-42.74 255.14,-28.45 289.4,-19.51"/>
<polygon fill="midnightblue" stroke="midnightblue" points="156.54,-50.56 147.74,-56.47 158.3,-57.34 156.54,-50.56"/>
</g>
<!-- Node6 -->
<g id="node6" class="node">
<title>Node6</title>
<g id="a_node6"><a xlink:href="alphabet_2mask_2all_8hpp.html" target="_top" xlink:title="Meta&#45;header for the mask submodule; includes all headers from alphabet/mask/.">
<polygon fill="white" stroke="black" points="177.5,-62 177.5,-81 320.5,-81 320.5,-62 177.5,-62"/>
<text text-anchor="middle" x="249" y="-69" font-family="Helvetica,sans-Serif" font-size="10.00">bio/alphabet/mask/all.hpp</text>
</a>
</g>
</g>
<!-- Node5&#45;&gt;Node6 -->
<g id="edge5" class="edge">
<title>Node5&#45;&gt;Node6</title>
<path fill="none" stroke="midnightblue" d="M245.57,-185.78C246.45,-156.75 248.1,-102.04 248.74,-81.02"/>
<polygon fill="midnightblue" stroke="midnightblue" points="242.07,-185.74 245.26,-195.84 249.06,-185.95 242.07,-185.74"/>
</g>
<!-- Node6&#45;&gt;Node4 -->
<g id="edge6" class="edge">
<title>Node6&#45;&gt;Node4</title>
<path fill="none" stroke="midnightblue" d="M267.44,-55.47C281.4,-44.09 300.08,-28.87 311.56,-19.51"/>
<polygon fill="midnightblue" stroke="midnightblue" points="265,-52.94 259.46,-61.98 269.42,-58.37 265,-52.94"/>
</g>
<!-- Node8 -->
<g id="node8" class="node">
<title>Node8</title>
<g id="a_node8"><a xlink:href="aliases_8hpp.html" target="_top" xlink:title="Provides aliases for qualified.">
<polygon fill="white" stroke="black" points="273,-123.5 273,-153.5 387,-153.5 387,-123.5 273,-123.5"/>
<text text-anchor="start" x="281" y="-141.5" font-family="Helvetica,sans-Serif" font-size="10.00">bio/alphabet/quality</text>
<text text-anchor="middle" x="330" y="-130.5" font-family="Helvetica,sans-Serif" font-size="10.00">/aliases.hpp</text>
</a>
</g>
</g>
<!-- Node7&#45;&gt;Node8 -->
<g id="edge8" class="edge">
<title>Node7&#45;&gt;Node8</title>
<path fill="none" stroke="midnightblue" d="M380.88,-183.6C369.56,-173.78 356.36,-162.34 346.24,-153.58"/>
<polygon fill="midnightblue" stroke="midnightblue" points="378.88,-186.49 388.73,-190.4 383.46,-181.2 378.88,-186.49"/>
</g>
<!-- Node9 -->
<g id="node9" class="node">
<title>Node9</title>
<g id="a_node9"><a xlink:href="alphabet_2quality_2all_8hpp.html" target="_top" xlink:title="Meta&#45;header that includes all headers from alphabet/quality/.">
<polygon fill="white" stroke="black" points="339,-56.5 339,-86.5 453,-86.5 453,-56.5 339,-56.5"/>
<text text-anchor="start" x="347" y="-74.5" font-family="Helvetica,sans-Serif" font-size="10.00">bio/alphabet/quality</text>
<text text-anchor="middle" x="396" y="-63.5" font-family="Helvetica,sans-Serif" font-size="10.00">/all.hpp</text>
</a>
</g>
</g>
<!-- Node7&#45;&gt;Node9 -->
<g id="edge11" class="edge">
<title>Node7&#45;&gt;Node9</title>
<path fill="none" stroke="midnightblue" d="M403.36,-180.39C401.48,-152.9 398.48,-108.89 396.96,-86.52"/>
<polygon fill="midnightblue" stroke="midnightblue" points="399.86,-180.63 404.04,-190.37 406.85,-180.16 399.86,-180.63"/>
</g>
<!-- Node10 -->
<g id="node10" class="node">
<title>Node10</title>
<g id="a_node10"><a xlink:href="trim__quality_8hpp.html" target="_top" xlink:title="Provides bio::views::trim_quality.">
<polygon fill="white" stroke="black" points="443,-123.5 443,-153.5 565,-153.5 565,-123.5 443,-123.5"/>
<text text-anchor="start" x="451" y="-141.5" font-family="Helvetica,sans-Serif" font-size="10.00">bio/ranges/views/trim</text>
<text text-anchor="middle" x="504" y="-130.5" font-family="Helvetica,sans-Serif" font-size="10.00">_quality.hpp</text>
</a>
</g>
</g>
<!-- Node7&#45;&gt;Node10 -->
<g id="edge12" class="edge">
<title>Node7&#45;&gt;Node10</title>
<path fill="none" stroke="midnightblue" d="M435.11,-184.73C450.42,-174.68 468.69,-162.68 482.56,-153.58"/>
<polygon fill="midnightblue" stroke="midnightblue" points="432.92,-181.98 426.48,-190.4 436.76,-187.83 432.92,-181.98"/>
</g>
<!-- Node8&#45;&gt;Node9 -->
<g id="edge9" class="edge">
<title>Node8&#45;&gt;Node9</title>
<path fill="none" stroke="midnightblue" d="M351.51,-116.31C361.41,-106.56 372.89,-95.26 381.71,-86.58"/>
<polygon fill="midnightblue" stroke="midnightblue" points="348.99,-113.89 344.32,-123.4 353.9,-118.87 348.99,-113.89"/>
</g>
<!-- Node9&#45;&gt;Node4 -->
<g id="edge10" class="edge">
<title>Node9&#45;&gt;Node4</title>
<path fill="none" stroke="midnightblue" d="M370.37,-49.89C357.5,-39.54 342.59,-27.56 332.77,-19.66"/>
<polygon fill="midnightblue" stroke="midnightblue" points="368.48,-52.86 378.46,-56.4 372.86,-47.41 368.48,-52.86"/>
</g>
<!-- Node11 -->
<g id="node11" class="node">
<title>Node11</title>
<g id="a_node11"><a xlink:href="ranges_2views_2all_8hpp.html" target="_top" xlink:title="Meta&#45;header for the views submodule .">
<polygon fill="white" stroke="black" points="471.5,-62 471.5,-81 606.5,-81 606.5,-62 471.5,-62"/>
<text text-anchor="middle" x="539" y="-69" font-family="Helvetica,sans-Serif" font-size="10.00">bio/ranges/views/all.hpp</text>
</a>
</g>
</g>
<!-- Node10&#45;&gt;Node11 -->
<g id="edge13" class="edge">
<title>Node10&#45;&gt;Node11</title>
<path fill="none" stroke="midnightblue" d="M516.5,-114.29C522.68,-102.8 529.78,-89.63 534.32,-81.19"/>
<polygon fill="midnightblue" stroke="midnightblue" points="513.25,-112.93 511.59,-123.4 519.42,-116.25 513.25,-112.93"/>
</g>
<!-- Node13 -->
<g id="node13" class="node">
<title>Node13</title>
<g id="a_node13"><a xlink:href="alphabet_2structure_2all_8hpp.html" target="_top" xlink:title="Meta&#45;header for the structure module. It includes all headers from alphabet/structure/.">
<polygon fill="white" stroke="black" points="583,-123.5 583,-153.5 707,-153.5 707,-123.5 583,-123.5"/>
<text text-anchor="start" x="591" y="-141.5" font-family="Helvetica,sans-Serif" font-size="10.00">bio/alphabet/structure</text>
<text text-anchor="middle" x="645" y="-130.5" font-family="Helvetica,sans-Serif" font-size="10.00">/all.hpp</text>
</a>
</g>
</g>
<!-- Node12&#45;&gt;Node13 -->
<g id="edge15" class="edge">
<title>Node12&#45;&gt;Node13</title>
<path fill="none" stroke="midnightblue" d="M572.88,-185.02C588.9,-174.9 608.13,-162.77 622.69,-153.58"/>
<polygon fill="midnightblue" stroke="midnightblue" points="570.94,-182.1 564.35,-190.4 574.67,-188.02 570.94,-182.1"/>
</g>
<!-- Node13&#45;&gt;Node4 -->
<g id="edge16" class="edge">
<title>Node13&#45;&gt;Node4</title>
<path fill="none" stroke="midnightblue" d="M642.6,-113.12C639.43,-94.58 632.08,-69.96 615,-56 579.79,-27.22 453.53,-16.73 378.73,-12.99"/>
<polygon fill="midnightblue" stroke="midnightblue" points="639.16,-113.79 644.03,-123.2 646.09,-112.81 639.16,-113.79"/>
</g>
<!-- Node14&#45;&gt;Node13 -->
<g id="edge18" class="edge">
<title>Node14&#45;&gt;Node13</title>
<path fill="none" stroke="midnightblue" d="M670.25,-181.58C664.64,-172.24 658.35,-161.75 653.45,-153.58"/>
<polygon fill="midnightblue" stroke="midnightblue" points="667.39,-183.62 675.54,-190.4 673.39,-180.02 667.39,-183.62"/>
</g>
</g>
</svg>
