<?xml version="1.0" encoding="UTF-8" standalone="no"?>
<!DOCTYPE svg PUBLIC "-//W3C//DTD SVG 1.1//EN"
 "http://www.w3.org/Graphics/SVG/1.1/DTD/svg11.dtd">
<!-- Generated by graphviz version 2.43.0 (0)
 -->
<!-- Title: bio/alphabet/composite/alphabet_variant.hpp Pages: 1 -->
<svg width="1397pt" height="765pt"
 viewBox="0.00 0.00 1396.50 765.00" xmlns="http://www.w3.org/2000/svg" xmlns:xlink="http://www.w3.org/1999/xlink">
<g id="graph0" class="graph" transform="scale(1 1) rotate(0) translate(4 761)">
<title>bio/alphabet/composite/alphabet_variant.hpp</title>
<polygon fill="white" stroke="transparent" points="-4,4 -4,-761 1392.5,-761 1392.5,4 -4,4"/>
<!-- Node1 -->
<g id="node1" class="node">
<title>Node1</title>
<g id="a_node1"><a xlink:title="Provides bio::alphabet::alphabet_variant.">
<polygon fill="#bfbfbf" stroke="black" points="366,-726.5 366,-756.5 497,-756.5 497,-726.5 366,-726.5"/>
<text text-anchor="start" x="374" y="-744.5" font-family="Helvetica,sans-Serif" font-size="10.00">bio/alphabet/composite</text>
<text text-anchor="middle" x="431.5" y="-733.5" font-family="Helvetica,sans-Serif" font-size="10.00">/alphabet_variant.hpp</text>
</a>
</g>
</g>
<!-- Node2 -->
<g id="node2" class="node">
<title>Node2</title>
<g id="a_node2"><a target="_blank" xlink:href="https://en.cppreference.com/w/cpp/header/algorithm.html" xlink:title=" ">
<polygon fill="white" stroke="black" points="162.5,-665 162.5,-684 226.5,-684 226.5,-665 162.5,-665"/>
<text text-anchor="middle" x="194.5" y="-672" font-family="Helvetica,sans-Serif" font-size="10.00">algorithm</text>
</a>
</g>
</g>
<!-- Node1&#45;&gt;Node2 -->
<g id="edge1" class="edge">
<title>Node1&#45;&gt;Node2</title>
<path fill="none" stroke="midnightblue" d="M371.51,-726.49C332.51,-717.03 280.71,-703.79 235.5,-690 232.88,-689.2 230.18,-688.34 227.48,-687.45"/>
<polygon fill="midnightblue" stroke="midnightblue" points="228.39,-684.06 217.8,-684.14 226.13,-690.68 228.39,-684.06"/>
</g>
<!-- Node3 -->
<g id="node3" class="node">
<title>Node3</title>
<g id="a_node3"><a target="_blank" xlink:href="https://en.cppreference.com/w/cpp/header/array.html" xlink:title=" ">
<polygon fill="white" stroke="black" points="244.5,-665 244.5,-684 286.5,-684 286.5,-665 244.5,-665"/>
<text text-anchor="middle" x="265.5" y="-672" font-family="Helvetica,sans-Serif" font-size="10.00">array</text>
</a>
</g>
</g>
<!-- Node1&#45;&gt;Node3 -->
<g id="edge2" class="edge">
<title>Node1&#45;&gt;Node3</title>
<path fill="none" stroke="midnightblue" d="M394.42,-726.49C368.13,-716.48 332.07,-702.62 300.5,-690 298.86,-689.35 297.18,-688.67 295.49,-687.98"/>
<polygon fill="midnightblue" stroke="midnightblue" points="296.4,-684.57 285.82,-684.02 293.75,-691.05 296.4,-684.57"/>
</g>
<!-- Node4 -->
<g id="node4" class="node">
<title>Node4</title>
<g id="a_node4"><a target="_blank" xlink:href="https://en.cppreference.com/w/cpp/header/cassert.html" xlink:title=" ">
<polygon fill="white" stroke="black" points="152.5,-263 152.5,-282 204.5,-282 204.5,-263 152.5,-263"/>
<text text-anchor="middle" x="178.5" y="-270" font-family="Helvetica,sans-Serif" font-size="10.00">cassert</text>
</a>
</g>
</g>
<!-- Node1&#45;&gt;Node4 -->
<g id="edge3" class="edge">
<title>Node1&#45;&gt;Node4</title>
<path fill="none" stroke="midnightblue" d="M405.53,-726.39C371.06,-705.53 314.5,-663.01 314.5,-608.5 314.5,-608.5 314.5,-608.5 314.5,-405.5 314.5,-373.82 237.55,-315.11 199.41,-287.96"/>
<polygon fill="midnightblue" stroke="midnightblue" points="201.24,-284.97 191.05,-282.07 197.21,-290.69 201.24,-284.97"/>
</g>
<!-- Node5 -->
<g id="node5" class="node">
<title>Node5</title>
<g id="a_node5"><a target="_blank" xlink:href="https://en.cppreference.com/w/cpp/header/utility.html" xlink:title=" ">
<polygon fill="white" stroke="black" points="953,-330 953,-349 998,-349 998,-330 953,-330"/>
<text text-anchor="middle" x="975.5" y="-337" font-family="Helvetica,sans-Serif" font-size="10.00">utility</text>
</a>
</g>
</g>
<!-- Node1&#45;&gt;Node5 -->
<g id="edge4" class="edge">
<title>Node1&#45;&gt;Node5</title>
<path fill="none" stroke="midnightblue" d="M497.05,-739.2C584.51,-733.59 728.5,-709.08 728.5,-608.5 728.5,-608.5 728.5,-608.5 728.5,-472.5 728.5,-460.16 883.93,-384.33 948.19,-353.51"/>
<polygon fill="midnightblue" stroke="midnightblue" points="949.83,-356.61 957.34,-349.13 946.81,-350.29 949.83,-356.61"/>
</g>
<!-- Node6 -->
<g id="node6" class="node">
<title>Node6</title>
<g id="a_node6"><a target="_blank" xlink:href="https://en.cppreference.com/w/cpp/header/variant.html" xlink:title=" ">
<polygon fill="white" stroke="black" points="433,-665 433,-684 484,-684 484,-665 433,-665"/>
<text text-anchor="middle" x="458.5" y="-672" font-family="Helvetica,sans-Serif" font-size="10.00">variant</text>
</a>
</g>
</g>
<!-- Node1&#45;&gt;Node6 -->
<g id="edge5" class="edge">
<title>Node1&#45;&gt;Node6</title>
<path fill="none" stroke="midnightblue" d="M437.36,-726.4C441.36,-716.76 446.7,-703.91 451.01,-693.54"/>
<polygon fill="midnightblue" stroke="midnightblue" points="454.28,-694.77 454.89,-684.19 447.82,-692.09 454.28,-694.77"/>
</g>
<!-- Node7 -->
<g id="node7" class="node">
<title>Node7</title>
<g id="a_node7"><a xlink:href="alphabet__base_8hpp.html" target="_top" xlink:title="Provides bio::alphabet::alphabet_base.">
<polygon fill="white" stroke="black" points="343,-324.5 343,-354.5 466,-354.5 466,-324.5 343,-324.5"/>
<text text-anchor="start" x="351" y="-342.5" font-family="Helvetica,sans-Serif" font-size="10.00">bio/alphabet/alphabet</text>
<text text-anchor="middle" x="404.5" y="-331.5" font-family="Helvetica,sans-Serif" font-size="10.00">_base.hpp</text>
</a>
</g>
</g>
<!-- Node1&#45;&gt;Node7 -->
<g id="edge6" class="edge">
<title>Node1&#45;&gt;Node7</title>
<path fill="none" stroke="midnightblue" d="M426.67,-726.43C418.91,-702.51 404.5,-652.24 404.5,-608.5 404.5,-608.5 404.5,-608.5 404.5,-472.5 404.5,-435 404.5,-391.51 404.5,-365.01"/>
<polygon fill="midnightblue" stroke="midnightblue" points="408,-364.76 404.5,-354.76 401,-364.76 408,-364.76"/>
</g>
<!-- Node29 -->
<g id="node29" class="node">
<title>Node29</title>
<g id="a_node29"><a xlink:href="alphabet_2composite_2detail_8hpp_source.html" target="_top" xlink:title=" ">
<polygon fill="white" stroke="black" points="527,-659.5 527,-689.5 658,-689.5 658,-659.5 527,-659.5"/>
<text text-anchor="start" x="535" y="-677.5" font-family="Helvetica,sans-Serif" font-size="10.00">bio/alphabet/composite</text>
<text text-anchor="middle" x="592.5" y="-666.5" font-family="Helvetica,sans-Serif" font-size="10.00">/detail.hpp</text>
</a>
</g>
</g>
<!-- Node1&#45;&gt;Node29 -->
<g id="edge43" class="edge">
<title>Node1&#45;&gt;Node29</title>
<path fill="none" stroke="midnightblue" d="M466.43,-726.4C490.38,-716.73 522.35,-703.82 548.1,-693.43"/>
<polygon fill="midnightblue" stroke="midnightblue" points="549.67,-696.57 557.63,-689.58 547.05,-690.07 549.67,-696.57"/>
</g>
<!-- Node36 -->
<g id="node36" class="node">
<title>Node36</title>
<g id="a_node36"><a xlink:href="traits_8hpp.html" target="_top" xlink:title="Provides traits for meta::type_list.">
<polygon fill="white" stroke="black" points="923,-458.5 923,-488.5 1028,-488.5 1028,-458.5 923,-458.5"/>
<text text-anchor="start" x="931" y="-476.5" font-family="Helvetica,sans-Serif" font-size="10.00">bio/meta/type_list</text>
<text text-anchor="middle" x="975.5" y="-465.5" font-family="Helvetica,sans-Serif" font-size="10.00">/traits.hpp</text>
</a>
</g>
</g>
<!-- Node1&#45;&gt;Node36 -->
<g id="edge66" class="edge">
<title>Node1&#45;&gt;Node36</title>
<path fill="none" stroke="midnightblue" d="M497.02,-740.69C562.33,-738.46 663.96,-728.3 742.5,-690 839.54,-642.68 924.53,-541.55 959.07,-496.71"/>
<polygon fill="midnightblue" stroke="midnightblue" points="962.02,-498.6 965.29,-488.52 956.45,-494.36 962.02,-498.6"/>
</g>
<!-- Node7&#45;&gt;Node4 -->
<g id="edge7" class="edge">
<title>Node7&#45;&gt;Node4</title>
<path fill="none" stroke="midnightblue" d="M347.99,-324.45C310.94,-314.93 261.57,-301.63 218.5,-288 215.95,-287.19 213.32,-286.32 210.68,-285.42"/>
<polygon fill="midnightblue" stroke="midnightblue" points="211.83,-282.12 201.23,-282.11 209.51,-288.72 211.83,-282.12"/>
</g>
<!-- Node8 -->
<g id="node8" class="node">
<title>Node8</title>
<g id="a_node8"><a target="_blank" xlink:href="https://en.cppreference.com/w/cpp/header/concepts.html" xlink:title=" ">
<polygon fill="white" stroke="black" points="193.5,-118 193.5,-137 253.5,-137 253.5,-118 193.5,-118"/>
<text text-anchor="middle" x="223.5" y="-125" font-family="Helvetica,sans-Serif" font-size="10.00">concepts</text>
</a>
</g>
</g>
<!-- Node7&#45;&gt;Node8 -->
<g id="edge8" class="edge">
<title>Node7&#45;&gt;Node8</title>
<path fill="none" stroke="midnightblue" d="M389.21,-324.35C366.42,-302.95 322.67,-260.61 289.5,-221 268.59,-196.03 247.2,-164.79 234.64,-145.76"/>
<polygon fill="midnightblue" stroke="midnightblue" points="237.48,-143.7 229.08,-137.25 231.62,-147.53 237.48,-143.7"/>
</g>
<!-- Node9 -->
<g id="node9" class="node">
<title>Node9</title>
<g id="a_node9"><a target="_blank" xlink:href="https://en.cppreference.com/w/cpp/header/type_traits.html" xlink:title=" ">
<polygon fill="white" stroke="black" points="1123,-56.5 1123,-75.5 1192,-75.5 1192,-56.5 1123,-56.5"/>
<text text-anchor="middle" x="1157.5" y="-63.5" font-family="Helvetica,sans-Serif" font-size="10.00">type_traits</text>
</a>
</g>
</g>
<!-- Node7&#45;&gt;Node9 -->
<g id="edge9" class="edge">
<title>Node7&#45;&gt;Node9</title>
<path fill="none" stroke="midnightblue" d="M466.03,-336.84C569.29,-333.19 783.61,-321.86 961.5,-288 1065.25,-268.25 1100.99,-278.63 1189.5,-221 1236.96,-190.1 1286.07,-159.67 1255.5,-112 1243.6,-93.44 1221.92,-82.44 1201.97,-75.96"/>
<polygon fill="midnightblue" stroke="midnightblue" points="1202.95,-72.6 1192.37,-73.13 1200.97,-79.32 1202.95,-72.6"/>
</g>
<!-- Node10 -->
<g id="node10" class="node">
<title>Node10</title>
<g id="a_node10"><a xlink:href="alphabet_2concept_8hpp.html" target="_top" xlink:title="Core alphabet concept and free function/type trait wrappers.">
<polygon fill="white" stroke="black" points="522.5,-263 522.5,-282 662.5,-282 662.5,-263 522.5,-263"/>
<text text-anchor="middle" x="592.5" y="-270" font-family="Helvetica,sans-Serif" font-size="10.00">bio/alphabet/concept.hpp</text>
</a>
</g>
</g>
<!-- Node7&#45;&gt;Node10 -->
<g id="edge10" class="edge">
<title>Node7&#45;&gt;Node10</title>
<path fill="none" stroke="midnightblue" d="M445.29,-324.4C479.01,-312.74 526.34,-296.37 558.15,-285.38"/>
<polygon fill="midnightblue" stroke="midnightblue" points="559.59,-288.58 567.9,-282.01 557.3,-281.97 559.59,-288.58"/>
</g>
<!-- Node27 -->
<g id="node27" class="node">
<title>Node27</title>
<g id="a_node27"><a xlink:href="int__types_8hpp.html" target="_top" xlink:title="Provides metaprogramming utilities for integer types.">
<polygon fill="white" stroke="black" points="0,-185 0,-215 107,-215 107,-185 0,-185"/>
<text text-anchor="start" x="8" y="-203" font-family="Helvetica,sans-Serif" font-size="10.00">bio/meta/detail/int</text>
<text text-anchor="middle" x="53.5" y="-192" font-family="Helvetica,sans-Serif" font-size="10.00">_types.hpp</text>
</a>
</g>
</g>
<!-- Node7&#45;&gt;Node27 -->
<g id="edge38" class="edge">
<title>Node7&#45;&gt;Node27</title>
<path fill="none" stroke="midnightblue" d="M351.24,-324.49C322.36,-315.88 286.53,-303.51 256.5,-288 235.57,-277.19 234.39,-267.89 213.5,-257 203.49,-251.78 148.03,-232.71 105.18,-218.26"/>
<polygon fill="midnightblue" stroke="midnightblue" points="106.29,-214.94 95.7,-215.07 104.06,-221.58 106.29,-214.94"/>
</g>
<!-- Node10&#45;&gt;Node9 -->
<g id="edge11" class="edge">
<title>Node10&#45;&gt;Node9</title>
<path fill="none" stroke="midnightblue" d="M662.64,-266.57C814.14,-255.77 1159.05,-230.22 1167.5,-221 1201.81,-183.55 1179.82,-117.12 1166.1,-85.16"/>
<polygon fill="midnightblue" stroke="midnightblue" points="1169.16,-83.42 1161.86,-75.74 1162.77,-86.29 1169.16,-83.42"/>
</g>
<!-- Node11 -->
<g id="node11" class="node">
<title>Node11</title>
<g id="a_node11"><a xlink:href="alphabet_2biocpp_8hpp.html" target="_top" xlink:title="Module header with module&#45;wide definitions.">
<polygon fill="white" stroke="black" points="347.5,-118 347.5,-137 481.5,-137 481.5,-118 347.5,-118"/>
<text text-anchor="middle" x="414.5" y="-125" font-family="Helvetica,sans-Serif" font-size="10.00">bio/alphabet/biocpp.hpp</text>
</a>
</g>
</g>
<!-- Node10&#45;&gt;Node11 -->
<g id="edge12" class="edge">
<title>Node10&#45;&gt;Node11</title>
<path fill="none" stroke="midnightblue" d="M575.88,-262.84C558.6,-253.52 531.1,-237.74 509.5,-221 478.45,-196.94 446.59,-163.86 428.79,-144.47"/>
<polygon fill="midnightblue" stroke="midnightblue" points="431.38,-142.12 422.07,-137.07 426.2,-146.83 431.38,-142.12"/>
</g>
<!-- Node16 -->
<g id="node16" class="node">
<title>Node16</title>
<g id="a_node16"><a xlink:href="exception_8hpp.html" target="_top" xlink:title="Exceptions thrown by entities in the alphabet module.">
<polygon fill="white" stroke="black" points="518,-190.5 518,-209.5 667,-209.5 667,-190.5 518,-190.5"/>
<text text-anchor="middle" x="592.5" y="-197.5" font-family="Helvetica,sans-Serif" font-size="10.00">bio/alphabet/exception.hpp</text>
</a>
</g>
</g>
<!-- Node10&#45;&gt;Node16 -->
<g id="edge17" class="edge">
<title>Node10&#45;&gt;Node16</title>
<path fill="none" stroke="midnightblue" d="M592.5,-262.86C592.5,-252.18 592.5,-233.72 592.5,-219.73"/>
<polygon fill="midnightblue" stroke="midnightblue" points="596,-219.72 592.5,-209.72 589,-219.72 596,-219.72"/>
</g>
<!-- Node19 -->
<g id="node19" class="node">
<title>Node19</title>
<g id="a_node19"><a xlink:href="core__language_8hpp.html" target="_top" xlink:title="Provides concepts for core language types and relations that don&#39;t have concepts in C++20 (yet).">
<polygon fill="white" stroke="black" points="299,-185 299,-215 424,-215 424,-185 299,-185"/>
<text text-anchor="start" x="307" y="-203" font-family="Helvetica,sans-Serif" font-size="10.00">bio/meta/concept/core</text>
<text text-anchor="middle" x="361.5" y="-192" font-family="Helvetica,sans-Serif" font-size="10.00">_language.hpp</text>
</a>
</g>
</g>
<!-- Node10&#45;&gt;Node19 -->
<g id="edge22" class="edge">
<title>Node10&#45;&gt;Node19</title>
<path fill="none" stroke="midnightblue" d="M564.64,-263C528.23,-251.88 463.63,-232.17 417.04,-217.95"/>
<polygon fill="midnightblue" stroke="midnightblue" points="417.98,-214.58 407.39,-215.01 415.93,-221.27 417.98,-214.58"/>
</g>
<!-- Node20 -->
<g id="node20" class="node">
<title>Node20</title>
<g id="a_node20"><a xlink:href="type__inspection_8hpp.html" target="_top" xlink:title="Provides traits to inspect some information of a type, for example its name.">
<polygon fill="white" stroke="black" points="684.5,-185 684.5,-215 800.5,-215 800.5,-185 684.5,-185"/>
<text text-anchor="start" x="692.5" y="-203" font-family="Helvetica,sans-Serif" font-size="10.00">bio/meta/detail/type</text>
<text text-anchor="middle" x="742.5" y="-192" font-family="Helvetica,sans-Serif" font-size="10.00">_inspection.hpp</text>
</a>
</g>
</g>
<!-- Node10&#45;&gt;Node20 -->
<g id="edge26" class="edge">
<title>Node10&#45;&gt;Node20</title>
<path fill="none" stroke="midnightblue" d="M610.59,-263C633.44,-252.26 673.39,-233.48 703.36,-219.4"/>
<polygon fill="midnightblue" stroke="midnightblue" points="705.14,-222.43 712.7,-215.01 702.16,-216.09 705.14,-222.43"/>
</g>
<!-- Node24 -->
<g id="node24" class="node">
<title>Node24</title>
<g id="a_node24"><a xlink:href="priority__tag_8hpp.html" target="_top" xlink:title="provides bio::meta::priority_tag.">
<polygon fill="white" stroke="black" points="125,-185 125,-215 242,-215 242,-185 125,-185"/>
<text text-anchor="start" x="133" y="-203" font-family="Helvetica,sans-Serif" font-size="10.00">bio/meta/tag/priority</text>
<text text-anchor="middle" x="183.5" y="-192" font-family="Helvetica,sans-Serif" font-size="10.00">_tag.hpp</text>
</a>
</g>
</g>
<!-- Node10&#45;&gt;Node24 -->
<g id="edge32" class="edge">
<title>Node10&#45;&gt;Node24</title>
<path fill="none" stroke="midnightblue" d="M539.35,-262.99C478.8,-253.22 376.93,-236.53 289.5,-221 277.35,-218.84 264.43,-216.47 251.95,-214.14"/>
<polygon fill="midnightblue" stroke="midnightblue" points="252.53,-210.68 242.05,-212.28 251.24,-217.56 252.53,-210.68"/>
</g>
<!-- Node25 -->
<g id="node25" class="node">
<title>Node25</title>
<g id="a_node25"><a xlink:href="basic_8hpp.html" target="_top" xlink:title="Provides various type traits on generic types.">
<polygon fill="white" stroke="black" points="1042.5,-185 1042.5,-215 1158.5,-215 1158.5,-185 1042.5,-185"/>
<text text-anchor="start" x="1050.5" y="-203" font-family="Helvetica,sans-Serif" font-size="10.00">bio/meta/type_traits</text>
<text text-anchor="middle" x="1100.5" y="-192" font-family="Helvetica,sans-Serif" font-size="10.00">/basic.hpp</text>
</a>
</g>
</g>
<!-- Node10&#45;&gt;Node25 -->
<g id="edge34" class="edge">
<title>Node10&#45;&gt;Node25</title>
<path fill="none" stroke="midnightblue" d="M662.6,-267.3C750.11,-261.17 904.03,-247.52 1033.5,-221 1038.16,-220.05 1042.96,-218.91 1047.76,-217.68"/>
<polygon fill="midnightblue" stroke="midnightblue" points="1048.79,-221.03 1057.53,-215.04 1046.97,-214.27 1048.79,-221.03"/>
</g>
<!-- Node12 -->
<g id="node12" class="node">
<title>Node12</title>
<g id="a_node12"><a xlink:href="platform_8hpp.html" target="_top" xlink:title="Provides platform and dependency checks.">
<polygon fill="white" stroke="black" points="351.5,-56.5 351.5,-75.5 477.5,-75.5 477.5,-56.5 351.5,-56.5"/>
<text text-anchor="middle" x="414.5" y="-63.5" font-family="Helvetica,sans-Serif" font-size="10.00">bio/meta/platform.hpp</text>
</a>
</g>
</g>
<!-- Node11&#45;&gt;Node12 -->
<g id="edge13" class="edge">
<title>Node11&#45;&gt;Node12</title>
<path fill="none" stroke="midnightblue" d="M414.5,-117.98C414.5,-109.58 414.5,-96.48 414.5,-85.66"/>
<polygon fill="midnightblue" stroke="midnightblue" points="418,-85.51 414.5,-75.51 411,-85.51 418,-85.51"/>
</g>
<!-- Node13 -->
<g id="node13" class="node">
<title>Node13</title>
<g id="a_node13"><a target="_blank" xlink:href="https://en.cppreference.com/w/cpp/header/cinttypes.html" xlink:title=" ">
<polygon fill="white" stroke="black" points="307.5,-0.5 307.5,-19.5 369.5,-19.5 369.5,-0.5 307.5,-0.5"/>
<text text-anchor="middle" x="338.5" y="-7.5" font-family="Helvetica,sans-Serif" font-size="10.00">cinttypes</text>
</a>
</g>
</g>
<!-- Node12&#45;&gt;Node13 -->
<g id="edge14" class="edge">
<title>Node12&#45;&gt;Node13</title>
<path fill="none" stroke="midnightblue" d="M402.29,-56.32C390.72,-48.11 373.12,-35.6 359.34,-25.81"/>
<polygon fill="midnightblue" stroke="midnightblue" points="361.11,-22.77 350.93,-19.83 357.06,-28.48 361.11,-22.77"/>
</g>
<!-- Node14 -->
<g id="node14" class="node">
<title>Node14</title>
<g id="a_node14"><a target="_blank" xlink:href="https://en.cppreference.com/w/cpp/header/ciso646.html" xlink:title=" ">
<polygon fill="white" stroke="black" points="387.5,-0.5 387.5,-19.5 441.5,-19.5 441.5,-0.5 387.5,-0.5"/>
<text text-anchor="middle" x="414.5" y="-7.5" font-family="Helvetica,sans-Serif" font-size="10.00">ciso646</text>
</a>
</g>
</g>
<!-- Node12&#45;&gt;Node14 -->
<g id="edge15" class="edge">
<title>Node12&#45;&gt;Node14</title>
<path fill="none" stroke="midnightblue" d="M414.5,-56.08C414.5,-49.01 414.5,-38.86 414.5,-29.99"/>
<polygon fill="midnightblue" stroke="midnightblue" points="418,-29.75 414.5,-19.75 411,-29.75 418,-29.75"/>
</g>
<!-- Node15 -->
<g id="node15" class="node">
<title>Node15</title>
<g id="a_node15"><a target="_blank" xlink:href="https://en.cppreference.com/w/cpp/header/cstddef.html" xlink:title=" ">
<polygon fill="white" stroke="black" points="460,-0.5 460,-19.5 513,-19.5 513,-0.5 460,-0.5"/>
<text text-anchor="middle" x="486.5" y="-7.5" font-family="Helvetica,sans-Serif" font-size="10.00">cstddef</text>
</a>
</g>
</g>
<!-- Node12&#45;&gt;Node15 -->
<g id="edge16" class="edge">
<title>Node12&#45;&gt;Node15</title>
<path fill="none" stroke="midnightblue" d="M426.07,-56.32C436.92,-48.18 453.38,-35.84 466.38,-26.09"/>
<polygon fill="midnightblue" stroke="midnightblue" points="468.82,-28.63 474.72,-19.83 464.62,-23.03 468.82,-28.63"/>
</g>
<!-- Node16&#45;&gt;Node8 -->
<g id="edge18" class="edge">
<title>Node16&#45;&gt;Node8</title>
<path fill="none" stroke="midnightblue" d="M547.99,-190.5C475.61,-176.67 333.49,-149.51 263.87,-136.21"/>
<polygon fill="midnightblue" stroke="midnightblue" points="264.22,-132.72 253.74,-134.28 262.91,-139.59 264.22,-132.72"/>
</g>
<!-- Node16&#45;&gt;Node11 -->
<g id="edge21" class="edge">
<title>Node16&#45;&gt;Node11</title>
<path fill="none" stroke="midnightblue" d="M571.03,-190.5C539.76,-178.11 481.5,-155.04 445.55,-140.8"/>
<polygon fill="midnightblue" stroke="midnightblue" points="446.63,-137.46 436.05,-137.03 444.06,-143.97 446.63,-137.46"/>
</g>
<!-- Node17 -->
<g id="node17" class="node">
<title>Node17</title>
<g id="a_node17"><a target="_blank" xlink:href="https://en.cppreference.com/w/cpp/header/stdexcept.html" xlink:title=" ">
<polygon fill="white" stroke="black" points="500,-118 500,-137 565,-137 565,-118 500,-118"/>
<text text-anchor="middle" x="532.5" y="-125" font-family="Helvetica,sans-Serif" font-size="10.00">stdexcept</text>
</a>
</g>
</g>
<!-- Node16&#45;&gt;Node17 -->
<g id="edge19" class="edge">
<title>Node16&#45;&gt;Node17</title>
<path fill="none" stroke="midnightblue" d="M585.14,-190.36C575.61,-179.15 558.77,-159.37 546.71,-145.19"/>
<polygon fill="midnightblue" stroke="midnightblue" points="549.06,-142.56 539.92,-137.22 543.73,-147.1 549.06,-142.56"/>
</g>
<!-- Node18 -->
<g id="node18" class="node">
<title>Node18</title>
<g id="a_node18"><a target="_blank" xlink:href="https://en.cppreference.com/w/cpp/header/string.html" xlink:title=" ">
<polygon fill="white" stroke="black" points="583.5,-118 583.5,-137 627.5,-137 627.5,-118 583.5,-118"/>
<text text-anchor="middle" x="605.5" y="-125" font-family="Helvetica,sans-Serif" font-size="10.00">string</text>
</a>
</g>
</g>
<!-- Node16&#45;&gt;Node18 -->
<g id="edge20" class="edge">
<title>Node16&#45;&gt;Node18</title>
<path fill="none" stroke="midnightblue" d="M594.09,-190.36C596.06,-179.68 599.47,-161.22 602.05,-147.23"/>
<polygon fill="midnightblue" stroke="midnightblue" points="605.52,-147.68 603.89,-137.22 598.64,-146.41 605.52,-147.68"/>
</g>
<!-- Node19&#45;&gt;Node8 -->
<g id="edge25" class="edge">
<title>Node19&#45;&gt;Node8</title>
<path fill="none" stroke="midnightblue" d="M333.91,-184.9C309.19,-172.27 273.21,-153.9 249.12,-141.59"/>
<polygon fill="midnightblue" stroke="midnightblue" points="250.7,-138.47 240.2,-137.03 247.52,-144.7 250.7,-138.47"/>
</g>
<!-- Node19&#45;&gt;Node9 -->
<g id="edge23" class="edge">
<title>Node19&#45;&gt;Node9</title>
<path fill="none" stroke="midnightblue" d="M350.85,-185C337.76,-165.98 319.49,-132.08 338.5,-112 365.29,-83.7 945.24,-70.89 1112.64,-67.78"/>
<polygon fill="midnightblue" stroke="midnightblue" points="1112.9,-71.27 1122.83,-67.59 1112.77,-64.27 1112.9,-71.27"/>
</g>
<!-- Node19&#45;&gt;Node12 -->
<g id="edge24" class="edge">
<title>Node19&#45;&gt;Node12</title>
<path fill="none" stroke="midnightblue" d="M341.04,-184.73C318.79,-167.42 288.52,-137.38 305.5,-112 316.41,-95.7 334.41,-85.3 352.68,-78.66"/>
<polygon fill="midnightblue" stroke="midnightblue" points="353.82,-81.97 362.22,-75.52 351.63,-75.32 353.82,-81.97"/>
</g>
<!-- Node20&#45;&gt;Node12 -->
<g id="edge31" class="edge">
<title>Node20&#45;&gt;Node12</title>
<path fill="none" stroke="midnightblue" d="M725.12,-184.69C695.22,-160.08 637.14,-112.3 636.5,-112 589.87,-89.84 532.69,-78.58 488.04,-72.86"/>
<polygon fill="midnightblue" stroke="midnightblue" points="488.19,-69.35 477.84,-71.62 487.35,-76.3 488.19,-69.35"/>
</g>
<!-- Node20&#45;&gt;Node18 -->
<g id="edge29" class="edge">
<title>Node20&#45;&gt;Node18</title>
<path fill="none" stroke="midnightblue" d="M715.11,-184.9C690.67,-172.33 655.17,-154.06 631.25,-141.75"/>
<polygon fill="midnightblue" stroke="midnightblue" points="632.58,-138.5 622.08,-137.03 629.37,-144.72 632.58,-138.5"/>
</g>
<!-- Node21 -->
<g id="node21" class="node">
<title>Node21</title>
<g id="a_node21"><a target="_blank" xlink:href="https://en.cppreference.com/w/cpp/header/functional.html" xlink:title=" ">
<polygon fill="white" stroke="black" points="835,-118 835,-137 900,-137 900,-118 835,-118"/>
<text text-anchor="middle" x="867.5" y="-125" font-family="Helvetica,sans-Serif" font-size="10.00">functional</text>
</a>
</g>
</g>
<!-- Node20&#45;&gt;Node21 -->
<g id="edge27" class="edge">
<title>Node20&#45;&gt;Node21</title>
<path fill="none" stroke="midnightblue" d="M767.5,-184.9C789.59,-172.44 821.61,-154.38 843.42,-142.08"/>
<polygon fill="midnightblue" stroke="midnightblue" points="845.38,-144.99 852.37,-137.03 841.94,-138.9 845.38,-144.99"/>
</g>
<!-- Node22 -->
<g id="node22" class="node">
<title>Node22</title>
<g id="a_node22"><a target="_blank" xlink:href="https://en.cppreference.com/w/cpp/header/memory.html" xlink:title=" ">
<polygon fill="white" stroke="black" points="683.5,-118 683.5,-137 741.5,-137 741.5,-118 683.5,-118"/>
<text text-anchor="middle" x="712.5" y="-125" font-family="Helvetica,sans-Serif" font-size="10.00">memory</text>
</a>
</g>
</g>
<!-- Node20&#45;&gt;Node22 -->
<g id="edge28" class="edge">
<title>Node20&#45;&gt;Node22</title>
<path fill="none" stroke="midnightblue" d="M736.43,-184.73C731.77,-173.78 725.3,-158.57 720.26,-146.74"/>
<polygon fill="midnightblue" stroke="midnightblue" points="723.42,-145.22 716.28,-137.39 716.98,-147.97 723.42,-145.22"/>
</g>
<!-- Node23 -->
<g id="node23" class="node">
<title>Node23</title>
<g id="a_node23"><a target="_blank" xlink:href="https://en.cppreference.com/w/cpp/header/typeinfo.html" xlink:title=" ">
<polygon fill="white" stroke="black" points="760,-118 760,-137 817,-137 817,-118 760,-118"/>
<text text-anchor="middle" x="788.5" y="-125" font-family="Helvetica,sans-Serif" font-size="10.00">typeinfo</text>
</a>
</g>
</g>
<!-- Node20&#45;&gt;Node23 -->
<g id="edge30" class="edge">
<title>Node20&#45;&gt;Node23</title>
<path fill="none" stroke="midnightblue" d="M751.81,-184.73C759.1,-173.56 769.28,-157.96 777.07,-146.02"/>
<polygon fill="midnightblue" stroke="midnightblue" points="780.16,-147.68 782.7,-137.39 774.3,-143.86 780.16,-147.68"/>
</g>
<!-- Node24&#45;&gt;Node12 -->
<g id="edge33" class="edge">
<title>Node24&#45;&gt;Node12</title>
<path fill="none" stroke="midnightblue" d="M178.75,-184.81C173.39,-165.89 167.48,-132.43 184.5,-112 204.29,-88.25 281.62,-76.84 341.22,-71.49"/>
<polygon fill="midnightblue" stroke="midnightblue" points="341.7,-74.96 351.37,-70.62 341.1,-67.98 341.7,-74.96"/>
</g>
<!-- Node25&#45;&gt;Node9 -->
<g id="edge36" class="edge">
<title>Node25&#45;&gt;Node9</title>
<path fill="none" stroke="midnightblue" d="M1106.6,-184.87C1117.05,-160.68 1138.34,-111.38 1149.79,-84.85"/>
<polygon fill="midnightblue" stroke="midnightblue" points="1153.04,-86.17 1153.79,-75.6 1146.61,-83.39 1153.04,-86.17"/>
</g>
<!-- Node25&#45;&gt;Node12 -->
<g id="edge37" class="edge">
<title>Node25&#45;&gt;Node12</title>
<path fill="none" stroke="midnightblue" d="M1095.82,-184.9C1088.32,-164.79 1071.53,-128.46 1043.5,-112 996.61,-84.46 643.63,-72.56 487.92,-68.62"/>
<polygon fill="midnightblue" stroke="midnightblue" points="487.59,-65.11 477.5,-68.36 487.41,-72.1 487.59,-65.11"/>
</g>
<!-- Node26 -->
<g id="node26" class="node">
<title>Node26</title>
<g id="a_node26"><a target="_blank" xlink:href="https://en.cppreference.com/w/cpp/header/tuple.html" xlink:title=" ">
<polygon fill="white" stroke="black" points="1205,-118 1205,-137 1246,-137 1246,-118 1205,-118"/>
<text text-anchor="middle" x="1225.5" y="-125" font-family="Helvetica,sans-Serif" font-size="10.00">tuple</text>
</a>
</g>
</g>
<!-- Node25&#45;&gt;Node26 -->
<g id="edge35" class="edge">
<title>Node25&#45;&gt;Node26</title>
<path fill="none" stroke="midnightblue" d="M1125.5,-184.9C1147.59,-172.44 1179.61,-154.38 1201.42,-142.08"/>
<polygon fill="midnightblue" stroke="midnightblue" points="1203.38,-144.99 1210.37,-137.03 1199.94,-138.9 1203.38,-144.99"/>
</g>
<!-- Node27&#45;&gt;Node8 -->
<g id="edge39" class="edge">
<title>Node27&#45;&gt;Node8</title>
<path fill="none" stroke="midnightblue" d="M87.49,-184.9C118.48,-172.05 163.83,-153.24 193.5,-140.94"/>
<polygon fill="midnightblue" stroke="midnightblue" points="195.03,-144.1 202.92,-137.03 192.34,-137.63 195.03,-144.1"/>
</g>
<!-- Node27&#45;&gt;Node9 -->
<g id="edge41" class="edge">
<title>Node27&#45;&gt;Node9</title>
<path fill="none" stroke="midnightblue" d="M82.04,-184.97C102.2,-174.53 129.44,-159.31 151.5,-143 167.68,-131.04 165.97,-119.84 184.5,-112 270.54,-75.6 933,-68.51 1112.67,-67.25"/>
<polygon fill="midnightblue" stroke="midnightblue" points="1112.85,-70.75 1122.83,-67.18 1112.8,-63.75 1112.85,-70.75"/>
</g>
<!-- Node27&#45;&gt;Node12 -->
<g id="edge42" class="edge">
<title>Node27&#45;&gt;Node12</title>
<path fill="none" stroke="midnightblue" d="M67.96,-184.7C88.76,-165.03 129.19,-130 170.5,-112 224.9,-88.3 291.41,-77.07 341.24,-71.76"/>
<polygon fill="midnightblue" stroke="midnightblue" points="341.7,-75.23 351.29,-70.75 340.99,-68.27 341.7,-75.23"/>
</g>
<!-- Node28 -->
<g id="node28" class="node">
<title>Node28</title>
<g id="a_node28"><a target="_blank" xlink:href="https://en.cppreference.com/w/cpp/header/limits.html" xlink:title=" ">
<polygon fill="white" stroke="black" points="17.5,-118 17.5,-137 61.5,-137 61.5,-118 17.5,-118"/>
<text text-anchor="middle" x="39.5" y="-125" font-family="Helvetica,sans-Serif" font-size="10.00">limits</text>
</a>
</g>
</g>
<!-- Node27&#45;&gt;Node28 -->
<g id="edge40" class="edge">
<title>Node27&#45;&gt;Node28</title>
<path fill="none" stroke="midnightblue" d="M50.67,-184.73C48.54,-174 45.59,-159.19 43.26,-147.46"/>
<polygon fill="midnightblue" stroke="midnightblue" points="46.65,-146.52 41.27,-137.39 39.78,-147.88 46.65,-146.52"/>
</g>
<!-- Node29&#45;&gt;Node10 -->
<g id="edge44" class="edge">
<title>Node29&#45;&gt;Node10</title>
<path fill="none" stroke="midnightblue" d="M592.5,-659.24C592.5,-635.03 592.5,-584.35 592.5,-541.5 592.5,-541.5 592.5,-541.5 592.5,-405.5 592.5,-365.16 592.5,-317.88 592.5,-292.28"/>
<polygon fill="midnightblue" stroke="midnightblue" points="596,-292.15 592.5,-282.15 589,-292.15 596,-292.15"/>
</g>
<!-- Node29&#45;&gt;Node19 -->
<g id="edge45" class="edge">
<title>Node29&#45;&gt;Node19</title>
<path fill="none" stroke="midnightblue" d="M572.19,-659.45C543.49,-637.76 494.5,-593.16 494.5,-541.5 494.5,-541.5 494.5,-541.5 494.5,-338.5 494.5,-283.77 439.39,-242.53 400.12,-220.08"/>
<polygon fill="midnightblue" stroke="midnightblue" points="401.46,-216.83 391.02,-215.05 398.08,-222.95 401.46,-216.83"/>
</g>
<!-- Node30 -->
<g id="node30" class="node">
<title>Node30</title>
<g id="a_node30"><a xlink:href="type__list_8hpp.html" target="_top" xlink:title="Provides bio::meta::type_list.">
<polygon fill="white" stroke="black" points="830,-324.5 830,-354.5 935,-354.5 935,-324.5 830,-324.5"/>
<text text-anchor="start" x="838" y="-342.5" font-family="Helvetica,sans-Serif" font-size="10.00">bio/meta/type_list</text>
<text text-anchor="middle" x="882.5" y="-331.5" font-family="Helvetica,sans-Serif" font-size="10.00">/type_list.hpp</text>
</a>
</g>
</g>
<!-- Node29&#45;&gt;Node30 -->
<g id="edge46" class="edge">
<title>Node29&#45;&gt;Node30</title>
<path fill="none" stroke="midnightblue" d="M601.12,-659.44C614.69,-635.93 639.5,-586.75 639.5,-541.5 639.5,-541.5 639.5,-541.5 639.5,-472.5 639.5,-390.42 747.87,-359.1 819.87,-347.35"/>
<polygon fill="midnightblue" stroke="midnightblue" points="820.43,-350.81 829.77,-345.82 819.36,-343.89 820.43,-350.81"/>
</g>
<!-- Node34 -->
<g id="node34" class="node">
<title>Node34</title>
<g id="a_node34"><a xlink:href="lazy_8hpp.html" target="_top" xlink:title="Provides lazy template instantiation traits.">
<polygon fill="white" stroke="black" points="1192.5,-592.5 1192.5,-622.5 1308.5,-622.5 1308.5,-592.5 1192.5,-592.5"/>
<text text-anchor="start" x="1200.5" y="-610.5" font-family="Helvetica,sans-Serif" font-size="10.00">bio/meta/type_traits</text>
<text text-anchor="middle" x="1250.5" y="-599.5" font-family="Helvetica,sans-Serif" font-size="10.00">/lazy.hpp</text>
</a>
</g>
</g>
<!-- Node29&#45;&gt;Node34 -->
<g id="edge54" class="edge">
<title>Node29&#45;&gt;Node34</title>
<path fill="none" stroke="midnightblue" d="M658.3,-667C783.63,-654.62 1055.42,-627.77 1182.47,-615.22"/>
<polygon fill="midnightblue" stroke="midnightblue" points="1182.86,-618.7 1192.47,-614.23 1182.17,-611.73 1182.86,-618.7"/>
</g>
<!-- Node31 -->
<g id="node31" class="node">
<title>Node31</title>
<g id="a_node31"><a xlink:href="template__inspection_8hpp.html" target="_top" xlink:title="Provides various traits to inspect templates.">
<polygon fill="white" stroke="black" points="812.5,-257.5 812.5,-287.5 952.5,-287.5 952.5,-257.5 812.5,-257.5"/>
<text text-anchor="start" x="820.5" y="-275.5" font-family="Helvetica,sans-Serif" font-size="10.00">bio/meta/type_traits</text>
<text text-anchor="middle" x="882.5" y="-264.5" font-family="Helvetica,sans-Serif" font-size="10.00">/template_inspection.hpp</text>
</a>
</g>
</g>
<!-- Node30&#45;&gt;Node31 -->
<g id="edge47" class="edge">
<title>Node30&#45;&gt;Node31</title>
<path fill="none" stroke="midnightblue" d="M882.5,-324.4C882.5,-316.64 882.5,-306.81 882.5,-297.86"/>
<polygon fill="midnightblue" stroke="midnightblue" points="886,-297.58 882.5,-287.58 879,-297.58 886,-297.58"/>
</g>
<!-- Node31&#45;&gt;Node8 -->
<g id="edge53" class="edge">
<title>Node31&#45;&gt;Node8</title>
<path fill="none" stroke="midnightblue" d="M812.41,-269.58C736.15,-265.77 611.49,-254.45 509.5,-221 472.46,-208.85 468.87,-193.03 432.5,-179 375.71,-157.09 306.48,-142.6 263.69,-134.97"/>
<polygon fill="midnightblue" stroke="midnightblue" points="264.12,-131.49 253.66,-133.22 262.91,-138.39 264.12,-131.49"/>
</g>
<!-- Node32 -->
<g id="node32" class="node">
<title>Node32</title>
<g id="a_node32"><a xlink:href="transformation__trait__or_8hpp.html" target="_top" xlink:title="Provides bio::meta::transformation_trait_or.">
<polygon fill="white" stroke="black" points="906.5,-179.5 906.5,-220.5 1024.5,-220.5 1024.5,-179.5 906.5,-179.5"/>
<text text-anchor="start" x="914.5" y="-208.5" font-family="Helvetica,sans-Serif" font-size="10.00">bio/meta/type_traits</text>
<text text-anchor="start" x="914.5" y="-197.5" font-family="Helvetica,sans-Serif" font-size="10.00">/transformation_trait</text>
<text text-anchor="middle" x="965.5" y="-186.5" font-family="Helvetica,sans-Serif" font-size="10.00">_or.hpp</text>
</a>
</g>
</g>
<!-- Node31&#45;&gt;Node32 -->
<g id="edge48" class="edge">
<title>Node31&#45;&gt;Node32</title>
<path fill="none" stroke="midnightblue" d="M899.3,-257.23C909.48,-248.59 922.78,-237.29 934.78,-227.09"/>
<polygon fill="midnightblue" stroke="midnightblue" points="937.08,-229.73 942.44,-220.59 932.55,-224.39 937.08,-229.73"/>
</g>
<!-- Node32&#45;&gt;Node9 -->
<g id="edge49" class="edge">
<title>Node32&#45;&gt;Node9</title>
<path fill="none" stroke="midnightblue" d="M994.24,-179.24C1033.23,-152.43 1101.96,-105.18 1136.48,-81.45"/>
<polygon fill="midnightblue" stroke="midnightblue" points="1138.61,-84.24 1144.87,-75.69 1134.64,-78.47 1138.61,-84.24"/>
</g>
<!-- Node33 -->
<g id="node33" class="node">
<title>Node33</title>
<g id="a_node33"><a xlink:href="meta_2type__traits_2concept_8hpp.html" target="_top" xlink:title="Provides the concepts bio::meta::transformation_trait and bio::meta::unary_type_trait.">
<polygon fill="white" stroke="black" points="918.5,-112.5 918.5,-142.5 1034.5,-142.5 1034.5,-112.5 918.5,-112.5"/>
<text text-anchor="start" x="926.5" y="-130.5" font-family="Helvetica,sans-Serif" font-size="10.00">bio/meta/type_traits</text>
<text text-anchor="middle" x="976.5" y="-119.5" font-family="Helvetica,sans-Serif" font-size="10.00">/concept.hpp</text>
</a>
</g>
</g>
<!-- Node32&#45;&gt;Node33 -->
<g id="edge50" class="edge">
<title>Node32&#45;&gt;Node33</title>
<path fill="none" stroke="midnightblue" d="M968.56,-179.36C969.85,-171.14 971.35,-161.49 972.71,-152.82"/>
<polygon fill="midnightblue" stroke="midnightblue" points="976.17,-153.31 974.25,-142.89 969.25,-152.23 976.17,-153.31"/>
</g>
<!-- Node33&#45;&gt;Node9 -->
<g id="edge51" class="edge">
<title>Node33&#45;&gt;Node9</title>
<path fill="none" stroke="midnightblue" d="M1019.39,-112.4C1050.53,-102.16 1092.19,-88.47 1121.58,-78.81"/>
<polygon fill="midnightblue" stroke="midnightblue" points="1123.02,-82.02 1131.43,-75.57 1120.83,-75.37 1123.02,-82.02"/>
</g>
<!-- Node33&#45;&gt;Node12 -->
<g id="edge52" class="edge">
<title>Node33&#45;&gt;Node12</title>
<path fill="none" stroke="midnightblue" d="M918.48,-113.49C915.45,-112.95 912.44,-112.45 909.5,-112 760.59,-89.21 584.59,-76.57 487.69,-70.84"/>
<polygon fill="midnightblue" stroke="midnightblue" points="487.89,-67.35 477.7,-70.26 487.48,-74.34 487.89,-67.35"/>
</g>
<!-- Node34&#45;&gt;Node9 -->
<g id="edge56" class="edge">
<title>Node34&#45;&gt;Node9</title>
<path fill="none" stroke="midnightblue" d="M1283.55,-592.47C1324.38,-572.67 1388.5,-532.35 1388.5,-474.5 1388.5,-474.5 1388.5,-474.5 1388.5,-199 1388.5,-113.99 1269.1,-82.98 1201.98,-72.27"/>
<polygon fill="midnightblue" stroke="midnightblue" points="1202.49,-68.81 1192.08,-70.78 1201.45,-75.73 1202.49,-68.81"/>
</g>
<!-- Node34&#45;&gt;Node26 -->
<g id="edge55" class="edge">
<title>Node34&#45;&gt;Node26</title>
<path fill="none" stroke="midnightblue" d="M1258.39,-592.34C1270.8,-568.7 1293.5,-519.33 1293.5,-474.5 1293.5,-474.5 1293.5,-474.5 1293.5,-338.5 1293.5,-264.21 1254.5,-182.01 1235.57,-146.48"/>
<polygon fill="midnightblue" stroke="midnightblue" points="1238.47,-144.48 1230.61,-137.38 1232.32,-147.83 1238.47,-144.48"/>
</g>
<!-- Node35 -->
<g id="node35" class="node">
<title>Node35</title>
<g id="a_node35"><a xlink:href="type__traits_2function_8hpp.html" target="_top" xlink:title="Provides various type traits for use on functions.">
<polygon fill="white" stroke="black" points="1149.5,-525.5 1149.5,-555.5 1265.5,-555.5 1265.5,-525.5 1149.5,-525.5"/>
<text text-anchor="start" x="1157.5" y="-543.5" font-family="Helvetica,sans-Serif" font-size="10.00">bio/meta/type_traits</text>
<text text-anchor="middle" x="1207.5" y="-532.5" font-family="Helvetica,sans-Serif" font-size="10.00">/function.hpp</text>
</a>
</g>
</g>
<!-- Node34&#45;&gt;Node35 -->
<g id="edge57" class="edge">
<title>Node34&#45;&gt;Node35</title>
<path fill="none" stroke="midnightblue" d="M1241.17,-592.4C1235.7,-584.13 1228.67,-573.51 1222.45,-564.1"/>
<polygon fill="midnightblue" stroke="midnightblue" points="1225.25,-561.99 1216.81,-555.58 1219.41,-565.85 1225.25,-561.99"/>
</g>
<!-- Node35&#45;&gt;Node21 -->
<g id="edge58" class="edge">
<title>Node35&#45;&gt;Node21</title>
<path fill="none" stroke="midnightblue" d="M1197.89,-525.36C1167.42,-481.31 1068.66,-344.26 961.5,-257 936.19,-236.39 918.17,-246.25 897.5,-221 879.9,-199.5 872.53,-167.4 869.51,-147.23"/>
<polygon fill="midnightblue" stroke="midnightblue" points="872.96,-146.62 868.22,-137.14 866.02,-147.51 872.96,-146.62"/>
</g>
<!-- Node35&#45;&gt;Node36 -->
<g id="edge59" class="edge">
<title>Node35&#45;&gt;Node36</title>
<path fill="none" stroke="midnightblue" d="M1157.45,-525.48C1121.74,-515.47 1073.55,-501.97 1035.74,-491.38"/>
<polygon fill="midnightblue" stroke="midnightblue" points="1036.44,-487.94 1025.87,-488.61 1034.55,-494.68 1036.44,-487.94"/>
</g>
<!-- Node36&#45;&gt;Node9 -->
<g id="edge60" class="edge">
<title>Node36&#45;&gt;Node9</title>
<path fill="none" stroke="midnightblue" d="M1000.9,-458.47C1058.1,-425.4 1197.11,-336.62 1262.5,-221 1287.07,-177.56 1318.54,-152.59 1289.5,-112 1269.84,-84.52 1232.39,-73.63 1202.39,-69.41"/>
<polygon fill="midnightblue" stroke="midnightblue" points="1202.47,-65.89 1192.13,-68.17 1201.64,-72.84 1202.47,-65.89"/>
</g>
<!-- Node36&#45;&gt;Node30 -->
<g id="edge65" class="edge">
<title>Node36&#45;&gt;Node30</title>
<path fill="none" stroke="midnightblue" d="M953.33,-458.36C940.55,-449.27 924.98,-436.48 914.5,-422 901.88,-404.56 893.43,-381.48 888.4,-364.33"/>
<polygon fill="midnightblue" stroke="midnightblue" points="891.73,-363.24 885.7,-354.53 884.98,-365.1 891.73,-363.24"/>
</g>
<!-- Node37 -->
<g id="node37" class="node">
<title>Node37</title>
<g id="a_node37"><a xlink:href="traits__detail_8hpp.html" target="_top" xlink:title="Provides various traits for template packs.">
<polygon fill="white" stroke="black" points="923,-391.5 923,-421.5 1028,-421.5 1028,-391.5 923,-391.5"/>
<text text-anchor="start" x="931" y="-409.5" font-family="Helvetica,sans-Serif" font-size="10.00">bio/meta/type_list</text>
<text text-anchor="middle" x="975.5" y="-398.5" font-family="Helvetica,sans-Serif" font-size="10.00">/traits_detail.hpp</text>
</a>
</g>
</g>
<!-- Node36&#45;&gt;Node37 -->
<g id="edge61" class="edge">
<title>Node36&#45;&gt;Node37</title>
<path fill="none" stroke="midnightblue" d="M975.5,-458.4C975.5,-450.64 975.5,-440.81 975.5,-431.86"/>
<polygon fill="midnightblue" stroke="midnightblue" points="979,-431.58 975.5,-421.58 972,-431.58 979,-431.58"/>
</g>
<!-- Node37&#45;&gt;Node5 -->
<g id="edge63" class="edge">
<title>Node37&#45;&gt;Node5</title>
<path fill="none" stroke="midnightblue" d="M975.5,-391.4C975.5,-382.06 975.5,-369.71 975.5,-359.52"/>
<polygon fill="midnightblue" stroke="midnightblue" points="979,-359.19 975.5,-349.19 972,-359.19 979,-359.19"/>
</g>
<!-- Node37&#45;&gt;Node9 -->
<g id="edge62" class="edge">
<title>Node37&#45;&gt;Node9</title>
<path fill="none" stroke="midnightblue" d="M1009.59,-391.45C1080.52,-359.8 1240.17,-275.2 1273.5,-143 1276.87,-129.64 1281.28,-123.37 1273.5,-112 1257.5,-88.63 1227.47,-77.4 1201.97,-72"/>
<polygon fill="midnightblue" stroke="midnightblue" points="1202.57,-68.55 1192.1,-70.14 1201.28,-75.43 1202.57,-68.55"/>
</g>
<!-- Node37&#45;&gt;Node30 -->
<g id="edge64" class="edge">
<title>Node37&#45;&gt;Node30</title>
<path fill="none" stroke="midnightblue" d="M955.32,-391.4C942.4,-382.37 925.44,-370.51 911.14,-360.52"/>
<polygon fill="midnightblue" stroke="midnightblue" points="912.84,-357.44 902.64,-354.58 908.83,-363.17 912.84,-357.44"/>
</g>
</g>
</svg>
