<?xml version="1.0" encoding="UTF-8" standalone="no"?>
<!DOCTYPE svg PUBLIC "-//W3C//DTD SVG 1.1//EN"
 "http://www.w3.org/Graphics/SVG/1.1/DTD/svg11.dtd">
<!-- Generated by graphviz version 2.43.0 (0)
 -->
<!-- Title: bio/alphabet/aminoacid/concept.hpp Pages: 1 -->
<svg width="768pt" height="497pt"
 viewBox="0.00 0.00 768.00 497.00" xmlns="http://www.w3.org/2000/svg" xmlns:xlink="http://www.w3.org/1999/xlink">
<g id="graph0" class="graph" transform="scale(1 1) rotate(0) translate(4 493)">
<title>bio/alphabet/aminoacid/concept.hpp</title>
<polygon fill="white" stroke="transparent" points="-4,4 -4,-493 764,-493 764,4 -4,4"/>
<!-- Node1 -->
<g id="node1" class="node">
<title>Node1</title>
<g id="a_node1"><a xlink:title="Provides bio::alphabet::aminoacid_alphabet.">
<polygon fill="#bfbfbf" stroke="black" points="185.5,-458.5 185.5,-488.5 316.5,-488.5 316.5,-458.5 185.5,-458.5"/>
<text text-anchor="start" x="193.5" y="-476.5" font-family="Helvetica,sans-Serif" font-size="10.00">bio/alphabet/aminoacid</text>
<text text-anchor="middle" x="251" y="-465.5" font-family="Helvetica,sans-Serif" font-size="10.00">/concept.hpp</text>
</a>
</g>
</g>
<!-- Node2 -->
<g id="node2" class="node">
<title>Node2</title>
<g id="a_node2"><a xlink:href="aa10li_8hpp.html" target="_top" xlink:title="Provides bio::alphabet::aa10li, container aliases and string literals.">
<polygon fill="white" stroke="black" points="28.5,-324.5 28.5,-354.5 159.5,-354.5 159.5,-324.5 28.5,-324.5"/>
<text text-anchor="start" x="36.5" y="-342.5" font-family="Helvetica,sans-Serif" font-size="10.00">bio/alphabet/aminoacid</text>
<text text-anchor="middle" x="94" y="-331.5" font-family="Helvetica,sans-Serif" font-size="10.00">/aa10li.hpp</text>
</a>
</g>
</g>
<!-- Node1&#45;&gt;Node2 -->
<g id="edge1" class="edge">
<title>Node1&#45;&gt;Node2</title>
<path fill="none" stroke="midnightblue" d="M226.54,-451.94C194.31,-424.84 138.46,-377.88 110.68,-354.52"/>
<polygon fill="midnightblue" stroke="midnightblue" points="224.29,-454.62 234.2,-458.37 228.8,-449.26 224.29,-454.62"/>
</g>
<!-- Node3 -->
<g id="node3" class="node">
<title>Node3</title>
<g id="a_node3"><a xlink:href="alphabet_2aminoacid_2all_8hpp.html" target="_top" xlink:title="Meta&#45;header for the aminoacid submodule; includes all headers from alphabet/aminoacid/.">
<polygon fill="white" stroke="black" points="215.5,-123.5 215.5,-153.5 346.5,-153.5 346.5,-123.5 215.5,-123.5"/>
<text text-anchor="start" x="223.5" y="-141.5" font-family="Helvetica,sans-Serif" font-size="10.00">bio/alphabet/aminoacid</text>
<text text-anchor="middle" x="281" y="-130.5" font-family="Helvetica,sans-Serif" font-size="10.00">/all.hpp</text>
</a>
</g>
</g>
<!-- Node1&#45;&gt;Node3 -->
<g id="edge22" class="edge">
<title>Node1&#45;&gt;Node3</title>
<path fill="none" stroke="midnightblue" d="M175.15,-464.58C101.26,-452.17 0,-420.56 0,-340.5 0,-340.5 0,-340.5 0,-271.5 0,-176.77 132.44,-149.9 215.47,-142.36"/>
<polygon fill="midnightblue" stroke="midnightblue" points="174.95,-468.09 185.38,-466.21 176.05,-461.18 174.95,-468.09"/>
</g>
<!-- Node5 -->
<g id="node5" class="node">
<title>Node5</title>
<g id="a_node5"><a xlink:href="aa10murphy_8hpp.html" target="_top" xlink:title="Provides bio::alphabet::aa10murphy, container aliases and string literals.">
<polygon fill="white" stroke="black" points="177.5,-324.5 177.5,-354.5 308.5,-354.5 308.5,-324.5 177.5,-324.5"/>
<text text-anchor="start" x="185.5" y="-342.5" font-family="Helvetica,sans-Serif" font-size="10.00">bio/alphabet/aminoacid</text>
<text text-anchor="middle" x="243" y="-331.5" font-family="Helvetica,sans-Serif" font-size="10.00">/aa10murphy.hpp</text>
</a>
</g>
</g>
<!-- Node1&#45;&gt;Node5 -->
<g id="edge4" class="edge">
<title>Node1&#45;&gt;Node5</title>
<path fill="none" stroke="midnightblue" d="M235.66,-449.54C230.95,-441.23 226.39,-431.53 224,-422 218.1,-398.46 227.99,-370.95 235.57,-354.67"/>
<polygon fill="midnightblue" stroke="midnightblue" points="232.76,-451.51 240.93,-458.26 238.75,-447.89 232.76,-451.51"/>
</g>
<!-- Node6 -->
<g id="node6" class="node">
<title>Node6</title>
<g id="a_node6"><a xlink:href="aa20_8hpp.html" target="_top" xlink:title="Provides bio::alphabet::aa20, container aliases and string literals.">
<polygon fill="white" stroke="black" points="326.5,-324.5 326.5,-354.5 457.5,-354.5 457.5,-324.5 326.5,-324.5"/>
<text text-anchor="start" x="334.5" y="-342.5" font-family="Helvetica,sans-Serif" font-size="10.00">bio/alphabet/aminoacid</text>
<text text-anchor="middle" x="392" y="-331.5" font-family="Helvetica,sans-Serif" font-size="10.00">/aa20.hpp</text>
</a>
</g>
</g>
<!-- Node1&#45;&gt;Node6 -->
<g id="edge6" class="edge">
<title>Node1&#45;&gt;Node6</title>
<path fill="none" stroke="midnightblue" d="M324.88,-454.82C342.82,-447.35 360.43,-436.81 373,-422 389.26,-402.84 392.22,-372.35 392.43,-354.6"/>
<polygon fill="midnightblue" stroke="midnightblue" points="323.55,-451.58 315.49,-458.45 326.08,-458.11 323.55,-451.58"/>
</g>
<!-- Node7 -->
<g id="node7" class="node">
<title>Node7</title>
<g id="a_node7"><a xlink:href="aa27_8hpp.html" target="_top" xlink:title="Provides bio::alphabet::aa27, container aliases and string literals.">
<polygon fill="white" stroke="black" points="475.5,-324.5 475.5,-354.5 606.5,-354.5 606.5,-324.5 475.5,-324.5"/>
<text text-anchor="start" x="483.5" y="-342.5" font-family="Helvetica,sans-Serif" font-size="10.00">bio/alphabet/aminoacid</text>
<text text-anchor="middle" x="541" y="-331.5" font-family="Helvetica,sans-Serif" font-size="10.00">/aa27.hpp</text>
</a>
</g>
</g>
<!-- Node1&#45;&gt;Node7 -->
<g id="edge8" class="edge">
<title>Node1&#45;&gt;Node7</title>
<path fill="none" stroke="midnightblue" d="M306.46,-455.31C333.31,-446.39 365.77,-434.7 394,-422 439.64,-401.46 490.1,-371.87 518.44,-354.56"/>
<polygon fill="midnightblue" stroke="midnightblue" points="305.25,-452.03 296.84,-458.47 307.43,-458.68 305.25,-452.03"/>
</g>
<!-- Node14 -->
<g id="node14" class="node">
<title>Node14</title>
<g id="a_node14"><a xlink:href="aminoacid__base_8hpp.html" target="_top" xlink:title="Provides bio::alphabet::aminoacid_base.">
<polygon fill="white" stroke="black" points="232.5,-391.5 232.5,-421.5 363.5,-421.5 363.5,-391.5 232.5,-391.5"/>
<text text-anchor="start" x="240.5" y="-409.5" font-family="Helvetica,sans-Serif" font-size="10.00">bio/alphabet/aminoacid</text>
<text text-anchor="middle" x="298" y="-398.5" font-family="Helvetica,sans-Serif" font-size="10.00">/aminoacid_base.hpp</text>
</a>
</g>
</g>
<!-- Node1&#45;&gt;Node14 -->
<g id="edge23" class="edge">
<title>Node1&#45;&gt;Node14</title>
<path fill="none" stroke="midnightblue" d="M267.16,-450.16C274.01,-440.68 281.79,-429.92 287.82,-421.58"/>
<polygon fill="midnightblue" stroke="midnightblue" points="264.22,-448.24 261.2,-458.4 269.89,-452.34 264.22,-448.24"/>
</g>
<!-- Node2&#45;&gt;Node3 -->
<g id="edge2" class="edge">
<title>Node2&#45;&gt;Node3</title>
<path fill="none" stroke="midnightblue" d="M114.32,-316.88C152.8,-275.92 235.39,-188.04 267.67,-153.68"/>
<polygon fill="midnightblue" stroke="midnightblue" points="111.75,-314.5 107.45,-324.19 116.85,-319.3 111.75,-314.5"/>
</g>
<!-- Node4 -->
<g id="node4" class="node">
<title>Node4</title>
<g id="a_node4"><a xlink:href="alphabet_2all_8hpp.html" target="_top" xlink:title="Meta&#45;header for the alphabet module.">
<polygon fill="white" stroke="black" points="224.5,-62 224.5,-81 337.5,-81 337.5,-62 224.5,-62"/>
<text text-anchor="middle" x="281" y="-69" font-family="Helvetica,sans-Serif" font-size="10.00">bio/alphabet/all.hpp</text>
</a>
</g>
</g>
<!-- Node3&#45;&gt;Node4 -->
<g id="edge3" class="edge">
<title>Node3&#45;&gt;Node4</title>
<path fill="none" stroke="midnightblue" d="M281,-113.25C281,-102.02 281,-89.38 281,-81.19"/>
<polygon fill="midnightblue" stroke="midnightblue" points="277.5,-113.4 281,-123.4 284.5,-113.4 277.5,-113.4"/>
</g>
<!-- Node5&#45;&gt;Node3 -->
<g id="edge5" class="edge">
<title>Node5&#45;&gt;Node3</title>
<path fill="none" stroke="midnightblue" d="M246.08,-314.3C250.02,-284.78 257.5,-233.44 267,-190 269.72,-177.56 273.65,-163.62 276.66,-153.55"/>
<polygon fill="midnightblue" stroke="midnightblue" points="242.57,-314.11 244.74,-324.48 249.51,-315.02 242.57,-314.11"/>
</g>
<!-- Node6&#45;&gt;Node3 -->
<g id="edge7" class="edge">
<title>Node6&#45;&gt;Node3</title>
<path fill="none" stroke="midnightblue" d="M343.31,-319.98C328.88,-312.2 314.43,-301.7 305,-288 276.14,-246.04 277.32,-181.84 279.52,-153.63"/>
<polygon fill="midnightblue" stroke="midnightblue" points="341.75,-323.11 352.25,-324.48 344.89,-316.86 341.75,-323.11"/>
</g>
<!-- Node7&#45;&gt;Node3 -->
<g id="edge9" class="edge">
<title>Node7&#45;&gt;Node3</title>
<path fill="none" stroke="midnightblue" d="M465.53,-323.13C412.31,-311.7 348.84,-296.66 339,-288 317.91,-269.44 293.8,-186.94 284.72,-153.57"/>
<polygon fill="midnightblue" stroke="midnightblue" points="464.82,-326.56 475.33,-325.22 466.27,-319.71 464.82,-326.56"/>
</g>
<!-- Node8 -->
<g id="node8" class="node">
<title>Node8</title>
<g id="a_node8"><a xlink:href="translation_8hpp.html" target="_top" xlink:title="Provides functions for translating a triplet of nucleotides into an amino acid.">
<polygon fill="white" stroke="black" points="385.5,-190.5 385.5,-220.5 516.5,-220.5 516.5,-190.5 385.5,-190.5"/>
<text text-anchor="start" x="393.5" y="-208.5" font-family="Helvetica,sans-Serif" font-size="10.00">bio/alphabet/aminoacid</text>
<text text-anchor="middle" x="451" y="-197.5" font-family="Helvetica,sans-Serif" font-size="10.00">/translation.hpp</text>
</a>
</g>
</g>
<!-- Node7&#45;&gt;Node8 -->
<g id="edge10" class="edge">
<title>Node7&#45;&gt;Node8</title>
<path fill="none" stroke="midnightblue" d="M526.69,-315.76C516.21,-299.29 501.52,-276.57 488,-257 479.48,-244.66 469.39,-230.95 461.9,-220.93"/>
<polygon fill="midnightblue" stroke="midnightblue" points="523.74,-317.63 532.04,-324.21 529.65,-313.89 523.74,-317.63"/>
</g>
<!-- Node9 -->
<g id="node9" class="node">
<title>Node9</title>
<g id="a_node9"><a xlink:href="translate_8hpp.html" target="_top" xlink:title="Provides bio::views::translate and bio::views::translate_single.">
<polygon fill="white" stroke="black" points="428.5,-62 428.5,-81 595.5,-81 595.5,-62 428.5,-62"/>
<text text-anchor="middle" x="512" y="-69" font-family="Helvetica,sans-Serif" font-size="10.00">bio/ranges/views/translate.hpp</text>
</a>
</g>
</g>
<!-- Node7&#45;&gt;Node9 -->
<g id="edge20" class="edge">
<title>Node7&#45;&gt;Node9</title>
<path fill="none" stroke="midnightblue" d="M538.66,-313.98C535.82,-284.52 530.8,-233.62 526,-190 521.5,-149.16 515.49,-100.42 513.07,-81.04"/>
<polygon fill="midnightblue" stroke="midnightblue" points="535.2,-314.54 539.64,-324.16 542.16,-313.87 535.2,-314.54"/>
</g>
<!-- Node11 -->
<g id="node11" class="node">
<title>Node11</title>
<g id="a_node11"><a xlink:href="translate__single_8hpp.html" target="_top" xlink:title="Provides bio::views::translate and bio::views::translate_single.">
<polygon fill="white" stroke="black" points="573,-123.5 573,-153.5 719,-153.5 719,-123.5 573,-123.5"/>
<text text-anchor="start" x="581" y="-141.5" font-family="Helvetica,sans-Serif" font-size="10.00">bio/ranges/views/translate</text>
<text text-anchor="middle" x="646" y="-130.5" font-family="Helvetica,sans-Serif" font-size="10.00">_single.hpp</text>
</a>
</g>
</g>
<!-- Node7&#45;&gt;Node11 -->
<g id="edge21" class="edge">
<title>Node7&#45;&gt;Node11</title>
<path fill="none" stroke="midnightblue" d="M553.23,-315.33C575.17,-273.74 620.61,-187.61 638.52,-153.68"/>
<polygon fill="midnightblue" stroke="midnightblue" points="550.12,-313.71 548.55,-324.19 556.31,-316.98 550.12,-313.71"/>
</g>
<!-- Node13 -->
<g id="node13" class="node">
<title>Node13</title>
<g id="a_node13"><a xlink:href="translation__details_8hpp.html" target="_top" xlink:title="Provides translation details for nucleotide to aminoacid translation.">
<polygon fill="white" stroke="black" points="347.5,-257.5 347.5,-287.5 478.5,-287.5 478.5,-257.5 347.5,-257.5"/>
<text text-anchor="start" x="355.5" y="-275.5" font-family="Helvetica,sans-Serif" font-size="10.00">bio/alphabet/aminoacid</text>
<text text-anchor="middle" x="413" y="-264.5" font-family="Helvetica,sans-Serif" font-size="10.00">/translation_details.hpp</text>
</a>
</g>
</g>
<!-- Node7&#45;&gt;Node13 -->
<g id="edge17" class="edge">
<title>Node7&#45;&gt;Node13</title>
<path fill="none" stroke="midnightblue" d="M504.28,-319.85C484.04,-309.58 459.33,-297.03 440.72,-287.58"/>
<polygon fill="midnightblue" stroke="midnightblue" points="502.72,-322.99 513.23,-324.4 505.89,-316.75 502.72,-322.99"/>
</g>
<!-- Node8&#45;&gt;Node3 -->
<g id="edge11" class="edge">
<title>Node8&#45;&gt;Node3</title>
<path fill="none" stroke="midnightblue" d="M404.76,-186.82C377.43,-176.37 343.31,-163.32 317.82,-153.58"/>
<polygon fill="midnightblue" stroke="midnightblue" points="403.52,-190.09 414.11,-190.4 406.02,-183.56 403.52,-190.09"/>
</g>
<!-- Node8&#45;&gt;Node9 -->
<g id="edge12" class="edge">
<title>Node8&#45;&gt;Node9</title>
<path fill="none" stroke="midnightblue" d="M461.81,-181.1C475.61,-151.25 498.79,-101.08 508.03,-81.1"/>
<polygon fill="midnightblue" stroke="midnightblue" points="458.55,-179.83 457.53,-190.37 464.9,-182.76 458.55,-179.83"/>
</g>
<!-- Node8&#45;&gt;Node11 -->
<g id="edge14" class="edge">
<title>Node8&#45;&gt;Node11</title>
<path fill="none" stroke="midnightblue" d="M502.82,-187.23C534.36,-176.71 574.15,-163.45 603.77,-153.58"/>
<polygon fill="midnightblue" stroke="midnightblue" points="501.69,-183.91 493.31,-190.4 503.91,-190.55 501.69,-183.91"/>
</g>
<!-- Node10 -->
<g id="node10" class="node">
<title>Node10</title>
<g id="a_node10"><a xlink:href="ranges_2views_2all_8hpp.html" target="_top" xlink:title="Meta&#45;header for the views submodule .">
<polygon fill="white" stroke="black" points="444.5,-0.5 444.5,-19.5 579.5,-19.5 579.5,-0.5 444.5,-0.5"/>
<text text-anchor="middle" x="512" y="-7.5" font-family="Helvetica,sans-Serif" font-size="10.00">bio/ranges/views/all.hpp</text>
</a>
</g>
</g>
<!-- Node9&#45;&gt;Node10 -->
<g id="edge13" class="edge">
<title>Node9&#45;&gt;Node10</title>
<path fill="none" stroke="midnightblue" d="M512,-51.82C512,-41 512,-27.9 512,-19.51"/>
<polygon fill="midnightblue" stroke="midnightblue" points="508.5,-51.98 512,-61.98 515.5,-51.98 508.5,-51.98"/>
</g>
<!-- Node11&#45;&gt;Node9 -->
<g id="edge15" class="edge">
<title>Node11&#45;&gt;Node9</title>
<path fill="none" stroke="midnightblue" d="M607.79,-118.97C582.05,-106.48 549.31,-90.6 529.54,-81.01"/>
<polygon fill="midnightblue" stroke="midnightblue" points="606.4,-122.18 616.92,-123.4 609.45,-115.88 606.4,-122.18"/>
</g>
<!-- Node12 -->
<g id="node12" class="node">
<title>Node12</title>
<g id="a_node12"><a xlink:href="translate__join_8hpp.html" target="_top" xlink:title="Provides bio::views::translate_join.">
<polygon fill="white" stroke="black" points="614,-56.5 614,-86.5 760,-86.5 760,-56.5 614,-56.5"/>
<text text-anchor="start" x="622" y="-74.5" font-family="Helvetica,sans-Serif" font-size="10.00">bio/ranges/views/translate</text>
<text text-anchor="middle" x="687" y="-63.5" font-family="Helvetica,sans-Serif" font-size="10.00">_join.hpp</text>
</a>
</g>
</g>
<!-- Node11&#45;&gt;Node12 -->
<g id="edge16" class="edge">
<title>Node11&#45;&gt;Node12</title>
<path fill="none" stroke="midnightblue" d="M660.28,-114.87C666.21,-105.46 672.91,-94.83 678.12,-86.58"/>
<polygon fill="midnightblue" stroke="midnightblue" points="657.27,-113.07 654.9,-123.4 663.19,-116.81 657.27,-113.07"/>
</g>
<!-- Node13&#45;&gt;Node3 -->
<g id="edge18" class="edge">
<title>Node13&#45;&gt;Node3</title>
<path fill="none" stroke="midnightblue" d="M391.92,-249.75C375.87,-233.25 353.17,-210.07 333,-190 320.51,-177.58 306.13,-163.64 295.66,-153.56"/>
<polygon fill="midnightblue" stroke="midnightblue" points="389.75,-252.53 399.23,-257.26 394.77,-247.65 389.75,-252.53"/>
</g>
<!-- Node13&#45;&gt;Node8 -->
<g id="edge19" class="edge">
<title>Node13&#45;&gt;Node8</title>
<path fill="none" stroke="midnightblue" d="M426.4,-248.58C431.86,-239.24 437.99,-228.75 442.77,-220.58"/>
<polygon fill="midnightblue" stroke="midnightblue" points="423.27,-247 421.25,-257.4 429.31,-250.53 423.27,-247"/>
</g>
<!-- Node14&#45;&gt;Node2 -->
<g id="edge24" class="edge">
<title>Node14&#45;&gt;Node2</title>
<path fill="none" stroke="midnightblue" d="M244.04,-388.31C211.04,-377.79 169.34,-364.51 138.29,-354.61"/>
<polygon fill="midnightblue" stroke="midnightblue" points="243.4,-391.77 253.99,-391.48 245.52,-385.11 243.4,-391.77"/>
</g>
<!-- Node14&#45;&gt;Node5 -->
<g id="edge25" class="edge">
<title>Node14&#45;&gt;Node5</title>
<path fill="none" stroke="midnightblue" d="M279.58,-383.74C271.45,-374.12 262.11,-363.09 254.91,-354.58"/>
<polygon fill="midnightblue" stroke="midnightblue" points="276.93,-386.02 286.07,-391.4 282.28,-381.5 276.93,-386.02"/>
</g>
<!-- Node14&#45;&gt;Node6 -->
<g id="edge26" class="edge">
<title>Node14&#45;&gt;Node6</title>
<path fill="none" stroke="midnightblue" d="M326.99,-385.45C341.45,-375.45 358.59,-363.6 371.64,-354.58"/>
<polygon fill="midnightblue" stroke="midnightblue" points="324.63,-382.83 318.4,-391.4 328.61,-388.59 324.63,-382.83"/>
</g>
<!-- Node14&#45;&gt;Node7 -->
<g id="edge27" class="edge">
<title>Node14&#45;&gt;Node7</title>
<path fill="none" stroke="midnightblue" d="M360.25,-388.85C399.86,-378.25 450.61,-364.68 488.25,-354.61"/>
<polygon fill="midnightblue" stroke="midnightblue" points="359.18,-385.51 350.43,-391.48 360.99,-392.27 359.18,-385.51"/>
</g>
</g>
</svg>
