<?xml version="1.0" encoding="UTF-8" standalone="no"?>
<!DOCTYPE svg PUBLIC "-//W3C//DTD SVG 1.1//EN"
 "http://www.w3.org/Graphics/SVG/1.1/DTD/svg11.dtd">
<!-- Generated by graphviz version 2.43.0 (0)
 -->
<!-- Title: bio/alphabet/detail/alphabet_proxy.hpp Pages: 1 -->
<svg width="888pt" height="363pt"
 viewBox="0.00 0.00 888.00 363.00" xmlns="http://www.w3.org/2000/svg" xmlns:xlink="http://www.w3.org/1999/xlink">
<g id="graph0" class="graph" transform="scale(1 1) rotate(0) translate(4 359)">
<title>bio/alphabet/detail/alphabet_proxy.hpp</title>
<polygon fill="white" stroke="transparent" points="-4,4 -4,-359 884,-359 884,4 -4,4"/>
<!-- Node1 -->
<g id="node1" class="node">
<title>Node1</title>
<g id="a_node1"><a xlink:title="Provides bio::alphabet_proxy.">
<polygon fill="#bfbfbf" stroke="black" points="428.5,-324.5 428.5,-354.5 543.5,-354.5 543.5,-324.5 428.5,-324.5"/>
<text text-anchor="start" x="436.5" y="-342.5" font-family="Helvetica,sans-Serif" font-size="10.00">bio/alphabet/detail</text>
<text text-anchor="middle" x="486" y="-331.5" font-family="Helvetica,sans-Serif" font-size="10.00">/alphabet_proxy.hpp</text>
</a>
</g>
</g>
<!-- Node2 -->
<g id="node2" class="node">
<title>Node2</title>
<g id="a_node2"><a xlink:href="alphabet__tuple__base_8hpp.html" target="_top" xlink:title="Provides bio::alphabet_tuple_base.">
<polygon fill="white" stroke="black" points="334,-257.5 334,-287.5 476,-287.5 476,-257.5 334,-257.5"/>
<text text-anchor="start" x="342" y="-275.5" font-family="Helvetica,sans-Serif" font-size="10.00">bio/alphabet/composite</text>
<text text-anchor="middle" x="405" y="-264.5" font-family="Helvetica,sans-Serif" font-size="10.00">/alphabet_tuple_base.hpp</text>
</a>
</g>
</g>
<!-- Node1&#45;&gt;Node2 -->
<g id="edge1" class="edge">
<title>Node1&#45;&gt;Node2</title>
<path fill="none" stroke="midnightblue" d="M460.31,-317.88C448,-308.01 433.57,-296.43 422.54,-287.58"/>
<polygon fill="midnightblue" stroke="midnightblue" points="458.43,-320.87 468.42,-324.4 462.82,-315.41 458.43,-320.87"/>
</g>
<!-- Node16 -->
<g id="node16" class="node">
<title>Node16</title>
<g id="a_node16"><a xlink:href="bitcompressed__vector_8hpp.html" target="_top" xlink:title="Provides bio::bitcompressed_vector.">
<polygon fill="white" stroke="black" points="621,-257.5 621,-287.5 769,-287.5 769,-257.5 621,-257.5"/>
<text text-anchor="start" x="629" y="-275.5" font-family="Helvetica,sans-Serif" font-size="10.00">bio/ranges/container</text>
<text text-anchor="middle" x="695" y="-264.5" font-family="Helvetica,sans-Serif" font-size="10.00">/bitcompressed_vector.hpp</text>
</a>
</g>
</g>
<!-- Node1&#45;&gt;Node16 -->
<g id="edge20" class="edge">
<title>Node1&#45;&gt;Node16</title>
<path fill="none" stroke="midnightblue" d="M540.84,-321.44C574.72,-310.91 617.67,-297.55 649.63,-287.61"/>
<polygon fill="midnightblue" stroke="midnightblue" points="539.6,-318.16 531.09,-324.48 541.68,-324.85 539.6,-318.16"/>
</g>
<!-- Node3 -->
<g id="node3" class="node">
<title>Node3</title>
<g id="a_node3"><a xlink:href="cigar_8hpp.html" target="_top" xlink:title="Provides the bio::cigar alphabet.">
<polygon fill="white" stroke="black" points="0,-190.5 0,-220.5 104,-220.5 104,-190.5 0,-190.5"/>
<text text-anchor="start" x="8" y="-208.5" font-family="Helvetica,sans-Serif" font-size="10.00">bio/alphabet/cigar</text>
<text text-anchor="middle" x="52" y="-197.5" font-family="Helvetica,sans-Serif" font-size="10.00">/cigar.hpp</text>
</a>
</g>
</g>
<!-- Node2&#45;&gt;Node3 -->
<g id="edge2" class="edge">
<title>Node2&#45;&gt;Node3</title>
<path fill="none" stroke="midnightblue" d="M323.65,-258.12C266.1,-248.43 187.18,-234.68 118,-221 113.51,-220.11 108.86,-219.16 104.2,-218.18"/>
<polygon fill="midnightblue" stroke="midnightblue" points="323.34,-261.62 333.78,-259.83 324.5,-254.72 323.34,-261.62"/>
</g>
<!-- Node4 -->
<g id="node4" class="node">
<title>Node4</title>
<g id="a_node4"><a xlink:href="alphabet_2composite_2all_8hpp.html" target="_top" xlink:title="Meta&#45;header for the composite submodule; includes all headers from alphabet/composite/.">
<polygon fill="white" stroke="black" points="28.5,-56.5 28.5,-86.5 159.5,-86.5 159.5,-56.5 28.5,-56.5"/>
<text text-anchor="start" x="36.5" y="-74.5" font-family="Helvetica,sans-Serif" font-size="10.00">bio/alphabet/composite</text>
<text text-anchor="middle" x="94" y="-63.5" font-family="Helvetica,sans-Serif" font-size="10.00">/all.hpp</text>
</a>
</g>
</g>
<!-- Node2&#45;&gt;Node4 -->
<g id="edge3" class="edge">
<title>Node2&#45;&gt;Node4</title>
<path fill="none" stroke="midnightblue" d="M323.65,-263.87C259.53,-256.33 176.78,-242.73 151,-221 109.4,-185.94 98.07,-116.9 95.06,-86.94"/>
<polygon fill="midnightblue" stroke="midnightblue" points="323.44,-267.37 333.77,-265.03 324.23,-260.41 323.44,-267.37"/>
</g>
<!-- Node6 -->
<g id="node6" class="node">
<title>Node6</title>
<g id="a_node6"><a xlink:href="masked_8hpp.html" target="_top" xlink:title="Extends a given alphabet with the mask alphabet.">
<polygon fill="white" stroke="black" points="160,-196 160,-215 330,-215 330,-196 160,-196"/>
<text text-anchor="middle" x="245" y="-203" font-family="Helvetica,sans-Serif" font-size="10.00">bio/alphabet/mask/masked.hpp</text>
</a>
</g>
</g>
<!-- Node2&#45;&gt;Node6 -->
<g id="edge5" class="edge">
<title>Node2&#45;&gt;Node6</title>
<path fill="none" stroke="midnightblue" d="M360.99,-253.62C330.02,-241.04 289.96,-224.77 265.94,-215.01"/>
<polygon fill="midnightblue" stroke="midnightblue" points="359.7,-256.87 370.28,-257.4 362.34,-250.39 359.7,-256.87"/>
</g>
<!-- Node8 -->
<g id="node8" class="node">
<title>Node8</title>
<g id="a_node8"><a xlink:href="qualified_8hpp.html" target="_top" xlink:title="Provides quality alphabet composites.">
<polygon fill="white" stroke="black" points="348,-190.5 348,-220.5 462,-220.5 462,-190.5 348,-190.5"/>
<text text-anchor="start" x="356" y="-208.5" font-family="Helvetica,sans-Serif" font-size="10.00">bio/alphabet/quality</text>
<text text-anchor="middle" x="405" y="-197.5" font-family="Helvetica,sans-Serif" font-size="10.00">/qualified.hpp</text>
</a>
</g>
</g>
<!-- Node2&#45;&gt;Node8 -->
<g id="edge8" class="edge">
<title>Node2&#45;&gt;Node8</title>
<path fill="none" stroke="midnightblue" d="M405,-247.11C405,-238.15 405,-228.32 405,-220.58"/>
<polygon fill="midnightblue" stroke="midnightblue" points="401.5,-247.4 405,-257.4 408.5,-247.4 401.5,-247.4"/>
</g>
<!-- Node13 -->
<g id="node13" class="node">
<title>Node13</title>
<g id="a_node13"><a xlink:href="structured__aa_8hpp.html" target="_top" xlink:title="Provides the composite of aminoacid with structure alphabets.">
<polygon fill="white" stroke="black" points="480,-190.5 480,-220.5 604,-220.5 604,-190.5 480,-190.5"/>
<text text-anchor="start" x="488" y="-208.5" font-family="Helvetica,sans-Serif" font-size="10.00">bio/alphabet/structure</text>
<text text-anchor="middle" x="542" y="-197.5" font-family="Helvetica,sans-Serif" font-size="10.00">/structured_aa.hpp</text>
</a>
</g>
</g>
<!-- Node2&#45;&gt;Node13 -->
<g id="edge15" class="edge">
<title>Node2&#45;&gt;Node13</title>
<path fill="none" stroke="midnightblue" d="M444.01,-252.99C465.72,-242.69 492.33,-230.07 512.33,-220.58"/>
<polygon fill="midnightblue" stroke="midnightblue" points="442.26,-249.95 434.73,-257.4 445.26,-256.27 442.26,-249.95"/>
</g>
<!-- Node15 -->
<g id="node15" class="node">
<title>Node15</title>
<g id="a_node15"><a xlink:href="structured__rna_8hpp.html" target="_top" xlink:title="Provides the composite of nucleotide with structure alphabets.">
<polygon fill="white" stroke="black" points="622,-190.5 622,-220.5 746,-220.5 746,-190.5 622,-190.5"/>
<text text-anchor="start" x="630" y="-208.5" font-family="Helvetica,sans-Serif" font-size="10.00">bio/alphabet/structure</text>
<text text-anchor="middle" x="684" y="-197.5" font-family="Helvetica,sans-Serif" font-size="10.00">/structured_rna.hpp</text>
</a>
</g>
</g>
<!-- Node2&#45;&gt;Node15 -->
<g id="edge18" class="edge">
<title>Node2&#45;&gt;Node15</title>
<path fill="none" stroke="midnightblue" d="M475.03,-255.19C520.72,-244.54 579.77,-230.78 623.43,-220.61"/>
<polygon fill="midnightblue" stroke="midnightblue" points="474.14,-251.8 465.2,-257.48 475.73,-258.62 474.14,-251.8"/>
</g>
<!-- Node5 -->
<g id="node5" class="node">
<title>Node5</title>
<g id="a_node5"><a xlink:href="alphabet_2all_8hpp.html" target="_top" xlink:title="Meta&#45;header for the alphabet module.">
<polygon fill="white" stroke="black" points="265.5,-0.5 265.5,-19.5 378.5,-19.5 378.5,-0.5 265.5,-0.5"/>
<text text-anchor="middle" x="322" y="-7.5" font-family="Helvetica,sans-Serif" font-size="10.00">bio/alphabet/all.hpp</text>
</a>
</g>
</g>
<!-- Node4&#45;&gt;Node5 -->
<g id="edge4" class="edge">
<title>Node4&#45;&gt;Node5</title>
<path fill="none" stroke="midnightblue" d="M157.52,-53.92C200.37,-42.74 255.14,-28.45 289.4,-19.51"/>
<polygon fill="midnightblue" stroke="midnightblue" points="156.54,-50.56 147.74,-56.47 158.3,-57.34 156.54,-50.56"/>
</g>
<!-- Node7 -->
<g id="node7" class="node">
<title>Node7</title>
<g id="a_node7"><a xlink:href="alphabet_2mask_2all_8hpp.html" target="_top" xlink:title="Meta&#45;header for the mask submodule; includes all headers from alphabet/mask/.">
<polygon fill="white" stroke="black" points="177.5,-62 177.5,-81 320.5,-81 320.5,-62 177.5,-62"/>
<text text-anchor="middle" x="249" y="-69" font-family="Helvetica,sans-Serif" font-size="10.00">bio/alphabet/mask/all.hpp</text>
</a>
</g>
</g>
<!-- Node6&#45;&gt;Node7 -->
<g id="edge6" class="edge">
<title>Node6&#45;&gt;Node7</title>
<path fill="none" stroke="midnightblue" d="M245.57,-185.78C246.45,-156.75 248.1,-102.04 248.74,-81.02"/>
<polygon fill="midnightblue" stroke="midnightblue" points="242.07,-185.74 245.26,-195.84 249.06,-185.95 242.07,-185.74"/>
</g>
<!-- Node7&#45;&gt;Node5 -->
<g id="edge7" class="edge">
<title>Node7&#45;&gt;Node5</title>
<path fill="none" stroke="midnightblue" d="M267.44,-55.47C281.4,-44.09 300.08,-28.87 311.56,-19.51"/>
<polygon fill="midnightblue" stroke="midnightblue" points="265,-52.94 259.46,-61.98 269.42,-58.37 265,-52.94"/>
</g>
<!-- Node9 -->
<g id="node9" class="node">
<title>Node9</title>
<g id="a_node9"><a xlink:href="aliases_8hpp.html" target="_top" xlink:title="Provides aliases for qualified.">
<polygon fill="white" stroke="black" points="273,-123.5 273,-153.5 387,-153.5 387,-123.5 273,-123.5"/>
<text text-anchor="start" x="281" y="-141.5" font-family="Helvetica,sans-Serif" font-size="10.00">bio/alphabet/quality</text>
<text text-anchor="middle" x="330" y="-130.5" font-family="Helvetica,sans-Serif" font-size="10.00">/aliases.hpp</text>
</a>
</g>
</g>
<!-- Node8&#45;&gt;Node9 -->
<g id="edge9" class="edge">
<title>Node8&#45;&gt;Node9</title>
<path fill="none" stroke="midnightblue" d="M380.88,-183.6C369.56,-173.78 356.36,-162.34 346.24,-153.58"/>
<polygon fill="midnightblue" stroke="midnightblue" points="378.88,-186.49 388.73,-190.4 383.46,-181.2 378.88,-186.49"/>
</g>
<!-- Node10 -->
<g id="node10" class="node">
<title>Node10</title>
<g id="a_node10"><a xlink:href="alphabet_2quality_2all_8hpp.html" target="_top" xlink:title="Meta&#45;header that includes all headers from alphabet/quality/.">
<polygon fill="white" stroke="black" points="339,-56.5 339,-86.5 453,-86.5 453,-56.5 339,-56.5"/>
<text text-anchor="start" x="347" y="-74.5" font-family="Helvetica,sans-Serif" font-size="10.00">bio/alphabet/quality</text>
<text text-anchor="middle" x="396" y="-63.5" font-family="Helvetica,sans-Serif" font-size="10.00">/all.hpp</text>
</a>
</g>
</g>
<!-- Node8&#45;&gt;Node10 -->
<g id="edge12" class="edge">
<title>Node8&#45;&gt;Node10</title>
<path fill="none" stroke="midnightblue" d="M403.36,-180.39C401.48,-152.9 398.48,-108.89 396.96,-86.52"/>
<polygon fill="midnightblue" stroke="midnightblue" points="399.86,-180.63 404.04,-190.37 406.85,-180.16 399.86,-180.63"/>
</g>
<!-- Node11 -->
<g id="node11" class="node">
<title>Node11</title>
<g id="a_node11"><a xlink:href="trim__quality_8hpp.html" target="_top" xlink:title="Provides bio::views::trim_quality.">
<polygon fill="white" stroke="black" points="443,-123.5 443,-153.5 565,-153.5 565,-123.5 443,-123.5"/>
<text text-anchor="start" x="451" y="-141.5" font-family="Helvetica,sans-Serif" font-size="10.00">bio/ranges/views/trim</text>
<text text-anchor="middle" x="504" y="-130.5" font-family="Helvetica,sans-Serif" font-size="10.00">_quality.hpp</text>
</a>
</g>
</g>
<!-- Node8&#45;&gt;Node11 -->
<g id="edge13" class="edge">
<title>Node8&#45;&gt;Node11</title>
<path fill="none" stroke="midnightblue" d="M435.11,-184.73C450.42,-174.68 468.69,-162.68 482.56,-153.58"/>
<polygon fill="midnightblue" stroke="midnightblue" points="432.92,-181.98 426.48,-190.4 436.76,-187.83 432.92,-181.98"/>
</g>
<!-- Node9&#45;&gt;Node10 -->
<g id="edge10" class="edge">
<title>Node9&#45;&gt;Node10</title>
<path fill="none" stroke="midnightblue" d="M351.51,-116.31C361.41,-106.56 372.89,-95.26 381.71,-86.58"/>
<polygon fill="midnightblue" stroke="midnightblue" points="348.99,-113.89 344.32,-123.4 353.9,-118.87 348.99,-113.89"/>
</g>
<!-- Node10&#45;&gt;Node5 -->
<g id="edge11" class="edge">
<title>Node10&#45;&gt;Node5</title>
<path fill="none" stroke="midnightblue" d="M370.37,-49.89C357.5,-39.54 342.59,-27.56 332.77,-19.66"/>
<polygon fill="midnightblue" stroke="midnightblue" points="368.48,-52.86 378.46,-56.4 372.86,-47.41 368.48,-52.86"/>
</g>
<!-- Node12 -->
<g id="node12" class="node">
<title>Node12</title>
<g id="a_node12"><a xlink:href="ranges_2views_2all_8hpp.html" target="_top" xlink:title="Meta&#45;header for the views submodule .">
<polygon fill="white" stroke="black" points="471.5,-62 471.5,-81 606.5,-81 606.5,-62 471.5,-62"/>
<text text-anchor="middle" x="539" y="-69" font-family="Helvetica,sans-Serif" font-size="10.00">bio/ranges/views/all.hpp</text>
</a>
</g>
</g>
<!-- Node11&#45;&gt;Node12 -->
<g id="edge14" class="edge">
<title>Node11&#45;&gt;Node12</title>
<path fill="none" stroke="midnightblue" d="M516.5,-114.29C522.68,-102.8 529.78,-89.63 534.32,-81.19"/>
<polygon fill="midnightblue" stroke="midnightblue" points="513.25,-112.93 511.59,-123.4 519.42,-116.25 513.25,-112.93"/>
</g>
<!-- Node14 -->
<g id="node14" class="node">
<title>Node14</title>
<g id="a_node14"><a xlink:href="alphabet_2structure_2all_8hpp.html" target="_top" xlink:title="Meta&#45;header for the structure module. It includes all headers from alphabet/structure/.">
<polygon fill="white" stroke="black" points="583,-123.5 583,-153.5 707,-153.5 707,-123.5 583,-123.5"/>
<text text-anchor="start" x="591" y="-141.5" font-family="Helvetica,sans-Serif" font-size="10.00">bio/alphabet/structure</text>
<text text-anchor="middle" x="645" y="-130.5" font-family="Helvetica,sans-Serif" font-size="10.00">/all.hpp</text>
</a>
</g>
</g>
<!-- Node13&#45;&gt;Node14 -->
<g id="edge16" class="edge">
<title>Node13&#45;&gt;Node14</title>
<path fill="none" stroke="midnightblue" d="M572.88,-185.02C588.9,-174.9 608.13,-162.77 622.69,-153.58"/>
<polygon fill="midnightblue" stroke="midnightblue" points="570.94,-182.1 564.35,-190.4 574.67,-188.02 570.94,-182.1"/>
</g>
<!-- Node14&#45;&gt;Node5 -->
<g id="edge17" class="edge">
<title>Node14&#45;&gt;Node5</title>
<path fill="none" stroke="midnightblue" d="M642.92,-113.13C639.99,-94.61 632.94,-69.99 616,-56 580.77,-26.9 453.71,-16.53 378.65,-12.9"/>
<polygon fill="midnightblue" stroke="midnightblue" points="639.47,-113.74 644.21,-123.21 646.41,-112.85 639.47,-113.74"/>
</g>
<!-- Node15&#45;&gt;Node14 -->
<g id="edge19" class="edge">
<title>Node15&#45;&gt;Node14</title>
<path fill="none" stroke="midnightblue" d="M670.25,-181.58C664.64,-172.24 658.35,-161.75 653.45,-153.58"/>
<polygon fill="midnightblue" stroke="midnightblue" points="667.39,-183.62 675.54,-190.4 673.39,-180.02 667.39,-183.62"/>
</g>
<!-- Node17 -->
<g id="node17" class="node">
<title>Node17</title>
<g id="a_node17"><a xlink:href="ranges_2container_2all_8hpp.html" target="_top" xlink:title="Meta&#45;header for the container submodule .">
<polygon fill="white" stroke="black" points="764,-190.5 764,-220.5 880,-220.5 880,-190.5 764,-190.5"/>
<text text-anchor="start" x="772" y="-208.5" font-family="Helvetica,sans-Serif" font-size="10.00">bio/ranges/container</text>
<text text-anchor="middle" x="822" y="-197.5" font-family="Helvetica,sans-Serif" font-size="10.00">/all.hpp</text>
</a>
</g>
</g>
<!-- Node16&#45;&gt;Node17 -->
<g id="edge21" class="edge">
<title>Node16&#45;&gt;Node17</title>
<path fill="none" stroke="midnightblue" d="M731.7,-252.71C751.73,-242.46 776.12,-229.98 794.5,-220.58"/>
<polygon fill="midnightblue" stroke="midnightblue" points="729.86,-249.72 722.56,-257.4 733.05,-255.96 729.86,-249.72"/>
</g>
<!-- Node18 -->
<g id="node18" class="node">
<title>Node18</title>
<g id="a_node18"><a xlink:href="ranges_2all_8hpp.html" target="_top" xlink:title="Meta&#45;header for the range module .">
<polygon fill="white" stroke="black" points="770,-129 770,-148 874,-148 874,-129 770,-129"/>
<text text-anchor="middle" x="822" y="-136" font-family="Helvetica,sans-Serif" font-size="10.00">bio/ranges/all.hpp</text>
</a>
</g>
</g>
<!-- Node17&#45;&gt;Node18 -->
<g id="edge22" class="edge">
<title>Node17&#45;&gt;Node18</title>
<path fill="none" stroke="midnightblue" d="M822,-180.25C822,-169.02 822,-156.38 822,-148.19"/>
<polygon fill="midnightblue" stroke="midnightblue" points="818.5,-180.4 822,-190.4 825.5,-180.4 818.5,-180.4"/>
</g>
</g>
</svg>
