<?xml version="1.0" encoding="UTF-8" standalone="no"?>
<!DOCTYPE svg PUBLIC "-//W3C//DTD SVG 1.1//EN"
 "http://www.w3.org/Graphics/SVG/1.1/DTD/svg11.dtd">
<!-- Generated by graphviz version 2.42.2 ()
 -->
<!-- Title: bio/alphabet/detail/alphabet_proxy.hpp Pages: 1 -->
<svg width="1306pt" height="419pt"
 viewBox="0.00 0.00 1306.00 419.00" xmlns="http://www.w3.org/2000/svg" xmlns:xlink="http://www.w3.org/1999/xlink">
<g id="graph0" class="graph" transform="scale(1 1) rotate(0) translate(4 415)">
<title>bio/alphabet/detail/alphabet_proxy.hpp</title>
<polygon fill="white" stroke="transparent" points="-4,4 -4,-415 1302,-415 1302,4 -4,4"/>
<!-- Node1 -->
<g id="node1" class="node">
<title>Node1</title>
<g id="a_node1"><a xlink:title="Provides bio::alphabet::alphabet_proxy.">
<polygon fill="#bfbfbf" stroke="black" points="651,-380.5 651,-410.5 754,-410.5 754,-380.5 651,-380.5"/>
<text text-anchor="start" x="659" y="-398.5" font-family="Helvetica,sans-Serif" font-size="10.00">bio/alphabet/detail</text>
<text text-anchor="middle" x="702.5" y="-387.5" font-family="Helvetica,sans-Serif" font-size="10.00">/alphabet_proxy.hpp</text>
</a>
</g>
</g>
<!-- Node2 -->
<g id="node2" class="node">
<title>Node2</title>
<g id="a_node2"><a target="_blank" xlink:href="https://en.cppreference.com/w/cpp/header/concepts.html" xlink:title=" ">
<polygon fill="white" stroke="black" points="621.5,-112.5 621.5,-131.5 677.5,-131.5 677.5,-112.5 621.5,-112.5"/>
<text text-anchor="middle" x="649.5" y="-119.5" font-family="Helvetica,sans-Serif" font-size="10.00">concepts</text>
</a>
</g>
</g>
<!-- Node1&#45;&gt;Node2 -->
<g id="edge1" class="edge">
<title>Node1&#45;&gt;Node2</title>
<path fill="none" stroke="midnightblue" d="M674.78,-380.46C661.16,-371.94 646.09,-359.67 638.5,-344 605.26,-275.43 630.13,-180.45 643.02,-141.14"/>
<polygon fill="midnightblue" stroke="midnightblue" points="646.36,-142.2 646.28,-131.6 639.74,-139.93 646.36,-142.2"/>
</g>
<!-- Node3 -->
<g id="node3" class="node">
<title>Node3</title>
<g id="a_node3"><a xlink:href="alphabet__base_8hpp.html" target="_top" xlink:title="Provides bio::alphabet::alphabet_base.">
<polygon fill="white" stroke="black" points="648,-313.5 648,-343.5 757,-343.5 757,-313.5 648,-313.5"/>
<text text-anchor="start" x="656" y="-331.5" font-family="Helvetica,sans-Serif" font-size="10.00">bio/alphabet/alphabet</text>
<text text-anchor="middle" x="702.5" y="-320.5" font-family="Helvetica,sans-Serif" font-size="10.00">_base.hpp</text>
</a>
</g>
</g>
<!-- Node1&#45;&gt;Node3 -->
<g id="edge2" class="edge">
<title>Node1&#45;&gt;Node3</title>
<path fill="none" stroke="midnightblue" d="M702.5,-380.4C702.5,-372.64 702.5,-362.81 702.5,-353.86"/>
<polygon fill="midnightblue" stroke="midnightblue" points="706,-353.58 702.5,-343.58 699,-353.58 706,-353.58"/>
</g>
<!-- Node15 -->
<g id="node15" class="node">
<title>Node15</title>
<g id="a_node15"><a xlink:href="core__language_8hpp.html" target="_top" xlink:title="Provides concepts for core language types and relations that don&#39;t have concepts in C++20 (yet).">
<polygon fill="white" stroke="black" points="678,-168.5 678,-198.5 791,-198.5 791,-168.5 678,-168.5"/>
<text text-anchor="start" x="686" y="-186.5" font-family="Helvetica,sans-Serif" font-size="10.00">bio/meta/concept/core</text>
<text text-anchor="middle" x="734.5" y="-175.5" font-family="Helvetica,sans-Serif" font-size="10.00">_language.hpp</text>
</a>
</g>
</g>
<!-- Node1&#45;&gt;Node15 -->
<g id="edge44" class="edge">
<title>Node1&#45;&gt;Node15</title>
<path fill="none" stroke="midnightblue" d="M729.8,-380.36C743.2,-371.81 758.04,-359.54 765.5,-344 787.07,-299.06 764.09,-240.16 747.79,-207.99"/>
<polygon fill="midnightblue" stroke="midnightblue" points="750.76,-206.12 743,-198.91 744.57,-209.38 750.76,-206.12"/>
</g>
<!-- Node21 -->
<g id="node21" class="node">
<title>Node21</title>
<g id="a_node21"><a xlink:href="basic_8hpp.html" target="_top" xlink:title="Provides various type traits on generic types.">
<polygon fill="white" stroke="black" points="1074,-168.5 1074,-198.5 1177,-198.5 1177,-168.5 1074,-168.5"/>
<text text-anchor="start" x="1082" y="-186.5" font-family="Helvetica,sans-Serif" font-size="10.00">bio/meta/type_traits</text>
<text text-anchor="middle" x="1125.5" y="-175.5" font-family="Helvetica,sans-Serif" font-size="10.00">/basic.hpp</text>
</a>
</g>
</g>
<!-- Node1&#45;&gt;Node21 -->
<g id="edge45" class="edge">
<title>Node1&#45;&gt;Node21</title>
<path fill="none" stroke="midnightblue" d="M754.1,-391.31C813.63,-386.34 913.7,-373.97 994.5,-344 1048.88,-323.83 1072.93,-324.3 1106.5,-277 1120.67,-257.03 1124.77,-228.88 1125.73,-208.89"/>
<polygon fill="midnightblue" stroke="midnightblue" points="1129.24,-208.81 1125.99,-198.73 1122.24,-208.64 1129.24,-208.81"/>
</g>
<!-- Node25 -->
<g id="node25" class="node">
<title>Node25</title>
<g id="a_node25"><a xlink:href="alphabet_2nucleotide_2concept_8hpp.html" target="_top" xlink:title="Provides bio::alphabet::nucleotide_alphabet.">
<polygon fill="white" stroke="black" points="471.5,-313.5 471.5,-343.5 587.5,-343.5 587.5,-313.5 471.5,-313.5"/>
<text text-anchor="start" x="479.5" y="-331.5" font-family="Helvetica,sans-Serif" font-size="10.00">bio/alphabet/nucleotide</text>
<text text-anchor="middle" x="529.5" y="-320.5" font-family="Helvetica,sans-Serif" font-size="10.00">/concept.hpp</text>
</a>
</g>
</g>
<!-- Node1&#45;&gt;Node25 -->
<g id="edge39" class="edge">
<title>Node1&#45;&gt;Node25</title>
<path fill="none" stroke="midnightblue" d="M664.96,-380.4C639,-370.64 604.28,-357.59 576.48,-347.15"/>
<polygon fill="midnightblue" stroke="midnightblue" points="577.56,-343.82 566.97,-343.58 575.1,-350.37 577.56,-343.82"/>
</g>
<!-- Node26 -->
<g id="node26" class="node">
<title>Node26</title>
<g id="a_node26"><a xlink:href="alphabet_2quality_2concept_8hpp.html" target="_top" xlink:title="Quality alphabet concept.">
<polygon fill="white" stroke="black" points="352,-313.5 352,-343.5 453,-343.5 453,-313.5 352,-313.5"/>
<text text-anchor="start" x="360" y="-331.5" font-family="Helvetica,sans-Serif" font-size="10.00">bio/alphabet/quality</text>
<text text-anchor="middle" x="402.5" y="-320.5" font-family="Helvetica,sans-Serif" font-size="10.00">/concept.hpp</text>
</a>
</g>
</g>
<!-- Node1&#45;&gt;Node26 -->
<g id="edge42" class="edge">
<title>Node1&#45;&gt;Node26</title>
<path fill="none" stroke="midnightblue" d="M650.91,-384.11C604.42,-374.64 533.97,-360.03 463.2,-344.12"/>
<polygon fill="midnightblue" stroke="midnightblue" points="463.74,-340.65 453.21,-341.87 462.2,-347.48 463.74,-340.65"/>
</g>
<!-- Node27 -->
<g id="node27" class="node">
<title>Node27</title>
<g id="a_node27"><a xlink:href="template__inspection_8hpp.html" target="_top" xlink:title="Provides various traits to inspect templates.">
<polygon fill="white" stroke="black" points="860,-313.5 860,-343.5 985,-343.5 985,-313.5 860,-313.5"/>
<text text-anchor="start" x="868" y="-331.5" font-family="Helvetica,sans-Serif" font-size="10.00">bio/meta/type_traits</text>
<text text-anchor="middle" x="922.5" y="-320.5" font-family="Helvetica,sans-Serif" font-size="10.00">/template_inspection.hpp</text>
</a>
</g>
</g>
<!-- Node1&#45;&gt;Node27 -->
<g id="edge46" class="edge">
<title>Node1&#45;&gt;Node27</title>
<path fill="none" stroke="midnightblue" d="M749.97,-380.48C783.68,-370.51 829.13,-357.09 864.92,-346.51"/>
<polygon fill="midnightblue" stroke="midnightblue" points="866.14,-349.8 874.74,-343.61 864.16,-343.09 866.14,-349.8"/>
</g>
<!-- Node3&#45;&gt;Node2 -->
<g id="edge4" class="edge">
<title>Node3&#45;&gt;Node2</title>
<path fill="none" stroke="midnightblue" d="M690.41,-313.49C682.81,-303.88 673.53,-290.46 668.5,-277 651.18,-230.66 648.93,-171.57 649.04,-141.86"/>
<polygon fill="midnightblue" stroke="midnightblue" points="652.55,-141.72 649.18,-131.68 645.55,-141.63 652.55,-141.72"/>
</g>
<!-- Node4 -->
<g id="node4" class="node">
<title>Node4</title>
<g id="a_node4"><a target="_blank" xlink:href="https://en.cppreference.com/w/cpp/header/cassert.html" xlink:title=" ">
<polygon fill="white" stroke="black" points="678,-246.5 678,-265.5 727,-265.5 727,-246.5 678,-246.5"/>
<text text-anchor="middle" x="702.5" y="-253.5" font-family="Helvetica,sans-Serif" font-size="10.00">cassert</text>
</a>
</g>
</g>
<!-- Node3&#45;&gt;Node4 -->
<g id="edge3" class="edge">
<title>Node3&#45;&gt;Node4</title>
<path fill="none" stroke="midnightblue" d="M702.5,-313.23C702.5,-302.5 702.5,-287.69 702.5,-275.96"/>
<polygon fill="midnightblue" stroke="midnightblue" points="706,-275.89 702.5,-265.89 699,-275.89 706,-275.89"/>
</g>
<!-- Node5 -->
<g id="node5" class="node">
<title>Node5</title>
<g id="a_node5"><a target="_blank" xlink:href="https://en.cppreference.com/w/cpp/header/type_traits.html" xlink:title=" ">
<polygon fill="white" stroke="black" points="976.5,-112.5 976.5,-131.5 1038.5,-131.5 1038.5,-112.5 976.5,-112.5"/>
<text text-anchor="middle" x="1007.5" y="-119.5" font-family="Helvetica,sans-Serif" font-size="10.00">type_traits</text>
</a>
</g>
</g>
<!-- Node3&#45;&gt;Node5 -->
<g id="edge5" class="edge">
<title>Node3&#45;&gt;Node5</title>
<path fill="none" stroke="midnightblue" d="M757.07,-315.53C819.01,-299.26 919.23,-264.39 979.5,-199 994.21,-183.04 1001.36,-158.69 1004.72,-141.88"/>
<polygon fill="midnightblue" stroke="midnightblue" points="1008.24,-142.08 1006.49,-131.63 1001.34,-140.89 1008.24,-142.08"/>
</g>
<!-- Node6 -->
<g id="node6" class="node">
<title>Node6</title>
<g id="a_node6"><a xlink:href="alphabet_2concept_8hpp.html" target="_top" xlink:title="Core alphabet concept and free function/type trait wrappers.">
<polygon fill="white" stroke="black" points="420,-246.5 420,-265.5 545,-265.5 545,-246.5 420,-246.5"/>
<text text-anchor="middle" x="482.5" y="-253.5" font-family="Helvetica,sans-Serif" font-size="10.00">bio/alphabet/concept.hpp</text>
</a>
</g>
</g>
<!-- Node3&#45;&gt;Node6 -->
<g id="edge6" class="edge">
<title>Node3&#45;&gt;Node6</title>
<path fill="none" stroke="midnightblue" d="M658.77,-313.49C617.82,-300.36 557.33,-280.98 518.93,-268.67"/>
<polygon fill="midnightblue" stroke="midnightblue" points="519.79,-265.27 509.2,-265.55 517.65,-271.94 519.79,-265.27"/>
</g>
<!-- Node23 -->
<g id="node23" class="node">
<title>Node23</title>
<g id="a_node23"><a xlink:href="int__types_8hpp.html" target="_top" xlink:title="Provides metaprogramming utilities for integer types.">
<polygon fill="white" stroke="black" points="847.5,-168.5 847.5,-198.5 941.5,-198.5 941.5,-168.5 847.5,-168.5"/>
<text text-anchor="start" x="855.5" y="-186.5" font-family="Helvetica,sans-Serif" font-size="10.00">bio/meta/detail/int</text>
<text text-anchor="middle" x="894.5" y="-175.5" font-family="Helvetica,sans-Serif" font-size="10.00">_types.hpp</text>
</a>
</g>
</g>
<!-- Node3&#45;&gt;Node23 -->
<g id="edge34" class="edge">
<title>Node3&#45;&gt;Node23</title>
<path fill="none" stroke="midnightblue" d="M711.31,-313.2C724.16,-293.35 749.78,-257.37 779.5,-235 797.7,-221.3 820.19,-210.38 840.45,-202.24"/>
<polygon fill="midnightblue" stroke="midnightblue" points="841.82,-205.46 849.88,-198.58 839.29,-198.93 841.82,-205.46"/>
</g>
<!-- Node6&#45;&gt;Node5 -->
<g id="edge7" class="edge">
<title>Node6&#45;&gt;Node5</title>
<path fill="none" stroke="midnightblue" d="M545.18,-248.14C670.72,-234.33 941.79,-204.02 950.5,-199 973.54,-185.71 990.17,-159.01 999.32,-141.07"/>
<polygon fill="midnightblue" stroke="midnightblue" points="1002.55,-142.44 1003.74,-131.91 996.24,-139.4 1002.55,-142.44"/>
</g>
<!-- Node7 -->
<g id="node7" class="node">
<title>Node7</title>
<g id="a_node7"><a xlink:href="alphabet_2biocpp_8hpp.html" target="_top" xlink:title="Module header with module&#45;wide definitions.">
<polygon fill="white" stroke="black" points="315,-112.5 315,-131.5 434,-131.5 434,-112.5 315,-112.5"/>
<text text-anchor="middle" x="374.5" y="-119.5" font-family="Helvetica,sans-Serif" font-size="10.00">bio/alphabet/biocpp.hpp</text>
</a>
</g>
</g>
<!-- Node6&#45;&gt;Node7 -->
<g id="edge8" class="edge">
<title>Node6&#45;&gt;Node7</title>
<path fill="none" stroke="midnightblue" d="M419.85,-246.85C364.41,-238.2 289.58,-222.51 271.5,-199 263.1,-188.08 263.96,-179.53 271.5,-168 282,-151.95 299.63,-141.59 317.35,-134.92"/>
<polygon fill="midnightblue" stroke="midnightblue" points="318.83,-138.11 327.17,-131.58 316.57,-131.49 318.83,-138.11"/>
</g>
<!-- Node12 -->
<g id="node12" class="node">
<title>Node12</title>
<g id="a_node12"><a xlink:href="exception_8hpp.html" target="_top" xlink:title="Exceptions thrown by entities in the alphabet module.">
<polygon fill="white" stroke="black" points="281,-174 281,-193 414,-193 414,-174 281,-174"/>
<text text-anchor="middle" x="347.5" y="-181" font-family="Helvetica,sans-Serif" font-size="10.00">bio/alphabet/exception.hpp</text>
</a>
</g>
</g>
<!-- Node6&#45;&gt;Node12 -->
<g id="edge13" class="edge">
<title>Node6&#45;&gt;Node12</title>
<path fill="none" stroke="midnightblue" d="M466.22,-246.5C443,-234.37 400.19,-212.02 372.82,-197.72"/>
<polygon fill="midnightblue" stroke="midnightblue" points="374.33,-194.56 363.84,-193.03 371.09,-200.77 374.33,-194.56"/>
</g>
<!-- Node6&#45;&gt;Node15 -->
<g id="edge18" class="edge">
<title>Node6&#45;&gt;Node15</title>
<path fill="none" stroke="midnightblue" d="M512.9,-246.5C552.78,-235.34 623.67,-215.5 674.54,-201.27"/>
<polygon fill="midnightblue" stroke="midnightblue" points="675.75,-204.57 684.44,-198.51 673.86,-197.83 675.75,-204.57"/>
</g>
<!-- Node16 -->
<g id="node16" class="node">
<title>Node16</title>
<g id="a_node16"><a xlink:href="priority__tag_8hpp.html" target="_top" xlink:title="provides bio::meta::detail::priority_tag.">
<polygon fill="white" stroke="black" points="432,-168.5 432,-198.5 545,-198.5 545,-168.5 432,-168.5"/>
<text text-anchor="start" x="440" y="-186.5" font-family="Helvetica,sans-Serif" font-size="10.00">bio/meta/detail/priority</text>
<text text-anchor="middle" x="488.5" y="-175.5" font-family="Helvetica,sans-Serif" font-size="10.00">_tag.hpp</text>
</a>
</g>
</g>
<!-- Node6&#45;&gt;Node16 -->
<g id="edge22" class="edge">
<title>Node6&#45;&gt;Node16</title>
<path fill="none" stroke="midnightblue" d="M483.24,-246.36C484.03,-237.05 485.32,-221.83 486.43,-208.81"/>
<polygon fill="midnightblue" stroke="midnightblue" points="489.94,-208.84 487.3,-198.58 482.97,-208.24 489.94,-208.84"/>
</g>
<!-- Node17 -->
<g id="node17" class="node">
<title>Node17</title>
<g id="a_node17"><a xlink:href="type__inspection_8hpp.html" target="_top" xlink:title="Provides traits to inspect some information of a type, for example its name.">
<polygon fill="white" stroke="black" points="122.5,-168.5 122.5,-198.5 224.5,-198.5 224.5,-168.5 122.5,-168.5"/>
<text text-anchor="start" x="130.5" y="-186.5" font-family="Helvetica,sans-Serif" font-size="10.00">bio/meta/detail/type</text>
<text text-anchor="middle" x="173.5" y="-175.5" font-family="Helvetica,sans-Serif" font-size="10.00">_inspection.hpp</text>
</a>
</g>
</g>
<!-- Node6&#45;&gt;Node17 -->
<g id="edge24" class="edge">
<title>Node6&#45;&gt;Node17</title>
<path fill="none" stroke="midnightblue" d="M445.23,-246.5C392.89,-234.55 297.01,-212.68 234.28,-198.37"/>
<polygon fill="midnightblue" stroke="midnightblue" points="235.03,-194.95 224.5,-196.14 233.47,-201.77 235.03,-194.95"/>
</g>
<!-- Node6&#45;&gt;Node21 -->
<g id="edge30" class="edge">
<title>Node6&#45;&gt;Node21</title>
<path fill="none" stroke="midnightblue" d="M545.03,-248.14C668.28,-234.63 941.21,-204.71 1063.79,-191.27"/>
<polygon fill="midnightblue" stroke="midnightblue" points="1064.21,-194.74 1073.76,-190.17 1063.44,-187.78 1064.21,-194.74"/>
</g>
<!-- Node8 -->
<g id="node8" class="node">
<title>Node8</title>
<g id="a_node8"><a xlink:href="platform_8hpp.html" target="_top" xlink:title="Provides platform and dependency checks.">
<polygon fill="white" stroke="black" points="679,-56.5 679,-75.5 790,-75.5 790,-56.5 679,-56.5"/>
<text text-anchor="middle" x="734.5" y="-63.5" font-family="Helvetica,sans-Serif" font-size="10.00">bio/meta/platform.hpp</text>
</a>
</g>
</g>
<!-- Node7&#45;&gt;Node8 -->
<g id="edge9" class="edge">
<title>Node7&#45;&gt;Node8</title>
<path fill="none" stroke="midnightblue" d="M431.54,-112.44C496.04,-102.77 600.87,-87.04 668.76,-76.86"/>
<polygon fill="midnightblue" stroke="midnightblue" points="669.54,-80.28 678.91,-75.34 668.5,-73.36 669.54,-80.28"/>
</g>
<!-- Node9 -->
<g id="node9" class="node">
<title>Node9</title>
<g id="a_node9"><a target="_blank" xlink:href="https://en.cppreference.com/w/cpp/header/cinttypes.html" xlink:title=" ">
<polygon fill="white" stroke="black" points="635.5,-0.5 635.5,-19.5 691.5,-19.5 691.5,-0.5 635.5,-0.5"/>
<text text-anchor="middle" x="663.5" y="-7.5" font-family="Helvetica,sans-Serif" font-size="10.00">cinttypes</text>
</a>
</g>
</g>
<!-- Node8&#45;&gt;Node9 -->
<g id="edge10" class="edge">
<title>Node8&#45;&gt;Node9</title>
<path fill="none" stroke="midnightblue" d="M723.09,-56.32C712.39,-48.18 696.16,-35.84 683.34,-26.09"/>
<polygon fill="midnightblue" stroke="midnightblue" points="685.19,-23.1 675.11,-19.83 680.96,-28.67 685.19,-23.1"/>
</g>
<!-- Node10 -->
<g id="node10" class="node">
<title>Node10</title>
<g id="a_node10"><a target="_blank" xlink:href="https://en.cppreference.com/w/cpp/header/ciso646.html" xlink:title=" ">
<polygon fill="white" stroke="black" points="709.5,-0.5 709.5,-19.5 759.5,-19.5 759.5,-0.5 709.5,-0.5"/>
<text text-anchor="middle" x="734.5" y="-7.5" font-family="Helvetica,sans-Serif" font-size="10.00">ciso646</text>
</a>
</g>
</g>
<!-- Node8&#45;&gt;Node10 -->
<g id="edge11" class="edge">
<title>Node8&#45;&gt;Node10</title>
<path fill="none" stroke="midnightblue" d="M734.5,-56.08C734.5,-49.01 734.5,-38.86 734.5,-29.99"/>
<polygon fill="midnightblue" stroke="midnightblue" points="738,-29.75 734.5,-19.75 731,-29.75 738,-29.75"/>
</g>
<!-- Node11 -->
<g id="node11" class="node">
<title>Node11</title>
<g id="a_node11"><a target="_blank" xlink:href="https://en.cppreference.com/w/cpp/header/cstddef.html" xlink:title=" ">
<polygon fill="white" stroke="black" points="778,-0.5 778,-19.5 827,-19.5 827,-0.5 778,-0.5"/>
<text text-anchor="middle" x="802.5" y="-7.5" font-family="Helvetica,sans-Serif" font-size="10.00">cstddef</text>
</a>
</g>
</g>
<!-- Node8&#45;&gt;Node11 -->
<g id="edge12" class="edge">
<title>Node8&#45;&gt;Node11</title>
<path fill="none" stroke="midnightblue" d="M745.43,-56.32C755.67,-48.18 771.22,-35.84 783.5,-26.09"/>
<polygon fill="midnightblue" stroke="midnightblue" points="785.72,-28.79 791.38,-19.83 781.37,-23.31 785.72,-28.79"/>
</g>
<!-- Node12&#45;&gt;Node2 -->
<g id="edge14" class="edge">
<title>Node12&#45;&gt;Node2</title>
<path fill="none" stroke="midnightblue" d="M390.77,-173.98C449.88,-162.33 554.96,-141.63 611.3,-130.53"/>
<polygon fill="midnightblue" stroke="midnightblue" points="612.1,-133.94 621.23,-128.57 610.74,-127.07 612.1,-133.94"/>
</g>
<!-- Node12&#45;&gt;Node7 -->
<g id="edge17" class="edge">
<title>Node12&#45;&gt;Node7</title>
<path fill="none" stroke="midnightblue" d="M351.37,-173.98C355.3,-165.32 361.5,-151.65 366.49,-140.65"/>
<polygon fill="midnightblue" stroke="midnightblue" points="369.69,-142.06 370.64,-131.51 363.32,-139.17 369.69,-142.06"/>
</g>
<!-- Node13 -->
<g id="node13" class="node">
<title>Node13</title>
<g id="a_node13"><a target="_blank" xlink:href="https://en.cppreference.com/w/cpp/header/stdexcept.html" xlink:title=" ">
<polygon fill="white" stroke="black" points="452,-112.5 452,-131.5 511,-131.5 511,-112.5 452,-112.5"/>
<text text-anchor="middle" x="481.5" y="-119.5" font-family="Helvetica,sans-Serif" font-size="10.00">stdexcept</text>
</a>
</g>
</g>
<!-- Node12&#45;&gt;Node13 -->
<g id="edge15" class="edge">
<title>Node12&#45;&gt;Node13</title>
<path fill="none" stroke="midnightblue" d="M366.7,-173.98C389.29,-163.95 427,-147.2 453,-135.65"/>
<polygon fill="midnightblue" stroke="midnightblue" points="454.62,-138.77 462.34,-131.51 451.78,-132.37 454.62,-138.77"/>
</g>
<!-- Node14 -->
<g id="node14" class="node">
<title>Node14</title>
<g id="a_node14"><a target="_blank" xlink:href="https://en.cppreference.com/w/cpp/header/string.html" xlink:title=" ">
<polygon fill="white" stroke="black" points="256,-112.5 256,-131.5 297,-131.5 297,-112.5 256,-112.5"/>
<text text-anchor="middle" x="276.5" y="-119.5" font-family="Helvetica,sans-Serif" font-size="10.00">string</text>
</a>
</g>
</g>
<!-- Node12&#45;&gt;Node14 -->
<g id="edge16" class="edge">
<title>Node12&#45;&gt;Node14</title>
<path fill="none" stroke="midnightblue" d="M337.33,-173.98C326.15,-164.61 307.98,-149.38 294.41,-138.01"/>
<polygon fill="midnightblue" stroke="midnightblue" points="296.57,-135.25 286.65,-131.51 292.07,-140.61 296.57,-135.25"/>
</g>
<!-- Node15&#45;&gt;Node2 -->
<g id="edge21" class="edge">
<title>Node15&#45;&gt;Node2</title>
<path fill="none" stroke="midnightblue" d="M714.36,-168.4C701.11,-159.13 683.82,-147.03 670.42,-137.65"/>
<polygon fill="midnightblue" stroke="midnightblue" points="672.07,-134.53 661.87,-131.66 668.05,-140.26 672.07,-134.53"/>
</g>
<!-- Node15&#45;&gt;Node5 -->
<g id="edge19" class="edge">
<title>Node15&#45;&gt;Node5</title>
<path fill="none" stroke="midnightblue" d="M791.07,-170.17C843.34,-158.78 919.75,-142.12 966.41,-131.95"/>
<polygon fill="midnightblue" stroke="midnightblue" points="967.44,-135.31 976.47,-129.76 965.95,-128.47 967.44,-135.31"/>
</g>
<!-- Node15&#45;&gt;Node8 -->
<g id="edge20" class="edge">
<title>Node15&#45;&gt;Node8</title>
<path fill="none" stroke="midnightblue" d="M734.5,-168.34C734.5,-147.62 734.5,-109.02 734.5,-85.9"/>
<polygon fill="midnightblue" stroke="midnightblue" points="738,-85.67 734.5,-75.67 731,-85.67 738,-85.67"/>
</g>
<!-- Node16&#45;&gt;Node8 -->
<g id="edge23" class="edge">
<title>Node16&#45;&gt;Node8</title>
<path fill="none" stroke="midnightblue" d="M510.76,-168.36C535.14,-153.24 575.67,-129.12 612.5,-112 640.39,-99.03 673.14,-87.13 697.69,-78.82"/>
<polygon fill="midnightblue" stroke="midnightblue" points="698.96,-82.09 707.33,-75.6 696.74,-75.45 698.96,-82.09"/>
</g>
<!-- Node17&#45;&gt;Node8 -->
<g id="edge29" class="edge">
<title>Node17&#45;&gt;Node8</title>
<path fill="none" stroke="midnightblue" d="M183.24,-168.5C195.74,-151.8 219.11,-124.56 246.5,-112 319.98,-78.31 553.23,-69.84 668.59,-67.71"/>
<polygon fill="midnightblue" stroke="midnightblue" points="668.77,-71.21 678.71,-67.54 668.65,-64.21 668.77,-71.21"/>
</g>
<!-- Node17&#45;&gt;Node14 -->
<g id="edge27" class="edge">
<title>Node17&#45;&gt;Node14</title>
<path fill="none" stroke="midnightblue" d="M197.91,-168.4C214.42,-158.86 236.12,-146.32 252.54,-136.84"/>
<polygon fill="midnightblue" stroke="midnightblue" points="254.6,-139.69 261.51,-131.66 251.1,-133.63 254.6,-139.69"/>
</g>
<!-- Node18 -->
<g id="node18" class="node">
<title>Node18</title>
<g id="a_node18"><a target="_blank" xlink:href="https://en.cppreference.com/w/cpp/header/functional.html" xlink:title=" ">
<polygon fill="white" stroke="black" points="0,-112.5 0,-131.5 59,-131.5 59,-112.5 0,-112.5"/>
<text text-anchor="middle" x="29.5" y="-119.5" font-family="Helvetica,sans-Serif" font-size="10.00">functional</text>
</a>
</g>
</g>
<!-- Node17&#45;&gt;Node18 -->
<g id="edge25" class="edge">
<title>Node17&#45;&gt;Node18</title>
<path fill="none" stroke="midnightblue" d="M139.37,-168.4C115.21,-158.42 83.1,-145.15 59.83,-135.53"/>
<polygon fill="midnightblue" stroke="midnightblue" points="61.03,-132.24 50.45,-131.66 58.36,-138.71 61.03,-132.24"/>
</g>
<!-- Node19 -->
<g id="node19" class="node">
<title>Node19</title>
<g id="a_node19"><a target="_blank" xlink:href="https://en.cppreference.com/w/cpp/header/memory.html" xlink:title=" ">
<polygon fill="white" stroke="black" points="77.5,-112.5 77.5,-131.5 129.5,-131.5 129.5,-112.5 77.5,-112.5"/>
<text text-anchor="middle" x="103.5" y="-119.5" font-family="Helvetica,sans-Serif" font-size="10.00">memory</text>
</a>
</g>
</g>
<!-- Node17&#45;&gt;Node19 -->
<g id="edge26" class="edge">
<title>Node17&#45;&gt;Node19</title>
<path fill="none" stroke="midnightblue" d="M156.91,-168.4C146.21,-159.31 132.31,-147.49 121.37,-138.19"/>
<polygon fill="midnightblue" stroke="midnightblue" points="123.57,-135.47 113.69,-131.66 119.04,-140.8 123.57,-135.47"/>
</g>
<!-- Node20 -->
<g id="node20" class="node">
<title>Node20</title>
<g id="a_node20"><a target="_blank" xlink:href="https://en.cppreference.com/w/cpp/header/typeinfo.html" xlink:title=" ">
<polygon fill="white" stroke="black" points="148,-112.5 148,-131.5 199,-131.5 199,-112.5 148,-112.5"/>
<text text-anchor="middle" x="173.5" y="-119.5" font-family="Helvetica,sans-Serif" font-size="10.00">typeinfo</text>
</a>
</g>
</g>
<!-- Node17&#45;&gt;Node20 -->
<g id="edge28" class="edge">
<title>Node17&#45;&gt;Node20</title>
<path fill="none" stroke="midnightblue" d="M173.5,-168.4C173.5,-160.47 173.5,-150.46 173.5,-141.86"/>
<polygon fill="midnightblue" stroke="midnightblue" points="177,-141.66 173.5,-131.66 170,-141.66 177,-141.66"/>
</g>
<!-- Node21&#45;&gt;Node5 -->
<g id="edge32" class="edge">
<title>Node21&#45;&gt;Node5</title>
<path fill="none" stroke="midnightblue" d="M1097.54,-168.4C1078.18,-158.64 1052.59,-145.74 1033.64,-136.18"/>
<polygon fill="midnightblue" stroke="midnightblue" points="1035.17,-133.04 1024.67,-131.66 1032.02,-139.29 1035.17,-133.04"/>
</g>
<!-- Node21&#45;&gt;Node8 -->
<g id="edge33" class="edge">
<title>Node21&#45;&gt;Node8</title>
<path fill="none" stroke="midnightblue" d="M1114.52,-168.44C1100.77,-151.95 1075.59,-125.19 1047.5,-112 1004.87,-91.99 878.82,-78.59 800.3,-71.93"/>
<polygon fill="midnightblue" stroke="midnightblue" points="800.28,-68.41 790.02,-71.07 799.7,-75.39 800.28,-68.41"/>
</g>
<!-- Node22 -->
<g id="node22" class="node">
<title>Node22</title>
<g id="a_node22"><a target="_blank" xlink:href="https://en.cppreference.com/w/cpp/header/tuple.html" xlink:title=" ">
<polygon fill="white" stroke="black" points="1106.5,-112.5 1106.5,-131.5 1144.5,-131.5 1144.5,-112.5 1106.5,-112.5"/>
<text text-anchor="middle" x="1125.5" y="-119.5" font-family="Helvetica,sans-Serif" font-size="10.00">tuple</text>
</a>
</g>
</g>
<!-- Node21&#45;&gt;Node22 -->
<g id="edge31" class="edge">
<title>Node21&#45;&gt;Node22</title>
<path fill="none" stroke="midnightblue" d="M1125.5,-168.4C1125.5,-160.47 1125.5,-150.46 1125.5,-141.86"/>
<polygon fill="midnightblue" stroke="midnightblue" points="1129,-141.66 1125.5,-131.66 1122,-141.66 1129,-141.66"/>
</g>
<!-- Node23&#45;&gt;Node2 -->
<g id="edge35" class="edge">
<title>Node23&#45;&gt;Node2</title>
<path fill="none" stroke="midnightblue" d="M847.26,-171.03C800.66,-159.71 730.34,-142.63 687.31,-132.18"/>
<polygon fill="midnightblue" stroke="midnightblue" points="688.06,-128.76 677.52,-129.8 686.41,-135.56 688.06,-128.76"/>
</g>
<!-- Node23&#45;&gt;Node5 -->
<g id="edge37" class="edge">
<title>Node23&#45;&gt;Node5</title>
<path fill="none" stroke="midnightblue" d="M921.28,-168.4C939.56,-158.77 963.65,-146.09 981.71,-136.58"/>
<polygon fill="midnightblue" stroke="midnightblue" points="983.84,-139.41 991.06,-131.66 980.58,-133.22 983.84,-139.41"/>
</g>
<!-- Node23&#45;&gt;Node8 -->
<g id="edge38" class="edge">
<title>Node23&#45;&gt;Node8</title>
<path fill="none" stroke="midnightblue" d="M874.88,-168.34C844.35,-146.3 785.77,-104.01 754.81,-81.66"/>
<polygon fill="midnightblue" stroke="midnightblue" points="756.67,-78.68 746.51,-75.67 752.57,-84.36 756.67,-78.68"/>
</g>
<!-- Node24 -->
<g id="node24" class="node">
<title>Node24</title>
<g id="a_node24"><a target="_blank" xlink:href="https://en.cppreference.com/w/cpp/header/limits.html" xlink:title=" ">
<polygon fill="white" stroke="black" points="874.5,-112.5 874.5,-131.5 914.5,-131.5 914.5,-112.5 874.5,-112.5"/>
<text text-anchor="middle" x="894.5" y="-119.5" font-family="Helvetica,sans-Serif" font-size="10.00">limits</text>
</a>
</g>
</g>
<!-- Node23&#45;&gt;Node24 -->
<g id="edge36" class="edge">
<title>Node23&#45;&gt;Node24</title>
<path fill="none" stroke="midnightblue" d="M894.5,-168.4C894.5,-160.47 894.5,-150.46 894.5,-141.86"/>
<polygon fill="midnightblue" stroke="midnightblue" points="898,-141.66 894.5,-131.66 891,-141.66 898,-141.66"/>
</g>
<!-- Node25&#45;&gt;Node2 -->
<g id="edge41" class="edge">
<title>Node25&#45;&gt;Node2</title>
<path fill="none" stroke="midnightblue" d="M536.45,-313.46C541.37,-303.38 548.04,-289.44 553.5,-277 574.5,-229.16 567.12,-210.5 597.5,-168 605.85,-156.31 617.84,-145.67 628.2,-137.68"/>
<polygon fill="midnightblue" stroke="midnightblue" points="630.44,-140.37 636.4,-131.61 626.28,-134.74 630.44,-140.37"/>
</g>
<!-- Node25&#45;&gt;Node6 -->
<g id="edge40" class="edge">
<title>Node25&#45;&gt;Node6</title>
<path fill="none" stroke="midnightblue" d="M519.99,-313.23C512.54,-302.06 502.14,-286.46 494.18,-274.52"/>
<polygon fill="midnightblue" stroke="midnightblue" points="496.89,-272.27 488.43,-265.89 491.06,-276.16 496.89,-272.27"/>
</g>
<!-- Node26&#45;&gt;Node6 -->
<g id="edge43" class="edge">
<title>Node26&#45;&gt;Node6</title>
<path fill="none" stroke="midnightblue" d="M418.69,-313.23C432,-301.5 450.84,-284.9 464.59,-272.78"/>
<polygon fill="midnightblue" stroke="midnightblue" points="467.22,-275.13 472.41,-265.89 462.59,-269.88 467.22,-275.13"/>
</g>
<!-- Node27&#45;&gt;Node2 -->
<g id="edge52" class="edge">
<title>Node27&#45;&gt;Node2</title>
<path fill="none" stroke="midnightblue" d="M915.45,-313.17C899.35,-281.95 856.83,-207.45 799.5,-168 765.75,-144.78 719.76,-133.3 687.63,-127.79"/>
<polygon fill="midnightblue" stroke="midnightblue" points="688.15,-124.33 677.72,-126.2 687.04,-131.24 688.15,-124.33"/>
</g>
<!-- Node28 -->
<g id="node28" class="node">
<title>Node28</title>
<g id="a_node28"><a xlink:href="transformation__trait__or_8hpp.html" target="_top" xlink:title="Provides bio::meta::transformation_trait_or.">
<polygon fill="white" stroke="black" points="993.5,-235.5 993.5,-276.5 1097.5,-276.5 1097.5,-235.5 993.5,-235.5"/>
<text text-anchor="start" x="1001.5" y="-264.5" font-family="Helvetica,sans-Serif" font-size="10.00">bio/meta/type_traits</text>
<text text-anchor="start" x="1001.5" y="-253.5" font-family="Helvetica,sans-Serif" font-size="10.00">/transformation_trait</text>
<text text-anchor="middle" x="1045.5" y="-242.5" font-family="Helvetica,sans-Serif" font-size="10.00">_or.hpp</text>
</a>
</g>
</g>
<!-- Node27&#45;&gt;Node28 -->
<g id="edge47" class="edge">
<title>Node27&#45;&gt;Node28</title>
<path fill="none" stroke="midnightblue" d="M947.1,-313.4C962.88,-304.36 983.81,-292.36 1002.31,-281.75"/>
<polygon fill="midnightblue" stroke="midnightblue" points="1004.23,-284.69 1011.16,-276.68 1000.75,-278.62 1004.23,-284.69"/>
</g>
<!-- Node28&#45;&gt;Node5 -->
<g id="edge48" class="edge">
<title>Node28&#45;&gt;Node5</title>
<path fill="none" stroke="midnightblue" d="M1040.25,-235.25C1035.5,-217.59 1028.25,-191 1021.5,-168 1018.91,-159.16 1015.88,-149.38 1013.31,-141.21"/>
<polygon fill="midnightblue" stroke="midnightblue" points="1016.63,-140.08 1010.27,-131.6 1009.95,-142.19 1016.63,-140.08"/>
</g>
<!-- Node29 -->
<g id="node29" class="node">
<title>Node29</title>
<g id="a_node29"><a xlink:href="meta_2type__traits_2concept_8hpp.html" target="_top" xlink:title="Provides the concepts bio::meta::transformation_trait and bio::meta::unary_type_trait.">
<polygon fill="white" stroke="black" points="1195,-168.5 1195,-198.5 1298,-198.5 1298,-168.5 1195,-168.5"/>
<text text-anchor="start" x="1203" y="-186.5" font-family="Helvetica,sans-Serif" font-size="10.00">bio/meta/type_traits</text>
<text text-anchor="middle" x="1246.5" y="-175.5" font-family="Helvetica,sans-Serif" font-size="10.00">/concept.hpp</text>
</a>
</g>
</g>
<!-- Node28&#45;&gt;Node29 -->
<g id="edge49" class="edge">
<title>Node28&#45;&gt;Node29</title>
<path fill="none" stroke="midnightblue" d="M1097.52,-236.75C1128.17,-226 1166.73,-212.48 1196.94,-201.88"/>
<polygon fill="midnightblue" stroke="midnightblue" points="1198.16,-205.17 1206.43,-198.55 1195.84,-198.56 1198.16,-205.17"/>
</g>
<!-- Node29&#45;&gt;Node5 -->
<g id="edge50" class="edge">
<title>Node29&#45;&gt;Node5</title>
<path fill="none" stroke="midnightblue" d="M1194.93,-169.66C1151.04,-158.73 1088.83,-143.25 1048.32,-133.16"/>
<polygon fill="midnightblue" stroke="midnightblue" points="1049.07,-129.74 1038.52,-130.72 1047.37,-136.53 1049.07,-129.74"/>
</g>
<!-- Node29&#45;&gt;Node8 -->
<g id="edge51" class="edge">
<title>Node29&#45;&gt;Node8</title>
<path fill="none" stroke="midnightblue" d="M1232.9,-168.28C1216.02,-151.63 1185.51,-124.71 1153.5,-112 1090.88,-87.15 901.49,-74.76 800.15,-69.77"/>
<polygon fill="midnightblue" stroke="midnightblue" points="800.19,-66.27 790.03,-69.28 799.85,-73.26 800.19,-66.27"/>
</g>
</g>
</svg>
