<?xml version="1.0" encoding="UTF-8" standalone="no"?>
<!DOCTYPE svg PUBLIC "-//W3C//DTD SVG 1.1//EN"
 "http://www.w3.org/Graphics/SVG/1.1/DTD/svg11.dtd">
<!-- Generated by graphviz version 2.42.2 ()
 -->
<!-- Title: bio/alphabet/composite/detail.hpp Pages: 1 -->
<!--zoomable 698 -->
<svg id="main" version="1.1" xmlns="http://www.w3.org/2000/svg" xmlns:xlink="http://www.w3.org/1999/xlink" xml:space="preserve" onload="init(evt)">
<style type="text/css"><![CDATA[
.edge:hover path { stroke: red; }
.edge:hover polygon { stroke: red; fill: red; }
]]></style>
<script type="text/javascript"><![CDATA[
var edges = document.getElementsByTagName('g');
if (edges && edges.length) {
  for (var i=0;i<edges.length;i++) {
    if (edges[i].id.substr(0,4)=='edge') {
      edges[i].setAttribute('class','edge');
    }
  }
}
]]></script>
        <defs>
                <circle id="rim" cx="0" cy="0" r="7"/>
                <circle id="rim2" cx="0" cy="0" r="3.5"/>
                <g id="zoomPlus">
                        <use xlink:href="#rim" fill="#404040">
                                <set attributeName="fill" to="#808080" begin="zoomplus.mouseover" end="zoomplus.mouseout"/>
                        </use>
                        <path d="M-4,0h8M0,-4v8" fill="none" stroke="white" stroke-width="1.5" pointer-events="none"/>
                </g>
                <g id="zoomMin">
                        <use xlink:href="#rim" fill="#404040">
                                <set attributeName="fill" to="#808080" begin="zoomminus.mouseover" end="zoomminus.mouseout"/>
                        </use>
                        <path d="M-4,0h8" fill="none" stroke="white" stroke-width="1.5" pointer-events="none"/>
                </g>
                <g id="dirArrow">
                        <path fill="none" stroke="white" stroke-width="1.5" d="M0,-3.0v7 M-2.5,-0.5L0,-3.0L2.5,-0.5"/>
                </g>
               <g id="resetDef">
                       <use xlink:href="#rim2" fill="#404040">
                               <set attributeName="fill" to="#808080" begin="reset.mouseover" end="reset.mouseout"/>
                       </use>
               </g>
        </defs>

<script type="text/javascript">
var viewWidth = 1199;
var viewHeight = 698;
var sectionId = 'dynsection-0';
</script>
<script xlink:href="svgpan.js"/>
<svg id="graph" class="graph">
<g id="viewport">
<title>bio/alphabet/composite/detail.hpp</title>
<polygon fill="white" stroke="transparent" points="-4,4 -4,-694 1194.5,-694 1194.5,4 -4,4"/>
<!-- Node1 -->
<g id="node1" class="node">
<title>Node1</title>
<g id="a_node1"><a xlink:title=" ">
<polygon fill="#bfbfbf" stroke="black" points="846,-659.5 846,-689.5 963,-689.5 963,-659.5 846,-659.5"/>
<text text-anchor="start" x="854" y="-677.5" font-family="Helvetica,sans-Serif" font-size="10.00">bio/alphabet/composite</text>
<text text-anchor="middle" x="904.5" y="-666.5" font-family="Helvetica,sans-Serif" font-size="10.00">/detail.hpp</text>
</a>
</g>
</g>
<!-- Node2 -->
<g id="node2" class="node">
<title>Node2</title>
<g id="a_node2"><a xlink:href="alphabet_2concept_8hpp.html" target="_top" xlink:title="Core alphabet concept and free function/type trait wrappers.">
<polygon fill="white" stroke="black" points="503,-263 503,-282 628,-282 628,-263 503,-263"/>
<text text-anchor="middle" x="565.5" y="-270" font-family="Helvetica,sans-Serif" font-size="10.00">bio/alphabet/concept.hpp</text>
</a>
</g>
</g>
<!-- Node1&#45;&gt;Node2 -->
<g id="edge1" class="edge">
<title>Node1&#45;&gt;Node2</title>
<path fill="none" stroke="midnightblue" d="M845.69,-669.69C767.62,-661.07 639.5,-632.99 639.5,-541.5 639.5,-541.5 639.5,-541.5 639.5,-405.5 639.5,-358.5 603.36,-312.72 581.59,-289.42"/>
<polygon fill="midnightblue" stroke="midnightblue" points="584.04,-286.91 574.57,-282.14 579,-291.77 584.04,-286.91"/>
</g>
<!-- Node13 -->
<g id="node13" class="node">
<title>Node13</title>
<g id="a_node13"><a xlink:href="core__language_8hpp.html" target="_top" xlink:title="Provides concepts for core language types and relations that don&#39;t have concepts in C++20 (yet).">
<polygon fill="white" stroke="black" points="775,-185 775,-215 888,-215 888,-185 775,-185"/>
<text text-anchor="start" x="783" y="-203" font-family="Helvetica,sans-Serif" font-size="10.00">bio/meta/concept/core</text>
<text text-anchor="middle" x="831.5" y="-192" font-family="Helvetica,sans-Serif" font-size="10.00">_language.hpp</text>
</a>
</g>
</g>
<!-- Node1&#45;&gt;Node13 -->
<g id="edge29" class="edge">
<title>Node1&#45;&gt;Node13</title>
<path fill="none" stroke="midnightblue" d="M905.87,-659.33C907.2,-643.04 908.74,-615.53 906.5,-592 893.11,-451.14 853.18,-285.54 837.71,-224.83"/>
<polygon fill="midnightblue" stroke="midnightblue" points="841.08,-223.88 835.2,-215.06 834.3,-225.62 841.08,-223.88"/>
</g>
<!-- Node21 -->
<g id="node21" class="node">
<title>Node21</title>
<g id="a_node21"><a xlink:href="type__list_8hpp.html" target="_top" xlink:title="Provides bio::meta::type_list.">
<polygon fill="white" stroke="black" points="992.5,-324.5 992.5,-354.5 1086.5,-354.5 1086.5,-324.5 992.5,-324.5"/>
<text text-anchor="start" x="1000.5" y="-342.5" font-family="Helvetica,sans-Serif" font-size="10.00">bio/meta/type_list</text>
<text text-anchor="middle" x="1039.5" y="-331.5" font-family="Helvetica,sans-Serif" font-size="10.00">/type_list.hpp</text>
</a>
</g>
</g>
<!-- Node1&#45;&gt;Node21 -->
<g id="edge30" class="edge">
<title>Node1&#45;&gt;Node21</title>
<path fill="none" stroke="midnightblue" d="M963.07,-671.69C1046.74,-665.62 1190.5,-640.76 1190.5,-541.5 1190.5,-541.5 1190.5,-541.5 1190.5,-472.5 1190.5,-416.75 1131.43,-379.1 1087.19,-358.72"/>
<polygon fill="midnightblue" stroke="midnightblue" points="1088.55,-355.5 1077.99,-354.63 1085.71,-361.89 1088.55,-355.5"/>
</g>
<!-- Node25 -->
<g id="node25" class="node">
<title>Node25</title>
<g id="a_node25"><a xlink:href="lazy_8hpp.html" target="_top" xlink:title="Provides lazy template instantiation traits.">
<polygon fill="white" stroke="black" points="794,-592.5 794,-622.5 897,-622.5 897,-592.5 794,-592.5"/>
<text text-anchor="start" x="802" y="-610.5" font-family="Helvetica,sans-Serif" font-size="10.00">bio/meta/type_traits</text>
<text text-anchor="middle" x="845.5" y="-599.5" font-family="Helvetica,sans-Serif" font-size="10.00">/lazy.hpp</text>
</a>
</g>
</g>
<!-- Node1&#45;&gt;Node25 -->
<g id="edge38" class="edge">
<title>Node1&#45;&gt;Node25</title>
<path fill="none" stroke="midnightblue" d="M891.7,-659.4C883.97,-650.88 873.95,-639.85 865.23,-630.23"/>
<polygon fill="midnightblue" stroke="midnightblue" points="867.59,-627.63 858.28,-622.58 862.41,-632.33 867.59,-627.63"/>
</g>
<!-- Node3 -->
<g id="node3" class="node">
<title>Node3</title>
<g id="a_node3"><a target="_blank" xlink:href="https://en.cppreference.com/w/cpp/header/type_traits.html" xlink:title=" ">
<polygon fill="white" stroke="black" points="962.5,-56.5 962.5,-75.5 1024.5,-75.5 1024.5,-56.5 962.5,-56.5"/>
<text text-anchor="middle" x="993.5" y="-63.5" font-family="Helvetica,sans-Serif" font-size="10.00">type_traits</text>
</a>
</g>
</g>
<!-- Node2&#45;&gt;Node3 -->
<g id="edge2" class="edge">
<title>Node2&#45;&gt;Node3</title>
<path fill="none" stroke="midnightblue" d="M597.7,-262.94C623.84,-254.95 660.79,-241.19 688.5,-221 739.74,-183.67 726.09,-144.54 780.5,-112 834.07,-79.96 907.16,-70.53 952.29,-67.88"/>
<polygon fill="midnightblue" stroke="midnightblue" points="952.5,-71.37 962.31,-67.37 952.14,-64.38 952.5,-71.37"/>
</g>
<!-- Node4 -->
<g id="node4" class="node">
<title>Node4</title>
<g id="a_node4"><a xlink:href="alphabet_2biocpp_8hpp.html" target="_top" xlink:title="Module header with module&#45;wide definitions.">
<polygon fill="white" stroke="black" points="314,-118 314,-137 433,-137 433,-118 314,-118"/>
<text text-anchor="middle" x="373.5" y="-125" font-family="Helvetica,sans-Serif" font-size="10.00">bio/alphabet/biocpp.hpp</text>
</a>
</g>
</g>
<!-- Node2&#45;&gt;Node4 -->
<g id="edge3" class="edge">
<title>Node2&#45;&gt;Node4</title>
<path fill="none" stroke="midnightblue" d="M503,-269.25C429.09,-265.12 312.66,-253.5 285.5,-221 273.53,-206.68 276.15,-195.15 285.5,-179 296.02,-160.83 315.83,-148.63 333.99,-140.78"/>
<polygon fill="midnightblue" stroke="midnightblue" points="335.3,-144.03 343.28,-137.06 332.7,-137.53 335.3,-144.03"/>
</g>
<!-- Node9 -->
<g id="node9" class="node">
<title>Node9</title>
<g id="a_node9"><a xlink:href="exception_8hpp.html" target="_top" xlink:title="Exceptions thrown by entities in the alphabet module.">
<polygon fill="white" stroke="black" points="295,-190.5 295,-209.5 428,-209.5 428,-190.5 295,-190.5"/>
<text text-anchor="middle" x="361.5" y="-197.5" font-family="Helvetica,sans-Serif" font-size="10.00">bio/alphabet/exception.hpp</text>
</a>
</g>
</g>
<!-- Node2&#45;&gt;Node9 -->
<g id="edge8" class="edge">
<title>Node2&#45;&gt;Node9</title>
<path fill="none" stroke="midnightblue" d="M540.89,-263C504.67,-250.48 436.86,-227.04 395.78,-212.85"/>
<polygon fill="midnightblue" stroke="midnightblue" points="396.79,-209.49 386.19,-209.53 394.5,-216.11 396.79,-209.49"/>
</g>
<!-- Node2&#45;&gt;Node13 -->
<g id="edge13" class="edge">
<title>Node2&#45;&gt;Node13</title>
<path fill="none" stroke="midnightblue" d="M597.59,-263C639.86,-251.79 715.14,-231.84 768.88,-217.6"/>
<polygon fill="midnightblue" stroke="midnightblue" points="769.89,-220.95 778.66,-215.01 768.09,-214.18 769.89,-220.95"/>
</g>
<!-- Node14 -->
<g id="node14" class="node">
<title>Node14</title>
<g id="a_node14"><a xlink:href="priority__tag_8hpp.html" target="_top" xlink:title="provides bio::meta::detail::priority_tag.">
<polygon fill="white" stroke="black" points="446,-185 446,-215 559,-215 559,-185 446,-185"/>
<text text-anchor="start" x="454" y="-203" font-family="Helvetica,sans-Serif" font-size="10.00">bio/meta/detail/priority</text>
<text text-anchor="middle" x="502.5" y="-192" font-family="Helvetica,sans-Serif" font-size="10.00">_tag.hpp</text>
</a>
</g>
</g>
<!-- Node2&#45;&gt;Node14 -->
<g id="edge17" class="edge">
<title>Node2&#45;&gt;Node14</title>
<path fill="none" stroke="midnightblue" d="M557.77,-262.86C548.88,-252.9 533.92,-236.17 521.81,-222.61"/>
<polygon fill="midnightblue" stroke="midnightblue" points="524.35,-220.2 515.08,-215.08 519.13,-224.86 524.35,-220.2"/>
</g>
<!-- Node15 -->
<g id="node15" class="node">
<title>Node15</title>
<g id="a_node15"><a xlink:href="type__inspection_8hpp.html" target="_top" xlink:title="Provides traits to inspect some information of a type, for example its name.">
<polygon fill="white" stroke="black" points="98.5,-185 98.5,-215 200.5,-215 200.5,-185 98.5,-185"/>
<text text-anchor="start" x="106.5" y="-203" font-family="Helvetica,sans-Serif" font-size="10.00">bio/meta/detail/type</text>
<text text-anchor="middle" x="149.5" y="-192" font-family="Helvetica,sans-Serif" font-size="10.00">_inspection.hpp</text>
</a>
</g>
</g>
<!-- Node2&#45;&gt;Node15 -->
<g id="edge19" class="edge">
<title>Node2&#45;&gt;Node15</title>
<path fill="none" stroke="midnightblue" d="M509.15,-262.96C446.41,-253.33 342.06,-236.92 252.5,-221 238.86,-218.58 224.24,-215.83 210.42,-213.16"/>
<polygon fill="midnightblue" stroke="midnightblue" points="211,-209.71 200.52,-211.24 209.67,-216.58 211,-209.71"/>
</g>
<!-- Node19 -->
<g id="node19" class="node">
<title>Node19</title>
<g id="a_node19"><a xlink:href="basic_8hpp.html" target="_top" xlink:title="Provides various type traits on generic types.">
<polygon fill="white" stroke="black" points="577,-185 577,-215 680,-215 680,-185 577,-185"/>
<text text-anchor="start" x="585" y="-203" font-family="Helvetica,sans-Serif" font-size="10.00">bio/meta/type_traits</text>
<text text-anchor="middle" x="628.5" y="-192" font-family="Helvetica,sans-Serif" font-size="10.00">/basic.hpp</text>
</a>
</g>
</g>
<!-- Node2&#45;&gt;Node19 -->
<g id="edge25" class="edge">
<title>Node2&#45;&gt;Node19</title>
<path fill="none" stroke="midnightblue" d="M573.23,-262.86C582.12,-252.9 597.08,-236.17 609.19,-222.61"/>
<polygon fill="midnightblue" stroke="midnightblue" points="611.87,-224.86 615.92,-215.08 606.65,-220.2 611.87,-224.86"/>
</g>
<!-- Node5 -->
<g id="node5" class="node">
<title>Node5</title>
<g id="a_node5"><a xlink:href="platform_8hpp.html" target="_top" xlink:title="Provides platform and dependency checks.">
<polygon fill="white" stroke="black" points="502,-56.5 502,-75.5 613,-75.5 613,-56.5 502,-56.5"/>
<text text-anchor="middle" x="557.5" y="-63.5" font-family="Helvetica,sans-Serif" font-size="10.00">bio/meta/platform.hpp</text>
</a>
</g>
</g>
<!-- Node4&#45;&gt;Node5 -->
<g id="edge4" class="edge">
<title>Node4&#45;&gt;Node5</title>
<path fill="none" stroke="midnightblue" d="M399.86,-117.98C431.84,-107.64 485.88,-90.16 521.62,-78.6"/>
<polygon fill="midnightblue" stroke="midnightblue" points="522.75,-81.92 531.19,-75.51 520.59,-75.26 522.75,-81.92"/>
</g>
<!-- Node6 -->
<g id="node6" class="node">
<title>Node6</title>
<g id="a_node6"><a target="_blank" xlink:href="https://en.cppreference.com/w/cpp/header/cinttypes.html" xlink:title=" ">
<polygon fill="white" stroke="black" points="458.5,-0.5 458.5,-19.5 514.5,-19.5 514.5,-0.5 458.5,-0.5"/>
<text text-anchor="middle" x="486.5" y="-7.5" font-family="Helvetica,sans-Serif" font-size="10.00">cinttypes</text>
</a>
</g>
</g>
<!-- Node5&#45;&gt;Node6 -->
<g id="edge5" class="edge">
<title>Node5&#45;&gt;Node6</title>
<path fill="none" stroke="midnightblue" d="M546.09,-56.32C535.39,-48.18 519.16,-35.84 506.34,-26.09"/>
<polygon fill="midnightblue" stroke="midnightblue" points="508.19,-23.1 498.11,-19.83 503.96,-28.67 508.19,-23.1"/>
</g>
<!-- Node7 -->
<g id="node7" class="node">
<title>Node7</title>
<g id="a_node7"><a target="_blank" xlink:href="https://en.cppreference.com/w/cpp/header/ciso646.html" xlink:title=" ">
<polygon fill="white" stroke="black" points="532.5,-0.5 532.5,-19.5 582.5,-19.5 582.5,-0.5 532.5,-0.5"/>
<text text-anchor="middle" x="557.5" y="-7.5" font-family="Helvetica,sans-Serif" font-size="10.00">ciso646</text>
</a>
</g>
</g>
<!-- Node5&#45;&gt;Node7 -->
<g id="edge6" class="edge">
<title>Node5&#45;&gt;Node7</title>
<path fill="none" stroke="midnightblue" d="M557.5,-56.08C557.5,-49.01 557.5,-38.86 557.5,-29.99"/>
<polygon fill="midnightblue" stroke="midnightblue" points="561,-29.75 557.5,-19.75 554,-29.75 561,-29.75"/>
</g>
<!-- Node8 -->
<g id="node8" class="node">
<title>Node8</title>
<g id="a_node8"><a target="_blank" xlink:href="https://en.cppreference.com/w/cpp/header/cstddef.html" xlink:title=" ">
<polygon fill="white" stroke="black" points="601,-0.5 601,-19.5 650,-19.5 650,-0.5 601,-0.5"/>
<text text-anchor="middle" x="625.5" y="-7.5" font-family="Helvetica,sans-Serif" font-size="10.00">cstddef</text>
</a>
</g>
</g>
<!-- Node5&#45;&gt;Node8 -->
<g id="edge7" class="edge">
<title>Node5&#45;&gt;Node8</title>
<path fill="none" stroke="midnightblue" d="M568.43,-56.32C578.67,-48.18 594.22,-35.84 606.5,-26.09"/>
<polygon fill="midnightblue" stroke="midnightblue" points="608.72,-28.79 614.38,-19.83 604.37,-23.31 608.72,-28.79"/>
</g>
<!-- Node9&#45;&gt;Node4 -->
<g id="edge12" class="edge">
<title>Node9&#45;&gt;Node4</title>
<path fill="none" stroke="midnightblue" d="M362.97,-190.36C364.79,-179.68 367.93,-161.22 370.31,-147.23"/>
<polygon fill="midnightblue" stroke="midnightblue" points="373.79,-147.66 372.02,-137.22 366.89,-146.49 373.79,-147.66"/>
</g>
<!-- Node10 -->
<g id="node10" class="node">
<title>Node10</title>
<g id="a_node10"><a target="_blank" xlink:href="https://en.cppreference.com/w/cpp/header/concepts.html" xlink:title=" ">
<polygon fill="white" stroke="black" points="789.5,-118 789.5,-137 845.5,-137 845.5,-118 789.5,-118"/>
<text text-anchor="middle" x="817.5" y="-125" font-family="Helvetica,sans-Serif" font-size="10.00">concepts</text>
</a>
</g>
</g>
<!-- Node9&#45;&gt;Node10 -->
<g id="edge9" class="edge">
<title>Node9&#45;&gt;Node10</title>
<path fill="none" stroke="midnightblue" d="M390.14,-190.43C404.04,-186.52 421.04,-182.07 436.5,-179 501.69,-166.04 696.17,-142.67 779.22,-132.94"/>
<polygon fill="midnightblue" stroke="midnightblue" points="779.72,-136.4 789.24,-131.77 778.9,-129.45 779.72,-136.4"/>
</g>
<!-- Node11 -->
<g id="node11" class="node">
<title>Node11</title>
<g id="a_node11"><a target="_blank" xlink:href="https://en.cppreference.com/w/cpp/header/stdexcept.html" xlink:title=" ">
<polygon fill="white" stroke="black" points="451,-118 451,-137 510,-137 510,-118 451,-118"/>
<text text-anchor="middle" x="480.5" y="-125" font-family="Helvetica,sans-Serif" font-size="10.00">stdexcept</text>
</a>
</g>
</g>
<!-- Node9&#45;&gt;Node11 -->
<g id="edge10" class="edge">
<title>Node9&#45;&gt;Node11</title>
<path fill="none" stroke="midnightblue" d="M376.09,-190.36C396.25,-178.41 432.87,-156.72 456.93,-142.46"/>
<polygon fill="midnightblue" stroke="midnightblue" points="458.97,-145.32 465.79,-137.22 455.4,-139.3 458.97,-145.32"/>
</g>
<!-- Node12 -->
<g id="node12" class="node">
<title>Node12</title>
<g id="a_node12"><a target="_blank" xlink:href="https://en.cppreference.com/w/cpp/header/string.html" xlink:title=" ">
<polygon fill="white" stroke="black" points="255,-118 255,-137 296,-137 296,-118 255,-118"/>
<text text-anchor="middle" x="275.5" y="-125" font-family="Helvetica,sans-Serif" font-size="10.00">string</text>
</a>
</g>
</g>
<!-- Node9&#45;&gt;Node12 -->
<g id="edge11" class="edge">
<title>Node9&#45;&gt;Node12</title>
<path fill="none" stroke="midnightblue" d="M350.95,-190.36C336.77,-178.73 311.32,-157.86 293.93,-143.61"/>
<polygon fill="midnightblue" stroke="midnightblue" points="296.08,-140.85 286.13,-137.22 291.65,-146.26 296.08,-140.85"/>
</g>
<!-- Node13&#45;&gt;Node3 -->
<g id="edge14" class="edge">
<title>Node13&#45;&gt;Node3</title>
<path fill="none" stroke="midnightblue" d="M838.31,-184.87C848.01,-166.03 867.44,-132.65 892.5,-112 910.58,-97.1 934.37,-86.18 954.32,-78.83"/>
<polygon fill="midnightblue" stroke="midnightblue" points="955.5,-82.13 963.77,-75.51 953.17,-75.53 955.5,-82.13"/>
</g>
<!-- Node13&#45;&gt;Node5 -->
<g id="edge15" class="edge">
<title>Node13&#45;&gt;Node5</title>
<path fill="none" stroke="midnightblue" d="M811.6,-184.84C784.84,-166.27 735.3,-133.51 689.5,-112 660.06,-98.17 625.17,-86.46 598.65,-78.46"/>
<polygon fill="midnightblue" stroke="midnightblue" points="599.51,-75.07 588.93,-75.58 597.52,-81.78 599.51,-75.07"/>
</g>
<!-- Node13&#45;&gt;Node10 -->
<g id="edge16" class="edge">
<title>Node13&#45;&gt;Node10</title>
<path fill="none" stroke="midnightblue" d="M828.67,-184.73C826.54,-174 823.59,-159.19 821.26,-147.46"/>
<polygon fill="midnightblue" stroke="midnightblue" points="824.65,-146.52 819.27,-137.39 817.78,-147.88 824.65,-146.52"/>
</g>
<!-- Node14&#45;&gt;Node5 -->
<g id="edge18" class="edge">
<title>Node14&#45;&gt;Node5</title>
<path fill="none" stroke="midnightblue" d="M508.39,-184.87C518.47,-160.68 539.01,-111.38 550.06,-84.85"/>
<polygon fill="midnightblue" stroke="midnightblue" points="553.3,-86.17 553.92,-75.6 546.84,-83.48 553.3,-86.17"/>
</g>
<!-- Node15&#45;&gt;Node5 -->
<g id="edge24" class="edge">
<title>Node15&#45;&gt;Node5</title>
<path fill="none" stroke="midnightblue" d="M148.03,-184.83C146.88,-165.31 148.09,-130.46 168.5,-112 191.95,-90.78 386.78,-76.64 491.5,-70.49"/>
<polygon fill="midnightblue" stroke="midnightblue" points="491.87,-73.98 501.65,-69.9 491.47,-66.99 491.87,-73.98"/>
</g>
<!-- Node15&#45;&gt;Node12 -->
<g id="edge22" class="edge">
<title>Node15&#45;&gt;Node12</title>
<path fill="none" stroke="midnightblue" d="M174.7,-184.9C196.97,-172.44 229.24,-154.38 251.23,-142.08"/>
<polygon fill="midnightblue" stroke="midnightblue" points="253.23,-144.97 260.25,-137.03 249.81,-138.86 253.23,-144.97"/>
</g>
<!-- Node16 -->
<g id="node16" class="node">
<title>Node16</title>
<g id="a_node16"><a target="_blank" xlink:href="https://en.cppreference.com/w/cpp/header/functional.html" xlink:title=" ">
<polygon fill="white" stroke="black" points="178,-118 178,-137 237,-137 237,-118 178,-118"/>
<text text-anchor="middle" x="207.5" y="-125" font-family="Helvetica,sans-Serif" font-size="10.00">functional</text>
</a>
</g>
</g>
<!-- Node15&#45;&gt;Node16 -->
<g id="edge20" class="edge">
<title>Node15&#45;&gt;Node16</title>
<path fill="none" stroke="midnightblue" d="M161.24,-184.73C170.61,-173.34 183.77,-157.34 193.66,-145.32"/>
<polygon fill="midnightblue" stroke="midnightblue" points="196.53,-147.34 200.18,-137.39 191.13,-142.89 196.53,-147.34"/>
</g>
<!-- Node17 -->
<g id="node17" class="node">
<title>Node17</title>
<g id="a_node17"><a target="_blank" xlink:href="https://en.cppreference.com/w/cpp/header/memory.html" xlink:title=" ">
<polygon fill="white" stroke="black" points="69.5,-118 69.5,-137 121.5,-137 121.5,-118 69.5,-118"/>
<text text-anchor="middle" x="95.5" y="-125" font-family="Helvetica,sans-Serif" font-size="10.00">memory</text>
</a>
</g>
</g>
<!-- Node15&#45;&gt;Node17 -->
<g id="edge21" class="edge">
<title>Node15&#45;&gt;Node17</title>
<path fill="none" stroke="midnightblue" d="M138.57,-184.73C129.93,-173.45 117.83,-157.65 108.65,-145.67"/>
<polygon fill="midnightblue" stroke="midnightblue" points="111.17,-143.2 102.31,-137.39 105.61,-147.46 111.17,-143.2"/>
</g>
<!-- Node18 -->
<g id="node18" class="node">
<title>Node18</title>
<g id="a_node18"><a target="_blank" xlink:href="https://en.cppreference.com/w/cpp/header/typeinfo.html" xlink:title=" ">
<polygon fill="white" stroke="black" points="0,-118 0,-137 51,-137 51,-118 0,-118"/>
<text text-anchor="middle" x="25.5" y="-125" font-family="Helvetica,sans-Serif" font-size="10.00">typeinfo</text>
</a>
</g>
</g>
<!-- Node15&#45;&gt;Node18 -->
<g id="edge23" class="edge">
<title>Node15&#45;&gt;Node18</title>
<path fill="none" stroke="midnightblue" d="M124.7,-184.9C102.79,-172.44 71.03,-154.38 49.39,-142.08"/>
<polygon fill="midnightblue" stroke="midnightblue" points="50.93,-138.93 40.51,-137.03 47.47,-145.02 50.93,-138.93"/>
</g>
<!-- Node19&#45;&gt;Node3 -->
<g id="edge27" class="edge">
<title>Node19&#45;&gt;Node3</title>
<path fill="none" stroke="midnightblue" d="M624.41,-184.85C619.82,-165.66 615.21,-131.56 633.5,-112 654.99,-89.02 862.3,-74.49 952.23,-69.23"/>
<polygon fill="midnightblue" stroke="midnightblue" points="952.55,-72.72 962.34,-68.65 952.15,-65.73 952.55,-72.72"/>
</g>
<!-- Node19&#45;&gt;Node5 -->
<g id="edge28" class="edge">
<title>Node19&#45;&gt;Node5</title>
<path fill="none" stroke="midnightblue" d="M620.9,-184.87C607.83,-160.58 581.13,-110.94 566.91,-84.5"/>
<polygon fill="midnightblue" stroke="midnightblue" points="569.94,-82.75 562.12,-75.6 563.78,-86.06 569.94,-82.75"/>
</g>
<!-- Node20 -->
<g id="node20" class="node">
<title>Node20</title>
<g id="a_node20"><a target="_blank" xlink:href="https://en.cppreference.com/w/cpp/header/tuple.html" xlink:title=" ">
<polygon fill="white" stroke="black" points="642.5,-118 642.5,-137 680.5,-137 680.5,-118 642.5,-118"/>
<text text-anchor="middle" x="661.5" y="-125" font-family="Helvetica,sans-Serif" font-size="10.00">tuple</text>
</a>
</g>
</g>
<!-- Node19&#45;&gt;Node20 -->
<g id="edge26" class="edge">
<title>Node19&#45;&gt;Node20</title>
<path fill="none" stroke="midnightblue" d="M635.18,-184.73C640.31,-173.78 647.42,-158.57 652.96,-146.74"/>
<polygon fill="midnightblue" stroke="midnightblue" points="656.27,-147.93 657.34,-137.39 649.93,-144.97 656.27,-147.93"/>
</g>
<!-- Node22 -->
<g id="node22" class="node">
<title>Node22</title>
<g id="a_node22"><a xlink:href="template__inspection_8hpp.html" target="_top" xlink:title="Provides various traits to inspect templates.">
<polygon fill="white" stroke="black" points="923,-257.5 923,-287.5 1048,-287.5 1048,-257.5 923,-257.5"/>
<text text-anchor="start" x="931" y="-275.5" font-family="Helvetica,sans-Serif" font-size="10.00">bio/meta/type_traits</text>
<text text-anchor="middle" x="985.5" y="-264.5" font-family="Helvetica,sans-Serif" font-size="10.00">/template_inspection.hpp</text>
</a>
</g>
</g>
<!-- Node21&#45;&gt;Node22 -->
<g id="edge31" class="edge">
<title>Node21&#45;&gt;Node22</title>
<path fill="none" stroke="midnightblue" d="M1027.78,-324.4C1020.78,-315.96 1011.73,-305.07 1003.79,-295.52"/>
<polygon fill="midnightblue" stroke="midnightblue" points="1006.28,-293.03 997.19,-287.58 1000.89,-297.51 1006.28,-293.03"/>
</g>
<!-- Node22&#45;&gt;Node10 -->
<g id="edge37" class="edge">
<title>Node22&#45;&gt;Node10</title>
<path fill="none" stroke="midnightblue" d="M971.37,-257.47C961.29,-247.4 947.45,-233.47 935.5,-221 917.87,-202.61 916.06,-195.32 896.5,-179 879.58,-164.87 858.45,-151.56 842.31,-142.15"/>
<polygon fill="midnightblue" stroke="midnightblue" points="843.86,-139.01 833.44,-137.09 840.39,-145.09 843.86,-139.01"/>
</g>
<!-- Node23 -->
<g id="node23" class="node">
<title>Node23</title>
<g id="a_node23"><a xlink:href="transformation__trait__or_8hpp.html" target="_top" xlink:title="Provides bio::meta::transformation_trait_or.">
<polygon fill="white" stroke="black" points="944.5,-179.5 944.5,-220.5 1048.5,-220.5 1048.5,-179.5 944.5,-179.5"/>
<text text-anchor="start" x="952.5" y="-208.5" font-family="Helvetica,sans-Serif" font-size="10.00">bio/meta/type_traits</text>
<text text-anchor="start" x="952.5" y="-197.5" font-family="Helvetica,sans-Serif" font-size="10.00">/transformation_trait</text>
<text text-anchor="middle" x="996.5" y="-186.5" font-family="Helvetica,sans-Serif" font-size="10.00">_or.hpp</text>
</a>
</g>
</g>
<!-- Node22&#45;&gt;Node23 -->
<g id="edge32" class="edge">
<title>Node22&#45;&gt;Node23</title>
<path fill="none" stroke="midnightblue" d="M987.73,-257.23C988.92,-249.57 990.44,-239.84 991.88,-230.63"/>
<polygon fill="midnightblue" stroke="midnightblue" points="995.36,-231.01 993.44,-220.59 988.44,-229.93 995.36,-231.01"/>
</g>
<!-- Node23&#45;&gt;Node3 -->
<g id="edge33" class="edge">
<title>Node23&#45;&gt;Node3</title>
<path fill="none" stroke="midnightblue" d="M1005.38,-179.27C1012.18,-161.61 1019.61,-135.04 1014.5,-112 1012.38,-102.43 1007.99,-92.48 1003.78,-84.37"/>
<polygon fill="midnightblue" stroke="midnightblue" points="1006.8,-82.6 998.88,-75.56 1000.68,-86 1006.8,-82.6"/>
</g>
<!-- Node24 -->
<g id="node24" class="node">
<title>Node24</title>
<g id="a_node24"><a xlink:href="meta_2type__traits_2concept_8hpp.html" target="_top" xlink:title="Provides the concepts bio::meta::transformation_trait and bio::meta::unary_type_trait.">
<polygon fill="white" stroke="black" points="902,-112.5 902,-142.5 1005,-142.5 1005,-112.5 902,-112.5"/>
<text text-anchor="start" x="910" y="-130.5" font-family="Helvetica,sans-Serif" font-size="10.00">bio/meta/type_traits</text>
<text text-anchor="middle" x="953.5" y="-119.5" font-family="Helvetica,sans-Serif" font-size="10.00">/concept.hpp</text>
</a>
</g>
</g>
<!-- Node23&#45;&gt;Node24 -->
<g id="edge34" class="edge">
<title>Node23&#45;&gt;Node24</title>
<path fill="none" stroke="midnightblue" d="M984.52,-179.36C979.28,-170.77 973.1,-160.64 967.64,-151.68"/>
<polygon fill="midnightblue" stroke="midnightblue" points="970.47,-149.61 962.28,-142.89 964.5,-153.25 970.47,-149.61"/>
</g>
<!-- Node24&#45;&gt;Node3 -->
<g id="edge35" class="edge">
<title>Node24&#45;&gt;Node3</title>
<path fill="none" stroke="midnightblue" d="M962.98,-112.4C968.67,-103.93 975.95,-93.1 981.98,-84.14"/>
<polygon fill="midnightblue" stroke="midnightblue" points="985.01,-85.91 987.68,-75.66 979.2,-82 985.01,-85.91"/>
</g>
<!-- Node24&#45;&gt;Node5 -->
<g id="edge36" class="edge">
<title>Node24&#45;&gt;Node5</title>
<path fill="none" stroke="midnightblue" d="M901.73,-118.72C830.3,-107.99 701.51,-88.64 623.32,-76.89"/>
<polygon fill="midnightblue" stroke="midnightblue" points="623.52,-73.38 613.11,-75.36 622.48,-80.3 623.52,-73.38"/>
</g>
<!-- Node25&#45;&gt;Node3 -->
<g id="edge40" class="edge">
<title>Node25&#45;&gt;Node3</title>
<path fill="none" stroke="midnightblue" d="M897.16,-592.59C950.48,-575.89 1033.04,-543.14 1085.5,-489 1135.89,-437 1152.5,-412.91 1152.5,-340.5 1152.5,-340.5 1152.5,-340.5 1152.5,-199 1152.5,-135.86 1077.36,-97.15 1030.39,-79.12"/>
<polygon fill="midnightblue" stroke="midnightblue" points="1031.43,-75.77 1020.83,-75.59 1029,-82.34 1031.43,-75.77"/>
</g>
<!-- Node25&#45;&gt;Node20 -->
<g id="edge39" class="edge">
<title>Node25&#45;&gt;Node20</title>
<path fill="none" stroke="midnightblue" d="M811.43,-592.48C795.22,-584.16 776.93,-572.06 765.5,-556 743.94,-525.69 746.5,-511.69 746.5,-474.5 746.5,-474.5 746.5,-474.5 746.5,-271.5 746.5,-218.86 703.41,-168.68 678.59,-144.15"/>
<polygon fill="midnightblue" stroke="midnightblue" points="680.89,-141.51 671.25,-137.12 676.05,-146.56 680.89,-141.51"/>
</g>
<!-- Node26 -->
<g id="node26" class="node">
<title>Node26</title>
<g id="a_node26"><a xlink:href="type__traits_2function_8hpp.html" target="_top" xlink:title="Provides various type traits for use on functions.">
<polygon fill="white" stroke="black" points="775,-525.5 775,-555.5 878,-555.5 878,-525.5 775,-525.5"/>
<text text-anchor="start" x="783" y="-543.5" font-family="Helvetica,sans-Serif" font-size="10.00">bio/meta/type_traits</text>
<text text-anchor="middle" x="826.5" y="-532.5" font-family="Helvetica,sans-Serif" font-size="10.00">/function.hpp</text>
</a>
</g>
</g>
<!-- Node25&#45;&gt;Node26 -->
<g id="edge41" class="edge">
<title>Node25&#45;&gt;Node26</title>
<path fill="none" stroke="midnightblue" d="M841.38,-592.4C839.06,-584.47 836.11,-574.38 833.45,-565.27"/>
<polygon fill="midnightblue" stroke="midnightblue" points="836.78,-564.19 830.61,-555.58 830.06,-566.16 836.78,-564.19"/>
</g>
<!-- Node26&#45;&gt;Node16 -->
<g id="edge42" class="edge">
<title>Node26&#45;&gt;Node16</title>
<path fill="none" stroke="midnightblue" d="M798.45,-525.38C698.74,-474.86 362.63,-301.86 273.5,-221 249,-198.77 228.28,-165.98 216.9,-146"/>
<polygon fill="midnightblue" stroke="midnightblue" points="219.87,-144.13 211.96,-137.08 213.74,-147.52 219.87,-144.13"/>
</g>
<!-- Node27 -->
<g id="node27" class="node">
<title>Node27</title>
<g id="a_node27"><a xlink:href="traits_8hpp.html" target="_top" xlink:title="Provides traits for meta::type_list.">
<polygon fill="white" stroke="black" points="982.5,-458.5 982.5,-488.5 1076.5,-488.5 1076.5,-458.5 982.5,-458.5"/>
<text text-anchor="start" x="990.5" y="-476.5" font-family="Helvetica,sans-Serif" font-size="10.00">bio/meta/type_list</text>
<text text-anchor="middle" x="1029.5" y="-465.5" font-family="Helvetica,sans-Serif" font-size="10.00">/traits.hpp</text>
</a>
</g>
</g>
<!-- Node26&#45;&gt;Node27 -->
<g id="edge43" class="edge">
<title>Node26&#45;&gt;Node27</title>
<path fill="none" stroke="midnightblue" d="M870.55,-525.4C901.41,-515.52 942.83,-502.25 975.65,-491.74"/>
<polygon fill="midnightblue" stroke="midnightblue" points="977.08,-494.96 985.54,-488.58 974.95,-488.29 977.08,-494.96"/>
</g>
<!-- Node27&#45;&gt;Node3 -->
<g id="edge44" class="edge">
<title>Node27&#45;&gt;Node3</title>
<path fill="none" stroke="midnightblue" d="M1046.7,-458.22C1071.54,-435.9 1114.5,-390.11 1114.5,-340.5 1114.5,-340.5 1114.5,-340.5 1114.5,-199 1114.5,-143.35 1055.34,-100.99 1019.75,-80.54"/>
<polygon fill="midnightblue" stroke="midnightblue" points="1021.28,-77.38 1010.84,-75.59 1017.88,-83.5 1021.28,-77.38"/>
</g>
<!-- Node27&#45;&gt;Node21 -->
<g id="edge49" class="edge">
<title>Node27&#45;&gt;Node21</title>
<path fill="none" stroke="midnightblue" d="M1030.57,-458.37C1032.26,-436.04 1035.57,-392.31 1037.66,-364.85"/>
<polygon fill="midnightblue" stroke="midnightblue" points="1041.17,-364.76 1038.44,-354.52 1034.19,-364.23 1041.17,-364.76"/>
</g>
<!-- Node28 -->
<g id="node28" class="node">
<title>Node28</title>
<g id="a_node28"><a xlink:href="traits__detail_8hpp.html" target="_top" xlink:title="Provides various traits for template packs.">
<polygon fill="white" stroke="black" points="917.5,-391.5 917.5,-421.5 1011.5,-421.5 1011.5,-391.5 917.5,-391.5"/>
<text text-anchor="start" x="925.5" y="-409.5" font-family="Helvetica,sans-Serif" font-size="10.00">bio/meta/type_list</text>
<text text-anchor="middle" x="964.5" y="-398.5" font-family="Helvetica,sans-Serif" font-size="10.00">/traits_detail.hpp</text>
</a>
</g>
</g>
<!-- Node27&#45;&gt;Node28 -->
<g id="edge45" class="edge">
<title>Node27&#45;&gt;Node28</title>
<path fill="none" stroke="midnightblue" d="M1015.4,-458.4C1006.71,-449.71 995.4,-438.4 985.66,-428.66"/>
<polygon fill="midnightblue" stroke="midnightblue" points="988.12,-426.17 978.58,-421.58 983.17,-431.12 988.12,-426.17"/>
</g>
<!-- Node28&#45;&gt;Node3 -->
<g id="edge46" class="edge">
<title>Node28&#45;&gt;Node3</title>
<path fill="none" stroke="midnightblue" d="M964.26,-391.24C964.69,-373.61 967.91,-343.53 983.5,-324 1006.31,-295.41 1038.1,-319.01 1057.5,-288 1099.54,-220.79 1068.9,-180.21 1028.5,-112 1022.59,-102.01 1014.75,-91.73 1007.98,-83.53"/>
<polygon fill="midnightblue" stroke="midnightblue" points="1010.59,-81.19 1001.46,-75.82 1005.25,-85.71 1010.59,-81.19"/>
</g>
<!-- Node28&#45;&gt;Node21 -->
<g id="edge48" class="edge">
<title>Node28&#45;&gt;Node21</title>
<path fill="none" stroke="midnightblue" d="M980.77,-391.4C990.9,-382.62 1004.1,-371.18 1015.42,-361.37"/>
<polygon fill="midnightblue" stroke="midnightblue" points="1017.99,-363.77 1023.26,-354.58 1013.41,-358.48 1017.99,-363.77"/>
</g>
<!-- Node29 -->
<g id="node29" class="node">
<title>Node29</title>
<g id="a_node29"><a target="_blank" xlink:href="https://en.cppreference.com/w/cpp/header/utility.html" xlink:title=" ">
<polygon fill="white" stroke="black" points="896.5,-330 896.5,-349 936.5,-349 936.5,-330 896.5,-330"/>
<text text-anchor="middle" x="916.5" y="-337" font-family="Helvetica,sans-Serif" font-size="10.00">utility</text>
</a>
</g>
</g>
<!-- Node28&#45;&gt;Node29 -->
<g id="edge47" class="edge">
<title>Node28&#45;&gt;Node29</title>
<path fill="none" stroke="midnightblue" d="M954.08,-391.4C946.67,-381.36 936.69,-367.84 928.87,-357.25"/>
<polygon fill="midnightblue" stroke="midnightblue" points="931.68,-355.16 922.92,-349.19 926.05,-359.32 931.68,-355.16"/>
</g>
</g>
</svg>
        <g id="navigator" transform="translate(0 0)" fill="#404254">
                <rect fill="#f2f5e9" fill-opacity="0.5" stroke="#606060" stroke-width=".5" x="0" y="0" width="60" height="60"/>
                <use id="zoomplus" xlink:href="#zoomPlus" x="17" y="9" onmousedown="handleZoom(evt,'in')"/>
                <use id="zoomminus" xlink:href="#zoomMin" x="42" y="9" onmousedown="handleZoom(evt,'out')"/>
                <use id="reset" xlink:href="#resetDef" x="30" y="36" onmousedown="handleReset()"/>
                <g id="arrowUp" xlink:href="#dirArrow" transform="translate(30 24)" onmousedown="handlePan(0,-1)">
                  <use xlink:href="#rim" fill="#404040">
                        <set attributeName="fill" to="#808080" begin="arrowUp.mouseover" end="arrowUp.mouseout"/>
                  </use>
                  <path fill="none" stroke="white" stroke-width="1.5" d="M0,-3.0v7 M-2.5,-0.5L0,-3.0L2.5,-0.5"/>
                </g>
                <g id="arrowRight" xlink:href="#dirArrow" transform="rotate(90) translate(36 -43)" onmousedown="handlePan(1,0)">
                  <use xlink:href="#rim" fill="#404040">
                        <set attributeName="fill" to="#808080" begin="arrowRight.mouseover" end="arrowRight.mouseout"/>
                  </use>
                  <path fill="none" stroke="white" stroke-width="1.5" d="M0,-3.0v7 M-2.5,-0.5L0,-3.0L2.5,-0.5"/>
                </g>
                <g id="arrowDown" xlink:href="#dirArrow" transform="rotate(180) translate(-30 -48)" onmousedown="handlePan(0,1)">
                  <use xlink:href="#rim" fill="#404040">
                        <set attributeName="fill" to="#808080" begin="arrowDown.mouseover" end="arrowDown.mouseout"/>
                  </use>
                  <path fill="none" stroke="white" stroke-width="1.5" d="M0,-3.0v7 M-2.5,-0.5L0,-3.0L2.5,-0.5"/>
                </g>
                <g id="arrowLeft" xlink:href="#dirArrow" transform="rotate(270) translate(-36 17)" onmousedown="handlePan(-1,0)">
                  <use xlink:href="#rim" fill="#404040">
                        <set attributeName="fill" to="#808080" begin="arrowLeft.mouseover" end="arrowLeft.mouseout"/>
                  </use>
                  <path fill="none" stroke="white" stroke-width="1.5" d="M0,-3.0v7 M-2.5,-0.5L0,-3.0L2.5,-0.5"/>
                </g>
        </g>
        <svg viewBox="0 0 15 15" width="100%" height="30px" preserveAspectRatio="xMaxYMin meet">
         <g id="arrow_out" transform="scale(0.3 0.3)">
          <a xlink:href="alphabet_2composite_2detail_8hpp__incl_org.svg" target="_base">
           <rect id="button" ry="5" rx="5" y="6" x="6" height="38" width="38"
                fill="#f2f5e9" fill-opacity="0.5" stroke="#606060" stroke-width="1.0"/>
           <path id="arrow"
             d="M 11.500037,31.436501 C 11.940474,20.09759 22.043105,11.32322 32.158766,21.979434 L 37.068811,17.246167 C 37.068811,17.246167 37.088388,32 37.088388,32 L 22.160133,31.978069 C 22.160133,31.978069 26.997745,27.140456 26.997745,27.140456 C 18.528582,18.264221 13.291696,25.230495 11.500037,31.436501 z"
             style="fill:#404040;"/>
          </a>
         </g>
        </svg>
</svg>
