<?xml version="1.0" encoding="UTF-8" standalone="no"?>
<!DOCTYPE svg PUBLIC "-//W3C//DTD SVG 1.1//EN"
 "http://www.w3.org/Graphics/SVG/1.1/DTD/svg11.dtd">
<!-- Generated by graphviz version 2.43.0 (0)
 -->
<!-- Title: bio/alphabet/aminoacid/concept.hpp Pages: 1 -->
<!--zoomable 441 -->
<svg id="main" version="1.1" xmlns="http://www.w3.org/2000/svg" xmlns:xlink="http://www.w3.org/1999/xlink" xml:space="preserve" onload="init(evt)">
<style type="text/css"><![CDATA[
.edge:hover path { stroke: red; }
.edge:hover polygon { stroke: red; fill: red; }
]]></style>
<script type="text/javascript"><![CDATA[
var edges = document.getElementsByTagName('g');
if (edges && edges.length) {
  for (var i=0;i<edges.length;i++) {
    if (edges[i].id.substr(0,4)=='edge') {
      edges[i].setAttribute('class','edge');
    }
  }
}
]]></script>
        <defs>
                <circle id="rim" cx="0" cy="0" r="7"/>
                <circle id="rim2" cx="0" cy="0" r="3.5"/>
                <g id="zoomPlus">
                        <use xlink:href="#rim" fill="#404040">
                                <set attributeName="fill" to="#808080" begin="zoomplus.mouseover" end="zoomplus.mouseout"/>
                        </use>
                        <path d="M-4,0h8M0,-4v8" fill="none" stroke="white" stroke-width="1.5" pointer-events="none"/>
                </g>
                <g id="zoomMin">
                        <use xlink:href="#rim" fill="#404040">
                                <set attributeName="fill" to="#808080" begin="zoomminus.mouseover" end="zoomminus.mouseout"/>
                        </use>
                        <path d="M-4,0h8" fill="none" stroke="white" stroke-width="1.5" pointer-events="none"/>
                </g>
                <g id="dirArrow">
                        <path fill="none" stroke="white" stroke-width="1.5" d="M0,-3.0v7 M-2.5,-0.5L0,-3.0L2.5,-0.5"/>
                </g>
               <g id="resetDef">
                       <use xlink:href="#rim2" fill="#404040">
                               <set attributeName="fill" to="#808080" begin="reset.mouseover" end="reset.mouseout"/>
                       </use>
               </g>
        </defs>

<script type="text/javascript">
var viewWidth = 729;
var viewHeight = 441;
var sectionId = 'dynsection-1';
</script>
<script xlink:href="svgpan.js"/>
<svg id="graph" class="graph">
<g id="viewport">
<title>bio/alphabet/aminoacid/concept.hpp</title>
<polygon fill="white" stroke="transparent" points="-4,4 -4,-437 725,-437 725,4 -4,4"/>
<!-- Node1 -->
<g id="node1" class="node">
<title>Node1</title>
<g id="a_node1"><a xlink:title="Provides bio::aminoacid_alphabet.">
<polygon fill="#bfbfbf" stroke="black" points="185.5,-402.5 185.5,-432.5 316.5,-432.5 316.5,-402.5 185.5,-402.5"/>
<text text-anchor="start" x="193.5" y="-420.5" font-family="Helvetica,sans-Serif" font-size="10.00">bio/alphabet/aminoacid</text>
<text text-anchor="middle" x="251" y="-409.5" font-family="Helvetica,sans-Serif" font-size="10.00">/concept.hpp</text>
</a>
</g>
</g>
<!-- Node2 -->
<g id="node2" class="node">
<title>Node2</title>
<g id="a_node2"><a xlink:href="aa10li_8hpp.html" target="_top" xlink:title="Provides bio::aa10li, container aliases and string literals.">
<polygon fill="white" stroke="black" points="28.5,-268.5 28.5,-298.5 159.5,-298.5 159.5,-268.5 28.5,-268.5"/>
<text text-anchor="start" x="36.5" y="-286.5" font-family="Helvetica,sans-Serif" font-size="10.00">bio/alphabet/aminoacid</text>
<text text-anchor="middle" x="94" y="-275.5" font-family="Helvetica,sans-Serif" font-size="10.00">/aa10li.hpp</text>
</a>
</g>
</g>
<!-- Node1&#45;&gt;Node2 -->
<g id="edge1" class="edge">
<title>Node1&#45;&gt;Node2</title>
<path fill="none" stroke="midnightblue" d="M226.54,-395.94C194.31,-368.84 138.46,-321.88 110.68,-298.52"/>
<polygon fill="midnightblue" stroke="midnightblue" points="224.29,-398.62 234.2,-402.37 228.8,-393.26 224.29,-398.62"/>
</g>
<!-- Node3 -->
<g id="node3" class="node">
<title>Node3</title>
<g id="a_node3"><a xlink:href="alphabet_2aminoacid_2all_8hpp.html" target="_top" xlink:title="Meta&#45;header for the aminoacid submodule; includes all headers from alphabet/aminoacid/.">
<polygon fill="white" stroke="black" points="234.5,-67.5 234.5,-97.5 365.5,-97.5 365.5,-67.5 234.5,-67.5"/>
<text text-anchor="start" x="242.5" y="-85.5" font-family="Helvetica,sans-Serif" font-size="10.00">bio/alphabet/aminoacid</text>
<text text-anchor="middle" x="300" y="-74.5" font-family="Helvetica,sans-Serif" font-size="10.00">/all.hpp</text>
</a>
</g>
</g>
<!-- Node1&#45;&gt;Node3 -->
<g id="edge22" class="edge">
<title>Node1&#45;&gt;Node3</title>
<path fill="none" stroke="midnightblue" d="M175.15,-408.58C101.26,-396.17 0,-364.56 0,-284.5 0,-284.5 0,-284.5 0,-215.5 0,-113.93 145.85,-89.83 234.16,-84.54"/>
<polygon fill="midnightblue" stroke="midnightblue" points="174.95,-412.09 185.38,-410.21 176.05,-405.18 174.95,-412.09"/>
</g>
<!-- Node5 -->
<g id="node5" class="node">
<title>Node5</title>
<g id="a_node5"><a xlink:href="aa10murphy_8hpp.html" target="_top" xlink:title="Provides bio::aa10murphy, container aliases and string literals.">
<polygon fill="white" stroke="black" points="177.5,-268.5 177.5,-298.5 308.5,-298.5 308.5,-268.5 177.5,-268.5"/>
<text text-anchor="start" x="185.5" y="-286.5" font-family="Helvetica,sans-Serif" font-size="10.00">bio/alphabet/aminoacid</text>
<text text-anchor="middle" x="243" y="-275.5" font-family="Helvetica,sans-Serif" font-size="10.00">/aa10murphy.hpp</text>
</a>
</g>
</g>
<!-- Node1&#45;&gt;Node5 -->
<g id="edge4" class="edge">
<title>Node1&#45;&gt;Node5</title>
<path fill="none" stroke="midnightblue" d="M235.1,-393.61C230.22,-385.3 225.48,-375.59 223,-366 216.91,-342.44 227.27,-314.94 235.22,-298.66"/>
<polygon fill="midnightblue" stroke="midnightblue" points="232.28,-395.7 240.56,-402.31 238.21,-391.98 232.28,-395.7"/>
</g>
<!-- Node6 -->
<g id="node6" class="node">
<title>Node6</title>
<g id="a_node6"><a xlink:href="aa20_8hpp.html" target="_top" xlink:title="Provides bio::aa20, container aliases and string literals.">
<polygon fill="white" stroke="black" points="326.5,-268.5 326.5,-298.5 457.5,-298.5 457.5,-268.5 326.5,-268.5"/>
<text text-anchor="start" x="334.5" y="-286.5" font-family="Helvetica,sans-Serif" font-size="10.00">bio/alphabet/aminoacid</text>
<text text-anchor="middle" x="392" y="-275.5" font-family="Helvetica,sans-Serif" font-size="10.00">/aa20.hpp</text>
</a>
</g>
</g>
<!-- Node1&#45;&gt;Node6 -->
<g id="edge6" class="edge">
<title>Node1&#45;&gt;Node6</title>
<path fill="none" stroke="midnightblue" d="M324.88,-398.82C342.82,-391.35 360.43,-380.81 373,-366 389.26,-346.84 392.22,-316.35 392.43,-298.6"/>
<polygon fill="midnightblue" stroke="midnightblue" points="323.55,-395.58 315.49,-402.45 326.08,-402.11 323.55,-395.58"/>
</g>
<!-- Node7 -->
<g id="node7" class="node">
<title>Node7</title>
<g id="a_node7"><a xlink:href="aa27_8hpp.html" target="_top" xlink:title="Provides bio::aa27, container aliases and string literals.">
<polygon fill="white" stroke="black" points="475.5,-268.5 475.5,-298.5 606.5,-298.5 606.5,-268.5 475.5,-268.5"/>
<text text-anchor="start" x="483.5" y="-286.5" font-family="Helvetica,sans-Serif" font-size="10.00">bio/alphabet/aminoacid</text>
<text text-anchor="middle" x="541" y="-275.5" font-family="Helvetica,sans-Serif" font-size="10.00">/aa27.hpp</text>
</a>
</g>
</g>
<!-- Node1&#45;&gt;Node7 -->
<g id="edge8" class="edge">
<title>Node1&#45;&gt;Node7</title>
<path fill="none" stroke="midnightblue" d="M306.46,-399.31C333.31,-390.39 365.77,-378.7 394,-366 439.64,-345.46 490.1,-315.87 518.44,-298.56"/>
<polygon fill="midnightblue" stroke="midnightblue" points="305.25,-396.03 296.84,-402.47 307.43,-402.68 305.25,-396.03"/>
</g>
<!-- Node15 -->
<g id="node15" class="node">
<title>Node15</title>
<g id="a_node15"><a xlink:href="aminoacid__base_8hpp.html" target="_top" xlink:title="Provides bio::aminoacid_base.">
<polygon fill="white" stroke="black" points="232.5,-335.5 232.5,-365.5 363.5,-365.5 363.5,-335.5 232.5,-335.5"/>
<text text-anchor="start" x="240.5" y="-353.5" font-family="Helvetica,sans-Serif" font-size="10.00">bio/alphabet/aminoacid</text>
<text text-anchor="middle" x="298" y="-342.5" font-family="Helvetica,sans-Serif" font-size="10.00">/aminoacid_base.hpp</text>
</a>
</g>
</g>
<!-- Node1&#45;&gt;Node15 -->
<g id="edge23" class="edge">
<title>Node1&#45;&gt;Node15</title>
<path fill="none" stroke="midnightblue" d="M267.16,-394.16C274.01,-384.68 281.79,-373.92 287.82,-365.58"/>
<polygon fill="midnightblue" stroke="midnightblue" points="264.22,-392.24 261.2,-402.4 269.89,-396.34 264.22,-392.24"/>
</g>
<!-- Node2&#45;&gt;Node3 -->
<g id="edge2" class="edge">
<title>Node2&#45;&gt;Node3</title>
<path fill="none" stroke="midnightblue" d="M116.12,-261.14C158.4,-220.29 249.68,-132.11 285.32,-97.68"/>
<polygon fill="midnightblue" stroke="midnightblue" points="113.58,-258.72 108.82,-268.19 118.44,-263.76 113.58,-258.72"/>
</g>
<!-- Node4 -->
<g id="node4" class="node">
<title>Node4</title>
<g id="a_node4"><a xlink:href="alphabet_2all_8hpp.html" target="_top" xlink:title="Meta&#45;header for the alphabet module.">
<polygon fill="white" stroke="black" points="274.5,-6 274.5,-25 387.5,-25 387.5,-6 274.5,-6"/>
<text text-anchor="middle" x="331" y="-13" font-family="Helvetica,sans-Serif" font-size="10.00">bio/alphabet/all.hpp</text>
</a>
</g>
</g>
<!-- Node3&#45;&gt;Node4 -->
<g id="edge3" class="edge">
<title>Node3&#45;&gt;Node4</title>
<path fill="none" stroke="midnightblue" d="M311.07,-58.29C316.55,-46.8 322.83,-33.63 326.85,-25.19"/>
<polygon fill="midnightblue" stroke="midnightblue" points="307.87,-56.86 306.73,-67.4 314.19,-59.88 307.87,-56.86"/>
</g>
<!-- Node5&#45;&gt;Node3 -->
<g id="edge5" class="edge">
<title>Node5&#45;&gt;Node3</title>
<path fill="none" stroke="midnightblue" d="M243.84,-258.1C245.57,-228 250.86,-175.68 267,-134 272.14,-120.72 281.14,-107.3 288.44,-97.63"/>
<polygon fill="midnightblue" stroke="midnightblue" points="240.33,-258.33 243.34,-268.49 247.32,-258.67 240.33,-258.33"/>
</g>
<!-- Node6&#45;&gt;Node3 -->
<g id="edge7" class="edge">
<title>Node6&#45;&gt;Node3</title>
<path fill="none" stroke="midnightblue" d="M340.73,-263.82C326.77,-256.16 313.24,-245.77 305,-232 279.3,-189.06 289.68,-125.92 296.22,-97.86"/>
<polygon fill="midnightblue" stroke="midnightblue" points="339.42,-267.08 349.92,-268.47 342.58,-260.83 339.42,-267.08"/>
</g>
<!-- Node7&#45;&gt;Node3 -->
<g id="edge9" class="edge">
<title>Node7&#45;&gt;Node3</title>
<path fill="none" stroke="midnightblue" d="M465.49,-267.5C412.07,-256.23 348.33,-241.22 339,-232 319.76,-212.98 306.51,-130.75 301.85,-97.51"/>
<polygon fill="midnightblue" stroke="midnightblue" points="464.83,-270.93 475.33,-269.55 466.26,-264.08 464.83,-270.93"/>
</g>
<!-- Node8 -->
<g id="node8" class="node">
<title>Node8</title>
<g id="a_node8"><a xlink:href="translation_8hpp.html" target="_top" xlink:title="Provides functions for translating a triplet of nucleotides into an amino acid.">
<polygon fill="white" stroke="black" points="385.5,-134.5 385.5,-164.5 516.5,-164.5 516.5,-134.5 385.5,-134.5"/>
<text text-anchor="start" x="393.5" y="-152.5" font-family="Helvetica,sans-Serif" font-size="10.00">bio/alphabet/aminoacid</text>
<text text-anchor="middle" x="451" y="-141.5" font-family="Helvetica,sans-Serif" font-size="10.00">/translation.hpp</text>
</a>
</g>
</g>
<!-- Node7&#45;&gt;Node8 -->
<g id="edge10" class="edge">
<title>Node7&#45;&gt;Node8</title>
<path fill="none" stroke="midnightblue" d="M526.69,-259.76C516.21,-243.29 501.52,-220.57 488,-201 479.48,-188.66 469.39,-174.95 461.9,-164.93"/>
<polygon fill="midnightblue" stroke="midnightblue" points="523.74,-261.63 532.04,-268.21 529.65,-257.89 523.74,-261.63"/>
</g>
<!-- Node9 -->
<g id="node9" class="node">
<title>Node9</title>
<g id="a_node9"><a xlink:href="translate_8hpp.html" target="_top" xlink:title="Provides bio::views::translate and bio::views::translate_single.">
<polygon fill="white" stroke="black" points="528.5,-73 528.5,-92 695.5,-92 695.5,-73 528.5,-73"/>
<text text-anchor="middle" x="612" y="-80" font-family="Helvetica,sans-Serif" font-size="10.00">bio/ranges/views/translate.hpp</text>
</a>
</g>
</g>
<!-- Node7&#45;&gt;Node9 -->
<g id="edge21" class="edge">
<title>Node7&#45;&gt;Node9</title>
<path fill="none" stroke="midnightblue" d="M616.39,-268.79C636.48,-261.32 655.92,-249.8 668,-232 692.46,-195.96 685.7,-173.8 668,-134 659.7,-115.34 640.72,-100.67 627.16,-92.05"/>
<polygon fill="midnightblue" stroke="midnightblue" points="615.17,-265.5 606.83,-272.04 617.42,-272.13 615.17,-265.5"/>
</g>
<!-- Node12 -->
<g id="node12" class="node">
<title>Node12</title>
<g id="a_node12"><a xlink:href="translation__details_8hpp.html" target="_top" xlink:title="Provides translation details for nucleotide to aminoacid translation.">
<polygon fill="white" stroke="black" points="347.5,-201.5 347.5,-231.5 478.5,-231.5 478.5,-201.5 347.5,-201.5"/>
<text text-anchor="start" x="355.5" y="-219.5" font-family="Helvetica,sans-Serif" font-size="10.00">bio/alphabet/aminoacid</text>
<text text-anchor="middle" x="413" y="-208.5" font-family="Helvetica,sans-Serif" font-size="10.00">/translation_details.hpp</text>
</a>
</g>
</g>
<!-- Node7&#45;&gt;Node12 -->
<g id="edge15" class="edge">
<title>Node7&#45;&gt;Node12</title>
<path fill="none" stroke="midnightblue" d="M504.28,-263.85C484.04,-253.58 459.33,-241.03 440.72,-231.58"/>
<polygon fill="midnightblue" stroke="midnightblue" points="502.72,-266.99 513.23,-268.4 505.89,-260.75 502.72,-266.99"/>
</g>
<!-- Node13 -->
<g id="node13" class="node">
<title>Node13</title>
<g id="a_node13"><a xlink:href="structured__aa_8hpp.html" target="_top" xlink:title="Provides the composite of aminoacid with structure alphabets.">
<polygon fill="white" stroke="black" points="535,-201.5 535,-231.5 659,-231.5 659,-201.5 535,-201.5"/>
<text text-anchor="start" x="543" y="-219.5" font-family="Helvetica,sans-Serif" font-size="10.00">bio/alphabet/structure</text>
<text text-anchor="middle" x="597" y="-208.5" font-family="Helvetica,sans-Serif" font-size="10.00">/structured_aa.hpp</text>
</a>
</g>
</g>
<!-- Node7&#45;&gt;Node13 -->
<g id="edge18" class="edge">
<title>Node7&#45;&gt;Node13</title>
<path fill="none" stroke="midnightblue" d="M559.75,-260.74C568.04,-251.12 577.54,-240.09 584.87,-231.58"/>
<polygon fill="midnightblue" stroke="midnightblue" points="557.03,-258.54 553.15,-268.4 562.33,-263.1 557.03,-258.54"/>
</g>
<!-- Node8&#45;&gt;Node3 -->
<g id="edge11" class="edge">
<title>Node8&#45;&gt;Node3</title>
<path fill="none" stroke="midnightblue" d="M408.97,-130.41C384.86,-120.03 355.05,-107.2 332.7,-97.58"/>
<polygon fill="midnightblue" stroke="midnightblue" points="407.67,-133.66 418.24,-134.4 410.43,-127.23 407.67,-133.66"/>
</g>
<!-- Node8&#45;&gt;Node9 -->
<g id="edge12" class="edge">
<title>Node8&#45;&gt;Node9</title>
<path fill="none" stroke="midnightblue" d="M495.28,-130.62C526.45,-118.04 566.76,-101.77 590.93,-92.01"/>
<polygon fill="midnightblue" stroke="midnightblue" points="493.9,-127.41 485.93,-134.4 496.52,-133.9 493.9,-127.41"/>
</g>
<!-- Node10 -->
<g id="node10" class="node">
<title>Node10</title>
<g id="a_node10"><a xlink:href="ranges_2views_2all_8hpp.html" target="_top" xlink:title="Meta&#45;header for the views submodule .">
<polygon fill="white" stroke="black" points="421.5,-6 421.5,-25 556.5,-25 556.5,-6 421.5,-6"/>
<text text-anchor="middle" x="489" y="-13" font-family="Helvetica,sans-Serif" font-size="10.00">bio/ranges/views/all.hpp</text>
</a>
</g>
</g>
<!-- Node9&#45;&gt;Node10 -->
<g id="edge13" class="edge">
<title>Node9&#45;&gt;Node10</title>
<path fill="none" stroke="midnightblue" d="M586.65,-68.1C562.29,-55.23 526.2,-36.16 505.4,-25.17"/>
<polygon fill="midnightblue" stroke="midnightblue" points="585.19,-71.29 595.67,-72.87 588.46,-65.1 585.19,-71.29"/>
</g>
<!-- Node11 -->
<g id="node11" class="node">
<title>Node11</title>
<g id="a_node11"><a xlink:href="translate__join_8hpp.html" target="_top" xlink:title="Provides bio::views::translate_join.">
<polygon fill="white" stroke="black" points="575,-0.5 575,-30.5 721,-30.5 721,-0.5 575,-0.5"/>
<text text-anchor="start" x="583" y="-18.5" font-family="Helvetica,sans-Serif" font-size="10.00">bio/ranges/views/translate</text>
<text text-anchor="middle" x="648" y="-7.5" font-family="Helvetica,sans-Serif" font-size="10.00">_join.hpp</text>
</a>
</g>
</g>
<!-- Node9&#45;&gt;Node11 -->
<g id="edge14" class="edge">
<title>Node9&#45;&gt;Node11</title>
<path fill="none" stroke="midnightblue" d="M621.85,-63.71C627.63,-53.29 634.82,-40.3 640.2,-30.59"/>
<polygon fill="midnightblue" stroke="midnightblue" points="618.64,-62.29 616.86,-72.73 624.76,-65.68 618.64,-62.29"/>
</g>
<!-- Node12&#45;&gt;Node3 -->
<g id="edge16" class="edge">
<title>Node12&#45;&gt;Node3</title>
<path fill="none" stroke="midnightblue" d="M394.2,-193.54C370.84,-166.25 331.66,-120.48 312.01,-97.52"/>
<polygon fill="midnightblue" stroke="midnightblue" points="391.74,-196.05 400.91,-201.37 397.06,-191.5 391.74,-196.05"/>
</g>
<!-- Node12&#45;&gt;Node8 -->
<g id="edge17" class="edge">
<title>Node12&#45;&gt;Node8</title>
<path fill="none" stroke="midnightblue" d="M426.4,-192.58C431.86,-183.24 437.99,-172.75 442.77,-164.58"/>
<polygon fill="midnightblue" stroke="midnightblue" points="423.27,-191 421.25,-201.4 429.31,-194.53 423.27,-191"/>
</g>
<!-- Node14 -->
<g id="node14" class="node">
<title>Node14</title>
<g id="a_node14"><a xlink:href="alphabet_2structure_2all_8hpp.html" target="_top" xlink:title="Meta&#45;header for the structure module. It includes all headers from alphabet/structure/.">
<polygon fill="white" stroke="black" points="535,-134.5 535,-164.5 659,-164.5 659,-134.5 535,-134.5"/>
<text text-anchor="start" x="543" y="-152.5" font-family="Helvetica,sans-Serif" font-size="10.00">bio/alphabet/structure</text>
<text text-anchor="middle" x="597" y="-141.5" font-family="Helvetica,sans-Serif" font-size="10.00">/all.hpp</text>
</a>
</g>
</g>
<!-- Node13&#45;&gt;Node14 -->
<g id="edge19" class="edge">
<title>Node13&#45;&gt;Node14</title>
<path fill="none" stroke="midnightblue" d="M597,-191.11C597,-182.15 597,-172.32 597,-164.58"/>
<polygon fill="midnightblue" stroke="midnightblue" points="593.5,-191.4 597,-201.4 600.5,-191.4 593.5,-191.4"/>
</g>
<!-- Node14&#45;&gt;Node4 -->
<g id="edge20" class="edge">
<title>Node14&#45;&gt;Node4</title>
<path fill="none" stroke="midnightblue" d="M559.28,-129.78C500.85,-100.79 390.79,-46.17 348.32,-25.1"/>
<polygon fill="midnightblue" stroke="midnightblue" points="558.02,-133.06 568.53,-134.37 561.13,-126.79 558.02,-133.06"/>
</g>
<!-- Node15&#45;&gt;Node2 -->
<g id="edge24" class="edge">
<title>Node15&#45;&gt;Node2</title>
<path fill="none" stroke="midnightblue" d="M244.04,-332.31C211.04,-321.79 169.34,-308.51 138.29,-298.61"/>
<polygon fill="midnightblue" stroke="midnightblue" points="243.4,-335.77 253.99,-335.48 245.52,-329.11 243.4,-335.77"/>
</g>
<!-- Node15&#45;&gt;Node5 -->
<g id="edge25" class="edge">
<title>Node15&#45;&gt;Node5</title>
<path fill="none" stroke="midnightblue" d="M279.58,-327.74C271.45,-318.12 262.11,-307.09 254.91,-298.58"/>
<polygon fill="midnightblue" stroke="midnightblue" points="276.93,-330.02 286.07,-335.4 282.28,-325.5 276.93,-330.02"/>
</g>
<!-- Node15&#45;&gt;Node6 -->
<g id="edge26" class="edge">
<title>Node15&#45;&gt;Node6</title>
<path fill="none" stroke="midnightblue" d="M326.99,-329.45C341.45,-319.45 358.59,-307.6 371.64,-298.58"/>
<polygon fill="midnightblue" stroke="midnightblue" points="324.63,-326.83 318.4,-335.4 328.61,-332.59 324.63,-326.83"/>
</g>
<!-- Node15&#45;&gt;Node7 -->
<g id="edge27" class="edge">
<title>Node15&#45;&gt;Node7</title>
<path fill="none" stroke="midnightblue" d="M360.25,-332.85C399.86,-322.25 450.61,-308.68 488.25,-298.61"/>
<polygon fill="midnightblue" stroke="midnightblue" points="359.18,-329.51 350.43,-335.48 360.99,-336.27 359.18,-329.51"/>
</g>
</g>
</svg>
        <g id="navigator" transform="translate(0 0)" fill="#404254">
                <rect fill="#f2f5e9" fill-opacity="0.5" stroke="#606060" stroke-width=".5" x="0" y="0" width="60" height="60"/>
                <use id="zoomplus" xlink:href="#zoomPlus" x="17" y="9" onmousedown="handleZoom(evt,'in')"/>
                <use id="zoomminus" xlink:href="#zoomMin" x="42" y="9" onmousedown="handleZoom(evt,'out')"/>
                <use id="reset" xlink:href="#resetDef" x="30" y="36" onmousedown="handleReset()"/>
                <g id="arrowUp" xlink:href="#dirArrow" transform="translate(30 24)" onmousedown="handlePan(0,-1)">
                  <use xlink:href="#rim" fill="#404040">
                        <set attributeName="fill" to="#808080" begin="arrowUp.mouseover" end="arrowUp.mouseout"/>
                  </use>
                  <path fill="none" stroke="white" stroke-width="1.5" d="M0,-3.0v7 M-2.5,-0.5L0,-3.0L2.5,-0.5"/>
                </g>
                <g id="arrowRight" xlink:href="#dirArrow" transform="rotate(90) translate(36 -43)" onmousedown="handlePan(1,0)">
                  <use xlink:href="#rim" fill="#404040">
                        <set attributeName="fill" to="#808080" begin="arrowRight.mouseover" end="arrowRight.mouseout"/>
                  </use>
                  <path fill="none" stroke="white" stroke-width="1.5" d="M0,-3.0v7 M-2.5,-0.5L0,-3.0L2.5,-0.5"/>
                </g>
                <g id="arrowDown" xlink:href="#dirArrow" transform="rotate(180) translate(-30 -48)" onmousedown="handlePan(0,1)">
                  <use xlink:href="#rim" fill="#404040">
                        <set attributeName="fill" to="#808080" begin="arrowDown.mouseover" end="arrowDown.mouseout"/>
                  </use>
                  <path fill="none" stroke="white" stroke-width="1.5" d="M0,-3.0v7 M-2.5,-0.5L0,-3.0L2.5,-0.5"/>
                </g>
                <g id="arrowLeft" xlink:href="#dirArrow" transform="rotate(270) translate(-36 17)" onmousedown="handlePan(-1,0)">
                  <use xlink:href="#rim" fill="#404040">
                        <set attributeName="fill" to="#808080" begin="arrowLeft.mouseover" end="arrowLeft.mouseout"/>
                  </use>
                  <path fill="none" stroke="white" stroke-width="1.5" d="M0,-3.0v7 M-2.5,-0.5L0,-3.0L2.5,-0.5"/>
                </g>
        </g>
        <svg viewBox="0 0 15 15" width="100%" height="30px" preserveAspectRatio="xMaxYMin meet">
         <g id="arrow_out" transform="scale(0.3 0.3)">
          <a xlink:href="alphabet_2aminoacid_2concept_8hpp__dep__incl_org.svg" target="_base">
           <rect id="button" ry="5" rx="5" y="6" x="6" height="38" width="38"
                fill="#f2f5e9" fill-opacity="0.5" stroke="#606060" stroke-width="1.0"/>
           <path id="arrow"
             d="M 11.500037,31.436501 C 11.940474,20.09759 22.043105,11.32322 32.158766,21.979434 L 37.068811,17.246167 C 37.068811,17.246167 37.088388,32 37.088388,32 L 22.160133,31.978069 C 22.160133,31.978069 26.997745,27.140456 26.997745,27.140456 C 18.528582,18.264221 13.291696,25.230495 11.500037,31.436501 z"
             style="fill:#404040;"/>
          </a>
         </g>
        </svg>
</svg>
