<?xml version="1.0" encoding="UTF-8" standalone="no"?>
<!DOCTYPE svg PUBLIC "-//W3C//DTD SVG 1.1//EN"
 "http://www.w3.org/Graphics/SVG/1.1/DTD/svg11.dtd">
<!-- Generated by graphviz version 2.42.2 ()
 -->
<!-- Title: bio/alphabet/composite/detail.hpp Pages: 1 -->
<svg width="685pt" height="363pt"
 viewBox="0.00 0.00 684.50 363.00" xmlns="http://www.w3.org/2000/svg" xmlns:xlink="http://www.w3.org/1999/xlink">
<g id="graph0" class="graph" transform="scale(1 1) rotate(0) translate(4 359)">
<title>bio/alphabet/composite/detail.hpp</title>
<polygon fill="white" stroke="transparent" points="-4,4 -4,-359 680.5,-359 680.5,4 -4,4"/>
<!-- Node1 -->
<g id="node1" class="node">
<title>Node1</title>
<g id="a_node1"><a xlink:title=" ">
<polygon fill="#bfbfbf" stroke="black" points="338.5,-324.5 338.5,-354.5 455.5,-354.5 455.5,-324.5 338.5,-324.5"/>
<text text-anchor="start" x="346.5" y="-342.5" font-family="Helvetica,sans-Serif" font-size="10.00">bio/alphabet/composite</text>
<text text-anchor="middle" x="397" y="-331.5" font-family="Helvetica,sans-Serif" font-size="10.00">/detail.hpp</text>
</a>
</g>
</g>
<!-- Node2 -->
<g id="node2" class="node">
<title>Node2</title>
<g id="a_node2"><a xlink:href="alphabet__tuple__base_8hpp.html" target="_top" xlink:title="Provides bio::alphabet::alphabet_tuple_base.">
<polygon fill="white" stroke="black" points="263,-257.5 263,-287.5 391,-287.5 391,-257.5 263,-257.5"/>
<text text-anchor="start" x="271" y="-275.5" font-family="Helvetica,sans-Serif" font-size="10.00">bio/alphabet/composite</text>
<text text-anchor="middle" x="327" y="-264.5" font-family="Helvetica,sans-Serif" font-size="10.00">/alphabet_tuple_base.hpp</text>
</a>
</g>
</g>
<!-- Node1&#45;&gt;Node2 -->
<g id="edge1" class="edge">
<title>Node1&#45;&gt;Node2</title>
<path fill="none" stroke="midnightblue" d="M374.18,-317.31C363.68,-307.56 351.51,-296.26 342.16,-287.58"/>
<polygon fill="midnightblue" stroke="midnightblue" points="372.1,-320.16 381.81,-324.4 376.86,-315.03 372.1,-320.16"/>
</g>
<!-- Node13 -->
<g id="node13" class="node">
<title>Node13</title>
<g id="a_node13"><a xlink:href="alphabet__variant_8hpp.html" target="_top" xlink:title="Provides bio::alphabet::alphabet_variant.">
<polygon fill="white" stroke="black" points="409.5,-257.5 409.5,-287.5 526.5,-287.5 526.5,-257.5 409.5,-257.5"/>
<text text-anchor="start" x="417.5" y="-275.5" font-family="Helvetica,sans-Serif" font-size="10.00">bio/alphabet/composite</text>
<text text-anchor="middle" x="468" y="-264.5" font-family="Helvetica,sans-Serif" font-size="10.00">/alphabet_variant.hpp</text>
</a>
</g>
</g>
<!-- Node1&#45;&gt;Node13 -->
<g id="edge15" class="edge">
<title>Node1&#45;&gt;Node13</title>
<path fill="none" stroke="midnightblue" d="M419.83,-317.6C430.55,-307.78 443.05,-296.34 452.62,-287.58"/>
<polygon fill="midnightblue" stroke="midnightblue" points="417.42,-315.06 412.41,-324.4 422.15,-320.22 417.42,-315.06"/>
</g>
<!-- Node3 -->
<g id="node3" class="node">
<title>Node3</title>
<g id="a_node3"><a xlink:href="cigar_8hpp.html" target="_top" xlink:title="Provides the bio::alphabet::cigar alphabet.">
<polygon fill="white" stroke="black" points="289.5,-190.5 289.5,-220.5 382.5,-220.5 382.5,-190.5 289.5,-190.5"/>
<text text-anchor="start" x="297.5" y="-208.5" font-family="Helvetica,sans-Serif" font-size="10.00">bio/alphabet/cigar</text>
<text text-anchor="middle" x="336" y="-197.5" font-family="Helvetica,sans-Serif" font-size="10.00">/cigar.hpp</text>
</a>
</g>
</g>
<!-- Node2&#45;&gt;Node3 -->
<g id="edge2" class="edge">
<title>Node2&#45;&gt;Node3</title>
<path fill="none" stroke="midnightblue" d="M330.34,-247.4C331.59,-238.37 332.97,-228.41 334.05,-220.58"/>
<polygon fill="midnightblue" stroke="midnightblue" points="326.86,-247.01 328.95,-257.4 333.79,-247.97 326.86,-247.01"/>
</g>
<!-- Node4 -->
<g id="node4" class="node">
<title>Node4</title>
<g id="a_node4"><a xlink:href="alphabet_2composite_2all_8hpp.html" target="_top" xlink:title="Meta&#45;header for the composite submodule; includes all headers from alphabet/composite/.">
<polygon fill="white" stroke="black" points="400.5,-190.5 400.5,-220.5 517.5,-220.5 517.5,-190.5 400.5,-190.5"/>
<text text-anchor="start" x="408.5" y="-208.5" font-family="Helvetica,sans-Serif" font-size="10.00">bio/alphabet/composite</text>
<text text-anchor="middle" x="459" y="-197.5" font-family="Helvetica,sans-Serif" font-size="10.00">/all.hpp</text>
</a>
</g>
</g>
<!-- Node2&#45;&gt;Node4 -->
<g id="edge3" class="edge">
<title>Node2&#45;&gt;Node4</title>
<path fill="none" stroke="midnightblue" d="M364.87,-252.85C385.74,-242.58 411.23,-230.03 430.41,-220.58"/>
<polygon fill="midnightblue" stroke="midnightblue" points="363.07,-249.84 355.64,-257.4 366.16,-256.12 363.07,-249.84"/>
</g>
<!-- Node6 -->
<g id="node6" class="node">
<title>Node6</title>
<g id="a_node6"><a xlink:href="masked_8hpp.html" target="_top" xlink:title="Extends a given alphabet with the mask alphabet.">
<polygon fill="white" stroke="black" points="0,-196 0,-215 152,-215 152,-196 0,-196"/>
<text text-anchor="middle" x="76" y="-203" font-family="Helvetica,sans-Serif" font-size="10.00">bio/alphabet/mask/masked.hpp</text>
</a>
</g>
</g>
<!-- Node2&#45;&gt;Node6 -->
<g id="edge5" class="edge">
<title>Node2&#45;&gt;Node6</title>
<path fill="none" stroke="midnightblue" d="M262.94,-254.91C213.78,-242.18 147.93,-225.13 108.93,-215.03"/>
<polygon fill="midnightblue" stroke="midnightblue" points="262.29,-258.36 272.85,-257.48 264.04,-251.58 262.29,-258.36"/>
</g>
<!-- Node8 -->
<g id="node8" class="node">
<title>Node8</title>
<g id="a_node8"><a xlink:href="qualified_8hpp.html" target="_top" xlink:title="Provides quality alphabet composites.">
<polygon fill="white" stroke="black" points="170.5,-190.5 170.5,-220.5 271.5,-220.5 271.5,-190.5 170.5,-190.5"/>
<text text-anchor="start" x="178.5" y="-208.5" font-family="Helvetica,sans-Serif" font-size="10.00">bio/alphabet/quality</text>
<text text-anchor="middle" x="221" y="-197.5" font-family="Helvetica,sans-Serif" font-size="10.00">/qualified.hpp</text>
</a>
</g>
</g>
<!-- Node2&#45;&gt;Node8 -->
<g id="edge8" class="edge">
<title>Node2&#45;&gt;Node8</title>
<path fill="none" stroke="midnightblue" d="M295.22,-252.02C278.73,-241.9 258.95,-229.77 243.96,-220.58"/>
<polygon fill="midnightblue" stroke="midnightblue" points="293.65,-255.15 304,-257.4 297.3,-249.18 293.65,-255.15"/>
</g>
<!-- Node5 -->
<g id="node5" class="node">
<title>Node5</title>
<g id="a_node5"><a xlink:href="alphabet_2all_8hpp.html" target="_top" xlink:title="Meta&#45;header for the alphabet module.">
<polygon fill="white" stroke="black" points="368.5,-0.5 368.5,-19.5 469.5,-19.5 469.5,-0.5 368.5,-0.5"/>
<text text-anchor="middle" x="419" y="-7.5" font-family="Helvetica,sans-Serif" font-size="10.00">bio/alphabet/all.hpp</text>
</a>
</g>
</g>
<!-- Node4&#45;&gt;Node5 -->
<g id="edge4" class="edge">
<title>Node4&#45;&gt;Node5</title>
<path fill="none" stroke="midnightblue" d="M457.83,-180.02C455.93,-150.22 451.07,-98.61 439,-56 435.27,-42.84 428.39,-28.55 423.76,-19.69"/>
<polygon fill="midnightblue" stroke="midnightblue" points="454.36,-180.53 458.43,-190.31 461.35,-180.12 454.36,-180.53"/>
</g>
<!-- Node7 -->
<g id="node7" class="node">
<title>Node7</title>
<g id="a_node7"><a xlink:href="alphabet_2mask_2all_8hpp.html" target="_top" xlink:title="Meta&#45;header for the mask submodule; includes all headers from alphabet/mask/.">
<polygon fill="white" stroke="black" points="12,-129 12,-148 140,-148 140,-129 12,-129"/>
<text text-anchor="middle" x="76" y="-136" font-family="Helvetica,sans-Serif" font-size="10.00">bio/alphabet/mask/all.hpp</text>
</a>
</g>
</g>
<!-- Node6&#45;&gt;Node7 -->
<g id="edge6" class="edge">
<title>Node6&#45;&gt;Node7</title>
<path fill="none" stroke="midnightblue" d="M76,-185.54C76,-173.17 76,-157.62 76,-148.13"/>
<polygon fill="midnightblue" stroke="midnightblue" points="72.5,-185.73 76,-195.73 79.5,-185.73 72.5,-185.73"/>
</g>
<!-- Node7&#45;&gt;Node5 -->
<g id="edge7" class="edge">
<title>Node7&#45;&gt;Node5</title>
<path fill="none" stroke="midnightblue" d="M85.24,-120.01C96.28,-100.95 116.64,-71.17 143,-56 180.5,-34.42 299.59,-21.07 368.47,-14.96"/>
<polygon fill="midnightblue" stroke="midnightblue" points="82.12,-118.42 80.33,-128.86 88.24,-121.81 82.12,-118.42"/>
</g>
<!-- Node9 -->
<g id="node9" class="node">
<title>Node9</title>
<g id="a_node9"><a xlink:href="aliases_8hpp.html" target="_top" xlink:title="Provides aliases for qualified.">
<polygon fill="white" stroke="black" points="286.5,-123.5 286.5,-153.5 387.5,-153.5 387.5,-123.5 286.5,-123.5"/>
<text text-anchor="start" x="294.5" y="-141.5" font-family="Helvetica,sans-Serif" font-size="10.00">bio/alphabet/quality</text>
<text text-anchor="middle" x="337" y="-130.5" font-family="Helvetica,sans-Serif" font-size="10.00">/aliases.hpp</text>
</a>
</g>
</g>
<!-- Node8&#45;&gt;Node9 -->
<g id="edge9" class="edge">
<title>Node8&#45;&gt;Node9</title>
<path fill="none" stroke="midnightblue" d="M255.27,-185.3C273.42,-175.12 295.32,-162.85 311.88,-153.58"/>
<polygon fill="midnightblue" stroke="midnightblue" points="253.18,-182.45 246.17,-190.4 256.6,-188.56 253.18,-182.45"/>
</g>
<!-- Node10 -->
<g id="node10" class="node">
<title>Node10</title>
<g id="a_node10"><a xlink:href="alphabet_2quality_2all_8hpp.html" target="_top" xlink:title="Meta&#45;header that includes all headers from alphabet/quality/.">
<polygon fill="white" stroke="black" points="329.5,-56.5 329.5,-86.5 430.5,-86.5 430.5,-56.5 329.5,-56.5"/>
<text text-anchor="start" x="337.5" y="-74.5" font-family="Helvetica,sans-Serif" font-size="10.00">bio/alphabet/quality</text>
<text text-anchor="middle" x="380" y="-63.5" font-family="Helvetica,sans-Serif" font-size="10.00">/all.hpp</text>
</a>
</g>
</g>
<!-- Node8&#45;&gt;Node10 -->
<g id="edge12" class="edge">
<title>Node8&#45;&gt;Node10</title>
<path fill="none" stroke="midnightblue" d="M281.46,-188.89C330.6,-175.92 392.37,-158.83 396,-154 410.91,-134.18 398.56,-104.2 388.85,-86.66"/>
<polygon fill="midnightblue" stroke="midnightblue" points="280.29,-185.58 271.51,-191.51 282.07,-192.35 280.29,-185.58"/>
</g>
<!-- Node11 -->
<g id="node11" class="node">
<title>Node11</title>
<g id="a_node11"><a xlink:href="trim__quality_8hpp.html" target="_top" xlink:title="Provides bio::views::trim_quality.">
<polygon fill="white" stroke="black" points="158,-123.5 158,-153.5 268,-153.5 268,-123.5 158,-123.5"/>
<text text-anchor="start" x="166" y="-141.5" font-family="Helvetica,sans-Serif" font-size="10.00">bio/ranges/views/trim</text>
<text text-anchor="middle" x="213" y="-130.5" font-family="Helvetica,sans-Serif" font-size="10.00">_quality.hpp</text>
</a>
</g>
</g>
<!-- Node8&#45;&gt;Node11 -->
<g id="edge13" class="edge">
<title>Node8&#45;&gt;Node11</title>
<path fill="none" stroke="midnightblue" d="M218.03,-180.4C216.92,-171.37 215.7,-161.41 214.73,-153.58"/>
<polygon fill="midnightblue" stroke="midnightblue" points="214.57,-180.9 219.26,-190.4 221.52,-180.04 214.57,-180.9"/>
</g>
<!-- Node9&#45;&gt;Node10 -->
<g id="edge10" class="edge">
<title>Node9&#45;&gt;Node10</title>
<path fill="none" stroke="midnightblue" d="M351.97,-114.87C358.2,-105.46 365.23,-94.83 370.69,-86.58"/>
<polygon fill="midnightblue" stroke="midnightblue" points="348.93,-113.12 346.33,-123.4 354.77,-116.99 348.93,-113.12"/>
</g>
<!-- Node10&#45;&gt;Node5 -->
<g id="edge11" class="edge">
<title>Node10&#45;&gt;Node5</title>
<path fill="none" stroke="midnightblue" d="M394.88,-47.8C401.33,-37.96 408.49,-27.03 413.33,-19.66"/>
<polygon fill="midnightblue" stroke="midnightblue" points="391.8,-46.12 389.24,-56.4 397.65,-49.95 391.8,-46.12"/>
</g>
<!-- Node12 -->
<g id="node12" class="node">
<title>Node12</title>
<g id="a_node12"><a xlink:href="ranges_2views_2all_8hpp.html" target="_top" xlink:title="Meta&#45;header for the views submodule .">
<polygon fill="white" stroke="black" points="152,-62 152,-81 274,-81 274,-62 152,-62"/>
<text text-anchor="middle" x="213" y="-69" font-family="Helvetica,sans-Serif" font-size="10.00">bio/ranges/views/all.hpp</text>
</a>
</g>
</g>
<!-- Node11&#45;&gt;Node12 -->
<g id="edge14" class="edge">
<title>Node11&#45;&gt;Node12</title>
<path fill="none" stroke="midnightblue" d="M213,-113.25C213,-102.02 213,-89.38 213,-81.19"/>
<polygon fill="midnightblue" stroke="midnightblue" points="209.5,-113.4 213,-123.4 216.5,-113.4 209.5,-113.4"/>
</g>
<!-- Node13&#45;&gt;Node4 -->
<g id="edge16" class="edge">
<title>Node13&#45;&gt;Node4</title>
<path fill="none" stroke="midnightblue" d="M464.66,-247.4C463.41,-238.37 462.03,-228.41 460.95,-220.58"/>
<polygon fill="midnightblue" stroke="midnightblue" points="461.21,-247.97 466.05,-257.4 468.14,-247.01 461.21,-247.97"/>
</g>
<!-- Node14 -->
<g id="node14" class="node">
<title>Node14</title>
<g id="a_node14"><a xlink:href="gapped_8hpp.html" target="_top" xlink:title="Provides bio::alphabet::gapped.">
<polygon fill="white" stroke="black" points="535.5,-196 535.5,-215 676.5,-215 676.5,-196 535.5,-196"/>
<text text-anchor="middle" x="606" y="-203" font-family="Helvetica,sans-Serif" font-size="10.00">bio/alphabet/gap/gapped.hpp</text>
</a>
</g>
</g>
<!-- Node13&#45;&gt;Node14 -->
<g id="edge17" class="edge">
<title>Node13&#45;&gt;Node14</title>
<path fill="none" stroke="midnightblue" d="M507,-253.13C533.56,-240.62 567.49,-224.64 587.94,-215.01"/>
<polygon fill="midnightblue" stroke="midnightblue" points="505.5,-249.97 497.94,-257.4 508.48,-256.3 505.5,-249.97"/>
</g>
<!-- Node15 -->
<g id="node15" class="node">
<title>Node15</title>
<g id="a_node15"><a xlink:href="alphabet_2gap_2all_8hpp.html" target="_top" xlink:title="Meta&#45;header for the gap submodule; includes all headers from alphabet/gap/.">
<polygon fill="white" stroke="black" points="502.5,-62 502.5,-81 621.5,-81 621.5,-62 502.5,-62"/>
<text text-anchor="middle" x="562" y="-69" font-family="Helvetica,sans-Serif" font-size="10.00">bio/alphabet/gap/all.hpp</text>
</a>
</g>
</g>
<!-- Node14&#45;&gt;Node15 -->
<g id="edge18" class="edge">
<title>Node14&#45;&gt;Node15</title>
<path fill="none" stroke="midnightblue" d="M599.89,-186.16C590.24,-157.23 571.88,-102.13 564.84,-81.02"/>
<polygon fill="midnightblue" stroke="midnightblue" points="596.63,-187.46 603.11,-195.84 603.27,-185.25 596.63,-187.46"/>
</g>
<!-- Node15&#45;&gt;Node5 -->
<g id="edge19" class="edge">
<title>Node15&#45;&gt;Node5</title>
<path fill="none" stroke="midnightblue" d="M532.27,-58.13C504.49,-46.57 463.75,-29.62 439.45,-19.51"/>
<polygon fill="midnightblue" stroke="midnightblue" points="530.93,-61.36 541.51,-61.98 533.62,-54.9 530.93,-61.36"/>
</g>
</g>
</svg>
