<?xml version="1.0" encoding="UTF-8" standalone="no"?>
<!DOCTYPE svg PUBLIC "-//W3C//DTD SVG 1.1//EN"
 "http://www.w3.org/Graphics/SVG/1.1/DTD/svg11.dtd">
<!-- Generated by graphviz version 2.43.0 (0)
 -->
<!-- Title: bio/alphabet/structure/concept.hpp Pages: 1 -->
<svg width="1234pt" height="330pt"
 viewBox="0.00 0.00 1234.00 330.00" xmlns="http://www.w3.org/2000/svg" xmlns:xlink="http://www.w3.org/1999/xlink">
<g id="graph0" class="graph" transform="scale(1 1) rotate(0) translate(4 326)">
<title>bio/alphabet/structure/concept.hpp</title>
<polygon fill="white" stroke="transparent" points="-4,4 -4,-326 1230,-326 1230,4 -4,4"/>
<!-- Node1 -->
<g id="node1" class="node">
<title>Node1</title>
<g id="a_node1"><a xlink:title="Provides bio::alphabet::rna_structure_alphabet.">
<polygon fill="#bfbfbf" stroke="black" points="618.5,-291.5 618.5,-321.5 742.5,-321.5 742.5,-291.5 618.5,-291.5"/>
<text text-anchor="start" x="626.5" y="-309.5" font-family="Helvetica,sans-Serif" font-size="10.00">bio/alphabet/structure</text>
<text text-anchor="middle" x="680.5" y="-298.5" font-family="Helvetica,sans-Serif" font-size="10.00">/concept.hpp</text>
</a>
</g>
</g>
<!-- Node2 -->
<g id="node2" class="node">
<title>Node2</title>
<g id="a_node2"><a target="_blank" xlink:href="https://en.cppreference.com/w/cpp/header/optional.html" xlink:title=" ">
<polygon fill="white" stroke="black" points="423.5,-235.5 423.5,-254.5 479.5,-254.5 479.5,-235.5 423.5,-235.5"/>
<text text-anchor="middle" x="451.5" y="-242.5" font-family="Helvetica,sans-Serif" font-size="10.00">optional</text>
</a>
</g>
</g>
<!-- Node1&#45;&gt;Node2 -->
<g id="edge1" class="edge">
<title>Node1&#45;&gt;Node2</title>
<path fill="none" stroke="midnightblue" d="M626.52,-291.47C584.46,-280.55 527.11,-265.64 489.7,-255.92"/>
<polygon fill="midnightblue" stroke="midnightblue" points="490.26,-252.46 479.7,-253.33 488.5,-259.23 490.26,-252.46"/>
</g>
<!-- Node3 -->
<g id="node3" class="node">
<title>Node3</title>
<g id="a_node3"><a xlink:href="alphabet_2concept_8hpp.html" target="_top" xlink:title="Core alphabet concept and free function/type trait wrappers.">
<polygon fill="white" stroke="black" points="610.5,-235.5 610.5,-254.5 750.5,-254.5 750.5,-235.5 610.5,-235.5"/>
<text text-anchor="middle" x="680.5" y="-242.5" font-family="Helvetica,sans-Serif" font-size="10.00">bio/alphabet/concept.hpp</text>
</a>
</g>
</g>
<!-- Node1&#45;&gt;Node3 -->
<g id="edge2" class="edge">
<title>Node1&#45;&gt;Node3</title>
<path fill="none" stroke="midnightblue" d="M680.5,-291.4C680.5,-283.47 680.5,-273.46 680.5,-264.86"/>
<polygon fill="midnightblue" stroke="midnightblue" points="684,-264.66 680.5,-254.66 677,-264.66 684,-264.66"/>
</g>
<!-- Node4 -->
<g id="node4" class="node">
<title>Node4</title>
<g id="a_node4"><a target="_blank" xlink:href="https://en.cppreference.com/w/cpp/header/type_traits.html" xlink:title=" ">
<polygon fill="white" stroke="black" points="828,-112.5 828,-131.5 897,-131.5 897,-112.5 828,-112.5"/>
<text text-anchor="middle" x="862.5" y="-119.5" font-family="Helvetica,sans-Serif" font-size="10.00">type_traits</text>
</a>
</g>
</g>
<!-- Node1&#45;&gt;Node4 -->
<g id="edge35" class="edge">
<title>Node1&#45;&gt;Node4</title>
<path fill="none" stroke="midnightblue" d="M732.19,-291.41C776.08,-276.41 836.29,-247.92 864.5,-199 874.57,-181.53 871.91,-157.85 868.13,-141.59"/>
<polygon fill="midnightblue" stroke="midnightblue" points="871.44,-140.44 865.47,-131.69 864.68,-142.25 871.44,-140.44"/>
</g>
<!-- Node11 -->
<g id="node11" class="node">
<title>Node11</title>
<g id="a_node11"><a target="_blank" xlink:href="https://en.cppreference.com/w/cpp/header/concepts.html" xlink:title=" ">
<polygon fill="white" stroke="black" points="571.5,-112.5 571.5,-131.5 631.5,-131.5 631.5,-112.5 571.5,-112.5"/>
<text text-anchor="middle" x="601.5" y="-119.5" font-family="Helvetica,sans-Serif" font-size="10.00">concepts</text>
</a>
</g>
</g>
<!-- Node1&#45;&gt;Node11 -->
<g id="edge34" class="edge">
<title>Node1&#45;&gt;Node11</title>
<path fill="none" stroke="midnightblue" d="M641.61,-291.42C604.14,-275.47 549.81,-245.49 526.5,-199 520.33,-186.68 519.71,-179.99 526.5,-168 534.85,-153.26 550.16,-142.82 564.79,-135.73"/>
<polygon fill="midnightblue" stroke="midnightblue" points="566.5,-138.8 574.22,-131.55 563.66,-132.4 566.5,-138.8"/>
</g>
<!-- Node16 -->
<g id="node16" class="node">
<title>Node16</title>
<g id="a_node16"><a xlink:href="customisation__point_8hpp.html" target="_top" xlink:title="Helper utilities for defining customisation point objects.">
<polygon fill="white" stroke="black" points="1063,-168.5 1063,-198.5 1226,-198.5 1226,-168.5 1063,-168.5"/>
<text text-anchor="start" x="1071" y="-186.5" font-family="Helvetica,sans-Serif" font-size="10.00">bio/meta/detail/customisation</text>
<text text-anchor="middle" x="1144.5" y="-175.5" font-family="Helvetica,sans-Serif" font-size="10.00">_point.hpp</text>
</a>
</g>
</g>
<!-- Node1&#45;&gt;Node16 -->
<g id="edge33" class="edge">
<title>Node1&#45;&gt;Node16</title>
<path fill="none" stroke="midnightblue" d="M742.92,-293.53C790.25,-284.09 856.79,-270.04 914.5,-255 976.38,-238.87 1046.51,-216.82 1092.89,-201.69"/>
<polygon fill="midnightblue" stroke="midnightblue" points="1094,-205.01 1102.42,-198.58 1091.82,-198.36 1094,-205.01"/>
</g>
<!-- Node3&#45;&gt;Node4 -->
<g id="edge3" class="edge">
<title>Node3&#45;&gt;Node4</title>
<path fill="none" stroke="midnightblue" d="M750.7,-240.11C782.62,-234.8 818.52,-223.31 842.5,-199 857.37,-183.93 861.56,-159.2 862.56,-142.06"/>
<polygon fill="midnightblue" stroke="midnightblue" points="866.07,-141.71 862.83,-131.62 859.07,-141.53 866.07,-141.71"/>
</g>
<!-- Node5 -->
<g id="node5" class="node">
<title>Node5</title>
<g id="a_node5"><a xlink:href="alphabet_2biocpp_8hpp.html" target="_top" xlink:title="Module header with module&#45;wide definitions.">
<polygon fill="white" stroke="black" points="335.5,-112.5 335.5,-131.5 469.5,-131.5 469.5,-112.5 335.5,-112.5"/>
<text text-anchor="middle" x="402.5" y="-119.5" font-family="Helvetica,sans-Serif" font-size="10.00">bio/alphabet/biocpp.hpp</text>
</a>
</g>
</g>
<!-- Node3&#45;&gt;Node5 -->
<g id="edge4" class="edge">
<title>Node3&#45;&gt;Node5</title>
<path fill="none" stroke="midnightblue" d="M610.14,-240.11C511.03,-233.91 340.26,-220.25 321.5,-199 312.38,-188.67 314.51,-179.87 321.5,-168 330.42,-152.84 346.49,-142.43 361.98,-135.46"/>
<polygon fill="midnightblue" stroke="midnightblue" points="363.56,-138.6 371.48,-131.56 360.9,-132.12 363.56,-138.6"/>
</g>
<!-- Node10 -->
<g id="node10" class="node">
<title>Node10</title>
<g id="a_node10"><a xlink:href="exception_8hpp.html" target="_top" xlink:title="Exceptions thrown by entities in the alphabet module.">
<polygon fill="white" stroke="black" points="331,-174 331,-193 480,-193 480,-174 331,-174"/>
<text text-anchor="middle" x="405.5" y="-181" font-family="Helvetica,sans-Serif" font-size="10.00">bio/alphabet/exception.hpp</text>
</a>
</g>
</g>
<!-- Node3&#45;&gt;Node10 -->
<g id="edge9" class="edge">
<title>Node3&#45;&gt;Node10</title>
<path fill="none" stroke="midnightblue" d="M641.1,-235.48C591.99,-224.85 508.03,-206.68 454.73,-195.15"/>
<polygon fill="midnightblue" stroke="midnightblue" points="455.34,-191.7 444.83,-193.01 453.86,-198.54 455.34,-191.7"/>
</g>
<!-- Node14 -->
<g id="node14" class="node">
<title>Node14</title>
<g id="a_node14"><a xlink:href="cereal_8hpp.html" target="_top" xlink:title="Adaptions of concepts from the Cereal library.">
<polygon fill="white" stroke="black" points="679,-174 679,-193 834,-193 834,-174 679,-174"/>
<text text-anchor="middle" x="756.5" y="-181" font-family="Helvetica,sans-Serif" font-size="10.00">bio/meta/concept/cereal.hpp</text>
</a>
</g>
</g>
<!-- Node3&#45;&gt;Node14 -->
<g id="edge14" class="edge">
<title>Node3&#45;&gt;Node14</title>
<path fill="none" stroke="midnightblue" d="M691.39,-235.48C703.47,-226.02 723.17,-210.6 737.74,-199.19"/>
<polygon fill="midnightblue" stroke="midnightblue" points="739.91,-201.93 745.63,-193.01 735.6,-196.42 739.91,-201.93"/>
</g>
<!-- Node15 -->
<g id="node15" class="node">
<title>Node15</title>
<g id="a_node15"><a xlink:href="core__language_8hpp.html" target="_top" xlink:title="Provides concepts for core language types and relations that don&#39;t have concepts in C++20 (yet).">
<polygon fill="white" stroke="black" points="536,-168.5 536,-198.5 661,-198.5 661,-168.5 536,-168.5"/>
<text text-anchor="start" x="544" y="-186.5" font-family="Helvetica,sans-Serif" font-size="10.00">bio/meta/concept/core</text>
<text text-anchor="middle" x="598.5" y="-175.5" font-family="Helvetica,sans-Serif" font-size="10.00">_language.hpp</text>
</a>
</g>
</g>
<!-- Node3&#45;&gt;Node15 -->
<g id="edge17" class="edge">
<title>Node3&#45;&gt;Node15</title>
<path fill="none" stroke="midnightblue" d="M668.75,-235.48C657.65,-227.42 640.57,-215.02 626.03,-204.47"/>
<polygon fill="midnightblue" stroke="midnightblue" points="627.98,-201.56 617.83,-198.52 623.86,-207.23 627.98,-201.56"/>
</g>
<!-- Node3&#45;&gt;Node16 -->
<g id="edge21" class="edge">
<title>Node3&#45;&gt;Node16</title>
<path fill="none" stroke="midnightblue" d="M750.72,-236.33C823.58,-228.19 941.07,-214.56 1052.59,-199.09"/>
<polygon fill="midnightblue" stroke="midnightblue" points="1053.25,-202.54 1062.67,-197.69 1052.28,-195.6 1053.25,-202.54"/>
</g>
<!-- Node17 -->
<g id="node17" class="node">
<title>Node17</title>
<g id="a_node17"><a xlink:href="type__inspection_8hpp.html" target="_top" xlink:title="Provides traits to inspect some information of a type, for example its name.">
<polygon fill="white" stroke="black" points="146.5,-168.5 146.5,-198.5 262.5,-198.5 262.5,-168.5 146.5,-168.5"/>
<text text-anchor="start" x="154.5" y="-186.5" font-family="Helvetica,sans-Serif" font-size="10.00">bio/meta/detail/type</text>
<text text-anchor="middle" x="204.5" y="-175.5" font-family="Helvetica,sans-Serif" font-size="10.00">_inspection.hpp</text>
</a>
</g>
</g>
<!-- Node3&#45;&gt;Node17 -->
<g id="edge23" class="edge">
<title>Node3&#45;&gt;Node17</title>
<path fill="none" stroke="midnightblue" d="M610.43,-237.1C532.07,-229.11 401.45,-214.98 289.5,-199 284.04,-198.22 278.38,-197.36 272.71,-196.47"/>
<polygon fill="midnightblue" stroke="midnightblue" points="272.93,-192.96 262.5,-194.83 271.82,-199.87 272.93,-192.96"/>
</g>
<!-- Node21 -->
<g id="node21" class="node">
<title>Node21</title>
<g id="a_node21"><a xlink:href="basic_8hpp.html" target="_top" xlink:title="Provides various type traits on generic types.">
<polygon fill="white" stroke="black" points="928.5,-168.5 928.5,-198.5 1044.5,-198.5 1044.5,-168.5 928.5,-168.5"/>
<text text-anchor="start" x="936.5" y="-186.5" font-family="Helvetica,sans-Serif" font-size="10.00">bio/meta/type_traits</text>
<text text-anchor="middle" x="986.5" y="-175.5" font-family="Helvetica,sans-Serif" font-size="10.00">/basic.hpp</text>
</a>
</g>
</g>
<!-- Node3&#45;&gt;Node21 -->
<g id="edge29" class="edge">
<title>Node3&#45;&gt;Node21</title>
<path fill="none" stroke="midnightblue" d="M724.34,-235.48C775.04,-225.62 859.09,-209.27 918.33,-197.76"/>
<polygon fill="midnightblue" stroke="midnightblue" points="919.2,-201.15 928.35,-195.81 917.87,-194.28 919.2,-201.15"/>
</g>
<!-- Node6 -->
<g id="node6" class="node">
<title>Node6</title>
<g id="a_node6"><a xlink:href="platform_8hpp.html" target="_top" xlink:title="Provides platform and dependency checks.">
<polygon fill="white" stroke="black" points="666.5,-56.5 666.5,-75.5 792.5,-75.5 792.5,-56.5 666.5,-56.5"/>
<text text-anchor="middle" x="729.5" y="-63.5" font-family="Helvetica,sans-Serif" font-size="10.00">bio/meta/platform.hpp</text>
</a>
</g>
</g>
<!-- Node5&#45;&gt;Node6 -->
<g id="edge5" class="edge">
<title>Node5&#45;&gt;Node6</title>
<path fill="none" stroke="midnightblue" d="M454.31,-112.44C512.32,-102.87 606.24,-87.36 667.94,-77.17"/>
<polygon fill="midnightblue" stroke="midnightblue" points="668.63,-80.6 677.93,-75.52 667.49,-73.69 668.63,-80.6"/>
</g>
<!-- Node7 -->
<g id="node7" class="node">
<title>Node7</title>
<g id="a_node7"><a target="_blank" xlink:href="https://en.cppreference.com/w/cpp/header/cinttypes.html" xlink:title=" ">
<polygon fill="white" stroke="black" points="622.5,-0.5 622.5,-19.5 684.5,-19.5 684.5,-0.5 622.5,-0.5"/>
<text text-anchor="middle" x="653.5" y="-7.5" font-family="Helvetica,sans-Serif" font-size="10.00">cinttypes</text>
</a>
</g>
</g>
<!-- Node6&#45;&gt;Node7 -->
<g id="edge6" class="edge">
<title>Node6&#45;&gt;Node7</title>
<path fill="none" stroke="midnightblue" d="M717.29,-56.32C705.72,-48.11 688.12,-35.6 674.34,-25.81"/>
<polygon fill="midnightblue" stroke="midnightblue" points="676.11,-22.77 665.93,-19.83 672.06,-28.48 676.11,-22.77"/>
</g>
<!-- Node8 -->
<g id="node8" class="node">
<title>Node8</title>
<g id="a_node8"><a target="_blank" xlink:href="https://en.cppreference.com/w/cpp/header/ciso646.html" xlink:title=" ">
<polygon fill="white" stroke="black" points="702.5,-0.5 702.5,-19.5 756.5,-19.5 756.5,-0.5 702.5,-0.5"/>
<text text-anchor="middle" x="729.5" y="-7.5" font-family="Helvetica,sans-Serif" font-size="10.00">ciso646</text>
</a>
</g>
</g>
<!-- Node6&#45;&gt;Node8 -->
<g id="edge7" class="edge">
<title>Node6&#45;&gt;Node8</title>
<path fill="none" stroke="midnightblue" d="M729.5,-56.08C729.5,-49.01 729.5,-38.86 729.5,-29.99"/>
<polygon fill="midnightblue" stroke="midnightblue" points="733,-29.75 729.5,-19.75 726,-29.75 733,-29.75"/>
</g>
<!-- Node9 -->
<g id="node9" class="node">
<title>Node9</title>
<g id="a_node9"><a target="_blank" xlink:href="https://en.cppreference.com/w/cpp/header/cstddef.html" xlink:title=" ">
<polygon fill="white" stroke="black" points="775,-0.5 775,-19.5 828,-19.5 828,-0.5 775,-0.5"/>
<text text-anchor="middle" x="801.5" y="-7.5" font-family="Helvetica,sans-Serif" font-size="10.00">cstddef</text>
</a>
</g>
</g>
<!-- Node6&#45;&gt;Node9 -->
<g id="edge8" class="edge">
<title>Node6&#45;&gt;Node9</title>
<path fill="none" stroke="midnightblue" d="M741.07,-56.32C751.92,-48.18 768.38,-35.84 781.38,-26.09"/>
<polygon fill="midnightblue" stroke="midnightblue" points="783.82,-28.63 789.72,-19.83 779.62,-23.03 783.82,-28.63"/>
</g>
<!-- Node10&#45;&gt;Node5 -->
<g id="edge13" class="edge">
<title>Node10&#45;&gt;Node5</title>
<path fill="none" stroke="midnightblue" d="M405.07,-173.98C404.65,-165.58 403.99,-152.48 403.44,-141.66"/>
<polygon fill="midnightblue" stroke="midnightblue" points="406.93,-141.32 402.93,-131.51 399.94,-141.67 406.93,-141.32"/>
</g>
<!-- Node10&#45;&gt;Node11 -->
<g id="edge10" class="edge">
<title>Node10&#45;&gt;Node11</title>
<path fill="none" stroke="midnightblue" d="M433.58,-173.98C467.79,-163.59 525.7,-146.01 563.77,-134.45"/>
<polygon fill="midnightblue" stroke="midnightblue" points="564.92,-137.76 573.47,-131.51 562.88,-131.06 564.92,-137.76"/>
</g>
<!-- Node12 -->
<g id="node12" class="node">
<title>Node12</title>
<g id="a_node12"><a target="_blank" xlink:href="https://en.cppreference.com/w/cpp/header/stdexcept.html" xlink:title=" ">
<polygon fill="white" stroke="black" points="488,-112.5 488,-131.5 553,-131.5 553,-112.5 488,-112.5"/>
<text text-anchor="middle" x="520.5" y="-119.5" font-family="Helvetica,sans-Serif" font-size="10.00">stdexcept</text>
</a>
</g>
</g>
<!-- Node10&#45;&gt;Node12 -->
<g id="edge11" class="edge">
<title>Node10&#45;&gt;Node12</title>
<path fill="none" stroke="midnightblue" d="M421.98,-173.98C441.11,-164.08 472.87,-147.64 495.15,-136.12"/>
<polygon fill="midnightblue" stroke="midnightblue" points="496.78,-139.21 504.05,-131.51 493.56,-133 496.78,-139.21"/>
</g>
<!-- Node13 -->
<g id="node13" class="node">
<title>Node13</title>
<g id="a_node13"><a target="_blank" xlink:href="https://en.cppreference.com/w/cpp/header/string.html" xlink:title=" ">
<polygon fill="white" stroke="black" points="273.5,-112.5 273.5,-131.5 317.5,-131.5 317.5,-112.5 273.5,-112.5"/>
<text text-anchor="middle" x="295.5" y="-119.5" font-family="Helvetica,sans-Serif" font-size="10.00">string</text>
</a>
</g>
</g>
<!-- Node10&#45;&gt;Node13 -->
<g id="edge12" class="edge">
<title>Node10&#45;&gt;Node13</title>
<path fill="none" stroke="midnightblue" d="M389.74,-173.98C371.52,-164.12 341.33,-147.79 320.03,-136.27"/>
<polygon fill="midnightblue" stroke="midnightblue" points="321.69,-133.19 311.23,-131.51 318.36,-139.35 321.69,-133.19"/>
</g>
<!-- Node14&#45;&gt;Node4 -->
<g id="edge15" class="edge">
<title>Node14&#45;&gt;Node4</title>
<path fill="none" stroke="midnightblue" d="M771.69,-173.98C789.16,-164.17 818.08,-147.93 838.58,-136.42"/>
<polygon fill="midnightblue" stroke="midnightblue" points="840.33,-139.46 847.34,-131.51 836.91,-133.35 840.33,-139.46"/>
</g>
<!-- Node14&#45;&gt;Node6 -->
<g id="edge16" class="edge">
<title>Node14&#45;&gt;Node6</title>
<path fill="none" stroke="midnightblue" d="M754.47,-173.82C750.11,-155.17 739.77,-110.94 733.86,-85.63"/>
<polygon fill="midnightblue" stroke="midnightblue" points="737.24,-84.72 731.55,-75.78 730.42,-86.32 737.24,-84.72"/>
</g>
<!-- Node15&#45;&gt;Node4 -->
<g id="edge18" class="edge">
<title>Node15&#45;&gt;Node4</title>
<path fill="none" stroke="midnightblue" d="M660.73,-168.47C709,-157.6 774.73,-142.78 817.86,-133.06"/>
<polygon fill="midnightblue" stroke="midnightblue" points="818.8,-136.44 827.78,-130.82 817.26,-129.61 818.8,-136.44"/>
</g>
<!-- Node15&#45;&gt;Node6 -->
<g id="edge19" class="edge">
<title>Node15&#45;&gt;Node6</title>
<path fill="none" stroke="midnightblue" d="M614.56,-168.34C639.24,-146.58 686.3,-105.09 711.88,-82.54"/>
<polygon fill="midnightblue" stroke="midnightblue" points="714.48,-84.91 719.67,-75.67 709.85,-79.66 714.48,-84.91"/>
</g>
<!-- Node15&#45;&gt;Node11 -->
<g id="edge20" class="edge">
<title>Node15&#45;&gt;Node11</title>
<path fill="none" stroke="midnightblue" d="M599.21,-168.4C599.61,-160.47 600.12,-150.46 600.55,-141.86"/>
<polygon fill="midnightblue" stroke="midnightblue" points="604.06,-141.82 601.06,-131.66 597.06,-141.47 604.06,-141.82"/>
</g>
<!-- Node16&#45;&gt;Node6 -->
<g id="edge22" class="edge">
<title>Node16&#45;&gt;Node6</title>
<path fill="none" stroke="midnightblue" d="M1124.25,-168.41C1099.86,-152.15 1057.07,-125.87 1016.5,-112 946.12,-87.94 861.59,-76.66 802.57,-71.43"/>
<polygon fill="midnightblue" stroke="midnightblue" points="802.85,-67.94 792.59,-70.58 802.25,-74.92 802.85,-67.94"/>
</g>
<!-- Node17&#45;&gt;Node6 -->
<g id="edge28" class="edge">
<title>Node17&#45;&gt;Node6</title>
<path fill="none" stroke="midnightblue" d="M212.06,-168.26C221.77,-151.58 240.28,-124.64 264.5,-112 330.74,-77.43 542.5,-69.31 656,-67.48"/>
<polygon fill="midnightblue" stroke="midnightblue" points="656.39,-70.97 666.33,-67.32 656.28,-63.97 656.39,-70.97"/>
</g>
<!-- Node17&#45;&gt;Node13 -->
<g id="edge26" class="edge">
<title>Node17&#45;&gt;Node13</title>
<path fill="none" stroke="midnightblue" d="M226.07,-168.4C240.38,-159.04 259.11,-146.79 273.51,-137.38"/>
<polygon fill="midnightblue" stroke="midnightblue" points="275.8,-140.06 282.26,-131.66 271.97,-134.2 275.8,-140.06"/>
</g>
<!-- Node18 -->
<g id="node18" class="node">
<title>Node18</title>
<g id="a_node18"><a target="_blank" xlink:href="https://en.cppreference.com/w/cpp/header/functional.html" xlink:title=" ">
<polygon fill="white" stroke="black" points="0,-112.5 0,-131.5 65,-131.5 65,-112.5 0,-112.5"/>
<text text-anchor="middle" x="32.5" y="-119.5" font-family="Helvetica,sans-Serif" font-size="10.00">functional</text>
</a>
</g>
</g>
<!-- Node17&#45;&gt;Node18 -->
<g id="edge24" class="edge">
<title>Node17&#45;&gt;Node18</title>
<path fill="none" stroke="midnightblue" d="M163.74,-168.4C134.28,-158.21 94.91,-144.59 67,-134.93"/>
<polygon fill="midnightblue" stroke="midnightblue" points="67.87,-131.53 57.28,-131.57 65.58,-138.15 67.87,-131.53"/>
</g>
<!-- Node19 -->
<g id="node19" class="node">
<title>Node19</title>
<g id="a_node19"><a target="_blank" xlink:href="https://en.cppreference.com/w/cpp/header/memory.html" xlink:title=" ">
<polygon fill="white" stroke="black" points="83.5,-112.5 83.5,-131.5 141.5,-131.5 141.5,-112.5 83.5,-112.5"/>
<text text-anchor="middle" x="112.5" y="-119.5" font-family="Helvetica,sans-Serif" font-size="10.00">memory</text>
</a>
</g>
</g>
<!-- Node17&#45;&gt;Node19 -->
<g id="edge25" class="edge">
<title>Node17&#45;&gt;Node19</title>
<path fill="none" stroke="midnightblue" d="M182.7,-168.4C168.09,-158.95 148.93,-146.56 134.32,-137.11"/>
<polygon fill="midnightblue" stroke="midnightblue" points="136.18,-134.15 125.89,-131.66 132.38,-140.03 136.18,-134.15"/>
</g>
<!-- Node20 -->
<g id="node20" class="node">
<title>Node20</title>
<g id="a_node20"><a target="_blank" xlink:href="https://en.cppreference.com/w/cpp/header/typeinfo.html" xlink:title=" ">
<polygon fill="white" stroke="black" points="160,-112.5 160,-131.5 217,-131.5 217,-112.5 160,-112.5"/>
<text text-anchor="middle" x="188.5" y="-119.5" font-family="Helvetica,sans-Serif" font-size="10.00">typeinfo</text>
</a>
</g>
</g>
<!-- Node17&#45;&gt;Node20 -->
<g id="edge27" class="edge">
<title>Node17&#45;&gt;Node20</title>
<path fill="none" stroke="midnightblue" d="M200.71,-168.4C198.55,-160.38 195.82,-150.23 193.49,-141.57"/>
<polygon fill="midnightblue" stroke="midnightblue" points="196.8,-140.41 190.83,-131.66 190.05,-142.22 196.8,-140.41"/>
</g>
<!-- Node21&#45;&gt;Node4 -->
<g id="edge31" class="edge">
<title>Node21&#45;&gt;Node4</title>
<path fill="none" stroke="midnightblue" d="M957.11,-168.4C936.68,-158.59 909.64,-145.62 889.7,-136.05"/>
<polygon fill="midnightblue" stroke="midnightblue" points="891.07,-132.83 880.54,-131.66 888.04,-139.14 891.07,-132.83"/>
</g>
<!-- Node21&#45;&gt;Node6 -->
<g id="edge32" class="edge">
<title>Node21&#45;&gt;Node6</title>
<path fill="none" stroke="midnightblue" d="M974.2,-168.39C959.45,-152.37 933.23,-126.55 905.5,-112 873.23,-95.07 834.24,-84.25 801.16,-77.48"/>
<polygon fill="midnightblue" stroke="midnightblue" points="801.59,-74 791.1,-75.51 800.24,-80.87 801.59,-74"/>
</g>
<!-- Node22 -->
<g id="node22" class="node">
<title>Node22</title>
<g id="a_node22"><a target="_blank" xlink:href="https://en.cppreference.com/w/cpp/header/tuple.html" xlink:title=" ">
<polygon fill="white" stroke="black" points="966,-112.5 966,-131.5 1007,-131.5 1007,-112.5 966,-112.5"/>
<text text-anchor="middle" x="986.5" y="-119.5" font-family="Helvetica,sans-Serif" font-size="10.00">tuple</text>
</a>
</g>
</g>
<!-- Node21&#45;&gt;Node22 -->
<g id="edge30" class="edge">
<title>Node21&#45;&gt;Node22</title>
<path fill="none" stroke="midnightblue" d="M986.5,-168.4C986.5,-160.47 986.5,-150.46 986.5,-141.86"/>
<polygon fill="midnightblue" stroke="midnightblue" points="990,-141.66 986.5,-131.66 983,-141.66 990,-141.66"/>
</g>
</g>
</svg>
