<?xml version="1.0" encoding="UTF-8" standalone="no"?>
<!DOCTYPE svg PUBLIC "-//W3C//DTD SVG 1.1//EN"
 "http://www.w3.org/Graphics/SVG/1.1/DTD/svg11.dtd">
<!-- Generated by graphviz version 2.42.2 ()
 -->
<!-- Title: bio/alphabet/aminoacid/concept.hpp Pages: 1 -->
<!--zoomable 363 -->
<svg id="main" version="1.1" xmlns="http://www.w3.org/2000/svg" xmlns:xlink="http://www.w3.org/1999/xlink" xml:space="preserve" onload="init(evt)">
<style type="text/css"><![CDATA[
.edge:hover path { stroke: red; }
.edge:hover polygon { stroke: red; fill: red; }
]]></style>
<script type="text/javascript"><![CDATA[
var edges = document.getElementsByTagName('g');
if (edges && edges.length) {
  for (var i=0;i<edges.length;i++) {
    if (edges[i].id.substr(0,4)=='edge') {
      edges[i].setAttribute('class','edge');
    }
  }
}
]]></script>
        <defs>
                <circle id="rim" cx="0" cy="0" r="7"/>
                <circle id="rim2" cx="0" cy="0" r="3.5"/>
                <g id="zoomPlus">
                        <use xlink:href="#rim" fill="#404040">
                                <set attributeName="fill" to="#808080" begin="zoomplus.mouseover" end="zoomplus.mouseout"/>
                        </use>
                        <path d="M-4,0h8M0,-4v8" fill="none" stroke="white" stroke-width="1.5" pointer-events="none"/>
                </g>
                <g id="zoomMin">
                        <use xlink:href="#rim" fill="#404040">
                                <set attributeName="fill" to="#808080" begin="zoomminus.mouseover" end="zoomminus.mouseout"/>
                        </use>
                        <path d="M-4,0h8" fill="none" stroke="white" stroke-width="1.5" pointer-events="none"/>
                </g>
                <g id="dirArrow">
                        <path fill="none" stroke="white" stroke-width="1.5" d="M0,-3.0v7 M-2.5,-0.5L0,-3.0L2.5,-0.5"/>
                </g>
               <g id="resetDef">
                       <use xlink:href="#rim2" fill="#404040">
                               <set attributeName="fill" to="#808080" begin="reset.mouseover" end="reset.mouseout"/>
                       </use>
               </g>
        </defs>

<script type="text/javascript">
var viewWidth = 1067;
var viewHeight = 363;
var sectionId = 'dynsection-0';
</script>
<script xlink:href="svgpan.js"/>
<svg id="graph" class="graph">
<g id="viewport">
<title>bio/alphabet/aminoacid/concept.hpp</title>
<polygon fill="white" stroke="transparent" points="-4,4 -4,-359 1063.05,-359 1063.05,4 -4,4"/>
<!-- Node1 -->
<g id="node1" class="node">
<title>Node1</title>
<g id="a_node1"><a xlink:title="Provides bio::alphabet::aminoacid_alphabet.">
<polygon fill="#bfbfbf" stroke="black" points="693.5,-324.5 693.5,-354.5 809.5,-354.5 809.5,-324.5 693.5,-324.5"/>
<text text-anchor="start" x="701.5" y="-342.5" font-family="Helvetica,sans-Serif" font-size="10.00">bio/alphabet/aminoacid</text>
<text text-anchor="middle" x="751.5" y="-331.5" font-family="Helvetica,sans-Serif" font-size="10.00">/concept.hpp</text>
</a>
</g>
</g>
<!-- Node2 -->
<g id="node2" class="node">
<title>Node2</title>
<g id="a_node2"><a target="_blank" xlink:href="https://en.cppreference.com/w/cpp/header/type_traits.html" xlink:title=" ">
<polygon fill="white" stroke="black" points="899.5,-56.5 899.5,-75.5 961.5,-75.5 961.5,-56.5 899.5,-56.5"/>
<text text-anchor="middle" x="930.5" y="-63.5" font-family="Helvetica,sans-Serif" font-size="10.00">type_traits</text>
</a>
</g>
</g>
<!-- Node1&#45;&gt;Node2 -->
<g id="edge1" class="edge">
<title>Node1&#45;&gt;Node2</title>
<path fill="none" stroke="midnightblue" d="M809.74,-334.25C879.91,-325.65 995.04,-299.65 1048.5,-221 1078.16,-177.37 1039.67,-148.42 1001.5,-112 988.25,-99.36 970.93,-88.29 956.71,-80.3"/>
<polygon fill="midnightblue" stroke="midnightblue" points="958.34,-77.21 947.89,-75.51 955,-83.36 958.34,-77.21"/>
</g>
<!-- Node3 -->
<g id="node3" class="node">
<title>Node3</title>
<g id="a_node3"><a xlink:href="alphabet_2concept_8hpp.html" target="_top" xlink:title="Core alphabet concept and free function/type trait wrappers.">
<polygon fill="white" stroke="black" points="523,-263 523,-282 648,-282 648,-263 523,-263"/>
<text text-anchor="middle" x="585.5" y="-270" font-family="Helvetica,sans-Serif" font-size="10.00">bio/alphabet/concept.hpp</text>
</a>
</g>
</g>
<!-- Node1&#45;&gt;Node3 -->
<g id="edge2" class="edge">
<title>Node1&#45;&gt;Node3</title>
<path fill="none" stroke="midnightblue" d="M715.48,-324.4C685.97,-312.84 644.64,-296.66 616.56,-285.66"/>
<polygon fill="midnightblue" stroke="midnightblue" points="617.81,-282.39 607.23,-282.01 615.26,-288.91 617.81,-282.39"/>
</g>
<!-- Node21 -->
<g id="node21" class="node">
<title>Node21</title>
<g id="a_node21"><a xlink:href="template__inspection_8hpp.html" target="_top" xlink:title="Provides various traits to inspect templates.">
<polygon fill="white" stroke="black" points="689,-257.5 689,-287.5 814,-287.5 814,-257.5 689,-257.5"/>
<text text-anchor="start" x="697" y="-275.5" font-family="Helvetica,sans-Serif" font-size="10.00">bio/meta/type_traits</text>
<text text-anchor="middle" x="751.5" y="-264.5" font-family="Helvetica,sans-Serif" font-size="10.00">/template_inspection.hpp</text>
</a>
</g>
</g>
<!-- Node1&#45;&gt;Node21 -->
<g id="edge30" class="edge">
<title>Node1&#45;&gt;Node21</title>
<path fill="none" stroke="midnightblue" d="M751.5,-324.4C751.5,-316.64 751.5,-306.81 751.5,-297.86"/>
<polygon fill="midnightblue" stroke="midnightblue" points="755,-297.58 751.5,-287.58 748,-297.58 755,-297.58"/>
</g>
<!-- Node3&#45;&gt;Node2 -->
<g id="edge3" class="edge">
<title>Node3&#45;&gt;Node2</title>
<path fill="none" stroke="midnightblue" d="M637.44,-262.98C716.06,-249.96 857.26,-226.11 867.5,-221 890.29,-209.63 941.32,-166.35 951.5,-143 959.93,-123.67 950.61,-100.09 941.85,-84.37"/>
<polygon fill="midnightblue" stroke="midnightblue" points="944.79,-82.47 936.63,-75.7 938.8,-86.08 944.79,-82.47"/>
</g>
<!-- Node4 -->
<g id="node4" class="node">
<title>Node4</title>
<g id="a_node4"><a xlink:href="alphabet_2biocpp_8hpp.html" target="_top" xlink:title="Module header with module&#45;wide definitions.">
<polygon fill="white" stroke="black" points="474,-118 474,-137 593,-137 593,-118 474,-118"/>
<text text-anchor="middle" x="533.5" y="-125" font-family="Helvetica,sans-Serif" font-size="10.00">bio/alphabet/biocpp.hpp</text>
</a>
</g>
</g>
<!-- Node3&#45;&gt;Node4 -->
<g id="edge4" class="edge">
<title>Node3&#45;&gt;Node4</title>
<path fill="none" stroke="midnightblue" d="M576.4,-262.76C567.23,-253.37 553.47,-237.54 546.5,-221 536.34,-196.88 533.82,-166.4 533.35,-147.17"/>
<polygon fill="midnightblue" stroke="midnightblue" points="536.85,-147.02 533.27,-137.05 529.85,-147.07 536.85,-147.02"/>
</g>
<!-- Node9 -->
<g id="node9" class="node">
<title>Node9</title>
<g id="a_node9"><a xlink:href="exception_8hpp.html" target="_top" xlink:title="Exceptions thrown by entities in the alphabet module.">
<polygon fill="white" stroke="black" points="555,-190.5 555,-209.5 688,-209.5 688,-190.5 555,-190.5"/>
<text text-anchor="middle" x="621.5" y="-197.5" font-family="Helvetica,sans-Serif" font-size="10.00">bio/alphabet/exception.hpp</text>
</a>
</g>
</g>
<!-- Node3&#45;&gt;Node9 -->
<g id="edge9" class="edge">
<title>Node3&#45;&gt;Node9</title>
<path fill="none" stroke="midnightblue" d="M589.91,-262.86C595.47,-251.97 605.17,-232.98 612.35,-218.91"/>
<polygon fill="midnightblue" stroke="midnightblue" points="615.62,-220.21 617.05,-209.72 609.38,-217.03 615.62,-220.21"/>
</g>
<!-- Node13 -->
<g id="node13" class="node">
<title>Node13</title>
<g id="a_node13"><a xlink:href="core__language_8hpp.html" target="_top" xlink:title="Provides concepts for core language types and relations that don&#39;t have concepts in C++20 (yet).">
<polygon fill="white" stroke="black" points="745,-185 745,-215 858,-215 858,-185 745,-185"/>
<text text-anchor="start" x="753" y="-203" font-family="Helvetica,sans-Serif" font-size="10.00">bio/meta/concept/core</text>
<text text-anchor="middle" x="801.5" y="-192" font-family="Helvetica,sans-Serif" font-size="10.00">_language.hpp</text>
</a>
</g>
</g>
<!-- Node3&#45;&gt;Node13 -->
<g id="edge14" class="edge">
<title>Node3&#45;&gt;Node13</title>
<path fill="none" stroke="midnightblue" d="M611.55,-263C645.46,-251.93 705.5,-232.33 749.02,-218.13"/>
<polygon fill="midnightblue" stroke="midnightblue" points="750.17,-221.44 758.59,-215.01 748,-214.78 750.17,-221.44"/>
</g>
<!-- Node14 -->
<g id="node14" class="node">
<title>Node14</title>
<g id="a_node14"><a xlink:href="priority__tag_8hpp.html" target="_top" xlink:title="provides bio::meta::detail::priority_tag.">
<polygon fill="white" stroke="black" points="148,-185 148,-215 261,-215 261,-185 148,-185"/>
<text text-anchor="start" x="156" y="-203" font-family="Helvetica,sans-Serif" font-size="10.00">bio/meta/detail/priority</text>
<text text-anchor="middle" x="204.5" y="-192" font-family="Helvetica,sans-Serif" font-size="10.00">_tag.hpp</text>
</a>
</g>
</g>
<!-- Node3&#45;&gt;Node14 -->
<g id="edge18" class="edge">
<title>Node3&#45;&gt;Node14</title>
<path fill="none" stroke="midnightblue" d="M533.36,-262.97C475.59,-253.38 379.71,-237.04 297.5,-221 289.02,-219.35 280.12,-217.53 271.33,-215.69"/>
<polygon fill="midnightblue" stroke="midnightblue" points="271.99,-212.25 261.48,-213.61 270.54,-219.1 271.99,-212.25"/>
</g>
<!-- Node15 -->
<g id="node15" class="node">
<title>Node15</title>
<g id="a_node15"><a xlink:href="type__inspection_8hpp.html" target="_top" xlink:title="Provides traits to inspect some information of a type, for example its name.">
<polygon fill="white" stroke="black" points="306.5,-185 306.5,-215 408.5,-215 408.5,-185 306.5,-185"/>
<text text-anchor="start" x="314.5" y="-203" font-family="Helvetica,sans-Serif" font-size="10.00">bio/meta/detail/type</text>
<text text-anchor="middle" x="357.5" y="-192" font-family="Helvetica,sans-Serif" font-size="10.00">_inspection.hpp</text>
</a>
</g>
</g>
<!-- Node3&#45;&gt;Node15 -->
<g id="edge20" class="edge">
<title>Node3&#45;&gt;Node15</title>
<path fill="none" stroke="midnightblue" d="M558,-263C522.14,-251.91 458.57,-232.25 412.61,-218.04"/>
<polygon fill="midnightblue" stroke="midnightblue" points="413.38,-214.62 402.8,-215.01 411.32,-221.3 413.38,-214.62"/>
</g>
<!-- Node19 -->
<g id="node19" class="node">
<title>Node19</title>
<g id="a_node19"><a xlink:href="basic_8hpp.html" target="_top" xlink:title="Provides various type traits on generic types.">
<polygon fill="white" stroke="black" points="0,-112.5 0,-142.5 103,-142.5 103,-112.5 0,-112.5"/>
<text text-anchor="start" x="8" y="-130.5" font-family="Helvetica,sans-Serif" font-size="10.00">bio/meta/type_traits</text>
<text text-anchor="middle" x="51.5" y="-119.5" font-family="Helvetica,sans-Serif" font-size="10.00">/basic.hpp</text>
</a>
</g>
</g>
<!-- Node3&#45;&gt;Node19 -->
<g id="edge26" class="edge">
<title>Node3&#45;&gt;Node19</title>
<path fill="none" stroke="midnightblue" d="M522.97,-269.66C416.55,-265.66 205.35,-253.75 139.5,-221 107.75,-205.21 81.32,-173.04 65.96,-151.12"/>
<polygon fill="midnightblue" stroke="midnightblue" points="68.77,-149.02 60.25,-142.72 62.97,-152.96 68.77,-149.02"/>
</g>
<!-- Node5 -->
<g id="node5" class="node">
<title>Node5</title>
<g id="a_node5"><a xlink:href="platform_8hpp.html" target="_top" xlink:title="Provides platform and dependency checks.">
<polygon fill="white" stroke="black" points="296,-56.5 296,-75.5 407,-75.5 407,-56.5 296,-56.5"/>
<text text-anchor="middle" x="351.5" y="-63.5" font-family="Helvetica,sans-Serif" font-size="10.00">bio/meta/platform.hpp</text>
</a>
</g>
</g>
<!-- Node4&#45;&gt;Node5 -->
<g id="edge5" class="edge">
<title>Node4&#45;&gt;Node5</title>
<path fill="none" stroke="midnightblue" d="M507.42,-117.98C475.93,-107.68 422.8,-90.31 387.44,-78.75"/>
<polygon fill="midnightblue" stroke="midnightblue" points="388.12,-75.29 377.53,-75.51 385.95,-81.94 388.12,-75.29"/>
</g>
<!-- Node6 -->
<g id="node6" class="node">
<title>Node6</title>
<g id="a_node6"><a target="_blank" xlink:href="https://en.cppreference.com/w/cpp/header/cinttypes.html" xlink:title=" ">
<polygon fill="white" stroke="black" points="252.5,-0.5 252.5,-19.5 308.5,-19.5 308.5,-0.5 252.5,-0.5"/>
<text text-anchor="middle" x="280.5" y="-7.5" font-family="Helvetica,sans-Serif" font-size="10.00">cinttypes</text>
</a>
</g>
</g>
<!-- Node5&#45;&gt;Node6 -->
<g id="edge6" class="edge">
<title>Node5&#45;&gt;Node6</title>
<path fill="none" stroke="midnightblue" d="M340.09,-56.32C329.39,-48.18 313.16,-35.84 300.34,-26.09"/>
<polygon fill="midnightblue" stroke="midnightblue" points="302.19,-23.1 292.11,-19.83 297.96,-28.67 302.19,-23.1"/>
</g>
<!-- Node7 -->
<g id="node7" class="node">
<title>Node7</title>
<g id="a_node7"><a target="_blank" xlink:href="https://en.cppreference.com/w/cpp/header/ciso646.html" xlink:title=" ">
<polygon fill="white" stroke="black" points="326.5,-0.5 326.5,-19.5 376.5,-19.5 376.5,-0.5 326.5,-0.5"/>
<text text-anchor="middle" x="351.5" y="-7.5" font-family="Helvetica,sans-Serif" font-size="10.00">ciso646</text>
</a>
</g>
</g>
<!-- Node5&#45;&gt;Node7 -->
<g id="edge7" class="edge">
<title>Node5&#45;&gt;Node7</title>
<path fill="none" stroke="midnightblue" d="M351.5,-56.08C351.5,-49.01 351.5,-38.86 351.5,-29.99"/>
<polygon fill="midnightblue" stroke="midnightblue" points="355,-29.75 351.5,-19.75 348,-29.75 355,-29.75"/>
</g>
<!-- Node8 -->
<g id="node8" class="node">
<title>Node8</title>
<g id="a_node8"><a target="_blank" xlink:href="https://en.cppreference.com/w/cpp/header/cstddef.html" xlink:title=" ">
<polygon fill="white" stroke="black" points="395,-0.5 395,-19.5 444,-19.5 444,-0.5 395,-0.5"/>
<text text-anchor="middle" x="419.5" y="-7.5" font-family="Helvetica,sans-Serif" font-size="10.00">cstddef</text>
</a>
</g>
</g>
<!-- Node5&#45;&gt;Node8 -->
<g id="edge8" class="edge">
<title>Node5&#45;&gt;Node8</title>
<path fill="none" stroke="midnightblue" d="M362.43,-56.32C372.67,-48.18 388.22,-35.84 400.5,-26.09"/>
<polygon fill="midnightblue" stroke="midnightblue" points="402.72,-28.79 408.38,-19.83 398.37,-23.31 402.72,-28.79"/>
</g>
<!-- Node9&#45;&gt;Node4 -->
<g id="edge13" class="edge">
<title>Node9&#45;&gt;Node4</title>
<path fill="none" stroke="midnightblue" d="M610.71,-190.36C596.19,-178.73 570.15,-157.86 552.36,-143.61"/>
<polygon fill="midnightblue" stroke="midnightblue" points="554.37,-140.74 544.38,-137.22 549.99,-146.2 554.37,-140.74"/>
</g>
<!-- Node10 -->
<g id="node10" class="node">
<title>Node10</title>
<g id="a_node10"><a target="_blank" xlink:href="https://en.cppreference.com/w/cpp/header/concepts.html" xlink:title=" ">
<polygon fill="white" stroke="black" points="688.5,-118 688.5,-137 744.5,-137 744.5,-118 688.5,-118"/>
<text text-anchor="middle" x="716.5" y="-125" font-family="Helvetica,sans-Serif" font-size="10.00">concepts</text>
</a>
</g>
</g>
<!-- Node9&#45;&gt;Node10 -->
<g id="edge10" class="edge">
<title>Node9&#45;&gt;Node10</title>
<path fill="none" stroke="midnightblue" d="M633.15,-190.36C648.96,-178.62 677.44,-157.48 696.66,-143.22"/>
<polygon fill="midnightblue" stroke="midnightblue" points="698.81,-145.99 704.76,-137.22 694.64,-140.36 698.81,-145.99"/>
</g>
<!-- Node11 -->
<g id="node11" class="node">
<title>Node11</title>
<g id="a_node11"><a target="_blank" xlink:href="https://en.cppreference.com/w/cpp/header/stdexcept.html" xlink:title=" ">
<polygon fill="white" stroke="black" points="611,-118 611,-137 670,-137 670,-118 611,-118"/>
<text text-anchor="middle" x="640.5" y="-125" font-family="Helvetica,sans-Serif" font-size="10.00">stdexcept</text>
</a>
</g>
</g>
<!-- Node9&#45;&gt;Node11 -->
<g id="edge11" class="edge">
<title>Node9&#45;&gt;Node11</title>
<path fill="none" stroke="midnightblue" d="M623.83,-190.36C626.71,-179.68 631.68,-161.22 635.45,-147.23"/>
<polygon fill="midnightblue" stroke="midnightblue" points="638.93,-147.78 638.15,-137.22 632.17,-145.96 638.93,-147.78"/>
</g>
<!-- Node12 -->
<g id="node12" class="node">
<title>Node12</title>
<g id="a_node12"><a target="_blank" xlink:href="https://en.cppreference.com/w/cpp/header/string.html" xlink:title=" ">
<polygon fill="white" stroke="black" points="415,-118 415,-137 456,-137 456,-118 415,-118"/>
<text text-anchor="middle" x="435.5" y="-125" font-family="Helvetica,sans-Serif" font-size="10.00">string</text>
</a>
</g>
</g>
<!-- Node9&#45;&gt;Node12 -->
<g id="edge12" class="edge">
<title>Node9&#45;&gt;Node12</title>
<path fill="none" stroke="midnightblue" d="M594.95,-190.42C563.65,-180.09 510.21,-161.77 465.5,-143 464.3,-142.5 463.08,-141.97 461.85,-141.43"/>
<polygon fill="midnightblue" stroke="midnightblue" points="463.04,-138.12 452.49,-137.1 460.1,-144.47 463.04,-138.12"/>
</g>
<!-- Node13&#45;&gt;Node2 -->
<g id="edge15" class="edge">
<title>Node13&#45;&gt;Node2</title>
<path fill="none" stroke="midnightblue" d="M802.72,-184.91C805.05,-166.11 811.71,-132.79 830.5,-112 846.08,-94.76 869.53,-83.73 889.8,-76.91"/>
<polygon fill="midnightblue" stroke="midnightblue" points="890.96,-80.22 899.45,-73.89 888.86,-73.54 890.96,-80.22"/>
</g>
<!-- Node13&#45;&gt;Node5 -->
<g id="edge16" class="edge">
<title>Node13&#45;&gt;Node5</title>
<path fill="none" stroke="midnightblue" d="M798.05,-184.78C792.41,-164.85 779.17,-129.16 753.5,-112 699.99,-76.25 517.08,-68.62 417.46,-67.18"/>
<polygon fill="midnightblue" stroke="midnightblue" points="417.25,-63.67 407.2,-67.04 417.16,-70.67 417.25,-63.67"/>
</g>
<!-- Node13&#45;&gt;Node10 -->
<g id="edge17" class="edge">
<title>Node13&#45;&gt;Node10</title>
<path fill="none" stroke="midnightblue" d="M784.3,-184.73C770.02,-172.89 749.76,-156.09 735.11,-143.94"/>
<polygon fill="midnightblue" stroke="midnightblue" points="737.15,-141.08 727.22,-137.39 732.68,-146.47 737.15,-141.08"/>
</g>
<!-- Node14&#45;&gt;Node5 -->
<g id="edge19" class="edge">
<title>Node14&#45;&gt;Node5</title>
<path fill="none" stroke="midnightblue" d="M193.27,-184.94C179.97,-166.47 161.63,-133.82 178.5,-112 191.84,-94.75 242.68,-82.87 285.82,-75.67"/>
<polygon fill="midnightblue" stroke="midnightblue" points="286.43,-79.12 295.74,-74.08 285.31,-72.21 286.43,-79.12"/>
</g>
<!-- Node15&#45;&gt;Node5 -->
<g id="edge25" class="edge">
<title>Node15&#45;&gt;Node5</title>
<path fill="none" stroke="midnightblue" d="M306.5,-185.24C259.72,-172.12 196.65,-152.91 189.5,-143 160.8,-103.18 229.25,-83.56 285.85,-74.38"/>
<polygon fill="midnightblue" stroke="midnightblue" points="286.54,-77.81 295.9,-72.83 285.48,-70.89 286.54,-77.81"/>
</g>
<!-- Node15&#45;&gt;Node12 -->
<g id="edge23" class="edge">
<title>Node15&#45;&gt;Node12</title>
<path fill="none" stroke="midnightblue" d="M373.28,-184.73C386.26,-173 404.63,-156.4 418.04,-144.28"/>
<polygon fill="midnightblue" stroke="midnightblue" points="420.59,-146.7 425.66,-137.39 415.9,-141.5 420.59,-146.7"/>
</g>
<!-- Node16 -->
<g id="node16" class="node">
<title>Node16</title>
<g id="a_node16"><a target="_blank" xlink:href="https://en.cppreference.com/w/cpp/header/functional.html" xlink:title=" ">
<polygon fill="white" stroke="black" points="267,-118 267,-137 326,-137 326,-118 267,-118"/>
<text text-anchor="middle" x="296.5" y="-125" font-family="Helvetica,sans-Serif" font-size="10.00">functional</text>
</a>
</g>
</g>
<!-- Node15&#45;&gt;Node16 -->
<g id="edge21" class="edge">
<title>Node15&#45;&gt;Node16</title>
<path fill="none" stroke="midnightblue" d="M345.16,-184.73C335.2,-173.23 321.18,-157.03 310.75,-144.97"/>
<polygon fill="midnightblue" stroke="midnightblue" points="313.38,-142.67 304.19,-137.39 308.09,-147.25 313.38,-142.67"/>
</g>
<!-- Node17 -->
<g id="node17" class="node">
<title>Node17</title>
<g id="a_node17"><a target="_blank" xlink:href="https://en.cppreference.com/w/cpp/header/memory.html" xlink:title=" ">
<polygon fill="white" stroke="black" points="344.5,-118 344.5,-137 396.5,-137 396.5,-118 344.5,-118"/>
<text text-anchor="middle" x="370.5" y="-125" font-family="Helvetica,sans-Serif" font-size="10.00">memory</text>
</a>
</g>
</g>
<!-- Node15&#45;&gt;Node17 -->
<g id="edge22" class="edge">
<title>Node15&#45;&gt;Node17</title>
<path fill="none" stroke="midnightblue" d="M360.13,-184.73C362.11,-174 364.84,-159.19 367,-147.46"/>
<polygon fill="midnightblue" stroke="midnightblue" points="370.49,-147.86 368.86,-137.39 363.6,-146.59 370.49,-147.86"/>
</g>
<!-- Node18 -->
<g id="node18" class="node">
<title>Node18</title>
<g id="a_node18"><a target="_blank" xlink:href="https://en.cppreference.com/w/cpp/header/typeinfo.html" xlink:title=" ">
<polygon fill="white" stroke="black" points="198,-118 198,-137 249,-137 249,-118 198,-118"/>
<text text-anchor="middle" x="223.5" y="-125" font-family="Helvetica,sans-Serif" font-size="10.00">typeinfo</text>
</a>
</g>
</g>
<!-- Node15&#45;&gt;Node18 -->
<g id="edge24" class="edge">
<title>Node15&#45;&gt;Node18</title>
<path fill="none" stroke="midnightblue" d="M330.71,-184.9C306.81,-172.33 272.08,-154.06 248.69,-141.75"/>
<polygon fill="midnightblue" stroke="midnightblue" points="250.2,-138.59 239.72,-137.03 246.94,-144.79 250.2,-138.59"/>
</g>
<!-- Node19&#45;&gt;Node2 -->
<g id="edge28" class="edge">
<title>Node19&#45;&gt;Node2</title>
<path fill="none" stroke="midnightblue" d="M103.22,-120.52C129.1,-117.67 160.93,-114.37 189.5,-112 455.78,-89.94 776.73,-74.1 889.18,-68.87"/>
<polygon fill="midnightblue" stroke="midnightblue" points="889.58,-72.36 899.4,-68.4 889.25,-65.36 889.58,-72.36"/>
</g>
<!-- Node19&#45;&gt;Node5 -->
<g id="edge29" class="edge">
<title>Node19&#45;&gt;Node5</title>
<path fill="none" stroke="midnightblue" d="M103.35,-114.97C108.13,-113.95 112.9,-112.95 117.5,-112 178.09,-99.52 247.73,-86.27 295.18,-77.4"/>
<polygon fill="midnightblue" stroke="midnightblue" points="296.06,-80.8 305.25,-75.52 294.78,-73.92 296.06,-80.8"/>
</g>
<!-- Node20 -->
<g id="node20" class="node">
<title>Node20</title>
<g id="a_node20"><a target="_blank" xlink:href="https://en.cppreference.com/w/cpp/header/tuple.html" xlink:title=" ">
<polygon fill="white" stroke="black" points="32.5,-56.5 32.5,-75.5 70.5,-75.5 70.5,-56.5 32.5,-56.5"/>
<text text-anchor="middle" x="51.5" y="-63.5" font-family="Helvetica,sans-Serif" font-size="10.00">tuple</text>
</a>
</g>
</g>
<!-- Node19&#45;&gt;Node20 -->
<g id="edge27" class="edge">
<title>Node19&#45;&gt;Node20</title>
<path fill="none" stroke="midnightblue" d="M51.5,-112.4C51.5,-104.47 51.5,-94.46 51.5,-85.86"/>
<polygon fill="midnightblue" stroke="midnightblue" points="55,-85.66 51.5,-75.66 48,-85.66 55,-85.66"/>
</g>
<!-- Node21&#45;&gt;Node10 -->
<g id="edge36" class="edge">
<title>Node21&#45;&gt;Node10</title>
<path fill="none" stroke="midnightblue" d="M747.01,-257.43C743.87,-247.34 739.68,-233.4 736.5,-221 729.99,-195.57 723.81,-165.86 720.09,-147.11"/>
<polygon fill="midnightblue" stroke="midnightblue" points="723.51,-146.36 718.16,-137.22 716.64,-147.71 723.51,-146.36"/>
</g>
<!-- Node22 -->
<g id="node22" class="node">
<title>Node22</title>
<g id="a_node22"><a xlink:href="transformation__trait__or_8hpp.html" target="_top" xlink:title="Provides bio::meta::transformation_trait_or.">
<polygon fill="white" stroke="black" points="935.5,-179.5 935.5,-220.5 1039.5,-220.5 1039.5,-179.5 935.5,-179.5"/>
<text text-anchor="start" x="943.5" y="-208.5" font-family="Helvetica,sans-Serif" font-size="10.00">bio/meta/type_traits</text>
<text text-anchor="start" x="943.5" y="-197.5" font-family="Helvetica,sans-Serif" font-size="10.00">/transformation_trait</text>
<text text-anchor="middle" x="987.5" y="-186.5" font-family="Helvetica,sans-Serif" font-size="10.00">_or.hpp</text>
</a>
</g>
</g>
<!-- Node21&#45;&gt;Node22 -->
<g id="edge31" class="edge">
<title>Node21&#45;&gt;Node22</title>
<path fill="none" stroke="midnightblue" d="M799.15,-257.42C833.24,-247.33 880.21,-233.39 921.5,-221 922.76,-220.62 924.03,-220.24 925.31,-219.86"/>
<polygon fill="midnightblue" stroke="midnightblue" points="926.7,-223.09 935.27,-216.86 924.68,-216.39 926.7,-223.09"/>
</g>
<!-- Node22&#45;&gt;Node2 -->
<g id="edge32" class="edge">
<title>Node22&#45;&gt;Node2</title>
<path fill="none" stroke="midnightblue" d="M991.23,-179.24C993.71,-160.85 994.87,-133.18 984.5,-112 978.23,-99.2 966.45,-88.71 955.48,-81.09"/>
<polygon fill="midnightblue" stroke="midnightblue" points="957.28,-78.09 946.98,-75.61 953.49,-83.97 957.28,-78.09"/>
</g>
<!-- Node23 -->
<g id="node23" class="node">
<title>Node23</title>
<g id="a_node23"><a xlink:href="meta_2type__traits_2concept_8hpp.html" target="_top" xlink:title="Provides the concepts bio::meta::transformation_trait and bio::meta::unary_type_trait.">
<polygon fill="white" stroke="black" points="839,-112.5 839,-142.5 942,-142.5 942,-112.5 839,-112.5"/>
<text text-anchor="start" x="847" y="-130.5" font-family="Helvetica,sans-Serif" font-size="10.00">bio/meta/type_traits</text>
<text text-anchor="middle" x="890.5" y="-119.5" font-family="Helvetica,sans-Serif" font-size="10.00">/concept.hpp</text>
</a>
</g>
</g>
<!-- Node22&#45;&gt;Node23 -->
<g id="edge33" class="edge">
<title>Node22&#45;&gt;Node23</title>
<path fill="none" stroke="midnightblue" d="M960.48,-179.36C947.33,-169.8 931.54,-158.33 918.28,-148.69"/>
<polygon fill="midnightblue" stroke="midnightblue" points="920.14,-145.72 910,-142.67 916.03,-151.38 920.14,-145.72"/>
</g>
<!-- Node23&#45;&gt;Node2 -->
<g id="edge34" class="edge">
<title>Node23&#45;&gt;Node2</title>
<path fill="none" stroke="midnightblue" d="M899.98,-112.4C905.67,-103.93 912.95,-93.1 918.98,-84.14"/>
<polygon fill="midnightblue" stroke="midnightblue" points="922.01,-85.91 924.68,-75.66 916.2,-82 922.01,-85.91"/>
</g>
<!-- Node23&#45;&gt;Node5 -->
<g id="edge35" class="edge">
<title>Node23&#45;&gt;Node5</title>
<path fill="none" stroke="midnightblue" d="M838.97,-118.95C822.25,-116.6 803.6,-114.08 786.5,-112 655.77,-96.13 502.5,-81.11 417.25,-73.07"/>
<polygon fill="midnightblue" stroke="midnightblue" points="417.48,-69.58 407.19,-72.12 416.82,-76.54 417.48,-69.58"/>
</g>
</g>
</svg>
        <g id="navigator" transform="translate(0 0)" fill="#404254">
                <rect fill="#f2f5e9" fill-opacity="0.5" stroke="#606060" stroke-width=".5" x="0" y="0" width="60" height="60"/>
                <use id="zoomplus" xlink:href="#zoomPlus" x="17" y="9" onmousedown="handleZoom(evt,'in')"/>
                <use id="zoomminus" xlink:href="#zoomMin" x="42" y="9" onmousedown="handleZoom(evt,'out')"/>
                <use id="reset" xlink:href="#resetDef" x="30" y="36" onmousedown="handleReset()"/>
                <g id="arrowUp" xlink:href="#dirArrow" transform="translate(30 24)" onmousedown="handlePan(0,-1)">
                  <use xlink:href="#rim" fill="#404040">
                        <set attributeName="fill" to="#808080" begin="arrowUp.mouseover" end="arrowUp.mouseout"/>
                  </use>
                  <path fill="none" stroke="white" stroke-width="1.5" d="M0,-3.0v7 M-2.5,-0.5L0,-3.0L2.5,-0.5"/>
                </g>
                <g id="arrowRight" xlink:href="#dirArrow" transform="rotate(90) translate(36 -43)" onmousedown="handlePan(1,0)">
                  <use xlink:href="#rim" fill="#404040">
                        <set attributeName="fill" to="#808080" begin="arrowRight.mouseover" end="arrowRight.mouseout"/>
                  </use>
                  <path fill="none" stroke="white" stroke-width="1.5" d="M0,-3.0v7 M-2.5,-0.5L0,-3.0L2.5,-0.5"/>
                </g>
                <g id="arrowDown" xlink:href="#dirArrow" transform="rotate(180) translate(-30 -48)" onmousedown="handlePan(0,1)">
                  <use xlink:href="#rim" fill="#404040">
                        <set attributeName="fill" to="#808080" begin="arrowDown.mouseover" end="arrowDown.mouseout"/>
                  </use>
                  <path fill="none" stroke="white" stroke-width="1.5" d="M0,-3.0v7 M-2.5,-0.5L0,-3.0L2.5,-0.5"/>
                </g>
                <g id="arrowLeft" xlink:href="#dirArrow" transform="rotate(270) translate(-36 17)" onmousedown="handlePan(-1,0)">
                  <use xlink:href="#rim" fill="#404040">
                        <set attributeName="fill" to="#808080" begin="arrowLeft.mouseover" end="arrowLeft.mouseout"/>
                  </use>
                  <path fill="none" stroke="white" stroke-width="1.5" d="M0,-3.0v7 M-2.5,-0.5L0,-3.0L2.5,-0.5"/>
                </g>
        </g>
        <svg viewBox="0 0 15 15" width="100%" height="30px" preserveAspectRatio="xMaxYMin meet">
         <g id="arrow_out" transform="scale(0.3 0.3)">
          <a xlink:href="alphabet_2aminoacid_2concept_8hpp__incl_org.svg" target="_base">
           <rect id="button" ry="5" rx="5" y="6" x="6" height="38" width="38"
                fill="#f2f5e9" fill-opacity="0.5" stroke="#606060" stroke-width="1.0"/>
           <path id="arrow"
             d="M 11.500037,31.436501 C 11.940474,20.09759 22.043105,11.32322 32.158766,21.979434 L 37.068811,17.246167 C 37.068811,17.246167 37.088388,32 37.088388,32 L 22.160133,31.978069 C 22.160133,31.978069 26.997745,27.140456 26.997745,27.140456 C 18.528582,18.264221 13.291696,25.230495 11.500037,31.436501 z"
             style="fill:#404040;"/>
          </a>
         </g>
        </svg>
</svg>
