<?xml version="1.0" encoding="UTF-8" standalone="no"?>
<!DOCTYPE svg PUBLIC "-//W3C//DTD SVG 1.1//EN"
 "http://www.w3.org/Graphics/SVG/1.1/DTD/svg11.dtd">
<!-- Generated by graphviz version 2.43.0 (0)
 -->
<!-- Title: bio/alphabet/nucleotide/concept.hpp Pages: 1 -->
<svg width="1972pt" height="441pt"
 viewBox="0.00 0.00 1971.50 441.00" xmlns="http://www.w3.org/2000/svg" xmlns:xlink="http://www.w3.org/1999/xlink">
<g id="graph0" class="graph" transform="scale(1 1) rotate(0) translate(4 437)">
<title>bio/alphabet/nucleotide/concept.hpp</title>
<polygon fill="white" stroke="transparent" points="-4,4 -4,-437 1967.5,-437 1967.5,4 -4,4"/>
<!-- Node1 -->
<g id="node1" class="node">
<title>Node1</title>
<g id="a_node1"><a xlink:title="Provides bio::nucleotide_alphabet.">
<polygon fill="#bfbfbf" stroke="black" points="1059.5,-402.5 1059.5,-432.5 1190.5,-432.5 1190.5,-402.5 1059.5,-402.5"/>
<text text-anchor="start" x="1067.5" y="-420.5" font-family="Helvetica,sans-Serif" font-size="10.00">bio/alphabet/nucleotide</text>
<text text-anchor="middle" x="1125" y="-409.5" font-family="Helvetica,sans-Serif" font-size="10.00">/concept.hpp</text>
</a>
</g>
</g>
<!-- Node2 -->
<g id="node2" class="node">
<title>Node2</title>
<g id="a_node2"><a xlink:href="translation__details_8hpp.html" target="_top" xlink:title="Provides translation details for nucleotide to aminoacid translation.">
<polygon fill="white" stroke="black" points="1668.5,-201.5 1668.5,-231.5 1799.5,-231.5 1799.5,-201.5 1668.5,-201.5"/>
<text text-anchor="start" x="1676.5" y="-219.5" font-family="Helvetica,sans-Serif" font-size="10.00">bio/alphabet/aminoacid</text>
<text text-anchor="middle" x="1734" y="-208.5" font-family="Helvetica,sans-Serif" font-size="10.00">/translation_details.hpp</text>
</a>
</g>
</g>
<!-- Node1&#45;&gt;Node2 -->
<g id="edge1" class="edge">
<title>Node1&#45;&gt;Node2</title>
<path fill="none" stroke="midnightblue" d="M1200.82,-415.61C1354.49,-413.03 1691.18,-403.16 1727,-366 1762.29,-329.4 1747.41,-261.19 1738.68,-231.69"/>
<polygon fill="midnightblue" stroke="midnightblue" points="1200.47,-412.11 1190.53,-415.78 1200.58,-419.11 1200.47,-412.11"/>
</g>
<!-- Node9 -->
<g id="node9" class="node">
<title>Node9</title>
<g id="a_node9"><a xlink:href="alphabet__proxy_8hpp.html" target="_top" xlink:title="Provides bio::alphabet_proxy.">
<polygon fill="white" stroke="black" points="388.5,-335.5 388.5,-365.5 503.5,-365.5 503.5,-335.5 388.5,-335.5"/>
<text text-anchor="start" x="396.5" y="-353.5" font-family="Helvetica,sans-Serif" font-size="10.00">bio/alphabet/detail</text>
<text text-anchor="middle" x="446" y="-342.5" font-family="Helvetica,sans-Serif" font-size="10.00">/alphabet_proxy.hpp</text>
</a>
</g>
</g>
<!-- Node1&#45;&gt;Node9 -->
<g id="edge9" class="edge">
<title>Node1&#45;&gt;Node9</title>
<path fill="none" stroke="midnightblue" d="M1049.29,-409.25C912.41,-396.15 626.64,-368.79 503.97,-357.05"/>
<polygon fill="midnightblue" stroke="midnightblue" points="1048.99,-412.74 1059.28,-410.21 1049.66,-405.77 1048.99,-412.74"/>
</g>
<!-- Node15 -->
<g id="node15" class="node">
<title>Node15</title>
<g id="a_node15"><a xlink:href="qualified_8hpp.html" target="_top" xlink:title="Provides quality alphabet composites.">
<polygon fill="white" stroke="black" points="766,-201.5 766,-231.5 880,-231.5 880,-201.5 766,-201.5"/>
<text text-anchor="start" x="774" y="-219.5" font-family="Helvetica,sans-Serif" font-size="10.00">bio/alphabet/quality</text>
<text text-anchor="middle" x="823" y="-208.5" font-family="Helvetica,sans-Serif" font-size="10.00">/qualified.hpp</text>
</a>
</g>
</g>
<!-- Node1&#45;&gt;Node15 -->
<g id="edge61" class="edge">
<title>Node1&#45;&gt;Node15</title>
<path fill="none" stroke="midnightblue" d="M1049.1,-407.21C981.62,-394.71 885.83,-365.7 834,-299 818.93,-279.61 819.15,-249.48 820.91,-231.8"/>
<polygon fill="midnightblue" stroke="midnightblue" points="1048.81,-410.71 1059.26,-409.01 1050.03,-403.82 1048.81,-410.71"/>
</g>
<!-- Node21 -->
<g id="node21" class="node">
<title>Node21</title>
<g id="a_node21"><a xlink:href="structured__rna_8hpp.html" target="_top" xlink:title="Provides the composite of nucleotide with structure alphabets.">
<polygon fill="white" stroke="black" points="624,-201.5 624,-231.5 748,-231.5 748,-201.5 624,-201.5"/>
<text text-anchor="start" x="632" y="-219.5" font-family="Helvetica,sans-Serif" font-size="10.00">bio/alphabet/structure</text>
<text text-anchor="middle" x="686" y="-208.5" font-family="Helvetica,sans-Serif" font-size="10.00">/structured_rna.hpp</text>
</a>
</g>
</g>
<!-- Node1&#45;&gt;Node21 -->
<g id="edge62" class="edge">
<title>Node1&#45;&gt;Node21</title>
<path fill="none" stroke="midnightblue" d="M1049.45,-411.4C996.58,-405.55 925.42,-392.97 868,-366 794.92,-331.67 726.01,-261.61 698.54,-231.63"/>
<polygon fill="midnightblue" stroke="midnightblue" points="1049.13,-414.89 1059.44,-412.45 1049.86,-407.93 1049.13,-414.89"/>
</g>
<!-- Node25 -->
<g id="node25" class="node">
<title>Node25</title>
<g id="a_node25"><a xlink:href="alphabet_2nucleotide_2all_8hpp.html" target="_top" xlink:title="Meta&#45;header for the nucleotide submodule; includes all headers from alphabet/nucleotide/.">
<polygon fill="white" stroke="black" points="1311.5,-134.5 1311.5,-164.5 1442.5,-164.5 1442.5,-134.5 1311.5,-134.5"/>
<text text-anchor="start" x="1319.5" y="-152.5" font-family="Helvetica,sans-Serif" font-size="10.00">bio/alphabet/nucleotide</text>
<text text-anchor="middle" x="1377" y="-141.5" font-family="Helvetica,sans-Serif" font-size="10.00">/all.hpp</text>
</a>
</g>
</g>
<!-- Node1&#45;&gt;Node25 -->
<g id="edge32" class="edge">
<title>Node1&#45;&gt;Node25</title>
<path fill="none" stroke="midnightblue" d="M1200.95,-412.32C1341.31,-402.83 1632.63,-374.34 1694,-299 1702.7,-288.32 1701.73,-279.4 1694,-268 1664.69,-224.76 1522.88,-184.84 1439.19,-164.53"/>
<polygon fill="midnightblue" stroke="midnightblue" points="1200.45,-408.84 1190.7,-413 1200.91,-415.83 1200.45,-408.84"/>
</g>
<!-- Node26 -->
<g id="node26" class="node">
<title>Node26</title>
<g id="a_node26"><a xlink:href="nucleotide__base_8hpp.html" target="_top" xlink:title="Provides bio::nucleotide_base.">
<polygon fill="white" stroke="black" points="1059.5,-335.5 1059.5,-365.5 1190.5,-365.5 1190.5,-335.5 1059.5,-335.5"/>
<text text-anchor="start" x="1067.5" y="-353.5" font-family="Helvetica,sans-Serif" font-size="10.00">bio/alphabet/nucleotide</text>
<text text-anchor="middle" x="1125" y="-342.5" font-family="Helvetica,sans-Serif" font-size="10.00">/nucleotide_base.hpp</text>
</a>
</g>
</g>
<!-- Node1&#45;&gt;Node26 -->
<g id="edge34" class="edge">
<title>Node1&#45;&gt;Node26</title>
<path fill="none" stroke="midnightblue" d="M1125,-392.11C1125,-383.15 1125,-373.32 1125,-365.58"/>
<polygon fill="midnightblue" stroke="midnightblue" points="1121.5,-392.4 1125,-402.4 1128.5,-392.4 1121.5,-392.4"/>
</g>
<!-- Node35 -->
<g id="node35" class="node">
<title>Node35</title>
<g id="a_node35"><a xlink:href="complement_8hpp.html" target="_top" xlink:title="Provides bio::views::complement.">
<polygon fill="white" stroke="black" points="1778.5,-341 1778.5,-360 1963.5,-360 1963.5,-341 1778.5,-341"/>
<text text-anchor="middle" x="1871" y="-348" font-family="Helvetica,sans-Serif" font-size="10.00">bio/ranges/views/complement.hpp</text>
</a>
</g>
</g>
<!-- Node1&#45;&gt;Node35 -->
<g id="edge63" class="edge">
<title>Node1&#45;&gt;Node35</title>
<path fill="none" stroke="midnightblue" d="M1200.7,-411.93C1320.61,-404.38 1561.49,-387.93 1765,-366 1780.7,-364.31 1797.66,-362.14 1813.31,-360"/>
<polygon fill="midnightblue" stroke="midnightblue" points="1200.29,-408.45 1190.53,-412.57 1200.73,-415.44 1200.29,-408.45"/>
</g>
<!-- Node3 -->
<g id="node3" class="node">
<title>Node3</title>
<g id="a_node3"><a xlink:href="alphabet_2aminoacid_2all_8hpp.html" target="_top" xlink:title="Meta&#45;header for the aminoacid submodule; includes all headers from alphabet/aminoacid/.">
<polygon fill="white" stroke="black" points="1527.5,-67.5 1527.5,-97.5 1658.5,-97.5 1658.5,-67.5 1527.5,-67.5"/>
<text text-anchor="start" x="1535.5" y="-85.5" font-family="Helvetica,sans-Serif" font-size="10.00">bio/alphabet/aminoacid</text>
<text text-anchor="middle" x="1593" y="-74.5" font-family="Helvetica,sans-Serif" font-size="10.00">/all.hpp</text>
</a>
</g>
</g>
<!-- Node2&#45;&gt;Node3 -->
<g id="edge2" class="edge">
<title>Node2&#45;&gt;Node3</title>
<path fill="none" stroke="midnightblue" d="M1701.24,-196.01C1687.81,-187.32 1672.52,-176.45 1660,-165 1637.02,-143.99 1615.02,-114.94 1602.82,-97.8"/>
<polygon fill="midnightblue" stroke="midnightblue" points="1699.42,-199 1709.74,-201.4 1703.16,-193.09 1699.42,-199"/>
</g>
<!-- Node5 -->
<g id="node5" class="node">
<title>Node5</title>
<g id="a_node5"><a xlink:href="translation_8hpp.html" target="_top" xlink:title="Provides functions for translating a triplet of nucleotides into an amino acid.">
<polygon fill="white" stroke="black" points="1668.5,-134.5 1668.5,-164.5 1799.5,-164.5 1799.5,-134.5 1668.5,-134.5"/>
<text text-anchor="start" x="1676.5" y="-152.5" font-family="Helvetica,sans-Serif" font-size="10.00">bio/alphabet/aminoacid</text>
<text text-anchor="middle" x="1734" y="-141.5" font-family="Helvetica,sans-Serif" font-size="10.00">/translation.hpp</text>
</a>
</g>
</g>
<!-- Node2&#45;&gt;Node5 -->
<g id="edge4" class="edge">
<title>Node2&#45;&gt;Node5</title>
<path fill="none" stroke="midnightblue" d="M1734,-191.11C1734,-182.15 1734,-172.32 1734,-164.58"/>
<polygon fill="midnightblue" stroke="midnightblue" points="1730.5,-191.4 1734,-201.4 1737.5,-191.4 1730.5,-191.4"/>
</g>
<!-- Node4 -->
<g id="node4" class="node">
<title>Node4</title>
<g id="a_node4"><a xlink:href="alphabet_2all_8hpp.html" target="_top" xlink:title="Meta&#45;header for the alphabet module.">
<polygon fill="white" stroke="black" points="748.5,-6 748.5,-25 861.5,-25 861.5,-6 748.5,-6"/>
<text text-anchor="middle" x="805" y="-13" font-family="Helvetica,sans-Serif" font-size="10.00">bio/alphabet/all.hpp</text>
</a>
</g>
</g>
<!-- Node3&#45;&gt;Node4 -->
<g id="edge3" class="edge">
<title>Node3&#45;&gt;Node4</title>
<path fill="none" stroke="midnightblue" d="M1517.17,-75.16C1486.67,-72.62 1451.16,-69.66 1419,-67 1213.81,-50.01 970.03,-30.02 861.72,-21.14"/>
<polygon fill="midnightblue" stroke="midnightblue" points="1517.06,-78.67 1527.31,-76.01 1517.64,-71.69 1517.06,-78.67"/>
</g>
<!-- Node5&#45;&gt;Node3 -->
<g id="edge5" class="edge">
<title>Node5&#45;&gt;Node3</title>
<path fill="none" stroke="midnightblue" d="M1694.15,-130.13C1671.75,-119.8 1644.22,-107.11 1623.54,-97.58"/>
<polygon fill="midnightblue" stroke="midnightblue" points="1692.86,-133.39 1703.41,-134.4 1695.79,-127.03 1692.86,-133.39"/>
</g>
<!-- Node6 -->
<g id="node6" class="node">
<title>Node6</title>
<g id="a_node6"><a xlink:href="translate_8hpp.html" target="_top" xlink:title="Provides bio::views::translate and bio::views::translate_single.">
<polygon fill="white" stroke="black" points="1676.5,-73 1676.5,-92 1843.5,-92 1843.5,-73 1676.5,-73"/>
<text text-anchor="middle" x="1760" y="-80" font-family="Helvetica,sans-Serif" font-size="10.00">bio/ranges/views/translate.hpp</text>
</a>
</g>
</g>
<!-- Node5&#45;&gt;Node6 -->
<g id="edge6" class="edge">
<title>Node5&#45;&gt;Node6</title>
<path fill="none" stroke="midnightblue" d="M1743.42,-124.94C1747.98,-113.54 1753.18,-100.55 1756.52,-92.19"/>
<polygon fill="midnightblue" stroke="midnightblue" points="1740.11,-123.81 1739.64,-134.4 1746.61,-126.41 1740.11,-123.81"/>
</g>
<!-- Node7 -->
<g id="node7" class="node">
<title>Node7</title>
<g id="a_node7"><a xlink:href="ranges_2views_2all_8hpp.html" target="_top" xlink:title="Meta&#45;header for the views submodule .">
<polygon fill="white" stroke="black" points="1747.5,-6 1747.5,-25 1882.5,-25 1882.5,-6 1747.5,-6"/>
<text text-anchor="middle" x="1815" y="-13" font-family="Helvetica,sans-Serif" font-size="10.00">bio/ranges/views/all.hpp</text>
</a>
</g>
</g>
<!-- Node6&#45;&gt;Node7 -->
<g id="edge7" class="edge">
<title>Node6&#45;&gt;Node7</title>
<path fill="none" stroke="midnightblue" d="M1774.16,-64.77C1784.88,-52.1 1799.18,-35.2 1807.7,-25.13"/>
<polygon fill="midnightblue" stroke="midnightblue" points="1771.21,-62.84 1767.42,-72.73 1776.55,-67.36 1771.21,-62.84"/>
</g>
<!-- Node8 -->
<g id="node8" class="node">
<title>Node8</title>
<g id="a_node8"><a xlink:href="translate__join_8hpp.html" target="_top" xlink:title="Provides bio::views::translate_join.">
<polygon fill="white" stroke="black" points="1583,-0.5 1583,-30.5 1729,-30.5 1729,-0.5 1583,-0.5"/>
<text text-anchor="start" x="1591" y="-18.5" font-family="Helvetica,sans-Serif" font-size="10.00">bio/ranges/views/translate</text>
<text text-anchor="middle" x="1656" y="-7.5" font-family="Helvetica,sans-Serif" font-size="10.00">_join.hpp</text>
</a>
</g>
</g>
<!-- Node6&#45;&gt;Node8 -->
<g id="edge8" class="edge">
<title>Node6&#45;&gt;Node8</title>
<path fill="none" stroke="midnightblue" d="M1737.04,-67.15C1719.64,-56.27 1695.84,-41.4 1678.54,-30.59"/>
<polygon fill="midnightblue" stroke="midnightblue" points="1735.64,-70.4 1745.97,-72.73 1739.35,-64.47 1735.64,-70.4"/>
</g>
<!-- Node10 -->
<g id="node10" class="node">
<title>Node10</title>
<g id="a_node10"><a xlink:href="alphabet__tuple__base_8hpp.html" target="_top" xlink:title="Provides bio::alphabet_tuple_base.">
<polygon fill="white" stroke="black" points="375,-268.5 375,-298.5 517,-298.5 517,-268.5 375,-268.5"/>
<text text-anchor="start" x="383" y="-286.5" font-family="Helvetica,sans-Serif" font-size="10.00">bio/alphabet/composite</text>
<text text-anchor="middle" x="446" y="-275.5" font-family="Helvetica,sans-Serif" font-size="10.00">/alphabet_tuple_base.hpp</text>
</a>
</g>
</g>
<!-- Node9&#45;&gt;Node10 -->
<g id="edge10" class="edge">
<title>Node9&#45;&gt;Node10</title>
<path fill="none" stroke="midnightblue" d="M446,-325.11C446,-316.15 446,-306.32 446,-298.58"/>
<polygon fill="midnightblue" stroke="midnightblue" points="442.5,-325.4 446,-335.4 449.5,-325.4 442.5,-325.4"/>
</g>
<!-- Node22 -->
<g id="node22" class="node">
<title>Node22</title>
<g id="a_node22"><a xlink:href="bitcompressed__vector_8hpp.html" target="_top" xlink:title="Provides bio::bitcompressed_vector.">
<polygon fill="white" stroke="black" points="59,-268.5 59,-298.5 207,-298.5 207,-268.5 59,-268.5"/>
<text text-anchor="start" x="67" y="-286.5" font-family="Helvetica,sans-Serif" font-size="10.00">bio/ranges/container</text>
<text text-anchor="middle" x="133" y="-275.5" font-family="Helvetica,sans-Serif" font-size="10.00">/bitcompressed_vector.hpp</text>
</a>
</g>
</g>
<!-- Node9&#45;&gt;Node22 -->
<g id="edge29" class="edge">
<title>Node9&#45;&gt;Node22</title>
<path fill="none" stroke="midnightblue" d="M378.31,-335.44C325.7,-324.52 253.07,-309.43 200.5,-298.52"/>
<polygon fill="midnightblue" stroke="midnightblue" points="377.72,-338.9 388.23,-337.5 379.15,-332.04 377.72,-338.9"/>
</g>
<!-- Node11 -->
<g id="node11" class="node">
<title>Node11</title>
<g id="a_node11"><a xlink:href="cigar_8hpp.html" target="_top" xlink:title="Provides the bio::cigar alphabet.">
<polygon fill="white" stroke="black" points="314,-201.5 314,-231.5 418,-231.5 418,-201.5 314,-201.5"/>
<text text-anchor="start" x="322" y="-219.5" font-family="Helvetica,sans-Serif" font-size="10.00">bio/alphabet/cigar</text>
<text text-anchor="middle" x="366" y="-208.5" font-family="Helvetica,sans-Serif" font-size="10.00">/cigar.hpp</text>
</a>
</g>
</g>
<!-- Node10&#45;&gt;Node11 -->
<g id="edge11" class="edge">
<title>Node10&#45;&gt;Node11</title>
<path fill="none" stroke="midnightblue" d="M420.63,-261.88C408.47,-252.01 394.22,-240.43 383.32,-231.58"/>
<polygon fill="midnightblue" stroke="midnightblue" points="418.67,-264.81 428.64,-268.4 423.09,-259.37 418.67,-264.81"/>
</g>
<!-- Node12 -->
<g id="node12" class="node">
<title>Node12</title>
<g id="a_node12"><a xlink:href="alphabet_2composite_2all_8hpp.html" target="_top" xlink:title="Meta&#45;header for the composite submodule; includes all headers from alphabet/composite/.">
<polygon fill="white" stroke="black" points="275.5,-67.5 275.5,-97.5 406.5,-97.5 406.5,-67.5 275.5,-67.5"/>
<text text-anchor="start" x="283.5" y="-85.5" font-family="Helvetica,sans-Serif" font-size="10.00">bio/alphabet/composite</text>
<text text-anchor="middle" x="341" y="-74.5" font-family="Helvetica,sans-Serif" font-size="10.00">/all.hpp</text>
</a>
</g>
</g>
<!-- Node10&#45;&gt;Node12 -->
<g id="edge12" class="edge">
<title>Node10&#45;&gt;Node12</title>
<path fill="none" stroke="midnightblue" d="M364.56,-279.26C290.26,-274.39 188.32,-262.24 163,-232 114.75,-174.38 231.62,-121.8 298.38,-97.57"/>
<polygon fill="midnightblue" stroke="midnightblue" points="364.65,-282.77 374.84,-279.9 365.08,-275.79 364.65,-282.77"/>
</g>
<!-- Node13 -->
<g id="node13" class="node">
<title>Node13</title>
<g id="a_node13"><a xlink:href="masked_8hpp.html" target="_top" xlink:title="Extends a given alphabet with the mask alphabet.">
<polygon fill="white" stroke="black" points="436,-207 436,-226 606,-226 606,-207 436,-207"/>
<text text-anchor="middle" x="521" y="-214" font-family="Helvetica,sans-Serif" font-size="10.00">bio/alphabet/mask/masked.hpp</text>
</a>
</g>
</g>
<!-- Node10&#45;&gt;Node13 -->
<g id="edge14" class="edge">
<title>Node10&#45;&gt;Node13</title>
<path fill="none" stroke="midnightblue" d="M470.03,-261.67C483.88,-249.67 500.55,-235.22 510.97,-226.19"/>
<polygon fill="midnightblue" stroke="midnightblue" points="467.54,-259.2 462.27,-268.4 472.12,-264.49 467.54,-259.2"/>
</g>
<!-- Node10&#45;&gt;Node15 -->
<g id="edge17" class="edge">
<title>Node10&#45;&gt;Node15</title>
<path fill="none" stroke="midnightblue" d="M527.47,-270.53C590.33,-260.99 679.38,-246.82 757,-232 759.88,-231.45 762.83,-230.87 765.8,-230.27"/>
<polygon fill="midnightblue" stroke="midnightblue" points="526.58,-267.13 517.22,-272.08 527.63,-274.05 526.58,-267.13"/>
</g>
<!-- Node19 -->
<g id="node19" class="node">
<title>Node19</title>
<g id="a_node19"><a xlink:href="structured__aa_8hpp.html" target="_top" xlink:title="Provides the composite of aminoacid with structure alphabets.">
<polygon fill="white" stroke="black" points="172,-201.5 172,-231.5 296,-231.5 296,-201.5 172,-201.5"/>
<text text-anchor="start" x="180" y="-219.5" font-family="Helvetica,sans-Serif" font-size="10.00">bio/alphabet/structure</text>
<text text-anchor="middle" x="234" y="-208.5" font-family="Helvetica,sans-Serif" font-size="10.00">/structured_aa.hpp</text>
</a>
</g>
</g>
<!-- Node10&#45;&gt;Node19 -->
<g id="edge24" class="edge">
<title>Node10&#45;&gt;Node19</title>
<path fill="none" stroke="midnightblue" d="M390.37,-265.44C356.01,-254.91 312.44,-241.55 280.02,-231.61"/>
<polygon fill="midnightblue" stroke="midnightblue" points="389.67,-268.89 400.26,-268.48 391.73,-262.2 389.67,-268.89"/>
</g>
<!-- Node10&#45;&gt;Node21 -->
<g id="edge27" class="edge">
<title>Node10&#45;&gt;Node21</title>
<path fill="none" stroke="midnightblue" d="M507.48,-265.85C546.61,-255.25 596.73,-241.68 633.9,-231.61"/>
<polygon fill="midnightblue" stroke="midnightblue" points="506.52,-262.48 497.78,-268.48 508.35,-269.24 506.52,-262.48"/>
</g>
<!-- Node12&#45;&gt;Node4 -->
<g id="edge13" class="edge">
<title>Node12&#45;&gt;Node4</title>
<path fill="none" stroke="midnightblue" d="M416.89,-70.87C509.85,-57.85 665.18,-36.09 748.35,-24.44"/>
<polygon fill="midnightblue" stroke="midnightblue" points="416.4,-67.4 406.99,-72.26 417.38,-74.33 416.4,-67.4"/>
</g>
<!-- Node14 -->
<g id="node14" class="node">
<title>Node14</title>
<g id="a_node14"><a xlink:href="alphabet_2mask_2all_8hpp.html" target="_top" xlink:title="Meta&#45;header for the mask submodule; includes all headers from alphabet/mask/.">
<polygon fill="white" stroke="black" points="659.5,-73 659.5,-92 802.5,-92 802.5,-73 659.5,-73"/>
<text text-anchor="middle" x="731" y="-80" font-family="Helvetica,sans-Serif" font-size="10.00">bio/alphabet/mask/all.hpp</text>
</a>
</g>
</g>
<!-- Node13&#45;&gt;Node14 -->
<g id="edge15" class="edge">
<title>Node13&#45;&gt;Node14</title>
<path fill="none" stroke="midnightblue" d="M580.48,-205.02C626.14,-195.89 684.27,-181.53 702,-165 723.31,-145.13 728.98,-108.57 730.47,-92.03"/>
<polygon fill="midnightblue" stroke="midnightblue" points="579.8,-201.59 570.66,-206.95 581.14,-208.46 579.8,-201.59"/>
</g>
<!-- Node14&#45;&gt;Node4 -->
<g id="edge16" class="edge">
<title>Node14&#45;&gt;Node4</title>
<path fill="none" stroke="midnightblue" d="M748.81,-65.86C763.36,-53.08 783.38,-35.49 795.18,-25.13"/>
<polygon fill="midnightblue" stroke="midnightblue" points="746.18,-63.5 740.98,-72.73 750.8,-68.76 746.18,-63.5"/>
</g>
<!-- Node16 -->
<g id="node16" class="node">
<title>Node16</title>
<g id="a_node16"><a xlink:href="aliases_8hpp.html" target="_top" xlink:title="Provides aliases for qualified.">
<polygon fill="white" stroke="black" points="1030,-134.5 1030,-164.5 1144,-164.5 1144,-134.5 1030,-134.5"/>
<text text-anchor="start" x="1038" y="-152.5" font-family="Helvetica,sans-Serif" font-size="10.00">bio/alphabet/quality</text>
<text text-anchor="middle" x="1087" y="-141.5" font-family="Helvetica,sans-Serif" font-size="10.00">/aliases.hpp</text>
</a>
</g>
</g>
<!-- Node15&#45;&gt;Node16 -->
<g id="edge18" class="edge">
<title>Node15&#45;&gt;Node16</title>
<path fill="none" stroke="midnightblue" d="M889.81,-199.05C932.97,-188.43 988.54,-174.74 1029.69,-164.61"/>
<polygon fill="midnightblue" stroke="midnightblue" points="888.83,-195.69 879.96,-201.48 890.51,-202.48 888.83,-195.69"/>
</g>
<!-- Node17 -->
<g id="node17" class="node">
<title>Node17</title>
<g id="a_node17"><a xlink:href="alphabet_2quality_2all_8hpp.html" target="_top" xlink:title="Meta&#45;header that includes all headers from alphabet/quality/.">
<polygon fill="white" stroke="black" points="821,-67.5 821,-97.5 935,-97.5 935,-67.5 821,-67.5"/>
<text text-anchor="start" x="829" y="-85.5" font-family="Helvetica,sans-Serif" font-size="10.00">bio/alphabet/quality</text>
<text text-anchor="middle" x="878" y="-74.5" font-family="Helvetica,sans-Serif" font-size="10.00">/all.hpp</text>
</a>
</g>
</g>
<!-- Node15&#45;&gt;Node17 -->
<g id="edge21" class="edge">
<title>Node15&#45;&gt;Node17</title>
<path fill="none" stroke="midnightblue" d="M832.74,-192.12C844.17,-164.68 862.76,-120.09 872.16,-97.52"/>
<polygon fill="midnightblue" stroke="midnightblue" points="829.5,-190.8 828.89,-201.37 835.96,-193.49 829.5,-190.8"/>
</g>
<!-- Node18 -->
<g id="node18" class="node">
<title>Node18</title>
<g id="a_node18"><a xlink:href="trim__quality_8hpp.html" target="_top" xlink:title="Provides bio::views::trim_quality.">
<polygon fill="white" stroke="black" points="1288,-67.5 1288,-97.5 1410,-97.5 1410,-67.5 1288,-67.5"/>
<text text-anchor="start" x="1296" y="-85.5" font-family="Helvetica,sans-Serif" font-size="10.00">bio/ranges/views/trim</text>
<text text-anchor="middle" x="1349" y="-74.5" font-family="Helvetica,sans-Serif" font-size="10.00">_quality.hpp</text>
</a>
</g>
</g>
<!-- Node15&#45;&gt;Node18 -->
<g id="edge22" class="edge">
<title>Node15&#45;&gt;Node18</title>
<path fill="none" stroke="midnightblue" d="M860.51,-196.91C899.64,-178.27 963.23,-150.09 1021,-134 1112.16,-108.61 1221.37,-95.01 1287.94,-88.53"/>
<polygon fill="midnightblue" stroke="midnightblue" points="858.6,-193.94 851.1,-201.43 861.63,-200.25 858.6,-193.94"/>
</g>
<!-- Node16&#45;&gt;Node17 -->
<g id="edge19" class="edge">
<title>Node16&#45;&gt;Node17</title>
<path fill="none" stroke="midnightblue" d="M1032.16,-131.44C998.28,-120.91 955.33,-107.55 923.37,-97.61"/>
<polygon fill="midnightblue" stroke="midnightblue" points="1031.32,-134.85 1041.91,-134.48 1033.4,-128.16 1031.32,-134.85"/>
</g>
<!-- Node17&#45;&gt;Node4 -->
<g id="edge20" class="edge">
<title>Node17&#45;&gt;Node4</title>
<path fill="none" stroke="midnightblue" d="M854.61,-60.67C841.13,-48.67 824.9,-34.22 814.76,-25.19"/>
<polygon fill="midnightblue" stroke="midnightblue" points="852.36,-63.36 862.16,-67.4 857.02,-58.13 852.36,-63.36"/>
</g>
<!-- Node18&#45;&gt;Node7 -->
<g id="edge23" class="edge">
<title>Node18&#45;&gt;Node7</title>
<path fill="none" stroke="midnightblue" d="M1420.34,-73.48C1498.49,-64.4 1627.45,-48.57 1738,-31 1749.02,-29.25 1760.88,-27.13 1771.91,-25.06"/>
<polygon fill="midnightblue" stroke="midnightblue" points="1419.66,-70.03 1410.13,-74.66 1420.47,-76.98 1419.66,-70.03"/>
</g>
<!-- Node20 -->
<g id="node20" class="node">
<title>Node20</title>
<g id="a_node20"><a xlink:href="alphabet_2structure_2all_8hpp.html" target="_top" xlink:title="Meta&#45;header for the structure module. It includes all headers from alphabet/structure/.">
<polygon fill="white" stroke="black" points="569,-134.5 569,-164.5 693,-164.5 693,-134.5 569,-134.5"/>
<text text-anchor="start" x="577" y="-152.5" font-family="Helvetica,sans-Serif" font-size="10.00">bio/alphabet/structure</text>
<text text-anchor="middle" x="631" y="-141.5" font-family="Helvetica,sans-Serif" font-size="10.00">/all.hpp</text>
</a>
</g>
</g>
<!-- Node19&#45;&gt;Node20 -->
<g id="edge25" class="edge">
<title>Node19&#45;&gt;Node20</title>
<path fill="none" stroke="midnightblue" d="M306.32,-200.81C403.64,-183.51 505.45,-168.33 568.96,-159.21"/>
<polygon fill="midnightblue" stroke="midnightblue" points="305.53,-197.39 296.31,-202.6 306.77,-204.29 305.53,-197.39"/>
</g>
<!-- Node20&#45;&gt;Node4 -->
<g id="edge26" class="edge">
<title>Node20&#45;&gt;Node4</title>
<path fill="none" stroke="midnightblue" d="M630.93,-124.48C632.15,-106.51 636.66,-82.47 651,-67 675.96,-40.07 715.49,-27.47 748.25,-21.59"/>
<polygon fill="midnightblue" stroke="midnightblue" points="627.43,-124.37 630.54,-134.49 634.42,-124.64 627.43,-124.37"/>
</g>
<!-- Node21&#45;&gt;Node20 -->
<g id="edge28" class="edge">
<title>Node21&#45;&gt;Node20</title>
<path fill="none" stroke="midnightblue" d="M667.58,-193.74C659.45,-184.12 650.11,-173.09 642.91,-164.58"/>
<polygon fill="midnightblue" stroke="midnightblue" points="664.93,-196.02 674.07,-201.4 670.28,-191.5 664.93,-196.02"/>
</g>
<!-- Node23 -->
<g id="node23" class="node">
<title>Node23</title>
<g id="a_node23"><a xlink:href="ranges_2container_2all_8hpp.html" target="_top" xlink:title="Meta&#45;header for the container submodule .">
<polygon fill="white" stroke="black" points="0,-201.5 0,-231.5 116,-231.5 116,-201.5 0,-201.5"/>
<text text-anchor="start" x="8" y="-219.5" font-family="Helvetica,sans-Serif" font-size="10.00">bio/ranges/container</text>
<text text-anchor="middle" x="58" y="-208.5" font-family="Helvetica,sans-Serif" font-size="10.00">/all.hpp</text>
</a>
</g>
</g>
<!-- Node22&#45;&gt;Node23 -->
<g id="edge30" class="edge">
<title>Node22&#45;&gt;Node23</title>
<path fill="none" stroke="midnightblue" d="M108.88,-261.6C97.56,-251.78 84.36,-240.34 74.24,-231.58"/>
<polygon fill="midnightblue" stroke="midnightblue" points="106.88,-264.49 116.73,-268.4 111.46,-259.2 106.88,-264.49"/>
</g>
<!-- Node24 -->
<g id="node24" class="node">
<title>Node24</title>
<g id="a_node24"><a xlink:href="ranges_2all_8hpp.html" target="_top" xlink:title="Meta&#45;header for the range module .">
<polygon fill="white" stroke="black" points="6,-140 6,-159 110,-159 110,-140 6,-140"/>
<text text-anchor="middle" x="58" y="-147" font-family="Helvetica,sans-Serif" font-size="10.00">bio/ranges/all.hpp</text>
</a>
</g>
</g>
<!-- Node23&#45;&gt;Node24 -->
<g id="edge31" class="edge">
<title>Node23&#45;&gt;Node24</title>
<path fill="none" stroke="midnightblue" d="M58,-191.25C58,-180.02 58,-167.38 58,-159.19"/>
<polygon fill="midnightblue" stroke="midnightblue" points="54.5,-191.4 58,-201.4 61.5,-191.4 54.5,-191.4"/>
</g>
<!-- Node25&#45;&gt;Node4 -->
<g id="edge33" class="edge">
<title>Node25&#45;&gt;Node4</title>
<path fill="none" stroke="midnightblue" d="M1306.29,-132.18C1183.66,-103.88 935.7,-46.66 841.99,-25.04"/>
<polygon fill="midnightblue" stroke="midnightblue" points="1305.8,-135.66 1316.33,-134.5 1307.37,-128.84 1305.8,-135.66"/>
</g>
<!-- Node27 -->
<g id="node27" class="node">
<title>Node27</title>
<g id="a_node27"><a xlink:href="dna15_8hpp.html" target="_top" xlink:title="Provides bio::dna15, container aliases and string literals.">
<polygon fill="white" stroke="black" points="1255.5,-268.5 1255.5,-298.5 1386.5,-298.5 1386.5,-268.5 1255.5,-268.5"/>
<text text-anchor="start" x="1263.5" y="-286.5" font-family="Helvetica,sans-Serif" font-size="10.00">bio/alphabet/nucleotide</text>
<text text-anchor="middle" x="1321" y="-275.5" font-family="Helvetica,sans-Serif" font-size="10.00">/dna15.hpp</text>
</a>
</g>
</g>
<!-- Node26&#45;&gt;Node27 -->
<g id="edge35" class="edge">
<title>Node26&#45;&gt;Node27</title>
<path fill="none" stroke="midnightblue" d="M1177.08,-332.23C1208.79,-321.71 1248.78,-308.45 1278.55,-298.58"/>
<polygon fill="midnightblue" stroke="midnightblue" points="1175.92,-328.93 1167.53,-335.4 1178.12,-335.57 1175.92,-328.93"/>
</g>
<!-- Node28 -->
<g id="node28" class="node">
<title>Node28</title>
<g id="a_node28"><a xlink:href="rna15_8hpp.html" target="_top" xlink:title="Provides bio::rna15, container aliases and string literals.">
<polygon fill="white" stroke="black" points="1162.5,-201.5 1162.5,-231.5 1293.5,-231.5 1293.5,-201.5 1162.5,-201.5"/>
<text text-anchor="start" x="1170.5" y="-219.5" font-family="Helvetica,sans-Serif" font-size="10.00">bio/alphabet/nucleotide</text>
<text text-anchor="middle" x="1228" y="-208.5" font-family="Helvetica,sans-Serif" font-size="10.00">/rna15.hpp</text>
</a>
</g>
</g>
<!-- Node26&#45;&gt;Node28 -->
<g id="edge57" class="edge">
<title>Node26&#45;&gt;Node28</title>
<path fill="none" stroke="midnightblue" d="M1093.33,-329.49C1071.3,-313.02 1048.45,-289.05 1064,-268 1076.12,-251.58 1122.24,-238.27 1162.49,-229.45"/>
<polygon fill="midnightblue" stroke="midnightblue" points="1091.47,-332.46 1101.65,-335.41 1095.53,-326.76 1091.47,-332.46"/>
</g>
<!-- Node29 -->
<g id="node29" class="node">
<title>Node29</title>
<g id="a_node29"><a xlink:href="dna3bs_8hpp.html" target="_top" xlink:title="Provides bio::dna3bs, container aliases and string literals.">
<polygon fill="white" stroke="black" points="1553.5,-268.5 1553.5,-298.5 1684.5,-298.5 1684.5,-268.5 1553.5,-268.5"/>
<text text-anchor="start" x="1561.5" y="-286.5" font-family="Helvetica,sans-Serif" font-size="10.00">bio/alphabet/nucleotide</text>
<text text-anchor="middle" x="1619" y="-275.5" font-family="Helvetica,sans-Serif" font-size="10.00">/dna3bs.hpp</text>
</a>
</g>
</g>
<!-- Node26&#45;&gt;Node29 -->
<g id="edge42" class="edge">
<title>Node26&#45;&gt;Node29</title>
<path fill="none" stroke="midnightblue" d="M1200.68,-342.1C1284.95,-333.47 1425.1,-317.93 1545,-299 1547.72,-298.57 1550.48,-298.12 1553.28,-297.64"/>
<polygon fill="midnightblue" stroke="midnightblue" points="1200.28,-338.62 1190.68,-343.12 1200.99,-345.59 1200.28,-338.62"/>
</g>
<!-- Node30 -->
<g id="node30" class="node">
<title>Node30</title>
<g id="a_node30"><a xlink:href="dna4_8hpp.html" target="_top" xlink:title="Provides bio::dna4, container aliases and string literals.">
<polygon fill="white" stroke="black" points="842.5,-268.5 842.5,-298.5 973.5,-298.5 973.5,-268.5 842.5,-268.5"/>
<text text-anchor="start" x="850.5" y="-286.5" font-family="Helvetica,sans-Serif" font-size="10.00">bio/alphabet/nucleotide</text>
<text text-anchor="middle" x="908" y="-275.5" font-family="Helvetica,sans-Serif" font-size="10.00">/dna4.hpp</text>
</a>
</g>
</g>
<!-- Node26&#45;&gt;Node30 -->
<g id="edge44" class="edge">
<title>Node26&#45;&gt;Node30</title>
<path fill="none" stroke="midnightblue" d="M1068.51,-332.58C1033.27,-322.02 988.43,-308.59 955.11,-298.61"/>
<polygon fill="midnightblue" stroke="midnightblue" points="1067.6,-335.96 1078.18,-335.48 1069.61,-329.25 1067.6,-335.96"/>
</g>
<!-- Node31 -->
<g id="node31" class="node">
<title>Node31</title>
<g id="a_node31"><a xlink:href="rna4_8hpp.html" target="_top" xlink:title="Provides bio::rna4, container aliases and string literals.">
<polygon fill="white" stroke="black" points="974.5,-201.5 974.5,-231.5 1105.5,-231.5 1105.5,-201.5 974.5,-201.5"/>
<text text-anchor="start" x="982.5" y="-219.5" font-family="Helvetica,sans-Serif" font-size="10.00">bio/alphabet/nucleotide</text>
<text text-anchor="middle" x="1040" y="-208.5" font-family="Helvetica,sans-Serif" font-size="10.00">/rna4.hpp</text>
</a>
</g>
</g>
<!-- Node26&#45;&gt;Node31 -->
<g id="edge58" class="edge">
<title>Node26&#45;&gt;Node31</title>
<path fill="none" stroke="midnightblue" d="M1063.75,-331.13C1048.86,-323.62 1034.72,-313.24 1026,-299 1013.18,-278.07 1023.73,-248.73 1032.15,-231.56"/>
<polygon fill="midnightblue" stroke="midnightblue" points="1062.54,-334.42 1073.09,-335.44 1065.48,-328.07 1062.54,-334.42"/>
</g>
<!-- Node32 -->
<g id="node32" class="node">
<title>Node32</title>
<g id="a_node32"><a xlink:href="dna5_8hpp.html" target="_top" xlink:title="Provides bio::dna5, container aliases and string literals.">
<polygon fill="white" stroke="black" points="1404.5,-268.5 1404.5,-298.5 1535.5,-298.5 1535.5,-268.5 1404.5,-268.5"/>
<text text-anchor="start" x="1412.5" y="-286.5" font-family="Helvetica,sans-Serif" font-size="10.00">bio/alphabet/nucleotide</text>
<text text-anchor="middle" x="1470" y="-275.5" font-family="Helvetica,sans-Serif" font-size="10.00">/dna5.hpp</text>
</a>
</g>
</g>
<!-- Node26&#45;&gt;Node32 -->
<g id="edge50" class="edge">
<title>Node26&#45;&gt;Node32</title>
<path fill="none" stroke="midnightblue" d="M1200.65,-335.6C1255.02,-325.56 1330.06,-311.6 1396,-299 1398.7,-298.48 1401.46,-297.95 1404.24,-297.42"/>
<polygon fill="midnightblue" stroke="midnightblue" points="1199.94,-332.17 1190.75,-337.42 1201.21,-339.05 1199.94,-332.17"/>
</g>
<!-- Node33 -->
<g id="node33" class="node">
<title>Node33</title>
<g id="a_node33"><a xlink:href="rna5_8hpp.html" target="_top" xlink:title="Provides bio::rna5, container aliases and string literals.">
<polygon fill="white" stroke="black" points="1311.5,-201.5 1311.5,-231.5 1442.5,-231.5 1442.5,-201.5 1311.5,-201.5"/>
<text text-anchor="start" x="1319.5" y="-219.5" font-family="Helvetica,sans-Serif" font-size="10.00">bio/alphabet/nucleotide</text>
<text text-anchor="middle" x="1377" y="-208.5" font-family="Helvetica,sans-Serif" font-size="10.00">/rna5.hpp</text>
</a>
</g>
</g>
<!-- Node26&#45;&gt;Node33 -->
<g id="edge59" class="edge">
<title>Node26&#45;&gt;Node33</title>
<path fill="none" stroke="midnightblue" d="M1106.69,-326.69C1094.82,-308.99 1083.96,-284.72 1098,-268 1127.74,-232.58 1257.53,-240.45 1303,-232 1305.7,-231.5 1308.46,-230.98 1311.25,-230.45"/>
<polygon fill="midnightblue" stroke="midnightblue" points="1104.18,-329.2 1112.86,-335.28 1109.87,-325.11 1104.18,-329.2"/>
</g>
<!-- Node34 -->
<g id="node34" class="node">
<title>Node34</title>
<g id="a_node34"><a xlink:href="sam__dna16_8hpp.html" target="_top" xlink:title="Provides bio::sam_dna16.">
<polygon fill="white" stroke="black" points="1106.5,-268.5 1106.5,-298.5 1237.5,-298.5 1237.5,-268.5 1106.5,-268.5"/>
<text text-anchor="start" x="1114.5" y="-286.5" font-family="Helvetica,sans-Serif" font-size="10.00">bio/alphabet/nucleotide</text>
<text text-anchor="middle" x="1172" y="-275.5" font-family="Helvetica,sans-Serif" font-size="10.00">/sam_dna16.hpp</text>
</a>
</g>
</g>
<!-- Node26&#45;&gt;Node34 -->
<g id="edge60" class="edge">
<title>Node26&#45;&gt;Node34</title>
<path fill="none" stroke="midnightblue" d="M1141.16,-327.16C1148.01,-317.68 1155.79,-306.92 1161.82,-298.58"/>
<polygon fill="midnightblue" stroke="midnightblue" points="1138.22,-325.24 1135.2,-335.4 1143.89,-329.34 1138.22,-325.24"/>
</g>
<!-- Node27&#45;&gt;Node2 -->
<g id="edge36" class="edge">
<title>Node27&#45;&gt;Node2</title>
<path fill="none" stroke="midnightblue" d="M1396.86,-267.9C1497.48,-250.81 1602.44,-235.65 1668.44,-226.45"/>
<polygon fill="midnightblue" stroke="midnightblue" points="1396.09,-264.48 1386.82,-269.61 1397.27,-271.38 1396.09,-264.48"/>
</g>
<!-- Node27&#45;&gt;Node16 -->
<g id="edge41" class="edge">
<title>Node27&#45;&gt;Node16</title>
<path fill="none" stroke="midnightblue" d="M1251.67,-265.86C1213.42,-255.85 1170.42,-242.95 1154,-232 1127.48,-214.32 1106.06,-183.02 1095.06,-164.79"/>
<polygon fill="midnightblue" stroke="midnightblue" points="1251.23,-269.36 1261.79,-268.47 1252.98,-262.59 1251.23,-269.36"/>
</g>
<!-- Node27&#45;&gt;Node25 -->
<g id="edge37" class="edge">
<title>Node27&#45;&gt;Node25</title>
<path fill="none" stroke="midnightblue" d="M1384.7,-265.39C1413.79,-256.16 1443.64,-244.19 1452,-232 1459.8,-220.64 1458.47,-213.16 1452,-201 1443.37,-184.79 1426.96,-172.85 1411.69,-164.66"/>
<polygon fill="midnightblue" stroke="midnightblue" points="1383.42,-262.12 1374.89,-268.41 1385.48,-268.81 1383.42,-262.12"/>
</g>
<!-- Node27&#45;&gt;Node28 -->
<g id="edge38" class="edge">
<title>Node27&#45;&gt;Node28</title>
<path fill="none" stroke="midnightblue" d="M1292.31,-262.45C1278.01,-252.45 1261.05,-240.6 1248.14,-231.58"/>
<polygon fill="midnightblue" stroke="midnightblue" points="1290.62,-265.54 1300.82,-268.4 1294.63,-259.8 1290.62,-265.54"/>
</g>
<!-- Node28&#45;&gt;Node16 -->
<g id="edge40" class="edge">
<title>Node28&#45;&gt;Node16</title>
<path fill="none" stroke="midnightblue" d="M1188.15,-197.13C1165.75,-186.8 1138.22,-174.11 1117.54,-164.58"/>
<polygon fill="midnightblue" stroke="midnightblue" points="1186.86,-200.39 1197.41,-201.4 1189.79,-194.03 1186.86,-200.39"/>
</g>
<!-- Node28&#45;&gt;Node25 -->
<g id="edge39" class="edge">
<title>Node28&#45;&gt;Node25</title>
<path fill="none" stroke="midnightblue" d="M1269.79,-197.27C1293.52,-186.92 1322.78,-174.15 1344.73,-164.58"/>
<polygon fill="midnightblue" stroke="midnightblue" points="1268.1,-194.19 1260.33,-201.4 1270.9,-200.61 1268.1,-194.19"/>
</g>
<!-- Node29&#45;&gt;Node25 -->
<g id="edge43" class="edge">
<title>Node29&#45;&gt;Node25</title>
<path fill="none" stroke="midnightblue" d="M1589.33,-262.95C1562.76,-245.77 1522.46,-220.53 1486,-201 1461,-187.61 1431.8,-174.19 1409.92,-164.56"/>
<polygon fill="midnightblue" stroke="midnightblue" points="1587.5,-265.93 1597.79,-268.45 1591.32,-260.06 1587.5,-265.93"/>
</g>
<!-- Node30&#45;&gt;Node16 -->
<g id="edge49" class="edge">
<title>Node30&#45;&gt;Node16</title>
<path fill="none" stroke="midnightblue" d="M909.23,-258.39C911.39,-240.37 917.12,-216.31 932,-201 957.64,-174.61 997.21,-162 1029.95,-155.98"/>
<polygon fill="midnightblue" stroke="midnightblue" points="905.73,-258.16 908.3,-268.44 912.7,-258.8 905.73,-258.16"/>
</g>
<!-- Node30&#45;&gt;Node25 -->
<g id="edge45" class="edge">
<title>Node30&#45;&gt;Node25</title>
<path fill="none" stroke="midnightblue" d="M918.11,-258.96C927.58,-239.98 943.64,-214.32 966,-201 994.99,-183.73 1202.52,-164.63 1311.12,-155.67"/>
<polygon fill="midnightblue" stroke="midnightblue" points="914.86,-257.64 913.76,-268.18 921.19,-260.63 914.86,-257.64"/>
</g>
<!-- Node30&#45;&gt;Node31 -->
<g id="edge46" class="edge">
<title>Node30&#45;&gt;Node31</title>
<path fill="none" stroke="midnightblue" d="M945.87,-263.85C966.74,-253.58 992.23,-241.03 1011.41,-231.58"/>
<polygon fill="midnightblue" stroke="midnightblue" points="944.07,-260.84 936.64,-268.4 947.16,-267.12 944.07,-260.84"/>
</g>
<!-- Node31&#45;&gt;Node16 -->
<g id="edge48" class="edge">
<title>Node31&#45;&gt;Node16</title>
<path fill="none" stroke="midnightblue" d="M1056.16,-193.16C1063.01,-183.68 1070.79,-172.92 1076.82,-164.58"/>
<polygon fill="midnightblue" stroke="midnightblue" points="1053.22,-191.24 1050.2,-201.4 1058.89,-195.34 1053.22,-191.24"/>
</g>
<!-- Node31&#45;&gt;Node25 -->
<g id="edge47" class="edge">
<title>Node31&#45;&gt;Node25</title>
<path fill="none" stroke="midnightblue" d="M1115.76,-200.89C1174.58,-189.54 1255.3,-173.97 1311.39,-163.15"/>
<polygon fill="midnightblue" stroke="midnightblue" points="1114.93,-197.48 1105.78,-202.81 1116.26,-204.36 1114.93,-197.48"/>
</g>
<!-- Node32&#45;&gt;Node6 -->
<g id="edge56" class="edge">
<title>Node32&#45;&gt;Node6</title>
<path fill="none" stroke="midnightblue" d="M1545.95,-268.17C1618.76,-259.95 1771.89,-274.52 1809,-232 1837.64,-199.19 1825.36,-174.36 1809,-134 1801.75,-116.11 1784.78,-101.07 1772.86,-92.17"/>
<polygon fill="midnightblue" stroke="midnightblue" points="1545.25,-264.74 1535.81,-269.56 1546.2,-271.67 1545.25,-264.74"/>
</g>
<!-- Node32&#45;&gt;Node16 -->
<g id="edge55" class="edge">
<title>Node32&#45;&gt;Node16</title>
<path fill="none" stroke="midnightblue" d="M1471.5,-258.35C1471.23,-239.94 1467.58,-215.38 1452,-201 1429.79,-180.5 1241.43,-162.74 1144.35,-154.85"/>
<polygon fill="midnightblue" stroke="midnightblue" points="1468,-258.29 1471.33,-268.35 1475,-258.41 1468,-258.29"/>
</g>
<!-- Node32&#45;&gt;Node25 -->
<g id="edge51" class="edge">
<title>Node32&#45;&gt;Node25</title>
<path fill="none" stroke="midnightblue" d="M1475.38,-258.49C1477.89,-241.26 1478.38,-218.15 1468,-201 1457.8,-184.15 1439.79,-172.5 1422.47,-164.67"/>
<polygon fill="midnightblue" stroke="midnightblue" points="1471.93,-257.9 1473.63,-268.36 1478.82,-259.12 1471.93,-257.9"/>
</g>
<!-- Node32&#45;&gt;Node33 -->
<g id="edge52" class="edge">
<title>Node32&#45;&gt;Node33</title>
<path fill="none" stroke="midnightblue" d="M1441.31,-262.45C1427.01,-252.45 1410.05,-240.6 1397.14,-231.58"/>
<polygon fill="midnightblue" stroke="midnightblue" points="1439.62,-265.54 1449.82,-268.4 1443.63,-259.8 1439.62,-265.54"/>
</g>
<!-- Node33&#45;&gt;Node16 -->
<g id="edge54" class="edge">
<title>Node33&#45;&gt;Node16</title>
<path fill="none" stroke="midnightblue" d="M1304.4,-199.23C1254.79,-188.11 1189.96,-173.58 1144.05,-163.29"/>
<polygon fill="midnightblue" stroke="midnightblue" points="1303.91,-202.7 1314.43,-201.48 1305.44,-195.87 1303.91,-202.7"/>
</g>
<!-- Node33&#45;&gt;Node25 -->
<g id="edge53" class="edge">
<title>Node33&#45;&gt;Node25</title>
<path fill="none" stroke="midnightblue" d="M1377,-191.11C1377,-182.15 1377,-172.32 1377,-164.58"/>
<polygon fill="midnightblue" stroke="midnightblue" points="1373.5,-191.4 1377,-201.4 1380.5,-191.4 1373.5,-191.4"/>
</g>
<!-- Node35&#45;&gt;Node7 -->
<g id="edge64" class="edge">
<title>Node35&#45;&gt;Node7</title>
<path fill="none" stroke="midnightblue" d="M1871,-330.72C1871,-305.12 1871,-257.84 1871,-217.5 1871,-217.5 1871,-217.5 1871,-148.5 1871,-111.4 1868.51,-100.7 1853,-67 1845.48,-50.65 1832,-34.53 1823.28,-25.04"/>
<polygon fill="midnightblue" stroke="midnightblue" points="1867.5,-330.85 1871,-340.85 1874.5,-330.85 1867.5,-330.85"/>
</g>
</g>
</svg>
