<?xml version="1.0" encoding="UTF-8" standalone="no"?>
<!DOCTYPE svg PUBLIC "-//W3C//DTD SVG 1.1//EN"
 "http://www.w3.org/Graphics/SVG/1.1/DTD/svg11.dtd">
<!-- Generated by graphviz version 2.43.0 (0)
 -->
<!-- Title: bio/alphabet/nucleotide/concept.hpp Pages: 1 -->
<svg width="745pt" height="341pt"
 viewBox="0.00 0.00 744.50 341.00" xmlns="http://www.w3.org/2000/svg" xmlns:xlink="http://www.w3.org/1999/xlink">
<g id="graph0" class="graph" transform="scale(1 1) rotate(0) translate(4 337)">
<title>bio/alphabet/nucleotide/concept.hpp</title>
<polygon fill="white" stroke="transparent" points="-4,4 -4,-337 740.5,-337 740.5,4 -4,4"/>
<!-- Node1 -->
<g id="node1" class="node">
<title>Node1</title>
<g id="a_node1"><a xlink:title="Provides bio::alphabet::nucleotide_alphabet.">
<polygon fill="#bfbfbf" stroke="black" points="116.5,-302.5 116.5,-332.5 247.5,-332.5 247.5,-302.5 116.5,-302.5"/>
<text text-anchor="start" x="124.5" y="-320.5" font-family="Helvetica,sans-Serif" font-size="10.00">bio/alphabet/nucleotide</text>
<text text-anchor="middle" x="182" y="-309.5" font-family="Helvetica,sans-Serif" font-size="10.00">/concept.hpp</text>
</a>
</g>
</g>
<!-- Node2 -->
<g id="node2" class="node">
<title>Node2</title>
<g id="a_node2"><a target="_blank" xlink:href="https://en.cppreference.com/w/cpp/header/concepts.html" xlink:title=" ">
<polygon fill="white" stroke="black" points="0,-56.5 0,-75.5 60,-75.5 60,-56.5 0,-56.5"/>
<text text-anchor="middle" x="30" y="-63.5" font-family="Helvetica,sans-Serif" font-size="10.00">concepts</text>
</a>
</g>
</g>
<!-- Node1&#45;&gt;Node2 -->
<g id="edge1" class="edge">
<title>Node1&#45;&gt;Node2</title>
<path fill="none" stroke="midnightblue" d="M162.01,-302.39C126.52,-275.94 53.63,-215.05 26,-143 18.92,-124.54 21.49,-101.68 24.84,-85.89"/>
<polygon fill="midnightblue" stroke="midnightblue" points="28.33,-86.34 27.29,-75.79 21.53,-84.68 28.33,-86.34"/>
</g>
<!-- Node3 -->
<g id="node3" class="node">
<title>Node3</title>
<g id="a_node3"><a xlink:href="alphabet_2concept_8hpp.html" target="_top" xlink:title="Core alphabet concept and free function/type trait wrappers.">
<polygon fill="white" stroke="black" points="287,-246.5 287,-265.5 427,-265.5 427,-246.5 287,-246.5"/>
<text text-anchor="middle" x="357" y="-253.5" font-family="Helvetica,sans-Serif" font-size="10.00">bio/alphabet/concept.hpp</text>
</a>
</g>
</g>
<!-- Node1&#45;&gt;Node3 -->
<g id="edge2" class="edge">
<title>Node1&#45;&gt;Node3</title>
<path fill="none" stroke="midnightblue" d="M223.47,-302.4C253.58,-292.16 293.85,-278.47 322.27,-268.81"/>
<polygon fill="midnightblue" stroke="midnightblue" points="323.45,-272.1 331.79,-265.57 321.2,-265.48 323.45,-272.1"/>
</g>
<!-- Node4 -->
<g id="node4" class="node">
<title>Node4</title>
<g id="a_node4"><a target="_blank" xlink:href="https://en.cppreference.com/w/cpp/header/type_traits.html" xlink:title=" ">
<polygon fill="white" stroke="black" points="393.5,-56.5 393.5,-75.5 462.5,-75.5 462.5,-56.5 393.5,-56.5"/>
<text text-anchor="middle" x="428" y="-63.5" font-family="Helvetica,sans-Serif" font-size="10.00">type_traits</text>
</a>
</g>
</g>
<!-- Node3&#45;&gt;Node4 -->
<g id="edge3" class="edge">
<title>Node3&#45;&gt;Node4</title>
<path fill="none" stroke="midnightblue" d="M409.16,-246.49C448.51,-238.88 497.73,-226.4 510,-210 528.12,-185.78 493.27,-120.69 487,-112 477.93,-99.43 464.35,-88.73 452.51,-80.93"/>
<polygon fill="midnightblue" stroke="midnightblue" points="454.23,-77.87 443.89,-75.54 450.51,-83.81 454.23,-77.87"/>
</g>
<!-- Node5 -->
<g id="node5" class="node">
<title>Node5</title>
<g id="a_node5"><a xlink:href="tag_8hpp.html" target="_top" xlink:title="Provides the customisation tags for the alphabet concepts.">
<polygon fill="white" stroke="black" points="595,-179.5 595,-209.5 711,-209.5 711,-179.5 595,-179.5"/>
<text text-anchor="start" x="603" y="-197.5" font-family="Helvetica,sans-Serif" font-size="10.00">bio/alphabet/custom</text>
<text text-anchor="middle" x="653" y="-186.5" font-family="Helvetica,sans-Serif" font-size="10.00">/tag.hpp</text>
</a>
</g>
</g>
<!-- Node3&#45;&gt;Node5 -->
<g id="edge4" class="edge">
<title>Node3&#45;&gt;Node5</title>
<path fill="none" stroke="midnightblue" d="M399.53,-246.46C444.58,-237.42 517.81,-222.71 581,-210 582.27,-209.75 583.54,-209.49 584.83,-209.23"/>
<polygon fill="midnightblue" stroke="midnightblue" points="585.73,-212.62 594.84,-207.21 584.35,-205.76 585.73,-212.62"/>
</g>
<!-- Node6 -->
<g id="node6" class="node">
<title>Node6</title>
<g id="a_node6"><a xlink:href="exception_8hpp.html" target="_top" xlink:title="Exceptions thrown by entities in the alphabet module.">
<polygon fill="white" stroke="black" points="35.5,-118 35.5,-137 184.5,-137 184.5,-118 35.5,-118"/>
<text text-anchor="middle" x="110" y="-125" font-family="Helvetica,sans-Serif" font-size="10.00">bio/alphabet/exception.hpp</text>
</a>
</g>
</g>
<!-- Node3&#45;&gt;Node6 -->
<g id="edge5" class="edge">
<title>Node3&#45;&gt;Node6</title>
<path fill="none" stroke="midnightblue" d="M286.64,-249.97C249.14,-244.51 203.73,-233.23 169,-210 145.23,-194.1 127.74,-165.21 118.21,-146.45"/>
<polygon fill="midnightblue" stroke="midnightblue" points="121.25,-144.69 113.75,-137.21 114.95,-147.74 121.25,-144.69"/>
</g>
<!-- Node9 -->
<g id="node9" class="node">
<title>Node9</title>
<g id="a_node9"><a xlink:href="core_8hpp.html" target="_top" xlink:title="Provides platform and dependency checks.">
<polygon fill="white" stroke="black" points="211.5,-56.5 211.5,-75.5 288.5,-75.5 288.5,-56.5 211.5,-56.5"/>
<text text-anchor="middle" x="250" y="-63.5" font-family="Helvetica,sans-Serif" font-size="10.00">bio/core.hpp</text>
</a>
</g>
</g>
<!-- Node3&#45;&gt;Node9 -->
<g id="edge14" class="edge">
<title>Node3&#45;&gt;Node9</title>
<path fill="none" stroke="midnightblue" d="M303.36,-246.43C263.64,-238.86 214.37,-226.47 202,-210 172.36,-170.53 212.39,-111.65 235.57,-83.35"/>
<polygon fill="midnightblue" stroke="midnightblue" points="238.33,-85.5 242.12,-75.6 232.99,-80.98 238.33,-85.5"/>
</g>
<!-- Node13 -->
<g id="node13" class="node">
<title>Node13</title>
<g id="a_node13"><a xlink:href="core__language_8hpp.html" target="_top" xlink:title="Provides concepts for core language types and relations that don&#39;t have concepts in C++20 (yet).">
<polygon fill="white" stroke="black" points="278.5,-112.5 278.5,-142.5 403.5,-142.5 403.5,-112.5 278.5,-112.5"/>
<text text-anchor="start" x="286.5" y="-130.5" font-family="Helvetica,sans-Serif" font-size="10.00">bio/meta/concept/core</text>
<text text-anchor="middle" x="341" y="-119.5" font-family="Helvetica,sans-Serif" font-size="10.00">_language.hpp</text>
</a>
</g>
</g>
<!-- Node3&#45;&gt;Node13 -->
<g id="edge15" class="edge">
<title>Node3&#45;&gt;Node13</title>
<path fill="none" stroke="midnightblue" d="M355.9,-246.31C353.5,-227.3 347.7,-181.47 344.09,-152.9"/>
<polygon fill="midnightblue" stroke="midnightblue" points="347.55,-152.37 342.82,-142.89 340.6,-153.25 347.55,-152.37"/>
</g>
<!-- Node14 -->
<g id="node14" class="node">
<title>Node14</title>
<g id="a_node14"><a xlink:href="type__inspection_8hpp.html" target="_top" xlink:title="Provides traits to inspect some information of a type, for example its name.">
<polygon fill="white" stroke="black" points="557,-112.5 557,-142.5 673,-142.5 673,-112.5 557,-112.5"/>
<text text-anchor="start" x="565" y="-130.5" font-family="Helvetica,sans-Serif" font-size="10.00">bio/meta/detail/type</text>
<text text-anchor="middle" x="615" y="-119.5" font-family="Helvetica,sans-Serif" font-size="10.00">_inspection.hpp</text>
</a>
</g>
</g>
<!-- Node3&#45;&gt;Node14 -->
<g id="edge19" class="edge">
<title>Node3&#45;&gt;Node14</title>
<path fill="none" stroke="midnightblue" d="M427.1,-248.26C463.69,-242.3 508,-231.09 543,-210 567.32,-195.35 587.91,-169.78 600.77,-151.18"/>
<polygon fill="midnightblue" stroke="midnightblue" points="603.79,-152.95 606.44,-142.69 597.97,-149.07 603.79,-152.95"/>
</g>
<!-- Node18 -->
<g id="node18" class="node">
<title>Node18</title>
<g id="a_node18"><a xlink:href="priority__tag_8hpp.html" target="_top" xlink:title="provides bio::meta::priority_tag.">
<polygon fill="white" stroke="black" points="211.5,-179.5 211.5,-209.5 328.5,-209.5 328.5,-179.5 211.5,-179.5"/>
<text text-anchor="start" x="219.5" y="-197.5" font-family="Helvetica,sans-Serif" font-size="10.00">bio/meta/tag/priority</text>
<text text-anchor="middle" x="270" y="-186.5" font-family="Helvetica,sans-Serif" font-size="10.00">_tag.hpp</text>
</a>
</g>
</g>
<!-- Node3&#45;&gt;Node18 -->
<g id="edge25" class="edge">
<title>Node3&#45;&gt;Node18</title>
<path fill="none" stroke="midnightblue" d="M344.54,-246.48C332.64,-238.34 314.29,-225.79 298.77,-215.18"/>
<polygon fill="midnightblue" stroke="midnightblue" points="300.73,-212.28 290.5,-209.52 296.78,-218.06 300.73,-212.28"/>
</g>
<!-- Node19 -->
<g id="node19" class="node">
<title>Node19</title>
<g id="a_node19"><a xlink:href="basic_8hpp.html" target="_top" xlink:title="Provides various type traits on generic types.">
<polygon fill="white" stroke="black" points="385,-179.5 385,-209.5 501,-209.5 501,-179.5 385,-179.5"/>
<text text-anchor="start" x="393" y="-197.5" font-family="Helvetica,sans-Serif" font-size="10.00">bio/meta/type_traits</text>
<text text-anchor="middle" x="443" y="-186.5" font-family="Helvetica,sans-Serif" font-size="10.00">/basic.hpp</text>
</a>
</g>
</g>
<!-- Node3&#45;&gt;Node19 -->
<g id="edge27" class="edge">
<title>Node3&#45;&gt;Node19</title>
<path fill="none" stroke="midnightblue" d="M369.32,-246.48C380.97,-238.42 398.88,-226.02 414.13,-215.47"/>
<polygon fill="midnightblue" stroke="midnightblue" points="416.5,-218.09 422.73,-209.52 412.52,-212.33 416.5,-218.09"/>
</g>
<!-- Node6&#45;&gt;Node2 -->
<g id="edge6" class="edge">
<title>Node6&#45;&gt;Node2</title>
<path fill="none" stroke="midnightblue" d="M98.54,-117.98C85.83,-108.52 65.09,-93.1 49.75,-81.69"/>
<polygon fill="midnightblue" stroke="midnightblue" points="51.55,-78.67 41.44,-75.51 47.38,-84.29 51.55,-78.67"/>
</g>
<!-- Node7 -->
<g id="node7" class="node">
<title>Node7</title>
<g id="a_node7"><a target="_blank" xlink:href="https://en.cppreference.com/w/cpp/header/stdexcept.html" xlink:title=" ">
<polygon fill="white" stroke="black" points="78.5,-56.5 78.5,-75.5 143.5,-75.5 143.5,-56.5 78.5,-56.5"/>
<text text-anchor="middle" x="111" y="-63.5" font-family="Helvetica,sans-Serif" font-size="10.00">stdexcept</text>
</a>
</g>
</g>
<!-- Node6&#45;&gt;Node7 -->
<g id="edge7" class="edge">
<title>Node6&#45;&gt;Node7</title>
<path fill="none" stroke="midnightblue" d="M110.14,-117.98C110.28,-109.58 110.5,-96.48 110.69,-85.66"/>
<polygon fill="midnightblue" stroke="midnightblue" points="114.19,-85.57 110.86,-75.51 107.19,-85.45 114.19,-85.57"/>
</g>
<!-- Node8 -->
<g id="node8" class="node">
<title>Node8</title>
<g id="a_node8"><a target="_blank" xlink:href="https://en.cppreference.com/w/cpp/header/string.html" xlink:title=" ">
<polygon fill="white" stroke="black" points="156,-0.5 156,-19.5 200,-19.5 200,-0.5 156,-0.5"/>
<text text-anchor="middle" x="178" y="-7.5" font-family="Helvetica,sans-Serif" font-size="10.00">string</text>
</a>
</g>
</g>
<!-- Node6&#45;&gt;Node8 -->
<g id="edge8" class="edge">
<title>Node6&#45;&gt;Node8</title>
<path fill="none" stroke="midnightblue" d="M118.67,-117.85C127.89,-108.27 142.43,-92.07 152,-76 160.83,-61.17 167.87,-42.79 172.38,-29.36"/>
<polygon fill="midnightblue" stroke="midnightblue" points="175.72,-30.41 175.45,-19.81 169.06,-28.27 175.72,-30.41"/>
</g>
<!-- Node6&#45;&gt;Node9 -->
<g id="edge9" class="edge">
<title>Node6&#45;&gt;Node9</title>
<path fill="none" stroke="midnightblue" d="M130.06,-117.98C153.76,-107.9 193.41,-91.05 220.58,-79.5"/>
<polygon fill="midnightblue" stroke="midnightblue" points="222.14,-82.64 229.98,-75.51 219.41,-76.2 222.14,-82.64"/>
</g>
<!-- Node9&#45;&gt;Node8 -->
<g id="edge13" class="edge">
<title>Node9&#45;&gt;Node8</title>
<path fill="none" stroke="midnightblue" d="M238.43,-56.32C227.58,-48.18 211.12,-35.84 198.12,-26.09"/>
<polygon fill="midnightblue" stroke="midnightblue" points="199.88,-23.03 189.78,-19.83 195.68,-28.63 199.88,-23.03"/>
</g>
<!-- Node10 -->
<g id="node10" class="node">
<title>Node10</title>
<g id="a_node10"><a target="_blank" xlink:href="https://en.cppreference.com/w/cpp/header/cinttypes.html" xlink:title=" ">
<polygon fill="white" stroke="black" points="218,-0.5 218,-19.5 280,-19.5 280,-0.5 218,-0.5"/>
<text text-anchor="middle" x="249" y="-7.5" font-family="Helvetica,sans-Serif" font-size="10.00">cinttypes</text>
</a>
</g>
</g>
<!-- Node9&#45;&gt;Node10 -->
<g id="edge10" class="edge">
<title>Node9&#45;&gt;Node10</title>
<path fill="none" stroke="midnightblue" d="M249.83,-56.08C249.7,-49.01 249.52,-38.86 249.35,-29.99"/>
<polygon fill="midnightblue" stroke="midnightblue" points="252.85,-29.68 249.16,-19.75 245.85,-29.81 252.85,-29.68"/>
</g>
<!-- Node11 -->
<g id="node11" class="node">
<title>Node11</title>
<g id="a_node11"><a target="_blank" xlink:href="https://en.cppreference.com/w/cpp/header/ciso646.html" xlink:title=" ">
<polygon fill="white" stroke="black" points="298,-0.5 298,-19.5 352,-19.5 352,-0.5 298,-0.5"/>
<text text-anchor="middle" x="325" y="-7.5" font-family="Helvetica,sans-Serif" font-size="10.00">ciso646</text>
</a>
</g>
</g>
<!-- Node9&#45;&gt;Node11 -->
<g id="edge11" class="edge">
<title>Node9&#45;&gt;Node11</title>
<path fill="none" stroke="midnightblue" d="M262.05,-56.32C273.46,-48.11 290.83,-35.6 304.43,-25.81"/>
<polygon fill="midnightblue" stroke="midnightblue" points="306.66,-28.52 312.73,-19.83 302.57,-22.84 306.66,-28.52"/>
</g>
<!-- Node12 -->
<g id="node12" class="node">
<title>Node12</title>
<g id="a_node12"><a target="_blank" xlink:href="https://en.cppreference.com/w/cpp/header/cstddef.html" xlink:title=" ">
<polygon fill="white" stroke="black" points="370.5,-0.5 370.5,-19.5 423.5,-19.5 423.5,-0.5 370.5,-0.5"/>
<text text-anchor="middle" x="397" y="-7.5" font-family="Helvetica,sans-Serif" font-size="10.00">cstddef</text>
</a>
</g>
</g>
<!-- Node9&#45;&gt;Node12 -->
<g id="edge12" class="edge">
<title>Node9&#45;&gt;Node12</title>
<path fill="none" stroke="midnightblue" d="M273.29,-56.44C297.81,-47.44 336.6,-33.19 364.2,-23.05"/>
<polygon fill="midnightblue" stroke="midnightblue" points="365.64,-26.25 373.82,-19.52 363.22,-19.68 365.64,-26.25"/>
</g>
<!-- Node13&#45;&gt;Node2 -->
<g id="edge16" class="edge">
<title>Node13&#45;&gt;Node2</title>
<path fill="none" stroke="midnightblue" d="M278.46,-115.68C225.5,-106.34 147.32,-92.12 70.11,-76.16"/>
<polygon fill="midnightblue" stroke="midnightblue" points="70.71,-72.71 60.21,-74.11 69.28,-79.57 70.71,-72.71"/>
</g>
<!-- Node13&#45;&gt;Node4 -->
<g id="edge17" class="edge">
<title>Node13&#45;&gt;Node4</title>
<path fill="none" stroke="midnightblue" d="M361.62,-112.4C375.3,-103.04 393.21,-90.79 406.98,-81.38"/>
<polygon fill="midnightblue" stroke="midnightblue" points="409.06,-84.19 415.34,-75.66 405.11,-78.41 409.06,-84.19"/>
</g>
<!-- Node13&#45;&gt;Node9 -->
<g id="edge18" class="edge">
<title>Node13&#45;&gt;Node9</title>
<path fill="none" stroke="midnightblue" d="M319.43,-112.4C305.12,-103.04 286.39,-90.79 271.99,-81.38"/>
<polygon fill="midnightblue" stroke="midnightblue" points="273.53,-78.2 263.24,-75.66 269.7,-84.06 273.53,-78.2"/>
</g>
<!-- Node14&#45;&gt;Node8 -->
<g id="edge22" class="edge">
<title>Node14&#45;&gt;Node8</title>
<path fill="none" stroke="midnightblue" d="M622.56,-112.37C629.85,-96.56 637.93,-71.19 624,-56 594.25,-23.55 286.8,-27.95 210.14,-19.44"/>
<polygon fill="midnightblue" stroke="midnightblue" points="210.62,-15.97 200.23,-18.02 209.63,-22.9 210.62,-15.97"/>
</g>
<!-- Node14&#45;&gt;Node9 -->
<g id="edge24" class="edge">
<title>Node14&#45;&gt;Node9</title>
<path fill="none" stroke="midnightblue" d="M556.76,-117.01C485.4,-105.37 365.78,-85.87 298.95,-74.98"/>
<polygon fill="midnightblue" stroke="midnightblue" points="299.13,-71.46 288.69,-73.31 298,-78.37 299.13,-71.46"/>
</g>
<!-- Node15 -->
<g id="node15" class="node">
<title>Node15</title>
<g id="a_node15"><a target="_blank" xlink:href="https://en.cppreference.com/w/cpp/header/functional.html" xlink:title=" ">
<polygon fill="white" stroke="black" points="671.5,-56.5 671.5,-75.5 736.5,-75.5 736.5,-56.5 671.5,-56.5"/>
<text text-anchor="middle" x="704" y="-63.5" font-family="Helvetica,sans-Serif" font-size="10.00">functional</text>
</a>
</g>
</g>
<!-- Node14&#45;&gt;Node15 -->
<g id="edge20" class="edge">
<title>Node14&#45;&gt;Node15</title>
<path fill="none" stroke="midnightblue" d="M636.09,-112.4C650.09,-103.04 668.41,-90.79 682.49,-81.38"/>
<polygon fill="midnightblue" stroke="midnightblue" points="684.68,-84.13 691.05,-75.66 680.79,-78.31 684.68,-84.13"/>
</g>
<!-- Node16 -->
<g id="node16" class="node">
<title>Node16</title>
<g id="a_node16"><a target="_blank" xlink:href="https://en.cppreference.com/w/cpp/header/memory.html" xlink:title=" ">
<polygon fill="white" stroke="black" points="481,-56.5 481,-75.5 539,-75.5 539,-56.5 481,-56.5"/>
<text text-anchor="middle" x="510" y="-63.5" font-family="Helvetica,sans-Serif" font-size="10.00">memory</text>
</a>
</g>
</g>
<!-- Node14&#45;&gt;Node16 -->
<g id="edge21" class="edge">
<title>Node14&#45;&gt;Node16</title>
<path fill="none" stroke="midnightblue" d="M590.12,-112.4C573.29,-102.86 551.16,-90.32 534.43,-80.84"/>
<polygon fill="midnightblue" stroke="midnightblue" points="535.7,-77.54 525.28,-75.66 532.25,-83.63 535.7,-77.54"/>
</g>
<!-- Node17 -->
<g id="node17" class="node">
<title>Node17</title>
<g id="a_node17"><a target="_blank" xlink:href="https://en.cppreference.com/w/cpp/header/typeinfo.html" xlink:title=" ">
<polygon fill="white" stroke="black" points="557.5,-56.5 557.5,-75.5 614.5,-75.5 614.5,-56.5 557.5,-56.5"/>
<text text-anchor="middle" x="586" y="-63.5" font-family="Helvetica,sans-Serif" font-size="10.00">typeinfo</text>
</a>
</g>
</g>
<!-- Node14&#45;&gt;Node17 -->
<g id="edge23" class="edge">
<title>Node14&#45;&gt;Node17</title>
<path fill="none" stroke="midnightblue" d="M608.13,-112.4C604.09,-104.11 598.94,-93.55 594.63,-84.71"/>
<polygon fill="midnightblue" stroke="midnightblue" points="597.75,-83.11 590.22,-75.66 591.45,-86.18 597.75,-83.11"/>
</g>
<!-- Node18&#45;&gt;Node9 -->
<g id="edge26" class="edge">
<title>Node18&#45;&gt;Node9</title>
<path fill="none" stroke="midnightblue" d="M267.78,-179.48C264.17,-156.62 257,-111.3 252.96,-85.71"/>
<polygon fill="midnightblue" stroke="midnightblue" points="256.41,-85.12 251.39,-75.79 249.49,-86.21 256.41,-85.12"/>
</g>
<!-- Node19&#45;&gt;Node4 -->
<g id="edge29" class="edge">
<title>Node19&#45;&gt;Node4</title>
<path fill="none" stroke="midnightblue" d="M454.51,-179.22C466.24,-162.83 481.47,-135.23 472,-112 467.2,-100.23 457.67,-89.86 448.71,-82.05"/>
<polygon fill="midnightblue" stroke="midnightblue" points="450.75,-79.2 440.78,-75.63 446.35,-84.64 450.75,-79.2"/>
</g>
<!-- Node19&#45;&gt;Node13 -->
<g id="edge30" class="edge">
<title>Node19&#45;&gt;Node13</title>
<path fill="none" stroke="midnightblue" d="M420.87,-179.4C406.43,-170.2 387.4,-158.07 371.53,-147.95"/>
<polygon fill="midnightblue" stroke="midnightblue" points="373.4,-145 363.09,-142.58 369.64,-150.9 373.4,-145"/>
</g>
<!-- Node20 -->
<g id="node20" class="node">
<title>Node20</title>
<g id="a_node20"><a target="_blank" xlink:href="https://en.cppreference.com/w/cpp/header/tuple.html" xlink:title=" ">
<polygon fill="white" stroke="black" points="421.5,-118 421.5,-137 462.5,-137 462.5,-118 421.5,-118"/>
<text text-anchor="middle" x="442" y="-125" font-family="Helvetica,sans-Serif" font-size="10.00">tuple</text>
</a>
</g>
</g>
<!-- Node19&#45;&gt;Node20 -->
<g id="edge28" class="edge">
<title>Node19&#45;&gt;Node20</title>
<path fill="none" stroke="midnightblue" d="M442.78,-179.4C442.64,-170.06 442.45,-157.71 442.29,-147.52"/>
<polygon fill="midnightblue" stroke="midnightblue" points="445.79,-147.14 442.13,-137.19 438.79,-147.25 445.79,-147.14"/>
</g>
</g>
</svg>
