<?xml version="1.0" encoding="UTF-8" standalone="no"?>
<!DOCTYPE svg PUBLIC "-//W3C//DTD SVG 1.1//EN"
 "http://www.w3.org/Graphics/SVG/1.1/DTD/svg11.dtd">
<!-- Generated by graphviz version 2.42.2 ()
 -->
<!-- Title: bio/alphabet/detail/alphabet_proxy.hpp Pages: 1 -->
<!--zoomable 363 -->
<svg id="main" version="1.1" xmlns="http://www.w3.org/2000/svg" xmlns:xlink="http://www.w3.org/1999/xlink" xml:space="preserve" onload="init(evt)">
<style type="text/css"><![CDATA[
.edge:hover path { stroke: red; }
.edge:hover polygon { stroke: red; fill: red; }
]]></style>
<script type="text/javascript"><![CDATA[
var edges = document.getElementsByTagName('g');
if (edges && edges.length) {
  for (var i=0;i<edges.length;i++) {
    if (edges[i].id.substr(0,4)=='edge') {
      edges[i].setAttribute('class','edge');
    }
  }
}
]]></script>
        <defs>
                <circle id="rim" cx="0" cy="0" r="7"/>
                <circle id="rim2" cx="0" cy="0" r="3.5"/>
                <g id="zoomPlus">
                        <use xlink:href="#rim" fill="#404040">
                                <set attributeName="fill" to="#808080" begin="zoomplus.mouseover" end="zoomplus.mouseout"/>
                        </use>
                        <path d="M-4,0h8M0,-4v8" fill="none" stroke="white" stroke-width="1.5" pointer-events="none"/>
                </g>
                <g id="zoomMin">
                        <use xlink:href="#rim" fill="#404040">
                                <set attributeName="fill" to="#808080" begin="zoomminus.mouseover" end="zoomminus.mouseout"/>
                        </use>
                        <path d="M-4,0h8" fill="none" stroke="white" stroke-width="1.5" pointer-events="none"/>
                </g>
                <g id="dirArrow">
                        <path fill="none" stroke="white" stroke-width="1.5" d="M0,-3.0v7 M-2.5,-0.5L0,-3.0L2.5,-0.5"/>
                </g>
               <g id="resetDef">
                       <use xlink:href="#rim2" fill="#404040">
                               <set attributeName="fill" to="#808080" begin="reset.mouseover" end="reset.mouseout"/>
                       </use>
               </g>
        </defs>

<script type="text/javascript">
var viewWidth = 637;
var viewHeight = 363;
var sectionId = 'dynsection-1';
</script>
<script xlink:href="svgpan.js"/>
<svg id="graph" class="graph">
<g id="viewport">
<title>bio/alphabet/detail/alphabet_proxy.hpp</title>
<polygon fill="white" stroke="transparent" points="-4,4 -4,-359 633,-359 633,4 -4,4"/>
<!-- Node1 -->
<g id="node1" class="node">
<title>Node1</title>
<g id="a_node1"><a xlink:title="Provides bio::alphabet::alphabet_proxy.">
<polygon fill="#bfbfbf" stroke="black" points="248,-324.5 248,-354.5 351,-354.5 351,-324.5 248,-324.5"/>
<text text-anchor="start" x="256" y="-342.5" font-family="Helvetica,sans-Serif" font-size="10.00">bio/alphabet/detail</text>
<text text-anchor="middle" x="299.5" y="-331.5" font-family="Helvetica,sans-Serif" font-size="10.00">/alphabet_proxy.hpp</text>
</a>
</g>
</g>
<!-- Node2 -->
<g id="node2" class="node">
<title>Node2</title>
<g id="a_node2"><a xlink:href="alphabet__tuple__base_8hpp.html" target="_top" xlink:title="Provides bio::alphabet::alphabet_tuple_base.">
<polygon fill="white" stroke="black" points="161.5,-257.5 161.5,-287.5 289.5,-287.5 289.5,-257.5 161.5,-257.5"/>
<text text-anchor="start" x="169.5" y="-275.5" font-family="Helvetica,sans-Serif" font-size="10.00">bio/alphabet/composite</text>
<text text-anchor="middle" x="225.5" y="-264.5" font-family="Helvetica,sans-Serif" font-size="10.00">/alphabet_tuple_base.hpp</text>
</a>
</g>
</g>
<!-- Node1&#45;&gt;Node2 -->
<g id="edge1" class="edge">
<title>Node1&#45;&gt;Node2</title>
<path fill="none" stroke="midnightblue" d="M275.7,-317.6C264.53,-307.78 251.51,-296.34 241.53,-287.58"/>
<polygon fill="midnightblue" stroke="midnightblue" points="273.62,-320.43 283.44,-324.4 278.24,-315.17 273.62,-320.43"/>
</g>
<!-- Node13 -->
<g id="node13" class="node">
<title>Node13</title>
<g id="a_node13"><a xlink:href="bitcompressed__vector_8hpp.html" target="_top" xlink:title="Provides bio::ranges::bitcompressed_vector.">
<polygon fill="white" stroke="black" points="409.5,-257.5 409.5,-287.5 543.5,-287.5 543.5,-257.5 409.5,-257.5"/>
<text text-anchor="start" x="417.5" y="-275.5" font-family="Helvetica,sans-Serif" font-size="10.00">bio/ranges/container</text>
<text text-anchor="middle" x="476.5" y="-264.5" font-family="Helvetica,sans-Serif" font-size="10.00">/bitcompressed_vector.hpp</text>
</a>
</g>
</g>
<!-- Node1&#45;&gt;Node13 -->
<g id="edge15" class="edge">
<title>Node1&#45;&gt;Node13</title>
<path fill="none" stroke="midnightblue" d="M347.65,-320.82C376.1,-310.37 411.63,-297.32 438.17,-287.58"/>
<polygon fill="midnightblue" stroke="midnightblue" points="346.09,-317.66 337.91,-324.4 348.5,-324.23 346.09,-317.66"/>
</g>
<!-- Node3 -->
<g id="node3" class="node">
<title>Node3</title>
<g id="a_node3"><a xlink:href="cigar_8hpp.html" target="_top" xlink:title="Provides the bio::alphabet::cigar alphabet.">
<polygon fill="white" stroke="black" points="0,-190.5 0,-220.5 93,-220.5 93,-190.5 0,-190.5"/>
<text text-anchor="start" x="8" y="-208.5" font-family="Helvetica,sans-Serif" font-size="10.00">bio/alphabet/cigar</text>
<text text-anchor="middle" x="46.5" y="-197.5" font-family="Helvetica,sans-Serif" font-size="10.00">/cigar.hpp</text>
</a>
</g>
</g>
<!-- Node2&#45;&gt;Node3 -->
<g id="edge2" class="edge">
<title>Node2&#45;&gt;Node3</title>
<path fill="none" stroke="midnightblue" d="M177.18,-253.96C148.35,-243.48 112.22,-230.37 85.26,-220.58"/>
<polygon fill="midnightblue" stroke="midnightblue" points="176.07,-257.27 186.66,-257.4 178.45,-250.69 176.07,-257.27"/>
</g>
<!-- Node4 -->
<g id="node4" class="node">
<title>Node4</title>
<g id="a_node4"><a xlink:href="alphabet_2composite_2all_8hpp.html" target="_top" xlink:title="Meta&#45;header for the composite submodule; includes all headers from alphabet/composite/.">
<polygon fill="white" stroke="black" points="22,-56.5 22,-86.5 139,-86.5 139,-56.5 22,-56.5"/>
<text text-anchor="start" x="30" y="-74.5" font-family="Helvetica,sans-Serif" font-size="10.00">bio/alphabet/composite</text>
<text text-anchor="middle" x="80.5" y="-63.5" font-family="Helvetica,sans-Serif" font-size="10.00">/all.hpp</text>
</a>
</g>
</g>
<!-- Node2&#45;&gt;Node4 -->
<g id="edge3" class="edge">
<title>Node2&#45;&gt;Node4</title>
<path fill="none" stroke="midnightblue" d="M181.82,-252.66C167.16,-244.62 151.7,-234.05 140.5,-221 105.18,-179.86 88.86,-115.23 83.08,-86.77"/>
<polygon fill="midnightblue" stroke="midnightblue" points="180.32,-255.82 190.8,-257.33 183.55,-249.61 180.32,-255.82"/>
</g>
<!-- Node6 -->
<g id="node6" class="node">
<title>Node6</title>
<g id="a_node6"><a xlink:href="masked_8hpp.html" target="_top" xlink:title="Extends a given alphabet with the mask alphabet.">
<polygon fill="white" stroke="black" points="149.5,-196 149.5,-215 301.5,-215 301.5,-196 149.5,-196"/>
<text text-anchor="middle" x="225.5" y="-203" font-family="Helvetica,sans-Serif" font-size="10.00">bio/alphabet/mask/masked.hpp</text>
</a>
</g>
</g>
<!-- Node2&#45;&gt;Node6 -->
<g id="edge5" class="edge">
<title>Node2&#45;&gt;Node6</title>
<path fill="none" stroke="midnightblue" d="M225.5,-247.25C225.5,-236.02 225.5,-223.38 225.5,-215.19"/>
<polygon fill="midnightblue" stroke="midnightblue" points="222,-247.4 225.5,-257.4 229,-247.4 222,-247.4"/>
</g>
<!-- Node8 -->
<g id="node8" class="node">
<title>Node8</title>
<g id="a_node8"><a xlink:href="qualified_8hpp.html" target="_top" xlink:title="Provides quality alphabet composites.">
<polygon fill="white" stroke="black" points="326,-190.5 326,-220.5 427,-220.5 427,-190.5 326,-190.5"/>
<text text-anchor="start" x="334" y="-208.5" font-family="Helvetica,sans-Serif" font-size="10.00">bio/alphabet/quality</text>
<text text-anchor="middle" x="376.5" y="-197.5" font-family="Helvetica,sans-Serif" font-size="10.00">/qualified.hpp</text>
</a>
</g>
</g>
<!-- Node2&#45;&gt;Node8 -->
<g id="edge8" class="edge">
<title>Node2&#45;&gt;Node8</title>
<path fill="none" stroke="midnightblue" d="M267.53,-253.41C291.64,-243.03 321.45,-230.2 343.8,-220.58"/>
<polygon fill="midnightblue" stroke="midnightblue" points="266.07,-250.23 258.26,-257.4 268.83,-256.66 266.07,-250.23"/>
</g>
<!-- Node5 -->
<g id="node5" class="node">
<title>Node5</title>
<g id="a_node5"><a xlink:href="alphabet_2all_8hpp.html" target="_top" xlink:title="Meta&#45;header for the alphabet module.">
<polygon fill="white" stroke="black" points="171,-0.5 171,-19.5 272,-19.5 272,-0.5 171,-0.5"/>
<text text-anchor="middle" x="221.5" y="-7.5" font-family="Helvetica,sans-Serif" font-size="10.00">bio/alphabet/all.hpp</text>
</a>
</g>
</g>
<!-- Node4&#45;&gt;Node5 -->
<g id="edge4" class="edge">
<title>Node4&#45;&gt;Node5</title>
<path fill="none" stroke="midnightblue" d="M123.46,-52.37C149.2,-41.51 180.75,-28.2 200.98,-19.66"/>
<polygon fill="midnightblue" stroke="midnightblue" points="121.77,-49.29 113.92,-56.4 124.49,-55.74 121.77,-49.29"/>
</g>
<!-- Node7 -->
<g id="node7" class="node">
<title>Node7</title>
<g id="a_node7"><a xlink:href="alphabet_2mask_2all_8hpp.html" target="_top" xlink:title="Meta&#45;header for the mask submodule; includes all headers from alphabet/mask/.">
<polygon fill="white" stroke="black" points="157.5,-62 157.5,-81 285.5,-81 285.5,-62 157.5,-62"/>
<text text-anchor="middle" x="221.5" y="-69" font-family="Helvetica,sans-Serif" font-size="10.00">bio/alphabet/mask/all.hpp</text>
</a>
</g>
</g>
<!-- Node6&#45;&gt;Node7 -->
<g id="edge6" class="edge">
<title>Node6&#45;&gt;Node7</title>
<path fill="none" stroke="midnightblue" d="M224.93,-185.78C224.05,-156.75 222.4,-102.04 221.76,-81.02"/>
<polygon fill="midnightblue" stroke="midnightblue" points="221.44,-185.95 225.24,-195.84 228.43,-185.74 221.44,-185.95"/>
</g>
<!-- Node7&#45;&gt;Node5 -->
<g id="edge7" class="edge">
<title>Node7&#45;&gt;Node5</title>
<path fill="none" stroke="midnightblue" d="M221.5,-51.82C221.5,-41 221.5,-27.9 221.5,-19.51"/>
<polygon fill="midnightblue" stroke="midnightblue" points="218,-51.98 221.5,-61.98 225,-51.98 218,-51.98"/>
</g>
<!-- Node9 -->
<g id="node9" class="node">
<title>Node9</title>
<g id="a_node9"><a xlink:href="aliases_8hpp.html" target="_top" xlink:title="Provides aliases for qualified.">
<polygon fill="white" stroke="black" points="250,-123.5 250,-153.5 351,-153.5 351,-123.5 250,-123.5"/>
<text text-anchor="start" x="258" y="-141.5" font-family="Helvetica,sans-Serif" font-size="10.00">bio/alphabet/quality</text>
<text text-anchor="middle" x="300.5" y="-130.5" font-family="Helvetica,sans-Serif" font-size="10.00">/aliases.hpp</text>
</a>
</g>
</g>
<!-- Node8&#45;&gt;Node9 -->
<g id="edge9" class="edge">
<title>Node8&#45;&gt;Node9</title>
<path fill="none" stroke="midnightblue" d="M352.39,-183.88C340.84,-174.01 327.31,-162.43 316.96,-153.58"/>
<polygon fill="midnightblue" stroke="midnightblue" points="350.13,-186.56 360.01,-190.4 354.68,-181.24 350.13,-186.56"/>
</g>
<!-- Node10 -->
<g id="node10" class="node">
<title>Node10</title>
<g id="a_node10"><a xlink:href="alphabet_2quality_2all_8hpp.html" target="_top" xlink:title="Meta&#45;header that includes all headers from alphabet/quality/.">
<polygon fill="white" stroke="black" points="304,-56.5 304,-86.5 405,-86.5 405,-56.5 304,-56.5"/>
<text text-anchor="start" x="312" y="-74.5" font-family="Helvetica,sans-Serif" font-size="10.00">bio/alphabet/quality</text>
<text text-anchor="middle" x="354.5" y="-63.5" font-family="Helvetica,sans-Serif" font-size="10.00">/all.hpp</text>
</a>
</g>
</g>
<!-- Node8&#45;&gt;Node10 -->
<g id="edge12" class="edge">
<title>Node8&#45;&gt;Node10</title>
<path fill="none" stroke="midnightblue" d="M372.48,-180.39C367.9,-152.9 360.56,-108.89 356.84,-86.52"/>
<polygon fill="midnightblue" stroke="midnightblue" points="369.05,-181.09 374.15,-190.37 375.95,-179.93 369.05,-181.09"/>
</g>
<!-- Node11 -->
<g id="node11" class="node">
<title>Node11</title>
<g id="a_node11"><a xlink:href="trim__quality_8hpp.html" target="_top" xlink:title="Provides bio::views::trim_quality.">
<polygon fill="white" stroke="black" points="407.5,-123.5 407.5,-153.5 517.5,-153.5 517.5,-123.5 407.5,-123.5"/>
<text text-anchor="start" x="415.5" y="-141.5" font-family="Helvetica,sans-Serif" font-size="10.00">bio/ranges/views/trim</text>
<text text-anchor="middle" x="462.5" y="-130.5" font-family="Helvetica,sans-Serif" font-size="10.00">_quality.hpp</text>
</a>
</g>
</g>
<!-- Node8&#45;&gt;Node11 -->
<g id="edge13" class="edge">
<title>Node8&#45;&gt;Node11</title>
<path fill="none" stroke="midnightblue" d="M403.4,-184.17C416.55,-174.23 432.05,-162.51 443.88,-153.58"/>
<polygon fill="midnightblue" stroke="midnightblue" points="401.03,-181.57 395.16,-190.4 405.25,-187.16 401.03,-181.57"/>
</g>
<!-- Node9&#45;&gt;Node10 -->
<g id="edge10" class="edge">
<title>Node9&#45;&gt;Node10</title>
<path fill="none" stroke="midnightblue" d="M318.82,-115.45C326.75,-105.9 335.8,-95 342.81,-86.58"/>
<polygon fill="midnightblue" stroke="midnightblue" points="315.92,-113.47 312.22,-123.4 321.3,-117.94 315.92,-113.47"/>
</g>
<!-- Node10&#45;&gt;Node5 -->
<g id="edge11" class="edge">
<title>Node10&#45;&gt;Node5</title>
<path fill="none" stroke="midnightblue" d="M313.66,-52.23C289.44,-41.39 259.86,-28.16 240.85,-19.66"/>
<polygon fill="midnightblue" stroke="midnightblue" points="312.42,-55.51 322.98,-56.4 315.28,-49.12 312.42,-55.51"/>
</g>
<!-- Node12 -->
<g id="node12" class="node">
<title>Node12</title>
<g id="a_node12"><a xlink:href="ranges_2views_2all_8hpp.html" target="_top" xlink:title="Meta&#45;header for the views submodule .">
<polygon fill="white" stroke="black" points="423.5,-62 423.5,-81 545.5,-81 545.5,-62 423.5,-62"/>
<text text-anchor="middle" x="484.5" y="-69" font-family="Helvetica,sans-Serif" font-size="10.00">bio/ranges/views/all.hpp</text>
</a>
</g>
</g>
<!-- Node11&#45;&gt;Node12 -->
<g id="edge14" class="edge">
<title>Node11&#45;&gt;Node12</title>
<path fill="none" stroke="midnightblue" d="M470.59,-113.6C474.42,-102.28 478.76,-89.46 481.56,-81.19"/>
<polygon fill="midnightblue" stroke="midnightblue" points="467.16,-112.8 467.27,-123.4 473.79,-115.05 467.16,-112.8"/>
</g>
<!-- Node14 -->
<g id="node14" class="node">
<title>Node14</title>
<g id="a_node14"><a xlink:href="ranges_2container_2all_8hpp.html" target="_top" xlink:title="Meta&#45;header for the container submodule .">
<polygon fill="white" stroke="black" points="489.5,-190.5 489.5,-220.5 593.5,-220.5 593.5,-190.5 489.5,-190.5"/>
<text text-anchor="start" x="497.5" y="-208.5" font-family="Helvetica,sans-Serif" font-size="10.00">bio/ranges/container</text>
<text text-anchor="middle" x="541.5" y="-197.5" font-family="Helvetica,sans-Serif" font-size="10.00">/all.hpp</text>
</a>
</g>
</g>
<!-- Node13&#45;&gt;Node14 -->
<g id="edge16" class="edge">
<title>Node13&#45;&gt;Node14</title>
<path fill="none" stroke="midnightblue" d="M497.69,-250.31C507.44,-240.56 518.74,-229.26 527.42,-220.58"/>
<polygon fill="midnightblue" stroke="midnightblue" points="495.2,-247.85 490.6,-257.4 500.15,-252.8 495.2,-247.85"/>
</g>
<!-- Node15 -->
<g id="node15" class="node">
<title>Node15</title>
<g id="a_node15"><a xlink:href="ranges_2all_8hpp.html" target="_top" xlink:title="Meta&#45;header for the ranges module .">
<polygon fill="white" stroke="black" points="536,-129 536,-148 629,-148 629,-129 536,-129"/>
<text text-anchor="middle" x="582.5" y="-136" font-family="Helvetica,sans-Serif" font-size="10.00">bio/ranges/all.hpp</text>
</a>
</g>
</g>
<!-- Node14&#45;&gt;Node15 -->
<g id="edge17" class="edge">
<title>Node14&#45;&gt;Node15</title>
<path fill="none" stroke="midnightblue" d="M555.92,-181.63C563.22,-170.07 571.64,-156.71 577.02,-148.19"/>
<polygon fill="midnightblue" stroke="midnightblue" points="552.77,-180.07 550.4,-190.4 558.69,-183.81 552.77,-180.07"/>
</g>
</g>
</svg>
        <g id="navigator" transform="translate(0 0)" fill="#404254">
                <rect fill="#f2f5e9" fill-opacity="0.5" stroke="#606060" stroke-width=".5" x="0" y="0" width="60" height="60"/>
                <use id="zoomplus" xlink:href="#zoomPlus" x="17" y="9" onmousedown="handleZoom(evt,'in')"/>
                <use id="zoomminus" xlink:href="#zoomMin" x="42" y="9" onmousedown="handleZoom(evt,'out')"/>
                <use id="reset" xlink:href="#resetDef" x="30" y="36" onmousedown="handleReset()"/>
                <g id="arrowUp" xlink:href="#dirArrow" transform="translate(30 24)" onmousedown="handlePan(0,-1)">
                  <use xlink:href="#rim" fill="#404040">
                        <set attributeName="fill" to="#808080" begin="arrowUp.mouseover" end="arrowUp.mouseout"/>
                  </use>
                  <path fill="none" stroke="white" stroke-width="1.5" d="M0,-3.0v7 M-2.5,-0.5L0,-3.0L2.5,-0.5"/>
                </g>
                <g id="arrowRight" xlink:href="#dirArrow" transform="rotate(90) translate(36 -43)" onmousedown="handlePan(1,0)">
                  <use xlink:href="#rim" fill="#404040">
                        <set attributeName="fill" to="#808080" begin="arrowRight.mouseover" end="arrowRight.mouseout"/>
                  </use>
                  <path fill="none" stroke="white" stroke-width="1.5" d="M0,-3.0v7 M-2.5,-0.5L0,-3.0L2.5,-0.5"/>
                </g>
                <g id="arrowDown" xlink:href="#dirArrow" transform="rotate(180) translate(-30 -48)" onmousedown="handlePan(0,1)">
                  <use xlink:href="#rim" fill="#404040">
                        <set attributeName="fill" to="#808080" begin="arrowDown.mouseover" end="arrowDown.mouseout"/>
                  </use>
                  <path fill="none" stroke="white" stroke-width="1.5" d="M0,-3.0v7 M-2.5,-0.5L0,-3.0L2.5,-0.5"/>
                </g>
                <g id="arrowLeft" xlink:href="#dirArrow" transform="rotate(270) translate(-36 17)" onmousedown="handlePan(-1,0)">
                  <use xlink:href="#rim" fill="#404040">
                        <set attributeName="fill" to="#808080" begin="arrowLeft.mouseover" end="arrowLeft.mouseout"/>
                  </use>
                  <path fill="none" stroke="white" stroke-width="1.5" d="M0,-3.0v7 M-2.5,-0.5L0,-3.0L2.5,-0.5"/>
                </g>
        </g>
        <svg viewBox="0 0 15 15" width="100%" height="30px" preserveAspectRatio="xMaxYMin meet">
         <g id="arrow_out" transform="scale(0.3 0.3)">
          <a xlink:href="alphabet__proxy_8hpp__dep__incl_org.svg" target="_base">
           <rect id="button" ry="5" rx="5" y="6" x="6" height="38" width="38"
                fill="#f2f5e9" fill-opacity="0.5" stroke="#606060" stroke-width="1.0"/>
           <path id="arrow"
             d="M 11.500037,31.436501 C 11.940474,20.09759 22.043105,11.32322 32.158766,21.979434 L 37.068811,17.246167 C 37.068811,17.246167 37.088388,32 37.088388,32 L 22.160133,31.978069 C 22.160133,31.978069 26.997745,27.140456 26.997745,27.140456 C 18.528582,18.264221 13.291696,25.230495 11.500037,31.436501 z"
             style="fill:#404040;"/>
          </a>
         </g>
        </svg>
</svg>
