<?xml version="1.0" encoding="UTF-8" standalone="no"?>
<!DOCTYPE svg PUBLIC "-//W3C//DTD SVG 1.1//EN"
 "http://www.w3.org/Graphics/SVG/1.1/DTD/svg11.dtd">
<!-- Generated by graphviz version 2.43.0 (0)
 -->
<!-- Title: bio/alphabet/aminoacid/aminoacid_base.hpp Pages: 1 -->
<!--zoomable 374 -->
<svg id="main" version="1.1" xmlns="http://www.w3.org/2000/svg" xmlns:xlink="http://www.w3.org/1999/xlink" xml:space="preserve" onload="init(evt)">
<style type="text/css"><![CDATA[
.edge:hover path { stroke: red; }
.edge:hover polygon { stroke: red; fill: red; }
]]></style>
<script type="text/javascript"><![CDATA[
var edges = document.getElementsByTagName('g');
if (edges && edges.length) {
  for (var i=0;i<edges.length;i++) {
    if (edges[i].id.substr(0,4)=='edge') {
      edges[i].setAttribute('class','edge');
    }
  }
}
]]></script>
        <defs>
                <circle id="rim" cx="0" cy="0" r="7"/>
                <circle id="rim2" cx="0" cy="0" r="3.5"/>
                <g id="zoomPlus">
                        <use xlink:href="#rim" fill="#404040">
                                <set attributeName="fill" to="#808080" begin="zoomplus.mouseover" end="zoomplus.mouseout"/>
                        </use>
                        <path d="M-4,0h8M0,-4v8" fill="none" stroke="white" stroke-width="1.5" pointer-events="none"/>
                </g>
                <g id="zoomMin">
                        <use xlink:href="#rim" fill="#404040">
                                <set attributeName="fill" to="#808080" begin="zoomminus.mouseover" end="zoomminus.mouseout"/>
                        </use>
                        <path d="M-4,0h8" fill="none" stroke="white" stroke-width="1.5" pointer-events="none"/>
                </g>
                <g id="dirArrow">
                        <path fill="none" stroke="white" stroke-width="1.5" d="M0,-3.0v7 M-2.5,-0.5L0,-3.0L2.5,-0.5"/>
                </g>
               <g id="resetDef">
                       <use xlink:href="#rim2" fill="#404040">
                               <set attributeName="fill" to="#808080" begin="reset.mouseover" end="reset.mouseout"/>
                       </use>
               </g>
        </defs>

<script type="text/javascript">
var viewWidth = 656;
var viewHeight = 374;
var sectionId = 'dynsection-1';
</script>
<script xlink:href="svgpan.js"/>
<svg id="graph" class="graph">
<g id="viewport">
<title>bio/alphabet/aminoacid/aminoacid_base.hpp</title>
<polygon fill="white" stroke="transparent" points="-4,4 -4,-370 652,-370 652,4 -4,4"/>
<!-- Node1 -->
<g id="node1" class="node">
<title>Node1</title>
<g id="a_node1"><a xlink:title="Provides bio::alphabet::aminoacid_base.">
<polygon fill="#bfbfbf" stroke="black" points="141,-335.5 141,-365.5 272,-365.5 272,-335.5 141,-335.5"/>
<text text-anchor="start" x="149" y="-353.5" font-family="Helvetica,sans-Serif" font-size="10.00">bio/alphabet/aminoacid</text>
<text text-anchor="middle" x="206.5" y="-342.5" font-family="Helvetica,sans-Serif" font-size="10.00">/aminoacid_base.hpp</text>
</a>
</g>
</g>
<!-- Node2 -->
<g id="node2" class="node">
<title>Node2</title>
<g id="a_node2"><a xlink:href="aa10li_8hpp.html" target="_top" xlink:title="Provides bio::alphabet::aa10li, container aliases and string literals.">
<polygon fill="white" stroke="black" points="71,-201.5 71,-231.5 202,-231.5 202,-201.5 71,-201.5"/>
<text text-anchor="start" x="79" y="-219.5" font-family="Helvetica,sans-Serif" font-size="10.00">bio/alphabet/aminoacid</text>
<text text-anchor="middle" x="136.5" y="-208.5" font-family="Helvetica,sans-Serif" font-size="10.00">/aa10li.hpp</text>
</a>
</g>
</g>
<!-- Node1&#45;&gt;Node2 -->
<g id="edge1" class="edge">
<title>Node1&#45;&gt;Node2</title>
<path fill="none" stroke="midnightblue" d="M194.29,-326.48C179.76,-299.07 155.95,-254.19 143.94,-231.52"/>
<polygon fill="midnightblue" stroke="midnightblue" points="191.23,-328.18 199.01,-335.37 197.42,-324.9 191.23,-328.18"/>
</g>
<!-- Node5 -->
<g id="node5" class="node">
<title>Node5</title>
<g id="a_node5"><a xlink:href="aa10murphy_8hpp.html" target="_top" xlink:title="Provides bio::alphabet::aa10murphy, container aliases and string literals.">
<polygon fill="white" stroke="black" points="137,-134.5 137,-164.5 268,-164.5 268,-134.5 137,-134.5"/>
<text text-anchor="start" x="145" y="-152.5" font-family="Helvetica,sans-Serif" font-size="10.00">bio/alphabet/aminoacid</text>
<text text-anchor="middle" x="202.5" y="-141.5" font-family="Helvetica,sans-Serif" font-size="10.00">/aa10murphy.hpp</text>
</a>
</g>
</g>
<!-- Node1&#45;&gt;Node5 -->
<g id="edge4" class="edge">
<title>Node1&#45;&gt;Node5</title>
<path fill="none" stroke="midnightblue" d="M208.74,-324.95C211.07,-295.47 213.93,-244.55 210.5,-201 209.52,-188.61 207.22,-174.67 205.34,-164.58"/>
<polygon fill="midnightblue" stroke="midnightblue" points="205.24,-324.88 207.89,-335.14 212.21,-325.47 205.24,-324.88"/>
</g>
<!-- Node6 -->
<g id="node6" class="node">
<title>Node6</title>
<g id="a_node6"><a xlink:href="aa20_8hpp.html" target="_top" xlink:title="Provides bio::alphabet::aa20, container aliases and string literals.">
<polygon fill="white" stroke="black" points="0,-268.5 0,-298.5 131,-298.5 131,-268.5 0,-268.5"/>
<text text-anchor="start" x="8" y="-286.5" font-family="Helvetica,sans-Serif" font-size="10.00">bio/alphabet/aminoacid</text>
<text text-anchor="middle" x="65.5" y="-275.5" font-family="Helvetica,sans-Serif" font-size="10.00">/aa20.hpp</text>
</a>
</g>
</g>
<!-- Node1&#45;&gt;Node6 -->
<g id="edge6" class="edge">
<title>Node1&#45;&gt;Node6</title>
<path fill="none" stroke="midnightblue" d="M166.65,-331.13C144.25,-320.8 116.72,-308.11 96.04,-298.58"/>
<polygon fill="midnightblue" stroke="midnightblue" points="165.36,-334.39 175.91,-335.4 168.29,-328.03 165.36,-334.39"/>
</g>
<!-- Node7 -->
<g id="node7" class="node">
<title>Node7</title>
<g id="a_node7"><a xlink:href="aa27_8hpp.html" target="_top" xlink:title="Provides bio::alphabet::aa27, container aliases and string literals.">
<polygon fill="white" stroke="black" points="325,-268.5 325,-298.5 456,-298.5 456,-268.5 325,-268.5"/>
<text text-anchor="start" x="333" y="-286.5" font-family="Helvetica,sans-Serif" font-size="10.00">bio/alphabet/aminoacid</text>
<text text-anchor="middle" x="390.5" y="-275.5" font-family="Helvetica,sans-Serif" font-size="10.00">/aa27.hpp</text>
</a>
</g>
</g>
<!-- Node1&#45;&gt;Node7 -->
<g id="edge8" class="edge">
<title>Node1&#45;&gt;Node7</title>
<path fill="none" stroke="midnightblue" d="M256.17,-331.96C285.8,-321.48 322.94,-308.37 350.65,-298.58"/>
<polygon fill="midnightblue" stroke="midnightblue" points="254.69,-328.76 246.43,-335.4 257.02,-335.37 254.69,-328.76"/>
</g>
<!-- Node3 -->
<g id="node3" class="node">
<title>Node3</title>
<g id="a_node3"><a xlink:href="alphabet_2aminoacid_2all_8hpp.html" target="_top" xlink:title="Meta&#45;header for the aminoacid submodule; includes all headers from alphabet/aminoacid/.">
<polygon fill="white" stroke="black" points="199,-67.5 199,-97.5 330,-97.5 330,-67.5 199,-67.5"/>
<text text-anchor="start" x="207" y="-85.5" font-family="Helvetica,sans-Serif" font-size="10.00">bio/alphabet/aminoacid</text>
<text text-anchor="middle" x="264.5" y="-74.5" font-family="Helvetica,sans-Serif" font-size="10.00">/all.hpp</text>
</a>
</g>
</g>
<!-- Node2&#45;&gt;Node3 -->
<g id="edge2" class="edge">
<title>Node2&#45;&gt;Node3</title>
<path fill="none" stroke="midnightblue" d="M126.08,-191.93C120.08,-174.43 115.79,-150.79 127.5,-134 143.81,-110.61 172.24,-98.02 198.99,-91.26"/>
<polygon fill="midnightblue" stroke="midnightblue" points="122.87,-193.33 129.71,-201.42 129.41,-190.83 122.87,-193.33"/>
</g>
<!-- Node4 -->
<g id="node4" class="node">
<title>Node4</title>
<g id="a_node4"><a xlink:href="alphabet_2all_8hpp.html" target="_top" xlink:title="Meta&#45;header for the alphabet module.">
<polygon fill="white" stroke="black" points="208,-6 208,-25 321,-25 321,-6 208,-6"/>
<text text-anchor="middle" x="264.5" y="-13" font-family="Helvetica,sans-Serif" font-size="10.00">bio/alphabet/all.hpp</text>
</a>
</g>
</g>
<!-- Node3&#45;&gt;Node4 -->
<g id="edge3" class="edge">
<title>Node3&#45;&gt;Node4</title>
<path fill="none" stroke="midnightblue" d="M264.5,-57.25C264.5,-46.02 264.5,-33.38 264.5,-25.19"/>
<polygon fill="midnightblue" stroke="midnightblue" points="261,-57.4 264.5,-67.4 268,-57.4 261,-57.4"/>
</g>
<!-- Node5&#45;&gt;Node3 -->
<g id="edge5" class="edge">
<title>Node5&#45;&gt;Node3</title>
<path fill="none" stroke="midnightblue" d="M222.98,-127.02C232.22,-117.34 242.87,-106.17 251.07,-97.58"/>
<polygon fill="midnightblue" stroke="midnightblue" points="220.32,-124.74 215.95,-134.4 225.39,-129.58 220.32,-124.74"/>
</g>
<!-- Node6&#45;&gt;Node3 -->
<g id="edge7" class="edge">
<title>Node6&#45;&gt;Node3</title>
<path fill="none" stroke="midnightblue" d="M59.58,-258.48C56.61,-241.86 54.88,-219.49 61.5,-201 74.48,-164.73 84.84,-155.95 116.5,-134 141.04,-116.99 171.82,-105.27 198.94,-97.44"/>
<polygon fill="midnightblue" stroke="midnightblue" points="56.19,-259.38 61.63,-268.47 63.04,-257.97 56.19,-259.38"/>
</g>
<!-- Node7&#45;&gt;Node3 -->
<g id="edge9" class="edge">
<title>Node7&#45;&gt;Node3</title>
<path fill="none" stroke="midnightblue" d="M351.83,-263.15C338.79,-255.04 325.13,-244.55 315.5,-232 298.74,-210.16 276.68,-130.33 268.11,-97.62"/>
<polygon fill="midnightblue" stroke="midnightblue" points="350.3,-266.32 360.69,-268.38 353.86,-260.29 350.3,-266.32"/>
</g>
<!-- Node8 -->
<g id="node8" class="node">
<title>Node8</title>
<g id="a_node8"><a xlink:href="translation_8hpp.html" target="_top" xlink:title="Provides functions for translating a triplet of nucleotides into an amino acid.">
<polygon fill="white" stroke="black" points="363,-134.5 363,-164.5 494,-164.5 494,-134.5 363,-134.5"/>
<text text-anchor="start" x="371" y="-152.5" font-family="Helvetica,sans-Serif" font-size="10.00">bio/alphabet/aminoacid</text>
<text text-anchor="middle" x="428.5" y="-141.5" font-family="Helvetica,sans-Serif" font-size="10.00">/translation.hpp</text>
</a>
</g>
</g>
<!-- Node7&#45;&gt;Node8 -->
<g id="edge10" class="edge">
<title>Node7&#45;&gt;Node8</title>
<path fill="none" stroke="midnightblue" d="M433.32,-263.19C445.64,-255.38 457.6,-245.06 464.5,-232 476.64,-209.02 457.34,-181.1 442.64,-164.62"/>
<polygon fill="midnightblue" stroke="midnightblue" points="431.21,-260.37 424.35,-268.44 434.75,-266.41 431.21,-260.37"/>
</g>
<!-- Node9 -->
<g id="node9" class="node">
<title>Node9</title>
<g id="a_node9"><a xlink:href="translate_8hpp.html" target="_top" xlink:title="Provides bio::views::translate and bio::views::translate_single.">
<polygon fill="white" stroke="black" points="377,-73 377,-92 544,-92 544,-73 377,-73"/>
<text text-anchor="middle" x="460.5" y="-80" font-family="Helvetica,sans-Serif" font-size="10.00">bio/ranges/views/translate.hpp</text>
</a>
</g>
</g>
<!-- Node7&#45;&gt;Node9 -->
<g id="edge18" class="edge">
<title>Node7&#45;&gt;Node9</title>
<path fill="none" stroke="midnightblue" d="M438.8,-263.76C453.9,-255.9 469.47,-245.41 480.5,-232 508.86,-197.53 517.68,-175.98 502.5,-134 496.3,-116.84 481.44,-101.4 471.17,-92.24"/>
<polygon fill="midnightblue" stroke="midnightblue" points="436.94,-260.78 429.51,-268.32 440.03,-267.06 436.94,-260.78"/>
</g>
<!-- Node12 -->
<g id="node12" class="node">
<title>Node12</title>
<g id="a_node12"><a xlink:href="translation__details_8hpp.html" target="_top" xlink:title="Provides translation details for nucleotide to aminoacid translation.">
<polygon fill="white" stroke="black" points="325,-201.5 325,-231.5 456,-231.5 456,-201.5 325,-201.5"/>
<text text-anchor="start" x="333" y="-219.5" font-family="Helvetica,sans-Serif" font-size="10.00">bio/alphabet/aminoacid</text>
<text text-anchor="middle" x="390.5" y="-208.5" font-family="Helvetica,sans-Serif" font-size="10.00">/translation_details.hpp</text>
</a>
</g>
</g>
<!-- Node7&#45;&gt;Node12 -->
<g id="edge15" class="edge">
<title>Node7&#45;&gt;Node12</title>
<path fill="none" stroke="midnightblue" d="M390.5,-258.11C390.5,-249.15 390.5,-239.32 390.5,-231.58"/>
<polygon fill="midnightblue" stroke="midnightblue" points="387,-258.4 390.5,-268.4 394,-258.4 387,-258.4"/>
</g>
<!-- Node8&#45;&gt;Node3 -->
<g id="edge11" class="edge">
<title>Node8&#45;&gt;Node3</title>
<path fill="none" stroke="midnightblue" d="M383.54,-130.68C357.24,-120.26 324.5,-107.28 300.02,-97.58"/>
<polygon fill="midnightblue" stroke="midnightblue" points="382.33,-133.97 392.91,-134.4 384.91,-127.46 382.33,-133.97"/>
</g>
<!-- Node8&#45;&gt;Node9 -->
<g id="edge12" class="edge">
<title>Node8&#45;&gt;Node9</title>
<path fill="none" stroke="midnightblue" d="M439.93,-125.29C445.58,-113.8 452.07,-100.63 456.22,-92.19"/>
<polygon fill="midnightblue" stroke="midnightblue" points="436.72,-123.88 435.44,-134.4 443,-126.97 436.72,-123.88"/>
</g>
<!-- Node10 -->
<g id="node10" class="node">
<title>Node10</title>
<g id="a_node10"><a xlink:href="ranges_2views_2all_8hpp.html" target="_top" xlink:title="Meta&#45;header for the views submodule .">
<polygon fill="white" stroke="black" points="513,-6 513,-25 648,-25 648,-6 513,-6"/>
<text text-anchor="middle" x="580.5" y="-13" font-family="Helvetica,sans-Serif" font-size="10.00">bio/ranges/views/all.hpp</text>
</a>
</g>
</g>
<!-- Node9&#45;&gt;Node10 -->
<g id="edge13" class="edge">
<title>Node9&#45;&gt;Node10</title>
<path fill="none" stroke="midnightblue" d="M485.5,-67.96C509.29,-55.07 544.37,-36.07 564.57,-25.13"/>
<polygon fill="midnightblue" stroke="midnightblue" points="483.81,-64.89 476.68,-72.73 487.14,-71.05 483.81,-64.89"/>
</g>
<!-- Node11 -->
<g id="node11" class="node">
<title>Node11</title>
<g id="a_node11"><a xlink:href="translate__join_8hpp.html" target="_top" xlink:title="Provides bio::views::translate_join.">
<polygon fill="white" stroke="black" points="348.5,-0.5 348.5,-30.5 494.5,-30.5 494.5,-0.5 348.5,-0.5"/>
<text text-anchor="start" x="356.5" y="-18.5" font-family="Helvetica,sans-Serif" font-size="10.00">bio/ranges/views/translate</text>
<text text-anchor="middle" x="421.5" y="-7.5" font-family="Helvetica,sans-Serif" font-size="10.00">_join.hpp</text>
</a>
</g>
</g>
<!-- Node9&#45;&gt;Node11 -->
<g id="edge14" class="edge">
<title>Node9&#45;&gt;Node11</title>
<path fill="none" stroke="midnightblue" d="M450.02,-64.03C443.73,-53.56 435.84,-40.4 429.95,-30.59"/>
<polygon fill="midnightblue" stroke="midnightblue" points="447.09,-65.96 455.24,-72.73 453.1,-62.36 447.09,-65.96"/>
</g>
<!-- Node12&#45;&gt;Node3 -->
<g id="edge16" class="edge">
<title>Node12&#45;&gt;Node3</title>
<path fill="none" stroke="midnightblue" d="M369.88,-193.9C343.87,-166.65 299.9,-120.58 277.89,-97.52"/>
<polygon fill="midnightblue" stroke="midnightblue" points="367.58,-196.56 377.02,-201.37 372.64,-191.72 367.58,-196.56"/>
</g>
<!-- Node12&#45;&gt;Node8 -->
<g id="edge17" class="edge">
<title>Node12&#45;&gt;Node8</title>
<path fill="none" stroke="midnightblue" d="M403.9,-192.58C409.36,-183.24 415.49,-172.75 420.27,-164.58"/>
<polygon fill="midnightblue" stroke="midnightblue" points="400.77,-191 398.75,-201.4 406.81,-194.53 400.77,-191"/>
</g>
</g>
</svg>
        <g id="navigator" transform="translate(0 0)" fill="#404254">
                <rect fill="#f2f5e9" fill-opacity="0.5" stroke="#606060" stroke-width=".5" x="0" y="0" width="60" height="60"/>
                <use id="zoomplus" xlink:href="#zoomPlus" x="17" y="9" onmousedown="handleZoom(evt,'in')"/>
                <use id="zoomminus" xlink:href="#zoomMin" x="42" y="9" onmousedown="handleZoom(evt,'out')"/>
                <use id="reset" xlink:href="#resetDef" x="30" y="36" onmousedown="handleReset()"/>
                <g id="arrowUp" xlink:href="#dirArrow" transform="translate(30 24)" onmousedown="handlePan(0,-1)">
                  <use xlink:href="#rim" fill="#404040">
                        <set attributeName="fill" to="#808080" begin="arrowUp.mouseover" end="arrowUp.mouseout"/>
                  </use>
                  <path fill="none" stroke="white" stroke-width="1.5" d="M0,-3.0v7 M-2.5,-0.5L0,-3.0L2.5,-0.5"/>
                </g>
                <g id="arrowRight" xlink:href="#dirArrow" transform="rotate(90) translate(36 -43)" onmousedown="handlePan(1,0)">
                  <use xlink:href="#rim" fill="#404040">
                        <set attributeName="fill" to="#808080" begin="arrowRight.mouseover" end="arrowRight.mouseout"/>
                  </use>
                  <path fill="none" stroke="white" stroke-width="1.5" d="M0,-3.0v7 M-2.5,-0.5L0,-3.0L2.5,-0.5"/>
                </g>
                <g id="arrowDown" xlink:href="#dirArrow" transform="rotate(180) translate(-30 -48)" onmousedown="handlePan(0,1)">
                  <use xlink:href="#rim" fill="#404040">
                        <set attributeName="fill" to="#808080" begin="arrowDown.mouseover" end="arrowDown.mouseout"/>
                  </use>
                  <path fill="none" stroke="white" stroke-width="1.5" d="M0,-3.0v7 M-2.5,-0.5L0,-3.0L2.5,-0.5"/>
                </g>
                <g id="arrowLeft" xlink:href="#dirArrow" transform="rotate(270) translate(-36 17)" onmousedown="handlePan(-1,0)">
                  <use xlink:href="#rim" fill="#404040">
                        <set attributeName="fill" to="#808080" begin="arrowLeft.mouseover" end="arrowLeft.mouseout"/>
                  </use>
                  <path fill="none" stroke="white" stroke-width="1.5" d="M0,-3.0v7 M-2.5,-0.5L0,-3.0L2.5,-0.5"/>
                </g>
        </g>
        <svg viewBox="0 0 15 15" width="100%" height="30px" preserveAspectRatio="xMaxYMin meet">
         <g id="arrow_out" transform="scale(0.3 0.3)">
          <a xlink:href="aminoacid__base_8hpp__dep__incl_org.svg" target="_base">
           <rect id="button" ry="5" rx="5" y="6" x="6" height="38" width="38"
                fill="#f2f5e9" fill-opacity="0.5" stroke="#606060" stroke-width="1.0"/>
           <path id="arrow"
             d="M 11.500037,31.436501 C 11.940474,20.09759 22.043105,11.32322 32.158766,21.979434 L 37.068811,17.246167 C 37.068811,17.246167 37.088388,32 37.088388,32 L 22.160133,31.978069 C 22.160133,31.978069 26.997745,27.140456 26.997745,27.140456 C 18.528582,18.264221 13.291696,25.230495 11.500037,31.436501 z"
             style="fill:#404040;"/>
          </a>
         </g>
        </svg>
</svg>
