<?xml version="1.0" encoding="UTF-8" standalone="no"?>
<!DOCTYPE svg PUBLIC "-//W3C//DTD SVG 1.1//EN"
 "http://www.w3.org/Graphics/SVG/1.1/DTD/svg11.dtd">
<!-- Generated by graphviz version 2.42.2 ()
 -->
<!-- Title: bio/alphabet/aminoacid/aminoacid_base.hpp Pages: 1 -->
<!--zoomable 374 -->
<svg id="main" version="1.1" xmlns="http://www.w3.org/2000/svg" xmlns:xlink="http://www.w3.org/1999/xlink" xml:space="preserve" onload="init(evt)">
<style type="text/css"><![CDATA[
.edge:hover path { stroke: red; }
.edge:hover polygon { stroke: red; fill: red; }
]]></style>
<script type="text/javascript"><![CDATA[
var edges = document.getElementsByTagName('g');
if (edges && edges.length) {
  for (var i=0;i<edges.length;i++) {
    if (edges[i].id.substr(0,4)=='edge') {
      edges[i].setAttribute('class','edge');
    }
  }
}
]]></script>
        <defs>
                <circle id="rim" cx="0" cy="0" r="7"/>
                <circle id="rim2" cx="0" cy="0" r="3.5"/>
                <g id="zoomPlus">
                        <use xlink:href="#rim" fill="#404040">
                                <set attributeName="fill" to="#808080" begin="zoomplus.mouseover" end="zoomplus.mouseout"/>
                        </use>
                        <path d="M-4,0h8M0,-4v8" fill="none" stroke="white" stroke-width="1.5" pointer-events="none"/>
                </g>
                <g id="zoomMin">
                        <use xlink:href="#rim" fill="#404040">
                                <set attributeName="fill" to="#808080" begin="zoomminus.mouseover" end="zoomminus.mouseout"/>
                        </use>
                        <path d="M-4,0h8" fill="none" stroke="white" stroke-width="1.5" pointer-events="none"/>
                </g>
                <g id="dirArrow">
                        <path fill="none" stroke="white" stroke-width="1.5" d="M0,-3.0v7 M-2.5,-0.5L0,-3.0L2.5,-0.5"/>
                </g>
               <g id="resetDef">
                       <use xlink:href="#rim2" fill="#404040">
                               <set attributeName="fill" to="#808080" begin="reset.mouseover" end="reset.mouseout"/>
                       </use>
               </g>
        </defs>

<script type="text/javascript">
var viewWidth = 599;
var viewHeight = 374;
var sectionId = 'dynsection-1';
</script>
<script xlink:href="svgpan.js"/>
<svg id="graph" class="graph">
<g id="viewport">
<title>bio/alphabet/aminoacid/aminoacid_base.hpp</title>
<polygon fill="white" stroke="transparent" points="-4,4 -4,-370 595,-370 595,4 -4,4"/>
<!-- Node1 -->
<g id="node1" class="node">
<title>Node1</title>
<g id="a_node1"><a xlink:title="Provides bio::alphabet::aminoacid_base.">
<polygon fill="#bfbfbf" stroke="black" points="129,-335.5 129,-365.5 245,-365.5 245,-335.5 129,-335.5"/>
<text text-anchor="start" x="137" y="-353.5" font-family="Helvetica,sans-Serif" font-size="10.00">bio/alphabet/aminoacid</text>
<text text-anchor="middle" x="187" y="-342.5" font-family="Helvetica,sans-Serif" font-size="10.00">/aminoacid_base.hpp</text>
</a>
</g>
</g>
<!-- Node2 -->
<g id="node2" class="node">
<title>Node2</title>
<g id="a_node2"><a xlink:href="aa10li_8hpp.html" target="_top" xlink:title="Provides bio::alphabet::aa10li, container aliases and string literals.">
<polygon fill="white" stroke="black" points="65,-201.5 65,-231.5 181,-231.5 181,-201.5 65,-201.5"/>
<text text-anchor="start" x="73" y="-219.5" font-family="Helvetica,sans-Serif" font-size="10.00">bio/alphabet/aminoacid</text>
<text text-anchor="middle" x="123" y="-208.5" font-family="Helvetica,sans-Serif" font-size="10.00">/aa10li.hpp</text>
</a>
</g>
</g>
<!-- Node1&#45;&gt;Node2 -->
<g id="edge1" class="edge">
<title>Node1&#45;&gt;Node2</title>
<path fill="none" stroke="midnightblue" d="M175.66,-326.12C162.36,-298.68 140.74,-254.09 129.8,-231.52"/>
<polygon fill="midnightblue" stroke="midnightblue" points="172.64,-327.9 180.15,-335.37 178.94,-324.85 172.64,-327.9"/>
</g>
<!-- Node5 -->
<g id="node5" class="node">
<title>Node5</title>
<g id="a_node5"><a xlink:href="aa10murphy_8hpp.html" target="_top" xlink:title="Provides bio::alphabet::aa10murphy, container aliases and string literals.">
<polygon fill="white" stroke="black" points="127,-134.5 127,-164.5 243,-164.5 243,-134.5 127,-134.5"/>
<text text-anchor="start" x="135" y="-152.5" font-family="Helvetica,sans-Serif" font-size="10.00">bio/alphabet/aminoacid</text>
<text text-anchor="middle" x="185" y="-141.5" font-family="Helvetica,sans-Serif" font-size="10.00">/aa10murphy.hpp</text>
</a>
</g>
</g>
<!-- Node1&#45;&gt;Node5 -->
<g id="edge4" class="edge">
<title>Node1&#45;&gt;Node5</title>
<path fill="none" stroke="midnightblue" d="M188.54,-324.98C190.14,-295.52 192.15,-244.62 190,-201 189.39,-188.68 187.95,-174.73 186.77,-164.62"/>
<polygon fill="midnightblue" stroke="midnightblue" points="185.03,-324.97 187.95,-335.15 192.02,-325.37 185.03,-324.97"/>
</g>
<!-- Node6 -->
<g id="node6" class="node">
<title>Node6</title>
<g id="a_node6"><a xlink:href="aa20_8hpp.html" target="_top" xlink:title="Provides bio::alphabet::aa20, container aliases and string literals.">
<polygon fill="white" stroke="black" points="0,-268.5 0,-298.5 116,-298.5 116,-268.5 0,-268.5"/>
<text text-anchor="start" x="8" y="-286.5" font-family="Helvetica,sans-Serif" font-size="10.00">bio/alphabet/aminoacid</text>
<text text-anchor="middle" x="58" y="-275.5" font-family="Helvetica,sans-Serif" font-size="10.00">/aa20.hpp</text>
</a>
</g>
</g>
<!-- Node1&#45;&gt;Node6 -->
<g id="edge6" class="edge">
<title>Node1&#45;&gt;Node6</title>
<path fill="none" stroke="midnightblue" d="M149.99,-330.85C129.6,-320.58 104.69,-308.03 85.94,-298.58"/>
<polygon fill="midnightblue" stroke="midnightblue" points="148.5,-334.02 159.01,-335.4 151.65,-327.77 148.5,-334.02"/>
</g>
<!-- Node7 -->
<g id="node7" class="node">
<title>Node7</title>
<g id="a_node7"><a xlink:href="aa27_8hpp.html" target="_top" xlink:title="Provides bio::alphabet::aa27, container aliases and string literals.">
<polygon fill="white" stroke="black" points="300,-268.5 300,-298.5 416,-298.5 416,-268.5 300,-268.5"/>
<text text-anchor="start" x="308" y="-286.5" font-family="Helvetica,sans-Serif" font-size="10.00">bio/alphabet/aminoacid</text>
<text text-anchor="middle" x="358" y="-275.5" font-family="Helvetica,sans-Serif" font-size="10.00">/aa27.hpp</text>
</a>
</g>
</g>
<!-- Node1&#45;&gt;Node7 -->
<g id="edge8" class="edge">
<title>Node1&#45;&gt;Node7</title>
<path fill="none" stroke="midnightblue" d="M233.52,-331.82C261,-321.37 295.33,-308.32 320.97,-298.58"/>
<polygon fill="midnightblue" stroke="midnightblue" points="232.21,-328.57 224.1,-335.4 234.7,-335.11 232.21,-328.57"/>
</g>
<!-- Node3 -->
<g id="node3" class="node">
<title>Node3</title>
<g id="a_node3"><a xlink:href="alphabet_2aminoacid_2all_8hpp.html" target="_top" xlink:title="Meta&#45;header for the aminoacid submodule; includes all headers from alphabet/aminoacid/.">
<polygon fill="white" stroke="black" points="185,-67.5 185,-97.5 301,-97.5 301,-67.5 185,-67.5"/>
<text text-anchor="start" x="193" y="-85.5" font-family="Helvetica,sans-Serif" font-size="10.00">bio/alphabet/aminoacid</text>
<text text-anchor="middle" x="243" y="-74.5" font-family="Helvetica,sans-Serif" font-size="10.00">/all.hpp</text>
</a>
</g>
</g>
<!-- Node2&#45;&gt;Node3 -->
<g id="edge2" class="edge">
<title>Node2&#45;&gt;Node3</title>
<path fill="none" stroke="midnightblue" d="M114.26,-191.5C109.53,-174.08 106.71,-150.74 118,-134 133.05,-111.69 159.81,-99.23 184.71,-92.28"/>
<polygon fill="midnightblue" stroke="midnightblue" points="111.04,-192.94 117.33,-201.46 117.73,-190.88 111.04,-192.94"/>
</g>
<!-- Node4 -->
<g id="node4" class="node">
<title>Node4</title>
<g id="a_node4"><a xlink:href="alphabet_2all_8hpp.html" target="_top" xlink:title="Meta&#45;header for the alphabet module.">
<polygon fill="white" stroke="black" points="192.5,-6 192.5,-25 293.5,-25 293.5,-6 192.5,-6"/>
<text text-anchor="middle" x="243" y="-13" font-family="Helvetica,sans-Serif" font-size="10.00">bio/alphabet/all.hpp</text>
</a>
</g>
</g>
<!-- Node3&#45;&gt;Node4 -->
<g id="edge3" class="edge">
<title>Node3&#45;&gt;Node4</title>
<path fill="none" stroke="midnightblue" d="M243,-57.25C243,-46.02 243,-33.38 243,-25.19"/>
<polygon fill="midnightblue" stroke="midnightblue" points="239.5,-57.4 243,-67.4 246.5,-57.4 239.5,-57.4"/>
</g>
<!-- Node5&#45;&gt;Node3 -->
<g id="edge5" class="edge">
<title>Node5&#45;&gt;Node3</title>
<path fill="none" stroke="midnightblue" d="M204.42,-126.74C213,-117.12 222.84,-106.09 230.44,-97.58"/>
<polygon fill="midnightblue" stroke="midnightblue" points="201.63,-124.6 197.59,-134.4 206.85,-129.26 201.63,-124.6"/>
</g>
<!-- Node6&#45;&gt;Node3 -->
<g id="edge7" class="edge">
<title>Node6&#45;&gt;Node3</title>
<path fill="none" stroke="midnightblue" d="M53.13,-258.24C50.82,-241.68 49.77,-219.48 56,-201 67.96,-165.54 76.94,-156.28 107,-134 129.97,-116.98 159.3,-105.12 184.84,-97.2"/>
<polygon fill="midnightblue" stroke="midnightblue" points="49.69,-258.91 54.76,-268.22 56.6,-257.78 49.69,-258.91"/>
</g>
<!-- Node7&#45;&gt;Node3 -->
<g id="edge9" class="edge">
<title>Node7&#45;&gt;Node3</title>
<path fill="none" stroke="midnightblue" d="M323.02,-262.77C311.12,-254.59 298.65,-244.14 290,-232 274.15,-209.76 254.05,-130.16 246.28,-97.57"/>
<polygon fill="midnightblue" stroke="midnightblue" points="321.24,-265.79 331.52,-268.33 325.07,-259.93 321.24,-265.79"/>
</g>
<!-- Node8 -->
<g id="node8" class="node">
<title>Node8</title>
<g id="a_node8"><a xlink:href="translation_8hpp.html" target="_top" xlink:title="Provides functions for translating a triplet of nucleotides into an amino acid.">
<polygon fill="white" stroke="black" points="338,-134.5 338,-164.5 454,-164.5 454,-134.5 338,-134.5"/>
<text text-anchor="start" x="346" y="-152.5" font-family="Helvetica,sans-Serif" font-size="10.00">bio/alphabet/aminoacid</text>
<text text-anchor="middle" x="396" y="-141.5" font-family="Helvetica,sans-Serif" font-size="10.00">/translation.hpp</text>
</a>
</g>
</g>
<!-- Node7&#45;&gt;Node8 -->
<g id="edge10" class="edge">
<title>Node7&#45;&gt;Node8</title>
<path fill="none" stroke="midnightblue" d="M396.34,-262.75C407.68,-254.83 418.73,-244.57 425,-232 436.26,-209.42 420.25,-181.38 407.91,-164.77"/>
<polygon fill="midnightblue" stroke="midnightblue" points="394.19,-259.97 387.69,-268.34 397.98,-265.85 394.19,-259.97"/>
</g>
<!-- Node9 -->
<g id="node9" class="node">
<title>Node9</title>
<g id="a_node9"><a xlink:href="translate_8hpp.html" target="_top" xlink:title="Provides bio::views::translate and bio::views::translate_single.">
<polygon fill="white" stroke="black" points="349.5,-73 349.5,-92 498.5,-92 498.5,-73 349.5,-73"/>
<text text-anchor="middle" x="424" y="-80" font-family="Helvetica,sans-Serif" font-size="10.00">bio/ranges/views/translate.hpp</text>
</a>
</g>
</g>
<!-- Node7&#45;&gt;Node9 -->
<g id="edge18" class="edge">
<title>Node7&#45;&gt;Node9</title>
<path fill="none" stroke="midnightblue" d="M401.89,-263.44C416.02,-255.48 430.68,-245.01 441,-232 468.75,-197.03 477.41,-176.25 463,-134 457.21,-117.02 443.13,-101.3 433.57,-92.06"/>
<polygon fill="midnightblue" stroke="midnightblue" points="399.92,-260.53 392.73,-268.31 403.21,-266.71 399.92,-260.53"/>
</g>
<!-- Node12 -->
<g id="node12" class="node">
<title>Node12</title>
<g id="a_node12"><a xlink:href="translation__details_8hpp.html" target="_top" xlink:title="Provides translation details for nucleotide to aminoacid translation.">
<polygon fill="white" stroke="black" points="299.5,-201.5 299.5,-231.5 416.5,-231.5 416.5,-201.5 299.5,-201.5"/>
<text text-anchor="start" x="307.5" y="-219.5" font-family="Helvetica,sans-Serif" font-size="10.00">bio/alphabet/aminoacid</text>
<text text-anchor="middle" x="358" y="-208.5" font-family="Helvetica,sans-Serif" font-size="10.00">/translation_details.hpp</text>
</a>
</g>
</g>
<!-- Node7&#45;&gt;Node12 -->
<g id="edge15" class="edge">
<title>Node7&#45;&gt;Node12</title>
<path fill="none" stroke="midnightblue" d="M358,-258.11C358,-249.15 358,-239.32 358,-231.58"/>
<polygon fill="midnightblue" stroke="midnightblue" points="354.5,-258.4 358,-268.4 361.5,-258.4 354.5,-258.4"/>
</g>
<!-- Node8&#45;&gt;Node3 -->
<g id="edge11" class="edge">
<title>Node8&#45;&gt;Node3</title>
<path fill="none" stroke="midnightblue" d="M353.41,-130.41C328.98,-120.03 298.78,-107.2 276.13,-97.58"/>
<polygon fill="midnightblue" stroke="midnightblue" points="352.23,-133.71 362.8,-134.4 354.97,-127.26 352.23,-133.71"/>
</g>
<!-- Node8&#45;&gt;Node9 -->
<g id="edge12" class="edge">
<title>Node8&#45;&gt;Node9</title>
<path fill="none" stroke="midnightblue" d="M406.15,-124.94C411.06,-113.54 416.66,-100.55 420.25,-92.19"/>
<polygon fill="midnightblue" stroke="midnightblue" points="402.82,-123.83 402.08,-134.4 409.25,-126.6 402.82,-123.83"/>
</g>
<!-- Node10 -->
<g id="node10" class="node">
<title>Node10</title>
<g id="a_node10"><a xlink:href="ranges_2views_2all_8hpp.html" target="_top" xlink:title="Meta&#45;header for the views submodule .">
<polygon fill="white" stroke="black" points="469,-6 469,-25 591,-25 591,-6 469,-6"/>
<text text-anchor="middle" x="530" y="-13" font-family="Helvetica,sans-Serif" font-size="10.00">bio/ranges/views/all.hpp</text>
</a>
</g>
</g>
<!-- Node9&#45;&gt;Node10 -->
<g id="edge13" class="edge">
<title>Node9&#45;&gt;Node10</title>
<path fill="none" stroke="midnightblue" d="M446.92,-67.44C467.92,-54.57 498.32,-35.93 515.93,-25.13"/>
<polygon fill="midnightblue" stroke="midnightblue" points="444.99,-64.52 438.3,-72.73 448.65,-70.49 444.99,-64.52"/>
</g>
<!-- Node11 -->
<g id="node11" class="node">
<title>Node11</title>
<g id="a_node11"><a xlink:href="translate__join_8hpp.html" target="_top" xlink:title="Provides bio::views::translate_join.">
<polygon fill="white" stroke="black" points="319.5,-0.5 319.5,-30.5 450.5,-30.5 450.5,-0.5 319.5,-0.5"/>
<text text-anchor="start" x="327.5" y="-18.5" font-family="Helvetica,sans-Serif" font-size="10.00">bio/ranges/views/translate</text>
<text text-anchor="middle" x="385" y="-7.5" font-family="Helvetica,sans-Serif" font-size="10.00">_join.hpp</text>
</a>
</g>
</g>
<!-- Node9&#45;&gt;Node11 -->
<g id="edge14" class="edge">
<title>Node9&#45;&gt;Node11</title>
<path fill="none" stroke="midnightblue" d="M413.52,-64.03C407.23,-53.56 399.34,-40.4 393.45,-30.59"/>
<polygon fill="midnightblue" stroke="midnightblue" points="410.59,-65.96 418.74,-72.73 416.6,-62.36 410.59,-65.96"/>
</g>
<!-- Node12&#45;&gt;Node3 -->
<g id="edge16" class="edge">
<title>Node12&#45;&gt;Node3</title>
<path fill="none" stroke="midnightblue" d="M338.87,-193.54C315.1,-166.25 275.22,-120.48 255.22,-97.52"/>
<polygon fill="midnightblue" stroke="midnightblue" points="336.49,-196.13 345.69,-201.37 341.76,-191.53 336.49,-196.13"/>
</g>
<!-- Node12&#45;&gt;Node8 -->
<g id="edge17" class="edge">
<title>Node12&#45;&gt;Node8</title>
<path fill="none" stroke="midnightblue" d="M371.4,-192.58C376.86,-183.24 382.99,-172.75 387.77,-164.58"/>
<polygon fill="midnightblue" stroke="midnightblue" points="368.27,-191 366.25,-201.4 374.31,-194.53 368.27,-191"/>
</g>
</g>
</svg>
        <g id="navigator" transform="translate(0 0)" fill="#404254">
                <rect fill="#f2f5e9" fill-opacity="0.5" stroke="#606060" stroke-width=".5" x="0" y="0" width="60" height="60"/>
                <use id="zoomplus" xlink:href="#zoomPlus" x="17" y="9" onmousedown="handleZoom(evt,'in')"/>
                <use id="zoomminus" xlink:href="#zoomMin" x="42" y="9" onmousedown="handleZoom(evt,'out')"/>
                <use id="reset" xlink:href="#resetDef" x="30" y="36" onmousedown="handleReset()"/>
                <g id="arrowUp" xlink:href="#dirArrow" transform="translate(30 24)" onmousedown="handlePan(0,-1)">
                  <use xlink:href="#rim" fill="#404040">
                        <set attributeName="fill" to="#808080" begin="arrowUp.mouseover" end="arrowUp.mouseout"/>
                  </use>
                  <path fill="none" stroke="white" stroke-width="1.5" d="M0,-3.0v7 M-2.5,-0.5L0,-3.0L2.5,-0.5"/>
                </g>
                <g id="arrowRight" xlink:href="#dirArrow" transform="rotate(90) translate(36 -43)" onmousedown="handlePan(1,0)">
                  <use xlink:href="#rim" fill="#404040">
                        <set attributeName="fill" to="#808080" begin="arrowRight.mouseover" end="arrowRight.mouseout"/>
                  </use>
                  <path fill="none" stroke="white" stroke-width="1.5" d="M0,-3.0v7 M-2.5,-0.5L0,-3.0L2.5,-0.5"/>
                </g>
                <g id="arrowDown" xlink:href="#dirArrow" transform="rotate(180) translate(-30 -48)" onmousedown="handlePan(0,1)">
                  <use xlink:href="#rim" fill="#404040">
                        <set attributeName="fill" to="#808080" begin="arrowDown.mouseover" end="arrowDown.mouseout"/>
                  </use>
                  <path fill="none" stroke="white" stroke-width="1.5" d="M0,-3.0v7 M-2.5,-0.5L0,-3.0L2.5,-0.5"/>
                </g>
                <g id="arrowLeft" xlink:href="#dirArrow" transform="rotate(270) translate(-36 17)" onmousedown="handlePan(-1,0)">
                  <use xlink:href="#rim" fill="#404040">
                        <set attributeName="fill" to="#808080" begin="arrowLeft.mouseover" end="arrowLeft.mouseout"/>
                  </use>
                  <path fill="none" stroke="white" stroke-width="1.5" d="M0,-3.0v7 M-2.5,-0.5L0,-3.0L2.5,-0.5"/>
                </g>
        </g>
        <svg viewBox="0 0 15 15" width="100%" height="30px" preserveAspectRatio="xMaxYMin meet">
         <g id="arrow_out" transform="scale(0.3 0.3)">
          <a xlink:href="aminoacid__base_8hpp__dep__incl_org.svg" target="_base">
           <rect id="button" ry="5" rx="5" y="6" x="6" height="38" width="38"
                fill="#f2f5e9" fill-opacity="0.5" stroke="#606060" stroke-width="1.0"/>
           <path id="arrow"
             d="M 11.500037,31.436501 C 11.940474,20.09759 22.043105,11.32322 32.158766,21.979434 L 37.068811,17.246167 C 37.068811,17.246167 37.088388,32 37.088388,32 L 22.160133,31.978069 C 22.160133,31.978069 26.997745,27.140456 26.997745,27.140456 C 18.528582,18.264221 13.291696,25.230495 11.500037,31.436501 z"
             style="fill:#404040;"/>
          </a>
         </g>
        </svg>
</svg>
