<?xml version="1.0" encoding="UTF-8" standalone="no"?>
<!DOCTYPE svg PUBLIC "-//W3C//DTD SVG 1.1//EN"
 "http://www.w3.org/Graphics/SVG/1.1/DTD/svg11.dtd">
<!-- Generated by graphviz version 2.42.2 ()
 -->
<!-- Title: bio/ranges/container/bitcompressed_vector.hpp Pages: 1 -->
<svg width="142pt" height="162pt"
 viewBox="0.00 0.00 142.00 162.00" xmlns="http://www.w3.org/2000/svg" xmlns:xlink="http://www.w3.org/1999/xlink">
<g id="graph0" class="graph" transform="scale(1 1) rotate(0) translate(4 158)">
<title>bio/ranges/container/bitcompressed_vector.hpp</title>
<polygon fill="white" stroke="transparent" points="-4,4 -4,-158 138,-158 138,4 -4,4"/>
<!-- Node1 -->
<g id="node1" class="node">
<title>Node1</title>
<g id="a_node1"><a xlink:title="Provides bio::ranges::bitcompressed_vector.">
<polygon fill="#bfbfbf" stroke="black" points="0,-123.5 0,-153.5 134,-153.5 134,-123.5 0,-123.5"/>
<text text-anchor="start" x="8" y="-141.5" font-family="Helvetica,sans-Serif" font-size="10.00">bio/ranges/container</text>
<text text-anchor="middle" x="67" y="-130.5" font-family="Helvetica,sans-Serif" font-size="10.00">/bitcompressed_vector.hpp</text>
</a>
</g>
</g>
<!-- Node2 -->
<g id="node2" class="node">
<title>Node2</title>
<g id="a_node2"><a xlink:href="ranges_2container_2all_8hpp.html" target="_top" xlink:title="Meta&#45;header for the container submodule .">
<polygon fill="white" stroke="black" points="15,-56.5 15,-86.5 119,-86.5 119,-56.5 15,-56.5"/>
<text text-anchor="start" x="23" y="-74.5" font-family="Helvetica,sans-Serif" font-size="10.00">bio/ranges/container</text>
<text text-anchor="middle" x="67" y="-63.5" font-family="Helvetica,sans-Serif" font-size="10.00">/all.hpp</text>
</a>
</g>
</g>
<!-- Node1&#45;&gt;Node2 -->
<g id="edge1" class="edge">
<title>Node1&#45;&gt;Node2</title>
<path fill="none" stroke="midnightblue" d="M67,-113.11C67,-104.15 67,-94.32 67,-86.58"/>
<polygon fill="midnightblue" stroke="midnightblue" points="63.5,-113.4 67,-123.4 70.5,-113.4 63.5,-113.4"/>
</g>
<!-- Node3 -->
<g id="node3" class="node">
<title>Node3</title>
<g id="a_node3"><a xlink:href="ranges_2all_8hpp.html" target="_top" xlink:title="Meta&#45;header for the ranges module .">
<polygon fill="white" stroke="black" points="20.5,-0.5 20.5,-19.5 113.5,-19.5 113.5,-0.5 20.5,-0.5"/>
<text text-anchor="middle" x="67" y="-7.5" font-family="Helvetica,sans-Serif" font-size="10.00">bio/ranges/all.hpp</text>
</a>
</g>
</g>
<!-- Node2&#45;&gt;Node3 -->
<g id="edge2" class="edge">
<title>Node2&#45;&gt;Node3</title>
<path fill="none" stroke="midnightblue" d="M67,-46.29C67,-36.86 67,-26.65 67,-19.66"/>
<polygon fill="midnightblue" stroke="midnightblue" points="63.5,-46.4 67,-56.4 70.5,-46.4 63.5,-46.4"/>
</g>
</g>
</svg>
