<?xml version="1.0" encoding="UTF-8" standalone="no"?>
<!DOCTYPE svg PUBLIC "-//W3C//DTD SVG 1.1//EN"
 "http://www.w3.org/Graphics/SVG/1.1/DTD/svg11.dtd">
<!-- Generated by graphviz version 2.43.0 (0)
 -->
<!-- Title: bio/ranges/container/bitcompressed_vector.hpp Pages: 1 -->
<svg width="142pt" height="159pt"
 viewBox="0.00 0.00 142.00 159.00" xmlns="http://www.w3.org/2000/svg" xmlns:xlink="http://www.w3.org/1999/xlink">
<g id="graph0" class="graph" transform="scale(1 1) rotate(0) translate(4 155)">
<title>bio/ranges/container/bitcompressed_vector.hpp</title>
<!-- Node1 -->
<g id="node1" class="node">
<title>Node1</title>
<g id="a_node1"><a xlink:title="Provides bio::ranges::bitcompressed_vector.">
<polygon fill="#999999" stroke="#666666" points="134,-151 0,-151 0,-121 134,-121 134,-151"/>
<text text-anchor="start" x="8" y="-139" font-family="Helvetica,sans-Serif" font-size="10.00">bio/ranges/container</text>
<text text-anchor="middle" x="67" y="-128" font-family="Helvetica,sans-Serif" font-size="10.00">/bitcompressed_vector.hpp</text>
</a>
</g>
</g>
<!-- Node2 -->
<g id="node2" class="node">
<title>Node2</title>
<g id="a_node2"><a xlink:href="ranges_2container_2all_8hpp.html" target="_top" xlink:title="Meta&#45;header for the container submodule .">
<polygon fill="white" stroke="#666666" points="119,-85 15,-85 15,-55 119,-55 119,-85"/>
<text text-anchor="start" x="23" y="-73" font-family="Helvetica,sans-Serif" font-size="10.00">bio/ranges/container</text>
<text text-anchor="middle" x="67" y="-62" font-family="Helvetica,sans-Serif" font-size="10.00">/all.hpp</text>
</a>
</g>
</g>
<!-- Node1&#45;&gt;Node2 -->
<g id="edge1" class="edge">
<title>Node1&#45;&gt;Node2</title>
<path fill="none" stroke="#63b8ff" d="M67,-110.54C67,-101.96 67,-92.61 67,-85.16"/>
<polygon fill="#63b8ff" stroke="#63b8ff" points="63.5,-110.8 67,-120.8 70.5,-110.8 63.5,-110.8"/>
</g>
<!-- Node3 -->
<g id="node3" class="node">
<title>Node3</title>
<g id="a_node3"><a xlink:href="ranges_2all_8hpp.html" target="_top" xlink:title="Meta&#45;header for the ranges module .">
<polygon fill="white" stroke="#666666" points="113.5,-19 20.5,-19 20.5,0 113.5,0 113.5,-19"/>
<text text-anchor="middle" x="67" y="-7" font-family="Helvetica,sans-Serif" font-size="10.00">bio/ranges/all.hpp</text>
</a>
</g>
</g>
<!-- Node2&#45;&gt;Node3 -->
<g id="edge2" class="edge">
<title>Node2&#45;&gt;Node3</title>
<path fill="none" stroke="#63b8ff" d="M67,-44.75C67,-35.72 67,-26.03 67,-19.27"/>
<polygon fill="#63b8ff" stroke="#63b8ff" points="63.5,-44.84 67,-54.84 70.5,-44.84 63.5,-44.84"/>
</g>
</g>
</svg>
