<?xml version="1.0" encoding="UTF-8" standalone="no"?>
<!DOCTYPE svg PUBLIC "-//W3C//DTD SVG 1.1//EN"
 "http://www.w3.org/Graphics/SVG/1.1/DTD/svg11.dtd">
<!-- Generated by graphviz version 2.43.0 (0)
 -->
<!-- Title: bio/alphabet/custom/char.hpp Pages: 1 -->
<svg width="791pt" height="335pt"
 viewBox="0.00 0.00 790.50 335.00" xmlns="http://www.w3.org/2000/svg" xmlns:xlink="http://www.w3.org/1999/xlink">
<g id="graph0" class="graph" transform="scale(1 1) rotate(0) translate(4 331)">
<title>bio/alphabet/custom/char.hpp</title>
<!-- Node1 -->
<g id="node1" class="node">
<title>Node1</title>
<g id="a_node1"><a xlink:title="Provides alphabet adaptations for standard char types.">
<polygon fill="#999999" stroke="#666666" points="170,-327 66,-327 66,-297 170,-297 170,-327"/>
<text text-anchor="start" x="74" y="-315" font-family="Helvetica,sans-Serif" font-size="10.00">bio/alphabet/custom</text>
<text text-anchor="middle" x="118" y="-304" font-family="Helvetica,sans-Serif" font-size="10.00">/char.hpp</text>
</a>
</g>
</g>
<!-- Node2 -->
<g id="node2" class="node">
<title>Node2</title>
<g id="a_node2"><a xlink:href="alphabet_2concept_8hpp.html" target="_top" xlink:title="Core alphabet concept and free function/type trait wrappers.">
<polygon fill="white" stroke="#666666" points="346.5,-261 221.5,-261 221.5,-242 346.5,-242 346.5,-261"/>
<text text-anchor="middle" x="284" y="-249" font-family="Helvetica,sans-Serif" font-size="10.00">bio/alphabet/concept.hpp</text>
</a>
</g>
</g>
<!-- Node1&#45;&gt;Node2 -->
<g id="edge1" class="edge">
<title>Node1&#45;&gt;Node2</title>
<path fill="none" stroke="#63b8ff" d="M157.76,-296.99C185.83,-287.1 223.05,-273.98 249.79,-264.56"/>
<polygon fill="#63b8ff" stroke="#63b8ff" points="251.22,-267.76 259.49,-261.14 248.89,-261.16 251.22,-267.76"/>
</g>
<!-- Node22 -->
<g id="node22" class="node">
<title>Node22</title>
<g id="a_node22"><a xlink:href="int__types_8hpp.html" target="_top" xlink:title="Provides metaprogramming utilities for integer types.">
<polygon fill="white" stroke="#666666" points="150,-140 56,-140 56,-110 150,-110 150,-140"/>
<text text-anchor="start" x="64" y="-128" font-family="Helvetica,sans-Serif" font-size="10.00">bio/meta/detail/int</text>
<text text-anchor="middle" x="103" y="-117" font-family="Helvetica,sans-Serif" font-size="10.00">_types.hpp</text>
</a>
</g>
</g>
<!-- Node1&#45;&gt;Node22 -->
<g id="edge30" class="edge">
<title>Node1&#45;&gt;Node22</title>
<path fill="none" stroke="#63b8ff" d="M115.79,-296.78C112.76,-276.63 107.42,-238.61 105,-206 103.61,-187.31 103.13,-166.11 102.99,-150.23"/>
<polygon fill="#63b8ff" stroke="#63b8ff" points="106.49,-150.16 102.93,-140.18 99.49,-150.2 106.49,-150.16"/>
</g>
<!-- Node3 -->
<g id="node3" class="node">
<title>Node3</title>
<g id="a_node3"><a target="_blank" xlink:href="https://en.cppreference.com/w/cpp/header/type_traits.html" xlink:title=" ">
<polygon fill="white" stroke="#666666" points="62,-74 0,-74 0,-55 62,-55 62,-74"/>
<text text-anchor="middle" x="31" y="-62" font-family="Helvetica,sans-Serif" font-size="10.00">type_traits</text>
</a>
</g>
</g>
<!-- Node2&#45;&gt;Node3 -->
<g id="edge2" class="edge">
<title>Node2&#45;&gt;Node3</title>
<path fill="none" stroke="#63b8ff" d="M221.31,-242.44C185.71,-236.06 141.16,-224.95 105,-206 65.67,-185.39 48.29,-180.46 30,-140 22.02,-122.36 23.72,-99.88 26.5,-84.25"/>
<polygon fill="#63b8ff" stroke="#63b8ff" points="29.97,-84.75 28.59,-74.25 23.12,-83.32 29.97,-84.75"/>
</g>
<!-- Node4 -->
<g id="node4" class="node">
<title>Node4</title>
<g id="a_node4"><a xlink:href="tag_8hpp.html" target="_top" xlink:title="Provides the customisation tags for the alphabet concepts.">
<polygon fill="white" stroke="#666666" points="416,-206 312,-206 312,-176 416,-176 416,-206"/>
<text text-anchor="start" x="320" y="-194" font-family="Helvetica,sans-Serif" font-size="10.00">bio/alphabet/custom</text>
<text text-anchor="middle" x="364" y="-183" font-family="Helvetica,sans-Serif" font-size="10.00">/tag.hpp</text>
</a>
</g>
</g>
<!-- Node2&#45;&gt;Node4 -->
<g id="edge3" class="edge">
<title>Node2&#45;&gt;Node4</title>
<path fill="none" stroke="#63b8ff" d="M295.8,-241.87C306.46,-234.08 322.54,-222.32 336.41,-212.17"/>
<polygon fill="#63b8ff" stroke="#63b8ff" points="338.69,-214.84 344.7,-206.11 334.56,-209.19 338.69,-214.84"/>
</g>
<!-- Node5 -->
<g id="node5" class="node">
<title>Node5</title>
<g id="a_node5"><a xlink:href="exception_8hpp.html" target="_top" xlink:title="Exceptions thrown by entities in the alphabet module.">
<polygon fill="white" stroke="#666666" points="488.5,-134.5 355.5,-134.5 355.5,-115.5 488.5,-115.5 488.5,-134.5"/>
<text text-anchor="middle" x="422" y="-122.5" font-family="Helvetica,sans-Serif" font-size="10.00">bio/alphabet/exception.hpp</text>
</a>
</g>
</g>
<!-- Node2&#45;&gt;Node5 -->
<g id="edge4" class="edge">
<title>Node2&#45;&gt;Node5</title>
<path fill="none" stroke="#63b8ff" d="M283.84,-241.55C284.05,-226.28 286.62,-195.01 303,-176 319.51,-156.84 344.6,-144.86 367.49,-137.44"/>
<polygon fill="#63b8ff" stroke="#63b8ff" points="368.57,-140.77 377.13,-134.54 366.55,-134.07 368.57,-140.77"/>
</g>
<!-- Node9 -->
<g id="node9" class="node">
<title>Node9</title>
<g id="a_node9"><a xlink:href="core_8hpp.html" target="_top" xlink:title="Provides platform and dependency checks.">
<polygon fill="white" stroke="#666666" points="506,-74 436,-74 436,-55 506,-55 506,-74"/>
<text text-anchor="middle" x="471" y="-62" font-family="Helvetica,sans-Serif" font-size="10.00">bio/core.hpp</text>
</a>
</g>
</g>
<!-- Node2&#45;&gt;Node9 -->
<g id="edge13" class="edge">
<title>Node2&#45;&gt;Node9</title>
<path fill="none" stroke="#63b8ff" d="M346.66,-248.89C416.16,-245.62 521.86,-235.76 547,-206 581.01,-165.75 522.66,-107.84 490.32,-80.67"/>
<polygon fill="#63b8ff" stroke="#63b8ff" points="492.32,-77.78 482.36,-74.15 487.88,-83.19 492.32,-77.78"/>
</g>
<!-- Node14 -->
<g id="node14" class="node">
<title>Node14</title>
<g id="a_node14"><a xlink:href="core__language_8hpp.html" target="_top" xlink:title="Provides concepts for core language types and relations that don&#39;t have concepts in C++20 (yet).">
<polygon fill="white" stroke="#666666" points="337.5,-140 224.5,-140 224.5,-110 337.5,-110 337.5,-140"/>
<text text-anchor="start" x="232.5" y="-128" font-family="Helvetica,sans-Serif" font-size="10.00">bio/meta/concept/core</text>
<text text-anchor="middle" x="281" y="-117" font-family="Helvetica,sans-Serif" font-size="10.00">_language.hpp</text>
</a>
</g>
</g>
<!-- Node2&#45;&gt;Node14 -->
<g id="edge14" class="edge">
<title>Node2&#45;&gt;Node14</title>
<path fill="none" stroke="#63b8ff" d="M280.4,-241.82C276.94,-232.99 271.97,-218.81 270,-206 267.13,-187.31 270.34,-166.11 274.01,-150.23"/>
<polygon fill="#63b8ff" stroke="#63b8ff" points="277.5,-150.74 276.57,-140.18 270.71,-149.01 277.5,-150.74"/>
</g>
<!-- Node15 -->
<g id="node15" class="node">
<title>Node15</title>
<g id="a_node15"><a xlink:href="type__inspection_8hpp.html" target="_top" xlink:title="Provides traits to inspect some information of a type, for example its name.">
<polygon fill="white" stroke="#666666" points="696,-140 594,-140 594,-110 696,-110 696,-140"/>
<text text-anchor="start" x="602" y="-128" font-family="Helvetica,sans-Serif" font-size="10.00">bio/meta/detail/type</text>
<text text-anchor="middle" x="645" y="-117" font-family="Helvetica,sans-Serif" font-size="10.00">_inspection.hpp</text>
</a>
</g>
</g>
<!-- Node2&#45;&gt;Node15 -->
<g id="edge18" class="edge">
<title>Node2&#45;&gt;Node15</title>
<path fill="none" stroke="#63b8ff" d="M346.81,-246.38C421.61,-240.56 541.3,-228.1 580,-206 603.26,-192.71 621.55,-167.61 632.72,-149.05"/>
<polygon fill="#63b8ff" stroke="#63b8ff" points="635.81,-150.71 637.76,-140.29 629.74,-147.21 635.81,-150.71"/>
</g>
<!-- Node19 -->
<g id="node19" class="node">
<title>Node19</title>
<g id="a_node19"><a xlink:href="priority__tag_8hpp.html" target="_top" xlink:title="provides bio::meta::priority_tag.">
<polygon fill="white" stroke="#666666" points="537.5,-206 434.5,-206 434.5,-176 537.5,-176 537.5,-206"/>
<text text-anchor="start" x="442.5" y="-194" font-family="Helvetica,sans-Serif" font-size="10.00">bio/meta/tag/priority</text>
<text text-anchor="middle" x="486" y="-183" font-family="Helvetica,sans-Serif" font-size="10.00">_tag.hpp</text>
</a>
</g>
</g>
<!-- Node2&#45;&gt;Node19 -->
<g id="edge24" class="edge">
<title>Node2&#45;&gt;Node19</title>
<path fill="none" stroke="#63b8ff" d="M313.37,-241.99C343.21,-233.35 390.21,-219.74 427.65,-208.9"/>
<polygon fill="#63b8ff" stroke="#63b8ff" points="428.8,-212.21 437.44,-206.06 426.86,-205.48 428.8,-212.21"/>
</g>
<!-- Node20 -->
<g id="node20" class="node">
<title>Node20</title>
<g id="a_node20"><a xlink:href="basic_8hpp.html" target="_top" xlink:title="Provides various type traits on generic types.">
<polygon fill="white" stroke="#666666" points="217.5,-206 114.5,-206 114.5,-176 217.5,-176 217.5,-206"/>
<text text-anchor="start" x="122.5" y="-194" font-family="Helvetica,sans-Serif" font-size="10.00">bio/meta/type_traits</text>
<text text-anchor="middle" x="166" y="-183" font-family="Helvetica,sans-Serif" font-size="10.00">/basic.hpp</text>
</a>
</g>
</g>
<!-- Node2&#45;&gt;Node20 -->
<g id="edge26" class="edge">
<title>Node2&#45;&gt;Node20</title>
<path fill="none" stroke="#63b8ff" d="M266.84,-241.99C250.36,-233.82 224.9,-221.2 203.69,-210.69"/>
<polygon fill="#63b8ff" stroke="#63b8ff" points="205.11,-207.48 194.6,-206.18 202,-213.76 205.11,-207.48"/>
</g>
<!-- Node6 -->
<g id="node6" class="node">
<title>Node6</title>
<g id="a_node6"><a target="_blank" xlink:href="https://en.cppreference.com/w/cpp/header/concepts.html" xlink:title=" ">
<polygon fill="white" stroke="#666666" points="309,-74 253,-74 253,-55 309,-55 309,-74"/>
<text text-anchor="middle" x="281" y="-62" font-family="Helvetica,sans-Serif" font-size="10.00">concepts</text>
</a>
</g>
</g>
<!-- Node5&#45;&gt;Node6 -->
<g id="edge5" class="edge">
<title>Node5&#45;&gt;Node6</title>
<path fill="none" stroke="#63b8ff" d="M401.5,-115.49C377.69,-105.62 338.21,-89.23 310.96,-77.93"/>
<polygon fill="#63b8ff" stroke="#63b8ff" points="312.11,-74.62 301.53,-74.02 309.42,-81.08 312.11,-74.62"/>
</g>
<!-- Node7 -->
<g id="node7" class="node">
<title>Node7</title>
<g id="a_node7"><a target="_blank" xlink:href="https://en.cppreference.com/w/cpp/header/stdexcept.html" xlink:title=" ">
<polygon fill="white" stroke="#666666" points="417.5,-74 358.5,-74 358.5,-55 417.5,-55 417.5,-74"/>
<text text-anchor="middle" x="388" y="-62" font-family="Helvetica,sans-Serif" font-size="10.00">stdexcept</text>
</a>
</g>
</g>
<!-- Node5&#45;&gt;Node7 -->
<g id="edge6" class="edge">
<title>Node5&#45;&gt;Node7</title>
<path fill="none" stroke="#63b8ff" d="M416.98,-115.37C412.06,-106.9 404.41,-93.74 398.21,-83.07"/>
<polygon fill="#63b8ff" stroke="#63b8ff" points="401.09,-81.05 393.04,-74.17 395.04,-84.57 401.09,-81.05"/>
</g>
<!-- Node8 -->
<g id="node8" class="node">
<title>Node8</title>
<g id="a_node8"><a target="_blank" xlink:href="https://en.cppreference.com/w/cpp/header/string.html" xlink:title=" ">
<polygon fill="white" stroke="#666666" points="565.5,-74 524.5,-74 524.5,-55 565.5,-55 565.5,-74"/>
<text text-anchor="middle" x="545" y="-62" font-family="Helvetica,sans-Serif" font-size="10.00">string</text>
</a>
</g>
</g>
<!-- Node5&#45;&gt;Node8 -->
<g id="edge7" class="edge">
<title>Node5&#45;&gt;Node8</title>
<path fill="none" stroke="#63b8ff" d="M439.89,-115.49C460.38,-105.75 494.19,-89.66 517.92,-78.38"/>
<polygon fill="#63b8ff" stroke="#63b8ff" points="519.57,-81.47 527.09,-74.02 516.56,-75.15 519.57,-81.47"/>
</g>
<!-- Node5&#45;&gt;Node9 -->
<g id="edge8" class="edge">
<title>Node5&#45;&gt;Node9</title>
<path fill="none" stroke="#63b8ff" d="M429.23,-115.37C436.54,-106.64 448.02,-92.93 457.1,-82.09"/>
<polygon fill="#63b8ff" stroke="#63b8ff" points="460,-84.08 463.74,-74.17 454.64,-79.59 460,-84.08"/>
</g>
<!-- Node10 -->
<g id="node10" class="node">
<title>Node10</title>
<g id="a_node10"><a target="_blank" xlink:href="https://en.cppreference.com/w/cpp/header/cinttypes.html" xlink:title=" ">
<polygon fill="white" stroke="#666666" points="394,-19 338,-19 338,0 394,0 394,-19"/>
<text text-anchor="middle" x="366" y="-7" font-family="Helvetica,sans-Serif" font-size="10.00">cinttypes</text>
</a>
</g>
</g>
<!-- Node9&#45;&gt;Node10 -->
<g id="edge9" class="edge">
<title>Node9&#45;&gt;Node10</title>
<path fill="none" stroke="#63b8ff" d="M454.13,-54.98C437.39,-46.54 411.5,-33.47 392.11,-23.68"/>
<polygon fill="#63b8ff" stroke="#63b8ff" points="393.68,-20.55 383.18,-19.17 390.53,-26.8 393.68,-20.55"/>
</g>
<!-- Node11 -->
<g id="node11" class="node">
<title>Node11</title>
<g id="a_node11"><a target="_blank" xlink:href="https://en.cppreference.com/w/cpp/header/ciso646.html" xlink:title=" ">
<polygon fill="white" stroke="#666666" points="462,-19 412,-19 412,0 462,0 462,-19"/>
<text text-anchor="middle" x="437" y="-7" font-family="Helvetica,sans-Serif" font-size="10.00">ciso646</text>
</a>
</g>
</g>
<!-- Node9&#45;&gt;Node11 -->
<g id="edge10" class="edge">
<title>Node9&#45;&gt;Node11</title>
<path fill="none" stroke="#63b8ff" d="M465.39,-54.75C460.68,-47.42 453.83,-36.73 448.03,-27.7"/>
<polygon fill="#63b8ff" stroke="#63b8ff" points="450.86,-25.62 442.51,-19.09 444.96,-29.4 450.86,-25.62"/>
</g>
<!-- Node12 -->
<g id="node12" class="node">
<title>Node12</title>
<g id="a_node12"><a target="_blank" xlink:href="https://en.cppreference.com/w/cpp/header/cstddef.html" xlink:title=" ">
<polygon fill="white" stroke="#666666" points="529.5,-19 480.5,-19 480.5,0 529.5,0 529.5,-19"/>
<text text-anchor="middle" x="505" y="-7" font-family="Helvetica,sans-Serif" font-size="10.00">cstddef</text>
</a>
</g>
</g>
<!-- Node9&#45;&gt;Node12 -->
<g id="edge11" class="edge">
<title>Node9&#45;&gt;Node12</title>
<path fill="none" stroke="#63b8ff" d="M476.61,-54.75C481.32,-47.42 488.17,-36.73 493.97,-27.7"/>
<polygon fill="#63b8ff" stroke="#63b8ff" points="497.04,-29.4 499.49,-19.09 491.14,-25.62 497.04,-29.4"/>
</g>
<!-- Node13 -->
<g id="node13" class="node">
<title>Node13</title>
<g id="a_node13"><a target="_blank" xlink:href="https://en.cppreference.com/w/cpp/header/string_view.html" xlink:title=" ">
<polygon fill="white" stroke="#666666" points="614,-19 548,-19 548,0 614,0 614,-19"/>
<text text-anchor="middle" x="581" y="-7" font-family="Helvetica,sans-Serif" font-size="10.00">string_view</text>
</a>
</g>
</g>
<!-- Node9&#45;&gt;Node13 -->
<g id="edge12" class="edge">
<title>Node9&#45;&gt;Node13</title>
<path fill="none" stroke="#63b8ff" d="M488.67,-54.98C506.29,-46.5 533.58,-33.35 553.93,-23.54"/>
<polygon fill="#63b8ff" stroke="#63b8ff" points="555.52,-26.66 563.01,-19.17 552.48,-20.36 555.52,-26.66"/>
</g>
<!-- Node14&#45;&gt;Node3 -->
<g id="edge16" class="edge">
<title>Node14&#45;&gt;Node3</title>
<path fill="none" stroke="#63b8ff" d="M224.27,-110.73C177.82,-99.86 113.23,-84.74 71.77,-75.04"/>
<polygon fill="#63b8ff" stroke="#63b8ff" points="72.54,-71.63 62.01,-72.76 70.95,-78.44 72.54,-71.63"/>
</g>
<!-- Node14&#45;&gt;Node6 -->
<g id="edge15" class="edge">
<title>Node14&#45;&gt;Node6</title>
<path fill="none" stroke="#63b8ff" d="M281,-109.84C281,-102.21 281,-92.7 281,-84.45"/>
<polygon fill="#63b8ff" stroke="#63b8ff" points="284.5,-84.27 281,-74.27 277.5,-84.27 284.5,-84.27"/>
</g>
<!-- Node14&#45;&gt;Node9 -->
<g id="edge17" class="edge">
<title>Node14&#45;&gt;Node9</title>
<path fill="none" stroke="#63b8ff" d="M326.51,-109.99C359.16,-99.94 402.63,-86.55 433.33,-77.1"/>
<polygon fill="#63b8ff" stroke="#63b8ff" points="434.69,-80.34 443.22,-74.05 432.63,-73.65 434.69,-80.34"/>
</g>
<!-- Node15&#45;&gt;Node8 -->
<g id="edge21" class="edge">
<title>Node15&#45;&gt;Node8</title>
<path fill="none" stroke="#63b8ff" d="M621.05,-109.99C605.11,-100.66 584.27,-88.47 568.44,-79.21"/>
<polygon fill="#63b8ff" stroke="#63b8ff" points="570.17,-76.17 559.77,-74.14 566.63,-82.21 570.17,-76.17"/>
</g>
<!-- Node15&#45;&gt;Node9 -->
<g id="edge23" class="edge">
<title>Node15&#45;&gt;Node9</title>
<path fill="none" stroke="#63b8ff" d="M603.32,-109.99C573.68,-100.02 534.31,-86.78 506.23,-77.35"/>
<polygon fill="#63b8ff" stroke="#63b8ff" points="507.04,-73.92 496.44,-74.05 504.8,-80.56 507.04,-73.92"/>
</g>
<!-- Node16 -->
<g id="node16" class="node">
<title>Node16</title>
<g id="a_node16"><a target="_blank" xlink:href="https://en.cppreference.com/w/cpp/header/functional.html" xlink:title=" ">
<polygon fill="white" stroke="#666666" points="642.5,-74 583.5,-74 583.5,-55 642.5,-55 642.5,-74"/>
<text text-anchor="middle" x="613" y="-62" font-family="Helvetica,sans-Serif" font-size="10.00">functional</text>
</a>
</g>
</g>
<!-- Node15&#45;&gt;Node16 -->
<g id="edge19" class="edge">
<title>Node15&#45;&gt;Node16</title>
<path fill="none" stroke="#63b8ff" d="M637.25,-109.84C632.85,-101.78 627.29,-91.62 622.6,-83.06"/>
<polygon fill="#63b8ff" stroke="#63b8ff" points="625.66,-81.36 617.8,-74.27 619.52,-84.72 625.66,-81.36"/>
</g>
<!-- Node17 -->
<g id="node17" class="node">
<title>Node17</title>
<g id="a_node17"><a target="_blank" xlink:href="https://en.cppreference.com/w/cpp/header/memory.html" xlink:title=" ">
<polygon fill="white" stroke="#666666" points="713,-74 661,-74 661,-55 713,-55 713,-74"/>
<text text-anchor="middle" x="687" y="-62" font-family="Helvetica,sans-Serif" font-size="10.00">memory</text>
</a>
</g>
</g>
<!-- Node15&#45;&gt;Node17 -->
<g id="edge20" class="edge">
<title>Node15&#45;&gt;Node17</title>
<path fill="none" stroke="#63b8ff" d="M655.17,-109.84C661.08,-101.61 668.56,-91.18 674.79,-82.51"/>
<polygon fill="#63b8ff" stroke="#63b8ff" points="677.72,-84.43 680.71,-74.27 672.03,-80.35 677.72,-84.43"/>
</g>
<!-- Node18 -->
<g id="node18" class="node">
<title>Node18</title>
<g id="a_node18"><a target="_blank" xlink:href="https://en.cppreference.com/w/cpp/header/typeinfo.html" xlink:title=" ">
<polygon fill="white" stroke="#666666" points="782.5,-74 731.5,-74 731.5,-55 782.5,-55 782.5,-74"/>
<text text-anchor="middle" x="757" y="-62" font-family="Helvetica,sans-Serif" font-size="10.00">typeinfo</text>
</a>
</g>
</g>
<!-- Node15&#45;&gt;Node18 -->
<g id="edge22" class="edge">
<title>Node15&#45;&gt;Node18</title>
<path fill="none" stroke="#63b8ff" d="M671.83,-109.99C689.85,-100.58 713.46,-88.24 731.25,-78.95"/>
<polygon fill="#63b8ff" stroke="#63b8ff" points="733.22,-81.87 740.46,-74.14 729.98,-75.67 733.22,-81.87"/>
</g>
<!-- Node19&#45;&gt;Node9 -->
<g id="edge25" class="edge">
<title>Node19&#45;&gt;Node9</title>
<path fill="none" stroke="#63b8ff" d="M491.63,-175.91C497.29,-159.75 504.32,-132.59 498,-110 495.24,-100.12 489.61,-90.25 484.21,-82.32"/>
<polygon fill="#63b8ff" stroke="#63b8ff" points="486.87,-80.04 478.15,-74.03 481.22,-84.17 486.87,-80.04"/>
</g>
<!-- Node20&#45;&gt;Node3 -->
<g id="edge28" class="edge">
<title>Node20&#45;&gt;Node3</title>
<path fill="none" stroke="#63b8ff" d="M114.26,-179.82C90.48,-172.57 63.88,-160.36 47,-140 34.1,-124.44 30.9,-100.93 30.41,-84.49"/>
<polygon fill="#63b8ff" stroke="#63b8ff" points="33.91,-84.43 30.43,-74.42 26.91,-84.42 33.91,-84.43"/>
</g>
<!-- Node20&#45;&gt;Node14 -->
<g id="edge29" class="edge">
<title>Node20&#45;&gt;Node14</title>
<path fill="none" stroke="#63b8ff" d="M191.24,-175.95C207.57,-166.87 229.02,-154.93 246.87,-145"/>
<polygon fill="#63b8ff" stroke="#63b8ff" points="248.79,-147.93 255.82,-140.01 245.38,-141.82 248.79,-147.93"/>
</g>
<!-- Node21 -->
<g id="node21" class="node">
<title>Node21</title>
<g id="a_node21"><a target="_blank" xlink:href="https://en.cppreference.com/w/cpp/header/tuple.html" xlink:title=" ">
<polygon fill="white" stroke="#666666" points="206,-134.5 168,-134.5 168,-115.5 206,-115.5 206,-134.5"/>
<text text-anchor="middle" x="187" y="-122.5" font-family="Helvetica,sans-Serif" font-size="10.00">tuple</text>
</a>
</g>
</g>
<!-- Node20&#45;&gt;Node21 -->
<g id="edge27" class="edge">
<title>Node20&#45;&gt;Node21</title>
<path fill="none" stroke="#63b8ff" d="M170.66,-175.8C173.68,-166.6 177.64,-154.53 180.9,-144.58"/>
<polygon fill="#63b8ff" stroke="#63b8ff" points="184.31,-145.44 184.1,-134.84 177.65,-143.25 184.31,-145.44"/>
</g>
<!-- Node22&#45;&gt;Node3 -->
<g id="edge33" class="edge">
<title>Node22&#45;&gt;Node3</title>
<path fill="none" stroke="#63b8ff" d="M85.57,-109.84C74.69,-101 60.7,-89.63 49.61,-80.62"/>
<polygon fill="#63b8ff" stroke="#63b8ff" points="51.76,-77.86 41.79,-74.27 47.34,-83.29 51.76,-77.86"/>
</g>
<!-- Node22&#45;&gt;Node6 -->
<g id="edge31" class="edge">
<title>Node22&#45;&gt;Node6</title>
<path fill="none" stroke="#63b8ff" d="M145.64,-109.99C176.09,-99.98 216.59,-86.67 245.33,-77.22"/>
<polygon fill="#63b8ff" stroke="#63b8ff" points="246.57,-80.5 254.97,-74.05 244.38,-73.85 246.57,-80.5"/>
</g>
<!-- Node22&#45;&gt;Node9 -->
<g id="edge34" class="edge">
<title>Node22&#45;&gt;Node9</title>
<path fill="none" stroke="#63b8ff" d="M150.27,-111.79C153.22,-111.15 156.15,-110.55 159,-110 273.92,-87.99 306.68,-93.11 426.07,-74.06"/>
<polygon fill="#63b8ff" stroke="#63b8ff" points="426.66,-77.51 435.97,-72.46 425.54,-70.6 426.66,-77.51"/>
</g>
<!-- Node23 -->
<g id="node23" class="node">
<title>Node23</title>
<g id="a_node23"><a target="_blank" xlink:href="https://en.cppreference.com/w/cpp/header/limits.html" xlink:title=" ">
<polygon fill="white" stroke="#666666" points="123,-74 83,-74 83,-55 123,-55 123,-74"/>
<text text-anchor="middle" x="103" y="-62" font-family="Helvetica,sans-Serif" font-size="10.00">limits</text>
</a>
</g>
</g>
<!-- Node22&#45;&gt;Node23 -->
<g id="edge32" class="edge">
<title>Node22&#45;&gt;Node23</title>
<path fill="none" stroke="#63b8ff" d="M103,-109.84C103,-102.21 103,-92.7 103,-84.45"/>
<polygon fill="#63b8ff" stroke="#63b8ff" points="106.5,-84.27 103,-74.27 99.5,-84.27 106.5,-84.27"/>
</g>
</g>
</svg>
