<?xml version="1.0" encoding="UTF-8" standalone="no"?>
<!DOCTYPE svg PUBLIC "-//W3C//DTD SVG 1.1//EN"
 "http://www.w3.org/Graphics/SVG/1.1/DTD/svg11.dtd">
<!-- Generated by graphviz version 2.43.0 (0)
 -->
<!-- Title: bio/ranges/views/char_to.hpp Pages: 1 -->
<svg width="1447pt" height="464pt"
 viewBox="0.00 0.00 1446.50 464.00" xmlns="http://www.w3.org/2000/svg" xmlns:xlink="http://www.w3.org/1999/xlink">
<g id="graph0" class="graph" transform="scale(1 1) rotate(0) translate(4 460)">
<title>bio/ranges/views/char_to.hpp</title>
<polygon fill="white" stroke="transparent" points="-4,4 -4,-460 1442.5,-460 1442.5,4 -4,4"/>
<!-- Node1 -->
<g id="node1" class="node">
<title>Node1</title>
<g id="a_node1"><a xlink:title="Provides bio::views::char_to.">
<polygon fill="#bfbfbf" stroke="black" points="1020,-425.5 1020,-455.5 1143,-455.5 1143,-425.5 1020,-425.5"/>
<text text-anchor="start" x="1028" y="-443.5" font-family="Helvetica,sans-Serif" font-size="10.00">bio/ranges/views/char</text>
<text text-anchor="middle" x="1081.5" y="-432.5" font-family="Helvetica,sans-Serif" font-size="10.00">_to.hpp</text>
</a>
</g>
</g>
<!-- Node2 -->
<g id="node2" class="node">
<title>Node2</title>
<g id="a_node2"><a xlink:href="alphabet_2concept_8hpp.html" target="_top" xlink:title="Core alphabet concept and free function/type trait wrappers.">
<polygon fill="white" stroke="black" points="638.5,-252 638.5,-271 778.5,-271 778.5,-252 638.5,-252"/>
<text text-anchor="middle" x="708.5" y="-259" font-family="Helvetica,sans-Serif" font-size="10.00">bio/alphabet/concept.hpp</text>
</a>
</g>
</g>
<!-- Node1&#45;&gt;Node2 -->
<g id="edge1" class="edge">
<title>Node1&#45;&gt;Node2</title>
<path fill="none" stroke="midnightblue" d="M1051.92,-425.46C981.46,-392.03 804.51,-308.06 736.1,-275.6"/>
<polygon fill="midnightblue" stroke="midnightblue" points="737.36,-272.32 726.82,-271.19 734.35,-278.64 737.36,-272.32"/>
</g>
<!-- Node20 -->
<g id="node20" class="node">
<title>Node20</title>
<g id="a_node20"><a xlink:href="basic_8hpp.html" target="_top" xlink:title="Provides various type traits on generic types.">
<polygon fill="white" stroke="black" points="930.5,-179.5 930.5,-209.5 1046.5,-209.5 1046.5,-179.5 930.5,-179.5"/>
<text text-anchor="start" x="938.5" y="-197.5" font-family="Helvetica,sans-Serif" font-size="10.00">bio/meta/type_traits</text>
<text text-anchor="middle" x="988.5" y="-186.5" font-family="Helvetica,sans-Serif" font-size="10.00">/basic.hpp</text>
</a>
</g>
</g>
<!-- Node1&#45;&gt;Node20 -->
<g id="edge32" class="edge">
<title>Node1&#45;&gt;Node20</title>
<path fill="none" stroke="midnightblue" d="M1076.1,-425.33C1060.72,-384.98 1016.59,-269.2 997.49,-219.09"/>
<polygon fill="midnightblue" stroke="midnightblue" points="1000.75,-217.81 993.92,-209.71 994.21,-220.3 1000.75,-217.81"/>
</g>
<!-- Node22 -->
<g id="node22" class="node">
<title>Node22</title>
<g id="a_node22"><a xlink:href="deep_8hpp.html" target="_top" xlink:title="Provides bio::views::deep.">
<polygon fill="white" stroke="black" points="1109,-369.5 1109,-388.5 1256,-388.5 1256,-369.5 1109,-369.5"/>
<text text-anchor="middle" x="1182.5" y="-376.5" font-family="Helvetica,sans-Serif" font-size="10.00">bio/ranges/views/deep.hpp</text>
</a>
</g>
</g>
<!-- Node1&#45;&gt;Node22 -->
<g id="edge33" class="edge">
<title>Node1&#45;&gt;Node22</title>
<path fill="none" stroke="midnightblue" d="M1105.44,-425.4C1121.63,-415.86 1142.91,-403.32 1159,-393.84"/>
<polygon fill="midnightblue" stroke="midnightblue" points="1160.96,-396.75 1167.8,-388.66 1157.41,-390.72 1160.96,-396.75"/>
</g>
<!-- Node28 -->
<g id="node28" class="node">
<title>Node28</title>
<g id="a_node28"><a target="_blank" xlink:href="https://en.cppreference.com/w/cpp/header/ranges.html" xlink:title=" ">
<polygon fill="white" stroke="black" points="1388.5,-185 1388.5,-204 1438.5,-204 1438.5,-185 1388.5,-185"/>
<text text-anchor="middle" x="1413.5" y="-192" font-family="Helvetica,sans-Serif" font-size="10.00">ranges</text>
</a>
</g>
</g>
<!-- Node1&#45;&gt;Node28 -->
<g id="edge52" class="edge">
<title>Node1&#45;&gt;Node28</title>
<path fill="none" stroke="midnightblue" d="M1143.07,-431.71C1180.63,-424.83 1228.39,-412.13 1265.5,-389 1336.69,-344.62 1386.41,-252.85 1405.2,-213.77"/>
<polygon fill="midnightblue" stroke="midnightblue" points="1408.59,-214.76 1409.66,-204.22 1402.25,-211.8 1408.59,-214.76"/>
</g>
<!-- Node3 -->
<g id="node3" class="node">
<title>Node3</title>
<g id="a_node3"><a xlink:href="exception_8hpp.html" target="_top" xlink:title="Exceptions thrown by entities in the alphabet module.">
<polygon fill="white" stroke="black" points="228,-185 228,-204 377,-204 377,-185 228,-185"/>
<text text-anchor="middle" x="302.5" y="-192" font-family="Helvetica,sans-Serif" font-size="10.00">bio/alphabet/exception.hpp</text>
</a>
</g>
</g>
<!-- Node2&#45;&gt;Node3 -->
<g id="edge2" class="edge">
<title>Node2&#45;&gt;Node3</title>
<path fill="none" stroke="midnightblue" d="M651.85,-251.96C587.32,-242.15 478.73,-225.43 385.5,-210 377.31,-208.64 368.66,-207.18 360.17,-205.71"/>
<polygon fill="midnightblue" stroke="midnightblue" points="360.77,-202.26 350.32,-204 359.57,-209.16 360.77,-202.26"/>
</g>
<!-- Node12 -->
<g id="node12" class="node">
<title>Node12</title>
<g id="a_node12"><a xlink:href="cereal_8hpp.html" target="_top" xlink:title="Adaptions of concepts from the Cereal library.">
<polygon fill="white" stroke="black" points="719,-185 719,-204 874,-204 874,-185 719,-185"/>
<text text-anchor="middle" x="796.5" y="-192" font-family="Helvetica,sans-Serif" font-size="10.00">bio/meta/concept/cereal.hpp</text>
</a>
</g>
</g>
<!-- Node2&#45;&gt;Node12 -->
<g id="edge12" class="edge">
<title>Node2&#45;&gt;Node12</title>
<path fill="none" stroke="midnightblue" d="M720.37,-251.73C734.75,-241.11 759.2,-223.05 776.51,-210.26"/>
<polygon fill="midnightblue" stroke="midnightblue" points="778.86,-212.88 784.82,-204.13 774.7,-207.25 778.86,-212.88"/>
</g>
<!-- Node13 -->
<g id="node13" class="node">
<title>Node13</title>
<g id="a_node13"><a target="_blank" xlink:href="https://en.cppreference.com/w/cpp/header/type_traits.html" xlink:title=" ">
<polygon fill="white" stroke="black" points="874,-118 874,-137 943,-137 943,-118 874,-118"/>
<text text-anchor="middle" x="908.5" y="-125" font-family="Helvetica,sans-Serif" font-size="10.00">type_traits</text>
</a>
</g>
</g>
<!-- Node2&#45;&gt;Node13 -->
<g id="edge31" class="edge">
<title>Node2&#45;&gt;Node13</title>
<path fill="none" stroke="midnightblue" d="M778.67,-255.85C814.29,-250 855.77,-237.27 883.5,-210 900.37,-193.41 905.92,-165.77 907.71,-147.34"/>
<polygon fill="midnightblue" stroke="midnightblue" points="911.21,-147.46 908.4,-137.24 904.22,-146.97 911.21,-147.46"/>
</g>
<!-- Node14 -->
<g id="node14" class="node">
<title>Node14</title>
<g id="a_node14"><a xlink:href="core__language_8hpp.html" target="_top" xlink:title="Provides concepts for core language types and relations that don&#39;t have concepts in C++20 (yet).">
<polygon fill="white" stroke="black" points="395,-179.5 395,-209.5 520,-209.5 520,-179.5 395,-179.5"/>
<text text-anchor="start" x="403" y="-197.5" font-family="Helvetica,sans-Serif" font-size="10.00">bio/meta/concept/core</text>
<text text-anchor="middle" x="457.5" y="-186.5" font-family="Helvetica,sans-Serif" font-size="10.00">_language.hpp</text>
</a>
</g>
</g>
<!-- Node2&#45;&gt;Node14 -->
<g id="edge15" class="edge">
<title>Node2&#45;&gt;Node14</title>
<path fill="none" stroke="midnightblue" d="M675.43,-251.94C636.45,-241.84 570.77,-224.83 521.68,-212.12"/>
<polygon fill="midnightblue" stroke="midnightblue" points="522.35,-208.68 511.79,-209.56 520.59,-215.45 522.35,-208.68"/>
</g>
<!-- Node15 -->
<g id="node15" class="node">
<title>Node15</title>
<g id="a_node15"><a xlink:href="customisation__point_8hpp.html" target="_top" xlink:title="Helper utilities for defining customisation point objects.">
<polygon fill="white" stroke="black" points="538,-179.5 538,-209.5 701,-209.5 701,-179.5 538,-179.5"/>
<text text-anchor="start" x="546" y="-197.5" font-family="Helvetica,sans-Serif" font-size="10.00">bio/meta/detail/customisation</text>
<text text-anchor="middle" x="619.5" y="-186.5" font-family="Helvetica,sans-Serif" font-size="10.00">_point.hpp</text>
</a>
</g>
</g>
<!-- Node2&#45;&gt;Node15 -->
<g id="edge19" class="edge">
<title>Node2&#45;&gt;Node15</title>
<path fill="none" stroke="midnightblue" d="M696.5,-251.73C683.89,-242.53 663.63,-227.73 647.06,-215.63"/>
<polygon fill="midnightblue" stroke="midnightblue" points="648.93,-212.66 638.79,-209.59 644.8,-218.31 648.93,-212.66"/>
</g>
<!-- Node16 -->
<g id="node16" class="node">
<title>Node16</title>
<g id="a_node16"><a xlink:href="type__inspection_8hpp.html" target="_top" xlink:title="Provides traits to inspect some information of a type, for example its name.">
<polygon fill="white" stroke="black" points="80.5,-112.5 80.5,-142.5 196.5,-142.5 196.5,-112.5 80.5,-112.5"/>
<text text-anchor="start" x="88.5" y="-130.5" font-family="Helvetica,sans-Serif" font-size="10.00">bio/meta/detail/type</text>
<text text-anchor="middle" x="138.5" y="-119.5" font-family="Helvetica,sans-Serif" font-size="10.00">_inspection.hpp</text>
</a>
</g>
</g>
<!-- Node2&#45;&gt;Node16 -->
<g id="edge21" class="edge">
<title>Node2&#45;&gt;Node16</title>
<path fill="none" stroke="midnightblue" d="M638.48,-259.08C521.24,-255.76 290.93,-244.87 218.5,-210 191.08,-196.8 167.78,-170.13 153.52,-150.89"/>
<polygon fill="midnightblue" stroke="midnightblue" points="156.29,-148.74 147.62,-142.64 150.59,-152.81 156.29,-148.74"/>
</g>
<!-- Node2&#45;&gt;Node20 -->
<g id="edge27" class="edge">
<title>Node2&#45;&gt;Node20</title>
<path fill="none" stroke="midnightblue" d="M745.39,-251.94C789.78,-241.63 865.19,-224.12 920.28,-211.34"/>
<polygon fill="midnightblue" stroke="midnightblue" points="921.37,-214.68 930.32,-209.01 919.79,-207.86 921.37,-214.68"/>
</g>
<!-- Node4 -->
<g id="node4" class="node">
<title>Node4</title>
<g id="a_node4"><a target="_blank" xlink:href="https://en.cppreference.com/w/cpp/header/stdexcept.html" xlink:title=" ">
<polygon fill="white" stroke="black" points="412,-118 412,-137 477,-137 477,-118 412,-118"/>
<text text-anchor="middle" x="444.5" y="-125" font-family="Helvetica,sans-Serif" font-size="10.00">stdexcept</text>
</a>
</g>
</g>
<!-- Node3&#45;&gt;Node4 -->
<g id="edge3" class="edge">
<title>Node3&#45;&gt;Node4</title>
<path fill="none" stroke="midnightblue" d="M321.36,-184.87C345.65,-173.75 388.1,-154.32 416.26,-141.43"/>
<polygon fill="midnightblue" stroke="midnightblue" points="417.93,-144.51 425.57,-137.17 415.02,-138.15 417.93,-144.51"/>
</g>
<!-- Node5 -->
<g id="node5" class="node">
<title>Node5</title>
<g id="a_node5"><a target="_blank" xlink:href="https://en.cppreference.com/w/cpp/header/string.html" xlink:title=" ">
<polygon fill="white" stroke="black" points="234.5,-56.5 234.5,-75.5 278.5,-75.5 278.5,-56.5 234.5,-56.5"/>
<text text-anchor="middle" x="256.5" y="-63.5" font-family="Helvetica,sans-Serif" font-size="10.00">string</text>
</a>
</g>
</g>
<!-- Node3&#45;&gt;Node5 -->
<g id="edge4" class="edge">
<title>Node3&#45;&gt;Node5</title>
<path fill="none" stroke="midnightblue" d="M286.28,-184.99C272.02,-176.49 252.24,-161.98 243.5,-143 234.96,-124.45 241.22,-101.01 247.67,-85.11"/>
<polygon fill="midnightblue" stroke="midnightblue" points="250.91,-86.43 251.78,-75.87 244.52,-83.58 250.91,-86.43"/>
</g>
<!-- Node6 -->
<g id="node6" class="node">
<title>Node6</title>
<g id="a_node6"><a xlink:href="pretty__print_8hpp.html" target="_top" xlink:title="Provides pretty printing for chars.">
<polygon fill="white" stroke="black" points="253,-112.5 253,-142.5 394,-142.5 394,-112.5 253,-112.5"/>
<text text-anchor="start" x="261" y="-130.5" font-family="Helvetica,sans-Serif" font-size="10.00">bio/meta/char_operations</text>
<text text-anchor="middle" x="323.5" y="-119.5" font-family="Helvetica,sans-Serif" font-size="10.00">/pretty_print.hpp</text>
</a>
</g>
</g>
<!-- Node3&#45;&gt;Node6 -->
<g id="edge5" class="edge">
<title>Node3&#45;&gt;Node6</title>
<path fill="none" stroke="midnightblue" d="M305.33,-184.73C308.01,-176.46 312.14,-163.66 315.79,-152.37"/>
<polygon fill="midnightblue" stroke="midnightblue" points="319.2,-153.18 318.95,-142.59 312.54,-151.03 319.2,-153.18"/>
</g>
<!-- Node11 -->
<g id="node11" class="node">
<title>Node11</title>
<g id="a_node11"><a target="_blank" xlink:href="https://en.cppreference.com/w/cpp/header/concepts.html" xlink:title=" ">
<polygon fill="white" stroke="black" points="495.5,-118 495.5,-137 555.5,-137 555.5,-118 495.5,-118"/>
<text text-anchor="middle" x="525.5" y="-125" font-family="Helvetica,sans-Serif" font-size="10.00">concepts</text>
</a>
</g>
</g>
<!-- Node3&#45;&gt;Node11 -->
<g id="edge11" class="edge">
<title>Node3&#45;&gt;Node11</title>
<path fill="none" stroke="midnightblue" d="M336.46,-184.98C373.38,-175.52 434,-159.41 485.5,-143 488.05,-142.19 490.68,-141.31 493.32,-140.41"/>
<polygon fill="midnightblue" stroke="midnightblue" points="494.49,-143.71 502.76,-137.09 492.17,-137.11 494.49,-143.71"/>
</g>
<!-- Node6&#45;&gt;Node5 -->
<g id="edge6" class="edge">
<title>Node6&#45;&gt;Node5</title>
<path fill="none" stroke="midnightblue" d="M307.62,-112.4C297.48,-103.4 284.34,-91.72 273.91,-82.47"/>
<polygon fill="midnightblue" stroke="midnightblue" points="276.05,-79.68 266.25,-75.66 271.4,-84.92 276.05,-79.68"/>
</g>
<!-- Node7 -->
<g id="node7" class="node">
<title>Node7</title>
<g id="a_node7"><a xlink:href="platform_8hpp.html" target="_top" xlink:title="Provides platform and dependency checks.">
<polygon fill="white" stroke="black" points="733.5,-56.5 733.5,-75.5 859.5,-75.5 859.5,-56.5 733.5,-56.5"/>
<text text-anchor="middle" x="796.5" y="-63.5" font-family="Helvetica,sans-Serif" font-size="10.00">bio/meta/platform.hpp</text>
</a>
</g>
</g>
<!-- Node6&#45;&gt;Node7 -->
<g id="edge7" class="edge">
<title>Node6&#45;&gt;Node7</title>
<path fill="none" stroke="midnightblue" d="M394.1,-113.3C396.93,-112.84 399.74,-112.41 402.5,-112 513.78,-95.45 643.54,-81.69 722.84,-73.91"/>
<polygon fill="midnightblue" stroke="midnightblue" points="723.59,-77.35 733.21,-72.89 722.91,-70.38 723.59,-77.35"/>
</g>
<!-- Node8 -->
<g id="node8" class="node">
<title>Node8</title>
<g id="a_node8"><a target="_blank" xlink:href="https://en.cppreference.com/w/cpp/header/cinttypes.html" xlink:title=" ">
<polygon fill="white" stroke="black" points="689.5,-0.5 689.5,-19.5 751.5,-19.5 751.5,-0.5 689.5,-0.5"/>
<text text-anchor="middle" x="720.5" y="-7.5" font-family="Helvetica,sans-Serif" font-size="10.00">cinttypes</text>
</a>
</g>
</g>
<!-- Node7&#45;&gt;Node8 -->
<g id="edge8" class="edge">
<title>Node7&#45;&gt;Node8</title>
<path fill="none" stroke="midnightblue" d="M784.29,-56.32C772.72,-48.11 755.12,-35.6 741.34,-25.81"/>
<polygon fill="midnightblue" stroke="midnightblue" points="743.11,-22.77 732.93,-19.83 739.06,-28.48 743.11,-22.77"/>
</g>
<!-- Node9 -->
<g id="node9" class="node">
<title>Node9</title>
<g id="a_node9"><a target="_blank" xlink:href="https://en.cppreference.com/w/cpp/header/ciso646.html" xlink:title=" ">
<polygon fill="white" stroke="black" points="769.5,-0.5 769.5,-19.5 823.5,-19.5 823.5,-0.5 769.5,-0.5"/>
<text text-anchor="middle" x="796.5" y="-7.5" font-family="Helvetica,sans-Serif" font-size="10.00">ciso646</text>
</a>
</g>
</g>
<!-- Node7&#45;&gt;Node9 -->
<g id="edge9" class="edge">
<title>Node7&#45;&gt;Node9</title>
<path fill="none" stroke="midnightblue" d="M796.5,-56.08C796.5,-49.01 796.5,-38.86 796.5,-29.99"/>
<polygon fill="midnightblue" stroke="midnightblue" points="800,-29.75 796.5,-19.75 793,-29.75 800,-29.75"/>
</g>
<!-- Node10 -->
<g id="node10" class="node">
<title>Node10</title>
<g id="a_node10"><a target="_blank" xlink:href="https://en.cppreference.com/w/cpp/header/cstddef.html" xlink:title=" ">
<polygon fill="white" stroke="black" points="842,-0.5 842,-19.5 895,-19.5 895,-0.5 842,-0.5"/>
<text text-anchor="middle" x="868.5" y="-7.5" font-family="Helvetica,sans-Serif" font-size="10.00">cstddef</text>
</a>
</g>
</g>
<!-- Node7&#45;&gt;Node10 -->
<g id="edge10" class="edge">
<title>Node7&#45;&gt;Node10</title>
<path fill="none" stroke="midnightblue" d="M808.07,-56.32C818.92,-48.18 835.38,-35.84 848.38,-26.09"/>
<polygon fill="midnightblue" stroke="midnightblue" points="850.82,-28.63 856.72,-19.83 846.62,-23.03 850.82,-28.63"/>
</g>
<!-- Node12&#45;&gt;Node7 -->
<g id="edge14" class="edge">
<title>Node12&#45;&gt;Node7</title>
<path fill="none" stroke="midnightblue" d="M796.5,-184.81C796.5,-164.49 796.5,-113.55 796.5,-85.78"/>
<polygon fill="midnightblue" stroke="midnightblue" points="800,-85.76 796.5,-75.76 793,-85.76 800,-85.76"/>
</g>
<!-- Node12&#45;&gt;Node13 -->
<g id="edge13" class="edge">
<title>Node12&#45;&gt;Node13</title>
<path fill="none" stroke="midnightblue" d="M811.6,-184.73C830.41,-173.82 862.75,-155.05 884.86,-142.22"/>
<polygon fill="midnightblue" stroke="midnightblue" points="886.74,-145.17 893.63,-137.13 883.23,-139.12 886.74,-145.17"/>
</g>
<!-- Node14&#45;&gt;Node7 -->
<g id="edge17" class="edge">
<title>Node14&#45;&gt;Node7</title>
<path fill="none" stroke="midnightblue" d="M495.07,-179.48C562,-154.5 700.74,-102.73 763.91,-79.16"/>
<polygon fill="midnightblue" stroke="midnightblue" points="765.23,-82.41 773.37,-75.63 762.78,-75.85 765.23,-82.41"/>
</g>
<!-- Node14&#45;&gt;Node11 -->
<g id="edge18" class="edge">
<title>Node14&#45;&gt;Node11</title>
<path fill="none" stroke="midnightblue" d="M472.25,-179.4C483.07,-169.06 497.75,-155.02 508.96,-144.31"/>
<polygon fill="midnightblue" stroke="midnightblue" points="511.59,-146.63 516.4,-137.19 506.76,-141.57 511.59,-146.63"/>
</g>
<!-- Node14&#45;&gt;Node13 -->
<g id="edge16" class="edge">
<title>Node14&#45;&gt;Node13</title>
<path fill="none" stroke="midnightblue" d="M520.18,-180.45C522.99,-179.95 525.77,-179.46 528.5,-179 649.23,-158.68 792.66,-141.48 863.83,-133.42"/>
<polygon fill="midnightblue" stroke="midnightblue" points="864.25,-136.89 873.8,-132.3 863.47,-129.94 864.25,-136.89"/>
</g>
<!-- Node15&#45;&gt;Node7 -->
<g id="edge20" class="edge">
<title>Node15&#45;&gt;Node7</title>
<path fill="none" stroke="midnightblue" d="M639.12,-179.48C672.83,-155.39 741.44,-106.35 775.85,-81.76"/>
<polygon fill="midnightblue" stroke="midnightblue" points="778.1,-84.45 784.2,-75.79 774.03,-78.76 778.1,-84.45"/>
</g>
<!-- Node16&#45;&gt;Node5 -->
<g id="edge24" class="edge">
<title>Node16&#45;&gt;Node5</title>
<path fill="none" stroke="midnightblue" d="M166.46,-112.4C185.82,-102.64 211.41,-89.74 230.36,-80.18"/>
<polygon fill="midnightblue" stroke="midnightblue" points="231.98,-83.29 239.33,-75.66 228.83,-77.04 231.98,-83.29"/>
</g>
<!-- Node16&#45;&gt;Node7 -->
<g id="edge26" class="edge">
<title>Node16&#45;&gt;Node7</title>
<path fill="none" stroke="midnightblue" d="M196.74,-117.87C211.94,-115.77 228.32,-113.66 243.5,-112 414.93,-93.2 617.06,-78.69 723.09,-71.66"/>
<polygon fill="midnightblue" stroke="midnightblue" points="723.61,-75.13 733.36,-70.98 723.15,-68.15 723.61,-75.13"/>
</g>
<!-- Node17 -->
<g id="node17" class="node">
<title>Node17</title>
<g id="a_node17"><a target="_blank" xlink:href="https://en.cppreference.com/w/cpp/header/functional.html" xlink:title=" ">
<polygon fill="white" stroke="black" points="75,-56.5 75,-75.5 140,-75.5 140,-56.5 75,-56.5"/>
<text text-anchor="middle" x="107.5" y="-63.5" font-family="Helvetica,sans-Serif" font-size="10.00">functional</text>
</a>
</g>
</g>
<!-- Node16&#45;&gt;Node17 -->
<g id="edge22" class="edge">
<title>Node16&#45;&gt;Node17</title>
<path fill="none" stroke="midnightblue" d="M131.15,-112.4C126.83,-104.11 121.33,-93.55 116.73,-84.71"/>
<polygon fill="midnightblue" stroke="midnightblue" points="119.74,-82.91 112.01,-75.66 113.53,-86.14 119.74,-82.91"/>
</g>
<!-- Node18 -->
<g id="node18" class="node">
<title>Node18</title>
<g id="a_node18"><a target="_blank" xlink:href="https://en.cppreference.com/w/cpp/header/memory.html" xlink:title=" ">
<polygon fill="white" stroke="black" points="158.5,-56.5 158.5,-75.5 216.5,-75.5 216.5,-56.5 158.5,-56.5"/>
<text text-anchor="middle" x="187.5" y="-63.5" font-family="Helvetica,sans-Serif" font-size="10.00">memory</text>
</a>
</g>
</g>
<!-- Node16&#45;&gt;Node18 -->
<g id="edge23" class="edge">
<title>Node16&#45;&gt;Node18</title>
<path fill="none" stroke="midnightblue" d="M150.11,-112.4C157.23,-103.75 166.38,-92.64 173.85,-83.58"/>
<polygon fill="midnightblue" stroke="midnightblue" points="176.71,-85.6 180.37,-75.66 171.31,-81.15 176.71,-85.6"/>
</g>
<!-- Node19 -->
<g id="node19" class="node">
<title>Node19</title>
<g id="a_node19"><a target="_blank" xlink:href="https://en.cppreference.com/w/cpp/header/typeinfo.html" xlink:title=" ">
<polygon fill="white" stroke="black" points="0,-56.5 0,-75.5 57,-75.5 57,-56.5 0,-56.5"/>
<text text-anchor="middle" x="28.5" y="-63.5" font-family="Helvetica,sans-Serif" font-size="10.00">typeinfo</text>
</a>
</g>
</g>
<!-- Node16&#45;&gt;Node19 -->
<g id="edge25" class="edge">
<title>Node16&#45;&gt;Node19</title>
<path fill="none" stroke="midnightblue" d="M112.43,-112.4C94.63,-102.77 71.19,-90.09 53.6,-80.58"/>
<polygon fill="midnightblue" stroke="midnightblue" points="54.97,-77.34 44.51,-75.66 51.64,-83.49 54.97,-77.34"/>
</g>
<!-- Node20&#45;&gt;Node7 -->
<g id="edge30" class="edge">
<title>Node20&#45;&gt;Node7</title>
<path fill="none" stroke="midnightblue" d="M986.03,-179.22C982.12,-160.99 972.77,-129.7 952.5,-112 929.61,-92.01 898.34,-80.88 869.81,-74.69"/>
<polygon fill="midnightblue" stroke="midnightblue" points="870.34,-71.23 859.85,-72.7 868.97,-78.09 870.34,-71.23"/>
</g>
<!-- Node20&#45;&gt;Node13 -->
<g id="edge29" class="edge">
<title>Node20&#45;&gt;Node13</title>
<path fill="none" stroke="midnightblue" d="M971.14,-179.4C958.17,-168.86 940.47,-154.48 927.19,-143.69"/>
<polygon fill="midnightblue" stroke="midnightblue" points="929.17,-140.78 919.2,-137.19 924.76,-146.22 929.17,-140.78"/>
</g>
<!-- Node21 -->
<g id="node21" class="node">
<title>Node21</title>
<g id="a_node21"><a target="_blank" xlink:href="https://en.cppreference.com/w/cpp/header/tuple.html" xlink:title=" ">
<polygon fill="white" stroke="black" points="1020,-118 1020,-137 1061,-137 1061,-118 1020,-118"/>
<text text-anchor="middle" x="1040.5" y="-125" font-family="Helvetica,sans-Serif" font-size="10.00">tuple</text>
</a>
</g>
</g>
<!-- Node20&#45;&gt;Node21 -->
<g id="edge28" class="edge">
<title>Node20&#45;&gt;Node21</title>
<path fill="none" stroke="midnightblue" d="M999.78,-179.4C1007.81,-169.36 1018.63,-155.84 1027.1,-145.25"/>
<polygon fill="midnightblue" stroke="midnightblue" points="1030.03,-147.19 1033.54,-137.19 1024.56,-142.82 1030.03,-147.19"/>
</g>
<!-- Node23 -->
<g id="node23" class="node">
<title>Node23</title>
<g id="a_node23"><a xlink:href="ranges_2views_2detail_8hpp_source.html" target="_top" xlink:title=" ">
<polygon fill="white" stroke="black" points="1107,-313.5 1107,-332.5 1258,-332.5 1258,-313.5 1107,-313.5"/>
<text text-anchor="middle" x="1182.5" y="-320.5" font-family="Helvetica,sans-Serif" font-size="10.00">bio/ranges/views/detail.hpp</text>
</a>
</g>
</g>
<!-- Node22&#45;&gt;Node23 -->
<g id="edge34" class="edge">
<title>Node22&#45;&gt;Node23</title>
<path fill="none" stroke="midnightblue" d="M1182.5,-369.08C1182.5,-362.01 1182.5,-351.86 1182.5,-342.99"/>
<polygon fill="midnightblue" stroke="midnightblue" points="1186,-342.75 1182.5,-332.75 1179,-342.75 1186,-342.75"/>
</g>
<!-- Node22&#45;&gt;Node28 -->
<g id="edge51" class="edge">
<title>Node22&#45;&gt;Node28</title>
<path fill="none" stroke="midnightblue" d="M1202.27,-369.39C1220.08,-361.21 1246.59,-347.97 1267.5,-333 1320.62,-294.99 1374.29,-238.85 1399.17,-211.56"/>
<polygon fill="midnightblue" stroke="midnightblue" points="1401.84,-213.84 1405.94,-204.07 1396.64,-209.15 1401.84,-213.84"/>
</g>
<!-- Node23&#45;&gt;Node20 -->
<g id="edge36" class="edge">
<title>Node23&#45;&gt;Node20</title>
<path fill="none" stroke="midnightblue" d="M1164.7,-313.42C1147.4,-304.85 1120.58,-290.99 1098.5,-277 1068.37,-257.91 1035.76,-233.19 1013.94,-216.01"/>
<polygon fill="midnightblue" stroke="midnightblue" points="1015.86,-213.06 1005.85,-209.59 1011.51,-218.55 1015.86,-213.06"/>
</g>
<!-- Node23&#45;&gt;Node21 -->
<g id="edge35" class="edge">
<title>Node23&#45;&gt;Node21</title>
<path fill="none" stroke="midnightblue" d="M1174.69,-313.23C1166.83,-304.3 1154.48,-289.96 1144.5,-277 1108.95,-230.82 1070.41,-173.75 1051.81,-145.71"/>
<polygon fill="midnightblue" stroke="midnightblue" points="1054.54,-143.48 1046.1,-137.06 1048.7,-147.34 1054.54,-143.48"/>
</g>
<!-- Node24 -->
<g id="node24" class="node">
<title>Node24</title>
<g id="a_node24"><a xlink:href="range_8hpp.html" target="_top" xlink:title="Provides various transformation traits used by the range module.">
<polygon fill="white" stroke="black" points="1153.5,-246.5 1153.5,-276.5 1269.5,-276.5 1269.5,-246.5 1153.5,-246.5"/>
<text text-anchor="start" x="1161.5" y="-264.5" font-family="Helvetica,sans-Serif" font-size="10.00">bio/meta/type_traits</text>
<text text-anchor="middle" x="1211.5" y="-253.5" font-family="Helvetica,sans-Serif" font-size="10.00">/range.hpp</text>
</a>
</g>
</g>
<!-- Node23&#45;&gt;Node24 -->
<g id="edge37" class="edge">
<title>Node23&#45;&gt;Node24</title>
<path fill="none" stroke="midnightblue" d="M1186.65,-313.48C1190.18,-306.25 1195.4,-295.53 1200.15,-285.78"/>
<polygon fill="midnightblue" stroke="midnightblue" points="1203.43,-287.05 1204.67,-276.52 1197.14,-283.98 1203.43,-287.05"/>
</g>
<!-- Node23&#45;&gt;Node28 -->
<g id="edge50" class="edge">
<title>Node23&#45;&gt;Node28</title>
<path fill="none" stroke="midnightblue" d="M1202.29,-313.45C1221.91,-304.81 1252.69,-290.79 1278.5,-277 1300.26,-265.37 1358.28,-229.73 1390.73,-209.64"/>
<polygon fill="midnightblue" stroke="midnightblue" points="1392.88,-212.43 1399.53,-204.19 1389.19,-206.48 1392.88,-212.43"/>
</g>
<!-- Node24&#45;&gt;Node7 -->
<g id="edge39" class="edge">
<title>Node24&#45;&gt;Node7</title>
<path fill="none" stroke="midnightblue" d="M1266.31,-246.41C1286.09,-238.72 1306.88,-227.14 1320.5,-210 1347.87,-175.55 1364.29,-144.38 1334.5,-112 1303.68,-78.5 1009.83,-69.93 869.9,-67.74"/>
<polygon fill="midnightblue" stroke="midnightblue" points="869.74,-64.24 859.69,-67.59 869.63,-71.24 869.74,-64.24"/>
</g>
<!-- Node24&#45;&gt;Node13 -->
<g id="edge38" class="edge">
<title>Node24&#45;&gt;Node13</title>
<path fill="none" stroke="midnightblue" d="M1187.47,-246.49C1157.29,-229.25 1103.64,-199.7 1055.5,-179 1019.53,-163.53 977.11,-149.37 947.11,-140.01"/>
<polygon fill="midnightblue" stroke="midnightblue" points="948.03,-136.63 937.44,-137.02 945.96,-143.32 948.03,-136.63"/>
</g>
<!-- Node24&#45;&gt;Node20 -->
<g id="edge42" class="edge">
<title>Node24&#45;&gt;Node20</title>
<path fill="none" stroke="midnightblue" d="M1163.39,-246.48C1129.21,-236.51 1083.14,-223.09 1046.87,-212.51"/>
<polygon fill="midnightblue" stroke="midnightblue" points="1047.49,-209.05 1036.91,-209.61 1045.53,-215.77 1047.49,-209.05"/>
</g>
<!-- Node25 -->
<g id="node25" class="node">
<title>Node25</title>
<g id="a_node25"><a xlink:href="pre_8hpp.html" target="_top" xlink:title="Provides various transformation trait base templates and shortcuts.">
<polygon fill="white" stroke="black" points="1092.5,-112.5 1092.5,-142.5 1208.5,-142.5 1208.5,-112.5 1092.5,-112.5"/>
<text text-anchor="start" x="1100.5" y="-130.5" font-family="Helvetica,sans-Serif" font-size="10.00">bio/meta/type_traits</text>
<text text-anchor="middle" x="1150.5" y="-119.5" font-family="Helvetica,sans-Serif" font-size="10.00">/pre.hpp</text>
</a>
</g>
</g>
<!-- Node24&#45;&gt;Node25 -->
<g id="edge40" class="edge">
<title>Node24&#45;&gt;Node25</title>
<path fill="none" stroke="midnightblue" d="M1196.61,-246.35C1187.49,-236.88 1176.3,-223.68 1169.5,-210 1160.53,-191.96 1155.71,-169.56 1153.16,-152.81"/>
<polygon fill="midnightblue" stroke="midnightblue" points="1156.61,-152.17 1151.8,-142.72 1149.67,-153.1 1156.61,-152.17"/>
</g>
<!-- Node26 -->
<g id="node26" class="node">
<title>Node26</title>
<g id="a_node26"><a xlink:href="iterator_8hpp.html" target="_top" xlink:title="Provides various transformation traits for use on iterators.">
<polygon fill="white" stroke="black" points="1178.5,-179.5 1178.5,-209.5 1294.5,-209.5 1294.5,-179.5 1178.5,-179.5"/>
<text text-anchor="start" x="1186.5" y="-197.5" font-family="Helvetica,sans-Serif" font-size="10.00">bio/meta/type_traits</text>
<text text-anchor="middle" x="1236.5" y="-186.5" font-family="Helvetica,sans-Serif" font-size="10.00">/iterator.hpp</text>
</a>
</g>
</g>
<!-- Node24&#45;&gt;Node26 -->
<g id="edge43" class="edge">
<title>Node24&#45;&gt;Node26</title>
<path fill="none" stroke="midnightblue" d="M1216.92,-246.4C1220,-238.39 1223.94,-228.16 1227.47,-218.98"/>
<polygon fill="midnightblue" stroke="midnightblue" points="1230.76,-220.17 1231.09,-209.58 1224.23,-217.65 1230.76,-220.17"/>
</g>
<!-- Node27 -->
<g id="node27" class="node">
<title>Node27</title>
<g id="a_node27"><a target="_blank" xlink:href="https://en.cppreference.com/w/cpp/header/iterator.html" xlink:title=" ">
<polygon fill="white" stroke="black" points="1272,-118 1272,-137 1325,-137 1325,-118 1272,-118"/>
<text text-anchor="middle" x="1298.5" y="-125" font-family="Helvetica,sans-Serif" font-size="10.00">iterator</text>
</a>
</g>
</g>
<!-- Node24&#45;&gt;Node27 -->
<g id="edge49" class="edge">
<title>Node24&#45;&gt;Node27</title>
<path fill="none" stroke="midnightblue" d="M1258.14,-246.36C1275.54,-238.57 1293.48,-226.93 1303.5,-210 1314.92,-190.7 1310.32,-164.14 1305.14,-146.66"/>
<polygon fill="midnightblue" stroke="midnightblue" points="1308.43,-145.48 1301.97,-137.09 1301.79,-147.68 1308.43,-145.48"/>
</g>
<!-- Node24&#45;&gt;Node28 -->
<g id="edge48" class="edge">
<title>Node24&#45;&gt;Node28</title>
<path fill="none" stroke="midnightblue" d="M1259.16,-246.5C1291.78,-236.72 1335.94,-223.13 1374.5,-210 1376.75,-209.23 1379.07,-208.42 1381.39,-207.6"/>
<polygon fill="midnightblue" stroke="midnightblue" points="1382.69,-210.85 1390.89,-204.15 1380.3,-204.27 1382.69,-210.85"/>
</g>
<!-- Node25&#45;&gt;Node7 -->
<g id="edge41" class="edge">
<title>Node25&#45;&gt;Node7</title>
<path fill="none" stroke="midnightblue" d="M1092.41,-115.85C1085.04,-114.54 1077.59,-113.23 1070.5,-112 998.5,-99.56 915.71,-86.08 860.15,-77.15"/>
<polygon fill="midnightblue" stroke="midnightblue" points="860.53,-73.66 850.1,-75.53 859.42,-80.58 860.53,-73.66"/>
</g>
<!-- Node26&#45;&gt;Node7 -->
<g id="edge46" class="edge">
<title>Node26&#45;&gt;Node7</title>
<path fill="none" stroke="midnightblue" d="M1237.72,-179.24C1238.43,-160.74 1236.55,-128.84 1217.5,-112 1192.04,-89.49 983.7,-76.02 869.96,-70.27"/>
<polygon fill="midnightblue" stroke="midnightblue" points="870.09,-66.78 859.93,-69.78 869.74,-73.77 870.09,-66.78"/>
</g>
<!-- Node26&#45;&gt;Node13 -->
<g id="edge45" class="edge">
<title>Node26&#45;&gt;Node13</title>
<path fill="none" stroke="midnightblue" d="M1178.24,-181.95C1113.81,-169.19 1011.42,-148.9 953.08,-137.33"/>
<polygon fill="midnightblue" stroke="midnightblue" points="953.55,-133.86 943.06,-135.35 952.19,-140.73 953.55,-133.86"/>
</g>
<!-- Node26&#45;&gt;Node25 -->
<g id="edge47" class="edge">
<title>Node26&#45;&gt;Node25</title>
<path fill="none" stroke="midnightblue" d="M1217.84,-179.4C1206.01,-170.45 1190.51,-158.74 1177.36,-148.8"/>
<polygon fill="midnightblue" stroke="midnightblue" points="1179.21,-145.81 1169.12,-142.58 1174.99,-151.4 1179.21,-145.81"/>
</g>
<!-- Node26&#45;&gt;Node27 -->
<g id="edge44" class="edge">
<title>Node26&#45;&gt;Node27</title>
<path fill="none" stroke="midnightblue" d="M1249.95,-179.4C1259.72,-169.16 1272.94,-155.3 1283.12,-144.62"/>
<polygon fill="midnightblue" stroke="midnightblue" points="1285.84,-146.85 1290.21,-137.19 1280.77,-142.01 1285.84,-146.85"/>
</g>
</g>
</svg>
