<?xml version="1.0" encoding="UTF-8" standalone="no"?>
<!DOCTYPE svg PUBLIC "-//W3C//DTD SVG 1.1//EN"
 "http://www.w3.org/Graphics/SVG/1.1/DTD/svg11.dtd">
<!-- Generated by graphviz version 2.43.0 (0)
 -->
<!-- Title: bio::alphabet::gap Pages: 1 -->
<svg width="804pt" height="235pt"
 viewBox="0.00 0.00 804.00 235.00" xmlns="http://www.w3.org/2000/svg" xmlns:xlink="http://www.w3.org/1999/xlink">
<g id="graph0" class="graph" transform="scale(1 1) rotate(0) translate(4 231)">
<title>bio::alphabet::gap</title>
<polygon fill="white" stroke="transparent" points="-4,4 -4,-231 800,-231 800,4 -4,4"/>
<!-- Node1 -->
<g id="node1" class="node">
<title>Node1</title>
<g id="a_node1"><a xlink:title="The alphabet of a gap character &#39;&#45;&#39;.">
<polygon fill="#bfbfbf" stroke="black" points="692,-93.5 692,-112.5 796,-112.5 796,-93.5 692,-93.5"/>
<text text-anchor="middle" x="744" y="-100.5" font-family="Helvetica,sans-Serif" font-size="10.00">bio::alphabet::gap</text>
</a>
</g>
</g>
<!-- Node2 -->
<g id="node2" class="node">
<title>Node2</title>
<g id="a_node2"><a xlink:href="interfacebio_1_1alphabet_1_1writable__alphabet.html" target="_top" xlink:title="Refines bio::alphabet::alphabet and adds assignability.">
<polygon fill="white" stroke="black" points="548,-169.5 548,-188.5 652,-188.5 652,-169.5 548,-169.5"/>
<text text-anchor="middle" x="600" y="-176.5" font-family="Helvetica,sans-Serif" font-size="10.00">writable_alphabet</text>
</a>
</g>
</g>
<!-- Node2&#45;&gt;Node1 -->
<g id="edge1" class="edge">
<title>Node2&#45;&gt;Node1</title>
<path fill="none" stroke="midnightblue" d="M641.51,-165.93C646.13,-164.09 650.71,-162.11 655,-160 683.43,-146.04 713.87,-124.72 730.45,-112.5"/>
<polygon fill="midnightblue" stroke="midnightblue" points="640.2,-162.68 632.07,-169.48 642.67,-169.23 640.2,-162.68"/>
</g>
<!-- Node3 -->
<g id="node3" class="node">
<title>Node3</title>
<g id="a_node3"><a xlink:href="interfacebio_1_1alphabet_1_1alphabet.html" target="_top" xlink:title="The generic alphabet concept that covers most data types used in ranges.">
<polygon fill="white" stroke="black" points="320.5,-207.5 320.5,-226.5 379.5,-226.5 379.5,-207.5 320.5,-207.5"/>
<text text-anchor="middle" x="350" y="-214.5" font-family="Helvetica,sans-Serif" font-size="10.00">alphabet</text>
</a>
</g>
</g>
<!-- Node3&#45;&gt;Node2 -->
<g id="edge2" class="edge">
<title>Node3&#45;&gt;Node2</title>
<path fill="none" stroke="midnightblue" d="M389.74,-212.36C425.46,-207.92 479.92,-200.78 527,-193 535.04,-191.67 543.56,-190.13 551.82,-188.57"/>
<polygon fill="midnightblue" stroke="midnightblue" points="389.23,-208.89 379.73,-213.59 390.08,-215.84 389.23,-208.89"/>
</g>
<!-- Node4 -->
<g id="node4" class="node">
<title>Node4</title>
<g id="a_node4"><a xlink:href="interfacebio_1_1alphabet_1_1semialphabet.html" target="_top" xlink:title="The basis for bio::alphabet::alphabet, but requires only rank interface (not char).">
<polygon fill="white" stroke="black" points="166,-187.5 166,-206.5 249,-206.5 249,-187.5 166,-187.5"/>
<text text-anchor="middle" x="207.5" y="-194.5" font-family="Helvetica,sans-Serif" font-size="10.00">semialphabet</text>
</a>
</g>
</g>
<!-- Node4&#45;&gt;Node3 -->
<g id="edge3" class="edge">
<title>Node4&#45;&gt;Node3</title>
<path fill="none" stroke="midnightblue" d="M259.05,-204.2C279.71,-207.14 302.85,-210.43 320.49,-212.94"/>
<polygon fill="midnightblue" stroke="midnightblue" points="259.53,-200.73 249.14,-202.78 258.55,-207.66 259.53,-200.73"/>
</g>
<!-- Node7 -->
<g id="node7" class="node">
<title>Node7</title>
<g id="a_node7"><a xlink:href="interfacebio_1_1alphabet_1_1writable__semialphabet.html" target="_top" xlink:title="A refinement of bio::alphabet::semialphabet that adds assignability.">
<polygon fill="white" stroke="black" points="286,-169.5 286,-188.5 414,-188.5 414,-169.5 286,-169.5"/>
<text text-anchor="middle" x="350" y="-176.5" font-family="Helvetica,sans-Serif" font-size="10.00">writable_semialphabet</text>
</a>
</g>
</g>
<!-- Node4&#45;&gt;Node7 -->
<g id="edge7" class="edge">
<title>Node4&#45;&gt;Node7</title>
<path fill="none" stroke="midnightblue" d="M259.12,-190.51C267.83,-189.4 276.97,-188.23 285.95,-187.08"/>
<polygon fill="midnightblue" stroke="midnightblue" points="258.61,-187.05 249.14,-191.79 259.5,-193.99 258.61,-187.05"/>
</g>
<!-- Node5 -->
<g id="node5" class="node">
<title>Node5</title>
<g id="a_node5"><a xlink:title=" ">
<polygon fill="white" stroke="#bfbfbf" points="8.5,-206.5 8.5,-225.5 120.5,-225.5 120.5,-206.5 8.5,-206.5"/>
<text text-anchor="middle" x="64.5" y="-213.5" font-family="Helvetica,sans-Serif" font-size="10.00">std::totally_ordered</text>
</a>
</g>
</g>
<!-- Node5&#45;&gt;Node4 -->
<g id="edge4" class="edge">
<title>Node5&#45;&gt;Node4</title>
<path fill="none" stroke="midnightblue" d="M130.75,-207.21C142.67,-205.6 154.78,-203.97 165.72,-202.49"/>
<polygon fill="midnightblue" stroke="midnightblue" points="130.27,-203.74 120.82,-208.55 131.2,-210.68 130.27,-203.74"/>
</g>
<!-- Node6 -->
<g id="node6" class="node">
<title>Node6</title>
<g id="a_node6"><a xlink:title=" ">
<polygon fill="white" stroke="#bfbfbf" points="0,-168.5 0,-187.5 129,-187.5 129,-168.5 0,-168.5"/>
<text text-anchor="middle" x="64.5" y="-175.5" font-family="Helvetica,sans-Serif" font-size="10.00">std::copy_constructible</text>
</a>
</g>
</g>
<!-- Node6&#45;&gt;Node4 -->
<g id="edge5" class="edge">
<title>Node6&#45;&gt;Node4</title>
<path fill="none" stroke="midnightblue" d="M139.59,-187.98C148.62,-189.2 157.56,-190.41 165.84,-191.52"/>
<polygon fill="midnightblue" stroke="midnightblue" points="139.78,-184.48 129.4,-186.61 138.84,-191.41 139.78,-184.48"/>
</g>
<!-- Node7&#45;&gt;Node2 -->
<g id="edge6" class="edge">
<title>Node7&#45;&gt;Node2</title>
<path fill="none" stroke="midnightblue" d="M424.4,-179C464.17,-179 512.33,-179 547.98,-179"/>
<polygon fill="midnightblue" stroke="midnightblue" points="424.22,-175.5 414.22,-179 424.22,-182.5 424.22,-175.5"/>
</g>
<!-- Node8 -->
<g id="node8" class="node">
<title>Node8</title>
<g id="a_node8"><a xlink:href="interfacebio_1_1meta_1_1trivially__copyable.html" target="_top" xlink:title="A type that satisfies std::is_trivially_copyable_v&lt;t&gt;.">
<polygon fill="white" stroke="black" points="548,-131.5 548,-150.5 652,-150.5 652,-131.5 548,-131.5"/>
<text text-anchor="middle" x="600" y="-138.5" font-family="Helvetica,sans-Serif" font-size="10.00">trivially_copyable</text>
</a>
</g>
</g>
<!-- Node8&#45;&gt;Node1 -->
<g id="edge8" class="edge">
<title>Node8&#45;&gt;Node1</title>
<path fill="none" stroke="midnightblue" d="M646.49,-128.83C666.13,-123.57 688.77,-117.51 707.18,-112.59"/>
<polygon fill="midnightblue" stroke="midnightblue" points="645.59,-125.44 636.83,-131.41 647.4,-132.21 645.59,-125.44"/>
</g>
<!-- Node9 -->
<g id="node9" class="node">
<title>Node9</title>
<g id="a_node9"><a xlink:title=" ">
<polygon fill="white" stroke="#bfbfbf" points="309,-131.5 309,-150.5 391,-150.5 391,-131.5 309,-131.5"/>
<text text-anchor="middle" x="350" y="-138.5" font-family="Helvetica,sans-Serif" font-size="10.00">std::copyable</text>
</a>
</g>
</g>
<!-- Node9&#45;&gt;Node8 -->
<g id="edge9" class="edge">
<title>Node9&#45;&gt;Node8</title>
<path fill="none" stroke="midnightblue" d="M401.28,-141C443.92,-141 504.83,-141 547.75,-141"/>
<polygon fill="midnightblue" stroke="midnightblue" points="401.12,-137.5 391.12,-141 401.12,-144.5 401.12,-137.5"/>
</g>
<!-- Node10 -->
<g id="node10" class="node">
<title>Node10</title>
<g id="a_node10"><a xlink:href="interfacebio_1_1meta_1_1standard__layout.html" target="_top" xlink:title="Resolves to std::is_standard_layout_v&lt;t&gt;.">
<polygon fill="white" stroke="black" points="552.5,-93.5 552.5,-112.5 647.5,-112.5 647.5,-93.5 552.5,-93.5"/>
<text text-anchor="middle" x="600" y="-100.5" font-family="Helvetica,sans-Serif" font-size="10.00">standard_layout</text>
</a>
</g>
</g>
<!-- Node10&#45;&gt;Node1 -->
<g id="edge10" class="edge">
<title>Node10&#45;&gt;Node1</title>
<path fill="none" stroke="midnightblue" d="M657.98,-103C669.14,-103 680.79,-103 691.76,-103"/>
<polygon fill="midnightblue" stroke="midnightblue" points="657.89,-99.5 647.89,-103 657.89,-106.5 657.89,-99.5"/>
</g>
<!-- Node11 -->
<g id="node11" class="node">
<title>Node11</title>
<g id="a_node11"><a xlink:title=" ">
<polygon fill="white" stroke="#bfbfbf" points="564,-55.5 564,-74.5 636,-74.5 636,-55.5 564,-55.5"/>
<text text-anchor="middle" x="600" y="-62.5" font-family="Helvetica,sans-Serif" font-size="10.00">std::regular</text>
</a>
</g>
</g>
<!-- Node11&#45;&gt;Node1 -->
<g id="edge11" class="edge">
<title>Node11&#45;&gt;Node1</title>
<path fill="none" stroke="midnightblue" d="M645.85,-77C665.68,-82.31 688.68,-88.46 707.32,-93.45"/>
<polygon fill="midnightblue" stroke="midnightblue" points="646.67,-73.6 636.1,-74.39 644.86,-80.36 646.67,-73.6"/>
</g>
<!-- Node12 -->
<g id="node12" class="node">
<title>Node12</title>
<g id="a_node12"><a xlink:href="classbio_1_1alphabet_1_1base.html" target="_top" xlink:title=" ">
<polygon fill="white" stroke="black" points="545,-6 545,-36 655,-36 655,-6 545,-6"/>
<text text-anchor="start" x="553" y="-24" font-family="Helvetica,sans-Serif" font-size="10.00">bio::alphabet::base</text>
<text text-anchor="middle" x="600" y="-13" font-family="Helvetica,sans-Serif" font-size="10.00">&lt; gap, 1ull, char &gt;</text>
</a>
</g>
</g>
<!-- Node12&#45;&gt;Node1 -->
<g id="edge12" class="edge">
<title>Node12&#45;&gt;Node1</title>
<path fill="none" stroke="midnightblue" d="M644.38,-40.42C648.01,-42.25 651.59,-44.12 655,-46 682.25,-61.04 712.36,-81.42 729.35,-93.29"/>
<polygon fill="midnightblue" stroke="midnightblue" points="645.88,-37.26 635.35,-36.02 642.81,-43.55 645.88,-37.26"/>
</g>
<!-- Node13 -->
<g id="node13" class="node">
<title>Node13</title>
<g id="a_node13"><a xlink:href="classbio_1_1alphabet_1_1base.html" target="_top" xlink:title="A CRTP&#45;base that makes defining a custom alphabet easier.">
<polygon fill="white" stroke="black" points="290,-0.5 290,-41.5 410,-41.5 410,-0.5 290,-0.5"/>
<text text-anchor="start" x="298" y="-29.5" font-family="Helvetica,sans-Serif" font-size="10.00">bio::alphabet::base</text>
<text text-anchor="start" x="298" y="-18.5" font-family="Helvetica,sans-Serif" font-size="10.00">&lt; derived_type, size,</text>
<text text-anchor="middle" x="350" y="-7.5" font-family="Helvetica,sans-Serif" font-size="10.00"> char_t &gt;</text>
</a>
</g>
</g>
<!-- Node13&#45;&gt;Node12 -->
<g id="edge13" class="edge">
<title>Node13&#45;&gt;Node12</title>
<path fill="none" stroke="orange" stroke-dasharray="5,2" d="M420.13,-21C459.46,-21 508.01,-21 544.6,-21"/>
<polygon fill="orange" stroke="orange" points="420.09,-17.5 410.09,-21 420.09,-24.5 420.09,-17.5"/>
<text text-anchor="middle" x="479.5" y="-24" font-family="Helvetica,sans-Serif" font-size="10.00"> &lt; gap, 1ull, char &gt;</text>
</g>
</g>
</svg>
