<?xml version="1.0" encoding="UTF-8" standalone="no"?>
<!DOCTYPE svg PUBLIC "-//W3C//DTD SVG 1.1//EN"
 "http://www.w3.org/Graphics/SVG/1.1/DTD/svg11.dtd">
<!-- Generated by graphviz version 2.43.0 (0)
 -->
<!-- Title: bio::alphabet::aa27 Pages: 1 -->
<svg width="1114pt" height="291pt"
 viewBox="0.00 0.00 1114.00 291.00" xmlns="http://www.w3.org/2000/svg" xmlns:xlink="http://www.w3.org/1999/xlink">
<g id="graph0" class="graph" transform="scale(1 1) rotate(0) translate(4 287)">
<title>bio::alphabet::aa27</title>
<polygon fill="white" stroke="transparent" points="-4,4 -4,-287 1110,-287 1110,4 -4,4"/>
<!-- Node1 -->
<g id="node1" class="node">
<title>Node1</title>
<g id="a_node1"><a xlink:title="The twenty&#45;seven letter amino acid alphabet..">
<polygon fill="#bfbfbf" stroke="black" points="996,-161.5 996,-180.5 1106,-180.5 1106,-161.5 996,-161.5"/>
<text text-anchor="middle" x="1051" y="-168.5" font-family="Helvetica,sans-Serif" font-size="10.00">bio::alphabet::aa27</text>
</a>
</g>
</g>
<!-- Node2 -->
<g id="node2" class="node">
<title>Node2</title>
<g id="a_node2"><a xlink:href="interfacebio_1_1alphabet_1_1aminoacid__alphabet.html" target="_top" xlink:title="A concept that indicates whether an alphabet represents amino acids.">
<polygon fill="white" stroke="black" points="832.5,-263.5 832.5,-282.5 948.5,-282.5 948.5,-263.5 832.5,-263.5"/>
<text text-anchor="middle" x="890.5" y="-270.5" font-family="Helvetica,sans-Serif" font-size="10.00">aminoacid_alphabet</text>
</a>
</g>
</g>
<!-- Node2&#45;&gt;Node1 -->
<g id="edge1" class="edge">
<title>Node2&#45;&gt;Node1</title>
<path fill="none" stroke="midnightblue" d="M946.33,-259.96C950.72,-258.2 955,-256.22 959,-254 994.71,-234.17 1027.79,-197.73 1042.28,-180.5"/>
<polygon fill="midnightblue" stroke="midnightblue" points="944.82,-256.78 936.6,-263.47 947.2,-263.37 944.82,-256.78"/>
</g>
<!-- Node3 -->
<g id="node3" class="node">
<title>Node3</title>
<g id="a_node3"><a xlink:href="interfacebio_1_1alphabet_1_1alphabet.html" target="_top" xlink:title="The generic alphabet concept that covers most data types used in ranges.">
<polygon fill="white" stroke="black" points="610,-257.5 610,-276.5 669,-276.5 669,-257.5 610,-257.5"/>
<text text-anchor="middle" x="639.5" y="-264.5" font-family="Helvetica,sans-Serif" font-size="10.00">alphabet</text>
</a>
</g>
</g>
<!-- Node3&#45;&gt;Node2 -->
<g id="edge2" class="edge">
<title>Node3&#45;&gt;Node2</title>
<path fill="none" stroke="midnightblue" d="M679.18,-267.93C720.13,-268.92 785.21,-270.49 832.13,-271.62"/>
<polygon fill="midnightblue" stroke="midnightblue" points="679.14,-264.43 669.06,-267.69 678.98,-271.43 679.14,-264.43"/>
</g>
<!-- Node7 -->
<g id="node7" class="node">
<title>Node7</title>
<g id="a_node7"><a xlink:href="interfacebio_1_1alphabet_1_1writable__alphabet.html" target="_top" xlink:title="Refines bio::alphabet::alphabet and adds assignability.">
<polygon fill="white" stroke="black" points="838.5,-225.5 838.5,-244.5 942.5,-244.5 942.5,-225.5 838.5,-225.5"/>
<text text-anchor="middle" x="890.5" y="-232.5" font-family="Helvetica,sans-Serif" font-size="10.00">writable_alphabet</text>
</a>
</g>
</g>
<!-- Node3&#45;&gt;Node7 -->
<g id="edge7" class="edge">
<title>Node3&#45;&gt;Node7</title>
<path fill="none" stroke="midnightblue" d="M679.09,-262.04C721.89,-256.54 791.15,-247.64 838.43,-241.56"/>
<polygon fill="midnightblue" stroke="midnightblue" points="678.54,-258.58 669.06,-263.33 679.43,-265.53 678.54,-258.58"/>
</g>
<!-- Node4 -->
<g id="node4" class="node">
<title>Node4</title>
<g id="a_node4"><a xlink:href="interfacebio_1_1alphabet_1_1semialphabet.html" target="_top" xlink:title="The basis for bio::alphabet::alphabet, but requires only rank interface (not char).">
<polygon fill="white" stroke="black" points="299,-241.5 299,-260.5 382,-260.5 382,-241.5 299,-241.5"/>
<text text-anchor="middle" x="340.5" y="-248.5" font-family="Helvetica,sans-Serif" font-size="10.00">semialphabet</text>
</a>
</g>
</g>
<!-- Node4&#45;&gt;Node3 -->
<g id="edge3" class="edge">
<title>Node4&#45;&gt;Node3</title>
<path fill="none" stroke="midnightblue" d="M392.25,-253.73C455,-257.11 559.66,-262.75 609.89,-265.46"/>
<polygon fill="midnightblue" stroke="midnightblue" points="392.35,-250.23 382.17,-253.19 391.97,-257.22 392.35,-250.23"/>
</g>
<!-- Node8 -->
<g id="node8" class="node">
<title>Node8</title>
<g id="a_node8"><a xlink:href="interfacebio_1_1alphabet_1_1writable__semialphabet.html" target="_top" xlink:title="A refinement of bio::alphabet::semialphabet that adds assignability.">
<polygon fill="white" stroke="black" points="575.5,-219.5 575.5,-238.5 703.5,-238.5 703.5,-219.5 575.5,-219.5"/>
<text text-anchor="middle" x="639.5" y="-226.5" font-family="Helvetica,sans-Serif" font-size="10.00">writable_semialphabet</text>
</a>
</g>
</g>
<!-- Node4&#45;&gt;Node8 -->
<g id="edge9" class="edge">
<title>Node4&#45;&gt;Node8</title>
<path fill="none" stroke="midnightblue" d="M392.23,-247.24C442.81,-243.5 520.65,-237.73 575.25,-233.69"/>
<polygon fill="midnightblue" stroke="midnightblue" points="391.89,-243.76 382.17,-247.99 392.41,-250.74 391.89,-243.76"/>
</g>
<!-- Node5 -->
<g id="node5" class="node">
<title>Node5</title>
<g id="a_node5"><a xlink:title=" ">
<polygon fill="white" stroke="#bfbfbf" points="8.5,-260.5 8.5,-279.5 120.5,-279.5 120.5,-260.5 8.5,-260.5"/>
<text text-anchor="middle" x="64.5" y="-267.5" font-family="Helvetica,sans-Serif" font-size="10.00">std::totally_ordered</text>
</a>
</g>
</g>
<!-- Node5&#45;&gt;Node4 -->
<g id="edge4" class="edge">
<title>Node5&#45;&gt;Node4</title>
<path fill="none" stroke="midnightblue" d="M130.78,-265.47C182.93,-261.86 254.4,-256.9 298.73,-253.83"/>
<polygon fill="midnightblue" stroke="midnightblue" points="130.35,-261.99 120.62,-266.18 130.84,-268.98 130.35,-261.99"/>
</g>
<!-- Node6 -->
<g id="node6" class="node">
<title>Node6</title>
<g id="a_node6"><a xlink:title=" ">
<polygon fill="white" stroke="#bfbfbf" points="0,-222.5 0,-241.5 129,-241.5 129,-222.5 0,-222.5"/>
<text text-anchor="middle" x="64.5" y="-229.5" font-family="Helvetica,sans-Serif" font-size="10.00">std::copy_constructible</text>
</a>
</g>
</g>
<!-- Node6&#45;&gt;Node4 -->
<g id="edge5" class="edge">
<title>Node6&#45;&gt;Node4</title>
<path fill="none" stroke="midnightblue" d="M139.09,-237.1C190.35,-240.66 256.8,-245.27 298.81,-248.18"/>
<polygon fill="midnightblue" stroke="midnightblue" points="139.27,-233.61 129.05,-236.41 138.78,-240.59 139.27,-233.61"/>
</g>
<!-- Node7&#45;&gt;Node1 -->
<g id="edge6" class="edge">
<title>Node7&#45;&gt;Node1</title>
<path fill="none" stroke="midnightblue" d="M940.1,-222.49C946.52,-220.5 952.96,-218.32 959,-216 985.65,-205.76 1015.01,-190.46 1032.98,-180.6"/>
<polygon fill="midnightblue" stroke="midnightblue" points="938.69,-219.26 930.1,-225.46 940.68,-225.97 938.69,-219.26"/>
</g>
<!-- Node8&#45;&gt;Node7 -->
<g id="edge8" class="edge">
<title>Node8&#45;&gt;Node7</title>
<path fill="none" stroke="midnightblue" d="M713.88,-230.77C753.82,-231.73 802.26,-232.9 838.14,-233.76"/>
<polygon fill="midnightblue" stroke="midnightblue" points="713.74,-227.26 703.66,-230.52 713.57,-234.26 713.74,-227.26"/>
</g>
<!-- Node9 -->
<g id="node9" class="node">
<title>Node9</title>
<g id="a_node9"><a xlink:href="interfacebio_1_1meta_1_1trivially__copyable.html" target="_top" xlink:title="A type that satisfies std::is_trivially_copyable_v&lt;t&gt;.">
<polygon fill="white" stroke="black" points="838.5,-187.5 838.5,-206.5 942.5,-206.5 942.5,-187.5 838.5,-187.5"/>
<text text-anchor="middle" x="890.5" y="-194.5" font-family="Helvetica,sans-Serif" font-size="10.00">trivially_copyable</text>
</a>
</g>
</g>
<!-- Node9&#45;&gt;Node1 -->
<g id="edge10" class="edge">
<title>Node9&#45;&gt;Node1</title>
<path fill="none" stroke="midnightblue" d="M952.69,-186.96C966.89,-184.63 981.91,-182.17 995.79,-179.89"/>
<polygon fill="midnightblue" stroke="midnightblue" points="951.82,-183.56 942.52,-188.63 952.96,-190.47 951.82,-183.56"/>
</g>
<!-- Node10 -->
<g id="node10" class="node">
<title>Node10</title>
<g id="a_node10"><a xlink:title=" ">
<polygon fill="white" stroke="#bfbfbf" points="598.5,-181.5 598.5,-200.5 680.5,-200.5 680.5,-181.5 598.5,-181.5"/>
<text text-anchor="middle" x="639.5" y="-188.5" font-family="Helvetica,sans-Serif" font-size="10.00">std::copyable</text>
</a>
</g>
</g>
<!-- Node10&#45;&gt;Node9 -->
<g id="edge11" class="edge">
<title>Node10&#45;&gt;Node9</title>
<path fill="none" stroke="midnightblue" d="M690.73,-192.21C733.67,-193.24 795.18,-194.73 838.38,-195.77"/>
<polygon fill="midnightblue" stroke="midnightblue" points="690.59,-188.71 680.51,-191.96 690.42,-195.7 690.59,-188.71"/>
</g>
<!-- Node11 -->
<g id="node11" class="node">
<title>Node11</title>
<g id="a_node11"><a xlink:href="interfacebio_1_1meta_1_1standard__layout.html" target="_top" xlink:title="Resolves to std::is_standard_layout_v&lt;t&gt;.">
<polygon fill="white" stroke="black" points="843,-149.5 843,-168.5 938,-168.5 938,-149.5 843,-149.5"/>
<text text-anchor="middle" x="890.5" y="-156.5" font-family="Helvetica,sans-Serif" font-size="10.00">standard_layout</text>
</a>
</g>
</g>
<!-- Node11&#45;&gt;Node1 -->
<g id="edge12" class="edge">
<title>Node11&#45;&gt;Node1</title>
<path fill="none" stroke="midnightblue" d="M948.18,-163.29C963.69,-164.47 980.46,-165.74 995.83,-166.9"/>
<polygon fill="midnightblue" stroke="midnightblue" points="948.43,-159.8 938.2,-162.54 947.91,-166.78 948.43,-159.8"/>
</g>
<!-- Node12 -->
<g id="node12" class="node">
<title>Node12</title>
<g id="a_node12"><a xlink:title=" ">
<polygon fill="white" stroke="#bfbfbf" points="854.5,-111.5 854.5,-130.5 926.5,-130.5 926.5,-111.5 854.5,-111.5"/>
<text text-anchor="middle" x="890.5" y="-118.5" font-family="Helvetica,sans-Serif" font-size="10.00">std::regular</text>
</a>
</g>
</g>
<!-- Node12&#45;&gt;Node1 -->
<g id="edge13" class="edge">
<title>Node12&#45;&gt;Node1</title>
<path fill="none" stroke="midnightblue" d="M936.41,-133.28C943.97,-135.45 951.72,-137.74 959,-140 980.68,-146.74 1005,-155.07 1023.05,-161.39"/>
<polygon fill="midnightblue" stroke="midnightblue" points="937.22,-129.87 926.64,-130.5 935.3,-136.6 937.22,-129.87"/>
</g>
<!-- Node13 -->
<g id="node13" class="node">
<title>Node13</title>
<g id="a_node13"><a xlink:href="classbio_1_1alphabet_1_1aminoacid__base.html" target="_top" xlink:title=" ">
<polygon fill="white" stroke="black" points="822,-62 822,-92 959,-92 959,-62 822,-62"/>
<text text-anchor="start" x="830" y="-80" font-family="Helvetica,sans-Serif" font-size="10.00">bio::alphabet::aminoacid</text>
<text text-anchor="middle" x="890.5" y="-69" font-family="Helvetica,sans-Serif" font-size="10.00">_base&lt; aa27, 27 &gt;</text>
</a>
</g>
</g>
<!-- Node13&#45;&gt;Node1 -->
<g id="edge14" class="edge">
<title>Node13&#45;&gt;Node1</title>
<path fill="none" stroke="midnightblue" d="M946.89,-95.98C951.06,-97.87 955.14,-99.88 959,-102 990.64,-119.35 1023.28,-146.91 1039.52,-161.39"/>
<polygon fill="midnightblue" stroke="midnightblue" points="948.27,-92.76 937.7,-92.04 945.51,-99.19 948.27,-92.76"/>
</g>
<!-- Node14 -->
<g id="node14" class="node">
<title>Node14</title>
<g id="a_node14"><a xlink:href="structbio_1_1alphabet_1_1aminoacid__empty__base.html" target="_top" xlink:title="This is an empty base class that can be inherited by types that shall model bio::alphabet::aminoacid_...">
<polygon fill="white" stroke="black" points="272,-61 272,-91 409,-91 409,-61 272,-61"/>
<text text-anchor="start" x="280" y="-79" font-family="Helvetica,sans-Serif" font-size="10.00">bio::alphabet::aminoacid</text>
<text text-anchor="middle" x="340.5" y="-68" font-family="Helvetica,sans-Serif" font-size="10.00">_empty_base</text>
</a>
</g>
</g>
<!-- Node14&#45;&gt;Node13 -->
<g id="edge15" class="edge">
<title>Node14&#45;&gt;Node13</title>
<path fill="none" stroke="midnightblue" d="M419.4,-76.14C527.16,-76.34 719.91,-76.69 821.91,-76.88"/>
<polygon fill="midnightblue" stroke="midnightblue" points="419.25,-72.64 409.25,-76.12 419.24,-79.64 419.25,-72.64"/>
</g>
<!-- Node17 -->
<g id="node17" class="node">
<title>Node17</title>
<g id="a_node17"><a xlink:href="classbio_1_1alphabet_1_1aminoacid__base.html" target="_top" xlink:title="A CRTP&#45;base that refines bio::alphabet::base and is used by the amino acids.">
<polygon fill="white" stroke="black" points="561,-18 561,-48 718,-48 718,-18 561,-18"/>
<text text-anchor="start" x="569" y="-36" font-family="Helvetica,sans-Serif" font-size="10.00">bio::alphabet::aminoacid</text>
<text text-anchor="middle" x="639.5" y="-25" font-family="Helvetica,sans-Serif" font-size="10.00">_base&lt; derived_type, size &gt;</text>
</a>
</g>
</g>
<!-- Node14&#45;&gt;Node17 -->
<g id="edge19" class="edge">
<title>Node14&#45;&gt;Node17</title>
<path fill="none" stroke="midnightblue" d="M419.26,-64.74C462.9,-58.42 517.17,-50.57 560.8,-44.25"/>
<polygon fill="midnightblue" stroke="midnightblue" points="418.66,-61.29 409.27,-66.19 419.66,-68.22 418.66,-61.29"/>
</g>
<!-- Node15 -->
<g id="node15" class="node">
<title>Node15</title>
<g id="a_node15"><a xlink:href="classbio_1_1alphabet_1_1base.html" target="_top" xlink:title=" ">
<polygon fill="white" stroke="black" points="427,-102 427,-132 543,-132 543,-102 427,-102"/>
<text text-anchor="start" x="435" y="-120" font-family="Helvetica,sans-Serif" font-size="10.00">bio::alphabet::base</text>
<text text-anchor="middle" x="485" y="-109" font-family="Helvetica,sans-Serif" font-size="10.00">&lt; aa27, size, char &gt;</text>
</a>
</g>
</g>
<!-- Node15&#45;&gt;Node13 -->
<g id="edge16" class="edge">
<title>Node15&#45;&gt;Node13</title>
<path fill="none" stroke="midnightblue" d="M553.04,-113.1C617.51,-108.97 717.63,-101.58 804,-91 809.82,-90.29 815.86,-89.47 821.9,-88.59"/>
<polygon fill="midnightblue" stroke="midnightblue" points="552.77,-109.61 543.01,-113.73 553.21,-116.59 552.77,-109.61"/>
</g>
<!-- Node16 -->
<g id="node16" class="node">
<title>Node16</title>
<g id="a_node16"><a xlink:href="classbio_1_1alphabet_1_1base.html" target="_top" xlink:title="A CRTP&#45;base that makes defining a custom alphabet easier.">
<polygon fill="white" stroke="black" points="4.5,-63.5 4.5,-104.5 124.5,-104.5 124.5,-63.5 4.5,-63.5"/>
<text text-anchor="start" x="12.5" y="-92.5" font-family="Helvetica,sans-Serif" font-size="10.00">bio::alphabet::base</text>
<text text-anchor="start" x="12.5" y="-81.5" font-family="Helvetica,sans-Serif" font-size="10.00">&lt; derived_type, size,</text>
<text text-anchor="middle" x="64.5" y="-70.5" font-family="Helvetica,sans-Serif" font-size="10.00"> char_t &gt;</text>
</a>
</g>
</g>
<!-- Node16&#45;&gt;Node15 -->
<g id="edge17" class="edge">
<title>Node16&#45;&gt;Node15</title>
<path fill="none" stroke="orange" stroke-dasharray="5,2" d="M134.76,-89.46C216.5,-95.91 350.87,-106.5 426.9,-112.5"/>
<polygon fill="orange" stroke="orange" points="134.82,-85.96 124.57,-88.66 134.27,-92.93 134.82,-85.96"/>
<text text-anchor="middle" x="200.5" y="-102" font-family="Helvetica,sans-Serif" font-size="10.00"> &lt; aa27, size, char &gt;</text>
</g>
<!-- Node18 -->
<g id="node18" class="node">
<title>Node18</title>
<g id="a_node18"><a xlink:href="classbio_1_1alphabet_1_1base.html" target="_top" xlink:title=" ">
<polygon fill="white" stroke="black" points="280.5,-0.5 280.5,-41.5 400.5,-41.5 400.5,-0.5 280.5,-0.5"/>
<text text-anchor="start" x="288.5" y="-29.5" font-family="Helvetica,sans-Serif" font-size="10.00">bio::alphabet::base</text>
<text text-anchor="start" x="288.5" y="-18.5" font-family="Helvetica,sans-Serif" font-size="10.00">&lt; derived_type, size,</text>
<text text-anchor="middle" x="340.5" y="-7.5" font-family="Helvetica,sans-Serif" font-size="10.00"> char &gt;</text>
</a>
</g>
</g>
<!-- Node16&#45;&gt;Node18 -->
<g id="edge21" class="edge">
<title>Node16&#45;&gt;Node18</title>
<path fill="none" stroke="orange" stroke-dasharray="5,2" d="M134.59,-68.11C179.58,-57.77 237.66,-44.42 280.49,-34.57"/>
<polygon fill="orange" stroke="orange" points="133.58,-64.76 124.62,-70.41 135.15,-71.58 133.58,-64.76"/>
<text text-anchor="start" x="147" y="-78" font-family="Helvetica,sans-Serif" font-size="10.00"> &lt; derived_type, size,</text>
<text text-anchor="middle" x="200.5" y="-67" font-family="Helvetica,sans-Serif" font-size="10.00"> char &gt;</text>
</g>
<!-- Node17&#45;&gt;Node13 -->
<g id="edge18" class="edge">
<title>Node17&#45;&gt;Node13</title>
<path fill="none" stroke="orange" stroke-dasharray="5,2" d="M728.32,-40.45C752.94,-43.28 779.63,-47.06 804,-52 816.88,-54.61 830.64,-58.25 843.26,-61.94"/>
<polygon fill="orange" stroke="orange" points="728.6,-36.96 718.27,-39.33 727.82,-43.91 728.6,-36.96"/>
<text text-anchor="middle" x="770" y="-55" font-family="Helvetica,sans-Serif" font-size="10.00"> &lt; aa27, 27 &gt;</text>
</g>
<!-- Node18&#45;&gt;Node17 -->
<g id="edge20" class="edge">
<title>Node18&#45;&gt;Node17</title>
<path fill="none" stroke="midnightblue" d="M410.78,-23.8C455.76,-25.62 514.46,-27.99 560.99,-29.87"/>
<polygon fill="midnightblue" stroke="midnightblue" points="410.67,-20.29 400.53,-23.39 410.38,-27.29 410.67,-20.29"/>
</g>
</g>
</svg>
