<?xml version="1.0" encoding="UTF-8" standalone="no"?>
<!DOCTYPE svg PUBLIC "-//W3C//DTD SVG 1.1//EN"
 "http://www.w3.org/Graphics/SVG/1.1/DTD/svg11.dtd">
<!-- Generated by graphviz version 2.42.2 ()
 -->
<!-- Title: bio::alphabet::masked&lt; sequence_alphabet_t &gt; Pages: 1 -->
<svg width="1359pt" height="223pt"
 viewBox="0.00 0.00 1359.00 222.50" xmlns="http://www.w3.org/2000/svg" xmlns:xlink="http://www.w3.org/1999/xlink">
<g id="graph0" class="graph" transform="scale(1 1) rotate(0) translate(4 218.5)">
<title>bio::alphabet::masked&lt; sequence_alphabet_t &gt;</title>
<polygon fill="white" stroke="transparent" points="-4,4 -4,-218.5 1355,-218.5 1355,4 -4,4"/>
<!-- Node1 -->
<g id="node1" class="node">
<title>Node1</title>
<g id="a_node1"><a xlink:title="Implementation of a masked composite, which extends a given alphabet with a mask..">
<polygon fill="#bfbfbf" stroke="black" points="1224,-113.5 1224,-143.5 1351,-143.5 1351,-113.5 1224,-113.5"/>
<text text-anchor="start" x="1232" y="-131.5" font-family="Helvetica,sans-Serif" font-size="10.00">bio::alphabet::masked</text>
<text text-anchor="middle" x="1287.5" y="-120.5" font-family="Helvetica,sans-Serif" font-size="10.00">&lt; sequence_alphabet_t &gt;</text>
</a>
</g>
</g>
<!-- Node2 -->
<g id="node2" class="node">
<title>Node2</title>
<g id="a_node2"><a xlink:href="interfacebio_1_1alphabet_1_1writable__alphabet.html" target="_top" xlink:title="Refines bio::alphabet::alphabet and adds assignability.">
<polygon fill="white" stroke="black" points="762.5,-195 762.5,-214 854.5,-214 854.5,-195 762.5,-195"/>
<text text-anchor="middle" x="808.5" y="-202" font-family="Helvetica,sans-Serif" font-size="10.00">writable_alphabet</text>
</a>
</g>
</g>
<!-- Node2&#45;&gt;Node1 -->
<g id="edge1" class="edge">
<title>Node2&#45;&gt;Node1</title>
<path fill="none" stroke="midnightblue" d="M864.93,-209.64C939.72,-214.8 1076.34,-217.95 1187,-185.5 1216.99,-176.7 1247.62,-157.26 1266.82,-143.53"/>
<polygon fill="midnightblue" stroke="midnightblue" points="865.02,-206.14 854.79,-208.9 864.51,-213.12 865.02,-206.14"/>
</g>
<!-- Node3 -->
<g id="node3" class="node">
<title>Node3</title>
<g id="a_node3"><a xlink:href="interfacebio_1_1alphabet_1_1alphabet.html" target="_top" xlink:title="The generic alphabet concept that covers most data types used in ranges.">
<polygon fill="white" stroke="black" points="470,-171 470,-190 523,-190 523,-171 470,-171"/>
<text text-anchor="middle" x="496.5" y="-178" font-family="Helvetica,sans-Serif" font-size="10.00">alphabet</text>
</a>
</g>
</g>
<!-- Node3&#45;&gt;Node2 -->
<g id="edge2" class="edge">
<title>Node3&#45;&gt;Node2</title>
<path fill="none" stroke="midnightblue" d="M533.41,-183.28C590.13,-187.67 700.38,-196.21 762.37,-201.01"/>
<polygon fill="midnightblue" stroke="midnightblue" points="533.37,-179.77 523.13,-182.48 532.83,-186.75 533.37,-179.77"/>
</g>
<!-- Node4 -->
<g id="node4" class="node">
<title>Node4</title>
<g id="a_node4"><a xlink:href="interfacebio_1_1alphabet_1_1semialphabet.html" target="_top" xlink:title="The basis for bio::alphabet::alphabet, but requires only rank interface (not char).">
<polygon fill="white" stroke="black" points="185,-151 185,-170 259,-170 259,-151 185,-151"/>
<text text-anchor="middle" x="222" y="-158" font-family="Helvetica,sans-Serif" font-size="10.00">semialphabet</text>
</a>
</g>
</g>
<!-- Node4&#45;&gt;Node3 -->
<g id="edge3" class="edge">
<title>Node4&#45;&gt;Node3</title>
<path fill="none" stroke="midnightblue" d="M269.5,-163.91C327.29,-168.15 423.86,-175.24 469.76,-178.61"/>
<polygon fill="midnightblue" stroke="midnightblue" points="269.42,-160.4 259.19,-163.16 268.9,-167.38 269.42,-160.4"/>
</g>
<!-- Node7 -->
<g id="node7" class="node">
<title>Node7</title>
<g id="a_node7"><a xlink:href="interfacebio_1_1alphabet_1_1writable__semialphabet.html" target="_top" xlink:title="A refinement of bio::alphabet::semialphabet that adds assignability.">
<polygon fill="white" stroke="black" points="440,-132 440,-151 553,-151 553,-132 440,-132"/>
<text text-anchor="middle" x="496.5" y="-139" font-family="Helvetica,sans-Serif" font-size="10.00">writable_semialphabet</text>
</a>
</g>
</g>
<!-- Node4&#45;&gt;Node7 -->
<g id="edge7" class="edge">
<title>Node4&#45;&gt;Node7</title>
<path fill="none" stroke="midnightblue" d="M269.41,-157.26C316.54,-153.98 389.54,-148.89 439.77,-145.39"/>
<polygon fill="midnightblue" stroke="midnightblue" points="268.92,-153.79 259.19,-157.98 269.41,-160.77 268.92,-153.79"/>
</g>
<!-- Node5 -->
<g id="node5" class="node">
<title>Node5</title>
<g id="a_node5"><a xlink:title=" ">
<polygon fill="white" stroke="#bfbfbf" points="9,-170 9,-189 109,-189 109,-170 9,-170"/>
<text text-anchor="middle" x="59" y="-177" font-family="Helvetica,sans-Serif" font-size="10.00">std::totally_ordered</text>
</a>
</g>
</g>
<!-- Node5&#45;&gt;Node4 -->
<g id="edge4" class="edge">
<title>Node5&#45;&gt;Node4</title>
<path fill="none" stroke="midnightblue" d="M119.12,-172.52C141.17,-169.92 165.53,-167.05 184.89,-164.76"/>
<polygon fill="midnightblue" stroke="midnightblue" points="118.7,-169.05 109.18,-173.7 119.52,-176 118.7,-169.05"/>
</g>
<!-- Node6 -->
<g id="node6" class="node">
<title>Node6</title>
<g id="a_node6"><a xlink:title=" ">
<polygon fill="white" stroke="#bfbfbf" points="0,-132 0,-151 118,-151 118,-132 0,-132"/>
<text text-anchor="middle" x="59" y="-139" font-family="Helvetica,sans-Serif" font-size="10.00">std::copy_constructible</text>
</a>
</g>
</g>
<!-- Node6&#45;&gt;Node4 -->
<g id="edge5" class="edge">
<title>Node6&#45;&gt;Node4</title>
<path fill="none" stroke="midnightblue" d="M128.21,-149.55C147.72,-151.85 168.22,-154.27 184.97,-156.25"/>
<polygon fill="midnightblue" stroke="midnightblue" points="128.47,-146.06 118.12,-148.36 127.65,-153.01 128.47,-146.06"/>
</g>
<!-- Node7&#45;&gt;Node2 -->
<g id="edge6" class="edge">
<title>Node7&#45;&gt;Node2</title>
<path fill="none" stroke="midnightblue" d="M562.98,-152.19C607.89,-159.84 668.75,-170.8 722,-182.5 738.77,-186.18 757.23,-190.85 772.69,-194.94"/>
<polygon fill="midnightblue" stroke="midnightblue" points="563.52,-148.73 553.08,-150.52 562.35,-155.64 563.52,-148.73"/>
</g>
<!-- Node12 -->
<g id="node12" class="node">
<title>Node12</title>
<g id="a_node12"><a xlink:href="classbio_1_1alphabet_1_1alphabet__tuple__base.html" target="_top" xlink:title=" ">
<polygon fill="white" stroke="black" points="1021,-9.5 1021,-61.5 1187,-61.5 1187,-9.5 1021,-9.5"/>
<text text-anchor="start" x="1029" y="-49.5" font-family="Helvetica,sans-Serif" font-size="10.00">bio::alphabet::alphabet</text>
<text text-anchor="start" x="1029" y="-38.5" font-family="Helvetica,sans-Serif" font-size="10.00">_tuple_base&lt; masked&lt; sequence</text>
<text text-anchor="start" x="1029" y="-27.5" font-family="Helvetica,sans-Serif" font-size="10.00">_alphabet_t &gt;, sequence_alphabet</text>
<text text-anchor="middle" x="1104" y="-16.5" font-family="Helvetica,sans-Serif" font-size="10.00">_t, mask &gt;</text>
</a>
</g>
</g>
<!-- Node7&#45;&gt;Node12 -->
<g id="edge13" class="edge">
<title>Node7&#45;&gt;Node12</title>
<path fill="none" stroke="midnightblue" d="M563.24,-143.84C683.12,-146.91 931.48,-147.43 1003,-102.5 1016.49,-94.03 1009.12,-82.12 1021,-71.5 1025.06,-67.87 1029.54,-64.57 1034.25,-61.56"/>
<polygon fill="midnightblue" stroke="midnightblue" points="563.19,-140.34 553.1,-143.56 563,-147.33 563.19,-140.34"/>
</g>
<!-- Node15 -->
<g id="node15" class="node">
<title>Node15</title>
<g id="a_node15"><a xlink:href="classbio_1_1alphabet_1_1alphabet__tuple__base.html" target="_top" xlink:title="The CRTP base for a combined alphabet that contains multiple values of different alphabets at the sam...">
<polygon fill="white" stroke="black" points="740,-58 740,-99 877,-99 877,-58 740,-58"/>
<text text-anchor="start" x="748" y="-87" font-family="Helvetica,sans-Serif" font-size="10.00">bio::alphabet::alphabet</text>
<text text-anchor="start" x="748" y="-76" font-family="Helvetica,sans-Serif" font-size="10.00">_tuple_base&lt; derived_type,</text>
<text text-anchor="middle" x="808.5" y="-65" font-family="Helvetica,sans-Serif" font-size="10.00"> component_types &gt;</text>
</a>
</g>
</g>
<!-- Node7&#45;&gt;Node15 -->
<g id="edge17" class="edge">
<title>Node7&#45;&gt;Node15</title>
<path fill="none" stroke="midnightblue" d="M534.46,-128.77C546.92,-124.78 560.97,-120.62 574,-117.5 629.26,-104.28 692.94,-93.97 739.82,-87.27"/>
<polygon fill="midnightblue" stroke="midnightblue" points="533.28,-125.47 524.86,-131.9 535.45,-132.13 533.28,-125.47"/>
</g>
<!-- Node8 -->
<g id="node8" class="node">
<title>Node8</title>
<g id="a_node8"><a xlink:href="interfacebio_1_1meta_1_1trivially__copyable.html" target="_top" xlink:title="A type that satisfies std::is_trivially_copyable_v&lt;t&gt;.">
<polygon fill="white" stroke="black" points="1058,-157 1058,-176 1150,-176 1150,-157 1058,-157"/>
<text text-anchor="middle" x="1104" y="-164" font-family="Helvetica,sans-Serif" font-size="10.00">trivially_copyable</text>
</a>
</g>
</g>
<!-- Node8&#45;&gt;Node1 -->
<g id="edge8" class="edge">
<title>Node8&#45;&gt;Node1</title>
<path fill="none" stroke="midnightblue" d="M1160.27,-154.93C1180.38,-150.72 1203.26,-145.93 1223.96,-141.59"/>
<polygon fill="midnightblue" stroke="midnightblue" points="1159.4,-151.53 1150.33,-157.01 1160.84,-158.39 1159.4,-151.53"/>
</g>
<!-- Node9 -->
<g id="node9" class="node">
<title>Node9</title>
<g id="a_node9"><a xlink:title=" ">
<polygon fill="white" stroke="#bfbfbf" points="771,-157 771,-176 846,-176 846,-157 771,-157"/>
<text text-anchor="middle" x="808.5" y="-164" font-family="Helvetica,sans-Serif" font-size="10.00">std::copyable</text>
</a>
</g>
</g>
<!-- Node9&#45;&gt;Node8 -->
<g id="edge9" class="edge">
<title>Node9&#45;&gt;Node8</title>
<path fill="none" stroke="midnightblue" d="M856.31,-166.5C911.65,-166.5 1003.12,-166.5 1057.77,-166.5"/>
<polygon fill="midnightblue" stroke="midnightblue" points="856.08,-163 846.08,-166.5 856.08,-170 856.08,-163"/>
</g>
<!-- Node10 -->
<g id="node10" class="node">
<title>Node10</title>
<g id="a_node10"><a xlink:href="interfacebio_1_1meta_1_1standard__layout.html" target="_top" xlink:title="Resolves to std::is_standard_layout_v&lt;t&gt;.">
<polygon fill="white" stroke="black" points="1061,-119 1061,-138 1147,-138 1147,-119 1061,-119"/>
<text text-anchor="middle" x="1104" y="-126" font-family="Helvetica,sans-Serif" font-size="10.00">standard_layout</text>
</a>
</g>
</g>
<!-- Node10&#45;&gt;Node1 -->
<g id="edge10" class="edge">
<title>Node10&#45;&gt;Node1</title>
<path fill="none" stroke="midnightblue" d="M1157.33,-128.5C1178.14,-128.5 1202.26,-128.5 1223.97,-128.5"/>
<polygon fill="midnightblue" stroke="midnightblue" points="1157.1,-125 1147.1,-128.5 1157.1,-132 1157.1,-125"/>
</g>
<!-- Node11 -->
<g id="node11" class="node">
<title>Node11</title>
<g id="a_node11"><a xlink:title=" ">
<polygon fill="white" stroke="#bfbfbf" points="1071.5,-81 1071.5,-100 1136.5,-100 1136.5,-81 1071.5,-81"/>
<text text-anchor="middle" x="1104" y="-88" font-family="Helvetica,sans-Serif" font-size="10.00">std::regular</text>
</a>
</g>
</g>
<!-- Node11&#45;&gt;Node1 -->
<g id="edge11" class="edge">
<title>Node11&#45;&gt;Node1</title>
<path fill="none" stroke="midnightblue" d="M1146.65,-99.22C1169.46,-104 1198.2,-110.01 1223.69,-115.35"/>
<polygon fill="midnightblue" stroke="midnightblue" points="1147.12,-95.74 1136.61,-97.12 1145.69,-102.59 1147.12,-95.74"/>
</g>
<!-- Node12&#45;&gt;Node1 -->
<g id="edge12" class="edge">
<title>Node12&#45;&gt;Node1</title>
<path fill="none" stroke="midnightblue" d="M1175.46,-65.85C1179.38,-67.72 1183.25,-69.61 1187,-71.5 1213.13,-84.67 1242.06,-101.51 1261.96,-113.46"/>
<polygon fill="midnightblue" stroke="midnightblue" points="1176.78,-62.6 1166.23,-61.52 1173.8,-68.94 1176.78,-62.6"/>
</g>
<!-- Node13 -->
<g id="node13" class="node">
<title>Node13</title>
<g id="a_node13"><a xlink:href="classbio_1_1alphabet_1_1alphabet__base.html" target="_top" xlink:title=" ">
<polygon fill="white" stroke="black" points="574,-0.5 574,-52.5 722,-52.5 722,-0.5 574,-0.5"/>
<text text-anchor="start" x="582" y="-40.5" font-family="Helvetica,sans-Serif" font-size="10.00">bio::alphabet::alphabet</text>
<text text-anchor="start" x="582" y="-29.5" font-family="Helvetica,sans-Serif" font-size="10.00">_base&lt; masked&lt; sequence</text>
<text text-anchor="start" x="582" y="-18.5" font-family="Helvetica,sans-Serif" font-size="10.00">_alphabet_t &gt;,(1 *... *size</text>
<text text-anchor="middle" x="648" y="-7.5" font-family="Helvetica,sans-Serif" font-size="10.00">&lt; component_types &gt;), void &gt;</text>
</a>
</g>
</g>
<!-- Node13&#45;&gt;Node12 -->
<g id="edge14" class="edge">
<title>Node13&#45;&gt;Node12</title>
<path fill="none" stroke="midnightblue" d="M732.24,-28.15C814.31,-29.78 938.99,-32.25 1020.73,-33.87"/>
<polygon fill="midnightblue" stroke="midnightblue" points="732.26,-24.65 722.2,-27.95 732.12,-31.65 732.26,-24.65"/>
</g>
<!-- Node14 -->
<g id="node14" class="node">
<title>Node14</title>
<g id="a_node14"><a xlink:href="classbio_1_1alphabet_1_1alphabet__base.html" target="_top" xlink:title="A CRTP&#45;base that makes defining a custom alphabet easier.">
<polygon fill="white" stroke="black" points="155,-58 155,-99 289,-99 289,-58 155,-58"/>
<text text-anchor="start" x="163" y="-87" font-family="Helvetica,sans-Serif" font-size="10.00">bio::alphabet::alphabet</text>
<text text-anchor="start" x="163" y="-76" font-family="Helvetica,sans-Serif" font-size="10.00">_base&lt; derived_type, size,</text>
<text text-anchor="middle" x="222" y="-65" font-family="Helvetica,sans-Serif" font-size="10.00"> char_t &gt;</text>
</a>
</g>
</g>
<!-- Node14&#45;&gt;Node13 -->
<g id="edge15" class="edge">
<title>Node14&#45;&gt;Node13</title>
<path fill="none" stroke="orange" stroke-dasharray="5,2" d="M260.21,-52.46C274.22,-44.1 290.72,-35.87 307,-31.5 396.51,-7.46 504.11,-11.02 573.94,-17.38"/>
<polygon fill="orange" stroke="orange" points="258.04,-49.69 251.39,-57.94 261.73,-55.64 258.04,-49.69"/>
<text text-anchor="start" x="307" y="-67.5" font-family="Helvetica,sans-Serif" font-size="10.00"> &lt; masked&lt; sequence</text>
<text text-anchor="start" x="307" y="-56.5" font-family="Helvetica,sans-Serif" font-size="10.00">_alphabet_t &gt;,(1 *...</text>
<text text-anchor="start" x="307" y="-45.5" font-family="Helvetica,sans-Serif" font-size="10.00"> *size&lt; component_types</text>
<text text-anchor="middle" x="363" y="-34.5" font-family="Helvetica,sans-Serif" font-size="10.00"> &gt;), void &gt;</text>
</g>
<!-- Node16 -->
<g id="node16" class="node">
<title>Node16</title>
<g id="a_node16"><a xlink:href="classbio_1_1alphabet_1_1alphabet__base.html" target="_top" xlink:title=" ">
<polygon fill="white" stroke="black" points="437,-58.5 437,-110.5 556,-110.5 556,-58.5 437,-58.5"/>
<text text-anchor="start" x="445" y="-98.5" font-family="Helvetica,sans-Serif" font-size="10.00">bio::alphabet::alphabet</text>
<text text-anchor="start" x="445" y="-87.5" font-family="Helvetica,sans-Serif" font-size="10.00">_base&lt; derived_type,(1</text>
<text text-anchor="start" x="445" y="-76.5" font-family="Helvetica,sans-Serif" font-size="10.00"> *... *size&lt; component</text>
<text text-anchor="middle" x="496.5" y="-65.5" font-family="Helvetica,sans-Serif" font-size="10.00">_types &gt;), void &gt;</text>
</a>
</g>
</g>
<!-- Node14&#45;&gt;Node16 -->
<g id="edge19" class="edge">
<title>Node14&#45;&gt;Node16</title>
<path fill="none" stroke="orange" stroke-dasharray="5,2" d="M299.56,-80.19C343.05,-81.14 396.64,-82.32 436.78,-83.21"/>
<polygon fill="orange" stroke="orange" points="299.39,-76.68 289.31,-79.96 299.23,-83.68 299.39,-76.68"/>
<text text-anchor="start" x="307" y="-107.5" font-family="Helvetica,sans-Serif" font-size="10.00"> &lt; derived_type,(1 *...</text>
<text text-anchor="start" x="307" y="-96.5" font-family="Helvetica,sans-Serif" font-size="10.00"> *size&lt; component_types</text>
<text text-anchor="middle" x="363" y="-85.5" font-family="Helvetica,sans-Serif" font-size="10.00"> &gt;), void &gt;</text>
</g>
<!-- Node15&#45;&gt;Node12 -->
<g id="edge16" class="edge">
<title>Node15&#45;&gt;Node12</title>
<path fill="none" stroke="orange" stroke-dasharray="5,2" d="M887.2,-67.12C928.45,-61.07 979.12,-53.65 1021,-47.51"/>
<polygon fill="orange" stroke="orange" points="886.59,-63.67 877.2,-68.58 887.61,-70.59 886.59,-63.67"/>
<text text-anchor="start" x="895" y="-90.5" font-family="Helvetica,sans-Serif" font-size="10.00"> &lt; masked&lt; sequence</text>
<text text-anchor="start" x="895" y="-79.5" font-family="Helvetica,sans-Serif" font-size="10.00">_alphabet_t &gt;, sequence</text>
<text text-anchor="middle" x="949" y="-68.5" font-family="Helvetica,sans-Serif" font-size="10.00">_alphabet_t, mask &gt;</text>
</g>
<!-- Node16&#45;&gt;Node15 -->
<g id="edge18" class="edge">
<title>Node16&#45;&gt;Node15</title>
<path fill="none" stroke="midnightblue" d="M566.25,-83.17C617.97,-82.17 688.47,-80.8 739.9,-79.81"/>
<polygon fill="midnightblue" stroke="midnightblue" points="566.1,-79.67 556.17,-83.36 566.24,-86.67 566.1,-79.67"/>
</g>
</g>
</svg>
