<?xml version="1.0" encoding="UTF-8" standalone="no"?>
<!DOCTYPE svg PUBLIC "-//W3C//DTD SVG 1.1//EN"
 "http://www.w3.org/Graphics/SVG/1.1/DTD/svg11.dtd">
<!-- Generated by graphviz version 2.43.0 (0)
 -->
<!-- Title: bio::alphabet::nucleotide_base&lt; derived_type, size &gt; Pages: 1 -->
<!--zoomable 326 -->
<svg id="main" version="1.1" xmlns="http://www.w3.org/2000/svg" xmlns:xlink="http://www.w3.org/1999/xlink" xml:space="preserve" onload="init(evt)">
<style type="text/css"><![CDATA[
.edge:hover path { stroke: red; }
.edge:hover polygon { stroke: red; fill: red; }
]]></style>
<script type="text/javascript"><![CDATA[
var edges = document.getElementsByTagName('g');
if (edges && edges.length) {
  for (var i=0;i<edges.length;i++) {
    if (edges[i].id.substr(0,4)=='edge') {
      edges[i].setAttribute('class','edge');
    }
  }
}
]]></script>
        <defs>
                <circle id="rim" cx="0" cy="0" r="7"/>
                <circle id="rim2" cx="0" cy="0" r="3.5"/>
                <g id="zoomPlus">
                        <use xlink:href="#rim" fill="#404040">
                                <set attributeName="fill" to="#808080" begin="zoomplus.mouseover" end="zoomplus.mouseout"/>
                        </use>
                        <path d="M-4,0h8M0,-4v8" fill="none" stroke="white" stroke-width="1.5" pointer-events="none"/>
                </g>
                <g id="zoomMin">
                        <use xlink:href="#rim" fill="#404040">
                                <set attributeName="fill" to="#808080" begin="zoomminus.mouseover" end="zoomminus.mouseout"/>
                        </use>
                        <path d="M-4,0h8" fill="none" stroke="white" stroke-width="1.5" pointer-events="none"/>
                </g>
                <g id="dirArrow">
                        <path fill="none" stroke="white" stroke-width="1.5" d="M0,-3.0v7 M-2.5,-0.5L0,-3.0L2.5,-0.5"/>
                </g>
               <g id="resetDef">
                       <use xlink:href="#rim2" fill="#404040">
                               <set attributeName="fill" to="#808080" begin="reset.mouseover" end="reset.mouseout"/>
                       </use>
               </g>
        </defs>

<script type="text/javascript">
var viewWidth = 933;
var viewHeight = 326;
var sectionId = 'dynsection-0';
</script>
<script xlink:href="svgpan.js"/>
<svg id="graph" class="graph">
<g id="viewport">
<title>bio::alphabet::nucleotide_base&lt; derived_type, size &gt;</title>
<!-- Node1 -->
<g id="node1" class="node">
<title>Node1</title>
<g id="a_node1"><a xlink:title="A CRTP&#45;base that refines bio::alphabet::base and is used by the nucleotides.">
<polygon fill="#999999" stroke="#666666" points="524,-174 384,-174 384,-144 524,-144 524,-174"/>
<text text-anchor="start" x="392" y="-162" font-family="Helvetica,sans-Serif" font-size="10.00">bio::alphabet::nucleotide</text>
<text text-anchor="middle" x="454" y="-151" font-family="Helvetica,sans-Serif" font-size="10.00">_base&lt; derived_type, size &gt;</text>
</a>
</g>
</g>
<!-- Node4 -->
<g id="node4" class="node">
<title>Node4</title>
<g id="a_node4"><a xlink:href="classbio_1_1alphabet_1_1nucleotide__base.html" target="_top" xlink:title=" ">
<polygon fill="white" stroke="#666666" points="765,-318 643,-318 643,-288 765,-288 765,-318"/>
<text text-anchor="start" x="651" y="-306" font-family="Helvetica,sans-Serif" font-size="10.00">bio::alphabet::nucleotide</text>
<text text-anchor="middle" x="704" y="-295" font-family="Helvetica,sans-Serif" font-size="10.00">_base&lt; dna15, 15 &gt;</text>
</a>
</g>
</g>
<!-- Node1&#45;&gt;Node4 -->
<g id="edge3" class="edge">
<title>Node1&#45;&gt;Node4</title>
<path fill="none" stroke="orange" stroke-dasharray="5,2" d="M472.22,-182.32C488.26,-202.53 513.86,-231.24 542,-249 572.67,-268.35 611.03,-281.58 642.62,-290.09"/>
<polygon fill="orange" stroke="orange" points="474.85,-179.99 465.96,-174.23 469.32,-184.28 474.85,-179.99"/>
<text text-anchor="middle" x="583.5" y="-287" font-family="Helvetica,sans-Serif" font-size="10.00"> &lt; dna15, 15 &gt;</text>
</g>
<!-- Node6 -->
<g id="node6" class="node">
<title>Node6</title>
<g id="a_node6"><a xlink:href="classbio_1_1alphabet_1_1nucleotide__base.html" target="_top" xlink:title=" ">
<polygon fill="white" stroke="#666666" points="765,-270 643,-270 643,-240 765,-240 765,-270"/>
<text text-anchor="start" x="651" y="-258" font-family="Helvetica,sans-Serif" font-size="10.00">bio::alphabet::nucleotide</text>
<text text-anchor="middle" x="704" y="-247" font-family="Helvetica,sans-Serif" font-size="10.00">_base&lt; dna16sam, 16 &gt;</text>
</a>
</g>
</g>
<!-- Node1&#45;&gt;Node6 -->
<g id="edge5" class="edge">
<title>Node1&#45;&gt;Node6</title>
<path fill="none" stroke="orange" stroke-dasharray="5,2" d="M488.72,-179.26C504.53,-188.22 523.86,-198.43 542,-206 574.76,-219.67 612.69,-231.4 643.5,-239.96"/>
<polygon fill="orange" stroke="orange" points="490.26,-176.11 479.85,-174.15 486.77,-182.18 490.26,-176.11"/>
<text text-anchor="middle" x="583.5" y="-237" font-family="Helvetica,sans-Serif" font-size="10.00"> &lt; dna16sam, 16 &gt;</text>
</g>
<!-- Node8 -->
<g id="node8" class="node">
<title>Node8</title>
<g id="a_node8"><a xlink:href="classbio_1_1alphabet_1_1nucleotide__base.html" target="_top" xlink:title=" ">
<polygon fill="white" stroke="#666666" points="765,-222 643,-222 643,-192 765,-192 765,-222"/>
<text text-anchor="start" x="651" y="-210" font-family="Helvetica,sans-Serif" font-size="10.00">bio::alphabet::nucleotide</text>
<text text-anchor="middle" x="704" y="-199" font-family="Helvetica,sans-Serif" font-size="10.00">_base&lt; dna4, 4 &gt;</text>
</a>
</g>
</g>
<!-- Node1&#45;&gt;Node8 -->
<g id="edge7" class="edge">
<title>Node1&#45;&gt;Node8</title>
<path fill="none" stroke="orange" stroke-dasharray="5,2" d="M534.31,-174.35C569.45,-181.15 610.12,-189.02 642.72,-195.33"/>
<polygon fill="orange" stroke="orange" points="534.56,-170.83 524.08,-172.37 533.23,-177.71 534.56,-170.83"/>
<text text-anchor="middle" x="583.5" y="-194" font-family="Helvetica,sans-Serif" font-size="10.00"> &lt; dna4, 4 &gt;</text>
</g>
<!-- Node10 -->
<g id="node10" class="node">
<title>Node10</title>
<g id="a_node10"><a xlink:href="classbio_1_1alphabet_1_1nucleotide__base.html" target="_top" xlink:title=" ">
<polygon fill="white" stroke="#666666" points="765,-174 643,-174 643,-144 765,-144 765,-174"/>
<text text-anchor="start" x="651" y="-162" font-family="Helvetica,sans-Serif" font-size="10.00">bio::alphabet::nucleotide</text>
<text text-anchor="middle" x="704" y="-151" font-family="Helvetica,sans-Serif" font-size="10.00">_base&lt; dna5, 5 &gt;</text>
</a>
</g>
</g>
<!-- Node1&#45;&gt;Node10 -->
<g id="edge9" class="edge">
<title>Node1&#45;&gt;Node10</title>
<path fill="none" stroke="orange" stroke-dasharray="5,2" d="M534.31,-159C569.45,-159 610.12,-159 642.72,-159"/>
<polygon fill="orange" stroke="orange" points="534.08,-155.5 524.08,-159 534.08,-162.5 534.08,-155.5"/>
<text text-anchor="middle" x="583.5" y="-162" font-family="Helvetica,sans-Serif" font-size="10.00"> &lt; dna5, 5 &gt;</text>
</g>
<!-- Node12 -->
<g id="node12" class="node">
<title>Node12</title>
<g id="a_node12"><a xlink:href="classbio_1_1alphabet_1_1nucleotide__base.html" target="_top" xlink:title=" ">
<polygon fill="white" stroke="#666666" points="765,-126 643,-126 643,-96 765,-96 765,-126"/>
<text text-anchor="start" x="651" y="-114" font-family="Helvetica,sans-Serif" font-size="10.00">bio::alphabet::nucleotide</text>
<text text-anchor="middle" x="704" y="-103" font-family="Helvetica,sans-Serif" font-size="10.00">_base&lt; rna15, 15 &gt;</text>
</a>
</g>
</g>
<!-- Node1&#45;&gt;Node12 -->
<g id="edge11" class="edge">
<title>Node1&#45;&gt;Node12</title>
<path fill="none" stroke="orange" stroke-dasharray="5,2" d="M534.31,-143.65C569.45,-136.85 610.12,-128.98 642.72,-122.67"/>
<polygon fill="orange" stroke="orange" points="533.23,-140.29 524.08,-145.63 534.56,-147.17 533.23,-140.29"/>
<text text-anchor="middle" x="583.5" y="-146" font-family="Helvetica,sans-Serif" font-size="10.00"> &lt; rna15, 15 &gt;</text>
</g>
<!-- Node14 -->
<g id="node14" class="node">
<title>Node14</title>
<g id="a_node14"><a xlink:href="classbio_1_1alphabet_1_1nucleotide__base.html" target="_top" xlink:title=" ">
<polygon fill="white" stroke="#666666" points="765,-78 643,-78 643,-48 765,-48 765,-78"/>
<text text-anchor="start" x="651" y="-66" font-family="Helvetica,sans-Serif" font-size="10.00">bio::alphabet::nucleotide</text>
<text text-anchor="middle" x="704" y="-55" font-family="Helvetica,sans-Serif" font-size="10.00">_base&lt; rna4, 4 &gt;</text>
</a>
</g>
</g>
<!-- Node1&#45;&gt;Node14 -->
<g id="edge13" class="edge">
<title>Node1&#45;&gt;Node14</title>
<path fill="none" stroke="orange" stroke-dasharray="5,2" d="M488.72,-138.74C504.53,-129.78 523.86,-119.57 542,-112 574.76,-98.33 612.69,-86.6 643.5,-78.04"/>
<polygon fill="orange" stroke="orange" points="486.77,-135.82 479.85,-143.85 490.26,-141.89 486.77,-135.82"/>
<text text-anchor="middle" x="583.5" y="-115" font-family="Helvetica,sans-Serif" font-size="10.00"> &lt; rna4, 4 &gt;</text>
</g>
<!-- Node16 -->
<g id="node16" class="node">
<title>Node16</title>
<g id="a_node16"><a xlink:href="classbio_1_1alphabet_1_1nucleotide__base.html" target="_top" xlink:title=" ">
<polygon fill="white" stroke="#666666" points="765,-30 643,-30 643,0 765,0 765,-30"/>
<text text-anchor="start" x="651" y="-18" font-family="Helvetica,sans-Serif" font-size="10.00">bio::alphabet::nucleotide</text>
<text text-anchor="middle" x="704" y="-7" font-family="Helvetica,sans-Serif" font-size="10.00">_base&lt; rna5, 5 &gt;</text>
</a>
</g>
</g>
<!-- Node1&#45;&gt;Node16 -->
<g id="edge15" class="edge">
<title>Node1&#45;&gt;Node16</title>
<path fill="none" stroke="orange" stroke-dasharray="5,2" d="M472.22,-135.68C488.26,-115.47 513.86,-86.76 542,-69 572.67,-49.65 611.03,-36.42 642.62,-27.91"/>
<polygon fill="orange" stroke="orange" points="469.32,-133.72 465.96,-143.77 474.85,-138.01 469.32,-133.72"/>
<text text-anchor="middle" x="583.5" y="-72" font-family="Helvetica,sans-Serif" font-size="10.00"> &lt; rna5, 5 &gt;</text>
</g>
<!-- Node2 -->
<g id="node2" class="node">
<title>Node2</title>
<g id="a_node2"><a xlink:href="classbio_1_1alphabet_1_1base.html" target="_top" xlink:title=" ">
<polygon fill="white" stroke="#666666" points="347,-179.5 239,-179.5 239,-138.5 347,-138.5 347,-179.5"/>
<text text-anchor="start" x="247" y="-167.5" font-family="Helvetica,sans-Serif" font-size="10.00">bio::alphabet::base</text>
<text text-anchor="start" x="247" y="-156.5" font-family="Helvetica,sans-Serif" font-size="10.00">&lt; derived_type, size,</text>
<text text-anchor="middle" x="293" y="-145.5" font-family="Helvetica,sans-Serif" font-size="10.00"> char &gt;</text>
</a>
</g>
</g>
<!-- Node2&#45;&gt;Node1 -->
<g id="edge1" class="edge">
<title>Node2&#45;&gt;Node1</title>
<path fill="none" stroke="#63b8ff" d="M357.46,-159C366.17,-159 375.14,-159 383.94,-159"/>
<polygon fill="#63b8ff" stroke="#63b8ff" points="357.39,-155.5 347.39,-159 357.39,-162.5 357.39,-155.5"/>
</g>
<!-- Node3 -->
<g id="node3" class="node">
<title>Node3</title>
<g id="a_node3"><a xlink:href="classbio_1_1alphabet_1_1base.html" target="_top" xlink:title="A CRTP&#45;base that makes defining a custom alphabet easier.">
<polygon fill="white" stroke="#666666" points="108,-179.5 0,-179.5 0,-138.5 108,-138.5 108,-179.5"/>
<text text-anchor="start" x="8" y="-167.5" font-family="Helvetica,sans-Serif" font-size="10.00">bio::alphabet::base</text>
<text text-anchor="start" x="8" y="-156.5" font-family="Helvetica,sans-Serif" font-size="10.00">&lt; derived_type, size,</text>
<text text-anchor="middle" x="54" y="-145.5" font-family="Helvetica,sans-Serif" font-size="10.00"> char_t &gt;</text>
</a>
</g>
</g>
<!-- Node3&#45;&gt;Node2 -->
<g id="edge2" class="edge">
<title>Node3&#45;&gt;Node2</title>
<path fill="none" stroke="orange" stroke-dasharray="5,2" d="M118.54,-159C156.19,-159 203.35,-159 238.99,-159"/>
<polygon fill="orange" stroke="orange" points="118.19,-155.5 108.19,-159 118.19,-162.5 118.19,-155.5"/>
<text text-anchor="start" x="126" y="-173" font-family="Helvetica,sans-Serif" font-size="10.00"> &lt; derived_type, size,</text>
<text text-anchor="middle" x="173.5" y="-162" font-family="Helvetica,sans-Serif" font-size="10.00"> char &gt;</text>
</g>
<!-- Node5 -->
<g id="node5" class="node">
<title>Node5</title>
<g id="a_node5"><a xlink:href="classbio_1_1alphabet_1_1dna15.html" target="_top" xlink:title="The 15 letter DNA alphabet, containing all IUPAC smybols minus the gap..">
<polygon fill="white" stroke="#666666" points="915.5,-312.5 811.5,-312.5 811.5,-293.5 915.5,-293.5 915.5,-312.5"/>
<text text-anchor="middle" x="863.5" y="-300.5" font-family="Helvetica,sans-Serif" font-size="10.00">bio::alphabet::dna15</text>
</a>
</g>
</g>
<!-- Node4&#45;&gt;Node5 -->
<g id="edge4" class="edge">
<title>Node4&#45;&gt;Node5</title>
<path fill="none" stroke="#63b8ff" d="M775.52,-303C787.62,-303 799.98,-303 811.44,-303"/>
<polygon fill="#63b8ff" stroke="#63b8ff" points="775.44,-299.5 765.44,-303 775.44,-306.5 775.44,-299.5"/>
</g>
<!-- Node7 -->
<g id="node7" class="node">
<title>Node7</title>
<g id="a_node7"><a xlink:href="classbio_1_1alphabet_1_1dna16sam.html" target="_top" xlink:title="A 16 letter DNA alphabet, containing all IUPAC symbols minus the gap and plus an equality sign (&#39;=&#39;)....">
<polygon fill="white" stroke="#666666" points="925,-264.5 802,-264.5 802,-245.5 925,-245.5 925,-264.5"/>
<text text-anchor="middle" x="863.5" y="-252.5" font-family="Helvetica,sans-Serif" font-size="10.00">bio::alphabet::dna16sam</text>
</a>
</g>
</g>
<!-- Node6&#45;&gt;Node7 -->
<g id="edge6" class="edge">
<title>Node6&#45;&gt;Node7</title>
<path fill="none" stroke="#63b8ff" d="M775.66,-255C784.44,-255 793.35,-255 801.96,-255"/>
<polygon fill="#63b8ff" stroke="#63b8ff" points="775.44,-251.5 765.44,-255 775.44,-258.5 775.44,-251.5"/>
</g>
<!-- Node9 -->
<g id="node9" class="node">
<title>Node9</title>
<g id="a_node9"><a xlink:href="classbio_1_1alphabet_1_1dna4.html" target="_top" xlink:title="The four letter DNA alphabet of A,C,G,T..">
<polygon fill="white" stroke="#666666" points="913,-216.5 814,-216.5 814,-197.5 913,-197.5 913,-216.5"/>
<text text-anchor="middle" x="863.5" y="-204.5" font-family="Helvetica,sans-Serif" font-size="10.00">bio::alphabet::dna4</text>
</a>
</g>
</g>
<!-- Node8&#45;&gt;Node9 -->
<g id="edge8" class="edge">
<title>Node8&#45;&gt;Node9</title>
<path fill="none" stroke="#63b8ff" d="M775.66,-207C788.51,-207 801.65,-207 813.69,-207"/>
<polygon fill="#63b8ff" stroke="#63b8ff" points="775.44,-203.5 765.44,-207 775.44,-210.5 775.44,-203.5"/>
</g>
<!-- Node11 -->
<g id="node11" class="node">
<title>Node11</title>
<g id="a_node11"><a xlink:href="classbio_1_1alphabet_1_1dna5.html" target="_top" xlink:title="The five letter DNA alphabet of A,C,G,T and the unknown character N..">
<polygon fill="white" stroke="#666666" points="913,-168.5 814,-168.5 814,-149.5 913,-149.5 913,-168.5"/>
<text text-anchor="middle" x="863.5" y="-156.5" font-family="Helvetica,sans-Serif" font-size="10.00">bio::alphabet::dna5</text>
</a>
</g>
</g>
<!-- Node10&#45;&gt;Node11 -->
<g id="edge10" class="edge">
<title>Node10&#45;&gt;Node11</title>
<path fill="none" stroke="#63b8ff" d="M775.66,-159C788.51,-159 801.65,-159 813.69,-159"/>
<polygon fill="#63b8ff" stroke="#63b8ff" points="775.44,-155.5 765.44,-159 775.44,-162.5 775.44,-155.5"/>
</g>
<!-- Node13 -->
<g id="node13" class="node">
<title>Node13</title>
<g id="a_node13"><a xlink:href="classbio_1_1alphabet_1_1rna15.html" target="_top" xlink:title="The 15 letter RNA alphabet, containing all IUPAC smybols minus the gap..">
<polygon fill="white" stroke="#666666" points="914.5,-120.5 812.5,-120.5 812.5,-101.5 914.5,-101.5 914.5,-120.5"/>
<text text-anchor="middle" x="863.5" y="-108.5" font-family="Helvetica,sans-Serif" font-size="10.00">bio::alphabet::rna15</text>
</a>
</g>
</g>
<!-- Node12&#45;&gt;Node13 -->
<g id="edge12" class="edge">
<title>Node12&#45;&gt;Node13</title>
<path fill="none" stroke="#63b8ff" d="M775.75,-111C788.13,-111 800.77,-111 812.44,-111"/>
<polygon fill="#63b8ff" stroke="#63b8ff" points="775.44,-107.5 765.44,-111 775.44,-114.5 775.44,-107.5"/>
</g>
<!-- Node15 -->
<g id="node15" class="node">
<title>Node15</title>
<g id="a_node15"><a xlink:href="classbio_1_1alphabet_1_1rna4.html" target="_top" xlink:title="The four letter RNA alphabet of A,C,G,U..">
<polygon fill="white" stroke="#666666" points="912,-72.5 815,-72.5 815,-53.5 912,-53.5 912,-72.5"/>
<text text-anchor="middle" x="863.5" y="-60.5" font-family="Helvetica,sans-Serif" font-size="10.00">bio::alphabet::rna4</text>
</a>
</g>
</g>
<!-- Node14&#45;&gt;Node15 -->
<g id="edge14" class="edge">
<title>Node14&#45;&gt;Node15</title>
<path fill="none" stroke="#63b8ff" d="M775.49,-63C788.75,-63 802.32,-63 814.68,-63"/>
<polygon fill="#63b8ff" stroke="#63b8ff" points="775.44,-59.5 765.44,-63 775.44,-66.5 775.44,-59.5"/>
</g>
<!-- Node17 -->
<g id="node17" class="node">
<title>Node17</title>
<g id="a_node17"><a xlink:href="classbio_1_1alphabet_1_1rna5.html" target="_top" xlink:title="The five letter RNA alphabet of A,C,G,U and the unknown character N..">
<polygon fill="white" stroke="#666666" points="912,-24.5 815,-24.5 815,-5.5 912,-5.5 912,-24.5"/>
<text text-anchor="middle" x="863.5" y="-12.5" font-family="Helvetica,sans-Serif" font-size="10.00">bio::alphabet::rna5</text>
</a>
</g>
</g>
<!-- Node16&#45;&gt;Node17 -->
<g id="edge16" class="edge">
<title>Node16&#45;&gt;Node17</title>
<path fill="none" stroke="#63b8ff" d="M775.49,-15C788.75,-15 802.32,-15 814.68,-15"/>
<polygon fill="#63b8ff" stroke="#63b8ff" points="775.44,-11.5 765.44,-15 775.44,-18.5 775.44,-11.5"/>
</g>
</g>
</svg>
        <g id="navigator" transform="translate(0 0)" fill="#404254">
                <rect fill="#f2f5e9" fill-opacity="0.5" stroke="#606060" stroke-width=".5" x="0" y="0" width="60" height="60"/>
                <use id="zoomplus" xlink:href="#zoomPlus" x="17" y="9" onmousedown="handleZoom(evt,'in')"/>
                <use id="zoomminus" xlink:href="#zoomMin" x="42" y="9" onmousedown="handleZoom(evt,'out')"/>
                <use id="reset" xlink:href="#resetDef" x="30" y="36" onmousedown="handleReset()"/>
                <g id="arrowUp" xlink:href="#dirArrow" transform="translate(30 24)" onmousedown="handlePan(0,-1)">
                  <use xlink:href="#rim" fill="#404040">
                        <set attributeName="fill" to="#808080" begin="arrowUp.mouseover" end="arrowUp.mouseout"/>
                  </use>
                  <path fill="none" stroke="white" stroke-width="1.5" d="M0,-3.0v7 M-2.5,-0.5L0,-3.0L2.5,-0.5"/>
                </g>
                <g id="arrowRight" xlink:href="#dirArrow" transform="rotate(90) translate(36 -43)" onmousedown="handlePan(1,0)">
                  <use xlink:href="#rim" fill="#404040">
                        <set attributeName="fill" to="#808080" begin="arrowRight.mouseover" end="arrowRight.mouseout"/>
                  </use>
                  <path fill="none" stroke="white" stroke-width="1.5" d="M0,-3.0v7 M-2.5,-0.5L0,-3.0L2.5,-0.5"/>
                </g>
                <g id="arrowDown" xlink:href="#dirArrow" transform="rotate(180) translate(-30 -48)" onmousedown="handlePan(0,1)">
                  <use xlink:href="#rim" fill="#404040">
                        <set attributeName="fill" to="#808080" begin="arrowDown.mouseover" end="arrowDown.mouseout"/>
                  </use>
                  <path fill="none" stroke="white" stroke-width="1.5" d="M0,-3.0v7 M-2.5,-0.5L0,-3.0L2.5,-0.5"/>
                </g>
                <g id="arrowLeft" xlink:href="#dirArrow" transform="rotate(270) translate(-36 17)" onmousedown="handlePan(-1,0)">
                  <use xlink:href="#rim" fill="#404040">
                        <set attributeName="fill" to="#808080" begin="arrowLeft.mouseover" end="arrowLeft.mouseout"/>
                  </use>
                  <path fill="none" stroke="white" stroke-width="1.5" d="M0,-3.0v7 M-2.5,-0.5L0,-3.0L2.5,-0.5"/>
                </g>
        </g>
        <svg viewBox="0 0 15 15" width="100%" height="30px" preserveAspectRatio="xMaxYMin meet">
         <g id="arrow_out" transform="scale(0.3 0.3)">
          <a xlink:href="classbio_1_1alphabet_1_1nucleotide__base__inherit__graph_org.svg" target="_base">
           <rect id="button" ry="5" rx="5" y="6" x="6" height="38" width="38"
                fill="#f2f5e9" fill-opacity="0.5" stroke="#606060" stroke-width="1.0"/>
           <path id="arrow"
             d="M 11.500037,31.436501 C 11.940474,20.09759 22.043105,11.32322 32.158766,21.979434 L 37.068811,17.246167 C 37.068811,17.246167 37.088388,32 37.088388,32 L 22.160133,31.978069 C 22.160133,31.978069 26.997745,27.140456 26.997745,27.140456 C 18.528582,18.264221 13.291696,25.230495 11.500037,31.436501 z"
             style="fill:#404040;"/>
          </a>
         </g>
        </svg>
</svg>
