<?xml version="1.0" encoding="UTF-8" standalone="no"?>
<!DOCTYPE svg PUBLIC "-//W3C//DTD SVG 1.1//EN"
 "http://www.w3.org/Graphics/SVG/1.1/DTD/svg11.dtd">
<!-- Generated by graphviz version 2.43.0 (0)
 -->
<!-- Title: bio::cigar_op Pages: 1 -->
<svg width="799pt" height="235pt"
 viewBox="0.00 0.00 799.00 235.00" xmlns="http://www.w3.org/2000/svg" xmlns:xlink="http://www.w3.org/1999/xlink">
<g id="graph0" class="graph" transform="scale(1 1) rotate(0) translate(4 231)">
<title>bio::cigar_op</title>
<polygon fill="white" stroke="transparent" points="-4,4 -4,-231 795,-231 795,4 -4,4"/>
<!-- Node1 -->
<g id="node1" class="node">
<title>Node1</title>
<g id="a_node1"><a xlink:title="The (extended) cigar operation alphabet of M,D,I,H,N,P,S,X,=.">
<polygon fill="#bfbfbf" stroke="black" points="712,-93.5 712,-112.5 791,-112.5 791,-93.5 712,-93.5"/>
<text text-anchor="middle" x="751.5" y="-100.5" font-family="Helvetica,sans-Serif" font-size="10.00">bio::cigar_op</text>
</a>
</g>
</g>
<!-- Node2 -->
<g id="node2" class="node">
<title>Node2</title>
<g id="a_node2"><a xlink:href="interfacebio_1_1writable__alphabet.html" target="_top" xlink:title="Refines bio::alphabet and adds assignability.">
<polygon fill="white" stroke="black" points="563.5,-169.5 563.5,-188.5 667.5,-188.5 667.5,-169.5 563.5,-169.5"/>
<text text-anchor="middle" x="615.5" y="-176.5" font-family="Helvetica,sans-Serif" font-size="10.00">writable_alphabet</text>
</a>
</g>
</g>
<!-- Node2&#45;&gt;Node1 -->
<g id="edge1" class="edge">
<title>Node2&#45;&gt;Node1</title>
<path fill="none" stroke="midnightblue" d="M661.67,-166.02C666.26,-164.21 670.78,-162.2 675,-160 700.34,-146.79 726.11,-125.21 740.02,-112.73"/>
<polygon fill="midnightblue" stroke="midnightblue" points="660.41,-162.76 652.23,-169.49 662.82,-169.33 660.41,-162.76"/>
</g>
<!-- Node3 -->
<g id="node3" class="node">
<title>Node3</title>
<g id="a_node3"><a xlink:href="interfacebio_1_1alphabet.html" target="_top" xlink:title="The generic alphabet concept that covers most data types used in ranges.">
<polygon fill="white" stroke="black" points="320.5,-207.5 320.5,-226.5 379.5,-226.5 379.5,-207.5 320.5,-207.5"/>
<text text-anchor="middle" x="350" y="-214.5" font-family="Helvetica,sans-Serif" font-size="10.00">alphabet</text>
</a>
</g>
</g>
<!-- Node3&#45;&gt;Node2 -->
<g id="edge2" class="edge">
<title>Node3&#45;&gt;Node2</title>
<path fill="none" stroke="midnightblue" d="M389.67,-212.65C427.54,-208.24 486.86,-200.96 538,-193 546.54,-191.67 555.59,-190.13 564.36,-188.57"/>
<polygon fill="midnightblue" stroke="midnightblue" points="389.11,-209.19 379.58,-213.81 389.92,-216.14 389.11,-209.19"/>
</g>
<!-- Node4 -->
<g id="node4" class="node">
<title>Node4</title>
<g id="a_node4"><a xlink:href="interfacebio_1_1semialphabet.html" target="_top" xlink:title="The basis for bio::alphabet, but requires only rank interface (not char).">
<polygon fill="white" stroke="black" points="166,-187.5 166,-206.5 249,-206.5 249,-187.5 166,-187.5"/>
<text text-anchor="middle" x="207.5" y="-194.5" font-family="Helvetica,sans-Serif" font-size="10.00">semialphabet</text>
</a>
</g>
</g>
<!-- Node4&#45;&gt;Node3 -->
<g id="edge3" class="edge">
<title>Node4&#45;&gt;Node3</title>
<path fill="none" stroke="midnightblue" d="M259.05,-204.2C279.71,-207.14 302.85,-210.43 320.49,-212.94"/>
<polygon fill="midnightblue" stroke="midnightblue" points="259.53,-200.73 249.14,-202.78 258.55,-207.66 259.53,-200.73"/>
</g>
<!-- Node7 -->
<g id="node7" class="node">
<title>Node7</title>
<g id="a_node7"><a xlink:href="interfacebio_1_1writable__semialphabet.html" target="_top" xlink:title="A refinement of bio::semialphabet that adds assignability.">
<polygon fill="white" stroke="black" points="286,-169.5 286,-188.5 414,-188.5 414,-169.5 286,-169.5"/>
<text text-anchor="middle" x="350" y="-176.5" font-family="Helvetica,sans-Serif" font-size="10.00">writable_semialphabet</text>
</a>
</g>
</g>
<!-- Node4&#45;&gt;Node7 -->
<g id="edge7" class="edge">
<title>Node4&#45;&gt;Node7</title>
<path fill="none" stroke="midnightblue" d="M259.12,-190.51C267.83,-189.4 276.97,-188.23 285.95,-187.08"/>
<polygon fill="midnightblue" stroke="midnightblue" points="258.61,-187.05 249.14,-191.79 259.5,-193.99 258.61,-187.05"/>
</g>
<!-- Node5 -->
<g id="node5" class="node">
<title>Node5</title>
<g id="a_node5"><a xlink:title=" ">
<polygon fill="white" stroke="#bfbfbf" points="8.5,-206.5 8.5,-225.5 120.5,-225.5 120.5,-206.5 8.5,-206.5"/>
<text text-anchor="middle" x="64.5" y="-213.5" font-family="Helvetica,sans-Serif" font-size="10.00">std::totally_ordered</text>
</a>
</g>
</g>
<!-- Node5&#45;&gt;Node4 -->
<g id="edge4" class="edge">
<title>Node5&#45;&gt;Node4</title>
<path fill="none" stroke="midnightblue" d="M130.75,-207.21C142.67,-205.6 154.78,-203.97 165.72,-202.49"/>
<polygon fill="midnightblue" stroke="midnightblue" points="130.27,-203.74 120.82,-208.55 131.2,-210.68 130.27,-203.74"/>
</g>
<!-- Node6 -->
<g id="node6" class="node">
<title>Node6</title>
<g id="a_node6"><a xlink:title=" ">
<polygon fill="white" stroke="#bfbfbf" points="0,-168.5 0,-187.5 129,-187.5 129,-168.5 0,-168.5"/>
<text text-anchor="middle" x="64.5" y="-175.5" font-family="Helvetica,sans-Serif" font-size="10.00">std::copy_constructible</text>
</a>
</g>
</g>
<!-- Node6&#45;&gt;Node4 -->
<g id="edge5" class="edge">
<title>Node6&#45;&gt;Node4</title>
<path fill="none" stroke="midnightblue" d="M139.59,-187.98C148.62,-189.2 157.56,-190.41 165.84,-191.52"/>
<polygon fill="midnightblue" stroke="midnightblue" points="139.78,-184.48 129.4,-186.61 138.84,-191.41 139.78,-184.48"/>
</g>
<!-- Node7&#45;&gt;Node2 -->
<g id="edge6" class="edge">
<title>Node7&#45;&gt;Node2</title>
<path fill="none" stroke="midnightblue" d="M424.24,-179C468.5,-179 523.82,-179 563.38,-179"/>
<polygon fill="midnightblue" stroke="midnightblue" points="424.11,-175.5 414.11,-179 424.11,-182.5 424.11,-175.5"/>
</g>
<!-- Node8 -->
<g id="node8" class="node">
<title>Node8</title>
<g id="a_node8"><a xlink:href="interfacebio_1_1trivially__copyable.html" target="_top" xlink:title="A type that satisfies std::is_trivially_copyable_v&lt;t&gt;.">
<polygon fill="white" stroke="black" points="563.5,-131.5 563.5,-150.5 667.5,-150.5 667.5,-131.5 563.5,-131.5"/>
<text text-anchor="middle" x="615.5" y="-138.5" font-family="Helvetica,sans-Serif" font-size="10.00">trivially_copyable</text>
</a>
</g>
</g>
<!-- Node8&#45;&gt;Node1 -->
<g id="edge8" class="edge">
<title>Node8&#45;&gt;Node1</title>
<path fill="none" stroke="midnightblue" d="M659.94,-128.68C678.35,-123.46 699.48,-117.47 716.7,-112.59"/>
<polygon fill="midnightblue" stroke="midnightblue" points="658.98,-125.32 650.31,-131.41 660.89,-132.05 658.98,-125.32"/>
</g>
<!-- Node9 -->
<g id="node9" class="node">
<title>Node9</title>
<g id="a_node9"><a xlink:title=" ">
<polygon fill="white" stroke="#bfbfbf" points="309,-131.5 309,-150.5 391,-150.5 391,-131.5 309,-131.5"/>
<text text-anchor="middle" x="350" y="-138.5" font-family="Helvetica,sans-Serif" font-size="10.00">std::copyable</text>
</a>
</g>
</g>
<!-- Node9&#45;&gt;Node8 -->
<g id="edge9" class="edge">
<title>Node9&#45;&gt;Node8</title>
<path fill="none" stroke="midnightblue" d="M401.16,-141C447.62,-141 516.41,-141 563.23,-141"/>
<polygon fill="midnightblue" stroke="midnightblue" points="401.02,-137.5 391.02,-141 401.02,-144.5 401.02,-137.5"/>
</g>
<!-- Node10 -->
<g id="node10" class="node">
<title>Node10</title>
<g id="a_node10"><a xlink:href="interfacebio_1_1standard__layout.html" target="_top" xlink:title="Resolves to std::is_standard_layout_v&lt;t&gt;.">
<polygon fill="white" stroke="black" points="568,-93.5 568,-112.5 663,-112.5 663,-93.5 568,-93.5"/>
<text text-anchor="middle" x="615.5" y="-100.5" font-family="Helvetica,sans-Serif" font-size="10.00">standard_layout</text>
</a>
</g>
</g>
<!-- Node10&#45;&gt;Node1 -->
<g id="edge10" class="edge">
<title>Node10&#45;&gt;Node1</title>
<path fill="none" stroke="midnightblue" d="M673.58,-103C686.5,-103 699.92,-103 711.86,-103"/>
<polygon fill="midnightblue" stroke="midnightblue" points="673.37,-99.5 663.37,-103 673.37,-106.5 673.37,-99.5"/>
</g>
<!-- Node11 -->
<g id="node11" class="node">
<title>Node11</title>
<g id="a_node11"><a xlink:title=" ">
<polygon fill="white" stroke="#bfbfbf" points="579.5,-55.5 579.5,-74.5 651.5,-74.5 651.5,-55.5 579.5,-55.5"/>
<text text-anchor="middle" x="615.5" y="-62.5" font-family="Helvetica,sans-Serif" font-size="10.00">std::regular</text>
</a>
</g>
</g>
<!-- Node11&#45;&gt;Node1 -->
<g id="edge11" class="edge">
<title>Node11&#45;&gt;Node1</title>
<path fill="none" stroke="midnightblue" d="M659.94,-77.32C678.35,-82.54 699.48,-88.53 716.7,-93.41"/>
<polygon fill="midnightblue" stroke="midnightblue" points="660.89,-73.95 650.31,-74.59 658.98,-80.68 660.89,-73.95"/>
</g>
<!-- Node12 -->
<g id="node12" class="node">
<title>Node12</title>
<g id="a_node12"><a xlink:href="classbio_1_1alphabet__base.html" target="_top" xlink:title=" ">
<polygon fill="white" stroke="black" points="556,-6 556,-36 675,-36 675,-6 556,-6"/>
<text text-anchor="start" x="564" y="-24" font-family="Helvetica,sans-Serif" font-size="10.00">bio::alphabet_base</text>
<text text-anchor="middle" x="615.5" y="-13" font-family="Helvetica,sans-Serif" font-size="10.00">&lt; cigar_op, 9, char &gt;</text>
</a>
</g>
</g>
<!-- Node12&#45;&gt;Node1 -->
<g id="edge12" class="edge">
<title>Node12&#45;&gt;Node1</title>
<path fill="none" stroke="midnightblue" d="M664.85,-40.55C668.33,-42.29 671.75,-44.12 675,-46 699.44,-60.17 725.12,-81.03 739.34,-93.19"/>
<polygon fill="midnightblue" stroke="midnightblue" points="666.07,-37.25 655.54,-36.11 663.06,-43.57 666.07,-37.25"/>
</g>
<!-- Node13 -->
<g id="node13" class="node">
<title>Node13</title>
<g id="a_node13"><a xlink:href="classbio_1_1alphabet__base.html" target="_top" xlink:title="A CRTP&#45;base that makes defining a custom alphabet easier.">
<polygon fill="white" stroke="black" points="290,-0.5 290,-41.5 410,-41.5 410,-0.5 290,-0.5"/>
<text text-anchor="start" x="298" y="-29.5" font-family="Helvetica,sans-Serif" font-size="10.00">bio::alphabet_base</text>
<text text-anchor="start" x="298" y="-18.5" font-family="Helvetica,sans-Serif" font-size="10.00">&lt; derived_type, size,</text>
<text text-anchor="middle" x="350" y="-7.5" font-family="Helvetica,sans-Serif" font-size="10.00"> char_t &gt;</text>
</a>
</g>
</g>
<!-- Node13&#45;&gt;Node12 -->
<g id="edge13" class="edge">
<title>Node13&#45;&gt;Node12</title>
<path fill="none" stroke="orange" stroke-dasharray="5,2" d="M420.3,-21C462.38,-21 515.51,-21 555.56,-21"/>
<polygon fill="orange" stroke="orange" points="420.13,-17.5 410.13,-21 420.13,-24.5 420.13,-17.5"/>
<text text-anchor="middle" x="485" y="-24" font-family="Helvetica,sans-Serif" font-size="10.00"> &lt; cigar_op, 9, char &gt;</text>
</g>
</g>
</svg>
