<?xml version="1.0" encoding="UTF-8" standalone="no"?>
<!DOCTYPE svg PUBLIC "-//W3C//DTD SVG 1.1//EN"
 "http://www.w3.org/Graphics/SVG/1.1/DTD/svg11.dtd">
<!-- Generated by graphviz version 2.43.0 (0)
 -->
<!-- Title: bio::alphabet::mask Pages: 1 -->
<svg width="484pt" height="226pt"
 viewBox="0.00 0.00 484.00 225.50" xmlns="http://www.w3.org/2000/svg" xmlns:xlink="http://www.w3.org/1999/xlink">
<g id="graph0" class="graph" transform="scale(1 1) rotate(0) translate(4 221.5)">
<title>bio::alphabet::mask</title>
<!-- Node1 -->
<g id="node1" class="node">
<title>Node1</title>
<g id="a_node1"><a xlink:title="Implementation of a masked semialphabet to be used for tuple composites..">
<polygon fill="#999999" stroke="#666666" points="476,-116 374,-116 374,-97 476,-97 476,-116"/>
<text text-anchor="middle" x="425" y="-104" font-family="Helvetica,sans-Serif" font-size="10.00">bio::alphabet::mask</text>
</a>
</g>
</g>
<!-- Node2 -->
<g id="node2" class="node">
<title>Node2</title>
<g id="a_node2"><a xlink:title=" ">
<polygon fill="white" stroke="#bfbfbf" points="337,-217.5 225,-217.5 225,-187.5 337,-187.5 337,-217.5"/>
<text text-anchor="start" x="233" y="-205.5" font-family="Helvetica,sans-Serif" font-size="10.00">bio::alphabet::writable</text>
<text text-anchor="middle" x="281" y="-194.5" font-family="Helvetica,sans-Serif" font-size="10.00">_semialphabet</text>
</a>
</g>
</g>
<!-- Node2&#45;&gt;Node1 -->
<g id="edge1" class="edge">
<title>Node2&#45;&gt;Node1</title>
<path fill="none" stroke="#63b8ff" d="M329.36,-182.88C331.98,-181.47 334.55,-180.01 337,-178.5 367.56,-159.7 398.89,-130.99 414.27,-116.14"/>
<polygon fill="#63b8ff" stroke="#63b8ff" points="327.63,-179.83 320.28,-187.46 330.79,-186.08 327.63,-179.83"/>
</g>
<!-- Node3 -->
<g id="node3" class="node">
<title>Node3</title>
<g id="a_node3"><a xlink:title=" ">
<polygon fill="white" stroke="#bfbfbf" points="328,-169.5 234,-169.5 234,-139.5 328,-139.5 328,-169.5"/>
<text text-anchor="start" x="242" y="-157.5" font-family="Helvetica,sans-Serif" font-size="10.00">bio::meta::trivially</text>
<text text-anchor="middle" x="281" y="-146.5" font-family="Helvetica,sans-Serif" font-size="10.00">_copyable</text>
</a>
</g>
</g>
<!-- Node3&#45;&gt;Node1 -->
<g id="edge2" class="edge">
<title>Node3&#45;&gt;Node1</title>
<path fill="none" stroke="#63b8ff" d="M336.02,-136.24C356.35,-129.37 378.64,-121.83 395.71,-116.06"/>
<polygon fill="#63b8ff" stroke="#63b8ff" points="334.89,-132.93 326.54,-139.44 337.13,-139.56 334.89,-132.93"/>
</g>
<!-- Node4 -->
<g id="node4" class="node">
<title>Node4</title>
<g id="a_node4"><a xlink:title=" ">
<polygon fill="white" stroke="#bfbfbf" points="331.5,-121.5 230.5,-121.5 230.5,-91.5 331.5,-91.5 331.5,-121.5"/>
<text text-anchor="start" x="238.5" y="-109.5" font-family="Helvetica,sans-Serif" font-size="10.00">bio::meta::standard</text>
<text text-anchor="middle" x="281" y="-98.5" font-family="Helvetica,sans-Serif" font-size="10.00">_layout</text>
</a>
</g>
</g>
<!-- Node4&#45;&gt;Node1 -->
<g id="edge3" class="edge">
<title>Node4&#45;&gt;Node1</title>
<path fill="none" stroke="#63b8ff" d="M341.71,-106.5C352.34,-106.5 363.31,-106.5 373.64,-106.5"/>
<polygon fill="#63b8ff" stroke="#63b8ff" points="341.66,-103 331.66,-106.5 341.66,-110 341.66,-103"/>
</g>
<!-- Node5 -->
<g id="node5" class="node">
<title>Node5</title>
<g id="a_node5"><a xlink:title=" ">
<polygon fill="white" stroke="#bfbfbf" points="313.5,-73 248.5,-73 248.5,-54 313.5,-54 313.5,-73"/>
<text text-anchor="middle" x="281" y="-61" font-family="Helvetica,sans-Serif" font-size="10.00">std::regular</text>
</a>
</g>
</g>
<!-- Node5&#45;&gt;Node1 -->
<g id="edge4" class="edge">
<title>Node5&#45;&gt;Node1</title>
<path fill="none" stroke="#63b8ff" d="M323.3,-76.01C345.4,-82.7 372.19,-90.81 392.57,-96.98"/>
<polygon fill="#63b8ff" stroke="#63b8ff" points="324.1,-72.59 313.51,-73.04 322.07,-79.29 324.1,-72.59"/>
</g>
<!-- Node6 -->
<g id="node6" class="node">
<title>Node6</title>
<g id="a_node6"><a xlink:href="classbio_1_1alphabet_1_1base.html" target="_top" xlink:title=" ">
<polygon fill="white" stroke="#666666" points="330.5,-35.5 231.5,-35.5 231.5,-5.5 330.5,-5.5 330.5,-35.5"/>
<text text-anchor="start" x="239.5" y="-23.5" font-family="Helvetica,sans-Serif" font-size="10.00">bio::alphabet::base</text>
<text text-anchor="middle" x="281" y="-12.5" font-family="Helvetica,sans-Serif" font-size="10.00">&lt; mask, 2, void &gt;</text>
</a>
</g>
</g>
<!-- Node6&#45;&gt;Node1 -->
<g id="edge5" class="edge">
<title>Node6&#45;&gt;Node1</title>
<path fill="none" stroke="#63b8ff" d="M326.9,-40.07C330.35,-41.83 333.76,-43.65 337,-45.5 365.03,-61.51 395.39,-84.14 411.8,-96.85"/>
<polygon fill="#63b8ff" stroke="#63b8ff" points="328.21,-36.81 317.69,-35.56 325.13,-43.1 328.21,-36.81"/>
</g>
<!-- Node7 -->
<g id="node7" class="node">
<title>Node7</title>
<g id="a_node7"><a xlink:href="classbio_1_1alphabet_1_1base.html" target="_top" xlink:title="A CRTP&#45;base that makes defining a custom alphabet easier.">
<polygon fill="white" stroke="#666666" points="108,-41 0,-41 0,0 108,0 108,-41"/>
<text text-anchor="start" x="8" y="-29" font-family="Helvetica,sans-Serif" font-size="10.00">bio::alphabet::base</text>
<text text-anchor="start" x="8" y="-18" font-family="Helvetica,sans-Serif" font-size="10.00">&lt; derived_type, size,</text>
<text text-anchor="middle" x="54" y="-7" font-family="Helvetica,sans-Serif" font-size="10.00"> char_t &gt;</text>
</a>
</g>
</g>
<!-- Node7&#45;&gt;Node6 -->
<g id="edge6" class="edge">
<title>Node7&#45;&gt;Node6</title>
<path fill="none" stroke="orange" stroke-dasharray="5,2" d="M118.36,-20.5C154.12,-20.5 198.11,-20.5 231.16,-20.5"/>
<polygon fill="orange" stroke="orange" points="118.04,-17 108.04,-20.5 118.04,-24 118.04,-17"/>
<text text-anchor="middle" x="166.5" y="-23.5" font-family="Helvetica,sans-Serif" font-size="10.00"> &lt; mask, 2, void &gt;</text>
</g>
</g>
</svg>
