<?xml version="1.0" encoding="UTF-8" standalone="no"?>
<!DOCTYPE svg PUBLIC "-//W3C//DTD SVG 1.1//EN"
 "http://www.w3.org/Graphics/SVG/1.1/DTD/svg11.dtd">
<!-- Generated by graphviz version 2.43.0 (0)
 -->
<!-- Title: bio::mask Pages: 1 -->
<svg width="652pt" height="216pt"
 viewBox="0.00 0.00 652.00 216.00" xmlns="http://www.w3.org/2000/svg" xmlns:xlink="http://www.w3.org/1999/xlink">
<g id="graph0" class="graph" transform="scale(1 1) rotate(0) translate(4 212)">
<title>bio::mask</title>
<polygon fill="white" stroke="transparent" points="-4,4 -4,-212 648,-212 648,4 -4,4"/>
<!-- Node1 -->
<g id="node1" class="node">
<title>Node1</title>
<g id="a_node1"><a xlink:title="Implementation of a masked alphabet to be used for tuple composites.">
<polygon fill="#bfbfbf" stroke="black" points="579,-93.5 579,-112.5 644,-112.5 644,-93.5 579,-93.5"/>
<text text-anchor="middle" x="611.5" y="-100.5" font-family="Helvetica,sans-Serif" font-size="10.00">bio::mask</text>
</a>
</g>
</g>
<!-- Node2 -->
<g id="node2" class="node">
<title>Node2</title>
<g id="a_node2"><a xlink:href="interfacebio_1_1writable__semialphabet.html" target="_top" xlink:title="A refinement of bio::semialphabet that adds assignability.">
<polygon fill="white" stroke="black" points="414,-169.5 414,-188.5 542,-188.5 542,-169.5 414,-169.5"/>
<text text-anchor="middle" x="478" y="-176.5" font-family="Helvetica,sans-Serif" font-size="10.00">writable_semialphabet</text>
</a>
</g>
</g>
<!-- Node2&#45;&gt;Node1 -->
<g id="edge1" class="edge">
<title>Node2&#45;&gt;Node1</title>
<path fill="none" stroke="midnightblue" d="M528.76,-166.07C533.33,-164.27 537.82,-162.25 542,-160 565.71,-147.25 588.83,-125.5 601.22,-112.87"/>
<polygon fill="midnightblue" stroke="midnightblue" points="527.51,-162.8 519.29,-169.48 529.89,-169.39 527.51,-162.8"/>
</g>
<!-- Node3 -->
<g id="node3" class="node">
<title>Node3</title>
<g id="a_node3"><a xlink:href="interfacebio_1_1semialphabet.html" target="_top" xlink:title="The basis for bio::alphabet, but requires only rank interface (not char).">
<polygon fill="white" stroke="black" points="184.5,-169.5 184.5,-188.5 267.5,-188.5 267.5,-169.5 184.5,-169.5"/>
<text text-anchor="middle" x="226" y="-176.5" font-family="Helvetica,sans-Serif" font-size="10.00">semialphabet</text>
</a>
</g>
</g>
<!-- Node3&#45;&gt;Node2 -->
<g id="edge2" class="edge">
<title>Node3&#45;&gt;Node2</title>
<path fill="none" stroke="midnightblue" d="M277.87,-179C317.15,-179 371.72,-179 413.8,-179"/>
<polygon fill="midnightblue" stroke="midnightblue" points="277.72,-175.5 267.72,-179 277.72,-182.5 277.72,-175.5"/>
</g>
<!-- Node4 -->
<g id="node4" class="node">
<title>Node4</title>
<g id="a_node4"><a xlink:title=" ">
<polygon fill="white" stroke="#bfbfbf" points="8.5,-188.5 8.5,-207.5 120.5,-207.5 120.5,-188.5 8.5,-188.5"/>
<text text-anchor="middle" x="64.5" y="-195.5" font-family="Helvetica,sans-Serif" font-size="10.00">std::totally_ordered</text>
</a>
</g>
</g>
<!-- Node4&#45;&gt;Node3 -->
<g id="edge3" class="edge">
<title>Node4&#45;&gt;Node3</title>
<path fill="none" stroke="midnightblue" d="M130.78,-190.22C148.91,-188.06 168.07,-185.78 184.35,-183.84"/>
<polygon fill="midnightblue" stroke="midnightblue" points="130.35,-186.75 120.84,-191.41 131.18,-193.7 130.35,-186.75"/>
</g>
<!-- Node5 -->
<g id="node5" class="node">
<title>Node5</title>
<g id="a_node5"><a xlink:title=" ">
<polygon fill="white" stroke="#bfbfbf" points="0,-150.5 0,-169.5 129,-169.5 129,-150.5 0,-150.5"/>
<text text-anchor="middle" x="64.5" y="-157.5" font-family="Helvetica,sans-Serif" font-size="10.00">std::copy_constructible</text>
</a>
</g>
</g>
<!-- Node5&#45;&gt;Node3 -->
<g id="edge4" class="edge">
<title>Node5&#45;&gt;Node3</title>
<path fill="none" stroke="midnightblue" d="M139.54,-168.82C155,-170.66 170.74,-172.54 184.43,-174.17"/>
<polygon fill="midnightblue" stroke="midnightblue" points="139.8,-165.33 129.46,-167.62 138.97,-172.28 139.8,-165.33"/>
</g>
<!-- Node6 -->
<g id="node6" class="node">
<title>Node6</title>
<g id="a_node6"><a xlink:href="interfacebio_1_1trivially__copyable.html" target="_top" xlink:title="A type that satisfies std::is_trivially_copyable_v&lt;t&gt;.">
<polygon fill="white" stroke="black" points="426,-131.5 426,-150.5 530,-150.5 530,-131.5 426,-131.5"/>
<text text-anchor="middle" x="478" y="-138.5" font-family="Helvetica,sans-Serif" font-size="10.00">trivially_copyable</text>
</a>
</g>
</g>
<!-- Node6&#45;&gt;Node1 -->
<g id="edge5" class="edge">
<title>Node6&#45;&gt;Node1</title>
<path fill="none" stroke="midnightblue" d="M521.85,-128.62C540.35,-123.27 561.62,-117.12 578.69,-112.19"/>
<polygon fill="midnightblue" stroke="midnightblue" points="520.82,-125.27 512.18,-131.41 522.76,-132 520.82,-125.27"/>
</g>
<!-- Node7 -->
<g id="node7" class="node">
<title>Node7</title>
<g id="a_node7"><a xlink:title=" ">
<polygon fill="white" stroke="#bfbfbf" points="185,-131.5 185,-150.5 267,-150.5 267,-131.5 185,-131.5"/>
<text text-anchor="middle" x="226" y="-138.5" font-family="Helvetica,sans-Serif" font-size="10.00">std::copyable</text>
</a>
</g>
</g>
<!-- Node7&#45;&gt;Node6 -->
<g id="edge6" class="edge">
<title>Node7&#45;&gt;Node6</title>
<path fill="none" stroke="midnightblue" d="M277.43,-141C320.54,-141 382.31,-141 425.67,-141"/>
<polygon fill="midnightblue" stroke="midnightblue" points="277.17,-137.5 267.17,-141 277.17,-144.5 277.17,-137.5"/>
</g>
<!-- Node8 -->
<g id="node8" class="node">
<title>Node8</title>
<g id="a_node8"><a xlink:href="interfacebio_1_1standard__layout.html" target="_top" xlink:title="Resolves to std::is_standard_layout_v&lt;t&gt;.">
<polygon fill="white" stroke="black" points="430.5,-93.5 430.5,-112.5 525.5,-112.5 525.5,-93.5 430.5,-93.5"/>
<text text-anchor="middle" x="478" y="-100.5" font-family="Helvetica,sans-Serif" font-size="10.00">standard_layout</text>
</a>
</g>
</g>
<!-- Node8&#45;&gt;Node1 -->
<g id="edge7" class="edge">
<title>Node8&#45;&gt;Node1</title>
<path fill="none" stroke="midnightblue" d="M535.79,-103C550.51,-103 565.83,-103 578.75,-103"/>
<polygon fill="midnightblue" stroke="midnightblue" points="535.73,-99.5 525.73,-103 535.73,-106.5 535.73,-99.5"/>
</g>
<!-- Node9 -->
<g id="node9" class="node">
<title>Node9</title>
<g id="a_node9"><a xlink:title=" ">
<polygon fill="white" stroke="#bfbfbf" points="442,-55.5 442,-74.5 514,-74.5 514,-55.5 442,-55.5"/>
<text text-anchor="middle" x="478" y="-62.5" font-family="Helvetica,sans-Serif" font-size="10.00">std::regular</text>
</a>
</g>
</g>
<!-- Node9&#45;&gt;Node1 -->
<g id="edge8" class="edge">
<title>Node9&#45;&gt;Node1</title>
<path fill="none" stroke="midnightblue" d="M521.85,-77.38C540.35,-82.73 561.62,-88.88 578.69,-93.81"/>
<polygon fill="midnightblue" stroke="midnightblue" points="522.76,-74 512.18,-74.59 520.82,-80.73 522.76,-74"/>
</g>
<!-- Node10 -->
<g id="node10" class="node">
<title>Node10</title>
<g id="a_node10"><a xlink:href="classbio_1_1alphabet__base.html" target="_top" xlink:title=" ">
<polygon fill="white" stroke="black" points="423.5,-6 423.5,-36 532.5,-36 532.5,-6 423.5,-6"/>
<text text-anchor="start" x="431.5" y="-24" font-family="Helvetica,sans-Serif" font-size="10.00">bio::alphabet_base</text>
<text text-anchor="middle" x="478" y="-13" font-family="Helvetica,sans-Serif" font-size="10.00">&lt; mask, 2, void &gt;</text>
</a>
</g>
</g>
<!-- Node10&#45;&gt;Node1 -->
<g id="edge9" class="edge">
<title>Node10&#45;&gt;Node1</title>
<path fill="none" stroke="midnightblue" d="M531.41,-40.29C535.06,-42.09 538.62,-44 542,-46 565.15,-59.75 588.47,-81.14 601.04,-93.43"/>
<polygon fill="midnightblue" stroke="midnightblue" points="532.78,-37.06 522.23,-36.04 529.83,-43.42 532.78,-37.06"/>
</g>
<!-- Node11 -->
<g id="node11" class="node">
<title>Node11</title>
<g id="a_node11"><a xlink:href="classbio_1_1alphabet__base.html" target="_top" xlink:title="A CRTP&#45;base that makes defining a custom alphabet easier.">
<polygon fill="white" stroke="black" points="166,-0.5 166,-41.5 286,-41.5 286,-0.5 166,-0.5"/>
<text text-anchor="start" x="174" y="-29.5" font-family="Helvetica,sans-Serif" font-size="10.00">bio::alphabet_base</text>
<text text-anchor="start" x="174" y="-18.5" font-family="Helvetica,sans-Serif" font-size="10.00">&lt; derived_type, size,</text>
<text text-anchor="middle" x="226" y="-7.5" font-family="Helvetica,sans-Serif" font-size="10.00"> char_t &gt;</text>
</a>
</g>
</g>
<!-- Node11&#45;&gt;Node10 -->
<g id="edge10" class="edge">
<title>Node11&#45;&gt;Node10</title>
<path fill="none" stroke="orange" stroke-dasharray="5,2" d="M296.48,-21C336.57,-21 386.22,-21 423.29,-21"/>
<polygon fill="orange" stroke="orange" points="296.25,-17.5 286.25,-21 296.25,-24.5 296.25,-17.5"/>
<text text-anchor="middle" x="350" y="-24" font-family="Helvetica,sans-Serif" font-size="10.00"> &lt; mask, 2, void &gt;</text>
</g>
</g>
</svg>
