<?xml version="1.0" encoding="UTF-8" standalone="no"?>
<!DOCTYPE svg PUBLIC "-//W3C//DTD SVG 1.1//EN"
 "http://www.w3.org/Graphics/SVG/1.1/DTD/svg11.dtd">
<!-- Generated by graphviz version 2.43.0 (0)
 -->
<!-- Title: bio::wuss&lt; SIZE &gt; Pages: 1 -->
<!--zoomable 235 -->
<svg id="main" version="1.1" xmlns="http://www.w3.org/2000/svg" xmlns:xlink="http://www.w3.org/1999/xlink" xml:space="preserve" onload="init(evt)">
<style type="text/css"><![CDATA[
.edge:hover path { stroke: red; }
.edge:hover polygon { stroke: red; fill: red; }
]]></style>
<script type="text/javascript"><![CDATA[
var edges = document.getElementsByTagName('g');
if (edges && edges.length) {
  for (var i=0;i<edges.length;i++) {
    if (edges[i].id.substr(0,4)=='edge') {
      edges[i].setAttribute('class','edge');
    }
  }
}
]]></script>
        <defs>
                <circle id="rim" cx="0" cy="0" r="7"/>
                <circle id="rim2" cx="0" cy="0" r="3.5"/>
                <g id="zoomPlus">
                        <use xlink:href="#rim" fill="#404040">
                                <set attributeName="fill" to="#808080" begin="zoomplus.mouseover" end="zoomplus.mouseout"/>
                        </use>
                        <path d="M-4,0h8M0,-4v8" fill="none" stroke="white" stroke-width="1.5" pointer-events="none"/>
                </g>
                <g id="zoomMin">
                        <use xlink:href="#rim" fill="#404040">
                                <set attributeName="fill" to="#808080" begin="zoomminus.mouseover" end="zoomminus.mouseout"/>
                        </use>
                        <path d="M-4,0h8" fill="none" stroke="white" stroke-width="1.5" pointer-events="none"/>
                </g>
                <g id="dirArrow">
                        <path fill="none" stroke="white" stroke-width="1.5" d="M0,-3.0v7 M-2.5,-0.5L0,-3.0L2.5,-0.5"/>
                </g>
               <g id="resetDef">
                       <use xlink:href="#rim2" fill="#404040">
                               <set attributeName="fill" to="#808080" begin="reset.mouseover" end="reset.mouseout"/>
                       </use>
               </g>
        </defs>

<script type="text/javascript">
var viewWidth = 834;
var viewHeight = 235;
var sectionId = 'dynsection-0';
</script>
<script xlink:href="svgpan.js"/>
<svg id="graph" class="graph">
<g id="viewport">
<title>bio::wuss&lt; SIZE &gt;</title>
<polygon fill="white" stroke="transparent" points="-4,4 -4,-231 830,-231 830,4 -4,4"/>
<!-- Node1 -->
<g id="node1" class="node">
<title>Node1</title>
<g id="a_node1"><a xlink:title="The WUSS structure alphabet of the characters .&lt;&gt;:,&#45;_~;()[]{}AaBbCcDd...">
<polygon fill="#bfbfbf" stroke="black" points="719,-105.5 719,-124.5 826,-124.5 826,-105.5 719,-105.5"/>
<text text-anchor="middle" x="772.5" y="-112.5" font-family="Helvetica,sans-Serif" font-size="10.00">bio::wuss&lt; SIZE &gt;</text>
</a>
</g>
</g>
<!-- Node2 -->
<g id="node2" class="node">
<title>Node2</title>
<g id="a_node2"><a xlink:href="interfacebio_1_1rna__structure__alphabet.html" target="_top" xlink:title="A concept that indicates whether an alphabet represents RNA structure.">
<polygon fill="white" stroke="black" points="553,-207.5 553,-226.5 682,-226.5 682,-207.5 553,-207.5"/>
<text text-anchor="middle" x="617.5" y="-214.5" font-family="Helvetica,sans-Serif" font-size="10.00">rna_structure_alphabet</text>
</a>
</g>
</g>
<!-- Node2&#45;&gt;Node1 -->
<g id="edge1" class="edge">
<title>Node2&#45;&gt;Node1</title>
<path fill="none" stroke="midnightblue" d="M669.72,-203.95C673.98,-202.19 678.13,-200.21 682,-198 716.96,-178.02 749.33,-141.98 763.69,-124.72"/>
<polygon fill="midnightblue" stroke="midnightblue" points="668.42,-200.7 660.28,-207.48 670.88,-207.26 668.42,-200.7"/>
</g>
<!-- Node3 -->
<g id="node3" class="node">
<title>Node3</title>
<g id="a_node3"><a xlink:href="interfacebio_1_1alphabet.html" target="_top" xlink:title="The generic alphabet concept that covers most data types used in ranges.">
<polygon fill="white" stroke="black" points="320.5,-201.5 320.5,-220.5 379.5,-220.5 379.5,-201.5 320.5,-201.5"/>
<text text-anchor="middle" x="350" y="-208.5" font-family="Helvetica,sans-Serif" font-size="10.00">alphabet</text>
</a>
</g>
</g>
<!-- Node3&#45;&gt;Node2 -->
<g id="edge2" class="edge">
<title>Node3&#45;&gt;Node2</title>
<path fill="none" stroke="midnightblue" d="M389.67,-211.87C432.43,-212.84 501.97,-214.41 552.8,-215.56"/>
<polygon fill="midnightblue" stroke="midnightblue" points="389.74,-208.37 379.67,-211.65 389.58,-215.37 389.74,-208.37"/>
</g>
<!-- Node7 -->
<g id="node7" class="node">
<title>Node7</title>
<g id="a_node7"><a xlink:href="interfacebio_1_1writable__alphabet.html" target="_top" xlink:title="Refines bio::alphabet and adds assignability.">
<polygon fill="white" stroke="black" points="565.5,-169.5 565.5,-188.5 669.5,-188.5 669.5,-169.5 565.5,-169.5"/>
<text text-anchor="middle" x="617.5" y="-176.5" font-family="Helvetica,sans-Serif" font-size="10.00">writable_alphabet</text>
</a>
</g>
</g>
<!-- Node3&#45;&gt;Node7 -->
<g id="edge7" class="edge">
<title>Node3&#45;&gt;Node7</title>
<path fill="none" stroke="midnightblue" d="M389.62,-206.35C435.99,-200.76 513.91,-191.36 565.27,-185.17"/>
<polygon fill="midnightblue" stroke="midnightblue" points="389.17,-202.87 379.67,-207.55 390.01,-209.82 389.17,-202.87"/>
</g>
<!-- Node4 -->
<g id="node4" class="node">
<title>Node4</title>
<g id="a_node4"><a xlink:href="interfacebio_1_1semialphabet.html" target="_top" xlink:title="The basis for bio::alphabet, but requires only rank interface (not char).">
<polygon fill="white" stroke="black" points="166,-181.5 166,-200.5 249,-200.5 249,-181.5 166,-181.5"/>
<text text-anchor="middle" x="207.5" y="-188.5" font-family="Helvetica,sans-Serif" font-size="10.00">semialphabet</text>
</a>
</g>
</g>
<!-- Node4&#45;&gt;Node3 -->
<g id="edge3" class="edge">
<title>Node4&#45;&gt;Node3</title>
<path fill="none" stroke="midnightblue" d="M259.05,-198.2C279.71,-201.14 302.85,-204.43 320.49,-206.94"/>
<polygon fill="midnightblue" stroke="midnightblue" points="259.53,-194.73 249.14,-196.78 258.55,-201.66 259.53,-194.73"/>
</g>
<!-- Node8 -->
<g id="node8" class="node">
<title>Node8</title>
<g id="a_node8"><a xlink:href="interfacebio_1_1writable__semialphabet.html" target="_top" xlink:title="A refinement of bio::semialphabet that adds assignability.">
<polygon fill="white" stroke="black" points="286,-163.5 286,-182.5 414,-182.5 414,-163.5 286,-163.5"/>
<text text-anchor="middle" x="350" y="-170.5" font-family="Helvetica,sans-Serif" font-size="10.00">writable_semialphabet</text>
</a>
</g>
</g>
<!-- Node4&#45;&gt;Node8 -->
<g id="edge9" class="edge">
<title>Node4&#45;&gt;Node8</title>
<path fill="none" stroke="midnightblue" d="M259.12,-184.51C267.83,-183.4 276.97,-182.23 285.95,-181.08"/>
<polygon fill="midnightblue" stroke="midnightblue" points="258.61,-181.05 249.14,-185.79 259.5,-187.99 258.61,-181.05"/>
</g>
<!-- Node5 -->
<g id="node5" class="node">
<title>Node5</title>
<g id="a_node5"><a xlink:title=" ">
<polygon fill="white" stroke="#bfbfbf" points="8.5,-200.5 8.5,-219.5 120.5,-219.5 120.5,-200.5 8.5,-200.5"/>
<text text-anchor="middle" x="64.5" y="-207.5" font-family="Helvetica,sans-Serif" font-size="10.00">std::totally_ordered</text>
</a>
</g>
</g>
<!-- Node5&#45;&gt;Node4 -->
<g id="edge4" class="edge">
<title>Node5&#45;&gt;Node4</title>
<path fill="none" stroke="midnightblue" d="M130.75,-201.21C142.67,-199.6 154.78,-197.97 165.72,-196.49"/>
<polygon fill="midnightblue" stroke="midnightblue" points="130.27,-197.74 120.82,-202.55 131.2,-204.68 130.27,-197.74"/>
</g>
<!-- Node6 -->
<g id="node6" class="node">
<title>Node6</title>
<g id="a_node6"><a xlink:title=" ">
<polygon fill="white" stroke="#bfbfbf" points="0,-162.5 0,-181.5 129,-181.5 129,-162.5 0,-162.5"/>
<text text-anchor="middle" x="64.5" y="-169.5" font-family="Helvetica,sans-Serif" font-size="10.00">std::copy_constructible</text>
</a>
</g>
</g>
<!-- Node6&#45;&gt;Node4 -->
<g id="edge5" class="edge">
<title>Node6&#45;&gt;Node4</title>
<path fill="none" stroke="midnightblue" d="M139.59,-181.98C148.62,-183.2 157.56,-184.41 165.84,-185.52"/>
<polygon fill="midnightblue" stroke="midnightblue" points="139.78,-178.48 129.4,-180.61 138.84,-185.41 139.78,-178.48"/>
</g>
<!-- Node7&#45;&gt;Node1 -->
<g id="edge6" class="edge">
<title>Node7&#45;&gt;Node1</title>
<path fill="none" stroke="midnightblue" d="M664.43,-166.3C670.4,-164.35 676.38,-162.23 682,-160 708.18,-149.59 737.07,-134.34 754.75,-124.54"/>
<polygon fill="midnightblue" stroke="midnightblue" points="662.97,-163.09 654.48,-169.43 665.06,-169.77 662.97,-163.09"/>
</g>
<!-- Node8&#45;&gt;Node7 -->
<g id="edge8" class="edge">
<title>Node8&#45;&gt;Node7</title>
<path fill="none" stroke="midnightblue" d="M424.5,-174.66C469.26,-175.67 525.32,-176.94 565.29,-177.84"/>
<polygon fill="midnightblue" stroke="midnightblue" points="424.33,-171.16 414.26,-174.43 424.17,-178.15 424.33,-171.16"/>
</g>
<!-- Node9 -->
<g id="node9" class="node">
<title>Node9</title>
<g id="a_node9"><a xlink:href="interfacebio_1_1trivially__copyable.html" target="_top" xlink:title="A type that satisfies std::is_trivially_copyable_v&lt;t&gt;.">
<polygon fill="white" stroke="black" points="565.5,-131.5 565.5,-150.5 669.5,-150.5 669.5,-131.5 565.5,-131.5"/>
<text text-anchor="middle" x="617.5" y="-138.5" font-family="Helvetica,sans-Serif" font-size="10.00">trivially_copyable</text>
</a>
</g>
</g>
<!-- Node9&#45;&gt;Node1 -->
<g id="edge10" class="edge">
<title>Node9&#45;&gt;Node1</title>
<path fill="none" stroke="midnightblue" d="M680.06,-130.54C692.95,-128.35 706.43,-126.06 718.96,-123.93"/>
<polygon fill="midnightblue" stroke="midnightblue" points="679.14,-127.14 669.87,-132.27 680.32,-134.05 679.14,-127.14"/>
</g>
<!-- Node10 -->
<g id="node10" class="node">
<title>Node10</title>
<g id="a_node10"><a xlink:title=" ">
<polygon fill="white" stroke="#bfbfbf" points="309,-125.5 309,-144.5 391,-144.5 391,-125.5 309,-125.5"/>
<text text-anchor="middle" x="350" y="-132.5" font-family="Helvetica,sans-Serif" font-size="10.00">std::copyable</text>
</a>
</g>
</g>
<!-- Node10&#45;&gt;Node9 -->
<g id="edge11" class="edge">
<title>Node10&#45;&gt;Node9</title>
<path fill="none" stroke="midnightblue" d="M401.27,-136.14C448.21,-137.2 517.93,-138.77 565.19,-139.84"/>
<polygon fill="midnightblue" stroke="midnightblue" points="401.11,-132.63 391.04,-135.9 400.95,-139.63 401.11,-132.63"/>
</g>
<!-- Node11 -->
<g id="node11" class="node">
<title>Node11</title>
<g id="a_node11"><a xlink:href="interfacebio_1_1standard__layout.html" target="_top" xlink:title="Resolves to std::is_standard_layout_v&lt;t&gt;.">
<polygon fill="white" stroke="black" points="570,-93.5 570,-112.5 665,-112.5 665,-93.5 570,-93.5"/>
<text text-anchor="middle" x="617.5" y="-100.5" font-family="Helvetica,sans-Serif" font-size="10.00">standard_layout</text>
</a>
</g>
</g>
<!-- Node11&#45;&gt;Node1 -->
<g id="edge12" class="edge">
<title>Node11&#45;&gt;Node1</title>
<path fill="none" stroke="midnightblue" d="M675.41,-107.46C689.66,-108.58 704.88,-109.77 718.9,-110.87"/>
<polygon fill="midnightblue" stroke="midnightblue" points="675.48,-103.96 665.24,-106.67 674.93,-110.94 675.48,-103.96"/>
</g>
<!-- Node12 -->
<g id="node12" class="node">
<title>Node12</title>
<g id="a_node12"><a xlink:title=" ">
<polygon fill="white" stroke="#bfbfbf" points="581.5,-55.5 581.5,-74.5 653.5,-74.5 653.5,-55.5 581.5,-55.5"/>
<text text-anchor="middle" x="617.5" y="-62.5" font-family="Helvetica,sans-Serif" font-size="10.00">std::regular</text>
</a>
</g>
</g>
<!-- Node12&#45;&gt;Node1 -->
<g id="edge13" class="edge">
<title>Node12&#45;&gt;Node1</title>
<path fill="none" stroke="midnightblue" d="M661.46,-77.58C668.34,-79.68 675.38,-81.86 682,-84 703.28,-90.87 727.21,-99.19 744.97,-105.48"/>
<polygon fill="midnightblue" stroke="midnightblue" points="662.13,-74.13 651.54,-74.6 660.11,-80.83 662.13,-74.13"/>
</g>
<!-- Node13 -->
<g id="node13" class="node">
<title>Node13</title>
<g id="a_node13"><a xlink:href="classbio_1_1alphabet__base.html" target="_top" xlink:title=" ">
<polygon fill="white" stroke="black" points="559.5,-6 559.5,-36 675.5,-36 675.5,-6 559.5,-6"/>
<text text-anchor="start" x="567.5" y="-24" font-family="Helvetica,sans-Serif" font-size="10.00">bio::alphabet_base</text>
<text text-anchor="middle" x="617.5" y="-13" font-family="Helvetica,sans-Serif" font-size="10.00">&lt; wuss&lt; 51 &gt;, 51 &gt;</text>
</a>
</g>
</g>
<!-- Node13&#45;&gt;Node1 -->
<g id="edge14" class="edge">
<title>Node13&#45;&gt;Node1</title>
<path fill="none" stroke="midnightblue" d="M671.06,-40.33C674.82,-42.12 678.51,-44.02 682,-46 713.06,-63.62 745.19,-91.06 761.17,-105.45"/>
<polygon fill="midnightblue" stroke="midnightblue" points="672.18,-36.99 661.62,-36.07 669.3,-43.37 672.18,-36.99"/>
</g>
<!-- Node14 -->
<g id="node14" class="node">
<title>Node14</title>
<g id="a_node14"><a xlink:href="classbio_1_1alphabet__base.html" target="_top" xlink:title="A CRTP&#45;base that makes defining a custom alphabet easier.">
<polygon fill="white" stroke="black" points="290,-0.5 290,-41.5 410,-41.5 410,-0.5 290,-0.5"/>
<text text-anchor="start" x="298" y="-29.5" font-family="Helvetica,sans-Serif" font-size="10.00">bio::alphabet_base</text>
<text text-anchor="start" x="298" y="-18.5" font-family="Helvetica,sans-Serif" font-size="10.00">&lt; derived_type, size,</text>
<text text-anchor="middle" x="350" y="-7.5" font-family="Helvetica,sans-Serif" font-size="10.00"> char_t &gt;</text>
</a>
</g>
</g>
<!-- Node14&#45;&gt;Node13 -->
<g id="edge15" class="edge">
<title>Node14&#45;&gt;Node13</title>
<path fill="none" stroke="orange" stroke-dasharray="5,2" d="M420.41,-21C463.62,-21 518.53,-21 559.25,-21"/>
<polygon fill="orange" stroke="orange" points="420.25,-17.5 410.25,-21 420.25,-24.5 420.25,-17.5"/>
<text text-anchor="middle" x="483.5" y="-24" font-family="Helvetica,sans-Serif" font-size="10.00"> &lt; wuss&lt; 51 &gt;, 51 &gt;</text>
</g>
</g>
</svg>
        <g id="navigator" transform="translate(0 0)" fill="#404254">
                <rect fill="#f2f5e9" fill-opacity="0.5" stroke="#606060" stroke-width=".5" x="0" y="0" width="60" height="60"/>
                <use id="zoomplus" xlink:href="#zoomPlus" x="17" y="9" onmousedown="handleZoom(evt,'in')"/>
                <use id="zoomminus" xlink:href="#zoomMin" x="42" y="9" onmousedown="handleZoom(evt,'out')"/>
                <use id="reset" xlink:href="#resetDef" x="30" y="36" onmousedown="handleReset()"/>
                <g id="arrowUp" xlink:href="#dirArrow" transform="translate(30 24)" onmousedown="handlePan(0,-1)">
                  <use xlink:href="#rim" fill="#404040">
                        <set attributeName="fill" to="#808080" begin="arrowUp.mouseover" end="arrowUp.mouseout"/>
                  </use>
                  <path fill="none" stroke="white" stroke-width="1.5" d="M0,-3.0v7 M-2.5,-0.5L0,-3.0L2.5,-0.5"/>
                </g>
                <g id="arrowRight" xlink:href="#dirArrow" transform="rotate(90) translate(36 -43)" onmousedown="handlePan(1,0)">
                  <use xlink:href="#rim" fill="#404040">
                        <set attributeName="fill" to="#808080" begin="arrowRight.mouseover" end="arrowRight.mouseout"/>
                  </use>
                  <path fill="none" stroke="white" stroke-width="1.5" d="M0,-3.0v7 M-2.5,-0.5L0,-3.0L2.5,-0.5"/>
                </g>
                <g id="arrowDown" xlink:href="#dirArrow" transform="rotate(180) translate(-30 -48)" onmousedown="handlePan(0,1)">
                  <use xlink:href="#rim" fill="#404040">
                        <set attributeName="fill" to="#808080" begin="arrowDown.mouseover" end="arrowDown.mouseout"/>
                  </use>
                  <path fill="none" stroke="white" stroke-width="1.5" d="M0,-3.0v7 M-2.5,-0.5L0,-3.0L2.5,-0.5"/>
                </g>
                <g id="arrowLeft" xlink:href="#dirArrow" transform="rotate(270) translate(-36 17)" onmousedown="handlePan(-1,0)">
                  <use xlink:href="#rim" fill="#404040">
                        <set attributeName="fill" to="#808080" begin="arrowLeft.mouseover" end="arrowLeft.mouseout"/>
                  </use>
                  <path fill="none" stroke="white" stroke-width="1.5" d="M0,-3.0v7 M-2.5,-0.5L0,-3.0L2.5,-0.5"/>
                </g>
        </g>
        <svg viewBox="0 0 15 15" width="100%" height="30px" preserveAspectRatio="xMaxYMin meet">
         <g id="arrow_out" transform="scale(0.3 0.3)">
          <a xlink:href="classbio_1_1wuss__inherit__graph_org.svg" target="_base">
           <rect id="button" ry="5" rx="5" y="6" x="6" height="38" width="38"
                fill="#f2f5e9" fill-opacity="0.5" stroke="#606060" stroke-width="1.0"/>
           <path id="arrow"
             d="M 11.500037,31.436501 C 11.940474,20.09759 22.043105,11.32322 32.158766,21.979434 L 37.068811,17.246167 C 37.068811,17.246167 37.088388,32 37.088388,32 L 22.160133,31.978069 C 22.160133,31.978069 26.997745,27.140456 26.997745,27.140456 C 18.528582,18.264221 13.291696,25.230495 11.500037,31.436501 z"
             style="fill:#404040;"/>
          </a>
         </g>
        </svg>
</svg>
