<?xml version="1.0" encoding="UTF-8" standalone="no"?>
<!DOCTYPE svg PUBLIC "-//W3C//DTD SVG 1.1//EN"
 "http://www.w3.org/Graphics/SVG/1.1/DTD/svg11.dtd">
<!-- Generated by graphviz version 2.43.0 (0)
 -->
<!-- Title: bio::alphabet::alphabet_proxy&lt; derived_type, alphabet_type &gt; Pages: 1 -->
<svg width="446pt" height="122pt"
 viewBox="0.00 0.00 446.00 121.50" xmlns="http://www.w3.org/2000/svg" xmlns:xlink="http://www.w3.org/1999/xlink">
<g id="graph0" class="graph" transform="scale(1 1) rotate(0) translate(4 117.5)">
<title>bio::alphabet::alphabet_proxy&lt; derived_type, alphabet_type &gt;</title>
<polygon fill="white" stroke="transparent" points="-4,4 -4,-117.5 442,-117.5 442,4 -4,4"/>
<!-- Node1 -->
<g id="node1" class="node">
<title>Node1</title>
<g id="a_node1"><a xlink:title="A CRTP&#45;base that eases the definition of proxy types returned in place of regular alphabets.">
<polygon fill="#bfbfbf" stroke="black" points="0,-33.5 0,-74.5 129,-74.5 129,-33.5 0,-33.5"/>
<text text-anchor="start" x="8" y="-62.5" font-family="Helvetica,sans-Serif" font-size="10.00">bio::alphabet::alphabet</text>
<text text-anchor="start" x="8" y="-51.5" font-family="Helvetica,sans-Serif" font-size="10.00">_proxy&lt; derived_type,</text>
<text text-anchor="middle" x="64.5" y="-40.5" font-family="Helvetica,sans-Serif" font-size="10.00"> alphabet_type &gt;</text>
</a>
</g>
</g>
<!-- Node2 -->
<g id="node2" class="node">
<title>Node2</title>
<g id="a_node2"><a xlink:href="classbio_1_1alphabet_1_1alphabet__proxy.html" target="_top" xlink:title=" ">
<polygon fill="white" stroke="black" points="289,-61 289,-113 438,-113 438,-61 289,-61"/>
<text text-anchor="start" x="297" y="-101" font-family="Helvetica,sans-Serif" font-size="10.00">bio::alphabet::alphabet</text>
<text text-anchor="start" x="297" y="-90" font-family="Helvetica,sans-Serif" font-size="10.00">_proxy&lt; component_proxy</text>
<text text-anchor="start" x="297" y="-79" font-family="Helvetica,sans-Serif" font-size="10.00">&lt; alphabet_type, index &gt;</text>
<text text-anchor="middle" x="363.5" y="-68" font-family="Helvetica,sans-Serif" font-size="10.00">, alphabet_type &gt;</text>
</a>
</g>
</g>
<!-- Node1&#45;&gt;Node2 -->
<g id="edge1" class="edge">
<title>Node1&#45;&gt;Node2</title>
<path fill="none" stroke="orange" stroke-dasharray="5,2" d="M139.34,-62.2C184.99,-67.28 243.36,-73.76 288.95,-78.83"/>
<polygon fill="orange" stroke="orange" points="139.54,-58.71 129.21,-61.08 138.77,-65.66 139.54,-58.71"/>
<text text-anchor="start" x="153.5" y="-101" font-family="Helvetica,sans-Serif" font-size="10.00"> &lt; component_proxy&lt;</text>
<text text-anchor="start" x="153.5" y="-90" font-family="Helvetica,sans-Serif" font-size="10.00"> alphabet_type, index</text>
<text text-anchor="middle" x="209" y="-79" font-family="Helvetica,sans-Serif" font-size="10.00"> &gt;, alphabet_type &gt;</text>
</g>
<!-- Node3 -->
<g id="node3" class="node">
<title>Node3</title>
<g id="a_node3"><a xlink:href="classbio_1_1alphabet_1_1alphabet__proxy.html" target="_top" xlink:title=" ">
<polygon fill="white" stroke="black" points="293.5,-0.5 293.5,-41.5 433.5,-41.5 433.5,-0.5 293.5,-0.5"/>
<text text-anchor="start" x="301.5" y="-29.5" font-family="Helvetica,sans-Serif" font-size="10.00">bio::alphabet::alphabet</text>
<text text-anchor="start" x="301.5" y="-18.5" font-family="Helvetica,sans-Serif" font-size="10.00">_proxy&lt; reference_proxy</text>
<text text-anchor="middle" x="363.5" y="-7.5" font-family="Helvetica,sans-Serif" font-size="10.00">_type, alphabet_type &gt;</text>
</a>
</g>
</g>
<!-- Node1&#45;&gt;Node3 -->
<g id="edge2" class="edge">
<title>Node1&#45;&gt;Node3</title>
<path fill="none" stroke="orange" stroke-dasharray="5,2" d="M138.93,-39.18C141.65,-38.76 144.35,-38.36 147,-38 195.71,-31.32 251,-27.03 293.38,-24.42"/>
<polygon fill="orange" stroke="orange" points="138.31,-35.73 129,-40.8 139.44,-42.64 138.31,-35.73"/>
<text text-anchor="start" x="147" y="-52" font-family="Helvetica,sans-Serif" font-size="10.00"> &lt; reference_proxy_type,</text>
<text text-anchor="middle" x="209" y="-41" font-family="Helvetica,sans-Serif" font-size="10.00"> alphabet_type &gt;</text>
</g>
</g>
</svg>
