<?xml version="1.0" encoding="UTF-8" standalone="no"?>
<!DOCTYPE svg PUBLIC "-//W3C//DTD SVG 1.1//EN"
 "http://www.w3.org/Graphics/SVG/1.1/DTD/svg11.dtd">
<!-- Generated by graphviz version 2.43.0 (0)
 -->
<!-- Title: bio::alphabet::cigar Pages: 1 -->
<!--zoomable 294 -->
<svg id="main" version="1.1" xmlns="http://www.w3.org/2000/svg" xmlns:xlink="http://www.w3.org/1999/xlink" xml:space="preserve" onload="init(evt)">
<style type="text/css"><![CDATA[
.edge:hover path { stroke: red; }
.edge:hover polygon { stroke: red; fill: red; }
]]></style>
<script type="text/javascript"><![CDATA[
var edges = document.getElementsByTagName('g');
if (edges && edges.length) {
  for (var i=0;i<edges.length;i++) {
    if (edges[i].id.substr(0,4)=='edge') {
      edges[i].setAttribute('class','edge');
    }
  }
}
]]></script>
        <defs>
                <circle id="rim" cx="0" cy="0" r="7"/>
                <circle id="rim2" cx="0" cy="0" r="3.5"/>
                <g id="zoomPlus">
                        <use xlink:href="#rim" fill="#404040">
                                <set attributeName="fill" to="#808080" begin="zoomplus.mouseover" end="zoomplus.mouseout"/>
                        </use>
                        <path d="M-4,0h8M0,-4v8" fill="none" stroke="white" stroke-width="1.5" pointer-events="none"/>
                </g>
                <g id="zoomMin">
                        <use xlink:href="#rim" fill="#404040">
                                <set attributeName="fill" to="#808080" begin="zoomminus.mouseover" end="zoomminus.mouseout"/>
                        </use>
                        <path d="M-4,0h8" fill="none" stroke="white" stroke-width="1.5" pointer-events="none"/>
                </g>
                <g id="dirArrow">
                        <path fill="none" stroke="white" stroke-width="1.5" d="M0,-3.0v7 M-2.5,-0.5L0,-3.0L2.5,-0.5"/>
                </g>
               <g id="resetDef">
                       <use xlink:href="#rim2" fill="#404040">
                               <set attributeName="fill" to="#808080" begin="reset.mouseover" end="reset.mouseout"/>
                       </use>
               </g>
        </defs>

<script type="text/javascript">
var viewWidth = 1394;
var viewHeight = 294;
var sectionId = 'dynsection-0';
</script>
<script xlink:href="svgpan.js"/>
<svg id="graph" class="graph">
<g id="viewport">
<title>bio::alphabet::cigar</title>
<polygon fill="white" stroke="transparent" points="-4,4 -4,-290 1390,-290 1390,4 -4,4"/>
<!-- Node1 -->
<g id="node1" class="node">
<title>Node1</title>
<g id="a_node1"><a xlink:title="The cigar semialphabet pairs a counter with a bio::alphabet::cigar_op letter.">
<polygon fill="#bfbfbf" stroke="black" points="1276,-76.5 1276,-95.5 1386,-95.5 1386,-76.5 1276,-76.5"/>
<text text-anchor="middle" x="1331" y="-83.5" font-family="Helvetica,sans-Serif" font-size="10.00">bio::alphabet::cigar</text>
</a>
</g>
</g>
<!-- Node2 -->
<g id="node2" class="node">
<title>Node2</title>
<g id="a_node2"><a xlink:href="interfacebio_1_1alphabet_1_1writable__semialphabet.html" target="_top" xlink:title="A refinement of bio::alphabet::semialphabet that adds assignability.">
<polygon fill="white" stroke="black" points="480.5,-147.5 480.5,-166.5 608.5,-166.5 608.5,-147.5 480.5,-147.5"/>
<text text-anchor="middle" x="544.5" y="-154.5" font-family="Helvetica,sans-Serif" font-size="10.00">writable_semialphabet</text>
</a>
</g>
</g>
<!-- Node2&#45;&gt;Node1 -->
<g id="edge1" class="edge">
<title>Node2&#45;&gt;Node1</title>
<path fill="none" stroke="midnightblue" d="M618.9,-154.66C745.84,-149.9 1014.35,-136.74 1239,-105 1255.78,-102.63 1274.1,-99.01 1289.88,-95.56"/>
<polygon fill="midnightblue" stroke="midnightblue" points="618.77,-151.16 608.91,-155.02 619.03,-158.15 618.77,-151.16"/>
</g>
<!-- Node10 -->
<g id="node10" class="node">
<title>Node10</title>
<g id="a_node10"><a xlink:href="classbio_1_1alphabet_1_1alphabet__tuple__base.html" target="_top" xlink:title=" ">
<polygon fill="white" stroke="black" points="1092,-171.5 1092,-212.5 1239,-212.5 1239,-171.5 1092,-171.5"/>
<text text-anchor="start" x="1100" y="-200.5" font-family="Helvetica,sans-Serif" font-size="10.00">bio::alphabet::alphabet</text>
<text text-anchor="start" x="1100" y="-189.5" font-family="Helvetica,sans-Serif" font-size="10.00">_tuple_base&lt; cigar, uint32</text>
<text text-anchor="middle" x="1165.5" y="-178.5" font-family="Helvetica,sans-Serif" font-size="10.00">_t, cigar_op &gt;</text>
</a>
</g>
</g>
<!-- Node2&#45;&gt;Node10 -->
<g id="edge10" class="edge">
<title>Node2&#45;&gt;Node10</title>
<path fill="none" stroke="midnightblue" d="M618.67,-161.14C737.89,-167.88 972.66,-181.15 1091.66,-187.88"/>
<polygon fill="midnightblue" stroke="midnightblue" points="618.73,-157.64 608.55,-160.56 618.33,-164.62 618.73,-157.64"/>
</g>
<!-- Node13 -->
<g id="node13" class="node">
<title>Node13</title>
<g id="a_node13"><a xlink:href="classbio_1_1alphabet_1_1alphabet__tuple__base.html" target="_top" xlink:title="The CRTP base for a combined alphabet that contains multiple values of different alphabets at the sam...">
<polygon fill="white" stroke="black" points="815,-190.5 815,-231.5 968,-231.5 968,-190.5 815,-190.5"/>
<text text-anchor="start" x="823" y="-219.5" font-family="Helvetica,sans-Serif" font-size="10.00">bio::alphabet::alphabet</text>
<text text-anchor="start" x="823" y="-208.5" font-family="Helvetica,sans-Serif" font-size="10.00">_tuple_base&lt; derived_type,</text>
<text text-anchor="middle" x="891.5" y="-197.5" font-family="Helvetica,sans-Serif" font-size="10.00"> component_types &gt;</text>
</a>
</g>
</g>
<!-- Node2&#45;&gt;Node13 -->
<g id="edge14" class="edge">
<title>Node2&#45;&gt;Node13</title>
<path fill="none" stroke="midnightblue" d="M603.16,-168.4C611.81,-170.01 620.63,-171.59 629,-173 691.43,-183.51 762.54,-193.73 814.83,-200.92"/>
<polygon fill="midnightblue" stroke="midnightblue" points="603.6,-164.92 593.12,-166.51 602.3,-171.8 603.6,-164.92"/>
</g>
<!-- Node3 -->
<g id="node3" class="node">
<title>Node3</title>
<g id="a_node3"><a xlink:href="interfacebio_1_1alphabet_1_1semialphabet.html" target="_top" xlink:title="The basis for bio::alphabet::alphabet, but requires only rank interface (not char).">
<polygon fill="white" stroke="black" points="199,-147.5 199,-166.5 282,-166.5 282,-147.5 199,-147.5"/>
<text text-anchor="middle" x="240.5" y="-154.5" font-family="Helvetica,sans-Serif" font-size="10.00">semialphabet</text>
</a>
</g>
</g>
<!-- Node3&#45;&gt;Node2 -->
<g id="edge2" class="edge">
<title>Node3&#45;&gt;Node2</title>
<path fill="none" stroke="midnightblue" d="M292.51,-157C344.28,-157 424.55,-157 480.32,-157"/>
<polygon fill="midnightblue" stroke="midnightblue" points="292.23,-153.5 282.23,-157 292.23,-160.5 292.23,-153.5"/>
</g>
<!-- Node4 -->
<g id="node4" class="node">
<title>Node4</title>
<g id="a_node4"><a xlink:title=" ">
<polygon fill="white" stroke="#bfbfbf" points="8.5,-166.5 8.5,-185.5 120.5,-185.5 120.5,-166.5 8.5,-166.5"/>
<text text-anchor="middle" x="64.5" y="-173.5" font-family="Helvetica,sans-Serif" font-size="10.00">std::totally_ordered</text>
</a>
</g>
</g>
<!-- Node4&#45;&gt;Node3 -->
<g id="edge3" class="edge">
<title>Node4&#45;&gt;Node3</title>
<path fill="none" stroke="midnightblue" d="M130.56,-168.9C153.47,-166.39 178.55,-163.66 198.87,-161.44"/>
<polygon fill="midnightblue" stroke="midnightblue" points="130.12,-165.42 120.55,-169.99 130.88,-172.38 130.12,-165.42"/>
</g>
<!-- Node5 -->
<g id="node5" class="node">
<title>Node5</title>
<g id="a_node5"><a xlink:title=" ">
<polygon fill="white" stroke="#bfbfbf" points="0,-128.5 0,-147.5 129,-147.5 129,-128.5 0,-128.5"/>
<text text-anchor="middle" x="64.5" y="-135.5" font-family="Helvetica,sans-Serif" font-size="10.00">std::copy_constructible</text>
</a>
</g>
</g>
<!-- Node5&#45;&gt;Node3 -->
<g id="edge4" class="edge">
<title>Node5&#45;&gt;Node3</title>
<path fill="none" stroke="midnightblue" d="M139.24,-146.05C159.7,-148.29 181.16,-150.63 198.95,-152.57"/>
<polygon fill="midnightblue" stroke="midnightblue" points="139.62,-142.57 129.3,-144.97 138.86,-149.53 139.62,-142.57"/>
</g>
<!-- Node6 -->
<g id="node6" class="node">
<title>Node6</title>
<g id="a_node6"><a xlink:href="interfacebio_1_1meta_1_1trivially__copyable.html" target="_top" xlink:title="A type that satisfies std::is_trivially_copyable_v&lt;t&gt;.">
<polygon fill="white" stroke="black" points="1113.5,-76.5 1113.5,-95.5 1217.5,-95.5 1217.5,-76.5 1113.5,-76.5"/>
<text text-anchor="middle" x="1165.5" y="-83.5" font-family="Helvetica,sans-Serif" font-size="10.00">trivially_copyable</text>
</a>
</g>
</g>
<!-- Node6&#45;&gt;Node1 -->
<g id="edge5" class="edge">
<title>Node6&#45;&gt;Node1</title>
<path fill="none" stroke="midnightblue" d="M1227.94,-86C1243.66,-86 1260.46,-86 1275.79,-86"/>
<polygon fill="midnightblue" stroke="midnightblue" points="1227.78,-82.5 1217.78,-86 1227.78,-89.5 1227.78,-82.5"/>
</g>
<!-- Node7 -->
<g id="node7" class="node">
<title>Node7</title>
<g id="a_node7"><a xlink:title=" ">
<polygon fill="white" stroke="#bfbfbf" points="850.5,-76.5 850.5,-95.5 932.5,-95.5 932.5,-76.5 850.5,-76.5"/>
<text text-anchor="middle" x="891.5" y="-83.5" font-family="Helvetica,sans-Serif" font-size="10.00">std::copyable</text>
</a>
</g>
</g>
<!-- Node7&#45;&gt;Node6 -->
<g id="edge6" class="edge">
<title>Node7&#45;&gt;Node6</title>
<path fill="none" stroke="midnightblue" d="M942.89,-86C991.34,-86 1064.23,-86 1113.04,-86"/>
<polygon fill="midnightblue" stroke="midnightblue" points="942.63,-82.5 932.63,-86 942.63,-89.5 942.63,-82.5"/>
</g>
<!-- Node8 -->
<g id="node8" class="node">
<title>Node8</title>
<g id="a_node8"><a xlink:href="interfacebio_1_1meta_1_1standard__layout.html" target="_top" xlink:title="Resolves to std::is_standard_layout_v&lt;t&gt;.">
<polygon fill="white" stroke="black" points="1118,-38.5 1118,-57.5 1213,-57.5 1213,-38.5 1118,-38.5"/>
<text text-anchor="middle" x="1165.5" y="-45.5" font-family="Helvetica,sans-Serif" font-size="10.00">standard_layout</text>
</a>
</g>
</g>
<!-- Node8&#45;&gt;Node1 -->
<g id="edge7" class="edge">
<title>Node8&#45;&gt;Node1</title>
<path fill="none" stroke="midnightblue" d="M1217.68,-59.9C1240.67,-65.24 1267.41,-71.45 1289.04,-76.48"/>
<polygon fill="midnightblue" stroke="midnightblue" points="1218.29,-56.44 1207.76,-57.59 1216.71,-63.26 1218.29,-56.44"/>
</g>
<!-- Node9 -->
<g id="node9" class="node">
<title>Node9</title>
<g id="a_node9"><a xlink:title=" ">
<polygon fill="white" stroke="#bfbfbf" points="1129.5,-0.5 1129.5,-19.5 1201.5,-19.5 1201.5,-0.5 1129.5,-0.5"/>
<text text-anchor="middle" x="1165.5" y="-7.5" font-family="Helvetica,sans-Serif" font-size="10.00">std::regular</text>
</a>
</g>
</g>
<!-- Node9&#45;&gt;Node1 -->
<g id="edge8" class="edge">
<title>Node9&#45;&gt;Node1</title>
<path fill="none" stroke="midnightblue" d="M1211.42,-19.5C1220.72,-22.09 1230.32,-25.25 1239,-29 1268.95,-41.94 1300.47,-63.83 1317.43,-76.38"/>
<polygon fill="midnightblue" stroke="midnightblue" points="1212.08,-16.05 1201.52,-16.91 1210.3,-22.83 1212.08,-16.05"/>
</g>
<!-- Node10&#45;&gt;Node1 -->
<g id="edge9" class="edge">
<title>Node10&#45;&gt;Node1</title>
<path fill="none" stroke="midnightblue" d="M1212.04,-166.24C1226.87,-157.55 1243.3,-147.62 1258,-138 1279.42,-123.99 1303.33,-106.28 1317.5,-95.57"/>
<polygon fill="midnightblue" stroke="midnightblue" points="1209.93,-163.42 1203.04,-171.47 1213.45,-169.47 1209.93,-163.42"/>
</g>
<!-- Node11 -->
<g id="node11" class="node">
<title>Node11</title>
<g id="a_node11"><a xlink:href="classbio_1_1alphabet_1_1alphabet__base.html" target="_top" xlink:title=" ">
<polygon fill="white" stroke="black" points="629,-244.5 629,-285.5 797,-285.5 797,-244.5 629,-244.5"/>
<text text-anchor="start" x="637" y="-273.5" font-family="Helvetica,sans-Serif" font-size="10.00">bio::alphabet::alphabet</text>
<text text-anchor="start" x="637" y="-262.5" font-family="Helvetica,sans-Serif" font-size="10.00">_base&lt; cigar,(1 *... *size</text>
<text text-anchor="middle" x="713" y="-251.5" font-family="Helvetica,sans-Serif" font-size="10.00">&lt; component_types &gt;), void &gt;</text>
</a>
</g>
</g>
<!-- Node11&#45;&gt;Node10 -->
<g id="edge11" class="edge">
<title>Node11&#45;&gt;Node10</title>
<path fill="none" stroke="midnightblue" d="M807.25,-263.75C880.74,-260.9 985.25,-252.71 1074,-230 1090.34,-225.82 1107.58,-219.19 1122.58,-212.63"/>
<polygon fill="midnightblue" stroke="midnightblue" points="806.96,-260.26 797.1,-264.11 807.22,-267.25 806.96,-260.26"/>
</g>
<!-- Node12 -->
<g id="node12" class="node">
<title>Node12</title>
<g id="a_node12"><a xlink:href="classbio_1_1alphabet_1_1alphabet__base.html" target="_top" xlink:title="A CRTP&#45;base that makes defining a custom alphabet easier.">
<polygon fill="white" stroke="black" points="166,-218.5 166,-259.5 315,-259.5 315,-218.5 166,-218.5"/>
<text text-anchor="start" x="174" y="-247.5" font-family="Helvetica,sans-Serif" font-size="10.00">bio::alphabet::alphabet</text>
<text text-anchor="start" x="174" y="-236.5" font-family="Helvetica,sans-Serif" font-size="10.00">_base&lt; derived_type, size,</text>
<text text-anchor="middle" x="240.5" y="-225.5" font-family="Helvetica,sans-Serif" font-size="10.00"> char_t &gt;</text>
</a>
</g>
</g>
<!-- Node12&#45;&gt;Node11 -->
<g id="edge12" class="edge">
<title>Node12&#45;&gt;Node11</title>
<path fill="none" stroke="orange" stroke-dasharray="5,2" d="M325.39,-244.54C327.96,-244.7 330.5,-244.85 333,-245 434.79,-251.02 552.01,-257.07 628.81,-260.92"/>
<polygon fill="orange" stroke="orange" points="325.6,-241.05 315.41,-243.93 325.17,-248.04 325.6,-241.05"/>
<text text-anchor="start" x="338" y="-277" font-family="Helvetica,sans-Serif" font-size="10.00"> &lt; cigar,(1 *... *size</text>
<text text-anchor="start" x="338" y="-266" font-family="Helvetica,sans-Serif" font-size="10.00">&lt; component_types &gt;),</text>
<text text-anchor="middle" x="396.5" y="-255" font-family="Helvetica,sans-Serif" font-size="10.00"> void &gt;</text>
</g>
<!-- Node14 -->
<g id="node14" class="node">
<title>Node14</title>
<g id="a_node14"><a xlink:href="classbio_1_1alphabet_1_1alphabet__base.html" target="_top" xlink:title=" ">
<polygon fill="white" stroke="black" points="478,-186 478,-238 611,-238 611,-186 478,-186"/>
<text text-anchor="start" x="486" y="-226" font-family="Helvetica,sans-Serif" font-size="10.00">bio::alphabet::alphabet</text>
<text text-anchor="start" x="486" y="-215" font-family="Helvetica,sans-Serif" font-size="10.00">_base&lt; derived_type,(1</text>
<text text-anchor="start" x="486" y="-204" font-family="Helvetica,sans-Serif" font-size="10.00"> *... *size&lt; component</text>
<text text-anchor="middle" x="544.5" y="-193" font-family="Helvetica,sans-Serif" font-size="10.00">_types &gt;), void &gt;</text>
</a>
</g>
</g>
<!-- Node12&#45;&gt;Node14 -->
<g id="edge16" class="edge">
<title>Node12&#45;&gt;Node14</title>
<path fill="none" stroke="orange" stroke-dasharray="5,2" d="M312.5,-215.91C319.37,-214.32 326.28,-212.97 333,-212 381.11,-205.05 436.04,-205.32 477.73,-207.19"/>
<polygon fill="orange" stroke="orange" points="311.35,-212.59 302.48,-218.38 313.03,-219.38 311.35,-212.59"/>
<text text-anchor="start" x="333" y="-237" font-family="Helvetica,sans-Serif" font-size="10.00"> &lt; derived_type,(1 *...</text>
<text text-anchor="start" x="333" y="-226" font-family="Helvetica,sans-Serif" font-size="10.00"> *size&lt; component_types</text>
<text text-anchor="middle" x="396.5" y="-215" font-family="Helvetica,sans-Serif" font-size="10.00"> &gt;), void &gt;</text>
</g>
<!-- Node13&#45;&gt;Node10 -->
<g id="edge13" class="edge">
<title>Node13&#45;&gt;Node10</title>
<path fill="none" stroke="orange" stroke-dasharray="5,2" d="M978.41,-205C1014.92,-202.45 1057.03,-199.51 1091.95,-197.07"/>
<polygon fill="orange" stroke="orange" points="978,-201.52 968.27,-205.71 978.49,-208.5 978,-201.52"/>
<text text-anchor="start" x="986" y="-218" font-family="Helvetica,sans-Serif" font-size="10.00"> &lt; cigar, uint32_t,</text>
<text text-anchor="middle" x="1030" y="-207" font-family="Helvetica,sans-Serif" font-size="10.00"> cigar_op &gt;</text>
</g>
<!-- Node14&#45;&gt;Node13 -->
<g id="edge15" class="edge">
<title>Node14&#45;&gt;Node13</title>
<path fill="none" stroke="midnightblue" d="M621.32,-211.78C678.79,-211.61 757.4,-211.39 814.83,-211.22"/>
<polygon fill="midnightblue" stroke="midnightblue" points="621.19,-208.28 611.2,-211.81 621.21,-215.28 621.19,-208.28"/>
</g>
</g>
</svg>
        <g id="navigator" transform="translate(0 0)" fill="#404254">
                <rect fill="#f2f5e9" fill-opacity="0.5" stroke="#606060" stroke-width=".5" x="0" y="0" width="60" height="60"/>
                <use id="zoomplus" xlink:href="#zoomPlus" x="17" y="9" onmousedown="handleZoom(evt,'in')"/>
                <use id="zoomminus" xlink:href="#zoomMin" x="42" y="9" onmousedown="handleZoom(evt,'out')"/>
                <use id="reset" xlink:href="#resetDef" x="30" y="36" onmousedown="handleReset()"/>
                <g id="arrowUp" xlink:href="#dirArrow" transform="translate(30 24)" onmousedown="handlePan(0,-1)">
                  <use xlink:href="#rim" fill="#404040">
                        <set attributeName="fill" to="#808080" begin="arrowUp.mouseover" end="arrowUp.mouseout"/>
                  </use>
                  <path fill="none" stroke="white" stroke-width="1.5" d="M0,-3.0v7 M-2.5,-0.5L0,-3.0L2.5,-0.5"/>
                </g>
                <g id="arrowRight" xlink:href="#dirArrow" transform="rotate(90) translate(36 -43)" onmousedown="handlePan(1,0)">
                  <use xlink:href="#rim" fill="#404040">
                        <set attributeName="fill" to="#808080" begin="arrowRight.mouseover" end="arrowRight.mouseout"/>
                  </use>
                  <path fill="none" stroke="white" stroke-width="1.5" d="M0,-3.0v7 M-2.5,-0.5L0,-3.0L2.5,-0.5"/>
                </g>
                <g id="arrowDown" xlink:href="#dirArrow" transform="rotate(180) translate(-30 -48)" onmousedown="handlePan(0,1)">
                  <use xlink:href="#rim" fill="#404040">
                        <set attributeName="fill" to="#808080" begin="arrowDown.mouseover" end="arrowDown.mouseout"/>
                  </use>
                  <path fill="none" stroke="white" stroke-width="1.5" d="M0,-3.0v7 M-2.5,-0.5L0,-3.0L2.5,-0.5"/>
                </g>
                <g id="arrowLeft" xlink:href="#dirArrow" transform="rotate(270) translate(-36 17)" onmousedown="handlePan(-1,0)">
                  <use xlink:href="#rim" fill="#404040">
                        <set attributeName="fill" to="#808080" begin="arrowLeft.mouseover" end="arrowLeft.mouseout"/>
                  </use>
                  <path fill="none" stroke="white" stroke-width="1.5" d="M0,-3.0v7 M-2.5,-0.5L0,-3.0L2.5,-0.5"/>
                </g>
        </g>
        <svg viewBox="0 0 15 15" width="100%" height="30px" preserveAspectRatio="xMaxYMin meet">
         <g id="arrow_out" transform="scale(0.3 0.3)">
          <a xlink:href="classbio_1_1alphabet_1_1cigar__inherit__graph_org.svg" target="_base">
           <rect id="button" ry="5" rx="5" y="6" x="6" height="38" width="38"
                fill="#f2f5e9" fill-opacity="0.5" stroke="#606060" stroke-width="1.0"/>
           <path id="arrow"
             d="M 11.500037,31.436501 C 11.940474,20.09759 22.043105,11.32322 32.158766,21.979434 L 37.068811,17.246167 C 37.068811,17.246167 37.088388,32 37.088388,32 L 22.160133,31.978069 C 22.160133,31.978069 26.997745,27.140456 26.997745,27.140456 C 18.528582,18.264221 13.291696,25.230495 11.500037,31.436501 z"
             style="fill:#404040;"/>
          </a>
         </g>
        </svg>
</svg>
