<?xml version="1.0" encoding="UTF-8" standalone="no"?>
<!DOCTYPE svg PUBLIC "-//W3C//DTD SVG 1.1//EN"
 "http://www.w3.org/Graphics/SVG/1.1/DTD/svg11.dtd">
<!-- Generated by graphviz version 2.43.0 (0)
 -->
<!-- Title: bio::small_vector&lt; value_type_, capacity_ &gt; Pages: 1 -->
<!--zoomable 178 -->
<svg id="main" version="1.1" xmlns="http://www.w3.org/2000/svg" xmlns:xlink="http://www.w3.org/1999/xlink" xml:space="preserve" onload="init(evt)">
<style type="text/css"><![CDATA[
.edge:hover path { stroke: red; }
.edge:hover polygon { stroke: red; fill: red; }
]]></style>
<script type="text/javascript"><![CDATA[
var edges = document.getElementsByTagName('g');
if (edges && edges.length) {
  for (var i=0;i<edges.length;i++) {
    if (edges[i].id.substr(0,4)=='edge') {
      edges[i].setAttribute('class','edge');
    }
  }
}
]]></script>
        <defs>
                <circle id="rim" cx="0" cy="0" r="7"/>
                <circle id="rim2" cx="0" cy="0" r="3.5"/>
                <g id="zoomPlus">
                        <use xlink:href="#rim" fill="#404040">
                                <set attributeName="fill" to="#808080" begin="zoomplus.mouseover" end="zoomplus.mouseout"/>
                        </use>
                        <path d="M-4,0h8M0,-4v8" fill="none" stroke="white" stroke-width="1.5" pointer-events="none"/>
                </g>
                <g id="zoomMin">
                        <use xlink:href="#rim" fill="#404040">
                                <set attributeName="fill" to="#808080" begin="zoomminus.mouseover" end="zoomminus.mouseout"/>
                        </use>
                        <path d="M-4,0h8" fill="none" stroke="white" stroke-width="1.5" pointer-events="none"/>
                </g>
                <g id="dirArrow">
                        <path fill="none" stroke="white" stroke-width="1.5" d="M0,-3.0v7 M-2.5,-0.5L0,-3.0L2.5,-0.5"/>
                </g>
               <g id="resetDef">
                       <use xlink:href="#rim2" fill="#404040">
                               <set attributeName="fill" to="#808080" begin="reset.mouseover" end="reset.mouseout"/>
                       </use>
               </g>
        </defs>

<script type="text/javascript">
var viewWidth = 1434;
var viewHeight = 178;
var sectionId = 'dynsection-0';
</script>
<script xlink:href="svgpan.js"/>
<svg id="graph" class="graph">
<g id="viewport">
<title>bio::small_vector&lt; value_type_, capacity_ &gt;</title>
<polygon fill="white" stroke="transparent" points="-4,4 -4,-173.5 1430,-173.5 1430,4 -4,4"/>
<!-- Node1 -->
<g id="node1" class="node">
<title>Node1</title>
<g id="a_node1"><a xlink:title="A constexpr vector implementation with dynamic size at compile time.">
<polygon fill="#bfbfbf" stroke="black" points="871,-7 871,-37 1014,-37 1014,-7 871,-7"/>
<text text-anchor="start" x="879" y="-25" font-family="Helvetica,sans-Serif" font-size="10.00">bio::small_vector&lt;</text>
<text text-anchor="middle" x="942.5" y="-14" font-family="Helvetica,sans-Serif" font-size="10.00"> value_type_, capacity_ &gt;</text>
</a>
</g>
</g>
<!-- Node13 -->
<g id="node13" class="node">
<title>Node13</title>
<g id="a_node13"><a xlink:href="classbio_1_1small__vector.html" target="_top" xlink:title=" ">
<polygon fill="white" stroke="black" points="1164,-7 1164,-37 1283,-37 1283,-7 1164,-7"/>
<text text-anchor="start" x="1172" y="-25" font-family="Helvetica,sans-Serif" font-size="10.00">bio::small_vector&lt;</text>
<text text-anchor="middle" x="1223.5" y="-14" font-family="Helvetica,sans-Serif" font-size="10.00"> char, capacity_+1 &gt;</text>
</a>
</g>
</g>
<!-- Node1&#45;&gt;Node13 -->
<g id="edge12" class="edge">
<title>Node1&#45;&gt;Node13</title>
<path fill="none" stroke="orange" stroke-dasharray="5,2" d="M1024.47,-22C1068.96,-22 1123.15,-22 1163.59,-22"/>
<polygon fill="orange" stroke="orange" points="1024.26,-18.5 1014.26,-22 1024.26,-25.5 1024.26,-18.5"/>
<text text-anchor="middle" x="1089" y="-25" font-family="Helvetica,sans-Serif" font-size="10.00"> &lt; char, capacity_+1 &gt;</text>
</g>
<!-- Node2 -->
<g id="node2" class="node">
<title>Node2</title>
<g id="a_node2"><a xlink:href="interfacebio_1_1reservible__container.html" target="_top" xlink:title="A more refined container concept than bio::random_access_container.">
<polygon fill="white" stroke="black" points="718,-38.5 718,-57.5 834,-57.5 834,-38.5 718,-38.5"/>
<text text-anchor="middle" x="776" y="-45.5" font-family="Helvetica,sans-Serif" font-size="10.00">reservible_container</text>
</a>
</g>
</g>
<!-- Node2&#45;&gt;Node1 -->
<g id="edge1" class="edge">
<title>Node2&#45;&gt;Node1</title>
<path fill="none" stroke="midnightblue" d="M843.97,-37.42C852.84,-36.01 861.97,-34.57 870.9,-33.16"/>
<polygon fill="midnightblue" stroke="midnightblue" points="843.4,-33.96 834.07,-38.98 844.5,-40.88 843.4,-33.96"/>
</g>
<!-- Node3 -->
<g id="node3" class="node">
<title>Node3</title>
<g id="a_node3"><a xlink:href="interfacebio_1_1random__access__container.html" target="_top" xlink:title="A more refined container concept than bio::sequence_container.">
<polygon fill="white" stroke="black" points="538,-38.5 538,-57.5 681,-57.5 681,-38.5 538,-38.5"/>
<text text-anchor="middle" x="609.5" y="-45.5" font-family="Helvetica,sans-Serif" font-size="10.00">random_access_container</text>
</a>
</g>
</g>
<!-- Node3&#45;&gt;Node2 -->
<g id="edge2" class="edge">
<title>Node3&#45;&gt;Node2</title>
<path fill="none" stroke="midnightblue" d="M691.35,-48C700.34,-48 709.37,-48 717.98,-48"/>
<polygon fill="midnightblue" stroke="midnightblue" points="691.22,-44.5 681.22,-48 691.22,-51.5 691.22,-44.5"/>
</g>
<!-- Node4 -->
<g id="node4" class="node">
<title>Node4</title>
<g id="a_node4"><a xlink:href="interfacebio_1_1sequence__container.html" target="_top" xlink:title="A more refined container concept than bio::container.">
<polygon fill="white" stroke="black" points="387,-70.5 387,-89.5 501,-89.5 501,-70.5 387,-70.5"/>
<text text-anchor="middle" x="444" y="-77.5" font-family="Helvetica,sans-Serif" font-size="10.00">sequence_container</text>
</a>
</g>
</g>
<!-- Node4&#45;&gt;Node3 -->
<g id="edge3" class="edge">
<title>Node4&#45;&gt;Node3</title>
<path fill="none" stroke="midnightblue" d="M503.64,-68.52C522.04,-64.92 542.15,-60.99 559.79,-57.53"/>
<polygon fill="midnightblue" stroke="midnightblue" points="502.75,-65.13 493.61,-70.49 504.1,-72 502.75,-65.13"/>
</g>
<!-- Node5 -->
<g id="node5" class="node">
<title>Node5</title>
<g id="a_node5"><a xlink:href="interfacebio_1_1container.html" target="_top" xlink:title="The (most general) container concept as defined by the standard library.">
<polygon fill="white" stroke="black" points="288,-70.5 288,-89.5 350,-89.5 350,-70.5 288,-70.5"/>
<text text-anchor="middle" x="319" y="-77.5" font-family="Helvetica,sans-Serif" font-size="10.00">container</text>
</a>
</g>
</g>
<!-- Node5&#45;&gt;Node4 -->
<g id="edge4" class="edge">
<title>Node5&#45;&gt;Node4</title>
<path fill="none" stroke="midnightblue" d="M360.13,-80C368.65,-80 377.8,-80 386.8,-80"/>
<polygon fill="midnightblue" stroke="midnightblue" points="360.09,-76.5 350.09,-80 360.09,-83.5 360.09,-76.5"/>
</g>
<!-- Node6 -->
<g id="node6" class="node">
<title>Node6</title>
<g id="a_node6"><a xlink:title=" ">
<polygon fill="white" stroke="#bfbfbf" points="134.5,-139 134.5,-169 248.5,-169 248.5,-139 134.5,-139"/>
<text text-anchor="start" x="142.5" y="-157" font-family="Helvetica,sans-Serif" font-size="10.00">std::ranges::forward</text>
<text text-anchor="middle" x="191.5" y="-146" font-family="Helvetica,sans-Serif" font-size="10.00">_range</text>
</a>
</g>
</g>
<!-- Node6&#45;&gt;Node5 -->
<g id="edge5" class="edge">
<title>Node6&#45;&gt;Node5</title>
<path fill="none" stroke="midnightblue" d="M242.23,-134.63C245.24,-133.14 248.18,-131.6 251,-130 271.97,-118.13 293.91,-100.63 306.75,-89.79"/>
<polygon fill="midnightblue" stroke="midnightblue" points="240.67,-131.5 233.1,-138.91 243.64,-137.84 240.67,-131.5"/>
</g>
<!-- Node7 -->
<g id="node7" class="node">
<title>Node7</title>
<g id="a_node7"><a xlink:title=" ">
<polygon fill="white" stroke="#bfbfbf" points="140.5,-90 140.5,-120 242.5,-120 242.5,-90 140.5,-90"/>
<text text-anchor="start" x="148.5" y="-108" font-family="Helvetica,sans-Serif" font-size="10.00">std::ranges::sized</text>
<text text-anchor="middle" x="191.5" y="-97" font-family="Helvetica,sans-Serif" font-size="10.00">_range</text>
</a>
</g>
</g>
<!-- Node7&#45;&gt;Node5 -->
<g id="edge6" class="edge">
<title>Node7&#45;&gt;Node5</title>
<path fill="none" stroke="midnightblue" d="M252.95,-92.96C265.09,-90.54 277.35,-88.1 287.9,-86"/>
<polygon fill="midnightblue" stroke="midnightblue" points="251.95,-89.59 242.82,-94.98 253.31,-96.45 251.95,-89.59"/>
</g>
<!-- Node8 -->
<g id="node8" class="node">
<title>Node8</title>
<g id="a_node8"><a xlink:title=" ">
<polygon fill="white" stroke="#bfbfbf" points="132,-41 132,-71 251,-71 251,-41 132,-41"/>
<text text-anchor="start" x="140" y="-59" font-family="Helvetica,sans-Serif" font-size="10.00">std::ranges::common</text>
<text text-anchor="middle" x="191.5" y="-48" font-family="Helvetica,sans-Serif" font-size="10.00">_range</text>
</a>
</g>
</g>
<!-- Node8&#45;&gt;Node5 -->
<g id="edge7" class="edge">
<title>Node8&#45;&gt;Node5</title>
<path fill="none" stroke="midnightblue" d="M261.28,-69.15C270.54,-70.92 279.61,-72.66 287.7,-74.21"/>
<polygon fill="midnightblue" stroke="midnightblue" points="261.69,-65.67 251.21,-67.23 260.37,-72.54 261.69,-65.67"/>
</g>
<!-- Node9 -->
<g id="node9" class="node">
<title>Node9</title>
<g id="a_node9"><a xlink:href="interfacebio_1_1const__iterable__range.html" target="_top" xlink:title="Specifies requirements of an input range type for which the const version of that type satisfies the ...">
<polygon fill="white" stroke="black" points="132,-2.5 132,-21.5 251,-21.5 251,-2.5 132,-2.5"/>
<text text-anchor="middle" x="191.5" y="-9.5" font-family="Helvetica,sans-Serif" font-size="10.00">const_iterable_range</text>
</a>
</g>
</g>
<!-- Node9&#45;&gt;Node5 -->
<g id="edge8" class="edge">
<title>Node9&#45;&gt;Node5</title>
<path fill="none" stroke="midnightblue" d="M235.52,-25.08C240.83,-27.17 246.11,-29.48 251,-32 272.12,-42.87 294.02,-59.83 306.81,-70.41"/>
<polygon fill="midnightblue" stroke="midnightblue" points="236.59,-21.75 225.99,-21.57 234.17,-28.32 236.59,-21.75"/>
</g>
<!-- Node10 -->
<g id="node10" class="node">
<title>Node10</title>
<g id="a_node10"><a xlink:title=" ">
<polygon fill="white" stroke="#bfbfbf" points="0,-2.5 0,-21.5 95,-21.5 95,-2.5 0,-2.5"/>
<text text-anchor="middle" x="47.5" y="-9.5" font-family="Helvetica,sans-Serif" font-size="10.00">std::input_range</text>
</a>
</g>
</g>
<!-- Node10&#45;&gt;Node9 -->
<g id="edge9" class="edge">
<title>Node10&#45;&gt;Node9</title>
<path fill="none" stroke="midnightblue" d="M105.4,-12C114.08,-12 123.04,-12 131.76,-12"/>
<polygon fill="midnightblue" stroke="midnightblue" points="105.39,-8.5 95.39,-12 105.39,-15.5 105.39,-8.5"/>
</g>
<!-- Node11 -->
<g id="node11" class="node">
<title>Node11</title>
<g id="a_node11"><a xlink:title=" ">
<polygon fill="white" stroke="#bfbfbf" points="387,-21 387,-51 501,-51 501,-21 387,-21"/>
<text text-anchor="start" x="395" y="-39" font-family="Helvetica,sans-Serif" font-size="10.00">std::ranges::random</text>
<text text-anchor="middle" x="444" y="-28" font-family="Helvetica,sans-Serif" font-size="10.00">_access_range</text>
</a>
</g>
</g>
<!-- Node11&#45;&gt;Node3 -->
<g id="edge10" class="edge">
<title>Node11&#45;&gt;Node3</title>
<path fill="none" stroke="midnightblue" d="M511.41,-40.87C520.16,-41.52 529.16,-42.18 537.97,-42.82"/>
<polygon fill="midnightblue" stroke="midnightblue" points="511.5,-37.37 501.27,-40.13 510.98,-44.35 511.5,-37.37"/>
</g>
<!-- Node12 -->
<g id="node12" class="node">
<title>Node12</title>
<g id="a_node12"><a xlink:href="interfacebio_1_1cerealisable.html" target="_top" xlink:title="Specifies the requirements for types that are serialisable via Cereal.">
<polygon fill="white" stroke="black" points="738,-0.5 738,-19.5 814,-19.5 814,-0.5 738,-0.5"/>
<text text-anchor="middle" x="776" y="-7.5" font-family="Helvetica,sans-Serif" font-size="10.00">cerealisable</text>
</a>
</g>
</g>
<!-- Node12&#45;&gt;Node1 -->
<g id="edge11" class="edge">
<title>Node12&#45;&gt;Node1</title>
<path fill="none" stroke="midnightblue" d="M824.54,-13.47C839.03,-14.53 855.29,-15.71 870.96,-16.85"/>
<polygon fill="midnightblue" stroke="midnightblue" points="824.56,-9.96 814.33,-12.72 824.05,-16.94 824.56,-9.96"/>
</g>
<!-- Node14 -->
<g id="node14" class="node">
<title>Node14</title>
<g id="a_node14"><a xlink:href="classbio_1_1small__string.html" target="_top" xlink:title="Implements a small string that can be used for compile time computations.">
<polygon fill="white" stroke="black" points="1320,-7 1320,-37 1426,-37 1426,-7 1320,-7"/>
<text text-anchor="start" x="1328" y="-25" font-family="Helvetica,sans-Serif" font-size="10.00">bio::small_string&lt;</text>
<text text-anchor="middle" x="1373" y="-14" font-family="Helvetica,sans-Serif" font-size="10.00"> capacity_ &gt;</text>
</a>
</g>
</g>
<!-- Node13&#45;&gt;Node14 -->
<g id="edge13" class="edge">
<title>Node13&#45;&gt;Node14</title>
<path fill="none" stroke="midnightblue" d="M1293.49,-22C1302.3,-22 1311.2,-22 1319.69,-22"/>
<polygon fill="midnightblue" stroke="midnightblue" points="1293.22,-18.5 1283.22,-22 1293.22,-25.5 1293.22,-18.5"/>
</g>
</g>
</svg>
        <g id="navigator" transform="translate(0 0)" fill="#404254">
                <rect fill="#f2f5e9" fill-opacity="0.5" stroke="#606060" stroke-width=".5" x="0" y="0" width="60" height="60"/>
                <use id="zoomplus" xlink:href="#zoomPlus" x="17" y="9" onmousedown="handleZoom(evt,'in')"/>
                <use id="zoomminus" xlink:href="#zoomMin" x="42" y="9" onmousedown="handleZoom(evt,'out')"/>
                <use id="reset" xlink:href="#resetDef" x="30" y="36" onmousedown="handleReset()"/>
                <g id="arrowUp" xlink:href="#dirArrow" transform="translate(30 24)" onmousedown="handlePan(0,-1)">
                  <use xlink:href="#rim" fill="#404040">
                        <set attributeName="fill" to="#808080" begin="arrowUp.mouseover" end="arrowUp.mouseout"/>
                  </use>
                  <path fill="none" stroke="white" stroke-width="1.5" d="M0,-3.0v7 M-2.5,-0.5L0,-3.0L2.5,-0.5"/>
                </g>
                <g id="arrowRight" xlink:href="#dirArrow" transform="rotate(90) translate(36 -43)" onmousedown="handlePan(1,0)">
                  <use xlink:href="#rim" fill="#404040">
                        <set attributeName="fill" to="#808080" begin="arrowRight.mouseover" end="arrowRight.mouseout"/>
                  </use>
                  <path fill="none" stroke="white" stroke-width="1.5" d="M0,-3.0v7 M-2.5,-0.5L0,-3.0L2.5,-0.5"/>
                </g>
                <g id="arrowDown" xlink:href="#dirArrow" transform="rotate(180) translate(-30 -48)" onmousedown="handlePan(0,1)">
                  <use xlink:href="#rim" fill="#404040">
                        <set attributeName="fill" to="#808080" begin="arrowDown.mouseover" end="arrowDown.mouseout"/>
                  </use>
                  <path fill="none" stroke="white" stroke-width="1.5" d="M0,-3.0v7 M-2.5,-0.5L0,-3.0L2.5,-0.5"/>
                </g>
                <g id="arrowLeft" xlink:href="#dirArrow" transform="rotate(270) translate(-36 17)" onmousedown="handlePan(-1,0)">
                  <use xlink:href="#rim" fill="#404040">
                        <set attributeName="fill" to="#808080" begin="arrowLeft.mouseover" end="arrowLeft.mouseout"/>
                  </use>
                  <path fill="none" stroke="white" stroke-width="1.5" d="M0,-3.0v7 M-2.5,-0.5L0,-3.0L2.5,-0.5"/>
                </g>
        </g>
        <svg viewBox="0 0 15 15" width="100%" height="30px" preserveAspectRatio="xMaxYMin meet">
         <g id="arrow_out" transform="scale(0.3 0.3)">
          <a xlink:href="classbio_1_1small__vector__inherit__graph_org.svg" target="_base">
           <rect id="button" ry="5" rx="5" y="6" x="6" height="38" width="38"
                fill="#f2f5e9" fill-opacity="0.5" stroke="#606060" stroke-width="1.0"/>
           <path id="arrow"
             d="M 11.500037,31.436501 C 11.940474,20.09759 22.043105,11.32322 32.158766,21.979434 L 37.068811,17.246167 C 37.068811,17.246167 37.088388,32 37.088388,32 L 22.160133,31.978069 C 22.160133,31.978069 26.997745,27.140456 26.997745,27.140456 C 18.528582,18.264221 13.291696,25.230495 11.500037,31.436501 z"
             style="fill:#404040;"/>
          </a>
         </g>
        </svg>
</svg>
