<?xml version="1.0" encoding="UTF-8" standalone="no"?>
<!DOCTYPE svg PUBLIC "-//W3C//DTD SVG 1.1//EN"
 "http://www.w3.org/Graphics/SVG/1.1/DTD/svg11.dtd">
<!-- Generated by graphviz version 2.43.0 (0)
 -->
<!-- Title: bio::alphabet::variant&lt; alternative_types &gt; Pages: 1 -->
<svg width="914pt" height="224pt"
 viewBox="0.00 0.00 914.00 224.00" xmlns="http://www.w3.org/2000/svg" xmlns:xlink="http://www.w3.org/1999/xlink">
<g id="graph0" class="graph" transform="scale(1 1) rotate(0) translate(4 220)">
<title>bio::alphabet::variant&lt; alternative_types &gt;</title>
<polygon fill="white" stroke="transparent" points="-4,4 -4,-220 910,-220 910,4 -4,4"/>
<!-- Node1 -->
<g id="node1" class="node">
<title>Node1</title>
<g id="a_node1"><a xlink:title="A combined alphabet that can hold values of either of its alternatives..">
<polygon fill="#bfbfbf" stroke="black" points="781,-89 781,-119 906,-119 906,-89 781,-89"/>
<text text-anchor="start" x="789" y="-107" font-family="Helvetica,sans-Serif" font-size="10.00">bio::alphabet::variant</text>
<text text-anchor="middle" x="843.5" y="-96" font-family="Helvetica,sans-Serif" font-size="10.00">&lt; alternative_types &gt;</text>
</a>
</g>
</g>
<!-- Node2 -->
<g id="node2" class="node">
<title>Node2</title>
<g id="a_node2"><a xlink:href="interfacebio_1_1alphabet_1_1writable__alphabet.html" target="_top" xlink:title="Refines bio::alphabet::alphabet and adds assignability.">
<polygon fill="white" stroke="black" points="614.5,-158.5 614.5,-177.5 718.5,-177.5 718.5,-158.5 614.5,-158.5"/>
<text text-anchor="middle" x="666.5" y="-165.5" font-family="Helvetica,sans-Serif" font-size="10.00">writable_alphabet</text>
</a>
</g>
</g>
<!-- Node2&#45;&gt;Node1 -->
<g id="edge1" class="edge">
<title>Node2&#45;&gt;Node1</title>
<path fill="none" stroke="midnightblue" d="M721.81,-155.84C729.33,-153.77 736.9,-151.48 744,-149 767.96,-140.63 794.04,-128.58 813.35,-119.05"/>
<polygon fill="midnightblue" stroke="midnightblue" points="720.78,-152.49 712,-158.42 722.57,-159.26 720.78,-152.49"/>
</g>
<!-- Node3 -->
<g id="node3" class="node">
<title>Node3</title>
<g id="a_node3"><a xlink:href="interfacebio_1_1alphabet_1_1alphabet.html" target="_top" xlink:title="The generic alphabet concept that covers most data types used in ranges.">
<polygon fill="white" stroke="black" points="320.5,-196.5 320.5,-215.5 379.5,-215.5 379.5,-196.5 320.5,-196.5"/>
<text text-anchor="middle" x="350" y="-203.5" font-family="Helvetica,sans-Serif" font-size="10.00">alphabet</text>
</a>
</g>
</g>
<!-- Node3&#45;&gt;Node2 -->
<g id="edge2" class="edge">
<title>Node3&#45;&gt;Node2</title>
<path fill="none" stroke="midnightblue" d="M389.49,-202.25C433.45,-197.87 507.5,-190.16 571,-182 584.98,-180.2 600.1,-178.05 614.05,-175.99"/>
<polygon fill="midnightblue" stroke="midnightblue" points="389.13,-198.77 379.52,-203.24 389.82,-205.74 389.13,-198.77"/>
</g>
<!-- Node4 -->
<g id="node4" class="node">
<title>Node4</title>
<g id="a_node4"><a xlink:href="interfacebio_1_1alphabet_1_1semialphabet.html" target="_top" xlink:title="The basis for bio::alphabet::alphabet, but requires only rank interface (not char).">
<polygon fill="white" stroke="black" points="166,-176.5 166,-195.5 249,-195.5 249,-176.5 166,-176.5"/>
<text text-anchor="middle" x="207.5" y="-183.5" font-family="Helvetica,sans-Serif" font-size="10.00">semialphabet</text>
</a>
</g>
</g>
<!-- Node4&#45;&gt;Node3 -->
<g id="edge3" class="edge">
<title>Node4&#45;&gt;Node3</title>
<path fill="none" stroke="midnightblue" d="M259.05,-193.2C279.71,-196.14 302.85,-199.43 320.49,-201.94"/>
<polygon fill="midnightblue" stroke="midnightblue" points="259.53,-189.73 249.14,-191.78 258.55,-196.66 259.53,-189.73"/>
</g>
<!-- Node7 -->
<g id="node7" class="node">
<title>Node7</title>
<g id="a_node7"><a xlink:href="interfacebio_1_1alphabet_1_1writable__semialphabet.html" target="_top" xlink:title="A refinement of bio::alphabet::semialphabet that adds assignability.">
<polygon fill="white" stroke="black" points="286,-158.5 286,-177.5 414,-177.5 414,-158.5 286,-158.5"/>
<text text-anchor="middle" x="350" y="-165.5" font-family="Helvetica,sans-Serif" font-size="10.00">writable_semialphabet</text>
</a>
</g>
</g>
<!-- Node4&#45;&gt;Node7 -->
<g id="edge7" class="edge">
<title>Node4&#45;&gt;Node7</title>
<path fill="none" stroke="midnightblue" d="M259.12,-179.51C267.83,-178.4 276.97,-177.23 285.95,-176.08"/>
<polygon fill="midnightblue" stroke="midnightblue" points="258.61,-176.05 249.14,-180.79 259.5,-182.99 258.61,-176.05"/>
</g>
<!-- Node5 -->
<g id="node5" class="node">
<title>Node5</title>
<g id="a_node5"><a xlink:title=" ">
<polygon fill="white" stroke="#bfbfbf" points="8.5,-195.5 8.5,-214.5 120.5,-214.5 120.5,-195.5 8.5,-195.5"/>
<text text-anchor="middle" x="64.5" y="-202.5" font-family="Helvetica,sans-Serif" font-size="10.00">std::totally_ordered</text>
</a>
</g>
</g>
<!-- Node5&#45;&gt;Node4 -->
<g id="edge4" class="edge">
<title>Node5&#45;&gt;Node4</title>
<path fill="none" stroke="midnightblue" d="M130.75,-196.21C142.67,-194.6 154.78,-192.97 165.72,-191.49"/>
<polygon fill="midnightblue" stroke="midnightblue" points="130.27,-192.74 120.82,-197.55 131.2,-199.68 130.27,-192.74"/>
</g>
<!-- Node6 -->
<g id="node6" class="node">
<title>Node6</title>
<g id="a_node6"><a xlink:title=" ">
<polygon fill="white" stroke="#bfbfbf" points="0,-157.5 0,-176.5 129,-176.5 129,-157.5 0,-157.5"/>
<text text-anchor="middle" x="64.5" y="-164.5" font-family="Helvetica,sans-Serif" font-size="10.00">std::copy_constructible</text>
</a>
</g>
</g>
<!-- Node6&#45;&gt;Node4 -->
<g id="edge5" class="edge">
<title>Node6&#45;&gt;Node4</title>
<path fill="none" stroke="midnightblue" d="M139.59,-176.98C148.62,-178.2 157.56,-179.41 165.84,-180.52"/>
<polygon fill="midnightblue" stroke="midnightblue" points="139.78,-173.48 129.4,-175.61 138.84,-180.41 139.78,-173.48"/>
</g>
<!-- Node7&#45;&gt;Node2 -->
<g id="edge6" class="edge">
<title>Node7&#45;&gt;Node2</title>
<path fill="none" stroke="midnightblue" d="M424.52,-168C482.8,-168 562.75,-168 614.28,-168"/>
<polygon fill="midnightblue" stroke="midnightblue" points="424.27,-164.5 414.27,-168 424.27,-171.5 424.27,-164.5"/>
</g>
<!-- Node8 -->
<g id="node8" class="node">
<title>Node8</title>
<g id="a_node8"><a xlink:href="interfacebio_1_1meta_1_1trivially__copyable.html" target="_top" xlink:title="A type that satisfies std::is_trivially_copyable_v&lt;t&gt;.">
<polygon fill="white" stroke="black" points="614.5,-120.5 614.5,-139.5 718.5,-139.5 718.5,-120.5 614.5,-120.5"/>
<text text-anchor="middle" x="666.5" y="-127.5" font-family="Helvetica,sans-Serif" font-size="10.00">trivially_copyable</text>
</a>
</g>
</g>
<!-- Node8&#45;&gt;Node1 -->
<g id="edge8" class="edge">
<title>Node8&#45;&gt;Node1</title>
<path fill="none" stroke="midnightblue" d="M728.86,-120.88C745.7,-118.38 763.96,-115.67 780.81,-113.17"/>
<polygon fill="midnightblue" stroke="midnightblue" points="727.96,-117.48 718.59,-122.41 728.99,-124.4 727.96,-117.48"/>
</g>
<!-- Node9 -->
<g id="node9" class="node">
<title>Node9</title>
<g id="a_node9"><a xlink:title=" ">
<polygon fill="white" stroke="#bfbfbf" points="309,-120.5 309,-139.5 391,-139.5 391,-120.5 309,-120.5"/>
<text text-anchor="middle" x="350" y="-127.5" font-family="Helvetica,sans-Serif" font-size="10.00">std::copyable</text>
</a>
</g>
</g>
<!-- Node9&#45;&gt;Node8 -->
<g id="edge9" class="edge">
<title>Node9&#45;&gt;Node8</title>
<path fill="none" stroke="midnightblue" d="M401.25,-130C459.69,-130 555.61,-130 614.4,-130"/>
<polygon fill="midnightblue" stroke="midnightblue" points="401.15,-126.5 391.15,-130 401.15,-133.5 401.15,-126.5"/>
</g>
<!-- Node10 -->
<g id="node10" class="node">
<title>Node10</title>
<g id="a_node10"><a xlink:href="interfacebio_1_1meta_1_1standard__layout.html" target="_top" xlink:title="Resolves to std::is_standard_layout_v&lt;t&gt;.">
<polygon fill="white" stroke="black" points="619,-82.5 619,-101.5 714,-101.5 714,-82.5 619,-82.5"/>
<text text-anchor="middle" x="666.5" y="-89.5" font-family="Helvetica,sans-Serif" font-size="10.00">standard_layout</text>
</a>
</g>
</g>
<!-- Node10&#45;&gt;Node1 -->
<g id="edge10" class="edge">
<title>Node10&#45;&gt;Node1</title>
<path fill="none" stroke="midnightblue" d="M724.49,-95.91C742.56,-97.15 762.61,-98.52 780.97,-99.78"/>
<polygon fill="midnightblue" stroke="midnightblue" points="724.61,-92.41 714.4,-95.22 724.13,-99.39 724.61,-92.41"/>
</g>
<!-- Node11 -->
<g id="node11" class="node">
<title>Node11</title>
<g id="a_node11"><a xlink:href="classbio_1_1alphabet_1_1base.html" target="_top" xlink:title=" ">
<polygon fill="white" stroke="black" points="589,-0.5 589,-63.5 744,-63.5 744,-0.5 589,-0.5"/>
<text text-anchor="start" x="597" y="-51.5" font-family="Helvetica,sans-Serif" font-size="10.00">bio::alphabet::base</text>
<text text-anchor="start" x="597" y="-40.5" font-family="Helvetica,sans-Serif" font-size="10.00">&lt; variant&lt; alternative</text>
<text text-anchor="start" x="597" y="-29.5" font-family="Helvetica,sans-Serif" font-size="10.00">_types... &gt;,(static_cast</text>
<text text-anchor="start" x="597" y="-18.5" font-family="Helvetica,sans-Serif" font-size="10.00">&lt; size_t &gt;(size&lt; alternative</text>
<text text-anchor="middle" x="666.5" y="-7.5" font-family="Helvetica,sans-Serif" font-size="10.00">_types &gt;)+...), char &gt;</text>
</a>
</g>
</g>
<!-- Node11&#45;&gt;Node1 -->
<g id="edge11" class="edge">
<title>Node11&#45;&gt;Node1</title>
<path fill="none" stroke="midnightblue" d="M753.38,-67.33C771.91,-74.96 790.55,-82.63 805.95,-88.96"/>
<polygon fill="midnightblue" stroke="midnightblue" points="754.58,-64.04 744,-63.48 751.92,-70.52 754.58,-64.04"/>
</g>
<!-- Node12 -->
<g id="node12" class="node">
<title>Node12</title>
<g id="a_node12"><a xlink:href="classbio_1_1alphabet_1_1base.html" target="_top" xlink:title="A CRTP&#45;base that makes defining a custom alphabet easier.">
<polygon fill="white" stroke="black" points="290,-11.5 290,-52.5 410,-52.5 410,-11.5 290,-11.5"/>
<text text-anchor="start" x="298" y="-40.5" font-family="Helvetica,sans-Serif" font-size="10.00">bio::alphabet::base</text>
<text text-anchor="start" x="298" y="-29.5" font-family="Helvetica,sans-Serif" font-size="10.00">&lt; derived_type, size,</text>
<text text-anchor="middle" x="350" y="-18.5" font-family="Helvetica,sans-Serif" font-size="10.00"> char_t &gt;</text>
</a>
</g>
</g>
<!-- Node12&#45;&gt;Node11 -->
<g id="edge12" class="edge">
<title>Node12&#45;&gt;Node11</title>
<path fill="none" stroke="orange" stroke-dasharray="5,2" d="M420.2,-32C470.03,-32 537.27,-32 588.75,-32"/>
<polygon fill="orange" stroke="orange" points="420.16,-28.5 410.16,-32 420.16,-35.5 420.16,-28.5"/>
<text text-anchor="start" x="432" y="-68" font-family="Helvetica,sans-Serif" font-size="10.00"> &lt; variant&lt; alternative</text>
<text text-anchor="start" x="432" y="-57" font-family="Helvetica,sans-Serif" font-size="10.00">_types... &gt;,(static_cast</text>
<text text-anchor="start" x="432" y="-46" font-family="Helvetica,sans-Serif" font-size="10.00">&lt; size_t &gt;(size&lt; alternative</text>
<text text-anchor="middle" x="501.5" y="-35" font-family="Helvetica,sans-Serif" font-size="10.00">_types &gt;)+...), char &gt;</text>
</g>
</g>
</svg>
