<?xml version="1.0" encoding="UTF-8" standalone="no"?>
<!DOCTYPE svg PUBLIC "-//W3C//DTD SVG 1.1//EN"
 "http://www.w3.org/Graphics/SVG/1.1/DTD/svg11.dtd">
<!-- Generated by graphviz version 2.43.0 (0)
 -->
<!-- Title: bio::alphabet::masked&lt; sequence_alphabet_t &gt; Pages: 1 -->
<!--zoomable 223 -->
<svg id="main" version="1.1" xmlns="http://www.w3.org/2000/svg" xmlns:xlink="http://www.w3.org/1999/xlink" xml:space="preserve" onload="init(evt)">
<style type="text/css"><![CDATA[
.edge:hover path { stroke: red; }
.edge:hover polygon { stroke: red; fill: red; }
]]></style>
<script type="text/javascript"><![CDATA[
var edges = document.getElementsByTagName('g');
if (edges && edges.length) {
  for (var i=0;i<edges.length;i++) {
    if (edges[i].id.substr(0,4)=='edge') {
      edges[i].setAttribute('class','edge');
    }
  }
}
]]></script>
        <defs>
                <circle id="rim" cx="0" cy="0" r="7"/>
                <circle id="rim2" cx="0" cy="0" r="3.5"/>
                <g id="zoomPlus">
                        <use xlink:href="#rim" fill="#404040">
                                <set attributeName="fill" to="#808080" begin="zoomplus.mouseover" end="zoomplus.mouseout"/>
                        </use>
                        <path d="M-4,0h8M0,-4v8" fill="none" stroke="white" stroke-width="1.5" pointer-events="none"/>
                </g>
                <g id="zoomMin">
                        <use xlink:href="#rim" fill="#404040">
                                <set attributeName="fill" to="#808080" begin="zoomminus.mouseover" end="zoomminus.mouseout"/>
                        </use>
                        <path d="M-4,0h8" fill="none" stroke="white" stroke-width="1.5" pointer-events="none"/>
                </g>
                <g id="dirArrow">
                        <path fill="none" stroke="white" stroke-width="1.5" d="M0,-3.0v7 M-2.5,-0.5L0,-3.0L2.5,-0.5"/>
                </g>
               <g id="resetDef">
                       <use xlink:href="#rim2" fill="#404040">
                               <set attributeName="fill" to="#808080" begin="reset.mouseover" end="reset.mouseout"/>
                       </use>
               </g>
        </defs>

<script type="text/javascript">
var viewWidth = 1420;
var viewHeight = 223;
var sectionId = 'dynsection-0';
</script>
<script xlink:href="svgpan.js"/>
<svg id="graph" class="graph">
<g id="viewport">
<title>bio::alphabet::masked&lt; sequence_alphabet_t &gt;</title>
<polygon fill="white" stroke="transparent" points="-4,4 -4,-218.5 1416,-218.5 1416,4 -4,4"/>
<!-- Node1 -->
<g id="node1" class="node">
<title>Node1</title>
<g id="a_node1"><a xlink:title="A template for composite alphabets that differentiate between upper and lower case characters....">
<polygon fill="#bfbfbf" stroke="black" points="1269,-113.5 1269,-143.5 1412,-143.5 1412,-113.5 1269,-113.5"/>
<text text-anchor="start" x="1277" y="-131.5" font-family="Helvetica,sans-Serif" font-size="10.00">bio::alphabet::masked</text>
<text text-anchor="middle" x="1340.5" y="-120.5" font-family="Helvetica,sans-Serif" font-size="10.00">&lt; sequence_alphabet_t &gt;</text>
</a>
</g>
</g>
<!-- Node2 -->
<g id="node2" class="node">
<title>Node2</title>
<g id="a_node2"><a xlink:href="interfacebio_1_1alphabet_1_1writable__alphabet.html" target="_top" xlink:title="Refines bio::alphabet::alphabet and adds assignability.">
<polygon fill="white" stroke="black" points="809.5,-195 809.5,-214 913.5,-214 913.5,-195 809.5,-195"/>
<text text-anchor="middle" x="861.5" y="-202" font-family="Helvetica,sans-Serif" font-size="10.00">writable_alphabet</text>
</a>
</g>
</g>
<!-- Node2&#45;&gt;Node1 -->
<g id="edge1" class="edge">
<title>Node2&#45;&gt;Node1</title>
<path fill="none" stroke="midnightblue" d="M923.63,-209.33C997.97,-213.41 1126.59,-214.61 1232,-185.5 1263.97,-176.67 1297.16,-157.23 1318.05,-143.52"/>
<polygon fill="midnightblue" stroke="midnightblue" points="923.69,-205.83 913.51,-208.74 923.28,-212.82 923.69,-205.83"/>
</g>
<!-- Node3 -->
<g id="node3" class="node">
<title>Node3</title>
<g id="a_node3"><a xlink:href="interfacebio_1_1alphabet_1_1alphabet.html" target="_top" xlink:title="The generic alphabet concept that covers most data types used in ranges.">
<polygon fill="white" stroke="black" points="491,-171 491,-190 550,-190 550,-171 491,-171"/>
<text text-anchor="middle" x="520.5" y="-178" font-family="Helvetica,sans-Serif" font-size="10.00">alphabet</text>
</a>
</g>
</g>
<!-- Node3&#45;&gt;Node2 -->
<g id="edge2" class="edge">
<title>Node3&#45;&gt;Node2</title>
<path fill="none" stroke="midnightblue" d="M560.14,-183.24C621.41,-187.57 740.91,-196.03 809.27,-200.87"/>
<polygon fill="midnightblue" stroke="midnightblue" points="560.33,-179.74 550.11,-182.53 559.84,-186.72 560.33,-179.74"/>
</g>
<!-- Node4 -->
<g id="node4" class="node">
<title>Node4</title>
<g id="a_node4"><a xlink:href="interfacebio_1_1alphabet_1_1semialphabet.html" target="_top" xlink:title="The basis for bio::alphabet::alphabet, but requires only rank interface (not char).">
<polygon fill="white" stroke="black" points="184.5,-151 184.5,-170 267.5,-170 267.5,-151 184.5,-151"/>
<text text-anchor="middle" x="226" y="-158" font-family="Helvetica,sans-Serif" font-size="10.00">semialphabet</text>
</a>
</g>
</g>
<!-- Node4&#45;&gt;Node3 -->
<g id="edge3" class="edge">
<title>Node4&#45;&gt;Node3</title>
<path fill="none" stroke="midnightblue" d="M277.95,-163.98C339.57,-168.2 441.17,-175.14 490.64,-178.53"/>
<polygon fill="midnightblue" stroke="midnightblue" points="277.89,-160.47 267.67,-163.28 277.41,-167.46 277.89,-160.47"/>
</g>
<!-- Node7 -->
<g id="node7" class="node">
<title>Node7</title>
<g id="a_node7"><a xlink:href="interfacebio_1_1alphabet_1_1writable__semialphabet.html" target="_top" xlink:title="A refinement of bio::alphabet::semialphabet that adds assignability.">
<polygon fill="white" stroke="black" points="456.5,-132 456.5,-151 584.5,-151 584.5,-132 456.5,-132"/>
<text text-anchor="middle" x="520.5" y="-139" font-family="Helvetica,sans-Serif" font-size="10.00">writable_semialphabet</text>
</a>
</g>
</g>
<!-- Node4&#45;&gt;Node7 -->
<g id="edge7" class="edge">
<title>Node4&#45;&gt;Node7</title>
<path fill="none" stroke="midnightblue" d="M277.84,-157.2C327.43,-153.98 402.98,-149.07 456.39,-145.6"/>
<polygon fill="midnightblue" stroke="midnightblue" points="277.42,-153.72 267.67,-157.86 277.88,-160.7 277.42,-153.72"/>
</g>
<!-- Node5 -->
<g id="node5" class="node">
<title>Node5</title>
<g id="a_node5"><a xlink:title=" ">
<polygon fill="white" stroke="#bfbfbf" points="8.5,-170 8.5,-189 120.5,-189 120.5,-170 8.5,-170"/>
<text text-anchor="middle" x="64.5" y="-177" font-family="Helvetica,sans-Serif" font-size="10.00">std::totally_ordered</text>
</a>
</g>
</g>
<!-- Node5&#45;&gt;Node4 -->
<g id="edge4" class="edge">
<title>Node5&#45;&gt;Node4</title>
<path fill="none" stroke="midnightblue" d="M130.78,-171.72C148.91,-169.56 168.07,-167.28 184.35,-165.34"/>
<polygon fill="midnightblue" stroke="midnightblue" points="130.35,-168.25 120.84,-172.91 131.18,-175.2 130.35,-168.25"/>
</g>
<!-- Node6 -->
<g id="node6" class="node">
<title>Node6</title>
<g id="a_node6"><a xlink:title=" ">
<polygon fill="white" stroke="#bfbfbf" points="0,-132 0,-151 129,-151 129,-132 0,-132"/>
<text text-anchor="middle" x="64.5" y="-139" font-family="Helvetica,sans-Serif" font-size="10.00">std::copy_constructible</text>
</a>
</g>
</g>
<!-- Node6&#45;&gt;Node4 -->
<g id="edge5" class="edge">
<title>Node6&#45;&gt;Node4</title>
<path fill="none" stroke="midnightblue" d="M139.54,-150.32C155,-152.16 170.74,-154.04 184.43,-155.67"/>
<polygon fill="midnightblue" stroke="midnightblue" points="139.8,-146.83 129.46,-149.12 138.97,-153.78 139.8,-146.83"/>
</g>
<!-- Node7&#45;&gt;Node2 -->
<g id="edge6" class="edge">
<title>Node7&#45;&gt;Node2</title>
<path fill="none" stroke="midnightblue" d="M594.74,-150.69C647.18,-157.84 719.31,-168.83 782,-182.5 797.9,-185.97 815.36,-190.76 829.76,-194.99"/>
<polygon fill="midnightblue" stroke="midnightblue" points="594.9,-147.18 584.52,-149.31 593.96,-154.12 594.9,-147.18"/>
</g>
<!-- Node12 -->
<g id="node12" class="node">
<title>Node12</title>
<g id="a_node12"><a xlink:href="classbio_1_1alphabet_1_1tuple__base.html" target="_top" xlink:title=" ">
<polygon fill="white" stroke="black" points="1080,-9.5 1080,-61.5 1232,-61.5 1232,-9.5 1080,-9.5"/>
<text text-anchor="start" x="1088" y="-49.5" font-family="Helvetica,sans-Serif" font-size="10.00">bio::alphabet::tuple</text>
<text text-anchor="start" x="1088" y="-38.5" font-family="Helvetica,sans-Serif" font-size="10.00">_base&lt; masked&lt; sequence</text>
<text text-anchor="start" x="1088" y="-27.5" font-family="Helvetica,sans-Serif" font-size="10.00">_alphabet_t &gt;, sequence</text>
<text text-anchor="middle" x="1156" y="-16.5" font-family="Helvetica,sans-Serif" font-size="10.00">_alphabet_t, mask &gt;</text>
</a>
</g>
</g>
<!-- Node7&#45;&gt;Node12 -->
<g id="edge13" class="edge">
<title>Node7&#45;&gt;Node12</title>
<path fill="none" stroke="midnightblue" d="M594.93,-144.48C724.24,-148.39 986.06,-149.94 1062,-102.5 1075.51,-94.06 1068.3,-82.31 1080,-71.5 1083.82,-67.97 1088.05,-64.72 1092.49,-61.74"/>
<polygon fill="midnightblue" stroke="midnightblue" points="594.83,-140.98 584.73,-144.16 594.61,-147.97 594.83,-140.98"/>
</g>
<!-- Node15 -->
<g id="node15" class="node">
<title>Node15</title>
<g id="a_node15"><a xlink:href="classbio_1_1alphabet_1_1tuple__base.html" target="_top" xlink:title="The CRTP base for a combined alphabet that contains multiple values of different alphabets at the sam...">
<polygon fill="white" stroke="black" points="800,-58 800,-99 923,-99 923,-58 800,-58"/>
<text text-anchor="start" x="808" y="-87" font-family="Helvetica,sans-Serif" font-size="10.00">bio::alphabet::tuple</text>
<text text-anchor="start" x="808" y="-76" font-family="Helvetica,sans-Serif" font-size="10.00">_base&lt; derived_type,</text>
<text text-anchor="middle" x="861.5" y="-65" font-family="Helvetica,sans-Serif" font-size="10.00"> component_types &gt;</text>
</a>
</g>
</g>
<!-- Node7&#45;&gt;Node15 -->
<g id="edge17" class="edge">
<title>Node7&#45;&gt;Node15</title>
<path fill="none" stroke="midnightblue" d="M563.08,-129.21C577.81,-125.12 594.57,-120.78 610,-117.5 645.19,-110.01 737.61,-96.18 799.8,-87.16"/>
<polygon fill="midnightblue" stroke="midnightblue" points="561.92,-125.9 553.24,-131.98 563.82,-132.64 561.92,-125.9"/>
</g>
<!-- Node8 -->
<g id="node8" class="node">
<title>Node8</title>
<g id="a_node8"><a xlink:href="interfacebio_1_1meta_1_1trivially__copyable.html" target="_top" xlink:title="A type that satisfies std::is_trivially_copyable_v&lt;t&gt;.">
<polygon fill="white" stroke="black" points="1104,-157 1104,-176 1208,-176 1208,-157 1104,-157"/>
<text text-anchor="middle" x="1156" y="-164" font-family="Helvetica,sans-Serif" font-size="10.00">trivially_copyable</text>
</a>
</g>
</g>
<!-- Node8&#45;&gt;Node1 -->
<g id="edge8" class="edge">
<title>Node8&#45;&gt;Node1</title>
<path fill="none" stroke="midnightblue" d="M1213.16,-154.81C1230.78,-151.14 1250.45,-147.04 1268.93,-143.19"/>
<polygon fill="midnightblue" stroke="midnightblue" points="1212.13,-151.45 1203.05,-156.91 1213.56,-158.3 1212.13,-151.45"/>
</g>
<!-- Node9 -->
<g id="node9" class="node">
<title>Node9</title>
<g id="a_node9"><a xlink:title=" ">
<polygon fill="white" stroke="#bfbfbf" points="820.5,-157 820.5,-176 902.5,-176 902.5,-157 820.5,-157"/>
<text text-anchor="middle" x="861.5" y="-164" font-family="Helvetica,sans-Serif" font-size="10.00">std::copyable</text>
</a>
</g>
</g>
<!-- Node9&#45;&gt;Node8 -->
<g id="edge9" class="edge">
<title>Node9&#45;&gt;Node8</title>
<path fill="none" stroke="midnightblue" d="M912.81,-166.5C966.22,-166.5 1050.18,-166.5 1103.89,-166.5"/>
<polygon fill="midnightblue" stroke="midnightblue" points="912.56,-163 902.56,-166.5 912.56,-170 912.56,-163"/>
</g>
<!-- Node10 -->
<g id="node10" class="node">
<title>Node10</title>
<g id="a_node10"><a xlink:href="interfacebio_1_1meta_1_1standard__layout.html" target="_top" xlink:title="Resolves to std::is_standard_layout_v&lt;t&gt;.">
<polygon fill="white" stroke="black" points="1108.5,-119 1108.5,-138 1203.5,-138 1203.5,-119 1108.5,-119"/>
<text text-anchor="middle" x="1156" y="-126" font-family="Helvetica,sans-Serif" font-size="10.00">standard_layout</text>
</a>
</g>
</g>
<!-- Node10&#45;&gt;Node1 -->
<g id="edge10" class="edge">
<title>Node10&#45;&gt;Node1</title>
<path fill="none" stroke="midnightblue" d="M1213.58,-128.5C1231.08,-128.5 1250.58,-128.5 1268.91,-128.5"/>
<polygon fill="midnightblue" stroke="midnightblue" points="1213.52,-125 1203.52,-128.5 1213.52,-132 1213.52,-125"/>
</g>
<!-- Node11 -->
<g id="node11" class="node">
<title>Node11</title>
<g id="a_node11"><a xlink:title=" ">
<polygon fill="white" stroke="#bfbfbf" points="1120,-81 1120,-100 1192,-100 1192,-81 1120,-81"/>
<text text-anchor="middle" x="1156" y="-88" font-family="Helvetica,sans-Serif" font-size="10.00">std::regular</text>
</a>
</g>
</g>
<!-- Node11&#45;&gt;Node1 -->
<g id="edge11" class="edge">
<title>Node11&#45;&gt;Node1</title>
<path fill="none" stroke="midnightblue" d="M1202.03,-99.88C1222.18,-104.07 1246.43,-109.12 1268.91,-113.8"/>
<polygon fill="midnightblue" stroke="midnightblue" points="1202.69,-96.44 1192.19,-97.83 1201.26,-103.29 1202.69,-96.44"/>
</g>
<!-- Node12&#45;&gt;Node1 -->
<g id="edge12" class="edge">
<title>Node12&#45;&gt;Node1</title>
<path fill="none" stroke="midnightblue" d="M1221.18,-66.1C1224.85,-67.91 1228.47,-69.72 1232,-71.5 1259.34,-85.3 1290.2,-101.76 1311.82,-113.43"/>
<polygon fill="midnightblue" stroke="midnightblue" points="1222.53,-62.86 1212.01,-61.59 1219.44,-69.14 1222.53,-62.86"/>
</g>
<!-- Node13 -->
<g id="node13" class="node">
<title>Node13</title>
<g id="a_node13"><a xlink:href="classbio_1_1alphabet_1_1base.html" target="_top" xlink:title=" ">
<polygon fill="white" stroke="black" points="610,-0.5 610,-52.5 782,-52.5 782,-0.5 610,-0.5"/>
<text text-anchor="start" x="618" y="-40.5" font-family="Helvetica,sans-Serif" font-size="10.00">bio::alphabet::base</text>
<text text-anchor="start" x="618" y="-29.5" font-family="Helvetica,sans-Serif" font-size="10.00">&lt; masked&lt; sequence_alphabet</text>
<text text-anchor="start" x="618" y="-18.5" font-family="Helvetica,sans-Serif" font-size="10.00">_t &gt;,(1 *... *size&lt; component</text>
<text text-anchor="middle" x="696" y="-7.5" font-family="Helvetica,sans-Serif" font-size="10.00">_types &gt;), void &gt;</text>
</a>
</g>
</g>
<!-- Node13&#45;&gt;Node12 -->
<g id="edge14" class="edge">
<title>Node13&#45;&gt;Node12</title>
<path fill="none" stroke="midnightblue" d="M792.29,-28.37C877.69,-30.05 1001.28,-32.48 1079.87,-34.02"/>
<polygon fill="midnightblue" stroke="midnightblue" points="792.14,-24.87 782.07,-28.17 792,-31.87 792.14,-24.87"/>
</g>
<!-- Node14 -->
<g id="node14" class="node">
<title>Node14</title>
<g id="a_node14"><a xlink:href="classbio_1_1alphabet_1_1base.html" target="_top" xlink:title="A CRTP&#45;base that makes defining a custom alphabet easier.">
<polygon fill="white" stroke="black" points="166,-58 166,-99 286,-99 286,-58 166,-58"/>
<text text-anchor="start" x="174" y="-87" font-family="Helvetica,sans-Serif" font-size="10.00">bio::alphabet::base</text>
<text text-anchor="start" x="174" y="-76" font-family="Helvetica,sans-Serif" font-size="10.00">&lt; derived_type, size,</text>
<text text-anchor="middle" x="226" y="-65" font-family="Helvetica,sans-Serif" font-size="10.00"> char_t &gt;</text>
</a>
</g>
</g>
<!-- Node14&#45;&gt;Node13 -->
<g id="edge15" class="edge">
<title>Node14&#45;&gt;Node13</title>
<path fill="none" stroke="orange" stroke-dasharray="5,2" d="M261.19,-52.22C273.93,-43.94 288.96,-35.83 304,-31.5 406.09,-2.1 529.49,-6.78 609.98,-14.85"/>
<polygon fill="orange" stroke="orange" points="259.08,-49.43 252.77,-57.94 263.01,-55.22 259.08,-49.43"/>
<text text-anchor="start" x="304" y="-67.5" font-family="Helvetica,sans-Serif" font-size="10.00"> &lt; masked&lt; sequence</text>
<text text-anchor="start" x="304" y="-56.5" font-family="Helvetica,sans-Serif" font-size="10.00">_alphabet_t &gt;,(1 *...</text>
<text text-anchor="start" x="304" y="-45.5" font-family="Helvetica,sans-Serif" font-size="10.00"> *size&lt; component_types</text>
<text text-anchor="middle" x="367.5" y="-34.5" font-family="Helvetica,sans-Serif" font-size="10.00"> &gt;), void &gt;</text>
</g>
<!-- Node16 -->
<g id="node16" class="node">
<title>Node16</title>
<g id="a_node16"><a xlink:href="classbio_1_1alphabet_1_1base.html" target="_top" xlink:title=" ">
<polygon fill="white" stroke="black" points="449,-58.5 449,-110.5 592,-110.5 592,-58.5 449,-58.5"/>
<text text-anchor="start" x="457" y="-98.5" font-family="Helvetica,sans-Serif" font-size="10.00">bio::alphabet::base</text>
<text text-anchor="start" x="457" y="-87.5" font-family="Helvetica,sans-Serif" font-size="10.00">&lt; derived_type,(1 *...</text>
<text text-anchor="start" x="457" y="-76.5" font-family="Helvetica,sans-Serif" font-size="10.00"> *size&lt; component_types</text>
<text text-anchor="middle" x="520.5" y="-65.5" font-family="Helvetica,sans-Serif" font-size="10.00"> &gt;), void &gt;</text>
</a>
</g>
</g>
<!-- Node14&#45;&gt;Node16 -->
<g id="edge19" class="edge">
<title>Node14&#45;&gt;Node16</title>
<path fill="none" stroke="orange" stroke-dasharray="5,2" d="M296.37,-79.92C342.36,-80.87 402.53,-82.1 448.79,-83.05"/>
<polygon fill="orange" stroke="orange" points="296.26,-76.42 286.19,-79.71 296.12,-83.42 296.26,-76.42"/>
<text text-anchor="start" x="304" y="-107.5" font-family="Helvetica,sans-Serif" font-size="10.00"> &lt; derived_type,(1 *...</text>
<text text-anchor="start" x="304" y="-96.5" font-family="Helvetica,sans-Serif" font-size="10.00"> *size&lt; component_types</text>
<text text-anchor="middle" x="367.5" y="-85.5" font-family="Helvetica,sans-Serif" font-size="10.00"> &gt;), void &gt;</text>
</g>
<!-- Node15&#45;&gt;Node12 -->
<g id="edge16" class="edge">
<title>Node15&#45;&gt;Node12</title>
<path fill="none" stroke="orange" stroke-dasharray="5,2" d="M933.23,-68.1C977.6,-61.58 1034.74,-53.18 1079.91,-46.54"/>
<polygon fill="orange" stroke="orange" points="932.49,-64.67 923.11,-69.59 933.51,-71.6 932.49,-64.67"/>
<text text-anchor="start" x="941" y="-90.5" font-family="Helvetica,sans-Serif" font-size="10.00"> &lt; masked&lt; sequence</text>
<text text-anchor="start" x="941" y="-79.5" font-family="Helvetica,sans-Serif" font-size="10.00">_alphabet_t &gt;, sequence</text>
<text text-anchor="middle" x="1001.5" y="-68.5" font-family="Helvetica,sans-Serif" font-size="10.00">_alphabet_t, mask &gt;</text>
</g>
<!-- Node16&#45;&gt;Node15 -->
<g id="edge18" class="edge">
<title>Node16&#45;&gt;Node15</title>
<path fill="none" stroke="midnightblue" d="M602.46,-83.07C663.11,-81.99 744.78,-80.55 799.87,-79.57"/>
<polygon fill="midnightblue" stroke="midnightblue" points="602.09,-79.57 592.15,-83.25 602.21,-86.57 602.09,-79.57"/>
</g>
</g>
</svg>
        <g id="navigator" transform="translate(0 0)" fill="#404254">
                <rect fill="#f2f5e9" fill-opacity="0.5" stroke="#606060" stroke-width=".5" x="0" y="0" width="60" height="60"/>
                <use id="zoomplus" xlink:href="#zoomPlus" x="17" y="9" onmousedown="handleZoom(evt,'in')"/>
                <use id="zoomminus" xlink:href="#zoomMin" x="42" y="9" onmousedown="handleZoom(evt,'out')"/>
                <use id="reset" xlink:href="#resetDef" x="30" y="36" onmousedown="handleReset()"/>
                <g id="arrowUp" xlink:href="#dirArrow" transform="translate(30 24)" onmousedown="handlePan(0,-1)">
                  <use xlink:href="#rim" fill="#404040">
                        <set attributeName="fill" to="#808080" begin="arrowUp.mouseover" end="arrowUp.mouseout"/>
                  </use>
                  <path fill="none" stroke="white" stroke-width="1.5" d="M0,-3.0v7 M-2.5,-0.5L0,-3.0L2.5,-0.5"/>
                </g>
                <g id="arrowRight" xlink:href="#dirArrow" transform="rotate(90) translate(36 -43)" onmousedown="handlePan(1,0)">
                  <use xlink:href="#rim" fill="#404040">
                        <set attributeName="fill" to="#808080" begin="arrowRight.mouseover" end="arrowRight.mouseout"/>
                  </use>
                  <path fill="none" stroke="white" stroke-width="1.5" d="M0,-3.0v7 M-2.5,-0.5L0,-3.0L2.5,-0.5"/>
                </g>
                <g id="arrowDown" xlink:href="#dirArrow" transform="rotate(180) translate(-30 -48)" onmousedown="handlePan(0,1)">
                  <use xlink:href="#rim" fill="#404040">
                        <set attributeName="fill" to="#808080" begin="arrowDown.mouseover" end="arrowDown.mouseout"/>
                  </use>
                  <path fill="none" stroke="white" stroke-width="1.5" d="M0,-3.0v7 M-2.5,-0.5L0,-3.0L2.5,-0.5"/>
                </g>
                <g id="arrowLeft" xlink:href="#dirArrow" transform="rotate(270) translate(-36 17)" onmousedown="handlePan(-1,0)">
                  <use xlink:href="#rim" fill="#404040">
                        <set attributeName="fill" to="#808080" begin="arrowLeft.mouseover" end="arrowLeft.mouseout"/>
                  </use>
                  <path fill="none" stroke="white" stroke-width="1.5" d="M0,-3.0v7 M-2.5,-0.5L0,-3.0L2.5,-0.5"/>
                </g>
        </g>
        <svg viewBox="0 0 15 15" width="100%" height="30px" preserveAspectRatio="xMaxYMin meet">
         <g id="arrow_out" transform="scale(0.3 0.3)">
          <a xlink:href="classbio_1_1alphabet_1_1masked__inherit__graph_org.svg" target="_base">
           <rect id="button" ry="5" rx="5" y="6" x="6" height="38" width="38"
                fill="#f2f5e9" fill-opacity="0.5" stroke="#606060" stroke-width="1.0"/>
           <path id="arrow"
             d="M 11.500037,31.436501 C 11.940474,20.09759 22.043105,11.32322 32.158766,21.979434 L 37.068811,17.246167 C 37.068811,17.246167 37.088388,32 37.088388,32 L 22.160133,31.978069 C 22.160133,31.978069 26.997745,27.140456 26.997745,27.140456 C 18.528582,18.264221 13.291696,25.230495 11.500037,31.436501 z"
             style="fill:#404040;"/>
          </a>
         </g>
        </svg>
</svg>
