<?xml version="1.0" encoding="UTF-8" standalone="no"?>
<!DOCTYPE svg PUBLIC "-//W3C//DTD SVG 1.1//EN"
 "http://www.w3.org/Graphics/SVG/1.1/DTD/svg11.dtd">
<!-- Generated by graphviz version 2.42.2 ()
 -->
<!-- Title: bio::alphabet::quality_base&lt; derived_type, size &gt; Pages: 1 -->
<!--zoomable 137 -->
<svg id="main" version="1.1" xmlns="http://www.w3.org/2000/svg" xmlns:xlink="http://www.w3.org/1999/xlink" xml:space="preserve" onload="init(evt)">
<style type="text/css"><![CDATA[
.edge:hover path { stroke: red; }
.edge:hover polygon { stroke: red; fill: red; }
]]></style>
<script type="text/javascript"><![CDATA[
var edges = document.getElementsByTagName('g');
if (edges && edges.length) {
  for (var i=0;i<edges.length;i++) {
    if (edges[i].id.substr(0,4)=='edge') {
      edges[i].setAttribute('class','edge');
    }
  }
}
]]></script>
        <defs>
                <circle id="rim" cx="0" cy="0" r="7"/>
                <circle id="rim2" cx="0" cy="0" r="3.5"/>
                <g id="zoomPlus">
                        <use xlink:href="#rim" fill="#404040">
                                <set attributeName="fill" to="#808080" begin="zoomplus.mouseover" end="zoomplus.mouseout"/>
                        </use>
                        <path d="M-4,0h8M0,-4v8" fill="none" stroke="white" stroke-width="1.5" pointer-events="none"/>
                </g>
                <g id="zoomMin">
                        <use xlink:href="#rim" fill="#404040">
                                <set attributeName="fill" to="#808080" begin="zoomminus.mouseover" end="zoomminus.mouseout"/>
                        </use>
                        <path d="M-4,0h8" fill="none" stroke="white" stroke-width="1.5" pointer-events="none"/>
                </g>
                <g id="dirArrow">
                        <path fill="none" stroke="white" stroke-width="1.5" d="M0,-3.0v7 M-2.5,-0.5L0,-3.0L2.5,-0.5"/>
                </g>
               <g id="resetDef">
                       <use xlink:href="#rim2" fill="#404040">
                               <set attributeName="fill" to="#808080" begin="reset.mouseover" end="reset.mouseout"/>
                       </use>
               </g>
        </defs>

<script type="text/javascript">
var viewWidth = 1037;
var viewHeight = 137;
var sectionId = 'dynsection-0';
</script>
<script xlink:href="svgpan.js"/>
<svg id="graph" class="graph">
<g id="viewport">
<title>bio::alphabet::quality_base&lt; derived_type, size &gt;</title>
<polygon fill="white" stroke="transparent" points="-4,4 -4,-133 1033,-133 1033,4 -4,4"/>
<!-- Node1 -->
<g id="node1" class="node">
<title>Node1</title>
<g id="a_node1"><a xlink:title="A CRTP&#45;base that refines bio::alphabet::alphabet_base and is used by the quality alphabets.">
<polygon fill="#bfbfbf" stroke="black" points="436,-49.5 436,-79.5 576,-79.5 576,-49.5 436,-49.5"/>
<text text-anchor="start" x="444" y="-67.5" font-family="Helvetica,sans-Serif" font-size="10.00">bio::alphabet::quality</text>
<text text-anchor="middle" x="506" y="-56.5" font-family="Helvetica,sans-Serif" font-size="10.00">_base&lt; derived_type, size &gt;</text>
</a>
</g>
</g>
<!-- Node4 -->
<g id="node4" class="node">
<title>Node4</title>
<g id="a_node4"><a xlink:href="classbio_1_1alphabet_1_1quality__base.html" target="_top" xlink:title=" ">
<polygon fill="white" stroke="black" points="725.5,-98.5 725.5,-128.5 837.5,-128.5 837.5,-98.5 725.5,-98.5"/>
<text text-anchor="start" x="733.5" y="-116.5" font-family="Helvetica,sans-Serif" font-size="10.00">bio::alphabet::quality</text>
<text text-anchor="middle" x="781.5" y="-105.5" font-family="Helvetica,sans-Serif" font-size="10.00">_base&lt; phred42, 42 &gt;</text>
</a>
</g>
</g>
<!-- Node1&#45;&gt;Node4 -->
<g id="edge3" class="edge">
<title>Node1&#45;&gt;Node4</title>
<path fill="none" stroke="orange" stroke-dasharray="5,2" d="M585.96,-78.65C630.58,-86.64 685.26,-96.44 725.28,-103.61"/>
<polygon fill="orange" stroke="orange" points="586.48,-75.18 576.02,-76.86 585.24,-82.07 586.48,-75.18"/>
<text text-anchor="middle" x="644" y="-100.5" font-family="Helvetica,sans-Serif" font-size="10.00"> &lt; phred42, 42 &gt;</text>
</g>
<!-- Node6 -->
<g id="node6" class="node">
<title>Node6</title>
<g id="a_node6"><a xlink:href="classbio_1_1alphabet_1_1quality__base.html" target="_top" xlink:title=" ">
<polygon fill="white" stroke="black" points="725.5,-49.5 725.5,-79.5 837.5,-79.5 837.5,-49.5 725.5,-49.5"/>
<text text-anchor="start" x="733.5" y="-67.5" font-family="Helvetica,sans-Serif" font-size="10.00">bio::alphabet::quality</text>
<text text-anchor="middle" x="781.5" y="-56.5" font-family="Helvetica,sans-Serif" font-size="10.00">_base&lt; phred63, 63 &gt;</text>
</a>
</g>
</g>
<!-- Node1&#45;&gt;Node6 -->
<g id="edge5" class="edge">
<title>Node1&#45;&gt;Node6</title>
<path fill="none" stroke="orange" stroke-dasharray="5,2" d="M586.24,-64.5C630.81,-64.5 685.35,-64.5 725.28,-64.5"/>
<polygon fill="orange" stroke="orange" points="586.02,-61 576.02,-64.5 586.02,-68 586.02,-61"/>
<text text-anchor="middle" x="644" y="-67.5" font-family="Helvetica,sans-Serif" font-size="10.00"> &lt; phred63, 63 &gt;</text>
</g>
<!-- Node8 -->
<g id="node8" class="node">
<title>Node8</title>
<g id="a_node8"><a xlink:href="classbio_1_1alphabet_1_1quality__base.html" target="_top" xlink:title=" ">
<polygon fill="white" stroke="black" points="712,-0.5 712,-30.5 851,-30.5 851,-0.5 712,-0.5"/>
<text text-anchor="start" x="720" y="-18.5" font-family="Helvetica,sans-Serif" font-size="10.00">bio::alphabet::quality</text>
<text text-anchor="middle" x="781.5" y="-7.5" font-family="Helvetica,sans-Serif" font-size="10.00">_base&lt; phred68legacy, 68 &gt;</text>
</a>
</g>
</g>
<!-- Node1&#45;&gt;Node8 -->
<g id="edge7" class="edge">
<title>Node1&#45;&gt;Node8</title>
<path fill="none" stroke="orange" stroke-dasharray="5,2" d="M585.96,-50.35C625.82,-43.21 673.7,-34.63 711.98,-27.78"/>
<polygon fill="orange" stroke="orange" points="585.24,-46.93 576.02,-52.14 586.48,-53.82 585.24,-46.93"/>
<text text-anchor="middle" x="644" y="-52.5" font-family="Helvetica,sans-Serif" font-size="10.00"> &lt; phred68legacy, 68 &gt;</text>
</g>
<!-- Node2 -->
<g id="node2" class="node">
<title>Node2</title>
<g id="a_node2"><a xlink:href="classbio_1_1alphabet_1_1alphabet__base.html" target="_top" xlink:title=" ">
<polygon fill="white" stroke="black" points="265,-44 265,-85 399,-85 399,-44 265,-44"/>
<text text-anchor="start" x="273" y="-73" font-family="Helvetica,sans-Serif" font-size="10.00">bio::alphabet::alphabet</text>
<text text-anchor="start" x="273" y="-62" font-family="Helvetica,sans-Serif" font-size="10.00">_base&lt; derived_type, size,</text>
<text text-anchor="middle" x="332" y="-51" font-family="Helvetica,sans-Serif" font-size="10.00"> char &gt;</text>
</a>
</g>
</g>
<!-- Node2&#45;&gt;Node1 -->
<g id="edge1" class="edge">
<title>Node2&#45;&gt;Node1</title>
<path fill="none" stroke="midnightblue" d="M409.27,-64.5C418.08,-64.5 427.03,-64.5 435.75,-64.5"/>
<polygon fill="midnightblue" stroke="midnightblue" points="409.01,-61 399.01,-64.5 409.01,-68 409.01,-61"/>
</g>
<!-- Node3 -->
<g id="node3" class="node">
<title>Node3</title>
<g id="a_node3"><a xlink:href="classbio_1_1alphabet_1_1alphabet__base.html" target="_top" xlink:title="A CRTP&#45;base that makes defining a custom alphabet easier.">
<polygon fill="white" stroke="black" points="0,-44 0,-85 134,-85 134,-44 0,-44"/>
<text text-anchor="start" x="8" y="-73" font-family="Helvetica,sans-Serif" font-size="10.00">bio::alphabet::alphabet</text>
<text text-anchor="start" x="8" y="-62" font-family="Helvetica,sans-Serif" font-size="10.00">_base&lt; derived_type, size,</text>
<text text-anchor="middle" x="67" y="-51" font-family="Helvetica,sans-Serif" font-size="10.00"> char_t &gt;</text>
</a>
</g>
</g>
<!-- Node3&#45;&gt;Node2 -->
<g id="edge2" class="edge">
<title>Node3&#45;&gt;Node2</title>
<path fill="none" stroke="orange" stroke-dasharray="5,2" d="M144.08,-64.5C182.32,-64.5 228.21,-64.5 264.95,-64.5"/>
<polygon fill="orange" stroke="orange" points="144.03,-61 134.03,-64.5 144.03,-68 144.03,-61"/>
<text text-anchor="start" x="152" y="-78.5" font-family="Helvetica,sans-Serif" font-size="10.00"> &lt; derived_type, size,</text>
<text text-anchor="middle" x="199.5" y="-67.5" font-family="Helvetica,sans-Serif" font-size="10.00"> char &gt;</text>
</g>
<!-- Node5 -->
<g id="node5" class="node">
<title>Node5</title>
<g id="a_node5"><a xlink:href="classbio_1_1alphabet_1_1phred42.html" target="_top" xlink:title="Quality type for traditional Sanger and modern Illumina Phred scores (typical range)....">
<polygon fill="white" stroke="black" points="902,-104 902,-123 1015,-123 1015,-104 902,-104"/>
<text text-anchor="middle" x="958.5" y="-111" font-family="Helvetica,sans-Serif" font-size="10.00">bio::alphabet::phred42</text>
</a>
</g>
</g>
<!-- Node4&#45;&gt;Node5 -->
<g id="edge4" class="edge">
<title>Node4&#45;&gt;Node5</title>
<path fill="none" stroke="midnightblue" d="M848.12,-113.5C865.82,-113.5 884.79,-113.5 901.89,-113.5"/>
<polygon fill="midnightblue" stroke="midnightblue" points="847.87,-110 837.87,-113.5 847.87,-117 847.87,-110"/>
</g>
<!-- Node7 -->
<g id="node7" class="node">
<title>Node7</title>
<g id="a_node7"><a xlink:href="classbio_1_1alphabet_1_1phred63.html" target="_top" xlink:title="Quality type for traditional Sanger and modern Illumina Phred scores (full range)....">
<polygon fill="white" stroke="black" points="902,-55 902,-74 1015,-74 1015,-55 902,-55"/>
<text text-anchor="middle" x="958.5" y="-62" font-family="Helvetica,sans-Serif" font-size="10.00">bio::alphabet::phred63</text>
</a>
</g>
</g>
<!-- Node6&#45;&gt;Node7 -->
<g id="edge6" class="edge">
<title>Node6&#45;&gt;Node7</title>
<path fill="none" stroke="midnightblue" d="M848.12,-64.5C865.82,-64.5 884.79,-64.5 901.89,-64.5"/>
<polygon fill="midnightblue" stroke="midnightblue" points="847.87,-61 837.87,-64.5 847.87,-68 847.87,-61"/>
</g>
<!-- Node9 -->
<g id="node9" class="node">
<title>Node9</title>
<g id="a_node9"><a xlink:href="classbio_1_1alphabet_1_1phred68legacy.html" target="_top" xlink:title="Quality type for Solexa and deprecated Illumina formats..">
<polygon fill="white" stroke="black" points="888,-6 888,-25 1029,-25 1029,-6 888,-6"/>
<text text-anchor="middle" x="958.5" y="-13" font-family="Helvetica,sans-Serif" font-size="10.00">bio::alphabet::phred68legacy</text>
</a>
</g>
</g>
<!-- Node8&#45;&gt;Node9 -->
<g id="edge8" class="edge">
<title>Node8&#45;&gt;Node9</title>
<path fill="none" stroke="midnightblue" d="M861.44,-15.5C870.26,-15.5 879.2,-15.5 887.89,-15.5"/>
<polygon fill="midnightblue" stroke="midnightblue" points="861.16,-12 851.16,-15.5 861.16,-19 861.16,-12"/>
</g>
</g>
</svg>
        <g id="navigator" transform="translate(0 0)" fill="#404254">
                <rect fill="#f2f5e9" fill-opacity="0.5" stroke="#606060" stroke-width=".5" x="0" y="0" width="60" height="60"/>
                <use id="zoomplus" xlink:href="#zoomPlus" x="17" y="9" onmousedown="handleZoom(evt,'in')"/>
                <use id="zoomminus" xlink:href="#zoomMin" x="42" y="9" onmousedown="handleZoom(evt,'out')"/>
                <use id="reset" xlink:href="#resetDef" x="30" y="36" onmousedown="handleReset()"/>
                <g id="arrowUp" xlink:href="#dirArrow" transform="translate(30 24)" onmousedown="handlePan(0,-1)">
                  <use xlink:href="#rim" fill="#404040">
                        <set attributeName="fill" to="#808080" begin="arrowUp.mouseover" end="arrowUp.mouseout"/>
                  </use>
                  <path fill="none" stroke="white" stroke-width="1.5" d="M0,-3.0v7 M-2.5,-0.5L0,-3.0L2.5,-0.5"/>
                </g>
                <g id="arrowRight" xlink:href="#dirArrow" transform="rotate(90) translate(36 -43)" onmousedown="handlePan(1,0)">
                  <use xlink:href="#rim" fill="#404040">
                        <set attributeName="fill" to="#808080" begin="arrowRight.mouseover" end="arrowRight.mouseout"/>
                  </use>
                  <path fill="none" stroke="white" stroke-width="1.5" d="M0,-3.0v7 M-2.5,-0.5L0,-3.0L2.5,-0.5"/>
                </g>
                <g id="arrowDown" xlink:href="#dirArrow" transform="rotate(180) translate(-30 -48)" onmousedown="handlePan(0,1)">
                  <use xlink:href="#rim" fill="#404040">
                        <set attributeName="fill" to="#808080" begin="arrowDown.mouseover" end="arrowDown.mouseout"/>
                  </use>
                  <path fill="none" stroke="white" stroke-width="1.5" d="M0,-3.0v7 M-2.5,-0.5L0,-3.0L2.5,-0.5"/>
                </g>
                <g id="arrowLeft" xlink:href="#dirArrow" transform="rotate(270) translate(-36 17)" onmousedown="handlePan(-1,0)">
                  <use xlink:href="#rim" fill="#404040">
                        <set attributeName="fill" to="#808080" begin="arrowLeft.mouseover" end="arrowLeft.mouseout"/>
                  </use>
                  <path fill="none" stroke="white" stroke-width="1.5" d="M0,-3.0v7 M-2.5,-0.5L0,-3.0L2.5,-0.5"/>
                </g>
        </g>
        <svg viewBox="0 0 15 15" width="100%" height="30px" preserveAspectRatio="xMaxYMin meet">
         <g id="arrow_out" transform="scale(0.3 0.3)">
          <a xlink:href="classbio_1_1alphabet_1_1quality__base__inherit__graph_org.svg" target="_base">
           <rect id="button" ry="5" rx="5" y="6" x="6" height="38" width="38"
                fill="#f2f5e9" fill-opacity="0.5" stroke="#606060" stroke-width="1.0"/>
           <path id="arrow"
             d="M 11.500037,31.436501 C 11.940474,20.09759 22.043105,11.32322 32.158766,21.979434 L 37.068811,17.246167 C 37.068811,17.246167 37.088388,32 37.088388,32 L 22.160133,31.978069 C 22.160133,31.978069 26.997745,27.140456 26.997745,27.140456 C 18.528582,18.264221 13.291696,25.230495 11.500037,31.436501 z"
             style="fill:#404040;"/>
          </a>
         </g>
        </svg>
</svg>
