<?xml version="1.0" encoding="UTF-8" standalone="no"?>
<!DOCTYPE svg PUBLIC "-//W3C//DTD SVG 1.1//EN"
 "http://www.w3.org/Graphics/SVG/1.1/DTD/svg11.dtd">
<!-- Generated by graphviz version 2.43.0 (0)
 -->
<!-- Title: bio::alphabet::alphabet_variant&lt; alternative_types &gt; Pages: 1 -->
<!--zoomable 224 -->
<svg id="main" version="1.1" xmlns="http://www.w3.org/2000/svg" xmlns:xlink="http://www.w3.org/1999/xlink" xml:space="preserve" onload="init(evt)">
<style type="text/css"><![CDATA[
.edge:hover path { stroke: red; }
.edge:hover polygon { stroke: red; fill: red; }
]]></style>
<script type="text/javascript"><![CDATA[
var edges = document.getElementsByTagName('g');
if (edges && edges.length) {
  for (var i=0;i<edges.length;i++) {
    if (edges[i].id.substr(0,4)=='edge') {
      edges[i].setAttribute('class','edge');
    }
  }
}
]]></script>
        <defs>
                <circle id="rim" cx="0" cy="0" r="7"/>
                <circle id="rim2" cx="0" cy="0" r="3.5"/>
                <g id="zoomPlus">
                        <use xlink:href="#rim" fill="#404040">
                                <set attributeName="fill" to="#808080" begin="zoomplus.mouseover" end="zoomplus.mouseout"/>
                        </use>
                        <path d="M-4,0h8M0,-4v8" fill="none" stroke="white" stroke-width="1.5" pointer-events="none"/>
                </g>
                <g id="zoomMin">
                        <use xlink:href="#rim" fill="#404040">
                                <set attributeName="fill" to="#808080" begin="zoomminus.mouseover" end="zoomminus.mouseout"/>
                        </use>
                        <path d="M-4,0h8" fill="none" stroke="white" stroke-width="1.5" pointer-events="none"/>
                </g>
                <g id="dirArrow">
                        <path fill="none" stroke="white" stroke-width="1.5" d="M0,-3.0v7 M-2.5,-0.5L0,-3.0L2.5,-0.5"/>
                </g>
               <g id="resetDef">
                       <use xlink:href="#rim2" fill="#404040">
                               <set attributeName="fill" to="#808080" begin="reset.mouseover" end="reset.mouseout"/>
                       </use>
               </g>
        </defs>

<script type="text/javascript">
var viewWidth = 942;
var viewHeight = 224;
var sectionId = 'dynsection-0';
</script>
<script xlink:href="svgpan.js"/>
<svg id="graph" class="graph">
<g id="viewport">
<title>bio::alphabet::alphabet_variant&lt; alternative_types &gt;</title>
<polygon fill="white" stroke="transparent" points="-4,4 -4,-220 938,-220 938,4 -4,4"/>
<!-- Node1 -->
<g id="node1" class="node">
<title>Node1</title>
<g id="a_node1"><a xlink:title="A combined alphabet that can hold values of either of its alternatives.">
<polygon fill="#bfbfbf" stroke="black" points="805,-83.5 805,-124.5 934,-124.5 934,-83.5 805,-83.5"/>
<text text-anchor="start" x="813" y="-112.5" font-family="Helvetica,sans-Serif" font-size="10.00">bio::alphabet::alphabet</text>
<text text-anchor="start" x="813" y="-101.5" font-family="Helvetica,sans-Serif" font-size="10.00">_variant&lt; alternative</text>
<text text-anchor="middle" x="869.5" y="-90.5" font-family="Helvetica,sans-Serif" font-size="10.00">_types &gt;</text>
</a>
</g>
</g>
<!-- Node2 -->
<g id="node2" class="node">
<title>Node2</title>
<g id="a_node2"><a xlink:href="interfacebio_1_1alphabet_1_1writable__alphabet.html" target="_top" xlink:title="Refines bio::alphabet::alphabet and adds assignability.">
<polygon fill="white" stroke="black" points="622,-158.5 622,-177.5 726,-177.5 726,-158.5 622,-158.5"/>
<text text-anchor="middle" x="674" y="-165.5" font-family="Helvetica,sans-Serif" font-size="10.00">writable_alphabet</text>
</a>
</g>
</g>
<!-- Node2&#45;&gt;Node1 -->
<g id="edge1" class="edge">
<title>Node2&#45;&gt;Node1</title>
<path fill="none" stroke="midnightblue" d="M735.99,-157.54C746.76,-155.13 757.79,-152.28 768,-149 788.2,-142.5 809.78,-133.18 827.74,-124.7"/>
<polygon fill="midnightblue" stroke="midnightblue" points="735.25,-154.12 726.2,-159.64 736.71,-160.96 735.25,-154.12"/>
</g>
<!-- Node3 -->
<g id="node3" class="node">
<title>Node3</title>
<g id="a_node3"><a xlink:href="interfacebio_1_1alphabet_1_1alphabet.html" target="_top" xlink:title="The generic alphabet concept that covers most data types used in ranges.">
<polygon fill="white" stroke="black" points="331,-196.5 331,-215.5 390,-215.5 390,-196.5 331,-196.5"/>
<text text-anchor="middle" x="360.5" y="-203.5" font-family="Helvetica,sans-Serif" font-size="10.00">alphabet</text>
</a>
</g>
</g>
<!-- Node3&#45;&gt;Node2 -->
<g id="edge2" class="edge">
<title>Node3&#45;&gt;Node2</title>
<path fill="none" stroke="midnightblue" d="M400.02,-201.46C440.39,-196.69 505.66,-188.92 562,-182 581.57,-179.59 603.07,-176.9 621.89,-174.51"/>
<polygon fill="midnightblue" stroke="midnightblue" points="399.58,-197.99 390.06,-202.64 400.4,-204.94 399.58,-197.99"/>
</g>
<!-- Node4 -->
<g id="node4" class="node">
<title>Node4</title>
<g id="a_node4"><a xlink:href="interfacebio_1_1alphabet_1_1semialphabet.html" target="_top" xlink:title="The basis for bio::alphabet::alphabet, but requires only rank interface (not char).">
<polygon fill="white" stroke="black" points="166,-176.5 166,-195.5 249,-195.5 249,-176.5 166,-176.5"/>
<text text-anchor="middle" x="207.5" y="-183.5" font-family="Helvetica,sans-Serif" font-size="10.00">semialphabet</text>
</a>
</g>
</g>
<!-- Node4&#45;&gt;Node3 -->
<g id="edge3" class="edge">
<title>Node4&#45;&gt;Node3</title>
<path fill="none" stroke="midnightblue" d="M259.28,-192.73C283.02,-195.87 310.42,-199.5 330.57,-202.17"/>
<polygon fill="midnightblue" stroke="midnightblue" points="259.74,-189.26 249.36,-191.41 258.82,-196.2 259.74,-189.26"/>
</g>
<!-- Node7 -->
<g id="node7" class="node">
<title>Node7</title>
<g id="a_node7"><a xlink:href="interfacebio_1_1alphabet_1_1writable__semialphabet.html" target="_top" xlink:title="A refinement of bio::alphabet::semialphabet that adds assignability.">
<polygon fill="white" stroke="black" points="296.5,-158.5 296.5,-177.5 424.5,-177.5 424.5,-158.5 296.5,-158.5"/>
<text text-anchor="middle" x="360.5" y="-165.5" font-family="Helvetica,sans-Serif" font-size="10.00">writable_semialphabet</text>
</a>
</g>
</g>
<!-- Node4&#45;&gt;Node7 -->
<g id="edge7" class="edge">
<title>Node4&#45;&gt;Node7</title>
<path fill="none" stroke="midnightblue" d="M259.52,-179.92C271.38,-178.5 284.14,-176.98 296.45,-175.52"/>
<polygon fill="midnightblue" stroke="midnightblue" points="258.88,-176.47 249.36,-181.13 259.71,-183.42 258.88,-176.47"/>
</g>
<!-- Node5 -->
<g id="node5" class="node">
<title>Node5</title>
<g id="a_node5"><a xlink:title=" ">
<polygon fill="white" stroke="#bfbfbf" points="8.5,-195.5 8.5,-214.5 120.5,-214.5 120.5,-195.5 8.5,-195.5"/>
<text text-anchor="middle" x="64.5" y="-202.5" font-family="Helvetica,sans-Serif" font-size="10.00">std::totally_ordered</text>
</a>
</g>
</g>
<!-- Node5&#45;&gt;Node4 -->
<g id="edge4" class="edge">
<title>Node5&#45;&gt;Node4</title>
<path fill="none" stroke="midnightblue" d="M130.75,-196.21C142.67,-194.6 154.78,-192.97 165.72,-191.49"/>
<polygon fill="midnightblue" stroke="midnightblue" points="130.27,-192.74 120.82,-197.55 131.2,-199.68 130.27,-192.74"/>
</g>
<!-- Node6 -->
<g id="node6" class="node">
<title>Node6</title>
<g id="a_node6"><a xlink:title=" ">
<polygon fill="white" stroke="#bfbfbf" points="0,-157.5 0,-176.5 129,-176.5 129,-157.5 0,-157.5"/>
<text text-anchor="middle" x="64.5" y="-164.5" font-family="Helvetica,sans-Serif" font-size="10.00">std::copy_constructible</text>
</a>
</g>
</g>
<!-- Node6&#45;&gt;Node4 -->
<g id="edge5" class="edge">
<title>Node6&#45;&gt;Node4</title>
<path fill="none" stroke="midnightblue" d="M139.59,-176.98C148.62,-178.2 157.56,-179.41 165.84,-180.52"/>
<polygon fill="midnightblue" stroke="midnightblue" points="139.78,-173.48 129.4,-175.61 138.84,-180.41 139.78,-173.48"/>
</g>
<!-- Node7&#45;&gt;Node2 -->
<g id="edge6" class="edge">
<title>Node7&#45;&gt;Node2</title>
<path fill="none" stroke="midnightblue" d="M434.66,-168C492.22,-168 570.95,-168 621.89,-168"/>
<polygon fill="midnightblue" stroke="midnightblue" points="434.54,-164.5 424.54,-168 434.54,-171.5 434.54,-164.5"/>
</g>
<!-- Node8 -->
<g id="node8" class="node">
<title>Node8</title>
<g id="a_node8"><a xlink:href="interfacebio_1_1meta_1_1trivially__copyable.html" target="_top" xlink:title="A type that satisfies std::is_trivially_copyable_v&lt;t&gt;.">
<polygon fill="white" stroke="black" points="622,-120.5 622,-139.5 726,-139.5 726,-120.5 622,-120.5"/>
<text text-anchor="middle" x="674" y="-127.5" font-family="Helvetica,sans-Serif" font-size="10.00">trivially_copyable</text>
</a>
</g>
</g>
<!-- Node8&#45;&gt;Node1 -->
<g id="edge8" class="edge">
<title>Node8&#45;&gt;Node1</title>
<path fill="none" stroke="midnightblue" d="M736.27,-121.77C758.18,-118.82 782.9,-115.5 804.99,-112.53"/>
<polygon fill="midnightblue" stroke="midnightblue" points="735.54,-118.33 726.09,-123.13 736.47,-125.27 735.54,-118.33"/>
</g>
<!-- Node9 -->
<g id="node9" class="node">
<title>Node9</title>
<g id="a_node9"><a xlink:title=" ">
<polygon fill="white" stroke="#bfbfbf" points="319.5,-120.5 319.5,-139.5 401.5,-139.5 401.5,-120.5 319.5,-120.5"/>
<text text-anchor="middle" x="360.5" y="-127.5" font-family="Helvetica,sans-Serif" font-size="10.00">std::copyable</text>
</a>
</g>
</g>
<!-- Node9&#45;&gt;Node8 -->
<g id="edge9" class="edge">
<title>Node9&#45;&gt;Node8</title>
<path fill="none" stroke="midnightblue" d="M411.94,-130C469.73,-130 563.92,-130 621.96,-130"/>
<polygon fill="midnightblue" stroke="midnightblue" points="411.59,-126.5 401.59,-130 411.59,-133.5 411.59,-126.5"/>
</g>
<!-- Node10 -->
<g id="node10" class="node">
<title>Node10</title>
<g id="a_node10"><a xlink:href="interfacebio_1_1meta_1_1standard__layout.html" target="_top" xlink:title="Resolves to std::is_standard_layout_v&lt;t&gt;.">
<polygon fill="white" stroke="black" points="626.5,-82.5 626.5,-101.5 721.5,-101.5 721.5,-82.5 626.5,-82.5"/>
<text text-anchor="middle" x="674" y="-89.5" font-family="Helvetica,sans-Serif" font-size="10.00">standard_layout</text>
</a>
</g>
</g>
<!-- Node10&#45;&gt;Node1 -->
<g id="edge10" class="edge">
<title>Node10&#45;&gt;Node1</title>
<path fill="none" stroke="midnightblue" d="M732.08,-95.54C754.96,-96.96 781.42,-98.6 804.91,-100.06"/>
<polygon fill="midnightblue" stroke="midnightblue" points="732.04,-92.03 721.84,-94.9 731.61,-99.02 732.04,-92.03"/>
</g>
<!-- Node11 -->
<g id="node11" class="node">
<title>Node11</title>
<g id="a_node11"><a xlink:href="classbio_1_1alphabet_1_1alphabet__base.html" target="_top" xlink:title=" ">
<polygon fill="white" stroke="black" points="580,-0.5 580,-63.5 768,-63.5 768,-0.5 580,-0.5"/>
<text text-anchor="start" x="588" y="-51.5" font-family="Helvetica,sans-Serif" font-size="10.00">bio::alphabet::alphabet</text>
<text text-anchor="start" x="588" y="-40.5" font-family="Helvetica,sans-Serif" font-size="10.00">_base&lt; alphabet_variant</text>
<text text-anchor="start" x="588" y="-29.5" font-family="Helvetica,sans-Serif" font-size="10.00">&lt; alternative_types... &gt;</text>
<text text-anchor="start" x="588" y="-18.5" font-family="Helvetica,sans-Serif" font-size="10.00">,(static_cast&lt; size_t &gt;(size</text>
<text text-anchor="middle" x="674" y="-7.5" font-family="Helvetica,sans-Serif" font-size="10.00">&lt; alternative_types &gt;)+...), char &gt;</text>
</a>
</g>
</g>
<!-- Node11&#45;&gt;Node1 -->
<g id="edge11" class="edge">
<title>Node11&#45;&gt;Node1</title>
<path fill="none" stroke="midnightblue" d="M769.65,-67.22C784.58,-72.77 799.57,-78.35 813.21,-83.43"/>
<polygon fill="midnightblue" stroke="midnightblue" points="770.46,-63.79 759.87,-63.58 768.02,-70.35 770.46,-63.79"/>
</g>
<!-- Node12 -->
<g id="node12" class="node">
<title>Node12</title>
<g id="a_node12"><a xlink:href="classbio_1_1alphabet_1_1alphabet__base.html" target="_top" xlink:title="A CRTP&#45;base that makes defining a custom alphabet easier.">
<polygon fill="white" stroke="black" points="286,-11.5 286,-52.5 435,-52.5 435,-11.5 286,-11.5"/>
<text text-anchor="start" x="294" y="-40.5" font-family="Helvetica,sans-Serif" font-size="10.00">bio::alphabet::alphabet</text>
<text text-anchor="start" x="294" y="-29.5" font-family="Helvetica,sans-Serif" font-size="10.00">_base&lt; derived_type, size,</text>
<text text-anchor="middle" x="360.5" y="-18.5" font-family="Helvetica,sans-Serif" font-size="10.00"> char_t &gt;</text>
</a>
</g>
</g>
<!-- Node12&#45;&gt;Node11 -->
<g id="edge12" class="edge">
<title>Node12&#45;&gt;Node11</title>
<path fill="none" stroke="orange" stroke-dasharray="5,2" d="M445.4,-32C486.93,-32 537.17,-32 579.88,-32"/>
<polygon fill="orange" stroke="orange" points="445.32,-28.5 435.32,-32 445.32,-35.5 445.32,-28.5"/>
<text text-anchor="start" x="453" y="-79" font-family="Helvetica,sans-Serif" font-size="10.00"> &lt; alphabet_variant</text>
<text text-anchor="start" x="453" y="-68" font-family="Helvetica,sans-Serif" font-size="10.00">&lt; alternative_types...</text>
<text text-anchor="start" x="453" y="-57" font-family="Helvetica,sans-Serif" font-size="10.00"> &gt;,(static_cast&lt; size</text>
<text text-anchor="start" x="453" y="-46" font-family="Helvetica,sans-Serif" font-size="10.00">_t &gt;(size&lt; alternative</text>
<text text-anchor="middle" x="507.5" y="-35" font-family="Helvetica,sans-Serif" font-size="10.00">_types &gt;)+...), char &gt;</text>
</g>
</g>
</svg>
        <g id="navigator" transform="translate(0 0)" fill="#404254">
                <rect fill="#f2f5e9" fill-opacity="0.5" stroke="#606060" stroke-width=".5" x="0" y="0" width="60" height="60"/>
                <use id="zoomplus" xlink:href="#zoomPlus" x="17" y="9" onmousedown="handleZoom(evt,'in')"/>
                <use id="zoomminus" xlink:href="#zoomMin" x="42" y="9" onmousedown="handleZoom(evt,'out')"/>
                <use id="reset" xlink:href="#resetDef" x="30" y="36" onmousedown="handleReset()"/>
                <g id="arrowUp" xlink:href="#dirArrow" transform="translate(30 24)" onmousedown="handlePan(0,-1)">
                  <use xlink:href="#rim" fill="#404040">
                        <set attributeName="fill" to="#808080" begin="arrowUp.mouseover" end="arrowUp.mouseout"/>
                  </use>
                  <path fill="none" stroke="white" stroke-width="1.5" d="M0,-3.0v7 M-2.5,-0.5L0,-3.0L2.5,-0.5"/>
                </g>
                <g id="arrowRight" xlink:href="#dirArrow" transform="rotate(90) translate(36 -43)" onmousedown="handlePan(1,0)">
                  <use xlink:href="#rim" fill="#404040">
                        <set attributeName="fill" to="#808080" begin="arrowRight.mouseover" end="arrowRight.mouseout"/>
                  </use>
                  <path fill="none" stroke="white" stroke-width="1.5" d="M0,-3.0v7 M-2.5,-0.5L0,-3.0L2.5,-0.5"/>
                </g>
                <g id="arrowDown" xlink:href="#dirArrow" transform="rotate(180) translate(-30 -48)" onmousedown="handlePan(0,1)">
                  <use xlink:href="#rim" fill="#404040">
                        <set attributeName="fill" to="#808080" begin="arrowDown.mouseover" end="arrowDown.mouseout"/>
                  </use>
                  <path fill="none" stroke="white" stroke-width="1.5" d="M0,-3.0v7 M-2.5,-0.5L0,-3.0L2.5,-0.5"/>
                </g>
                <g id="arrowLeft" xlink:href="#dirArrow" transform="rotate(270) translate(-36 17)" onmousedown="handlePan(-1,0)">
                  <use xlink:href="#rim" fill="#404040">
                        <set attributeName="fill" to="#808080" begin="arrowLeft.mouseover" end="arrowLeft.mouseout"/>
                  </use>
                  <path fill="none" stroke="white" stroke-width="1.5" d="M0,-3.0v7 M-2.5,-0.5L0,-3.0L2.5,-0.5"/>
                </g>
        </g>
        <svg viewBox="0 0 15 15" width="100%" height="30px" preserveAspectRatio="xMaxYMin meet">
         <g id="arrow_out" transform="scale(0.3 0.3)">
          <a xlink:href="classbio_1_1alphabet_1_1alphabet__variant__inherit__graph_org.svg" target="_base">
           <rect id="button" ry="5" rx="5" y="6" x="6" height="38" width="38"
                fill="#f2f5e9" fill-opacity="0.5" stroke="#606060" stroke-width="1.0"/>
           <path id="arrow"
             d="M 11.500037,31.436501 C 11.940474,20.09759 22.043105,11.32322 32.158766,21.979434 L 37.068811,17.246167 C 37.068811,17.246167 37.088388,32 37.088388,32 L 22.160133,31.978069 C 22.160133,31.978069 26.997745,27.140456 26.997745,27.140456 C 18.528582,18.264221 13.291696,25.230495 11.500037,31.436501 z"
             style="fill:#404040;"/>
          </a>
         </g>
        </svg>
</svg>
