<?xml version="1.0" encoding="UTF-8" standalone="no"?>
<!DOCTYPE svg PUBLIC "-//W3C//DTD SVG 1.1//EN"
 "http://www.w3.org/Graphics/SVG/1.1/DTD/svg11.dtd">
<!-- Generated by graphviz version 2.43.0 (0)
 -->
<!-- Title: bio::alphabet::aminoacid_base&lt; derived_type, size &gt; Pages: 1 -->
<svg width="1076pt" height="186pt"
 viewBox="0.00 0.00 1076.00 186.00" xmlns="http://www.w3.org/2000/svg" xmlns:xlink="http://www.w3.org/1999/xlink">
<g id="graph0" class="graph" transform="scale(1 1) rotate(0) translate(4 182)">
<title>bio::alphabet::aminoacid_base&lt; derived_type, size &gt;</title>
<polygon fill="white" stroke="transparent" points="-4,4 -4,-182 1072,-182 1072,4 -4,4"/>
<!-- Node1 -->
<g id="node1" class="node">
<title>Node1</title>
<g id="a_node1"><a xlink:title="A CRTP&#45;base that refines bio::alphabet::base and is used by the amino acids.">
<polygon fill="#bfbfbf" stroke="black" points="437,-70.5 437,-100.5 594,-100.5 594,-70.5 437,-70.5"/>
<text text-anchor="start" x="445" y="-88.5" font-family="Helvetica,sans-Serif" font-size="10.00">bio::alphabet::aminoacid</text>
<text text-anchor="middle" x="515.5" y="-77.5" font-family="Helvetica,sans-Serif" font-size="10.00">_base&lt; derived_type, size &gt;</text>
</a>
</g>
</g>
<!-- Node5 -->
<g id="node5" class="node">
<title>Node5</title>
<g id="a_node5"><a xlink:href="classbio_1_1alphabet_1_1aminoacid__base.html" target="_top" xlink:title=" ">
<polygon fill="white" stroke="black" points="741,-147.5 741,-177.5 878,-177.5 878,-147.5 741,-147.5"/>
<text text-anchor="start" x="749" y="-165.5" font-family="Helvetica,sans-Serif" font-size="10.00">bio::alphabet::aminoacid</text>
<text text-anchor="middle" x="809.5" y="-154.5" font-family="Helvetica,sans-Serif" font-size="10.00">_base&lt; aa10li, 10 &gt;</text>
</a>
</g>
</g>
<!-- Node1&#45;&gt;Node5 -->
<g id="edge4" class="edge">
<title>Node1&#45;&gt;Node5</title>
<path fill="none" stroke="orange" stroke-dasharray="5,2" d="M566.84,-104.08C581.31,-109.1 597.19,-114.3 612,-118.5 654.38,-130.52 702.64,-141.37 740.73,-149.29"/>
<polygon fill="orange" stroke="orange" points="567.67,-100.66 557.08,-100.65 565.35,-107.27 567.67,-100.66"/>
<text text-anchor="middle" x="665" y="-145.5" font-family="Helvetica,sans-Serif" font-size="10.00"> &lt; aa10li, 10 &gt;</text>
</g>
<!-- Node7 -->
<g id="node7" class="node">
<title>Node7</title>
<g id="a_node7"><a xlink:href="classbio_1_1alphabet_1_1aminoacid__base.html" target="_top" xlink:title=" ">
<polygon fill="white" stroke="black" points="736,-98.5 736,-128.5 883,-128.5 883,-98.5 736,-98.5"/>
<text text-anchor="start" x="744" y="-116.5" font-family="Helvetica,sans-Serif" font-size="10.00">bio::alphabet::aminoacid</text>
<text text-anchor="middle" x="809.5" y="-105.5" font-family="Helvetica,sans-Serif" font-size="10.00">_base&lt; aa10murphy, 10 &gt;</text>
</a>
</g>
</g>
<!-- Node1&#45;&gt;Node7 -->
<g id="edge6" class="edge">
<title>Node1&#45;&gt;Node7</title>
<path fill="none" stroke="orange" stroke-dasharray="5,2" d="M604.58,-93.95C646.53,-97.97 696.1,-102.72 735.87,-106.54"/>
<polygon fill="orange" stroke="orange" points="604.66,-90.44 594.37,-92.97 603.99,-97.41 604.66,-90.44"/>
<text text-anchor="middle" x="665" y="-106.5" font-family="Helvetica,sans-Serif" font-size="10.00"> &lt; aa10murphy, 10 &gt;</text>
</g>
<!-- Node9 -->
<g id="node9" class="node">
<title>Node9</title>
<g id="a_node9"><a xlink:href="classbio_1_1alphabet_1_1aminoacid__base.html" target="_top" xlink:title=" ">
<polygon fill="white" stroke="black" points="741,-49.5 741,-79.5 878,-79.5 878,-49.5 741,-49.5"/>
<text text-anchor="start" x="749" y="-67.5" font-family="Helvetica,sans-Serif" font-size="10.00">bio::alphabet::aminoacid</text>
<text text-anchor="middle" x="809.5" y="-56.5" font-family="Helvetica,sans-Serif" font-size="10.00">_base&lt; aa20, 20 &gt;</text>
</a>
</g>
</g>
<!-- Node1&#45;&gt;Node9 -->
<g id="edge8" class="edge">
<title>Node1&#45;&gt;Node9</title>
<path fill="none" stroke="orange" stroke-dasharray="5,2" d="M604.27,-77.12C606.88,-76.9 609.46,-76.7 612,-76.5 654.76,-73.18 702.82,-70.23 740.71,-68.09"/>
<polygon fill="orange" stroke="orange" points="603.81,-73.64 594.14,-77.97 604.4,-80.62 603.81,-73.64"/>
<text text-anchor="middle" x="665" y="-79.5" font-family="Helvetica,sans-Serif" font-size="10.00"> &lt; aa20, 20 &gt;</text>
</g>
<!-- Node11 -->
<g id="node11" class="node">
<title>Node11</title>
<g id="a_node11"><a xlink:href="classbio_1_1alphabet_1_1aminoacid__base.html" target="_top" xlink:title=" ">
<polygon fill="white" stroke="black" points="741,-0.5 741,-30.5 878,-30.5 878,-0.5 741,-0.5"/>
<text text-anchor="start" x="749" y="-18.5" font-family="Helvetica,sans-Serif" font-size="10.00">bio::alphabet::aminoacid</text>
<text text-anchor="middle" x="809.5" y="-7.5" font-family="Helvetica,sans-Serif" font-size="10.00">_base&lt; aa27, 27 &gt;</text>
</a>
</g>
</g>
<!-- Node1&#45;&gt;Node11 -->
<g id="edge10" class="edge">
<title>Node1&#45;&gt;Node11</title>
<path fill="none" stroke="orange" stroke-dasharray="5,2" d="M570.53,-67.46C584,-63.26 598.46,-58.99 612,-55.5 654.47,-44.54 702.74,-34.68 740.81,-27.49"/>
<polygon fill="orange" stroke="orange" points="569.4,-64.14 560.92,-70.5 571.51,-70.82 569.4,-64.14"/>
<text text-anchor="middle" x="665" y="-58.5" font-family="Helvetica,sans-Serif" font-size="10.00"> &lt; aa27, 27 &gt;</text>
</g>
<!-- Node2 -->
<g id="node2" class="node">
<title>Node2</title>
<g id="a_node2"><a xlink:href="structbio_1_1alphabet_1_1aminoacid__empty__base.html" target="_top" xlink:title="This is an empty base class that can be inherited by types that shall model bio::alphabet::aminoacid_...">
<polygon fill="white" stroke="black" points="263,-98.5 263,-128.5 400,-128.5 400,-98.5 263,-98.5"/>
<text text-anchor="start" x="271" y="-116.5" font-family="Helvetica,sans-Serif" font-size="10.00">bio::alphabet::aminoacid</text>
<text text-anchor="middle" x="331.5" y="-105.5" font-family="Helvetica,sans-Serif" font-size="10.00">_empty_base</text>
</a>
</g>
</g>
<!-- Node2&#45;&gt;Node1 -->
<g id="edge1" class="edge">
<title>Node2&#45;&gt;Node1</title>
<path fill="none" stroke="midnightblue" d="M410,-101.58C418.93,-100.2 428.04,-98.8 436.97,-97.43"/>
<polygon fill="midnightblue" stroke="midnightblue" points="409.36,-98.13 400.01,-103.11 410.43,-105.05 409.36,-98.13"/>
</g>
<!-- Node3 -->
<g id="node3" class="node">
<title>Node3</title>
<g id="a_node3"><a xlink:href="classbio_1_1alphabet_1_1base.html" target="_top" xlink:title=" ">
<polygon fill="white" stroke="black" points="271.5,-38 271.5,-79 391.5,-79 391.5,-38 271.5,-38"/>
<text text-anchor="start" x="279.5" y="-67" font-family="Helvetica,sans-Serif" font-size="10.00">bio::alphabet::base</text>
<text text-anchor="start" x="279.5" y="-56" font-family="Helvetica,sans-Serif" font-size="10.00">&lt; derived_type, size,</text>
<text text-anchor="middle" x="331.5" y="-45" font-family="Helvetica,sans-Serif" font-size="10.00"> char &gt;</text>
</a>
</g>
</g>
<!-- Node3&#45;&gt;Node1 -->
<g id="edge2" class="edge">
<title>Node3&#45;&gt;Node1</title>
<path fill="none" stroke="midnightblue" d="M401.56,-68.75C413.08,-70.45 425.1,-72.24 436.82,-73.98"/>
<polygon fill="midnightblue" stroke="midnightblue" points="402,-65.27 391.59,-67.27 400.97,-72.2 402,-65.27"/>
</g>
<!-- Node4 -->
<g id="node4" class="node">
<title>Node4</title>
<g id="a_node4"><a xlink:href="classbio_1_1alphabet_1_1base.html" target="_top" xlink:title="A CRTP&#45;base that makes defining a custom alphabet easier.">
<polygon fill="white" stroke="black" points="0,-38 0,-79 120,-79 120,-38 0,-38"/>
<text text-anchor="start" x="8" y="-67" font-family="Helvetica,sans-Serif" font-size="10.00">bio::alphabet::base</text>
<text text-anchor="start" x="8" y="-56" font-family="Helvetica,sans-Serif" font-size="10.00">&lt; derived_type, size,</text>
<text text-anchor="middle" x="60" y="-45" font-family="Helvetica,sans-Serif" font-size="10.00"> char_t &gt;</text>
</a>
</g>
</g>
<!-- Node4&#45;&gt;Node3 -->
<g id="edge3" class="edge">
<title>Node4&#45;&gt;Node3</title>
<path fill="none" stroke="orange" stroke-dasharray="5,2" d="M130.41,-58.5C174.12,-58.5 229.93,-58.5 271.5,-58.5"/>
<polygon fill="orange" stroke="orange" points="130.14,-55 120.14,-58.5 130.14,-62 130.14,-55"/>
<text text-anchor="start" x="138" y="-72.5" font-family="Helvetica,sans-Serif" font-size="10.00"> &lt; derived_type, size,</text>
<text text-anchor="middle" x="191.5" y="-61.5" font-family="Helvetica,sans-Serif" font-size="10.00"> char &gt;</text>
</g>
<!-- Node6 -->
<g id="node6" class="node">
<title>Node6</title>
<g id="a_node6"><a xlink:href="classbio_1_1alphabet_1_1aa10li.html" target="_top" xlink:title="The reduced Li amino acid alphabet..">
<polygon fill="white" stroke="black" points="936,-153 936,-172 1052,-172 1052,-153 936,-153"/>
<text text-anchor="middle" x="994" y="-160" font-family="Helvetica,sans-Serif" font-size="10.00">bio::alphabet::aa10li</text>
</a>
</g>
</g>
<!-- Node5&#45;&gt;Node6 -->
<g id="edge5" class="edge">
<title>Node5&#45;&gt;Node6</title>
<path fill="none" stroke="midnightblue" d="M888.54,-162.5C904.44,-162.5 920.88,-162.5 935.88,-162.5"/>
<polygon fill="midnightblue" stroke="midnightblue" points="888.2,-159 878.2,-162.5 888.2,-166 888.2,-159"/>
</g>
<!-- Node8 -->
<g id="node8" class="node">
<title>Node8</title>
<g id="a_node8"><a xlink:href="classbio_1_1alphabet_1_1aa10murphy.html" target="_top" xlink:title="The reduced Murphy amino acid alphabet..">
<polygon fill="white" stroke="black" points="920,-104 920,-123 1068,-123 1068,-104 920,-104"/>
<text text-anchor="middle" x="994" y="-111" font-family="Helvetica,sans-Serif" font-size="10.00">bio::alphabet::aa10murphy</text>
</a>
</g>
</g>
<!-- Node7&#45;&gt;Node8 -->
<g id="edge7" class="edge">
<title>Node7&#45;&gt;Node8</title>
<path fill="none" stroke="midnightblue" d="M893.39,-113.5C902.17,-113.5 911.05,-113.5 919.7,-113.5"/>
<polygon fill="midnightblue" stroke="midnightblue" points="893.15,-110 883.15,-113.5 893.15,-117 893.15,-110"/>
</g>
<!-- Node10 -->
<g id="node10" class="node">
<title>Node10</title>
<g id="a_node10"><a xlink:href="classbio_1_1alphabet_1_1aa20.html" target="_top" xlink:title="The canonical amino acid alphabet..">
<polygon fill="white" stroke="black" points="939,-55 939,-74 1049,-74 1049,-55 939,-55"/>
<text text-anchor="middle" x="994" y="-62" font-family="Helvetica,sans-Serif" font-size="10.00">bio::alphabet::aa20</text>
</a>
</g>
</g>
<!-- Node9&#45;&gt;Node10 -->
<g id="edge9" class="edge">
<title>Node9&#45;&gt;Node10</title>
<path fill="none" stroke="midnightblue" d="M888.62,-64.5C905.53,-64.5 923.05,-64.5 938.8,-64.5"/>
<polygon fill="midnightblue" stroke="midnightblue" points="888.2,-61 878.2,-64.5 888.2,-68 888.2,-61"/>
</g>
<!-- Node12 -->
<g id="node12" class="node">
<title>Node12</title>
<g id="a_node12"><a xlink:href="classbio_1_1alphabet_1_1aa27.html" target="_top" xlink:title="The twenty&#45;seven letter amino acid alphabet..">
<polygon fill="white" stroke="black" points="939,-6 939,-25 1049,-25 1049,-6 939,-6"/>
<text text-anchor="middle" x="994" y="-13" font-family="Helvetica,sans-Serif" font-size="10.00">bio::alphabet::aa27</text>
</a>
</g>
</g>
<!-- Node11&#45;&gt;Node12 -->
<g id="edge11" class="edge">
<title>Node11&#45;&gt;Node12</title>
<path fill="none" stroke="midnightblue" d="M888.62,-15.5C905.53,-15.5 923.05,-15.5 938.8,-15.5"/>
<polygon fill="midnightblue" stroke="midnightblue" points="888.2,-12 878.2,-15.5 888.2,-19 888.2,-12"/>
</g>
</g>
</svg>
