<?xml version="1.0" encoding="UTF-8" standalone="no"?>
<!DOCTYPE svg PUBLIC "-//W3C//DTD SVG 1.1//EN"
 "http://www.w3.org/Graphics/SVG/1.1/DTD/svg11.dtd">
<!-- Generated by graphviz version 2.42.2 ()
 -->
<!-- Title: bio::alphabet::cigar_op Pages: 1 -->
<svg width="824pt" height="235pt"
 viewBox="0.00 0.00 824.00 235.00" xmlns="http://www.w3.org/2000/svg" xmlns:xlink="http://www.w3.org/1999/xlink">
<g id="graph0" class="graph" transform="scale(1 1) rotate(0) translate(4 231)">
<title>bio::alphabet::cigar_op</title>
<polygon fill="white" stroke="transparent" points="-4,4 -4,-231 820,-231 820,4 -4,4"/>
<!-- Node1 -->
<g id="node1" class="node">
<title>Node1</title>
<g id="a_node1"><a xlink:title="The (extended) cigar operation alphabet of M,D,I,H,N,P,S,X,=..">
<polygon fill="#bfbfbf" stroke="black" points="701,-93.5 701,-112.5 816,-112.5 816,-93.5 701,-93.5"/>
<text text-anchor="middle" x="758.5" y="-100.5" font-family="Helvetica,sans-Serif" font-size="10.00">bio::alphabet::cigar_op</text>
</a>
</g>
</g>
<!-- Node2 -->
<g id="node2" class="node">
<title>Node2</title>
<g id="a_node2"><a xlink:href="interfacebio_1_1alphabet_1_1writable__alphabet.html" target="_top" xlink:title="Refines bio::alphabet::alphabet and adds assignability.">
<polygon fill="white" stroke="black" points="551,-169.5 551,-188.5 643,-188.5 643,-169.5 551,-169.5"/>
<text text-anchor="middle" x="597" y="-176.5" font-family="Helvetica,sans-Serif" font-size="10.00">writable_alphabet</text>
</a>
</g>
</g>
<!-- Node2&#45;&gt;Node1 -->
<g id="edge1" class="edge">
<title>Node2&#45;&gt;Node1</title>
<path fill="none" stroke="midnightblue" d="M647.29,-166.39C653,-164.47 658.68,-162.33 664,-160 694.29,-146.7 726.6,-125.14 744.19,-112.7"/>
<polygon fill="midnightblue" stroke="midnightblue" points="646.17,-163.08 637.7,-169.43 648.29,-169.75 646.17,-163.08"/>
</g>
<!-- Node3 -->
<g id="node3" class="node">
<title>Node3</title>
<g id="a_node3"><a xlink:href="interfacebio_1_1alphabet_1_1alphabet.html" target="_top" xlink:title="The generic alphabet concept that covers most data types used in ranges.">
<polygon fill="white" stroke="black" points="306.5,-207.5 306.5,-226.5 359.5,-226.5 359.5,-207.5 306.5,-207.5"/>
<text text-anchor="middle" x="333" y="-214.5" font-family="Helvetica,sans-Serif" font-size="10.00">alphabet</text>
</a>
</g>
</g>
<!-- Node3&#45;&gt;Node2 -->
<g id="edge2" class="edge">
<title>Node3&#45;&gt;Node2</title>
<path fill="none" stroke="midnightblue" d="M369.69,-212.52C405.66,-207.93 462.75,-200.42 512,-193 524.57,-191.11 538.18,-188.9 550.7,-186.81"/>
<polygon fill="midnightblue" stroke="midnightblue" points="369.16,-209.06 359.68,-213.79 370.04,-216 369.16,-209.06"/>
</g>
<!-- Node4 -->
<g id="node4" class="node">
<title>Node4</title>
<g id="a_node4"><a xlink:href="interfacebio_1_1alphabet_1_1semialphabet.html" target="_top" xlink:title="The basis for bio::alphabet::alphabet, but requires only rank interface (not char).">
<polygon fill="white" stroke="black" points="155,-187.5 155,-206.5 229,-206.5 229,-187.5 155,-187.5"/>
<text text-anchor="middle" x="192" y="-194.5" font-family="Helvetica,sans-Serif" font-size="10.00">semialphabet</text>
</a>
</g>
</g>
<!-- Node4&#45;&gt;Node3 -->
<g id="edge3" class="edge">
<title>Node4&#45;&gt;Node3</title>
<path fill="none" stroke="midnightblue" d="M239.11,-203.63C261.4,-206.84 287.33,-210.57 306.12,-213.28"/>
<polygon fill="midnightblue" stroke="midnightblue" points="239.55,-200.16 229.16,-202.2 238.56,-207.09 239.55,-200.16"/>
</g>
<!-- Node7 -->
<g id="node7" class="node">
<title>Node7</title>
<g id="a_node7"><a xlink:href="interfacebio_1_1alphabet_1_1writable__semialphabet.html" target="_top" xlink:title="A refinement of bio::alphabet::semialphabet that adds assignability.">
<polygon fill="white" stroke="black" points="276.5,-169.5 276.5,-188.5 389.5,-188.5 389.5,-169.5 276.5,-169.5"/>
<text text-anchor="middle" x="333" y="-176.5" font-family="Helvetica,sans-Serif" font-size="10.00">writable_semialphabet</text>
</a>
</g>
</g>
<!-- Node4&#45;&gt;Node7 -->
<g id="edge7" class="edge">
<title>Node4&#45;&gt;Node7</title>
<path fill="none" stroke="midnightblue" d="M239.29,-191.01C251.16,-189.47 264.06,-187.8 276.35,-186.21"/>
<polygon fill="midnightblue" stroke="midnightblue" points="238.63,-187.56 229.16,-192.32 239.52,-194.5 238.63,-187.56"/>
</g>
<!-- Node5 -->
<g id="node5" class="node">
<title>Node5</title>
<g id="a_node5"><a xlink:title=" ">
<polygon fill="white" stroke="#bfbfbf" points="9,-206.5 9,-225.5 109,-225.5 109,-206.5 9,-206.5"/>
<text text-anchor="middle" x="59" y="-213.5" font-family="Helvetica,sans-Serif" font-size="10.00">std::totally_ordered</text>
</a>
</g>
</g>
<!-- Node5&#45;&gt;Node4 -->
<g id="edge4" class="edge">
<title>Node5&#45;&gt;Node4</title>
<path fill="none" stroke="midnightblue" d="M119.2,-207.41C131.29,-205.66 143.67,-203.86 154.67,-202.27"/>
<polygon fill="midnightblue" stroke="midnightblue" points="118.55,-203.97 109.15,-208.87 119.55,-210.9 118.55,-203.97"/>
</g>
<!-- Node6 -->
<g id="node6" class="node">
<title>Node6</title>
<g id="a_node6"><a xlink:title=" ">
<polygon fill="white" stroke="#bfbfbf" points="0,-168.5 0,-187.5 118,-187.5 118,-168.5 0,-168.5"/>
<text text-anchor="middle" x="59" y="-175.5" font-family="Helvetica,sans-Serif" font-size="10.00">std::copy_constructible</text>
</a>
</g>
</g>
<!-- Node6&#45;&gt;Node4 -->
<g id="edge5" class="edge">
<title>Node6&#45;&gt;Node4</title>
<path fill="none" stroke="midnightblue" d="M128.17,-187.89C137.35,-189.22 146.46,-190.54 154.77,-191.75"/>
<polygon fill="midnightblue" stroke="midnightblue" points="128.62,-184.42 118.22,-186.44 127.62,-191.34 128.62,-184.42"/>
</g>
<!-- Node7&#45;&gt;Node2 -->
<g id="edge6" class="edge">
<title>Node7&#45;&gt;Node2</title>
<path fill="none" stroke="midnightblue" d="M399.69,-179C446.9,-179 509.31,-179 550.96,-179"/>
<polygon fill="midnightblue" stroke="midnightblue" points="399.56,-175.5 389.56,-179 399.56,-182.5 399.56,-175.5"/>
</g>
<!-- Node8 -->
<g id="node8" class="node">
<title>Node8</title>
<g id="a_node8"><a xlink:href="interfacebio_1_1meta_1_1trivially__copyable.html" target="_top" xlink:title="A type that satisfies std::is_trivially_copyable_v&lt;t&gt;.">
<polygon fill="white" stroke="black" points="551,-131.5 551,-150.5 643,-150.5 643,-131.5 551,-131.5"/>
<text text-anchor="middle" x="597" y="-138.5" font-family="Helvetica,sans-Serif" font-size="10.00">trivially_copyable</text>
</a>
</g>
</g>
<!-- Node8&#45;&gt;Node1 -->
<g id="edge8" class="edge">
<title>Node8&#45;&gt;Node1</title>
<path fill="none" stroke="midnightblue" d="M648.23,-129.03C670.59,-123.71 696.54,-117.52 717.54,-112.52"/>
<polygon fill="midnightblue" stroke="midnightblue" points="647.17,-125.69 638.25,-131.41 648.79,-132.5 647.17,-125.69"/>
</g>
<!-- Node9 -->
<g id="node9" class="node">
<title>Node9</title>
<g id="a_node9"><a xlink:title=" ">
<polygon fill="white" stroke="#bfbfbf" points="295.5,-131.5 295.5,-150.5 370.5,-150.5 370.5,-131.5 295.5,-131.5"/>
<text text-anchor="middle" x="333" y="-138.5" font-family="Helvetica,sans-Serif" font-size="10.00">std::copyable</text>
</a>
</g>
</g>
<!-- Node9&#45;&gt;Node8 -->
<g id="edge9" class="edge">
<title>Node9&#45;&gt;Node8</title>
<path fill="none" stroke="midnightblue" d="M380.85,-141C428.94,-141 503.26,-141 550.76,-141"/>
<polygon fill="midnightblue" stroke="midnightblue" points="380.71,-137.5 370.71,-141 380.71,-144.5 380.71,-137.5"/>
</g>
<!-- Node10 -->
<g id="node10" class="node">
<title>Node10</title>
<g id="a_node10"><a xlink:href="interfacebio_1_1meta_1_1standard__layout.html" target="_top" xlink:title="Resolves to std::is_standard_layout_v&lt;t&gt;.">
<polygon fill="white" stroke="black" points="554,-93.5 554,-112.5 640,-112.5 640,-93.5 554,-93.5"/>
<text text-anchor="middle" x="597" y="-100.5" font-family="Helvetica,sans-Serif" font-size="10.00">standard_layout</text>
</a>
</g>
</g>
<!-- Node10&#45;&gt;Node1 -->
<g id="edge10" class="edge">
<title>Node10&#45;&gt;Node1</title>
<path fill="none" stroke="midnightblue" d="M650.63,-103C666.73,-103 684.5,-103 700.85,-103"/>
<polygon fill="midnightblue" stroke="midnightblue" points="650.32,-99.5 640.32,-103 650.32,-106.5 650.32,-99.5"/>
</g>
<!-- Node11 -->
<g id="node11" class="node">
<title>Node11</title>
<g id="a_node11"><a xlink:title=" ">
<polygon fill="white" stroke="#bfbfbf" points="564.5,-55.5 564.5,-74.5 629.5,-74.5 629.5,-55.5 564.5,-55.5"/>
<text text-anchor="middle" x="597" y="-62.5" font-family="Helvetica,sans-Serif" font-size="10.00">std::regular</text>
</a>
</g>
</g>
<!-- Node11&#45;&gt;Node1 -->
<g id="edge11" class="edge">
<title>Node11&#45;&gt;Node1</title>
<path fill="none" stroke="midnightblue" d="M639.42,-74.87C663.51,-80.61 693.72,-87.8 717.55,-93.48"/>
<polygon fill="midnightblue" stroke="midnightblue" points="640.05,-71.42 629.51,-72.51 638.43,-78.23 640.05,-71.42"/>
</g>
<!-- Node12 -->
<g id="node12" class="node">
<title>Node12</title>
<g id="a_node12"><a xlink:href="classbio_1_1alphabet_1_1alphabet__base.html" target="_top" xlink:title=" ">
<polygon fill="white" stroke="black" points="530,-6 530,-36 664,-36 664,-6 530,-6"/>
<text text-anchor="start" x="538" y="-24" font-family="Helvetica,sans-Serif" font-size="10.00">bio::alphabet::alphabet</text>
<text text-anchor="middle" x="597" y="-13" font-family="Helvetica,sans-Serif" font-size="10.00">_base&lt; cigar_op, 9, char &gt;</text>
</a>
</g>
</g>
<!-- Node12&#45;&gt;Node1 -->
<g id="edge12" class="edge">
<title>Node12&#45;&gt;Node1</title>
<path fill="none" stroke="midnightblue" d="M650.55,-39.88C655.15,-41.84 659.69,-43.89 664,-46 693.55,-60.45 725.86,-81.4 743.71,-93.47"/>
<polygon fill="midnightblue" stroke="midnightblue" points="651.68,-36.56 641.1,-36 649.02,-43.04 651.68,-36.56"/>
</g>
<!-- Node13 -->
<g id="node13" class="node">
<title>Node13</title>
<g id="a_node13"><a xlink:href="classbio_1_1alphabet_1_1alphabet__base.html" target="_top" xlink:title="A CRTP&#45;base that makes defining a custom alphabet easier.">
<polygon fill="white" stroke="black" points="266,-0.5 266,-41.5 400,-41.5 400,-0.5 266,-0.5"/>
<text text-anchor="start" x="274" y="-29.5" font-family="Helvetica,sans-Serif" font-size="10.00">bio::alphabet::alphabet</text>
<text text-anchor="start" x="274" y="-18.5" font-family="Helvetica,sans-Serif" font-size="10.00">_base&lt; derived_type, size,</text>
<text text-anchor="middle" x="333" y="-7.5" font-family="Helvetica,sans-Serif" font-size="10.00"> char_t &gt;</text>
</a>
</g>
</g>
<!-- Node13&#45;&gt;Node12 -->
<g id="edge13" class="edge">
<title>Node13&#45;&gt;Node12</title>
<path fill="none" stroke="orange" stroke-dasharray="5,2" d="M410.58,-21C448.41,-21 493.61,-21 529.91,-21"/>
<polygon fill="orange" stroke="orange" points="410.11,-17.5 400.11,-21 410.11,-24.5 410.11,-17.5"/>
<text text-anchor="middle" x="465" y="-24" font-family="Helvetica,sans-Serif" font-size="10.00"> &lt; cigar_op, 9, char &gt;</text>
</g>
</g>
</svg>
