<?xml version="1.0" encoding="UTF-8" standalone="no"?>
<!DOCTYPE svg PUBLIC "-//W3C//DTD SVG 1.1//EN"
 "http://www.w3.org/Graphics/SVG/1.1/DTD/svg11.dtd">
<!-- Generated by graphviz version 2.43.0 (0)
 -->
<!-- Title: bio::alphabet::aa10murphy Pages: 1 -->
<svg width="1117pt" height="293pt"
 viewBox="0.00 0.00 1117.00 293.00" xmlns="http://www.w3.org/2000/svg" xmlns:xlink="http://www.w3.org/1999/xlink">
<g id="graph0" class="graph" transform="scale(1 1) rotate(0) translate(4 289)">
<title>bio::alphabet::aa10murphy</title>
<polygon fill="white" stroke="transparent" points="-4,4 -4,-289 1113,-289 1113,4 -4,4"/>
<!-- Node1 -->
<g id="node1" class="node">
<title>Node1</title>
<g id="a_node1"><a xlink:title="The reduced Murphy amino acid alphabet.">
<polygon fill="#bfbfbf" stroke="black" points="961,-163.5 961,-182.5 1109,-182.5 1109,-163.5 961,-163.5"/>
<text text-anchor="middle" x="1035" y="-170.5" font-family="Helvetica,sans-Serif" font-size="10.00">bio::alphabet::aa10murphy</text>
</a>
</g>
</g>
<!-- Node2 -->
<g id="node2" class="node">
<title>Node2</title>
<g id="a_node2"><a xlink:href="interfacebio_1_1alphabet_1_1aminoacid__alphabet.html" target="_top" xlink:title="A concept that indicates whether an alphabet represents amino acids.">
<polygon fill="white" stroke="black" points="792.5,-265.5 792.5,-284.5 908.5,-284.5 908.5,-265.5 792.5,-265.5"/>
<text text-anchor="middle" x="850.5" y="-272.5" font-family="Helvetica,sans-Serif" font-size="10.00">aminoacid_alphabet</text>
</a>
</g>
</g>
<!-- Node2&#45;&gt;Node1 -->
<g id="edge1" class="edge">
<title>Node2&#45;&gt;Node1</title>
<path fill="none" stroke="midnightblue" d="M908.52,-262.35C913.86,-260.48 919.1,-258.38 924,-256 964.9,-236.17 1005.68,-200.06 1023.99,-182.75"/>
<polygon fill="midnightblue" stroke="midnightblue" points="907.33,-259.06 898.87,-265.44 909.46,-265.72 907.33,-259.06"/>
</g>
<!-- Node3 -->
<g id="node3" class="node">
<title>Node3</title>
<g id="a_node3"><a xlink:href="interfacebio_1_1alphabet_1_1alphabet.html" target="_top" xlink:title="The generic alphabet concept that covers most data types used in ranges.">
<polygon fill="white" stroke="black" points="527,-259.5 527,-278.5 586,-278.5 586,-259.5 527,-259.5"/>
<text text-anchor="middle" x="556.5" y="-266.5" font-family="Helvetica,sans-Serif" font-size="10.00">alphabet</text>
</a>
</g>
</g>
<!-- Node3&#45;&gt;Node2 -->
<g id="edge2" class="edge">
<title>Node3&#45;&gt;Node2</title>
<path fill="none" stroke="midnightblue" d="M596.15,-269.79C646.36,-270.83 734.43,-272.64 792.37,-273.83"/>
<polygon fill="midnightblue" stroke="midnightblue" points="596.1,-266.29 586.03,-269.59 595.96,-273.29 596.1,-266.29"/>
</g>
<!-- Node7 -->
<g id="node7" class="node">
<title>Node7</title>
<g id="a_node7"><a xlink:href="interfacebio_1_1alphabet_1_1writable__alphabet.html" target="_top" xlink:title="Refines bio::alphabet::alphabet and adds assignability.">
<polygon fill="white" stroke="black" points="798.5,-227.5 798.5,-246.5 902.5,-246.5 902.5,-227.5 798.5,-227.5"/>
<text text-anchor="middle" x="850.5" y="-234.5" font-family="Helvetica,sans-Serif" font-size="10.00">writable_alphabet</text>
</a>
</g>
</g>
<!-- Node3&#45;&gt;Node7 -->
<g id="edge7" class="edge">
<title>Node3&#45;&gt;Node7</title>
<path fill="none" stroke="midnightblue" d="M596.17,-264.76C648.17,-259.06 740.74,-248.92 798.42,-242.6"/>
<polygon fill="midnightblue" stroke="midnightblue" points="595.59,-261.3 586.03,-265.87 596.35,-268.26 595.59,-261.3"/>
</g>
<!-- Node4 -->
<g id="node4" class="node">
<title>Node4</title>
<g id="a_node4"><a xlink:href="interfacebio_1_1alphabet_1_1semialphabet.html" target="_top" xlink:title="The basis for bio::alphabet::alphabet, but requires only rank interface (not char).">
<polygon fill="white" stroke="black" points="325,-243.5 325,-262.5 408,-262.5 408,-243.5 325,-243.5"/>
<text text-anchor="middle" x="366.5" y="-250.5" font-family="Helvetica,sans-Serif" font-size="10.00">semialphabet</text>
</a>
</g>
</g>
<!-- Node4&#45;&gt;Node3 -->
<g id="edge3" class="edge">
<title>Node4&#45;&gt;Node3</title>
<path fill="none" stroke="midnightblue" d="M418.27,-257.32C453.06,-260.28 497.93,-264.1 526.72,-266.55"/>
<polygon fill="midnightblue" stroke="midnightblue" points="418.55,-253.83 408.29,-256.47 417.96,-260.81 418.55,-253.83"/>
</g>
<!-- Node8 -->
<g id="node8" class="node">
<title>Node8</title>
<g id="a_node8"><a xlink:href="interfacebio_1_1alphabet_1_1writable__semialphabet.html" target="_top" xlink:title="A refinement of bio::alphabet::semialphabet that adds assignability.">
<polygon fill="white" stroke="black" points="492.5,-221.5 492.5,-240.5 620.5,-240.5 620.5,-221.5 492.5,-221.5"/>
<text text-anchor="middle" x="556.5" y="-228.5" font-family="Helvetica,sans-Serif" font-size="10.00">writable_semialphabet</text>
</a>
</g>
</g>
<!-- Node4&#45;&gt;Node8 -->
<g id="edge9" class="edge">
<title>Node4&#45;&gt;Node8</title>
<path fill="none" stroke="midnightblue" d="M418.42,-247.04C441.16,-244.38 468.2,-241.22 492.23,-238.4"/>
<polygon fill="midnightblue" stroke="midnightblue" points="417.82,-243.59 408.29,-248.23 418.63,-250.54 417.82,-243.59"/>
</g>
<!-- Node5 -->
<g id="node5" class="node">
<title>Node5</title>
<g id="a_node5"><a xlink:title=" ">
<polygon fill="white" stroke="#bfbfbf" points="18.5,-262.5 18.5,-281.5 130.5,-281.5 130.5,-262.5 18.5,-262.5"/>
<text text-anchor="middle" x="74.5" y="-269.5" font-family="Helvetica,sans-Serif" font-size="10.00">std::totally_ordered</text>
</a>
</g>
</g>
<!-- Node5&#45;&gt;Node4 -->
<g id="edge4" class="edge">
<title>Node5&#45;&gt;Node4</title>
<path fill="none" stroke="midnightblue" d="M140.99,-267.71C197.48,-264.01 277.28,-258.78 324.96,-255.66"/>
<polygon fill="midnightblue" stroke="midnightblue" points="140.48,-264.24 130.73,-268.38 140.94,-271.22 140.48,-264.24"/>
</g>
<!-- Node6 -->
<g id="node6" class="node">
<title>Node6</title>
<g id="a_node6"><a xlink:title=" ">
<polygon fill="white" stroke="#bfbfbf" points="10,-224.5 10,-243.5 139,-243.5 139,-224.5 10,-224.5"/>
<text text-anchor="middle" x="74.5" y="-231.5" font-family="Helvetica,sans-Serif" font-size="10.00">std::copy_constructible</text>
</a>
</g>
</g>
<!-- Node6&#45;&gt;Node4 -->
<g id="edge5" class="edge">
<title>Node6&#45;&gt;Node4</title>
<path fill="none" stroke="midnightblue" d="M149.32,-238.84C205.03,-242.49 279.4,-247.36 324.79,-250.33"/>
<polygon fill="midnightblue" stroke="midnightblue" points="149.35,-235.33 139.14,-238.17 148.89,-242.32 149.35,-235.33"/>
</g>
<!-- Node7&#45;&gt;Node1 -->
<g id="edge6" class="edge">
<title>Node7&#45;&gt;Node1</title>
<path fill="none" stroke="midnightblue" d="M901.52,-224.82C909.1,-222.71 916.79,-220.41 924,-218 955.51,-207.48 990.89,-192.39 1012.82,-182.64"/>
<polygon fill="midnightblue" stroke="midnightblue" points="900.4,-221.49 891.67,-227.48 902.23,-228.25 900.4,-221.49"/>
</g>
<!-- Node8&#45;&gt;Node7 -->
<g id="edge8" class="edge">
<title>Node8&#45;&gt;Node7</title>
<path fill="none" stroke="midnightblue" d="M630.71,-232.5C682.94,-233.58 751.86,-234.99 798.28,-235.95"/>
<polygon fill="midnightblue" stroke="midnightblue" points="630.57,-229 620.5,-232.29 630.43,-236 630.57,-229"/>
</g>
<!-- Node9 -->
<g id="node9" class="node">
<title>Node9</title>
<g id="a_node9"><a xlink:href="interfacebio_1_1meta_1_1trivially__copyable.html" target="_top" xlink:title="A type that satisfies std::is_trivially_copyable_v&lt;t&gt;.">
<polygon fill="white" stroke="black" points="798.5,-189.5 798.5,-208.5 902.5,-208.5 902.5,-189.5 798.5,-189.5"/>
<text text-anchor="middle" x="850.5" y="-196.5" font-family="Helvetica,sans-Serif" font-size="10.00">trivially_copyable</text>
</a>
</g>
</g>
<!-- Node9&#45;&gt;Node1 -->
<g id="edge10" class="edge">
<title>Node9&#45;&gt;Node1</title>
<path fill="none" stroke="midnightblue" d="M912.86,-190.26C930.27,-187.78 949.32,-185.06 967.04,-182.54"/>
<polygon fill="midnightblue" stroke="midnightblue" points="912.23,-186.81 902.82,-191.69 913.22,-193.74 912.23,-186.81"/>
</g>
<!-- Node10 -->
<g id="node10" class="node">
<title>Node10</title>
<g id="a_node10"><a xlink:title=" ">
<polygon fill="white" stroke="#bfbfbf" points="515.5,-183.5 515.5,-202.5 597.5,-202.5 597.5,-183.5 515.5,-183.5"/>
<text text-anchor="middle" x="556.5" y="-190.5" font-family="Helvetica,sans-Serif" font-size="10.00">std::copyable</text>
</a>
</g>
</g>
<!-- Node10&#45;&gt;Node9 -->
<g id="edge11" class="edge">
<title>Node10&#45;&gt;Node9</title>
<path fill="none" stroke="midnightblue" d="M608.03,-194.04C661.32,-195.13 744.81,-196.85 798.33,-197.95"/>
<polygon fill="midnightblue" stroke="midnightblue" points="607.86,-190.53 597.79,-193.83 607.72,-197.53 607.86,-190.53"/>
</g>
<!-- Node11 -->
<g id="node11" class="node">
<title>Node11</title>
<g id="a_node11"><a xlink:href="interfacebio_1_1meta_1_1standard__layout.html" target="_top" xlink:title="Resolves to std::is_standard_layout_v&lt;t&gt;.">
<polygon fill="white" stroke="black" points="803,-151.5 803,-170.5 898,-170.5 898,-151.5 803,-151.5"/>
<text text-anchor="middle" x="850.5" y="-158.5" font-family="Helvetica,sans-Serif" font-size="10.00">standard_layout</text>
</a>
</g>
</g>
<!-- Node11&#45;&gt;Node1 -->
<g id="edge12" class="edge">
<title>Node11&#45;&gt;Node1</title>
<path fill="none" stroke="midnightblue" d="M908.16,-164.73C924.87,-165.82 943.38,-167.04 960.96,-168.2"/>
<polygon fill="midnightblue" stroke="midnightblue" points="908.23,-161.22 898.02,-164.06 907.77,-168.21 908.23,-161.22"/>
</g>
<!-- Node12 -->
<g id="node12" class="node">
<title>Node12</title>
<g id="a_node12"><a xlink:title=" ">
<polygon fill="white" stroke="#bfbfbf" points="814.5,-113.5 814.5,-132.5 886.5,-132.5 886.5,-113.5 814.5,-113.5"/>
<text text-anchor="middle" x="850.5" y="-120.5" font-family="Helvetica,sans-Serif" font-size="10.00">std::regular</text>
</a>
</g>
</g>
<!-- Node12&#45;&gt;Node1 -->
<g id="edge13" class="edge">
<title>Node12&#45;&gt;Node1</title>
<path fill="none" stroke="midnightblue" d="M896.31,-134.6C905.48,-137.02 915.06,-139.57 924,-142 949.85,-149.03 979.02,-157.26 1000.83,-163.48"/>
<polygon fill="midnightblue" stroke="midnightblue" points="897.13,-131.2 886.57,-132.05 895.35,-137.97 897.13,-131.2"/>
</g>
<!-- Node13 -->
<g id="node13" class="node">
<title>Node13</title>
<g id="a_node13"><a xlink:href="classbio_1_1alphabet_1_1aminoacid__base.html" target="_top" xlink:title=" ">
<polygon fill="white" stroke="black" points="777,-64 777,-94 924,-94 924,-64 777,-64"/>
<text text-anchor="start" x="785" y="-82" font-family="Helvetica,sans-Serif" font-size="10.00">bio::alphabet::aminoacid</text>
<text text-anchor="middle" x="850.5" y="-71" font-family="Helvetica,sans-Serif" font-size="10.00">_base&lt; aa10murphy, 10 &gt;</text>
</a>
</g>
</g>
<!-- Node13&#45;&gt;Node1 -->
<g id="edge14" class="edge">
<title>Node13&#45;&gt;Node1</title>
<path fill="none" stroke="midnightblue" d="M909.6,-97.7C914.53,-99.69 919.39,-101.79 924,-104 961.01,-121.7 1001,-149.11 1021.02,-163.47"/>
<polygon fill="midnightblue" stroke="midnightblue" points="910.68,-94.36 900.09,-94.03 908.16,-100.9 910.68,-94.36"/>
</g>
<!-- Node14 -->
<g id="node14" class="node">
<title>Node14</title>
<g id="a_node14"><a xlink:href="structbio_1_1alphabet_1_1aminoacid__empty__base.html" target="_top" xlink:title="This is an empty base class that can be inherited by types that shall model bio::alphabet::aminoacid_...">
<polygon fill="white" stroke="black" points="298,-61 298,-91 435,-91 435,-61 298,-61"/>
<text text-anchor="start" x="306" y="-79" font-family="Helvetica,sans-Serif" font-size="10.00">bio::alphabet::aminoacid</text>
<text text-anchor="middle" x="366.5" y="-68" font-family="Helvetica,sans-Serif" font-size="10.00">_empty_base</text>
</a>
</g>
</g>
<!-- Node14&#45;&gt;Node13 -->
<g id="edge15" class="edge">
<title>Node14&#45;&gt;Node13</title>
<path fill="none" stroke="midnightblue" d="M445.06,-76.48C536.6,-77.05 687.61,-77.99 776.92,-78.55"/>
<polygon fill="midnightblue" stroke="midnightblue" points="445.05,-72.98 435.03,-76.42 445.01,-79.98 445.05,-72.98"/>
</g>
<!-- Node16 -->
<g id="node16" class="node">
<title>Node16</title>
<g id="a_node16"><a xlink:href="classbio_1_1alphabet_1_1aminoacid__base.html" target="_top" xlink:title="A CRTP&#45;base that refines bio::alphabet::alphabet_base and is used by the amino acids.">
<polygon fill="white" stroke="black" points="478,-20 478,-50 635,-50 635,-20 478,-20"/>
<text text-anchor="start" x="486" y="-38" font-family="Helvetica,sans-Serif" font-size="10.00">bio::alphabet::aminoacid</text>
<text text-anchor="middle" x="556.5" y="-27" font-family="Helvetica,sans-Serif" font-size="10.00">_base&lt; derived_type, size &gt;</text>
</a>
</g>
</g>
<!-- Node14&#45;&gt;Node16 -->
<g id="edge18" class="edge">
<title>Node14&#45;&gt;Node16</title>
<path fill="none" stroke="midnightblue" d="M445.04,-59.09C458.81,-56.09 473.08,-52.97 486.6,-50.03"/>
<polygon fill="midnightblue" stroke="midnightblue" points="444.13,-55.71 435.11,-61.26 445.62,-62.54 444.13,-55.71"/>
</g>
<!-- Node15 -->
<g id="node15" class="node">
<title>Node15</title>
<g id="a_node15"><a xlink:href="classbio_1_1alphabet_1_1alphabet__base.html" target="_top" xlink:title="A CRTP&#45;base that makes defining a custom alphabet easier.">
<polygon fill="white" stroke="black" points="0,-65.5 0,-106.5 149,-106.5 149,-65.5 0,-65.5"/>
<text text-anchor="start" x="8" y="-94.5" font-family="Helvetica,sans-Serif" font-size="10.00">bio::alphabet::alphabet</text>
<text text-anchor="start" x="8" y="-83.5" font-family="Helvetica,sans-Serif" font-size="10.00">_base&lt; derived_type, size,</text>
<text text-anchor="middle" x="74.5" y="-72.5" font-family="Helvetica,sans-Serif" font-size="10.00"> char_t &gt;</text>
</a>
</g>
</g>
<!-- Node15&#45;&gt;Node13 -->
<g id="edge16" class="edge">
<title>Node15&#45;&gt;Node13</title>
<path fill="none" stroke="midnightblue" d="M159.11,-92.67C199.27,-95.55 248.1,-98.58 292,-100 499.47,-106.7 552.22,-111.19 759,-93 764.86,-92.48 770.92,-91.83 776.99,-91.08"/>
<polygon fill="midnightblue" stroke="midnightblue" points="159.32,-89.18 149.09,-91.94 158.81,-96.16 159.32,-89.18"/>
</g>
<!-- Node17 -->
<g id="node17" class="node">
<title>Node17</title>
<g id="a_node17"><a xlink:href="classbio_1_1alphabet_1_1alphabet__base.html" target="_top" xlink:title=" ">
<polygon fill="white" stroke="black" points="292,-0.5 292,-41.5 441,-41.5 441,-0.5 292,-0.5"/>
<text text-anchor="start" x="300" y="-29.5" font-family="Helvetica,sans-Serif" font-size="10.00">bio::alphabet::alphabet</text>
<text text-anchor="start" x="300" y="-18.5" font-family="Helvetica,sans-Serif" font-size="10.00">_base&lt; derived_type, size,</text>
<text text-anchor="middle" x="366.5" y="-7.5" font-family="Helvetica,sans-Serif" font-size="10.00"> char &gt;</text>
</a>
</g>
</g>
<!-- Node15&#45;&gt;Node17 -->
<g id="edge20" class="edge">
<title>Node15&#45;&gt;Node17</title>
<path fill="none" stroke="orange" stroke-dasharray="5,2" d="M158.97,-67.29C200.91,-57.89 251.28,-46.6 291.77,-37.53"/>
<polygon fill="orange" stroke="orange" points="158.05,-63.91 149.05,-69.51 159.58,-70.74 158.05,-63.91"/>
<text text-anchor="start" x="167" y="-79" font-family="Helvetica,sans-Serif" font-size="10.00"> &lt; derived_type, size,</text>
<text text-anchor="middle" x="220.5" y="-68" font-family="Helvetica,sans-Serif" font-size="10.00"> char &gt;</text>
</g>
<!-- Node16&#45;&gt;Node13 -->
<g id="edge17" class="edge">
<title>Node16&#45;&gt;Node13</title>
<path fill="none" stroke="orange" stroke-dasharray="5,2" d="M645.75,-39.95C681.15,-42.81 722.2,-47.24 759,-54 772.79,-56.53 787.52,-60.19 801.02,-63.92"/>
<polygon fill="orange" stroke="orange" points="645.69,-36.44 635.44,-39.15 645.14,-43.41 645.69,-36.44"/>
<text text-anchor="middle" x="706" y="-57" font-family="Helvetica,sans-Serif" font-size="10.00"> &lt; aa10murphy, 10 &gt;</text>
</g>
<!-- Node17&#45;&gt;Node16 -->
<g id="edge19" class="edge">
<title>Node17&#45;&gt;Node16</title>
<path fill="none" stroke="midnightblue" d="M451.51,-27.26C460.3,-27.91 469.21,-28.57 477.92,-29.22"/>
<polygon fill="midnightblue" stroke="midnightblue" points="451.5,-23.75 441.26,-26.49 450.98,-30.73 451.5,-23.75"/>
</g>
</g>
</svg>
