<?xml version="1.0" encoding="UTF-8" standalone="no"?>
<!DOCTYPE svg PUBLIC "-//W3C//DTD SVG 1.1//EN"
 "http://www.w3.org/Graphics/SVG/1.1/DTD/svg11.dtd">
<!-- Generated by graphviz version 2.42.2 ()
 -->
<!-- Title: bio::alphabet::alphabet_tuple_base&lt; derived_type, component_types &gt; Pages: 1 -->
<!--zoomable 204 -->
<svg id="main" version="1.1" xmlns="http://www.w3.org/2000/svg" xmlns:xlink="http://www.w3.org/1999/xlink" xml:space="preserve" onload="init(evt)">
<style type="text/css"><![CDATA[
.edge:hover path { stroke: red; }
.edge:hover polygon { stroke: red; fill: red; }
]]></style>
<script type="text/javascript"><![CDATA[
var edges = document.getElementsByTagName('g');
if (edges && edges.length) {
  for (var i=0;i<edges.length;i++) {
    if (edges[i].id.substr(0,4)=='edge') {
      edges[i].setAttribute('class','edge');
    }
  }
}
]]></script>
        <defs>
                <circle id="rim" cx="0" cy="0" r="7"/>
                <circle id="rim2" cx="0" cy="0" r="3.5"/>
                <g id="zoomPlus">
                        <use xlink:href="#rim" fill="#404040">
                                <set attributeName="fill" to="#808080" begin="zoomplus.mouseover" end="zoomplus.mouseout"/>
                        </use>
                        <path d="M-4,0h8M0,-4v8" fill="none" stroke="white" stroke-width="1.5" pointer-events="none"/>
                </g>
                <g id="zoomMin">
                        <use xlink:href="#rim" fill="#404040">
                                <set attributeName="fill" to="#808080" begin="zoomminus.mouseover" end="zoomminus.mouseout"/>
                        </use>
                        <path d="M-4,0h8" fill="none" stroke="white" stroke-width="1.5" pointer-events="none"/>
                </g>
                <g id="dirArrow">
                        <path fill="none" stroke="white" stroke-width="1.5" d="M0,-3.0v7 M-2.5,-0.5L0,-3.0L2.5,-0.5"/>
                </g>
               <g id="resetDef">
                       <use xlink:href="#rim2" fill="#404040">
                               <set attributeName="fill" to="#808080" begin="reset.mouseover" end="reset.mouseout"/>
                       </use>
               </g>
        </defs>

<script type="text/javascript">
var viewWidth = 1249;
var viewHeight = 204;
var sectionId = 'dynsection-0';
</script>
<script xlink:href="svgpan.js"/>
<svg id="graph" class="graph">
<g id="viewport">
<title>bio::alphabet::alphabet_tuple_base&lt; derived_type, component_types &gt;</title>
<polygon fill="white" stroke="transparent" points="-4,4 -4,-200 1245,-200 1245,4 -4,4"/>
<!-- Node1 -->
<g id="node1" class="node">
<title>Node1</title>
<g id="a_node1"><a xlink:title="The CRTP base for a combined alphabet that contains multiple values of different alphabets at the sam...">
<polygon fill="#bfbfbf" stroke="black" points="593,-88.5 593,-129.5 730,-129.5 730,-88.5 593,-88.5"/>
<text text-anchor="start" x="601" y="-117.5" font-family="Helvetica,sans-Serif" font-size="10.00">bio::alphabet::alphabet</text>
<text text-anchor="start" x="601" y="-106.5" font-family="Helvetica,sans-Serif" font-size="10.00">_tuple_base&lt; derived_type,</text>
<text text-anchor="middle" x="661.5" y="-95.5" font-family="Helvetica,sans-Serif" font-size="10.00"> component_types &gt;</text>
</a>
</g>
</g>
<!-- Node8 -->
<g id="node8" class="node">
<title>Node8</title>
<g id="a_node8"><a xlink:href="classbio_1_1alphabet_1_1alphabet__tuple__base.html" target="_top" xlink:title=" ">
<polygon fill="white" stroke="black" points="928.5,-154.5 928.5,-195.5 1059.5,-195.5 1059.5,-154.5 928.5,-154.5"/>
<text text-anchor="start" x="936.5" y="-183.5" font-family="Helvetica,sans-Serif" font-size="10.00">bio::alphabet::alphabet</text>
<text text-anchor="start" x="936.5" y="-172.5" font-family="Helvetica,sans-Serif" font-size="10.00">_tuple_base&lt; cigar, uint32</text>
<text text-anchor="middle" x="994" y="-161.5" font-family="Helvetica,sans-Serif" font-size="10.00">_t, cigar_op &gt;</text>
</a>
</g>
</g>
<!-- Node1&#45;&gt;Node8 -->
<g id="edge7" class="edge">
<title>Node1&#45;&gt;Node8</title>
<path fill="none" stroke="orange" stroke-dasharray="5,2" d="M712.72,-133.6C724.1,-138.36 736.29,-142.84 748,-146 807.87,-162.13 878.36,-169.29 928.32,-172.47"/>
<polygon fill="orange" stroke="orange" points="713.95,-130.32 703.38,-129.56 711.17,-136.74 713.95,-130.32"/>
<text text-anchor="start" x="782.5" y="-183" font-family="Helvetica,sans-Serif" font-size="10.00"> &lt; cigar, uint32_t,</text>
<text text-anchor="middle" x="820.5" y="-172" font-family="Helvetica,sans-Serif" font-size="10.00"> cigar_op &gt;</text>
</g>
<!-- Node10 -->
<g id="node10" class="node">
<title>Node10</title>
<g id="a_node10"><a xlink:href="classbio_1_1alphabet_1_1alphabet__tuple__base.html" target="_top" xlink:title=" ">
<polygon fill="white" stroke="black" points="911,-83 911,-135 1077,-135 1077,-83 911,-83"/>
<text text-anchor="start" x="919" y="-123" font-family="Helvetica,sans-Serif" font-size="10.00">bio::alphabet::alphabet</text>
<text text-anchor="start" x="919" y="-112" font-family="Helvetica,sans-Serif" font-size="10.00">_tuple_base&lt; masked&lt; sequence</text>
<text text-anchor="start" x="919" y="-101" font-family="Helvetica,sans-Serif" font-size="10.00">_alphabet_t &gt;, sequence_alphabet</text>
<text text-anchor="middle" x="994" y="-90" font-family="Helvetica,sans-Serif" font-size="10.00">_t, mask &gt;</text>
</a>
</g>
</g>
<!-- Node1&#45;&gt;Node10 -->
<g id="edge9" class="edge">
<title>Node1&#45;&gt;Node10</title>
<path fill="none" stroke="orange" stroke-dasharray="5,2" d="M740.22,-109C791.5,-109 858.61,-109 910.78,-109"/>
<polygon fill="orange" stroke="orange" points="740.18,-105.5 730.18,-109 740.18,-112.5 740.18,-105.5"/>
<text text-anchor="start" x="766.5" y="-134" font-family="Helvetica,sans-Serif" font-size="10.00"> &lt; masked&lt; sequence</text>
<text text-anchor="start" x="766.5" y="-123" font-family="Helvetica,sans-Serif" font-size="10.00">_alphabet_t &gt;, sequence</text>
<text text-anchor="middle" x="820.5" y="-112" font-family="Helvetica,sans-Serif" font-size="10.00">_alphabet_t, mask &gt;</text>
</g>
<!-- Node12 -->
<g id="node12" class="node">
<title>Node12</title>
<g id="a_node12"><a xlink:href="classbio_1_1alphabet_1_1alphabet__tuple__base.html" target="_top" xlink:title=" ">
<polygon fill="white" stroke="black" points="913.5,-0.5 913.5,-63.5 1074.5,-63.5 1074.5,-0.5 913.5,-0.5"/>
<text text-anchor="start" x="921.5" y="-51.5" font-family="Helvetica,sans-Serif" font-size="10.00">bio::alphabet::alphabet</text>
<text text-anchor="start" x="921.5" y="-40.5" font-family="Helvetica,sans-Serif" font-size="10.00">_tuple_base&lt; qualified</text>
<text text-anchor="start" x="921.5" y="-29.5" font-family="Helvetica,sans-Serif" font-size="10.00">&lt; sequence_alphabet_t,</text>
<text text-anchor="start" x="921.5" y="-18.5" font-family="Helvetica,sans-Serif" font-size="10.00"> quality_alphabet_t &gt;, sequence</text>
<text text-anchor="middle" x="994" y="-7.5" font-family="Helvetica,sans-Serif" font-size="10.00">_alphabet_t, quality_alphabet_t &gt;</text>
</a>
</g>
</g>
<!-- Node1&#45;&gt;Node12 -->
<g id="edge11" class="edge">
<title>Node1&#45;&gt;Node12</title>
<path fill="none" stroke="orange" stroke-dasharray="5,2" d="M701.34,-82.93C715.47,-74.62 731.93,-66.23 748,-61 801.46,-43.6 864.5,-36.42 913.25,-33.55"/>
<polygon fill="orange" stroke="orange" points="699.14,-80.17 692.41,-88.35 702.78,-86.15 699.14,-80.17"/>
<text text-anchor="start" x="748" y="-97" font-family="Helvetica,sans-Serif" font-size="10.00"> &lt; qualified&lt; sequence</text>
<text text-anchor="start" x="748" y="-86" font-family="Helvetica,sans-Serif" font-size="10.00">_alphabet_t, quality</text>
<text text-anchor="start" x="748" y="-75" font-family="Helvetica,sans-Serif" font-size="10.00">_alphabet_t &gt;, sequence</text>
<text text-anchor="middle" x="820.5" y="-64" font-family="Helvetica,sans-Serif" font-size="10.00">_alphabet_t, quality_alphabet_t &gt;</text>
</g>
<!-- Node2 -->
<g id="node2" class="node">
<title>Node2</title>
<g id="a_node2"><a xlink:href="interfacebio_1_1alphabet_1_1writable__semialphabet.html" target="_top" xlink:title="A refinement of bio::alphabet::semialphabet that adds assignability.">
<polygon fill="white" stroke="black" points="440,-127.5 440,-146.5 553,-146.5 553,-127.5 440,-127.5"/>
<text text-anchor="middle" x="496.5" y="-134.5" font-family="Helvetica,sans-Serif" font-size="10.00">writable_semialphabet</text>
</a>
</g>
</g>
<!-- Node2&#45;&gt;Node1 -->
<g id="edge1" class="edge">
<title>Node2&#45;&gt;Node1</title>
<path fill="none" stroke="midnightblue" d="M563.22,-125.71C573.03,-124.03 583.15,-122.29 592.99,-120.6"/>
<polygon fill="midnightblue" stroke="midnightblue" points="562.4,-122.3 553.14,-127.44 563.59,-129.2 562.4,-122.3"/>
</g>
<!-- Node3 -->
<g id="node3" class="node">
<title>Node3</title>
<g id="a_node3"><a xlink:href="interfacebio_1_1alphabet_1_1semialphabet.html" target="_top" xlink:title="The basis for bio::alphabet::alphabet, but requires only rank interface (not char).">
<polygon fill="white" stroke="black" points="185,-127.5 185,-146.5 259,-146.5 259,-127.5 185,-127.5"/>
<text text-anchor="middle" x="222" y="-134.5" font-family="Helvetica,sans-Serif" font-size="10.00">semialphabet</text>
</a>
</g>
</g>
<!-- Node3&#45;&gt;Node2 -->
<g id="edge2" class="edge">
<title>Node3&#45;&gt;Node2</title>
<path fill="none" stroke="midnightblue" d="M269.41,-137C316.54,-137 389.54,-137 439.77,-137"/>
<polygon fill="midnightblue" stroke="midnightblue" points="269.19,-133.5 259.19,-137 269.19,-140.5 269.19,-133.5"/>
</g>
<!-- Node4 -->
<g id="node4" class="node">
<title>Node4</title>
<g id="a_node4"><a xlink:title=" ">
<polygon fill="white" stroke="#bfbfbf" points="9,-146.5 9,-165.5 109,-165.5 109,-146.5 9,-146.5"/>
<text text-anchor="middle" x="59" y="-153.5" font-family="Helvetica,sans-Serif" font-size="10.00">std::totally_ordered</text>
</a>
</g>
</g>
<!-- Node4&#45;&gt;Node3 -->
<g id="edge3" class="edge">
<title>Node4&#45;&gt;Node3</title>
<path fill="none" stroke="midnightblue" d="M119.12,-149.02C141.17,-146.42 165.53,-143.55 184.89,-141.26"/>
<polygon fill="midnightblue" stroke="midnightblue" points="118.7,-145.55 109.18,-150.2 119.52,-152.5 118.7,-145.55"/>
</g>
<!-- Node5 -->
<g id="node5" class="node">
<title>Node5</title>
<g id="a_node5"><a xlink:title=" ">
<polygon fill="white" stroke="#bfbfbf" points="0,-108.5 0,-127.5 118,-127.5 118,-108.5 0,-108.5"/>
<text text-anchor="middle" x="59" y="-115.5" font-family="Helvetica,sans-Serif" font-size="10.00">std::copy_constructible</text>
</a>
</g>
</g>
<!-- Node5&#45;&gt;Node3 -->
<g id="edge4" class="edge">
<title>Node5&#45;&gt;Node3</title>
<path fill="none" stroke="midnightblue" d="M128.21,-126.05C147.72,-128.35 168.22,-130.77 184.97,-132.75"/>
<polygon fill="midnightblue" stroke="midnightblue" points="128.47,-122.56 118.12,-124.86 127.65,-129.51 128.47,-122.56"/>
</g>
<!-- Node6 -->
<g id="node6" class="node">
<title>Node6</title>
<g id="a_node6"><a xlink:href="classbio_1_1alphabet_1_1alphabet__base.html" target="_top" xlink:title=" ">
<polygon fill="white" stroke="black" points="437,-56 437,-108 556,-108 556,-56 437,-56"/>
<text text-anchor="start" x="445" y="-96" font-family="Helvetica,sans-Serif" font-size="10.00">bio::alphabet::alphabet</text>
<text text-anchor="start" x="445" y="-85" font-family="Helvetica,sans-Serif" font-size="10.00">_base&lt; derived_type,(1</text>
<text text-anchor="start" x="445" y="-74" font-family="Helvetica,sans-Serif" font-size="10.00"> *... *size&lt; component</text>
<text text-anchor="middle" x="496.5" y="-63" font-family="Helvetica,sans-Serif" font-size="10.00">_types &gt;), void &gt;</text>
</a>
</g>
</g>
<!-- Node6&#45;&gt;Node1 -->
<g id="edge5" class="edge">
<title>Node6&#45;&gt;Node1</title>
<path fill="none" stroke="midnightblue" d="M566.49,-93.43C575.23,-94.88 584.16,-96.35 592.88,-97.8"/>
<polygon fill="midnightblue" stroke="midnightblue" points="566.78,-89.93 556.35,-91.75 565.64,-96.83 566.78,-89.93"/>
</g>
<!-- Node7 -->
<g id="node7" class="node">
<title>Node7</title>
<g id="a_node7"><a xlink:href="classbio_1_1alphabet_1_1alphabet__base.html" target="_top" xlink:title="A CRTP&#45;base that makes defining a custom alphabet easier.">
<polygon fill="white" stroke="black" points="155,-61.5 155,-102.5 289,-102.5 289,-61.5 155,-61.5"/>
<text text-anchor="start" x="163" y="-90.5" font-family="Helvetica,sans-Serif" font-size="10.00">bio::alphabet::alphabet</text>
<text text-anchor="start" x="163" y="-79.5" font-family="Helvetica,sans-Serif" font-size="10.00">_base&lt; derived_type, size,</text>
<text text-anchor="middle" x="222" y="-68.5" font-family="Helvetica,sans-Serif" font-size="10.00"> char_t &gt;</text>
</a>
</g>
</g>
<!-- Node7&#45;&gt;Node6 -->
<g id="edge6" class="edge">
<title>Node7&#45;&gt;Node6</title>
<path fill="none" stroke="orange" stroke-dasharray="5,2" d="M299.56,-82C343.05,-82 396.64,-82 436.78,-82"/>
<polygon fill="orange" stroke="orange" points="299.31,-78.5 289.31,-82 299.31,-85.5 299.31,-78.5"/>
<text text-anchor="start" x="307" y="-107" font-family="Helvetica,sans-Serif" font-size="10.00"> &lt; derived_type,(1 *...</text>
<text text-anchor="start" x="307" y="-96" font-family="Helvetica,sans-Serif" font-size="10.00"> *size&lt; component_types</text>
<text text-anchor="middle" x="363" y="-85" font-family="Helvetica,sans-Serif" font-size="10.00"> &gt;), void &gt;</text>
</g>
<!-- Node9 -->
<g id="node9" class="node">
<title>Node9</title>
<g id="a_node9"><a xlink:href="classbio_1_1alphabet_1_1cigar.html" target="_top" xlink:title="The cigar semialphabet pairs a counter with a bio::alphabet::cigar_op letter.">
<polygon fill="white" stroke="black" points="1128,-165.5 1128,-184.5 1227,-184.5 1227,-165.5 1128,-165.5"/>
<text text-anchor="middle" x="1177.5" y="-172.5" font-family="Helvetica,sans-Serif" font-size="10.00">bio::alphabet::cigar</text>
</a>
</g>
</g>
<!-- Node8&#45;&gt;Node9 -->
<g id="edge8" class="edge">
<title>Node8&#45;&gt;Node9</title>
<path fill="none" stroke="midnightblue" d="M1069.66,-175C1089.32,-175 1110.01,-175 1127.9,-175"/>
<polygon fill="midnightblue" stroke="midnightblue" points="1069.5,-171.5 1059.5,-175 1069.5,-178.5 1069.5,-171.5"/>
</g>
<!-- Node11 -->
<g id="node11" class="node">
<title>Node11</title>
<g id="a_node11"><a xlink:href="classbio_1_1alphabet_1_1masked.html" target="_top" xlink:title="Implementation of a masked composite, which extends a given alphabet with a mask..">
<polygon fill="white" stroke="black" points="1114,-94 1114,-124 1241,-124 1241,-94 1114,-94"/>
<text text-anchor="start" x="1122" y="-112" font-family="Helvetica,sans-Serif" font-size="10.00">bio::alphabet::masked</text>
<text text-anchor="middle" x="1177.5" y="-101" font-family="Helvetica,sans-Serif" font-size="10.00">&lt; sequence_alphabet_t &gt;</text>
</a>
</g>
</g>
<!-- Node10&#45;&gt;Node11 -->
<g id="edge10" class="edge">
<title>Node10&#45;&gt;Node11</title>
<path fill="none" stroke="midnightblue" d="M1087.36,-109C1096.32,-109 1105.26,-109 1113.83,-109"/>
<polygon fill="midnightblue" stroke="midnightblue" points="1087.25,-105.5 1077.25,-109 1087.25,-112.5 1087.25,-105.5"/>
</g>
<!-- Node13 -->
<g id="node13" class="node">
<title>Node13</title>
<g id="a_node13"><a xlink:href="classbio_1_1alphabet_1_1qualified.html" target="_top" xlink:title="Joins an arbitrary alphabet with a quality alphabet.">
<polygon fill="white" stroke="black" points="1117,-11.5 1117,-52.5 1238,-52.5 1238,-11.5 1117,-11.5"/>
<text text-anchor="start" x="1125" y="-40.5" font-family="Helvetica,sans-Serif" font-size="10.00">bio::alphabet::qualified</text>
<text text-anchor="start" x="1125" y="-29.5" font-family="Helvetica,sans-Serif" font-size="10.00">&lt; sequence_alphabet_t,</text>
<text text-anchor="middle" x="1177.5" y="-18.5" font-family="Helvetica,sans-Serif" font-size="10.00"> quality_alphabet_t &gt;</text>
</a>
</g>
</g>
<!-- Node12&#45;&gt;Node13 -->
<g id="edge12" class="edge">
<title>Node12&#45;&gt;Node13</title>
<path fill="none" stroke="midnightblue" d="M1084.63,-32C1095.57,-32 1106.53,-32 1116.87,-32"/>
<polygon fill="midnightblue" stroke="midnightblue" points="1084.61,-28.5 1074.61,-32 1084.61,-35.5 1084.61,-28.5"/>
</g>
</g>
</svg>
        <g id="navigator" transform="translate(0 0)" fill="#404254">
                <rect fill="#f2f5e9" fill-opacity="0.5" stroke="#606060" stroke-width=".5" x="0" y="0" width="60" height="60"/>
                <use id="zoomplus" xlink:href="#zoomPlus" x="17" y="9" onmousedown="handleZoom(evt,'in')"/>
                <use id="zoomminus" xlink:href="#zoomMin" x="42" y="9" onmousedown="handleZoom(evt,'out')"/>
                <use id="reset" xlink:href="#resetDef" x="30" y="36" onmousedown="handleReset()"/>
                <g id="arrowUp" xlink:href="#dirArrow" transform="translate(30 24)" onmousedown="handlePan(0,-1)">
                  <use xlink:href="#rim" fill="#404040">
                        <set attributeName="fill" to="#808080" begin="arrowUp.mouseover" end="arrowUp.mouseout"/>
                  </use>
                  <path fill="none" stroke="white" stroke-width="1.5" d="M0,-3.0v7 M-2.5,-0.5L0,-3.0L2.5,-0.5"/>
                </g>
                <g id="arrowRight" xlink:href="#dirArrow" transform="rotate(90) translate(36 -43)" onmousedown="handlePan(1,0)">
                  <use xlink:href="#rim" fill="#404040">
                        <set attributeName="fill" to="#808080" begin="arrowRight.mouseover" end="arrowRight.mouseout"/>
                  </use>
                  <path fill="none" stroke="white" stroke-width="1.5" d="M0,-3.0v7 M-2.5,-0.5L0,-3.0L2.5,-0.5"/>
                </g>
                <g id="arrowDown" xlink:href="#dirArrow" transform="rotate(180) translate(-30 -48)" onmousedown="handlePan(0,1)">
                  <use xlink:href="#rim" fill="#404040">
                        <set attributeName="fill" to="#808080" begin="arrowDown.mouseover" end="arrowDown.mouseout"/>
                  </use>
                  <path fill="none" stroke="white" stroke-width="1.5" d="M0,-3.0v7 M-2.5,-0.5L0,-3.0L2.5,-0.5"/>
                </g>
                <g id="arrowLeft" xlink:href="#dirArrow" transform="rotate(270) translate(-36 17)" onmousedown="handlePan(-1,0)">
                  <use xlink:href="#rim" fill="#404040">
                        <set attributeName="fill" to="#808080" begin="arrowLeft.mouseover" end="arrowLeft.mouseout"/>
                  </use>
                  <path fill="none" stroke="white" stroke-width="1.5" d="M0,-3.0v7 M-2.5,-0.5L0,-3.0L2.5,-0.5"/>
                </g>
        </g>
        <svg viewBox="0 0 15 15" width="100%" height="30px" preserveAspectRatio="xMaxYMin meet">
         <g id="arrow_out" transform="scale(0.3 0.3)">
          <a xlink:href="classbio_1_1alphabet_1_1alphabet__tuple__base__inherit__graph_org.svg" target="_base">
           <rect id="button" ry="5" rx="5" y="6" x="6" height="38" width="38"
                fill="#f2f5e9" fill-opacity="0.5" stroke="#606060" stroke-width="1.0"/>
           <path id="arrow"
             d="M 11.500037,31.436501 C 11.940474,20.09759 22.043105,11.32322 32.158766,21.979434 L 37.068811,17.246167 C 37.068811,17.246167 37.088388,32 37.088388,32 L 22.160133,31.978069 C 22.160133,31.978069 26.997745,27.140456 26.997745,27.140456 C 18.528582,18.264221 13.291696,25.230495 11.500037,31.436501 z"
             style="fill:#404040;"/>
          </a>
         </g>
        </svg>
</svg>
