<?xml version="1.0" encoding="UTF-8" standalone="no"?>
<!DOCTYPE svg PUBLIC "-//W3C//DTD SVG 1.1//EN"
 "http://www.w3.org/Graphics/SVG/1.1/DTD/svg11.dtd">
<!-- Generated by graphviz version 2.43.0 (0)
 -->
<!-- Title: bio::ranges::small_vector&lt; value_type_, capacity_ &gt; Pages: 1 -->
<svg width="243pt" height="415pt"
 viewBox="0.00 0.00 243.00 415.00" xmlns="http://www.w3.org/2000/svg" xmlns:xlink="http://www.w3.org/1999/xlink">
<g id="graph0" class="graph" transform="scale(1 1) rotate(0) translate(4 411)">
<title>bio::ranges::small_vector&lt; value_type_, capacity_ &gt;</title>
<!-- Node1 -->
<g id="node1" class="node">
<title>Node1</title>
<g id="a_node1"><a xlink:title="A constexpr vector implementation with dynamic size at compile time.">
<polygon fill="#999999" stroke="#666666" points="165.5,-340 60.5,-340 60.5,-299 165.5,-299 165.5,-340"/>
<text text-anchor="start" x="68.5" y="-328" font-family="Helvetica,sans-Serif" font-size="10.00">bio::ranges::small</text>
<text text-anchor="start" x="68.5" y="-317" font-family="Helvetica,sans-Serif" font-size="10.00">_vector&lt; value_type</text>
<text text-anchor="middle" x="113" y="-306" font-family="Helvetica,sans-Serif" font-size="10.00">_, capacity_ &gt;</text>
</a>
</g>
</g>
<!-- Node4 -->
<g id="node4" class="node">
<title>Node4</title>
<g id="a_node4"><a xlink:href="classbio_1_1ranges_1_1small__vector.html" target="_top" xlink:title=" ">
<polygon fill="white" stroke="#666666" points="185,-252 41,-252 41,-222 185,-222 185,-252"/>
<text text-anchor="start" x="49" y="-240" font-family="Helvetica,sans-Serif" font-size="10.00">bio::ranges::small</text>
<text text-anchor="middle" x="113" y="-229" font-family="Helvetica,sans-Serif" font-size="10.00">_vector&lt; char, capacity_+1 &gt;</text>
</a>
</g>
</g>
<!-- Node1&#45;&gt;Node4 -->
<g id="edge3" class="edge">
<title>Node1&#45;&gt;Node4</title>
<path fill="none" stroke="orange" stroke-dasharray="5,2" d="M113,-288.26C113,-275.96 113,-262.33 113,-252.37"/>
<polygon fill="orange" stroke="orange" points="109.5,-288.6 113,-298.6 116.5,-288.6 109.5,-288.6"/>
<text text-anchor="middle" x="162.5" y="-273" font-family="Helvetica,sans-Serif" font-size="10.00"> &lt; char, capacity_+1 &gt;</text>
</g>
<!-- Node2 -->
<g id="node2" class="node">
<title>Node2</title>
<g id="a_node2"><a xlink:title=" ">
<polygon fill="white" stroke="#bfbfbf" points="110,-407 0,-407 0,-377 110,-377 110,-407"/>
<text text-anchor="start" x="8" y="-395" font-family="Helvetica,sans-Serif" font-size="10.00">bio::ranges::detail</text>
<text text-anchor="middle" x="55" y="-384" font-family="Helvetica,sans-Serif" font-size="10.00">::reservible_container</text>
</a>
</g>
</g>
<!-- Node2&#45;&gt;Node1 -->
<g id="edge1" class="edge">
<title>Node2&#45;&gt;Node1</title>
<path fill="none" stroke="#63b8ff" d="M73.3,-368.76C80.86,-359.56 89.56,-348.99 96.88,-340.09"/>
<polygon fill="#63b8ff" stroke="#63b8ff" points="70.39,-366.79 66.74,-376.73 75.79,-371.23 70.39,-366.79"/>
</g>
<!-- Node3 -->
<g id="node3" class="node">
<title>Node3</title>
<g id="a_node3"><a xlink:title=" ">
<polygon fill="white" stroke="#bfbfbf" points="215.5,-401.5 128.5,-401.5 128.5,-382.5 215.5,-382.5 215.5,-401.5"/>
<text text-anchor="middle" x="172" y="-389.5" font-family="Helvetica,sans-Serif" font-size="10.00">bio::cerealisable</text>
</a>
</g>
</g>
<!-- Node3&#45;&gt;Node1 -->
<g id="edge2" class="edge">
<title>Node3&#45;&gt;Node1</title>
<path fill="none" stroke="#63b8ff" d="M158.24,-374.55C149.64,-364.28 138.52,-350.99 129.45,-340.16"/>
<polygon fill="#63b8ff" stroke="#63b8ff" points="155.66,-376.93 164.77,-382.36 161.03,-372.44 155.66,-376.93"/>
</g>
<!-- Node5 -->
<g id="node5" class="node">
<title>Node5</title>
<g id="a_node5"><a xlink:href="classbio_1_1ranges_1_1small__string.html" target="_top" xlink:title=" ">
<polygon fill="white" stroke="#666666" points="167.5,-108 66.5,-108 66.5,-78 167.5,-78 167.5,-108"/>
<text text-anchor="start" x="74.5" y="-96" font-family="Helvetica,sans-Serif" font-size="10.00">bio::ranges::small</text>
<text text-anchor="middle" x="117" y="-85" font-family="Helvetica,sans-Serif" font-size="10.00">_string&lt; capacity &gt;</text>
</a>
</g>
</g>
<!-- Node4&#45;&gt;Node5 -->
<g id="edge4" class="edge">
<title>Node4&#45;&gt;Node5</title>
<path fill="none" stroke="#63b8ff" d="M113.68,-211.86C114.52,-182.04 115.92,-132.28 116.6,-108.08"/>
<polygon fill="#63b8ff" stroke="#63b8ff" points="110.18,-211.77 113.4,-221.87 117.18,-211.97 110.18,-211.77"/>
</g>
<!-- Node7 -->
<g id="node7" class="node">
<title>Node7</title>
<g id="a_node7"><a xlink:href="classbio_1_1ranges_1_1small__string.html" target="_top" xlink:title="Implements a small string that can be used for compile time computations.">
<polygon fill="white" stroke="#666666" points="235,-185 129,-185 129,-155 235,-155 235,-185"/>
<text text-anchor="start" x="137" y="-173" font-family="Helvetica,sans-Serif" font-size="10.00">bio::ranges::small</text>
<text text-anchor="middle" x="182" y="-162" font-family="Helvetica,sans-Serif" font-size="10.00">_string&lt; capacity_ &gt;</text>
</a>
</g>
</g>
<!-- Node4&#45;&gt;Node7 -->
<g id="edge6" class="edge">
<title>Node4&#45;&gt;Node7</title>
<path fill="none" stroke="#63b8ff" d="M135.49,-214.81C145.84,-205.06 157.84,-193.76 167.06,-185.08"/>
<polygon fill="#63b8ff" stroke="#63b8ff" points="132.85,-212.49 127.97,-221.9 137.65,-217.59 132.85,-212.49"/>
</g>
<!-- Node6 -->
<g id="node6" class="node">
<title>Node6</title>
<g id="a_node6"><a xlink:title=" ">
<polygon fill="white" stroke="#666666" points="166.5,-41 67.5,-41 67.5,0 166.5,0 166.5,-41"/>
<text text-anchor="start" x="75.5" y="-29" font-family="Helvetica,sans-Serif" font-size="10.00">bio::meta::detail::</text>
<text text-anchor="start" x="75.5" y="-18" font-family="Helvetica,sans-Serif" font-size="10.00">literal_buffer_string</text>
<text text-anchor="middle" x="117" y="-7" font-family="Helvetica,sans-Serif" font-size="10.00">&lt; capacity &gt;</text>
</a>
</g>
</g>
<!-- Node5&#45;&gt;Node6 -->
<g id="edge5" class="edge">
<title>Node5&#45;&gt;Node6</title>
<path fill="none" stroke="#63b8ff" d="M117,-67.48C117,-58.85 117,-49.26 117,-41.09"/>
<polygon fill="#63b8ff" stroke="#63b8ff" points="113.5,-67.73 117,-77.73 120.5,-67.73 113.5,-67.73"/>
</g>
<!-- Node7&#45;&gt;Node5 -->
<g id="edge7" class="edge">
<title>Node7&#45;&gt;Node5</title>
<path fill="none" stroke="orange" stroke-dasharray="5,2" d="M163.02,-147.1C152.09,-134.49 138.69,-119.03 129.17,-108.04"/>
<polygon fill="orange" stroke="orange" points="160.58,-149.63 169.77,-154.89 165.87,-145.04 160.58,-149.63"/>
<text text-anchor="middle" x="182" y="-129" font-family="Helvetica,sans-Serif" font-size="10.00"> &lt; capacity &gt;</text>
</g>
</g>
</svg>
