<?xml version="1.0" encoding="UTF-8" standalone="no"?>
<!DOCTYPE svg PUBLIC "-//W3C//DTD SVG 1.1//EN"
 "http://www.w3.org/Graphics/SVG/1.1/DTD/svg11.dtd">
<!-- Generated by graphviz version 2.42.2 ()
 -->
<!-- Title: bio::ranges::concatenated_sequences&lt; underlying_container_type, data_delimiters_type &gt; Pages: 1 -->
<!--zoomable 176 -->
<svg id="main" version="1.1" xmlns="http://www.w3.org/2000/svg" xmlns:xlink="http://www.w3.org/1999/xlink" xml:space="preserve" onload="init(evt)">
<style type="text/css"><![CDATA[
.edge:hover path { stroke: red; }
.edge:hover polygon { stroke: red; fill: red; }
]]></style>
<script type="text/javascript"><![CDATA[
var edges = document.getElementsByTagName('g');
if (edges && edges.length) {
  for (var i=0;i<edges.length;i++) {
    if (edges[i].id.substr(0,4)=='edge') {
      edges[i].setAttribute('class','edge');
    }
  }
}
]]></script>
        <defs>
                <circle id="rim" cx="0" cy="0" r="7"/>
                <circle id="rim2" cx="0" cy="0" r="3.5"/>
                <g id="zoomPlus">
                        <use xlink:href="#rim" fill="#404040">
                                <set attributeName="fill" to="#808080" begin="zoomplus.mouseover" end="zoomplus.mouseout"/>
                        </use>
                        <path d="M-4,0h8M0,-4v8" fill="none" stroke="white" stroke-width="1.5" pointer-events="none"/>
                </g>
                <g id="zoomMin">
                        <use xlink:href="#rim" fill="#404040">
                                <set attributeName="fill" to="#808080" begin="zoomminus.mouseover" end="zoomminus.mouseout"/>
                        </use>
                        <path d="M-4,0h8" fill="none" stroke="white" stroke-width="1.5" pointer-events="none"/>
                </g>
                <g id="dirArrow">
                        <path fill="none" stroke="white" stroke-width="1.5" d="M0,-3.0v7 M-2.5,-0.5L0,-3.0L2.5,-0.5"/>
                </g>
               <g id="resetDef">
                       <use xlink:href="#rim2" fill="#404040">
                               <set attributeName="fill" to="#808080" begin="reset.mouseover" end="reset.mouseout"/>
                       </use>
               </g>
        </defs>

<script type="text/javascript">
var viewWidth = 1005;
var viewHeight = 176;
var sectionId = 'dynsection-0';
</script>
<script xlink:href="svgpan.js"/>
<svg id="graph" class="graph">
<g id="viewport">
<title>bio::ranges::concatenated_sequences&lt; underlying_container_type, data_delimiters_type &gt;</title>
<polygon fill="white" stroke="transparent" points="-4,4 -4,-171.5 1001,-171.5 1001,4 -4,4"/>
<!-- Node1 -->
<g id="node1" class="node">
<title>Node1</title>
<g id="a_node1"><a xlink:title="Container that stores sequences concatenated internally.">
<polygon fill="#bfbfbf" stroke="black" points="806,-35.5 806,-76.5 997,-76.5 997,-35.5 806,-35.5"/>
<text text-anchor="start" x="814" y="-64.5" font-family="Helvetica,sans-Serif" font-size="10.00">bio::ranges::concatenated</text>
<text text-anchor="start" x="814" y="-53.5" font-family="Helvetica,sans-Serif" font-size="10.00">_sequences&lt; underlying</text>
<text text-anchor="middle" x="901.5" y="-42.5" font-family="Helvetica,sans-Serif" font-size="10.00">_container_type, data_delimiters_type &gt;</text>
</a>
</g>
</g>
<!-- Node2 -->
<g id="node2" class="node">
<title>Node2</title>
<g id="a_node2"><a xlink:title=" ">
<polygon fill="white" stroke="black" points="666,-46.5 666,-65.5 770,-65.5 770,-46.5 666,-46.5"/>
<text text-anchor="middle" x="718" y="-53.5" font-family="Helvetica,sans-Serif" font-size="10.00">reservible_container</text>
</a>
</g>
</g>
<!-- Node2&#45;&gt;Node1 -->
<g id="edge1" class="edge">
<title>Node2&#45;&gt;Node1</title>
<path fill="none" stroke="midnightblue" d="M780.28,-56C788.53,-56 797.15,-56 805.81,-56"/>
<polygon fill="midnightblue" stroke="midnightblue" points="780.04,-52.5 770.04,-56 780.04,-59.5 780.04,-52.5"/>
</g>
<!-- Node3 -->
<g id="node3" class="node">
<title>Node3</title>
<g id="a_node3"><a xlink:title=" ">
<polygon fill="white" stroke="black" points="499,-46.5 499,-65.5 630,-65.5 630,-46.5 499,-46.5"/>
<text text-anchor="middle" x="564.5" y="-53.5" font-family="Helvetica,sans-Serif" font-size="10.00">random_access_container</text>
</a>
</g>
</g>
<!-- Node3&#45;&gt;Node2 -->
<g id="edge2" class="edge">
<title>Node3&#45;&gt;Node2</title>
<path fill="none" stroke="midnightblue" d="M640.29,-56C648.93,-56 657.58,-56 665.8,-56"/>
<polygon fill="midnightblue" stroke="midnightblue" points="640.19,-52.5 630.19,-56 640.19,-59.5 640.19,-52.5"/>
</g>
<!-- Node4 -->
<g id="node4" class="node">
<title>Node4</title>
<g id="a_node4"><a xlink:title=" ">
<polygon fill="white" stroke="black" points="359,-68.5 359,-87.5 463,-87.5 463,-68.5 359,-68.5"/>
<text text-anchor="middle" x="411" y="-75.5" font-family="Helvetica,sans-Serif" font-size="10.00">sequence_container</text>
</a>
</g>
</g>
<!-- Node4&#45;&gt;Node3 -->
<g id="edge3" class="edge">
<title>Node4&#45;&gt;Node3</title>
<path fill="none" stroke="midnightblue" d="M473.37,-69.09C481.76,-67.87 490.39,-66.62 498.83,-65.39"/>
<polygon fill="midnightblue" stroke="midnightblue" points="472.68,-65.65 463.29,-70.55 473.69,-72.58 472.68,-65.65"/>
</g>
<!-- Node5 -->
<g id="node5" class="node">
<title>Node5</title>
<g id="a_node5"><a xlink:title=" ">
<polygon fill="white" stroke="black" points="267,-68.5 267,-87.5 323,-87.5 323,-68.5 267,-68.5"/>
<text text-anchor="middle" x="295" y="-75.5" font-family="Helvetica,sans-Serif" font-size="10.00">container</text>
</a>
</g>
</g>
<!-- Node5&#45;&gt;Node4 -->
<g id="edge4" class="edge">
<title>Node5&#45;&gt;Node4</title>
<path fill="none" stroke="midnightblue" d="M333.25,-78C341.34,-78 350.05,-78 358.58,-78"/>
<polygon fill="midnightblue" stroke="midnightblue" points="333.02,-74.5 323.02,-78 333.02,-81.5 333.02,-74.5"/>
</g>
<!-- Node6 -->
<g id="node6" class="node">
<title>Node6</title>
<g id="a_node6"><a xlink:title=" ">
<polygon fill="white" stroke="#bfbfbf" points="124.5,-137 124.5,-167 228.5,-167 228.5,-137 124.5,-137"/>
<text text-anchor="start" x="132.5" y="-155" font-family="Helvetica,sans-Serif" font-size="10.00">std::ranges::forward</text>
<text text-anchor="middle" x="176.5" y="-144" font-family="Helvetica,sans-Serif" font-size="10.00">_range</text>
</a>
</g>
</g>
<!-- Node6&#45;&gt;Node5 -->
<g id="edge5" class="edge">
<title>Node6&#45;&gt;Node5</title>
<path fill="none" stroke="midnightblue" d="M223.39,-132.34C226,-130.94 228.55,-129.49 231,-128 250.81,-115.96 271.42,-98.51 283.46,-87.73"/>
<polygon fill="midnightblue" stroke="midnightblue" points="221.71,-129.27 214.38,-136.92 224.88,-135.51 221.71,-129.27"/>
</g>
<!-- Node7 -->
<g id="node7" class="node">
<title>Node7</title>
<g id="a_node7"><a xlink:title=" ">
<polygon fill="white" stroke="#bfbfbf" points="129,-88 129,-118 224,-118 224,-88 129,-88"/>
<text text-anchor="start" x="137" y="-106" font-family="Helvetica,sans-Serif" font-size="10.00">std::ranges::sized</text>
<text text-anchor="middle" x="176.5" y="-95" font-family="Helvetica,sans-Serif" font-size="10.00">_range</text>
</a>
</g>
</g>
<!-- Node7&#45;&gt;Node5 -->
<g id="edge6" class="edge">
<title>Node7&#45;&gt;Node5</title>
<path fill="none" stroke="midnightblue" d="M234.13,-90.85C245.49,-88.41 256.93,-85.95 266.73,-83.85"/>
<polygon fill="midnightblue" stroke="midnightblue" points="233.26,-87.46 224.21,-92.98 234.73,-94.3 233.26,-87.46"/>
</g>
<!-- Node8 -->
<g id="node8" class="node">
<title>Node8</title>
<g id="a_node8"><a xlink:title=" ">
<polygon fill="white" stroke="#bfbfbf" points="122,-39 122,-69 231,-69 231,-39 122,-39"/>
<text text-anchor="start" x="130" y="-57" font-family="Helvetica,sans-Serif" font-size="10.00">std::ranges::common</text>
<text text-anchor="middle" x="176.5" y="-46" font-family="Helvetica,sans-Serif" font-size="10.00">_range</text>
</a>
</g>
</g>
<!-- Node8&#45;&gt;Node5 -->
<g id="edge7" class="edge">
<title>Node8&#45;&gt;Node5</title>
<path fill="none" stroke="midnightblue" d="M241.12,-67.11C250.13,-68.96 258.96,-70.78 266.75,-72.39"/>
<polygon fill="midnightblue" stroke="midnightblue" points="241.82,-63.68 231.32,-65.09 240.4,-70.53 241.82,-63.68"/>
</g>
<!-- Node9 -->
<g id="node9" class="node">
<title>Node9</title>
<g id="a_node9"><a xlink:href="interfacebio_1_1ranges_1_1const__iterable__range.html" target="_top" xlink:title="Specifies requirements of an input range type for which the const version of that type satisfies the ...">
<polygon fill="white" stroke="black" points="123,-0.5 123,-19.5 230,-19.5 230,-0.5 123,-0.5"/>
<text text-anchor="middle" x="176.5" y="-7.5" font-family="Helvetica,sans-Serif" font-size="10.00">const_iterable_range</text>
</a>
</g>
</g>
<!-- Node9&#45;&gt;Node5 -->
<g id="edge8" class="edge">
<title>Node9&#45;&gt;Node5</title>
<path fill="none" stroke="midnightblue" d="M219.17,-23.31C223.25,-25.05 227.26,-26.95 231,-29 251.17,-40.05 271.67,-57.37 283.6,-68.19"/>
<polygon fill="midnightblue" stroke="midnightblue" points="220.21,-19.95 209.63,-19.53 217.64,-26.46 220.21,-19.95"/>
</g>
<!-- Node10 -->
<g id="node10" class="node">
<title>Node10</title>
<g id="a_node10"><a xlink:title=" ">
<polygon fill="white" stroke="#bfbfbf" points="0,-0.5 0,-19.5 86,-19.5 86,-0.5 0,-0.5"/>
<text text-anchor="middle" x="43" y="-7.5" font-family="Helvetica,sans-Serif" font-size="10.00">std::input_range</text>
</a>
</g>
</g>
<!-- Node10&#45;&gt;Node9 -->
<g id="edge9" class="edge">
<title>Node10&#45;&gt;Node9</title>
<path fill="none" stroke="midnightblue" d="M96.6,-10C105.17,-10 114.06,-10 122.64,-10"/>
<polygon fill="midnightblue" stroke="midnightblue" points="96.33,-6.5 86.33,-10 96.33,-13.5 96.33,-6.5"/>
</g>
<!-- Node11 -->
<g id="node11" class="node">
<title>Node11</title>
<g id="a_node11"><a xlink:title=" ">
<polygon fill="white" stroke="#bfbfbf" points="359,-19 359,-49 463,-49 463,-19 359,-19"/>
<text text-anchor="start" x="367" y="-37" font-family="Helvetica,sans-Serif" font-size="10.00">std::ranges::random</text>
<text text-anchor="middle" x="411" y="-26" font-family="Helvetica,sans-Serif" font-size="10.00">_access_range</text>
</a>
</g>
</g>
<!-- Node11&#45;&gt;Node3 -->
<g id="edge10" class="edge">
<title>Node11&#45;&gt;Node3</title>
<path fill="none" stroke="midnightblue" d="M473.37,-42.91C481.76,-44.13 490.39,-45.38 498.83,-46.61"/>
<polygon fill="midnightblue" stroke="midnightblue" points="473.69,-39.42 463.29,-41.45 472.68,-46.35 473.69,-39.42"/>
</g>
</g>
</svg>
        <g id="navigator" transform="translate(0 0)" fill="#404254">
                <rect fill="#f2f5e9" fill-opacity="0.5" stroke="#606060" stroke-width=".5" x="0" y="0" width="60" height="60"/>
                <use id="zoomplus" xlink:href="#zoomPlus" x="17" y="9" onmousedown="handleZoom(evt,'in')"/>
                <use id="zoomminus" xlink:href="#zoomMin" x="42" y="9" onmousedown="handleZoom(evt,'out')"/>
                <use id="reset" xlink:href="#resetDef" x="30" y="36" onmousedown="handleReset()"/>
                <g id="arrowUp" xlink:href="#dirArrow" transform="translate(30 24)" onmousedown="handlePan(0,-1)">
                  <use xlink:href="#rim" fill="#404040">
                        <set attributeName="fill" to="#808080" begin="arrowUp.mouseover" end="arrowUp.mouseout"/>
                  </use>
                  <path fill="none" stroke="white" stroke-width="1.5" d="M0,-3.0v7 M-2.5,-0.5L0,-3.0L2.5,-0.5"/>
                </g>
                <g id="arrowRight" xlink:href="#dirArrow" transform="rotate(90) translate(36 -43)" onmousedown="handlePan(1,0)">
                  <use xlink:href="#rim" fill="#404040">
                        <set attributeName="fill" to="#808080" begin="arrowRight.mouseover" end="arrowRight.mouseout"/>
                  </use>
                  <path fill="none" stroke="white" stroke-width="1.5" d="M0,-3.0v7 M-2.5,-0.5L0,-3.0L2.5,-0.5"/>
                </g>
                <g id="arrowDown" xlink:href="#dirArrow" transform="rotate(180) translate(-30 -48)" onmousedown="handlePan(0,1)">
                  <use xlink:href="#rim" fill="#404040">
                        <set attributeName="fill" to="#808080" begin="arrowDown.mouseover" end="arrowDown.mouseout"/>
                  </use>
                  <path fill="none" stroke="white" stroke-width="1.5" d="M0,-3.0v7 M-2.5,-0.5L0,-3.0L2.5,-0.5"/>
                </g>
                <g id="arrowLeft" xlink:href="#dirArrow" transform="rotate(270) translate(-36 17)" onmousedown="handlePan(-1,0)">
                  <use xlink:href="#rim" fill="#404040">
                        <set attributeName="fill" to="#808080" begin="arrowLeft.mouseover" end="arrowLeft.mouseout"/>
                  </use>
                  <path fill="none" stroke="white" stroke-width="1.5" d="M0,-3.0v7 M-2.5,-0.5L0,-3.0L2.5,-0.5"/>
                </g>
        </g>
        <svg viewBox="0 0 15 15" width="100%" height="30px" preserveAspectRatio="xMaxYMin meet">
         <g id="arrow_out" transform="scale(0.3 0.3)">
          <a xlink:href="classbio_1_1ranges_1_1concatenated__sequences__inherit__graph_org.svg" target="_base">
           <rect id="button" ry="5" rx="5" y="6" x="6" height="38" width="38"
                fill="#f2f5e9" fill-opacity="0.5" stroke="#606060" stroke-width="1.0"/>
           <path id="arrow"
             d="M 11.500037,31.436501 C 11.940474,20.09759 22.043105,11.32322 32.158766,21.979434 L 37.068811,17.246167 C 37.068811,17.246167 37.088388,32 37.088388,32 L 22.160133,31.978069 C 22.160133,31.978069 26.997745,27.140456 26.997745,27.140456 C 18.528582,18.264221 13.291696,25.230495 11.500037,31.436501 z"
             style="fill:#404040;"/>
          </a>
         </g>
        </svg>
</svg>
