<?xml version="1.0" encoding="UTF-8" standalone="no"?>
<!DOCTYPE svg PUBLIC "-//W3C//DTD SVG 1.1//EN"
 "http://www.w3.org/Graphics/SVG/1.1/DTD/svg11.dtd">
<!-- Generated by graphviz version 2.43.0 (0)
 -->
<!-- Title: bio::dssp9 Pages: 1 -->
<!--zoomable 235 -->
<svg id="main" version="1.1" xmlns="http://www.w3.org/2000/svg" xmlns:xlink="http://www.w3.org/1999/xlink" xml:space="preserve" onload="init(evt)">
<style type="text/css"><![CDATA[
.edge:hover path { stroke: red; }
.edge:hover polygon { stroke: red; fill: red; }
]]></style>
<script type="text/javascript"><![CDATA[
var edges = document.getElementsByTagName('g');
if (edges && edges.length) {
  for (var i=0;i<edges.length;i++) {
    if (edges[i].id.substr(0,4)=='edge') {
      edges[i].setAttribute('class','edge');
    }
  }
}
]]></script>
        <defs>
                <circle id="rim" cx="0" cy="0" r="7"/>
                <circle id="rim2" cx="0" cy="0" r="3.5"/>
                <g id="zoomPlus">
                        <use xlink:href="#rim" fill="#404040">
                                <set attributeName="fill" to="#808080" begin="zoomplus.mouseover" end="zoomplus.mouseout"/>
                        </use>
                        <path d="M-4,0h8M0,-4v8" fill="none" stroke="white" stroke-width="1.5" pointer-events="none"/>
                </g>
                <g id="zoomMin">
                        <use xlink:href="#rim" fill="#404040">
                                <set attributeName="fill" to="#808080" begin="zoomminus.mouseover" end="zoomminus.mouseout"/>
                        </use>
                        <path d="M-4,0h8" fill="none" stroke="white" stroke-width="1.5" pointer-events="none"/>
                </g>
                <g id="dirArrow">
                        <path fill="none" stroke="white" stroke-width="1.5" d="M0,-3.0v7 M-2.5,-0.5L0,-3.0L2.5,-0.5"/>
                </g>
               <g id="resetDef">
                       <use xlink:href="#rim2" fill="#404040">
                               <set attributeName="fill" to="#808080" begin="reset.mouseover" end="reset.mouseout"/>
                       </use>
               </g>
        </defs>

<script type="text/javascript">
var viewWidth = 737;
var viewHeight = 235;
var sectionId = 'dynsection-0';
</script>
<script xlink:href="svgpan.js"/>
<svg id="graph" class="graph">
<g id="viewport">
<title>bio::dssp9</title>
<polygon fill="white" stroke="transparent" points="-4,4 -4,-231 733,-231 733,4 -4,4"/>
<!-- Node1 -->
<g id="node1" class="node">
<title>Node1</title>
<g id="a_node1"><a xlink:title="The protein structure alphabet of the characters &quot;HGIEBTSCX&quot;.">
<polygon fill="#bfbfbf" stroke="black" points="663,-105.5 663,-124.5 729,-124.5 729,-105.5 663,-105.5"/>
<text text-anchor="middle" x="696" y="-112.5" font-family="Helvetica,sans-Serif" font-size="10.00">bio::dssp9</text>
</a>
</g>
</g>
<!-- Node2 -->
<g id="node2" class="node">
<title>Node2</title>
<g id="a_node2"><a xlink:href="interfacebio_1_1writable__alphabet.html" target="_top" xlink:title="Refines bio::alphabet and adds assignability.">
<polygon fill="white" stroke="black" points="519.5,-169.5 519.5,-188.5 623.5,-188.5 623.5,-169.5 519.5,-169.5"/>
<text text-anchor="middle" x="571.5" y="-176.5" font-family="Helvetica,sans-Serif" font-size="10.00">writable_alphabet</text>
</a>
</g>
</g>
<!-- Node2&#45;&gt;Node1 -->
<g id="edge1" class="edge">
<title>Node2&#45;&gt;Node1</title>
<path fill="none" stroke="midnightblue" d="M592.4,-165.14C602.67,-160.86 615.27,-156.31 626,-151 641.64,-143.26 658.04,-132.68 670.93,-124.69"/>
<polygon fill="midnightblue" stroke="midnightblue" points="590.74,-162.05 583.05,-169.34 593.61,-168.43 590.74,-162.05"/>
</g>
<!-- Node2&#45;&gt;Node1 -->
<g id="edge8" class="edge">
<title>Node2&#45;&gt;Node1</title>
<path fill="none" stroke="midnightblue" d="M632.5,-165.55C656.55,-152.51 678.93,-135.81 689.19,-124.56"/>
<polygon fill="midnightblue" stroke="midnightblue" points="630.85,-162.46 623.59,-170.17 634.07,-168.67 630.85,-162.46"/>
</g>
<!-- Node3 -->
<g id="node3" class="node">
<title>Node3</title>
<g id="a_node3"><a xlink:href="interfacebio_1_1alphabet.html" target="_top" xlink:title="The generic alphabet concept that covers most data types used in ranges.">
<polygon fill="white" stroke="black" points="320.5,-207.5 320.5,-226.5 379.5,-226.5 379.5,-207.5 320.5,-207.5"/>
<text text-anchor="middle" x="350" y="-214.5" font-family="Helvetica,sans-Serif" font-size="10.00">alphabet</text>
</a>
</g>
</g>
<!-- Node3&#45;&gt;Node2 -->
<g id="edge2" class="edge">
<title>Node3&#45;&gt;Node2</title>
<path fill="none" stroke="midnightblue" d="M389.72,-211.07C419.61,-206.41 461.98,-199.62 499,-193 506.72,-191.62 514.89,-190.09 522.85,-188.55"/>
<polygon fill="midnightblue" stroke="midnightblue" points="389.04,-207.64 379.7,-212.63 390.11,-214.56 389.04,-207.64"/>
</g>
<!-- Node4 -->
<g id="node4" class="node">
<title>Node4</title>
<g id="a_node4"><a xlink:href="interfacebio_1_1semialphabet.html" target="_top" xlink:title="The basis for bio::alphabet, but requires only rank interface (not char).">
<polygon fill="white" stroke="black" points="166,-187.5 166,-206.5 249,-206.5 249,-187.5 166,-187.5"/>
<text text-anchor="middle" x="207.5" y="-194.5" font-family="Helvetica,sans-Serif" font-size="10.00">semialphabet</text>
</a>
</g>
</g>
<!-- Node4&#45;&gt;Node3 -->
<g id="edge3" class="edge">
<title>Node4&#45;&gt;Node3</title>
<path fill="none" stroke="midnightblue" d="M259.05,-204.2C279.71,-207.14 302.85,-210.43 320.49,-212.94"/>
<polygon fill="midnightblue" stroke="midnightblue" points="259.53,-200.73 249.14,-202.78 258.55,-207.66 259.53,-200.73"/>
</g>
<!-- Node7 -->
<g id="node7" class="node">
<title>Node7</title>
<g id="a_node7"><a xlink:href="interfacebio_1_1writable__semialphabet.html" target="_top" xlink:title="A refinement of bio::semialphabet that adds assignability.">
<polygon fill="white" stroke="black" points="286,-169.5 286,-188.5 414,-188.5 414,-169.5 286,-169.5"/>
<text text-anchor="middle" x="350" y="-176.5" font-family="Helvetica,sans-Serif" font-size="10.00">writable_semialphabet</text>
</a>
</g>
</g>
<!-- Node4&#45;&gt;Node7 -->
<g id="edge7" class="edge">
<title>Node4&#45;&gt;Node7</title>
<path fill="none" stroke="midnightblue" d="M259.12,-190.51C267.83,-189.4 276.97,-188.23 285.95,-187.08"/>
<polygon fill="midnightblue" stroke="midnightblue" points="258.61,-187.05 249.14,-191.79 259.5,-193.99 258.61,-187.05"/>
</g>
<!-- Node5 -->
<g id="node5" class="node">
<title>Node5</title>
<g id="a_node5"><a xlink:title=" ">
<polygon fill="white" stroke="#bfbfbf" points="8.5,-206.5 8.5,-225.5 120.5,-225.5 120.5,-206.5 8.5,-206.5"/>
<text text-anchor="middle" x="64.5" y="-213.5" font-family="Helvetica,sans-Serif" font-size="10.00">std::totally_ordered</text>
</a>
</g>
</g>
<!-- Node5&#45;&gt;Node4 -->
<g id="edge4" class="edge">
<title>Node5&#45;&gt;Node4</title>
<path fill="none" stroke="midnightblue" d="M130.75,-207.21C142.67,-205.6 154.78,-203.97 165.72,-202.49"/>
<polygon fill="midnightblue" stroke="midnightblue" points="130.27,-203.74 120.82,-208.55 131.2,-210.68 130.27,-203.74"/>
</g>
<!-- Node6 -->
<g id="node6" class="node">
<title>Node6</title>
<g id="a_node6"><a xlink:title=" ">
<polygon fill="white" stroke="#bfbfbf" points="0,-168.5 0,-187.5 129,-187.5 129,-168.5 0,-168.5"/>
<text text-anchor="middle" x="64.5" y="-175.5" font-family="Helvetica,sans-Serif" font-size="10.00">std::copy_constructible</text>
</a>
</g>
</g>
<!-- Node6&#45;&gt;Node4 -->
<g id="edge5" class="edge">
<title>Node6&#45;&gt;Node4</title>
<path fill="none" stroke="midnightblue" d="M139.59,-187.98C148.62,-189.2 157.56,-190.41 165.84,-191.52"/>
<polygon fill="midnightblue" stroke="midnightblue" points="139.78,-184.48 129.4,-186.61 138.84,-191.41 139.78,-184.48"/>
</g>
<!-- Node7&#45;&gt;Node2 -->
<g id="edge6" class="edge">
<title>Node7&#45;&gt;Node2</title>
<path fill="none" stroke="midnightblue" d="M424.54,-179C455.6,-179 491.02,-179 519.19,-179"/>
<polygon fill="midnightblue" stroke="midnightblue" points="424.19,-175.5 414.19,-179 424.19,-182.5 424.19,-175.5"/>
</g>
<!-- Node8 -->
<g id="node8" class="node">
<title>Node8</title>
<g id="a_node8"><a xlink:href="interfacebio_1_1trivially__copyable.html" target="_top" xlink:title="A type that satisfies std::is_trivially_copyable_v&lt;t&gt;.">
<polygon fill="white" stroke="black" points="519.5,-131.5 519.5,-150.5 623.5,-150.5 623.5,-131.5 519.5,-131.5"/>
<text text-anchor="middle" x="571.5" y="-138.5" font-family="Helvetica,sans-Serif" font-size="10.00">trivially_copyable</text>
</a>
</g>
</g>
<!-- Node8&#45;&gt;Node1 -->
<g id="edge9" class="edge">
<title>Node8&#45;&gt;Node1</title>
<path fill="none" stroke="midnightblue" d="M627.44,-129.34C639.51,-126.78 651.91,-124.15 662.74,-121.85"/>
<polygon fill="midnightblue" stroke="midnightblue" points="626.47,-125.97 617.42,-131.47 627.93,-132.81 626.47,-125.97"/>
</g>
<!-- Node9 -->
<g id="node9" class="node">
<title>Node9</title>
<g id="a_node9"><a xlink:title=" ">
<polygon fill="white" stroke="#bfbfbf" points="309,-131.5 309,-150.5 391,-150.5 391,-131.5 309,-131.5"/>
<text text-anchor="middle" x="350" y="-138.5" font-family="Helvetica,sans-Serif" font-size="10.00">std::copyable</text>
</a>
</g>
</g>
<!-- Node9&#45;&gt;Node8 -->
<g id="edge10" class="edge">
<title>Node9&#45;&gt;Node8</title>
<path fill="none" stroke="midnightblue" d="M401.09,-141C436.41,-141 483.56,-141 519.16,-141"/>
<polygon fill="midnightblue" stroke="midnightblue" points="401,-137.5 391,-141 401,-144.5 401,-137.5"/>
</g>
<!-- Node10 -->
<g id="node10" class="node">
<title>Node10</title>
<g id="a_node10"><a xlink:href="interfacebio_1_1standard__layout.html" target="_top" xlink:title="Resolves to std::is_standard_layout_v&lt;t&gt;.">
<polygon fill="white" stroke="black" points="524,-93.5 524,-112.5 619,-112.5 619,-93.5 524,-93.5"/>
<text text-anchor="middle" x="571.5" y="-100.5" font-family="Helvetica,sans-Serif" font-size="10.00">standard_layout</text>
</a>
</g>
</g>
<!-- Node10&#45;&gt;Node1 -->
<g id="edge11" class="edge">
<title>Node10&#45;&gt;Node1</title>
<path fill="none" stroke="midnightblue" d="M629.23,-108.56C640.79,-109.69 652.57,-110.84 662.91,-111.86"/>
<polygon fill="midnightblue" stroke="midnightblue" points="629.46,-105.06 619.16,-107.57 628.77,-112.03 629.46,-105.06"/>
</g>
<!-- Node11 -->
<g id="node11" class="node">
<title>Node11</title>
<g id="a_node11"><a xlink:title=" ">
<polygon fill="white" stroke="#bfbfbf" points="535.5,-55.5 535.5,-74.5 607.5,-74.5 607.5,-55.5 535.5,-55.5"/>
<text text-anchor="middle" x="571.5" y="-62.5" font-family="Helvetica,sans-Serif" font-size="10.00">std::regular</text>
</a>
</g>
</g>
<!-- Node11&#45;&gt;Node1 -->
<g id="edge12" class="edge">
<title>Node11&#45;&gt;Node1</title>
<path fill="none" stroke="midnightblue" d="M610.17,-77.94C615.51,-79.91 620.91,-81.96 626,-84 642.7,-90.7 661.28,-99.11 674.96,-105.48"/>
<polygon fill="midnightblue" stroke="midnightblue" points="611.3,-74.63 600.7,-74.54 608.93,-81.22 611.3,-74.63"/>
</g>
<!-- Node12 -->
<g id="node12" class="node">
<title>Node12</title>
<g id="a_node12"><a xlink:href="classbio_1_1alphabet__base.html" target="_top" xlink:title=" ">
<polygon fill="white" stroke="black" points="517,-6 517,-36 626,-36 626,-6 517,-6"/>
<text text-anchor="start" x="525" y="-24" font-family="Helvetica,sans-Serif" font-size="10.00">bio::alphabet_base</text>
<text text-anchor="middle" x="571.5" y="-13" font-family="Helvetica,sans-Serif" font-size="10.00">&lt; dssp9, 9 &gt;</text>
</a>
</g>
</g>
<!-- Node12&#45;&gt;Node1 -->
<g id="edge13" class="edge">
<title>Node12&#45;&gt;Node1</title>
<path fill="none" stroke="midnightblue" d="M618.07,-40.92C620.81,-42.54 623.48,-44.23 626,-46 651.25,-63.7 675.47,-91.1 687.37,-105.47"/>
<polygon fill="midnightblue" stroke="midnightblue" points="619.59,-37.76 609.14,-36.03 616.23,-43.9 619.59,-37.76"/>
</g>
<!-- Node13 -->
<g id="node13" class="node">
<title>Node13</title>
<g id="a_node13"><a xlink:href="classbio_1_1alphabet__base.html" target="_top" xlink:title="A CRTP&#45;base that makes defining a custom alphabet easier.">
<polygon fill="white" stroke="black" points="290,-0.5 290,-41.5 410,-41.5 410,-0.5 290,-0.5"/>
<text text-anchor="start" x="298" y="-29.5" font-family="Helvetica,sans-Serif" font-size="10.00">bio::alphabet_base</text>
<text text-anchor="start" x="298" y="-18.5" font-family="Helvetica,sans-Serif" font-size="10.00">&lt; derived_type, size,</text>
<text text-anchor="middle" x="350" y="-7.5" font-family="Helvetica,sans-Serif" font-size="10.00"> char_t &gt;</text>
</a>
</g>
</g>
<!-- Node13&#45;&gt;Node12 -->
<g id="edge14" class="edge">
<title>Node13&#45;&gt;Node12</title>
<path fill="none" stroke="orange" stroke-dasharray="5,2" d="M420.48,-21C451.66,-21 487.88,-21 516.92,-21"/>
<polygon fill="orange" stroke="orange" points="420.11,-17.5 410.11,-21 420.11,-24.5 420.11,-17.5"/>
<text text-anchor="middle" x="465.5" y="-24" font-family="Helvetica,sans-Serif" font-size="10.00"> &lt; dssp9, 9 &gt;</text>
</g>
</g>
</svg>
        <g id="navigator" transform="translate(0 0)" fill="#404254">
                <rect fill="#f2f5e9" fill-opacity="0.5" stroke="#606060" stroke-width=".5" x="0" y="0" width="60" height="60"/>
                <use id="zoomplus" xlink:href="#zoomPlus" x="17" y="9" onmousedown="handleZoom(evt,'in')"/>
                <use id="zoomminus" xlink:href="#zoomMin" x="42" y="9" onmousedown="handleZoom(evt,'out')"/>
                <use id="reset" xlink:href="#resetDef" x="30" y="36" onmousedown="handleReset()"/>
                <g id="arrowUp" xlink:href="#dirArrow" transform="translate(30 24)" onmousedown="handlePan(0,-1)">
                  <use xlink:href="#rim" fill="#404040">
                        <set attributeName="fill" to="#808080" begin="arrowUp.mouseover" end="arrowUp.mouseout"/>
                  </use>
                  <path fill="none" stroke="white" stroke-width="1.5" d="M0,-3.0v7 M-2.5,-0.5L0,-3.0L2.5,-0.5"/>
                </g>
                <g id="arrowRight" xlink:href="#dirArrow" transform="rotate(90) translate(36 -43)" onmousedown="handlePan(1,0)">
                  <use xlink:href="#rim" fill="#404040">
                        <set attributeName="fill" to="#808080" begin="arrowRight.mouseover" end="arrowRight.mouseout"/>
                  </use>
                  <path fill="none" stroke="white" stroke-width="1.5" d="M0,-3.0v7 M-2.5,-0.5L0,-3.0L2.5,-0.5"/>
                </g>
                <g id="arrowDown" xlink:href="#dirArrow" transform="rotate(180) translate(-30 -48)" onmousedown="handlePan(0,1)">
                  <use xlink:href="#rim" fill="#404040">
                        <set attributeName="fill" to="#808080" begin="arrowDown.mouseover" end="arrowDown.mouseout"/>
                  </use>
                  <path fill="none" stroke="white" stroke-width="1.5" d="M0,-3.0v7 M-2.5,-0.5L0,-3.0L2.5,-0.5"/>
                </g>
                <g id="arrowLeft" xlink:href="#dirArrow" transform="rotate(270) translate(-36 17)" onmousedown="handlePan(-1,0)">
                  <use xlink:href="#rim" fill="#404040">
                        <set attributeName="fill" to="#808080" begin="arrowLeft.mouseover" end="arrowLeft.mouseout"/>
                  </use>
                  <path fill="none" stroke="white" stroke-width="1.5" d="M0,-3.0v7 M-2.5,-0.5L0,-3.0L2.5,-0.5"/>
                </g>
        </g>
        <svg viewBox="0 0 15 15" width="100%" height="30px" preserveAspectRatio="xMaxYMin meet">
         <g id="arrow_out" transform="scale(0.3 0.3)">
          <a xlink:href="classbio_1_1dssp9__inherit__graph_org.svg" target="_base">
           <rect id="button" ry="5" rx="5" y="6" x="6" height="38" width="38"
                fill="#f2f5e9" fill-opacity="0.5" stroke="#606060" stroke-width="1.0"/>
           <path id="arrow"
             d="M 11.500037,31.436501 C 11.940474,20.09759 22.043105,11.32322 32.158766,21.979434 L 37.068811,17.246167 C 37.068811,17.246167 37.088388,32 37.088388,32 L 22.160133,31.978069 C 22.160133,31.978069 26.997745,27.140456 26.997745,27.140456 C 18.528582,18.264221 13.291696,25.230495 11.500037,31.436501 z"
             style="fill:#404040;"/>
          </a>
         </g>
        </svg>
</svg>
