<?xml version="1.0" encoding="UTF-8" standalone="no"?>
<!DOCTYPE svg PUBLIC "-//W3C//DTD SVG 1.1//EN"
 "http://www.w3.org/Graphics/SVG/1.1/DTD/svg11.dtd">
<!-- Generated by graphviz version 2.43.0 (0)
 -->
<!-- Title: bio::alphabet::cigar_op Pages: 1 -->
<svg width="517pt" height="226pt"
 viewBox="0.00 0.00 517.00 225.50" xmlns="http://www.w3.org/2000/svg" xmlns:xlink="http://www.w3.org/1999/xlink">
<g id="graph0" class="graph" transform="scale(1 1) rotate(0) translate(4 221.5)">
<title>bio::alphabet::cigar_op</title>
<!-- Node1 -->
<g id="node1" class="node">
<title>Node1</title>
<g id="a_node1"><a xlink:title="The cigar operation alphabet..">
<polygon fill="#999999" stroke="#666666" points="509,-116 394,-116 394,-97 509,-97 509,-116"/>
<text text-anchor="middle" x="451.5" y="-104" font-family="Helvetica,sans-Serif" font-size="10.00">bio::alphabet::cigar_op</text>
</a>
</g>
</g>
<!-- Node2 -->
<g id="node2" class="node">
<title>Node2</title>
<g id="a_node2"><a xlink:title=" ">
<polygon fill="white" stroke="#bfbfbf" points="356.5,-217.5 244.5,-217.5 244.5,-187.5 356.5,-187.5 356.5,-217.5"/>
<text text-anchor="start" x="252.5" y="-205.5" font-family="Helvetica,sans-Serif" font-size="10.00">bio::alphabet::writable</text>
<text text-anchor="middle" x="300.5" y="-194.5" font-family="Helvetica,sans-Serif" font-size="10.00">_alphabet</text>
</a>
</g>
</g>
<!-- Node2&#45;&gt;Node1 -->
<g id="edge1" class="edge">
<title>Node2&#45;&gt;Node1</title>
<path fill="none" stroke="#63b8ff" d="M348.82,-183.01C351.62,-181.55 354.37,-180.05 357,-178.5 389.31,-159.48 423.2,-130.86 439.91,-116.08"/>
<polygon fill="#63b8ff" stroke="#63b8ff" points="347.18,-179.91 339.74,-187.46 350.26,-186.2 347.18,-179.91"/>
</g>
<!-- Node3 -->
<g id="node3" class="node">
<title>Node3</title>
<g id="a_node3"><a xlink:title=" ">
<polygon fill="white" stroke="#bfbfbf" points="347.5,-169.5 253.5,-169.5 253.5,-139.5 347.5,-139.5 347.5,-169.5"/>
<text text-anchor="start" x="261.5" y="-157.5" font-family="Helvetica,sans-Serif" font-size="10.00">bio::meta::trivially</text>
<text text-anchor="middle" x="300.5" y="-146.5" font-family="Helvetica,sans-Serif" font-size="10.00">_copyable</text>
</a>
</g>
</g>
<!-- Node3&#45;&gt;Node1 -->
<g id="edge2" class="edge">
<title>Node3&#45;&gt;Node1</title>
<path fill="none" stroke="#63b8ff" d="M357.5,-136.46C378.94,-129.55 402.57,-121.94 420.65,-116.12"/>
<polygon fill="#63b8ff" stroke="#63b8ff" points="356.27,-133.18 347.83,-139.58 358.42,-139.84 356.27,-133.18"/>
</g>
<!-- Node4 -->
<g id="node4" class="node">
<title>Node4</title>
<g id="a_node4"><a xlink:title=" ">
<polygon fill="white" stroke="#bfbfbf" points="351,-121.5 250,-121.5 250,-91.5 351,-91.5 351,-121.5"/>
<text text-anchor="start" x="258" y="-109.5" font-family="Helvetica,sans-Serif" font-size="10.00">bio::meta::standard</text>
<text text-anchor="middle" x="300.5" y="-98.5" font-family="Helvetica,sans-Serif" font-size="10.00">_layout</text>
</a>
</g>
</g>
<!-- Node4&#45;&gt;Node1 -->
<g id="edge3" class="edge">
<title>Node4&#45;&gt;Node1</title>
<path fill="none" stroke="#63b8ff" d="M361.27,-106.5C372.03,-106.5 383.22,-106.5 393.89,-106.5"/>
<polygon fill="#63b8ff" stroke="#63b8ff" points="361.11,-103 351.11,-106.5 361.11,-110 361.11,-103"/>
</g>
<!-- Node5 -->
<g id="node5" class="node">
<title>Node5</title>
<g id="a_node5"><a xlink:title=" ">
<polygon fill="white" stroke="#bfbfbf" points="333,-73 268,-73 268,-54 333,-54 333,-73"/>
<text text-anchor="middle" x="300.5" y="-61" font-family="Helvetica,sans-Serif" font-size="10.00">std::regular</text>
</a>
</g>
</g>
<!-- Node5&#45;&gt;Node1 -->
<g id="edge4" class="edge">
<title>Node5&#45;&gt;Node1</title>
<path fill="none" stroke="#63b8ff" d="M342.8,-75.42C366.32,-82.21 395.39,-90.6 417.4,-96.95"/>
<polygon fill="#63b8ff" stroke="#63b8ff" points="343.68,-72.03 333.1,-72.62 341.74,-78.75 343.68,-72.03"/>
</g>
<!-- Node6 -->
<g id="node6" class="node">
<title>Node6</title>
<g id="a_node6"><a xlink:href="classbio_1_1alphabet_1_1base.html" target="_top" xlink:title=" ">
<polygon fill="white" stroke="#666666" points="357,-35.5 244,-35.5 244,-5.5 357,-5.5 357,-35.5"/>
<text text-anchor="start" x="252" y="-23.5" font-family="Helvetica,sans-Serif" font-size="10.00">bio::alphabet::base</text>
<text text-anchor="middle" x="300.5" y="-12.5" font-family="Helvetica,sans-Serif" font-size="10.00">&lt; cigar_op, 10, char &gt;</text>
</a>
</g>
</g>
<!-- Node6&#45;&gt;Node1 -->
<g id="edge5" class="edge">
<title>Node6&#45;&gt;Node1</title>
<path fill="none" stroke="#63b8ff" d="M346.27,-39.94C349.94,-41.75 353.55,-43.61 357,-45.5 386.76,-61.78 419.52,-84.31 437.28,-96.93"/>
<polygon fill="#63b8ff" stroke="#63b8ff" points="347.66,-36.72 337.13,-35.56 344.64,-43.04 347.66,-36.72"/>
</g>
<!-- Node7 -->
<g id="node7" class="node">
<title>Node7</title>
<g id="a_node7"><a xlink:href="classbio_1_1alphabet_1_1base.html" target="_top" xlink:title="A CRTP&#45;base that makes defining a custom alphabet easier.">
<polygon fill="white" stroke="#666666" points="108,-41 0,-41 0,0 108,0 108,-41"/>
<text text-anchor="start" x="8" y="-29" font-family="Helvetica,sans-Serif" font-size="10.00">bio::alphabet::base</text>
<text text-anchor="start" x="8" y="-18" font-family="Helvetica,sans-Serif" font-size="10.00">&lt; derived_type, size,</text>
<text text-anchor="middle" x="54" y="-7" font-family="Helvetica,sans-Serif" font-size="10.00"> char_t &gt;</text>
</a>
</g>
</g>
<!-- Node7&#45;&gt;Node6 -->
<g id="edge6" class="edge">
<title>Node7&#45;&gt;Node6</title>
<path fill="none" stroke="orange" stroke-dasharray="5,2" d="M118.19,-20.5C156.97,-20.5 206.21,-20.5 243.58,-20.5"/>
<polygon fill="orange" stroke="orange" points="118.05,-17 108.05,-20.5 118.05,-24 118.05,-17"/>
<text text-anchor="middle" x="176" y="-23.5" font-family="Helvetica,sans-Serif" font-size="10.00"> &lt; cigar_op, 10, char &gt;</text>
</g>
</g>
</svg>
