<?xml version="1.0" encoding="UTF-8" standalone="no"?>
<!DOCTYPE svg PUBLIC "-//W3C//DTD SVG 1.1//EN"
 "http://www.w3.org/Graphics/SVG/1.1/DTD/svg11.dtd">
<!-- Generated by graphviz version 2.43.0 (0)
 -->
<!-- Title: bio::cigar Pages: 1 -->
<svg width="1280pt" height="300pt"
 viewBox="0.00 0.00 1280.00 299.50" xmlns="http://www.w3.org/2000/svg" xmlns:xlink="http://www.w3.org/1999/xlink">
<g id="graph0" class="graph" transform="scale(1 1) rotate(0) translate(4 295.5)">
<title>bio::cigar</title>
<polygon fill="white" stroke="transparent" points="-4,4 -4,-295.5 1276,-295.5 1276,4 -4,4"/>
<!-- Node1 -->
<g id="node1" class="node">
<title>Node1</title>
<g id="a_node1"><a xlink:title="The cigar semialphabet pairs a counter with a bio::cigar_op letter.">
<polygon fill="#bfbfbf" stroke="black" points="1210,-76.5 1210,-95.5 1272,-95.5 1272,-76.5 1210,-76.5"/>
<text text-anchor="middle" x="1241" y="-83.5" font-family="Helvetica,sans-Serif" font-size="10.00">bio::cigar</text>
</a>
</g>
</g>
<!-- Node2 -->
<g id="node2" class="node">
<title>Node2</title>
<g id="a_node2"><a xlink:href="interfacebio_1_1writable__semialphabet.html" target="_top" xlink:title="A refinement of bio::semialphabet that adds assignability.">
<polygon fill="white" stroke="black" points="479,-147.5 479,-166.5 607,-166.5 607,-147.5 479,-147.5"/>
<text text-anchor="middle" x="543" y="-154.5" font-family="Helvetica,sans-Serif" font-size="10.00">writable_semialphabet</text>
</a>
</g>
</g>
<!-- Node2&#45;&gt;Node1 -->
<g id="edge1" class="edge">
<title>Node2&#45;&gt;Node1</title>
<path fill="none" stroke="midnightblue" d="M617.4,-155.09C735.31,-151.09 973.88,-139.16 1173,-105 1185.75,-102.81 1199.55,-99.13 1211.29,-95.59"/>
<polygon fill="midnightblue" stroke="midnightblue" points="617.28,-151.59 607.4,-155.42 617.51,-158.59 617.28,-151.59"/>
</g>
<!-- Node10 -->
<g id="node10" class="node">
<title>Node10</title>
<g id="a_node10"><a xlink:href="classbio_1_1alphabet__tuple__base.html" target="_top" xlink:title=" ">
<polygon fill="white" stroke="black" points="1056,-171.5 1056,-212.5 1173,-212.5 1173,-171.5 1056,-171.5"/>
<text text-anchor="start" x="1064" y="-200.5" font-family="Helvetica,sans-Serif" font-size="10.00">bio::alphabet_tuple</text>
<text text-anchor="start" x="1064" y="-189.5" font-family="Helvetica,sans-Serif" font-size="10.00">_base&lt; cigar, uint32</text>
<text text-anchor="middle" x="1114.5" y="-178.5" font-family="Helvetica,sans-Serif" font-size="10.00">_t, cigar_op &gt;</text>
</a>
</g>
</g>
<!-- Node2&#45;&gt;Node10 -->
<g id="edge10" class="edge">
<title>Node2&#45;&gt;Node10</title>
<path fill="none" stroke="midnightblue" d="M617.21,-161.5C731.83,-168.54 951.31,-182.03 1055.65,-188.44"/>
<polygon fill="midnightblue" stroke="midnightblue" points="617.32,-158 607.12,-160.88 616.89,-164.99 617.32,-158"/>
</g>
<!-- Node13 -->
<g id="node13" class="node">
<title>Node13</title>
<g id="a_node13"><a xlink:href="classbio_1_1alphabet__tuple__base.html" target="_top" xlink:title="The CRTP base for a combined alphabet that contains multiple values of different alphabets at the sam...">
<polygon fill="white" stroke="black" points="809,-190.5 809,-231.5 932,-231.5 932,-190.5 809,-190.5"/>
<text text-anchor="start" x="817" y="-219.5" font-family="Helvetica,sans-Serif" font-size="10.00">bio::alphabet_tuple</text>
<text text-anchor="start" x="817" y="-208.5" font-family="Helvetica,sans-Serif" font-size="10.00">_base&lt; derived_type,</text>
<text text-anchor="middle" x="870.5" y="-197.5" font-family="Helvetica,sans-Serif" font-size="10.00"> component_types &gt;</text>
</a>
</g>
</g>
<!-- Node2&#45;&gt;Node13 -->
<g id="edge14" class="edge">
<title>Node2&#45;&gt;Node13</title>
<path fill="none" stroke="midnightblue" d="M611.12,-168.2C620.81,-169.81 630.66,-171.45 640,-173 697.17,-182.5 762.36,-193.29 808.61,-200.94"/>
<polygon fill="midnightblue" stroke="midnightblue" points="611.55,-164.72 601.11,-166.53 610.4,-171.62 611.55,-164.72"/>
</g>
<!-- Node3 -->
<g id="node3" class="node">
<title>Node3</title>
<g id="a_node3"><a xlink:href="interfacebio_1_1semialphabet.html" target="_top" xlink:title="The basis for bio::alphabet, but requires only rank interface (not char).">
<polygon fill="white" stroke="black" points="184.5,-147.5 184.5,-166.5 267.5,-166.5 267.5,-147.5 184.5,-147.5"/>
<text text-anchor="middle" x="226" y="-154.5" font-family="Helvetica,sans-Serif" font-size="10.00">semialphabet</text>
</a>
</g>
</g>
<!-- Node3&#45;&gt;Node2 -->
<g id="edge2" class="edge">
<title>Node3&#45;&gt;Node2</title>
<path fill="none" stroke="midnightblue" d="M277.69,-157C332.4,-157 419.62,-157 478.77,-157"/>
<polygon fill="midnightblue" stroke="midnightblue" points="277.54,-153.5 267.54,-157 277.54,-160.5 277.54,-153.5"/>
</g>
<!-- Node4 -->
<g id="node4" class="node">
<title>Node4</title>
<g id="a_node4"><a xlink:title=" ">
<polygon fill="white" stroke="#bfbfbf" points="8.5,-166.5 8.5,-185.5 120.5,-185.5 120.5,-166.5 8.5,-166.5"/>
<text text-anchor="middle" x="64.5" y="-173.5" font-family="Helvetica,sans-Serif" font-size="10.00">std::totally_ordered</text>
</a>
</g>
</g>
<!-- Node4&#45;&gt;Node3 -->
<g id="edge3" class="edge">
<title>Node4&#45;&gt;Node3</title>
<path fill="none" stroke="midnightblue" d="M130.78,-168.22C148.91,-166.06 168.07,-163.78 184.35,-161.84"/>
<polygon fill="midnightblue" stroke="midnightblue" points="130.35,-164.75 120.84,-169.41 131.18,-171.7 130.35,-164.75"/>
</g>
<!-- Node5 -->
<g id="node5" class="node">
<title>Node5</title>
<g id="a_node5"><a xlink:title=" ">
<polygon fill="white" stroke="#bfbfbf" points="0,-128.5 0,-147.5 129,-147.5 129,-128.5 0,-128.5"/>
<text text-anchor="middle" x="64.5" y="-135.5" font-family="Helvetica,sans-Serif" font-size="10.00">std::copy_constructible</text>
</a>
</g>
</g>
<!-- Node5&#45;&gt;Node3 -->
<g id="edge4" class="edge">
<title>Node5&#45;&gt;Node3</title>
<path fill="none" stroke="midnightblue" d="M139.54,-146.82C155,-148.66 170.74,-150.54 184.43,-152.17"/>
<polygon fill="midnightblue" stroke="midnightblue" points="139.8,-143.33 129.46,-145.62 138.97,-150.28 139.8,-143.33"/>
</g>
<!-- Node6 -->
<g id="node6" class="node">
<title>Node6</title>
<g id="a_node6"><a xlink:href="interfacebio_1_1trivially__copyable.html" target="_top" xlink:title="A type that satisfies std::is_trivially_copyable_v&lt;t&gt;.">
<polygon fill="white" stroke="black" points="1062.5,-76.5 1062.5,-95.5 1166.5,-95.5 1166.5,-76.5 1062.5,-76.5"/>
<text text-anchor="middle" x="1114.5" y="-83.5" font-family="Helvetica,sans-Serif" font-size="10.00">trivially_copyable</text>
</a>
</g>
</g>
<!-- Node6&#45;&gt;Node1 -->
<g id="edge5" class="edge">
<title>Node6&#45;&gt;Node1</title>
<path fill="none" stroke="midnightblue" d="M1176.87,-86C1188.32,-86 1199.81,-86 1209.79,-86"/>
<polygon fill="midnightblue" stroke="midnightblue" points="1176.86,-82.5 1166.86,-86 1176.86,-89.5 1176.86,-82.5"/>
</g>
<!-- Node7 -->
<g id="node7" class="node">
<title>Node7</title>
<g id="a_node7"><a xlink:title=" ">
<polygon fill="white" stroke="#bfbfbf" points="829.5,-76.5 829.5,-95.5 911.5,-95.5 911.5,-76.5 829.5,-76.5"/>
<text text-anchor="middle" x="870.5" y="-83.5" font-family="Helvetica,sans-Serif" font-size="10.00">std::copyable</text>
</a>
</g>
</g>
<!-- Node7&#45;&gt;Node6 -->
<g id="edge6" class="edge">
<title>Node7&#45;&gt;Node6</title>
<path fill="none" stroke="midnightblue" d="M921.81,-86C962.93,-86 1020.82,-86 1062.21,-86"/>
<polygon fill="midnightblue" stroke="midnightblue" points="921.73,-82.5 911.73,-86 921.73,-89.5 921.73,-82.5"/>
</g>
<!-- Node8 -->
<g id="node8" class="node">
<title>Node8</title>
<g id="a_node8"><a xlink:href="interfacebio_1_1standard__layout.html" target="_top" xlink:title="Resolves to std::is_standard_layout_v&lt;t&gt;.">
<polygon fill="white" stroke="black" points="1067,-38.5 1067,-57.5 1162,-57.5 1162,-38.5 1067,-38.5"/>
<text text-anchor="middle" x="1114.5" y="-45.5" font-family="Helvetica,sans-Serif" font-size="10.00">standard_layout</text>
</a>
</g>
</g>
<!-- Node8&#45;&gt;Node1 -->
<g id="edge7" class="edge">
<title>Node8&#45;&gt;Node1</title>
<path fill="none" stroke="midnightblue" d="M1156.8,-60.61C1174.14,-65.9 1193.95,-71.94 1209.88,-76.81"/>
<polygon fill="midnightblue" stroke="midnightblue" points="1157.5,-57.16 1146.92,-57.59 1155.46,-63.86 1157.5,-57.16"/>
</g>
<!-- Node9 -->
<g id="node9" class="node">
<title>Node9</title>
<g id="a_node9"><a xlink:title=" ">
<polygon fill="white" stroke="#bfbfbf" points="1078.5,-0.5 1078.5,-19.5 1150.5,-19.5 1150.5,-0.5 1078.5,-0.5"/>
<text text-anchor="middle" x="1114.5" y="-7.5" font-family="Helvetica,sans-Serif" font-size="10.00">std::regular</text>
</a>
</g>
</g>
<!-- Node9&#45;&gt;Node1 -->
<g id="edge8" class="edge">
<title>Node9&#45;&gt;Node1</title>
<path fill="none" stroke="midnightblue" d="M1160.38,-22.93C1164.75,-24.74 1169.03,-26.77 1173,-29 1196.17,-42.02 1218.79,-63.67 1230.91,-76.21"/>
<polygon fill="midnightblue" stroke="midnightblue" points="1161.37,-19.56 1150.78,-19.27 1158.88,-26.1 1161.37,-19.56"/>
</g>
<!-- Node10&#45;&gt;Node1 -->
<g id="edge9" class="edge">
<title>Node10&#45;&gt;Node1</title>
<path fill="none" stroke="midnightblue" d="M1156.36,-165.53C1168.24,-157.21 1180.99,-147.66 1192,-138 1207.33,-124.55 1222.96,-106.68 1232.06,-95.78"/>
<polygon fill="midnightblue" stroke="midnightblue" points="1154.15,-162.81 1147.89,-171.36 1158.11,-168.58 1154.15,-162.81"/>
</g>
<!-- Node11 -->
<g id="node11" class="node">
<title>Node11</title>
<g id="a_node11"><a xlink:href="classbio_1_1alphabet__base.html" target="_top" xlink:title=" ">
<polygon fill="white" stroke="black" points="640,-239 640,-291 791,-291 791,-239 640,-239"/>
<text text-anchor="start" x="648" y="-279" font-family="Helvetica,sans-Serif" font-size="10.00">bio::alphabet_base</text>
<text text-anchor="start" x="648" y="-268" font-family="Helvetica,sans-Serif" font-size="10.00">&lt; cigar,(1 *... *alphabet</text>
<text text-anchor="start" x="648" y="-257" font-family="Helvetica,sans-Serif" font-size="10.00">_size&lt; component_types &gt;</text>
<text text-anchor="middle" x="715.5" y="-246" font-family="Helvetica,sans-Serif" font-size="10.00">), void &gt;</text>
</a>
</g>
</g>
<!-- Node11&#45;&gt;Node10 -->
<g id="edge11" class="edge">
<title>Node11&#45;&gt;Node10</title>
<path fill="none" stroke="midnightblue" d="M801.39,-263.98C867.16,-261.24 959.93,-253.07 1038,-230 1052.07,-225.84 1066.67,-219.13 1079.24,-212.5"/>
<polygon fill="midnightblue" stroke="midnightblue" points="800.93,-260.49 791.07,-264.37 801.2,-267.49 800.93,-260.49"/>
</g>
<!-- Node12 -->
<g id="node12" class="node">
<title>Node12</title>
<g id="a_node12"><a xlink:href="classbio_1_1alphabet__base.html" target="_top" xlink:title="A CRTP&#45;base that makes defining a custom alphabet easier.">
<polygon fill="white" stroke="black" points="166,-218.5 166,-259.5 286,-259.5 286,-218.5 166,-218.5"/>
<text text-anchor="start" x="174" y="-247.5" font-family="Helvetica,sans-Serif" font-size="10.00">bio::alphabet_base</text>
<text text-anchor="start" x="174" y="-236.5" font-family="Helvetica,sans-Serif" font-size="10.00">&lt; derived_type, size,</text>
<text text-anchor="middle" x="226" y="-225.5" font-family="Helvetica,sans-Serif" font-size="10.00"> char_t &gt;</text>
</a>
</g>
</g>
<!-- Node12&#45;&gt;Node11 -->
<g id="edge12" class="edge">
<title>Node12&#45;&gt;Node11</title>
<path fill="none" stroke="orange" stroke-dasharray="5,2" d="M296.33,-244.5C298.92,-244.67 301.48,-244.84 304,-245 421.32,-252.43 557.65,-258.58 639.93,-262.02"/>
<polygon fill="orange" stroke="orange" points="296.48,-241 286.26,-243.79 295.99,-247.98 296.48,-241"/>
<text text-anchor="start" x="313" y="-277" font-family="Helvetica,sans-Serif" font-size="10.00"> &lt; cigar,(1 *... *alphabet</text>
<text text-anchor="start" x="313" y="-266" font-family="Helvetica,sans-Serif" font-size="10.00">_size&lt; component_types</text>
<text text-anchor="middle" x="375" y="-255" font-family="Helvetica,sans-Serif" font-size="10.00"> &gt;), void &gt;</text>
</g>
<!-- Node14 -->
<g id="node14" class="node">
<title>Node14</title>
<g id="a_node14"><a xlink:href="classbio_1_1alphabet__base.html" target="_top" xlink:title=" ">
<polygon fill="white" stroke="black" points="464,-186 464,-238 622,-238 622,-186 464,-186"/>
<text text-anchor="start" x="472" y="-226" font-family="Helvetica,sans-Serif" font-size="10.00">bio::alphabet_base</text>
<text text-anchor="start" x="472" y="-215" font-family="Helvetica,sans-Serif" font-size="10.00">&lt; derived_type,(1 *...</text>
<text text-anchor="start" x="472" y="-204" font-family="Helvetica,sans-Serif" font-size="10.00"> *alphabet_size&lt; component</text>
<text text-anchor="middle" x="543" y="-193" font-family="Helvetica,sans-Serif" font-size="10.00">_types &gt;), void &gt;</text>
</a>
</g>
</g>
<!-- Node12&#45;&gt;Node14 -->
<g id="edge16" class="edge">
<title>Node12&#45;&gt;Node14</title>
<path fill="none" stroke="orange" stroke-dasharray="5,2" d="M287.82,-215.59C293.23,-214.14 298.68,-212.91 304,-212 356.75,-203.02 417.03,-203.12 463.73,-205.42"/>
<polygon fill="orange" stroke="orange" points="286.77,-212.25 278.14,-218.39 288.72,-218.97 286.77,-212.25"/>
<text text-anchor="start" x="304" y="-237" font-family="Helvetica,sans-Serif" font-size="10.00"> &lt; derived_type,(1 *...</text>
<text text-anchor="start" x="304" y="-226" font-family="Helvetica,sans-Serif" font-size="10.00"> *alphabet_size&lt; component</text>
<text text-anchor="middle" x="375" y="-215" font-family="Helvetica,sans-Serif" font-size="10.00">_types &gt;), void &gt;</text>
</g>
<!-- Node13&#45;&gt;Node10 -->
<g id="edge13" class="edge">
<title>Node13&#45;&gt;Node10</title>
<path fill="none" stroke="orange" stroke-dasharray="5,2" d="M942.68,-205.41C978.65,-202.59 1021.74,-199.2 1055.64,-196.54"/>
<polygon fill="orange" stroke="orange" points="941.95,-201.96 932.25,-206.23 942.5,-208.94 941.95,-201.96"/>
<text text-anchor="start" x="950" y="-218" font-family="Helvetica,sans-Serif" font-size="10.00"> &lt; cigar, uint32_t,</text>
<text text-anchor="middle" x="994" y="-207" font-family="Helvetica,sans-Serif" font-size="10.00"> cigar_op &gt;</text>
</g>
<!-- Node14&#45;&gt;Node13 -->
<g id="edge15" class="edge">
<title>Node14&#45;&gt;Node13</title>
<path fill="none" stroke="midnightblue" d="M632.64,-211.73C688.55,-211.56 759.3,-211.34 808.86,-211.19"/>
<polygon fill="midnightblue" stroke="midnightblue" points="632.37,-208.23 622.38,-211.76 632.39,-215.23 632.37,-208.23"/>
</g>
</g>
</svg>
