<?xml version="1.0" encoding="UTF-8" standalone="no"?>
<!DOCTYPE svg PUBLIC "-//W3C//DTD SVG 1.1//EN"
 "http://www.w3.org/Graphics/SVG/1.1/DTD/svg11.dtd">
<!-- Generated by graphviz version 2.43.0 (0)
 -->
<!-- Title: bio::alphabet::aa10li Pages: 1 -->
<!--zoomable 317 -->
<svg id="main" version="1.1" xmlns="http://www.w3.org/2000/svg" xmlns:xlink="http://www.w3.org/1999/xlink" xml:space="preserve" onload="init(evt)">
<style type="text/css"><![CDATA[
.edge:hover path { stroke: red; }
.edge:hover polygon { stroke: red; fill: red; }
]]></style>
<script type="text/javascript"><![CDATA[
var edges = document.getElementsByTagName('g');
if (edges && edges.length) {
  for (var i=0;i<edges.length;i++) {
    if (edges[i].id.substr(0,4)=='edge') {
      edges[i].setAttribute('class','edge');
    }
  }
}
]]></script>
        <defs>
                <circle id="rim" cx="0" cy="0" r="7"/>
                <circle id="rim2" cx="0" cy="0" r="3.5"/>
                <g id="zoomPlus">
                        <use xlink:href="#rim" fill="#404040">
                                <set attributeName="fill" to="#808080" begin="zoomplus.mouseover" end="zoomplus.mouseout"/>
                        </use>
                        <path d="M-4,0h8M0,-4v8" fill="none" stroke="white" stroke-width="1.5" pointer-events="none"/>
                </g>
                <g id="zoomMin">
                        <use xlink:href="#rim" fill="#404040">
                                <set attributeName="fill" to="#808080" begin="zoomminus.mouseover" end="zoomminus.mouseout"/>
                        </use>
                        <path d="M-4,0h8" fill="none" stroke="white" stroke-width="1.5" pointer-events="none"/>
                </g>
                <g id="dirArrow">
                        <path fill="none" stroke="white" stroke-width="1.5" d="M0,-3.0v7 M-2.5,-0.5L0,-3.0L2.5,-0.5"/>
                </g>
               <g id="resetDef">
                       <use xlink:href="#rim2" fill="#404040">
                               <set attributeName="fill" to="#808080" begin="reset.mouseover" end="reset.mouseout"/>
                       </use>
               </g>
        </defs>

<script type="text/javascript">
var viewWidth = 909;
var viewHeight = 317;
var sectionId = 'dynsection-0';
</script>
<script xlink:href="svgpan.js"/>
<svg id="graph" class="graph">
<g id="viewport">
<title>bio::alphabet::aa10li</title>
<!-- Node1 -->
<g id="node1" class="node">
<title>Node1</title>
<g id="a_node1"><a xlink:title="The reduced Li amino acid alphabet..">
<polygon fill="#999999" stroke="#666666" points="901,-194 797,-194 797,-175 901,-175 901,-194"/>
<text text-anchor="middle" x="849" y="-182" font-family="Helvetica,sans-Serif" font-size="10.00">bio::alphabet::aa10li</text>
</a>
</g>
</g>
<!-- Node2 -->
<g id="node2" class="node">
<title>Node2</title>
<g id="a_node2"><a xlink:title=" ">
<polygon fill="white" stroke="#bfbfbf" points="760,-309 638,-309 638,-290 760,-290 760,-309"/>
<text text-anchor="middle" x="699" y="-297" font-family="Helvetica,sans-Serif" font-size="10.00">bio::alphabet::aminoacid</text>
</a>
</g>
</g>
<!-- Node2&#45;&gt;Node1 -->
<g id="edge1" class="edge">
<title>Node2&#45;&gt;Node1</title>
<path fill="none" stroke="#63b8ff" d="M749.88,-286C753.4,-284.36 756.82,-282.53 760,-280.5 797.17,-256.79 828.77,-213.5 841.72,-194.22"/>
<polygon fill="#63b8ff" stroke="#63b8ff" points="748.27,-282.88 740.36,-289.93 750.94,-289.35 748.27,-282.88"/>
</g>
<!-- Node3 -->
<g id="node3" class="node">
<title>Node3</title>
<g id="a_node3"><a xlink:title=" ">
<polygon fill="white" stroke="#bfbfbf" points="755,-271.5 643,-271.5 643,-241.5 755,-241.5 755,-271.5"/>
<text text-anchor="start" x="651" y="-259.5" font-family="Helvetica,sans-Serif" font-size="10.00">bio::alphabet::writable</text>
<text text-anchor="middle" x="699" y="-248.5" font-family="Helvetica,sans-Serif" font-size="10.00">_alphabet</text>
</a>
</g>
</g>
<!-- Node3&#45;&gt;Node1 -->
<g id="edge2" class="edge">
<title>Node3&#45;&gt;Node1</title>
<path fill="none" stroke="#63b8ff" d="M749,-237.46C752.74,-235.84 756.45,-234.17 760,-232.5 785.67,-220.42 814.32,-204.26 831.76,-194.12"/>
<polygon fill="#63b8ff" stroke="#63b8ff" points="747.51,-234.29 739.66,-241.41 750.24,-240.74 747.51,-234.29"/>
</g>
<!-- Node4 -->
<g id="node4" class="node">
<title>Node4</title>
<g id="a_node4"><a xlink:title=" ">
<polygon fill="white" stroke="#bfbfbf" points="746,-223.5 652,-223.5 652,-193.5 746,-193.5 746,-223.5"/>
<text text-anchor="start" x="660" y="-211.5" font-family="Helvetica,sans-Serif" font-size="10.00">bio::meta::trivially</text>
<text text-anchor="middle" x="699" y="-200.5" font-family="Helvetica,sans-Serif" font-size="10.00">_copyable</text>
</a>
</g>
</g>
<!-- Node4&#45;&gt;Node1 -->
<g id="edge3" class="edge">
<title>Node4&#45;&gt;Node1</title>
<path fill="none" stroke="#63b8ff" d="M756.07,-199.41C769.46,-197.24 783.69,-194.93 796.86,-192.79"/>
<polygon fill="#63b8ff" stroke="#63b8ff" points="755.33,-195.98 746.02,-201.04 756.45,-202.89 755.33,-195.98"/>
</g>
<!-- Node5 -->
<g id="node5" class="node">
<title>Node5</title>
<g id="a_node5"><a xlink:title=" ">
<polygon fill="white" stroke="#bfbfbf" points="749.5,-175.5 648.5,-175.5 648.5,-145.5 749.5,-145.5 749.5,-175.5"/>
<text text-anchor="start" x="656.5" y="-163.5" font-family="Helvetica,sans-Serif" font-size="10.00">bio::meta::standard</text>
<text text-anchor="middle" x="699" y="-152.5" font-family="Helvetica,sans-Serif" font-size="10.00">_layout</text>
</a>
</g>
</g>
<!-- Node5&#45;&gt;Node1 -->
<g id="edge4" class="edge">
<title>Node5&#45;&gt;Node1</title>
<path fill="none" stroke="#63b8ff" d="M759.86,-170.21C772.15,-172.2 784.98,-174.28 796.92,-176.22"/>
<polygon fill="#63b8ff" stroke="#63b8ff" points="760.12,-166.7 749.69,-168.56 759,-173.61 760.12,-166.7"/>
</g>
<!-- Node6 -->
<g id="node6" class="node">
<title>Node6</title>
<g id="a_node6"><a xlink:title=" ">
<polygon fill="white" stroke="#bfbfbf" points="731.5,-127 666.5,-127 666.5,-108 731.5,-108 731.5,-127"/>
<text text-anchor="middle" x="699" y="-115" font-family="Helvetica,sans-Serif" font-size="10.00">std::regular</text>
</a>
</g>
</g>
<!-- Node6&#45;&gt;Node1 -->
<g id="edge5" class="edge">
<title>Node6&#45;&gt;Node1</title>
<path fill="none" stroke="#63b8ff" d="M741.35,-129.44C747.67,-131.59 754.06,-133.97 760,-136.5 786.41,-147.76 815.34,-164.45 832.56,-174.89"/>
<polygon fill="#63b8ff" stroke="#63b8ff" points="742.15,-126.02 731.56,-126.24 739.98,-132.67 742.15,-126.02"/>
</g>
<!-- Node7 -->
<g id="node7" class="node">
<title>Node7</title>
<g id="a_node7"><a xlink:href="classbio_1_1alphabet_1_1aminoacid__base.html" target="_top" xlink:title=" ">
<polygon fill="white" stroke="#666666" points="760,-89.5 638,-89.5 638,-59.5 760,-59.5 760,-89.5"/>
<text text-anchor="start" x="646" y="-77.5" font-family="Helvetica,sans-Serif" font-size="10.00">bio::alphabet::aminoacid</text>
<text text-anchor="middle" x="699" y="-66.5" font-family="Helvetica,sans-Serif" font-size="10.00">_base&lt; aa10li, 10 &gt;</text>
</a>
</g>
</g>
<!-- Node7&#45;&gt;Node1 -->
<g id="edge6" class="edge">
<title>Node7&#45;&gt;Node1</title>
<path fill="none" stroke="#63b8ff" d="M750.98,-94.13C754.1,-95.82 757.13,-97.61 760,-99.5 793.73,-121.67 825.86,-157.75 840.19,-174.88"/>
<polygon fill="#63b8ff" stroke="#63b8ff" points="752.53,-91 742.02,-89.63 749.39,-97.25 752.53,-91"/>
</g>
<!-- Node8 -->
<g id="node8" class="node">
<title>Node8</title>
<g id="a_node8"><a xlink:href="structbio_1_1alphabet_1_1aminoacid__empty__base.html" target="_top" xlink:title="This is an empty base class that can be inherited by types that shall model bio::alphabet::aminoacid.">
<polygon fill="white" stroke="#666666" points="361,-132.5 239,-132.5 239,-102.5 361,-102.5 361,-132.5"/>
<text text-anchor="start" x="247" y="-120.5" font-family="Helvetica,sans-Serif" font-size="10.00">bio::alphabet::aminoacid</text>
<text text-anchor="middle" x="300" y="-109.5" font-family="Helvetica,sans-Serif" font-size="10.00">_empty_base</text>
</a>
</g>
</g>
<!-- Node8&#45;&gt;Node7 -->
<g id="edge7" class="edge">
<title>Node8&#45;&gt;Node7</title>
<path fill="none" stroke="#63b8ff" d="M371.34,-113.84C436.18,-109.88 534.94,-102.32 620,-89.5 625.73,-88.64 631.67,-87.65 637.62,-86.61"/>
<polygon fill="#63b8ff" stroke="#63b8ff" points="371.01,-110.36 361.23,-114.45 371.43,-117.34 371.01,-110.36"/>
</g>
<!-- Node10 -->
<g id="node10" class="node">
<title>Node10</title>
<g id="a_node10"><a xlink:href="classbio_1_1alphabet_1_1aminoacid__base.html" target="_top" xlink:title="A CRTP&#45;base that refines bio::alphabet::base and is used by the amino acids.">
<polygon fill="white" stroke="#666666" points="538,-89.5 398,-89.5 398,-59.5 538,-59.5 538,-89.5"/>
<text text-anchor="start" x="406" y="-77.5" font-family="Helvetica,sans-Serif" font-size="10.00">bio::alphabet::aminoacid</text>
<text text-anchor="middle" x="468" y="-66.5" font-family="Helvetica,sans-Serif" font-size="10.00">_base&lt; derived_type, size &gt;</text>
</a>
</g>
</g>
<!-- Node8&#45;&gt;Node10 -->
<g id="edge10" class="edge">
<title>Node8&#45;&gt;Node10</title>
<path fill="none" stroke="#63b8ff" d="M369.06,-99.87C382.31,-96.44 396.09,-92.87 408.97,-89.53"/>
<polygon fill="#63b8ff" stroke="#63b8ff" points="367.86,-96.56 359.06,-102.46 369.62,-103.34 367.86,-96.56"/>
</g>
<!-- Node9 -->
<g id="node9" class="node">
<title>Node9</title>
<g id="a_node9"><a xlink:href="classbio_1_1alphabet_1_1base.html" target="_top" xlink:title="A CRTP&#45;base that makes defining a custom alphabet easier.">
<polygon fill="white" stroke="#666666" points="522,-41 414,-41 414,0 522,0 522,-41"/>
<text text-anchor="start" x="422" y="-29" font-family="Helvetica,sans-Serif" font-size="10.00">bio::alphabet::base</text>
<text text-anchor="start" x="422" y="-18" font-family="Helvetica,sans-Serif" font-size="10.00">&lt; derived_type, size,</text>
<text text-anchor="middle" x="468" y="-7" font-family="Helvetica,sans-Serif" font-size="10.00"> char_t &gt;</text>
</a>
</g>
</g>
<!-- Node9&#45;&gt;Node7 -->
<g id="edge8" class="edge">
<title>Node9&#45;&gt;Node7</title>
<path fill="none" stroke="#63b8ff" d="M532.11,-35.38C565.13,-43.17 605.34,-52.65 637.91,-60.33"/>
<polygon fill="#63b8ff" stroke="#63b8ff" points="532.65,-31.91 522.11,-33.02 531.04,-38.73 532.65,-31.91"/>
</g>
<!-- Node10&#45;&gt;Node7 -->
<g id="edge9" class="edge">
<title>Node10&#45;&gt;Node7</title>
<path fill="none" stroke="orange" stroke-dasharray="5,2" d="M548.23,-74.5C577.55,-74.5 610.29,-74.5 637.66,-74.5"/>
<polygon fill="orange" stroke="orange" points="548.02,-71 538.02,-74.5 548.02,-78 548.02,-71"/>
<text text-anchor="middle" x="588" y="-77.5" font-family="Helvetica,sans-Serif" font-size="10.00"> &lt; aa10li, 10 &gt;</text>
</g>
<!-- Node11 -->
<g id="node11" class="node">
<title>Node11</title>
<g id="a_node11"><a xlink:href="classbio_1_1alphabet_1_1base.html" target="_top" xlink:title=" ">
<polygon fill="white" stroke="#666666" points="354,-84 246,-84 246,-43 354,-43 354,-84"/>
<text text-anchor="start" x="254" y="-72" font-family="Helvetica,sans-Serif" font-size="10.00">bio::alphabet::base</text>
<text text-anchor="start" x="254" y="-61" font-family="Helvetica,sans-Serif" font-size="10.00">&lt; derived_type, size,</text>
<text text-anchor="middle" x="300" y="-50" font-family="Helvetica,sans-Serif" font-size="10.00"> char &gt;</text>
</a>
</g>
</g>
<!-- Node11&#45;&gt;Node10 -->
<g id="edge11" class="edge">
<title>Node11&#45;&gt;Node10</title>
<path fill="none" stroke="#63b8ff" d="M364.69,-67.72C375.55,-68.44 386.89,-69.19 397.89,-69.92"/>
<polygon fill="#63b8ff" stroke="#63b8ff" points="364.65,-64.21 354.44,-67.04 364.18,-71.19 364.65,-64.21"/>
</g>
<!-- Node12 -->
<g id="node12" class="node">
<title>Node12</title>
<g id="a_node12"><a xlink:href="classbio_1_1alphabet_1_1base.html" target="_top" xlink:title="A CRTP&#45;base that makes defining a custom alphabet easier.">
<polygon fill="white" stroke="#666666" points="108,-84 0,-84 0,-43 108,-43 108,-84"/>
<text text-anchor="start" x="8" y="-72" font-family="Helvetica,sans-Serif" font-size="10.00">bio::alphabet::base</text>
<text text-anchor="start" x="8" y="-61" font-family="Helvetica,sans-Serif" font-size="10.00">&lt; derived_type, size,</text>
<text text-anchor="middle" x="54" y="-50" font-family="Helvetica,sans-Serif" font-size="10.00"> char_t &gt;</text>
</a>
</g>
</g>
<!-- Node12&#45;&gt;Node11 -->
<g id="edge12" class="edge">
<title>Node12&#45;&gt;Node11</title>
<path fill="none" stroke="orange" stroke-dasharray="5,2" d="M118.33,-63.5C157.93,-63.5 208.36,-63.5 245.87,-63.5"/>
<polygon fill="orange" stroke="orange" points="118.25,-60 108.25,-63.5 118.25,-67 118.25,-60"/>
<text text-anchor="start" x="126" y="-77.5" font-family="Helvetica,sans-Serif" font-size="10.00"> &lt; derived_type, size,</text>
<text text-anchor="middle" x="173.5" y="-66.5" font-family="Helvetica,sans-Serif" font-size="10.00"> char &gt;</text>
</g>
</g>
</svg>
        <g id="navigator" transform="translate(0 0)" fill="#404254">
                <rect fill="#f2f5e9" fill-opacity="0.5" stroke="#606060" stroke-width=".5" x="0" y="0" width="60" height="60"/>
                <use id="zoomplus" xlink:href="#zoomPlus" x="17" y="9" onmousedown="handleZoom(evt,'in')"/>
                <use id="zoomminus" xlink:href="#zoomMin" x="42" y="9" onmousedown="handleZoom(evt,'out')"/>
                <use id="reset" xlink:href="#resetDef" x="30" y="36" onmousedown="handleReset()"/>
                <g id="arrowUp" xlink:href="#dirArrow" transform="translate(30 24)" onmousedown="handlePan(0,-1)">
                  <use xlink:href="#rim" fill="#404040">
                        <set attributeName="fill" to="#808080" begin="arrowUp.mouseover" end="arrowUp.mouseout"/>
                  </use>
                  <path fill="none" stroke="white" stroke-width="1.5" d="M0,-3.0v7 M-2.5,-0.5L0,-3.0L2.5,-0.5"/>
                </g>
                <g id="arrowRight" xlink:href="#dirArrow" transform="rotate(90) translate(36 -43)" onmousedown="handlePan(1,0)">
                  <use xlink:href="#rim" fill="#404040">
                        <set attributeName="fill" to="#808080" begin="arrowRight.mouseover" end="arrowRight.mouseout"/>
                  </use>
                  <path fill="none" stroke="white" stroke-width="1.5" d="M0,-3.0v7 M-2.5,-0.5L0,-3.0L2.5,-0.5"/>
                </g>
                <g id="arrowDown" xlink:href="#dirArrow" transform="rotate(180) translate(-30 -48)" onmousedown="handlePan(0,1)">
                  <use xlink:href="#rim" fill="#404040">
                        <set attributeName="fill" to="#808080" begin="arrowDown.mouseover" end="arrowDown.mouseout"/>
                  </use>
                  <path fill="none" stroke="white" stroke-width="1.5" d="M0,-3.0v7 M-2.5,-0.5L0,-3.0L2.5,-0.5"/>
                </g>
                <g id="arrowLeft" xlink:href="#dirArrow" transform="rotate(270) translate(-36 17)" onmousedown="handlePan(-1,0)">
                  <use xlink:href="#rim" fill="#404040">
                        <set attributeName="fill" to="#808080" begin="arrowLeft.mouseover" end="arrowLeft.mouseout"/>
                  </use>
                  <path fill="none" stroke="white" stroke-width="1.5" d="M0,-3.0v7 M-2.5,-0.5L0,-3.0L2.5,-0.5"/>
                </g>
        </g>
        <svg viewBox="0 0 15 15" width="100%" height="30px" preserveAspectRatio="xMaxYMin meet">
         <g id="arrow_out" transform="scale(0.3 0.3)">
          <a xlink:href="classbio_1_1alphabet_1_1aa10li__inherit__graph_org.svg" target="_base">
           <rect id="button" ry="5" rx="5" y="6" x="6" height="38" width="38"
                fill="#f2f5e9" fill-opacity="0.5" stroke="#606060" stroke-width="1.0"/>
           <path id="arrow"
             d="M 11.500037,31.436501 C 11.940474,20.09759 22.043105,11.32322 32.158766,21.979434 L 37.068811,17.246167 C 37.068811,17.246167 37.088388,32 37.088388,32 L 22.160133,31.978069 C 22.160133,31.978069 26.997745,27.140456 26.997745,27.140456 C 18.528582,18.264221 13.291696,25.230495 11.500037,31.436501 z"
             style="fill:#404040;"/>
          </a>
         </g>
        </svg>
</svg>
