<?xml version="1.0" encoding="UTF-8" standalone="no"?>
<!DOCTYPE svg PUBLIC "-//W3C//DTD SVG 1.1//EN"
 "http://www.w3.org/Graphics/SVG/1.1/DTD/svg11.dtd">
<!-- Generated by graphviz version 2.42.2 ()
 -->
<!-- Title: bio::alphabet::semialphabet_any&lt; size_ &gt; Pages: 1 -->
<svg width="586pt" height="202pt"
 viewBox="0.00 0.00 586.00 202.00" xmlns="http://www.w3.org/2000/svg" xmlns:xlink="http://www.w3.org/1999/xlink">
<g id="graph0" class="graph" transform="scale(1 1) rotate(0) translate(4 198)">
<title>bio::alphabet::semialphabet_any&lt; size_ &gt;</title>
<polygon fill="white" stroke="transparent" points="-4,4 -4,-198 582,-198 582,4 -4,4"/>
<!-- Node1 -->
<g id="node1" class="node">
<title>Node1</title>
<g id="a_node1"><a xlink:title="A semi&#45;alphabet that type erases all other semi&#45;alphabets of the same size.">
<polygon fill="#bfbfbf" stroke="black" points="442,-67 442,-97 578,-97 578,-67 442,-67"/>
<text text-anchor="start" x="450" y="-85" font-family="Helvetica,sans-Serif" font-size="10.00">bio::alphabet::semialphabet</text>
<text text-anchor="middle" x="510" y="-74" font-family="Helvetica,sans-Serif" font-size="10.00">_any&lt; size_ &gt;</text>
</a>
</g>
</g>
<!-- Node2 -->
<g id="node2" class="node">
<title>Node2</title>
<g id="a_node2"><a xlink:href="interfacebio_1_1alphabet_1_1semialphabet.html" target="_top" xlink:title="The basis for bio::alphabet::alphabet, but requires only rank interface (not char).">
<polygon fill="white" stroke="black" points="302.5,-136.5 302.5,-155.5 376.5,-155.5 376.5,-136.5 302.5,-136.5"/>
<text text-anchor="middle" x="339.5" y="-143.5" font-family="Helvetica,sans-Serif" font-size="10.00">semialphabet</text>
</a>
</g>
</g>
<!-- Node2&#45;&gt;Node1 -->
<g id="edge1" class="edge">
<title>Node2&#45;&gt;Node1</title>
<path fill="none" stroke="midnightblue" d="M385.91,-133.38C392.36,-131.37 398.88,-129.22 405,-127 429.6,-118.09 456.71,-106.29 477.08,-97.01"/>
<polygon fill="midnightblue" stroke="midnightblue" points="384.46,-130.17 375.9,-136.42 386.49,-136.86 384.46,-130.17"/>
</g>
<!-- Node3 -->
<g id="node3" class="node">
<title>Node3</title>
<g id="a_node3"><a xlink:title=" ">
<polygon fill="white" stroke="#bfbfbf" points="17,-174.5 17,-193.5 117,-193.5 117,-174.5 17,-174.5"/>
<text text-anchor="middle" x="67" y="-181.5" font-family="Helvetica,sans-Serif" font-size="10.00">std::totally_ordered</text>
</a>
</g>
</g>
<!-- Node3&#45;&gt;Node2 -->
<g id="edge2" class="edge">
<title>Node3&#45;&gt;Node2</title>
<path fill="none" stroke="midnightblue" d="M127.29,-177.06C164.34,-172.57 213.01,-166.39 256,-160 271.23,-157.74 287.99,-154.95 302.41,-152.46"/>
<polygon fill="midnightblue" stroke="midnightblue" points="126.67,-173.61 117.16,-178.29 127.51,-180.56 126.67,-173.61"/>
</g>
<!-- Node4 -->
<g id="node4" class="node">
<title>Node4</title>
<g id="a_node4"><a xlink:title=" ">
<polygon fill="white" stroke="#bfbfbf" points="8,-136.5 8,-155.5 126,-155.5 126,-136.5 8,-136.5"/>
<text text-anchor="middle" x="67" y="-143.5" font-family="Helvetica,sans-Serif" font-size="10.00">std::copy_constructible</text>
</a>
</g>
</g>
<!-- Node4&#45;&gt;Node2 -->
<g id="edge3" class="edge">
<title>Node4&#45;&gt;Node2</title>
<path fill="none" stroke="midnightblue" d="M136.31,-146C189,-146 259.81,-146 302.13,-146"/>
<polygon fill="midnightblue" stroke="midnightblue" points="136.03,-142.5 126.03,-146 136.03,-149.5 136.03,-142.5"/>
</g>
<!-- Node5 -->
<g id="node5" class="node">
<title>Node5</title>
<g id="a_node5"><a xlink:href="interfacebio_1_1meta_1_1trivially__copyable.html" target="_top" xlink:title="A type that satisfies std::is_trivially_copyable_v&lt;t&gt;.">
<polygon fill="white" stroke="black" points="293.5,-98.5 293.5,-117.5 385.5,-117.5 385.5,-98.5 293.5,-98.5"/>
<text text-anchor="middle" x="339.5" y="-105.5" font-family="Helvetica,sans-Serif" font-size="10.00">trivially_copyable</text>
</a>
</g>
</g>
<!-- Node5&#45;&gt;Node1 -->
<g id="edge4" class="edge">
<title>Node5&#45;&gt;Node1</title>
<path fill="none" stroke="midnightblue" d="M395.63,-99.49C410.39,-97.22 426.51,-94.73 441.85,-92.36"/>
<polygon fill="midnightblue" stroke="midnightblue" points="395,-96.05 385.65,-101.03 396.07,-102.97 395,-96.05"/>
</g>
<!-- Node6 -->
<g id="node6" class="node">
<title>Node6</title>
<g id="a_node6"><a xlink:title=" ">
<polygon fill="white" stroke="#bfbfbf" points="29.5,-98.5 29.5,-117.5 104.5,-117.5 104.5,-98.5 29.5,-98.5"/>
<text text-anchor="middle" x="67" y="-105.5" font-family="Helvetica,sans-Serif" font-size="10.00">std::copyable</text>
</a>
</g>
</g>
<!-- Node6&#45;&gt;Node5 -->
<g id="edge5" class="edge">
<title>Node6&#45;&gt;Node5</title>
<path fill="none" stroke="midnightblue" d="M114.99,-108C165.08,-108 243.84,-108 293.25,-108"/>
<polygon fill="midnightblue" stroke="midnightblue" points="114.76,-104.5 104.76,-108 114.76,-111.5 114.76,-104.5"/>
</g>
<!-- Node7 -->
<g id="node7" class="node">
<title>Node7</title>
<g id="a_node7"><a xlink:href="interfacebio_1_1meta_1_1standard__layout.html" target="_top" xlink:title="Resolves to std::is_standard_layout_v&lt;t&gt;.">
<polygon fill="white" stroke="black" points="296.5,-60.5 296.5,-79.5 382.5,-79.5 382.5,-60.5 296.5,-60.5"/>
<text text-anchor="middle" x="339.5" y="-67.5" font-family="Helvetica,sans-Serif" font-size="10.00">standard_layout</text>
</a>
</g>
</g>
<!-- Node7&#45;&gt;Node1 -->
<g id="edge6" class="edge">
<title>Node7&#45;&gt;Node1</title>
<path fill="none" stroke="midnightblue" d="M393,-73.74C408.49,-74.84 425.65,-76.06 441.91,-77.22"/>
<polygon fill="midnightblue" stroke="midnightblue" points="392.81,-70.22 382.59,-73 392.31,-77.2 392.81,-70.22"/>
</g>
<!-- Node8 -->
<g id="node8" class="node">
<title>Node8</title>
<g id="a_node8"><a xlink:href="classbio_1_1alphabet_1_1alphabet__base.html" target="_top" xlink:title=" ">
<polygon fill="white" stroke="black" points="274,-0.5 274,-41.5 405,-41.5 405,-0.5 274,-0.5"/>
<text text-anchor="start" x="282" y="-29.5" font-family="Helvetica,sans-Serif" font-size="10.00">bio::alphabet::alphabet</text>
<text text-anchor="start" x="282" y="-18.5" font-family="Helvetica,sans-Serif" font-size="10.00">_base&lt; semialphabet_any</text>
<text text-anchor="middle" x="339.5" y="-7.5" font-family="Helvetica,sans-Serif" font-size="10.00">&lt; size_ &gt;, size_, void &gt;</text>
</a>
</g>
</g>
<!-- Node8&#45;&gt;Node1 -->
<g id="edge7" class="edge">
<title>Node8&#45;&gt;Node1</title>
<path fill="none" stroke="midnightblue" d="M407.09,-45.11C427.46,-52.48 449.26,-60.37 467.46,-66.96"/>
<polygon fill="midnightblue" stroke="midnightblue" points="408.14,-41.76 397.55,-41.65 405.76,-48.35 408.14,-41.76"/>
</g>
<!-- Node9 -->
<g id="node9" class="node">
<title>Node9</title>
<g id="a_node9"><a xlink:href="classbio_1_1alphabet_1_1alphabet__base.html" target="_top" xlink:title="A CRTP&#45;base that makes defining a custom alphabet easier.">
<polygon fill="white" stroke="black" points="0,-0.5 0,-41.5 134,-41.5 134,-0.5 0,-0.5"/>
<text text-anchor="start" x="8" y="-29.5" font-family="Helvetica,sans-Serif" font-size="10.00">bio::alphabet::alphabet</text>
<text text-anchor="start" x="8" y="-18.5" font-family="Helvetica,sans-Serif" font-size="10.00">_base&lt; derived_type, size,</text>
<text text-anchor="middle" x="67" y="-7.5" font-family="Helvetica,sans-Serif" font-size="10.00"> char_t &gt;</text>
</a>
</g>
</g>
<!-- Node9&#45;&gt;Node8 -->
<g id="edge8" class="edge">
<title>Node9&#45;&gt;Node8</title>
<path fill="none" stroke="orange" stroke-dasharray="5,2" d="M144.36,-21C185.23,-21 235.02,-21 273.94,-21"/>
<polygon fill="orange" stroke="orange" points="144.17,-17.5 134.17,-21 144.17,-24.5 144.17,-17.5"/>
<text text-anchor="start" x="152" y="-35" font-family="Helvetica,sans-Serif" font-size="10.00"> &lt; semialphabet_any</text>
<text text-anchor="middle" x="204" y="-24" font-family="Helvetica,sans-Serif" font-size="10.00">&lt; size_ &gt;, size_, void &gt;</text>
</g>
</g>
</svg>
