<?xml version="1.0" encoding="UTF-8" standalone="no"?>
<!DOCTYPE svg PUBLIC "-//W3C//DTD SVG 1.1//EN"
 "http://www.w3.org/Graphics/SVG/1.1/DTD/svg11.dtd">
<!-- Generated by graphviz version 2.43.0 (0)
 -->
<!-- Title: bio::alphabet::alphabet_tuple_base&lt; derived_type, component_types &gt; Pages: 1 -->
<!--zoomable 207 -->
<svg id="main" version="1.1" xmlns="http://www.w3.org/2000/svg" xmlns:xlink="http://www.w3.org/1999/xlink" xml:space="preserve" onload="init(evt)">
<style type="text/css"><![CDATA[
.edge:hover path { stroke: red; }
.edge:hover polygon { stroke: red; fill: red; }
]]></style>
<script type="text/javascript"><![CDATA[
var edges = document.getElementsByTagName('g');
if (edges && edges.length) {
  for (var i=0;i<edges.length;i++) {
    if (edges[i].id.substr(0,4)=='edge') {
      edges[i].setAttribute('class','edge');
    }
  }
}
]]></script>
        <defs>
                <circle id="rim" cx="0" cy="0" r="7"/>
                <circle id="rim2" cx="0" cy="0" r="3.5"/>
                <g id="zoomPlus">
                        <use xlink:href="#rim" fill="#404040">
                                <set attributeName="fill" to="#808080" begin="zoomplus.mouseover" end="zoomplus.mouseout"/>
                        </use>
                        <path d="M-4,0h8M0,-4v8" fill="none" stroke="white" stroke-width="1.5" pointer-events="none"/>
                </g>
                <g id="zoomMin">
                        <use xlink:href="#rim" fill="#404040">
                                <set attributeName="fill" to="#808080" begin="zoomminus.mouseover" end="zoomminus.mouseout"/>
                        </use>
                        <path d="M-4,0h8" fill="none" stroke="white" stroke-width="1.5" pointer-events="none"/>
                </g>
                <g id="dirArrow">
                        <path fill="none" stroke="white" stroke-width="1.5" d="M0,-3.0v7 M-2.5,-0.5L0,-3.0L2.5,-0.5"/>
                </g>
               <g id="resetDef">
                       <use xlink:href="#rim2" fill="#404040">
                               <set attributeName="fill" to="#808080" begin="reset.mouseover" end="reset.mouseout"/>
                       </use>
               </g>
        </defs>

<script type="text/javascript">
var viewWidth = 1376;
var viewHeight = 207;
var sectionId = 'dynsection-0';
</script>
<script xlink:href="svgpan.js"/>
<svg id="graph" class="graph">
<g id="viewport">
<title>bio::alphabet::alphabet_tuple_base&lt; derived_type, component_types &gt;</title>
<polygon fill="white" stroke="transparent" points="-4,4 -4,-203 1372,-203 1372,4 -4,4"/>
<!-- Node1 -->
<g id="node1" class="node">
<title>Node1</title>
<g id="a_node1"><a xlink:title="The CRTP base for a combined alphabet that contains multiple values of different alphabets at the sam...">
<polygon fill="#bfbfbf" stroke="black" points="648,-71.5 648,-112.5 801,-112.5 801,-71.5 648,-71.5"/>
<text text-anchor="start" x="656" y="-100.5" font-family="Helvetica,sans-Serif" font-size="10.00">bio::alphabet::alphabet</text>
<text text-anchor="start" x="656" y="-89.5" font-family="Helvetica,sans-Serif" font-size="10.00">_tuple_base&lt; derived_type,</text>
<text text-anchor="middle" x="724.5" y="-78.5" font-family="Helvetica,sans-Serif" font-size="10.00"> component_types &gt;</text>
</a>
</g>
</g>
<!-- Node8 -->
<g id="node8" class="node">
<title>Node8</title>
<g id="a_node8"><a xlink:href="classbio_1_1alphabet_1_1alphabet__tuple__base.html" target="_top" xlink:title=" ">
<polygon fill="white" stroke="black" points="1003,-143 1003,-195 1188,-195 1188,-143 1003,-143"/>
<text text-anchor="start" x="1011" y="-183" font-family="Helvetica,sans-Serif" font-size="10.00">bio::alphabet::alphabet</text>
<text text-anchor="start" x="1011" y="-172" font-family="Helvetica,sans-Serif" font-size="10.00">_tuple_base&lt; masked&lt; sequence</text>
<text text-anchor="start" x="1011" y="-161" font-family="Helvetica,sans-Serif" font-size="10.00">_alphabet_t &gt;, sequence_alphabet</text>
<text text-anchor="middle" x="1095.5" y="-150" font-family="Helvetica,sans-Serif" font-size="10.00">_t, mask &gt;</text>
</a>
</g>
</g>
<!-- Node1&#45;&gt;Node8 -->
<g id="edge7" class="edge">
<title>Node1&#45;&gt;Node8</title>
<path fill="none" stroke="orange" stroke-dasharray="5,2" d="M767.33,-117.66C783.01,-126.13 801.31,-134.73 819,-140 878.69,-157.78 948.49,-165 1002.89,-167.78"/>
<polygon fill="orange" stroke="orange" points="768.87,-114.51 758.43,-112.71 765.47,-120.63 768.87,-114.51"/>
<text text-anchor="start" x="841.5" y="-191" font-family="Helvetica,sans-Serif" font-size="10.00"> &lt; masked&lt; sequence</text>
<text text-anchor="start" x="841.5" y="-180" font-family="Helvetica,sans-Serif" font-size="10.00">_alphabet_t &gt;, sequence</text>
<text text-anchor="middle" x="902" y="-169" font-family="Helvetica,sans-Serif" font-size="10.00">_alphabet_t, mask &gt;</text>
</g>
<!-- Node10 -->
<g id="node10" class="node">
<title>Node10</title>
<g id="a_node10"><a xlink:href="classbio_1_1alphabet_1_1alphabet__tuple__base.html" target="_top" xlink:title=" ">
<polygon fill="white" stroke="black" points="1004.5,-60.5 1004.5,-123.5 1186.5,-123.5 1186.5,-60.5 1004.5,-60.5"/>
<text text-anchor="start" x="1012.5" y="-111.5" font-family="Helvetica,sans-Serif" font-size="10.00">bio::alphabet::alphabet</text>
<text text-anchor="start" x="1012.5" y="-100.5" font-family="Helvetica,sans-Serif" font-size="10.00">_tuple_base&lt; qualified</text>
<text text-anchor="start" x="1012.5" y="-89.5" font-family="Helvetica,sans-Serif" font-size="10.00">&lt; sequence_alphabet_t,</text>
<text text-anchor="start" x="1012.5" y="-78.5" font-family="Helvetica,sans-Serif" font-size="10.00"> quality_alphabet_t &gt;, sequence</text>
<text text-anchor="middle" x="1095.5" y="-67.5" font-family="Helvetica,sans-Serif" font-size="10.00">_alphabet_t, quality_alphabet_t &gt;</text>
</a>
</g>
</g>
<!-- Node1&#45;&gt;Node10 -->
<g id="edge9" class="edge">
<title>Node1&#45;&gt;Node10</title>
<path fill="none" stroke="orange" stroke-dasharray="5,2" d="M811.29,-92C869.23,-92 945.56,-92 1004.38,-92"/>
<polygon fill="orange" stroke="orange" points="811.06,-88.5 801.06,-92 811.06,-95.5 811.06,-88.5"/>
<text text-anchor="start" x="819" y="-128" font-family="Helvetica,sans-Serif" font-size="10.00"> &lt; qualified&lt; sequence</text>
<text text-anchor="start" x="819" y="-117" font-family="Helvetica,sans-Serif" font-size="10.00">_alphabet_t, quality</text>
<text text-anchor="start" x="819" y="-106" font-family="Helvetica,sans-Serif" font-size="10.00">_alphabet_t &gt;, sequence</text>
<text text-anchor="middle" x="902" y="-95" font-family="Helvetica,sans-Serif" font-size="10.00">_alphabet_t, quality_alphabet_t &gt;</text>
</g>
<!-- Node12 -->
<g id="node12" class="node">
<title>Node12</title>
<g id="a_node12"><a xlink:href="classbio_1_1alphabet_1_1alphabet__tuple__base.html" target="_top" xlink:title=" ">
<polygon fill="white" stroke="black" points="1022,-0.5 1022,-41.5 1169,-41.5 1169,-0.5 1022,-0.5"/>
<text text-anchor="start" x="1030" y="-29.5" font-family="Helvetica,sans-Serif" font-size="10.00">bio::alphabet::alphabet</text>
<text text-anchor="start" x="1030" y="-18.5" font-family="Helvetica,sans-Serif" font-size="10.00">_tuple_base&lt; cigar, uint32</text>
<text text-anchor="middle" x="1095.5" y="-7.5" font-family="Helvetica,sans-Serif" font-size="10.00">_t, cigar_op &gt;</text>
</a>
</g>
</g>
<!-- Node1&#45;&gt;Node12 -->
<g id="edge11" class="edge">
<title>Node1&#45;&gt;Node12</title>
<path fill="none" stroke="orange" stroke-dasharray="5,2" d="M806.29,-68.94C810.58,-67.91 814.83,-66.92 819,-66 887.28,-50.98 966.08,-38.6 1021.87,-30.65"/>
<polygon fill="orange" stroke="orange" points="805.11,-65.63 796.26,-71.45 806.81,-72.42 805.11,-65.63"/>
<text text-anchor="start" x="858" y="-80" font-family="Helvetica,sans-Serif" font-size="10.00"> &lt; cigar, uint32_t,</text>
<text text-anchor="middle" x="902" y="-69" font-family="Helvetica,sans-Serif" font-size="10.00"> cigar_op &gt;</text>
</g>
<!-- Node2 -->
<g id="node2" class="node">
<title>Node2</title>
<g id="a_node2"><a xlink:href="interfacebio_1_1alphabet_1_1writable__semialphabet.html" target="_top" xlink:title="A refinement of bio::alphabet::semialphabet that adds assignability.">
<polygon fill="white" stroke="black" points="480.5,-110.5 480.5,-129.5 608.5,-129.5 608.5,-110.5 480.5,-110.5"/>
<text text-anchor="middle" x="544.5" y="-117.5" font-family="Helvetica,sans-Serif" font-size="10.00">writable_semialphabet</text>
</a>
</g>
</g>
<!-- Node2&#45;&gt;Node1 -->
<g id="edge1" class="edge">
<title>Node2&#45;&gt;Node1</title>
<path fill="none" stroke="midnightblue" d="M616.14,-108.89C626.58,-107.25 637.37,-105.55 647.9,-103.89"/>
<polygon fill="midnightblue" stroke="midnightblue" points="615.59,-105.43 606.26,-110.44 616.68,-112.35 615.59,-105.43"/>
</g>
<!-- Node3 -->
<g id="node3" class="node">
<title>Node3</title>
<g id="a_node3"><a xlink:href="interfacebio_1_1alphabet_1_1semialphabet.html" target="_top" xlink:title="The basis for bio::alphabet::alphabet, but requires only rank interface (not char).">
<polygon fill="white" stroke="black" points="199,-110.5 199,-129.5 282,-129.5 282,-110.5 199,-110.5"/>
<text text-anchor="middle" x="240.5" y="-117.5" font-family="Helvetica,sans-Serif" font-size="10.00">semialphabet</text>
</a>
</g>
</g>
<!-- Node3&#45;&gt;Node2 -->
<g id="edge2" class="edge">
<title>Node3&#45;&gt;Node2</title>
<path fill="none" stroke="midnightblue" d="M292.51,-120C344.28,-120 424.55,-120 480.32,-120"/>
<polygon fill="midnightblue" stroke="midnightblue" points="292.23,-116.5 282.23,-120 292.23,-123.5 292.23,-116.5"/>
</g>
<!-- Node4 -->
<g id="node4" class="node">
<title>Node4</title>
<g id="a_node4"><a xlink:title=" ">
<polygon fill="white" stroke="#bfbfbf" points="8.5,-129.5 8.5,-148.5 120.5,-148.5 120.5,-129.5 8.5,-129.5"/>
<text text-anchor="middle" x="64.5" y="-136.5" font-family="Helvetica,sans-Serif" font-size="10.00">std::totally_ordered</text>
</a>
</g>
</g>
<!-- Node4&#45;&gt;Node3 -->
<g id="edge3" class="edge">
<title>Node4&#45;&gt;Node3</title>
<path fill="none" stroke="midnightblue" d="M130.56,-131.9C153.47,-129.39 178.55,-126.66 198.87,-124.44"/>
<polygon fill="midnightblue" stroke="midnightblue" points="130.12,-128.42 120.55,-132.99 130.88,-135.38 130.12,-128.42"/>
</g>
<!-- Node5 -->
<g id="node5" class="node">
<title>Node5</title>
<g id="a_node5"><a xlink:title=" ">
<polygon fill="white" stroke="#bfbfbf" points="0,-91.5 0,-110.5 129,-110.5 129,-91.5 0,-91.5"/>
<text text-anchor="middle" x="64.5" y="-98.5" font-family="Helvetica,sans-Serif" font-size="10.00">std::copy_constructible</text>
</a>
</g>
</g>
<!-- Node5&#45;&gt;Node3 -->
<g id="edge4" class="edge">
<title>Node5&#45;&gt;Node3</title>
<path fill="none" stroke="midnightblue" d="M139.24,-109.05C159.7,-111.29 181.16,-113.63 198.95,-115.57"/>
<polygon fill="midnightblue" stroke="midnightblue" points="139.62,-105.57 129.3,-107.97 138.86,-112.53 139.62,-105.57"/>
</g>
<!-- Node6 -->
<g id="node6" class="node">
<title>Node6</title>
<g id="a_node6"><a xlink:href="classbio_1_1alphabet_1_1alphabet__base.html" target="_top" xlink:title=" ">
<polygon fill="white" stroke="black" points="478,-39 478,-91 611,-91 611,-39 478,-39"/>
<text text-anchor="start" x="486" y="-79" font-family="Helvetica,sans-Serif" font-size="10.00">bio::alphabet::alphabet</text>
<text text-anchor="start" x="486" y="-68" font-family="Helvetica,sans-Serif" font-size="10.00">_base&lt; derived_type,(1</text>
<text text-anchor="start" x="486" y="-57" font-family="Helvetica,sans-Serif" font-size="10.00"> *... *size&lt; component</text>
<text text-anchor="middle" x="544.5" y="-46" font-family="Helvetica,sans-Serif" font-size="10.00">_types &gt;), void &gt;</text>
</a>
</g>
</g>
<!-- Node6&#45;&gt;Node1 -->
<g id="edge5" class="edge">
<title>Node6&#45;&gt;Node1</title>
<path fill="none" stroke="midnightblue" d="M620.98,-76.45C629.89,-77.8 638.98,-79.18 647.88,-80.53"/>
<polygon fill="midnightblue" stroke="midnightblue" points="621.43,-72.98 611.02,-74.94 620.38,-79.9 621.43,-72.98"/>
</g>
<!-- Node7 -->
<g id="node7" class="node">
<title>Node7</title>
<g id="a_node7"><a xlink:href="classbio_1_1alphabet_1_1alphabet__base.html" target="_top" xlink:title="A CRTP&#45;base that makes defining a custom alphabet easier.">
<polygon fill="white" stroke="black" points="166,-44.5 166,-85.5 315,-85.5 315,-44.5 166,-44.5"/>
<text text-anchor="start" x="174" y="-73.5" font-family="Helvetica,sans-Serif" font-size="10.00">bio::alphabet::alphabet</text>
<text text-anchor="start" x="174" y="-62.5" font-family="Helvetica,sans-Serif" font-size="10.00">_base&lt; derived_type, size,</text>
<text text-anchor="middle" x="240.5" y="-51.5" font-family="Helvetica,sans-Serif" font-size="10.00"> char_t &gt;</text>
</a>
</g>
</g>
<!-- Node7&#45;&gt;Node6 -->
<g id="edge6" class="edge">
<title>Node7&#45;&gt;Node6</title>
<path fill="none" stroke="orange" stroke-dasharray="5,2" d="M325.47,-65C373.6,-65 433.14,-65 477.83,-65"/>
<polygon fill="orange" stroke="orange" points="325.38,-61.5 315.38,-65 325.38,-68.5 325.38,-61.5"/>
<text text-anchor="start" x="333" y="-90" font-family="Helvetica,sans-Serif" font-size="10.00"> &lt; derived_type,(1 *...</text>
<text text-anchor="start" x="333" y="-79" font-family="Helvetica,sans-Serif" font-size="10.00"> *size&lt; component_types</text>
<text text-anchor="middle" x="396.5" y="-68" font-family="Helvetica,sans-Serif" font-size="10.00"> &gt;), void &gt;</text>
</g>
<!-- Node9 -->
<g id="node9" class="node">
<title>Node9</title>
<g id="a_node9"><a xlink:href="classbio_1_1alphabet_1_1masked.html" target="_top" xlink:title="Implementation of a masked composite, which extends a given alphabet with a mask.">
<polygon fill="white" stroke="black" points="1225,-154 1225,-184 1368,-184 1368,-154 1225,-154"/>
<text text-anchor="start" x="1233" y="-172" font-family="Helvetica,sans-Serif" font-size="10.00">bio::alphabet::masked</text>
<text text-anchor="middle" x="1296.5" y="-161" font-family="Helvetica,sans-Serif" font-size="10.00">&lt; sequence_alphabet_t &gt;</text>
</a>
</g>
</g>
<!-- Node8&#45;&gt;Node9 -->
<g id="edge8" class="edge">
<title>Node8&#45;&gt;Node9</title>
<path fill="none" stroke="midnightblue" d="M1198.28,-169C1207.27,-169 1216.24,-169 1224.89,-169"/>
<polygon fill="midnightblue" stroke="midnightblue" points="1198.14,-165.5 1188.14,-169 1198.14,-172.5 1198.14,-165.5"/>
</g>
<!-- Node11 -->
<g id="node11" class="node">
<title>Node11</title>
<g id="a_node11"><a xlink:href="classbio_1_1alphabet_1_1qualified.html" target="_top" xlink:title="Joins an arbitrary alphabet with a quality alphabet.">
<polygon fill="white" stroke="black" points="1229.5,-71.5 1229.5,-112.5 1363.5,-112.5 1363.5,-71.5 1229.5,-71.5"/>
<text text-anchor="start" x="1237.5" y="-100.5" font-family="Helvetica,sans-Serif" font-size="10.00">bio::alphabet::qualified</text>
<text text-anchor="start" x="1237.5" y="-89.5" font-family="Helvetica,sans-Serif" font-size="10.00">&lt; sequence_alphabet_t,</text>
<text text-anchor="middle" x="1296.5" y="-78.5" font-family="Helvetica,sans-Serif" font-size="10.00"> quality_alphabet_t &gt;</text>
</a>
</g>
</g>
<!-- Node10&#45;&gt;Node11 -->
<g id="edge10" class="edge">
<title>Node10&#45;&gt;Node11</title>
<path fill="none" stroke="midnightblue" d="M1196.83,-92C1207.9,-92 1218.95,-92 1229.44,-92"/>
<polygon fill="midnightblue" stroke="midnightblue" points="1196.68,-88.5 1186.68,-92 1196.68,-95.5 1196.68,-88.5"/>
</g>
<!-- Node13 -->
<g id="node13" class="node">
<title>Node13</title>
<g id="a_node13"><a xlink:href="classbio_1_1alphabet_1_1cigar.html" target="_top" xlink:title="The cigar semialphabet pairs a counter with a bio::alphabet::cigar_op letter.">
<polygon fill="white" stroke="black" points="1241.5,-11.5 1241.5,-30.5 1351.5,-30.5 1351.5,-11.5 1241.5,-11.5"/>
<text text-anchor="middle" x="1296.5" y="-18.5" font-family="Helvetica,sans-Serif" font-size="10.00">bio::alphabet::cigar</text>
</a>
</g>
</g>
<!-- Node12&#45;&gt;Node13 -->
<g id="edge12" class="edge">
<title>Node12&#45;&gt;Node13</title>
<path fill="none" stroke="midnightblue" d="M1179.37,-21C1200.32,-21 1222.28,-21 1241.4,-21"/>
<polygon fill="midnightblue" stroke="midnightblue" points="1179.19,-17.5 1169.19,-21 1179.19,-24.5 1179.19,-17.5"/>
</g>
</g>
</svg>
        <g id="navigator" transform="translate(0 0)" fill="#404254">
                <rect fill="#f2f5e9" fill-opacity="0.5" stroke="#606060" stroke-width=".5" x="0" y="0" width="60" height="60"/>
                <use id="zoomplus" xlink:href="#zoomPlus" x="17" y="9" onmousedown="handleZoom(evt,'in')"/>
                <use id="zoomminus" xlink:href="#zoomMin" x="42" y="9" onmousedown="handleZoom(evt,'out')"/>
                <use id="reset" xlink:href="#resetDef" x="30" y="36" onmousedown="handleReset()"/>
                <g id="arrowUp" xlink:href="#dirArrow" transform="translate(30 24)" onmousedown="handlePan(0,-1)">
                  <use xlink:href="#rim" fill="#404040">
                        <set attributeName="fill" to="#808080" begin="arrowUp.mouseover" end="arrowUp.mouseout"/>
                  </use>
                  <path fill="none" stroke="white" stroke-width="1.5" d="M0,-3.0v7 M-2.5,-0.5L0,-3.0L2.5,-0.5"/>
                </g>
                <g id="arrowRight" xlink:href="#dirArrow" transform="rotate(90) translate(36 -43)" onmousedown="handlePan(1,0)">
                  <use xlink:href="#rim" fill="#404040">
                        <set attributeName="fill" to="#808080" begin="arrowRight.mouseover" end="arrowRight.mouseout"/>
                  </use>
                  <path fill="none" stroke="white" stroke-width="1.5" d="M0,-3.0v7 M-2.5,-0.5L0,-3.0L2.5,-0.5"/>
                </g>
                <g id="arrowDown" xlink:href="#dirArrow" transform="rotate(180) translate(-30 -48)" onmousedown="handlePan(0,1)">
                  <use xlink:href="#rim" fill="#404040">
                        <set attributeName="fill" to="#808080" begin="arrowDown.mouseover" end="arrowDown.mouseout"/>
                  </use>
                  <path fill="none" stroke="white" stroke-width="1.5" d="M0,-3.0v7 M-2.5,-0.5L0,-3.0L2.5,-0.5"/>
                </g>
                <g id="arrowLeft" xlink:href="#dirArrow" transform="rotate(270) translate(-36 17)" onmousedown="handlePan(-1,0)">
                  <use xlink:href="#rim" fill="#404040">
                        <set attributeName="fill" to="#808080" begin="arrowLeft.mouseover" end="arrowLeft.mouseout"/>
                  </use>
                  <path fill="none" stroke="white" stroke-width="1.5" d="M0,-3.0v7 M-2.5,-0.5L0,-3.0L2.5,-0.5"/>
                </g>
        </g>
        <svg viewBox="0 0 15 15" width="100%" height="30px" preserveAspectRatio="xMaxYMin meet">
         <g id="arrow_out" transform="scale(0.3 0.3)">
          <a xlink:href="classbio_1_1alphabet_1_1alphabet__tuple__base__inherit__graph_org.svg" target="_base">
           <rect id="button" ry="5" rx="5" y="6" x="6" height="38" width="38"
                fill="#f2f5e9" fill-opacity="0.5" stroke="#606060" stroke-width="1.0"/>
           <path id="arrow"
             d="M 11.500037,31.436501 C 11.940474,20.09759 22.043105,11.32322 32.158766,21.979434 L 37.068811,17.246167 C 37.068811,17.246167 37.088388,32 37.088388,32 L 22.160133,31.978069 C 22.160133,31.978069 26.997745,27.140456 26.997745,27.140456 C 18.528582,18.264221 13.291696,25.230495 11.500037,31.436501 z"
             style="fill:#404040;"/>
          </a>
         </g>
        </svg>
</svg>
