<?xml version="1.0" encoding="UTF-8" standalone="no"?>
<!DOCTYPE svg PUBLIC "-//W3C//DTD SVG 1.1//EN"
 "http://www.w3.org/Graphics/SVG/1.1/DTD/svg11.dtd">
<!-- Generated by graphviz version 2.43.0 (0)
 -->
<!-- Title: bio::dot_bracket3 Pages: 1 -->
<svg width="826pt" height="235pt"
 viewBox="0.00 0.00 826.00 235.00" xmlns="http://www.w3.org/2000/svg" xmlns:xlink="http://www.w3.org/1999/xlink">
<g id="graph0" class="graph" transform="scale(1 1) rotate(0) translate(4 231)">
<title>bio::dot_bracket3</title>
<polygon fill="white" stroke="transparent" points="-4,4 -4,-231 822,-231 822,4 -4,4"/>
<!-- Node1 -->
<g id="node1" class="node">
<title>Node1</title>
<g id="a_node1"><a xlink:title="The three letter RNA structure alphabet of the characters &quot;.()&quot;.">
<polygon fill="#bfbfbf" stroke="black" points="717,-105.5 717,-124.5 818,-124.5 818,-105.5 717,-105.5"/>
<text text-anchor="middle" x="767.5" y="-112.5" font-family="Helvetica,sans-Serif" font-size="10.00">bio::dot_bracket3</text>
</a>
</g>
</g>
<!-- Node2 -->
<g id="node2" class="node">
<title>Node2</title>
<g id="a_node2"><a xlink:href="interfacebio_1_1rna__structure__alphabet.html" target="_top" xlink:title="A concept that indicates whether an alphabet represents RNA structure.">
<polygon fill="white" stroke="black" points="551,-207.5 551,-226.5 680,-226.5 680,-207.5 551,-207.5"/>
<text text-anchor="middle" x="615.5" y="-214.5" font-family="Helvetica,sans-Serif" font-size="10.00">rna_structure_alphabet</text>
</a>
</g>
</g>
<!-- Node2&#45;&gt;Node1 -->
<g id="edge1" class="edge">
<title>Node2&#45;&gt;Node1</title>
<path fill="none" stroke="midnightblue" d="M668.29,-203.8C672.35,-202.08 676.31,-200.15 680,-198 714.16,-178.09 745.26,-142.01 759.03,-124.73"/>
<polygon fill="midnightblue" stroke="midnightblue" points="666.77,-200.63 658.67,-207.46 669.26,-207.17 666.77,-200.63"/>
</g>
<!-- Node3 -->
<g id="node3" class="node">
<title>Node3</title>
<g id="a_node3"><a xlink:href="interfacebio_1_1alphabet.html" target="_top" xlink:title="The generic alphabet concept that covers most data types used in ranges.">
<polygon fill="white" stroke="black" points="320.5,-201.5 320.5,-220.5 379.5,-220.5 379.5,-201.5 320.5,-201.5"/>
<text text-anchor="middle" x="350" y="-208.5" font-family="Helvetica,sans-Serif" font-size="10.00">alphabet</text>
</a>
</g>
</g>
<!-- Node3&#45;&gt;Node2 -->
<g id="edge2" class="edge">
<title>Node3&#45;&gt;Node2</title>
<path fill="none" stroke="midnightblue" d="M389.88,-211.89C432.24,-212.85 500.67,-214.41 550.88,-215.55"/>
<polygon fill="midnightblue" stroke="midnightblue" points="389.78,-208.38 379.7,-211.65 389.62,-215.38 389.78,-208.38"/>
</g>
<!-- Node7 -->
<g id="node7" class="node">
<title>Node7</title>
<g id="a_node7"><a xlink:href="interfacebio_1_1writable__alphabet.html" target="_top" xlink:title="Refines bio::alphabet and adds assignability.">
<polygon fill="white" stroke="black" points="563.5,-169.5 563.5,-188.5 667.5,-188.5 667.5,-169.5 563.5,-169.5"/>
<text text-anchor="middle" x="615.5" y="-176.5" font-family="Helvetica,sans-Serif" font-size="10.00">writable_alphabet</text>
</a>
</g>
</g>
<!-- Node3&#45;&gt;Node7 -->
<g id="edge7" class="edge">
<title>Node3&#45;&gt;Node7</title>
<path fill="none" stroke="midnightblue" d="M389.86,-206.28C435.82,-200.7 512.49,-191.39 563.27,-185.22"/>
<polygon fill="midnightblue" stroke="midnightblue" points="389.21,-202.83 379.7,-207.51 390.05,-209.78 389.21,-202.83"/>
</g>
<!-- Node4 -->
<g id="node4" class="node">
<title>Node4</title>
<g id="a_node4"><a xlink:href="interfacebio_1_1semialphabet.html" target="_top" xlink:title="The basis for bio::alphabet, but requires only rank interface (not char).">
<polygon fill="white" stroke="black" points="166,-181.5 166,-200.5 249,-200.5 249,-181.5 166,-181.5"/>
<text text-anchor="middle" x="207.5" y="-188.5" font-family="Helvetica,sans-Serif" font-size="10.00">semialphabet</text>
</a>
</g>
</g>
<!-- Node4&#45;&gt;Node3 -->
<g id="edge3" class="edge">
<title>Node4&#45;&gt;Node3</title>
<path fill="none" stroke="midnightblue" d="M259.05,-198.2C279.71,-201.14 302.85,-204.43 320.49,-206.94"/>
<polygon fill="midnightblue" stroke="midnightblue" points="259.53,-194.73 249.14,-196.78 258.55,-201.66 259.53,-194.73"/>
</g>
<!-- Node8 -->
<g id="node8" class="node">
<title>Node8</title>
<g id="a_node8"><a xlink:href="interfacebio_1_1writable__semialphabet.html" target="_top" xlink:title="A refinement of bio::semialphabet that adds assignability.">
<polygon fill="white" stroke="black" points="286,-163.5 286,-182.5 414,-182.5 414,-163.5 286,-163.5"/>
<text text-anchor="middle" x="350" y="-170.5" font-family="Helvetica,sans-Serif" font-size="10.00">writable_semialphabet</text>
</a>
</g>
</g>
<!-- Node4&#45;&gt;Node8 -->
<g id="edge9" class="edge">
<title>Node4&#45;&gt;Node8</title>
<path fill="none" stroke="midnightblue" d="M259.12,-184.51C267.83,-183.4 276.97,-182.23 285.95,-181.08"/>
<polygon fill="midnightblue" stroke="midnightblue" points="258.61,-181.05 249.14,-185.79 259.5,-187.99 258.61,-181.05"/>
</g>
<!-- Node5 -->
<g id="node5" class="node">
<title>Node5</title>
<g id="a_node5"><a xlink:title=" ">
<polygon fill="white" stroke="#bfbfbf" points="8.5,-200.5 8.5,-219.5 120.5,-219.5 120.5,-200.5 8.5,-200.5"/>
<text text-anchor="middle" x="64.5" y="-207.5" font-family="Helvetica,sans-Serif" font-size="10.00">std::totally_ordered</text>
</a>
</g>
</g>
<!-- Node5&#45;&gt;Node4 -->
<g id="edge4" class="edge">
<title>Node5&#45;&gt;Node4</title>
<path fill="none" stroke="midnightblue" d="M130.75,-201.21C142.67,-199.6 154.78,-197.97 165.72,-196.49"/>
<polygon fill="midnightblue" stroke="midnightblue" points="130.27,-197.74 120.82,-202.55 131.2,-204.68 130.27,-197.74"/>
</g>
<!-- Node6 -->
<g id="node6" class="node">
<title>Node6</title>
<g id="a_node6"><a xlink:title=" ">
<polygon fill="white" stroke="#bfbfbf" points="0,-162.5 0,-181.5 129,-181.5 129,-162.5 0,-162.5"/>
<text text-anchor="middle" x="64.5" y="-169.5" font-family="Helvetica,sans-Serif" font-size="10.00">std::copy_constructible</text>
</a>
</g>
</g>
<!-- Node6&#45;&gt;Node4 -->
<g id="edge5" class="edge">
<title>Node6&#45;&gt;Node4</title>
<path fill="none" stroke="midnightblue" d="M139.59,-181.98C148.62,-183.2 157.56,-184.41 165.84,-185.52"/>
<polygon fill="midnightblue" stroke="midnightblue" points="139.78,-178.48 129.4,-180.61 138.84,-185.41 139.78,-178.48"/>
</g>
<!-- Node7&#45;&gt;Node1 -->
<g id="edge6" class="edge">
<title>Node7&#45;&gt;Node1</title>
<path fill="none" stroke="midnightblue" d="M662.68,-166.3C668.57,-164.36 674.47,-162.24 680,-160 705.41,-149.7 733.3,-134.41 750.36,-124.58"/>
<polygon fill="midnightblue" stroke="midnightblue" points="661.32,-163.06 652.84,-169.41 663.43,-169.74 661.32,-163.06"/>
</g>
<!-- Node8&#45;&gt;Node7 -->
<g id="edge8" class="edge">
<title>Node8&#45;&gt;Node7</title>
<path fill="none" stroke="midnightblue" d="M424.24,-174.67C468.5,-175.68 523.82,-176.94 563.38,-177.84"/>
<polygon fill="midnightblue" stroke="midnightblue" points="424.19,-171.17 414.11,-174.44 424.03,-178.16 424.19,-171.17"/>
</g>
<!-- Node9 -->
<g id="node9" class="node">
<title>Node9</title>
<g id="a_node9"><a xlink:href="interfacebio_1_1meta_1_1trivially__copyable.html" target="_top" xlink:title="A type that satisfies std::is_trivially_copyable_v&lt;t&gt;.">
<polygon fill="white" stroke="black" points="563.5,-131.5 563.5,-150.5 667.5,-150.5 667.5,-131.5 563.5,-131.5"/>
<text text-anchor="middle" x="615.5" y="-138.5" font-family="Helvetica,sans-Serif" font-size="10.00">trivially_copyable</text>
</a>
</g>
</g>
<!-- Node9&#45;&gt;Node1 -->
<g id="edge10" class="edge">
<title>Node9&#45;&gt;Node1</title>
<path fill="none" stroke="midnightblue" d="M677.93,-130.35C690.86,-128.11 704.36,-125.77 716.8,-123.62"/>
<polygon fill="midnightblue" stroke="midnightblue" points="676.96,-126.97 667.7,-132.12 678.15,-133.87 676.96,-126.97"/>
</g>
<!-- Node10 -->
<g id="node10" class="node">
<title>Node10</title>
<g id="a_node10"><a xlink:title=" ">
<polygon fill="white" stroke="#bfbfbf" points="309,-125.5 309,-144.5 391,-144.5 391,-125.5 309,-125.5"/>
<text text-anchor="middle" x="350" y="-132.5" font-family="Helvetica,sans-Serif" font-size="10.00">std::copyable</text>
</a>
</g>
</g>
<!-- Node10&#45;&gt;Node9 -->
<g id="edge11" class="edge">
<title>Node10&#45;&gt;Node9</title>
<path fill="none" stroke="midnightblue" d="M401.16,-136.14C447.62,-137.2 516.41,-138.77 563.23,-139.83"/>
<polygon fill="midnightblue" stroke="midnightblue" points="401.1,-132.64 391.02,-135.91 400.94,-139.64 401.1,-132.64"/>
</g>
<!-- Node11 -->
<g id="node11" class="node">
<title>Node11</title>
<g id="a_node11"><a xlink:href="interfacebio_1_1meta_1_1standard__layout.html" target="_top" xlink:title="Resolves to std::is_standard_layout_v&lt;t&gt;.">
<polygon fill="white" stroke="black" points="568,-93.5 568,-112.5 663,-112.5 663,-93.5 568,-93.5"/>
<text text-anchor="middle" x="615.5" y="-100.5" font-family="Helvetica,sans-Serif" font-size="10.00">standard_layout</text>
</a>
</g>
</g>
<!-- Node11&#45;&gt;Node1 -->
<g id="edge12" class="edge">
<title>Node11&#45;&gt;Node1</title>
<path fill="none" stroke="midnightblue" d="M673.35,-107.55C687.63,-108.69 702.86,-109.91 716.77,-111.02"/>
<polygon fill="midnightblue" stroke="midnightblue" points="673.39,-104.04 663.14,-106.73 672.83,-111.02 673.39,-104.04"/>
</g>
<!-- Node12 -->
<g id="node12" class="node">
<title>Node12</title>
<g id="a_node12"><a xlink:title=" ">
<polygon fill="white" stroke="#bfbfbf" points="579.5,-55.5 579.5,-74.5 651.5,-74.5 651.5,-55.5 579.5,-55.5"/>
<text text-anchor="middle" x="615.5" y="-62.5" font-family="Helvetica,sans-Serif" font-size="10.00">std::regular</text>
</a>
</g>
</g>
<!-- Node12&#45;&gt;Node1 -->
<g id="edge13" class="edge">
<title>Node12&#45;&gt;Node1</title>
<path fill="none" stroke="midnightblue" d="M659.48,-77.52C666.36,-79.62 673.39,-81.83 680,-84 700.61,-90.77 723.74,-99.1 740.89,-105.42"/>
<polygon fill="midnightblue" stroke="midnightblue" points="660.15,-74.07 649.56,-74.53 658.12,-80.77 660.15,-74.07"/>
</g>
<!-- Node13 -->
<g id="node13" class="node">
<title>Node13</title>
<g id="a_node13"><a xlink:href="classbio_1_1alphabet__base.html" target="_top" xlink:title=" ">
<polygon fill="white" stroke="black" points="558.5,-6 558.5,-36 672.5,-36 672.5,-6 558.5,-6"/>
<text text-anchor="start" x="566.5" y="-24" font-family="Helvetica,sans-Serif" font-size="10.00">bio::alphabet_base</text>
<text text-anchor="middle" x="615.5" y="-13" font-family="Helvetica,sans-Serif" font-size="10.00">&lt; dot_bracket3, 3 &gt;</text>
</a>
</g>
</g>
<!-- Node13&#45;&gt;Node1 -->
<g id="edge14" class="edge">
<title>Node13&#45;&gt;Node1</title>
<path fill="none" stroke="midnightblue" d="M669.28,-40.35C672.97,-42.13 676.58,-44.02 680,-46 710.27,-63.5 741.22,-90.99 756.58,-105.42"/>
<polygon fill="midnightblue" stroke="midnightblue" points="670.56,-37.09 660.01,-36.12 667.66,-43.45 670.56,-37.09"/>
</g>
<!-- Node14 -->
<g id="node14" class="node">
<title>Node14</title>
<g id="a_node14"><a xlink:href="classbio_1_1alphabet__base.html" target="_top" xlink:title="A CRTP&#45;base that makes defining a custom alphabet easier.">
<polygon fill="white" stroke="black" points="290,-0.5 290,-41.5 410,-41.5 410,-0.5 290,-0.5"/>
<text text-anchor="start" x="298" y="-29.5" font-family="Helvetica,sans-Serif" font-size="10.00">bio::alphabet_base</text>
<text text-anchor="start" x="298" y="-18.5" font-family="Helvetica,sans-Serif" font-size="10.00">&lt; derived_type, size,</text>
<text text-anchor="middle" x="350" y="-7.5" font-family="Helvetica,sans-Serif" font-size="10.00"> char_t &gt;</text>
</a>
</g>
</g>
<!-- Node14&#45;&gt;Node13 -->
<g id="edge15" class="edge">
<title>Node14&#45;&gt;Node13</title>
<path fill="none" stroke="orange" stroke-dasharray="5,2" d="M420.25,-21C463.29,-21 517.92,-21 558.27,-21"/>
<polygon fill="orange" stroke="orange" points="420.13,-17.5 410.13,-21 420.13,-24.5 420.13,-17.5"/>
<text text-anchor="middle" x="482.5" y="-24" font-family="Helvetica,sans-Serif" font-size="10.00"> &lt; dot_bracket3, 3 &gt;</text>
</g>
</g>
</svg>
