<?xml version="1.0" encoding="UTF-8" standalone="no"?>
<!DOCTYPE svg PUBLIC "-//W3C//DTD SVG 1.1//EN"
 "http://www.w3.org/Graphics/SVG/1.1/DTD/svg11.dtd">
<!-- Generated by graphviz version 2.43.0 (0)
 -->
<!-- Title: bio::quality_base&lt; derived_type, size &gt; Pages: 1 -->
<svg width="968pt" height="137pt"
 viewBox="0.00 0.00 968.00 137.00" xmlns="http://www.w3.org/2000/svg" xmlns:xlink="http://www.w3.org/1999/xlink">
<g id="graph0" class="graph" transform="scale(1 1) rotate(0) translate(4 133)">
<title>bio::quality_base&lt; derived_type, size &gt;</title>
<polygon fill="white" stroke="transparent" points="-4,4 -4,-133 964,-133 964,4 -4,4"/>
<!-- Node1 -->
<g id="node1" class="node">
<title>Node1</title>
<g id="a_node1"><a xlink:title="A CRTP&#45;base that refines bio::alphabet_base and is used by the quality alphabets.">
<polygon fill="#bfbfbf" stroke="black" points="420,-49.5 420,-79.5 540,-79.5 540,-49.5 420,-49.5"/>
<text text-anchor="start" x="428" y="-67.5" font-family="Helvetica,sans-Serif" font-size="10.00">bio::quality_base&lt;</text>
<text text-anchor="middle" x="480" y="-56.5" font-family="Helvetica,sans-Serif" font-size="10.00"> derived_type, size &gt;</text>
</a>
</g>
</g>
<!-- Node4 -->
<g id="node4" class="node">
<title>Node4</title>
<g id="a_node4"><a xlink:href="classbio_1_1quality__base.html" target="_top" xlink:title=" ">
<polygon fill="white" stroke="black" points="698.5,-98.5 698.5,-128.5 806.5,-128.5 806.5,-98.5 698.5,-98.5"/>
<text text-anchor="start" x="706.5" y="-116.5" font-family="Helvetica,sans-Serif" font-size="10.00">bio::quality_base&lt;</text>
<text text-anchor="middle" x="752.5" y="-105.5" font-family="Helvetica,sans-Serif" font-size="10.00"> phred42, 42 &gt;</text>
</a>
</g>
</g>
<!-- Node1&#45;&gt;Node4 -->
<g id="edge3" class="edge">
<title>Node1&#45;&gt;Node4</title>
<path fill="none" stroke="orange" stroke-dasharray="5,2" d="M550.33,-78.07C552.92,-78.55 555.48,-79.03 558,-79.5 605.46,-88.29 659.57,-97.75 698.48,-104.46"/>
<polygon fill="orange" stroke="orange" points="550.73,-74.58 540.25,-76.16 549.43,-81.46 550.73,-74.58"/>
<text text-anchor="middle" x="616" y="-102.5" font-family="Helvetica,sans-Serif" font-size="10.00"> &lt; phred42, 42 &gt;</text>
</g>
<!-- Node6 -->
<g id="node6" class="node">
<title>Node6</title>
<g id="a_node6"><a xlink:href="classbio_1_1quality__base.html" target="_top" xlink:title=" ">
<polygon fill="white" stroke="black" points="698.5,-49.5 698.5,-79.5 806.5,-79.5 806.5,-49.5 698.5,-49.5"/>
<text text-anchor="start" x="706.5" y="-67.5" font-family="Helvetica,sans-Serif" font-size="10.00">bio::quality_base&lt;</text>
<text text-anchor="middle" x="752.5" y="-56.5" font-family="Helvetica,sans-Serif" font-size="10.00"> phred63, 63 &gt;</text>
</a>
</g>
</g>
<!-- Node1&#45;&gt;Node6 -->
<g id="edge5" class="edge">
<title>Node1&#45;&gt;Node6</title>
<path fill="none" stroke="orange" stroke-dasharray="5,2" d="M550.22,-64.5C596.23,-64.5 655.75,-64.5 698.1,-64.5"/>
<polygon fill="orange" stroke="orange" points="550.03,-61 540.03,-64.5 550.03,-68 550.03,-61"/>
<text text-anchor="middle" x="616" y="-67.5" font-family="Helvetica,sans-Serif" font-size="10.00"> &lt; phred63, 63 &gt;</text>
</g>
<!-- Node8 -->
<g id="node8" class="node">
<title>Node8</title>
<g id="a_node8"><a xlink:href="classbio_1_1quality__base.html" target="_top" xlink:title=" ">
<polygon fill="white" stroke="black" points="692,-0.5 692,-30.5 813,-30.5 813,-0.5 692,-0.5"/>
<text text-anchor="start" x="700" y="-18.5" font-family="Helvetica,sans-Serif" font-size="10.00">bio::quality_base&lt;</text>
<text text-anchor="middle" x="752.5" y="-7.5" font-family="Helvetica,sans-Serif" font-size="10.00"> phred68legacy, 68 &gt;</text>
</a>
</g>
</g>
<!-- Node1&#45;&gt;Node8 -->
<g id="edge7" class="edge">
<title>Node1&#45;&gt;Node8</title>
<path fill="none" stroke="orange" stroke-dasharray="5,2" d="M550.33,-50.93C552.92,-50.45 555.48,-49.97 558,-49.5 602.77,-41.21 653.47,-32.32 691.74,-25.71"/>
<polygon fill="orange" stroke="orange" points="549.43,-47.54 540.25,-52.84 550.73,-54.42 549.43,-47.54"/>
<text text-anchor="middle" x="616" y="-52.5" font-family="Helvetica,sans-Serif" font-size="10.00"> &lt; phred68legacy, 68 &gt;</text>
</g>
<!-- Node2 -->
<g id="node2" class="node">
<title>Node2</title>
<g id="a_node2"><a xlink:href="classbio_1_1alphabet__base.html" target="_top" xlink:title=" ">
<polygon fill="white" stroke="black" points="263,-44 263,-85 383,-85 383,-44 263,-44"/>
<text text-anchor="start" x="271" y="-73" font-family="Helvetica,sans-Serif" font-size="10.00">bio::alphabet_base</text>
<text text-anchor="start" x="271" y="-62" font-family="Helvetica,sans-Serif" font-size="10.00">&lt; derived_type, size,</text>
<text text-anchor="middle" x="323" y="-51" font-family="Helvetica,sans-Serif" font-size="10.00"> char &gt;</text>
</a>
</g>
</g>
<!-- Node2&#45;&gt;Node1 -->
<g id="edge1" class="edge">
<title>Node2&#45;&gt;Node1</title>
<path fill="none" stroke="midnightblue" d="M393.05,-64.5C402,-64.5 411.1,-64.5 419.87,-64.5"/>
<polygon fill="midnightblue" stroke="midnightblue" points="393.04,-61 383.04,-64.5 393.04,-68 393.04,-61"/>
</g>
<!-- Node3 -->
<g id="node3" class="node">
<title>Node3</title>
<g id="a_node3"><a xlink:href="classbio_1_1alphabet__base.html" target="_top" xlink:title="A CRTP&#45;base that makes defining a custom alphabet easier.">
<polygon fill="white" stroke="black" points="0,-44 0,-85 120,-85 120,-44 0,-44"/>
<text text-anchor="start" x="8" y="-73" font-family="Helvetica,sans-Serif" font-size="10.00">bio::alphabet_base</text>
<text text-anchor="start" x="8" y="-62" font-family="Helvetica,sans-Serif" font-size="10.00">&lt; derived_type, size,</text>
<text text-anchor="middle" x="60" y="-51" font-family="Helvetica,sans-Serif" font-size="10.00"> char_t &gt;</text>
</a>
</g>
</g>
<!-- Node3&#45;&gt;Node2 -->
<g id="edge2" class="edge">
<title>Node3&#45;&gt;Node2</title>
<path fill="none" stroke="orange" stroke-dasharray="5,2" d="M130.45,-64.5C171.63,-64.5 223.27,-64.5 262.56,-64.5"/>
<polygon fill="orange" stroke="orange" points="130.22,-61 120.22,-64.5 130.22,-68 130.22,-61"/>
<text text-anchor="start" x="138" y="-78.5" font-family="Helvetica,sans-Serif" font-size="10.00"> &lt; derived_type, size,</text>
<text text-anchor="middle" x="191.5" y="-67.5" font-family="Helvetica,sans-Serif" font-size="10.00"> char &gt;</text>
</g>
<!-- Node5 -->
<g id="node5" class="node">
<title>Node5</title>
<g id="a_node5"><a xlink:href="classbio_1_1phred42.html" target="_top" xlink:title="Quality type for traditional Sanger and modern Illumina Phred scores (typical range).">
<polygon fill="white" stroke="black" points="866.5,-104 866.5,-123 943.5,-123 943.5,-104 866.5,-104"/>
<text text-anchor="middle" x="905" y="-111" font-family="Helvetica,sans-Serif" font-size="10.00">bio::phred42</text>
</a>
</g>
</g>
<!-- Node4&#45;&gt;Node5 -->
<g id="edge4" class="edge">
<title>Node4&#45;&gt;Node5</title>
<path fill="none" stroke="midnightblue" d="M816.85,-113.5C833.59,-113.5 851.14,-113.5 866.07,-113.5"/>
<polygon fill="midnightblue" stroke="midnightblue" points="816.56,-110 806.56,-113.5 816.56,-117 816.56,-110"/>
</g>
<!-- Node7 -->
<g id="node7" class="node">
<title>Node7</title>
<g id="a_node7"><a xlink:href="classbio_1_1phred63.html" target="_top" xlink:title="Quality type for traditional Sanger and modern Illumina Phred scores (full range).">
<polygon fill="white" stroke="black" points="866.5,-55 866.5,-74 943.5,-74 943.5,-55 866.5,-55"/>
<text text-anchor="middle" x="905" y="-62" font-family="Helvetica,sans-Serif" font-size="10.00">bio::phred63</text>
</a>
</g>
</g>
<!-- Node6&#45;&gt;Node7 -->
<g id="edge6" class="edge">
<title>Node6&#45;&gt;Node7</title>
<path fill="none" stroke="midnightblue" d="M816.85,-64.5C833.59,-64.5 851.14,-64.5 866.07,-64.5"/>
<polygon fill="midnightblue" stroke="midnightblue" points="816.56,-61 806.56,-64.5 816.56,-68 816.56,-61"/>
</g>
<!-- Node9 -->
<g id="node9" class="node">
<title>Node9</title>
<g id="a_node9"><a xlink:href="classbio_1_1phred68legacy.html" target="_top" xlink:title="Quality type for Solexa and deprecated Illumina formats.">
<polygon fill="white" stroke="black" points="850,-6 850,-25 960,-25 960,-6 850,-6"/>
<text text-anchor="middle" x="905" y="-13" font-family="Helvetica,sans-Serif" font-size="10.00">bio::phred68legacy</text>
</a>
</g>
</g>
<!-- Node8&#45;&gt;Node9 -->
<g id="edge8" class="edge">
<title>Node8&#45;&gt;Node9</title>
<path fill="none" stroke="midnightblue" d="M823.61,-15.5C832.36,-15.5 841.2,-15.5 849.66,-15.5"/>
<polygon fill="midnightblue" stroke="midnightblue" points="823.41,-12 813.41,-15.5 823.41,-19 823.41,-12"/>
</g>
</g>
</svg>
