<?xml version="1.0" encoding="UTF-8" standalone="no"?>
<!DOCTYPE svg PUBLIC "-//W3C//DTD SVG 1.1//EN"
 "http://www.w3.org/Graphics/SVG/1.1/DTD/svg11.dtd">
<!-- Generated by graphviz version 2.43.0 (0)
 -->
<!-- Title: bio::alphabet::semialphabet_any&lt; size_ &gt; Pages: 1 -->
<svg width="646pt" height="202pt"
 viewBox="0.00 0.00 646.00 202.00" xmlns="http://www.w3.org/2000/svg" xmlns:xlink="http://www.w3.org/1999/xlink">
<g id="graph0" class="graph" transform="scale(1 1) rotate(0) translate(4 198)">
<title>bio::alphabet::semialphabet_any&lt; size_ &gt;</title>
<polygon fill="white" stroke="transparent" points="-4,4 -4,-198 642,-198 642,4 -4,4"/>
<!-- Node1 -->
<g id="node1" class="node">
<title>Node1</title>
<g id="a_node1"><a xlink:title="A semi&#45;alphabet that type erases all other semi&#45;alphabets of the same size.">
<polygon fill="#bfbfbf" stroke="black" points="485,-67 485,-97 638,-97 638,-67 485,-67"/>
<text text-anchor="start" x="493" y="-85" font-family="Helvetica,sans-Serif" font-size="10.00">bio::alphabet::semialphabet</text>
<text text-anchor="middle" x="561.5" y="-74" font-family="Helvetica,sans-Serif" font-size="10.00">_any&lt; size_ &gt;</text>
</a>
</g>
</g>
<!-- Node2 -->
<g id="node2" class="node">
<title>Node2</title>
<g id="a_node2"><a xlink:href="interfacebio_1_1alphabet_1_1semialphabet.html" target="_top" xlink:title="The basis for bio::alphabet::alphabet, but requires only rank interface (not char).">
<polygon fill="white" stroke="black" points="333.5,-136.5 333.5,-155.5 416.5,-155.5 416.5,-136.5 333.5,-136.5"/>
<text text-anchor="middle" x="375" y="-143.5" font-family="Helvetica,sans-Serif" font-size="10.00">semialphabet</text>
</a>
</g>
</g>
<!-- Node2&#45;&gt;Node1 -->
<g id="edge1" class="edge">
<title>Node2&#45;&gt;Node1</title>
<path fill="none" stroke="midnightblue" d="M425.65,-133.75C433.19,-131.65 440.83,-129.37 448,-127 474.56,-118.22 503.89,-106.42 525.94,-97.1"/>
<polygon fill="midnightblue" stroke="midnightblue" points="424.6,-130.41 415.87,-136.41 426.44,-137.17 424.6,-130.41"/>
</g>
<!-- Node3 -->
<g id="node3" class="node">
<title>Node3</title>
<g id="a_node3"><a xlink:title=" ">
<polygon fill="white" stroke="#bfbfbf" points="18.5,-174.5 18.5,-193.5 130.5,-193.5 130.5,-174.5 18.5,-174.5"/>
<text text-anchor="middle" x="74.5" y="-181.5" font-family="Helvetica,sans-Serif" font-size="10.00">std::totally_ordered</text>
</a>
</g>
</g>
<!-- Node3&#45;&gt;Node2 -->
<g id="edge2" class="edge">
<title>Node3&#45;&gt;Node2</title>
<path fill="none" stroke="midnightblue" d="M141.05,-177.13C182.16,-172.65 236.23,-166.46 284,-160 300.14,-157.82 317.86,-155.12 333.28,-152.69"/>
<polygon fill="midnightblue" stroke="midnightblue" points="140.45,-173.67 130.89,-178.23 141.21,-180.63 140.45,-173.67"/>
</g>
<!-- Node4 -->
<g id="node4" class="node">
<title>Node4</title>
<g id="a_node4"><a xlink:title=" ">
<polygon fill="white" stroke="#bfbfbf" points="10,-136.5 10,-155.5 139,-155.5 139,-136.5 10,-136.5"/>
<text text-anchor="middle" x="74.5" y="-143.5" font-family="Helvetica,sans-Serif" font-size="10.00">std::copy_constructible</text>
</a>
</g>
</g>
<!-- Node4&#45;&gt;Node2 -->
<g id="edge3" class="edge">
<title>Node4&#45;&gt;Node2</title>
<path fill="none" stroke="midnightblue" d="M149.39,-146C207.46,-146 286.16,-146 333.33,-146"/>
<polygon fill="midnightblue" stroke="midnightblue" points="149.17,-142.5 139.17,-146 149.17,-149.5 149.17,-142.5"/>
</g>
<!-- Node5 -->
<g id="node5" class="node">
<title>Node5</title>
<g id="a_node5"><a xlink:href="interfacebio_1_1meta_1_1trivially__copyable.html" target="_top" xlink:title="A type that satisfies std::is_trivially_copyable_v&lt;t&gt;.">
<polygon fill="white" stroke="black" points="323,-98.5 323,-117.5 427,-117.5 427,-98.5 323,-98.5"/>
<text text-anchor="middle" x="375" y="-105.5" font-family="Helvetica,sans-Serif" font-size="10.00">trivially_copyable</text>
</a>
</g>
</g>
<!-- Node5&#45;&gt;Node1 -->
<g id="edge4" class="edge">
<title>Node5&#45;&gt;Node1</title>
<path fill="none" stroke="midnightblue" d="M437.65,-99.31C452.8,-97.18 469.18,-94.87 484.89,-92.65"/>
<polygon fill="midnightblue" stroke="midnightblue" points="436.81,-95.9 427.39,-100.76 437.78,-102.83 436.81,-95.9"/>
</g>
<!-- Node6 -->
<g id="node6" class="node">
<title>Node6</title>
<g id="a_node6"><a xlink:title=" ">
<polygon fill="white" stroke="#bfbfbf" points="33.5,-98.5 33.5,-117.5 115.5,-117.5 115.5,-98.5 33.5,-98.5"/>
<text text-anchor="middle" x="74.5" y="-105.5" font-family="Helvetica,sans-Serif" font-size="10.00">std::copyable</text>
</a>
</g>
</g>
<!-- Node6&#45;&gt;Node5 -->
<g id="edge5" class="edge">
<title>Node6&#45;&gt;Node5</title>
<path fill="none" stroke="midnightblue" d="M125.94,-108C180.75,-108 267.85,-108 322.91,-108"/>
<polygon fill="midnightblue" stroke="midnightblue" points="125.76,-104.5 115.76,-108 125.76,-111.5 125.76,-104.5"/>
</g>
<!-- Node7 -->
<g id="node7" class="node">
<title>Node7</title>
<g id="a_node7"><a xlink:href="interfacebio_1_1meta_1_1standard__layout.html" target="_top" xlink:title="Resolves to std::is_standard_layout_v&lt;t&gt;.">
<polygon fill="white" stroke="black" points="327.5,-60.5 327.5,-79.5 422.5,-79.5 422.5,-60.5 327.5,-60.5"/>
<text text-anchor="middle" x="375" y="-67.5" font-family="Helvetica,sans-Serif" font-size="10.00">standard_layout</text>
</a>
</g>
</g>
<!-- Node7&#45;&gt;Node1 -->
<g id="edge6" class="edge">
<title>Node7&#45;&gt;Node1</title>
<path fill="none" stroke="midnightblue" d="M432.58,-73.68C449.09,-74.75 467.4,-75.94 484.88,-77.08"/>
<polygon fill="midnightblue" stroke="midnightblue" points="432.76,-70.18 422.56,-73.03 432.31,-77.17 432.76,-70.18"/>
</g>
<!-- Node8 -->
<g id="node8" class="node">
<title>Node8</title>
<g id="a_node8"><a xlink:href="classbio_1_1alphabet_1_1alphabet__base.html" target="_top" xlink:title=" ">
<polygon fill="white" stroke="black" points="302,-0.5 302,-41.5 448,-41.5 448,-0.5 302,-0.5"/>
<text text-anchor="start" x="310" y="-29.5" font-family="Helvetica,sans-Serif" font-size="10.00">bio::alphabet::alphabet</text>
<text text-anchor="start" x="310" y="-18.5" font-family="Helvetica,sans-Serif" font-size="10.00">_base&lt; semialphabet_any</text>
<text text-anchor="middle" x="375" y="-7.5" font-family="Helvetica,sans-Serif" font-size="10.00">&lt; size_ &gt;, size_, void &gt;</text>
</a>
</g>
</g>
<!-- Node8&#45;&gt;Node1 -->
<g id="edge7" class="edge">
<title>Node8&#45;&gt;Node1</title>
<path fill="none" stroke="midnightblue" d="M447.76,-44.73C470.34,-52.19 494.65,-60.23 514.89,-66.92"/>
<polygon fill="midnightblue" stroke="midnightblue" points="448.8,-41.38 438.21,-41.57 446.6,-48.03 448.8,-41.38"/>
</g>
<!-- Node9 -->
<g id="node9" class="node">
<title>Node9</title>
<g id="a_node9"><a xlink:href="classbio_1_1alphabet_1_1alphabet__base.html" target="_top" xlink:title="A CRTP&#45;base that makes defining a custom alphabet easier.">
<polygon fill="white" stroke="black" points="0,-0.5 0,-41.5 149,-41.5 149,-0.5 0,-0.5"/>
<text text-anchor="start" x="8" y="-29.5" font-family="Helvetica,sans-Serif" font-size="10.00">bio::alphabet::alphabet</text>
<text text-anchor="start" x="8" y="-18.5" font-family="Helvetica,sans-Serif" font-size="10.00">_base&lt; derived_type, size,</text>
<text text-anchor="middle" x="74.5" y="-7.5" font-family="Helvetica,sans-Serif" font-size="10.00"> char_t &gt;</text>
</a>
</g>
</g>
<!-- Node9&#45;&gt;Node8 -->
<g id="edge8" class="edge">
<title>Node9&#45;&gt;Node8</title>
<path fill="none" stroke="orange" stroke-dasharray="5,2" d="M159.29,-21C204.16,-21 258.87,-21 301.84,-21"/>
<polygon fill="orange" stroke="orange" points="159.29,-17.5 149.29,-21 159.29,-24.5 159.29,-17.5"/>
<text text-anchor="start" x="167" y="-35" font-family="Helvetica,sans-Serif" font-size="10.00"> &lt; semialphabet_any</text>
<text text-anchor="middle" x="225.5" y="-24" font-family="Helvetica,sans-Serif" font-size="10.00">&lt; size_ &gt;, size_, void &gt;</text>
</g>
</g>
</svg>
