<?xml version="1.0" encoding="UTF-8" standalone="no"?>
<!DOCTYPE svg PUBLIC "-//W3C//DTD SVG 1.1//EN"
 "http://www.w3.org/Graphics/SVG/1.1/DTD/svg11.dtd">
<!-- Generated by graphviz version 2.43.0 (0)
 -->
<!-- Title: bio::phred63 Pages: 1 -->
<!--zoomable 247 -->
<svg id="main" version="1.1" xmlns="http://www.w3.org/2000/svg" xmlns:xlink="http://www.w3.org/1999/xlink" xml:space="preserve" onload="init(evt)">
<style type="text/css"><![CDATA[
.edge:hover path { stroke: red; }
.edge:hover polygon { stroke: red; fill: red; }
]]></style>
<script type="text/javascript"><![CDATA[
var edges = document.getElementsByTagName('g');
if (edges && edges.length) {
  for (var i=0;i<edges.length;i++) {
    if (edges[i].id.substr(0,4)=='edge') {
      edges[i].setAttribute('class','edge');
    }
  }
}
]]></script>
        <defs>
                <circle id="rim" cx="0" cy="0" r="7"/>
                <circle id="rim2" cx="0" cy="0" r="3.5"/>
                <g id="zoomPlus">
                        <use xlink:href="#rim" fill="#404040">
                                <set attributeName="fill" to="#808080" begin="zoomplus.mouseover" end="zoomplus.mouseout"/>
                        </use>
                        <path d="M-4,0h8M0,-4v8" fill="none" stroke="white" stroke-width="1.5" pointer-events="none"/>
                </g>
                <g id="zoomMin">
                        <use xlink:href="#rim" fill="#404040">
                                <set attributeName="fill" to="#808080" begin="zoomminus.mouseover" end="zoomminus.mouseout"/>
                        </use>
                        <path d="M-4,0h8" fill="none" stroke="white" stroke-width="1.5" pointer-events="none"/>
                </g>
                <g id="dirArrow">
                        <path fill="none" stroke="white" stroke-width="1.5" d="M0,-3.0v7 M-2.5,-0.5L0,-3.0L2.5,-0.5"/>
                </g>
               <g id="resetDef">
                       <use xlink:href="#rim2" fill="#404040">
                               <set attributeName="fill" to="#808080" begin="reset.mouseover" end="reset.mouseout"/>
                       </use>
               </g>
        </defs>

<script type="text/javascript">
var viewWidth = 934;
var viewHeight = 247;
var sectionId = 'dynsection-0';
</script>
<script xlink:href="svgpan.js"/>
<svg id="graph" class="graph">
<g id="viewport">
<title>bio::phred63</title>
<polygon fill="white" stroke="transparent" points="-4,4 -4,-243 930,-243 930,4 -4,4"/>
<!-- Node1 -->
<g id="node1" class="node">
<title>Node1</title>
<g id="a_node1"><a xlink:title="Quality type for traditional Sanger and modern Illumina Phred scores (full range).">
<polygon fill="#bfbfbf" stroke="black" points="849,-124.5 849,-143.5 926,-143.5 926,-124.5 849,-124.5"/>
<text text-anchor="middle" x="887.5" y="-131.5" font-family="Helvetica,sans-Serif" font-size="10.00">bio::phred63</text>
</a>
</g>
</g>
<!-- Node2 -->
<g id="node2" class="node">
<title>Node2</title>
<g id="a_node2"><a xlink:href="interfacebio_1_1writable__quality__alphabet.html" target="_top" xlink:title="A concept that indicates whether a writable alphabet represents quality scores.">
<polygon fill="white" stroke="black" points="669,-200.5 669,-219.5 812,-219.5 812,-200.5 669,-200.5"/>
<text text-anchor="middle" x="740.5" y="-207.5" font-family="Helvetica,sans-Serif" font-size="10.00">writable_quality_alphabet</text>
</a>
</g>
</g>
<!-- Node2&#45;&gt;Node1 -->
<g id="edge1" class="edge">
<title>Node2&#45;&gt;Node1</title>
<path fill="none" stroke="midnightblue" d="M796.73,-197.37C802,-195.5 807.17,-193.38 812,-191 837.71,-178.32 863.28,-156.14 876.75,-143.51"/>
<polygon fill="midnightblue" stroke="midnightblue" points="795.63,-194.05 787.21,-200.48 797.8,-200.7 795.63,-194.05"/>
</g>
<!-- Node3 -->
<g id="node3" class="node">
<title>Node3</title>
<g id="a_node3"><a xlink:href="interfacebio_1_1alphabet.html" target="_top" xlink:title="The generic alphabet concept that covers most data types used in ranges.">
<polygon fill="white" stroke="black" points="459.5,-200.5 459.5,-219.5 518.5,-219.5 518.5,-200.5 459.5,-200.5"/>
<text text-anchor="middle" x="489" y="-207.5" font-family="Helvetica,sans-Serif" font-size="10.00">alphabet</text>
</a>
</g>
</g>
<!-- Node3&#45;&gt;Node2 -->
<g id="edge2" class="edge">
<title>Node3&#45;&gt;Node2</title>
<path fill="none" stroke="midnightblue" d="M529.08,-210C566.45,-210 623.66,-210 669,-210"/>
<polygon fill="midnightblue" stroke="midnightblue" points="528.62,-206.5 518.62,-210 528.62,-213.5 528.62,-206.5"/>
</g>
<!-- Node4 -->
<g id="node4" class="node">
<title>Node4</title>
<g id="a_node4"><a xlink:href="interfacebio_1_1semialphabet.html" target="_top" xlink:title="The basis for bio::alphabet, but requires only rank interface (not char).">
<polygon fill="white" stroke="black" points="290.5,-200.5 290.5,-219.5 373.5,-219.5 373.5,-200.5 290.5,-200.5"/>
<text text-anchor="middle" x="332" y="-207.5" font-family="Helvetica,sans-Serif" font-size="10.00">semialphabet</text>
</a>
</g>
</g>
<!-- Node4&#45;&gt;Node3 -->
<g id="edge3" class="edge">
<title>Node4&#45;&gt;Node3</title>
<path fill="none" stroke="midnightblue" d="M383.81,-210C408.86,-210 438.15,-210 459.29,-210"/>
<polygon fill="midnightblue" stroke="midnightblue" points="383.72,-206.5 373.72,-210 383.72,-213.5 383.72,-206.5"/>
</g>
<!-- Node5 -->
<g id="node5" class="node">
<title>Node5</title>
<g id="a_node5"><a xlink:title=" ">
<polygon fill="white" stroke="#bfbfbf" points="8.5,-219.5 8.5,-238.5 120.5,-238.5 120.5,-219.5 8.5,-219.5"/>
<text text-anchor="middle" x="64.5" y="-226.5" font-family="Helvetica,sans-Serif" font-size="10.00">std::totally_ordered</text>
</a>
</g>
</g>
<!-- Node5&#45;&gt;Node4 -->
<g id="edge4" class="edge">
<title>Node5&#45;&gt;Node4</title>
<path fill="none" stroke="midnightblue" d="M130.57,-224.34C180.49,-220.77 247.84,-215.95 290.35,-212.91"/>
<polygon fill="midnightblue" stroke="midnightblue" points="130.24,-220.86 120.51,-225.06 130.74,-227.84 130.24,-220.86"/>
</g>
<!-- Node6 -->
<g id="node6" class="node">
<title>Node6</title>
<g id="a_node6"><a xlink:title=" ">
<polygon fill="white" stroke="#bfbfbf" points="0,-181.5 0,-200.5 129,-200.5 129,-181.5 0,-181.5"/>
<text text-anchor="middle" x="64.5" y="-188.5" font-family="Helvetica,sans-Serif" font-size="10.00">std::copy_constructible</text>
</a>
</g>
</g>
<!-- Node6&#45;&gt;Node4 -->
<g id="edge5" class="edge">
<title>Node6&#45;&gt;Node4</title>
<path fill="none" stroke="midnightblue" d="M139.28,-196.28C188.05,-199.77 250.14,-204.21 290.22,-207.08"/>
<polygon fill="midnightblue" stroke="midnightblue" points="139.32,-192.77 129.09,-195.55 138.82,-199.76 139.32,-192.77"/>
</g>
<!-- Node7 -->
<g id="node7" class="node">
<title>Node7</title>
<g id="a_node7"><a xlink:href="interfacebio_1_1meta_1_1trivially__copyable.html" target="_top" xlink:title="A type that satisfies std::is_trivially_copyable_v&lt;t&gt;.">
<polygon fill="white" stroke="black" points="688.5,-162.5 688.5,-181.5 792.5,-181.5 792.5,-162.5 688.5,-162.5"/>
<text text-anchor="middle" x="740.5" y="-169.5" font-family="Helvetica,sans-Serif" font-size="10.00">trivially_copyable</text>
</a>
</g>
</g>
<!-- Node7&#45;&gt;Node1 -->
<g id="edge6" class="edge">
<title>Node7&#45;&gt;Node1</title>
<path fill="none" stroke="midnightblue" d="M787.99,-159.82C808.12,-154.54 831.34,-148.46 850.17,-143.52"/>
<polygon fill="midnightblue" stroke="midnightblue" points="786.88,-156.49 778.09,-162.41 788.65,-163.26 786.88,-156.49"/>
</g>
<!-- Node8 -->
<g id="node8" class="node">
<title>Node8</title>
<g id="a_node8"><a xlink:title=" ">
<polygon fill="white" stroke="#bfbfbf" points="448,-162.5 448,-181.5 530,-181.5 530,-162.5 448,-162.5"/>
<text text-anchor="middle" x="489" y="-169.5" font-family="Helvetica,sans-Serif" font-size="10.00">std::copyable</text>
</a>
</g>
</g>
<!-- Node8&#45;&gt;Node7 -->
<g id="edge7" class="edge">
<title>Node8&#45;&gt;Node7</title>
<path fill="none" stroke="midnightblue" d="M540.33,-172C583.35,-172 644.99,-172 688.28,-172"/>
<polygon fill="midnightblue" stroke="midnightblue" points="540.09,-168.5 530.09,-172 540.09,-175.5 540.09,-168.5"/>
</g>
<!-- Node9 -->
<g id="node9" class="node">
<title>Node9</title>
<g id="a_node9"><a xlink:href="interfacebio_1_1meta_1_1standard__layout.html" target="_top" xlink:title="Resolves to std::is_standard_layout_v&lt;t&gt;.">
<polygon fill="white" stroke="black" points="693,-124.5 693,-143.5 788,-143.5 788,-124.5 693,-124.5"/>
<text text-anchor="middle" x="740.5" y="-131.5" font-family="Helvetica,sans-Serif" font-size="10.00">standard_layout</text>
</a>
</g>
</g>
<!-- Node9&#45;&gt;Node1 -->
<g id="edge8" class="edge">
<title>Node9&#45;&gt;Node1</title>
<path fill="none" stroke="midnightblue" d="M798.47,-134C815.3,-134 833.31,-134 848.62,-134"/>
<polygon fill="midnightblue" stroke="midnightblue" points="798.18,-130.5 788.18,-134 798.18,-137.5 798.18,-130.5"/>
</g>
<!-- Node10 -->
<g id="node10" class="node">
<title>Node10</title>
<g id="a_node10"><a xlink:title=" ">
<polygon fill="white" stroke="#bfbfbf" points="704.5,-86.5 704.5,-105.5 776.5,-105.5 776.5,-86.5 704.5,-86.5"/>
<text text-anchor="middle" x="740.5" y="-93.5" font-family="Helvetica,sans-Serif" font-size="10.00">std::regular</text>
</a>
</g>
</g>
<!-- Node10&#45;&gt;Node1 -->
<g id="edge9" class="edge">
<title>Node10&#45;&gt;Node1</title>
<path fill="none" stroke="midnightblue" d="M786.36,-107.76C806.87,-113.13 830.85,-119.42 850.21,-124.49"/>
<polygon fill="midnightblue" stroke="midnightblue" points="787.16,-104.35 776.6,-105.2 785.39,-111.12 787.16,-104.35"/>
</g>
<!-- Node11 -->
<g id="node11" class="node">
<title>Node11</title>
<g id="a_node11"><a xlink:href="classbio_1_1quality__base.html" target="_top" xlink:title=" ">
<polygon fill="white" stroke="black" points="686.5,-37 686.5,-67 794.5,-67 794.5,-37 686.5,-37"/>
<text text-anchor="start" x="694.5" y="-55" font-family="Helvetica,sans-Serif" font-size="10.00">bio::quality_base&lt;</text>
<text text-anchor="middle" x="740.5" y="-44" font-family="Helvetica,sans-Serif" font-size="10.00"> phred63, 63 &gt;</text>
</a>
</g>
</g>
<!-- Node11&#45;&gt;Node1 -->
<g id="edge10" class="edge">
<title>Node11&#45;&gt;Node1</title>
<path fill="none" stroke="midnightblue" d="M799.8,-71.03C804,-72.9 808.11,-74.89 812,-77 836.91,-90.51 862.37,-111.99 876.13,-124.36"/>
<polygon fill="midnightblue" stroke="midnightblue" points="801.1,-67.78 790.53,-67.14 798.4,-74.23 801.1,-67.78"/>
</g>
<!-- Node12 -->
<g id="node12" class="node">
<title>Node12</title>
<g id="a_node12"><a xlink:href="classbio_1_1alphabet__base.html" target="_top" xlink:title="A CRTP&#45;base that makes defining a custom alphabet easier.">
<polygon fill="white" stroke="black" points="4.5,-28.5 4.5,-69.5 124.5,-69.5 124.5,-28.5 4.5,-28.5"/>
<text text-anchor="start" x="12.5" y="-57.5" font-family="Helvetica,sans-Serif" font-size="10.00">bio::alphabet_base</text>
<text text-anchor="start" x="12.5" y="-46.5" font-family="Helvetica,sans-Serif" font-size="10.00">&lt; derived_type, size,</text>
<text text-anchor="middle" x="64.5" y="-35.5" font-family="Helvetica,sans-Serif" font-size="10.00"> char_t &gt;</text>
</a>
</g>
</g>
<!-- Node12&#45;&gt;Node11 -->
<g id="edge11" class="edge">
<title>Node12&#45;&gt;Node11</title>
<path fill="none" stroke="midnightblue" d="M134.88,-55.36C138.98,-55.61 143.04,-55.83 147,-56 370.79,-65.59 427.06,-61.06 651,-56 662.38,-55.74 674.57,-55.3 686.16,-54.8"/>
<polygon fill="midnightblue" stroke="midnightblue" points="134.88,-51.86 124.66,-54.68 134.41,-58.84 134.88,-51.86"/>
</g>
<!-- Node14 -->
<g id="node14" class="node">
<title>Node14</title>
<g id="a_node14"><a xlink:href="classbio_1_1alphabet__base.html" target="_top" xlink:title=" ">
<polygon fill="white" stroke="black" points="272,-0.5 272,-41.5 392,-41.5 392,-0.5 272,-0.5"/>
<text text-anchor="start" x="280" y="-29.5" font-family="Helvetica,sans-Serif" font-size="10.00">bio::alphabet_base</text>
<text text-anchor="start" x="280" y="-18.5" font-family="Helvetica,sans-Serif" font-size="10.00">&lt; derived_type, size,</text>
<text text-anchor="middle" x="332" y="-7.5" font-family="Helvetica,sans-Serif" font-size="10.00"> char &gt;</text>
</a>
</g>
</g>
<!-- Node12&#45;&gt;Node14 -->
<g id="edge14" class="edge">
<title>Node12&#45;&gt;Node14</title>
<path fill="none" stroke="orange" stroke-dasharray="5,2" d="M134.47,-35.75C138.71,-35.11 142.91,-34.52 147,-34 188.46,-28.74 235.46,-25.46 271.59,-23.51"/>
<polygon fill="orange" stroke="orange" points="133.91,-32.3 124.58,-37.33 135.01,-39.21 133.91,-32.3"/>
<text text-anchor="start" x="147" y="-48" font-family="Helvetica,sans-Serif" font-size="10.00"> &lt; derived_type, size,</text>
<text text-anchor="middle" x="200.5" y="-37" font-family="Helvetica,sans-Serif" font-size="10.00"> char &gt;</text>
</g>
<!-- Node13 -->
<g id="node13" class="node">
<title>Node13</title>
<g id="a_node13"><a xlink:href="classbio_1_1quality__base.html" target="_top" xlink:title="A CRTP&#45;base that refines bio::alphabet_base and is used by the quality alphabets.">
<polygon fill="white" stroke="black" points="429,-9 429,-39 549,-39 549,-9 429,-9"/>
<text text-anchor="start" x="437" y="-27" font-family="Helvetica,sans-Serif" font-size="10.00">bio::quality_base&lt;</text>
<text text-anchor="middle" x="489" y="-16" font-family="Helvetica,sans-Serif" font-size="10.00"> derived_type, size &gt;</text>
</a>
</g>
</g>
<!-- Node13&#45;&gt;Node11 -->
<g id="edge12" class="edge">
<title>Node13&#45;&gt;Node11</title>
<path fill="none" stroke="orange" stroke-dasharray="5,2" d="M559.12,-31.76C599.32,-36.27 649.2,-41.87 686.32,-46.03"/>
<polygon fill="orange" stroke="orange" points="559.46,-28.27 549.13,-30.64 558.68,-35.23 559.46,-28.27"/>
<text text-anchor="middle" x="609" y="-45" font-family="Helvetica,sans-Serif" font-size="10.00"> &lt; phred63, 63 &gt;</text>
</g>
<!-- Node14&#45;&gt;Node13 -->
<g id="edge13" class="edge">
<title>Node14&#45;&gt;Node13</title>
<path fill="none" stroke="midnightblue" d="M402.05,-22.34C411,-22.51 420.1,-22.69 428.87,-22.86"/>
<polygon fill="midnightblue" stroke="midnightblue" points="402.11,-18.84 392.04,-22.14 401.97,-25.84 402.11,-18.84"/>
</g>
</g>
</svg>
        <g id="navigator" transform="translate(0 0)" fill="#404254">
                <rect fill="#f2f5e9" fill-opacity="0.5" stroke="#606060" stroke-width=".5" x="0" y="0" width="60" height="60"/>
                <use id="zoomplus" xlink:href="#zoomPlus" x="17" y="9" onmousedown="handleZoom(evt,'in')"/>
                <use id="zoomminus" xlink:href="#zoomMin" x="42" y="9" onmousedown="handleZoom(evt,'out')"/>
                <use id="reset" xlink:href="#resetDef" x="30" y="36" onmousedown="handleReset()"/>
                <g id="arrowUp" xlink:href="#dirArrow" transform="translate(30 24)" onmousedown="handlePan(0,-1)">
                  <use xlink:href="#rim" fill="#404040">
                        <set attributeName="fill" to="#808080" begin="arrowUp.mouseover" end="arrowUp.mouseout"/>
                  </use>
                  <path fill="none" stroke="white" stroke-width="1.5" d="M0,-3.0v7 M-2.5,-0.5L0,-3.0L2.5,-0.5"/>
                </g>
                <g id="arrowRight" xlink:href="#dirArrow" transform="rotate(90) translate(36 -43)" onmousedown="handlePan(1,0)">
                  <use xlink:href="#rim" fill="#404040">
                        <set attributeName="fill" to="#808080" begin="arrowRight.mouseover" end="arrowRight.mouseout"/>
                  </use>
                  <path fill="none" stroke="white" stroke-width="1.5" d="M0,-3.0v7 M-2.5,-0.5L0,-3.0L2.5,-0.5"/>
                </g>
                <g id="arrowDown" xlink:href="#dirArrow" transform="rotate(180) translate(-30 -48)" onmousedown="handlePan(0,1)">
                  <use xlink:href="#rim" fill="#404040">
                        <set attributeName="fill" to="#808080" begin="arrowDown.mouseover" end="arrowDown.mouseout"/>
                  </use>
                  <path fill="none" stroke="white" stroke-width="1.5" d="M0,-3.0v7 M-2.5,-0.5L0,-3.0L2.5,-0.5"/>
                </g>
                <g id="arrowLeft" xlink:href="#dirArrow" transform="rotate(270) translate(-36 17)" onmousedown="handlePan(-1,0)">
                  <use xlink:href="#rim" fill="#404040">
                        <set attributeName="fill" to="#808080" begin="arrowLeft.mouseover" end="arrowLeft.mouseout"/>
                  </use>
                  <path fill="none" stroke="white" stroke-width="1.5" d="M0,-3.0v7 M-2.5,-0.5L0,-3.0L2.5,-0.5"/>
                </g>
        </g>
        <svg viewBox="0 0 15 15" width="100%" height="30px" preserveAspectRatio="xMaxYMin meet">
         <g id="arrow_out" transform="scale(0.3 0.3)">
          <a xlink:href="classbio_1_1phred63__inherit__graph_org.svg" target="_base">
           <rect id="button" ry="5" rx="5" y="6" x="6" height="38" width="38"
                fill="#f2f5e9" fill-opacity="0.5" stroke="#606060" stroke-width="1.0"/>
           <path id="arrow"
             d="M 11.500037,31.436501 C 11.940474,20.09759 22.043105,11.32322 32.158766,21.979434 L 37.068811,17.246167 C 37.068811,17.246167 37.088388,32 37.088388,32 L 22.160133,31.978069 C 22.160133,31.978069 26.997745,27.140456 26.997745,27.140456 C 18.528582,18.264221 13.291696,25.230495 11.500037,31.436501 z"
             style="fill:#404040;"/>
          </a>
         </g>
        </svg>
</svg>
