<?xml version="1.0" encoding="UTF-8" standalone="no"?>
<!DOCTYPE svg PUBLIC "-//W3C//DTD SVG 1.1//EN"
 "http://www.w3.org/Graphics/SVG/1.1/DTD/svg11.dtd">
<!-- Generated by graphviz version 2.43.0 (0)
 -->
<!-- Title: bio::ranges::views::deep&lt; underlying_adaptor_t &gt; Pages: 1 -->
<svg width="670pt" height="68pt"
 viewBox="0.00 0.00 670.00 67.50" xmlns="http://www.w3.org/2000/svg" xmlns:xlink="http://www.w3.org/1999/xlink">
<g id="graph0" class="graph" transform="scale(1 1) rotate(0) translate(4 63.5)">
<title>bio::ranges::views::deep&lt; underlying_adaptor_t &gt;</title>
<polygon fill="white" stroke="transparent" points="-4,4 -4,-63.5 666,-63.5 666,4 -4,4"/>
<!-- Node1 -->
<g id="node1" class="node">
<title>Node1</title>
<g id="a_node1"><a xlink:title="A wrapper type around an existing view adaptor that enables &quot;deep view&quot; behaviour for that view.">
<polygon fill="#bfbfbf" stroke="black" points="489,-11.5 489,-41.5 662,-41.5 662,-11.5 489,-11.5"/>
<text text-anchor="start" x="497" y="-29.5" font-family="Helvetica,sans-Serif" font-size="10.00">bio::ranges::views</text>
<text text-anchor="middle" x="575.5" y="-18.5" font-family="Helvetica,sans-Serif" font-size="10.00">::deep&lt; underlying_adaptor_t &gt;</text>
</a>
</g>
</g>
<!-- Node2 -->
<g id="node2" class="node">
<title>Node2</title>
<g id="a_node2"><a xlink:title=" ">
<polygon fill="white" stroke="#bfbfbf" points="294,-0.5 294,-52.5 452,-52.5 452,-0.5 294,-0.5"/>
<text text-anchor="start" x="302" y="-40.5" font-family="Helvetica,sans-Serif" font-size="10.00">bio::ranges::detail</text>
<text text-anchor="start" x="302" y="-29.5" font-family="Helvetica,sans-Serif" font-size="10.00">::adaptor_base&lt; deep</text>
<text text-anchor="start" x="302" y="-18.5" font-family="Helvetica,sans-Serif" font-size="10.00">&lt; underlying_adaptor</text>
<text text-anchor="middle" x="373" y="-7.5" font-family="Helvetica,sans-Serif" font-size="10.00">_t &gt;, underlying_adaptor_t &gt;</text>
</a>
</g>
</g>
<!-- Node2&#45;&gt;Node1 -->
<g id="edge1" class="edge">
<title>Node2&#45;&gt;Node1</title>
<path fill="none" stroke="midnightblue" d="M462.1,-26.5C471.03,-26.5 480.08,-26.5 488.98,-26.5"/>
<polygon fill="midnightblue" stroke="midnightblue" points="462.09,-23 452.09,-26.5 462.09,-30 462.09,-23"/>
</g>
<!-- Node3 -->
<g id="node3" class="node">
<title>Node3</title>
<g id="a_node3"><a xlink:title=" ">
<polygon fill="white" stroke="#bfbfbf" points="0,-6 0,-47 137,-47 137,-6 0,-6"/>
<text text-anchor="start" x="8" y="-35" font-family="Helvetica,sans-Serif" font-size="10.00">bio::ranges::detail</text>
<text text-anchor="start" x="8" y="-24" font-family="Helvetica,sans-Serif" font-size="10.00">::adaptor_base&lt; derived</text>
<text text-anchor="middle" x="68.5" y="-13" font-family="Helvetica,sans-Serif" font-size="10.00">_type, stored_args_ts &gt;</text>
</a>
</g>
</g>
<!-- Node3&#45;&gt;Node2 -->
<g id="edge2" class="edge">
<title>Node3&#45;&gt;Node2</title>
<path fill="none" stroke="orange" stroke-dasharray="5,2" d="M147.02,-26.5C192.04,-26.5 248.59,-26.5 293.74,-26.5"/>
<polygon fill="orange" stroke="orange" points="147.01,-23 137.01,-26.5 147.01,-30 147.01,-23"/>
<text text-anchor="start" x="155" y="-51.5" font-family="Helvetica,sans-Serif" font-size="10.00"> &lt; deep&lt; underlying</text>
<text text-anchor="start" x="155" y="-40.5" font-family="Helvetica,sans-Serif" font-size="10.00">_adaptor_t &gt;, underlying</text>
<text text-anchor="middle" x="215.5" y="-29.5" font-family="Helvetica,sans-Serif" font-size="10.00">_adaptor_t &gt;</text>
</g>
</g>
</svg>
