<?xml version="1.0" encoding="UTF-8" standalone="no"?>
<!DOCTYPE svg PUBLIC "-//W3C//DTD SVG 1.1//EN"
 "http://www.w3.org/Graphics/SVG/1.1/DTD/svg11.dtd">
<!-- Generated by graphviz version 2.43.0 (0)
 -->
<!-- Title: bio::alphabet::nucleotide_base&lt; derived_type, size &gt; Pages: 1 -->
<!--zoomable 333 -->
<svg id="main" version="1.1" xmlns="http://www.w3.org/2000/svg" xmlns:xlink="http://www.w3.org/1999/xlink" xml:space="preserve" onload="init(evt)">
<style type="text/css"><![CDATA[
.edge:hover path { stroke: red; }
.edge:hover polygon { stroke: red; fill: red; }
]]></style>
<script type="text/javascript"><![CDATA[
var edges = document.getElementsByTagName('g');
if (edges && edges.length) {
  for (var i=0;i<edges.length;i++) {
    if (edges[i].id.substr(0,4)=='edge') {
      edges[i].setAttribute('class','edge');
    }
  }
}
]]></script>
        <defs>
                <circle id="rim" cx="0" cy="0" r="7"/>
                <circle id="rim2" cx="0" cy="0" r="3.5"/>
                <g id="zoomPlus">
                        <use xlink:href="#rim" fill="#404040">
                                <set attributeName="fill" to="#808080" begin="zoomplus.mouseover" end="zoomplus.mouseout"/>
                        </use>
                        <path d="M-4,0h8M0,-4v8" fill="none" stroke="white" stroke-width="1.5" pointer-events="none"/>
                </g>
                <g id="zoomMin">
                        <use xlink:href="#rim" fill="#404040">
                                <set attributeName="fill" to="#808080" begin="zoomminus.mouseover" end="zoomminus.mouseout"/>
                        </use>
                        <path d="M-4,0h8" fill="none" stroke="white" stroke-width="1.5" pointer-events="none"/>
                </g>
                <g id="dirArrow">
                        <path fill="none" stroke="white" stroke-width="1.5" d="M0,-3.0v7 M-2.5,-0.5L0,-3.0L2.5,-0.5"/>
                </g>
               <g id="resetDef">
                       <use xlink:href="#rim2" fill="#404040">
                               <set attributeName="fill" to="#808080" begin="reset.mouseover" end="reset.mouseout"/>
                       </use>
               </g>
        </defs>

<script type="text/javascript">
var viewWidth = 1085;
var viewHeight = 333;
var sectionId = 'dynsection-0';
</script>
<script xlink:href="svgpan.js"/>
<svg id="graph" class="graph">
<g id="viewport">
<title>bio::alphabet::nucleotide_base&lt; derived_type, size &gt;</title>
<polygon fill="white" stroke="transparent" points="-4,4 -4,-329 1081,-329 1081,4 -4,4"/>
<!-- Node1 -->
<g id="node1" class="node">
<title>Node1</title>
<g id="a_node1"><a xlink:title="A CRTP&#45;base that refines bio::alphabet::alphabet_base and is used by the nucleotides.">
<polygon fill="#bfbfbf" stroke="black" points="478,-147.5 478,-177.5 635,-177.5 635,-147.5 478,-147.5"/>
<text text-anchor="start" x="486" y="-165.5" font-family="Helvetica,sans-Serif" font-size="10.00">bio::alphabet::nucleotide</text>
<text text-anchor="middle" x="556.5" y="-154.5" font-family="Helvetica,sans-Serif" font-size="10.00">_base&lt; derived_type, size &gt;</text>
</a>
</g>
</g>
<!-- Node4 -->
<g id="node4" class="node">
<title>Node4</title>
<g id="a_node4"><a xlink:href="classbio_1_1alphabet_1_1nucleotide__base.html" target="_top" xlink:title=" ">
<polygon fill="white" stroke="black" points="766,-294.5 766,-324.5 903,-324.5 903,-294.5 766,-294.5"/>
<text text-anchor="start" x="774" y="-312.5" font-family="Helvetica,sans-Serif" font-size="10.00">bio::alphabet::nucleotide</text>
<text text-anchor="middle" x="834.5" y="-301.5" font-family="Helvetica,sans-Serif" font-size="10.00">_base&lt; rna5, 5 &gt;</text>
</a>
</g>
</g>
<!-- Node1&#45;&gt;Node4 -->
<g id="edge3" class="edge">
<title>Node1&#45;&gt;Node4</title>
<path fill="none" stroke="orange" stroke-dasharray="5,2" d="M575.87,-185.57C593.58,-206.36 622.16,-236.38 653,-254.5 687.6,-274.83 730.42,-288.3 765.66,-296.82"/>
<polygon fill="orange" stroke="orange" points="578.51,-183.26 569.42,-177.82 573.13,-187.75 578.51,-183.26"/>
<text text-anchor="middle" x="700.5" y="-294.5" font-family="Helvetica,sans-Serif" font-size="10.00"> &lt; rna5, 5 &gt;</text>
</g>
<!-- Node6 -->
<g id="node6" class="node">
<title>Node6</title>
<g id="a_node6"><a xlink:href="classbio_1_1alphabet_1_1nucleotide__base.html" target="_top" xlink:title=" ">
<polygon fill="white" stroke="black" points="766,-245.5 766,-275.5 903,-275.5 903,-245.5 766,-245.5"/>
<text text-anchor="start" x="774" y="-263.5" font-family="Helvetica,sans-Serif" font-size="10.00">bio::alphabet::nucleotide</text>
<text text-anchor="middle" x="834.5" y="-252.5" font-family="Helvetica,sans-Serif" font-size="10.00">_base&lt; rna4, 4 &gt;</text>
</a>
</g>
</g>
<!-- Node1&#45;&gt;Node6 -->
<g id="edge5" class="edge">
<title>Node1&#45;&gt;Node6</title>
<path fill="none" stroke="orange" stroke-dasharray="5,2" d="M592.86,-182.35C610.55,-191.74 632.51,-202.6 653,-210.5 690.01,-224.77 732.74,-236.8 767.33,-245.47"/>
<polygon fill="orange" stroke="orange" points="594.49,-179.26 584.03,-177.6 591.18,-185.42 594.49,-179.26"/>
<text text-anchor="middle" x="700.5" y="-242.5" font-family="Helvetica,sans-Serif" font-size="10.00"> &lt; rna4, 4 &gt;</text>
</g>
<!-- Node8 -->
<g id="node8" class="node">
<title>Node8</title>
<g id="a_node8"><a xlink:href="classbio_1_1alphabet_1_1nucleotide__base.html" target="_top" xlink:title=" ">
<polygon fill="white" stroke="black" points="766,-196.5 766,-226.5 903,-226.5 903,-196.5 766,-196.5"/>
<text text-anchor="start" x="774" y="-214.5" font-family="Helvetica,sans-Serif" font-size="10.00">bio::alphabet::nucleotide</text>
<text text-anchor="middle" x="834.5" y="-203.5" font-family="Helvetica,sans-Serif" font-size="10.00">_base&lt; dna16sam, 16 &gt;</text>
</a>
</g>
</g>
<!-- Node1&#45;&gt;Node8 -->
<g id="edge7" class="edge">
<title>Node1&#45;&gt;Node8</title>
<path fill="none" stroke="orange" stroke-dasharray="5,2" d="M645.41,-178.11C684.39,-185.03 729.55,-193.04 765.84,-199.49"/>
<polygon fill="orange" stroke="orange" points="645.57,-174.58 635.12,-176.28 644.35,-181.47 645.57,-174.58"/>
<text text-anchor="middle" x="700.5" y="-198.5" font-family="Helvetica,sans-Serif" font-size="10.00"> &lt; dna16sam, 16 &gt;</text>
</g>
<!-- Node10 -->
<g id="node10" class="node">
<title>Node10</title>
<g id="a_node10"><a xlink:href="classbio_1_1alphabet_1_1nucleotide__base.html" target="_top" xlink:title=" ">
<polygon fill="white" stroke="black" points="766,-147.5 766,-177.5 903,-177.5 903,-147.5 766,-147.5"/>
<text text-anchor="start" x="774" y="-165.5" font-family="Helvetica,sans-Serif" font-size="10.00">bio::alphabet::nucleotide</text>
<text text-anchor="middle" x="834.5" y="-154.5" font-family="Helvetica,sans-Serif" font-size="10.00">_base&lt; dna15, 15 &gt;</text>
</a>
</g>
</g>
<!-- Node1&#45;&gt;Node10 -->
<g id="edge9" class="edge">
<title>Node1&#45;&gt;Node10</title>
<path fill="none" stroke="orange" stroke-dasharray="5,2" d="M645.41,-162.5C684.39,-162.5 729.55,-162.5 765.84,-162.5"/>
<polygon fill="orange" stroke="orange" points="645.12,-159 635.12,-162.5 645.12,-166 645.12,-159"/>
<text text-anchor="middle" x="700.5" y="-165.5" font-family="Helvetica,sans-Serif" font-size="10.00"> &lt; dna15, 15 &gt;</text>
</g>
<!-- Node12 -->
<g id="node12" class="node">
<title>Node12</title>
<g id="a_node12"><a xlink:href="classbio_1_1alphabet_1_1nucleotide__base.html" target="_top" xlink:title=" ">
<polygon fill="white" stroke="black" points="766,-98.5 766,-128.5 903,-128.5 903,-98.5 766,-98.5"/>
<text text-anchor="start" x="774" y="-116.5" font-family="Helvetica,sans-Serif" font-size="10.00">bio::alphabet::nucleotide</text>
<text text-anchor="middle" x="834.5" y="-105.5" font-family="Helvetica,sans-Serif" font-size="10.00">_base&lt; rna15, 15 &gt;</text>
</a>
</g>
</g>
<!-- Node1&#45;&gt;Node12 -->
<g id="edge11" class="edge">
<title>Node1&#45;&gt;Node12</title>
<path fill="none" stroke="orange" stroke-dasharray="5,2" d="M645.41,-146.89C684.39,-139.97 729.55,-131.96 765.84,-125.51"/>
<polygon fill="orange" stroke="orange" points="644.35,-143.53 635.12,-148.72 645.57,-150.42 644.35,-143.53"/>
<text text-anchor="middle" x="700.5" y="-148.5" font-family="Helvetica,sans-Serif" font-size="10.00"> &lt; rna15, 15 &gt;</text>
</g>
<!-- Node14 -->
<g id="node14" class="node">
<title>Node14</title>
<g id="a_node14"><a xlink:href="classbio_1_1alphabet_1_1nucleotide__base.html" target="_top" xlink:title=" ">
<polygon fill="white" stroke="black" points="766,-49.5 766,-79.5 903,-79.5 903,-49.5 766,-49.5"/>
<text text-anchor="start" x="774" y="-67.5" font-family="Helvetica,sans-Serif" font-size="10.00">bio::alphabet::nucleotide</text>
<text text-anchor="middle" x="834.5" y="-56.5" font-family="Helvetica,sans-Serif" font-size="10.00">_base&lt; dna5, 5 &gt;</text>
</a>
</g>
</g>
<!-- Node1&#45;&gt;Node14 -->
<g id="edge13" class="edge">
<title>Node1&#45;&gt;Node14</title>
<path fill="none" stroke="orange" stroke-dasharray="5,2" d="M592.86,-142.65C610.55,-133.26 632.51,-122.4 653,-114.5 690.01,-100.23 732.74,-88.2 767.33,-79.53"/>
<polygon fill="orange" stroke="orange" points="591.18,-139.58 584.03,-147.4 594.49,-145.74 591.18,-139.58"/>
<text text-anchor="middle" x="700.5" y="-117.5" font-family="Helvetica,sans-Serif" font-size="10.00"> &lt; dna5, 5 &gt;</text>
</g>
<!-- Node16 -->
<g id="node16" class="node">
<title>Node16</title>
<g id="a_node16"><a xlink:href="classbio_1_1alphabet_1_1nucleotide__base.html" target="_top" xlink:title=" ">
<polygon fill="white" stroke="black" points="766,-0.5 766,-30.5 903,-30.5 903,-0.5 766,-0.5"/>
<text text-anchor="start" x="774" y="-18.5" font-family="Helvetica,sans-Serif" font-size="10.00">bio::alphabet::nucleotide</text>
<text text-anchor="middle" x="834.5" y="-7.5" font-family="Helvetica,sans-Serif" font-size="10.00">_base&lt; dna4, 4 &gt;</text>
</a>
</g>
</g>
<!-- Node1&#45;&gt;Node16 -->
<g id="edge15" class="edge">
<title>Node1&#45;&gt;Node16</title>
<path fill="none" stroke="orange" stroke-dasharray="5,2" d="M575.87,-139.43C593.58,-118.64 622.16,-88.62 653,-70.5 687.6,-50.17 730.42,-36.7 765.66,-28.18"/>
<polygon fill="orange" stroke="orange" points="573.13,-137.25 569.42,-147.18 578.51,-141.74 573.13,-137.25"/>
<text text-anchor="middle" x="700.5" y="-73.5" font-family="Helvetica,sans-Serif" font-size="10.00"> &lt; dna4, 4 &gt;</text>
</g>
<!-- Node2 -->
<g id="node2" class="node">
<title>Node2</title>
<g id="a_node2"><a xlink:href="classbio_1_1alphabet_1_1alphabet__base.html" target="_top" xlink:title=" ">
<polygon fill="white" stroke="black" points="292,-142 292,-183 441,-183 441,-142 292,-142"/>
<text text-anchor="start" x="300" y="-171" font-family="Helvetica,sans-Serif" font-size="10.00">bio::alphabet::alphabet</text>
<text text-anchor="start" x="300" y="-160" font-family="Helvetica,sans-Serif" font-size="10.00">_base&lt; derived_type, size,</text>
<text text-anchor="middle" x="366.5" y="-149" font-family="Helvetica,sans-Serif" font-size="10.00"> char &gt;</text>
</a>
</g>
</g>
<!-- Node2&#45;&gt;Node1 -->
<g id="edge1" class="edge">
<title>Node2&#45;&gt;Node1</title>
<path fill="none" stroke="midnightblue" d="M451.51,-162.5C460.3,-162.5 469.21,-162.5 477.92,-162.5"/>
<polygon fill="midnightblue" stroke="midnightblue" points="451.26,-159 441.26,-162.5 451.26,-166 451.26,-159"/>
</g>
<!-- Node3 -->
<g id="node3" class="node">
<title>Node3</title>
<g id="a_node3"><a xlink:href="classbio_1_1alphabet_1_1alphabet__base.html" target="_top" xlink:title="A CRTP&#45;base that makes defining a custom alphabet easier.">
<polygon fill="white" stroke="black" points="0,-142 0,-183 149,-183 149,-142 0,-142"/>
<text text-anchor="start" x="8" y="-171" font-family="Helvetica,sans-Serif" font-size="10.00">bio::alphabet::alphabet</text>
<text text-anchor="start" x="8" y="-160" font-family="Helvetica,sans-Serif" font-size="10.00">_base&lt; derived_type, size,</text>
<text text-anchor="middle" x="74.5" y="-149" font-family="Helvetica,sans-Serif" font-size="10.00"> char_t &gt;</text>
</a>
</g>
</g>
<!-- Node3&#45;&gt;Node2 -->
<g id="edge2" class="edge">
<title>Node3&#45;&gt;Node2</title>
<path fill="none" stroke="orange" stroke-dasharray="5,2" d="M159.23,-162.5C201.12,-162.5 251.36,-162.5 291.77,-162.5"/>
<polygon fill="orange" stroke="orange" points="159.05,-159 149.05,-162.5 159.05,-166 159.05,-159"/>
<text text-anchor="start" x="167" y="-176.5" font-family="Helvetica,sans-Serif" font-size="10.00"> &lt; derived_type, size,</text>
<text text-anchor="middle" x="220.5" y="-165.5" font-family="Helvetica,sans-Serif" font-size="10.00"> char &gt;</text>
</g>
<!-- Node5 -->
<g id="node5" class="node">
<title>Node5</title>
<g id="a_node5"><a xlink:href="classbio_1_1alphabet_1_1rna5.html" target="_top" xlink:title="The five letter RNA alphabet of A,C,G,U and the unknown character N.">
<polygon fill="white" stroke="black" points="954.5,-300 954.5,-319 1062.5,-319 1062.5,-300 954.5,-300"/>
<text text-anchor="middle" x="1008.5" y="-307" font-family="Helvetica,sans-Serif" font-size="10.00">bio::alphabet::rna5</text>
</a>
</g>
</g>
<!-- Node4&#45;&gt;Node5 -->
<g id="edge4" class="edge">
<title>Node4&#45;&gt;Node5</title>
<path fill="none" stroke="midnightblue" d="M913.88,-309.5C927.57,-309.5 941.52,-309.5 954.33,-309.5"/>
<polygon fill="midnightblue" stroke="midnightblue" points="913.48,-306 903.48,-309.5 913.48,-313 913.48,-306"/>
</g>
<!-- Node7 -->
<g id="node7" class="node">
<title>Node7</title>
<g id="a_node7"><a xlink:href="classbio_1_1alphabet_1_1rna4.html" target="_top" xlink:title="The four letter RNA alphabet of A,C,G,U.">
<polygon fill="white" stroke="black" points="954.5,-251 954.5,-270 1062.5,-270 1062.5,-251 954.5,-251"/>
<text text-anchor="middle" x="1008.5" y="-258" font-family="Helvetica,sans-Serif" font-size="10.00">bio::alphabet::rna4</text>
</a>
</g>
</g>
<!-- Node6&#45;&gt;Node7 -->
<g id="edge6" class="edge">
<title>Node6&#45;&gt;Node7</title>
<path fill="none" stroke="midnightblue" d="M913.88,-260.5C927.57,-260.5 941.52,-260.5 954.33,-260.5"/>
<polygon fill="midnightblue" stroke="midnightblue" points="913.48,-257 903.48,-260.5 913.48,-264 913.48,-257"/>
</g>
<!-- Node9 -->
<g id="node9" class="node">
<title>Node9</title>
<g id="a_node9"><a xlink:href="classbio_1_1alphabet_1_1dna16sam.html" target="_top" xlink:title="A 16 letter DNA alphabet, containing all IUPAC symbols minus the gap and plus an equality sign (&#39;=&#39;).">
<polygon fill="white" stroke="black" points="940,-202 940,-221 1077,-221 1077,-202 940,-202"/>
<text text-anchor="middle" x="1008.5" y="-209" font-family="Helvetica,sans-Serif" font-size="10.00">bio::alphabet::dna16sam</text>
</a>
</g>
</g>
<!-- Node8&#45;&gt;Node9 -->
<g id="edge8" class="edge">
<title>Node8&#45;&gt;Node9</title>
<path fill="none" stroke="midnightblue" d="M913.63,-211.5C922.35,-211.5 931.17,-211.5 939.73,-211.5"/>
<polygon fill="midnightblue" stroke="midnightblue" points="913.48,-208 903.48,-211.5 913.48,-215 913.48,-208"/>
</g>
<!-- Node11 -->
<g id="node11" class="node">
<title>Node11</title>
<g id="a_node11"><a xlink:href="classbio_1_1alphabet_1_1dna15.html" target="_top" xlink:title="The 15 letter DNA alphabet, containing all IUPAC smybols minus the gap.">
<polygon fill="white" stroke="black" points="950.5,-153 950.5,-172 1066.5,-172 1066.5,-153 950.5,-153"/>
<text text-anchor="middle" x="1008.5" y="-160" font-family="Helvetica,sans-Serif" font-size="10.00">bio::alphabet::dna15</text>
</a>
</g>
</g>
<!-- Node10&#45;&gt;Node11 -->
<g id="edge10" class="edge">
<title>Node10&#45;&gt;Node11</title>
<path fill="none" stroke="midnightblue" d="M913.74,-162.5C926.05,-162.5 938.56,-162.5 950.28,-162.5"/>
<polygon fill="midnightblue" stroke="midnightblue" points="913.48,-159 903.48,-162.5 913.48,-166 913.48,-159"/>
</g>
<!-- Node13 -->
<g id="node13" class="node">
<title>Node13</title>
<g id="a_node13"><a xlink:href="classbio_1_1alphabet_1_1rna15.html" target="_top" xlink:title="The 15 letter RNA alphabet, containing all IUPAC smybols minus the gap.">
<polygon fill="white" stroke="black" points="951.5,-104 951.5,-123 1065.5,-123 1065.5,-104 951.5,-104"/>
<text text-anchor="middle" x="1008.5" y="-111" font-family="Helvetica,sans-Serif" font-size="10.00">bio::alphabet::rna15</text>
</a>
</g>
</g>
<!-- Node12&#45;&gt;Node13 -->
<g id="edge12" class="edge">
<title>Node12&#45;&gt;Node13</title>
<path fill="none" stroke="midnightblue" d="M913.61,-113.5C926.34,-113.5 939.3,-113.5 951.36,-113.5"/>
<polygon fill="midnightblue" stroke="midnightblue" points="913.48,-110 903.48,-113.5 913.48,-117 913.48,-110"/>
</g>
<!-- Node15 -->
<g id="node15" class="node">
<title>Node15</title>
<g id="a_node15"><a xlink:href="classbio_1_1alphabet_1_1dna5.html" target="_top" xlink:title="The five letter DNA alphabet of A,C,G,T and the unknown character N.">
<polygon fill="white" stroke="black" points="953.5,-55 953.5,-74 1063.5,-74 1063.5,-55 953.5,-55"/>
<text text-anchor="middle" x="1008.5" y="-62" font-family="Helvetica,sans-Serif" font-size="10.00">bio::alphabet::dna5</text>
</a>
</g>
</g>
<!-- Node14&#45;&gt;Node15 -->
<g id="edge14" class="edge">
<title>Node14&#45;&gt;Node15</title>
<path fill="none" stroke="midnightblue" d="M913.64,-64.5C927.03,-64.5 940.67,-64.5 953.26,-64.5"/>
<polygon fill="midnightblue" stroke="midnightblue" points="913.48,-61 903.48,-64.5 913.48,-68 913.48,-61"/>
</g>
<!-- Node17 -->
<g id="node17" class="node">
<title>Node17</title>
<g id="a_node17"><a xlink:href="classbio_1_1alphabet_1_1dna4.html" target="_top" xlink:title="The four letter DNA alphabet of A,C,G,T.">
<polygon fill="white" stroke="black" points="953.5,-6 953.5,-25 1063.5,-25 1063.5,-6 953.5,-6"/>
<text text-anchor="middle" x="1008.5" y="-13" font-family="Helvetica,sans-Serif" font-size="10.00">bio::alphabet::dna4</text>
</a>
</g>
</g>
<!-- Node16&#45;&gt;Node17 -->
<g id="edge16" class="edge">
<title>Node16&#45;&gt;Node17</title>
<path fill="none" stroke="midnightblue" d="M913.64,-15.5C927.03,-15.5 940.67,-15.5 953.26,-15.5"/>
<polygon fill="midnightblue" stroke="midnightblue" points="913.48,-12 903.48,-15.5 913.48,-19 913.48,-12"/>
</g>
</g>
</svg>
        <g id="navigator" transform="translate(0 0)" fill="#404254">
                <rect fill="#f2f5e9" fill-opacity="0.5" stroke="#606060" stroke-width=".5" x="0" y="0" width="60" height="60"/>
                <use id="zoomplus" xlink:href="#zoomPlus" x="17" y="9" onmousedown="handleZoom(evt,'in')"/>
                <use id="zoomminus" xlink:href="#zoomMin" x="42" y="9" onmousedown="handleZoom(evt,'out')"/>
                <use id="reset" xlink:href="#resetDef" x="30" y="36" onmousedown="handleReset()"/>
                <g id="arrowUp" xlink:href="#dirArrow" transform="translate(30 24)" onmousedown="handlePan(0,-1)">
                  <use xlink:href="#rim" fill="#404040">
                        <set attributeName="fill" to="#808080" begin="arrowUp.mouseover" end="arrowUp.mouseout"/>
                  </use>
                  <path fill="none" stroke="white" stroke-width="1.5" d="M0,-3.0v7 M-2.5,-0.5L0,-3.0L2.5,-0.5"/>
                </g>
                <g id="arrowRight" xlink:href="#dirArrow" transform="rotate(90) translate(36 -43)" onmousedown="handlePan(1,0)">
                  <use xlink:href="#rim" fill="#404040">
                        <set attributeName="fill" to="#808080" begin="arrowRight.mouseover" end="arrowRight.mouseout"/>
                  </use>
                  <path fill="none" stroke="white" stroke-width="1.5" d="M0,-3.0v7 M-2.5,-0.5L0,-3.0L2.5,-0.5"/>
                </g>
                <g id="arrowDown" xlink:href="#dirArrow" transform="rotate(180) translate(-30 -48)" onmousedown="handlePan(0,1)">
                  <use xlink:href="#rim" fill="#404040">
                        <set attributeName="fill" to="#808080" begin="arrowDown.mouseover" end="arrowDown.mouseout"/>
                  </use>
                  <path fill="none" stroke="white" stroke-width="1.5" d="M0,-3.0v7 M-2.5,-0.5L0,-3.0L2.5,-0.5"/>
                </g>
                <g id="arrowLeft" xlink:href="#dirArrow" transform="rotate(270) translate(-36 17)" onmousedown="handlePan(-1,0)">
                  <use xlink:href="#rim" fill="#404040">
                        <set attributeName="fill" to="#808080" begin="arrowLeft.mouseover" end="arrowLeft.mouseout"/>
                  </use>
                  <path fill="none" stroke="white" stroke-width="1.5" d="M0,-3.0v7 M-2.5,-0.5L0,-3.0L2.5,-0.5"/>
                </g>
        </g>
        <svg viewBox="0 0 15 15" width="100%" height="30px" preserveAspectRatio="xMaxYMin meet">
         <g id="arrow_out" transform="scale(0.3 0.3)">
          <a xlink:href="classbio_1_1alphabet_1_1nucleotide__base__inherit__graph_org.svg" target="_base">
           <rect id="button" ry="5" rx="5" y="6" x="6" height="38" width="38"
                fill="#f2f5e9" fill-opacity="0.5" stroke="#606060" stroke-width="1.0"/>
           <path id="arrow"
             d="M 11.500037,31.436501 C 11.940474,20.09759 22.043105,11.32322 32.158766,21.979434 L 37.068811,17.246167 C 37.068811,17.246167 37.088388,32 37.088388,32 L 22.160133,31.978069 C 22.160133,31.978069 26.997745,27.140456 26.997745,27.140456 C 18.528582,18.264221 13.291696,25.230495 11.500037,31.436501 z"
             style="fill:#404040;"/>
          </a>
         </g>
        </svg>
</svg>
