<?xml version="1.0" encoding="UTF-8" standalone="no"?>
<!DOCTYPE svg PUBLIC "-//W3C//DTD SVG 1.1//EN"
 "http://www.w3.org/Graphics/SVG/1.1/DTD/svg11.dtd">
<!-- Generated by graphviz version 2.43.0 (0)
 -->
<!-- Title: bio::semialphabet_any&lt; size &gt; Pages: 1 -->
<!--zoomable 202 -->
<svg id="main" version="1.1" xmlns="http://www.w3.org/2000/svg" xmlns:xlink="http://www.w3.org/1999/xlink" xml:space="preserve" onload="init(evt)">
<style type="text/css"><![CDATA[
.edge:hover path { stroke: red; }
.edge:hover polygon { stroke: red; fill: red; }
]]></style>
<script type="text/javascript"><![CDATA[
var edges = document.getElementsByTagName('g');
if (edges && edges.length) {
  for (var i=0;i<edges.length;i++) {
    if (edges[i].id.substr(0,4)=='edge') {
      edges[i].setAttribute('class','edge');
    }
  }
}
]]></script>
        <defs>
                <circle id="rim" cx="0" cy="0" r="7"/>
                <circle id="rim2" cx="0" cy="0" r="3.5"/>
                <g id="zoomPlus">
                        <use xlink:href="#rim" fill="#404040">
                                <set attributeName="fill" to="#808080" begin="zoomplus.mouseover" end="zoomplus.mouseout"/>
                        </use>
                        <path d="M-4,0h8M0,-4v8" fill="none" stroke="white" stroke-width="1.5" pointer-events="none"/>
                </g>
                <g id="zoomMin">
                        <use xlink:href="#rim" fill="#404040">
                                <set attributeName="fill" to="#808080" begin="zoomminus.mouseover" end="zoomminus.mouseout"/>
                        </use>
                        <path d="M-4,0h8" fill="none" stroke="white" stroke-width="1.5" pointer-events="none"/>
                </g>
                <g id="dirArrow">
                        <path fill="none" stroke="white" stroke-width="1.5" d="M0,-3.0v7 M-2.5,-0.5L0,-3.0L2.5,-0.5"/>
                </g>
               <g id="resetDef">
                       <use xlink:href="#rim2" fill="#404040">
                               <set attributeName="fill" to="#808080" begin="reset.mouseover" end="reset.mouseout"/>
                       </use>
               </g>
        </defs>

<script type="text/javascript">
var viewWidth = 570;
var viewHeight = 202;
var sectionId = 'dynsection-0';
</script>
<script xlink:href="svgpan.js"/>
<svg id="graph" class="graph">
<g id="viewport">
<title>bio::semialphabet_any&lt; size &gt;</title>
<polygon fill="white" stroke="transparent" points="-4,4 -4,-198 566,-198 566,4 -4,4"/>
<!-- Node1 -->
<g id="node1" class="node">
<title>Node1</title>
<g id="a_node1"><a xlink:title="A semi&#45;alphabet that type erases all other semi&#45;alphabets of the same size.">
<polygon fill="#bfbfbf" stroke="black" points="434,-67 434,-97 562,-97 562,-67 434,-67"/>
<text text-anchor="start" x="442" y="-85" font-family="Helvetica,sans-Serif" font-size="10.00">bio::semialphabet_any</text>
<text text-anchor="middle" x="498" y="-74" font-family="Helvetica,sans-Serif" font-size="10.00">&lt; size &gt;</text>
</a>
</g>
</g>
<!-- Node2 -->
<g id="node2" class="node">
<title>Node2</title>
<g id="a_node2"><a xlink:href="interfacebio_1_1semialphabet.html" target="_top" xlink:title="The basis for bio::alphabet, but requires only rank interface (not char).">
<polygon fill="white" stroke="black" points="292.5,-136.5 292.5,-155.5 375.5,-155.5 375.5,-136.5 292.5,-136.5"/>
<text text-anchor="middle" x="334" y="-143.5" font-family="Helvetica,sans-Serif" font-size="10.00">semialphabet</text>
</a>
</g>
</g>
<!-- Node2&#45;&gt;Node1 -->
<g id="edge1" class="edge">
<title>Node2&#45;&gt;Node1</title>
<path fill="none" stroke="midnightblue" d="M378.67,-133.37C384.86,-131.36 391.12,-129.21 397,-127 420.7,-118.08 446.76,-106.28 466.34,-97"/>
<polygon fill="midnightblue" stroke="midnightblue" points="377.53,-130.06 369.05,-136.41 379.64,-136.74 377.53,-130.06"/>
</g>
<!-- Node3 -->
<g id="node3" class="node">
<title>Node3</title>
<g id="a_node3"><a xlink:title=" ">
<polygon fill="white" stroke="#bfbfbf" points="8.5,-174.5 8.5,-193.5 120.5,-193.5 120.5,-174.5 8.5,-174.5"/>
<text text-anchor="middle" x="64.5" y="-181.5" font-family="Helvetica,sans-Serif" font-size="10.00">std::totally_ordered</text>
</a>
</g>
</g>
<!-- Node3&#45;&gt;Node2 -->
<g id="edge2" class="edge">
<title>Node3&#45;&gt;Node2</title>
<path fill="none" stroke="midnightblue" d="M130.95,-176.37C167.01,-171.98 212.54,-166.13 253,-160 265.83,-158.06 279.77,-155.7 292.36,-153.48"/>
<polygon fill="midnightblue" stroke="midnightblue" points="130.07,-172.95 120.56,-177.63 130.91,-179.9 130.07,-172.95"/>
</g>
<!-- Node4 -->
<g id="node4" class="node">
<title>Node4</title>
<g id="a_node4"><a xlink:title=" ">
<polygon fill="white" stroke="#bfbfbf" points="0,-136.5 0,-155.5 129,-155.5 129,-136.5 0,-136.5"/>
<text text-anchor="middle" x="64.5" y="-143.5" font-family="Helvetica,sans-Serif" font-size="10.00">std::copy_constructible</text>
</a>
</g>
</g>
<!-- Node4&#45;&gt;Node2 -->
<g id="edge3" class="edge">
<title>Node4&#45;&gt;Node2</title>
<path fill="none" stroke="midnightblue" d="M139.53,-146C188.83,-146 251.75,-146 292.21,-146"/>
<polygon fill="midnightblue" stroke="midnightblue" points="139.23,-142.5 129.23,-146 139.23,-149.5 139.23,-142.5"/>
</g>
<!-- Node5 -->
<g id="node5" class="node">
<title>Node5</title>
<g id="a_node5"><a xlink:href="interfacebio_1_1meta_1_1trivially__copyable.html" target="_top" xlink:title="A type that satisfies std::is_trivially_copyable_v&lt;t&gt;.">
<polygon fill="white" stroke="black" points="282,-98.5 282,-117.5 386,-117.5 386,-98.5 282,-98.5"/>
<text text-anchor="middle" x="334" y="-105.5" font-family="Helvetica,sans-Serif" font-size="10.00">trivially_copyable</text>
</a>
</g>
</g>
<!-- Node5&#45;&gt;Node1 -->
<g id="edge4" class="edge">
<title>Node5&#45;&gt;Node1</title>
<path fill="none" stroke="midnightblue" d="M396.38,-98.15C408.63,-96.18 421.53,-94.11 433.84,-92.14"/>
<polygon fill="midnightblue" stroke="midnightblue" points="395.58,-94.73 386.26,-99.77 396.69,-101.64 395.58,-94.73"/>
</g>
<!-- Node6 -->
<g id="node6" class="node">
<title>Node6</title>
<g id="a_node6"><a xlink:title=" ">
<polygon fill="white" stroke="#bfbfbf" points="23.5,-98.5 23.5,-117.5 105.5,-117.5 105.5,-98.5 23.5,-98.5"/>
<text text-anchor="middle" x="64.5" y="-105.5" font-family="Helvetica,sans-Serif" font-size="10.00">std::copyable</text>
</a>
</g>
</g>
<!-- Node6&#45;&gt;Node5 -->
<g id="edge5" class="edge">
<title>Node6&#45;&gt;Node5</title>
<path fill="none" stroke="midnightblue" d="M115.59,-108C163,-108 233.85,-108 281.67,-108"/>
<polygon fill="midnightblue" stroke="midnightblue" points="115.55,-104.5 105.55,-108 115.55,-111.5 115.55,-104.5"/>
</g>
<!-- Node7 -->
<g id="node7" class="node">
<title>Node7</title>
<g id="a_node7"><a xlink:href="interfacebio_1_1meta_1_1standard__layout.html" target="_top" xlink:title="Resolves to std::is_standard_layout_v&lt;t&gt;.">
<polygon fill="white" stroke="black" points="286.5,-60.5 286.5,-79.5 381.5,-79.5 381.5,-60.5 286.5,-60.5"/>
<text text-anchor="middle" x="334" y="-67.5" font-family="Helvetica,sans-Serif" font-size="10.00">standard_layout</text>
</a>
</g>
</g>
<!-- Node7&#45;&gt;Node1 -->
<g id="edge6" class="edge">
<title>Node7&#45;&gt;Node1</title>
<path fill="none" stroke="midnightblue" d="M392.01,-74.22C405.59,-75.23 420.15,-76.31 433.97,-77.33"/>
<polygon fill="midnightblue" stroke="midnightblue" points="392.09,-70.72 381.86,-73.47 391.57,-77.7 392.09,-70.72"/>
</g>
<!-- Node8 -->
<g id="node8" class="node">
<title>Node8</title>
<g id="a_node8"><a xlink:href="classbio_1_1alphabet__base.html" target="_top" xlink:title=" ">
<polygon fill="white" stroke="black" points="271,-0.5 271,-41.5 397,-41.5 397,-0.5 271,-0.5"/>
<text text-anchor="start" x="279" y="-29.5" font-family="Helvetica,sans-Serif" font-size="10.00">bio::alphabet_base</text>
<text text-anchor="start" x="279" y="-18.5" font-family="Helvetica,sans-Serif" font-size="10.00">&lt; semialphabet_any&lt;</text>
<text text-anchor="middle" x="334" y="-7.5" font-family="Helvetica,sans-Serif" font-size="10.00"> size &gt;, size, void &gt;</text>
</a>
</g>
</g>
<!-- Node8&#45;&gt;Node1 -->
<g id="edge7" class="edge">
<title>Node8&#45;&gt;Node1</title>
<path fill="none" stroke="midnightblue" d="M399.29,-45.21C418.79,-52.55 439.65,-60.4 457.06,-66.96"/>
<polygon fill="midnightblue" stroke="midnightblue" points="400.44,-41.9 389.85,-41.65 397.97,-48.45 400.44,-41.9"/>
</g>
<!-- Node9 -->
<g id="node9" class="node">
<title>Node9</title>
<g id="a_node9"><a xlink:href="classbio_1_1alphabet__base.html" target="_top" xlink:title="A CRTP&#45;base that makes defining a custom alphabet easier.">
<polygon fill="white" stroke="black" points="4.5,-0.5 4.5,-41.5 124.5,-41.5 124.5,-0.5 4.5,-0.5"/>
<text text-anchor="start" x="12.5" y="-29.5" font-family="Helvetica,sans-Serif" font-size="10.00">bio::alphabet_base</text>
<text text-anchor="start" x="12.5" y="-18.5" font-family="Helvetica,sans-Serif" font-size="10.00">&lt; derived_type, size,</text>
<text text-anchor="middle" x="64.5" y="-7.5" font-family="Helvetica,sans-Serif" font-size="10.00"> char_t &gt;</text>
</a>
</g>
</g>
<!-- Node9&#45;&gt;Node8 -->
<g id="edge8" class="edge">
<title>Node9&#45;&gt;Node8</title>
<path fill="none" stroke="orange" stroke-dasharray="5,2" d="M134.71,-21C176.8,-21 230.12,-21 270.86,-21"/>
<polygon fill="orange" stroke="orange" points="134.54,-17.5 124.54,-21 134.54,-24.5 134.54,-17.5"/>
<text text-anchor="start" x="147" y="-35" font-family="Helvetica,sans-Serif" font-size="10.00"> &lt; semialphabet_any</text>
<text text-anchor="middle" x="200" y="-24" font-family="Helvetica,sans-Serif" font-size="10.00">&lt; size &gt;, size, void &gt;</text>
</g>
</g>
</svg>
        <g id="navigator" transform="translate(0 0)" fill="#404254">
                <rect fill="#f2f5e9" fill-opacity="0.5" stroke="#606060" stroke-width=".5" x="0" y="0" width="60" height="60"/>
                <use id="zoomplus" xlink:href="#zoomPlus" x="17" y="9" onmousedown="handleZoom(evt,'in')"/>
                <use id="zoomminus" xlink:href="#zoomMin" x="42" y="9" onmousedown="handleZoom(evt,'out')"/>
                <use id="reset" xlink:href="#resetDef" x="30" y="36" onmousedown="handleReset()"/>
                <g id="arrowUp" xlink:href="#dirArrow" transform="translate(30 24)" onmousedown="handlePan(0,-1)">
                  <use xlink:href="#rim" fill="#404040">
                        <set attributeName="fill" to="#808080" begin="arrowUp.mouseover" end="arrowUp.mouseout"/>
                  </use>
                  <path fill="none" stroke="white" stroke-width="1.5" d="M0,-3.0v7 M-2.5,-0.5L0,-3.0L2.5,-0.5"/>
                </g>
                <g id="arrowRight" xlink:href="#dirArrow" transform="rotate(90) translate(36 -43)" onmousedown="handlePan(1,0)">
                  <use xlink:href="#rim" fill="#404040">
                        <set attributeName="fill" to="#808080" begin="arrowRight.mouseover" end="arrowRight.mouseout"/>
                  </use>
                  <path fill="none" stroke="white" stroke-width="1.5" d="M0,-3.0v7 M-2.5,-0.5L0,-3.0L2.5,-0.5"/>
                </g>
                <g id="arrowDown" xlink:href="#dirArrow" transform="rotate(180) translate(-30 -48)" onmousedown="handlePan(0,1)">
                  <use xlink:href="#rim" fill="#404040">
                        <set attributeName="fill" to="#808080" begin="arrowDown.mouseover" end="arrowDown.mouseout"/>
                  </use>
                  <path fill="none" stroke="white" stroke-width="1.5" d="M0,-3.0v7 M-2.5,-0.5L0,-3.0L2.5,-0.5"/>
                </g>
                <g id="arrowLeft" xlink:href="#dirArrow" transform="rotate(270) translate(-36 17)" onmousedown="handlePan(-1,0)">
                  <use xlink:href="#rim" fill="#404040">
                        <set attributeName="fill" to="#808080" begin="arrowLeft.mouseover" end="arrowLeft.mouseout"/>
                  </use>
                  <path fill="none" stroke="white" stroke-width="1.5" d="M0,-3.0v7 M-2.5,-0.5L0,-3.0L2.5,-0.5"/>
                </g>
        </g>
        <svg viewBox="0 0 15 15" width="100%" height="30px" preserveAspectRatio="xMaxYMin meet">
         <g id="arrow_out" transform="scale(0.3 0.3)">
          <a xlink:href="classbio_1_1semialphabet__any__inherit__graph_org.svg" target="_base">
           <rect id="button" ry="5" rx="5" y="6" x="6" height="38" width="38"
                fill="#f2f5e9" fill-opacity="0.5" stroke="#606060" stroke-width="1.0"/>
           <path id="arrow"
             d="M 11.500037,31.436501 C 11.940474,20.09759 22.043105,11.32322 32.158766,21.979434 L 37.068811,17.246167 C 37.068811,17.246167 37.088388,32 37.088388,32 L 22.160133,31.978069 C 22.160133,31.978069 26.997745,27.140456 26.997745,27.140456 C 18.528582,18.264221 13.291696,25.230495 11.500037,31.436501 z"
             style="fill:#404040;"/>
          </a>
         </g>
        </svg>
</svg>
