<?xml version="1.0" encoding="UTF-8" standalone="no"?>
<!DOCTYPE svg PUBLIC "-//W3C//DTD SVG 1.1//EN"
 "http://www.w3.org/Graphics/SVG/1.1/DTD/svg11.dtd">
<!-- Generated by graphviz version 2.42.2 ()
 -->
<!-- Title: bio::alphabet::nucleotide_base&lt; derived_type, size &gt; Pages: 1 -->
<svg width="985pt" height="333pt"
 viewBox="0.00 0.00 985.00 333.00" xmlns="http://www.w3.org/2000/svg" xmlns:xlink="http://www.w3.org/1999/xlink">
<g id="graph0" class="graph" transform="scale(1 1) rotate(0) translate(4 329)">
<title>bio::alphabet::nucleotide_base&lt; derived_type, size &gt;</title>
<polygon fill="white" stroke="transparent" points="-4,4 -4,-329 981,-329 981,4 -4,4"/>
<!-- Node1 -->
<g id="node1" class="node">
<title>Node1</title>
<g id="a_node1"><a xlink:title="A CRTP&#45;base that refines bio::alphabet::alphabet_base and is used by the nucleotides.">
<polygon fill="#bfbfbf" stroke="black" points="436,-147.5 436,-177.5 576,-177.5 576,-147.5 436,-147.5"/>
<text text-anchor="start" x="444" y="-165.5" font-family="Helvetica,sans-Serif" font-size="10.00">bio::alphabet::nucleotide</text>
<text text-anchor="middle" x="506" y="-154.5" font-family="Helvetica,sans-Serif" font-size="10.00">_base&lt; derived_type, size &gt;</text>
</a>
</g>
</g>
<!-- Node4 -->
<g id="node4" class="node">
<title>Node4</title>
<g id="a_node4"><a xlink:href="classbio_1_1alphabet_1_1nucleotide__base.html" target="_top" xlink:title=" ">
<polygon fill="white" stroke="black" points="695,-294.5 695,-324.5 817,-324.5 817,-294.5 695,-294.5"/>
<text text-anchor="start" x="703" y="-312.5" font-family="Helvetica,sans-Serif" font-size="10.00">bio::alphabet::nucleotide</text>
<text text-anchor="middle" x="756" y="-301.5" font-family="Helvetica,sans-Serif" font-size="10.00">_base&lt; dna15, 15 &gt;</text>
</a>
</g>
</g>
<!-- Node1&#45;&gt;Node4 -->
<g id="edge3" class="edge">
<title>Node1&#45;&gt;Node4</title>
<path fill="none" stroke="orange" stroke-dasharray="5,2" d="M523.87,-185.96C539.82,-206.62 565.52,-236.2 594,-254.5 624.69,-274.22 663.24,-287.72 694.92,-296.4"/>
<polygon fill="orange" stroke="orange" points="526.46,-183.59 517.64,-177.71 520.87,-187.8 526.46,-183.59"/>
<text text-anchor="middle" x="635.5" y="-292.5" font-family="Helvetica,sans-Serif" font-size="10.00"> &lt; dna15, 15 &gt;</text>
</g>
<!-- Node6 -->
<g id="node6" class="node">
<title>Node6</title>
<g id="a_node6"><a xlink:href="classbio_1_1alphabet_1_1nucleotide__base.html" target="_top" xlink:title=" ">
<polygon fill="white" stroke="black" points="695,-245.5 695,-275.5 817,-275.5 817,-245.5 695,-245.5"/>
<text text-anchor="start" x="703" y="-263.5" font-family="Helvetica,sans-Serif" font-size="10.00">bio::alphabet::nucleotide</text>
<text text-anchor="middle" x="756" y="-252.5" font-family="Helvetica,sans-Serif" font-size="10.00">_base&lt; dna16sam, 16 &gt;</text>
</a>
</g>
</g>
<!-- Node1&#45;&gt;Node6 -->
<g id="edge5" class="edge">
<title>Node1&#45;&gt;Node6</title>
<path fill="none" stroke="orange" stroke-dasharray="5,2" d="M540,-182.78C555.93,-192.03 575.56,-202.65 594,-210.5 627.12,-224.61 665.58,-236.7 696.6,-245.46"/>
<polygon fill="orange" stroke="orange" points="541.47,-179.59 531.08,-177.53 537.92,-185.62 541.47,-179.59"/>
<text text-anchor="middle" x="635.5" y="-242.5" font-family="Helvetica,sans-Serif" font-size="10.00"> &lt; dna16sam, 16 &gt;</text>
</g>
<!-- Node8 -->
<g id="node8" class="node">
<title>Node8</title>
<g id="a_node8"><a xlink:href="classbio_1_1alphabet_1_1nucleotide__base.html" target="_top" xlink:title=" ">
<polygon fill="white" stroke="black" points="695,-196.5 695,-226.5 817,-226.5 817,-196.5 695,-196.5"/>
<text text-anchor="start" x="703" y="-214.5" font-family="Helvetica,sans-Serif" font-size="10.00">bio::alphabet::nucleotide</text>
<text text-anchor="middle" x="756" y="-203.5" font-family="Helvetica,sans-Serif" font-size="10.00">_base&lt; dna4, 4 &gt;</text>
</a>
</g>
</g>
<!-- Node1&#45;&gt;Node8 -->
<g id="edge7" class="edge">
<title>Node1&#45;&gt;Node8</title>
<path fill="none" stroke="orange" stroke-dasharray="5,2" d="M586.31,-178.17C621.45,-185.11 662.12,-193.15 694.72,-199.59"/>
<polygon fill="orange" stroke="orange" points="586.57,-174.65 576.08,-176.15 585.21,-181.52 586.57,-174.65"/>
<text text-anchor="middle" x="635.5" y="-198.5" font-family="Helvetica,sans-Serif" font-size="10.00"> &lt; dna4, 4 &gt;</text>
</g>
<!-- Node10 -->
<g id="node10" class="node">
<title>Node10</title>
<g id="a_node10"><a xlink:href="classbio_1_1alphabet_1_1nucleotide__base.html" target="_top" xlink:title=" ">
<polygon fill="white" stroke="black" points="695,-147.5 695,-177.5 817,-177.5 817,-147.5 695,-147.5"/>
<text text-anchor="start" x="703" y="-165.5" font-family="Helvetica,sans-Serif" font-size="10.00">bio::alphabet::nucleotide</text>
<text text-anchor="middle" x="756" y="-154.5" font-family="Helvetica,sans-Serif" font-size="10.00">_base&lt; dna5, 5 &gt;</text>
</a>
</g>
</g>
<!-- Node1&#45;&gt;Node10 -->
<g id="edge9" class="edge">
<title>Node1&#45;&gt;Node10</title>
<path fill="none" stroke="orange" stroke-dasharray="5,2" d="M586.31,-162.5C621.45,-162.5 662.12,-162.5 694.72,-162.5"/>
<polygon fill="orange" stroke="orange" points="586.08,-159 576.08,-162.5 586.08,-166 586.08,-159"/>
<text text-anchor="middle" x="635.5" y="-165.5" font-family="Helvetica,sans-Serif" font-size="10.00"> &lt; dna5, 5 &gt;</text>
</g>
<!-- Node12 -->
<g id="node12" class="node">
<title>Node12</title>
<g id="a_node12"><a xlink:href="classbio_1_1alphabet_1_1nucleotide__base.html" target="_top" xlink:title=" ">
<polygon fill="white" stroke="black" points="695,-98.5 695,-128.5 817,-128.5 817,-98.5 695,-98.5"/>
<text text-anchor="start" x="703" y="-116.5" font-family="Helvetica,sans-Serif" font-size="10.00">bio::alphabet::nucleotide</text>
<text text-anchor="middle" x="756" y="-105.5" font-family="Helvetica,sans-Serif" font-size="10.00">_base&lt; rna15, 15 &gt;</text>
</a>
</g>
</g>
<!-- Node1&#45;&gt;Node12 -->
<g id="edge11" class="edge">
<title>Node1&#45;&gt;Node12</title>
<path fill="none" stroke="orange" stroke-dasharray="5,2" d="M586.31,-146.83C621.45,-139.89 662.12,-131.85 694.72,-125.41"/>
<polygon fill="orange" stroke="orange" points="585.21,-143.48 576.08,-148.85 586.57,-150.35 585.21,-143.48"/>
<text text-anchor="middle" x="635.5" y="-148.5" font-family="Helvetica,sans-Serif" font-size="10.00"> &lt; rna15, 15 &gt;</text>
</g>
<!-- Node14 -->
<g id="node14" class="node">
<title>Node14</title>
<g id="a_node14"><a xlink:href="classbio_1_1alphabet_1_1nucleotide__base.html" target="_top" xlink:title=" ">
<polygon fill="white" stroke="black" points="695,-49.5 695,-79.5 817,-79.5 817,-49.5 695,-49.5"/>
<text text-anchor="start" x="703" y="-67.5" font-family="Helvetica,sans-Serif" font-size="10.00">bio::alphabet::nucleotide</text>
<text text-anchor="middle" x="756" y="-56.5" font-family="Helvetica,sans-Serif" font-size="10.00">_base&lt; rna4, 4 &gt;</text>
</a>
</g>
</g>
<!-- Node1&#45;&gt;Node14 -->
<g id="edge13" class="edge">
<title>Node1&#45;&gt;Node14</title>
<path fill="none" stroke="orange" stroke-dasharray="5,2" d="M540,-142.22C555.93,-132.97 575.56,-122.35 594,-114.5 627.12,-100.39 665.58,-88.3 696.6,-79.54"/>
<polygon fill="orange" stroke="orange" points="537.92,-139.38 531.08,-147.47 541.47,-145.41 537.92,-139.38"/>
<text text-anchor="middle" x="635.5" y="-117.5" font-family="Helvetica,sans-Serif" font-size="10.00"> &lt; rna4, 4 &gt;</text>
</g>
<!-- Node16 -->
<g id="node16" class="node">
<title>Node16</title>
<g id="a_node16"><a xlink:href="classbio_1_1alphabet_1_1nucleotide__base.html" target="_top" xlink:title=" ">
<polygon fill="white" stroke="black" points="695,-0.5 695,-30.5 817,-30.5 817,-0.5 695,-0.5"/>
<text text-anchor="start" x="703" y="-18.5" font-family="Helvetica,sans-Serif" font-size="10.00">bio::alphabet::nucleotide</text>
<text text-anchor="middle" x="756" y="-7.5" font-family="Helvetica,sans-Serif" font-size="10.00">_base&lt; rna5, 5 &gt;</text>
</a>
</g>
</g>
<!-- Node1&#45;&gt;Node16 -->
<g id="edge15" class="edge">
<title>Node1&#45;&gt;Node16</title>
<path fill="none" stroke="orange" stroke-dasharray="5,2" d="M523.87,-139.04C539.82,-118.38 565.52,-88.8 594,-70.5 624.69,-50.78 663.24,-37.28 694.92,-28.6"/>
<polygon fill="orange" stroke="orange" points="520.87,-137.2 517.64,-147.29 526.46,-141.41 520.87,-137.2"/>
<text text-anchor="middle" x="635.5" y="-73.5" font-family="Helvetica,sans-Serif" font-size="10.00"> &lt; rna5, 5 &gt;</text>
</g>
<!-- Node2 -->
<g id="node2" class="node">
<title>Node2</title>
<g id="a_node2"><a xlink:href="classbio_1_1alphabet_1_1alphabet__base.html" target="_top" xlink:title=" ">
<polygon fill="white" stroke="black" points="265,-142 265,-183 399,-183 399,-142 265,-142"/>
<text text-anchor="start" x="273" y="-171" font-family="Helvetica,sans-Serif" font-size="10.00">bio::alphabet::alphabet</text>
<text text-anchor="start" x="273" y="-160" font-family="Helvetica,sans-Serif" font-size="10.00">_base&lt; derived_type, size,</text>
<text text-anchor="middle" x="332" y="-149" font-family="Helvetica,sans-Serif" font-size="10.00"> char &gt;</text>
</a>
</g>
</g>
<!-- Node2&#45;&gt;Node1 -->
<g id="edge1" class="edge">
<title>Node2&#45;&gt;Node1</title>
<path fill="none" stroke="midnightblue" d="M409.27,-162.5C418.08,-162.5 427.03,-162.5 435.75,-162.5"/>
<polygon fill="midnightblue" stroke="midnightblue" points="409.01,-159 399.01,-162.5 409.01,-166 409.01,-159"/>
</g>
<!-- Node3 -->
<g id="node3" class="node">
<title>Node3</title>
<g id="a_node3"><a xlink:href="classbio_1_1alphabet_1_1alphabet__base.html" target="_top" xlink:title="A CRTP&#45;base that makes defining a custom alphabet easier.">
<polygon fill="white" stroke="black" points="0,-142 0,-183 134,-183 134,-142 0,-142"/>
<text text-anchor="start" x="8" y="-171" font-family="Helvetica,sans-Serif" font-size="10.00">bio::alphabet::alphabet</text>
<text text-anchor="start" x="8" y="-160" font-family="Helvetica,sans-Serif" font-size="10.00">_base&lt; derived_type, size,</text>
<text text-anchor="middle" x="67" y="-149" font-family="Helvetica,sans-Serif" font-size="10.00"> char_t &gt;</text>
</a>
</g>
</g>
<!-- Node3&#45;&gt;Node2 -->
<g id="edge2" class="edge">
<title>Node3&#45;&gt;Node2</title>
<path fill="none" stroke="orange" stroke-dasharray="5,2" d="M144.08,-162.5C182.32,-162.5 228.21,-162.5 264.95,-162.5"/>
<polygon fill="orange" stroke="orange" points="144.03,-159 134.03,-162.5 144.03,-166 144.03,-159"/>
<text text-anchor="start" x="152" y="-176.5" font-family="Helvetica,sans-Serif" font-size="10.00"> &lt; derived_type, size,</text>
<text text-anchor="middle" x="199.5" y="-165.5" font-family="Helvetica,sans-Serif" font-size="10.00"> char &gt;</text>
</g>
<!-- Node5 -->
<g id="node5" class="node">
<title>Node5</title>
<g id="a_node5"><a xlink:href="classbio_1_1alphabet_1_1dna15.html" target="_top" xlink:title="The 15 letter DNA alphabet, containing all IUPAC smybols minus the gap..">
<polygon fill="white" stroke="black" points="863.5,-300 863.5,-319 967.5,-319 967.5,-300 863.5,-300"/>
<text text-anchor="middle" x="915.5" y="-307" font-family="Helvetica,sans-Serif" font-size="10.00">bio::alphabet::dna15</text>
</a>
</g>
</g>
<!-- Node4&#45;&gt;Node5 -->
<g id="edge4" class="edge">
<title>Node4&#45;&gt;Node5</title>
<path fill="none" stroke="midnightblue" d="M827.52,-309.5C839.62,-309.5 851.98,-309.5 863.44,-309.5"/>
<polygon fill="midnightblue" stroke="midnightblue" points="827.44,-306 817.44,-309.5 827.44,-313 827.44,-306"/>
</g>
<!-- Node7 -->
<g id="node7" class="node">
<title>Node7</title>
<g id="a_node7"><a xlink:href="classbio_1_1alphabet_1_1dna16sam.html" target="_top" xlink:title="A 16 letter DNA alphabet, containing all IUPAC symbols minus the gap and plus an equality sign (&#39;=&#39;)....">
<polygon fill="white" stroke="black" points="854,-251 854,-270 977,-270 977,-251 854,-251"/>
<text text-anchor="middle" x="915.5" y="-258" font-family="Helvetica,sans-Serif" font-size="10.00">bio::alphabet::dna16sam</text>
</a>
</g>
</g>
<!-- Node6&#45;&gt;Node7 -->
<g id="edge6" class="edge">
<title>Node6&#45;&gt;Node7</title>
<path fill="none" stroke="midnightblue" d="M827.66,-260.5C836.44,-260.5 845.35,-260.5 853.96,-260.5"/>
<polygon fill="midnightblue" stroke="midnightblue" points="827.44,-257 817.44,-260.5 827.44,-264 827.44,-257"/>
</g>
<!-- Node9 -->
<g id="node9" class="node">
<title>Node9</title>
<g id="a_node9"><a xlink:href="classbio_1_1alphabet_1_1dna4.html" target="_top" xlink:title="The four letter DNA alphabet of A,C,G,T..">
<polygon fill="white" stroke="black" points="866,-202 866,-221 965,-221 965,-202 866,-202"/>
<text text-anchor="middle" x="915.5" y="-209" font-family="Helvetica,sans-Serif" font-size="10.00">bio::alphabet::dna4</text>
</a>
</g>
</g>
<!-- Node8&#45;&gt;Node9 -->
<g id="edge8" class="edge">
<title>Node8&#45;&gt;Node9</title>
<path fill="none" stroke="midnightblue" d="M827.66,-211.5C840.51,-211.5 853.65,-211.5 865.69,-211.5"/>
<polygon fill="midnightblue" stroke="midnightblue" points="827.44,-208 817.44,-211.5 827.44,-215 827.44,-208"/>
</g>
<!-- Node11 -->
<g id="node11" class="node">
<title>Node11</title>
<g id="a_node11"><a xlink:href="classbio_1_1alphabet_1_1dna5.html" target="_top" xlink:title="The five letter DNA alphabet of A,C,G,T and the unknown character N..">
<polygon fill="white" stroke="black" points="866,-153 866,-172 965,-172 965,-153 866,-153"/>
<text text-anchor="middle" x="915.5" y="-160" font-family="Helvetica,sans-Serif" font-size="10.00">bio::alphabet::dna5</text>
</a>
</g>
</g>
<!-- Node10&#45;&gt;Node11 -->
<g id="edge10" class="edge">
<title>Node10&#45;&gt;Node11</title>
<path fill="none" stroke="midnightblue" d="M827.66,-162.5C840.51,-162.5 853.65,-162.5 865.69,-162.5"/>
<polygon fill="midnightblue" stroke="midnightblue" points="827.44,-159 817.44,-162.5 827.44,-166 827.44,-159"/>
</g>
<!-- Node13 -->
<g id="node13" class="node">
<title>Node13</title>
<g id="a_node13"><a xlink:href="classbio_1_1alphabet_1_1rna15.html" target="_top" xlink:title="The 15 letter RNA alphabet, containing all IUPAC smybols minus the gap..">
<polygon fill="white" stroke="black" points="864.5,-104 864.5,-123 966.5,-123 966.5,-104 864.5,-104"/>
<text text-anchor="middle" x="915.5" y="-111" font-family="Helvetica,sans-Serif" font-size="10.00">bio::alphabet::rna15</text>
</a>
</g>
</g>
<!-- Node12&#45;&gt;Node13 -->
<g id="edge12" class="edge">
<title>Node12&#45;&gt;Node13</title>
<path fill="none" stroke="midnightblue" d="M827.75,-113.5C840.13,-113.5 852.77,-113.5 864.44,-113.5"/>
<polygon fill="midnightblue" stroke="midnightblue" points="827.44,-110 817.44,-113.5 827.44,-117 827.44,-110"/>
</g>
<!-- Node15 -->
<g id="node15" class="node">
<title>Node15</title>
<g id="a_node15"><a xlink:href="classbio_1_1alphabet_1_1rna4.html" target="_top" xlink:title="The four letter RNA alphabet of A,C,G,U..">
<polygon fill="white" stroke="black" points="867,-55 867,-74 964,-74 964,-55 867,-55"/>
<text text-anchor="middle" x="915.5" y="-62" font-family="Helvetica,sans-Serif" font-size="10.00">bio::alphabet::rna4</text>
</a>
</g>
</g>
<!-- Node14&#45;&gt;Node15 -->
<g id="edge14" class="edge">
<title>Node14&#45;&gt;Node15</title>
<path fill="none" stroke="midnightblue" d="M827.49,-64.5C840.75,-64.5 854.32,-64.5 866.68,-64.5"/>
<polygon fill="midnightblue" stroke="midnightblue" points="827.44,-61 817.44,-64.5 827.44,-68 827.44,-61"/>
</g>
<!-- Node17 -->
<g id="node17" class="node">
<title>Node17</title>
<g id="a_node17"><a xlink:href="classbio_1_1alphabet_1_1rna5.html" target="_top" xlink:title="The five letter RNA alphabet of A,C,G,U and the unknown character N..">
<polygon fill="white" stroke="black" points="867,-6 867,-25 964,-25 964,-6 867,-6"/>
<text text-anchor="middle" x="915.5" y="-13" font-family="Helvetica,sans-Serif" font-size="10.00">bio::alphabet::rna5</text>
</a>
</g>
</g>
<!-- Node16&#45;&gt;Node17 -->
<g id="edge16" class="edge">
<title>Node16&#45;&gt;Node17</title>
<path fill="none" stroke="midnightblue" d="M827.49,-15.5C840.75,-15.5 854.32,-15.5 866.68,-15.5"/>
<polygon fill="midnightblue" stroke="midnightblue" points="827.44,-12 817.44,-15.5 827.44,-19 827.44,-12"/>
</g>
</g>
</svg>
