<?xml version="1.0" encoding="UTF-8" standalone="no"?>
<!DOCTYPE svg PUBLIC "-//W3C//DTD SVG 1.1//EN"
 "http://www.w3.org/Graphics/SVG/1.1/DTD/svg11.dtd">
<!-- Generated by graphviz version 2.43.0 (0)
 -->
<!-- Title: bio::phred68legacy Pages: 1 -->
<svg width="999pt" height="247pt"
 viewBox="0.00 0.00 999.00 247.00" xmlns="http://www.w3.org/2000/svg" xmlns:xlink="http://www.w3.org/1999/xlink">
<g id="graph0" class="graph" transform="scale(1 1) rotate(0) translate(4 243)">
<title>bio::phred68legacy</title>
<polygon fill="white" stroke="transparent" points="-4,4 -4,-243 995,-243 995,4 -4,4"/>
<!-- Node1 -->
<g id="node1" class="node">
<title>Node1</title>
<g id="a_node1"><a xlink:title="Quality type for Solexa and deprecated Illumina formats.">
<polygon fill="#bfbfbf" stroke="black" points="881,-124.5 881,-143.5 991,-143.5 991,-124.5 881,-124.5"/>
<text text-anchor="middle" x="936" y="-131.5" font-family="Helvetica,sans-Serif" font-size="10.00">bio::phred68legacy</text>
</a>
</g>
</g>
<!-- Node2 -->
<g id="node2" class="node">
<title>Node2</title>
<g id="a_node2"><a xlink:href="interfacebio_1_1writable__quality__alphabet.html" target="_top" xlink:title="A concept that indicates whether a writable alphabet represents quality scores.">
<polygon fill="white" stroke="black" points="701,-200.5 701,-219.5 844,-219.5 844,-200.5 701,-200.5"/>
<text text-anchor="middle" x="772.5" y="-207.5" font-family="Helvetica,sans-Serif" font-size="10.00">writable_quality_alphabet</text>
</a>
</g>
</g>
<!-- Node2&#45;&gt;Node1 -->
<g id="edge1" class="edge">
<title>Node2&#45;&gt;Node1</title>
<path fill="none" stroke="midnightblue" d="M826.91,-197.42C832.77,-195.51 838.57,-193.37 844,-191 873.9,-177.95 905.45,-156.11 922.41,-143.59"/>
<polygon fill="midnightblue" stroke="midnightblue" points="825.61,-194.16 817.07,-200.43 827.66,-200.85 825.61,-194.16"/>
</g>
<!-- Node3 -->
<g id="node3" class="node">
<title>Node3</title>
<g id="a_node3"><a xlink:href="interfacebio_1_1alphabet.html" target="_top" xlink:title="The generic alphabet concept that covers most data types used in ranges.">
<polygon fill="white" stroke="black" points="459.5,-200.5 459.5,-219.5 518.5,-219.5 518.5,-200.5 459.5,-200.5"/>
<text text-anchor="middle" x="489" y="-207.5" font-family="Helvetica,sans-Serif" font-size="10.00">alphabet</text>
</a>
</g>
</g>
<!-- Node3&#45;&gt;Node2 -->
<g id="edge2" class="edge">
<title>Node3&#45;&gt;Node2</title>
<path fill="none" stroke="midnightblue" d="M528.6,-210C572.87,-210 646.35,-210 700.92,-210"/>
<polygon fill="midnightblue" stroke="midnightblue" points="528.54,-206.5 518.54,-210 528.54,-213.5 528.54,-206.5"/>
</g>
<!-- Node4 -->
<g id="node4" class="node">
<title>Node4</title>
<g id="a_node4"><a xlink:href="interfacebio_1_1semialphabet.html" target="_top" xlink:title="The basis for bio::alphabet, but requires only rank interface (not char).">
<polygon fill="white" stroke="black" points="290.5,-200.5 290.5,-219.5 373.5,-219.5 373.5,-200.5 290.5,-200.5"/>
<text text-anchor="middle" x="332" y="-207.5" font-family="Helvetica,sans-Serif" font-size="10.00">semialphabet</text>
</a>
</g>
</g>
<!-- Node4&#45;&gt;Node3 -->
<g id="edge3" class="edge">
<title>Node4&#45;&gt;Node3</title>
<path fill="none" stroke="midnightblue" d="M383.81,-210C408.86,-210 438.15,-210 459.29,-210"/>
<polygon fill="midnightblue" stroke="midnightblue" points="383.72,-206.5 373.72,-210 383.72,-213.5 383.72,-206.5"/>
</g>
<!-- Node5 -->
<g id="node5" class="node">
<title>Node5</title>
<g id="a_node5"><a xlink:title=" ">
<polygon fill="white" stroke="#bfbfbf" points="8.5,-219.5 8.5,-238.5 120.5,-238.5 120.5,-219.5 8.5,-219.5"/>
<text text-anchor="middle" x="64.5" y="-226.5" font-family="Helvetica,sans-Serif" font-size="10.00">std::totally_ordered</text>
</a>
</g>
</g>
<!-- Node5&#45;&gt;Node4 -->
<g id="edge4" class="edge">
<title>Node5&#45;&gt;Node4</title>
<path fill="none" stroke="midnightblue" d="M130.57,-224.34C180.49,-220.77 247.84,-215.95 290.35,-212.91"/>
<polygon fill="midnightblue" stroke="midnightblue" points="130.24,-220.86 120.51,-225.06 130.74,-227.84 130.24,-220.86"/>
</g>
<!-- Node6 -->
<g id="node6" class="node">
<title>Node6</title>
<g id="a_node6"><a xlink:title=" ">
<polygon fill="white" stroke="#bfbfbf" points="0,-181.5 0,-200.5 129,-200.5 129,-181.5 0,-181.5"/>
<text text-anchor="middle" x="64.5" y="-188.5" font-family="Helvetica,sans-Serif" font-size="10.00">std::copy_constructible</text>
</a>
</g>
</g>
<!-- Node6&#45;&gt;Node4 -->
<g id="edge5" class="edge">
<title>Node6&#45;&gt;Node4</title>
<path fill="none" stroke="midnightblue" d="M139.28,-196.28C188.05,-199.77 250.14,-204.21 290.22,-207.08"/>
<polygon fill="midnightblue" stroke="midnightblue" points="139.32,-192.77 129.09,-195.55 138.82,-199.76 139.32,-192.77"/>
</g>
<!-- Node7 -->
<g id="node7" class="node">
<title>Node7</title>
<g id="a_node7"><a xlink:href="interfacebio_1_1trivially__copyable.html" target="_top" xlink:title="A type that satisfies std::is_trivially_copyable_v&lt;t&gt;.">
<polygon fill="white" stroke="black" points="720.5,-162.5 720.5,-181.5 824.5,-181.5 824.5,-162.5 720.5,-162.5"/>
<text text-anchor="middle" x="772.5" y="-169.5" font-family="Helvetica,sans-Serif" font-size="10.00">trivially_copyable</text>
</a>
</g>
</g>
<!-- Node7&#45;&gt;Node1 -->
<g id="edge6" class="edge">
<title>Node7&#45;&gt;Node1</title>
<path fill="none" stroke="midnightblue" d="M824.06,-160.1C846.76,-154.76 873.18,-148.55 894.54,-143.52"/>
<polygon fill="midnightblue" stroke="midnightblue" points="823.19,-156.71 814.25,-162.41 824.79,-163.53 823.19,-156.71"/>
</g>
<!-- Node8 -->
<g id="node8" class="node">
<title>Node8</title>
<g id="a_node8"><a xlink:title=" ">
<polygon fill="white" stroke="#bfbfbf" points="448,-162.5 448,-181.5 530,-181.5 530,-162.5 448,-162.5"/>
<text text-anchor="middle" x="489" y="-169.5" font-family="Helvetica,sans-Serif" font-size="10.00">std::copyable</text>
</a>
</g>
</g>
<!-- Node8&#45;&gt;Node7 -->
<g id="edge7" class="edge">
<title>Node8&#45;&gt;Node7</title>
<path fill="none" stroke="midnightblue" d="M540.11,-172C590.86,-172 668.96,-172 720.15,-172"/>
<polygon fill="midnightblue" stroke="midnightblue" points="540.03,-168.5 530.03,-172 540.03,-175.5 540.03,-168.5"/>
</g>
<!-- Node9 -->
<g id="node9" class="node">
<title>Node9</title>
<g id="a_node9"><a xlink:href="interfacebio_1_1standard__layout.html" target="_top" xlink:title="Resolves to std::is_standard_layout_v&lt;t&gt;.">
<polygon fill="white" stroke="black" points="725,-124.5 725,-143.5 820,-143.5 820,-124.5 725,-124.5"/>
<text text-anchor="middle" x="772.5" y="-131.5" font-family="Helvetica,sans-Serif" font-size="10.00">standard_layout</text>
</a>
</g>
</g>
<!-- Node9&#45;&gt;Node1 -->
<g id="edge8" class="edge">
<title>Node9&#45;&gt;Node1</title>
<path fill="none" stroke="midnightblue" d="M830.26,-134C846.74,-134 864.68,-134 880.99,-134"/>
<polygon fill="midnightblue" stroke="midnightblue" points="830.21,-130.5 820.21,-134 830.21,-137.5 830.21,-130.5"/>
</g>
<!-- Node10 -->
<g id="node10" class="node">
<title>Node10</title>
<g id="a_node10"><a xlink:title=" ">
<polygon fill="white" stroke="#bfbfbf" points="736.5,-86.5 736.5,-105.5 808.5,-105.5 808.5,-86.5 736.5,-86.5"/>
<text text-anchor="middle" x="772.5" y="-93.5" font-family="Helvetica,sans-Serif" font-size="10.00">std::regular</text>
</a>
</g>
</g>
<!-- Node10&#45;&gt;Node1 -->
<g id="edge9" class="edge">
<title>Node10&#45;&gt;Node1</title>
<path fill="none" stroke="midnightblue" d="M818.43,-106.57C842.32,-112.19 871.45,-119.05 894.62,-124.5"/>
<polygon fill="midnightblue" stroke="midnightblue" points="819.08,-103.13 808.54,-104.25 817.48,-109.94 819.08,-103.13"/>
</g>
<!-- Node11 -->
<g id="node11" class="node">
<title>Node11</title>
<g id="a_node11"><a xlink:href="classbio_1_1quality__base.html" target="_top" xlink:title=" ">
<polygon fill="white" stroke="black" points="712,-37 712,-67 833,-67 833,-37 712,-37"/>
<text text-anchor="start" x="720" y="-55" font-family="Helvetica,sans-Serif" font-size="10.00">bio::quality_base&lt;</text>
<text text-anchor="middle" x="772.5" y="-44" font-family="Helvetica,sans-Serif" font-size="10.00"> phred68legacy, 68 &gt;</text>
</a>
</g>
</g>
<!-- Node11&#45;&gt;Node1 -->
<g id="edge10" class="edge">
<title>Node11&#45;&gt;Node1</title>
<path fill="none" stroke="midnightblue" d="M830.36,-70.93C835.03,-72.86 839.63,-74.89 844,-77 873.04,-91.03 904.39,-112.13 921.66,-124.34"/>
<polygon fill="midnightblue" stroke="midnightblue" points="831.32,-67.55 820.73,-67.13 828.75,-74.06 831.32,-67.55"/>
</g>
<!-- Node12 -->
<g id="node12" class="node">
<title>Node12</title>
<g id="a_node12"><a xlink:href="classbio_1_1alphabet__base.html" target="_top" xlink:title="A CRTP&#45;base that makes defining a custom alphabet easier.">
<polygon fill="white" stroke="black" points="4.5,-28.5 4.5,-69.5 124.5,-69.5 124.5,-28.5 4.5,-28.5"/>
<text text-anchor="start" x="12.5" y="-57.5" font-family="Helvetica,sans-Serif" font-size="10.00">bio::alphabet_base</text>
<text text-anchor="start" x="12.5" y="-46.5" font-family="Helvetica,sans-Serif" font-size="10.00">&lt; derived_type, size,</text>
<text text-anchor="middle" x="64.5" y="-35.5" font-family="Helvetica,sans-Serif" font-size="10.00"> char_t &gt;</text>
</a>
</g>
</g>
<!-- Node12&#45;&gt;Node11 -->
<g id="edge11" class="edge">
<title>Node12&#45;&gt;Node11</title>
<path fill="none" stroke="midnightblue" d="M134.88,-55.36C138.98,-55.61 143.04,-55.83 147,-56 385,-66.2 444.84,-61.38 683,-56 692.23,-55.79 701.99,-55.46 711.53,-55.08"/>
<polygon fill="midnightblue" stroke="midnightblue" points="134.88,-51.86 124.66,-54.68 134.41,-58.84 134.88,-51.86"/>
</g>
<!-- Node14 -->
<g id="node14" class="node">
<title>Node14</title>
<g id="a_node14"><a xlink:href="classbio_1_1alphabet__base.html" target="_top" xlink:title=" ">
<polygon fill="white" stroke="black" points="272,-0.5 272,-41.5 392,-41.5 392,-0.5 272,-0.5"/>
<text text-anchor="start" x="280" y="-29.5" font-family="Helvetica,sans-Serif" font-size="10.00">bio::alphabet_base</text>
<text text-anchor="start" x="280" y="-18.5" font-family="Helvetica,sans-Serif" font-size="10.00">&lt; derived_type, size,</text>
<text text-anchor="middle" x="332" y="-7.5" font-family="Helvetica,sans-Serif" font-size="10.00"> char &gt;</text>
</a>
</g>
</g>
<!-- Node12&#45;&gt;Node14 -->
<g id="edge14" class="edge">
<title>Node12&#45;&gt;Node14</title>
<path fill="none" stroke="orange" stroke-dasharray="5,2" d="M134.47,-35.75C138.71,-35.11 142.91,-34.52 147,-34 188.46,-28.74 235.46,-25.46 271.59,-23.51"/>
<polygon fill="orange" stroke="orange" points="133.91,-32.3 124.58,-37.33 135.01,-39.21 133.91,-32.3"/>
<text text-anchor="start" x="147" y="-48" font-family="Helvetica,sans-Serif" font-size="10.00"> &lt; derived_type, size,</text>
<text text-anchor="middle" x="200.5" y="-37" font-family="Helvetica,sans-Serif" font-size="10.00"> char &gt;</text>
</g>
<!-- Node13 -->
<g id="node13" class="node">
<title>Node13</title>
<g id="a_node13"><a xlink:href="classbio_1_1quality__base.html" target="_top" xlink:title="A CRTP&#45;base that refines bio::alphabet_base and is used by the quality alphabets.">
<polygon fill="white" stroke="black" points="429,-9 429,-39 549,-39 549,-9 429,-9"/>
<text text-anchor="start" x="437" y="-27" font-family="Helvetica,sans-Serif" font-size="10.00">bio::quality_base&lt;</text>
<text text-anchor="middle" x="489" y="-16" font-family="Helvetica,sans-Serif" font-size="10.00"> derived_type, size &gt;</text>
</a>
</g>
</g>
<!-- Node13&#45;&gt;Node11 -->
<g id="edge12" class="edge">
<title>Node13&#45;&gt;Node11</title>
<path fill="none" stroke="orange" stroke-dasharray="5,2" d="M559.05,-30.87C605.79,-35.52 666.92,-41.6 711.6,-46.04"/>
<polygon fill="orange" stroke="orange" points="559.31,-27.38 549.01,-29.87 558.62,-34.34 559.31,-27.38"/>
<text text-anchor="middle" x="625" y="-46" font-family="Helvetica,sans-Serif" font-size="10.00"> &lt; phred68legacy, 68 &gt;</text>
</g>
<!-- Node14&#45;&gt;Node13 -->
<g id="edge13" class="edge">
<title>Node14&#45;&gt;Node13</title>
<path fill="none" stroke="midnightblue" d="M402.05,-22.34C411,-22.51 420.1,-22.69 428.87,-22.86"/>
<polygon fill="midnightblue" stroke="midnightblue" points="402.11,-18.84 392.04,-22.14 401.97,-25.84 402.11,-18.84"/>
</g>
</g>
</svg>
