<?xml version="1.0" encoding="UTF-8" standalone="no"?>
<!DOCTYPE svg PUBLIC "-//W3C//DTD SVG 1.1//EN"
 "http://www.w3.org/Graphics/SVG/1.1/DTD/svg11.dtd">
<!-- Generated by graphviz version 2.43.0 (0)
 -->
<!-- Title: bio/ranges/views/complement.hpp Pages: 1 -->
<!--zoomable 453 -->
<svg id="main" version="1.1" xmlns="http://www.w3.org/2000/svg" xmlns:xlink="http://www.w3.org/1999/xlink" xml:space="preserve" onload="init(evt)">
<style type="text/css"><![CDATA[
.edge:hover path { stroke: red; }
.edge:hover polygon { stroke: red; fill: red; }
]]></style>
<script type="text/javascript"><![CDATA[
var edges = document.getElementsByTagName('g');
if (edges && edges.length) {
  for (var i=0;i<edges.length;i++) {
    if (edges[i].id.substr(0,4)=='edge') {
      edges[i].setAttribute('class','edge');
    }
  }
}
]]></script>
        <defs>
                <circle id="rim" cx="0" cy="0" r="7"/>
                <circle id="rim2" cx="0" cy="0" r="3.5"/>
                <g id="zoomPlus">
                        <use xlink:href="#rim" fill="#404040">
                                <set attributeName="fill" to="#808080" begin="zoomplus.mouseover" end="zoomplus.mouseout"/>
                        </use>
                        <path d="M-4,0h8M0,-4v8" fill="none" stroke="white" stroke-width="1.5" pointer-events="none"/>
                </g>
                <g id="zoomMin">
                        <use xlink:href="#rim" fill="#404040">
                                <set attributeName="fill" to="#808080" begin="zoomminus.mouseover" end="zoomminus.mouseout"/>
                        </use>
                        <path d="M-4,0h8" fill="none" stroke="white" stroke-width="1.5" pointer-events="none"/>
                </g>
                <g id="dirArrow">
                        <path fill="none" stroke="white" stroke-width="1.5" d="M0,-3.0v7 M-2.5,-0.5L0,-3.0L2.5,-0.5"/>
                </g>
               <g id="resetDef">
                       <use xlink:href="#rim2" fill="#404040">
                               <set attributeName="fill" to="#808080" begin="reset.mouseover" end="reset.mouseout"/>
                       </use>
               </g>
        </defs>

<script type="text/javascript">
var viewWidth = 1054;
var viewHeight = 453;
var sectionId = 'dynsection-0';
</script>
<script xlink:href="svgpan.js"/>
<svg id="graph" class="graph">
<g id="viewport">
<title>bio/ranges/views/complement.hpp</title>
<polygon fill="white" stroke="transparent" points="-4,4 -4,-449 1050.37,-449 1050.37,4 -4,4"/>
<!-- Node1 -->
<g id="node1" class="node">
<title>Node1</title>
<g id="a_node1"><a xlink:title="Provides bio::views::complement.">
<polygon fill="#bfbfbf" stroke="black" points="607,-425.5 607,-444.5 792,-444.5 792,-425.5 607,-425.5"/>
<text text-anchor="middle" x="699.5" y="-432.5" font-family="Helvetica,sans-Serif" font-size="10.00">bio/ranges/views/complement.hpp</text>
</a>
</g>
</g>
<!-- Node2 -->
<g id="node2" class="node">
<title>Node2</title>
<g id="a_node2"><a target="_blank" xlink:href="https://en.cppreference.com/w/cpp/header/ranges.html" xlink:title=" ">
<polygon fill="white" stroke="black" points="701.5,-185 701.5,-204 751.5,-204 751.5,-185 701.5,-185"/>
<text text-anchor="middle" x="726.5" y="-192" font-family="Helvetica,sans-Serif" font-size="10.00">ranges</text>
</a>
</g>
</g>
<!-- Node1&#45;&gt;Node2 -->
<g id="edge1" class="edge">
<title>Node1&#45;&gt;Node2</title>
<path fill="none" stroke="midnightblue" d="M700.49,-425.23C704.42,-390.53 718.93,-262.39 724.4,-214.09"/>
<polygon fill="midnightblue" stroke="midnightblue" points="727.88,-214.43 725.53,-204.1 720.92,-213.64 727.88,-214.43"/>
</g>
<!-- Node3 -->
<g id="node3" class="node">
<title>Node3</title>
<g id="a_node3"><a xlink:href="alphabet_2nucleotide_2concept_8hpp.html" target="_top" xlink:title="Provides bio::alphabet::nucleotide_alphabet.">
<polygon fill="white" stroke="black" points="540,-302.5 540,-332.5 671,-332.5 671,-302.5 540,-302.5"/>
<text text-anchor="start" x="548" y="-320.5" font-family="Helvetica,sans-Serif" font-size="10.00">bio/alphabet/nucleotide</text>
<text text-anchor="middle" x="605.5" y="-309.5" font-family="Helvetica,sans-Serif" font-size="10.00">/concept.hpp</text>
</a>
</g>
</g>
<!-- Node1&#45;&gt;Node3 -->
<g id="edge2" class="edge">
<title>Node1&#45;&gt;Node3</title>
<path fill="none" stroke="midnightblue" d="M692.43,-425.32C677.93,-407.5 644.42,-366.32 623.5,-340.61"/>
<polygon fill="midnightblue" stroke="midnightblue" points="625.96,-338.09 616.93,-332.55 620.53,-342.51 625.96,-338.09"/>
</g>
<!-- Node23 -->
<g id="node23" class="node">
<title>Node23</title>
<g id="a_node23"><a xlink:href="deep_8hpp.html" target="_top" xlink:title="Provides bio::views::deep.">
<polygon fill="white" stroke="black" points="728,-369.5 728,-388.5 875,-388.5 875,-369.5 728,-369.5"/>
<text text-anchor="middle" x="801.5" y="-376.5" font-family="Helvetica,sans-Serif" font-size="10.00">bio/ranges/views/deep.hpp</text>
</a>
</g>
</g>
<!-- Node1&#45;&gt;Node23 -->
<g id="edge33" class="edge">
<title>Node1&#45;&gt;Node23</title>
<path fill="none" stroke="midnightblue" d="M715.89,-425.32C732.17,-416.7 757.37,-403.36 776.22,-393.39"/>
<polygon fill="midnightblue" stroke="midnightblue" points="777.95,-396.43 785.15,-388.65 774.68,-390.24 777.95,-396.43"/>
</g>
<!-- Node4 -->
<g id="node4" class="node">
<title>Node4</title>
<g id="a_node4"><a target="_blank" xlink:href="https://en.cppreference.com/w/cpp/header/concepts.html" xlink:title=" ">
<polygon fill="white" stroke="black" points="620.5,-56.5 620.5,-75.5 680.5,-75.5 680.5,-56.5 620.5,-56.5"/>
<text text-anchor="middle" x="650.5" y="-63.5" font-family="Helvetica,sans-Serif" font-size="10.00">concepts</text>
</a>
</g>
</g>
<!-- Node3&#45;&gt;Node4 -->
<g id="edge3" class="edge">
<title>Node3&#45;&gt;Node4</title>
<path fill="none" stroke="midnightblue" d="M613.64,-302.5C628.47,-277.25 661.27,-222.65 692.5,-179 704.46,-162.29 714.67,-162.38 721.5,-143 726.08,-130.01 728.14,-124.07 721.5,-112 713.61,-97.66 699.01,-87.25 685.1,-80.08"/>
<polygon fill="midnightblue" stroke="midnightblue" points="686.2,-76.73 675.66,-75.62 683.21,-83.06 686.2,-76.73"/>
</g>
<!-- Node5 -->
<g id="node5" class="node">
<title>Node5</title>
<g id="a_node5"><a xlink:href="alphabet_2concept_8hpp.html" target="_top" xlink:title="Core alphabet concept and free function/type trait wrappers.">
<polygon fill="white" stroke="black" points="451.5,-246.5 451.5,-265.5 591.5,-265.5 591.5,-246.5 451.5,-246.5"/>
<text text-anchor="middle" x="521.5" y="-253.5" font-family="Helvetica,sans-Serif" font-size="10.00">bio/alphabet/concept.hpp</text>
</a>
</g>
</g>
<!-- Node3&#45;&gt;Node5 -->
<g id="edge4" class="edge">
<title>Node3&#45;&gt;Node5</title>
<path fill="none" stroke="midnightblue" d="M585.59,-302.4C572.51,-293.13 555.42,-281.03 542.18,-271.65"/>
<polygon fill="midnightblue" stroke="midnightblue" points="543.91,-268.58 533.72,-265.66 539.86,-274.29 543.91,-268.58"/>
</g>
<!-- Node6 -->
<g id="node6" class="node">
<title>Node6</title>
<g id="a_node6"><a target="_blank" xlink:href="https://en.cppreference.com/w/cpp/header/type_traits.html" xlink:title=" ">
<polygon fill="white" stroke="black" points="745,-56.5 745,-75.5 814,-75.5 814,-56.5 745,-56.5"/>
<text text-anchor="middle" x="779.5" y="-63.5" font-family="Helvetica,sans-Serif" font-size="10.00">type_traits</text>
</a>
</g>
</g>
<!-- Node5&#45;&gt;Node6 -->
<g id="edge5" class="edge">
<title>Node5&#45;&gt;Node6</title>
<path fill="none" stroke="midnightblue" d="M543.14,-246.39C581.88,-230.25 664.39,-192.56 721.5,-143 741.2,-125.9 758.57,-101.16 769.05,-84.6"/>
<polygon fill="midnightblue" stroke="midnightblue" points="772.13,-86.26 774.39,-75.91 766.17,-82.6 772.13,-86.26"/>
</g>
<!-- Node7 -->
<g id="node7" class="node">
<title>Node7</title>
<g id="a_node7"><a xlink:href="tag_8hpp.html" target="_top" xlink:title="Provides the customisation tags for the alphabet concepts.">
<polygon fill="white" stroke="black" points="377.5,-179.5 377.5,-209.5 493.5,-209.5 493.5,-179.5 377.5,-179.5"/>
<text text-anchor="start" x="385.5" y="-197.5" font-family="Helvetica,sans-Serif" font-size="10.00">bio/alphabet/custom</text>
<text text-anchor="middle" x="435.5" y="-186.5" font-family="Helvetica,sans-Serif" font-size="10.00">/tag.hpp</text>
</a>
</g>
</g>
<!-- Node5&#45;&gt;Node7 -->
<g id="edge6" class="edge">
<title>Node5&#45;&gt;Node7</title>
<path fill="none" stroke="midnightblue" d="M509.18,-246.48C497.53,-238.42 479.62,-226.02 464.37,-215.47"/>
<polygon fill="midnightblue" stroke="midnightblue" points="465.98,-212.33 455.77,-209.52 462,-218.09 465.98,-212.33"/>
</g>
<!-- Node8 -->
<g id="node8" class="node">
<title>Node8</title>
<g id="a_node8"><a xlink:href="exception_8hpp.html" target="_top" xlink:title="Exceptions thrown by entities in the alphabet module.">
<polygon fill="white" stroke="black" points="209,-118 209,-137 358,-137 358,-118 209,-118"/>
<text text-anchor="middle" x="283.5" y="-125" font-family="Helvetica,sans-Serif" font-size="10.00">bio/alphabet/exception.hpp</text>
</a>
</g>
</g>
<!-- Node5&#45;&gt;Node8 -->
<g id="edge7" class="edge">
<title>Node5&#45;&gt;Node8</title>
<path fill="none" stroke="midnightblue" d="M461.38,-246.43C429.42,-239.93 390.44,-228.78 359.5,-210 332.05,-193.34 308.25,-164.03 294.91,-145.47"/>
<polygon fill="midnightblue" stroke="midnightblue" points="297.66,-143.3 289.07,-137.1 291.92,-147.3 297.66,-143.3"/>
</g>
<!-- Node11 -->
<g id="node11" class="node">
<title>Node11</title>
<g id="a_node11"><a xlink:href="core_8hpp.html" target="_top" xlink:title="Provides platform and dependency checks.">
<polygon fill="white" stroke="black" points="396,-56.5 396,-75.5 473,-75.5 473,-56.5 396,-56.5"/>
<text text-anchor="middle" x="434.5" y="-63.5" font-family="Helvetica,sans-Serif" font-size="10.00">bio/core.hpp</text>
</a>
</g>
</g>
<!-- Node5&#45;&gt;Node11 -->
<g id="edge16" class="edge">
<title>Node5&#45;&gt;Node11</title>
<path fill="none" stroke="midnightblue" d="M522.57,-246.46C525.08,-222.98 529.16,-156.2 501.5,-112 492.86,-98.2 478.27,-87.66 464.9,-80.26"/>
<polygon fill="midnightblue" stroke="midnightblue" points="466.42,-77.1 455.93,-75.63 463.21,-83.33 466.42,-77.1"/>
</g>
<!-- Node15 -->
<g id="node15" class="node">
<title>Node15</title>
<g id="a_node15"><a xlink:href="core__language_8hpp.html" target="_top" xlink:title="Provides concepts for core language types and relations that don&#39;t have concepts in C++20 (yet).">
<polygon fill="white" stroke="black" points="588,-112.5 588,-142.5 713,-142.5 713,-112.5 588,-112.5"/>
<text text-anchor="start" x="596" y="-130.5" font-family="Helvetica,sans-Serif" font-size="10.00">bio/meta/concept/core</text>
<text text-anchor="middle" x="650.5" y="-119.5" font-family="Helvetica,sans-Serif" font-size="10.00">_language.hpp</text>
</a>
</g>
</g>
<!-- Node5&#45;&gt;Node15 -->
<g id="edge17" class="edge">
<title>Node5&#45;&gt;Node15</title>
<path fill="none" stroke="midnightblue" d="M530.37,-246.31C550.43,-226.63 599.81,-178.21 628.63,-149.95"/>
<polygon fill="midnightblue" stroke="midnightblue" points="631.14,-152.39 635.83,-142.89 626.24,-147.39 631.14,-152.39"/>
</g>
<!-- Node16 -->
<g id="node16" class="node">
<title>Node16</title>
<g id="a_node16"><a xlink:href="type__inspection_8hpp.html" target="_top" xlink:title="Provides traits to inspect some information of a type, for example its name.">
<polygon fill="white" stroke="black" points="74.5,-112.5 74.5,-142.5 190.5,-142.5 190.5,-112.5 74.5,-112.5"/>
<text text-anchor="start" x="82.5" y="-130.5" font-family="Helvetica,sans-Serif" font-size="10.00">bio/meta/detail/type</text>
<text text-anchor="middle" x="132.5" y="-119.5" font-family="Helvetica,sans-Serif" font-size="10.00">_inspection.hpp</text>
</a>
</g>
</g>
<!-- Node5&#45;&gt;Node16 -->
<g id="edge21" class="edge">
<title>Node5&#45;&gt;Node16</title>
<path fill="none" stroke="midnightblue" d="M471.23,-246.48C430.14,-238.86 370.83,-226.38 320.5,-210 266.55,-192.44 206.86,-165.13 169.51,-147.03"/>
<polygon fill="midnightblue" stroke="midnightblue" points="171.04,-143.88 160.52,-142.64 167.97,-150.17 171.04,-143.88"/>
</g>
<!-- Node20 -->
<g id="node20" class="node">
<title>Node20</title>
<g id="a_node20"><a xlink:href="priority__tag_8hpp.html" target="_top" xlink:title="provides bio::meta::priority_tag.">
<polygon fill="white" stroke="black" points="376,-112.5 376,-142.5 493,-142.5 493,-112.5 376,-112.5"/>
<text text-anchor="start" x="384" y="-130.5" font-family="Helvetica,sans-Serif" font-size="10.00">bio/meta/tag/priority</text>
<text text-anchor="middle" x="434.5" y="-119.5" font-family="Helvetica,sans-Serif" font-size="10.00">_tag.hpp</text>
</a>
</g>
</g>
<!-- Node5&#45;&gt;Node20 -->
<g id="edge27" class="edge">
<title>Node5&#45;&gt;Node20</title>
<path fill="none" stroke="midnightblue" d="M469.34,-246.49C429.99,-238.88 380.77,-226.4 368.5,-210 352.37,-188.45 376.89,-164.61 400.48,-148.31"/>
<polygon fill="midnightblue" stroke="midnightblue" points="402.62,-151.09 409.05,-142.66 398.77,-145.24 402.62,-151.09"/>
</g>
<!-- Node21 -->
<g id="node21" class="node">
<title>Node21</title>
<g id="a_node21"><a xlink:href="basic_8hpp.html" target="_top" xlink:title="Provides various type traits on generic types.">
<polygon fill="white" stroke="black" points="917.5,-179.5 917.5,-209.5 1033.5,-209.5 1033.5,-179.5 917.5,-179.5"/>
<text text-anchor="start" x="925.5" y="-197.5" font-family="Helvetica,sans-Serif" font-size="10.00">bio/meta/type_traits</text>
<text text-anchor="middle" x="975.5" y="-186.5" font-family="Helvetica,sans-Serif" font-size="10.00">/basic.hpp</text>
</a>
</g>
</g>
<!-- Node5&#45;&gt;Node21 -->
<g id="edge29" class="edge">
<title>Node5&#45;&gt;Node21</title>
<path fill="none" stroke="midnightblue" d="M591.51,-248.84C666.86,-241.75 790.41,-228.83 907.14,-209.95"/>
<polygon fill="midnightblue" stroke="midnightblue" points="908.03,-213.35 917.33,-208.28 906.9,-206.44 908.03,-213.35"/>
</g>
<!-- Node8&#45;&gt;Node4 -->
<g id="edge8" class="edge">
<title>Node8&#45;&gt;Node4</title>
<path fill="none" stroke="midnightblue" d="M331.76,-117.94C343.14,-115.95 355.25,-113.87 366.5,-112 453.24,-97.55 555.07,-81.68 610.16,-73.19"/>
<polygon fill="midnightblue" stroke="midnightblue" points="610.86,-76.62 620.21,-71.64 609.8,-69.7 610.86,-76.62"/>
</g>
<!-- Node9 -->
<g id="node9" class="node">
<title>Node9</title>
<g id="a_node9"><a target="_blank" xlink:href="https://en.cppreference.com/w/cpp/header/stdexcept.html" xlink:title=" ">
<polygon fill="white" stroke="black" points="312,-56.5 312,-75.5 377,-75.5 377,-56.5 312,-56.5"/>
<text text-anchor="middle" x="344.5" y="-63.5" font-family="Helvetica,sans-Serif" font-size="10.00">stdexcept</text>
</a>
</g>
</g>
<!-- Node8&#45;&gt;Node9 -->
<g id="edge9" class="edge">
<title>Node8&#45;&gt;Node9</title>
<path fill="none" stroke="midnightblue" d="M292.24,-117.98C301.66,-108.78 316.86,-93.96 328.45,-82.66"/>
<polygon fill="midnightblue" stroke="midnightblue" points="331.06,-85 335.78,-75.51 326.17,-79.99 331.06,-85"/>
</g>
<!-- Node10 -->
<g id="node10" class="node">
<title>Node10</title>
<g id="a_node10"><a target="_blank" xlink:href="https://en.cppreference.com/w/cpp/header/string.html" xlink:title=" ">
<polygon fill="white" stroke="black" points="261.5,-0.5 261.5,-19.5 305.5,-19.5 305.5,-0.5 261.5,-0.5"/>
<text text-anchor="middle" x="283.5" y="-7.5" font-family="Helvetica,sans-Serif" font-size="10.00">string</text>
</a>
</g>
</g>
<!-- Node8&#45;&gt;Node10 -->
<g id="edge10" class="edge">
<title>Node8&#45;&gt;Node10</title>
<path fill="none" stroke="midnightblue" d="M283.5,-117.82C283.5,-99.26 283.5,-55.34 283.5,-29.97"/>
<polygon fill="midnightblue" stroke="midnightblue" points="287,-29.78 283.5,-19.78 280,-29.78 287,-29.78"/>
</g>
<!-- Node8&#45;&gt;Node11 -->
<g id="edge11" class="edge">
<title>Node8&#45;&gt;Node11</title>
<path fill="none" stroke="midnightblue" d="M305.13,-117.98C330.92,-107.81 374.21,-90.76 403.54,-79.2"/>
<polygon fill="midnightblue" stroke="midnightblue" points="404.88,-82.43 412.91,-75.51 402.32,-75.92 404.88,-82.43"/>
</g>
<!-- Node11&#45;&gt;Node10 -->
<g id="edge15" class="edge">
<title>Node11&#45;&gt;Node10</title>
<path fill="none" stroke="midnightblue" d="M410.57,-56.44C384.83,-47.24 343.78,-32.56 315.33,-22.38"/>
<polygon fill="midnightblue" stroke="midnightblue" points="316.43,-19.06 305.84,-18.99 314.08,-25.65 316.43,-19.06"/>
</g>
<!-- Node12 -->
<g id="node12" class="node">
<title>Node12</title>
<g id="a_node12"><a target="_blank" xlink:href="https://en.cppreference.com/w/cpp/header/cinttypes.html" xlink:title=" ">
<polygon fill="white" stroke="black" points="479.5,-0.5 479.5,-19.5 541.5,-19.5 541.5,-0.5 479.5,-0.5"/>
<text text-anchor="middle" x="510.5" y="-7.5" font-family="Helvetica,sans-Serif" font-size="10.00">cinttypes</text>
</a>
</g>
</g>
<!-- Node11&#45;&gt;Node12 -->
<g id="edge12" class="edge">
<title>Node11&#45;&gt;Node12</title>
<path fill="none" stroke="midnightblue" d="M446.71,-56.32C458.28,-48.11 475.88,-35.6 489.66,-25.81"/>
<polygon fill="midnightblue" stroke="midnightblue" points="491.94,-28.48 498.07,-19.83 487.89,-22.77 491.94,-28.48"/>
</g>
<!-- Node13 -->
<g id="node13" class="node">
<title>Node13</title>
<g id="a_node13"><a target="_blank" xlink:href="https://en.cppreference.com/w/cpp/header/ciso646.html" xlink:title=" ">
<polygon fill="white" stroke="black" points="335.5,-0.5 335.5,-19.5 389.5,-19.5 389.5,-0.5 335.5,-0.5"/>
<text text-anchor="middle" x="362.5" y="-7.5" font-family="Helvetica,sans-Serif" font-size="10.00">ciso646</text>
</a>
</g>
</g>
<!-- Node11&#45;&gt;Node13 -->
<g id="edge13" class="edge">
<title>Node11&#45;&gt;Node13</title>
<path fill="none" stroke="midnightblue" d="M422.93,-56.32C412.08,-48.18 395.62,-35.84 382.62,-26.09"/>
<polygon fill="midnightblue" stroke="midnightblue" points="384.38,-23.03 374.28,-19.83 380.18,-28.63 384.38,-23.03"/>
</g>
<!-- Node14 -->
<g id="node14" class="node">
<title>Node14</title>
<g id="a_node14"><a target="_blank" xlink:href="https://en.cppreference.com/w/cpp/header/cstddef.html" xlink:title=" ">
<polygon fill="white" stroke="black" points="408,-0.5 408,-19.5 461,-19.5 461,-0.5 408,-0.5"/>
<text text-anchor="middle" x="434.5" y="-7.5" font-family="Helvetica,sans-Serif" font-size="10.00">cstddef</text>
</a>
</g>
</g>
<!-- Node11&#45;&gt;Node14 -->
<g id="edge14" class="edge">
<title>Node11&#45;&gt;Node14</title>
<path fill="none" stroke="midnightblue" d="M434.5,-56.08C434.5,-49.01 434.5,-38.86 434.5,-29.99"/>
<polygon fill="midnightblue" stroke="midnightblue" points="438,-29.75 434.5,-19.75 431,-29.75 438,-29.75"/>
</g>
<!-- Node15&#45;&gt;Node4 -->
<g id="edge18" class="edge">
<title>Node15&#45;&gt;Node4</title>
<path fill="none" stroke="midnightblue" d="M650.5,-112.4C650.5,-104.47 650.5,-94.46 650.5,-85.86"/>
<polygon fill="midnightblue" stroke="midnightblue" points="654,-85.66 650.5,-75.66 647,-85.66 654,-85.66"/>
</g>
<!-- Node15&#45;&gt;Node6 -->
<g id="edge19" class="edge">
<title>Node15&#45;&gt;Node6</title>
<path fill="none" stroke="midnightblue" d="M681.07,-112.4C702.43,-102.55 730.72,-89.5 751.48,-79.92"/>
<polygon fill="midnightblue" stroke="midnightblue" points="753.11,-83.02 760.73,-75.66 750.18,-76.67 753.11,-83.02"/>
</g>
<!-- Node15&#45;&gt;Node11 -->
<g id="edge20" class="edge">
<title>Node15&#45;&gt;Node11</title>
<path fill="none" stroke="midnightblue" d="M599.58,-112.47C561.67,-102.03 510.58,-87.96 475.33,-78.25"/>
<polygon fill="midnightblue" stroke="midnightblue" points="475.95,-74.79 465.38,-75.51 474.09,-81.54 475.95,-74.79"/>
</g>
<!-- Node16&#45;&gt;Node10 -->
<g id="edge24" class="edge">
<title>Node16&#45;&gt;Node10</title>
<path fill="none" stroke="midnightblue" d="M164.74,-112.41C183.45,-103.42 206.92,-90.72 225.5,-76 243.2,-61.98 259.98,-42.21 270.9,-28.16"/>
<polygon fill="midnightblue" stroke="midnightblue" points="273.93,-29.95 277.17,-19.87 268.34,-25.73 273.93,-29.95"/>
</g>
<!-- Node16&#45;&gt;Node11 -->
<g id="edge26" class="edge">
<title>Node16&#45;&gt;Node11</title>
<path fill="none" stroke="midnightblue" d="M190.59,-113.84C193.6,-113.21 196.58,-112.59 199.5,-112 263.77,-98.89 338.17,-84.83 385.75,-75.98"/>
<polygon fill="midnightblue" stroke="midnightblue" points="386.58,-79.39 395.77,-74.12 385.3,-72.51 386.58,-79.39"/>
</g>
<!-- Node17 -->
<g id="node17" class="node">
<title>Node17</title>
<g id="a_node17"><a target="_blank" xlink:href="https://en.cppreference.com/w/cpp/header/functional.html" xlink:title=" ">
<polygon fill="white" stroke="black" points="0,-56.5 0,-75.5 65,-75.5 65,-56.5 0,-56.5"/>
<text text-anchor="middle" x="32.5" y="-63.5" font-family="Helvetica,sans-Serif" font-size="10.00">functional</text>
</a>
</g>
</g>
<!-- Node16&#45;&gt;Node17 -->
<g id="edge22" class="edge">
<title>Node16&#45;&gt;Node17</title>
<path fill="none" stroke="midnightblue" d="M108.8,-112.4C92.77,-102.86 71.7,-90.32 55.76,-80.84"/>
<polygon fill="midnightblue" stroke="midnightblue" points="57.43,-77.76 47.05,-75.66 53.86,-83.78 57.43,-77.76"/>
</g>
<!-- Node18 -->
<g id="node18" class="node">
<title>Node18</title>
<g id="a_node18"><a target="_blank" xlink:href="https://en.cppreference.com/w/cpp/header/memory.html" xlink:title=" ">
<polygon fill="white" stroke="black" points="83.5,-56.5 83.5,-75.5 141.5,-75.5 141.5,-56.5 83.5,-56.5"/>
<text text-anchor="middle" x="112.5" y="-63.5" font-family="Helvetica,sans-Serif" font-size="10.00">memory</text>
</a>
</g>
</g>
<!-- Node16&#45;&gt;Node18 -->
<g id="edge23" class="edge">
<title>Node16&#45;&gt;Node18</title>
<path fill="none" stroke="midnightblue" d="M127.76,-112.4C125.03,-104.29 121.58,-94.01 118.64,-85.28"/>
<polygon fill="midnightblue" stroke="midnightblue" points="121.91,-84.02 115.41,-75.66 115.28,-86.25 121.91,-84.02"/>
</g>
<!-- Node19 -->
<g id="node19" class="node">
<title>Node19</title>
<g id="a_node19"><a target="_blank" xlink:href="https://en.cppreference.com/w/cpp/header/typeinfo.html" xlink:title=" ">
<polygon fill="white" stroke="black" points="160,-56.5 160,-75.5 217,-75.5 217,-56.5 160,-56.5"/>
<text text-anchor="middle" x="188.5" y="-63.5" font-family="Helvetica,sans-Serif" font-size="10.00">typeinfo</text>
</a>
</g>
</g>
<!-- Node16&#45;&gt;Node19 -->
<g id="edge25" class="edge">
<title>Node16&#45;&gt;Node19</title>
<path fill="none" stroke="midnightblue" d="M145.77,-112.4C154.08,-103.58 164.8,-92.18 173.42,-83.02"/>
<polygon fill="midnightblue" stroke="midnightblue" points="176.05,-85.34 180.35,-75.66 170.95,-80.54 176.05,-85.34"/>
</g>
<!-- Node20&#45;&gt;Node11 -->
<g id="edge28" class="edge">
<title>Node20&#45;&gt;Node11</title>
<path fill="none" stroke="midnightblue" d="M434.5,-112.4C434.5,-104.47 434.5,-94.46 434.5,-85.86"/>
<polygon fill="midnightblue" stroke="midnightblue" points="438,-85.66 434.5,-75.66 431,-85.66 438,-85.66"/>
</g>
<!-- Node21&#45;&gt;Node6 -->
<g id="edge31" class="edge">
<title>Node21&#45;&gt;Node6</title>
<path fill="none" stroke="midnightblue" d="M953.78,-179.48C916.29,-155.28 839.83,-105.94 801.89,-81.45"/>
<polygon fill="midnightblue" stroke="midnightblue" points="803.42,-78.27 793.12,-75.79 799.62,-84.15 803.42,-78.27"/>
</g>
<!-- Node21&#45;&gt;Node15 -->
<g id="edge32" class="edge">
<title>Node21&#45;&gt;Node15</title>
<path fill="none" stroke="midnightblue" d="M917.27,-181.02C913.97,-180.33 910.69,-179.65 907.5,-179 845.38,-166.27 774.68,-152.43 723.17,-142.46"/>
<polygon fill="midnightblue" stroke="midnightblue" points="723.62,-138.98 713.14,-140.52 722.29,-145.85 723.62,-138.98"/>
</g>
<!-- Node22 -->
<g id="node22" class="node">
<title>Node22</title>
<g id="a_node22"><a target="_blank" xlink:href="https://en.cppreference.com/w/cpp/header/tuple.html" xlink:title=" ">
<polygon fill="white" stroke="black" points="998,-118 998,-137 1039,-137 1039,-118 998,-118"/>
<text text-anchor="middle" x="1018.5" y="-125" font-family="Helvetica,sans-Serif" font-size="10.00">tuple</text>
</a>
</g>
</g>
<!-- Node21&#45;&gt;Node22 -->
<g id="edge30" class="edge">
<title>Node21&#45;&gt;Node22</title>
<path fill="none" stroke="midnightblue" d="M984.83,-179.4C991.4,-169.46 1000.24,-156.11 1007.21,-145.57"/>
<polygon fill="midnightblue" stroke="midnightblue" points="1010.15,-147.47 1012.75,-137.19 1004.31,-143.6 1010.15,-147.47"/>
</g>
<!-- Node23&#45;&gt;Node2 -->
<g id="edge34" class="edge">
<title>Node23&#45;&gt;Node2</title>
<path fill="none" stroke="midnightblue" d="M797.88,-369.2C786.27,-340.95 749.8,-252.2 733.96,-213.66"/>
<polygon fill="midnightblue" stroke="midnightblue" points="737.12,-212.13 730.08,-204.21 730.65,-214.79 737.12,-212.13"/>
</g>
<!-- Node24 -->
<g id="node24" class="node">
<title>Node24</title>
<g id="a_node24"><a xlink:href="ranges_2views_2detail_8hpp_source.html" target="_top" xlink:title=" ">
<polygon fill="white" stroke="black" points="800,-308 800,-327 951,-327 951,-308 800,-308"/>
<text text-anchor="middle" x="875.5" y="-315" font-family="Helvetica,sans-Serif" font-size="10.00">bio/ranges/views/detail.hpp</text>
</a>
</g>
</g>
<!-- Node23&#45;&gt;Node24 -->
<g id="edge35" class="edge">
<title>Node23&#45;&gt;Node24</title>
<path fill="none" stroke="midnightblue" d="M812.1,-369.48C823.75,-360.11 842.69,-344.88 856.83,-333.51"/>
<polygon fill="midnightblue" stroke="midnightblue" points="859.32,-336 864.92,-327.01 854.93,-330.55 859.32,-336"/>
</g>
<!-- Node24&#45;&gt;Node2 -->
<g id="edge36" class="edge">
<title>Node24&#45;&gt;Node2</title>
<path fill="none" stroke="midnightblue" d="M859.2,-307.91C842.26,-298.63 815.37,-282.89 794.5,-266 774.17,-249.54 753.72,-227.41 740.64,-212.37"/>
<polygon fill="midnightblue" stroke="midnightblue" points="743,-209.74 733.84,-204.42 737.68,-214.3 743,-209.74"/>
</g>
<!-- Node24&#45;&gt;Node21 -->
<g id="edge38" class="edge">
<title>Node24&#45;&gt;Node21</title>
<path fill="none" stroke="midnightblue" d="M898.04,-307.96C916.43,-299.87 941.69,-285.96 956.5,-266 966.43,-252.61 971.17,-234.38 973.44,-219.81"/>
<polygon fill="midnightblue" stroke="midnightblue" points="976.95,-219.88 974.73,-209.52 970.01,-219.01 976.95,-219.88"/>
</g>
<!-- Node24&#45;&gt;Node22 -->
<g id="edge37" class="edge">
<title>Node24&#45;&gt;Node22</title>
<path fill="none" stroke="midnightblue" d="M906.78,-307.89C947.67,-294.66 1017.07,-264.92 1042.5,-210 1052.24,-188.96 1040.98,-163.04 1030.83,-146.16"/>
<polygon fill="midnightblue" stroke="midnightblue" points="1033.51,-143.87 1025.15,-137.37 1027.63,-147.67 1033.51,-143.87"/>
</g>
<!-- Node25 -->
<g id="node25" class="node">
<title>Node25</title>
<g id="a_node25"><a xlink:href="type__traits_8hpp.html" target="_top" xlink:title="Provides various transformation traits used by the range module.">
<polygon fill="white" stroke="black" points="803.5,-246.5 803.5,-265.5 947.5,-265.5 947.5,-246.5 803.5,-246.5"/>
<text text-anchor="middle" x="875.5" y="-253.5" font-family="Helvetica,sans-Serif" font-size="10.00">bio/ranges/type_traits.hpp</text>
</a>
</g>
</g>
<!-- Node24&#45;&gt;Node25 -->
<g id="edge39" class="edge">
<title>Node24&#45;&gt;Node25</title>
<path fill="none" stroke="midnightblue" d="M875.5,-307.98C875.5,-299.58 875.5,-286.48 875.5,-275.66"/>
<polygon fill="midnightblue" stroke="midnightblue" points="879,-275.51 875.5,-265.51 872,-275.51 879,-275.51"/>
</g>
<!-- Node25&#45;&gt;Node2 -->
<g id="edge41" class="edge">
<title>Node25&#45;&gt;Node2</title>
<path fill="none" stroke="midnightblue" d="M854.15,-246.48C828.81,-236.36 786.36,-219.4 757.43,-207.85"/>
<polygon fill="midnightblue" stroke="midnightblue" points="758.39,-204.47 747.81,-204.01 755.8,-210.97 758.39,-204.47"/>
</g>
<!-- Node25&#45;&gt;Node6 -->
<g id="edge42" class="edge">
<title>Node25&#45;&gt;Node6</title>
<path fill="none" stroke="midnightblue" d="M866.46,-246.4C857.86,-237.82 844.99,-223.95 836.5,-210 823.15,-188.06 797.72,-118.46 785.87,-85.13"/>
<polygon fill="midnightblue" stroke="midnightblue" points="789.16,-83.95 782.53,-75.69 782.56,-86.29 789.16,-83.95"/>
</g>
<!-- Node25&#45;&gt;Node11 -->
<g id="edge43" class="edge">
<title>Node25&#45;&gt;Node11</title>
<path fill="none" stroke="midnightblue" d="M865.5,-246.4C846.44,-230.48 803,-196.45 760.5,-179 684.22,-147.68 655.94,-171.31 578.5,-143 551.78,-133.23 547.61,-125.37 522.5,-112 501.92,-101.05 478.41,-89.05 460.86,-80.2"/>
<polygon fill="midnightblue" stroke="midnightblue" points="462.29,-77 451.79,-75.63 459.15,-83.25 462.29,-77"/>
</g>
<!-- Node25&#45;&gt;Node21 -->
<g id="edge44" class="edge">
<title>Node25&#45;&gt;Node21</title>
<path fill="none" stroke="midnightblue" d="M889.83,-246.48C903.62,-238.27 924.98,-225.56 942.92,-214.88"/>
<polygon fill="midnightblue" stroke="midnightblue" points="945.13,-217.64 951.93,-209.52 941.55,-211.63 945.13,-217.64"/>
</g>
<!-- Node26 -->
<g id="node26" class="node">
<title>Node26</title>
<g id="a_node26"><a target="_blank" xlink:href="https://en.cppreference.com/w/cpp/header/iterator.html" xlink:title=" ">
<polygon fill="white" stroke="black" points="846,-185 846,-204 899,-204 899,-185 846,-185"/>
<text text-anchor="middle" x="872.5" y="-192" font-family="Helvetica,sans-Serif" font-size="10.00">iterator</text>
</a>
</g>
</g>
<!-- Node25&#45;&gt;Node26 -->
<g id="edge40" class="edge">
<title>Node25&#45;&gt;Node26</title>
<path fill="none" stroke="midnightblue" d="M875.07,-246.48C874.65,-238.08 873.99,-224.98 873.44,-214.16"/>
<polygon fill="midnightblue" stroke="midnightblue" points="876.93,-213.82 872.93,-204.01 869.94,-214.17 876.93,-213.82"/>
</g>
</g>
</svg>
        <g id="navigator" transform="translate(0 0)" fill="#404254">
                <rect fill="#f2f5e9" fill-opacity="0.5" stroke="#606060" stroke-width=".5" x="0" y="0" width="60" height="60"/>
                <use id="zoomplus" xlink:href="#zoomPlus" x="17" y="9" onmousedown="handleZoom(evt,'in')"/>
                <use id="zoomminus" xlink:href="#zoomMin" x="42" y="9" onmousedown="handleZoom(evt,'out')"/>
                <use id="reset" xlink:href="#resetDef" x="30" y="36" onmousedown="handleReset()"/>
                <g id="arrowUp" xlink:href="#dirArrow" transform="translate(30 24)" onmousedown="handlePan(0,-1)">
                  <use xlink:href="#rim" fill="#404040">
                        <set attributeName="fill" to="#808080" begin="arrowUp.mouseover" end="arrowUp.mouseout"/>
                  </use>
                  <path fill="none" stroke="white" stroke-width="1.5" d="M0,-3.0v7 M-2.5,-0.5L0,-3.0L2.5,-0.5"/>
                </g>
                <g id="arrowRight" xlink:href="#dirArrow" transform="rotate(90) translate(36 -43)" onmousedown="handlePan(1,0)">
                  <use xlink:href="#rim" fill="#404040">
                        <set attributeName="fill" to="#808080" begin="arrowRight.mouseover" end="arrowRight.mouseout"/>
                  </use>
                  <path fill="none" stroke="white" stroke-width="1.5" d="M0,-3.0v7 M-2.5,-0.5L0,-3.0L2.5,-0.5"/>
                </g>
                <g id="arrowDown" xlink:href="#dirArrow" transform="rotate(180) translate(-30 -48)" onmousedown="handlePan(0,1)">
                  <use xlink:href="#rim" fill="#404040">
                        <set attributeName="fill" to="#808080" begin="arrowDown.mouseover" end="arrowDown.mouseout"/>
                  </use>
                  <path fill="none" stroke="white" stroke-width="1.5" d="M0,-3.0v7 M-2.5,-0.5L0,-3.0L2.5,-0.5"/>
                </g>
                <g id="arrowLeft" xlink:href="#dirArrow" transform="rotate(270) translate(-36 17)" onmousedown="handlePan(-1,0)">
                  <use xlink:href="#rim" fill="#404040">
                        <set attributeName="fill" to="#808080" begin="arrowLeft.mouseover" end="arrowLeft.mouseout"/>
                  </use>
                  <path fill="none" stroke="white" stroke-width="1.5" d="M0,-3.0v7 M-2.5,-0.5L0,-3.0L2.5,-0.5"/>
                </g>
        </g>
        <svg viewBox="0 0 15 15" width="100%" height="30px" preserveAspectRatio="xMaxYMin meet">
         <g id="arrow_out" transform="scale(0.3 0.3)">
          <a xlink:href="complement_8hpp__incl_org.svg" target="_base">
           <rect id="button" ry="5" rx="5" y="6" x="6" height="38" width="38"
                fill="#f2f5e9" fill-opacity="0.5" stroke="#606060" stroke-width="1.0"/>
           <path id="arrow"
             d="M 11.500037,31.436501 C 11.940474,20.09759 22.043105,11.32322 32.158766,21.979434 L 37.068811,17.246167 C 37.068811,17.246167 37.088388,32 37.088388,32 L 22.160133,31.978069 C 22.160133,31.978069 26.997745,27.140456 26.997745,27.140456 C 18.528582,18.264221 13.291696,25.230495 11.500037,31.436501 z"
             style="fill:#404040;"/>
          </a>
         </g>
        </svg>
</svg>
