<?xml version="1.0" encoding="UTF-8" standalone="no"?>
<!DOCTYPE svg PUBLIC "-//W3C//DTD SVG 1.1//EN"
 "http://www.w3.org/Graphics/SVG/1.1/DTD/svg11.dtd">
<!-- Generated by graphviz version 2.42.2 ()
 -->
<!-- Title: bio/ranges/views/complement.hpp Pages: 1 -->
<!--zoomable 397 -->
<svg id="main" version="1.1" xmlns="http://www.w3.org/2000/svg" xmlns:xlink="http://www.w3.org/1999/xlink" xml:space="preserve" onload="init(evt)">
<style type="text/css"><![CDATA[
.edge:hover path { stroke: red; }
.edge:hover polygon { stroke: red; fill: red; }
]]></style>
<script type="text/javascript"><![CDATA[
var edges = document.getElementsByTagName('g');
if (edges && edges.length) {
  for (var i=0;i<edges.length;i++) {
    if (edges[i].id.substr(0,4)=='edge') {
      edges[i].setAttribute('class','edge');
    }
  }
}
]]></script>
        <defs>
                <circle id="rim" cx="0" cy="0" r="7"/>
                <circle id="rim2" cx="0" cy="0" r="3.5"/>
                <g id="zoomPlus">
                        <use xlink:href="#rim" fill="#404040">
                                <set attributeName="fill" to="#808080" begin="zoomplus.mouseover" end="zoomplus.mouseout"/>
                        </use>
                        <path d="M-4,0h8M0,-4v8" fill="none" stroke="white" stroke-width="1.5" pointer-events="none"/>
                </g>
                <g id="zoomMin">
                        <use xlink:href="#rim" fill="#404040">
                                <set attributeName="fill" to="#808080" begin="zoomminus.mouseover" end="zoomminus.mouseout"/>
                        </use>
                        <path d="M-4,0h8" fill="none" stroke="white" stroke-width="1.5" pointer-events="none"/>
                </g>
                <g id="dirArrow">
                        <path fill="none" stroke="white" stroke-width="1.5" d="M0,-3.0v7 M-2.5,-0.5L0,-3.0L2.5,-0.5"/>
                </g>
               <g id="resetDef">
                       <use xlink:href="#rim2" fill="#404040">
                               <set attributeName="fill" to="#808080" begin="reset.mouseover" end="reset.mouseout"/>
                       </use>
               </g>
        </defs>

<script type="text/javascript">
var viewWidth = 1259;
var viewHeight = 397;
var sectionId = 'dynsection-0';
</script>
<script xlink:href="svgpan.js"/>
<svg id="graph" class="graph">
<g id="viewport">
<title>bio/ranges/views/complement.hpp</title>
<polygon fill="white" stroke="transparent" points="-4,4 -4,-393 1254.69,-393 1254.69,4 -4,4"/>
<!-- Node1 -->
<g id="node1" class="node">
<title>Node1</title>
<g id="a_node1"><a xlink:title="Provides bio::views::complement.">
<polygon fill="#bfbfbf" stroke="black" points="1069,-369.5 1069,-388.5 1234,-388.5 1234,-369.5 1069,-369.5"/>
<text text-anchor="middle" x="1151.5" y="-376.5" font-family="Helvetica,sans-Serif" font-size="10.00">bio/ranges/views/complement.hpp</text>
</a>
</g>
</g>
<!-- Node2 -->
<g id="node2" class="node">
<title>Node2</title>
<g id="a_node2"><a xlink:href="alphabet_2nucleotide_2concept_8hpp.html" target="_top" xlink:title="Provides bio::alphabet::nucleotide_alphabet.">
<polygon fill="white" stroke="black" points="383.5,-302.5 383.5,-332.5 499.5,-332.5 499.5,-302.5 383.5,-302.5"/>
<text text-anchor="start" x="391.5" y="-320.5" font-family="Helvetica,sans-Serif" font-size="10.00">bio/alphabet/nucleotide</text>
<text text-anchor="middle" x="441.5" y="-309.5" font-family="Helvetica,sans-Serif" font-size="10.00">/concept.hpp</text>
</a>
</g>
</g>
<!-- Node1&#45;&gt;Node2 -->
<g id="edge1" class="edge">
<title>Node1&#45;&gt;Node2</title>
<path fill="none" stroke="midnightblue" d="M1068.66,-371.06C927.09,-359.19 641.2,-335.24 510.06,-324.25"/>
<polygon fill="midnightblue" stroke="midnightblue" points="510.01,-320.73 499.75,-323.38 509.42,-327.7 510.01,-320.73"/>
</g>
<!-- Node22 -->
<g id="node22" class="node">
<title>Node22</title>
<g id="a_node22"><a xlink:href="deep_8hpp.html" target="_top" xlink:title="Provides bio::views::deep.">
<polygon fill="white" stroke="black" points="1085,-308 1085,-327 1218,-327 1218,-308 1085,-308"/>
<text text-anchor="middle" x="1151.5" y="-315" font-family="Helvetica,sans-Serif" font-size="10.00">bio/ranges/views/deep.hpp</text>
</a>
</g>
</g>
<!-- Node1&#45;&gt;Node22 -->
<g id="edge31" class="edge">
<title>Node1&#45;&gt;Node22</title>
<path fill="none" stroke="midnightblue" d="M1151.5,-369.48C1151.5,-361.08 1151.5,-347.98 1151.5,-337.16"/>
<polygon fill="midnightblue" stroke="midnightblue" points="1155,-337.01 1151.5,-327.01 1148,-337.01 1155,-337.01"/>
</g>
<!-- Node24 -->
<g id="node24" class="node">
<title>Node24</title>
<g id="a_node24"><a target="_blank" xlink:href="https://en.cppreference.com/w/cpp/header/ranges.html" xlink:title=" ">
<polygon fill="white" stroke="black" points="1193.5,-118 1193.5,-137 1239.5,-137 1239.5,-118 1193.5,-118"/>
<text text-anchor="middle" x="1216.5" y="-125" font-family="Helvetica,sans-Serif" font-size="10.00">ranges</text>
</a>
</g>
</g>
<!-- Node1&#45;&gt;Node24 -->
<g id="edge44" class="edge">
<title>Node1&#45;&gt;Node24</title>
<path fill="none" stroke="midnightblue" d="M1178.33,-369.45C1195.45,-362.49 1216.44,-350.86 1227.5,-333 1263.61,-274.72 1249.35,-246.35 1236.5,-179 1234.35,-167.71 1229.71,-155.72 1225.44,-146.26"/>
<polygon fill="midnightblue" stroke="midnightblue" points="1228.55,-144.65 1221.09,-137.13 1222.24,-147.67 1228.55,-144.65"/>
</g>
<!-- Node3 -->
<g id="node3" class="node">
<title>Node3</title>
<g id="a_node3"><a xlink:href="alphabet_2concept_8hpp.html" target="_top" xlink:title="Core alphabet concept and free function/type trait wrappers.">
<polygon fill="white" stroke="black" points="379,-246.5 379,-265.5 504,-265.5 504,-246.5 379,-246.5"/>
<text text-anchor="middle" x="441.5" y="-253.5" font-family="Helvetica,sans-Serif" font-size="10.00">bio/alphabet/concept.hpp</text>
</a>
</g>
</g>
<!-- Node2&#45;&gt;Node3 -->
<g id="edge2" class="edge">
<title>Node2&#45;&gt;Node3</title>
<path fill="none" stroke="midnightblue" d="M441.5,-302.4C441.5,-294.47 441.5,-284.46 441.5,-275.86"/>
<polygon fill="midnightblue" stroke="midnightblue" points="445,-275.66 441.5,-265.66 438,-275.66 445,-275.66"/>
</g>
<!-- Node11 -->
<g id="node11" class="node">
<title>Node11</title>
<g id="a_node11"><a target="_blank" xlink:href="https://en.cppreference.com/w/cpp/header/concepts.html" xlink:title=" ">
<polygon fill="white" stroke="black" points="205.5,-118 205.5,-137 261.5,-137 261.5,-118 205.5,-118"/>
<text text-anchor="middle" x="233.5" y="-125" font-family="Helvetica,sans-Serif" font-size="10.00">concepts</text>
</a>
</g>
</g>
<!-- Node2&#45;&gt;Node11 -->
<g id="edge30" class="edge">
<title>Node2&#45;&gt;Node11</title>
<path fill="none" stroke="midnightblue" d="M383.39,-305.75C331.66,-292.78 259.01,-265.38 224.5,-210 212.59,-190.89 218.83,-164.28 225.34,-146.74"/>
<polygon fill="midnightblue" stroke="midnightblue" points="228.73,-147.71 229.27,-137.13 222.25,-145.06 228.73,-147.71"/>
</g>
<!-- Node4 -->
<g id="node4" class="node">
<title>Node4</title>
<g id="a_node4"><a target="_blank" xlink:href="https://en.cppreference.com/w/cpp/header/type_traits.html" xlink:title=" ">
<polygon fill="white" stroke="black" points="798.5,-56.5 798.5,-75.5 860.5,-75.5 860.5,-56.5 798.5,-56.5"/>
<text text-anchor="middle" x="829.5" y="-63.5" font-family="Helvetica,sans-Serif" font-size="10.00">type_traits</text>
</a>
</g>
</g>
<!-- Node3&#45;&gt;Node4 -->
<g id="edge3" class="edge">
<title>Node3&#45;&gt;Node4</title>
<path fill="none" stroke="midnightblue" d="M495.35,-246.42C533.23,-239.33 584.6,-227.54 627.5,-210 681.19,-188.04 692.3,-176.71 739.5,-143 746.91,-137.71 787.53,-103.03 811.59,-82.39"/>
<polygon fill="midnightblue" stroke="midnightblue" points="814.02,-84.92 819.33,-75.75 809.47,-79.6 814.02,-84.92"/>
</g>
<!-- Node5 -->
<g id="node5" class="node">
<title>Node5</title>
<g id="a_node5"><a xlink:href="alphabet_2biocpp_8hpp.html" target="_top" xlink:title="Module header with module&#45;wide definitions.">
<polygon fill="white" stroke="black" points="68,-118 68,-137 187,-137 187,-118 68,-118"/>
<text text-anchor="middle" x="127.5" y="-125" font-family="Helvetica,sans-Serif" font-size="10.00">bio/alphabet/biocpp.hpp</text>
</a>
</g>
</g>
<!-- Node3&#45;&gt;Node5 -->
<g id="edge4" class="edge">
<title>Node3&#45;&gt;Node5</title>
<path fill="none" stroke="midnightblue" d="M378.54,-250.19C333.75,-244.84 273.14,-233.59 224.5,-210 191.06,-193.78 159.5,-163.46 141.91,-144.72"/>
<polygon fill="midnightblue" stroke="midnightblue" points="144.39,-142.25 135.06,-137.25 139.23,-146.98 144.39,-142.25"/>
</g>
<!-- Node10 -->
<g id="node10" class="node">
<title>Node10</title>
<g id="a_node10"><a xlink:href="exception_8hpp.html" target="_top" xlink:title="Exceptions thrown by entities in the alphabet module.">
<polygon fill="white" stroke="black" points="234,-185 234,-204 367,-204 367,-185 234,-185"/>
<text text-anchor="middle" x="300.5" y="-192" font-family="Helvetica,sans-Serif" font-size="10.00">bio/alphabet/exception.hpp</text>
</a>
</g>
</g>
<!-- Node3&#45;&gt;Node10 -->
<g id="edge9" class="edge">
<title>Node3&#45;&gt;Node10</title>
<path fill="none" stroke="midnightblue" d="M421.3,-246.48C397.43,-236.4 357.5,-219.55 330.13,-208"/>
<polygon fill="midnightblue" stroke="midnightblue" points="331.24,-204.67 320.66,-204.01 328.52,-211.12 331.24,-204.67"/>
</g>
<!-- Node14 -->
<g id="node14" class="node">
<title>Node14</title>
<g id="a_node14"><a xlink:href="core__language_8hpp.html" target="_top" xlink:title="Provides concepts for core language types and relations that don&#39;t have concepts in C++20 (yet).">
<polygon fill="white" stroke="black" points="385,-179.5 385,-209.5 498,-209.5 498,-179.5 385,-179.5"/>
<text text-anchor="start" x="393" y="-197.5" font-family="Helvetica,sans-Serif" font-size="10.00">bio/meta/concept/core</text>
<text text-anchor="middle" x="441.5" y="-186.5" font-family="Helvetica,sans-Serif" font-size="10.00">_language.hpp</text>
</a>
</g>
</g>
<!-- Node3&#45;&gt;Node14 -->
<g id="edge14" class="edge">
<title>Node3&#45;&gt;Node14</title>
<path fill="none" stroke="midnightblue" d="M441.5,-246.48C441.5,-239.47 441.5,-229.19 441.5,-219.7"/>
<polygon fill="midnightblue" stroke="midnightblue" points="445,-219.52 441.5,-209.52 438,-219.52 445,-219.52"/>
</g>
<!-- Node15 -->
<g id="node15" class="node">
<title>Node15</title>
<g id="a_node15"><a xlink:href="priority__tag_8hpp.html" target="_top" xlink:title="provides bio::meta::detail::priority_tag.">
<polygon fill="white" stroke="black" points="0,-179.5 0,-209.5 113,-209.5 113,-179.5 0,-179.5"/>
<text text-anchor="start" x="8" y="-197.5" font-family="Helvetica,sans-Serif" font-size="10.00">bio/meta/detail/priority</text>
<text text-anchor="middle" x="56.5" y="-186.5" font-family="Helvetica,sans-Serif" font-size="10.00">_tag.hpp</text>
</a>
</g>
</g>
<!-- Node3&#45;&gt;Node15 -->
<g id="edge18" class="edge">
<title>Node3&#45;&gt;Node15</title>
<path fill="none" stroke="midnightblue" d="M386.34,-246.48C316.93,-235.75 197.83,-217.34 123.33,-205.83"/>
<polygon fill="midnightblue" stroke="midnightblue" points="123.54,-202.32 113.13,-204.25 122.47,-209.24 123.54,-202.32"/>
</g>
<!-- Node16 -->
<g id="node16" class="node">
<title>Node16</title>
<g id="a_node16"><a xlink:href="type__inspection_8hpp.html" target="_top" xlink:title="Provides traits to inspect some information of a type, for example its name.">
<polygon fill="white" stroke="black" points="516.5,-179.5 516.5,-209.5 618.5,-209.5 618.5,-179.5 516.5,-179.5"/>
<text text-anchor="start" x="524.5" y="-197.5" font-family="Helvetica,sans-Serif" font-size="10.00">bio/meta/detail/type</text>
<text text-anchor="middle" x="567.5" y="-186.5" font-family="Helvetica,sans-Serif" font-size="10.00">_inspection.hpp</text>
</a>
</g>
</g>
<!-- Node3&#45;&gt;Node16 -->
<g id="edge20" class="edge">
<title>Node3&#45;&gt;Node16</title>
<path fill="none" stroke="midnightblue" d="M459.55,-246.48C477.49,-238 505.59,-224.74 528.61,-213.86"/>
<polygon fill="midnightblue" stroke="midnightblue" points="530.26,-216.96 537.8,-209.52 527.27,-210.63 530.26,-216.96"/>
</g>
<!-- Node20 -->
<g id="node20" class="node">
<title>Node20</title>
<g id="a_node20"><a xlink:href="basic_8hpp.html" target="_top" xlink:title="Provides various type traits on generic types.">
<polygon fill="white" stroke="black" points="917,-112.5 917,-142.5 1020,-142.5 1020,-112.5 917,-112.5"/>
<text text-anchor="start" x="925" y="-130.5" font-family="Helvetica,sans-Serif" font-size="10.00">bio/meta/type_traits</text>
<text text-anchor="middle" x="968.5" y="-119.5" font-family="Helvetica,sans-Serif" font-size="10.00">/basic.hpp</text>
</a>
</g>
</g>
<!-- Node3&#45;&gt;Node20 -->
<g id="edge26" class="edge">
<title>Node3&#45;&gt;Node20</title>
<path fill="none" stroke="midnightblue" d="M504.07,-251.33C571.35,-246.28 680.98,-234.8 772.5,-210 830.05,-194.41 893.14,-165.97 931.78,-147.15"/>
<polygon fill="midnightblue" stroke="midnightblue" points="933.64,-150.14 941.06,-142.59 930.55,-143.86 933.64,-150.14"/>
</g>
<!-- Node6 -->
<g id="node6" class="node">
<title>Node6</title>
<g id="a_node6"><a xlink:href="platform_8hpp.html" target="_top" xlink:title="Provides platform and dependency checks.">
<polygon fill="white" stroke="black" points="380,-56.5 380,-75.5 491,-75.5 491,-56.5 380,-56.5"/>
<text text-anchor="middle" x="435.5" y="-63.5" font-family="Helvetica,sans-Serif" font-size="10.00">bio/meta/platform.hpp</text>
</a>
</g>
</g>
<!-- Node5&#45;&gt;Node6 -->
<g id="edge5" class="edge">
<title>Node5&#45;&gt;Node6</title>
<path fill="none" stroke="midnightblue" d="M167.24,-118C176.81,-115.99 187.02,-113.89 196.5,-112 258.74,-99.6 330.29,-86.25 378.75,-77.34"/>
<polygon fill="midnightblue" stroke="midnightblue" points="379.53,-80.75 388.73,-75.51 378.26,-73.87 379.53,-80.75"/>
</g>
<!-- Node7 -->
<g id="node7" class="node">
<title>Node7</title>
<g id="a_node7"><a target="_blank" xlink:href="https://en.cppreference.com/w/cpp/header/cinttypes.html" xlink:title=" ">
<polygon fill="white" stroke="black" points="336.5,-0.5 336.5,-19.5 392.5,-19.5 392.5,-0.5 336.5,-0.5"/>
<text text-anchor="middle" x="364.5" y="-7.5" font-family="Helvetica,sans-Serif" font-size="10.00">cinttypes</text>
</a>
</g>
</g>
<!-- Node6&#45;&gt;Node7 -->
<g id="edge6" class="edge">
<title>Node6&#45;&gt;Node7</title>
<path fill="none" stroke="midnightblue" d="M424.09,-56.32C413.39,-48.18 397.16,-35.84 384.34,-26.09"/>
<polygon fill="midnightblue" stroke="midnightblue" points="386.19,-23.1 376.11,-19.83 381.96,-28.67 386.19,-23.1"/>
</g>
<!-- Node8 -->
<g id="node8" class="node">
<title>Node8</title>
<g id="a_node8"><a target="_blank" xlink:href="https://en.cppreference.com/w/cpp/header/ciso646.html" xlink:title=" ">
<polygon fill="white" stroke="black" points="410.5,-0.5 410.5,-19.5 460.5,-19.5 460.5,-0.5 410.5,-0.5"/>
<text text-anchor="middle" x="435.5" y="-7.5" font-family="Helvetica,sans-Serif" font-size="10.00">ciso646</text>
</a>
</g>
</g>
<!-- Node6&#45;&gt;Node8 -->
<g id="edge7" class="edge">
<title>Node6&#45;&gt;Node8</title>
<path fill="none" stroke="midnightblue" d="M435.5,-56.08C435.5,-49.01 435.5,-38.86 435.5,-29.99"/>
<polygon fill="midnightblue" stroke="midnightblue" points="439,-29.75 435.5,-19.75 432,-29.75 439,-29.75"/>
</g>
<!-- Node9 -->
<g id="node9" class="node">
<title>Node9</title>
<g id="a_node9"><a target="_blank" xlink:href="https://en.cppreference.com/w/cpp/header/cstddef.html" xlink:title=" ">
<polygon fill="white" stroke="black" points="479,-0.5 479,-19.5 528,-19.5 528,-0.5 479,-0.5"/>
<text text-anchor="middle" x="503.5" y="-7.5" font-family="Helvetica,sans-Serif" font-size="10.00">cstddef</text>
</a>
</g>
</g>
<!-- Node6&#45;&gt;Node9 -->
<g id="edge8" class="edge">
<title>Node6&#45;&gt;Node9</title>
<path fill="none" stroke="midnightblue" d="M446.43,-56.32C456.67,-48.18 472.22,-35.84 484.5,-26.09"/>
<polygon fill="midnightblue" stroke="midnightblue" points="486.72,-28.79 492.38,-19.83 482.37,-23.31 486.72,-28.79"/>
</g>
<!-- Node10&#45;&gt;Node5 -->
<g id="edge13" class="edge">
<title>Node10&#45;&gt;Node5</title>
<path fill="none" stroke="midnightblue" d="M277.53,-184.87C247.33,-173.52 194.1,-153.52 159.84,-140.65"/>
<polygon fill="midnightblue" stroke="midnightblue" points="160.88,-137.3 150.29,-137.06 158.42,-143.86 160.88,-137.3"/>
</g>
<!-- Node10&#45;&gt;Node11 -->
<g id="edge10" class="edge">
<title>Node10&#45;&gt;Node11</title>
<path fill="none" stroke="midnightblue" d="M291.46,-184.73C280.82,-174.4 262.92,-157.04 249.82,-144.33"/>
<polygon fill="midnightblue" stroke="midnightblue" points="252.01,-141.58 242.39,-137.13 247.13,-146.6 252.01,-141.58"/>
</g>
<!-- Node12 -->
<g id="node12" class="node">
<title>Node12</title>
<g id="a_node12"><a target="_blank" xlink:href="https://en.cppreference.com/w/cpp/header/stdexcept.html" xlink:title=" ">
<polygon fill="white" stroke="black" points="280,-118 280,-137 339,-137 339,-118 280,-118"/>
<text text-anchor="middle" x="309.5" y="-125" font-family="Helvetica,sans-Serif" font-size="10.00">stdexcept</text>
</a>
</g>
</g>
<!-- Node10&#45;&gt;Node12 -->
<g id="edge11" class="edge">
<title>Node10&#45;&gt;Node12</title>
<path fill="none" stroke="midnightblue" d="M301.71,-184.73C303.04,-175.18 305.19,-159.62 306.9,-147.28"/>
<polygon fill="midnightblue" stroke="midnightblue" points="310.4,-147.51 308.31,-137.13 303.47,-146.55 310.4,-147.51"/>
</g>
<!-- Node13 -->
<g id="node13" class="node">
<title>Node13</title>
<g id="a_node13"><a target="_blank" xlink:href="https://en.cppreference.com/w/cpp/header/string.html" xlink:title=" ">
<polygon fill="white" stroke="black" points="396,-118 396,-137 437,-137 437,-118 396,-118"/>
<text text-anchor="middle" x="416.5" y="-125" font-family="Helvetica,sans-Serif" font-size="10.00">string</text>
</a>
</g>
</g>
<!-- Node10&#45;&gt;Node13 -->
<g id="edge12" class="edge">
<title>Node10&#45;&gt;Node13</title>
<path fill="none" stroke="midnightblue" d="M316.14,-184.73C335.71,-173.77 369.42,-154.88 392.32,-142.05"/>
<polygon fill="midnightblue" stroke="midnightblue" points="394.09,-145.07 401.1,-137.13 390.67,-138.96 394.09,-145.07"/>
</g>
<!-- Node14&#45;&gt;Node4 -->
<g id="edge15" class="edge">
<title>Node14&#45;&gt;Node4</title>
<path fill="none" stroke="midnightblue" d="M451.1,-179.23C464.62,-160.4 491.15,-127.81 522.5,-112 568.23,-88.94 715.4,-75.31 788.09,-69.82"/>
<polygon fill="midnightblue" stroke="midnightblue" points="788.54,-73.3 798.25,-69.07 788.02,-66.32 788.54,-73.3"/>
</g>
<!-- Node14&#45;&gt;Node6 -->
<g id="edge16" class="edge">
<title>Node14&#45;&gt;Node6</title>
<path fill="none" stroke="midnightblue" d="M419.13,-179.35C407.33,-170.5 393.99,-157.95 387.5,-143 382.02,-130.36 382.02,-124.64 387.5,-112 392.77,-99.84 403.12,-89.46 412.86,-81.74"/>
<polygon fill="midnightblue" stroke="midnightblue" points="415.14,-84.41 421.13,-75.67 411,-78.77 415.14,-84.41"/>
</g>
<!-- Node14&#45;&gt;Node11 -->
<g id="edge17" class="edge">
<title>Node14&#45;&gt;Node11</title>
<path fill="none" stroke="midnightblue" d="M390.6,-179.47C356.66,-169.85 311.16,-156.44 271.5,-143 269.24,-142.24 266.92,-141.42 264.59,-140.58"/>
<polygon fill="midnightblue" stroke="midnightblue" points="265.69,-137.26 255.1,-137.07 263.26,-143.82 265.69,-137.26"/>
</g>
<!-- Node15&#45;&gt;Node6 -->
<g id="edge19" class="edge">
<title>Node15&#45;&gt;Node6</title>
<path fill="none" stroke="midnightblue" d="M51.88,-179.38C46.96,-161.32 41.93,-130.22 58.5,-112 79.03,-89.43 267.05,-75.97 369.56,-70.25"/>
<polygon fill="midnightblue" stroke="midnightblue" points="370.01,-73.73 379.81,-69.69 369.63,-66.74 370.01,-73.73"/>
</g>
<!-- Node16&#45;&gt;Node6 -->
<g id="edge25" class="edge">
<title>Node16&#45;&gt;Node6</title>
<path fill="none" stroke="midnightblue" d="M552.87,-179.48C528.05,-155.69 477.87,-107.6 451.9,-82.71"/>
<polygon fill="midnightblue" stroke="midnightblue" points="454.31,-80.18 444.67,-75.79 449.47,-85.23 454.31,-80.18"/>
</g>
<!-- Node16&#45;&gt;Node13 -->
<g id="edge23" class="edge">
<title>Node16&#45;&gt;Node13</title>
<path fill="none" stroke="midnightblue" d="M534.74,-179.4C508.24,-167.99 471.28,-152.08 445.77,-141.1"/>
<polygon fill="midnightblue" stroke="midnightblue" points="446.83,-137.75 436.26,-137.01 444.06,-144.18 446.83,-137.75"/>
</g>
<!-- Node17 -->
<g id="node17" class="node">
<title>Node17</title>
<g id="a_node17"><a target="_blank" xlink:href="https://en.cppreference.com/w/cpp/header/functional.html" xlink:title=" ">
<polygon fill="white" stroke="black" points="671,-118 671,-137 730,-137 730,-118 671,-118"/>
<text text-anchor="middle" x="700.5" y="-125" font-family="Helvetica,sans-Serif" font-size="10.00">functional</text>
</a>
</g>
</g>
<!-- Node16&#45;&gt;Node17 -->
<g id="edge21" class="edge">
<title>Node16&#45;&gt;Node17</title>
<path fill="none" stroke="midnightblue" d="M596.36,-179.4C619.39,-168.14 651.39,-152.5 673.82,-141.54"/>
<polygon fill="midnightblue" stroke="midnightblue" points="675.65,-144.54 683.09,-137.01 672.57,-138.25 675.65,-144.54"/>
</g>
<!-- Node18 -->
<g id="node18" class="node">
<title>Node18</title>
<g id="a_node18"><a target="_blank" xlink:href="https://en.cppreference.com/w/cpp/header/memory.html" xlink:title=" ">
<polygon fill="white" stroke="black" points="531.5,-118 531.5,-137 583.5,-137 583.5,-118 531.5,-118"/>
<text text-anchor="middle" x="557.5" y="-125" font-family="Helvetica,sans-Serif" font-size="10.00">memory</text>
</a>
</g>
</g>
<!-- Node16&#45;&gt;Node18 -->
<g id="edge22" class="edge">
<title>Node16&#45;&gt;Node18</title>
<path fill="none" stroke="midnightblue" d="M565.33,-179.4C563.88,-169.96 561.95,-157.45 560.38,-147.19"/>
<polygon fill="midnightblue" stroke="midnightblue" points="563.82,-146.55 558.84,-137.19 556.9,-147.61 563.82,-146.55"/>
</g>
<!-- Node19 -->
<g id="node19" class="node">
<title>Node19</title>
<g id="a_node19"><a target="_blank" xlink:href="https://en.cppreference.com/w/cpp/header/typeinfo.html" xlink:title=" ">
<polygon fill="white" stroke="black" points="602,-118 602,-137 653,-137 653,-118 602,-118"/>
<text text-anchor="middle" x="627.5" y="-125" font-family="Helvetica,sans-Serif" font-size="10.00">typeinfo</text>
</a>
</g>
</g>
<!-- Node16&#45;&gt;Node19 -->
<g id="edge24" class="edge">
<title>Node16&#45;&gt;Node19</title>
<path fill="none" stroke="midnightblue" d="M580.52,-179.4C589.97,-169.16 602.77,-155.3 612.62,-144.62"/>
<polygon fill="midnightblue" stroke="midnightblue" points="615.26,-146.92 619.47,-137.19 610.12,-142.17 615.26,-146.92"/>
</g>
<!-- Node20&#45;&gt;Node4 -->
<g id="edge28" class="edge">
<title>Node20&#45;&gt;Node4</title>
<path fill="none" stroke="midnightblue" d="M935.56,-112.4C912.34,-102.46 881.51,-89.26 859.08,-79.66"/>
<polygon fill="midnightblue" stroke="midnightblue" points="860.3,-76.38 849.73,-75.66 857.54,-82.81 860.3,-76.38"/>
</g>
<!-- Node20&#45;&gt;Node6 -->
<g id="edge29" class="edge">
<title>Node20&#45;&gt;Node6</title>
<path fill="none" stroke="midnightblue" d="M916.68,-113.67C913.59,-113.06 910.51,-112.5 907.5,-112 763.62,-88.16 592.82,-75.76 501.27,-70.39"/>
<polygon fill="midnightblue" stroke="midnightblue" points="501.23,-66.88 491.05,-69.8 500.83,-73.87 501.23,-66.88"/>
</g>
<!-- Node21 -->
<g id="node21" class="node">
<title>Node21</title>
<g id="a_node21"><a target="_blank" xlink:href="https://en.cppreference.com/w/cpp/header/tuple.html" xlink:title=" ">
<polygon fill="white" stroke="black" points="1041.5,-56.5 1041.5,-75.5 1079.5,-75.5 1079.5,-56.5 1041.5,-56.5"/>
<text text-anchor="middle" x="1060.5" y="-63.5" font-family="Helvetica,sans-Serif" font-size="10.00">tuple</text>
</a>
</g>
</g>
<!-- Node20&#45;&gt;Node21 -->
<g id="edge27" class="edge">
<title>Node20&#45;&gt;Node21</title>
<path fill="none" stroke="midnightblue" d="M990.3,-112.4C1004.91,-102.95 1024.07,-90.56 1038.68,-81.11"/>
<polygon fill="midnightblue" stroke="midnightblue" points="1040.62,-84.03 1047.11,-75.66 1036.82,-78.15 1040.62,-84.03"/>
</g>
<!-- Node23 -->
<g id="node23" class="node">
<title>Node23</title>
<g id="a_node23"><a xlink:href="ranges_2views_2detail_8hpp_source.html" target="_top" xlink:title=" ">
<polygon fill="white" stroke="black" points="1065,-246.5 1065,-265.5 1200,-265.5 1200,-246.5 1065,-246.5"/>
<text text-anchor="middle" x="1132.5" y="-253.5" font-family="Helvetica,sans-Serif" font-size="10.00">bio/ranges/views/detail.hpp</text>
</a>
</g>
</g>
<!-- Node22&#45;&gt;Node23 -->
<g id="edge32" class="edge">
<title>Node22&#45;&gt;Node23</title>
<path fill="none" stroke="midnightblue" d="M1148.78,-307.98C1146.07,-299.49 1141.83,-286.2 1138.35,-275.32"/>
<polygon fill="midnightblue" stroke="midnightblue" points="1141.59,-273.97 1135.22,-265.51 1134.93,-276.1 1141.59,-273.97"/>
</g>
<!-- Node22&#45;&gt;Node24 -->
<g id="edge43" class="edge">
<title>Node22&#45;&gt;Node24</title>
<path fill="none" stroke="midnightblue" d="M1166.97,-307.98C1180.85,-299.39 1200.39,-284.73 1209.5,-266 1228.34,-227.25 1224.12,-174.9 1219.97,-147.32"/>
<polygon fill="midnightblue" stroke="midnightblue" points="1223.37,-146.4 1218.27,-137.12 1216.47,-147.56 1223.37,-146.4"/>
</g>
<!-- Node23&#45;&gt;Node20 -->
<g id="edge35" class="edge">
<title>Node23&#45;&gt;Node20</title>
<path fill="none" stroke="midnightblue" d="M1064.99,-249.04C1037.09,-243.19 1006.63,-231.85 986.5,-210 972.28,-194.57 968.39,-170.53 967.69,-152.55"/>
<polygon fill="midnightblue" stroke="midnightblue" points="971.19,-152.49 967.6,-142.52 964.19,-152.55 971.19,-152.49"/>
</g>
<!-- Node23&#45;&gt;Node21 -->
<g id="edge34" class="edge">
<title>Node23&#45;&gt;Node21</title>
<path fill="none" stroke="midnightblue" d="M1135.35,-246.22C1142.44,-222.67 1158.55,-156.87 1133.5,-112 1124.06,-95.1 1105.38,-83.76 1089.28,-76.69"/>
<polygon fill="midnightblue" stroke="midnightblue" points="1090.28,-73.32 1079.7,-72.83 1087.66,-79.81 1090.28,-73.32"/>
</g>
<!-- Node23&#45;&gt;Node24 -->
<g id="edge33" class="edge">
<title>Node23&#45;&gt;Node24</title>
<path fill="none" stroke="midnightblue" d="M1139.53,-246.22C1146.6,-237.28 1157.67,-222.94 1166.5,-210 1181.2,-188.45 1196.7,-162.64 1206.47,-145.93"/>
<polygon fill="midnightblue" stroke="midnightblue" points="1209.52,-147.64 1211.51,-137.24 1203.47,-144.13 1209.52,-147.64"/>
</g>
<!-- Node25 -->
<g id="node25" class="node">
<title>Node25</title>
<g id="a_node25"><a xlink:href="type__traits_8hpp.html" target="_top" xlink:title="Provides various transformation traits used by the range module.">
<polygon fill="white" stroke="black" points="995,-185 995,-204 1124,-204 1124,-185 995,-185"/>
<text text-anchor="middle" x="1059.5" y="-192" font-family="Helvetica,sans-Serif" font-size="10.00">bio/ranges/type_traits.hpp</text>
</a>
</g>
</g>
<!-- Node23&#45;&gt;Node25 -->
<g id="edge36" class="edge">
<title>Node23&#45;&gt;Node25</title>
<path fill="none" stroke="midnightblue" d="M1122.04,-246.48C1110.55,-237.11 1091.87,-221.88 1077.91,-210.51"/>
<polygon fill="midnightblue" stroke="midnightblue" points="1079.9,-207.61 1069.94,-204.01 1075.48,-213.04 1079.9,-207.61"/>
</g>
<!-- Node25&#45;&gt;Node4 -->
<g id="edge39" class="edge">
<title>Node25&#45;&gt;Node4</title>
<path fill="none" stroke="midnightblue" d="M1058.94,-184.87C1057.38,-168.14 1051.5,-131.28 1029.5,-112 1006.21,-91.59 922.18,-78.13 870.74,-71.61"/>
<polygon fill="midnightblue" stroke="midnightblue" points="870.95,-68.11 860.6,-70.36 870.1,-75.06 870.95,-68.11"/>
</g>
<!-- Node25&#45;&gt;Node20 -->
<g id="edge40" class="edge">
<title>Node25&#45;&gt;Node20</title>
<path fill="none" stroke="midnightblue" d="M1047.23,-184.73C1034.34,-175.53 1013.63,-160.73 996.68,-148.63"/>
<polygon fill="midnightblue" stroke="midnightblue" points="998.4,-145.55 988.22,-142.59 994.33,-151.25 998.4,-145.55"/>
</g>
<!-- Node25&#45;&gt;Node24 -->
<g id="edge38" class="edge">
<title>Node25&#45;&gt;Node24</title>
<path fill="none" stroke="midnightblue" d="M1080.35,-184.87C1107.44,-173.65 1154.96,-153.98 1186.08,-141.09"/>
<polygon fill="midnightblue" stroke="midnightblue" points="1187.66,-144.23 1195.57,-137.17 1184.99,-137.76 1187.66,-144.23"/>
</g>
<!-- Node26 -->
<g id="node26" class="node">
<title>Node26</title>
<g id="a_node26"><a target="_blank" xlink:href="https://en.cppreference.com/w/cpp/header/iterator.html" xlink:title=" ">
<polygon fill="white" stroke="black" points="1077,-118 1077,-137 1124,-137 1124,-118 1077,-118"/>
<text text-anchor="middle" x="1100.5" y="-125" font-family="Helvetica,sans-Serif" font-size="10.00">iterator</text>
</a>
</g>
</g>
<!-- Node25&#45;&gt;Node26 -->
<g id="edge37" class="edge">
<title>Node25&#45;&gt;Node26</title>
<path fill="none" stroke="midnightblue" d="M1065.03,-184.73C1071.3,-174.79 1081.68,-158.34 1089.59,-145.79"/>
<polygon fill="midnightblue" stroke="midnightblue" points="1092.68,-147.45 1095.06,-137.13 1086.76,-143.72 1092.68,-147.45"/>
</g>
<!-- Node27 -->
<g id="node27" class="node">
<title>Node27</title>
<g id="a_node27"><a xlink:href="ranges_2biocpp_8hpp.html" target="_top" xlink:title="Module header with module&#45;wide definitions.">
<polygon fill="white" stroke="black" points="786.5,-118 786.5,-137 898.5,-137 898.5,-118 786.5,-118"/>
<text text-anchor="middle" x="842.5" y="-125" font-family="Helvetica,sans-Serif" font-size="10.00">bio/ranges/biocpp.hpp</text>
</a>
</g>
</g>
<!-- Node25&#45;&gt;Node27 -->
<g id="edge41" class="edge">
<title>Node25&#45;&gt;Node27</title>
<path fill="none" stroke="midnightblue" d="M1030.68,-184.87C992.15,-173.33 923.74,-152.84 880.88,-140"/>
<polygon fill="midnightblue" stroke="midnightblue" points="881.67,-136.58 871.09,-137.06 879.66,-143.29 881.67,-136.58"/>
</g>
<!-- Node27&#45;&gt;Node6 -->
<g id="edge42" class="edge">
<title>Node27&#45;&gt;Node6</title>
<path fill="none" stroke="midnightblue" d="M786.34,-118.29C711.83,-107.4 580.54,-88.2 501.42,-76.64"/>
<polygon fill="midnightblue" stroke="midnightblue" points="501.49,-73.11 491.09,-75.13 500.48,-80.04 501.49,-73.11"/>
</g>
</g>
</svg>
        <g id="navigator" transform="translate(0 0)" fill="#404254">
                <rect fill="#f2f5e9" fill-opacity="0.5" stroke="#606060" stroke-width=".5" x="0" y="0" width="60" height="60"/>
                <use id="zoomplus" xlink:href="#zoomPlus" x="17" y="9" onmousedown="handleZoom(evt,'in')"/>
                <use id="zoomminus" xlink:href="#zoomMin" x="42" y="9" onmousedown="handleZoom(evt,'out')"/>
                <use id="reset" xlink:href="#resetDef" x="30" y="36" onmousedown="handleReset()"/>
                <g id="arrowUp" xlink:href="#dirArrow" transform="translate(30 24)" onmousedown="handlePan(0,-1)">
                  <use xlink:href="#rim" fill="#404040">
                        <set attributeName="fill" to="#808080" begin="arrowUp.mouseover" end="arrowUp.mouseout"/>
                  </use>
                  <path fill="none" stroke="white" stroke-width="1.5" d="M0,-3.0v7 M-2.5,-0.5L0,-3.0L2.5,-0.5"/>
                </g>
                <g id="arrowRight" xlink:href="#dirArrow" transform="rotate(90) translate(36 -43)" onmousedown="handlePan(1,0)">
                  <use xlink:href="#rim" fill="#404040">
                        <set attributeName="fill" to="#808080" begin="arrowRight.mouseover" end="arrowRight.mouseout"/>
                  </use>
                  <path fill="none" stroke="white" stroke-width="1.5" d="M0,-3.0v7 M-2.5,-0.5L0,-3.0L2.5,-0.5"/>
                </g>
                <g id="arrowDown" xlink:href="#dirArrow" transform="rotate(180) translate(-30 -48)" onmousedown="handlePan(0,1)">
                  <use xlink:href="#rim" fill="#404040">
                        <set attributeName="fill" to="#808080" begin="arrowDown.mouseover" end="arrowDown.mouseout"/>
                  </use>
                  <path fill="none" stroke="white" stroke-width="1.5" d="M0,-3.0v7 M-2.5,-0.5L0,-3.0L2.5,-0.5"/>
                </g>
                <g id="arrowLeft" xlink:href="#dirArrow" transform="rotate(270) translate(-36 17)" onmousedown="handlePan(-1,0)">
                  <use xlink:href="#rim" fill="#404040">
                        <set attributeName="fill" to="#808080" begin="arrowLeft.mouseover" end="arrowLeft.mouseout"/>
                  </use>
                  <path fill="none" stroke="white" stroke-width="1.5" d="M0,-3.0v7 M-2.5,-0.5L0,-3.0L2.5,-0.5"/>
                </g>
        </g>
        <svg viewBox="0 0 15 15" width="100%" height="30px" preserveAspectRatio="xMaxYMin meet">
         <g id="arrow_out" transform="scale(0.3 0.3)">
          <a xlink:href="complement_8hpp__incl_org.svg" target="_base">
           <rect id="button" ry="5" rx="5" y="6" x="6" height="38" width="38"
                fill="#f2f5e9" fill-opacity="0.5" stroke="#606060" stroke-width="1.0"/>
           <path id="arrow"
             d="M 11.500037,31.436501 C 11.940474,20.09759 22.043105,11.32322 32.158766,21.979434 L 37.068811,17.246167 C 37.068811,17.246167 37.088388,32 37.088388,32 L 22.160133,31.978069 C 22.160133,31.978069 26.997745,27.140456 26.997745,27.140456 C 18.528582,18.264221 13.291696,25.230495 11.500037,31.436501 z"
             style="fill:#404040;"/>
          </a>
         </g>
        </svg>
</svg>
