<?xml version="1.0" encoding="UTF-8" standalone="no"?>
<!DOCTYPE svg PUBLIC "-//W3C//DTD SVG 1.1//EN"
 "http://www.w3.org/Graphics/SVG/1.1/DTD/svg11.dtd">
<!-- Generated by graphviz version 2.43.0 (0)
 -->
<!-- Title: bio/meta/detail/debug_stream_range.hpp Pages: 1 -->
<svg width="1539pt" height="419pt"
 viewBox="0.00 0.00 1538.89 419.00" xmlns="http://www.w3.org/2000/svg" xmlns:xlink="http://www.w3.org/1999/xlink">
<g id="graph0" class="graph" transform="scale(1 1) rotate(0) translate(4 415)">
<title>bio/meta/detail/debug_stream_range.hpp</title>
<polygon fill="white" stroke="transparent" points="-4,4 -4,-415 1534.89,-415 1534.89,4 -4,4"/>
<!-- Node1 -->
<g id="node1" class="node">
<title>Node1</title>
<g id="a_node1"><a xlink:title="Provides bio::debug_stream and related types.">
<polygon fill="#bfbfbf" stroke="black" points="745.39,-380.5 745.39,-410.5 869.39,-410.5 869.39,-380.5 745.39,-380.5"/>
<text text-anchor="start" x="753.39" y="-398.5" font-family="Helvetica,sans-Serif" font-size="10.00">bio/meta/detail/debug</text>
<text text-anchor="middle" x="807.39" y="-387.5" font-family="Helvetica,sans-Serif" font-size="10.00">_stream_range.hpp</text>
</a>
</g>
</g>
<!-- Node2 -->
<g id="node2" class="node">
<title>Node2</title>
<g id="a_node2"><a target="_blank" xlink:href="https://en.cppreference.com/w/cpp/header/ranges.html" xlink:title=" ">
<polygon fill="white" stroke="black" points="901.39,-185 901.39,-204 951.39,-204 951.39,-185 901.39,-185"/>
<text text-anchor="middle" x="926.39" y="-192" font-family="Helvetica,sans-Serif" font-size="10.00">ranges</text>
</a>
</g>
</g>
<!-- Node1&#45;&gt;Node2 -->
<g id="edge1" class="edge">
<title>Node1&#45;&gt;Node2</title>
<path fill="none" stroke="midnightblue" d="M837.03,-380.47C852.27,-371.88 869.98,-359.55 881.39,-344 910.8,-303.93 921.2,-244.48 924.71,-214.4"/>
<polygon fill="midnightblue" stroke="midnightblue" points="928.23,-214.39 925.77,-204.09 921.26,-213.68 928.23,-214.39"/>
</g>
<!-- Node3 -->
<g id="node3" class="node">
<title>Node3</title>
<g id="a_node3"><a xlink:href="char_8hpp.html" target="_top" xlink:title="Provides alphabet adaptations for standard char types.">
<polygon fill="white" stroke="black" points="552.89,-313.5 552.89,-343.5 685.89,-343.5 685.89,-313.5 552.89,-313.5"/>
<text text-anchor="start" x="560.89" y="-331.5" font-family="Helvetica,sans-Serif" font-size="10.00">bio/alphabet/adaptation</text>
<text text-anchor="middle" x="619.39" y="-320.5" font-family="Helvetica,sans-Serif" font-size="10.00">/char.hpp</text>
</a>
</g>
</g>
<!-- Node1&#45;&gt;Node3 -->
<g id="edge2" class="edge">
<title>Node1&#45;&gt;Node3</title>
<path fill="none" stroke="midnightblue" d="M766.6,-380.4C738.15,-370.56 699.99,-357.37 669.66,-346.88"/>
<polygon fill="midnightblue" stroke="midnightblue" points="670.7,-343.54 660.11,-343.58 668.42,-350.15 670.7,-343.54"/>
</g>
<!-- Node4 -->
<g id="node4" class="node">
<title>Node4</title>
<g id="a_node4"><a xlink:href="alphabet_2concept_8hpp.html" target="_top" xlink:title="Core alphabet concept and free function/type trait wrappers.">
<polygon fill="white" stroke="black" points="549.39,-252 549.39,-271 689.39,-271 689.39,-252 549.39,-252"/>
<text text-anchor="middle" x="619.39" y="-259" font-family="Helvetica,sans-Serif" font-size="10.00">bio/alphabet/concept.hpp</text>
</a>
</g>
</g>
<!-- Node1&#45;&gt;Node4 -->
<g id="edge42" class="edge">
<title>Node1&#45;&gt;Node4</title>
<path fill="none" stroke="midnightblue" d="M785.73,-380.32C770.83,-370.42 750.67,-356.74 733.39,-344 715.57,-330.86 712.26,-326.08 694.39,-313 676.98,-300.25 656.65,-286.63 641.54,-276.75"/>
<polygon fill="midnightblue" stroke="midnightblue" points="643.18,-273.64 632.89,-271.13 639.37,-279.51 643.18,-273.64"/>
</g>
<!-- Node26 -->
<g id="node26" class="node">
<title>Node26</title>
<g id="a_node26"><a xlink:href="uint_8hpp.html" target="_top" xlink:title="Provides alphabet adaptations for standard uint types.">
<polygon fill="white" stroke="black" points="401.89,-313.5 401.89,-343.5 534.89,-343.5 534.89,-313.5 401.89,-313.5"/>
<text text-anchor="start" x="409.89" y="-331.5" font-family="Helvetica,sans-Serif" font-size="10.00">bio/alphabet/adaptation</text>
<text text-anchor="middle" x="468.39" y="-320.5" font-family="Helvetica,sans-Serif" font-size="10.00">/uint.hpp</text>
</a>
</g>
</g>
<!-- Node1&#45;&gt;Node26 -->
<g id="edge39" class="edge">
<title>Node1&#45;&gt;Node26</title>
<path fill="none" stroke="midnightblue" d="M745.25,-382.65C694.04,-372.87 619.24,-358.58 545.04,-344.31"/>
<polygon fill="midnightblue" stroke="midnightblue" points="545.53,-340.84 535.05,-342.39 544.21,-347.72 545.53,-340.84"/>
</g>
<!-- Node27 -->
<g id="node27" class="node">
<title>Node27</title>
<g id="a_node27"><a xlink:href="debug__stream__type_8hpp.html" target="_top" xlink:title="Provides bio::debug_stream and related types.">
<polygon fill="white" stroke="black" points="928.39,-313.5 928.39,-343.5 1052.39,-343.5 1052.39,-313.5 928.39,-313.5"/>
<text text-anchor="start" x="936.39" y="-331.5" font-family="Helvetica,sans-Serif" font-size="10.00">bio/meta/detail/debug</text>
<text text-anchor="middle" x="990.39" y="-320.5" font-family="Helvetica,sans-Serif" font-size="10.00">_stream_type.hpp</text>
</a>
</g>
</g>
<!-- Node1&#45;&gt;Node27 -->
<g id="edge43" class="edge">
<title>Node1&#45;&gt;Node27</title>
<path fill="none" stroke="midnightblue" d="M847.1,-380.4C874.68,-370.6 911.62,-357.48 941.08,-347.02"/>
<polygon fill="midnightblue" stroke="midnightblue" points="942.51,-350.22 950.76,-343.58 940.17,-343.63 942.51,-350.22"/>
</g>
<!-- Node31 -->
<g id="node31" class="node">
<title>Node31</title>
<g id="a_node31"><a xlink:href="range_8hpp.html" target="_top" xlink:title="Provides various transformation traits used by the range module.">
<polygon fill="white" stroke="black" points="1208.39,-246.5 1208.39,-276.5 1324.39,-276.5 1324.39,-246.5 1208.39,-246.5"/>
<text text-anchor="start" x="1216.39" y="-264.5" font-family="Helvetica,sans-Serif" font-size="10.00">bio/meta/type_traits</text>
<text text-anchor="middle" x="1266.39" y="-253.5" font-family="Helvetica,sans-Serif" font-size="10.00">/range.hpp</text>
</a>
</g>
</g>
<!-- Node1&#45;&gt;Node31 -->
<g id="edge48" class="edge">
<title>Node1&#45;&gt;Node31</title>
<path fill="none" stroke="midnightblue" d="M869.49,-385.4C921.39,-377.02 997.04,-363.02 1061.39,-344 1120.39,-326.57 1186.06,-298.93 1226.8,-280.75"/>
<polygon fill="midnightblue" stroke="midnightblue" points="1228.41,-283.86 1236.1,-276.57 1225.54,-277.48 1228.41,-283.86"/>
</g>
<!-- Node35 -->
<g id="node35" class="node">
<title>Node35</title>
<g id="a_node35"><a xlink:href="ranges_2concept_8hpp.html" target="_top" xlink:title="Additional non&#45;standard concepts for ranges.">
<polygon fill="white" stroke="black" points="742.39,-319 742.39,-338 872.39,-338 872.39,-319 742.39,-319"/>
<text text-anchor="middle" x="807.39" y="-326" font-family="Helvetica,sans-Serif" font-size="10.00">bio/ranges/concept.hpp</text>
</a>
</g>
</g>
<!-- Node1&#45;&gt;Node35 -->
<g id="edge61" class="edge">
<title>Node1&#45;&gt;Node35</title>
<path fill="none" stroke="midnightblue" d="M807.39,-380.4C807.39,-371.06 807.39,-358.71 807.39,-348.52"/>
<polygon fill="midnightblue" stroke="midnightblue" points="810.89,-348.19 807.39,-338.19 803.89,-348.19 810.89,-348.19"/>
</g>
<!-- Node3&#45;&gt;Node4 -->
<g id="edge3" class="edge">
<title>Node3&#45;&gt;Node4</title>
<path fill="none" stroke="midnightblue" d="M619.39,-313.4C619.39,-304.06 619.39,-291.71 619.39,-281.52"/>
<polygon fill="midnightblue" stroke="midnightblue" points="622.89,-281.19 619.39,-271.19 615.89,-281.19 622.89,-281.19"/>
</g>
<!-- Node24 -->
<g id="node24" class="node">
<title>Node24</title>
<g id="a_node24"><a xlink:href="int__types_8hpp.html" target="_top" xlink:title="Provides metaprogramming utilities for integer types.">
<polygon fill="white" stroke="black" points="201.89,-179.5 201.89,-209.5 308.89,-209.5 308.89,-179.5 201.89,-179.5"/>
<text text-anchor="start" x="209.89" y="-197.5" font-family="Helvetica,sans-Serif" font-size="10.00">bio/meta/detail/int</text>
<text text-anchor="middle" x="255.39" y="-186.5" font-family="Helvetica,sans-Serif" font-size="10.00">_types.hpp</text>
</a>
</g>
</g>
<!-- Node3&#45;&gt;Node24 -->
<g id="edge34" class="edge">
<title>Node3&#45;&gt;Node24</title>
<path fill="none" stroke="midnightblue" d="M580.78,-313.5C513.89,-289.24 376.63,-239.46 303.59,-212.98"/>
<polygon fill="midnightblue" stroke="midnightblue" points="304.75,-209.68 294.16,-209.56 302.36,-216.26 304.75,-209.68"/>
</g>
<!-- Node5 -->
<g id="node5" class="node">
<title>Node5</title>
<g id="a_node5"><a xlink:href="exception_8hpp.html" target="_top" xlink:title="Exceptions thrown by entities in the alphabet module.">
<polygon fill="white" stroke="black" points="34.89,-185 34.89,-204 183.89,-204 183.89,-185 34.89,-185"/>
<text text-anchor="middle" x="109.39" y="-192" font-family="Helvetica,sans-Serif" font-size="10.00">bio/alphabet/exception.hpp</text>
</a>
</g>
</g>
<!-- Node4&#45;&gt;Node5 -->
<g id="edge4" class="edge">
<title>Node4&#45;&gt;Node5</title>
<path fill="none" stroke="midnightblue" d="M549.34,-253.42C464.62,-244.57 317.77,-228.35 192.39,-210 183.67,-208.72 174.44,-207.24 165.45,-205.73"/>
<polygon fill="midnightblue" stroke="midnightblue" points="165.87,-202.25 155.42,-204.01 164.68,-209.15 165.87,-202.25"/>
</g>
<!-- Node14 -->
<g id="node14" class="node">
<title>Node14</title>
<g id="a_node14"><a xlink:href="cereal_8hpp.html" target="_top" xlink:title="Adaptions of concepts from the Cereal library.">
<polygon fill="white" stroke="black" points="689.89,-185 689.89,-204 844.89,-204 844.89,-185 689.89,-185"/>
<text text-anchor="middle" x="767.39" y="-192" font-family="Helvetica,sans-Serif" font-size="10.00">bio/meta/concept/cereal.hpp</text>
</a>
</g>
</g>
<!-- Node4&#45;&gt;Node14 -->
<g id="edge14" class="edge">
<title>Node4&#45;&gt;Node14</title>
<path fill="none" stroke="midnightblue" d="M639.05,-251.87C664.48,-240.7 709,-221.15 738.34,-208.26"/>
<polygon fill="midnightblue" stroke="midnightblue" points="739.91,-211.39 747.66,-204.17 737.1,-204.98 739.91,-211.39"/>
</g>
<!-- Node15 -->
<g id="node15" class="node">
<title>Node15</title>
<g id="a_node15"><a target="_blank" xlink:href="https://en.cppreference.com/w/cpp/header/type_traits.html" xlink:title=" ">
<polygon fill="white" stroke="black" points="838.89,-118 838.89,-137 907.89,-137 907.89,-118 838.89,-118"/>
<text text-anchor="middle" x="873.39" y="-125" font-family="Helvetica,sans-Serif" font-size="10.00">type_traits</text>
</a>
</g>
</g>
<!-- Node4&#45;&gt;Node15 -->
<g id="edge33" class="edge">
<title>Node4&#45;&gt;Node15</title>
<path fill="none" stroke="midnightblue" d="M689.43,-253.57C749.65,-246.19 830.34,-232.42 853.39,-210 870.18,-193.68 873.77,-165.75 874.12,-147.2"/>
<polygon fill="midnightblue" stroke="midnightblue" points="877.62,-147.02 874.01,-137.06 870.62,-147.1 877.62,-147.02"/>
</g>
<!-- Node16 -->
<g id="node16" class="node">
<title>Node16</title>
<g id="a_node16"><a xlink:href="core__language_8hpp.html" target="_top" xlink:title="Provides concepts for core language types and relations that don&#39;t have concepts in C++20 (yet).">
<polygon fill="white" stroke="black" points="546.89,-179.5 546.89,-209.5 671.89,-209.5 671.89,-179.5 546.89,-179.5"/>
<text text-anchor="start" x="554.89" y="-197.5" font-family="Helvetica,sans-Serif" font-size="10.00">bio/meta/concept/core</text>
<text text-anchor="middle" x="609.39" y="-186.5" font-family="Helvetica,sans-Serif" font-size="10.00">_language.hpp</text>
</a>
</g>
</g>
<!-- Node4&#45;&gt;Node16 -->
<g id="edge17" class="edge">
<title>Node4&#45;&gt;Node16</title>
<path fill="none" stroke="midnightblue" d="M618.05,-251.73C616.79,-243.54 614.84,-230.92 613.12,-219.71"/>
<polygon fill="midnightblue" stroke="midnightblue" points="616.54,-218.94 611.56,-209.59 609.62,-220 616.54,-218.94"/>
</g>
<!-- Node17 -->
<g id="node17" class="node">
<title>Node17</title>
<g id="a_node17"><a xlink:href="customisation__point_8hpp.html" target="_top" xlink:title="Helper utilities for defining customisation point objects.">
<polygon fill="white" stroke="black" points="365.89,-179.5 365.89,-209.5 528.89,-209.5 528.89,-179.5 365.89,-179.5"/>
<text text-anchor="start" x="373.89" y="-197.5" font-family="Helvetica,sans-Serif" font-size="10.00">bio/meta/detail/customisation</text>
<text text-anchor="middle" x="447.39" y="-186.5" font-family="Helvetica,sans-Serif" font-size="10.00">_point.hpp</text>
</a>
</g>
</g>
<!-- Node4&#45;&gt;Node17 -->
<g id="edge21" class="edge">
<title>Node4&#45;&gt;Node17</title>
<path fill="none" stroke="midnightblue" d="M596.55,-251.87C570.52,-242.03 527.28,-225.69 494.04,-213.13"/>
<polygon fill="midnightblue" stroke="midnightblue" points="495.11,-209.79 484.51,-209.53 492.63,-216.34 495.11,-209.79"/>
</g>
<!-- Node18 -->
<g id="node18" class="node">
<title>Node18</title>
<g id="a_node18"><a xlink:href="type__inspection_8hpp.html" target="_top" xlink:title="Provides traits to inspect some information of a type, for example its name.">
<polygon fill="white" stroke="black" points="397.39,-112.5 397.39,-142.5 513.39,-142.5 513.39,-112.5 397.39,-112.5"/>
<text text-anchor="start" x="405.39" y="-130.5" font-family="Helvetica,sans-Serif" font-size="10.00">bio/meta/detail/type</text>
<text text-anchor="middle" x="455.39" y="-119.5" font-family="Helvetica,sans-Serif" font-size="10.00">_inspection.hpp</text>
</a>
</g>
</g>
<!-- Node4&#45;&gt;Node18 -->
<g id="edge23" class="edge">
<title>Node4&#45;&gt;Node18</title>
<path fill="none" stroke="midnightblue" d="M551.61,-251.99C477.89,-242.05 368.81,-225.03 356.39,-210 335.59,-184.82 371.14,-161.74 405.29,-146.61"/>
<polygon fill="midnightblue" stroke="midnightblue" points="407,-149.69 414.84,-142.56 404.27,-143.25 407,-149.69"/>
</g>
<!-- Node22 -->
<g id="node22" class="node">
<title>Node22</title>
<g id="a_node22"><a xlink:href="basic_8hpp.html" target="_top" xlink:title="Provides various type traits on generic types.">
<polygon fill="white" stroke="black" points="1095.39,-179.5 1095.39,-209.5 1211.39,-209.5 1211.39,-179.5 1095.39,-179.5"/>
<text text-anchor="start" x="1103.39" y="-197.5" font-family="Helvetica,sans-Serif" font-size="10.00">bio/meta/type_traits</text>
<text text-anchor="middle" x="1153.39" y="-186.5" font-family="Helvetica,sans-Serif" font-size="10.00">/basic.hpp</text>
</a>
</g>
</g>
<!-- Node4&#45;&gt;Node22 -->
<g id="edge29" class="edge">
<title>Node4&#45;&gt;Node22</title>
<path fill="none" stroke="midnightblue" d="M689.67,-252.67C774.68,-243.09 922.12,-226.15 1048.39,-210 1060.3,-208.48 1072.96,-206.79 1085.21,-205.12"/>
<polygon fill="midnightblue" stroke="midnightblue" points="1085.95,-208.55 1095.38,-203.72 1085,-201.61 1085.95,-208.55"/>
</g>
<!-- Node6 -->
<g id="node6" class="node">
<title>Node6</title>
<g id="a_node6"><a target="_blank" xlink:href="https://en.cppreference.com/w/cpp/header/stdexcept.html" xlink:title=" ">
<polygon fill="white" stroke="black" points="173.89,-118 173.89,-137 238.89,-137 238.89,-118 173.89,-118"/>
<text text-anchor="middle" x="206.39" y="-125" font-family="Helvetica,sans-Serif" font-size="10.00">stdexcept</text>
</a>
</g>
</g>
<!-- Node5&#45;&gt;Node6 -->
<g id="edge5" class="edge">
<title>Node5&#45;&gt;Node6</title>
<path fill="none" stroke="midnightblue" d="M122.48,-184.73C138.55,-173.96 166.03,-155.55 185.14,-142.74"/>
<polygon fill="midnightblue" stroke="midnightblue" points="187.16,-145.6 193.52,-137.13 183.26,-139.79 187.16,-145.6"/>
</g>
<!-- Node7 -->
<g id="node7" class="node">
<title>Node7</title>
<g id="a_node7"><a target="_blank" xlink:href="https://en.cppreference.com/w/cpp/header/string.html" xlink:title=" ">
<polygon fill="white" stroke="black" points="63.39,-56.5 63.39,-75.5 107.39,-75.5 107.39,-56.5 63.39,-56.5"/>
<text text-anchor="middle" x="85.39" y="-63.5" font-family="Helvetica,sans-Serif" font-size="10.00">string</text>
</a>
</g>
</g>
<!-- Node5&#45;&gt;Node7 -->
<g id="edge6" class="edge">
<title>Node5&#45;&gt;Node7</title>
<path fill="none" stroke="midnightblue" d="M68.94,-185C46.05,-177.89 19.29,-165.2 5.39,-143 -1.92,-131.32 -1.56,-123.89 5.39,-112 15.75,-94.29 35.92,-83.01 53.42,-76.18"/>
<polygon fill="midnightblue" stroke="midnightblue" points="55.07,-79.3 63.31,-72.65 52.72,-72.71 55.07,-79.3"/>
</g>
<!-- Node8 -->
<g id="node8" class="node">
<title>Node8</title>
<g id="a_node8"><a xlink:href="pretty__print_8hpp.html" target="_top" xlink:title="Provides pretty printing for chars.">
<polygon fill="white" stroke="black" points="14.89,-112.5 14.89,-142.5 155.89,-142.5 155.89,-112.5 14.89,-112.5"/>
<text text-anchor="start" x="22.89" y="-130.5" font-family="Helvetica,sans-Serif" font-size="10.00">bio/meta/char_operations</text>
<text text-anchor="middle" x="85.39" y="-119.5" font-family="Helvetica,sans-Serif" font-size="10.00">/pretty_print.hpp</text>
</a>
</g>
</g>
<!-- Node5&#45;&gt;Node8 -->
<g id="edge7" class="edge">
<title>Node5&#45;&gt;Node8</title>
<path fill="none" stroke="midnightblue" d="M106.16,-184.73C103.07,-176.37 98.28,-163.4 94.08,-152.02"/>
<polygon fill="midnightblue" stroke="midnightblue" points="97.34,-150.76 90.6,-142.59 90.78,-153.18 97.34,-150.76"/>
</g>
<!-- Node13 -->
<g id="node13" class="node">
<title>Node13</title>
<g id="a_node13"><a target="_blank" xlink:href="https://en.cppreference.com/w/cpp/header/concepts.html" xlink:title=" ">
<polygon fill="white" stroke="black" points="319.39,-118 319.39,-137 379.39,-137 379.39,-118 319.39,-118"/>
<text text-anchor="middle" x="349.39" y="-125" font-family="Helvetica,sans-Serif" font-size="10.00">concepts</text>
</a>
</g>
</g>
<!-- Node5&#45;&gt;Node13 -->
<g id="edge13" class="edge">
<title>Node5&#45;&gt;Node13</title>
<path fill="none" stroke="midnightblue" d="M148.66,-184.98C189.43,-175.82 254.9,-160.23 310.39,-143 312.96,-142.2 315.6,-141.33 318.24,-140.43"/>
<polygon fill="midnightblue" stroke="midnightblue" points="319.44,-143.72 327.68,-137.06 317.08,-137.13 319.44,-143.72"/>
</g>
<!-- Node8&#45;&gt;Node7 -->
<g id="edge8" class="edge">
<title>Node8&#45;&gt;Node7</title>
<path fill="none" stroke="midnightblue" d="M85.39,-112.4C85.39,-104.47 85.39,-94.46 85.39,-85.86"/>
<polygon fill="midnightblue" stroke="midnightblue" points="88.89,-85.66 85.39,-75.66 81.89,-85.66 88.89,-85.66"/>
</g>
<!-- Node9 -->
<g id="node9" class="node">
<title>Node9</title>
<g id="a_node9"><a xlink:href="platform_8hpp.html" target="_top" xlink:title="Provides platform and dependency checks.">
<polygon fill="white" stroke="black" points="704.39,-56.5 704.39,-75.5 830.39,-75.5 830.39,-56.5 704.39,-56.5"/>
<text text-anchor="middle" x="767.39" y="-63.5" font-family="Helvetica,sans-Serif" font-size="10.00">bio/meta/platform.hpp</text>
</a>
</g>
</g>
<!-- Node8&#45;&gt;Node9 -->
<g id="edge9" class="edge">
<title>Node8&#45;&gt;Node9</title>
<path fill="none" stroke="midnightblue" d="M155.97,-113.16C158.81,-112.74 161.63,-112.36 164.39,-112 354.47,-87.54 580.09,-75.08 693.9,-69.95"/>
<polygon fill="midnightblue" stroke="midnightblue" points="694.4,-73.43 704.23,-69.49 694.09,-66.43 694.4,-73.43"/>
</g>
<!-- Node10 -->
<g id="node10" class="node">
<title>Node10</title>
<g id="a_node10"><a target="_blank" xlink:href="https://en.cppreference.com/w/cpp/header/cinttypes.html" xlink:title=" ">
<polygon fill="white" stroke="black" points="660.39,-0.5 660.39,-19.5 722.39,-19.5 722.39,-0.5 660.39,-0.5"/>
<text text-anchor="middle" x="691.39" y="-7.5" font-family="Helvetica,sans-Serif" font-size="10.00">cinttypes</text>
</a>
</g>
</g>
<!-- Node9&#45;&gt;Node10 -->
<g id="edge10" class="edge">
<title>Node9&#45;&gt;Node10</title>
<path fill="none" stroke="midnightblue" d="M755.18,-56.32C743.62,-48.11 726.02,-35.6 712.23,-25.81"/>
<polygon fill="midnightblue" stroke="midnightblue" points="714.01,-22.77 703.83,-19.83 709.95,-28.48 714.01,-22.77"/>
</g>
<!-- Node11 -->
<g id="node11" class="node">
<title>Node11</title>
<g id="a_node11"><a target="_blank" xlink:href="https://en.cppreference.com/w/cpp/header/ciso646.html" xlink:title=" ">
<polygon fill="white" stroke="black" points="740.39,-0.5 740.39,-19.5 794.39,-19.5 794.39,-0.5 740.39,-0.5"/>
<text text-anchor="middle" x="767.39" y="-7.5" font-family="Helvetica,sans-Serif" font-size="10.00">ciso646</text>
</a>
</g>
</g>
<!-- Node9&#45;&gt;Node11 -->
<g id="edge11" class="edge">
<title>Node9&#45;&gt;Node11</title>
<path fill="none" stroke="midnightblue" d="M767.39,-56.08C767.39,-49.01 767.39,-38.86 767.39,-29.99"/>
<polygon fill="midnightblue" stroke="midnightblue" points="770.89,-29.75 767.39,-19.75 763.89,-29.75 770.89,-29.75"/>
</g>
<!-- Node12 -->
<g id="node12" class="node">
<title>Node12</title>
<g id="a_node12"><a target="_blank" xlink:href="https://en.cppreference.com/w/cpp/header/cstddef.html" xlink:title=" ">
<polygon fill="white" stroke="black" points="812.89,-0.5 812.89,-19.5 865.89,-19.5 865.89,-0.5 812.89,-0.5"/>
<text text-anchor="middle" x="839.39" y="-7.5" font-family="Helvetica,sans-Serif" font-size="10.00">cstddef</text>
</a>
</g>
</g>
<!-- Node9&#45;&gt;Node12 -->
<g id="edge12" class="edge">
<title>Node9&#45;&gt;Node12</title>
<path fill="none" stroke="midnightblue" d="M778.96,-56.32C789.81,-48.18 806.28,-35.84 819.28,-26.09"/>
<polygon fill="midnightblue" stroke="midnightblue" points="821.72,-28.63 827.62,-19.83 817.52,-23.03 821.72,-28.63"/>
</g>
<!-- Node14&#45;&gt;Node9 -->
<g id="edge16" class="edge">
<title>Node14&#45;&gt;Node9</title>
<path fill="none" stroke="midnightblue" d="M767.39,-184.81C767.39,-164.49 767.39,-113.55 767.39,-85.78"/>
<polygon fill="midnightblue" stroke="midnightblue" points="770.89,-85.76 767.39,-75.76 763.89,-85.76 770.89,-85.76"/>
</g>
<!-- Node14&#45;&gt;Node15 -->
<g id="edge15" class="edge">
<title>Node14&#45;&gt;Node15</title>
<path fill="none" stroke="midnightblue" d="M781.69,-184.73C799.41,-173.87 829.83,-155.22 850.74,-142.39"/>
<polygon fill="midnightblue" stroke="midnightblue" points="852.63,-145.34 859.33,-137.13 848.97,-139.37 852.63,-145.34"/>
</g>
<!-- Node16&#45;&gt;Node9 -->
<g id="edge19" class="edge">
<title>Node16&#45;&gt;Node9</title>
<path fill="none" stroke="midnightblue" d="M626.91,-179.48C656.87,-155.49 717.72,-106.77 748.56,-82.08"/>
<polygon fill="midnightblue" stroke="midnightblue" points="750.8,-84.77 756.42,-75.79 746.42,-79.31 750.8,-84.77"/>
</g>
<!-- Node16&#45;&gt;Node13 -->
<g id="edge20" class="edge">
<title>Node16&#45;&gt;Node13</title>
<path fill="none" stroke="midnightblue" d="M546.72,-180.14C492.23,-168.35 417.57,-151.72 388.39,-143 385.82,-142.23 383.18,-141.38 380.53,-140.49"/>
<polygon fill="midnightblue" stroke="midnightblue" points="381.68,-137.18 371.09,-137.14 379.34,-143.78 381.68,-137.18"/>
</g>
<!-- Node16&#45;&gt;Node15 -->
<g id="edge18" class="edge">
<title>Node16&#45;&gt;Node15</title>
<path fill="none" stroke="midnightblue" d="M666.35,-179.48C715.01,-167.5 784.04,-150.5 828.77,-139.49"/>
<polygon fill="midnightblue" stroke="midnightblue" points="829.88,-142.82 838.76,-137.03 828.21,-136.02 829.88,-142.82"/>
</g>
<!-- Node17&#45;&gt;Node9 -->
<g id="edge22" class="edge">
<title>Node17&#45;&gt;Node9</title>
<path fill="none" stroke="midnightblue" d="M482.86,-179.48C545.91,-154.56 676.46,-102.95 736.26,-79.31"/>
<polygon fill="midnightblue" stroke="midnightblue" points="737.55,-82.56 745.56,-75.63 734.98,-76.05 737.55,-82.56"/>
</g>
<!-- Node18&#45;&gt;Node7 -->
<g id="edge26" class="edge">
<title>Node18&#45;&gt;Node7</title>
<path fill="none" stroke="midnightblue" d="M397.34,-113.69C394.32,-113.1 391.32,-112.53 388.39,-112 290.09,-94.08 172.87,-78.23 117.45,-71.06"/>
<polygon fill="midnightblue" stroke="midnightblue" points="117.89,-67.58 107.53,-69.78 117,-74.53 117.89,-67.58"/>
</g>
<!-- Node18&#45;&gt;Node9 -->
<g id="edge28" class="edge">
<title>Node18&#45;&gt;Node9</title>
<path fill="none" stroke="midnightblue" d="M513.71,-115.38C570.67,-104.52 656.68,-88.11 712.45,-77.48"/>
<polygon fill="midnightblue" stroke="midnightblue" points="713.33,-80.87 722.5,-75.56 712.02,-74 713.33,-80.87"/>
</g>
<!-- Node19 -->
<g id="node19" class="node">
<title>Node19</title>
<g id="a_node19"><a target="_blank" xlink:href="https://en.cppreference.com/w/cpp/header/functional.html" xlink:title=" ">
<polygon fill="white" stroke="black" points="342.89,-56.5 342.89,-75.5 407.89,-75.5 407.89,-56.5 342.89,-56.5"/>
<text text-anchor="middle" x="375.39" y="-63.5" font-family="Helvetica,sans-Serif" font-size="10.00">functional</text>
</a>
</g>
</g>
<!-- Node18&#45;&gt;Node19 -->
<g id="edge24" class="edge">
<title>Node18&#45;&gt;Node19</title>
<path fill="none" stroke="midnightblue" d="M436.44,-112.4C423.97,-103.13 407.7,-91.03 395.09,-81.65"/>
<polygon fill="midnightblue" stroke="midnightblue" points="397.15,-78.82 387.04,-75.66 392.97,-84.43 397.15,-78.82"/>
</g>
<!-- Node20 -->
<g id="node20" class="node">
<title>Node20</title>
<g id="a_node20"><a target="_blank" xlink:href="https://en.cppreference.com/w/cpp/header/memory.html" xlink:title=" ">
<polygon fill="white" stroke="black" points="426.39,-56.5 426.39,-75.5 484.39,-75.5 484.39,-56.5 426.39,-56.5"/>
<text text-anchor="middle" x="455.39" y="-63.5" font-family="Helvetica,sans-Serif" font-size="10.00">memory</text>
</a>
</g>
</g>
<!-- Node18&#45;&gt;Node20 -->
<g id="edge25" class="edge">
<title>Node18&#45;&gt;Node20</title>
<path fill="none" stroke="midnightblue" d="M455.39,-112.4C455.39,-104.47 455.39,-94.46 455.39,-85.86"/>
<polygon fill="midnightblue" stroke="midnightblue" points="458.89,-85.66 455.39,-75.66 451.89,-85.66 458.89,-85.66"/>
</g>
<!-- Node21 -->
<g id="node21" class="node">
<title>Node21</title>
<g id="a_node21"><a target="_blank" xlink:href="https://en.cppreference.com/w/cpp/header/typeinfo.html" xlink:title=" ">
<polygon fill="white" stroke="black" points="502.89,-56.5 502.89,-75.5 559.89,-75.5 559.89,-56.5 502.89,-56.5"/>
<text text-anchor="middle" x="531.39" y="-63.5" font-family="Helvetica,sans-Serif" font-size="10.00">typeinfo</text>
</a>
</g>
</g>
<!-- Node18&#45;&gt;Node21 -->
<g id="edge27" class="edge">
<title>Node18&#45;&gt;Node21</title>
<path fill="none" stroke="midnightblue" d="M473.41,-112.4C485.13,-103.22 500.41,-91.26 512.34,-81.92"/>
<polygon fill="midnightblue" stroke="midnightblue" points="514.62,-84.58 520.34,-75.66 510.3,-79.07 514.62,-84.58"/>
</g>
<!-- Node22&#45;&gt;Node9 -->
<g id="edge32" class="edge">
<title>Node22&#45;&gt;Node9</title>
<path fill="none" stroke="midnightblue" d="M1114.13,-179.49C1067.24,-162.87 986.37,-134.59 916.39,-112 879.31,-100.03 836.73,-87.27 806.61,-78.4"/>
<polygon fill="midnightblue" stroke="midnightblue" points="807.48,-75.01 796.9,-75.55 805.51,-81.73 807.48,-75.01"/>
</g>
<!-- Node22&#45;&gt;Node15 -->
<g id="edge31" class="edge">
<title>Node22&#45;&gt;Node15</title>
<path fill="none" stroke="midnightblue" d="M1095.38,-180.03C1042.59,-167.78 965.79,-149.95 917.76,-138.8"/>
<polygon fill="midnightblue" stroke="midnightblue" points="918.5,-135.38 907.96,-136.52 916.91,-142.2 918.5,-135.38"/>
</g>
<!-- Node23 -->
<g id="node23" class="node">
<title>Node23</title>
<g id="a_node23"><a target="_blank" xlink:href="https://en.cppreference.com/w/cpp/header/tuple.html" xlink:title=" ">
<polygon fill="white" stroke="black" points="1132.89,-118 1132.89,-137 1173.89,-137 1173.89,-118 1132.89,-118"/>
<text text-anchor="middle" x="1153.39" y="-125" font-family="Helvetica,sans-Serif" font-size="10.00">tuple</text>
</a>
</g>
</g>
<!-- Node22&#45;&gt;Node23 -->
<g id="edge30" class="edge">
<title>Node22&#45;&gt;Node23</title>
<path fill="none" stroke="midnightblue" d="M1153.39,-179.4C1153.39,-170.06 1153.39,-157.71 1153.39,-147.52"/>
<polygon fill="midnightblue" stroke="midnightblue" points="1156.89,-147.19 1153.39,-137.19 1149.89,-147.19 1156.89,-147.19"/>
</g>
<!-- Node24&#45;&gt;Node9 -->
<g id="edge38" class="edge">
<title>Node24&#45;&gt;Node9</title>
<path fill="none" stroke="midnightblue" d="M309.05,-185.57C375.36,-175.39 484.12,-157.32 522.39,-143 547.95,-133.44 550.05,-122.12 575.39,-112 615.97,-95.81 663.79,-84.58 701.56,-77.38"/>
<polygon fill="midnightblue" stroke="midnightblue" points="702.24,-80.82 711.44,-75.55 700.96,-73.94 702.24,-80.82"/>
</g>
<!-- Node24&#45;&gt;Node13 -->
<g id="edge35" class="edge">
<title>Node24&#45;&gt;Node13</title>
<path fill="none" stroke="midnightblue" d="M275.79,-179.4C291.41,-168.6 312.87,-153.76 328.59,-142.89"/>
<polygon fill="midnightblue" stroke="midnightblue" points="330.86,-145.57 337.09,-137.01 326.88,-139.82 330.86,-145.57"/>
</g>
<!-- Node24&#45;&gt;Node15 -->
<g id="edge37" class="edge">
<title>Node24&#45;&gt;Node15</title>
<path fill="none" stroke="midnightblue" d="M309.06,-185.34C324.34,-183.14 341.01,-180.86 356.39,-179 530.8,-157.97 739.12,-139.71 828.77,-132.17"/>
<polygon fill="midnightblue" stroke="midnightblue" points="829.18,-135.65 838.85,-131.33 828.59,-128.68 829.18,-135.65"/>
</g>
<!-- Node25 -->
<g id="node25" class="node">
<title>Node25</title>
<g id="a_node25"><a target="_blank" xlink:href="https://en.cppreference.com/w/cpp/header/limits.html" xlink:title=" ">
<polygon fill="white" stroke="black" points="257.39,-118 257.39,-137 301.39,-137 301.39,-118 257.39,-118"/>
<text text-anchor="middle" x="279.39" y="-125" font-family="Helvetica,sans-Serif" font-size="10.00">limits</text>
</a>
</g>
</g>
<!-- Node24&#45;&gt;Node25 -->
<g id="edge36" class="edge">
<title>Node24&#45;&gt;Node25</title>
<path fill="none" stroke="midnightblue" d="M260.6,-179.4C264.12,-169.86 268.8,-157.18 272.61,-146.86"/>
<polygon fill="midnightblue" stroke="midnightblue" points="276,-147.79 276.18,-137.19 269.44,-145.36 276,-147.79"/>
</g>
<!-- Node26&#45;&gt;Node4 -->
<g id="edge40" class="edge">
<title>Node26&#45;&gt;Node4</title>
<path fill="none" stroke="midnightblue" d="M501.16,-313.4C527.65,-301.99 564.62,-286.08 590.13,-275.1"/>
<polygon fill="midnightblue" stroke="midnightblue" points="591.83,-278.18 599.63,-271.01 589.06,-271.75 591.83,-278.18"/>
</g>
<!-- Node26&#45;&gt;Node24 -->
<g id="edge41" class="edge">
<title>Node26&#45;&gt;Node24</title>
<path fill="none" stroke="midnightblue" d="M445.6,-313.37C407.33,-289.65 330.09,-241.79 286.74,-214.92"/>
<polygon fill="midnightblue" stroke="midnightblue" points="288.37,-211.82 278.03,-209.52 284.68,-217.77 288.37,-211.82"/>
</g>
<!-- Node28 -->
<g id="node28" class="node">
<title>Node28</title>
<g id="a_node28"><a target="_blank" xlink:href="https://en.cppreference.com/w/cpp/header/iosfwd.html" xlink:title=" ">
<polygon fill="white" stroke="black" points="947.39,-252 947.39,-271 995.39,-271 995.39,-252 947.39,-252"/>
<text text-anchor="middle" x="971.39" y="-259" font-family="Helvetica,sans-Serif" font-size="10.00">iosfwd</text>
</a>
</g>
</g>
<!-- Node27&#45;&gt;Node28 -->
<g id="edge44" class="edge">
<title>Node27&#45;&gt;Node28</title>
<path fill="none" stroke="midnightblue" d="M986.27,-313.4C983.49,-303.86 979.78,-291.18 976.76,-280.86"/>
<polygon fill="midnightblue" stroke="midnightblue" points="980.1,-279.81 973.94,-271.19 973.38,-281.77 980.1,-279.81"/>
</g>
<!-- Node29 -->
<g id="node29" class="node">
<title>Node29</title>
<g id="a_node29"><a xlink:href="add__enum__bitwise__operators_8hpp.html" target="_top" xlink:title="Provides bio::add_enum_bitwise_operators.">
<polygon fill="white" stroke="black" points="1013.89,-246.5 1013.89,-276.5 1168.89,-276.5 1168.89,-246.5 1013.89,-246.5"/>
<text text-anchor="start" x="1021.89" y="-264.5" font-family="Helvetica,sans-Serif" font-size="10.00">bio/meta/add_enum_bitwise</text>
<text text-anchor="middle" x="1091.39" y="-253.5" font-family="Helvetica,sans-Serif" font-size="10.00">_operators.hpp</text>
</a>
</g>
</g>
<!-- Node27&#45;&gt;Node29 -->
<g id="edge45" class="edge">
<title>Node27&#45;&gt;Node29</title>
<path fill="none" stroke="midnightblue" d="M1012.31,-313.4C1026.47,-304.28 1045.11,-292.29 1060.73,-282.24"/>
<polygon fill="midnightblue" stroke="midnightblue" points="1063.01,-284.93 1069.52,-276.58 1059.22,-279.05 1063.01,-284.93"/>
</g>
<!-- Node29&#45;&gt;Node9 -->
<g id="edge47" class="edge">
<title>Node29&#45;&gt;Node9</title>
<path fill="none" stroke="midnightblue" d="M1169.06,-246.64C1189.06,-239.17 1208.33,-227.68 1220.39,-210 1243.57,-176.05 1184.61,-112.81 1183.39,-112 1128.88,-75.74 944.9,-68.23 840.79,-66.96"/>
<polygon fill="midnightblue" stroke="midnightblue" points="840.7,-63.46 830.67,-66.86 840.63,-70.46 840.7,-63.46"/>
</g>
<!-- Node30 -->
<g id="node30" class="node">
<title>Node30</title>
<g id="a_node30"><a xlink:title=" ">
<polygon fill="white" stroke="#bfbfbf" points="969.89,-185 969.89,-204 1038.89,-204 1038.89,-185 969.89,-185"/>
<text text-anchor="middle" x="1004.39" y="-192" font-family="Helvetica,sans-Serif" font-size="10.00">type_traits</text>
</a>
</g>
</g>
<!-- Node29&#45;&gt;Node30 -->
<g id="edge46" class="edge">
<title>Node29&#45;&gt;Node30</title>
<path fill="none" stroke="midnightblue" d="M1072.52,-246.4C1058.28,-235.76 1038.8,-221.2 1024.31,-210.38"/>
<polygon fill="midnightblue" stroke="midnightblue" points="1026.14,-207.38 1016.03,-204.19 1021.95,-212.98 1026.14,-207.38"/>
</g>
<!-- Node31&#45;&gt;Node2 -->
<g id="edge59" class="edge">
<title>Node31&#45;&gt;Node2</title>
<path fill="none" stroke="midnightblue" d="M1208.21,-250.91C1119.54,-236.29 960.77,-210.11 960.39,-210 958.24,-209.37 956.04,-208.65 953.85,-207.86"/>
<polygon fill="midnightblue" stroke="midnightblue" points="955.04,-204.57 944.45,-204.15 952.47,-211.08 955.04,-204.57"/>
</g>
<!-- Node31&#45;&gt;Node9 -->
<g id="edge50" class="edge">
<title>Node31&#45;&gt;Node9</title>
<path fill="none" stroke="midnightblue" d="M1265.59,-246.11C1263.03,-215.63 1252.41,-144.65 1208.39,-112 1179.57,-90.61 958.55,-76.5 840.77,-70.42"/>
<polygon fill="midnightblue" stroke="midnightblue" points="840.9,-66.92 830.74,-69.9 840.55,-73.91 840.9,-66.92"/>
</g>
<!-- Node31&#45;&gt;Node15 -->
<g id="edge49" class="edge">
<title>Node31&#45;&gt;Node15</title>
<path fill="none" stroke="midnightblue" d="M1208.2,-250.5C1171.79,-242.75 1124.71,-229.89 1086.39,-210 1067.05,-199.96 1067.81,-188.9 1048.39,-179 992.69,-150.6 971.99,-161.92 912.39,-143 909.84,-142.19 907.2,-141.31 904.56,-140.39"/>
<polygon fill="midnightblue" stroke="midnightblue" points="905.72,-137.09 895.13,-137.01 903.36,-143.68 905.72,-137.09"/>
</g>
<!-- Node31&#45;&gt;Node22 -->
<g id="edge53" class="edge">
<title>Node31&#45;&gt;Node22</title>
<path fill="none" stroke="midnightblue" d="M1241.88,-246.4C1225.73,-237.11 1204.4,-224.84 1186.73,-214.67"/>
<polygon fill="midnightblue" stroke="midnightblue" points="1188.28,-211.53 1177.87,-209.58 1184.79,-217.6 1188.28,-211.53"/>
</g>
<!-- Node32 -->
<g id="node32" class="node">
<title>Node32</title>
<g id="a_node32"><a xlink:href="pre_8hpp.html" target="_top" xlink:title="Provides various transformation trait base templates and shortcuts.">
<polygon fill="white" stroke="black" points="1305.39,-112.5 1305.39,-142.5 1421.39,-142.5 1421.39,-112.5 1305.39,-112.5"/>
<text text-anchor="start" x="1313.39" y="-130.5" font-family="Helvetica,sans-Serif" font-size="10.00">bio/meta/type_traits</text>
<text text-anchor="middle" x="1363.39" y="-119.5" font-family="Helvetica,sans-Serif" font-size="10.00">/pre.hpp</text>
</a>
</g>
</g>
<!-- Node31&#45;&gt;Node32 -->
<g id="edge51" class="edge">
<title>Node31&#45;&gt;Node32</title>
<path fill="none" stroke="midnightblue" d="M1276.78,-246.37C1293.62,-223.45 1327.04,-177.97 1347.09,-150.69"/>
<polygon fill="midnightblue" stroke="midnightblue" points="1349.99,-152.66 1353.09,-142.52 1344.35,-148.51 1349.99,-152.66"/>
</g>
<!-- Node33 -->
<g id="node33" class="node">
<title>Node33</title>
<g id="a_node33"><a xlink:href="iterator_8hpp.html" target="_top" xlink:title="Provides various transformation traits for use on iterators.">
<polygon fill="white" stroke="black" points="1343.39,-179.5 1343.39,-209.5 1459.39,-209.5 1459.39,-179.5 1343.39,-179.5"/>
<text text-anchor="start" x="1351.39" y="-197.5" font-family="Helvetica,sans-Serif" font-size="10.00">bio/meta/type_traits</text>
<text text-anchor="middle" x="1401.39" y="-186.5" font-family="Helvetica,sans-Serif" font-size="10.00">/iterator.hpp</text>
</a>
</g>
</g>
<!-- Node31&#45;&gt;Node33 -->
<g id="edge54" class="edge">
<title>Node31&#45;&gt;Node33</title>
<path fill="none" stroke="midnightblue" d="M1295.69,-246.4C1315.41,-236.9 1341.63,-224.28 1363.02,-213.98"/>
<polygon fill="midnightblue" stroke="midnightblue" points="1364.67,-217.07 1372.16,-209.58 1361.63,-210.76 1364.67,-217.07"/>
</g>
<!-- Node34 -->
<g id="node34" class="node">
<title>Node34</title>
<g id="a_node34"><a target="_blank" xlink:href="https://en.cppreference.com/w/cpp/header/iterator.html" xlink:title=" ">
<polygon fill="white" stroke="black" points="1477.89,-118 1477.89,-137 1530.89,-137 1530.89,-118 1477.89,-118"/>
<text text-anchor="middle" x="1504.39" y="-125" font-family="Helvetica,sans-Serif" font-size="10.00">iterator</text>
</a>
</g>
</g>
<!-- Node31&#45;&gt;Node34 -->
<g id="edge60" class="edge">
<title>Node31&#45;&gt;Node34</title>
<path fill="none" stroke="midnightblue" d="M1324.78,-259.29C1368.82,-255.48 1428.3,-243.76 1468.39,-210 1487.49,-193.92 1496.82,-165.71 1501.1,-147.07"/>
<polygon fill="midnightblue" stroke="midnightblue" points="1504.56,-147.62 1503.12,-137.12 1497.7,-146.23 1504.56,-147.62"/>
</g>
<!-- Node32&#45;&gt;Node9 -->
<g id="edge52" class="edge">
<title>Node32&#45;&gt;Node9</title>
<path fill="none" stroke="midnightblue" d="M1305.33,-114.22C1300.63,-113.4 1295.94,-112.65 1291.39,-112 1131.48,-89.11 942.32,-76.36 840.72,-70.68"/>
<polygon fill="midnightblue" stroke="midnightblue" points="840.75,-67.17 830.57,-70.11 840.36,-74.16 840.75,-67.17"/>
</g>
<!-- Node33&#45;&gt;Node9 -->
<g id="edge57" class="edge">
<title>Node33&#45;&gt;Node9</title>
<path fill="none" stroke="midnightblue" d="M1414.16,-179.34C1428.65,-161.53 1448.13,-130.98 1430.39,-112 1390.81,-69.63 1004.51,-66.06 840.47,-66.47"/>
<polygon fill="midnightblue" stroke="midnightblue" points="840.46,-62.97 830.47,-66.5 840.48,-69.97 840.46,-62.97"/>
</g>
<!-- Node33&#45;&gt;Node15 -->
<g id="edge56" class="edge">
<title>Node33&#45;&gt;Node15</title>
<path fill="none" stroke="midnightblue" d="M1343.38,-186.36C1237.25,-173.29 1013.99,-145.81 918.39,-134.04"/>
<polygon fill="midnightblue" stroke="midnightblue" points="918.54,-130.53 908.19,-132.78 917.69,-137.48 918.54,-130.53"/>
</g>
<!-- Node33&#45;&gt;Node32 -->
<g id="edge58" class="edge">
<title>Node33&#45;&gt;Node32</title>
<path fill="none" stroke="midnightblue" d="M1393.15,-179.4C1388.37,-171.22 1382.23,-160.73 1376.78,-151.39"/>
<polygon fill="midnightblue" stroke="midnightblue" points="1379.69,-149.44 1371.62,-142.58 1373.65,-152.98 1379.69,-149.44"/>
</g>
<!-- Node33&#45;&gt;Node34 -->
<g id="edge55" class="edge">
<title>Node33&#45;&gt;Node34</title>
<path fill="none" stroke="midnightblue" d="M1423.74,-179.4C1441.02,-168.5 1464.81,-153.48 1482.08,-142.58"/>
<polygon fill="midnightblue" stroke="midnightblue" points="1484.33,-145.3 1490.91,-137.01 1480.59,-139.38 1484.33,-145.3"/>
</g>
<!-- Node35&#45;&gt;Node2 -->
<g id="edge62" class="edge">
<title>Node35&#45;&gt;Node2</title>
<path fill="none" stroke="midnightblue" d="M815.2,-318.84C834.79,-297.11 886.26,-240.02 911.71,-211.79"/>
<polygon fill="midnightblue" stroke="midnightblue" points="914.62,-213.79 918.71,-204.02 909.42,-209.1 914.62,-213.79"/>
</g>
<!-- Node35&#45;&gt;Node4 -->
<g id="edge63" class="edge">
<title>Node35&#45;&gt;Node4</title>
<path fill="none" stroke="midnightblue" d="M782.43,-318.87C749.47,-307.47 691.28,-287.35 654.06,-274.49"/>
<polygon fill="midnightblue" stroke="midnightblue" points="654.76,-271.02 644.16,-271.06 652.47,-277.64 654.76,-271.02"/>
</g>
</g>
</svg>
