<?xml version="1.0" encoding="UTF-8" standalone="no"?>
<!DOCTYPE svg PUBLIC "-//W3C//DTD SVG 1.1//EN"
 "http://www.w3.org/Graphics/SVG/1.1/DTD/svg11.dtd">
<!-- Generated by graphviz version 2.43.0 (0)
 -->
<!-- Title: bio/meta/detail/debug_stream_type.hpp Pages: 1 -->
<svg width="309pt" height="218pt"
 viewBox="0.00 0.00 308.50 218.00" xmlns="http://www.w3.org/2000/svg" xmlns:xlink="http://www.w3.org/1999/xlink">
<g id="graph0" class="graph" transform="scale(1 1) rotate(0) translate(4 214)">
<title>bio/meta/detail/debug_stream_type.hpp</title>
<polygon fill="white" stroke="transparent" points="-4,4 -4,-214 304.5,-214 304.5,4 -4,4"/>
<!-- Node1 -->
<g id="node1" class="node">
<title>Node1</title>
<g id="a_node1"><a xlink:title="Provides bio::debug_stream and related types.">
<polygon fill="#bfbfbf" stroke="black" points="22,-179.5 22,-209.5 146,-209.5 146,-179.5 22,-179.5"/>
<text text-anchor="start" x="30" y="-197.5" font-family="Helvetica,sans-Serif" font-size="10.00">bio/meta/detail/debug</text>
<text text-anchor="middle" x="84" y="-186.5" font-family="Helvetica,sans-Serif" font-size="10.00">_stream_type.hpp</text>
</a>
</g>
</g>
<!-- Node2 -->
<g id="node2" class="node">
<title>Node2</title>
<g id="a_node2"><a target="_blank" xlink:href="https://en.cppreference.com/w/cpp/header/iosfwd.html" xlink:title=" ">
<polygon fill="white" stroke="black" points="0,-118 0,-137 48,-137 48,-118 0,-118"/>
<text text-anchor="middle" x="24" y="-125" font-family="Helvetica,sans-Serif" font-size="10.00">iosfwd</text>
</a>
</g>
</g>
<!-- Node1&#45;&gt;Node2 -->
<g id="edge1" class="edge">
<title>Node1&#45;&gt;Node2</title>
<path fill="none" stroke="midnightblue" d="M70.98,-179.4C61.53,-169.16 48.73,-155.3 38.88,-144.62"/>
<polygon fill="midnightblue" stroke="midnightblue" points="41.38,-142.17 32.03,-137.19 36.24,-146.92 41.38,-142.17"/>
</g>
<!-- Node3 -->
<g id="node3" class="node">
<title>Node3</title>
<g id="a_node3"><a xlink:href="add__enum__bitwise__operators_8hpp.html" target="_top" xlink:title="Provides bio::add_enum_bitwise_operators.">
<polygon fill="white" stroke="black" points="66.5,-112.5 66.5,-142.5 221.5,-142.5 221.5,-112.5 66.5,-112.5"/>
<text text-anchor="start" x="74.5" y="-130.5" font-family="Helvetica,sans-Serif" font-size="10.00">bio/meta/add_enum_bitwise</text>
<text text-anchor="middle" x="144" y="-119.5" font-family="Helvetica,sans-Serif" font-size="10.00">_operators.hpp</text>
</a>
</g>
</g>
<!-- Node1&#45;&gt;Node3 -->
<g id="edge2" class="edge">
<title>Node1&#45;&gt;Node3</title>
<path fill="none" stroke="midnightblue" d="M97.02,-179.4C104.96,-170.79 115.27,-159.63 124.2,-149.94"/>
<polygon fill="midnightblue" stroke="midnightblue" points="126.8,-152.3 131.01,-142.58 121.65,-147.55 126.8,-152.3"/>
</g>
<!-- Node4 -->
<g id="node4" class="node">
<title>Node4</title>
<g id="a_node4"><a xlink:title=" ">
<polygon fill="white" stroke="#bfbfbf" points="51.5,-56.5 51.5,-75.5 120.5,-75.5 120.5,-56.5 51.5,-56.5"/>
<text text-anchor="middle" x="86" y="-63.5" font-family="Helvetica,sans-Serif" font-size="10.00">type_traits</text>
</a>
</g>
</g>
<!-- Node3&#45;&gt;Node4 -->
<g id="edge3" class="edge">
<title>Node3&#45;&gt;Node4</title>
<path fill="none" stroke="midnightblue" d="M130.25,-112.4C121.65,-103.58 110.55,-92.18 101.61,-83.02"/>
<polygon fill="midnightblue" stroke="midnightblue" points="103.93,-80.38 94.44,-75.66 98.91,-85.26 103.93,-80.38"/>
</g>
<!-- Node5 -->
<g id="node5" class="node">
<title>Node5</title>
<g id="a_node5"><a xlink:href="platform_8hpp.html" target="_top" xlink:title="Provides platform and dependency checks.">
<polygon fill="white" stroke="black" points="139,-56.5 139,-75.5 265,-75.5 265,-56.5 139,-56.5"/>
<text text-anchor="middle" x="202" y="-63.5" font-family="Helvetica,sans-Serif" font-size="10.00">bio/meta/platform.hpp</text>
</a>
</g>
</g>
<!-- Node3&#45;&gt;Node5 -->
<g id="edge4" class="edge">
<title>Node3&#45;&gt;Node5</title>
<path fill="none" stroke="midnightblue" d="M157.75,-112.4C166.35,-103.58 177.45,-92.18 186.39,-83.02"/>
<polygon fill="midnightblue" stroke="midnightblue" points="189.09,-85.26 193.56,-75.66 184.07,-80.38 189.09,-85.26"/>
</g>
<!-- Node6 -->
<g id="node6" class="node">
<title>Node6</title>
<g id="a_node6"><a target="_blank" xlink:href="https://en.cppreference.com/w/cpp/header/cinttypes.html" xlink:title=" ">
<polygon fill="white" stroke="black" points="95,-0.5 95,-19.5 157,-19.5 157,-0.5 95,-0.5"/>
<text text-anchor="middle" x="126" y="-7.5" font-family="Helvetica,sans-Serif" font-size="10.00">cinttypes</text>
</a>
</g>
</g>
<!-- Node5&#45;&gt;Node6 -->
<g id="edge5" class="edge">
<title>Node5&#45;&gt;Node6</title>
<path fill="none" stroke="midnightblue" d="M189.79,-56.32C178.22,-48.11 160.62,-35.6 146.84,-25.81"/>
<polygon fill="midnightblue" stroke="midnightblue" points="148.61,-22.77 138.43,-19.83 144.56,-28.48 148.61,-22.77"/>
</g>
<!-- Node7 -->
<g id="node7" class="node">
<title>Node7</title>
<g id="a_node7"><a target="_blank" xlink:href="https://en.cppreference.com/w/cpp/header/ciso646.html" xlink:title=" ">
<polygon fill="white" stroke="black" points="175,-0.5 175,-19.5 229,-19.5 229,-0.5 175,-0.5"/>
<text text-anchor="middle" x="202" y="-7.5" font-family="Helvetica,sans-Serif" font-size="10.00">ciso646</text>
</a>
</g>
</g>
<!-- Node5&#45;&gt;Node7 -->
<g id="edge6" class="edge">
<title>Node5&#45;&gt;Node7</title>
<path fill="none" stroke="midnightblue" d="M202,-56.08C202,-49.01 202,-38.86 202,-29.99"/>
<polygon fill="midnightblue" stroke="midnightblue" points="205.5,-29.75 202,-19.75 198.5,-29.75 205.5,-29.75"/>
</g>
<!-- Node8 -->
<g id="node8" class="node">
<title>Node8</title>
<g id="a_node8"><a target="_blank" xlink:href="https://en.cppreference.com/w/cpp/header/cstddef.html" xlink:title=" ">
<polygon fill="white" stroke="black" points="247.5,-0.5 247.5,-19.5 300.5,-19.5 300.5,-0.5 247.5,-0.5"/>
<text text-anchor="middle" x="274" y="-7.5" font-family="Helvetica,sans-Serif" font-size="10.00">cstddef</text>
</a>
</g>
</g>
<!-- Node5&#45;&gt;Node8 -->
<g id="edge7" class="edge">
<title>Node5&#45;&gt;Node8</title>
<path fill="none" stroke="midnightblue" d="M213.57,-56.32C224.42,-48.18 240.88,-35.84 253.88,-26.09"/>
<polygon fill="midnightblue" stroke="midnightblue" points="256.32,-28.63 262.22,-19.83 252.12,-23.03 256.32,-28.63"/>
</g>
</g>
</svg>
