<?xml version="1.0" encoding="UTF-8" standalone="no"?>
<!DOCTYPE svg PUBLIC "-//W3C//DTD SVG 1.1//EN"
 "http://www.w3.org/Graphics/SVG/1.1/DTD/svg11.dtd">
<!-- Generated by graphviz version 2.43.0 (0)
 -->
<!-- Title: bio/meta/detail/debug_stream_variant.hpp Pages: 1 -->
<svg width="503pt" height="363pt"
 viewBox="0.00 0.00 502.50 363.00" xmlns="http://www.w3.org/2000/svg" xmlns:xlink="http://www.w3.org/1999/xlink">
<g id="graph0" class="graph" transform="scale(1 1) rotate(0) translate(4 359)">
<title>bio/meta/detail/debug_stream_variant.hpp</title>
<polygon fill="white" stroke="transparent" points="-4,4 -4,-359 498.5,-359 498.5,4 -4,4"/>
<!-- Node1 -->
<g id="node1" class="node">
<title>Node1</title>
<g id="a_node1"><a xlink:title="Provides bio::debug_stream and related types.">
<polygon fill="#bfbfbf" stroke="black" points="143.5,-324.5 143.5,-354.5 267.5,-354.5 267.5,-324.5 143.5,-324.5"/>
<text text-anchor="start" x="151.5" y="-342.5" font-family="Helvetica,sans-Serif" font-size="10.00">bio/meta/detail/debug</text>
<text text-anchor="middle" x="205.5" y="-331.5" font-family="Helvetica,sans-Serif" font-size="10.00">_stream_variant.hpp</text>
</a>
</g>
</g>
<!-- Node2 -->
<g id="node2" class="node">
<title>Node2</title>
<g id="a_node2"><a target="_blank" xlink:href="https://en.cppreference.com/w/cpp/header/variant.html" xlink:title=" ">
<polygon fill="white" stroke="black" points="29,-263 29,-282 80,-282 80,-263 29,-263"/>
<text text-anchor="middle" x="54.5" y="-270" font-family="Helvetica,sans-Serif" font-size="10.00">variant</text>
</a>
</g>
</g>
<!-- Node1&#45;&gt;Node2 -->
<g id="edge1" class="edge">
<title>Node1&#45;&gt;Node2</title>
<path fill="none" stroke="midnightblue" d="M172.74,-324.4C146.24,-312.99 109.28,-297.08 83.77,-286.1"/>
<polygon fill="midnightblue" stroke="midnightblue" points="84.83,-282.75 74.26,-282.01 82.06,-289.18 84.83,-282.75"/>
</g>
<!-- Node3 -->
<g id="node3" class="node">
<title>Node3</title>
<g id="a_node3"><a xlink:href="debug__stream__type_8hpp.html" target="_top" xlink:title="Provides bio::debug_stream and related types.">
<polygon fill="white" stroke="black" points="98.5,-257.5 98.5,-287.5 222.5,-287.5 222.5,-257.5 98.5,-257.5"/>
<text text-anchor="start" x="106.5" y="-275.5" font-family="Helvetica,sans-Serif" font-size="10.00">bio/meta/detail/debug</text>
<text text-anchor="middle" x="160.5" y="-264.5" font-family="Helvetica,sans-Serif" font-size="10.00">_stream_type.hpp</text>
</a>
</g>
</g>
<!-- Node1&#45;&gt;Node3 -->
<g id="edge2" class="edge">
<title>Node1&#45;&gt;Node3</title>
<path fill="none" stroke="midnightblue" d="M195.74,-324.4C189.96,-316.05 182.51,-305.29 175.95,-295.81"/>
<polygon fill="midnightblue" stroke="midnightblue" points="178.82,-293.81 170.25,-287.58 173.06,-297.79 178.82,-293.81"/>
</g>
<!-- Node11 -->
<g id="node11" class="node">
<title>Node11</title>
<g id="a_node11"><a xlink:href="basic_8hpp.html" target="_top" xlink:title="Provides various type traits on generic types.">
<polygon fill="white" stroke="black" points="192.5,-112.5 192.5,-142.5 308.5,-142.5 308.5,-112.5 192.5,-112.5"/>
<text text-anchor="start" x="200.5" y="-130.5" font-family="Helvetica,sans-Serif" font-size="10.00">bio/meta/type_traits</text>
<text text-anchor="middle" x="250.5" y="-119.5" font-family="Helvetica,sans-Serif" font-size="10.00">/basic.hpp</text>
</a>
</g>
</g>
<!-- Node1&#45;&gt;Node11 -->
<g id="edge10" class="edge">
<title>Node1&#45;&gt;Node11</title>
<path fill="none" stroke="midnightblue" d="M214.44,-324.5C220.27,-314.67 227.52,-301.01 231.5,-288 245.66,-241.72 249.36,-184.89 250.26,-153.08"/>
<polygon fill="midnightblue" stroke="midnightblue" points="253.77,-153 250.48,-142.93 246.77,-152.85 253.77,-153"/>
</g>
<!-- Node14 -->
<g id="node14" class="node">
<title>Node14</title>
<g id="a_node14"><a xlink:href="template__inspection_8hpp.html" target="_top" xlink:title="Provides bio::type_list and auxiliary type traits.">
<polygon fill="white" stroke="black" points="278.5,-257.5 278.5,-287.5 418.5,-287.5 418.5,-257.5 278.5,-257.5"/>
<text text-anchor="start" x="286.5" y="-275.5" font-family="Helvetica,sans-Serif" font-size="10.00">bio/meta/type_traits</text>
<text text-anchor="middle" x="348.5" y="-264.5" font-family="Helvetica,sans-Serif" font-size="10.00">/template_inspection.hpp</text>
</a>
</g>
</g>
<!-- Node1&#45;&gt;Node14 -->
<g id="edge14" class="edge">
<title>Node1&#45;&gt;Node14</title>
<path fill="none" stroke="midnightblue" d="M236.53,-324.4C257.52,-314.86 285.44,-302.16 308.15,-291.84"/>
<polygon fill="midnightblue" stroke="midnightblue" points="309.88,-294.9 317.53,-287.58 306.98,-288.53 309.88,-294.9"/>
</g>
<!-- Node4 -->
<g id="node4" class="node">
<title>Node4</title>
<g id="a_node4"><a target="_blank" xlink:href="https://en.cppreference.com/w/cpp/header/iosfwd.html" xlink:title=" ">
<polygon fill="white" stroke="black" points="173.5,-190.5 173.5,-209.5 221.5,-209.5 221.5,-190.5 173.5,-190.5"/>
<text text-anchor="middle" x="197.5" y="-197.5" font-family="Helvetica,sans-Serif" font-size="10.00">iosfwd</text>
</a>
</g>
</g>
<!-- Node3&#45;&gt;Node4 -->
<g id="edge3" class="edge">
<title>Node3&#45;&gt;Node4</title>
<path fill="none" stroke="midnightblue" d="M167.99,-257.23C173.79,-246.17 181.88,-230.77 188.12,-218.88"/>
<polygon fill="midnightblue" stroke="midnightblue" points="191.28,-220.37 192.83,-209.89 185.09,-217.12 191.28,-220.37"/>
</g>
<!-- Node5 -->
<g id="node5" class="node">
<title>Node5</title>
<g id="a_node5"><a xlink:href="add__enum__bitwise__operators_8hpp.html" target="_top" xlink:title="Provides bio::add_enum_bitwise_operators.">
<polygon fill="white" stroke="black" points="0,-185 0,-215 155,-215 155,-185 0,-185"/>
<text text-anchor="start" x="8" y="-203" font-family="Helvetica,sans-Serif" font-size="10.00">bio/meta/add_enum_bitwise</text>
<text text-anchor="middle" x="77.5" y="-192" font-family="Helvetica,sans-Serif" font-size="10.00">_operators.hpp</text>
</a>
</g>
</g>
<!-- Node3&#45;&gt;Node5 -->
<g id="edge4" class="edge">
<title>Node3&#45;&gt;Node5</title>
<path fill="none" stroke="midnightblue" d="M143.7,-257.23C131.7,-247.04 115.36,-233.16 101.92,-221.74"/>
<polygon fill="midnightblue" stroke="midnightblue" points="103.88,-218.81 93.99,-215 99.34,-224.15 103.88,-218.81"/>
</g>
<!-- Node6 -->
<g id="node6" class="node">
<title>Node6</title>
<g id="a_node6"><a xlink:title=" ">
<polygon fill="white" stroke="#bfbfbf" points="105,-118 105,-137 174,-137 174,-118 105,-118"/>
<text text-anchor="middle" x="139.5" y="-125" font-family="Helvetica,sans-Serif" font-size="10.00">type_traits</text>
</a>
</g>
</g>
<!-- Node5&#45;&gt;Node6 -->
<g id="edge5" class="edge">
<title>Node5&#45;&gt;Node6</title>
<path fill="none" stroke="midnightblue" d="M90.05,-184.73C100.17,-173.23 114.41,-157.03 125.02,-144.97"/>
<polygon fill="midnightblue" stroke="midnightblue" points="127.7,-147.21 131.68,-137.39 122.45,-142.59 127.7,-147.21"/>
</g>
<!-- Node7 -->
<g id="node7" class="node">
<title>Node7</title>
<g id="a_node7"><a xlink:href="platform_8hpp.html" target="_top" xlink:title="Provides platform and dependency checks.">
<polygon fill="white" stroke="black" points="196.5,-56.5 196.5,-75.5 322.5,-75.5 322.5,-56.5 196.5,-56.5"/>
<text text-anchor="middle" x="259.5" y="-63.5" font-family="Helvetica,sans-Serif" font-size="10.00">bio/meta/platform.hpp</text>
</a>
</g>
</g>
<!-- Node5&#45;&gt;Node7 -->
<g id="edge6" class="edge">
<title>Node5&#45;&gt;Node7</title>
<path fill="none" stroke="midnightblue" d="M76.25,-184.95C75.37,-165.88 76.82,-131.91 95.5,-112 109.42,-97.16 155.88,-85.26 195.82,-77.43"/>
<polygon fill="midnightblue" stroke="midnightblue" points="196.64,-80.84 205.81,-75.53 195.33,-73.96 196.64,-80.84"/>
</g>
<!-- Node8 -->
<g id="node8" class="node">
<title>Node8</title>
<g id="a_node8"><a target="_blank" xlink:href="https://en.cppreference.com/w/cpp/header/cinttypes.html" xlink:title=" ">
<polygon fill="white" stroke="black" points="152.5,-0.5 152.5,-19.5 214.5,-19.5 214.5,-0.5 152.5,-0.5"/>
<text text-anchor="middle" x="183.5" y="-7.5" font-family="Helvetica,sans-Serif" font-size="10.00">cinttypes</text>
</a>
</g>
</g>
<!-- Node7&#45;&gt;Node8 -->
<g id="edge7" class="edge">
<title>Node7&#45;&gt;Node8</title>
<path fill="none" stroke="midnightblue" d="M247.29,-56.32C235.72,-48.11 218.12,-35.6 204.34,-25.81"/>
<polygon fill="midnightblue" stroke="midnightblue" points="206.11,-22.77 195.93,-19.83 202.06,-28.48 206.11,-22.77"/>
</g>
<!-- Node9 -->
<g id="node9" class="node">
<title>Node9</title>
<g id="a_node9"><a target="_blank" xlink:href="https://en.cppreference.com/w/cpp/header/ciso646.html" xlink:title=" ">
<polygon fill="white" stroke="black" points="232.5,-0.5 232.5,-19.5 286.5,-19.5 286.5,-0.5 232.5,-0.5"/>
<text text-anchor="middle" x="259.5" y="-7.5" font-family="Helvetica,sans-Serif" font-size="10.00">ciso646</text>
</a>
</g>
</g>
<!-- Node7&#45;&gt;Node9 -->
<g id="edge8" class="edge">
<title>Node7&#45;&gt;Node9</title>
<path fill="none" stroke="midnightblue" d="M259.5,-56.08C259.5,-49.01 259.5,-38.86 259.5,-29.99"/>
<polygon fill="midnightblue" stroke="midnightblue" points="263,-29.75 259.5,-19.75 256,-29.75 263,-29.75"/>
</g>
<!-- Node10 -->
<g id="node10" class="node">
<title>Node10</title>
<g id="a_node10"><a target="_blank" xlink:href="https://en.cppreference.com/w/cpp/header/cstddef.html" xlink:title=" ">
<polygon fill="white" stroke="black" points="305,-0.5 305,-19.5 358,-19.5 358,-0.5 305,-0.5"/>
<text text-anchor="middle" x="331.5" y="-7.5" font-family="Helvetica,sans-Serif" font-size="10.00">cstddef</text>
</a>
</g>
</g>
<!-- Node7&#45;&gt;Node10 -->
<g id="edge9" class="edge">
<title>Node7&#45;&gt;Node10</title>
<path fill="none" stroke="midnightblue" d="M271.07,-56.32C281.92,-48.18 298.38,-35.84 311.38,-26.09"/>
<polygon fill="midnightblue" stroke="midnightblue" points="313.82,-28.63 319.72,-19.83 309.62,-23.03 313.82,-28.63"/>
</g>
<!-- Node11&#45;&gt;Node7 -->
<g id="edge13" class="edge">
<title>Node11&#45;&gt;Node7</title>
<path fill="none" stroke="midnightblue" d="M252.63,-112.4C253.85,-104.38 255.38,-94.23 256.69,-85.57"/>
<polygon fill="midnightblue" stroke="midnightblue" points="260.16,-86.07 258.19,-75.66 253.23,-85.02 260.16,-86.07"/>
</g>
<!-- Node12 -->
<g id="node12" class="node">
<title>Node12</title>
<g id="a_node12"><a target="_blank" xlink:href="https://en.cppreference.com/w/cpp/header/tuple.html" xlink:title=" ">
<polygon fill="white" stroke="black" points="137,-56.5 137,-75.5 178,-75.5 178,-56.5 137,-56.5"/>
<text text-anchor="middle" x="157.5" y="-63.5" font-family="Helvetica,sans-Serif" font-size="10.00">tuple</text>
</a>
</g>
</g>
<!-- Node11&#45;&gt;Node12 -->
<g id="edge11" class="edge">
<title>Node11&#45;&gt;Node12</title>
<path fill="none" stroke="midnightblue" d="M228.46,-112.4C213.69,-102.95 194.32,-90.56 179.55,-81.11"/>
<polygon fill="midnightblue" stroke="midnightblue" points="181.34,-78.1 171.03,-75.66 177.57,-84 181.34,-78.1"/>
</g>
<!-- Node13 -->
<g id="node13" class="node">
<title>Node13</title>
<g id="a_node13"><a target="_blank" xlink:href="https://en.cppreference.com/w/cpp/header/type_traits.html" xlink:title=" ">
<polygon fill="white" stroke="black" points="350,-56.5 350,-75.5 419,-75.5 419,-56.5 350,-56.5"/>
<text text-anchor="middle" x="384.5" y="-63.5" font-family="Helvetica,sans-Serif" font-size="10.00">type_traits</text>
</a>
</g>
</g>
<!-- Node11&#45;&gt;Node13 -->
<g id="edge12" class="edge">
<title>Node11&#45;&gt;Node13</title>
<path fill="none" stroke="midnightblue" d="M282.26,-112.4C304.54,-102.51 334.09,-89.38 355.69,-79.79"/>
<polygon fill="midnightblue" stroke="midnightblue" points="357.28,-82.91 365,-75.66 354.44,-76.52 357.28,-82.91"/>
</g>
<!-- Node15 -->
<g id="node15" class="node">
<title>Node15</title>
<g id="a_node15"><a xlink:href="transformation__trait__or_8hpp.html" target="_top" xlink:title="Provides bio::detail::transformation_trait_or.">
<polygon fill="white" stroke="black" points="376.5,-179.5 376.5,-220.5 494.5,-220.5 494.5,-179.5 376.5,-179.5"/>
<text text-anchor="start" x="384.5" y="-208.5" font-family="Helvetica,sans-Serif" font-size="10.00">bio/meta/type_traits</text>
<text text-anchor="start" x="384.5" y="-197.5" font-family="Helvetica,sans-Serif" font-size="10.00">/transformation_trait</text>
<text text-anchor="middle" x="435.5" y="-186.5" font-family="Helvetica,sans-Serif" font-size="10.00">_or.hpp</text>
</a>
</g>
</g>
<!-- Node14&#45;&gt;Node15 -->
<g id="edge15" class="edge">
<title>Node14&#45;&gt;Node15</title>
<path fill="none" stroke="midnightblue" d="M366.11,-257.23C376.78,-248.59 390.72,-237.29 403.3,-227.09"/>
<polygon fill="midnightblue" stroke="midnightblue" points="405.76,-229.6 411.33,-220.59 401.35,-224.17 405.76,-229.6"/>
</g>
<!-- Node17 -->
<g id="node17" class="node">
<title>Node17</title>
<g id="a_node17"><a target="_blank" xlink:href="https://en.cppreference.com/w/cpp/header/concepts.html" xlink:title=" ">
<polygon fill="white" stroke="black" points="298.5,-190.5 298.5,-209.5 358.5,-209.5 358.5,-190.5 298.5,-190.5"/>
<text text-anchor="middle" x="328.5" y="-197.5" font-family="Helvetica,sans-Serif" font-size="10.00">concepts</text>
</a>
</g>
</g>
<!-- Node14&#45;&gt;Node17 -->
<g id="edge20" class="edge">
<title>Node14&#45;&gt;Node17</title>
<path fill="none" stroke="midnightblue" d="M344.45,-257.23C341.38,-246.39 337.12,-231.38 333.78,-219.6"/>
<polygon fill="midnightblue" stroke="midnightblue" points="337.12,-218.56 331.02,-209.89 330.39,-220.47 337.12,-218.56"/>
</g>
<!-- Node15&#45;&gt;Node13 -->
<g id="edge16" class="edge">
<title>Node15&#45;&gt;Node13</title>
<path fill="none" stroke="midnightblue" d="M446.08,-179.22C454.36,-160.82 462.77,-133.14 451.5,-112 443.95,-97.83 429.74,-87.33 416.34,-80.06"/>
<polygon fill="midnightblue" stroke="midnightblue" points="417.8,-76.87 407.29,-75.53 414.67,-83.13 417.8,-76.87"/>
</g>
<!-- Node16 -->
<g id="node16" class="node">
<title>Node16</title>
<g id="a_node16"><a xlink:href="meta_2type__traits_2concept_8hpp.html" target="_top" xlink:title="Provides the concepts bio::transformation_trait and bio::unary_type_trait.">
<polygon fill="white" stroke="black" points="326.5,-112.5 326.5,-142.5 442.5,-142.5 442.5,-112.5 326.5,-112.5"/>
<text text-anchor="start" x="334.5" y="-130.5" font-family="Helvetica,sans-Serif" font-size="10.00">bio/meta/type_traits</text>
<text text-anchor="middle" x="384.5" y="-119.5" font-family="Helvetica,sans-Serif" font-size="10.00">/concept.hpp</text>
</a>
</g>
</g>
<!-- Node15&#45;&gt;Node16 -->
<g id="edge17" class="edge">
<title>Node15&#45;&gt;Node16</title>
<path fill="none" stroke="midnightblue" d="M421.29,-179.36C414.95,-170.59 407.44,-160.21 400.86,-151.12"/>
<polygon fill="midnightblue" stroke="midnightblue" points="403.61,-148.94 394.91,-142.89 397.94,-153.05 403.61,-148.94"/>
</g>
<!-- Node16&#45;&gt;Node7 -->
<g id="edge19" class="edge">
<title>Node16&#45;&gt;Node7</title>
<path fill="none" stroke="midnightblue" d="M354.88,-112.4C334.28,-102.59 307.02,-89.62 286.92,-80.05"/>
<polygon fill="midnightblue" stroke="midnightblue" points="288.22,-76.8 277.69,-75.66 285.21,-83.12 288.22,-76.8"/>
</g>
<!-- Node16&#45;&gt;Node13 -->
<g id="edge18" class="edge">
<title>Node16&#45;&gt;Node13</title>
<path fill="none" stroke="midnightblue" d="M384.5,-112.4C384.5,-104.47 384.5,-94.46 384.5,-85.86"/>
<polygon fill="midnightblue" stroke="midnightblue" points="388,-85.66 384.5,-75.66 381,-85.66 388,-85.66"/>
</g>
</g>
</svg>
