<?xml version="1.0" encoding="UTF-8" standalone="no"?>
<!DOCTYPE svg PUBLIC "-//W3C//DTD SVG 1.1//EN"
 "http://www.w3.org/Graphics/SVG/1.1/DTD/svg11.dtd">
<!-- Generated by graphviz version 2.43.0 (0)
 -->
<!-- Title: bio/meta/detail/debug_stream_type.hpp Pages: 1 -->
<svg width="738pt" height="240pt"
 viewBox="0.00 0.00 738.32 240.00" xmlns="http://www.w3.org/2000/svg" xmlns:xlink="http://www.w3.org/1999/xlink">
<g id="graph0" class="graph" transform="scale(1 1) rotate(0) translate(4 236)">
<title>bio/meta/detail/debug_stream_type.hpp</title>
<polygon fill="white" stroke="transparent" points="-4,4 -4,-236 734.32,-236 734.32,4 -4,4"/>
<!-- Node1 -->
<g id="node1" class="node">
<title>Node1</title>
<g id="a_node1"><a xlink:title="Provides bio::debug_stream and related types.">
<polygon fill="#bfbfbf" stroke="black" points="299.74,-201.5 299.74,-231.5 423.74,-231.5 423.74,-201.5 299.74,-201.5"/>
<text text-anchor="start" x="307.74" y="-219.5" font-family="Helvetica,sans-Serif" font-size="10.00">bio/meta/detail/debug</text>
<text text-anchor="middle" x="361.74" y="-208.5" font-family="Helvetica,sans-Serif" font-size="10.00">_stream_type.hpp</text>
</a>
</g>
</g>
<!-- Node2 -->
<g id="node2" class="node">
<title>Node2</title>
<g id="a_node2"><a xlink:href="debug__stream_8hpp.html" target="_top" xlink:title="Provides bio::debug_stream and related types.">
<polygon fill="white" stroke="black" points="205.74,-78.5 205.74,-97.5 359.74,-97.5 359.74,-78.5 205.74,-78.5"/>
<text text-anchor="middle" x="282.74" y="-85.5" font-family="Helvetica,sans-Serif" font-size="10.00">bio/meta/debug_stream.hpp</text>
</a>
</g>
</g>
<!-- Node1&#45;&gt;Node2 -->
<g id="edge1" class="edge">
<title>Node1&#45;&gt;Node2</title>
<path fill="none" stroke="midnightblue" d="M289.39,-215.9C196.39,-214.7 42.58,-206.3 6.74,-165 -2.29,-154.59 -2.18,-144.5 6.74,-134 31.86,-104.46 133.1,-94.26 205.68,-90.77"/>
<polygon fill="midnightblue" stroke="midnightblue" points="289.55,-219.4 299.58,-216.01 289.62,-212.4 289.55,-219.4"/>
</g>
<!-- Node4 -->
<g id="node4" class="node">
<title>Node4</title>
<g id="a_node4"><a xlink:href="meta_2detail_2all_8hpp.html" target="_top" xlink:title="Meta&#45;header for implementation details in the core module.">
<polygon fill="white" stroke="black" points="409.24,-78.5 409.24,-97.5 536.24,-97.5 536.24,-78.5 409.24,-78.5"/>
<text text-anchor="middle" x="472.74" y="-85.5" font-family="Helvetica,sans-Serif" font-size="10.00">bio/meta/detail/all.hpp</text>
</a>
</g>
</g>
<!-- Node1&#45;&gt;Node4 -->
<g id="edge3" class="edge">
<title>Node1&#45;&gt;Node4</title>
<path fill="none" stroke="midnightblue" d="M434.11,-215.97C527.59,-214.85 682.64,-206.57 718.74,-165 772.01,-103.66 625.65,-91.11 536.26,-88.99"/>
<polygon fill="midnightblue" stroke="midnightblue" points="433.83,-212.47 423.86,-216.07 433.9,-219.47 433.83,-212.47"/>
</g>
<!-- Node6 -->
<g id="node6" class="node">
<title>Node6</title>
<g id="a_node6"><a xlink:href="debug__stream__alphabet_8hpp.html" target="_top" xlink:title="Provides bio::debug_stream and related types.">
<polygon fill="white" stroke="black" points="442.24,-134.5 442.24,-164.5 567.24,-164.5 567.24,-134.5 442.24,-134.5"/>
<text text-anchor="start" x="450.24" y="-152.5" font-family="Helvetica,sans-Serif" font-size="10.00">bio/meta/detail/debug</text>
<text text-anchor="middle" x="504.74" y="-141.5" font-family="Helvetica,sans-Serif" font-size="10.00">_stream_alphabet.hpp</text>
</a>
</g>
</g>
<!-- Node1&#45;&gt;Node6 -->
<g id="edge5" class="edge">
<title>Node1&#45;&gt;Node6</title>
<path fill="none" stroke="midnightblue" d="M402.15,-197.13C424.87,-186.8 452.8,-174.11 473.77,-164.58"/>
<polygon fill="midnightblue" stroke="midnightblue" points="400.42,-194.07 392.77,-201.4 403.32,-200.44 400.42,-194.07"/>
</g>
<!-- Node7 -->
<g id="node7" class="node">
<title>Node7</title>
<g id="a_node7"><a xlink:href="debug__stream__optional_8hpp.html" target="_top" xlink:title="Provides bio::debug_stream and related types.">
<polygon fill="white" stroke="black" points="585.74,-134.5 585.74,-164.5 709.74,-164.5 709.74,-134.5 585.74,-134.5"/>
<text text-anchor="start" x="593.74" y="-152.5" font-family="Helvetica,sans-Serif" font-size="10.00">bio/meta/detail/debug</text>
<text text-anchor="middle" x="647.74" y="-141.5" font-family="Helvetica,sans-Serif" font-size="10.00">_stream_optional.hpp</text>
</a>
</g>
</g>
<!-- Node1&#45;&gt;Node7 -->
<g id="edge8" class="edge">
<title>Node1&#45;&gt;Node7</title>
<path fill="none" stroke="midnightblue" d="M433.23,-199.25C480.11,-188.6 540.8,-174.81 585.65,-164.61"/>
<polygon fill="midnightblue" stroke="midnightblue" points="432.42,-195.85 423.45,-201.48 433.97,-202.67 432.42,-195.85"/>
</g>
<!-- Node8 -->
<g id="node8" class="node">
<title>Node8</title>
<g id="a_node8"><a xlink:href="debug__stream__range_8hpp.html" target="_top" xlink:title="Provides bio::debug_stream and related types.">
<polygon fill="white" stroke="black" points="15.74,-134.5 15.74,-164.5 139.74,-164.5 139.74,-134.5 15.74,-134.5"/>
<text text-anchor="start" x="23.74" y="-152.5" font-family="Helvetica,sans-Serif" font-size="10.00">bio/meta/detail/debug</text>
<text text-anchor="middle" x="77.74" y="-141.5" font-family="Helvetica,sans-Serif" font-size="10.00">_stream_range.hpp</text>
</a>
</g>
</g>
<!-- Node1&#45;&gt;Node8 -->
<g id="edge11" class="edge">
<title>Node1&#45;&gt;Node8</title>
<path fill="none" stroke="midnightblue" d="M290.46,-199.19C243.95,-188.54 183.84,-174.78 139.39,-164.61"/>
<polygon fill="midnightblue" stroke="midnightblue" points="289.94,-202.66 300.47,-201.48 291.5,-195.83 289.94,-202.66"/>
</g>
<!-- Node9 -->
<g id="node9" class="node">
<title>Node9</title>
<g id="a_node9"><a xlink:href="debug__stream__tuple_8hpp.html" target="_top" xlink:title="Provides bio::debug_stream and related types.">
<polygon fill="white" stroke="black" points="157.74,-134.5 157.74,-164.5 281.74,-164.5 281.74,-134.5 157.74,-134.5"/>
<text text-anchor="start" x="165.74" y="-152.5" font-family="Helvetica,sans-Serif" font-size="10.00">bio/meta/detail/debug</text>
<text text-anchor="middle" x="219.74" y="-141.5" font-family="Helvetica,sans-Serif" font-size="10.00">_stream_tuple.hpp</text>
</a>
</g>
</g>
<!-- Node1&#45;&gt;Node9 -->
<g id="edge14" class="edge">
<title>Node1&#45;&gt;Node9</title>
<path fill="none" stroke="midnightblue" d="M321.61,-197.13C299.05,-186.8 271.32,-174.11 250.49,-164.58"/>
<polygon fill="midnightblue" stroke="midnightblue" points="320.38,-200.42 330.93,-201.4 323.29,-194.05 320.38,-200.42"/>
</g>
<!-- Node10 -->
<g id="node10" class="node">
<title>Node10</title>
<g id="a_node10"><a xlink:href="debug__stream__variant_8hpp.html" target="_top" xlink:title="Provides bio::debug_stream and related types.">
<polygon fill="white" stroke="black" points="299.74,-134.5 299.74,-164.5 423.74,-164.5 423.74,-134.5 299.74,-134.5"/>
<text text-anchor="start" x="307.74" y="-152.5" font-family="Helvetica,sans-Serif" font-size="10.00">bio/meta/detail/debug</text>
<text text-anchor="middle" x="361.74" y="-141.5" font-family="Helvetica,sans-Serif" font-size="10.00">_stream_variant.hpp</text>
</a>
</g>
</g>
<!-- Node1&#45;&gt;Node10 -->
<g id="edge17" class="edge">
<title>Node1&#45;&gt;Node10</title>
<path fill="none" stroke="midnightblue" d="M361.74,-191.11C361.74,-182.15 361.74,-172.32 361.74,-164.58"/>
<polygon fill="midnightblue" stroke="midnightblue" points="358.24,-191.4 361.74,-201.4 365.24,-191.4 358.24,-191.4"/>
</g>
<!-- Node3 -->
<g id="node3" class="node">
<title>Node3</title>
<g id="a_node3"><a xlink:href="load_8hpp_source.html" target="_top" xlink:title=" ">
<polygon fill="white" stroke="black" points="224.24,-0.5 224.24,-41.5 341.24,-41.5 341.24,-0.5 224.24,-0.5"/>
<text text-anchor="start" x="232.24" y="-29.5" font-family="Helvetica,sans-Serif" font-size="10.00">/home/hannes/devel</text>
<text text-anchor="start" x="232.24" y="-18.5" font-family="Helvetica,sans-Serif" font-size="10.00">/bio&#45;core/doc/howto</text>
<text text-anchor="middle" x="282.74" y="-7.5" font-family="Helvetica,sans-Serif" font-size="10.00">/use_cereal/load.hpp</text>
</a>
</g>
</g>
<!-- Node2&#45;&gt;Node3 -->
<g id="edge2" class="edge">
<title>Node2&#45;&gt;Node3</title>
<path fill="none" stroke="midnightblue" d="M282.74,-68.04C282.74,-59.71 282.74,-49.94 282.74,-41.54"/>
<polygon fill="midnightblue" stroke="midnightblue" points="279.24,-68.23 282.74,-78.23 286.24,-68.23 279.24,-68.23"/>
</g>
<!-- Node5 -->
<g id="node5" class="node">
<title>Node5</title>
<g id="a_node5"><a xlink:href="meta_2all_8hpp.html" target="_top" xlink:title="Meta&#45;header for the core module .">
<polygon fill="white" stroke="black" points="424.74,-11.5 424.74,-30.5 520.74,-30.5 520.74,-11.5 424.74,-11.5"/>
<text text-anchor="middle" x="472.74" y="-18.5" font-family="Helvetica,sans-Serif" font-size="10.00">bio/meta/all.hpp</text>
</a>
</g>
</g>
<!-- Node4&#45;&gt;Node5 -->
<g id="edge4" class="edge">
<title>Node4&#45;&gt;Node5</title>
<path fill="none" stroke="midnightblue" d="M472.74,-68.04C472.74,-55.67 472.74,-40.12 472.74,-30.63"/>
<polygon fill="midnightblue" stroke="midnightblue" points="469.24,-68.23 472.74,-78.23 476.24,-68.23 469.24,-68.23"/>
</g>
<!-- Node6&#45;&gt;Node2 -->
<g id="edge6" class="edge">
<title>Node6&#45;&gt;Node2</title>
<path fill="none" stroke="midnightblue" d="M442.62,-131.85C400.94,-120.68 347.77,-106.43 314.48,-97.51"/>
<polygon fill="midnightblue" stroke="midnightblue" points="441.84,-135.27 452.41,-134.47 443.66,-128.51 441.84,-135.27"/>
</g>
<!-- Node6&#45;&gt;Node4 -->
<g id="edge7" class="edge">
<title>Node6&#45;&gt;Node4</title>
<path fill="none" stroke="midnightblue" d="M492.37,-125.5C487.12,-115.74 481.32,-104.96 477.4,-97.66"/>
<polygon fill="midnightblue" stroke="midnightblue" points="489.34,-127.25 497.16,-134.4 495.5,-123.93 489.34,-127.25"/>
</g>
<!-- Node7&#45;&gt;Node2 -->
<g id="edge9" class="edge">
<title>Node7&#45;&gt;Node2</title>
<path fill="none" stroke="midnightblue" d="M575.54,-133.83C489.83,-118.69 401.64,-105.65 344.26,-97.51"/>
<polygon fill="midnightblue" stroke="midnightblue" points="574.98,-137.29 585.43,-135.59 576.2,-130.4 574.98,-137.29"/>
</g>
<!-- Node7&#45;&gt;Node4 -->
<g id="edge10" class="edge">
<title>Node7&#45;&gt;Node4</title>
<path fill="none" stroke="midnightblue" d="M596.49,-131.08C564.08,-120.05 523.6,-106.29 497.95,-97.57"/>
<polygon fill="midnightblue" stroke="midnightblue" points="595.67,-134.49 606.27,-134.4 597.93,-127.87 595.67,-134.49"/>
</g>
<!-- Node8&#45;&gt;Node2 -->
<g id="edge12" class="edge">
<title>Node8&#45;&gt;Node2</title>
<path fill="none" stroke="midnightblue" d="M136.08,-131.57C174.42,-120.44 222.95,-106.35 253.43,-97.51"/>
<polygon fill="midnightblue" stroke="midnightblue" points="134.69,-128.33 126.06,-134.47 136.64,-135.05 134.69,-128.33"/>
</g>
<!-- Node8&#45;&gt;Node4 -->
<g id="edge13" class="edge">
<title>Node8&#45;&gt;Node4</title>
<path fill="none" stroke="midnightblue" d="M149.9,-133.86C245.78,-117.64 345.95,-104.47 409.23,-96.61"/>
<polygon fill="midnightblue" stroke="midnightblue" points="149.3,-130.41 140.04,-135.54 150.48,-137.31 149.3,-130.41"/>
</g>
<!-- Node9&#45;&gt;Node2 -->
<g id="edge15" class="edge">
<title>Node9&#45;&gt;Node2</title>
<path fill="none" stroke="midnightblue" d="M242.19,-127.3C253,-117.09 265.37,-105.41 273.57,-97.66"/>
<polygon fill="midnightblue" stroke="midnightblue" points="239.54,-124.99 234.67,-134.4 244.34,-130.08 239.54,-124.99"/>
</g>
<!-- Node9&#45;&gt;Node4 -->
<g id="edge16" class="edge">
<title>Node9&#45;&gt;Node4</title>
<path fill="none" stroke="midnightblue" d="M289.33,-132.13C337.01,-120.92 398.31,-106.5 436.57,-97.51"/>
<polygon fill="midnightblue" stroke="midnightblue" points="288.31,-128.78 279.38,-134.47 289.91,-135.59 288.31,-128.78"/>
</g>
<!-- Node10&#45;&gt;Node2 -->
<g id="edge18" class="edge">
<title>Node10&#45;&gt;Node2</title>
<path fill="none" stroke="midnightblue" d="M334.77,-128.19C320.94,-117.77 304.82,-105.63 294.23,-97.66"/>
<polygon fill="midnightblue" stroke="midnightblue" points="332.92,-131.18 343.02,-134.4 337.14,-125.59 332.92,-131.18"/>
</g>
<!-- Node10&#45;&gt;Node4 -->
<g id="edge19" class="edge">
<title>Node10&#45;&gt;Node4</title>
<path fill="none" stroke="midnightblue" d="M396.9,-129.65C416.91,-118.93 441.01,-106.01 456.59,-97.66"/>
<polygon fill="midnightblue" stroke="midnightblue" points="395.21,-126.59 388.05,-134.4 398.51,-132.76 395.21,-126.59"/>
</g>
</g>
</svg>
