<?xml version="1.0" encoding="UTF-8" standalone="no"?>
<!DOCTYPE svg PUBLIC "-//W3C//DTD SVG 1.1//EN"
 "http://www.w3.org/Graphics/SVG/1.1/DTD/svg11.dtd">
<!-- Generated by graphviz version 2.43.0 (0)
 -->
<!-- Title: bio/meta/detail/debug_stream_tuple.hpp Pages: 1 -->
<svg width="1530pt" height="698pt"
 viewBox="0.00 0.00 1530.00 698.00" xmlns="http://www.w3.org/2000/svg" xmlns:xlink="http://www.w3.org/1999/xlink">
<g id="graph0" class="graph" transform="scale(1 1) rotate(0) translate(4 694)">
<title>bio/meta/detail/debug_stream_tuple.hpp</title>
<polygon fill="white" stroke="transparent" points="-4,4 -4,-694 1526,-694 1526,4 -4,4"/>
<!-- Node1 -->
<g id="node1" class="node">
<title>Node1</title>
<g id="a_node1"><a xlink:title="Provides bio::debug_stream and related types.">
<polygon fill="#bfbfbf" stroke="black" points="882,-659.5 882,-689.5 1006,-689.5 1006,-659.5 882,-659.5"/>
<text text-anchor="start" x="890" y="-677.5" font-family="Helvetica,sans-Serif" font-size="10.00">bio/meta/detail/debug</text>
<text text-anchor="middle" x="944" y="-666.5" font-family="Helvetica,sans-Serif" font-size="10.00">_stream_tuple.hpp</text>
</a>
</g>
</g>
<!-- Node2 -->
<g id="node2" class="node">
<title>Node2</title>
<g id="a_node2"><a target="_blank" xlink:href="https://en.cppreference.com/w/cpp/header/concepts.html" xlink:title=" ">
<polygon fill="white" stroke="black" points="821,-118 821,-137 881,-137 881,-118 821,-118"/>
<text text-anchor="middle" x="851" y="-125" font-family="Helvetica,sans-Serif" font-size="10.00">concepts</text>
</a>
</g>
</g>
<!-- Node1&#45;&gt;Node2 -->
<g id="edge1" class="edge">
<title>Node1&#45;&gt;Node2</title>
<path fill="none" stroke="midnightblue" d="M909.51,-659.42C892.61,-651.01 873.12,-638.86 860,-623 835.4,-593.26 830,-580.1 830,-541.5 830,-541.5 830,-541.5 830,-405.5 830,-308.1 843.07,-191.99 848.59,-147.3"/>
<polygon fill="midnightblue" stroke="midnightblue" points="852.1,-147.46 849.87,-137.1 845.15,-146.58 852.1,-147.46"/>
</g>
<!-- Node3 -->
<g id="node3" class="node">
<title>Node3</title>
<g id="a_node3"><a target="_blank" xlink:href="https://en.cppreference.com/w/cpp/header/ranges.html" xlink:title=" ">
<polygon fill="white" stroke="black" points="1179,-598 1179,-617 1229,-617 1229,-598 1179,-598"/>
<text text-anchor="middle" x="1204" y="-605" font-family="Helvetica,sans-Serif" font-size="10.00">ranges</text>
</a>
</g>
</g>
<!-- Node1&#45;&gt;Node3 -->
<g id="edge2" class="edge">
<title>Node1&#45;&gt;Node3</title>
<path fill="none" stroke="midnightblue" d="M1006.21,-662.78C1052.07,-654.12 1115.66,-640.5 1170,-623 1171.92,-622.38 1173.89,-621.69 1175.86,-620.97"/>
<polygon fill="midnightblue" stroke="midnightblue" points="1177.54,-624.06 1185.53,-617.1 1174.94,-617.56 1177.54,-624.06"/>
</g>
<!-- Node4 -->
<g id="node4" class="node">
<title>Node4</title>
<g id="a_node4"><a xlink:href="alphabet_2concept_8hpp.html" target="_top" xlink:title="Core alphabet concept and free function/type trait wrappers.">
<polygon fill="white" stroke="black" points="622,-263 622,-282 762,-282 762,-263 622,-263"/>
<text text-anchor="middle" x="692" y="-270" font-family="Helvetica,sans-Serif" font-size="10.00">bio/alphabet/concept.hpp</text>
</a>
</g>
</g>
<!-- Node1&#45;&gt;Node4 -->
<g id="edge3" class="edge">
<title>Node1&#45;&gt;Node4</title>
<path fill="none" stroke="midnightblue" d="M881.96,-660.9C821.94,-644.65 740,-609.94 740,-541.5 740,-541.5 740,-541.5 740,-405.5 740,-362.21 716.91,-315.48 702.76,-290.9"/>
<polygon fill="midnightblue" stroke="midnightblue" points="705.63,-288.87 697.51,-282.07 699.61,-292.45 705.63,-288.87"/>
</g>
<!-- Node23 -->
<g id="node23" class="node">
<title>Node23</title>
<g id="a_node23"><a xlink:href="tuple_8hpp.html" target="_top" xlink:title="Provides bio::tuple_like.">
<polygon fill="white" stroke="black" points="869,-598 869,-617 1019,-617 1019,-598 869,-598"/>
<text text-anchor="middle" x="944" y="-605" font-family="Helvetica,sans-Serif" font-size="10.00">bio/meta/concept/tuple.hpp</text>
</a>
</g>
</g>
<!-- Node1&#45;&gt;Node23 -->
<g id="edge34" class="edge">
<title>Node1&#45;&gt;Node23</title>
<path fill="none" stroke="midnightblue" d="M944,-659.4C944,-650.06 944,-637.71 944,-627.52"/>
<polygon fill="midnightblue" stroke="midnightblue" points="947.5,-627.19 944,-617.19 940.5,-627.19 947.5,-627.19"/>
</g>
<!-- Node33 -->
<g id="node33" class="node">
<title>Node33</title>
<g id="a_node33"><a xlink:href="debug__stream__type_8hpp.html" target="_top" xlink:title="Provides bio::debug_stream and related types.">
<polygon fill="white" stroke="black" points="1037,-592.5 1037,-622.5 1161,-622.5 1161,-592.5 1037,-592.5"/>
<text text-anchor="start" x="1045" y="-610.5" font-family="Helvetica,sans-Serif" font-size="10.00">bio/meta/detail/debug</text>
<text text-anchor="middle" x="1099" y="-599.5" font-family="Helvetica,sans-Serif" font-size="10.00">_stream_type.hpp</text>
</a>
</g>
</g>
<!-- Node1&#45;&gt;Node33 -->
<g id="edge59" class="edge">
<title>Node1&#45;&gt;Node33</title>
<path fill="none" stroke="midnightblue" d="M977.63,-659.4C1000.58,-649.77 1031.19,-636.94 1055.92,-626.56"/>
<polygon fill="midnightblue" stroke="midnightblue" points="1057.56,-629.67 1065.43,-622.58 1054.86,-623.22 1057.56,-629.67"/>
</g>
<!-- Node5 -->
<g id="node5" class="node">
<title>Node5</title>
<g id="a_node5"><a xlink:href="exception_8hpp.html" target="_top" xlink:title="Exceptions thrown by entities in the alphabet module.">
<polygon fill="white" stroke="black" points="254.5,-190.5 254.5,-209.5 403.5,-209.5 403.5,-190.5 254.5,-190.5"/>
<text text-anchor="middle" x="329" y="-197.5" font-family="Helvetica,sans-Serif" font-size="10.00">bio/alphabet/exception.hpp</text>
</a>
</g>
</g>
<!-- Node4&#45;&gt;Node5 -->
<g id="edge4" class="edge">
<title>Node4&#45;&gt;Node5</title>
<path fill="none" stroke="midnightblue" d="M648.21,-263C581.71,-250.08 455.38,-225.54 383.19,-211.52"/>
<polygon fill="midnightblue" stroke="midnightblue" points="383.43,-208 372.94,-209.53 382.09,-214.88 383.43,-208"/>
</g>
<!-- Node13 -->
<g id="node13" class="node">
<title>Node13</title>
<g id="a_node13"><a xlink:href="cereal_8hpp.html" target="_top" xlink:title="Adaptions of concepts from the Cereal library.">
<polygon fill="white" stroke="black" points="571.5,-118 571.5,-137 726.5,-137 726.5,-118 571.5,-118"/>
<text text-anchor="middle" x="649" y="-125" font-family="Helvetica,sans-Serif" font-size="10.00">bio/meta/concept/cereal.hpp</text>
</a>
</g>
</g>
<!-- Node4&#45;&gt;Node13 -->
<g id="edge14" class="edge">
<title>Node4&#45;&gt;Node13</title>
<path fill="none" stroke="midnightblue" d="M687.59,-262.76C682.73,-252.84 674.95,-236.08 670,-221 661.8,-196 655.66,-166.18 652.2,-147.29"/>
<polygon fill="midnightblue" stroke="midnightblue" points="655.62,-146.56 650.43,-137.32 648.73,-147.78 655.62,-146.56"/>
</g>
<!-- Node14 -->
<g id="node14" class="node">
<title>Node14</title>
<g id="a_node14"><a target="_blank" xlink:href="https://en.cppreference.com/w/cpp/header/type_traits.html" xlink:title=" ">
<polygon fill="white" stroke="black" points="1122.5,-56.5 1122.5,-75.5 1191.5,-75.5 1191.5,-56.5 1122.5,-56.5"/>
<text text-anchor="middle" x="1157" y="-63.5" font-family="Helvetica,sans-Serif" font-size="10.00">type_traits</text>
</a>
</g>
</g>
<!-- Node4&#45;&gt;Node14 -->
<g id="edge33" class="edge">
<title>Node4&#45;&gt;Node14</title>
<path fill="none" stroke="midnightblue" d="M715.12,-262.83C739.75,-253.37 779.7,-237.37 813,-221 900.71,-177.87 914.06,-150.27 1004,-112 1039.36,-96.95 1081.36,-84.99 1112.4,-77.2"/>
<polygon fill="midnightblue" stroke="midnightblue" points="1113.61,-80.5 1122.48,-74.71 1111.93,-73.71 1113.61,-80.5"/>
</g>
<!-- Node15 -->
<g id="node15" class="node">
<title>Node15</title>
<g id="a_node15"><a xlink:href="core__language_8hpp.html" target="_top" xlink:title="Provides concepts for core language types and relations that don&#39;t have concepts in C++20 (yet).">
<polygon fill="white" stroke="black" points="679.5,-185 679.5,-215 804.5,-215 804.5,-185 679.5,-185"/>
<text text-anchor="start" x="687.5" y="-203" font-family="Helvetica,sans-Serif" font-size="10.00">bio/meta/concept/core</text>
<text text-anchor="middle" x="742" y="-192" font-family="Helvetica,sans-Serif" font-size="10.00">_language.hpp</text>
</a>
</g>
</g>
<!-- Node4&#45;&gt;Node15 -->
<g id="edge17" class="edge">
<title>Node4&#45;&gt;Node15</title>
<path fill="none" stroke="midnightblue" d="M698.13,-262.86C705.06,-253.08 716.62,-236.79 726.13,-223.38"/>
<polygon fill="midnightblue" stroke="midnightblue" points="729.09,-225.26 732.02,-215.08 723.38,-221.21 729.09,-225.26"/>
</g>
<!-- Node16 -->
<g id="node16" class="node">
<title>Node16</title>
<g id="a_node16"><a xlink:href="customisation__point_8hpp.html" target="_top" xlink:title="Helper utilities for defining customisation point objects.">
<polygon fill="white" stroke="black" points="459.5,-185 459.5,-215 622.5,-215 622.5,-185 459.5,-185"/>
<text text-anchor="start" x="467.5" y="-203" font-family="Helvetica,sans-Serif" font-size="10.00">bio/meta/detail/customisation</text>
<text text-anchor="middle" x="541" y="-192" font-family="Helvetica,sans-Serif" font-size="10.00">_point.hpp</text>
</a>
</g>
</g>
<!-- Node4&#45;&gt;Node16 -->
<g id="edge21" class="edge">
<title>Node4&#45;&gt;Node16</title>
<path fill="none" stroke="midnightblue" d="M673.79,-263C650.78,-252.26 610.57,-233.48 580.4,-219.4"/>
<polygon fill="midnightblue" stroke="midnightblue" points="581.54,-216.07 571,-215.01 578.58,-222.41 581.54,-216.07"/>
</g>
<!-- Node17 -->
<g id="node17" class="node">
<title>Node17</title>
<g id="a_node17"><a xlink:href="type__inspection_8hpp.html" target="_top" xlink:title="Provides traits to inspect some information of a type, for example its name.">
<polygon fill="white" stroke="black" points="80,-112.5 80,-142.5 196,-142.5 196,-112.5 80,-112.5"/>
<text text-anchor="start" x="88" y="-130.5" font-family="Helvetica,sans-Serif" font-size="10.00">bio/meta/detail/type</text>
<text text-anchor="middle" x="138" y="-119.5" font-family="Helvetica,sans-Serif" font-size="10.00">_inspection.hpp</text>
</a>
</g>
</g>
<!-- Node4&#45;&gt;Node17 -->
<g id="edge23" class="edge">
<title>Node4&#45;&gt;Node17</title>
<path fill="none" stroke="midnightblue" d="M621.87,-268.62C513.49,-263.33 310.91,-249.86 245,-221 208.7,-205.11 175.64,-172.49 156.17,-150.55"/>
<polygon fill="midnightblue" stroke="midnightblue" points="158.58,-147.99 149.39,-142.73 153.29,-152.58 158.58,-147.99"/>
</g>
<!-- Node21 -->
<g id="node21" class="node">
<title>Node21</title>
<g id="a_node21"><a xlink:href="basic_8hpp.html" target="_top" xlink:title="Provides various type traits on generic types.">
<polygon fill="white" stroke="black" points="1188,-185 1188,-215 1304,-215 1304,-185 1188,-185"/>
<text text-anchor="start" x="1196" y="-203" font-family="Helvetica,sans-Serif" font-size="10.00">bio/meta/type_traits</text>
<text text-anchor="middle" x="1246" y="-192" font-family="Helvetica,sans-Serif" font-size="10.00">/basic.hpp</text>
</a>
</g>
</g>
<!-- Node4&#45;&gt;Node21 -->
<g id="edge29" class="edge">
<title>Node4&#45;&gt;Node21</title>
<path fill="none" stroke="midnightblue" d="M762.05,-265.23C850.4,-256.94 1006.87,-241.03 1140,-221 1152.27,-219.15 1165.3,-216.92 1177.86,-214.63"/>
<polygon fill="midnightblue" stroke="midnightblue" points="1178.62,-218.05 1187.81,-212.78 1177.34,-211.16 1178.62,-218.05"/>
</g>
<!-- Node5&#45;&gt;Node2 -->
<g id="edge13" class="edge">
<title>Node5&#45;&gt;Node2</title>
<path fill="none" stroke="midnightblue" d="M377.8,-190.49C399.83,-186.77 426.19,-182.47 450,-179 467.73,-176.42 712.56,-145.79 810.72,-133.53"/>
<polygon fill="midnightblue" stroke="midnightblue" points="811.36,-136.98 820.85,-132.27 810.49,-130.03 811.36,-136.98"/>
</g>
<!-- Node6 -->
<g id="node6" class="node">
<title>Node6</title>
<g id="a_node6"><a target="_blank" xlink:href="https://en.cppreference.com/w/cpp/header/stdexcept.html" xlink:title=" ">
<polygon fill="white" stroke="black" points="252.5,-118 252.5,-137 317.5,-137 317.5,-118 252.5,-118"/>
<text text-anchor="middle" x="285" y="-125" font-family="Helvetica,sans-Serif" font-size="10.00">stdexcept</text>
</a>
</g>
</g>
<!-- Node5&#45;&gt;Node6 -->
<g id="edge5" class="edge">
<title>Node5&#45;&gt;Node6</title>
<path fill="none" stroke="midnightblue" d="M323.6,-190.36C316.74,-179.36 304.73,-160.11 295.92,-146"/>
<polygon fill="midnightblue" stroke="midnightblue" points="298.7,-143.85 290.44,-137.22 292.76,-147.55 298.7,-143.85"/>
</g>
<!-- Node7 -->
<g id="node7" class="node">
<title>Node7</title>
<g id="a_node7"><a target="_blank" xlink:href="https://en.cppreference.com/w/cpp/header/string.html" xlink:title=" ">
<polygon fill="white" stroke="black" points="235,-56.5 235,-75.5 279,-75.5 279,-56.5 235,-56.5"/>
<text text-anchor="middle" x="257" y="-63.5" font-family="Helvetica,sans-Serif" font-size="10.00">string</text>
</a>
</g>
</g>
<!-- Node5&#45;&gt;Node7 -->
<g id="edge6" class="edge">
<title>Node5&#45;&gt;Node7</title>
<path fill="none" stroke="midnightblue" d="M303.94,-190.4C283.44,-181.88 255.82,-166.65 243,-143 233.14,-124.81 240.24,-100.96 247.44,-84.86"/>
<polygon fill="midnightblue" stroke="midnightblue" points="250.75,-86.06 252.02,-75.54 244.47,-82.98 250.75,-86.06"/>
</g>
<!-- Node8 -->
<g id="node8" class="node">
<title>Node8</title>
<g id="a_node8"><a xlink:href="pretty__print_8hpp.html" target="_top" xlink:title="Provides pretty printing for chars.">
<polygon fill="white" stroke="black" points="335.5,-112.5 335.5,-142.5 476.5,-142.5 476.5,-112.5 335.5,-112.5"/>
<text text-anchor="start" x="343.5" y="-130.5" font-family="Helvetica,sans-Serif" font-size="10.00">bio/meta/char_operations</text>
<text text-anchor="middle" x="406" y="-119.5" font-family="Helvetica,sans-Serif" font-size="10.00">/pretty_print.hpp</text>
</a>
</g>
</g>
<!-- Node5&#45;&gt;Node8 -->
<g id="edge7" class="edge">
<title>Node5&#45;&gt;Node8</title>
<path fill="none" stroke="midnightblue" d="M338.44,-190.36C349.52,-180.21 368.28,-163.04 383.22,-149.36"/>
<polygon fill="midnightblue" stroke="midnightblue" points="385.61,-151.91 390.63,-142.58 380.89,-146.75 385.61,-151.91"/>
</g>
<!-- Node8&#45;&gt;Node7 -->
<g id="edge8" class="edge">
<title>Node8&#45;&gt;Node7</title>
<path fill="none" stroke="midnightblue" d="M370.69,-112.4C345.58,-102.37 312.16,-89.03 288.06,-79.4"/>
<polygon fill="midnightblue" stroke="midnightblue" points="289.27,-76.12 278.68,-75.66 286.67,-82.62 289.27,-76.12"/>
</g>
<!-- Node9 -->
<g id="node9" class="node">
<title>Node9</title>
<g id="a_node9"><a xlink:href="platform_8hpp.html" target="_top" xlink:title="Provides platform and dependency checks.">
<polygon fill="white" stroke="black" points="586,-56.5 586,-75.5 712,-75.5 712,-56.5 586,-56.5"/>
<text text-anchor="middle" x="649" y="-63.5" font-family="Helvetica,sans-Serif" font-size="10.00">bio/meta/platform.hpp</text>
</a>
</g>
</g>
<!-- Node8&#45;&gt;Node9 -->
<g id="edge9" class="edge">
<title>Node8&#45;&gt;Node9</title>
<path fill="none" stroke="midnightblue" d="M463.28,-112.47C506.39,-101.92 564.64,-87.66 604.34,-77.94"/>
<polygon fill="midnightblue" stroke="midnightblue" points="605.38,-81.28 614.26,-75.51 603.71,-74.49 605.38,-81.28"/>
</g>
<!-- Node10 -->
<g id="node10" class="node">
<title>Node10</title>
<g id="a_node10"><a target="_blank" xlink:href="https://en.cppreference.com/w/cpp/header/cinttypes.html" xlink:title=" ">
<polygon fill="white" stroke="black" points="542,-0.5 542,-19.5 604,-19.5 604,-0.5 542,-0.5"/>
<text text-anchor="middle" x="573" y="-7.5" font-family="Helvetica,sans-Serif" font-size="10.00">cinttypes</text>
</a>
</g>
</g>
<!-- Node9&#45;&gt;Node10 -->
<g id="edge10" class="edge">
<title>Node9&#45;&gt;Node10</title>
<path fill="none" stroke="midnightblue" d="M636.79,-56.32C625.22,-48.11 607.62,-35.6 593.84,-25.81"/>
<polygon fill="midnightblue" stroke="midnightblue" points="595.61,-22.77 585.43,-19.83 591.56,-28.48 595.61,-22.77"/>
</g>
<!-- Node11 -->
<g id="node11" class="node">
<title>Node11</title>
<g id="a_node11"><a target="_blank" xlink:href="https://en.cppreference.com/w/cpp/header/ciso646.html" xlink:title=" ">
<polygon fill="white" stroke="black" points="622,-0.5 622,-19.5 676,-19.5 676,-0.5 622,-0.5"/>
<text text-anchor="middle" x="649" y="-7.5" font-family="Helvetica,sans-Serif" font-size="10.00">ciso646</text>
</a>
</g>
</g>
<!-- Node9&#45;&gt;Node11 -->
<g id="edge11" class="edge">
<title>Node9&#45;&gt;Node11</title>
<path fill="none" stroke="midnightblue" d="M649,-56.08C649,-49.01 649,-38.86 649,-29.99"/>
<polygon fill="midnightblue" stroke="midnightblue" points="652.5,-29.75 649,-19.75 645.5,-29.75 652.5,-29.75"/>
</g>
<!-- Node12 -->
<g id="node12" class="node">
<title>Node12</title>
<g id="a_node12"><a target="_blank" xlink:href="https://en.cppreference.com/w/cpp/header/cstddef.html" xlink:title=" ">
<polygon fill="white" stroke="black" points="694.5,-0.5 694.5,-19.5 747.5,-19.5 747.5,-0.5 694.5,-0.5"/>
<text text-anchor="middle" x="721" y="-7.5" font-family="Helvetica,sans-Serif" font-size="10.00">cstddef</text>
</a>
</g>
</g>
<!-- Node9&#45;&gt;Node12 -->
<g id="edge12" class="edge">
<title>Node9&#45;&gt;Node12</title>
<path fill="none" stroke="midnightblue" d="M660.57,-56.32C671.42,-48.18 687.88,-35.84 700.88,-26.09"/>
<polygon fill="midnightblue" stroke="midnightblue" points="703.32,-28.63 709.22,-19.83 699.12,-23.03 703.32,-28.63"/>
</g>
<!-- Node13&#45;&gt;Node9 -->
<g id="edge16" class="edge">
<title>Node13&#45;&gt;Node9</title>
<path fill="none" stroke="midnightblue" d="M649,-117.98C649,-109.58 649,-96.48 649,-85.66"/>
<polygon fill="midnightblue" stroke="midnightblue" points="652.5,-85.51 649,-75.51 645.5,-85.51 652.5,-85.51"/>
</g>
<!-- Node13&#45;&gt;Node14 -->
<g id="edge15" class="edge">
<title>Node13&#45;&gt;Node14</title>
<path fill="none" stroke="midnightblue" d="M721.78,-117.98C828.55,-105.47 1024.47,-82.52 1112.32,-72.23"/>
<polygon fill="midnightblue" stroke="midnightblue" points="1112.95,-75.68 1122.48,-71.04 1112.14,-68.73 1112.95,-75.68"/>
</g>
<!-- Node15&#45;&gt;Node2 -->
<g id="edge20" class="edge">
<title>Node15&#45;&gt;Node2</title>
<path fill="none" stroke="midnightblue" d="M763.8,-184.9C782.8,-172.61 810.23,-154.87 829.23,-142.58"/>
<polygon fill="midnightblue" stroke="midnightblue" points="831.31,-145.4 837.81,-137.03 827.51,-139.53 831.31,-145.4"/>
</g>
<!-- Node15&#45;&gt;Node9 -->
<g id="edge19" class="edge">
<title>Node15&#45;&gt;Node9</title>
<path fill="none" stroke="midnightblue" d="M744.78,-184.71C747.55,-166.28 749.55,-133.99 735,-112 724.82,-96.61 707.61,-86.15 691.25,-79.22"/>
<polygon fill="midnightblue" stroke="midnightblue" points="692.37,-75.9 681.78,-75.54 689.83,-82.43 692.37,-75.9"/>
</g>
<!-- Node15&#45;&gt;Node14 -->
<g id="edge18" class="edge">
<title>Node15&#45;&gt;Node14</title>
<path fill="none" stroke="midnightblue" d="M748.98,-184.73C759.57,-164.75 781.74,-128.99 812,-112 862.41,-83.7 1030.3,-72.57 1111.82,-68.74"/>
<polygon fill="midnightblue" stroke="midnightblue" points="1112.43,-72.22 1122.26,-68.27 1112.11,-65.23 1112.43,-72.22"/>
</g>
<!-- Node16&#45;&gt;Node9 -->
<g id="edge22" class="edge">
<title>Node16&#45;&gt;Node9</title>
<path fill="none" stroke="midnightblue" d="M540.94,-184.81C541.57,-166.19 545.22,-133.39 562,-112 573.84,-96.9 592.15,-86.37 608.92,-79.31"/>
<polygon fill="midnightblue" stroke="midnightblue" points="610.52,-82.45 618.56,-75.55 607.97,-75.93 610.52,-82.45"/>
</g>
<!-- Node17&#45;&gt;Node7 -->
<g id="edge26" class="edge">
<title>Node17&#45;&gt;Node7</title>
<path fill="none" stroke="midnightblue" d="M166.2,-112.4C185.72,-102.64 211.53,-89.74 230.63,-80.18"/>
<polygon fill="midnightblue" stroke="midnightblue" points="232.31,-83.26 239.68,-75.66 229.17,-77 232.31,-83.26"/>
</g>
<!-- Node17&#45;&gt;Node9 -->
<g id="edge28" class="edge">
<title>Node17&#45;&gt;Node9</title>
<path fill="none" stroke="midnightblue" d="M196,-118.21C211.28,-116.1 227.75,-113.9 243,-112 359.25,-97.53 494.52,-83 575.86,-74.51"/>
<polygon fill="midnightblue" stroke="midnightblue" points="576.41,-77.97 585.99,-73.45 575.69,-71.01 576.41,-77.97"/>
</g>
<!-- Node18 -->
<g id="node18" class="node">
<title>Node18</title>
<g id="a_node18"><a target="_blank" xlink:href="https://en.cppreference.com/w/cpp/header/functional.html" xlink:title=" ">
<polygon fill="white" stroke="black" points="151.5,-56.5 151.5,-75.5 216.5,-75.5 216.5,-56.5 151.5,-56.5"/>
<text text-anchor="middle" x="184" y="-63.5" font-family="Helvetica,sans-Serif" font-size="10.00">functional</text>
</a>
</g>
</g>
<!-- Node17&#45;&gt;Node18 -->
<g id="edge24" class="edge">
<title>Node17&#45;&gt;Node18</title>
<path fill="none" stroke="midnightblue" d="M148.9,-112.4C155.59,-103.75 164.18,-92.64 171.18,-83.58"/>
<polygon fill="midnightblue" stroke="midnightblue" points="173.96,-85.71 177.31,-75.66 168.42,-81.43 173.96,-85.71"/>
</g>
<!-- Node19 -->
<g id="node19" class="node">
<title>Node19</title>
<g id="a_node19"><a target="_blank" xlink:href="https://en.cppreference.com/w/cpp/header/memory.html" xlink:title=" ">
<polygon fill="white" stroke="black" points="0,-56.5 0,-75.5 58,-75.5 58,-56.5 0,-56.5"/>
<text text-anchor="middle" x="29" y="-63.5" font-family="Helvetica,sans-Serif" font-size="10.00">memory</text>
</a>
</g>
</g>
<!-- Node17&#45;&gt;Node19 -->
<g id="edge25" class="edge">
<title>Node17&#45;&gt;Node19</title>
<path fill="none" stroke="midnightblue" d="M112.17,-112.4C94.53,-102.77 71.3,-90.09 53.87,-80.58"/>
<polygon fill="midnightblue" stroke="midnightblue" points="55.31,-77.38 44.86,-75.66 51.96,-83.52 55.31,-77.38"/>
</g>
<!-- Node20 -->
<g id="node20" class="node">
<title>Node20</title>
<g id="a_node20"><a target="_blank" xlink:href="https://en.cppreference.com/w/cpp/header/typeinfo.html" xlink:title=" ">
<polygon fill="white" stroke="black" points="76.5,-56.5 76.5,-75.5 133.5,-75.5 133.5,-56.5 76.5,-56.5"/>
<text text-anchor="middle" x="105" y="-63.5" font-family="Helvetica,sans-Serif" font-size="10.00">typeinfo</text>
</a>
</g>
</g>
<!-- Node17&#45;&gt;Node20 -->
<g id="edge27" class="edge">
<title>Node17&#45;&gt;Node20</title>
<path fill="none" stroke="midnightblue" d="M130.18,-112.4C125.53,-104.02 119.6,-93.33 114.66,-84.42"/>
<polygon fill="midnightblue" stroke="midnightblue" points="117.71,-82.71 109.8,-75.66 111.59,-86.1 117.71,-82.71"/>
</g>
<!-- Node21&#45;&gt;Node9 -->
<g id="edge32" class="edge">
<title>Node21&#45;&gt;Node9</title>
<path fill="none" stroke="midnightblue" d="M1233.72,-184.85C1215.24,-164.67 1178.17,-128.27 1138,-112 1064.56,-82.25 839.94,-71.98 722.42,-68.58"/>
<polygon fill="midnightblue" stroke="midnightblue" points="722.17,-65.07 712.08,-68.29 721.97,-72.07 722.17,-65.07"/>
</g>
<!-- Node21&#45;&gt;Node14 -->
<g id="edge31" class="edge">
<title>Node21&#45;&gt;Node14</title>
<path fill="none" stroke="midnightblue" d="M1250.5,-184.82C1255.39,-166.51 1260.82,-134.36 1247,-112 1236.85,-95.57 1218.69,-84.94 1201.32,-78.17"/>
<polygon fill="midnightblue" stroke="midnightblue" points="1202.41,-74.84 1191.81,-74.79 1200.06,-81.43 1202.41,-74.84"/>
</g>
<!-- Node22 -->
<g id="node22" class="node">
<title>Node22</title>
<g id="a_node22"><a target="_blank" xlink:href="https://en.cppreference.com/w/cpp/header/tuple.html" xlink:title=" ">
<polygon fill="white" stroke="black" points="1311.5,-118 1311.5,-137 1352.5,-137 1352.5,-118 1311.5,-118"/>
<text text-anchor="middle" x="1332" y="-125" font-family="Helvetica,sans-Serif" font-size="10.00">tuple</text>
</a>
</g>
</g>
<!-- Node21&#45;&gt;Node22 -->
<g id="edge30" class="edge">
<title>Node21&#45;&gt;Node22</title>
<path fill="none" stroke="midnightblue" d="M1263.4,-184.73C1277.85,-172.89 1298.34,-156.09 1313.17,-143.94"/>
<polygon fill="midnightblue" stroke="midnightblue" points="1315.64,-146.44 1321.15,-137.39 1311.2,-141.03 1315.64,-146.44"/>
</g>
<!-- Node23&#45;&gt;Node2 -->
<g id="edge35" class="edge">
<title>Node23&#45;&gt;Node2</title>
<path fill="none" stroke="midnightblue" d="M934.68,-597.91C914.39,-578.2 868,-527.39 868,-474.5 868,-474.5 868,-474.5 868,-405.5 868,-308.2 857.42,-192.03 852.95,-147.32"/>
<polygon fill="midnightblue" stroke="midnightblue" points="856.41,-146.7 851.91,-137.1 849.44,-147.41 856.41,-146.7"/>
</g>
<!-- Node23&#45;&gt;Node14 -->
<g id="edge37" class="edge">
<title>Node23&#45;&gt;Node14</title>
<path fill="none" stroke="midnightblue" d="M989.68,-597.97C1002.08,-595.83 1015.53,-593.67 1028,-592 1111.41,-580.83 1335.54,-603.52 1405,-556 1438.47,-533.11 1446,-515.05 1446,-474.5 1446,-474.5 1446,-474.5 1446,-199 1446,-93.03 1283.23,-71.77 1202,-67.76"/>
<polygon fill="midnightblue" stroke="midnightblue" points="1201.71,-64.24 1191.57,-67.32 1201.42,-71.24 1201.71,-64.24"/>
</g>
<!-- Node23&#45;&gt;Node21 -->
<g id="edge58" class="edge">
<title>Node23&#45;&gt;Node21</title>
<path fill="none" stroke="midnightblue" d="M991.93,-597.95C1003.71,-595.92 1016.3,-593.82 1028,-592 1085.42,-583.06 1246.31,-597.48 1287,-556 1377.5,-463.74 1293.57,-286.58 1259.16,-223.77"/>
<polygon fill="midnightblue" stroke="midnightblue" points="1262.21,-222.05 1254.28,-215.02 1256.1,-225.46 1262.21,-222.05"/>
</g>
<!-- Node23&#45;&gt;Node22 -->
<g id="edge36" class="edge">
<title>Node23&#45;&gt;Node22</title>
<path fill="none" stroke="midnightblue" d="M991.47,-597.93C1003.38,-595.88 1016.15,-593.78 1028,-592 1202.41,-565.87 1407,-650.85 1407,-474.5 1407,-474.5 1407,-474.5 1407,-338.5 1407,-263.13 1363.62,-180.94 1342.84,-145.89"/>
<polygon fill="midnightblue" stroke="midnightblue" points="1345.81,-144.04 1337.64,-137.3 1339.83,-147.67 1345.81,-144.04"/>
</g>
<!-- Node24 -->
<g id="node24" class="node">
<title>Node24</title>
<g id="a_node24"><a xlink:href="template__inspection_8hpp.html" target="_top" xlink:title="Provides bio::type_list and auxiliary type traits.">
<polygon fill="white" stroke="black" points="898,-257.5 898,-287.5 1038,-287.5 1038,-257.5 898,-257.5"/>
<text text-anchor="start" x="906" y="-275.5" font-family="Helvetica,sans-Serif" font-size="10.00">bio/meta/type_traits</text>
<text text-anchor="middle" x="968" y="-264.5" font-family="Helvetica,sans-Serif" font-size="10.00">/template_inspection.hpp</text>
</a>
</g>
</g>
<!-- Node23&#45;&gt;Node24 -->
<g id="edge38" class="edge">
<title>Node23&#45;&gt;Node24</title>
<path fill="none" stroke="midnightblue" d="M939.64,-597.79C929.66,-577.01 906,-522.67 906,-474.5 906,-474.5 906,-474.5 906,-405.5 906,-368.2 909.2,-357.3 926,-324 931.22,-313.66 938.9,-303.58 946.28,-295.18"/>
<polygon fill="midnightblue" stroke="midnightblue" points="948.98,-297.41 953.16,-287.68 943.82,-292.68 948.98,-297.41"/>
</g>
<!-- Node27 -->
<g id="node27" class="node">
<title>Node27</title>
<g id="a_node27"><a xlink:href="pod__tuple_8hpp.html" target="_top" xlink:title="Provides bio::pod_tuple.">
<polygon fill="white" stroke="black" points="1146,-531 1146,-550 1278,-550 1278,-531 1146,-531"/>
<text text-anchor="middle" x="1212" y="-538" font-family="Helvetica,sans-Serif" font-size="10.00">bio/meta/pod_tuple.hpp</text>
</a>
</g>
</g>
<!-- Node23&#45;&gt;Node27 -->
<g id="edge45" class="edge">
<title>Node23&#45;&gt;Node27</title>
<path fill="none" stroke="midnightblue" d="M979.31,-597.94C1027.52,-586.24 1113.95,-565.28 1166.83,-552.46"/>
<polygon fill="midnightblue" stroke="midnightblue" points="1167.72,-555.84 1176.61,-550.08 1166.07,-549.04 1167.72,-555.84"/>
</g>
<!-- Node30 -->
<g id="node30" class="node">
<title>Node30</title>
<g id="a_node30"><a xlink:href="type__list_8hpp.html" target="_top" xlink:title="Provides bio::type_list.">
<polygon fill="white" stroke="black" points="934.5,-324.5 934.5,-354.5 1039.5,-354.5 1039.5,-324.5 934.5,-324.5"/>
<text text-anchor="start" x="942.5" y="-342.5" font-family="Helvetica,sans-Serif" font-size="10.00">bio/meta/type_list</text>
<text text-anchor="middle" x="987" y="-331.5" font-family="Helvetica,sans-Serif" font-size="10.00">/type_list.hpp</text>
</a>
</g>
</g>
<!-- Node23&#45;&gt;Node30 -->
<g id="edge57" class="edge">
<title>Node23&#45;&gt;Node30</title>
<path fill="none" stroke="midnightblue" d="M945.38,-597.95C951.22,-561.86 973.95,-421.23 983.13,-364.46"/>
<polygon fill="midnightblue" stroke="midnightblue" points="986.58,-365.01 984.72,-354.58 979.67,-363.89 986.58,-365.01"/>
</g>
<!-- Node24&#45;&gt;Node2 -->
<g id="edge44" class="edge">
<title>Node24&#45;&gt;Node2</title>
<path fill="none" stroke="midnightblue" d="M956.35,-257.27C934.56,-230.63 887.74,-173.41 864.57,-145.08"/>
<polygon fill="midnightblue" stroke="midnightblue" points="867.23,-142.81 858.19,-137.28 861.81,-147.24 867.23,-142.81"/>
</g>
<!-- Node25 -->
<g id="node25" class="node">
<title>Node25</title>
<g id="a_node25"><a xlink:href="transformation__trait__or_8hpp.html" target="_top" xlink:title="Provides bio::detail::transformation_trait_or.">
<polygon fill="white" stroke="black" points="1013,-179.5 1013,-220.5 1131,-220.5 1131,-179.5 1013,-179.5"/>
<text text-anchor="start" x="1021" y="-208.5" font-family="Helvetica,sans-Serif" font-size="10.00">bio/meta/type_traits</text>
<text text-anchor="start" x="1021" y="-197.5" font-family="Helvetica,sans-Serif" font-size="10.00">/transformation_trait</text>
<text text-anchor="middle" x="1072" y="-186.5" font-family="Helvetica,sans-Serif" font-size="10.00">_or.hpp</text>
</a>
</g>
</g>
<!-- Node24&#45;&gt;Node25 -->
<g id="edge39" class="edge">
<title>Node24&#45;&gt;Node25</title>
<path fill="none" stroke="midnightblue" d="M989.05,-257.23C1002.17,-248.34 1019.42,-236.64 1034.79,-226.22"/>
<polygon fill="midnightblue" stroke="midnightblue" points="1036.79,-229.1 1043.1,-220.59 1032.86,-223.3 1036.79,-229.1"/>
</g>
<!-- Node25&#45;&gt;Node14 -->
<g id="edge40" class="edge">
<title>Node25&#45;&gt;Node14</title>
<path fill="none" stroke="midnightblue" d="M1102.72,-179.35C1115.37,-169.8 1129.12,-157.29 1138,-143 1148.86,-125.52 1153.52,-102.16 1155.52,-85.97"/>
<polygon fill="midnightblue" stroke="midnightblue" points="1159.04,-85.94 1156.55,-75.64 1152.07,-85.24 1159.04,-85.94"/>
</g>
<!-- Node26 -->
<g id="node26" class="node">
<title>Node26</title>
<g id="a_node26"><a xlink:href="meta_2type__traits_2concept_8hpp.html" target="_top" xlink:title="Provides the concepts bio::transformation_trait and bio::unary_type_trait.">
<polygon fill="white" stroke="black" points="1013,-112.5 1013,-142.5 1129,-142.5 1129,-112.5 1013,-112.5"/>
<text text-anchor="start" x="1021" y="-130.5" font-family="Helvetica,sans-Serif" font-size="10.00">bio/meta/type_traits</text>
<text text-anchor="middle" x="1071" y="-119.5" font-family="Helvetica,sans-Serif" font-size="10.00">/concept.hpp</text>
</a>
</g>
</g>
<!-- Node25&#45;&gt;Node26 -->
<g id="edge41" class="edge">
<title>Node25&#45;&gt;Node26</title>
<path fill="none" stroke="midnightblue" d="M1071.72,-179.36C1071.61,-171.23 1071.47,-161.7 1071.35,-153.11"/>
<polygon fill="midnightblue" stroke="midnightblue" points="1074.85,-152.84 1071.2,-142.89 1067.85,-152.94 1074.85,-152.84"/>
</g>
<!-- Node26&#45;&gt;Node9 -->
<g id="edge43" class="edge">
<title>Node26&#45;&gt;Node9</title>
<path fill="none" stroke="midnightblue" d="M1012.91,-114.43C1008.21,-113.57 1003.53,-112.75 999,-112 903.79,-96.31 793.25,-82.89 722.28,-74.89"/>
<polygon fill="midnightblue" stroke="midnightblue" points="722.43,-71.39 712.11,-73.75 721.65,-78.34 722.43,-71.39"/>
</g>
<!-- Node26&#45;&gt;Node14 -->
<g id="edge42" class="edge">
<title>Node26&#45;&gt;Node14</title>
<path fill="none" stroke="midnightblue" d="M1091.38,-112.4C1104.91,-103.04 1122.61,-90.79 1136.22,-81.38"/>
<polygon fill="midnightblue" stroke="midnightblue" points="1138.25,-84.23 1144.49,-75.66 1134.27,-78.47 1138.25,-84.23"/>
</g>
<!-- Node27&#45;&gt;Node9 -->
<g id="edge48" class="edge">
<title>Node27&#45;&gt;Node9</title>
<path fill="none" stroke="midnightblue" d="M1201.56,-530.82C1176.94,-510.39 1116.97,-460.75 1112,-458 838.66,-306.51 623.97,-480.61 450,-221 439.61,-205.49 441.45,-195.59 450,-179 461.75,-156.2 521.64,-124.57 544,-112 566.98,-99.08 594.41,-87.44 615.47,-79.24"/>
<polygon fill="midnightblue" stroke="midnightblue" points="616.87,-82.46 624.96,-75.61 614.37,-75.92 616.87,-82.46"/>
</g>
<!-- Node27&#45;&gt;Node22 -->
<g id="edge46" class="edge">
<title>Node27&#45;&gt;Node22</title>
<path fill="none" stroke="midnightblue" d="M1228.04,-530.99C1242.52,-522.41 1263.18,-507.76 1274,-489 1340.85,-373.15 1336.91,-203.38 1333.45,-147.27"/>
<polygon fill="midnightblue" stroke="midnightblue" points="1336.93,-146.81 1332.75,-137.08 1329.94,-147.3 1336.93,-146.81"/>
</g>
<!-- Node28 -->
<g id="node28" class="node">
<title>Node28</title>
<g id="a_node28"><a xlink:title=" ">
<polygon fill="white" stroke="#bfbfbf" points="1033.5,-464 1033.5,-483 1102.5,-483 1102.5,-464 1033.5,-464"/>
<text text-anchor="middle" x="1068" y="-471" font-family="Helvetica,sans-Serif" font-size="10.00">type_traits</text>
</a>
</g>
</g>
<!-- Node27&#45;&gt;Node28 -->
<g id="edge47" class="edge">
<title>Node27&#45;&gt;Node28</title>
<path fill="none" stroke="midnightblue" d="M1192.88,-530.87C1168.24,-519.75 1125.19,-500.32 1096.64,-487.43"/>
<polygon fill="midnightblue" stroke="midnightblue" points="1097.76,-484.09 1087.2,-483.17 1094.88,-490.47 1097.76,-484.09"/>
</g>
<!-- Node29 -->
<g id="node29" class="node">
<title>Node29</title>
<g id="a_node29"><a xlink:href="type__list_2traits_8hpp.html" target="_top" xlink:title="Provides traits for bio::type_list.">
<polygon fill="white" stroke="black" points="1159.5,-458.5 1159.5,-488.5 1264.5,-488.5 1264.5,-458.5 1159.5,-458.5"/>
<text text-anchor="start" x="1167.5" y="-476.5" font-family="Helvetica,sans-Serif" font-size="10.00">bio/meta/type_list</text>
<text text-anchor="middle" x="1212" y="-465.5" font-family="Helvetica,sans-Serif" font-size="10.00">/traits.hpp</text>
</a>
</g>
</g>
<!-- Node27&#45;&gt;Node29 -->
<g id="edge49" class="edge">
<title>Node27&#45;&gt;Node29</title>
<path fill="none" stroke="midnightblue" d="M1212,-530.73C1212,-522.54 1212,-509.92 1212,-498.71"/>
<polygon fill="midnightblue" stroke="midnightblue" points="1215.5,-498.59 1212,-488.59 1208.5,-498.59 1215.5,-498.59"/>
</g>
<!-- Node29&#45;&gt;Node14 -->
<g id="edge50" class="edge">
<title>Node29&#45;&gt;Node14</title>
<path fill="none" stroke="midnightblue" d="M1227.43,-458.29C1281.52,-406.78 1454.41,-226.89 1362,-112 1342.26,-87.46 1255.71,-75.54 1201.58,-70.39"/>
<polygon fill="midnightblue" stroke="midnightblue" points="1201.82,-66.9 1191.54,-69.48 1201.18,-73.87 1201.82,-66.9"/>
</g>
<!-- Node29&#45;&gt;Node30 -->
<g id="edge51" class="edge">
<title>Node29&#45;&gt;Node30</title>
<path fill="none" stroke="midnightblue" d="M1176.03,-458.46C1153.61,-449.18 1124.47,-436.15 1100,-422 1068.25,-403.64 1034.47,-378.44 1012.2,-360.94"/>
<polygon fill="midnightblue" stroke="midnightblue" points="1014.27,-358.11 1004.26,-354.64 1009.92,-363.6 1014.27,-358.11"/>
</g>
<!-- Node31 -->
<g id="node31" class="node">
<title>Node31</title>
<g id="a_node31"><a xlink:href="type__pack_2traits_8hpp.html" target="_top" xlink:title="Provides various traits for template packs.">
<polygon fill="white" stroke="black" points="1108.5,-391.5 1108.5,-421.5 1221.5,-421.5 1221.5,-391.5 1108.5,-391.5"/>
<text text-anchor="start" x="1116.5" y="-409.5" font-family="Helvetica,sans-Serif" font-size="10.00">bio/meta/type_pack</text>
<text text-anchor="middle" x="1165" y="-398.5" font-family="Helvetica,sans-Serif" font-size="10.00">/traits.hpp</text>
</a>
</g>
</g>
<!-- Node29&#45;&gt;Node31 -->
<g id="edge53" class="edge">
<title>Node29&#45;&gt;Node31</title>
<path fill="none" stroke="midnightblue" d="M1201.8,-458.4C1195.77,-450.05 1187.98,-439.29 1181.13,-429.81"/>
<polygon fill="midnightblue" stroke="midnightblue" points="1183.87,-427.63 1175.18,-421.58 1178.2,-431.73 1183.87,-427.63"/>
</g>
<!-- Node30&#45;&gt;Node24 -->
<g id="edge52" class="edge">
<title>Node30&#45;&gt;Node24</title>
<path fill="none" stroke="midnightblue" d="M982.88,-324.4C980.56,-316.47 977.61,-306.38 974.95,-297.27"/>
<polygon fill="midnightblue" stroke="midnightblue" points="978.28,-296.19 972.11,-287.58 971.56,-298.16 978.28,-296.19"/>
</g>
<!-- Node31&#45;&gt;Node14 -->
<g id="edge54" class="edge">
<title>Node31&#45;&gt;Node14</title>
<path fill="none" stroke="midnightblue" d="M1164.67,-391.39C1163.4,-337.78 1158.89,-146.79 1157.45,-85.84"/>
<polygon fill="midnightblue" stroke="midnightblue" points="1160.94,-85.66 1157.21,-75.75 1153.94,-85.83 1160.94,-85.66"/>
</g>
<!-- Node31&#45;&gt;Node30 -->
<g id="edge56" class="edge">
<title>Node31&#45;&gt;Node30</title>
<path fill="none" stroke="midnightblue" d="M1126.38,-391.4C1099.55,-381.6 1063.62,-368.48 1034.97,-358.02"/>
<polygon fill="midnightblue" stroke="midnightblue" points="1036.14,-354.72 1025.55,-354.58 1033.74,-361.29 1036.14,-354.72"/>
</g>
<!-- Node32 -->
<g id="node32" class="node">
<title>Node32</title>
<g id="a_node32"><a target="_blank" xlink:href="https://en.cppreference.com/w/cpp/header/utility.html" xlink:title=" ">
<polygon fill="white" stroke="black" points="1096.5,-330 1096.5,-349 1141.5,-349 1141.5,-330 1096.5,-330"/>
<text text-anchor="middle" x="1119" y="-337" font-family="Helvetica,sans-Serif" font-size="10.00">utility</text>
</a>
</g>
</g>
<!-- Node31&#45;&gt;Node32 -->
<g id="edge55" class="edge">
<title>Node31&#45;&gt;Node32</title>
<path fill="none" stroke="midnightblue" d="M1155.02,-391.4C1147.99,-381.46 1138.54,-368.11 1131.08,-357.57"/>
<polygon fill="midnightblue" stroke="midnightblue" points="1133.79,-355.34 1125.15,-349.19 1128.07,-359.38 1133.79,-355.34"/>
</g>
<!-- Node34 -->
<g id="node34" class="node">
<title>Node34</title>
<g id="a_node34"><a target="_blank" xlink:href="https://en.cppreference.com/w/cpp/header/iosfwd.html" xlink:title=" ">
<polygon fill="white" stroke="black" points="1474,-531 1474,-550 1522,-550 1522,-531 1474,-531"/>
<text text-anchor="middle" x="1498" y="-538" font-family="Helvetica,sans-Serif" font-size="10.00">iosfwd</text>
</a>
</g>
</g>
<!-- Node33&#45;&gt;Node34 -->
<g id="edge60" class="edge">
<title>Node33&#45;&gt;Node34</title>
<path fill="none" stroke="midnightblue" d="M1161.29,-593.49C1164.23,-592.97 1167.14,-592.47 1170,-592 1298.17,-570.99 1333.97,-587.38 1460,-556 1462.83,-555.3 1465.73,-554.44 1468.61,-553.51"/>
<polygon fill="midnightblue" stroke="midnightblue" points="1469.93,-556.75 1478.17,-550.1 1467.58,-550.16 1469.93,-556.75"/>
</g>
<!-- Node35 -->
<g id="node35" class="node">
<title>Node35</title>
<g id="a_node35"><a xlink:href="add__enum__bitwise__operators_8hpp.html" target="_top" xlink:title="Provides bio::add_enum_bitwise_operators.">
<polygon fill="white" stroke="black" points="972.5,-525.5 972.5,-555.5 1127.5,-555.5 1127.5,-525.5 972.5,-525.5"/>
<text text-anchor="start" x="980.5" y="-543.5" font-family="Helvetica,sans-Serif" font-size="10.00">bio/meta/add_enum_bitwise</text>
<text text-anchor="middle" x="1050" y="-532.5" font-family="Helvetica,sans-Serif" font-size="10.00">_operators.hpp</text>
</a>
</g>
</g>
<!-- Node33&#45;&gt;Node35 -->
<g id="edge61" class="edge">
<title>Node33&#45;&gt;Node35</title>
<path fill="none" stroke="midnightblue" d="M1088.37,-592.4C1082.08,-584.05 1073.96,-573.29 1066.82,-563.81"/>
<polygon fill="midnightblue" stroke="midnightblue" points="1069.43,-561.45 1060.61,-555.58 1063.84,-565.67 1069.43,-561.45"/>
</g>
<!-- Node35&#45;&gt;Node9 -->
<g id="edge63" class="edge">
<title>Node35&#45;&gt;Node9</title>
<path fill="none" stroke="midnightblue" d="M1040.67,-525.15C1034.9,-515.4 1028.03,-501.95 1025,-489 1021.86,-475.58 1023.43,-471.69 1025,-458 1035.26,-368.72 1086.24,-337.85 1047,-257 1036.12,-234.58 1022.57,-237.62 1004,-221 951.76,-174.25 952.38,-143.98 890,-112 837.74,-85.2 771.79,-74.22 722.1,-69.79"/>
<polygon fill="midnightblue" stroke="midnightblue" points="722.32,-66.29 712.07,-68.96 721.75,-73.27 722.32,-66.29"/>
</g>
<!-- Node35&#45;&gt;Node28 -->
<g id="edge62" class="edge">
<title>Node35&#45;&gt;Node28</title>
<path fill="none" stroke="midnightblue" d="M1053.91,-525.4C1056.55,-515.86 1060.06,-503.18 1062.92,-492.86"/>
<polygon fill="midnightblue" stroke="midnightblue" points="1066.3,-493.77 1065.59,-483.19 1059.55,-491.9 1066.3,-493.77"/>
</g>
</g>
</svg>
