<?xml version="1.0" encoding="UTF-8" standalone="no"?>
<!DOCTYPE svg PUBLIC "-//W3C//DTD SVG 1.1//EN"
 "http://www.w3.org/Graphics/SVG/1.1/DTD/svg11.dtd">
<!-- Generated by graphviz version 2.43.0 (0)
 -->
<!-- Title: bio/ranges/views/deep.hpp Pages: 1 -->
<!--zoomable 285 -->
<svg id="main" version="1.1" xmlns="http://www.w3.org/2000/svg" xmlns:xlink="http://www.w3.org/1999/xlink" xml:space="preserve" onload="init(evt)">
<style type="text/css"><![CDATA[
.edge:hover path { stroke: red; }
.edge:hover polygon { stroke: red; fill: red; }
]]></style>
<script type="text/javascript"><![CDATA[
var edges = document.getElementsByTagName('g');
if (edges && edges.length) {
  for (var i=0;i<edges.length;i++) {
    if (edges[i].id.substr(0,4)=='edge') {
      edges[i].setAttribute('class','edge');
    }
  }
}
]]></script>
        <defs>
                <circle id="rim" cx="0" cy="0" r="7"/>
                <circle id="rim2" cx="0" cy="0" r="3.5"/>
                <g id="zoomPlus">
                        <use xlink:href="#rim" fill="#404040">
                                <set attributeName="fill" to="#808080" begin="zoomplus.mouseover" end="zoomplus.mouseout"/>
                        </use>
                        <path d="M-4,0h8M0,-4v8" fill="none" stroke="white" stroke-width="1.5" pointer-events="none"/>
                </g>
                <g id="zoomMin">
                        <use xlink:href="#rim" fill="#404040">
                                <set attributeName="fill" to="#808080" begin="zoomminus.mouseover" end="zoomminus.mouseout"/>
                        </use>
                        <path d="M-4,0h8" fill="none" stroke="white" stroke-width="1.5" pointer-events="none"/>
                </g>
                <g id="dirArrow">
                        <path fill="none" stroke="white" stroke-width="1.5" d="M0,-3.0v7 M-2.5,-0.5L0,-3.0L2.5,-0.5"/>
                </g>
               <g id="resetDef">
                       <use xlink:href="#rim2" fill="#404040">
                               <set attributeName="fill" to="#808080" begin="reset.mouseover" end="reset.mouseout"/>
                       </use>
               </g>
        </defs>

<script type="text/javascript">
var viewWidth = 1337;
var viewHeight = 285;
var sectionId = 'dynsection-1';
</script>
<script xlink:href="svgpan.js"/>
<svg id="graph" class="graph">
<g id="viewport">
<title>bio/ranges/views/deep.hpp</title>
<polygon fill="white" stroke="transparent" points="-4,4 -4,-281 1333,-281 1333,4 -4,4"/>
<!-- Node1 -->
<g id="node1" class="node">
<title>Node1</title>
<g id="a_node1"><a xlink:title="Provides bio::views::deep.">
<polygon fill="#bfbfbf" stroke="black" points="556.5,-257.5 556.5,-276.5 703.5,-276.5 703.5,-257.5 556.5,-257.5"/>
<text text-anchor="middle" x="630" y="-264.5" font-family="Helvetica,sans-Serif" font-size="10.00">bio/ranges/views/deep.hpp</text>
</a>
</g>
</g>
<!-- Node2 -->
<g id="node2" class="node">
<title>Node2</title>
<g id="a_node2"><a xlink:href="ranges_2views_2all_8hpp.html" target="_top" xlink:title="Meta&#45;header for the views submodule .">
<polygon fill="white" stroke="black" points="453.5,-129 453.5,-148 588.5,-148 588.5,-129 453.5,-129"/>
<text text-anchor="middle" x="521" y="-136" font-family="Helvetica,sans-Serif" font-size="10.00">bio/ranges/views/all.hpp</text>
</a>
</g>
</g>
<!-- Node1&#45;&gt;Node2 -->
<g id="edge1" class="edge">
<title>Node1&#45;&gt;Node2</title>
<path fill="none" stroke="midnightblue" d="M545.88,-266.14C384.24,-265.53 42.93,-259.63 7,-221 -2.39,-210.91 -2.26,-200.21 7,-190 36.43,-157.53 320.67,-145.2 453.38,-141.19"/>
<polygon fill="midnightblue" stroke="midnightblue" points="546.25,-269.64 556.26,-266.17 546.28,-262.64 546.25,-269.64"/>
</g>
<!-- Node3 -->
<g id="node3" class="node">
<title>Node3</title>
<g id="a_node3"><a xlink:href="char__to_8hpp.html" target="_top" xlink:title="Provides bio::views::char_to.">
<polygon fill="white" stroke="black" points="16.5,-190.5 16.5,-220.5 139.5,-220.5 139.5,-190.5 16.5,-190.5"/>
<text text-anchor="start" x="24.5" y="-208.5" font-family="Helvetica,sans-Serif" font-size="10.00">bio/ranges/views/char</text>
<text text-anchor="middle" x="78" y="-197.5" font-family="Helvetica,sans-Serif" font-size="10.00">_to.hpp</text>
</a>
</g>
</g>
<!-- Node1&#45;&gt;Node3 -->
<g id="edge2" class="edge">
<title>Node1&#45;&gt;Node3</title>
<path fill="none" stroke="midnightblue" d="M546.21,-261.01C449.8,-254.62 286.88,-241.8 148,-221 145.3,-220.6 142.54,-220.15 139.77,-219.68"/>
<polygon fill="midnightblue" stroke="midnightblue" points="545.99,-264.51 556.2,-261.67 546.45,-257.52 545.99,-264.51"/>
</g>
<!-- Node4 -->
<g id="node4" class="node">
<title>Node4</title>
<g id="a_node4"><a xlink:href="complement_8hpp.html" target="_top" xlink:title="Provides bio::views::complement.">
<polygon fill="white" stroke="black" points="157.5,-196 157.5,-215 342.5,-215 342.5,-196 157.5,-196"/>
<text text-anchor="middle" x="250" y="-203" font-family="Helvetica,sans-Serif" font-size="10.00">bio/ranges/views/complement.hpp</text>
</a>
</g>
</g>
<!-- Node1&#45;&gt;Node4 -->
<g id="edge4" class="edge">
<title>Node1&#45;&gt;Node4</title>
<path fill="none" stroke="midnightblue" d="M565.5,-255.9C492.03,-244.4 373.29,-225.8 304.34,-215.01"/>
<polygon fill="midnightblue" stroke="midnightblue" points="565.13,-259.39 575.55,-257.48 566.21,-252.47 565.13,-259.39"/>
</g>
<!-- Node5 -->
<g id="node5" class="node">
<title>Node5</title>
<g id="a_node5"><a xlink:href="rank__to_8hpp.html" target="_top" xlink:title="Provides bio::views::rank_to.">
<polygon fill="white" stroke="black" points="360,-190.5 360,-220.5 484,-220.5 484,-190.5 360,-190.5"/>
<text text-anchor="start" x="368" y="-208.5" font-family="Helvetica,sans-Serif" font-size="10.00">bio/ranges/views/rank</text>
<text text-anchor="middle" x="422" y="-197.5" font-family="Helvetica,sans-Serif" font-size="10.00">_to.hpp</text>
</a>
</g>
</g>
<!-- Node1&#45;&gt;Node5 -->
<g id="edge6" class="edge">
<title>Node1&#45;&gt;Node5</title>
<path fill="none" stroke="midnightblue" d="M590.18,-254.61C556.25,-244.9 507.35,-230.92 471.02,-220.52"/>
<polygon fill="midnightblue" stroke="midnightblue" points="589.62,-258.09 600.2,-257.48 591.54,-251.36 589.62,-258.09"/>
</g>
<!-- Node6 -->
<g id="node6" class="node">
<title>Node6</title>
<g id="a_node6"><a xlink:href="to__char_8hpp.html" target="_top" xlink:title="Provides bio::views::to_char.">
<polygon fill="white" stroke="black" points="642,-190.5 642,-220.5 754,-220.5 754,-190.5 642,-190.5"/>
<text text-anchor="start" x="650" y="-208.5" font-family="Helvetica,sans-Serif" font-size="10.00">bio/ranges/views/to</text>
<text text-anchor="middle" x="698" y="-197.5" font-family="Helvetica,sans-Serif" font-size="10.00">_char.hpp</text>
</a>
</g>
</g>
<!-- Node1&#45;&gt;Node6 -->
<g id="edge8" class="edge">
<title>Node1&#45;&gt;Node6</title>
<path fill="none" stroke="midnightblue" d="M647.55,-250.65C658.17,-241.35 671.63,-229.57 681.97,-220.52"/>
<polygon fill="midnightblue" stroke="midnightblue" points="644.96,-248.26 639.74,-257.48 649.57,-253.52 644.96,-248.26"/>
</g>
<!-- Node10 -->
<g id="node10" class="node">
<title>Node10</title>
<g id="a_node10"><a xlink:href="ranges_2views_2to__lower_8hpp.html" target="_top" xlink:title="Provides bio::views::to_lower.">
<polygon fill="white" stroke="black" points="1087,-190.5 1087,-220.5 1199,-220.5 1199,-190.5 1087,-190.5"/>
<text text-anchor="start" x="1095" y="-208.5" font-family="Helvetica,sans-Serif" font-size="10.00">bio/ranges/views/to</text>
<text text-anchor="middle" x="1143" y="-197.5" font-family="Helvetica,sans-Serif" font-size="10.00">_lower.hpp</text>
</a>
</g>
</g>
<!-- Node1&#45;&gt;Node10 -->
<g id="edge13" class="edge">
<title>Node1&#45;&gt;Node10</title>
<path fill="none" stroke="midnightblue" d="M714.06,-260.67C804.58,-254.22 952.61,-241.57 1079,-221 1081.58,-220.58 1084.22,-220.12 1086.88,-219.62"/>
<polygon fill="midnightblue" stroke="midnightblue" points="713.59,-257.2 703.86,-261.39 714.08,-264.18 713.59,-257.2"/>
</g>
<!-- Node11 -->
<g id="node11" class="node">
<title>Node11</title>
<g id="a_node11"><a xlink:href="to__rank_8hpp.html" target="_top" xlink:title="Provides bio::views::to_rank.">
<polygon fill="white" stroke="black" points="772,-190.5 772,-220.5 884,-220.5 884,-190.5 772,-190.5"/>
<text text-anchor="start" x="780" y="-208.5" font-family="Helvetica,sans-Serif" font-size="10.00">bio/ranges/views/to</text>
<text text-anchor="middle" x="828" y="-197.5" font-family="Helvetica,sans-Serif" font-size="10.00">_rank.hpp</text>
</a>
</g>
</g>
<!-- Node1&#45;&gt;Node11 -->
<g id="edge14" class="edge">
<title>Node1&#45;&gt;Node11</title>
<path fill="none" stroke="midnightblue" d="M668.32,-254.48C700.6,-244.78 746.9,-230.87 781.33,-220.52"/>
<polygon fill="midnightblue" stroke="midnightblue" points="666.94,-251.25 658.37,-257.48 668.95,-257.95 666.94,-251.25"/>
</g>
<!-- Node12 -->
<g id="node12" class="node">
<title>Node12</title>
<g id="a_node12"><a xlink:href="to__upper_8hpp.html" target="_top" xlink:title="Provides bio::views::to_upper.">
<polygon fill="white" stroke="black" points="1217,-190.5 1217,-220.5 1329,-220.5 1329,-190.5 1217,-190.5"/>
<text text-anchor="start" x="1225" y="-208.5" font-family="Helvetica,sans-Serif" font-size="10.00">bio/ranges/views/to</text>
<text text-anchor="middle" x="1273" y="-197.5" font-family="Helvetica,sans-Serif" font-size="10.00">_upper.hpp</text>
</a>
</g>
</g>
<!-- Node1&#45;&gt;Node12 -->
<g id="edge17" class="edge">
<title>Node1&#45;&gt;Node12</title>
<path fill="none" stroke="midnightblue" d="M714.12,-263.19C827.01,-258.57 1033.52,-247.12 1208,-221 1210.86,-220.57 1213.78,-220.09 1216.72,-219.57"/>
<polygon fill="midnightblue" stroke="midnightblue" points="713.68,-259.7 703.82,-263.6 713.96,-266.7 713.68,-259.7"/>
</g>
<!-- Node13 -->
<g id="node13" class="node">
<title>Node13</title>
<g id="a_node13"><a xlink:href="translate_8hpp.html" target="_top" xlink:title="Provides bio::views::translate and bio::views::translate_single.">
<polygon fill="white" stroke="black" points="902.5,-196 902.5,-215 1069.5,-215 1069.5,-196 902.5,-196"/>
<text text-anchor="middle" x="986" y="-203" font-family="Helvetica,sans-Serif" font-size="10.00">bio/ranges/views/translate.hpp</text>
</a>
</g>
</g>
<!-- Node1&#45;&gt;Node13 -->
<g id="edge18" class="edge">
<title>Node1&#45;&gt;Node13</title>
<path fill="none" stroke="midnightblue" d="M691.27,-255.76C760.16,-244.25 870.76,-225.76 935.09,-215.01"/>
<polygon fill="midnightblue" stroke="midnightblue" points="690.29,-252.37 681,-257.48 691.44,-259.28 690.29,-252.37"/>
</g>
<!-- Node15 -->
<g id="node15" class="node">
<title>Node15</title>
<g id="a_node15"><a xlink:href="trim__quality_8hpp.html" target="_top" xlink:title="Provides bio::views::trim_quality.">
<polygon fill="white" stroke="black" points="502,-190.5 502,-220.5 624,-220.5 624,-190.5 502,-190.5"/>
<text text-anchor="start" x="510" y="-208.5" font-family="Helvetica,sans-Serif" font-size="10.00">bio/ranges/views/trim</text>
<text text-anchor="middle" x="563" y="-197.5" font-family="Helvetica,sans-Serif" font-size="10.00">_quality.hpp</text>
</a>
</g>
</g>
<!-- Node1&#45;&gt;Node15 -->
<g id="edge21" class="edge">
<title>Node1&#45;&gt;Node15</title>
<path fill="none" stroke="midnightblue" d="M612.71,-250.65C602.24,-241.35 588.98,-229.57 578.79,-220.52"/>
<polygon fill="midnightblue" stroke="midnightblue" points="610.6,-253.45 620.4,-257.48 615.25,-248.22 610.6,-253.45"/>
</g>
<!-- Node3&#45;&gt;Node2 -->
<g id="edge3" class="edge">
<title>Node3&#45;&gt;Node2</title>
<path fill="none" stroke="midnightblue" d="M149.88,-189.74C261.51,-170.91 380.7,-155.84 453.4,-147.22"/>
<polygon fill="midnightblue" stroke="midnightblue" points="149.06,-186.33 139.79,-191.46 150.24,-193.23 149.06,-186.33"/>
</g>
<!-- Node4&#45;&gt;Node2 -->
<g id="edge5" class="edge">
<title>Node4&#45;&gt;Node2</title>
<path fill="none" stroke="midnightblue" d="M295.59,-193.56C349.02,-180.75 436.43,-159.78 485.21,-148.08"/>
<polygon fill="midnightblue" stroke="midnightblue" points="294.61,-190.2 285.7,-195.94 296.25,-197.01 294.61,-190.2"/>
</g>
<!-- Node5&#45;&gt;Node2 -->
<g id="edge7" class="edge">
<title>Node5&#45;&gt;Node2</title>
<path fill="none" stroke="midnightblue" d="M451.99,-184.81C470.72,-172.51 493.88,-157.3 508.04,-148.01"/>
<polygon fill="midnightblue" stroke="midnightblue" points="449.92,-181.98 443.48,-190.4 453.76,-187.83 449.92,-181.98"/>
</g>
<!-- Node6&#45;&gt;Node2 -->
<g id="edge12" class="edge">
<title>Node6&#45;&gt;Node2</title>
<path fill="none" stroke="midnightblue" d="M650.2,-186.95C615.82,-174.32 570.97,-157.85 544.16,-148.01"/>
<polygon fill="midnightblue" stroke="midnightblue" points="649,-190.23 659.59,-190.4 651.41,-183.66 649,-190.23"/>
</g>
<!-- Node7 -->
<g id="node7" class="node">
<title>Node7</title>
<g id="a_node7"><a xlink:href="bitcompressed__vector_8hpp.html" target="_top" xlink:title="Provides bio::ranges::bitcompressed_vector.">
<polygon fill="white" stroke="black" points="665,-123.5 665,-153.5 813,-153.5 813,-123.5 665,-123.5"/>
<text text-anchor="start" x="673" y="-141.5" font-family="Helvetica,sans-Serif" font-size="10.00">bio/ranges/container</text>
<text text-anchor="middle" x="739" y="-130.5" font-family="Helvetica,sans-Serif" font-size="10.00">/bitcompressed_vector.hpp</text>
</a>
</g>
</g>
<!-- Node6&#45;&gt;Node7 -->
<g id="edge9" class="edge">
<title>Node6&#45;&gt;Node7</title>
<path fill="none" stroke="midnightblue" d="M712.27,-181.87C718.21,-172.46 724.91,-161.83 730.12,-153.58"/>
<polygon fill="midnightblue" stroke="midnightblue" points="709.27,-180.07 706.89,-190.4 715.19,-183.81 709.27,-180.07"/>
</g>
<!-- Node8 -->
<g id="node8" class="node">
<title>Node8</title>
<g id="a_node8"><a xlink:href="ranges_2container_2all_8hpp.html" target="_top" xlink:title="Meta&#45;header for the container submodule .">
<polygon fill="white" stroke="black" points="681,-56.5 681,-86.5 797,-86.5 797,-56.5 681,-56.5"/>
<text text-anchor="start" x="689" y="-74.5" font-family="Helvetica,sans-Serif" font-size="10.00">bio/ranges/container</text>
<text text-anchor="middle" x="739" y="-63.5" font-family="Helvetica,sans-Serif" font-size="10.00">/all.hpp</text>
</a>
</g>
</g>
<!-- Node7&#45;&gt;Node8 -->
<g id="edge10" class="edge">
<title>Node7&#45;&gt;Node8</title>
<path fill="none" stroke="midnightblue" d="M739,-113.11C739,-104.15 739,-94.32 739,-86.58"/>
<polygon fill="midnightblue" stroke="midnightblue" points="735.5,-113.4 739,-123.4 742.5,-113.4 735.5,-113.4"/>
</g>
<!-- Node9 -->
<g id="node9" class="node">
<title>Node9</title>
<g id="a_node9"><a xlink:href="ranges_2all_8hpp.html" target="_top" xlink:title="Meta&#45;header for the ranges module .">
<polygon fill="white" stroke="black" points="687,-0.5 687,-19.5 791,-19.5 791,-0.5 687,-0.5"/>
<text text-anchor="middle" x="739" y="-7.5" font-family="Helvetica,sans-Serif" font-size="10.00">bio/ranges/all.hpp</text>
</a>
</g>
</g>
<!-- Node8&#45;&gt;Node9 -->
<g id="edge11" class="edge">
<title>Node8&#45;&gt;Node9</title>
<path fill="none" stroke="midnightblue" d="M739,-46.29C739,-36.86 739,-26.65 739,-19.66"/>
<polygon fill="midnightblue" stroke="midnightblue" points="735.5,-46.4 739,-56.4 742.5,-46.4 735.5,-46.4"/>
</g>
<!-- Node11&#45;&gt;Node2 -->
<g id="edge16" class="edge">
<title>Node11&#45;&gt;Node2</title>
<path fill="none" stroke="midnightblue" d="M761.79,-189.75C685.98,-173.44 609.22,-157.57 563,-148.08"/>
<polygon fill="midnightblue" stroke="midnightblue" points="761.48,-193.27 771.99,-191.95 762.95,-186.43 761.48,-193.27"/>
</g>
<!-- Node11&#45;&gt;Node7 -->
<g id="edge15" class="edge">
<title>Node11&#45;&gt;Node7</title>
<path fill="none" stroke="midnightblue" d="M800.55,-184.45C786.85,-174.45 770.63,-162.6 758.27,-153.58"/>
<polygon fill="midnightblue" stroke="midnightblue" points="798.55,-187.32 808.69,-190.4 802.67,-181.67 798.55,-187.32"/>
</g>
<!-- Node13&#45;&gt;Node2 -->
<g id="edge19" class="edge">
<title>Node13&#45;&gt;Node2</title>
<path fill="none" stroke="midnightblue" d="M922.3,-194.4C912.5,-192.89 902.48,-191.38 893,-190 785.78,-174.37 660.93,-157.74 586.57,-148"/>
<polygon fill="midnightblue" stroke="midnightblue" points="922,-197.89 932.42,-195.96 923.07,-190.98 922,-197.89"/>
</g>
<!-- Node14 -->
<g id="node14" class="node">
<title>Node14</title>
<g id="a_node14"><a xlink:href="translate__join_8hpp.html" target="_top" xlink:title="Provides bio::views::translate_join.">
<polygon fill="white" stroke="black" points="913,-123.5 913,-153.5 1059,-153.5 1059,-123.5 913,-123.5"/>
<text text-anchor="start" x="921" y="-141.5" font-family="Helvetica,sans-Serif" font-size="10.00">bio/ranges/views/translate</text>
<text text-anchor="middle" x="986" y="-130.5" font-family="Helvetica,sans-Serif" font-size="10.00">_join.hpp</text>
</a>
</g>
</g>
<!-- Node13&#45;&gt;Node14 -->
<g id="edge20" class="edge">
<title>Node13&#45;&gt;Node14</title>
<path fill="none" stroke="midnightblue" d="M986,-185.41C986,-175.22 986,-162.9 986,-153.59"/>
<polygon fill="midnightblue" stroke="midnightblue" points="982.5,-185.73 986,-195.73 989.5,-185.73 982.5,-185.73"/>
</g>
<!-- Node15&#45;&gt;Node2 -->
<g id="edge22" class="edge">
<title>Node15&#45;&gt;Node2</title>
<path fill="none" stroke="midnightblue" d="M548.44,-181.97C540.92,-170.33 532.18,-156.8 526.62,-148.19"/>
<polygon fill="midnightblue" stroke="midnightblue" points="545.52,-183.9 553.88,-190.4 551.4,-180.1 545.52,-183.9"/>
</g>
</g>
</svg>
        <g id="navigator" transform="translate(0 0)" fill="#404254">
                <rect fill="#f2f5e9" fill-opacity="0.5" stroke="#606060" stroke-width=".5" x="0" y="0" width="60" height="60"/>
                <use id="zoomplus" xlink:href="#zoomPlus" x="17" y="9" onmousedown="handleZoom(evt,'in')"/>
                <use id="zoomminus" xlink:href="#zoomMin" x="42" y="9" onmousedown="handleZoom(evt,'out')"/>
                <use id="reset" xlink:href="#resetDef" x="30" y="36" onmousedown="handleReset()"/>
                <g id="arrowUp" xlink:href="#dirArrow" transform="translate(30 24)" onmousedown="handlePan(0,-1)">
                  <use xlink:href="#rim" fill="#404040">
                        <set attributeName="fill" to="#808080" begin="arrowUp.mouseover" end="arrowUp.mouseout"/>
                  </use>
                  <path fill="none" stroke="white" stroke-width="1.5" d="M0,-3.0v7 M-2.5,-0.5L0,-3.0L2.5,-0.5"/>
                </g>
                <g id="arrowRight" xlink:href="#dirArrow" transform="rotate(90) translate(36 -43)" onmousedown="handlePan(1,0)">
                  <use xlink:href="#rim" fill="#404040">
                        <set attributeName="fill" to="#808080" begin="arrowRight.mouseover" end="arrowRight.mouseout"/>
                  </use>
                  <path fill="none" stroke="white" stroke-width="1.5" d="M0,-3.0v7 M-2.5,-0.5L0,-3.0L2.5,-0.5"/>
                </g>
                <g id="arrowDown" xlink:href="#dirArrow" transform="rotate(180) translate(-30 -48)" onmousedown="handlePan(0,1)">
                  <use xlink:href="#rim" fill="#404040">
                        <set attributeName="fill" to="#808080" begin="arrowDown.mouseover" end="arrowDown.mouseout"/>
                  </use>
                  <path fill="none" stroke="white" stroke-width="1.5" d="M0,-3.0v7 M-2.5,-0.5L0,-3.0L2.5,-0.5"/>
                </g>
                <g id="arrowLeft" xlink:href="#dirArrow" transform="rotate(270) translate(-36 17)" onmousedown="handlePan(-1,0)">
                  <use xlink:href="#rim" fill="#404040">
                        <set attributeName="fill" to="#808080" begin="arrowLeft.mouseover" end="arrowLeft.mouseout"/>
                  </use>
                  <path fill="none" stroke="white" stroke-width="1.5" d="M0,-3.0v7 M-2.5,-0.5L0,-3.0L2.5,-0.5"/>
                </g>
        </g>
        <svg viewBox="0 0 15 15" width="100%" height="30px" preserveAspectRatio="xMaxYMin meet">
         <g id="arrow_out" transform="scale(0.3 0.3)">
          <a xlink:href="deep_8hpp__dep__incl_org.svg" target="_base">
           <rect id="button" ry="5" rx="5" y="6" x="6" height="38" width="38"
                fill="#f2f5e9" fill-opacity="0.5" stroke="#606060" stroke-width="1.0"/>
           <path id="arrow"
             d="M 11.500037,31.436501 C 11.940474,20.09759 22.043105,11.32322 32.158766,21.979434 L 37.068811,17.246167 C 37.068811,17.246167 37.088388,32 37.088388,32 L 22.160133,31.978069 C 22.160133,31.978069 26.997745,27.140456 26.997745,27.140456 C 18.528582,18.264221 13.291696,25.230495 11.500037,31.436501 z"
             style="fill:#404040;"/>
          </a>
         </g>
        </svg>
</svg>
