<?xml version="1.0" encoding="UTF-8" standalone="no"?>
<!DOCTYPE svg PUBLIC "-//W3C//DTD SVG 1.1//EN"
 "http://www.w3.org/Graphics/SVG/1.1/DTD/svg11.dtd">
<!-- Generated by graphviz version 2.43.0 (0)
 -->
<!-- Title: bio/ranges/views/deep.hpp Pages: 1 -->
<!--zoomable 285 -->
<svg id="main" version="1.1" xmlns="http://www.w3.org/2000/svg" xmlns:xlink="http://www.w3.org/1999/xlink" xml:space="preserve" onload="init(evt)">
<style type="text/css"><![CDATA[
.edge:hover path { stroke: red; }
.edge:hover polygon { stroke: red; fill: red; }
]]></style>
<script type="text/javascript"><![CDATA[
var edges = document.getElementsByTagName('g');
if (edges && edges.length) {
  for (var i=0;i<edges.length;i++) {
    if (edges[i].id.substr(0,4)=='edge') {
      edges[i].setAttribute('class','edge');
    }
  }
}
]]></script>
        <defs>
                <circle id="rim" cx="0" cy="0" r="7"/>
                <circle id="rim2" cx="0" cy="0" r="3.5"/>
                <g id="zoomPlus">
                        <use xlink:href="#rim" fill="#404040">
                                <set attributeName="fill" to="#808080" begin="zoomplus.mouseover" end="zoomplus.mouseout"/>
                        </use>
                        <path d="M-4,0h8M0,-4v8" fill="none" stroke="white" stroke-width="1.5" pointer-events="none"/>
                </g>
                <g id="zoomMin">
                        <use xlink:href="#rim" fill="#404040">
                                <set attributeName="fill" to="#808080" begin="zoomminus.mouseover" end="zoomminus.mouseout"/>
                        </use>
                        <path d="M-4,0h8" fill="none" stroke="white" stroke-width="1.5" pointer-events="none"/>
                </g>
                <g id="dirArrow">
                        <path fill="none" stroke="white" stroke-width="1.5" d="M0,-3.0v7 M-2.5,-0.5L0,-3.0L2.5,-0.5"/>
                </g>
               <g id="resetDef">
                       <use xlink:href="#rim2" fill="#404040">
                               <set attributeName="fill" to="#808080" begin="reset.mouseover" end="reset.mouseout"/>
                       </use>
               </g>
        </defs>

<script type="text/javascript">
var viewWidth = 1530;
var viewHeight = 285;
var sectionId = 'dynsection-1';
</script>
<script xlink:href="svgpan.js"/>
<svg id="graph" class="graph">
<g id="viewport">
<title>bio/ranges/views/deep.hpp</title>
<polygon fill="white" stroke="transparent" points="-4,4 -4,-281 1526,-281 1526,4 -4,4"/>
<!-- Node1 -->
<g id="node1" class="node">
<title>Node1</title>
<g id="a_node1"><a xlink:title="Provides bio::views::deep.">
<polygon fill="#bfbfbf" stroke="black" points="579.5,-257.5 579.5,-276.5 726.5,-276.5 726.5,-257.5 579.5,-257.5"/>
<text text-anchor="middle" x="653" y="-264.5" font-family="Helvetica,sans-Serif" font-size="10.00">bio/ranges/views/deep.hpp</text>
</a>
</g>
</g>
<!-- Node2 -->
<g id="node2" class="node">
<title>Node2</title>
<g id="a_node2"><a xlink:href="add__reverse__complement_8hpp.html" target="_top" xlink:title="Provides bio::views::add_reverse_complement.">
<polygon fill="white" stroke="black" points="0,-190.5 0,-220.5 146,-220.5 146,-190.5 0,-190.5"/>
<text text-anchor="start" x="8" y="-208.5" font-family="Helvetica,sans-Serif" font-size="10.00">bio/ranges/views/add</text>
<text text-anchor="middle" x="73" y="-197.5" font-family="Helvetica,sans-Serif" font-size="10.00">_reverse_complement.hpp</text>
</a>
</g>
</g>
<!-- Node1&#45;&gt;Node2 -->
<g id="edge1" class="edge">
<title>Node1&#45;&gt;Node2</title>
<path fill="none" stroke="midnightblue" d="M569.14,-260.25C470.88,-253.07 303.25,-239.45 160,-221 155.44,-220.41 150.76,-219.76 146.04,-219.08"/>
<polygon fill="midnightblue" stroke="midnightblue" points="569.08,-263.75 579.31,-260.99 569.59,-256.77 569.08,-263.75"/>
</g>
<!-- Node3 -->
<g id="node3" class="node">
<title>Node3</title>
<g id="a_node3"><a xlink:href="ranges_2views_2all_8hpp.html" target="_top" xlink:title="Meta&#45;header for the views submodule .">
<polygon fill="white" stroke="black" points="499.5,-62 499.5,-81 634.5,-81 634.5,-62 499.5,-62"/>
<text text-anchor="middle" x="567" y="-69" font-family="Helvetica,sans-Serif" font-size="10.00">bio/ranges/views/all.hpp</text>
</a>
</g>
</g>
<!-- Node1&#45;&gt;Node3 -->
<g id="edge2" class="edge">
<title>Node1&#45;&gt;Node3</title>
<path fill="none" stroke="midnightblue" d="M569.02,-262.96C452.4,-257.86 253.14,-245.63 231,-221 220.27,-209.06 210.34,-147.8 232,-123 266.05,-84.02 411.62,-74.77 499.28,-72.79"/>
<polygon fill="midnightblue" stroke="midnightblue" points="569.21,-266.47 579.35,-263.4 569.51,-259.48 569.21,-266.47"/>
</g>
<!-- Node4 -->
<g id="node4" class="node">
<title>Node4</title>
<g id="a_node4"><a xlink:href="char__to_8hpp.html" target="_top" xlink:title="Provides bio::views::char_to.">
<polygon fill="white" stroke="black" points="400.5,-190.5 400.5,-220.5 523.5,-220.5 523.5,-190.5 400.5,-190.5"/>
<text text-anchor="start" x="408.5" y="-208.5" font-family="Helvetica,sans-Serif" font-size="10.00">bio/ranges/views/char</text>
<text text-anchor="middle" x="462" y="-197.5" font-family="Helvetica,sans-Serif" font-size="10.00">_to.hpp</text>
</a>
</g>
</g>
<!-- Node1&#45;&gt;Node4 -->
<g id="edge3" class="edge">
<title>Node1&#45;&gt;Node4</title>
<path fill="none" stroke="midnightblue" d="M616.03,-254.48C584.89,-244.78 540.23,-230.87 507.01,-220.52"/>
<polygon fill="midnightblue" stroke="midnightblue" points="615.05,-257.84 625.63,-257.48 617.13,-251.16 615.05,-257.84"/>
</g>
<!-- Node6 -->
<g id="node6" class="node">
<title>Node6</title>
<g id="a_node6"><a xlink:href="complement_8hpp.html" target="_top" xlink:title="Provides bio::views::complement.">
<polygon fill="white" stroke="black" points="560.5,-129 560.5,-148 745.5,-148 745.5,-129 560.5,-129"/>
<text text-anchor="middle" x="653" y="-136" font-family="Helvetica,sans-Serif" font-size="10.00">bio/ranges/views/complement.hpp</text>
</a>
</g>
</g>
<!-- Node1&#45;&gt;Node6 -->
<g id="edge6" class="edge">
<title>Node1&#45;&gt;Node6</title>
<path fill="none" stroke="midnightblue" d="M653,-246.94C653,-219.12 653,-168.54 653,-148.26"/>
<polygon fill="midnightblue" stroke="midnightblue" points="649.5,-247.31 653,-257.31 656.5,-247.31 649.5,-247.31"/>
</g>
<!-- Node7 -->
<g id="node7" class="node">
<title>Node7</title>
<g id="a_node7"><a xlink:href="rank__to_8hpp.html" target="_top" xlink:title="Provides bio::views::rank_to.">
<polygon fill="white" stroke="black" points="60,-123.5 60,-153.5 184,-153.5 184,-123.5 60,-123.5"/>
<text text-anchor="start" x="68" y="-141.5" font-family="Helvetica,sans-Serif" font-size="10.00">bio/ranges/views/rank</text>
<text text-anchor="middle" x="122" y="-130.5" font-family="Helvetica,sans-Serif" font-size="10.00">_to.hpp</text>
</a>
</g>
</g>
<!-- Node1&#45;&gt;Node7 -->
<g id="edge8" class="edge">
<title>Node1&#45;&gt;Node7</title>
<path fill="none" stroke="midnightblue" d="M569.43,-264.73C456.3,-261.83 261.28,-252.31 198,-221 167.31,-205.81 142.73,-172.67 130.48,-153.66"/>
<polygon fill="midnightblue" stroke="midnightblue" points="569.36,-268.23 579.44,-264.98 569.53,-261.23 569.36,-268.23"/>
</g>
<!-- Node8 -->
<g id="node8" class="node">
<title>Node8</title>
<g id="a_node8"><a xlink:href="to__char_8hpp.html" target="_top" xlink:title="Provides bio::views::to_char.">
<polygon fill="white" stroke="black" points="1020,-190.5 1020,-220.5 1132,-220.5 1132,-190.5 1020,-190.5"/>
<text text-anchor="start" x="1028" y="-208.5" font-family="Helvetica,sans-Serif" font-size="10.00">bio/ranges/views/to</text>
<text text-anchor="middle" x="1076" y="-197.5" font-family="Helvetica,sans-Serif" font-size="10.00">_char.hpp</text>
</a>
</g>
</g>
<!-- Node1&#45;&gt;Node8 -->
<g id="edge10" class="edge">
<title>Node1&#45;&gt;Node8</title>
<path fill="none" stroke="midnightblue" d="M730.97,-256.19C798.93,-247.49 900.09,-234.14 988,-221 998.26,-219.47 1009.18,-217.74 1019.71,-216.03"/>
<polygon fill="midnightblue" stroke="midnightblue" points="730.25,-252.76 720.78,-257.5 731.14,-259.7 730.25,-252.76"/>
</g>
<!-- Node12 -->
<g id="node12" class="node">
<title>Node12</title>
<g id="a_node12"><a xlink:href="ranges_2views_2to__lower_8hpp.html" target="_top" xlink:title="Provides bio::views::to_lower.">
<polygon fill="white" stroke="black" points="1280,-190.5 1280,-220.5 1392,-220.5 1392,-190.5 1280,-190.5"/>
<text text-anchor="start" x="1288" y="-208.5" font-family="Helvetica,sans-Serif" font-size="10.00">bio/ranges/views/to</text>
<text text-anchor="middle" x="1336" y="-197.5" font-family="Helvetica,sans-Serif" font-size="10.00">_lower.hpp</text>
</a>
</g>
</g>
<!-- Node1&#45;&gt;Node12 -->
<g id="edge15" class="edge">
<title>Node1&#45;&gt;Node12</title>
<path fill="none" stroke="midnightblue" d="M736.78,-263.8C856.01,-259.78 1081.23,-248.92 1271,-221 1273.86,-220.58 1276.78,-220.1 1279.72,-219.58"/>
<polygon fill="midnightblue" stroke="midnightblue" points="736.51,-260.3 726.63,-264.13 736.74,-267.3 736.51,-260.3"/>
</g>
<!-- Node13 -->
<g id="node13" class="node">
<title>Node13</title>
<g id="a_node13"><a xlink:href="to__rank_8hpp.html" target="_top" xlink:title="Provides bio::views::to_rank.">
<polygon fill="white" stroke="black" points="1150,-190.5 1150,-220.5 1262,-220.5 1262,-190.5 1150,-190.5"/>
<text text-anchor="start" x="1158" y="-208.5" font-family="Helvetica,sans-Serif" font-size="10.00">bio/ranges/views/to</text>
<text text-anchor="middle" x="1206" y="-197.5" font-family="Helvetica,sans-Serif" font-size="10.00">_rank.hpp</text>
</a>
</g>
</g>
<!-- Node1&#45;&gt;Node13 -->
<g id="edge16" class="edge">
<title>Node1&#45;&gt;Node13</title>
<path fill="none" stroke="midnightblue" d="M736.62,-261.54C834.13,-255.59 999.95,-243.14 1141,-221 1143.86,-220.55 1146.77,-220.05 1149.71,-219.52"/>
<polygon fill="midnightblue" stroke="midnightblue" points="736.3,-258.05 726.53,-262.15 736.72,-265.04 736.3,-258.05"/>
</g>
<!-- Node14 -->
<g id="node14" class="node">
<title>Node14</title>
<g id="a_node14"><a xlink:href="to__upper_8hpp.html" target="_top" xlink:title="Provides bio::views::to_upper.">
<polygon fill="white" stroke="black" points="1410,-190.5 1410,-220.5 1522,-220.5 1522,-190.5 1410,-190.5"/>
<text text-anchor="start" x="1418" y="-208.5" font-family="Helvetica,sans-Serif" font-size="10.00">bio/ranges/views/to</text>
<text text-anchor="middle" x="1466" y="-197.5" font-family="Helvetica,sans-Serif" font-size="10.00">_upper.hpp</text>
</a>
</g>
</g>
<!-- Node1&#45;&gt;Node14 -->
<g id="edge19" class="edge">
<title>Node1&#45;&gt;Node14</title>
<path fill="none" stroke="midnightblue" d="M736.79,-265.3C875.56,-263.18 1161.58,-254.69 1401,-221 1403.86,-220.6 1406.79,-220.13 1409.73,-219.63"/>
<polygon fill="midnightblue" stroke="midnightblue" points="736.59,-261.81 726.65,-265.45 736.7,-268.81 736.59,-261.81"/>
</g>
<!-- Node15 -->
<g id="node15" class="node">
<title>Node15</title>
<g id="a_node15"><a xlink:href="translate_8hpp.html" target="_top" xlink:title="Provides bio::views::translate and bio::views::translate_single.">
<polygon fill="white" stroke="black" points="928.5,-129 928.5,-148 1095.5,-148 1095.5,-129 928.5,-129"/>
<text text-anchor="middle" x="1012" y="-136" font-family="Helvetica,sans-Serif" font-size="10.00">bio/ranges/views/translate.hpp</text>
</a>
</g>
</g>
<!-- Node1&#45;&gt;Node15 -->
<g id="edge20" class="edge">
<title>Node1&#45;&gt;Node15</title>
<path fill="none" stroke="midnightblue" d="M736.77,-263.54C790.99,-259.17 861.87,-248.15 919,-221 956.81,-203.03 990.98,-165.15 1005.12,-148.12"/>
<polygon fill="midnightblue" stroke="midnightblue" points="736.21,-260.07 726.5,-264.3 736.73,-267.05 736.21,-260.07"/>
</g>
<!-- Node16 -->
<g id="node16" class="node">
<title>Node16</title>
<g id="a_node16"><a xlink:href="translate__single_8hpp.html" target="_top" xlink:title="Provides bio::views::translate and bio::views::translate_single.">
<polygon fill="white" stroke="black" points="764,-190.5 764,-220.5 910,-220.5 910,-190.5 764,-190.5"/>
<text text-anchor="start" x="772" y="-208.5" font-family="Helvetica,sans-Serif" font-size="10.00">bio/ranges/views/translate</text>
<text text-anchor="middle" x="837" y="-197.5" font-family="Helvetica,sans-Serif" font-size="10.00">_single.hpp</text>
</a>
</g>
</g>
<!-- Node1&#45;&gt;Node16 -->
<g id="edge22" class="edge">
<title>Node1&#45;&gt;Node16</title>
<path fill="none" stroke="midnightblue" d="M689.01,-254.36C718.99,-244.66 761.77,-230.83 793.63,-220.52"/>
<polygon fill="midnightblue" stroke="midnightblue" points="687.8,-251.07 679.36,-257.48 689.95,-257.73 687.8,-251.07"/>
</g>
<!-- Node18 -->
<g id="node18" class="node">
<title>Node18</title>
<g id="a_node18"><a xlink:href="trim__quality_8hpp.html" target="_top" xlink:title="Provides bio::views::trim_quality.">
<polygon fill="white" stroke="black" points="420,-123.5 420,-153.5 542,-153.5 542,-123.5 420,-123.5"/>
<text text-anchor="start" x="428" y="-141.5" font-family="Helvetica,sans-Serif" font-size="10.00">bio/ranges/views/trim</text>
<text text-anchor="middle" x="481" y="-130.5" font-family="Helvetica,sans-Serif" font-size="10.00">_quality.hpp</text>
</a>
</g>
</g>
<!-- Node1&#45;&gt;Node18 -->
<g id="edge25" class="edge">
<title>Node1&#45;&gt;Node18</title>
<path fill="none" stroke="midnightblue" d="M633.09,-251.36C599.78,-226.86 533.17,-177.87 500.28,-153.68"/>
<polygon fill="midnightblue" stroke="midnightblue" points="631.05,-254.2 641.18,-257.31 635.2,-248.56 631.05,-254.2"/>
</g>
<!-- Node19 -->
<g id="node19" class="node">
<title>Node19</title>
<g id="a_node19"><a xlink:href="validate__char__for_8hpp.html" target="_top" xlink:title="Provides bio::ranges::views::validate_char_for.">
<polygon fill="white" stroke="black" points="240,-190.5 240,-220.5 382,-220.5 382,-190.5 240,-190.5"/>
<text text-anchor="start" x="248" y="-208.5" font-family="Helvetica,sans-Serif" font-size="10.00">bio/ranges/views/validate</text>
<text text-anchor="middle" x="311" y="-197.5" font-family="Helvetica,sans-Serif" font-size="10.00">_char_for.hpp</text>
</a>
</g>
</g>
<!-- Node1&#45;&gt;Node19 -->
<g id="edge27" class="edge">
<title>Node1&#45;&gt;Node19</title>
<path fill="none" stroke="midnightblue" d="M593.05,-255.78C540.14,-246.73 460.92,-233.11 392,-221 388.76,-220.43 385.46,-219.85 382.11,-219.26"/>
<polygon fill="midnightblue" stroke="midnightblue" points="592.5,-259.23 602.95,-257.47 593.68,-252.33 592.5,-259.23"/>
</g>
<!-- Node4&#45;&gt;Node3 -->
<g id="edge4" class="edge">
<title>Node4&#45;&gt;Node3</title>
<path fill="none" stroke="midnightblue" d="M434.54,-183.77C415.7,-166.98 396.5,-142.93 411,-123 431.18,-95.26 466.92,-82.45 499.11,-76.65"/>
<polygon fill="midnightblue" stroke="midnightblue" points="432.32,-186.48 442.22,-190.27 436.84,-181.14 432.32,-186.48"/>
</g>
<!-- Node5 -->
<g id="node5" class="node">
<title>Node5</title>
<g id="a_node5"><a xlink:href="char__strictly__to_8hpp.html" target="_top" xlink:title="Provides bio::ranges::views::char_strictly_to.">
<polygon fill="white" stroke="black" points="240.5,-123.5 240.5,-153.5 363.5,-153.5 363.5,-123.5 240.5,-123.5"/>
<text text-anchor="start" x="248.5" y="-141.5" font-family="Helvetica,sans-Serif" font-size="10.00">bio/ranges/views/char</text>
<text text-anchor="middle" x="302" y="-130.5" font-family="Helvetica,sans-Serif" font-size="10.00">_strictly_to.hpp</text>
</a>
</g>
</g>
<!-- Node4&#45;&gt;Node5 -->
<g id="edge5" class="edge">
<title>Node4&#45;&gt;Node5</title>
<path fill="none" stroke="midnightblue" d="M417.8,-186.54C392.2,-176.14 360.43,-163.24 336.65,-153.58"/>
<polygon fill="midnightblue" stroke="midnightblue" points="416.7,-189.87 427.28,-190.4 419.34,-183.39 416.7,-189.87"/>
</g>
<!-- Node6&#45;&gt;Node3 -->
<g id="edge7" class="edge">
<title>Node6&#45;&gt;Node3</title>
<path fill="none" stroke="midnightblue" d="M633.24,-122.57C616.27,-109.74 592.38,-91.69 578.41,-81.13"/>
<polygon fill="midnightblue" stroke="midnightblue" points="631.31,-125.5 641.4,-128.73 635.53,-119.91 631.31,-125.5"/>
</g>
<!-- Node7&#45;&gt;Node3 -->
<g id="edge9" class="edge">
<title>Node7&#45;&gt;Node3</title>
<path fill="none" stroke="midnightblue" d="M194.17,-123.64C195.45,-123.42 196.73,-123.21 198,-123 302.81,-105.84 425.03,-89.91 499.17,-80.7"/>
<polygon fill="midnightblue" stroke="midnightblue" points="193.42,-120.21 184.17,-125.36 194.62,-127.11 193.42,-120.21"/>
</g>
<!-- Node8&#45;&gt;Node3 -->
<g id="edge14" class="edge">
<title>Node8&#45;&gt;Node3</title>
<path fill="none" stroke="midnightblue" d="M1094.94,-182.24C1107.82,-164.33 1120.03,-139.51 1105,-123 1073.89,-88.84 772.07,-77.35 634.6,-73.87"/>
<polygon fill="midnightblue" stroke="midnightblue" points="1091.99,-180.35 1088.68,-190.41 1097.54,-184.6 1091.99,-180.35"/>
</g>
<!-- Node9 -->
<g id="node9" class="node">
<title>Node9</title>
<g id="a_node9"><a xlink:href="bitcompressed__vector_8hpp.html" target="_top" xlink:title="Provides bio::ranges::bitcompressed_vector.">
<polygon fill="white" stroke="black" points="1151,-123.5 1151,-153.5 1299,-153.5 1299,-123.5 1151,-123.5"/>
<text text-anchor="start" x="1159" y="-141.5" font-family="Helvetica,sans-Serif" font-size="10.00">bio/ranges/container</text>
<text text-anchor="middle" x="1225" y="-130.5" font-family="Helvetica,sans-Serif" font-size="10.00">/bitcompressed_vector.hpp</text>
</a>
</g>
</g>
<!-- Node8&#45;&gt;Node9 -->
<g id="edge11" class="edge">
<title>Node8&#45;&gt;Node9</title>
<path fill="none" stroke="midnightblue" d="M1117.79,-186.27C1141.52,-175.92 1170.78,-163.15 1192.73,-153.58"/>
<polygon fill="midnightblue" stroke="midnightblue" points="1116.1,-183.19 1108.33,-190.4 1118.9,-189.61 1116.1,-183.19"/>
</g>
<!-- Node10 -->
<g id="node10" class="node">
<title>Node10</title>
<g id="a_node10"><a xlink:href="ranges_2container_2all_8hpp.html" target="_top" xlink:title="Meta&#45;header for the container submodule .">
<polygon fill="white" stroke="black" points="1167,-56.5 1167,-86.5 1283,-86.5 1283,-56.5 1167,-56.5"/>
<text text-anchor="start" x="1175" y="-74.5" font-family="Helvetica,sans-Serif" font-size="10.00">bio/ranges/container</text>
<text text-anchor="middle" x="1225" y="-63.5" font-family="Helvetica,sans-Serif" font-size="10.00">/all.hpp</text>
</a>
</g>
</g>
<!-- Node9&#45;&gt;Node10 -->
<g id="edge12" class="edge">
<title>Node9&#45;&gt;Node10</title>
<path fill="none" stroke="midnightblue" d="M1225,-113.11C1225,-104.15 1225,-94.32 1225,-86.58"/>
<polygon fill="midnightblue" stroke="midnightblue" points="1221.5,-113.4 1225,-123.4 1228.5,-113.4 1221.5,-113.4"/>
</g>
<!-- Node11 -->
<g id="node11" class="node">
<title>Node11</title>
<g id="a_node11"><a xlink:href="ranges_2all_8hpp.html" target="_top" xlink:title="Meta&#45;header for the ranges module .">
<polygon fill="white" stroke="black" points="1173,-0.5 1173,-19.5 1277,-19.5 1277,-0.5 1173,-0.5"/>
<text text-anchor="middle" x="1225" y="-7.5" font-family="Helvetica,sans-Serif" font-size="10.00">bio/ranges/all.hpp</text>
</a>
</g>
</g>
<!-- Node10&#45;&gt;Node11 -->
<g id="edge13" class="edge">
<title>Node10&#45;&gt;Node11</title>
<path fill="none" stroke="midnightblue" d="M1225,-46.29C1225,-36.86 1225,-26.65 1225,-19.66"/>
<polygon fill="midnightblue" stroke="midnightblue" points="1221.5,-46.4 1225,-56.4 1228.5,-46.4 1221.5,-46.4"/>
</g>
<!-- Node13&#45;&gt;Node3 -->
<g id="edge18" class="edge">
<title>Node13&#45;&gt;Node3</title>
<path fill="none" stroke="midnightblue" d="M1256.85,-186.53C1292.87,-171.15 1331.01,-147.63 1308,-123 1262.59,-74.39 808.83,-71.33 634.62,-71.98"/>
<polygon fill="midnightblue" stroke="midnightblue" points="1255.22,-183.42 1247.3,-190.46 1257.88,-189.9 1255.22,-183.42"/>
</g>
<!-- Node13&#45;&gt;Node9 -->
<g id="edge17" class="edge">
<title>Node13&#45;&gt;Node9</title>
<path fill="none" stroke="midnightblue" d="M1212.96,-180.7C1215.62,-171.59 1218.57,-161.49 1220.89,-153.58"/>
<polygon fill="midnightblue" stroke="midnightblue" points="1209.57,-179.82 1210.12,-190.4 1216.29,-181.78 1209.57,-179.82"/>
</g>
<!-- Node15&#45;&gt;Node3 -->
<g id="edge21" class="edge">
<title>Node15&#45;&gt;Node3</title>
<path fill="none" stroke="midnightblue" d="M947.92,-127.41C938.24,-125.91 928.36,-124.4 919,-123 817.04,-107.74 698.31,-90.9 628.08,-81.03"/>
<polygon fill="midnightblue" stroke="midnightblue" points="947.5,-130.88 957.92,-128.95 948.58,-123.96 947.5,-130.88"/>
</g>
<!-- Node16&#45;&gt;Node15 -->
<g id="edge23" class="edge">
<title>Node16&#45;&gt;Node15</title>
<path fill="none" stroke="midnightblue" d="M884.7,-186.78C918.63,-174.18 962.71,-157.81 989.1,-148.01"/>
<polygon fill="midnightblue" stroke="midnightblue" points="883.13,-183.63 874.97,-190.4 885.57,-190.2 883.13,-183.63"/>
</g>
<!-- Node17 -->
<g id="node17" class="node">
<title>Node17</title>
<g id="a_node17"><a xlink:href="translate__join_8hpp.html" target="_top" xlink:title="Provides bio::views::translate_join.">
<polygon fill="white" stroke="black" points="764,-123.5 764,-153.5 910,-153.5 910,-123.5 764,-123.5"/>
<text text-anchor="start" x="772" y="-141.5" font-family="Helvetica,sans-Serif" font-size="10.00">bio/ranges/views/translate</text>
<text text-anchor="middle" x="837" y="-130.5" font-family="Helvetica,sans-Serif" font-size="10.00">_join.hpp</text>
</a>
</g>
</g>
<!-- Node16&#45;&gt;Node17 -->
<g id="edge24" class="edge">
<title>Node16&#45;&gt;Node17</title>
<path fill="none" stroke="midnightblue" d="M837,-180.11C837,-171.15 837,-161.32 837,-153.58"/>
<polygon fill="midnightblue" stroke="midnightblue" points="833.5,-180.4 837,-190.4 840.5,-180.4 833.5,-180.4"/>
</g>
<!-- Node18&#45;&gt;Node3 -->
<g id="edge26" class="edge">
<title>Node18&#45;&gt;Node3</title>
<path fill="none" stroke="midnightblue" d="M507.67,-117.34C523.72,-105.21 543.33,-90.39 555.5,-81.19"/>
<polygon fill="midnightblue" stroke="midnightblue" points="505.53,-114.57 499.66,-123.4 509.75,-120.16 505.53,-114.57"/>
</g>
<!-- Node19&#45;&gt;Node5 -->
<g id="edge28" class="edge">
<title>Node19&#45;&gt;Node5</title>
<path fill="none" stroke="midnightblue" d="M307.66,-180.4C306.41,-171.37 305.03,-161.41 303.95,-153.58"/>
<polygon fill="midnightblue" stroke="midnightblue" points="304.21,-180.97 309.05,-190.4 311.14,-180.01 304.21,-180.97"/>
</g>
</g>
</svg>
        <g id="navigator" transform="translate(0 0)" fill="#404254">
                <rect fill="#f2f5e9" fill-opacity="0.5" stroke="#606060" stroke-width=".5" x="0" y="0" width="60" height="60"/>
                <use id="zoomplus" xlink:href="#zoomPlus" x="17" y="9" onmousedown="handleZoom(evt,'in')"/>
                <use id="zoomminus" xlink:href="#zoomMin" x="42" y="9" onmousedown="handleZoom(evt,'out')"/>
                <use id="reset" xlink:href="#resetDef" x="30" y="36" onmousedown="handleReset()"/>
                <g id="arrowUp" xlink:href="#dirArrow" transform="translate(30 24)" onmousedown="handlePan(0,-1)">
                  <use xlink:href="#rim" fill="#404040">
                        <set attributeName="fill" to="#808080" begin="arrowUp.mouseover" end="arrowUp.mouseout"/>
                  </use>
                  <path fill="none" stroke="white" stroke-width="1.5" d="M0,-3.0v7 M-2.5,-0.5L0,-3.0L2.5,-0.5"/>
                </g>
                <g id="arrowRight" xlink:href="#dirArrow" transform="rotate(90) translate(36 -43)" onmousedown="handlePan(1,0)">
                  <use xlink:href="#rim" fill="#404040">
                        <set attributeName="fill" to="#808080" begin="arrowRight.mouseover" end="arrowRight.mouseout"/>
                  </use>
                  <path fill="none" stroke="white" stroke-width="1.5" d="M0,-3.0v7 M-2.5,-0.5L0,-3.0L2.5,-0.5"/>
                </g>
                <g id="arrowDown" xlink:href="#dirArrow" transform="rotate(180) translate(-30 -48)" onmousedown="handlePan(0,1)">
                  <use xlink:href="#rim" fill="#404040">
                        <set attributeName="fill" to="#808080" begin="arrowDown.mouseover" end="arrowDown.mouseout"/>
                  </use>
                  <path fill="none" stroke="white" stroke-width="1.5" d="M0,-3.0v7 M-2.5,-0.5L0,-3.0L2.5,-0.5"/>
                </g>
                <g id="arrowLeft" xlink:href="#dirArrow" transform="rotate(270) translate(-36 17)" onmousedown="handlePan(-1,0)">
                  <use xlink:href="#rim" fill="#404040">
                        <set attributeName="fill" to="#808080" begin="arrowLeft.mouseover" end="arrowLeft.mouseout"/>
                  </use>
                  <path fill="none" stroke="white" stroke-width="1.5" d="M0,-3.0v7 M-2.5,-0.5L0,-3.0L2.5,-0.5"/>
                </g>
        </g>
        <svg viewBox="0 0 15 15" width="100%" height="30px" preserveAspectRatio="xMaxYMin meet">
         <g id="arrow_out" transform="scale(0.3 0.3)">
          <a xlink:href="deep_8hpp__dep__incl_org.svg" target="_base">
           <rect id="button" ry="5" rx="5" y="6" x="6" height="38" width="38"
                fill="#f2f5e9" fill-opacity="0.5" stroke="#606060" stroke-width="1.0"/>
           <path id="arrow"
             d="M 11.500037,31.436501 C 11.940474,20.09759 22.043105,11.32322 32.158766,21.979434 L 37.068811,17.246167 C 37.068811,17.246167 37.088388,32 37.088388,32 L 22.160133,31.978069 C 22.160133,31.978069 26.997745,27.140456 26.997745,27.140456 C 18.528582,18.264221 13.291696,25.230495 11.500037,31.436501 z"
             style="fill:#404040;"/>
          </a>
         </g>
        </svg>
</svg>
