<?xml version="1.0" encoding="UTF-8" standalone="no"?>
<!DOCTYPE svg PUBLIC "-//W3C//DTD SVG 1.1//EN"
 "http://www.w3.org/Graphics/SVG/1.1/DTD/svg11.dtd">
<!-- Generated by graphviz version 2.42.2 ()
 -->
<!-- Title: bio/meta/type_traits Pages: 1 -->
<svg width="102pt" height="167pt"
 viewBox="0.00 0.00 102.00 167.00" xmlns="http://www.w3.org/2000/svg" xmlns:xlink="http://www.w3.org/1999/xlink">
<g id="graph0" class="graph" transform="scale(1 1) rotate(0) translate(4 163)">
<title>bio/meta/type_traits</title>
<polygon fill="white" stroke="transparent" points="-4,4 -4,-163 98,-163 98,4 -4,4"/>
<g id="clust1" class="cluster">
<title>clusterdir_ae91ba6220f34d5fbc73d95dc714bae8</title>
<g id="a_clust1"><a xlink:href="dir_ae91ba6220f34d5fbc73d95dc714bae8.html" target="_top" xlink:title="meta">
<polygon fill="#edf0f7" stroke="#7f7f7f" stroke-dasharray="5,2" points="8,-8 8,-151 86,-151 86,-8 8,-8"/>
<text text-anchor="middle" x="47" y="-139" font-family="Helvetica,sans-Serif" font-size="10.00">meta</text>
</a>
</g>
</g>
<!-- dir_7465b06235f1ba32e362a68c63a3ff89 -->
<g id="node1" class="node">
<title>dir_7465b06235f1ba32e362a68c63a3ff89</title>
<g id="a_node1"><a xlink:href="dir_7465b06235f1ba32e362a68c63a3ff89.html" target="_top" xlink:title="type_list">
<polygon fill="#a2b4d6" stroke="#404040" points="74,-52 20,-52 20,-16 74,-16 74,-52"/>
<text text-anchor="middle" x="47" y="-31.5" font-family="Helvetica,sans-Serif" font-size="10.00">type_list</text>
</a>
</g>
</g>
<!-- dir_33e551785948eac87ac89df08586a1e6 -->
<g id="node2" class="node">
<title>dir_33e551785948eac87ac89df08586a1e6</title>
<g id="a_node2"><a xlink:href="dir_33e551785948eac87ac89df08586a1e6.html" target="_top" xlink:title="type_traits">
<polygon fill="#edf0f7" stroke="#404040" stroke-width="2" points="78,-124 16,-124 16,-88 78,-88 78,-124"/>
<text text-anchor="middle" x="47" y="-103.5" font-family="Helvetica,sans-Serif" font-size="10.00">type_traits</text>
</a>
</g>
</g>
<!-- dir_33e551785948eac87ac89df08586a1e6&#45;&gt;dir_7465b06235f1ba32e362a68c63a3ff89 -->
<g id="edge1" class="edge">
<title>dir_33e551785948eac87ac89df08586a1e6&#45;&gt;dir_7465b06235f1ba32e362a68c63a3ff89</title>
<path fill="none" stroke="black" d="M47,-87.7C47,-79.98 47,-70.71 47,-62.11"/>
<polygon fill="black" stroke="black" points="50.5,-62.1 47,-52.1 43.5,-62.1 50.5,-62.1"/>
<g id="a_edge1&#45;headlabel"><a xlink:href="dir_000027_000026.html" target="_top" xlink:title="1">
<text text-anchor="middle" x="53.34" y="-63.2" font-family="Helvetica,sans-Serif" font-size="10.00">1</text>
</a>
</g>
</g>
</g>
</svg>
