<?xml version="1.0" encoding="UTF-8" standalone="no"?>
<!DOCTYPE svg PUBLIC "-//W3C//DTD SVG 1.1//EN"
 "http://www.w3.org/Graphics/SVG/1.1/DTD/svg11.dtd">
<!-- Generated by graphviz version 2.43.0 (0)
 -->
<!-- Title: bio/meta/type_list Pages: 1 -->
<svg width="266pt" height="194pt"
 viewBox="0.00 0.00 266.00 193.88" xmlns="http://www.w3.org/2000/svg" xmlns:xlink="http://www.w3.org/1999/xlink">
<g id="graph0" class="graph" transform="scale(1 1) rotate(0) translate(4 189.88)">
<title>bio/meta/type_list</title>
<polygon fill="white" stroke="transparent" points="-4,4 -4,-189.88 262,-189.88 262,4 -4,4"/>
<g id="clust1" class="cluster">
<title>clusterdir_ae91ba6220f34d5fbc73d95dc714bae8</title>
<g id="a_clust1"><a xlink:href="dir_ae91ba6220f34d5fbc73d95dc714bae8.html" target="_top" xlink:title="meta">
<polygon fill="#ddddee" stroke="black" points="8,-8 8,-159 250,-159 250,-8 8,-8"/>
<text text-anchor="middle" x="129" y="-147" font-family="Helvetica,sans-Serif" font-size="10.00">meta</text>
</a>
</g>
</g>
<g id="clust2" class="cluster">
<title>clusterdir_7465b06235f1ba32e362a68c63a3ff89</title>
<g id="a_clust2"><a xlink:href="dir_7465b06235f1ba32e362a68c63a3ff89.html" target="_top">
<polygon fill="#eeeeff" stroke="black" points="94,-80 94,-132 242,-132 242,-80 94,-80"/>
</a>
</g>
</g>
<!-- dir_33e551785948eac87ac89df08586a1e6 -->
<g id="node1" class="node">
<title>dir_33e551785948eac87ac89df08586a1e6</title>
<g id="a_node1"><a xlink:href="dir_33e551785948eac87ac89df08586a1e6.html" target="_top" xlink:title="type_traits">
<polygon fill="none" stroke="black" points="161.5,-52 92.5,-52 92.5,-16 161.5,-16 161.5,-52"/>
<text text-anchor="middle" x="127" y="-31.5" font-family="Helvetica,sans-Serif" font-size="10.00">type_traits</text>
</a>
</g>
</g>
<!-- dir_7465b06235f1ba32e362a68c63a3ff89 -->
<g id="node3" class="node">
<title>dir_7465b06235f1ba32e362a68c63a3ff89</title>
<text text-anchor="middle" x="204" y="-103.5" font-family="Helvetica,sans-Serif" font-size="10.00">type_list</text>
</g>
<!-- dir_33e551785948eac87ac89df08586a1e6&#45;&gt;dir_7465b06235f1ba32e362a68c63a3ff89 -->
<g id="edge2" class="edge">
<title>dir_33e551785948eac87ac89df08586a1e6&#45;&gt;dir_7465b06235f1ba32e362a68c63a3ff89</title>
<path fill="none" stroke="black" d="M151.71,-52.1C161.99,-60.64 173.7,-71.11 183.5,-80.48"/>
<polygon fill="black" stroke="black" points="181.29,-83.21 190.88,-87.7 186.18,-78.2 181.29,-83.21"/>
<g id="a_edge2&#45;headlabel"><a xlink:href="dir_000031_000029.html" target="_top" xlink:title="1">
<text text-anchor="middle" x="176.73" y="-80.22" font-family="Helvetica,sans-Serif" font-size="10.00">1</text>
</a>
</g>
</g>
<!-- dir_fe16283a0bc9cab10adeac388379e51f -->
<g id="node2" class="node">
<title>dir_fe16283a0bc9cab10adeac388379e51f</title>
<g id="a_node2"><a xlink:href="dir_fe16283a0bc9cab10adeac388379e51f.html" target="_top" xlink:title="type_pack">
<polygon fill="white" stroke="red" points="83.5,-124 16.5,-124 16.5,-88 83.5,-88 83.5,-124"/>
<text text-anchor="middle" x="50" y="-103.5" font-family="Helvetica,sans-Serif" font-size="10.00">type_pack</text>
</a>
</g>
</g>
<!-- dir_fe16283a0bc9cab10adeac388379e51f&#45;&gt;dir_33e551785948eac87ac89df08586a1e6 -->
<g id="edge3" class="edge">
<title>dir_fe16283a0bc9cab10adeac388379e51f&#45;&gt;dir_33e551785948eac87ac89df08586a1e6</title>
<path fill="none" stroke="black" d="M69.03,-87.7C78.54,-79.05 90.21,-68.45 100.57,-59.03"/>
<polygon fill="black" stroke="black" points="103.14,-61.42 108.19,-52.1 98.43,-56.24 103.14,-61.42"/>
<g id="a_edge3&#45;headlabel"><a xlink:href="dir_000030_000031.html" target="_top" xlink:title="1">
<text text-anchor="middle" x="102.39" y="-63.44" font-family="Helvetica,sans-Serif" font-size="10.00">1</text>
</a>
</g>
</g>
<!-- dir_fe16283a0bc9cab10adeac388379e51f&#45;&gt;dir_7465b06235f1ba32e362a68c63a3ff89 -->
<g id="edge4" class="edge">
<title>dir_fe16283a0bc9cab10adeac388379e51f&#45;&gt;dir_7465b06235f1ba32e362a68c63a3ff89</title>
<path fill="none" stroke="black" d="M56.69,-124.09C64.12,-141.22 77.91,-165.93 99,-177 121.43,-188.77 133.63,-188.88 156,-177 173.3,-167.81 185.51,-149.29 193.28,-133.47"/>
<polygon fill="black" stroke="black" points="196.59,-134.63 197.55,-124.08 190.22,-131.73 196.59,-134.63"/>
<g id="a_edge4&#45;headlabel"><a xlink:href="dir_000030_000029.html" target="_top" xlink:title="1">
<text text-anchor="middle" x="197.69" y="-136.58" font-family="Helvetica,sans-Serif" font-size="10.00">1</text>
</a>
</g>
</g>
<!-- dir_7465b06235f1ba32e362a68c63a3ff89&#45;&gt;dir_33e551785948eac87ac89df08586a1e6 -->
<g id="edge1" class="edge">
<title>dir_7465b06235f1ba32e362a68c63a3ff89&#45;&gt;dir_33e551785948eac87ac89df08586a1e6</title>
<path fill="none" stroke="black" d="M179.05,-87.7C168.75,-79.14 157.04,-68.66 147.27,-59.3"/>
<polygon fill="black" stroke="black" points="149.51,-56.6 139.92,-52.1 144.62,-61.6 149.51,-56.6"/>
<g id="a_edge1&#45;headlabel"><a xlink:href="dir_000029_000031.html" target="_top" xlink:title="1">
<text text-anchor="middle" x="154.07" y="-54.59" font-family="Helvetica,sans-Serif" font-size="10.00">1</text>
</a>
</g>
</g>
<!-- dir_110ef44cc948801eca5a44a88802da48 -->
<g id="node4" class="node">
<title>dir_110ef44cc948801eca5a44a88802da48</title>
<g id="a_node4"><a xlink:href="dir_110ef44cc948801eca5a44a88802da48.html" target="_top" xlink:title="detail">
<polygon fill="white" stroke="black" points="156,-124 102,-124 102,-88 156,-88 156,-124"/>
<text text-anchor="middle" x="129" y="-103.5" font-family="Helvetica,sans-Serif" font-size="10.00">detail</text>
</a>
</g>
</g>
<!-- dir_110ef44cc948801eca5a44a88802da48&#45;&gt;dir_fe16283a0bc9cab10adeac388379e51f -->
<g id="edge5" class="edge">
<title>dir_110ef44cc948801eca5a44a88802da48&#45;&gt;dir_fe16283a0bc9cab10adeac388379e51f</title>
<path fill="none" stroke="black" d="M101.71,-106C99.08,-106 96.44,-106 93.8,-106"/>
<polygon fill="black" stroke="black" points="93.64,-102.5 83.64,-106 93.64,-109.5 93.64,-102.5"/>
<g id="a_edge5&#45;headlabel"><a xlink:href="dir_000036_000030.html" target="_top" xlink:title="1">
<text text-anchor="middle" x="97.23" y="-97.16" font-family="Helvetica,sans-Serif" font-size="10.00">1</text>
</a>
</g>
</g>
</g>
</svg>
