<?xml version="1.0" encoding="UTF-8" standalone="no"?>
<!DOCTYPE svg PUBLIC "-//W3C//DTD SVG 1.1//EN"
 "http://www.w3.org/Graphics/SVG/1.1/DTD/svg11.dtd">
<!-- Generated by graphviz version 2.42.2 ()
 -->
<!-- Title: bio/ranges/container Pages: 1 -->
<svg width="294pt" height="167pt"
 viewBox="0.00 0.00 294.00 167.00" xmlns="http://www.w3.org/2000/svg" xmlns:xlink="http://www.w3.org/1999/xlink">
<g id="graph0" class="graph" transform="scale(1 1) rotate(0) translate(4 163)">
<title>bio/ranges/container</title>
<polygon fill="white" stroke="transparent" points="-4,4 -4,-163 290,-163 290,4 -4,4"/>
<g id="clust1" class="cluster">
<title>clusterdir_a05deca243559b9ee49c1fff2a7d2ca3</title>
<g id="a_clust1"><a xlink:href="dir_a05deca243559b9ee49c1fff2a7d2ca3.html" target="_top" xlink:title="ranges">
<polygon fill="#edf0f7" stroke="#7f7f7f" stroke-dasharray="5,2" points="8,-8 8,-151 150,-151 150,-8 8,-8"/>
<text text-anchor="middle" x="79" y="-139" font-family="Helvetica,sans-Serif" font-size="10.00">ranges</text>
</a>
</g>
</g>
<!-- dir_e780fc7f0906f834fef118ea324bc442 -->
<g id="node1" class="node">
<title>dir_e780fc7f0906f834fef118ea324bc442</title>
<g id="a_node1"><a xlink:href="dir_e780fc7f0906f834fef118ea324bc442.html" target="_top" xlink:title="detail">
<polygon fill="#a2b4d6" stroke="#404040" points="70,-52 16,-52 16,-16 70,-16 70,-52"/>
<text text-anchor="middle" x="43" y="-31.5" font-family="Helvetica,sans-Serif" font-size="10.00">detail</text>
</a>
</g>
</g>
<!-- dir_f5fa676fd011d9129236f7ff98beb3ee -->
<g id="node2" class="node">
<title>dir_f5fa676fd011d9129236f7ff98beb3ee</title>
<g id="a_node2"><a xlink:href="dir_f5fa676fd011d9129236f7ff98beb3ee.html" target="_top" xlink:title="views">
<polygon fill="#a2b4d6" stroke="#404040" points="142,-52 88,-52 88,-16 142,-16 142,-52"/>
<text text-anchor="middle" x="115" y="-31.5" font-family="Helvetica,sans-Serif" font-size="10.00">views</text>
</a>
</g>
</g>
<!-- dir_863a7aeecaebce89c36d5cb86386d0df -->
<g id="node3" class="node">
<title>dir_863a7aeecaebce89c36d5cb86386d0df</title>
<g id="a_node3"><a xlink:href="dir_863a7aeecaebce89c36d5cb86386d0df.html" target="_top" xlink:title="container">
<polygon fill="#edf0f7" stroke="#404040" stroke-width="2" points="142,-124 86,-124 86,-88 142,-88 142,-124"/>
<text text-anchor="middle" x="114" y="-103.5" font-family="Helvetica,sans-Serif" font-size="10.00">container</text>
</a>
</g>
</g>
<!-- dir_863a7aeecaebce89c36d5cb86386d0df&#45;&gt;dir_e780fc7f0906f834fef118ea324bc442 -->
<g id="edge3" class="edge">
<title>dir_863a7aeecaebce89c36d5cb86386d0df&#45;&gt;dir_e780fc7f0906f834fef118ea324bc442</title>
<path fill="none" stroke="black" d="M96.45,-87.7C87.77,-79.14 77.14,-68.66 67.65,-59.3"/>
<polygon fill="black" stroke="black" points="69.93,-56.63 60.35,-52.1 65.01,-61.62 69.93,-56.63"/>
<g id="a_edge3&#45;headlabel"><a xlink:href="dir_000008_000013.html" target="_top" xlink:title="2">
<text text-anchor="middle" x="74.48" y="-54.63" font-family="Helvetica,sans-Serif" font-size="10.00">2</text>
</a>
</g>
</g>
<!-- dir_863a7aeecaebce89c36d5cb86386d0df&#45;&gt;dir_f5fa676fd011d9129236f7ff98beb3ee -->
<g id="edge4" class="edge">
<title>dir_863a7aeecaebce89c36d5cb86386d0df&#45;&gt;dir_f5fa676fd011d9129236f7ff98beb3ee</title>
<path fill="none" stroke="black" d="M114.25,-87.7C114.36,-79.98 114.49,-70.71 114.61,-62.11"/>
<polygon fill="black" stroke="black" points="118.11,-62.15 114.76,-52.1 111.11,-62.05 118.11,-62.15"/>
<g id="a_edge4&#45;headlabel"><a xlink:href="dir_000008_000029.html" target="_top" xlink:title="9">
<text text-anchor="middle" x="120.9" y="-63.29" font-family="Helvetica,sans-Serif" font-size="10.00">9</text>
</a>
</g>
</g>
<!-- dir_9b716f18bdad80f0bcc9544c5d50fede -->
<g id="node4" class="node">
<title>dir_9b716f18bdad80f0bcc9544c5d50fede</title>
<g id="a_node4"><a xlink:href="dir_9b716f18bdad80f0bcc9544c5d50fede.html" target="_top" xlink:title="alphabet">
<polygon fill="none" stroke="red" stroke-dasharray="5,2" points="214,-52 160,-52 160,-16 214,-16 214,-52"/>
<text text-anchor="middle" x="187" y="-31.5" font-family="Helvetica,sans-Serif" font-size="10.00">alphabet</text>
</a>
</g>
</g>
<!-- dir_863a7aeecaebce89c36d5cb86386d0df&#45;&gt;dir_9b716f18bdad80f0bcc9544c5d50fede -->
<g id="edge1" class="edge">
<title>dir_863a7aeecaebce89c36d5cb86386d0df&#45;&gt;dir_9b716f18bdad80f0bcc9544c5d50fede</title>
<path fill="none" stroke="black" d="M132.04,-87.7C141.06,-79.05 152.12,-68.45 161.94,-59.03"/>
<polygon fill="black" stroke="black" points="164.37,-61.55 169.16,-52.1 159.52,-56.5 164.37,-61.55"/>
<g id="a_edge1&#45;headlabel"><a xlink:href="dir_000008_000001.html" target="_top" xlink:title="1">
<text text-anchor="middle" x="163.74" y="-63.59" font-family="Helvetica,sans-Serif" font-size="10.00">1</text>
</a>
</g>
</g>
<!-- dir_ae91ba6220f34d5fbc73d95dc714bae8 -->
<g id="node5" class="node">
<title>dir_ae91ba6220f34d5fbc73d95dc714bae8</title>
<g id="a_node5"><a xlink:href="dir_ae91ba6220f34d5fbc73d95dc714bae8.html" target="_top" xlink:title="meta">
<polygon fill="none" stroke="red" stroke-dasharray="5,2" points="286,-52 232,-52 232,-16 286,-16 286,-52"/>
<text text-anchor="middle" x="259" y="-31.5" font-family="Helvetica,sans-Serif" font-size="10.00">meta</text>
</a>
</g>
</g>
<!-- dir_863a7aeecaebce89c36d5cb86386d0df&#45;&gt;dir_ae91ba6220f34d5fbc73d95dc714bae8 -->
<g id="edge2" class="edge">
<title>dir_863a7aeecaebce89c36d5cb86386d0df&#45;&gt;dir_ae91ba6220f34d5fbc73d95dc714bae8</title>
<path fill="none" stroke="black" d="M142.3,-91.34C165.25,-80.26 197.75,-64.57 222.63,-52.56"/>
<polygon fill="black" stroke="black" points="224.27,-55.65 231.75,-48.15 221.22,-49.35 224.27,-55.65"/>
<g id="a_edge2&#45;headlabel"><a xlink:href="dir_000008_000018.html" target="_top" xlink:title="4">
<text text-anchor="middle" x="222.27" y="-57.27" font-family="Helvetica,sans-Serif" font-size="10.00">4</text>
</a>
</g>
</g>
</g>
</svg>
