<?xml version="1.0" encoding="UTF-8" standalone="no"?>
<!DOCTYPE svg PUBLIC "-//W3C//DTD SVG 1.1//EN"
 "http://www.w3.org/Graphics/SVG/1.1/DTD/svg11.dtd">
<!-- Generated by graphviz version 2.43.0 (0)
 -->
<!-- Title: bio/meta/tag Pages: 1 -->
<svg width="211pt" height="133pt"
 viewBox="0.00 0.00 211.00 133.00" xmlns="http://www.w3.org/2000/svg" xmlns:xlink="http://www.w3.org/1999/xlink">
<g id="graph0" class="graph" transform="scale(1 1) rotate(0) translate(4 129)">
<title>bio/meta/tag</title>
<g id="clust1" class="cluster">
<title>clusterdir_ae91ba6220f34d5fbc73d95dc714bae8</title>
<g id="a_clust1"><a xlink:href="dir_ae91ba6220f34d5fbc73d95dc714bae8.html" target="_top" xlink:title="meta">
<polygon fill="#edf0f7" stroke="#7f7f7f" stroke-dasharray="5,2" points="8,-8 8,-117 147,-117 147,-8 8,-8"/>
<text text-anchor="middle" x="77.5" y="-105" font-family="Helvetica,sans-Serif" font-size="10.00">meta</text>
</a>
</g>
</g>
<!-- dir_0b0d62016bb2320eb6b2e698bfcbe15c -->
<g id="node1" class="node">
<title>dir_0b0d62016bb2320eb6b2e698bfcbe15c</title>
<g id="a_node1"><a xlink:href="dir_0b0d62016bb2320eb6b2e698bfcbe15c.html" target="_top" xlink:title="concept">
<polygon fill="#a2b4d6" stroke="#404040" points="67.5,-35 16.5,-35 16.5,-16 67.5,-16 67.5,-35"/>
<text text-anchor="middle" x="42" y="-23" font-family="Helvetica,sans-Serif" font-size="10.00">concept</text>
</a>
</g>
</g>
<!-- dir_7465b06235f1ba32e362a68c63a3ff89 -->
<g id="node2" class="node">
<title>dir_7465b06235f1ba32e362a68c63a3ff89</title>
<g id="a_node2"><a xlink:href="dir_7465b06235f1ba32e362a68c63a3ff89.html" target="_top" xlink:title="type_list">
<polygon fill="#a2b4d6" stroke="#404040" points="138.5,-35 85.5,-35 85.5,-16 138.5,-16 138.5,-35"/>
<text text-anchor="middle" x="112" y="-23" font-family="Helvetica,sans-Serif" font-size="10.00">type_list</text>
</a>
</g>
</g>
<!-- dir_7ced805bda2d8a62c1970e8539a810b5 -->
<g id="node3" class="node">
<title>dir_7ced805bda2d8a62c1970e8539a810b5</title>
<g id="a_node3"><a xlink:href="dir_7ced805bda2d8a62c1970e8539a810b5.html" target="_top" xlink:title="tag">
<polygon fill="#edf0f7" stroke="#404040" stroke-width="2" points="127,-90 97,-90 97,-71 127,-71 127,-90"/>
<text text-anchor="middle" x="112" y="-78" font-family="Helvetica,sans-Serif" font-size="10.00">tag</text>
</a>
</g>
</g>
<!-- dir_7ced805bda2d8a62c1970e8539a810b5&#45;&gt;dir_0b0d62016bb2320eb6b2e698bfcbe15c -->
<g id="edge1" class="edge">
<title>dir_7ced805bda2d8a62c1970e8539a810b5&#45;&gt;dir_0b0d62016bb2320eb6b2e698bfcbe15c</title>
<path fill="none" stroke="#63b8ff" d="M100.75,-70.98C90.2,-63 74.2,-50.88 61.56,-41.31"/>
<polygon fill="#63b8ff" stroke="#63b8ff" points="63.54,-38.42 53.45,-35.17 59.31,-44 63.54,-38.42"/>
<g id="a_edge1&#45;headlabel"><a xlink:href="dir_000023_000006.html" target="_top" xlink:title="1">
<text text-anchor="middle" x="68.12" y="-35.82" font-family="Helvetica,sans-Serif" font-size="10.00" fill="#63b8ff">1</text>
</a>
</g>
</g>
<!-- dir_7ced805bda2d8a62c1970e8539a810b5&#45;&gt;dir_7465b06235f1ba32e362a68c63a3ff89 -->
<g id="edge2" class="edge">
<title>dir_7ced805bda2d8a62c1970e8539a810b5&#45;&gt;dir_7465b06235f1ba32e362a68c63a3ff89</title>
<path fill="none" stroke="#63b8ff" d="M112,-70.75C112,-63.8 112,-53.85 112,-45.13"/>
<polygon fill="#63b8ff" stroke="#63b8ff" points="115.5,-45.09 112,-35.09 108.5,-45.09 115.5,-45.09"/>
<g id="a_edge2&#45;headlabel"><a xlink:href="dir_000023_000027.html" target="_top" xlink:title="1">
<text text-anchor="middle" x="118.34" y="-46.18" font-family="Helvetica,sans-Serif" font-size="10.00" fill="#63b8ff">1</text>
</a>
</g>
</g>
<!-- dir_a05deca243559b9ee49c1fff2a7d2ca3 -->
<g id="node4" class="node">
<title>dir_a05deca243559b9ee49c1fff2a7d2ca3</title>
<g id="a_node4"><a xlink:href="dir_a05deca243559b9ee49c1fff2a7d2ca3.html" target="_top" xlink:title="ranges">
<polygon fill="#edf0f7" stroke="red" stroke-dasharray="5,2" points="203,-35 157,-35 157,-16 203,-16 203,-35"/>
<text text-anchor="middle" x="180" y="-23" font-family="Helvetica,sans-Serif" font-size="10.00">ranges</text>
</a>
</g>
</g>
<!-- dir_7ced805bda2d8a62c1970e8539a810b5&#45;&gt;dir_a05deca243559b9ee49c1fff2a7d2ca3 -->
<g id="edge3" class="edge">
<title>dir_7ced805bda2d8a62c1970e8539a810b5&#45;&gt;dir_a05deca243559b9ee49c1fff2a7d2ca3</title>
<path fill="none" stroke="#63b8ff" d="M122.93,-70.98C133.08,-63.07 148.42,-51.11 160.65,-41.58"/>
<polygon fill="#63b8ff" stroke="#63b8ff" points="163.14,-44.08 168.88,-35.17 158.84,-38.56 163.14,-44.08"/>
<g id="a_edge3&#45;headlabel"><a xlink:href="dir_000023_000021.html" target="_top" xlink:title="1">
<text text-anchor="middle" x="162.05" y="-46.03" font-family="Helvetica,sans-Serif" font-size="10.00" fill="#63b8ff">1</text>
</a>
</g>
</g>
</g>
</svg>
