<?xml version="1.0" encoding="UTF-8" standalone="no"?>
<!DOCTYPE svg PUBLIC "-//W3C//DTD SVG 1.1//EN"
 "http://www.w3.org/Graphics/SVG/1.1/DTD/svg11.dtd">
<!-- Generated by graphviz version 2.43.0 (0)
 -->
<!-- Title: bio/meta Pages: 1 -->
<svg width="294pt" height="418pt"
 viewBox="0.00 0.00 294.00 417.50" xmlns="http://www.w3.org/2000/svg" xmlns:xlink="http://www.w3.org/1999/xlink">
<g id="graph0" class="graph" transform="scale(1 1) rotate(0) translate(4 413.5)">
<title>bio/meta</title>
<polygon fill="white" stroke="transparent" points="-4,4 -4,-413.5 290,-413.5 290,4 -4,4"/>
<g id="clust1" class="cluster">
<title>clusterdir_740f9cb2a3f5b47e1148c9e4d90d8bf4</title>
<g id="a_clust1"><a xlink:href="dir_740f9cb2a3f5b47e1148c9e4d90d8bf4.html" target="_top" xlink:title="bio">
<polygon fill="#ddddee" stroke="black" points="8,-8 8,-383 278,-383 278,-8 8,-8"/>
<text text-anchor="middle" x="143" y="-371" font-family="Helvetica,sans-Serif" font-size="10.00">bio</text>
</a>
</g>
</g>
<g id="clust2" class="cluster">
<title>clusterdir_ae91ba6220f34d5fbc73d95dc714bae8</title>
<g id="a_clust2"><a xlink:href="dir_ae91ba6220f34d5fbc73d95dc714bae8.html" target="_top">
<polygon fill="#eeeeff" stroke="black" points="16,-16 16,-356 200,-356 200,-16 16,-16"/>
</a>
</g>
</g>
<!-- dir_9b716f18bdad80f0bcc9544c5d50fede -->
<g id="node1" class="node">
<title>dir_9b716f18bdad80f0bcc9544c5d50fede</title>
<g id="a_node1"><a xlink:href="dir_9b716f18bdad80f0bcc9544c5d50fede.html" target="_top" xlink:title="alphabet">
<polygon fill="white" stroke="red" points="269.5,-348 210.5,-348 210.5,-312 269.5,-312 269.5,-348"/>
<text text-anchor="middle" x="240" y="-327.5" font-family="Helvetica,sans-Serif" font-size="10.00">alphabet</text>
</a>
</g>
</g>
<!-- dir_53bf4b9214a48397951b578621456f16 -->
<g id="node3" class="node">
<title>dir_53bf4b9214a48397951b578621456f16</title>
<g id="a_node3"><a xlink:href="dir_53bf4b9214a48397951b578621456f16.html" target="_top" xlink:title="char_operations">
<polygon fill="white" stroke="black" points="119.5,-348 24.5,-348 24.5,-312 119.5,-312 119.5,-348"/>
<text text-anchor="middle" x="72" y="-327.5" font-family="Helvetica,sans-Serif" font-size="10.00">char_operations</text>
</a>
</g>
</g>
<!-- dir_9b716f18bdad80f0bcc9544c5d50fede&#45;&gt;dir_53bf4b9214a48397951b578621456f16 -->
<g id="edge10" class="edge">
<title>dir_9b716f18bdad80f0bcc9544c5d50fede&#45;&gt;dir_53bf4b9214a48397951b578621456f16</title>
<path fill="none" stroke="black" d="M234.27,-348.04C227.77,-365.14 215.33,-389.82 195,-401 172.8,-413.21 161.22,-411.12 138,-401 117.3,-391.98 100.17,-372.92 88.55,-356.81"/>
<polygon fill="black" stroke="black" points="91.22,-354.52 82.68,-348.25 85.45,-358.48 91.22,-354.52"/>
<g id="a_edge10&#45;headlabel"><a xlink:href="dir_000015_000026.html" target="_top" xlink:title="15">
<text text-anchor="middle" x="95.6" y="-353.37" font-family="Helvetica,sans-Serif" font-size="10.00">15</text>
</a>
</g>
</g>
<!-- dir_0b0d62016bb2320eb6b2e698bfcbe15c -->
<g id="node4" class="node">
<title>dir_0b0d62016bb2320eb6b2e698bfcbe15c</title>
<g id="a_node4"><a xlink:href="dir_0b0d62016bb2320eb6b2e698bfcbe15c.html" target="_top" xlink:title="concept">
<polygon fill="white" stroke="black" points="190.5,-276 135.5,-276 135.5,-240 190.5,-240 190.5,-276"/>
<text text-anchor="middle" x="163" y="-255.5" font-family="Helvetica,sans-Serif" font-size="10.00">concept</text>
</a>
</g>
</g>
<!-- dir_9b716f18bdad80f0bcc9544c5d50fede&#45;&gt;dir_0b0d62016bb2320eb6b2e698bfcbe15c -->
<g id="edge8" class="edge">
<title>dir_9b716f18bdad80f0bcc9544c5d50fede&#45;&gt;dir_0b0d62016bb2320eb6b2e698bfcbe15c</title>
<path fill="none" stroke="black" d="M220.97,-311.7C211.46,-303.05 199.79,-292.45 189.43,-283.03"/>
<polygon fill="black" stroke="black" points="191.57,-280.24 181.81,-276.1 186.86,-285.42 191.57,-280.24"/>
<g id="a_edge8&#45;headlabel"><a xlink:href="dir_000015_000027.html" target="_top" xlink:title="4">
<text text-anchor="middle" x="196.14" y="-278.06" font-family="Helvetica,sans-Serif" font-size="10.00">4</text>
</a>
</g>
</g>
<!-- dir_9195b182a8db98b0a6ba2a764d2c92e3 -->
<g id="node5" class="node">
<title>dir_9195b182a8db98b0a6ba2a764d2c92e3</title>
<g id="a_node5"><a xlink:href="dir_9195b182a8db98b0a6ba2a764d2c92e3.html" target="_top" xlink:title="detail">
<polygon fill="white" stroke="black" points="117,-276 63,-276 63,-240 117,-240 117,-276"/>
<text text-anchor="middle" x="90" y="-255.5" font-family="Helvetica,sans-Serif" font-size="10.00">detail</text>
</a>
</g>
</g>
<!-- dir_9b716f18bdad80f0bcc9544c5d50fede&#45;&gt;dir_9195b182a8db98b0a6ba2a764d2c92e3 -->
<g id="edge11" class="edge">
<title>dir_9b716f18bdad80f0bcc9544c5d50fede&#45;&gt;dir_9195b182a8db98b0a6ba2a764d2c92e3</title>
<path fill="none" stroke="black" d="M210.15,-314.88C208.07,-313.9 206,-312.94 204,-312 171.97,-297.05 162.05,-292.77 126.25,-276.1"/>
<polygon fill="black" stroke="black" points="127.66,-272.89 117.11,-271.84 124.7,-279.24 127.66,-272.89"/>
<g id="a_edge11&#45;headlabel"><a xlink:href="dir_000015_000028.html" target="_top" xlink:title="6">
<text text-anchor="middle" x="132.11" y="-269.34" font-family="Helvetica,sans-Serif" font-size="10.00">6</text>
</a>
</g>
</g>
<!-- dir_7465b06235f1ba32e362a68c63a3ff89 -->
<g id="node6" class="node">
<title>dir_7465b06235f1ba32e362a68c63a3ff89</title>
<g id="a_node6"><a xlink:href="dir_7465b06235f1ba32e362a68c63a3ff89.html" target="_top" xlink:title="type_list">
<polygon fill="white" stroke="red" points="191.5,-204 132.5,-204 132.5,-168 191.5,-168 191.5,-204"/>
<text text-anchor="middle" x="162" y="-183.5" font-family="Helvetica,sans-Serif" font-size="10.00">type_list</text>
</a>
</g>
</g>
<!-- dir_9b716f18bdad80f0bcc9544c5d50fede&#45;&gt;dir_7465b06235f1ba32e362a68c63a3ff89 -->
<g id="edge12" class="edge">
<title>dir_9b716f18bdad80f0bcc9544c5d50fede&#45;&gt;dir_7465b06235f1ba32e362a68c63a3ff89</title>
<path fill="none" stroke="black" d="M233.45,-311.77C226.22,-293.47 213.77,-263.93 200,-240 194.58,-230.58 187.88,-220.77 181.62,-212.19"/>
<polygon fill="black" stroke="black" points="184.36,-210.01 175.58,-204.08 178.75,-214.19 184.36,-210.01"/>
<g id="a_edge12&#45;headlabel"><a xlink:href="dir_000015_000029.html" target="_top" xlink:title="5">
<text text-anchor="middle" x="188.78" y="-208.69" font-family="Helvetica,sans-Serif" font-size="10.00">5</text>
</a>
</g>
</g>
<!-- dir_33e551785948eac87ac89df08586a1e6 -->
<g id="node8" class="node">
<title>dir_33e551785948eac87ac89df08586a1e6</title>
<g id="a_node8"><a xlink:href="dir_33e551785948eac87ac89df08586a1e6.html" target="_top" xlink:title="type_traits">
<polygon fill="white" stroke="black" points="181.5,-60 112.5,-60 112.5,-24 181.5,-24 181.5,-60"/>
<text text-anchor="middle" x="147" y="-39.5" font-family="Helvetica,sans-Serif" font-size="10.00">type_traits</text>
</a>
</g>
</g>
<!-- dir_9b716f18bdad80f0bcc9544c5d50fede&#45;&gt;dir_33e551785948eac87ac89df08586a1e6 -->
<g id="edge9" class="edge">
<title>dir_9b716f18bdad80f0bcc9544c5d50fede&#45;&gt;dir_33e551785948eac87ac89df08586a1e6</title>
<path fill="none" stroke="black" d="M238.58,-311.83C234.77,-272.13 222.15,-171.62 187,-96 182.48,-86.28 175.97,-76.62 169.5,-68.27"/>
<polygon fill="black" stroke="black" points="172.14,-65.97 163.13,-60.4 166.7,-70.38 172.14,-65.97"/>
<g id="a_edge9&#45;headlabel"><a xlink:href="dir_000015_000031.html" target="_top" xlink:title="8">
<text text-anchor="middle" x="176.61" y="-64.48" font-family="Helvetica,sans-Serif" font-size="10.00">8</text>
</a>
</g>
</g>
<!-- dir_ae91ba6220f34d5fbc73d95dc714bae8 -->
<g id="node2" class="node">
<title>dir_ae91ba6220f34d5fbc73d95dc714bae8</title>
<text text-anchor="middle" x="165" y="-327.5" font-family="Helvetica,sans-Serif" font-size="10.00">meta</text>
</g>
<!-- dir_53bf4b9214a48397951b578621456f16&#45;&gt;dir_9b716f18bdad80f0bcc9544c5d50fede -->
<g id="edge16" class="edge">
<title>dir_53bf4b9214a48397951b578621456f16&#45;&gt;dir_9b716f18bdad80f0bcc9544c5d50fede</title>
<path fill="none" stroke="black" d="M82.68,-348.25C93.95,-365.51 113.47,-390.31 138,-401 161.22,-411.12 172.8,-413.21 195,-401 211.84,-391.74 223.26,-373.22 230.38,-357.42"/>
<polygon fill="black" stroke="black" points="233.67,-358.62 234.27,-348.04 227.21,-355.94 233.67,-358.62"/>
<g id="a_edge16&#45;headlabel"><a xlink:href="dir_000026_000015.html" target="_top" xlink:title="2">
<text text-anchor="middle" x="234.92" y="-360.52" font-family="Helvetica,sans-Serif" font-size="10.00">2</text>
</a>
</g>
</g>
<!-- dir_53bf4b9214a48397951b578621456f16&#45;&gt;dir_0b0d62016bb2320eb6b2e698bfcbe15c -->
<g id="edge13" class="edge">
<title>dir_53bf4b9214a48397951b578621456f16&#45;&gt;dir_0b0d62016bb2320eb6b2e698bfcbe15c</title>
<path fill="none" stroke="black" d="M94.49,-311.7C105.96,-302.88 120.06,-292.03 132.48,-282.47"/>
<polygon fill="black" stroke="black" points="134.97,-284.98 140.76,-276.1 130.7,-279.43 134.97,-284.98"/>
<g id="a_edge13&#45;headlabel"><a xlink:href="dir_000026_000027.html" target="_top" xlink:title="1">
<text text-anchor="middle" x="133.85" y="-286.92" font-family="Helvetica,sans-Serif" font-size="10.00">1</text>
</a>
</g>
</g>
<!-- dir_53bf4b9214a48397951b578621456f16&#45;&gt;dir_9195b182a8db98b0a6ba2a764d2c92e3 -->
<g id="edge15" class="edge">
<title>dir_53bf4b9214a48397951b578621456f16&#45;&gt;dir_9195b182a8db98b0a6ba2a764d2c92e3</title>
<path fill="none" stroke="black" d="M76.45,-311.7C78.45,-303.9 80.87,-294.51 83.1,-285.83"/>
<polygon fill="black" stroke="black" points="86.5,-286.66 85.6,-276.1 79.72,-284.92 86.5,-286.66"/>
<g id="a_edge15&#45;headlabel"><a xlink:href="dir_000026_000028.html" target="_top" xlink:title="2">
<text text-anchor="middle" x="88.36" y="-288.35" font-family="Helvetica,sans-Serif" font-size="10.00">2</text>
</a>
</g>
</g>
<!-- dir_53bf4b9214a48397951b578621456f16&#45;&gt;dir_33e551785948eac87ac89df08586a1e6 -->
<g id="edge14" class="edge">
<title>dir_53bf4b9214a48397951b578621456f16&#45;&gt;dir_33e551785948eac87ac89df08586a1e6</title>
<path fill="none" stroke="black" d="M64.52,-311.7C60.53,-301.52 56.03,-288.27 54,-276 40.73,-195.67 46.46,-166.02 88,-96 94.53,-84.99 104.1,-74.99 113.64,-66.71"/>
<polygon fill="black" stroke="black" points="116.08,-69.24 121.58,-60.18 111.63,-63.83 116.08,-69.24"/>
<g id="a_edge14&#45;headlabel"><a xlink:href="dir_000026_000031.html" target="_top" xlink:title="1">
<text text-anchor="middle" x="115.1" y="-71.21" font-family="Helvetica,sans-Serif" font-size="10.00">1</text>
</a>
</g>
</g>
<!-- dir_0b0d62016bb2320eb6b2e698bfcbe15c&#45;&gt;dir_7465b06235f1ba32e362a68c63a3ff89 -->
<g id="edge5" class="edge">
<title>dir_0b0d62016bb2320eb6b2e698bfcbe15c&#45;&gt;dir_7465b06235f1ba32e362a68c63a3ff89</title>
<path fill="none" stroke="black" d="M162.75,-239.7C162.64,-231.98 162.51,-222.71 162.39,-214.11"/>
<polygon fill="black" stroke="black" points="165.89,-214.05 162.24,-204.1 158.89,-214.15 165.89,-214.05"/>
<g id="a_edge5&#45;headlabel"><a xlink:href="dir_000027_000029.html" target="_top" xlink:title="1">
<text text-anchor="middle" x="168.78" y="-215.11" font-family="Helvetica,sans-Serif" font-size="10.00">1</text>
</a>
</g>
</g>
<!-- dir_0b0d62016bb2320eb6b2e698bfcbe15c&#45;&gt;dir_33e551785948eac87ac89df08586a1e6 -->
<g id="edge4" class="edge">
<title>dir_0b0d62016bb2320eb6b2e698bfcbe15c&#45;&gt;dir_33e551785948eac87ac89df08586a1e6</title>
<path fill="none" stroke="black" d="M148,-239.69C139.87,-229.72 130.07,-216.69 123,-204 106.28,-174.01 101.33,-165.75 95,-132 92.05,-116.27 88.95,-110.81 95,-96 99.49,-85.02 107.47,-75.08 115.85,-66.86"/>
<polygon fill="black" stroke="black" points="118.24,-69.42 123.25,-60.09 113.51,-64.26 118.24,-69.42"/>
<g id="a_edge4&#45;headlabel"><a xlink:href="dir_000027_000031.html" target="_top" xlink:title="2">
<text text-anchor="middle" x="117.5" y="-71.45" font-family="Helvetica,sans-Serif" font-size="10.00">2</text>
</a>
</g>
</g>
<!-- dir_fe16283a0bc9cab10adeac388379e51f -->
<g id="node7" class="node">
<title>dir_fe16283a0bc9cab10adeac388379e51f</title>
<g id="a_node7"><a xlink:href="dir_fe16283a0bc9cab10adeac388379e51f.html" target="_top" xlink:title="type_pack">
<polygon fill="white" stroke="red" points="171.5,-132 104.5,-132 104.5,-96 171.5,-96 171.5,-132"/>
<text text-anchor="middle" x="138" y="-111.5" font-family="Helvetica,sans-Serif" font-size="10.00">type_pack</text>
</a>
</g>
</g>
<!-- dir_7465b06235f1ba32e362a68c63a3ff89&#45;&gt;dir_fe16283a0bc9cab10adeac388379e51f -->
<g id="edge2" class="edge">
<title>dir_7465b06235f1ba32e362a68c63a3ff89&#45;&gt;dir_fe16283a0bc9cab10adeac388379e51f</title>
<path fill="none" stroke="black" d="M150.15,-167.7C146.67,-159.9 143.23,-150.51 140.61,-141.83"/>
<polygon fill="black" stroke="black" points="143.97,-140.83 137.97,-132.1 137.22,-142.67 143.97,-140.83"/>
<g id="a_edge2&#45;headlabel"><a xlink:href="dir_000029_000030.html" target="_top" xlink:title="2">
<text text-anchor="middle" x="147.65" y="-141.06" font-family="Helvetica,sans-Serif" font-size="10.00">2</text>
</a>
</g>
</g>
<!-- dir_7465b06235f1ba32e362a68c63a3ff89&#45;&gt;dir_33e551785948eac87ac89df08586a1e6 -->
<g id="edge1" class="edge">
<title>dir_7465b06235f1ba32e362a68c63a3ff89&#45;&gt;dir_33e551785948eac87ac89df08586a1e6</title>
<path fill="none" stroke="black" d="M164,-167.75C169.68,-149.68 179.2,-120.56 172,-96 169.23,-86.55 164.2,-77.19 159.23,-69.02"/>
<polygon fill="black" stroke="black" points="162.07,-66.96 153.78,-60.37 156.15,-70.69 162.07,-66.96"/>
<g id="a_edge1&#45;headlabel"><a xlink:href="dir_000029_000031.html" target="_top" xlink:title="1">
<text text-anchor="middle" x="166.39" y="-65.99" font-family="Helvetica,sans-Serif" font-size="10.00">1</text>
</a>
</g>
</g>
<!-- dir_fe16283a0bc9cab10adeac388379e51f&#45;&gt;dir_7465b06235f1ba32e362a68c63a3ff89 -->
<g id="edge7" class="edge">
<title>dir_fe16283a0bc9cab10adeac388379e51f&#45;&gt;dir_7465b06235f1ba32e362a68c63a3ff89</title>
<path fill="none" stroke="black" d="M149.76,-132.1C153.24,-139.88 156.69,-149.26 159.32,-157.95"/>
<polygon fill="black" stroke="black" points="155.97,-158.97 161.98,-167.7 162.72,-157.13 155.97,-158.97"/>
<g id="a_edge7&#45;headlabel"><a xlink:href="dir_000030_000029.html" target="_top" xlink:title="1">
<text text-anchor="middle" x="152.28" y="-153.76" font-family="Helvetica,sans-Serif" font-size="10.00">1</text>
</a>
</g>
</g>
<!-- dir_fe16283a0bc9cab10adeac388379e51f&#45;&gt;dir_33e551785948eac87ac89df08586a1e6 -->
<g id="edge6" class="edge">
<title>dir_fe16283a0bc9cab10adeac388379e51f&#45;&gt;dir_33e551785948eac87ac89df08586a1e6</title>
<path fill="none" stroke="black" d="M140.22,-95.7C141.22,-87.98 142.41,-78.71 143.51,-70.11"/>
<polygon fill="black" stroke="black" points="147,-70.47 144.8,-60.1 140.05,-69.58 147,-70.47"/>
<g id="a_edge6&#45;headlabel"><a xlink:href="dir_000030_000031.html" target="_top" xlink:title="1">
<text text-anchor="middle" x="149.35" y="-71.9" font-family="Helvetica,sans-Serif" font-size="10.00">1</text>
</a>
</g>
</g>
<!-- dir_33e551785948eac87ac89df08586a1e6&#45;&gt;dir_7465b06235f1ba32e362a68c63a3ff89 -->
<g id="edge3" class="edge">
<title>dir_33e551785948eac87ac89df08586a1e6&#45;&gt;dir_7465b06235f1ba32e362a68c63a3ff89</title>
<path fill="none" stroke="black" d="M169.73,-60.37C178.09,-70.15 186.19,-82.99 190,-96 196.08,-116.72 190.25,-140.69 182.12,-158.53"/>
<polygon fill="black" stroke="black" points="178.85,-157.25 177.44,-167.75 185.09,-160.42 178.85,-157.25"/>
<g id="a_edge3&#45;headlabel"><a xlink:href="dir_000031_000029.html" target="_top" xlink:title="1">
<text text-anchor="middle" x="177.95" y="-150.26" font-family="Helvetica,sans-Serif" font-size="10.00">1</text>
</a>
</g>
</g>
</g>
</svg>
