<?xml version="1.0" encoding="UTF-8" standalone="no"?>
<!DOCTYPE svg PUBLIC "-//W3C//DTD SVG 1.1//EN"
 "http://www.w3.org/Graphics/SVG/1.1/DTD/svg11.dtd">
<!-- Generated by graphviz version 2.43.0 (0)
 -->
<!-- Title: bio/alphabet Pages: 1 -->
<svg width="452pt" height="471pt"
 viewBox="0.00 0.00 452.00 471.00" xmlns="http://www.w3.org/2000/svg" xmlns:xlink="http://www.w3.org/1999/xlink">
<g id="graph0" class="graph" transform="scale(1 1) rotate(0) translate(4 467)">
<title>bio/alphabet</title>
<polygon fill="white" stroke="transparent" points="-4,4 -4,-467 448,-467 448,4 -4,4"/>
<g id="clust1" class="cluster">
<title>clusterdir_740f9cb2a3f5b47e1148c9e4d90d8bf4</title>
<g id="a_clust1"><a xlink:href="dir_740f9cb2a3f5b47e1148c9e4d90d8bf4.html" target="_top" xlink:title="bio">
<polygon fill="#ddddee" stroke="black" points="8,-8 8,-455 436,-455 436,-8 8,-8"/>
<text text-anchor="middle" x="222" y="-443" font-family="Helvetica,sans-Serif" font-size="10.00">bio</text>
</a>
</g>
</g>
<g id="clust2" class="cluster">
<title>clusterdir_9b716f18bdad80f0bcc9544c5d50fede</title>
<g id="a_clust2"><a xlink:href="dir_9b716f18bdad80f0bcc9544c5d50fede.html" target="_top">
<polygon fill="#eeeeff" stroke="black" points="16,-16 16,-428 346,-428 346,-16 16,-16"/>
</a>
</g>
</g>
<!-- dir_ae91ba6220f34d5fbc73d95dc714bae8 -->
<g id="node1" class="node">
<title>dir_ae91ba6220f34d5fbc73d95dc714bae8</title>
<g id="a_node1"><a xlink:href="dir_ae91ba6220f34d5fbc73d95dc714bae8.html" target="_top" xlink:title="meta">
<polygon fill="white" stroke="red" points="408,-132 354,-132 354,-96 408,-96 408,-132"/>
<text text-anchor="middle" x="381" y="-111.5" font-family="Helvetica,sans-Serif" font-size="10.00">meta</text>
</a>
</g>
</g>
<!-- dir_a05deca243559b9ee49c1fff2a7d2ca3 -->
<g id="node2" class="node">
<title>dir_a05deca243559b9ee49c1fff2a7d2ca3</title>
<g id="a_node2"><a xlink:href="dir_a05deca243559b9ee49c1fff2a7d2ca3.html" target="_top" xlink:title="ranges">
<polygon fill="white" stroke="red" points="408,-276 354,-276 354,-240 408,-240 408,-276"/>
<text text-anchor="middle" x="381" y="-255.5" font-family="Helvetica,sans-Serif" font-size="10.00">ranges</text>
</a>
</g>
</g>
<!-- dir_a05deca243559b9ee49c1fff2a7d2ca3&#45;&gt;dir_ae91ba6220f34d5fbc73d95dc714bae8 -->
<g id="edge8" class="edge">
<title>dir_a05deca243559b9ee49c1fff2a7d2ca3&#45;&gt;dir_ae91ba6220f34d5fbc73d95dc714bae8</title>
<path fill="none" stroke="black" d="M381,-239.87C381,-215.67 381,-171.21 381,-142.39"/>
<polygon fill="black" stroke="black" points="384.5,-142.19 381,-132.19 377.5,-142.19 384.5,-142.19"/>
<g id="a_edge8&#45;headlabel"><a xlink:href="dir_000027_000022.html" target="_top" xlink:title="21">
<text text-anchor="middle" x="387.34" y="-143.28" font-family="Helvetica,sans-Serif" font-size="10.00">21</text>
</a>
</g>
</g>
<!-- dir_c5c94c5e6394b8bbdcce9ce299c309d0 -->
<g id="node5" class="node">
<title>dir_c5c94c5e6394b8bbdcce9ce299c309d0</title>
<g id="a_node5"><a xlink:href="dir_c5c94c5e6394b8bbdcce9ce299c309d0.html" target="_top" xlink:title="aminoacid">
<polygon fill="white" stroke="black" points="191,-276 123,-276 123,-240 191,-240 191,-276"/>
<text text-anchor="middle" x="157" y="-255.5" font-family="Helvetica,sans-Serif" font-size="10.00">aminoacid</text>
</a>
</g>
</g>
<!-- dir_a05deca243559b9ee49c1fff2a7d2ca3&#45;&gt;dir_c5c94c5e6394b8bbdcce9ce299c309d0 -->
<g id="edge11" class="edge">
<title>dir_a05deca243559b9ee49c1fff2a7d2ca3&#45;&gt;dir_c5c94c5e6394b8bbdcce9ce299c309d0</title>
<path fill="none" stroke="black" d="M366.17,-276.18C359.33,-283.15 350.59,-290.32 341,-294 286.23,-315.02 265,-311.49 209,-294 200.71,-291.41 192.59,-286.99 185.31,-282.11"/>
<polygon fill="black" stroke="black" points="187.36,-279.27 177.2,-276.26 183.26,-284.95 187.36,-279.27"/>
<g id="a_edge11&#45;headlabel"><a xlink:href="dir_000027_000015.html" target="_top" xlink:title="2">
<text text-anchor="middle" x="191.93" y="-276.57" font-family="Helvetica,sans-Serif" font-size="10.00">2</text>
</a>
</g>
</g>
<!-- dir_f377ddb9e571c137aa69ccd22c1bf99e -->
<g id="node8" class="node">
<title>dir_f377ddb9e571c137aa69ccd22c1bf99e</title>
<g id="a_node8"><a xlink:href="dir_f377ddb9e571c137aa69ccd22c1bf99e.html" target="_top" xlink:title="detail">
<polygon fill="white" stroke="black" points="276,-204 222,-204 222,-168 276,-168 276,-204"/>
<text text-anchor="middle" x="249" y="-183.5" font-family="Helvetica,sans-Serif" font-size="10.00">detail</text>
</a>
</g>
</g>
<!-- dir_a05deca243559b9ee49c1fff2a7d2ca3&#45;&gt;dir_f377ddb9e571c137aa69ccd22c1bf99e -->
<g id="edge9" class="edge">
<title>dir_a05deca243559b9ee49c1fff2a7d2ca3&#45;&gt;dir_f377ddb9e571c137aa69ccd22c1bf99e</title>
<path fill="none" stroke="black" d="M353.97,-242.12C352.63,-241.4 351.3,-240.69 350,-240 322,-225.13 312.63,-221.12 285.17,-206.71"/>
<polygon fill="black" stroke="black" points="286.51,-203.45 276.03,-201.88 283.23,-209.64 286.51,-203.45"/>
<g id="a_edge9&#45;headlabel"><a xlink:href="dir_000027_000030.html" target="_top" xlink:title="1">
<text text-anchor="middle" x="291.01" y="-200.12" font-family="Helvetica,sans-Serif" font-size="10.00">1</text>
</a>
</g>
</g>
<!-- dir_8142f063462841d169d3caf3917af0e7 -->
<g id="node11" class="node">
<title>dir_8142f063462841d169d3caf3917af0e7</title>
<g id="a_node11"><a xlink:href="dir_8142f063462841d169d3caf3917af0e7.html" target="_top" xlink:title="nucleotide">
<polygon fill="white" stroke="black" points="237,-60 169,-60 169,-24 237,-24 237,-60"/>
<text text-anchor="middle" x="203" y="-39.5" font-family="Helvetica,sans-Serif" font-size="10.00">nucleotide</text>
</a>
</g>
</g>
<!-- dir_a05deca243559b9ee49c1fff2a7d2ca3&#45;&gt;dir_8142f063462841d169d3caf3917af0e7 -->
<g id="edge10" class="edge">
<title>dir_a05deca243559b9ee49c1fff2a7d2ca3&#45;&gt;dir_8142f063462841d169d3caf3917af0e7</title>
<path fill="none" stroke="black" d="M392.98,-239.96C413.7,-208.22 450.89,-139.31 417,-96 396.35,-69.61 303.83,-54.53 247.42,-47.63"/>
<polygon fill="black" stroke="black" points="247.67,-44.13 237.33,-46.43 246.85,-51.08 247.67,-44.13"/>
<g id="a_edge10&#45;headlabel"><a xlink:href="dir_000027_000020.html" target="_top" xlink:title="2">
<text text-anchor="middle" x="251.58" y="-39.24" font-family="Helvetica,sans-Serif" font-size="10.00">2</text>
</a>
</g>
</g>
<!-- dir_07786875644ed6de5ede0ed8dee13bbe -->
<g id="node12" class="node">
<title>dir_07786875644ed6de5ede0ed8dee13bbe</title>
<g id="a_node12"><a xlink:href="dir_07786875644ed6de5ede0ed8dee13bbe.html" target="_top" xlink:title="quality">
<polygon fill="white" stroke="black" points="230,-132 176,-132 176,-96 230,-96 230,-132"/>
<text text-anchor="middle" x="203" y="-111.5" font-family="Helvetica,sans-Serif" font-size="10.00">quality</text>
</a>
</g>
</g>
<!-- dir_a05deca243559b9ee49c1fff2a7d2ca3&#45;&gt;dir_07786875644ed6de5ede0ed8dee13bbe -->
<g id="edge12" class="edge">
<title>dir_a05deca243559b9ee49c1fff2a7d2ca3&#45;&gt;dir_07786875644ed6de5ede0ed8dee13bbe</title>
<path fill="none" stroke="black" d="M364.46,-239.98C345.93,-221.33 314.61,-191.01 285,-168 270.48,-156.72 253.54,-145.48 238.84,-136.27"/>
<polygon fill="black" stroke="black" points="240.37,-133.1 230.02,-130.82 236.69,-139.06 240.37,-133.1"/>
<g id="a_edge12&#45;headlabel"><a xlink:href="dir_000027_000021.html" target="_top" xlink:title="1">
<text text-anchor="middle" x="244.92" y="-130.07" font-family="Helvetica,sans-Serif" font-size="10.00">1</text>
</a>
</g>
</g>
<!-- dir_9b716f18bdad80f0bcc9544c5d50fede -->
<g id="node3" class="node">
<title>dir_9b716f18bdad80f0bcc9544c5d50fede</title>
<text text-anchor="middle" x="111" y="-399.5" font-family="Helvetica,sans-Serif" font-size="10.00">alphabet</text>
</g>
<!-- dir_afc8cbaf4e497a6ce725e04990a5cbfb -->
<g id="node4" class="node">
<title>dir_afc8cbaf4e497a6ce725e04990a5cbfb</title>
<g id="a_node4"><a xlink:href="dir_afc8cbaf4e497a6ce725e04990a5cbfb.html" target="_top" xlink:title="adaptation">
<polygon fill="white" stroke="black" points="317.5,-348 248.5,-348 248.5,-312 317.5,-312 317.5,-348"/>
<text text-anchor="middle" x="283" y="-327.5" font-family="Helvetica,sans-Serif" font-size="10.00">adaptation</text>
</a>
</g>
</g>
<!-- dir_9b716f18bdad80f0bcc9544c5d50fede&#45;&gt;dir_afc8cbaf4e497a6ce725e04990a5cbfb -->
<g id="edge18" class="edge">
<title>dir_9b716f18bdad80f0bcc9544c5d50fede&#45;&gt;dir_afc8cbaf4e497a6ce725e04990a5cbfb</title>
<path fill="none" stroke="black" d="M140.57,-388.97C167.61,-377.96 207.98,-361.53 238.84,-348.97"/>
<polygon fill="black" stroke="black" points="240.55,-352.05 248.5,-345.04 237.92,-345.57 240.55,-352.05"/>
<g id="a_edge18&#45;headlabel"><a xlink:href="dir_000013_000014.html" target="_top" xlink:title="2">
<text text-anchor="middle" x="238.29" y="-353.54" font-family="Helvetica,sans-Serif" font-size="10.00">2</text>
</a>
</g>
</g>
<!-- dir_9b716f18bdad80f0bcc9544c5d50fede&#45;&gt;dir_c5c94c5e6394b8bbdcce9ce299c309d0 -->
<g id="edge19" class="edge">
<title>dir_9b716f18bdad80f0bcc9544c5d50fede&#45;&gt;dir_c5c94c5e6394b8bbdcce9ce299c309d0</title>
<path fill="none" stroke="black" d="M95.06,-383.74C80.16,-365.42 62.01,-335.86 75,-312 83.46,-296.47 98.64,-284.79 113.67,-276.41"/>
<polygon fill="black" stroke="black" points="115.67,-279.31 122.94,-271.61 112.45,-273.1 115.67,-279.31"/>
<g id="a_edge19&#45;headlabel"><a xlink:href="dir_000013_000015.html" target="_top" xlink:title="1">
<text text-anchor="middle" x="113.78" y="-280.99" font-family="Helvetica,sans-Serif" font-size="10.00">1</text>
</a>
</g>
</g>
<!-- dir_018cbefd8b552085113eaba503c83b7f -->
<g id="node7" class="node">
<title>dir_018cbefd8b552085113eaba503c83b7f</title>
<g id="a_node7"><a xlink:href="dir_018cbefd8b552085113eaba503c83b7f.html" target="_top" xlink:title="composite">
<polygon fill="white" stroke="black" points="277,-276 209,-276 209,-240 277,-240 277,-276"/>
<text text-anchor="middle" x="243" y="-255.5" font-family="Helvetica,sans-Serif" font-size="10.00">composite</text>
</a>
</g>
</g>
<!-- dir_9b716f18bdad80f0bcc9544c5d50fede&#45;&gt;dir_018cbefd8b552085113eaba503c83b7f -->
<g id="edge14" class="edge">
<title>dir_9b716f18bdad80f0bcc9544c5d50fede&#45;&gt;dir_018cbefd8b552085113eaba503c83b7f</title>
<path fill="none" stroke="black" d="M123.4,-383.59C130.54,-373.37 139.54,-360.12 147,-348 156.6,-332.41 154.73,-325.58 167,-312 177.42,-300.46 190.81,-290.07 203.44,-281.62"/>
<polygon fill="black" stroke="black" points="205.52,-284.45 212.02,-276.08 201.72,-278.57 205.52,-284.45"/>
<g id="a_edge14&#45;headlabel"><a xlink:href="dir_000013_000017.html" target="_top" xlink:title="5">
<text text-anchor="middle" x="204.04" y="-286.28" font-family="Helvetica,sans-Serif" font-size="10.00">5</text>
</a>
</g>
</g>
<!-- dir_000e51b6accb2681cd1e3f4fd511be2f -->
<g id="node9" class="node">
<title>dir_000e51b6accb2681cd1e3f4fd511be2f</title>
<g id="a_node9"><a xlink:href="dir_000e51b6accb2681cd1e3f4fd511be2f.html" target="_top" xlink:title="gap">
<polygon fill="white" stroke="black" points="230,-348 176,-348 176,-312 230,-312 230,-348"/>
<text text-anchor="middle" x="203" y="-327.5" font-family="Helvetica,sans-Serif" font-size="10.00">gap</text>
</a>
</g>
</g>
<!-- dir_9b716f18bdad80f0bcc9544c5d50fede&#45;&gt;dir_000e51b6accb2681cd1e3f4fd511be2f -->
<g id="edge13" class="edge">
<title>dir_9b716f18bdad80f0bcc9544c5d50fede&#45;&gt;dir_000e51b6accb2681cd1e3f4fd511be2f</title>
<path fill="none" stroke="black" d="M133.74,-383.7C145.44,-374.8 159.86,-363.82 172.51,-354.2"/>
<polygon fill="black" stroke="black" points="174.68,-356.94 180.52,-348.1 170.44,-351.37 174.68,-356.94"/>
<g id="a_edge13&#45;headlabel"><a xlink:href="dir_000013_000018.html" target="_top" xlink:title="1">
<text text-anchor="middle" x="173.54" y="-358.88" font-family="Helvetica,sans-Serif" font-size="10.00">1</text>
</a>
</g>
</g>
<!-- dir_8691929ad031f40e47dd20fa9ee00775 -->
<g id="node10" class="node">
<title>dir_8691929ad031f40e47dd20fa9ee00775</title>
<g id="a_node10"><a xlink:href="dir_8691929ad031f40e47dd20fa9ee00775.html" target="_top" xlink:title="mask">
<polygon fill="white" stroke="black" points="138,-348 84,-348 84,-312 138,-312 138,-348"/>
<text text-anchor="middle" x="111" y="-327.5" font-family="Helvetica,sans-Serif" font-size="10.00">mask</text>
</a>
</g>
</g>
<!-- dir_9b716f18bdad80f0bcc9544c5d50fede&#45;&gt;dir_8691929ad031f40e47dd20fa9ee00775 -->
<g id="edge17" class="edge">
<title>dir_9b716f18bdad80f0bcc9544c5d50fede&#45;&gt;dir_8691929ad031f40e47dd20fa9ee00775</title>
<path fill="none" stroke="black" d="M111,-383.7C111,-375.98 111,-366.71 111,-358.11"/>
<polygon fill="black" stroke="black" points="114.5,-358.1 111,-348.1 107.5,-358.1 114.5,-358.1"/>
<g id="a_edge17&#45;headlabel"><a xlink:href="dir_000013_000019.html" target="_top" xlink:title="1">
<text text-anchor="middle" x="117.34" y="-359.2" font-family="Helvetica,sans-Serif" font-size="10.00">1</text>
</a>
</g>
</g>
<!-- dir_9b716f18bdad80f0bcc9544c5d50fede&#45;&gt;dir_8142f063462841d169d3caf3917af0e7 -->
<g id="edge16" class="edge">
<title>dir_9b716f18bdad80f0bcc9544c5d50fede&#45;&gt;dir_8142f063462841d169d3caf3917af0e7</title>
<path fill="none" stroke="black" d="M91.12,-383.89C80.78,-374.18 68.55,-361.33 60,-348 37.05,-312.23 25,-301.5 25,-259 25,-259 25,-259 25,-185 25,-116.52 106.49,-75.7 159.2,-56.46"/>
<polygon fill="black" stroke="black" points="160.41,-59.74 168.68,-53.12 158.09,-53.14 160.41,-59.74"/>
<g id="a_edge16&#45;headlabel"><a xlink:href="dir_000013_000020.html" target="_top" xlink:title="11">
<text text-anchor="middle" x="157.97" y="-61.12" font-family="Helvetica,sans-Serif" font-size="10.00">11</text>
</a>
</g>
</g>
<!-- dir_9b716f18bdad80f0bcc9544c5d50fede&#45;&gt;dir_07786875644ed6de5ede0ed8dee13bbe -->
<g id="edge15" class="edge">
<title>dir_9b716f18bdad80f0bcc9544c5d50fede&#45;&gt;dir_07786875644ed6de5ede0ed8dee13bbe</title>
<path fill="none" stroke="black" d="M91.53,-383.92C82.18,-374.4 71.95,-361.72 67,-348 61.57,-332.95 62.44,-327.34 67,-312 87.99,-241.45 145.03,-174.23 178.19,-139.5"/>
<polygon fill="black" stroke="black" points="180.83,-141.8 185.28,-132.19 175.81,-136.93 180.83,-141.8"/>
<g id="a_edge15&#45;headlabel"><a xlink:href="dir_000013_000021.html" target="_top" xlink:title="2">
<text text-anchor="middle" x="180.37" y="-143.86" font-family="Helvetica,sans-Serif" font-size="10.00">2</text>
</a>
</g>
</g>
<!-- dir_afc8cbaf4e497a6ce725e04990a5cbfb&#45;&gt;dir_ae91ba6220f34d5fbc73d95dc714bae8 -->
<g id="edge25" class="edge">
<title>dir_afc8cbaf4e497a6ce725e04990a5cbfb&#45;&gt;dir_ae91ba6220f34d5fbc73d95dc714bae8</title>
<path fill="none" stroke="black" d="M290.85,-311.85C307.91,-274.6 348.46,-186.07 368.85,-141.54"/>
<polygon fill="black" stroke="black" points="372.13,-142.78 373.11,-132.23 365.76,-139.87 372.13,-142.78"/>
<g id="a_edge25&#45;headlabel"><a xlink:href="dir_000014_000022.html" target="_top" xlink:title="2">
<text text-anchor="middle" x="373.21" y="-144.73" font-family="Helvetica,sans-Serif" font-size="10.00">2</text>
</a>
</g>
</g>
<!-- dir_c5c94c5e6394b8bbdcce9ce299c309d0&#45;&gt;dir_ae91ba6220f34d5fbc73d95dc714bae8 -->
<g id="edge28" class="edge">
<title>dir_c5c94c5e6394b8bbdcce9ce299c309d0&#45;&gt;dir_ae91ba6220f34d5fbc73d95dc714bae8</title>
<path fill="none" stroke="black" d="M191.01,-243.28C228.32,-228.18 283.21,-205.79 285,-204 297.27,-191.76 288.93,-181.33 300,-168 306.78,-159.83 326.6,-146.82 344.93,-135.73"/>
<polygon fill="black" stroke="black" points="346.95,-138.6 353.74,-130.48 343.36,-132.59 346.95,-138.6"/>
<g id="a_edge28&#45;headlabel"><a xlink:href="dir_000015_000022.html" target="_top" xlink:title="1">
<text text-anchor="middle" x="345.32" y="-140.38" font-family="Helvetica,sans-Serif" font-size="10.00">1</text>
</a>
</g>
</g>
<!-- dir_c5c94c5e6394b8bbdcce9ce299c309d0&#45;&gt;dir_a05deca243559b9ee49c1fff2a7d2ca3 -->
<g id="edge27" class="edge">
<title>dir_c5c94c5e6394b8bbdcce9ce299c309d0&#45;&gt;dir_a05deca243559b9ee49c1fff2a7d2ca3</title>
<path fill="none" stroke="black" d="M177.2,-276.26C186.25,-283.25 197.47,-290.4 209,-294 265,-311.49 286.23,-315.02 341,-294 347.3,-291.58 353.22,-287.67 358.49,-283.29"/>
<polygon fill="black" stroke="black" points="361.21,-285.54 366.17,-276.18 356.45,-280.4 361.21,-285.54"/>
<g id="a_edge27&#45;headlabel"><a xlink:href="dir_000015_000027.html" target="_top" xlink:title="1">
<text text-anchor="middle" x="360.5" y="-287.56" font-family="Helvetica,sans-Serif" font-size="10.00">1</text>
</a>
</g>
</g>
<!-- dir_c5c94c5e6394b8bbdcce9ce299c309d0&#45;&gt;dir_8142f063462841d169d3caf3917af0e7 -->
<g id="edge26" class="edge">
<title>dir_c5c94c5e6394b8bbdcce9ce299c309d0&#45;&gt;dir_8142f063462841d169d3caf3917af0e7</title>
<path fill="none" stroke="black" d="M155.18,-239.98C152.59,-209.97 149.88,-146.09 167,-96 170.31,-86.31 175.89,-76.74 181.69,-68.45"/>
<polygon fill="black" stroke="black" points="184.57,-70.45 187.71,-60.33 178.94,-66.28 184.57,-70.45"/>
<g id="a_edge26&#45;headlabel"><a xlink:href="dir_000015_000020.html" target="_top" xlink:title="2">
<text text-anchor="middle" x="184.7" y="-72.53" font-family="Helvetica,sans-Serif" font-size="10.00">2</text>
</a>
</g>
</g>
<!-- dir_38406977c69206a4a7a9ef30acbdcff1 -->
<g id="node6" class="node">
<title>dir_38406977c69206a4a7a9ef30acbdcff1</title>
<g id="a_node6"><a xlink:href="dir_38406977c69206a4a7a9ef30acbdcff1.html" target="_top" xlink:title="cigar">
<polygon fill="white" stroke="black" points="338,-420 284,-420 284,-384 338,-384 338,-420"/>
<text text-anchor="middle" x="311" y="-399.5" font-family="Helvetica,sans-Serif" font-size="10.00">cigar</text>
</a>
</g>
</g>
<!-- dir_38406977c69206a4a7a9ef30acbdcff1&#45;&gt;dir_a05deca243559b9ee49c1fff2a7d2ca3 -->
<g id="edge21" class="edge">
<title>dir_38406977c69206a4a7a9ef30acbdcff1&#45;&gt;dir_a05deca243559b9ee49c1fff2a7d2ca3</title>
<path fill="none" stroke="black" d="M319.44,-383.87C331.53,-359.35 353.87,-314.03 368.06,-285.26"/>
<polygon fill="black" stroke="black" points="371.24,-286.71 372.53,-276.19 364.97,-283.61 371.24,-286.71"/>
<g id="a_edge21&#45;headlabel"><a xlink:href="dir_000016_000027.html" target="_top" xlink:title="1">
<text text-anchor="middle" x="372.2" y="-288.69" font-family="Helvetica,sans-Serif" font-size="10.00">1</text>
</a>
</g>
</g>
<!-- dir_38406977c69206a4a7a9ef30acbdcff1&#45;&gt;dir_afc8cbaf4e497a6ce725e04990a5cbfb -->
<g id="edge22" class="edge">
<title>dir_38406977c69206a4a7a9ef30acbdcff1&#45;&gt;dir_afc8cbaf4e497a6ce725e04990a5cbfb</title>
<path fill="none" stroke="black" d="M304.08,-383.7C300.93,-375.81 297.12,-366.3 293.62,-357.55"/>
<polygon fill="black" stroke="black" points="296.81,-356.09 289.84,-348.1 290.31,-358.69 296.81,-356.09"/>
<g id="a_edge22&#45;headlabel"><a xlink:href="dir_000016_000014.html" target="_top" xlink:title="1">
<text text-anchor="middle" x="300.78" y="-355.87" font-family="Helvetica,sans-Serif" font-size="10.00">1</text>
</a>
</g>
</g>
<!-- dir_38406977c69206a4a7a9ef30acbdcff1&#45;&gt;dir_018cbefd8b552085113eaba503c83b7f -->
<g id="edge20" class="edge">
<title>dir_38406977c69206a4a7a9ef30acbdcff1&#45;&gt;dir_018cbefd8b552085113eaba503c83b7f</title>
<path fill="none" stroke="black" d="M320.05,-383.85C328.6,-365.09 338.42,-334.67 326,-312 321.16,-303.17 303.22,-291.26 285.25,-280.96"/>
<polygon fill="black" stroke="black" points="286.92,-277.88 276.48,-276.05 283.5,-283.99 286.92,-277.88"/>
<g id="a_edge20&#45;headlabel"><a xlink:href="dir_000016_000017.html" target="_top" xlink:title="1">
<text text-anchor="middle" x="291.44" y="-274.66" font-family="Helvetica,sans-Serif" font-size="10.00">1</text>
</a>
</g>
</g>
<!-- dir_018cbefd8b552085113eaba503c83b7f&#45;&gt;dir_ae91ba6220f34d5fbc73d95dc714bae8 -->
<g id="edge23" class="edge">
<title>dir_018cbefd8b552085113eaba503c83b7f&#45;&gt;dir_ae91ba6220f34d5fbc73d95dc714bae8</title>
<path fill="none" stroke="black" d="M262.58,-239.92C273.86,-229.81 288.11,-216.56 300,-204 314.32,-188.88 316.1,-183.51 330,-168 338.43,-158.58 347.97,-148.52 356.5,-139.73"/>
<polygon fill="black" stroke="black" points="359.2,-141.97 363.68,-132.37 354.19,-137.08 359.2,-141.97"/>
<g id="a_edge23&#45;headlabel"><a xlink:href="dir_000017_000022.html" target="_top" xlink:title="9">
<text text-anchor="middle" x="358.72" y="-144.03" font-family="Helvetica,sans-Serif" font-size="10.00">9</text>
</a>
</g>
</g>
<!-- dir_018cbefd8b552085113eaba503c83b7f&#45;&gt;dir_f377ddb9e571c137aa69ccd22c1bf99e -->
<g id="edge24" class="edge">
<title>dir_018cbefd8b552085113eaba503c83b7f&#45;&gt;dir_f377ddb9e571c137aa69ccd22c1bf99e</title>
<path fill="none" stroke="black" d="M244.48,-239.7C245.14,-231.98 245.94,-222.71 246.68,-214.11"/>
<polygon fill="black" stroke="black" points="250.17,-214.37 247.53,-204.1 243.19,-213.77 250.17,-214.37"/>
<g id="a_edge24&#45;headlabel"><a xlink:href="dir_000017_000030.html" target="_top" xlink:title="1">
<text text-anchor="middle" x="252.69" y="-215.69" font-family="Helvetica,sans-Serif" font-size="10.00">1</text>
</a>
</g>
</g>
<!-- dir_f377ddb9e571c137aa69ccd22c1bf99e&#45;&gt;dir_ae91ba6220f34d5fbc73d95dc714bae8 -->
<g id="edge6" class="edge">
<title>dir_f377ddb9e571c137aa69ccd22c1bf99e&#45;&gt;dir_ae91ba6220f34d5fbc73d95dc714bae8</title>
<path fill="none" stroke="black" d="M276.03,-170.12C277.37,-169.4 278.7,-168.69 280,-168 308,-153.13 317.37,-149.12 344.83,-134.71"/>
<polygon fill="black" stroke="black" points="346.77,-137.64 353.97,-129.88 343.49,-131.45 346.77,-137.64"/>
<g id="a_edge6&#45;headlabel"><a xlink:href="dir_000030_000022.html" target="_top" xlink:title="3">
<text text-anchor="middle" x="344.91" y="-139.33" font-family="Helvetica,sans-Serif" font-size="10.00">3</text>
</a>
</g>
</g>
<!-- dir_f377ddb9e571c137aa69ccd22c1bf99e&#45;&gt;dir_8142f063462841d169d3caf3917af0e7 -->
<g id="edge5" class="edge">
<title>dir_f377ddb9e571c137aa69ccd22c1bf99e&#45;&gt;dir_8142f063462841d169d3caf3917af0e7</title>
<path fill="none" stroke="black" d="M249.48,-167.71C249.44,-149.35 247.79,-119.77 239,-96 235.45,-86.4 229.8,-76.85 224.02,-68.56"/>
<polygon fill="black" stroke="black" points="226.77,-66.4 218.03,-60.42 221.14,-70.55 226.77,-66.4"/>
<g id="a_edge5&#45;headlabel"><a xlink:href="dir_000030_000020.html" target="_top" xlink:title="1">
<text text-anchor="middle" x="231.19" y="-65.11" font-family="Helvetica,sans-Serif" font-size="10.00">1</text>
</a>
</g>
</g>
<!-- dir_f377ddb9e571c137aa69ccd22c1bf99e&#45;&gt;dir_07786875644ed6de5ede0ed8dee13bbe -->
<g id="edge4" class="edge">
<title>dir_f377ddb9e571c137aa69ccd22c1bf99e&#45;&gt;dir_07786875644ed6de5ede0ed8dee13bbe</title>
<path fill="none" stroke="black" d="M237.63,-167.7C232.28,-159.56 225.8,-149.69 219.89,-140.7"/>
<polygon fill="black" stroke="black" points="222.66,-138.54 214.24,-132.1 216.81,-142.38 222.66,-138.54"/>
<g id="a_edge4&#45;headlabel"><a xlink:href="dir_000030_000021.html" target="_top" xlink:title="1">
<text text-anchor="middle" x="227" y="-137.48" font-family="Helvetica,sans-Serif" font-size="10.00">1</text>
</a>
</g>
</g>
<!-- dir_000e51b6accb2681cd1e3f4fd511be2f&#45;&gt;dir_018cbefd8b552085113eaba503c83b7f -->
<g id="edge7" class="edge">
<title>dir_000e51b6accb2681cd1e3f4fd511be2f&#45;&gt;dir_018cbefd8b552085113eaba503c83b7f</title>
<path fill="none" stroke="black" d="M212.89,-311.7C217.49,-303.64 223.06,-293.89 228.15,-284.98"/>
<polygon fill="black" stroke="black" points="231.3,-286.52 233.23,-276.1 225.23,-283.05 231.3,-286.52"/>
<g id="a_edge7&#45;headlabel"><a xlink:href="dir_000018_000017.html" target="_top" xlink:title="1">
<text text-anchor="middle" x="231.99" y="-288.55" font-family="Helvetica,sans-Serif" font-size="10.00">1</text>
</a>
</g>
</g>
<!-- dir_8691929ad031f40e47dd20fa9ee00775&#45;&gt;dir_018cbefd8b552085113eaba503c83b7f -->
<g id="edge3" class="edge">
<title>dir_8691929ad031f40e47dd20fa9ee00775&#45;&gt;dir_018cbefd8b552085113eaba503c83b7f</title>
<path fill="none" stroke="black" d="M138.03,-314.67C156.43,-304.91 181.12,-291.82 201.93,-280.78"/>
<polygon fill="black" stroke="black" points="203.69,-283.81 210.88,-276.03 200.41,-277.62 203.69,-283.81"/>
<g id="a_edge3&#45;headlabel"><a xlink:href="dir_000019_000017.html" target="_top" xlink:title="1">
<text text-anchor="middle" x="201.84" y="-285.5" font-family="Helvetica,sans-Serif" font-size="10.00">1</text>
</a>
</g>
</g>
<!-- dir_07786875644ed6de5ede0ed8dee13bbe&#45;&gt;dir_018cbefd8b552085113eaba503c83b7f -->
<g id="edge1" class="edge">
<title>dir_07786875644ed6de5ede0ed8dee13bbe&#45;&gt;dir_018cbefd8b552085113eaba503c83b7f</title>
<path fill="none" stroke="black" d="M202.91,-132.16C203.27,-150.4 205.18,-179.89 213,-204 215.98,-213.21 220.67,-222.61 225.46,-230.88"/>
<polygon fill="black" stroke="black" points="222.63,-232.97 230.83,-239.68 228.61,-229.32 222.63,-232.97"/>
<g id="a_edge1&#45;headlabel"><a xlink:href="dir_000021_000017.html" target="_top" xlink:title="1">
<text text-anchor="middle" x="218.34" y="-228.88" font-family="Helvetica,sans-Serif" font-size="10.00">1</text>
</a>
</g>
</g>
<!-- dir_07786875644ed6de5ede0ed8dee13bbe&#45;&gt;dir_8142f063462841d169d3caf3917af0e7 -->
<g id="edge2" class="edge">
<title>dir_07786875644ed6de5ede0ed8dee13bbe&#45;&gt;dir_8142f063462841d169d3caf3917af0e7</title>
<path fill="none" stroke="black" d="M203,-95.7C203,-87.98 203,-78.71 203,-70.11"/>
<polygon fill="black" stroke="black" points="206.5,-70.1 203,-60.1 199.5,-70.1 206.5,-70.1"/>
<g id="a_edge2&#45;headlabel"><a xlink:href="dir_000021_000020.html" target="_top" xlink:title="7">
<text text-anchor="middle" x="209.34" y="-71.2" font-family="Helvetica,sans-Serif" font-size="10.00">7</text>
</a>
</g>
</g>
</g>
</svg>
