<?xml version="1.0" encoding="UTF-8" standalone="no"?>
<!DOCTYPE svg PUBLIC "-//W3C//DTD SVG 1.1//EN"
 "http://www.w3.org/Graphics/SVG/1.1/DTD/svg11.dtd">
<!-- Generated by graphviz version 2.43.0 (0)
 -->
<!-- Title: bio Pages: 1 -->
<svg width="172pt" height="220pt"
 viewBox="0.00 0.00 172.00 220.00" xmlns="http://www.w3.org/2000/svg" xmlns:xlink="http://www.w3.org/1999/xlink">
<g id="graph0" class="graph" transform="scale(1 1) rotate(0) translate(4 216)">
<title>bio</title>
<polygon fill="white" stroke="transparent" points="-4,4 -4,-216 168,-216 168,4 -4,4"/>
<g id="clust1" class="cluster">
<title>clusterdir_740f9cb2a3f5b47e1148c9e4d90d8bf4</title>
<g id="a_clust1"><a xlink:href="dir_740f9cb2a3f5b47e1148c9e4d90d8bf4.html" target="_top">
<polygon fill="#eeeeff" stroke="black" points="8,-8 8,-204 156,-204 156,-8 8,-8"/>
</a>
</g>
</g>
<!-- dir_740f9cb2a3f5b47e1148c9e4d90d8bf4 -->
<g id="node1" class="node">
<title>dir_740f9cb2a3f5b47e1148c9e4d90d8bf4</title>
<text text-anchor="middle" x="121" y="-175.5" font-family="Helvetica,sans-Serif" font-size="10.00">bio</text>
</g>
<!-- dir_9b716f18bdad80f0bcc9544c5d50fede -->
<g id="node2" class="node">
<title>dir_9b716f18bdad80f0bcc9544c5d50fede</title>
<g id="a_node2"><a xlink:href="dir_9b716f18bdad80f0bcc9544c5d50fede.html" target="_top" xlink:title="alphabet">
<polygon fill="white" stroke="red" points="75.5,-196 16.5,-196 16.5,-160 75.5,-160 75.5,-196"/>
<text text-anchor="middle" x="46" y="-175.5" font-family="Helvetica,sans-Serif" font-size="10.00">alphabet</text>
</a>
</g>
</g>
<!-- dir_ae91ba6220f34d5fbc73d95dc714bae8 -->
<g id="node3" class="node">
<title>dir_ae91ba6220f34d5fbc73d95dc714bae8</title>
<g id="a_node3"><a xlink:href="dir_ae91ba6220f34d5fbc73d95dc714bae8.html" target="_top" xlink:title="meta">
<polygon fill="white" stroke="red" points="71,-52 17,-52 17,-16 71,-16 71,-52"/>
<text text-anchor="middle" x="44" y="-31.5" font-family="Helvetica,sans-Serif" font-size="10.00">meta</text>
</a>
</g>
</g>
<!-- dir_9b716f18bdad80f0bcc9544c5d50fede&#45;&gt;dir_ae91ba6220f34d5fbc73d95dc714bae8 -->
<g id="edge4" class="edge">
<title>dir_9b716f18bdad80f0bcc9544c5d50fede&#45;&gt;dir_ae91ba6220f34d5fbc73d95dc714bae8</title>
<path fill="none" stroke="black" d="M41.17,-159.87C38.28,-135.67 37.36,-91.21 38.93,-62.39"/>
<polygon fill="black" stroke="black" points="42.43,-62.41 39.65,-52.19 35.45,-61.92 42.43,-62.41"/>
<g id="a_edge4&#45;headlabel"><a xlink:href="dir_000015_000025.html" target="_top" xlink:title="39">
<text text-anchor="middle" x="45.01" y="-63.7" font-family="Helvetica,sans-Serif" font-size="10.00">39</text>
</a>
</g>
</g>
<!-- dir_a05deca243559b9ee49c1fff2a7d2ca3 -->
<g id="node4" class="node">
<title>dir_a05deca243559b9ee49c1fff2a7d2ca3</title>
<g id="a_node4"><a xlink:href="dir_a05deca243559b9ee49c1fff2a7d2ca3.html" target="_top" xlink:title="ranges">
<polygon fill="white" stroke="red" points="117,-124 63,-124 63,-88 117,-88 117,-124"/>
<text text-anchor="middle" x="90" y="-103.5" font-family="Helvetica,sans-Serif" font-size="10.00">ranges</text>
</a>
</g>
</g>
<!-- dir_9b716f18bdad80f0bcc9544c5d50fede&#45;&gt;dir_a05deca243559b9ee49c1fff2a7d2ca3 -->
<g id="edge5" class="edge">
<title>dir_9b716f18bdad80f0bcc9544c5d50fede&#45;&gt;dir_a05deca243559b9ee49c1fff2a7d2ca3</title>
<path fill="none" stroke="black" d="M50.96,-159.7C55.28,-151.47 61.36,-141.48 67.5,-132.42"/>
<polygon fill="black" stroke="black" points="70.46,-134.3 73.35,-124.1 64.74,-130.27 70.46,-134.3"/>
<g id="a_edge5&#45;headlabel"><a xlink:href="dir_000015_000032.html" target="_top" xlink:title="1">
<text text-anchor="middle" x="70.71" y="-136.37" font-family="Helvetica,sans-Serif" font-size="10.00">1</text>
</a>
</g>
</g>
<!-- dir_ae91ba6220f34d5fbc73d95dc714bae8&#45;&gt;dir_9b716f18bdad80f0bcc9544c5d50fede -->
<g id="edge3" class="edge">
<title>dir_ae91ba6220f34d5fbc73d95dc714bae8&#45;&gt;dir_9b716f18bdad80f0bcc9544c5d50fede</title>
<path fill="none" stroke="black" d="M48.83,-52.19C51.73,-76.42 52.64,-120.89 51.07,-149.68"/>
<polygon fill="black" stroke="black" points="47.56,-149.65 50.34,-159.87 54.54,-150.15 47.56,-149.65"/>
<g id="a_edge3&#45;headlabel"><a xlink:href="dir_000025_000015.html" target="_top" xlink:title="2">
<text text-anchor="middle" x="44.99" y="-143.36" font-family="Helvetica,sans-Serif" font-size="10.00">2</text>
</a>
</g>
</g>
<!-- dir_a05deca243559b9ee49c1fff2a7d2ca3&#45;&gt;dir_9b716f18bdad80f0bcc9544c5d50fede -->
<g id="edge1" class="edge">
<title>dir_a05deca243559b9ee49c1fff2a7d2ca3&#45;&gt;dir_9b716f18bdad80f0bcc9544c5d50fede</title>
<path fill="none" stroke="black" d="M85.14,-124.1C80.85,-132.3 74.79,-142.28 68.65,-151.36"/>
<polygon fill="black" stroke="black" points="65.68,-149.5 62.79,-159.7 71.4,-153.52 65.68,-149.5"/>
<g id="a_edge1&#45;headlabel"><a xlink:href="dir_000032_000015.html" target="_top" xlink:title="14">
<text text-anchor="middle" x="65.42" y="-142.43" font-family="Helvetica,sans-Serif" font-size="10.00">14</text>
</a>
</g>
</g>
<!-- dir_a05deca243559b9ee49c1fff2a7d2ca3&#45;&gt;dir_ae91ba6220f34d5fbc73d95dc714bae8 -->
<g id="edge2" class="edge">
<title>dir_a05deca243559b9ee49c1fff2a7d2ca3&#45;&gt;dir_ae91ba6220f34d5fbc73d95dc714bae8</title>
<path fill="none" stroke="black" d="M78.63,-87.7C73.28,-79.56 66.8,-69.69 60.89,-60.7"/>
<polygon fill="black" stroke="black" points="63.66,-58.54 55.24,-52.1 57.81,-62.38 63.66,-58.54"/>
<g id="a_edge2&#45;headlabel"><a xlink:href="dir_000032_000025.html" target="_top" xlink:title="42">
<text text-anchor="middle" x="68" y="-57.48" font-family="Helvetica,sans-Serif" font-size="10.00">42</text>
</a>
</g>
</g>
</g>
</svg>
