<?xml version="1.0" encoding="UTF-8" standalone="no"?>
<!DOCTYPE svg PUBLIC "-//W3C//DTD SVG 1.1//EN"
 "http://www.w3.org/Graphics/SVG/1.1/DTD/svg11.dtd">
<!-- Generated by graphviz version 2.43.0 (0)
 -->
<!-- Title: bio/alphabet/cigar Pages: 1 -->
<svg width="252pt" height="167pt"
 viewBox="0.00 0.00 252.00 167.00" xmlns="http://www.w3.org/2000/svg" xmlns:xlink="http://www.w3.org/1999/xlink">
<g id="graph0" class="graph" transform="scale(1 1) rotate(0) translate(4 163)">
<title>bio/alphabet/cigar</title>
<polygon fill="white" stroke="transparent" points="-4,4 -4,-163 248,-163 248,4 -4,4"/>
<g id="clust1" class="cluster">
<title>clusterdir_9b716f18bdad80f0bcc9544c5d50fede</title>
<g id="a_clust1"><a xlink:href="dir_9b716f18bdad80f0bcc9544c5d50fede.html" target="_top" xlink:title="alphabet">
<polygon fill="#ddddee" stroke="black" points="8,-8 8,-151 180,-151 180,-8 8,-8"/>
<text text-anchor="middle" x="94" y="-139" font-family="Helvetica,sans-Serif" font-size="10.00">alphabet</text>
</a>
</g>
</g>
<!-- dir_018cbefd8b552085113eaba503c83b7f -->
<g id="node1" class="node">
<title>dir_018cbefd8b552085113eaba503c83b7f</title>
<g id="a_node1"><a xlink:href="dir_018cbefd8b552085113eaba503c83b7f.html" target="_top" xlink:title="composite">
<polygon fill="none" stroke="black" points="84,-52 16,-52 16,-16 84,-16 84,-52"/>
<text text-anchor="middle" x="50" y="-31.5" font-family="Helvetica,sans-Serif" font-size="10.00">composite</text>
</a>
</g>
</g>
<!-- dir_afc8cbaf4e497a6ce725e04990a5cbfb -->
<g id="node2" class="node">
<title>dir_afc8cbaf4e497a6ce725e04990a5cbfb</title>
<g id="a_node2"><a xlink:href="dir_afc8cbaf4e497a6ce725e04990a5cbfb.html" target="_top" xlink:title="adaptation">
<polygon fill="none" stroke="black" points="171.5,-52 102.5,-52 102.5,-16 171.5,-16 171.5,-52"/>
<text text-anchor="middle" x="137" y="-31.5" font-family="Helvetica,sans-Serif" font-size="10.00">adaptation</text>
</a>
</g>
</g>
<!-- dir_38406977c69206a4a7a9ef30acbdcff1 -->
<g id="node3" class="node">
<title>dir_38406977c69206a4a7a9ef30acbdcff1</title>
<g id="a_node3"><a xlink:href="dir_38406977c69206a4a7a9ef30acbdcff1.html" target="_top" xlink:title="cigar">
<polygon fill="#eeeeff" stroke="black" points="164,-124 110,-124 110,-88 164,-88 164,-124"/>
<text text-anchor="middle" x="137" y="-103.5" font-family="Helvetica,sans-Serif" font-size="10.00">cigar</text>
</a>
</g>
</g>
<!-- dir_38406977c69206a4a7a9ef30acbdcff1&#45;&gt;dir_018cbefd8b552085113eaba503c83b7f -->
<g id="edge1" class="edge">
<title>dir_38406977c69206a4a7a9ef30acbdcff1&#45;&gt;dir_018cbefd8b552085113eaba503c83b7f</title>
<path fill="none" stroke="black" d="M115.49,-87.7C104.54,-78.88 91.05,-68.03 79.18,-58.47"/>
<polygon fill="black" stroke="black" points="81.24,-55.65 71.26,-52.1 76.86,-61.1 81.24,-55.65"/>
<g id="a_edge1&#45;headlabel"><a xlink:href="dir_000018_000019.html" target="_top" xlink:title="1">
<text text-anchor="middle" x="85.82" y="-53.19" font-family="Helvetica,sans-Serif" font-size="10.00">1</text>
</a>
</g>
</g>
<!-- dir_38406977c69206a4a7a9ef30acbdcff1&#45;&gt;dir_afc8cbaf4e497a6ce725e04990a5cbfb -->
<g id="edge3" class="edge">
<title>dir_38406977c69206a4a7a9ef30acbdcff1&#45;&gt;dir_afc8cbaf4e497a6ce725e04990a5cbfb</title>
<path fill="none" stroke="black" d="M137,-87.7C137,-79.98 137,-70.71 137,-62.11"/>
<polygon fill="black" stroke="black" points="140.5,-62.1 137,-52.1 133.5,-62.1 140.5,-62.1"/>
<g id="a_edge3&#45;headlabel"><a xlink:href="dir_000018_000016.html" target="_top" xlink:title="1">
<text text-anchor="middle" x="143.34" y="-63.2" font-family="Helvetica,sans-Serif" font-size="10.00">1</text>
</a>
</g>
</g>
<!-- dir_a05deca243559b9ee49c1fff2a7d2ca3 -->
<g id="node4" class="node">
<title>dir_a05deca243559b9ee49c1fff2a7d2ca3</title>
<g id="a_node4"><a xlink:href="dir_a05deca243559b9ee49c1fff2a7d2ca3.html" target="_top" xlink:title="ranges">
<polygon fill="white" stroke="red" points="244,-52 190,-52 190,-16 244,-16 244,-52"/>
<text text-anchor="middle" x="217" y="-31.5" font-family="Helvetica,sans-Serif" font-size="10.00">ranges</text>
</a>
</g>
</g>
<!-- dir_38406977c69206a4a7a9ef30acbdcff1&#45;&gt;dir_a05deca243559b9ee49c1fff2a7d2ca3 -->
<g id="edge2" class="edge">
<title>dir_38406977c69206a4a7a9ef30acbdcff1&#45;&gt;dir_a05deca243559b9ee49c1fff2a7d2ca3</title>
<path fill="none" stroke="black" d="M156.78,-87.7C166.75,-78.97 179.01,-68.24 189.86,-58.75"/>
<polygon fill="black" stroke="black" points="192.23,-61.32 197.45,-52.1 187.62,-56.06 192.23,-61.32"/>
<g id="a_edge2&#45;headlabel"><a xlink:href="dir_000018_000032.html" target="_top" xlink:title="1">
<text text-anchor="middle" x="191.4" y="-63.33" font-family="Helvetica,sans-Serif" font-size="10.00">1</text>
</a>
</g>
</g>
</g>
</svg>
