<?xml version="1.0" encoding="UTF-8" standalone="no"?>
<!DOCTYPE svg PUBLIC "-//W3C//DTD SVG 1.1//EN"
 "http://www.w3.org/Graphics/SVG/1.1/DTD/svg11.dtd">
<!-- Generated by graphviz version 2.43.0 (0)
 -->
<!-- Title: bio/alphabet Pages: 1 -->
<svg width="574pt" height="319pt"
 viewBox="0.00 0.00 574.00 319.00" xmlns="http://www.w3.org/2000/svg" xmlns:xlink="http://www.w3.org/1999/xlink">
<g id="graph0" class="graph" transform="scale(1 1) rotate(0) translate(4 315)">
<title>bio/alphabet</title>
<polygon fill="white" stroke="transparent" points="-4,4 -4,-315 570,-315 570,4 -4,4"/>
<g id="clust1" class="cluster">
<title>clusterdir_740f9cb2a3f5b47e1148c9e4d90d8bf4</title>
<g id="a_clust1"><a xlink:href="dir_740f9cb2a3f5b47e1148c9e4d90d8bf4.html" target="_top" xlink:title="bio">
<polygon fill="#edf0f7" stroke="#404040" stroke-dasharray="5,2" points="8,-8 8,-303 558,-303 558,-8 8,-8"/>
<text text-anchor="middle" x="283" y="-291" font-family="Helvetica,sans-Serif" font-size="10.00">bio</text>
</a>
</g>
</g>
<g id="clust2" class="cluster">
<title>clusterdir_9b716f18bdad80f0bcc9544c5d50fede</title>
<g id="a_clust2"><a xlink:href="dir_9b716f18bdad80f0bcc9544c5d50fede.html" target="_top">
<polygon fill="#edf0f7" stroke="#404040" stroke-width="2" points="16,-80 16,-276 448,-276 448,-80 16,-80"/>
</a>
</g>
</g>
<!-- dir_ae91ba6220f34d5fbc73d95dc714bae8 -->
<g id="node1" class="node">
<title>dir_ae91ba6220f34d5fbc73d95dc714bae8</title>
<g id="a_node1"><a xlink:href="dir_ae91ba6220f34d5fbc73d95dc714bae8.html" target="_top" xlink:title="meta">
<polygon fill="#a2b4d6" stroke="red" points="262,-52 208,-52 208,-16 262,-16 262,-52"/>
<text text-anchor="middle" x="235" y="-31.5" font-family="Helvetica,sans-Serif" font-size="10.00">meta</text>
</a>
</g>
</g>
<!-- dir_a05deca243559b9ee49c1fff2a7d2ca3 -->
<g id="node2" class="node">
<title>dir_a05deca243559b9ee49c1fff2a7d2ca3</title>
<g id="a_node2"><a xlink:href="dir_a05deca243559b9ee49c1fff2a7d2ca3.html" target="_top" xlink:title="ranges">
<polygon fill="#a2b4d6" stroke="red" points="510,-124 456,-124 456,-88 510,-88 510,-124"/>
<text text-anchor="middle" x="483" y="-103.5" font-family="Helvetica,sans-Serif" font-size="10.00">ranges</text>
</a>
</g>
</g>
<!-- dir_9b716f18bdad80f0bcc9544c5d50fede -->
<g id="node3" class="node">
<title>dir_9b716f18bdad80f0bcc9544c5d50fede</title>
<text text-anchor="middle" x="271" y="-247.5" font-family="Helvetica,sans-Serif" font-size="10.00">alphabet</text>
</g>
<!-- dir_9b716f18bdad80f0bcc9544c5d50fede&#45;&gt;dir_ae91ba6220f34d5fbc73d95dc714bae8 -->
<g id="edge6" class="edge">
<title>dir_9b716f18bdad80f0bcc9544c5d50fede&#45;&gt;dir_ae91ba6220f34d5fbc73d95dc714bae8</title>
<path fill="none" stroke="black" d="M300.73,-243.42C348.34,-234.07 439.09,-214.44 466,-196 512.76,-163.96 555.81,-123.1 519,-80 487.7,-43.35 342.05,-36.39 272.35,-35.18"/>
<polygon fill="black" stroke="black" points="272.3,-31.68 262.25,-35.03 272.2,-38.68 272.3,-31.68"/>
<g id="a_edge6&#45;headlabel"><a xlink:href="dir_000000_000018.html" target="_top" xlink:title="20">
<text text-anchor="middle" x="275.93" y="-26.39" font-family="Helvetica,sans-Serif" font-size="10.00">20</text>
</a>
</g>
</g>
<!-- dir_c5c94c5e6394b8bbdcce9ce299c309d0 -->
<g id="node4" class="node">
<title>dir_c5c94c5e6394b8bbdcce9ce299c309d0</title>
<g id="a_node4"><a xlink:href="dir_c5c94c5e6394b8bbdcce9ce299c309d0.html" target="_top" xlink:title="aminoacid">
<polygon fill="#a2b4d6" stroke="#404040" points="440,-196 372,-196 372,-160 440,-160 440,-196"/>
<text text-anchor="middle" x="406" y="-175.5" font-family="Helvetica,sans-Serif" font-size="10.00">aminoacid</text>
</a>
</g>
</g>
<!-- dir_9b716f18bdad80f0bcc9544c5d50fede&#45;&gt;dir_c5c94c5e6394b8bbdcce9ce299c309d0 -->
<g id="edge7" class="edge">
<title>dir_9b716f18bdad80f0bcc9544c5d50fede&#45;&gt;dir_c5c94c5e6394b8bbdcce9ce299c309d0</title>
<path fill="none" stroke="black" d="M300.63,-233.64C319.2,-224.01 343.44,-211.44 363.98,-200.79"/>
<polygon fill="black" stroke="black" points="365.86,-203.75 373.13,-196.04 362.64,-197.54 365.86,-203.75"/>
<g id="a_edge7&#45;headlabel"><a xlink:href="dir_000000_000001.html" target="_top" xlink:title="1">
<text text-anchor="middle" x="363.98" y="-205.43" font-family="Helvetica,sans-Serif" font-size="10.00">1</text>
</a>
</g>
</g>
<!-- dir_018cbefd8b552085113eaba503c83b7f -->
<g id="node6" class="node">
<title>dir_018cbefd8b552085113eaba503c83b7f</title>
<g id="a_node6"><a xlink:href="dir_018cbefd8b552085113eaba503c83b7f.html" target="_top" xlink:title="composite">
<polygon fill="#a2b4d6" stroke="#404040" points="269,-124 201,-124 201,-88 269,-88 269,-124"/>
<text text-anchor="middle" x="235" y="-103.5" font-family="Helvetica,sans-Serif" font-size="10.00">composite</text>
</a>
</g>
</g>
<!-- dir_9b716f18bdad80f0bcc9544c5d50fede&#45;&gt;dir_018cbefd8b552085113eaba503c83b7f -->
<g id="edge2" class="edge">
<title>dir_9b716f18bdad80f0bcc9544c5d50fede&#45;&gt;dir_018cbefd8b552085113eaba503c83b7f</title>
<path fill="none" stroke="black" d="M241.33,-247.59C207.26,-244.2 152.76,-232.93 127,-196 117.85,-182.88 118.54,-173.58 127,-160 128.97,-156.83 162.45,-140.66 191.62,-127"/>
<polygon fill="black" stroke="black" points="193.31,-130.08 200.89,-122.68 190.35,-123.74 193.31,-130.08"/>
<g id="a_edge2&#45;headlabel"><a xlink:href="dir_000000_000005.html" target="_top" xlink:title="5">
<text text-anchor="middle" x="191.25" y="-131.67" font-family="Helvetica,sans-Serif" font-size="10.00">5</text>
</a>
</g>
</g>
<!-- dir_f8d7d86a16ee58eabfc283b74d13b1f4 -->
<g id="node7" class="node">
<title>dir_f8d7d86a16ee58eabfc283b74d13b1f4</title>
<g id="a_node7"><a xlink:href="dir_f8d7d86a16ee58eabfc283b74d13b1f4.html" target="_top" xlink:title="custom">
<polygon fill="#a2b4d6" stroke="#404040" points="98,-196 44,-196 44,-160 98,-160 98,-196"/>
<text text-anchor="middle" x="71" y="-175.5" font-family="Helvetica,sans-Serif" font-size="10.00">custom</text>
</a>
</g>
</g>
<!-- dir_9b716f18bdad80f0bcc9544c5d50fede&#45;&gt;dir_f8d7d86a16ee58eabfc283b74d13b1f4 -->
<g id="edge8" class="edge">
<title>dir_9b716f18bdad80f0bcc9544c5d50fede&#45;&gt;dir_f8d7d86a16ee58eabfc283b74d13b1f4</title>
<path fill="none" stroke="black" d="M241.48,-239.85C209.38,-229.75 156.7,-212.69 112,-196 110.6,-195.48 109.18,-194.94 107.75,-194.38"/>
<polygon fill="black" stroke="black" points="108.83,-191.05 98.24,-190.61 106.24,-197.55 108.83,-191.05"/>
<g id="a_edge8&#45;headlabel"><a xlink:href="dir_000000_000010.html" target="_top" xlink:title="3">
<text text-anchor="middle" x="113.21" y="-187.23" font-family="Helvetica,sans-Serif" font-size="10.00">3</text>
</a>
</g>
</g>
<!-- dir_000e51b6accb2681cd1e3f4fd511be2f -->
<g id="node9" class="node">
<title>dir_000e51b6accb2681cd1e3f4fd511be2f</title>
<g id="a_node9"><a xlink:href="dir_000e51b6accb2681cd1e3f4fd511be2f.html" target="_top" xlink:title="gap">
<polygon fill="#a2b4d6" stroke="#404040" points="190,-196 136,-196 136,-160 190,-160 190,-196"/>
<text text-anchor="middle" x="163" y="-175.5" font-family="Helvetica,sans-Serif" font-size="10.00">gap</text>
</a>
</g>
</g>
<!-- dir_9b716f18bdad80f0bcc9544c5d50fede&#45;&gt;dir_000e51b6accb2681cd1e3f4fd511be2f -->
<g id="edge1" class="edge">
<title>dir_9b716f18bdad80f0bcc9544c5d50fede&#45;&gt;dir_000e51b6accb2681cd1e3f4fd511be2f</title>
<path fill="none" stroke="black" d="M244.58,-231.88C230.59,-222.81 213.22,-211.55 198.11,-201.76"/>
<polygon fill="black" stroke="black" points="199.82,-198.69 189.52,-196.19 196.01,-204.57 199.82,-198.69"/>
<g id="a_edge1&#45;headlabel"><a xlink:href="dir_000000_000015.html" target="_top" xlink:title="1">
<text text-anchor="middle" x="204.38" y="-195.76" font-family="Helvetica,sans-Serif" font-size="10.00">1</text>
</a>
</g>
</g>
<!-- dir_8691929ad031f40e47dd20fa9ee00775 -->
<g id="node10" class="node">
<title>dir_8691929ad031f40e47dd20fa9ee00775</title>
<g id="a_node10"><a xlink:href="dir_8691929ad031f40e47dd20fa9ee00775.html" target="_top" xlink:title="mask">
<polygon fill="#a2b4d6" stroke="#404040" points="262,-196 208,-196 208,-160 262,-160 262,-196"/>
<text text-anchor="middle" x="235" y="-175.5" font-family="Helvetica,sans-Serif" font-size="10.00">mask</text>
</a>
</g>
</g>
<!-- dir_9b716f18bdad80f0bcc9544c5d50fede&#45;&gt;dir_8691929ad031f40e47dd20fa9ee00775 -->
<g id="edge5" class="edge">
<title>dir_9b716f18bdad80f0bcc9544c5d50fede&#45;&gt;dir_8691929ad031f40e47dd20fa9ee00775</title>
<path fill="none" stroke="black" d="M262.1,-231.7C258,-223.73 253.05,-214.1 248.51,-205.26"/>
<polygon fill="black" stroke="black" points="251.48,-203.4 243.8,-196.1 245.26,-206.6 251.48,-203.4"/>
<g id="a_edge5&#45;headlabel"><a xlink:href="dir_000000_000017.html" target="_top" xlink:title="1">
<text text-anchor="middle" x="255.65" y="-202.79" font-family="Helvetica,sans-Serif" font-size="10.00">1</text>
</a>
</g>
</g>
<!-- dir_8142f063462841d169d3caf3917af0e7 -->
<g id="node11" class="node">
<title>dir_8142f063462841d169d3caf3917af0e7</title>
<g id="a_node11"><a xlink:href="dir_8142f063462841d169d3caf3917af0e7.html" target="_top" xlink:title="nucleotide">
<polygon fill="#a2b4d6" stroke="#404040" points="387,-124 319,-124 319,-88 387,-88 387,-124"/>
<text text-anchor="middle" x="353" y="-103.5" font-family="Helvetica,sans-Serif" font-size="10.00">nucleotide</text>
</a>
</g>
</g>
<!-- dir_9b716f18bdad80f0bcc9544c5d50fede&#45;&gt;dir_8142f063462841d169d3caf3917af0e7 -->
<g id="edge4" class="edge">
<title>dir_9b716f18bdad80f0bcc9544c5d50fede&#45;&gt;dir_8142f063462841d169d3caf3917af0e7</title>
<path fill="none" stroke="black" d="M300.64,-234.76C315.9,-225.83 333.29,-212.8 343,-196 353.73,-177.43 355.8,-153.04 355.43,-134.48"/>
<polygon fill="black" stroke="black" points="358.92,-134.16 354.97,-124.32 351.93,-134.47 358.92,-134.16"/>
<g id="a_edge4&#45;headlabel"><a xlink:href="dir_000000_000019.html" target="_top" xlink:title="11">
<text text-anchor="middle" x="361.92" y="-135.12" font-family="Helvetica,sans-Serif" font-size="10.00">11</text>
</a>
</g>
</g>
<!-- dir_07786875644ed6de5ede0ed8dee13bbe -->
<g id="node12" class="node">
<title>dir_07786875644ed6de5ede0ed8dee13bbe</title>
<g id="a_node12"><a xlink:href="dir_07786875644ed6de5ede0ed8dee13bbe.html" target="_top" xlink:title="quality">
<polygon fill="#a2b4d6" stroke="#404040" points="334,-196 280,-196 280,-160 334,-160 334,-196"/>
<text text-anchor="middle" x="307" y="-175.5" font-family="Helvetica,sans-Serif" font-size="10.00">quality</text>
</a>
</g>
</g>
<!-- dir_9b716f18bdad80f0bcc9544c5d50fede&#45;&gt;dir_07786875644ed6de5ede0ed8dee13bbe -->
<g id="edge3" class="edge">
<title>dir_9b716f18bdad80f0bcc9544c5d50fede&#45;&gt;dir_07786875644ed6de5ede0ed8dee13bbe</title>
<path fill="none" stroke="black" d="M279.9,-231.7C284,-223.73 288.95,-214.1 293.49,-205.26"/>
<polygon fill="black" stroke="black" points="296.74,-206.6 298.2,-196.1 290.52,-203.4 296.74,-206.6"/>
<g id="a_edge3&#45;headlabel"><a xlink:href="dir_000000_000020.html" target="_top" xlink:title="2">
<text text-anchor="middle" x="297.62" y="-208.59" font-family="Helvetica,sans-Serif" font-size="10.00">2</text>
</a>
</g>
</g>
<!-- dir_c5c94c5e6394b8bbdcce9ce299c309d0&#45;&gt;dir_ae91ba6220f34d5fbc73d95dc714bae8 -->
<g id="edge11" class="edge">
<title>dir_c5c94c5e6394b8bbdcce9ce299c309d0&#45;&gt;dir_ae91ba6220f34d5fbc73d95dc714bae8</title>
<path fill="none" stroke="black" d="M371.72,-167.55C362.41,-165.04 352.33,-162.37 343,-160 276.13,-143.01 234.76,-178.15 192,-124 179.88,-108.65 184.72,-98.15 192,-80 195,-72.52 199.89,-65.59 205.33,-59.51"/>
<polygon fill="black" stroke="black" points="207.9,-61.89 212.4,-52.29 202.9,-56.99 207.9,-61.89"/>
<g id="a_edge11&#45;headlabel"><a xlink:href="dir_000001_000018.html" target="_top" xlink:title="1">
<text text-anchor="middle" x="207.41" y="-63.94" font-family="Helvetica,sans-Serif" font-size="10.00">1</text>
</a>
</g>
</g>
<!-- dir_c5c94c5e6394b8bbdcce9ce299c309d0&#45;&gt;dir_a05deca243559b9ee49c1fff2a7d2ca3 -->
<g id="edge10" class="edge">
<title>dir_c5c94c5e6394b8bbdcce9ce299c309d0&#45;&gt;dir_a05deca243559b9ee49c1fff2a7d2ca3</title>
<path fill="none" stroke="black" d="M425.03,-159.7C434.54,-151.05 446.21,-140.45 456.57,-131.03"/>
<polygon fill="black" stroke="black" points="459.14,-133.42 464.19,-124.1 454.43,-128.24 459.14,-133.42"/>
<g id="a_edge10&#45;headlabel"><a xlink:href="dir_000001_000021.html" target="_top" xlink:title="1">
<text text-anchor="middle" x="458.39" y="-135.44" font-family="Helvetica,sans-Serif" font-size="10.00">1</text>
</a>
</g>
</g>
<!-- dir_c5c94c5e6394b8bbdcce9ce299c309d0&#45;&gt;dir_8142f063462841d169d3caf3917af0e7 -->
<g id="edge9" class="edge">
<title>dir_c5c94c5e6394b8bbdcce9ce299c309d0&#45;&gt;dir_8142f063462841d169d3caf3917af0e7</title>
<path fill="none" stroke="black" d="M392.9,-159.7C386.61,-151.39 378.95,-141.28 372.04,-132.14"/>
<polygon fill="black" stroke="black" points="374.78,-129.96 365.95,-124.1 369.2,-134.19 374.78,-129.96"/>
<g id="a_edge9&#45;headlabel"><a xlink:href="dir_000001_000019.html" target="_top" xlink:title="2">
<text text-anchor="middle" x="379.21" y="-128.62" font-family="Helvetica,sans-Serif" font-size="10.00">2</text>
</a>
</g>
</g>
<!-- dir_38406977c69206a4a7a9ef30acbdcff1 -->
<g id="node5" class="node">
<title>dir_38406977c69206a4a7a9ef30acbdcff1</title>
<g id="a_node5"><a xlink:href="dir_38406977c69206a4a7a9ef30acbdcff1.html" target="_top" xlink:title="cigar">
<polygon fill="#a2b4d6" stroke="#404040" points="98,-268 44,-268 44,-232 98,-232 98,-268"/>
<text text-anchor="middle" x="71" y="-247.5" font-family="Helvetica,sans-Serif" font-size="10.00">cigar</text>
</a>
</g>
</g>
<!-- dir_38406977c69206a4a7a9ef30acbdcff1&#45;&gt;dir_a05deca243559b9ee49c1fff2a7d2ca3 -->
<g id="edge13" class="edge">
<title>dir_38406977c69206a4a7a9ef30acbdcff1&#45;&gt;dir_a05deca243559b9ee49c1fff2a7d2ca3</title>
<path fill="none" stroke="black" d="M98.24,-245.95C182.68,-236.38 435.2,-206.99 449,-196 467.84,-180.99 476.25,-154.26 480,-134"/>
<polygon fill="black" stroke="black" points="483.46,-134.52 481.56,-124.09 476.54,-133.42 483.46,-134.52"/>
<g id="a_edge13&#45;headlabel"><a xlink:href="dir_000004_000021.html" target="_top" xlink:title="1">
<text text-anchor="middle" x="485.7" y="-136.01" font-family="Helvetica,sans-Serif" font-size="10.00">1</text>
</a>
</g>
</g>
<!-- dir_38406977c69206a4a7a9ef30acbdcff1&#45;&gt;dir_018cbefd8b552085113eaba503c83b7f -->
<g id="edge12" class="edge">
<title>dir_38406977c69206a4a7a9ef30acbdcff1&#45;&gt;dir_018cbefd8b552085113eaba503c83b7f</title>
<path fill="none" stroke="black" d="M54.52,-231.86C38.27,-212.84 18.13,-181.93 35,-160 53.84,-135.51 137.68,-120 190.65,-112.46"/>
<polygon fill="black" stroke="black" points="191.37,-115.9 200.8,-111.06 190.41,-108.96 191.37,-115.9"/>
<g id="a_edge12&#45;headlabel"><a xlink:href="dir_000004_000005.html" target="_top" xlink:title="1">
<text text-anchor="middle" x="188.2" y="-116.7" font-family="Helvetica,sans-Serif" font-size="10.00">1</text>
</a>
</g>
</g>
<!-- dir_38406977c69206a4a7a9ef30acbdcff1&#45;&gt;dir_f8d7d86a16ee58eabfc283b74d13b1f4 -->
<g id="edge14" class="edge">
<title>dir_38406977c69206a4a7a9ef30acbdcff1&#45;&gt;dir_f8d7d86a16ee58eabfc283b74d13b1f4</title>
<path fill="none" stroke="black" d="M71,-231.7C71,-223.98 71,-214.71 71,-206.11"/>
<polygon fill="black" stroke="black" points="74.5,-206.1 71,-196.1 67.5,-206.1 74.5,-206.1"/>
<g id="a_edge14&#45;headlabel"><a xlink:href="dir_000004_000010.html" target="_top" xlink:title="1">
<text text-anchor="middle" x="77.34" y="-207.2" font-family="Helvetica,sans-Serif" font-size="10.00">1</text>
</a>
</g>
</g>
<!-- dir_018cbefd8b552085113eaba503c83b7f&#45;&gt;dir_ae91ba6220f34d5fbc73d95dc714bae8 -->
<g id="edge15" class="edge">
<title>dir_018cbefd8b552085113eaba503c83b7f&#45;&gt;dir_ae91ba6220f34d5fbc73d95dc714bae8</title>
<path fill="none" stroke="black" d="M235,-87.7C235,-79.98 235,-70.71 235,-62.11"/>
<polygon fill="black" stroke="black" points="238.5,-62.1 235,-52.1 231.5,-62.1 238.5,-62.1"/>
<g id="a_edge15&#45;headlabel"><a xlink:href="dir_000005_000018.html" target="_top" xlink:title="7">
<text text-anchor="middle" x="241.34" y="-63.2" font-family="Helvetica,sans-Serif" font-size="10.00">7</text>
</a>
</g>
</g>
<!-- dir_f8d7d86a16ee58eabfc283b74d13b1f4&#45;&gt;dir_ae91ba6220f34d5fbc73d95dc714bae8 -->
<g id="edge16" class="edge">
<title>dir_f8d7d86a16ee58eabfc283b74d13b1f4&#45;&gt;dir_ae91ba6220f34d5fbc73d95dc714bae8</title>
<path fill="none" stroke="black" d="M88.98,-159.72C109.75,-139.95 145.15,-106.85 177,-80 185.57,-72.78 195.09,-65.21 203.9,-58.39"/>
<polygon fill="black" stroke="black" points="206.28,-60.97 212.07,-52.1 202.01,-55.42 206.28,-60.97"/>
<g id="a_edge16&#45;headlabel"><a xlink:href="dir_000010_000018.html" target="_top" xlink:title="3">
<text text-anchor="middle" x="205.16" y="-62.91" font-family="Helvetica,sans-Serif" font-size="10.00">3</text>
</a>
</g>
</g>
<!-- dir_f377ddb9e571c137aa69ccd22c1bf99e -->
<g id="node8" class="node">
<title>dir_f377ddb9e571c137aa69ccd22c1bf99e</title>
<g id="a_node8"><a xlink:href="dir_f377ddb9e571c137aa69ccd22c1bf99e.html" target="_top" xlink:title="detail">
<polygon fill="#a2b4d6" stroke="#404040" points="440,-268 386,-268 386,-232 440,-232 440,-268"/>
<text text-anchor="middle" x="413" y="-247.5" font-family="Helvetica,sans-Serif" font-size="10.00">detail</text>
</a>
</g>
</g>
<!-- dir_f377ddb9e571c137aa69ccd22c1bf99e&#45;&gt;dir_ae91ba6220f34d5fbc73d95dc714bae8 -->
<g id="edge17" class="edge">
<title>dir_f377ddb9e571c137aa69ccd22c1bf99e&#45;&gt;dir_ae91ba6220f34d5fbc73d95dc714bae8</title>
<path fill="none" stroke="black" d="M440.01,-235.36C456.56,-226 477.31,-212.33 492,-196 528.29,-155.67 565.35,-121.15 530,-80 497.25,-41.87 344.66,-35.69 272.72,-34.93"/>
<polygon fill="black" stroke="black" points="272.33,-31.43 262.31,-34.85 272.28,-38.43 272.33,-31.43"/>
<g id="a_edge17&#45;headlabel"><a xlink:href="dir_000011_000018.html" target="_top" xlink:title="1">
<text text-anchor="middle" x="275.95" y="-26.12" font-family="Helvetica,sans-Serif" font-size="10.00">1</text>
</a>
</g>
</g>
<!-- dir_000e51b6accb2681cd1e3f4fd511be2f&#45;&gt;dir_018cbefd8b552085113eaba503c83b7f -->
<g id="edge18" class="edge">
<title>dir_000e51b6accb2681cd1e3f4fd511be2f&#45;&gt;dir_018cbefd8b552085113eaba503c83b7f</title>
<path fill="none" stroke="black" d="M180.8,-159.7C189.6,-151.14 200.38,-140.66 210,-131.3"/>
<polygon fill="black" stroke="black" points="212.68,-133.58 217.41,-124.1 207.8,-128.57 212.68,-133.58"/>
<g id="a_edge18&#45;headlabel"><a xlink:href="dir_000015_000005.html" target="_top" xlink:title="1">
<text text-anchor="middle" x="212.08" y="-135.63" font-family="Helvetica,sans-Serif" font-size="10.00">1</text>
</a>
</g>
</g>
<!-- dir_8691929ad031f40e47dd20fa9ee00775&#45;&gt;dir_018cbefd8b552085113eaba503c83b7f -->
<g id="edge19" class="edge">
<title>dir_8691929ad031f40e47dd20fa9ee00775&#45;&gt;dir_018cbefd8b552085113eaba503c83b7f</title>
<path fill="none" stroke="black" d="M235,-159.7C235,-151.98 235,-142.71 235,-134.11"/>
<polygon fill="black" stroke="black" points="238.5,-134.1 235,-124.1 231.5,-134.1 238.5,-134.1"/>
<g id="a_edge19&#45;headlabel"><a xlink:href="dir_000017_000005.html" target="_top" xlink:title="1">
<text text-anchor="middle" x="241.34" y="-135.2" font-family="Helvetica,sans-Serif" font-size="10.00">1</text>
</a>
</g>
</g>
<!-- dir_07786875644ed6de5ede0ed8dee13bbe&#45;&gt;dir_018cbefd8b552085113eaba503c83b7f -->
<g id="edge20" class="edge">
<title>dir_07786875644ed6de5ede0ed8dee13bbe&#45;&gt;dir_018cbefd8b552085113eaba503c83b7f</title>
<path fill="none" stroke="black" d="M289.2,-159.7C280.4,-151.14 269.62,-140.66 260,-131.3"/>
<polygon fill="black" stroke="black" points="262.2,-128.57 252.59,-124.1 257.32,-133.58 262.2,-128.57"/>
<g id="a_edge20&#45;headlabel"><a xlink:href="dir_000020_000005.html" target="_top" xlink:title="1">
<text text-anchor="middle" x="266.76" y="-126.54" font-family="Helvetica,sans-Serif" font-size="10.00">1</text>
</a>
</g>
</g>
<!-- dir_07786875644ed6de5ede0ed8dee13bbe&#45;&gt;dir_8142f063462841d169d3caf3917af0e7 -->
<g id="edge21" class="edge">
<title>dir_07786875644ed6de5ede0ed8dee13bbe&#45;&gt;dir_8142f063462841d169d3caf3917af0e7</title>
<path fill="none" stroke="black" d="M318.37,-159.7C323.72,-151.56 330.2,-141.69 336.11,-132.7"/>
<polygon fill="black" stroke="black" points="339.19,-134.38 341.76,-124.1 333.34,-130.54 339.19,-134.38"/>
<g id="a_edge21&#45;headlabel"><a xlink:href="dir_000020_000019.html" target="_top" xlink:title="7">
<text text-anchor="middle" x="339.59" y="-136.45" font-family="Helvetica,sans-Serif" font-size="10.00">7</text>
</a>
</g>
</g>
</g>
</svg>
