<?xml version="1.0" encoding="UTF-8" standalone="no"?>
<!DOCTYPE svg PUBLIC "-//W3C//DTD SVG 1.1//EN"
 "http://www.w3.org/Graphics/SVG/1.1/DTD/svg11.dtd">
<!-- Generated by graphviz version 2.43.0 (0)
 -->
<!-- Title: bio/alphabet/composite Pages: 1 -->
<svg width="108pt" height="223pt"
 viewBox="0.00 0.00 108.00 223.00" xmlns="http://www.w3.org/2000/svg" xmlns:xlink="http://www.w3.org/1999/xlink">
<g id="graph0" class="graph" transform="scale(1 1) rotate(0) translate(4 219)">
<title>bio/alphabet/composite</title>
<polygon fill="white" stroke="transparent" points="-4,4 -4,-219 104,-219 104,4 -4,4"/>
<g id="clust1" class="cluster">
<title>clusterdir_9b716f18bdad80f0bcc9544c5d50fede</title>
<g id="a_clust1"><a xlink:href="dir_9b716f18bdad80f0bcc9544c5d50fede.html" target="_top" xlink:title="alphabet">
<polygon fill="#ddddee" stroke="black" points="8,-64 8,-207 92,-207 92,-64 8,-64"/>
<text text-anchor="middle" x="50" y="-195" font-family="Helvetica,sans-Serif" font-size="10.00">alphabet</text>
</a>
</g>
</g>
<!-- dir_f377ddb9e571c137aa69ccd22c1bf99e -->
<g id="node1" class="node">
<title>dir_f377ddb9e571c137aa69ccd22c1bf99e</title>
<g id="a_node1"><a xlink:href="dir_f377ddb9e571c137aa69ccd22c1bf99e.html" target="_top" xlink:title="detail">
<polygon fill="none" stroke="black" points="73,-108 19,-108 19,-72 73,-72 73,-108"/>
<text text-anchor="middle" x="46" y="-87.5" font-family="Helvetica,sans-Serif" font-size="10.00">detail</text>
</a>
</g>
</g>
<!-- dir_ae91ba6220f34d5fbc73d95dc714bae8 -->
<g id="node3" class="node">
<title>dir_ae91ba6220f34d5fbc73d95dc714bae8</title>
<g id="a_node3"><a xlink:href="dir_ae91ba6220f34d5fbc73d95dc714bae8.html" target="_top" xlink:title="meta">
<polygon fill="white" stroke="red" points="100,-36 46,-36 46,0 100,0 100,-36"/>
<text text-anchor="middle" x="73" y="-15.5" font-family="Helvetica,sans-Serif" font-size="10.00">meta</text>
</a>
</g>
</g>
<!-- dir_f377ddb9e571c137aa69ccd22c1bf99e&#45;&gt;dir_ae91ba6220f34d5fbc73d95dc714bae8 -->
<g id="edge1" class="edge">
<title>dir_f377ddb9e571c137aa69ccd22c1bf99e&#45;&gt;dir_ae91ba6220f34d5fbc73d95dc714bae8</title>
<path fill="none" stroke="black" d="M52.67,-71.7C55.71,-63.81 59.38,-54.3 62.76,-45.55"/>
<polygon fill="black" stroke="black" points="66.07,-46.69 66.4,-36.1 59.54,-44.17 66.07,-46.69"/>
<g id="a_edge1&#45;headlabel"><a xlink:href="dir_000030_000022.html" target="_top" xlink:title="3">
<text text-anchor="middle" x="67.42" y="-48.57" font-family="Helvetica,sans-Serif" font-size="10.00">3</text>
</a>
</g>
</g>
<!-- dir_018cbefd8b552085113eaba503c83b7f -->
<g id="node2" class="node">
<title>dir_018cbefd8b552085113eaba503c83b7f</title>
<g id="a_node2"><a xlink:href="dir_018cbefd8b552085113eaba503c83b7f.html" target="_top" xlink:title="composite">
<polygon fill="#eeeeff" stroke="black" points="84,-180 16,-180 16,-144 84,-144 84,-180"/>
<text text-anchor="middle" x="50" y="-159.5" font-family="Helvetica,sans-Serif" font-size="10.00">composite</text>
</a>
</g>
</g>
<!-- dir_018cbefd8b552085113eaba503c83b7f&#45;&gt;dir_f377ddb9e571c137aa69ccd22c1bf99e -->
<g id="edge3" class="edge">
<title>dir_018cbefd8b552085113eaba503c83b7f&#45;&gt;dir_f377ddb9e571c137aa69ccd22c1bf99e</title>
<path fill="none" stroke="black" d="M49.01,-143.7C48.57,-135.98 48.04,-126.71 47.55,-118.11"/>
<polygon fill="black" stroke="black" points="51.04,-117.89 46.98,-108.1 44.05,-118.29 51.04,-117.89"/>
<g id="a_edge3&#45;headlabel"><a xlink:href="dir_000017_000030.html" target="_top" xlink:title="1">
<text text-anchor="middle" x="54.08" y="-118.82" font-family="Helvetica,sans-Serif" font-size="10.00">1</text>
</a>
</g>
</g>
<!-- dir_018cbefd8b552085113eaba503c83b7f&#45;&gt;dir_ae91ba6220f34d5fbc73d95dc714bae8 -->
<g id="edge2" class="edge">
<title>dir_018cbefd8b552085113eaba503c83b7f&#45;&gt;dir_ae91ba6220f34d5fbc73d95dc714bae8</title>
<path fill="none" stroke="black" d="M63.56,-143.97C70.56,-134.09 78.37,-121.05 82,-108 87.68,-87.61 84.76,-63.72 80.79,-45.82"/>
<polygon fill="black" stroke="black" points="84.18,-44.92 78.39,-36.05 77.38,-46.59 84.18,-44.92"/>
<g id="a_edge2&#45;headlabel"><a xlink:href="dir_000017_000022.html" target="_top" xlink:title="9">
<text text-anchor="middle" x="87.79" y="-45.24" font-family="Helvetica,sans-Serif" font-size="10.00">9</text>
</a>
</g>
</g>
</g>
</svg>
