<?xml version="1.0" encoding="UTF-8" standalone="no"?>
<!DOCTYPE svg PUBLIC "-//W3C//DTD SVG 1.1//EN"
 "http://www.w3.org/Graphics/SVG/1.1/DTD/svg11.dtd">
<!-- Generated by graphviz version 2.43.0 (0)
 -->
<!-- Title: bio/alphabet/aminoacid Pages: 1 -->
<svg width="206pt" height="133pt"
 viewBox="0.00 0.00 206.00 133.00" xmlns="http://www.w3.org/2000/svg" xmlns:xlink="http://www.w3.org/1999/xlink">
<g id="graph0" class="graph" transform="scale(1 1) rotate(0) translate(4 129)">
<title>bio/alphabet/aminoacid</title>
<g id="clust1" class="cluster">
<title>clusterdir_9b716f18bdad80f0bcc9544c5d50fede</title>
<g id="a_clust1"><a xlink:href="dir_9b716f18bdad80f0bcc9544c5d50fede.html" target="_top" xlink:title="alphabet">
<polygon fill="#edf0f7" stroke="#7f7f7f" stroke-dasharray="5,2" points="8,-8 8,-117 86,-117 86,-8 8,-8"/>
<text text-anchor="middle" x="47" y="-105" font-family="Helvetica,sans-Serif" font-size="10.00">alphabet</text>
</a>
</g>
</g>
<!-- dir_8142f063462841d169d3caf3917af0e7 -->
<g id="node1" class="node">
<title>dir_8142f063462841d169d3caf3917af0e7</title>
<g id="a_node1"><a xlink:href="dir_8142f063462841d169d3caf3917af0e7.html" target="_top" xlink:title="nucleotide">
<polygon fill="#a2b4d6" stroke="#404040" points="77.5,-35 16.5,-35 16.5,-16 77.5,-16 77.5,-35"/>
<text text-anchor="middle" x="47" y="-23" font-family="Helvetica,sans-Serif" font-size="10.00">nucleotide</text>
</a>
</g>
</g>
<!-- dir_c5c94c5e6394b8bbdcce9ce299c309d0 -->
<g id="node2" class="node">
<title>dir_c5c94c5e6394b8bbdcce9ce299c309d0</title>
<g id="a_node2"><a xlink:href="dir_c5c94c5e6394b8bbdcce9ce299c309d0.html" target="_top" xlink:title="aminoacid">
<polygon fill="#edf0f7" stroke="#404040" stroke-width="2" points="77.5,-90 16.5,-90 16.5,-71 77.5,-71 77.5,-90"/>
<text text-anchor="middle" x="47" y="-78" font-family="Helvetica,sans-Serif" font-size="10.00">aminoacid</text>
</a>
</g>
</g>
<!-- dir_c5c94c5e6394b8bbdcce9ce299c309d0&#45;&gt;dir_8142f063462841d169d3caf3917af0e7 -->
<g id="edge1" class="edge">
<title>dir_c5c94c5e6394b8bbdcce9ce299c309d0&#45;&gt;dir_8142f063462841d169d3caf3917af0e7</title>
<path fill="none" stroke="#63b8ff" d="M47,-70.75C47,-63.8 47,-53.85 47,-45.13"/>
<polygon fill="#63b8ff" stroke="#63b8ff" points="50.5,-45.09 47,-35.09 43.5,-45.09 50.5,-45.09"/>
<g id="a_edge1&#45;headlabel"><a xlink:href="dir_000001_000019.html" target="_top" xlink:title="2">
<text text-anchor="middle" x="53.34" y="-46.18" font-family="Helvetica,sans-Serif" font-size="10.00" fill="#63b8ff">2</text>
</a>
</g>
</g>
<!-- dir_a05deca243559b9ee49c1fff2a7d2ca3 -->
<g id="node3" class="node">
<title>dir_a05deca243559b9ee49c1fff2a7d2ca3</title>
<g id="a_node3"><a xlink:href="dir_a05deca243559b9ee49c1fff2a7d2ca3.html" target="_top" xlink:title="ranges">
<polygon fill="#edf0f7" stroke="red" stroke-dasharray="5,2" points="142,-35 96,-35 96,-16 142,-16 142,-35"/>
<text text-anchor="middle" x="119" y="-23" font-family="Helvetica,sans-Serif" font-size="10.00">ranges</text>
</a>
</g>
</g>
<!-- dir_c5c94c5e6394b8bbdcce9ce299c309d0&#45;&gt;dir_a05deca243559b9ee49c1fff2a7d2ca3 -->
<g id="edge2" class="edge">
<title>dir_c5c94c5e6394b8bbdcce9ce299c309d0&#45;&gt;dir_a05deca243559b9ee49c1fff2a7d2ca3</title>
<path fill="none" stroke="#63b8ff" d="M58.57,-70.98C69.42,-63 85.88,-50.88 98.88,-41.31"/>
<polygon fill="#63b8ff" stroke="#63b8ff" points="101.24,-43.92 107.22,-35.17 97.09,-38.28 101.24,-43.92"/>
<g id="a_edge2&#45;headlabel"><a xlink:href="dir_000001_000021.html" target="_top" xlink:title="1">
<text text-anchor="middle" x="100.03" y="-45.83" font-family="Helvetica,sans-Serif" font-size="10.00" fill="#63b8ff">1</text>
</a>
</g>
</g>
<!-- dir_ae91ba6220f34d5fbc73d95dc714bae8 -->
<g id="node4" class="node">
<title>dir_ae91ba6220f34d5fbc73d95dc714bae8</title>
<g id="a_node4"><a xlink:href="dir_ae91ba6220f34d5fbc73d95dc714bae8.html" target="_top" xlink:title="meta">
<polygon fill="#edf0f7" stroke="red" stroke-dasharray="5,2" points="198,-35 160,-35 160,-16 198,-16 198,-35"/>
<text text-anchor="middle" x="179" y="-23" font-family="Helvetica,sans-Serif" font-size="10.00">meta</text>
</a>
</g>
</g>
<!-- dir_c5c94c5e6394b8bbdcce9ce299c309d0&#45;&gt;dir_ae91ba6220f34d5fbc73d95dc714bae8 -->
<g id="edge3" class="edge">
<title>dir_c5c94c5e6394b8bbdcce9ce299c309d0&#45;&gt;dir_ae91ba6220f34d5fbc73d95dc714bae8</title>
<path fill="none" stroke="#63b8ff" d="M68.21,-70.98C90.5,-62.03 125.69,-47.9 150.42,-37.97"/>
<polygon fill="#63b8ff" stroke="#63b8ff" points="152.01,-41.11 159.99,-34.13 149.4,-34.61 152.01,-41.11"/>
<g id="a_edge3&#45;headlabel"><a xlink:href="dir_000001_000018.html" target="_top" xlink:title="1">
<text text-anchor="middle" x="149.73" y="-42.58" font-family="Helvetica,sans-Serif" font-size="10.00" fill="#63b8ff">1</text>
</a>
</g>
</g>
</g>
</svg>
