<?xml version="1.0" encoding="UTF-8" standalone="no"?>
<!DOCTYPE svg PUBLIC "-//W3C//DTD SVG 1.1//EN"
 "http://www.w3.org/Graphics/SVG/1.1/DTD/svg11.dtd">
<!-- Generated by graphviz version 2.43.0 (0)
 -->
<!-- Title: bio/alphabet/cigar Pages: 1 -->
<svg width="236pt" height="167pt"
 viewBox="0.00 0.00 236.00 167.00" xmlns="http://www.w3.org/2000/svg" xmlns:xlink="http://www.w3.org/1999/xlink">
<g id="graph0" class="graph" transform="scale(1 1) rotate(0) translate(4 163)">
<title>bio/alphabet/cigar</title>
<polygon fill="white" stroke="transparent" points="-4,4 -4,-163 232,-163 232,4 -4,4"/>
<g id="clust1" class="cluster">
<title>clusterdir_9b716f18bdad80f0bcc9544c5d50fede</title>
<g id="a_clust1"><a xlink:href="dir_9b716f18bdad80f0bcc9544c5d50fede.html" target="_top" xlink:title="alphabet">
<polygon fill="#edf0f7" stroke="#7f7f7f" stroke-dasharray="5,2" points="8,-8 8,-151 164,-151 164,-8 8,-8"/>
<text text-anchor="middle" x="86" y="-139" font-family="Helvetica,sans-Serif" font-size="10.00">alphabet</text>
</a>
</g>
</g>
<!-- dir_018cbefd8b552085113eaba503c83b7f -->
<g id="node1" class="node">
<title>dir_018cbefd8b552085113eaba503c83b7f</title>
<g id="a_node1"><a xlink:href="dir_018cbefd8b552085113eaba503c83b7f.html" target="_top" xlink:title="composite">
<polygon fill="#a2b4d6" stroke="#404040" points="84,-52 16,-52 16,-16 84,-16 84,-52"/>
<text text-anchor="middle" x="50" y="-31.5" font-family="Helvetica,sans-Serif" font-size="10.00">composite</text>
</a>
</g>
</g>
<!-- dir_f8d7d86a16ee58eabfc283b74d13b1f4 -->
<g id="node2" class="node">
<title>dir_f8d7d86a16ee58eabfc283b74d13b1f4</title>
<g id="a_node2"><a xlink:href="dir_f8d7d86a16ee58eabfc283b74d13b1f4.html" target="_top" xlink:title="custom">
<polygon fill="#a2b4d6" stroke="#404040" points="156,-52 102,-52 102,-16 156,-16 156,-52"/>
<text text-anchor="middle" x="129" y="-31.5" font-family="Helvetica,sans-Serif" font-size="10.00">custom</text>
</a>
</g>
</g>
<!-- dir_38406977c69206a4a7a9ef30acbdcff1 -->
<g id="node3" class="node">
<title>dir_38406977c69206a4a7a9ef30acbdcff1</title>
<g id="a_node3"><a xlink:href="dir_38406977c69206a4a7a9ef30acbdcff1.html" target="_top" xlink:title="cigar">
<polygon fill="#edf0f7" stroke="#404040" stroke-width="2" points="156,-124 102,-124 102,-88 156,-88 156,-124"/>
<text text-anchor="middle" x="129" y="-103.5" font-family="Helvetica,sans-Serif" font-size="10.00">cigar</text>
</a>
</g>
</g>
<!-- dir_38406977c69206a4a7a9ef30acbdcff1&#45;&gt;dir_018cbefd8b552085113eaba503c83b7f -->
<g id="edge1" class="edge">
<title>dir_38406977c69206a4a7a9ef30acbdcff1&#45;&gt;dir_018cbefd8b552085113eaba503c83b7f</title>
<path fill="none" stroke="black" d="M109.47,-87.7C99.62,-78.97 87.51,-68.24 76.8,-58.75"/>
<polygon fill="black" stroke="black" points="79.11,-56.12 69.3,-52.1 74.47,-61.36 79.11,-56.12"/>
<g id="a_edge1&#45;headlabel"><a xlink:href="dir_000004_000005.html" target="_top" xlink:title="1">
<text text-anchor="middle" x="83.68" y="-53.88" font-family="Helvetica,sans-Serif" font-size="10.00">1</text>
</a>
</g>
</g>
<!-- dir_38406977c69206a4a7a9ef30acbdcff1&#45;&gt;dir_f8d7d86a16ee58eabfc283b74d13b1f4 -->
<g id="edge3" class="edge">
<title>dir_38406977c69206a4a7a9ef30acbdcff1&#45;&gt;dir_f8d7d86a16ee58eabfc283b74d13b1f4</title>
<path fill="none" stroke="black" d="M129,-87.7C129,-79.98 129,-70.71 129,-62.11"/>
<polygon fill="black" stroke="black" points="132.5,-62.1 129,-52.1 125.5,-62.1 132.5,-62.1"/>
<g id="a_edge3&#45;headlabel"><a xlink:href="dir_000004_000010.html" target="_top" xlink:title="1">
<text text-anchor="middle" x="135.34" y="-63.2" font-family="Helvetica,sans-Serif" font-size="10.00">1</text>
</a>
</g>
</g>
<!-- dir_a05deca243559b9ee49c1fff2a7d2ca3 -->
<g id="node4" class="node">
<title>dir_a05deca243559b9ee49c1fff2a7d2ca3</title>
<g id="a_node4"><a xlink:href="dir_a05deca243559b9ee49c1fff2a7d2ca3.html" target="_top" xlink:title="ranges">
<polygon fill="none" stroke="red" stroke-dasharray="5,2" points="228,-52 174,-52 174,-16 228,-16 228,-52"/>
<text text-anchor="middle" x="201" y="-31.5" font-family="Helvetica,sans-Serif" font-size="10.00">ranges</text>
</a>
</g>
</g>
<!-- dir_38406977c69206a4a7a9ef30acbdcff1&#45;&gt;dir_a05deca243559b9ee49c1fff2a7d2ca3 -->
<g id="edge2" class="edge">
<title>dir_38406977c69206a4a7a9ef30acbdcff1&#45;&gt;dir_a05deca243559b9ee49c1fff2a7d2ca3</title>
<path fill="none" stroke="black" d="M146.8,-87.7C155.6,-79.14 166.38,-68.66 176,-59.3"/>
<polygon fill="black" stroke="black" points="178.68,-61.58 183.41,-52.1 173.8,-56.57 178.68,-61.58"/>
<g id="a_edge2&#45;headlabel"><a xlink:href="dir_000004_000021.html" target="_top" xlink:title="1">
<text text-anchor="middle" x="178.08" y="-63.63" font-family="Helvetica,sans-Serif" font-size="10.00">1</text>
</a>
</g>
</g>
</g>
</svg>
