<?xml version="1.0" encoding="UTF-8" standalone="no"?>
<!DOCTYPE svg PUBLIC "-//W3C//DTD SVG 1.1//EN"
 "http://www.w3.org/Graphics/SVG/1.1/DTD/svg11.dtd">
<!-- Generated by graphviz version 2.43.0 (0)
 -->
<!-- Title: bio/alphabet/cigar Pages: 1 -->
<svg width="274pt" height="133pt"
 viewBox="0.00 0.00 274.00 133.00" xmlns="http://www.w3.org/2000/svg" xmlns:xlink="http://www.w3.org/1999/xlink">
<g id="graph0" class="graph" transform="scale(1 1) rotate(0) translate(4 129)">
<title>bio/alphabet/cigar</title>
<g id="clust1" class="cluster">
<title>clusterdir_9b716f18bdad80f0bcc9544c5d50fede</title>
<g id="a_clust1"><a xlink:href="dir_9b716f18bdad80f0bcc9544c5d50fede.html" target="_top" xlink:title="alphabet">
<polygon fill="#edf0f7" stroke="#7f7f7f" stroke-dasharray="5,2" points="8,-8 8,-117 154,-117 154,-8 8,-8"/>
<text text-anchor="middle" x="81" y="-105" font-family="Helvetica,sans-Serif" font-size="10.00">alphabet</text>
</a>
</g>
</g>
<!-- dir_018cbefd8b552085113eaba503c83b7f -->
<g id="node1" class="node">
<title>dir_018cbefd8b552085113eaba503c83b7f</title>
<g id="a_node1"><a xlink:href="dir_018cbefd8b552085113eaba503c83b7f.html" target="_top" xlink:title="composite">
<polygon fill="#a2b4d6" stroke="#404040" points="78,-35 16,-35 16,-16 78,-16 78,-35"/>
<text text-anchor="middle" x="47" y="-23" font-family="Helvetica,sans-Serif" font-size="10.00">composite</text>
</a>
</g>
</g>
<!-- dir_f8d7d86a16ee58eabfc283b74d13b1f4 -->
<g id="node2" class="node">
<title>dir_f8d7d86a16ee58eabfc283b74d13b1f4</title>
<g id="a_node2"><a xlink:href="dir_f8d7d86a16ee58eabfc283b74d13b1f4.html" target="_top" xlink:title="custom">
<polygon fill="#a2b4d6" stroke="#404040" points="145.5,-35 96.5,-35 96.5,-16 145.5,-16 145.5,-35"/>
<text text-anchor="middle" x="121" y="-23" font-family="Helvetica,sans-Serif" font-size="10.00">custom</text>
</a>
</g>
</g>
<!-- dir_38406977c69206a4a7a9ef30acbdcff1 -->
<g id="node3" class="node">
<title>dir_38406977c69206a4a7a9ef30acbdcff1</title>
<g id="a_node3"><a xlink:href="dir_38406977c69206a4a7a9ef30acbdcff1.html" target="_top" xlink:title="cigar">
<polygon fill="#edf0f7" stroke="#404040" stroke-width="2" points="143,-90 105,-90 105,-71 143,-71 143,-90"/>
<text text-anchor="middle" x="124" y="-78" font-family="Helvetica,sans-Serif" font-size="10.00">cigar</text>
</a>
</g>
</g>
<!-- dir_38406977c69206a4a7a9ef30acbdcff1&#45;&gt;dir_018cbefd8b552085113eaba503c83b7f -->
<g id="edge1" class="edge">
<title>dir_38406977c69206a4a7a9ef30acbdcff1&#45;&gt;dir_018cbefd8b552085113eaba503c83b7f</title>
<path fill="none" stroke="#63b8ff" d="M111.63,-70.98C99.91,-62.92 82.08,-50.65 68.11,-41.03"/>
<polygon fill="#63b8ff" stroke="#63b8ff" points="69.82,-37.96 59.6,-35.17 65.85,-43.72 69.82,-37.96"/>
<g id="a_edge1&#45;headlabel"><a xlink:href="dir_000004_000005.html" target="_top" xlink:title="1">
<text text-anchor="middle" x="74.39" y="-35.16" font-family="Helvetica,sans-Serif" font-size="10.00" fill="#63b8ff">1</text>
</a>
</g>
</g>
<!-- dir_38406977c69206a4a7a9ef30acbdcff1&#45;&gt;dir_f8d7d86a16ee58eabfc283b74d13b1f4 -->
<g id="edge4" class="edge">
<title>dir_38406977c69206a4a7a9ef30acbdcff1&#45;&gt;dir_f8d7d86a16ee58eabfc283b74d13b1f4</title>
<path fill="none" stroke="#63b8ff" d="M123.5,-70.75C123.11,-63.8 122.55,-53.85 122.05,-45.13"/>
<polygon fill="#63b8ff" stroke="#63b8ff" points="125.55,-44.88 121.49,-35.09 118.56,-45.27 125.55,-44.88"/>
<g id="a_edge4&#45;headlabel"><a xlink:href="dir_000004_000010.html" target="_top" xlink:title="1">
<text text-anchor="middle" x="128.58" y="-45.8" font-family="Helvetica,sans-Serif" font-size="10.00" fill="#63b8ff">1</text>
</a>
</g>
</g>
<!-- dir_a05deca243559b9ee49c1fff2a7d2ca3 -->
<g id="node4" class="node">
<title>dir_a05deca243559b9ee49c1fff2a7d2ca3</title>
<g id="a_node4"><a xlink:href="dir_a05deca243559b9ee49c1fff2a7d2ca3.html" target="_top" xlink:title="ranges">
<polygon fill="#edf0f7" stroke="red" stroke-dasharray="5,2" points="210,-35 164,-35 164,-16 210,-16 210,-35"/>
<text text-anchor="middle" x="187" y="-23" font-family="Helvetica,sans-Serif" font-size="10.00">ranges</text>
</a>
</g>
</g>
<!-- dir_38406977c69206a4a7a9ef30acbdcff1&#45;&gt;dir_a05deca243559b9ee49c1fff2a7d2ca3 -->
<g id="edge2" class="edge">
<title>dir_38406977c69206a4a7a9ef30acbdcff1&#45;&gt;dir_a05deca243559b9ee49c1fff2a7d2ca3</title>
<path fill="none" stroke="#63b8ff" d="M134.12,-70.98C143.44,-63.15 157.47,-51.34 168.74,-41.86"/>
<polygon fill="#63b8ff" stroke="#63b8ff" points="171.29,-44.29 176.69,-35.17 166.79,-38.93 171.29,-44.29"/>
<g id="a_edge2&#45;headlabel"><a xlink:href="dir_000004_000021.html" target="_top" xlink:title="1">
<text text-anchor="middle" x="170.37" y="-46.27" font-family="Helvetica,sans-Serif" font-size="10.00" fill="#63b8ff">1</text>
</a>
</g>
</g>
<!-- dir_ae91ba6220f34d5fbc73d95dc714bae8 -->
<g id="node5" class="node">
<title>dir_ae91ba6220f34d5fbc73d95dc714bae8</title>
<g id="a_node5"><a xlink:href="dir_ae91ba6220f34d5fbc73d95dc714bae8.html" target="_top" xlink:title="meta">
<polygon fill="#edf0f7" stroke="red" stroke-dasharray="5,2" points="266,-35 228,-35 228,-16 266,-16 266,-35"/>
<text text-anchor="middle" x="247" y="-23" font-family="Helvetica,sans-Serif" font-size="10.00">meta</text>
</a>
</g>
</g>
<!-- dir_38406977c69206a4a7a9ef30acbdcff1&#45;&gt;dir_ae91ba6220f34d5fbc73d95dc714bae8 -->
<g id="edge3" class="edge">
<title>dir_38406977c69206a4a7a9ef30acbdcff1&#45;&gt;dir_ae91ba6220f34d5fbc73d95dc714bae8</title>
<path fill="none" stroke="#63b8ff" d="M143.22,-71.22C163.44,-62.51 195.47,-48.7 218.61,-38.73"/>
<polygon fill="#63b8ff" stroke="#63b8ff" points="220.12,-41.89 227.92,-34.72 217.35,-35.47 220.12,-41.89"/>
<g id="a_edge3&#45;headlabel"><a xlink:href="dir_000004_000018.html" target="_top" xlink:title="1">
<text text-anchor="middle" x="217.94" y="-43.42" font-family="Helvetica,sans-Serif" font-size="10.00" fill="#63b8ff">1</text>
</a>
</g>
</g>
</g>
</svg>
