<?xml version="1.0" encoding="UTF-8" standalone="no"?>
<!DOCTYPE svg PUBLIC "-//W3C//DTD SVG 1.1//EN"
 "http://www.w3.org/Graphics/SVG/1.1/DTD/svg11.dtd">
<!-- Generated by graphviz version 2.43.0 (0)
 -->
<!-- Title: bio/ranges Pages: 1 -->
<svg width="218pt" height="391pt"
 viewBox="0.00 0.00 218.00 391.00" xmlns="http://www.w3.org/2000/svg" xmlns:xlink="http://www.w3.org/1999/xlink">
<g id="graph0" class="graph" transform="scale(1 1) rotate(0) translate(4 387)">
<title>bio/ranges</title>
<polygon fill="white" stroke="transparent" points="-4,4 -4,-387 214,-387 214,4 -4,4"/>
<g id="clust1" class="cluster">
<title>clusterdir_740f9cb2a3f5b47e1148c9e4d90d8bf4</title>
<g id="a_clust1"><a xlink:href="dir_740f9cb2a3f5b47e1148c9e4d90d8bf4.html" target="_top" xlink:title="bio">
<polygon fill="#ddddee" stroke="black" points="8,-8 8,-375 202,-375 202,-8 8,-8"/>
<text text-anchor="middle" x="105" y="-363" font-family="Helvetica,sans-Serif" font-size="10.00">bio</text>
</a>
</g>
</g>
<g id="clust2" class="cluster">
<title>clusterdir_a05deca243559b9ee49c1fff2a7d2ca3</title>
<g id="a_clust2"><a xlink:href="dir_a05deca243559b9ee49c1fff2a7d2ca3.html" target="_top">
<polygon fill="#eeeeff" stroke="black" points="16,-80 16,-348 106,-348 106,-80 16,-80"/>
</a>
</g>
</g>
<!-- dir_9b716f18bdad80f0bcc9544c5d50fede -->
<g id="node1" class="node">
<title>dir_9b716f18bdad80f0bcc9544c5d50fede</title>
<g id="a_node1"><a xlink:href="dir_9b716f18bdad80f0bcc9544c5d50fede.html" target="_top" xlink:title="alphabet">
<polygon fill="white" stroke="red" points="173.5,-124 114.5,-124 114.5,-88 173.5,-88 173.5,-124"/>
<text text-anchor="middle" x="144" y="-103.5" font-family="Helvetica,sans-Serif" font-size="10.00">alphabet</text>
</a>
</g>
</g>
<!-- dir_ae91ba6220f34d5fbc73d95dc714bae8 -->
<g id="node2" class="node">
<title>dir_ae91ba6220f34d5fbc73d95dc714bae8</title>
<g id="a_node2"><a xlink:href="dir_ae91ba6220f34d5fbc73d95dc714bae8.html" target="_top" xlink:title="meta">
<polygon fill="white" stroke="red" points="171,-52 117,-52 117,-16 171,-16 171,-52"/>
<text text-anchor="middle" x="144" y="-31.5" font-family="Helvetica,sans-Serif" font-size="10.00">meta</text>
</a>
</g>
</g>
<!-- dir_9b716f18bdad80f0bcc9544c5d50fede&#45;&gt;dir_ae91ba6220f34d5fbc73d95dc714bae8 -->
<g id="edge8" class="edge">
<title>dir_9b716f18bdad80f0bcc9544c5d50fede&#45;&gt;dir_ae91ba6220f34d5fbc73d95dc714bae8</title>
<path fill="none" stroke="black" d="M138.08,-87.7C137.29,-79.98 137.06,-70.71 137.4,-62.11"/>
<polygon fill="black" stroke="black" points="140.9,-62.32 138.1,-52.1 133.92,-61.84 140.9,-62.32"/>
<g id="a_edge8&#45;headlabel"><a xlink:href="dir_000015_000025.html" target="_top" xlink:title="39">
<text text-anchor="middle" x="143.48" y="-63.61" font-family="Helvetica,sans-Serif" font-size="10.00">39</text>
</a>
</g>
</g>
<!-- dir_863a7aeecaebce89c36d5cb86386d0df -->
<g id="node4" class="node">
<title>dir_863a7aeecaebce89c36d5cb86386d0df</title>
<g id="a_node4"><a xlink:href="dir_863a7aeecaebce89c36d5cb86386d0df.html" target="_top" xlink:title="container">
<polygon fill="white" stroke="black" points="98,-268 36,-268 36,-232 98,-232 98,-268"/>
<text text-anchor="middle" x="67" y="-247.5" font-family="Helvetica,sans-Serif" font-size="10.00">container</text>
</a>
</g>
</g>
<!-- dir_9b716f18bdad80f0bcc9544c5d50fede&#45;&gt;dir_863a7aeecaebce89c36d5cb86386d0df -->
<g id="edge9" class="edge">
<title>dir_9b716f18bdad80f0bcc9544c5d50fede&#45;&gt;dir_863a7aeecaebce89c36d5cb86386d0df</title>
<path fill="none" stroke="black" d="M143.15,-124.15C141.56,-142.92 137.02,-173.34 124,-196 117.69,-206.98 108.36,-217.03 99.06,-225.36"/>
<polygon fill="black" stroke="black" points="96.69,-222.78 91.33,-231.92 101.22,-228.12 96.69,-222.78"/>
<g id="a_edge9&#45;headlabel"><a xlink:href="dir_000015_000033.html" target="_top" xlink:title="1">
<text text-anchor="middle" x="97.59" y="-215.79" font-family="Helvetica,sans-Serif" font-size="10.00">1</text>
</a>
</g>
</g>
<!-- dir_ae91ba6220f34d5fbc73d95dc714bae8&#45;&gt;dir_9b716f18bdad80f0bcc9544c5d50fede -->
<g id="edge6" class="edge">
<title>dir_ae91ba6220f34d5fbc73d95dc714bae8&#45;&gt;dir_9b716f18bdad80f0bcc9544c5d50fede</title>
<path fill="none" stroke="black" d="M149.9,-52.1C150.7,-59.79 150.94,-69.05 150.6,-77.67"/>
<polygon fill="black" stroke="black" points="147.11,-77.48 149.92,-87.7 154.09,-77.96 147.11,-77.48"/>
<g id="a_edge6&#45;headlabel"><a xlink:href="dir_000025_000015.html" target="_top" xlink:title="2">
<text text-anchor="middle" x="144.52" y="-71.2" font-family="Helvetica,sans-Serif" font-size="10.00">2</text>
</a>
</g>
</g>
<!-- dir_a05deca243559b9ee49c1fff2a7d2ca3 -->
<g id="node3" class="node">
<title>dir_a05deca243559b9ee49c1fff2a7d2ca3</title>
<text text-anchor="middle" x="67" y="-319.5" font-family="Helvetica,sans-Serif" font-size="10.00">ranges</text>
</g>
<!-- dir_a05deca243559b9ee49c1fff2a7d2ca3&#45;&gt;dir_863a7aeecaebce89c36d5cb86386d0df -->
<g id="edge5" class="edge">
<title>dir_a05deca243559b9ee49c1fff2a7d2ca3&#45;&gt;dir_863a7aeecaebce89c36d5cb86386d0df</title>
<path fill="none" stroke="black" d="M67,-303.7C67,-295.98 67,-286.71 67,-278.11"/>
<polygon fill="black" stroke="black" points="70.5,-278.1 67,-268.1 63.5,-278.1 70.5,-278.1"/>
<g id="a_edge5&#45;headlabel"><a xlink:href="dir_000032_000033.html" target="_top" xlink:title="6">
<text text-anchor="middle" x="73.34" y="-279.2" font-family="Helvetica,sans-Serif" font-size="10.00">6</text>
</a>
</g>
</g>
<!-- dir_863a7aeecaebce89c36d5cb86386d0df&#45;&gt;dir_9b716f18bdad80f0bcc9544c5d50fede -->
<g id="edge10" class="edge">
<title>dir_863a7aeecaebce89c36d5cb86386d0df&#45;&gt;dir_9b716f18bdad80f0bcc9544c5d50fede</title>
<path fill="none" stroke="black" d="M81.88,-231.63C89.98,-221.64 99.78,-208.6 107,-196 113.31,-184.98 125.14,-155.75 133.73,-133.77"/>
<polygon fill="black" stroke="black" points="137.06,-134.86 137.42,-124.28 130.54,-132.33 137.06,-134.86"/>
<g id="a_edge10&#45;headlabel"><a xlink:href="dir_000033_000015.html" target="_top" xlink:title="1">
<text text-anchor="middle" x="138.41" y="-136.74" font-family="Helvetica,sans-Serif" font-size="10.00">1</text>
</a>
</g>
</g>
<!-- dir_863a7aeecaebce89c36d5cb86386d0df&#45;&gt;dir_ae91ba6220f34d5fbc73d95dc714bae8 -->
<g id="edge11" class="edge">
<title>dir_863a7aeecaebce89c36d5cb86386d0df&#45;&gt;dir_ae91ba6220f34d5fbc73d95dc714bae8</title>
<path fill="none" stroke="black" d="M93.41,-231.93C123.02,-210.84 168.77,-171.82 183,-124 188.58,-105.26 189.83,-98.32 183,-80 180.32,-72.81 175.91,-66 171,-59.96"/>
<polygon fill="black" stroke="black" points="173.39,-57.38 164.12,-52.24 168.16,-62.04 173.39,-57.38"/>
<g id="a_edge11&#45;headlabel"><a xlink:href="dir_000033_000025.html" target="_top" xlink:title="10">
<text text-anchor="middle" x="177.9" y="-55.67" font-family="Helvetica,sans-Serif" font-size="10.00">10</text>
</a>
</g>
</g>
<!-- dir_e780fc7f0906f834fef118ea324bc442 -->
<g id="node5" class="node">
<title>dir_e780fc7f0906f834fef118ea324bc442</title>
<g id="a_node5"><a xlink:href="dir_e780fc7f0906f834fef118ea324bc442.html" target="_top" xlink:title="detail">
<polygon fill="white" stroke="black" points="96,-124 42,-124 42,-88 96,-88 96,-124"/>
<text text-anchor="middle" x="69" y="-103.5" font-family="Helvetica,sans-Serif" font-size="10.00">detail</text>
</a>
</g>
</g>
<!-- dir_863a7aeecaebce89c36d5cb86386d0df&#45;&gt;dir_e780fc7f0906f834fef118ea324bc442 -->
<g id="edge12" class="edge">
<title>dir_863a7aeecaebce89c36d5cb86386d0df&#45;&gt;dir_e780fc7f0906f834fef118ea324bc442</title>
<path fill="none" stroke="black" d="M53.44,-231.97C46.44,-222.09 38.63,-209.05 35,-196 30.71,-180.59 30.5,-175.35 35,-160 37.8,-150.45 42.91,-140.98 48.33,-132.76"/>
<polygon fill="black" stroke="black" points="51.35,-134.56 54.25,-124.37 45.62,-130.52 51.35,-134.56"/>
<g id="a_edge12&#45;headlabel"><a xlink:href="dir_000033_000038.html" target="_top" xlink:title="2">
<text text-anchor="middle" x="51.6" y="-136.63" font-family="Helvetica,sans-Serif" font-size="10.00">2</text>
</a>
</g>
</g>
<!-- dir_f5fa676fd011d9129236f7ff98beb3ee -->
<g id="node6" class="node">
<title>dir_f5fa676fd011d9129236f7ff98beb3ee</title>
<g id="a_node6"><a xlink:href="dir_f5fa676fd011d9129236f7ff98beb3ee.html" target="_top" xlink:title="views">
<polygon fill="white" stroke="black" points="98,-196 44,-196 44,-160 98,-160 98,-196"/>
<text text-anchor="middle" x="71" y="-175.5" font-family="Helvetica,sans-Serif" font-size="10.00">views</text>
</a>
</g>
</g>
<!-- dir_863a7aeecaebce89c36d5cb86386d0df&#45;&gt;dir_f5fa676fd011d9129236f7ff98beb3ee -->
<g id="edge13" class="edge">
<title>dir_863a7aeecaebce89c36d5cb86386d0df&#45;&gt;dir_f5fa676fd011d9129236f7ff98beb3ee</title>
<path fill="none" stroke="black" d="M62.07,-231.7C61.72,-223.98 62.02,-214.71 62.86,-206.11"/>
<polygon fill="black" stroke="black" points="66.34,-206.47 64.13,-196.1 59.39,-205.58 66.34,-206.47"/>
<g id="a_edge13&#45;headlabel"><a xlink:href="dir_000033_000034.html" target="_top" xlink:title="9">
<text text-anchor="middle" x="68.7" y="-207.89" font-family="Helvetica,sans-Serif" font-size="10.00">9</text>
</a>
</g>
</g>
<!-- dir_e780fc7f0906f834fef118ea324bc442&#45;&gt;dir_ae91ba6220f34d5fbc73d95dc714bae8 -->
<g id="edge7" class="edge">
<title>dir_e780fc7f0906f834fef118ea324bc442&#45;&gt;dir_ae91ba6220f34d5fbc73d95dc714bae8</title>
<path fill="none" stroke="black" d="M87.54,-87.7C96.8,-79.05 108.16,-68.45 118.26,-59.03"/>
<polygon fill="black" stroke="black" points="120.75,-61.49 125.67,-52.1 115.98,-56.37 120.75,-61.49"/>
<g id="a_edge7&#45;headlabel"><a xlink:href="dir_000038_000025.html" target="_top" xlink:title="4">
<text text-anchor="middle" x="120.06" y="-63.51" font-family="Helvetica,sans-Serif" font-size="10.00">4</text>
</a>
</g>
</g>
<!-- dir_f5fa676fd011d9129236f7ff98beb3ee&#45;&gt;dir_9b716f18bdad80f0bcc9544c5d50fede -->
<g id="edge2" class="edge">
<title>dir_f5fa676fd011d9129236f7ff98beb3ee&#45;&gt;dir_9b716f18bdad80f0bcc9544c5d50fede</title>
<path fill="none" stroke="black" d="M89.04,-159.7C98.06,-151.05 109.12,-140.45 118.94,-131.03"/>
<polygon fill="black" stroke="black" points="121.37,-133.55 126.16,-124.1 116.52,-128.5 121.37,-133.55"/>
<g id="a_edge2&#45;headlabel"><a xlink:href="dir_000034_000015.html" target="_top" xlink:title="11">
<text text-anchor="middle" x="120.74" y="-135.59" font-family="Helvetica,sans-Serif" font-size="10.00">11</text>
</a>
</g>
</g>
<!-- dir_f5fa676fd011d9129236f7ff98beb3ee&#45;&gt;dir_ae91ba6220f34d5fbc73d95dc714bae8 -->
<g id="edge3" class="edge">
<title>dir_f5fa676fd011d9129236f7ff98beb3ee&#45;&gt;dir_ae91ba6220f34d5fbc73d95dc714bae8</title>
<path fill="none" stroke="black" d="M54.9,-159.79C37.95,-139.5 15.92,-105.35 33,-80 49.34,-55.75 81.22,-44.56 106.64,-39.4"/>
<polygon fill="black" stroke="black" points="107.5,-42.81 116.72,-37.6 106.26,-35.92 107.5,-42.81"/>
<g id="a_edge3&#45;headlabel"><a xlink:href="dir_000034_000025.html" target="_top" xlink:title="26">
<text text-anchor="middle" x="104.46" y="-43.74" font-family="Helvetica,sans-Serif" font-size="10.00">26</text>
</a>
</g>
</g>
<!-- dir_f5fa676fd011d9129236f7ff98beb3ee&#45;&gt;dir_863a7aeecaebce89c36d5cb86386d0df -->
<g id="edge1" class="edge">
<title>dir_f5fa676fd011d9129236f7ff98beb3ee&#45;&gt;dir_863a7aeecaebce89c36d5cb86386d0df</title>
<path fill="none" stroke="black" d="M75.92,-196.1C76.28,-203.79 75.99,-213.05 75.17,-221.67"/>
<polygon fill="black" stroke="black" points="71.68,-221.34 73.9,-231.7 78.62,-222.21 71.68,-221.34"/>
<g id="a_edge1&#45;headlabel"><a xlink:href="dir_000034_000033.html" target="_top" xlink:title="5">
<text text-anchor="middle" x="69.31" y="-214.92" font-family="Helvetica,sans-Serif" font-size="10.00">5</text>
</a>
</g>
</g>
<!-- dir_f5fa676fd011d9129236f7ff98beb3ee&#45;&gt;dir_e780fc7f0906f834fef118ea324bc442 -->
<g id="edge4" class="edge">
<title>dir_f5fa676fd011d9129236f7ff98beb3ee&#45;&gt;dir_e780fc7f0906f834fef118ea324bc442</title>
<path fill="none" stroke="black" d="M70.51,-159.7C70.29,-151.98 70.02,-142.71 69.77,-134.11"/>
<polygon fill="black" stroke="black" points="73.27,-134 69.49,-124.1 66.28,-134.2 73.27,-134"/>
<g id="a_edge4&#45;headlabel"><a xlink:href="dir_000034_000038.html" target="_top" xlink:title="5">
<text text-anchor="middle" x="76.21" y="-135.01" font-family="Helvetica,sans-Serif" font-size="10.00">5</text>
</a>
</g>
</g>
</g>
</svg>
