<?xml version="1.0" encoding="UTF-8" standalone="no"?>
<!DOCTYPE svg PUBLIC "-//W3C//DTD SVG 1.1//EN"
 "http://www.w3.org/Graphics/SVG/1.1/DTD/svg11.dtd">
<!-- Generated by graphviz version 2.43.0 (0)
 -->
<!-- Title: bio/meta/type_pack Pages: 1 -->
<svg width="276pt" height="175pt"
 viewBox="0.00 0.00 276.00 175.00" xmlns="http://www.w3.org/2000/svg" xmlns:xlink="http://www.w3.org/1999/xlink">
<g id="graph0" class="graph" transform="scale(1 1) rotate(0) translate(4 171)">
<title>bio/meta/type_pack</title>
<polygon fill="white" stroke="transparent" points="-4,4 -4,-171 272,-171 272,4 -4,4"/>
<g id="clust1" class="cluster">
<title>clusterdir_ae91ba6220f34d5fbc73d95dc714bae8</title>
<g id="a_clust1"><a xlink:href="dir_ae91ba6220f34d5fbc73d95dc714bae8.html" target="_top" xlink:title="meta">
<polygon fill="#ddddee" stroke="black" points="8,-8 8,-159 260,-159 260,-8 8,-8"/>
<text text-anchor="middle" x="134" y="-147" font-family="Helvetica,sans-Serif" font-size="10.00">meta</text>
</a>
</g>
</g>
<g id="clust2" class="cluster">
<title>clusterdir_fe16283a0bc9cab10adeac388379e51f</title>
<g id="a_clust2"><a xlink:href="dir_fe16283a0bc9cab10adeac388379e51f.html" target="_top">
<polygon fill="#eeeeff" stroke="black" points="96,-80 96,-132 252,-132 252,-80 96,-80"/>
</a>
</g>
</g>
<!-- dir_33e551785948eac87ac89df08586a1e6 -->
<g id="node1" class="node">
<title>dir_33e551785948eac87ac89df08586a1e6</title>
<g id="a_node1"><a xlink:href="dir_33e551785948eac87ac89df08586a1e6.html" target="_top" xlink:title="type_traits">
<polygon fill="none" stroke="black" points="85.5,-124 16.5,-124 16.5,-88 85.5,-88 85.5,-124"/>
<text text-anchor="middle" x="51" y="-103.5" font-family="Helvetica,sans-Serif" font-size="10.00">type_traits</text>
</a>
</g>
</g>
<!-- dir_7465b06235f1ba32e362a68c63a3ff89 -->
<g id="node2" class="node">
<title>dir_7465b06235f1ba32e362a68c63a3ff89</title>
<g id="a_node2"><a xlink:href="dir_7465b06235f1ba32e362a68c63a3ff89.html" target="_top" xlink:title="type_list">
<polygon fill="white" stroke="red" points="120.5,-52 61.5,-52 61.5,-16 120.5,-16 120.5,-52"/>
<text text-anchor="middle" x="91" y="-31.5" font-family="Helvetica,sans-Serif" font-size="10.00">type_list</text>
</a>
</g>
</g>
<!-- dir_33e551785948eac87ac89df08586a1e6&#45;&gt;dir_7465b06235f1ba32e362a68c63a3ff89 -->
<g id="edge4" class="edge">
<title>dir_33e551785948eac87ac89df08586a1e6&#45;&gt;dir_7465b06235f1ba32e362a68c63a3ff89</title>
<path fill="none" stroke="black" d="M54.97,-87.7C58.78,-79.56 64.22,-69.69 69.78,-60.7"/>
<polygon fill="black" stroke="black" points="72.85,-62.4 75.33,-52.1 66.97,-58.61 72.85,-62.4"/>
<g id="a_edge4&#45;headlabel"><a xlink:href="dir_000031_000029.html" target="_top" xlink:title="1">
<text text-anchor="middle" x="73.28" y="-64.46" font-family="Helvetica,sans-Serif" font-size="10.00">1</text>
</a>
</g>
</g>
<!-- dir_7465b06235f1ba32e362a68c63a3ff89&#45;&gt;dir_33e551785948eac87ac89df08586a1e6 -->
<g id="edge2" class="edge">
<title>dir_7465b06235f1ba32e362a68c63a3ff89&#45;&gt;dir_33e551785948eac87ac89df08586a1e6</title>
<path fill="none" stroke="black" d="M87.12,-52.1C83.34,-60.21 77.92,-70.08 72.36,-79.08"/>
<polygon fill="black" stroke="black" points="69.28,-77.39 66.8,-87.7 75.16,-81.19 69.28,-77.39"/>
<g id="a_edge2&#45;headlabel"><a xlink:href="dir_000029_000031.html" target="_top" xlink:title="1">
<text text-anchor="middle" x="68.84" y="-70.34" font-family="Helvetica,sans-Serif" font-size="10.00">1</text>
</a>
</g>
</g>
<!-- dir_dfba3ce32244d629988215700104f0e8 -->
<g id="node4" class="node">
<title>dir_dfba3ce32244d629988215700104f0e8</title>
<g id="a_node4"><a xlink:href="dir_dfba3ce32244d629988215700104f0e8.html" target="_top" xlink:title="detail">
<polygon fill="white" stroke="black" points="158,-124 104,-124 104,-88 158,-88 158,-124"/>
<text text-anchor="middle" x="131" y="-103.5" font-family="Helvetica,sans-Serif" font-size="10.00">detail</text>
</a>
</g>
</g>
<!-- dir_7465b06235f1ba32e362a68c63a3ff89&#45;&gt;dir_dfba3ce32244d629988215700104f0e8 -->
<g id="edge3" class="edge">
<title>dir_7465b06235f1ba32e362a68c63a3ff89&#45;&gt;dir_dfba3ce32244d629988215700104f0e8</title>
<path fill="none" stroke="black" d="M100.77,-52.1C105.36,-60.13 110.93,-69.87 116.03,-78.8"/>
<polygon fill="black" stroke="black" points="113.11,-80.75 121.11,-87.7 119.19,-77.28 113.11,-80.75"/>
<g id="a_edge3&#45;headlabel"><a xlink:href="dir_000029_000037.html" target="_top" xlink:title="1">
<text text-anchor="middle" x="108.86" y="-76.54" font-family="Helvetica,sans-Serif" font-size="10.00">1</text>
</a>
</g>
</g>
<!-- dir_fe16283a0bc9cab10adeac388379e51f -->
<g id="node3" class="node">
<title>dir_fe16283a0bc9cab10adeac388379e51f</title>
<text text-anchor="middle" x="210" y="-103.5" font-family="Helvetica,sans-Serif" font-size="10.00">type_pack</text>
</g>
<!-- dir_fe16283a0bc9cab10adeac388379e51f&#45;&gt;dir_7465b06235f1ba32e362a68c63a3ff89 -->
<g id="edge5" class="edge">
<title>dir_fe16283a0bc9cab10adeac388379e51f&#45;&gt;dir_7465b06235f1ba32e362a68c63a3ff89</title>
<path fill="none" stroke="black" d="M180.89,-87.88C165.33,-78.72 145.98,-67.34 129.22,-57.48"/>
<polygon fill="black" stroke="black" points="130.62,-54.24 120.22,-52.19 127.07,-60.28 130.62,-54.24"/>
<g id="a_edge5&#45;headlabel"><a xlink:href="dir_000030_000029.html" target="_top" xlink:title="1">
<text text-anchor="middle" x="135.15" y="-51.12" font-family="Helvetica,sans-Serif" font-size="10.00">1</text>
</a>
</g>
</g>
<!-- dir_dfba3ce32244d629988215700104f0e8&#45;&gt;dir_33e551785948eac87ac89df08586a1e6 -->
<g id="edge1" class="edge">
<title>dir_dfba3ce32244d629988215700104f0e8&#45;&gt;dir_33e551785948eac87ac89df08586a1e6</title>
<path fill="none" stroke="black" d="M103.74,-106C101.11,-106 98.48,-106 95.84,-106"/>
<polygon fill="black" stroke="black" points="95.69,-102.5 85.69,-106 95.69,-109.5 95.69,-102.5"/>
<g id="a_edge1&#45;headlabel"><a xlink:href="dir_000037_000031.html" target="_top" xlink:title="1">
<text text-anchor="middle" x="99.28" y="-97.16" font-family="Helvetica,sans-Serif" font-size="10.00">1</text>
</a>
</g>
</g>
</g>
</svg>
