<?xml version="1.0" encoding="UTF-8" standalone="no"?>
<!DOCTYPE svg PUBLIC "-//W3C//DTD SVG 1.1//EN"
 "http://www.w3.org/Graphics/SVG/1.1/DTD/svg11.dtd">
<!-- Generated by graphviz version 2.43.0 (0)
 -->
<!-- Title: bio/ranges/container Pages: 1 -->
<svg width="252pt" height="133pt"
 viewBox="0.00 0.00 252.00 133.00" xmlns="http://www.w3.org/2000/svg" xmlns:xlink="http://www.w3.org/1999/xlink">
<g id="graph0" class="graph" transform="scale(1 1) rotate(0) translate(4 129)">
<title>bio/ranges/container</title>
<g id="clust1" class="cluster">
<title>clusterdir_a05deca243559b9ee49c1fff2a7d2ca3</title>
<g id="a_clust1"><a xlink:href="dir_a05deca243559b9ee49c1fff2a7d2ca3.html" target="_top" xlink:title="ranges">
<polygon fill="#edf0f7" stroke="#7f7f7f" stroke-dasharray="5,2" points="8,-8 8,-117 124,-117 124,-8 8,-8"/>
<text text-anchor="middle" x="66" y="-105" font-family="Helvetica,sans-Serif" font-size="10.00">ranges</text>
</a>
</g>
</g>
<!-- dir_e780fc7f0906f834fef118ea324bc442 -->
<g id="node1" class="node">
<title>dir_e780fc7f0906f834fef118ea324bc442</title>
<g id="a_node1"><a xlink:href="dir_e780fc7f0906f834fef118ea324bc442.html" target="_top" xlink:title="detail">
<polygon fill="#a2b4d6" stroke="#404040" points="56,-35 16,-35 16,-16 56,-16 56,-35"/>
<text text-anchor="middle" x="36" y="-23" font-family="Helvetica,sans-Serif" font-size="10.00">detail</text>
</a>
</g>
</g>
<!-- dir_f5fa676fd011d9129236f7ff98beb3ee -->
<g id="node2" class="node">
<title>dir_f5fa676fd011d9129236f7ff98beb3ee</title>
<g id="a_node2"><a xlink:href="dir_f5fa676fd011d9129236f7ff98beb3ee.html" target="_top" xlink:title="views">
<polygon fill="#a2b4d6" stroke="#404040" points="116,-35 74,-35 74,-16 116,-16 116,-35"/>
<text text-anchor="middle" x="95" y="-23" font-family="Helvetica,sans-Serif" font-size="10.00">views</text>
</a>
</g>
</g>
<!-- dir_863a7aeecaebce89c36d5cb86386d0df -->
<g id="node3" class="node">
<title>dir_863a7aeecaebce89c36d5cb86386d0df</title>
<g id="a_node3"><a xlink:href="dir_863a7aeecaebce89c36d5cb86386d0df.html" target="_top" xlink:title="container">
<polygon fill="#edf0f7" stroke="#404040" stroke-width="2" points="116,-90 60,-90 60,-71 116,-71 116,-90"/>
<text text-anchor="middle" x="88" y="-78" font-family="Helvetica,sans-Serif" font-size="10.00">container</text>
</a>
</g>
</g>
<!-- dir_863a7aeecaebce89c36d5cb86386d0df&#45;&gt;dir_e780fc7f0906f834fef118ea324bc442 -->
<g id="edge3" class="edge">
<title>dir_863a7aeecaebce89c36d5cb86386d0df&#45;&gt;dir_e780fc7f0906f834fef118ea324bc442</title>
<path fill="none" stroke="#63b8ff" d="M79.41,-70.75C71.84,-63.03 60.62,-51.6 51.49,-42.28"/>
<polygon fill="#63b8ff" stroke="#63b8ff" points="53.93,-39.78 44.43,-35.09 48.93,-44.68 53.93,-39.78"/>
<g id="a_edge3&#45;headlabel"><a xlink:href="dir_000007_000013.html" target="_top" xlink:title="3">
<text text-anchor="middle" x="58.47" y="-37.85" font-family="Helvetica,sans-Serif" font-size="10.00" fill="#63b8ff">3</text>
</a>
</g>
</g>
<!-- dir_863a7aeecaebce89c36d5cb86386d0df&#45;&gt;dir_f5fa676fd011d9129236f7ff98beb3ee -->
<g id="edge4" class="edge">
<title>dir_863a7aeecaebce89c36d5cb86386d0df&#45;&gt;dir_f5fa676fd011d9129236f7ff98beb3ee</title>
<path fill="none" stroke="#63b8ff" d="M89.16,-70.75C90.07,-63.8 91.39,-53.85 92.54,-45.13"/>
<polygon fill="#63b8ff" stroke="#63b8ff" points="96.03,-45.46 93.87,-35.09 89.09,-44.54 96.03,-45.46"/>
<g id="a_edge4&#45;headlabel"><a xlink:href="dir_000007_000030.html" target="_top" xlink:title="9">
<text text-anchor="middle" x="98.37" y="-46.9" font-family="Helvetica,sans-Serif" font-size="10.00" fill="#63b8ff">9</text>
</a>
</g>
</g>
<!-- dir_9b716f18bdad80f0bcc9544c5d50fede -->
<g id="node4" class="node">
<title>dir_9b716f18bdad80f0bcc9544c5d50fede</title>
<g id="a_node4"><a xlink:href="dir_9b716f18bdad80f0bcc9544c5d50fede.html" target="_top" xlink:title="alphabet">
<polygon fill="#edf0f7" stroke="red" stroke-dasharray="5,2" points="187.5,-35 134.5,-35 134.5,-16 187.5,-16 187.5,-35"/>
<text text-anchor="middle" x="161" y="-23" font-family="Helvetica,sans-Serif" font-size="10.00">alphabet</text>
</a>
</g>
</g>
<!-- dir_863a7aeecaebce89c36d5cb86386d0df&#45;&gt;dir_9b716f18bdad80f0bcc9544c5d50fede -->
<g id="edge1" class="edge">
<title>dir_863a7aeecaebce89c36d5cb86386d0df&#45;&gt;dir_9b716f18bdad80f0bcc9544c5d50fede</title>
<path fill="none" stroke="#63b8ff" d="M99.73,-70.98C110.73,-63 127.42,-50.88 140.6,-41.31"/>
<polygon fill="#63b8ff" stroke="#63b8ff" points="143.02,-43.88 149.06,-35.17 138.91,-38.21 143.02,-43.88"/>
<g id="a_edge1&#45;headlabel"><a xlink:href="dir_000007_000000.html" target="_top" xlink:title="1">
<text text-anchor="middle" x="141.78" y="-45.79" font-family="Helvetica,sans-Serif" font-size="10.00" fill="#63b8ff">1</text>
</a>
</g>
</g>
<!-- dir_ae91ba6220f34d5fbc73d95dc714bae8 -->
<g id="node5" class="node">
<title>dir_ae91ba6220f34d5fbc73d95dc714bae8</title>
<g id="a_node5"><a xlink:href="dir_ae91ba6220f34d5fbc73d95dc714bae8.html" target="_top" xlink:title="meta">
<polygon fill="#edf0f7" stroke="red" stroke-dasharray="5,2" points="244,-35 206,-35 206,-16 244,-16 244,-35"/>
<text text-anchor="middle" x="225" y="-23" font-family="Helvetica,sans-Serif" font-size="10.00">meta</text>
</a>
</g>
</g>
<!-- dir_863a7aeecaebce89c36d5cb86386d0df&#45;&gt;dir_ae91ba6220f34d5fbc73d95dc714bae8 -->
<g id="edge2" class="edge">
<title>dir_863a7aeecaebce89c36d5cb86386d0df&#45;&gt;dir_ae91ba6220f34d5fbc73d95dc714bae8</title>
<path fill="none" stroke="#63b8ff" d="M110.01,-70.98C133.38,-61.94 170.42,-47.61 196.12,-37.67"/>
<polygon fill="#63b8ff" stroke="#63b8ff" points="197.64,-40.84 205.7,-33.97 195.11,-34.31 197.64,-40.84"/>
<g id="a_edge2&#45;headlabel"><a xlink:href="dir_000007_000018.html" target="_top" xlink:title="6">
<text text-anchor="middle" x="195.31" y="-42.28" font-family="Helvetica,sans-Serif" font-size="10.00" fill="#63b8ff">6</text>
</a>
</g>
</g>
</g>
</svg>
