<?xml version="1.0" encoding="UTF-8" standalone="no"?>
<!DOCTYPE svg PUBLIC "-//W3C//DTD SVG 1.1//EN"
 "http://www.w3.org/Graphics/SVG/1.1/DTD/svg11.dtd">
<!-- Generated by graphviz version 2.42.2 ()
 -->
<!-- Title: bio/meta Pages: 1 -->
<svg width="222pt" height="327pt"
 viewBox="0.00 0.00 222.00 327.00" xmlns="http://www.w3.org/2000/svg" xmlns:xlink="http://www.w3.org/1999/xlink">
<g id="graph0" class="graph" transform="scale(1 1) rotate(0) translate(4 323)">
<title>bio/meta</title>
<polygon fill="white" stroke="transparent" points="-4,4 -4,-323 218,-323 218,4 -4,4"/>
<g id="clust1" class="cluster">
<title>clusterdir_740f9cb2a3f5b47e1148c9e4d90d8bf4</title>
<g id="a_clust1"><a xlink:href="dir_740f9cb2a3f5b47e1148c9e4d90d8bf4.html" target="_top" xlink:title="bio">
<polygon fill="#edf0f7" stroke="#404040" stroke-dasharray="5,2" points="8,-8 8,-311 206,-311 206,-8 8,-8"/>
<text text-anchor="middle" x="107" y="-299" font-family="Helvetica,sans-Serif" font-size="10.00">bio</text>
</a>
</g>
</g>
<g id="clust2" class="cluster">
<title>clusterdir_ae91ba6220f34d5fbc73d95dc714bae8</title>
<g id="a_clust2"><a xlink:href="dir_ae91ba6220f34d5fbc73d95dc714bae8.html" target="_top">
<polygon fill="#edf0f7" stroke="#404040" stroke-width="2" points="16,-16 16,-284 198,-284 198,-16 16,-16"/>
</a>
</g>
</g>
<!-- dir_ae91ba6220f34d5fbc73d95dc714bae8 -->
<g id="node1" class="node">
<title>dir_ae91ba6220f34d5fbc73d95dc714bae8</title>
<text text-anchor="middle" x="143" y="-255.5" font-family="Helvetica,sans-Serif" font-size="10.00">meta</text>
</g>
<!-- dir_0b0d62016bb2320eb6b2e698bfcbe15c -->
<g id="node2" class="node">
<title>dir_0b0d62016bb2320eb6b2e698bfcbe15c</title>
<g id="a_node2"><a xlink:href="dir_0b0d62016bb2320eb6b2e698bfcbe15c.html" target="_top" xlink:title="concept">
<polygon fill="#a2b4d6" stroke="#404040" points="78,-204 24,-204 24,-168 78,-168 78,-204"/>
<text text-anchor="middle" x="51" y="-183.5" font-family="Helvetica,sans-Serif" font-size="10.00">concept</text>
</a>
</g>
</g>
<!-- dir_ae91ba6220f34d5fbc73d95dc714bae8&#45;&gt;dir_0b0d62016bb2320eb6b2e698bfcbe15c -->
<g id="edge1" class="edge">
<title>dir_ae91ba6220f34d5fbc73d95dc714bae8&#45;&gt;dir_0b0d62016bb2320eb6b2e698bfcbe15c</title>
<path fill="none" stroke="black" d="M120.26,-239.7C108.56,-230.8 94.14,-219.82 81.49,-210.2"/>
<polygon fill="black" stroke="black" points="83.56,-207.37 73.48,-204.1 79.32,-212.94 83.56,-207.37"/>
<g id="a_edge1&#45;headlabel"><a xlink:href="dir_000018_000007.html" target="_top" xlink:title="2">
<text text-anchor="middle" x="88.14" y="-204.79" font-family="Helvetica,sans-Serif" font-size="10.00">2</text>
</a>
</g>
</g>
<!-- dir_9195b182a8db98b0a6ba2a764d2c92e3 -->
<g id="node3" class="node">
<title>dir_9195b182a8db98b0a6ba2a764d2c92e3</title>
<g id="a_node3"><a xlink:href="dir_9195b182a8db98b0a6ba2a764d2c92e3.html" target="_top" xlink:title="detail">
<polygon fill="#a2b4d6" stroke="#404040" points="150,-204 96,-204 96,-168 150,-168 150,-204"/>
<text text-anchor="middle" x="123" y="-183.5" font-family="Helvetica,sans-Serif" font-size="10.00">detail</text>
</a>
</g>
</g>
<!-- dir_ae91ba6220f34d5fbc73d95dc714bae8&#45;&gt;dir_9195b182a8db98b0a6ba2a764d2c92e3 -->
<g id="edge4" class="edge">
<title>dir_ae91ba6220f34d5fbc73d95dc714bae8&#45;&gt;dir_9195b182a8db98b0a6ba2a764d2c92e3</title>
<path fill="none" stroke="black" d="M138.06,-239.7C135.83,-231.9 133.15,-222.51 130.67,-213.83"/>
<polygon fill="black" stroke="black" points="134,-212.76 127.89,-204.1 127.27,-214.68 134,-212.76"/>
<g id="a_edge4&#45;headlabel"><a xlink:href="dir_000018_000012.html" target="_top" xlink:title="1">
<text text-anchor="middle" x="137.72" y="-212.93" font-family="Helvetica,sans-Serif" font-size="10.00">1</text>
</a>
</g>
</g>
<!-- dir_7465b06235f1ba32e362a68c63a3ff89 -->
<g id="node4" class="node">
<title>dir_7465b06235f1ba32e362a68c63a3ff89</title>
<g id="a_node4"><a xlink:href="dir_7465b06235f1ba32e362a68c63a3ff89.html" target="_top" xlink:title="type_list">
<polygon fill="#a2b4d6" stroke="#404040" points="158,-132 104,-132 104,-96 158,-96 158,-132"/>
<text text-anchor="middle" x="131" y="-111.5" font-family="Helvetica,sans-Serif" font-size="10.00">type_list</text>
</a>
</g>
</g>
<!-- dir_ae91ba6220f34d5fbc73d95dc714bae8&#45;&gt;dir_7465b06235f1ba32e362a68c63a3ff89 -->
<g id="edge3" class="edge">
<title>dir_ae91ba6220f34d5fbc73d95dc714bae8&#45;&gt;dir_7465b06235f1ba32e362a68c63a3ff89</title>
<path fill="none" stroke="black" d="M150.36,-239.8C157.09,-221.77 165.12,-192.69 159,-168 156.71,-158.75 152.47,-149.34 147.98,-141.07"/>
<polygon fill="black" stroke="black" points="150.93,-139.17 142.89,-132.28 144.87,-142.68 150.93,-139.17"/>
<g id="a_edge3&#45;headlabel"><a xlink:href="dir_000018_000026.html" target="_top" xlink:title="5">
<text text-anchor="middle" x="155.19" y="-138.36" font-family="Helvetica,sans-Serif" font-size="10.00">5</text>
</a>
</g>
</g>
<!-- dir_33e551785948eac87ac89df08586a1e6 -->
<g id="node5" class="node">
<title>dir_33e551785948eac87ac89df08586a1e6</title>
<g id="a_node5"><a xlink:href="dir_33e551785948eac87ac89df08586a1e6.html" target="_top" xlink:title="type_traits">
<polygon fill="#a2b4d6" stroke="#404040" points="162,-60 100,-60 100,-24 162,-24 162,-60"/>
<text text-anchor="middle" x="131" y="-39.5" font-family="Helvetica,sans-Serif" font-size="10.00">type_traits</text>
</a>
</g>
</g>
<!-- dir_ae91ba6220f34d5fbc73d95dc714bae8&#45;&gt;dir_33e551785948eac87ac89df08586a1e6 -->
<g id="edge2" class="edge">
<title>dir_ae91ba6220f34d5fbc73d95dc714bae8&#45;&gt;dir_33e551785948eac87ac89df08586a1e6</title>
<path fill="none" stroke="black" d="M152,-239.85C156.83,-229.72 162.33,-216.47 165,-204 175.04,-157.05 181.11,-141.89 167,-96 163.99,-86.22 158.49,-76.62 152.68,-68.33"/>
<polygon fill="black" stroke="black" points="155.41,-66.13 146.61,-60.23 149.81,-70.33 155.41,-66.13"/>
<g id="a_edge2&#45;headlabel"><a xlink:href="dir_000018_000027.html" target="_top" xlink:title="4">
<text text-anchor="middle" x="159.83" y="-64.8" font-family="Helvetica,sans-Serif" font-size="10.00">4</text>
</a>
</g>
</g>
<!-- dir_0b0d62016bb2320eb6b2e698bfcbe15c&#45;&gt;dir_7465b06235f1ba32e362a68c63a3ff89 -->
<g id="edge6" class="edge">
<title>dir_0b0d62016bb2320eb6b2e698bfcbe15c&#45;&gt;dir_7465b06235f1ba32e362a68c63a3ff89</title>
<path fill="none" stroke="black" d="M70.78,-167.7C80.75,-158.97 93.01,-148.24 103.86,-138.75"/>
<polygon fill="black" stroke="black" points="106.23,-141.32 111.45,-132.1 101.62,-136.06 106.23,-141.32"/>
<g id="a_edge6&#45;headlabel"><a xlink:href="dir_000007_000026.html" target="_top" xlink:title="1">
<text text-anchor="middle" x="105.4" y="-143.33" font-family="Helvetica,sans-Serif" font-size="10.00">1</text>
</a>
</g>
</g>
<!-- dir_0b0d62016bb2320eb6b2e698bfcbe15c&#45;&gt;dir_33e551785948eac87ac89df08586a1e6 -->
<g id="edge5" class="edge">
<title>dir_0b0d62016bb2320eb6b2e698bfcbe15c&#45;&gt;dir_33e551785948eac87ac89df08586a1e6</title>
<path fill="none" stroke="black" d="M58.6,-167.91C66.88,-149.72 80.85,-120.27 95,-96 100.32,-86.87 106.65,-77.22 112.51,-68.69"/>
<polygon fill="black" stroke="black" points="115.53,-70.48 118.38,-60.28 109.79,-66.47 115.53,-70.48"/>
<g id="a_edge5&#45;headlabel"><a xlink:href="dir_000007_000027.html" target="_top" xlink:title="2">
<text text-anchor="middle" x="115.8" y="-72.55" font-family="Helvetica,sans-Serif" font-size="10.00">2</text>
</a>
</g>
</g>
<!-- dir_7465b06235f1ba32e362a68c63a3ff89&#45;&gt;dir_33e551785948eac87ac89df08586a1e6 -->
<g id="edge7" class="edge">
<title>dir_7465b06235f1ba32e362a68c63a3ff89&#45;&gt;dir_33e551785948eac87ac89df08586a1e6</title>
<path fill="none" stroke="black" d="M125.08,-95.7C124.29,-87.98 124.06,-78.71 124.4,-70.11"/>
<polygon fill="black" stroke="black" points="127.9,-70.32 125.1,-60.1 120.92,-69.84 127.9,-70.32"/>
<g id="a_edge7&#45;headlabel"><a xlink:href="dir_000026_000027.html" target="_top" xlink:title="1">
<text text-anchor="middle" x="130.48" y="-71.61" font-family="Helvetica,sans-Serif" font-size="10.00">1</text>
</a>
</g>
</g>
<!-- dir_33e551785948eac87ac89df08586a1e6&#45;&gt;dir_7465b06235f1ba32e362a68c63a3ff89 -->
<g id="edge8" class="edge">
<title>dir_33e551785948eac87ac89df08586a1e6&#45;&gt;dir_7465b06235f1ba32e362a68c63a3ff89</title>
<path fill="none" stroke="black" d="M136.9,-60.1C137.7,-67.79 137.94,-77.05 137.6,-85.67"/>
<polygon fill="black" stroke="black" points="134.11,-85.48 136.92,-95.7 141.09,-85.96 134.11,-85.48"/>
<g id="a_edge8&#45;headlabel"><a xlink:href="dir_000027_000026.html" target="_top" xlink:title="1">
<text text-anchor="middle" x="131.52" y="-79.2" font-family="Helvetica,sans-Serif" font-size="10.00">1</text>
</a>
</g>
</g>
</g>
</svg>
