<?xml version="1.0" encoding="UTF-8" standalone="no"?>
<!DOCTYPE svg PUBLIC "-//W3C//DTD SVG 1.1//EN"
 "http://www.w3.org/Graphics/SVG/1.1/DTD/svg11.dtd">
<!-- Generated by graphviz version 2.43.0 (0)
 -->
<!-- Title: bio/meta/concept Pages: 1 -->
<svg width="187pt" height="167pt"
 viewBox="0.00 0.00 187.00 167.00" xmlns="http://www.w3.org/2000/svg" xmlns:xlink="http://www.w3.org/1999/xlink">
<g id="graph0" class="graph" transform="scale(1 1) rotate(0) translate(4 163)">
<title>bio/meta/concept</title>
<polygon fill="white" stroke="transparent" points="-4,4 -4,-163 183,-163 183,4 -4,4"/>
<g id="clust1" class="cluster">
<title>clusterdir_ae91ba6220f34d5fbc73d95dc714bae8</title>
<g id="a_clust1"><a xlink:href="dir_ae91ba6220f34d5fbc73d95dc714bae8.html" target="_top" xlink:title="meta">
<polygon fill="#edf0f7" stroke="#7f7f7f" stroke-dasharray="5,2" points="8,-8 8,-151 171,-151 171,-8 8,-8"/>
<text text-anchor="middle" x="89.5" y="-139" font-family="Helvetica,sans-Serif" font-size="10.00">meta</text>
</a>
</g>
</g>
<!-- dir_33e551785948eac87ac89df08586a1e6 -->
<g id="node1" class="node">
<title>dir_33e551785948eac87ac89df08586a1e6</title>
<g id="a_node1"><a xlink:href="dir_33e551785948eac87ac89df08586a1e6.html" target="_top" xlink:title="type_traits">
<polygon fill="#a2b4d6" stroke="#404040" points="85.5,-52 16.5,-52 16.5,-16 85.5,-16 85.5,-52"/>
<text text-anchor="middle" x="51" y="-31.5" font-family="Helvetica,sans-Serif" font-size="10.00">type_traits</text>
</a>
</g>
</g>
<!-- dir_7465b06235f1ba32e362a68c63a3ff89 -->
<g id="node2" class="node">
<title>dir_7465b06235f1ba32e362a68c63a3ff89</title>
<g id="a_node2"><a xlink:href="dir_7465b06235f1ba32e362a68c63a3ff89.html" target="_top" xlink:title="type_list">
<polygon fill="#a2b4d6" stroke="#404040" points="162.5,-52 103.5,-52 103.5,-16 162.5,-16 162.5,-52"/>
<text text-anchor="middle" x="133" y="-31.5" font-family="Helvetica,sans-Serif" font-size="10.00">type_list</text>
</a>
</g>
</g>
<!-- dir_0b0d62016bb2320eb6b2e698bfcbe15c -->
<g id="node3" class="node">
<title>dir_0b0d62016bb2320eb6b2e698bfcbe15c</title>
<g id="a_node3"><a xlink:href="dir_0b0d62016bb2320eb6b2e698bfcbe15c.html" target="_top" xlink:title="concept">
<polygon fill="#edf0f7" stroke="#404040" stroke-width="2" points="119.5,-124 64.5,-124 64.5,-88 119.5,-88 119.5,-124"/>
<text text-anchor="middle" x="92" y="-103.5" font-family="Helvetica,sans-Serif" font-size="10.00">concept</text>
</a>
</g>
</g>
<!-- dir_0b0d62016bb2320eb6b2e698bfcbe15c&#45;&gt;dir_33e551785948eac87ac89df08586a1e6 -->
<g id="edge1" class="edge">
<title>dir_0b0d62016bb2320eb6b2e698bfcbe15c&#45;&gt;dir_33e551785948eac87ac89df08586a1e6</title>
<path fill="none" stroke="black" d="M81.87,-87.7C77.15,-79.64 71.44,-69.89 66.22,-60.98"/>
<polygon fill="black" stroke="black" points="69.09,-58.96 61.02,-52.1 63.05,-62.5 69.09,-58.96"/>
<g id="a_edge1&#45;headlabel"><a xlink:href="dir_000006_000028.html" target="_top" xlink:title="2">
<text text-anchor="middle" x="73.36" y="-58.13" font-family="Helvetica,sans-Serif" font-size="10.00">2</text>
</a>
</g>
</g>
<!-- dir_0b0d62016bb2320eb6b2e698bfcbe15c&#45;&gt;dir_7465b06235f1ba32e362a68c63a3ff89 -->
<g id="edge2" class="edge">
<title>dir_0b0d62016bb2320eb6b2e698bfcbe15c&#45;&gt;dir_7465b06235f1ba32e362a68c63a3ff89</title>
<path fill="none" stroke="black" d="M102.13,-87.7C106.85,-79.64 112.56,-69.89 117.78,-60.98"/>
<polygon fill="black" stroke="black" points="120.95,-62.5 122.98,-52.1 114.91,-58.96 120.95,-62.5"/>
<g id="a_edge2&#45;headlabel"><a xlink:href="dir_000006_000027.html" target="_top" xlink:title="1">
<text text-anchor="middle" x="121.58" y="-64.54" font-family="Helvetica,sans-Serif" font-size="10.00">1</text>
</a>
</g>
</g>
</g>
</svg>
