<?xml version="1.0" encoding="UTF-8" standalone="no"?>
<!DOCTYPE svg PUBLIC "-//W3C//DTD SVG 1.1//EN"
 "http://www.w3.org/Graphics/SVG/1.1/DTD/svg11.dtd">
<!-- Generated by graphviz version 2.43.0 (0)
 -->
<!-- Title: bio/alphabet/structure/dssp9.hpp Pages: 1 -->
<svg width="177pt" height="229pt"
 viewBox="0.00 0.00 177.00 229.00" xmlns="http://www.w3.org/2000/svg" xmlns:xlink="http://www.w3.org/1999/xlink">
<g id="graph0" class="graph" transform="scale(1 1) rotate(0) translate(4 225)">
<title>bio/alphabet/structure/dssp9.hpp</title>
<polygon fill="white" stroke="transparent" points="-4,4 -4,-225 173,-225 173,4 -4,4"/>
<!-- Node1 -->
<g id="node1" class="node">
<title>Node1</title>
<g id="a_node1"><a xlink:title="Provides the dssp format for protein structure.">
<polygon fill="#bfbfbf" stroke="black" points="0,-190.5 0,-220.5 124,-220.5 124,-190.5 0,-190.5"/>
<text text-anchor="start" x="8" y="-208.5" font-family="Helvetica,sans-Serif" font-size="10.00">bio/alphabet/structure</text>
<text text-anchor="middle" x="62" y="-197.5" font-family="Helvetica,sans-Serif" font-size="10.00">/dssp9.hpp</text>
</a>
</g>
</g>
<!-- Node2 -->
<g id="node2" class="node">
<title>Node2</title>
<g id="a_node2"><a xlink:href="alphabet_2structure_2all_8hpp.html" target="_top" xlink:title="Meta&#45;header for the structure module. It includes all headers from alphabet/structure/.">
<polygon fill="white" stroke="black" points="0,-56.5 0,-86.5 124,-86.5 124,-56.5 0,-56.5"/>
<text text-anchor="start" x="8" y="-74.5" font-family="Helvetica,sans-Serif" font-size="10.00">bio/alphabet/structure</text>
<text text-anchor="middle" x="62" y="-63.5" font-family="Helvetica,sans-Serif" font-size="10.00">/all.hpp</text>
</a>
</g>
</g>
<!-- Node1&#45;&gt;Node2 -->
<g id="edge1" class="edge">
<title>Node1&#45;&gt;Node2</title>
<path fill="none" stroke="midnightblue" d="M47.23,-181.47C42.69,-173.15 38.29,-163.47 36,-154 32.76,-140.61 32.76,-136.39 36,-123 39.16,-109.97 46.3,-96.53 52.3,-86.79"/>
<polygon fill="midnightblue" stroke="midnightblue" points="44.25,-183.32 52.3,-190.21 50.3,-179.8 44.25,-183.32"/>
</g>
<!-- Node4 -->
<g id="node4" class="node">
<title>Node4</title>
<g id="a_node4"><a xlink:href="structured__aa_8hpp.html" target="_top" xlink:title="Provides the composite of aminoacid with structure alphabets.">
<polygon fill="white" stroke="black" points="45,-123.5 45,-153.5 169,-153.5 169,-123.5 45,-123.5"/>
<text text-anchor="start" x="53" y="-141.5" font-family="Helvetica,sans-Serif" font-size="10.00">bio/alphabet/structure</text>
<text text-anchor="middle" x="107" y="-130.5" font-family="Helvetica,sans-Serif" font-size="10.00">/structured_aa.hpp</text>
</a>
</g>
</g>
<!-- Node1&#45;&gt;Node4 -->
<g id="edge3" class="edge">
<title>Node1&#45;&gt;Node4</title>
<path fill="none" stroke="midnightblue" d="M77.47,-182.16C84.03,-172.68 91.48,-161.92 97.25,-153.58"/>
<polygon fill="midnightblue" stroke="midnightblue" points="74.58,-180.18 71.76,-190.4 80.33,-184.17 74.58,-180.18"/>
</g>
<!-- Node3 -->
<g id="node3" class="node">
<title>Node3</title>
<g id="a_node3"><a xlink:href="alphabet_2all_8hpp.html" target="_top" xlink:title="Meta&#45;header for the alphabet module.">
<polygon fill="white" stroke="black" points="5.5,-0.5 5.5,-19.5 118.5,-19.5 118.5,-0.5 5.5,-0.5"/>
<text text-anchor="middle" x="62" y="-7.5" font-family="Helvetica,sans-Serif" font-size="10.00">bio/alphabet/all.hpp</text>
</a>
</g>
</g>
<!-- Node2&#45;&gt;Node3 -->
<g id="edge2" class="edge">
<title>Node2&#45;&gt;Node3</title>
<path fill="none" stroke="midnightblue" d="M62,-46.29C62,-36.86 62,-26.65 62,-19.66"/>
<polygon fill="midnightblue" stroke="midnightblue" points="58.5,-46.4 62,-56.4 65.5,-46.4 58.5,-46.4"/>
</g>
<!-- Node4&#45;&gt;Node2 -->
<g id="edge4" class="edge">
<title>Node4&#45;&gt;Node2</title>
<path fill="none" stroke="midnightblue" d="M91.53,-115.16C84.97,-105.68 77.52,-94.92 71.75,-86.58"/>
<polygon fill="midnightblue" stroke="midnightblue" points="88.67,-117.17 97.24,-123.4 94.42,-113.18 88.67,-117.17"/>
</g>
</g>
</svg>
