<?xml version="1.0" encoding="UTF-8" standalone="no"?>
<!DOCTYPE svg PUBLIC "-//W3C//DTD SVG 1.1//EN"
 "http://www.w3.org/Graphics/SVG/1.1/DTD/svg11.dtd">
<!-- Generated by graphviz version 2.43.0 (0)
 -->
<!-- Title: bio/alphabet/structure/dssp9.hpp Pages: 1 -->
<!--zoomable 419 -->
<svg id="main" version="1.1" xmlns="http://www.w3.org/2000/svg" xmlns:xlink="http://www.w3.org/1999/xlink" xml:space="preserve" onload="init(evt)">
<style type="text/css"><![CDATA[
.edge:hover path { stroke: red; }
.edge:hover polygon { stroke: red; fill: red; }
]]></style>
<script type="text/javascript"><![CDATA[
var edges = document.getElementsByTagName('g');
if (edges && edges.length) {
  for (var i=0;i<edges.length;i++) {
    if (edges[i].id.substr(0,4)=='edge') {
      edges[i].setAttribute('class','edge');
    }
  }
}
]]></script>
        <defs>
                <circle id="rim" cx="0" cy="0" r="7"/>
                <circle id="rim2" cx="0" cy="0" r="3.5"/>
                <g id="zoomPlus">
                        <use xlink:href="#rim" fill="#404040">
                                <set attributeName="fill" to="#808080" begin="zoomplus.mouseover" end="zoomplus.mouseout"/>
                        </use>
                        <path d="M-4,0h8M0,-4v8" fill="none" stroke="white" stroke-width="1.5" pointer-events="none"/>
                </g>
                <g id="zoomMin">
                        <use xlink:href="#rim" fill="#404040">
                                <set attributeName="fill" to="#808080" begin="zoomminus.mouseover" end="zoomminus.mouseout"/>
                        </use>
                        <path d="M-4,0h8" fill="none" stroke="white" stroke-width="1.5" pointer-events="none"/>
                </g>
                <g id="dirArrow">
                        <path fill="none" stroke="white" stroke-width="1.5" d="M0,-3.0v7 M-2.5,-0.5L0,-3.0L2.5,-0.5"/>
                </g>
               <g id="resetDef">
                       <use xlink:href="#rim2" fill="#404040">
                               <set attributeName="fill" to="#808080" begin="reset.mouseover" end="reset.mouseout"/>
                       </use>
               </g>
        </defs>

<script type="text/javascript">
var viewWidth = 1298;
var viewHeight = 419;
var sectionId = 'dynsection-0';
</script>
<script xlink:href="svgpan.js"/>
<svg id="graph" class="graph">
<g id="viewport">
<title>bio/alphabet/structure/dssp9.hpp</title>
<polygon fill="white" stroke="transparent" points="-4,4 -4,-415 1294,-415 1294,4 -4,4"/>
<!-- Node1 -->
<g id="node1" class="node">
<title>Node1</title>
<g id="a_node1"><a xlink:title="Provides the dssp format for protein structure.">
<polygon fill="#bfbfbf" stroke="black" points="926.5,-380.5 926.5,-410.5 1050.5,-410.5 1050.5,-380.5 926.5,-380.5"/>
<text text-anchor="start" x="934.5" y="-398.5" font-family="Helvetica,sans-Serif" font-size="10.00">bio/alphabet/structure</text>
<text text-anchor="middle" x="988.5" y="-387.5" font-family="Helvetica,sans-Serif" font-size="10.00">/dssp9.hpp</text>
</a>
</g>
</g>
<!-- Node2 -->
<g id="node2" class="node">
<title>Node2</title>
<g id="a_node2"><a target="_blank" xlink:href="https://en.cppreference.com/w/cpp/header/vector.html" xlink:title=" ">
<polygon fill="white" stroke="black" points="894,-319 894,-338 941,-338 941,-319 894,-319"/>
<text text-anchor="middle" x="917.5" y="-326" font-family="Helvetica,sans-Serif" font-size="10.00">vector</text>
</a>
</g>
</g>
<!-- Node1&#45;&gt;Node2 -->
<g id="edge1" class="edge">
<title>Node1&#45;&gt;Node2</title>
<path fill="none" stroke="midnightblue" d="M973.09,-380.4C961.69,-369.96 946.17,-355.75 934.43,-345"/>
<polygon fill="midnightblue" stroke="midnightblue" points="936.74,-342.37 927,-338.19 932.01,-347.53 936.74,-342.37"/>
</g>
<!-- Node3 -->
<g id="node3" class="node">
<title>Node3</title>
<g id="a_node3"><a xlink:href="alphabet_2concept_8hpp.html" target="_top" xlink:title="Core alphabet concept and free function/type trait wrappers.">
<polygon fill="white" stroke="black" points="698.5,-252 698.5,-271 838.5,-271 838.5,-252 698.5,-252"/>
<text text-anchor="middle" x="768.5" y="-259" font-family="Helvetica,sans-Serif" font-size="10.00">bio/alphabet/concept.hpp</text>
</a>
</g>
</g>
<!-- Node1&#45;&gt;Node3 -->
<g id="edge2" class="edge">
<title>Node1&#45;&gt;Node3</title>
<path fill="none" stroke="midnightblue" d="M985.76,-380.49C981.45,-362.26 971.35,-330.65 950.5,-313 922.14,-288.99 883.23,-276.34 848.66,-269.7"/>
<polygon fill="midnightblue" stroke="midnightblue" points="849.03,-266.21 838.57,-267.9 847.8,-273.1 849.03,-266.21"/>
</g>
<!-- Node23 -->
<g id="node23" class="node">
<title>Node23</title>
<g id="a_node23"><a xlink:href="alphabet__base_8hpp.html" target="_top" xlink:title="Provides bio::alphabet_base.">
<polygon fill="white" stroke="black" points="1048,-313.5 1048,-343.5 1171,-343.5 1171,-313.5 1048,-313.5"/>
<text text-anchor="start" x="1056" y="-331.5" font-family="Helvetica,sans-Serif" font-size="10.00">bio/alphabet/alphabet</text>
<text text-anchor="middle" x="1109.5" y="-320.5" font-family="Helvetica,sans-Serif" font-size="10.00">_base.hpp</text>
</a>
</g>
</g>
<!-- Node1&#45;&gt;Node23 -->
<g id="edge33" class="edge">
<title>Node1&#45;&gt;Node23</title>
<path fill="none" stroke="midnightblue" d="M1014.76,-380.4C1032.2,-371.03 1055.3,-358.62 1074.33,-348.39"/>
<polygon fill="midnightblue" stroke="midnightblue" points="1076.14,-351.39 1083.3,-343.58 1072.83,-345.23 1076.14,-351.39"/>
</g>
<!-- Node27 -->
<g id="node27" class="node">
<title>Node27</title>
<g id="a_node27"><a xlink:href="transform_8hpp.html" target="_top" xlink:title="Provides utilities for modifying characters.">
<polygon fill="white" stroke="black" points="937,-246.5 937,-276.5 1078,-276.5 1078,-246.5 937,-246.5"/>
<text text-anchor="start" x="945" y="-264.5" font-family="Helvetica,sans-Serif" font-size="10.00">bio/meta/char_operations</text>
<text text-anchor="middle" x="1007.5" y="-253.5" font-family="Helvetica,sans-Serif" font-size="10.00">/transform.hpp</text>
</a>
</g>
</g>
<!-- Node1&#45;&gt;Node27 -->
<g id="edge43" class="edge">
<title>Node1&#45;&gt;Node27</title>
<path fill="none" stroke="midnightblue" d="M990.53,-380.37C993.76,-357.94 1000.1,-313.92 1004.05,-286.49"/>
<polygon fill="midnightblue" stroke="midnightblue" points="1007.52,-286.92 1005.48,-276.52 1000.59,-285.92 1007.52,-286.92"/>
</g>
<!-- Node4 -->
<g id="node4" class="node">
<title>Node4</title>
<g id="a_node4"><a xlink:href="exception_8hpp.html" target="_top" xlink:title="Exceptions thrown by entities in the alphabet module.">
<polygon fill="white" stroke="black" points="209,-185 209,-204 358,-204 358,-185 209,-185"/>
<text text-anchor="middle" x="283.5" y="-192" font-family="Helvetica,sans-Serif" font-size="10.00">bio/alphabet/exception.hpp</text>
</a>
</g>
</g>
<!-- Node3&#45;&gt;Node4 -->
<g id="edge3" class="edge">
<title>Node3&#45;&gt;Node4</title>
<path fill="none" stroke="midnightblue" d="M698.28,-252.71C617.94,-243.56 482.49,-227.41 366.5,-210 357.88,-208.71 348.78,-207.23 339.88,-205.73"/>
<polygon fill="midnightblue" stroke="midnightblue" points="340.42,-202.27 329.97,-204.02 339.23,-209.16 340.42,-202.27"/>
</g>
<!-- Node13 -->
<g id="node13" class="node">
<title>Node13</title>
<g id="a_node13"><a xlink:href="cereal_8hpp.html" target="_top" xlink:title="Adaptions of concepts from the Cereal library.">
<polygon fill="white" stroke="black" points="691,-185 691,-204 846,-204 846,-185 691,-185"/>
<text text-anchor="middle" x="768.5" y="-192" font-family="Helvetica,sans-Serif" font-size="10.00">bio/meta/concept/cereal.hpp</text>
</a>
</g>
</g>
<!-- Node3&#45;&gt;Node13 -->
<g id="edge13" class="edge">
<title>Node3&#45;&gt;Node13</title>
<path fill="none" stroke="midnightblue" d="M768.5,-251.73C768.5,-242.18 768.5,-226.62 768.5,-214.28"/>
<polygon fill="midnightblue" stroke="midnightblue" points="772,-214.13 768.5,-204.13 765,-214.13 772,-214.13"/>
</g>
<!-- Node14 -->
<g id="node14" class="node">
<title>Node14</title>
<g id="a_node14"><a target="_blank" xlink:href="https://en.cppreference.com/w/cpp/header/type_traits.html" xlink:title=" ">
<polygon fill="white" stroke="black" points="842,-118 842,-137 911,-137 911,-118 842,-118"/>
<text text-anchor="middle" x="876.5" y="-125" font-family="Helvetica,sans-Serif" font-size="10.00">type_traits</text>
</a>
</g>
</g>
<!-- Node3&#45;&gt;Node14 -->
<g id="edge32" class="edge">
<title>Node3&#45;&gt;Node14</title>
<path fill="none" stroke="midnightblue" d="M793.95,-251.96C813.61,-244.07 839.99,-230.46 855.5,-210 869.4,-191.66 874.15,-165.04 875.74,-147.27"/>
<polygon fill="midnightblue" stroke="midnightblue" points="879.25,-147.25 876.4,-137.04 872.26,-146.8 879.25,-147.25"/>
</g>
<!-- Node15 -->
<g id="node15" class="node">
<title>Node15</title>
<g id="a_node15"><a xlink:href="core__language_8hpp.html" target="_top" xlink:title="Provides concepts for core language types and relations that don&#39;t have concepts in C++20 (yet).">
<polygon fill="white" stroke="black" points="941,-179.5 941,-209.5 1066,-209.5 1066,-179.5 941,-179.5"/>
<text text-anchor="start" x="949" y="-197.5" font-family="Helvetica,sans-Serif" font-size="10.00">bio/meta/concept/core</text>
<text text-anchor="middle" x="1003.5" y="-186.5" font-family="Helvetica,sans-Serif" font-size="10.00">_language.hpp</text>
</a>
</g>
</g>
<!-- Node3&#45;&gt;Node15 -->
<g id="edge16" class="edge">
<title>Node3&#45;&gt;Node15</title>
<path fill="none" stroke="midnightblue" d="M799.71,-251.87C836.11,-241.8 897.16,-224.91 942.96,-212.24"/>
<polygon fill="midnightblue" stroke="midnightblue" points="944.08,-215.57 952.78,-209.53 942.21,-208.82 944.08,-215.57"/>
</g>
<!-- Node16 -->
<g id="node16" class="node">
<title>Node16</title>
<g id="a_node16"><a xlink:href="customisation__point_8hpp.html" target="_top" xlink:title="Helper utilities for defining customisation point objects.">
<polygon fill="white" stroke="black" points="510,-179.5 510,-209.5 673,-209.5 673,-179.5 510,-179.5"/>
<text text-anchor="start" x="518" y="-197.5" font-family="Helvetica,sans-Serif" font-size="10.00">bio/meta/detail/customisation</text>
<text text-anchor="middle" x="591.5" y="-186.5" font-family="Helvetica,sans-Serif" font-size="10.00">_point.hpp</text>
</a>
</g>
</g>
<!-- Node3&#45;&gt;Node16 -->
<g id="edge20" class="edge">
<title>Node3&#45;&gt;Node16</title>
<path fill="none" stroke="midnightblue" d="M745,-251.87C718.21,-242.03 673.71,-225.69 639.5,-213.13"/>
<polygon fill="midnightblue" stroke="midnightblue" points="640.29,-209.69 629.7,-209.53 637.88,-216.26 640.29,-209.69"/>
</g>
<!-- Node17 -->
<g id="node17" class="node">
<title>Node17</title>
<g id="a_node17"><a xlink:href="type__inspection_8hpp.html" target="_top" xlink:title="Provides traits to inspect some information of a type, for example its name.">
<polygon fill="white" stroke="black" points="83.5,-112.5 83.5,-142.5 199.5,-142.5 199.5,-112.5 83.5,-112.5"/>
<text text-anchor="start" x="91.5" y="-130.5" font-family="Helvetica,sans-Serif" font-size="10.00">bio/meta/detail/type</text>
<text text-anchor="middle" x="141.5" y="-119.5" font-family="Helvetica,sans-Serif" font-size="10.00">_inspection.hpp</text>
</a>
</g>
</g>
<!-- Node3&#45;&gt;Node17 -->
<g id="edge22" class="edge">
<title>Node3&#45;&gt;Node17</title>
<path fill="none" stroke="midnightblue" d="M698.24,-257.55C555.58,-251.08 241.85,-234.27 199.5,-210 176.79,-196.98 160.72,-171.04 151.34,-151.91"/>
<polygon fill="midnightblue" stroke="midnightblue" points="154.42,-150.23 147.04,-142.63 148.06,-153.17 154.42,-150.23"/>
</g>
<!-- Node21 -->
<g id="node21" class="node">
<title>Node21</title>
<g id="a_node21"><a xlink:href="basic_8hpp.html" target="_top" xlink:title="Provides various type traits on generic types.">
<polygon fill="white" stroke="black" points="375.5,-179.5 375.5,-209.5 491.5,-209.5 491.5,-179.5 375.5,-179.5"/>
<text text-anchor="start" x="383.5" y="-197.5" font-family="Helvetica,sans-Serif" font-size="10.00">bio/meta/type_traits</text>
<text text-anchor="middle" x="433.5" y="-186.5" font-family="Helvetica,sans-Serif" font-size="10.00">/basic.hpp</text>
</a>
</g>
</g>
<!-- Node3&#45;&gt;Node21 -->
<g id="edge28" class="edge">
<title>Node3&#45;&gt;Node21</title>
<path fill="none" stroke="midnightblue" d="M720.98,-251.94C669.39,-242.57 584.32,-226.85 501.42,-210.16"/>
<polygon fill="midnightblue" stroke="midnightblue" points="502.08,-206.72 491.58,-208.17 500.69,-213.58 502.08,-206.72"/>
</g>
<!-- Node5 -->
<g id="node5" class="node">
<title>Node5</title>
<g id="a_node5"><a target="_blank" xlink:href="https://en.cppreference.com/w/cpp/header/stdexcept.html" xlink:title=" ">
<polygon fill="white" stroke="black" points="415,-118 415,-137 480,-137 480,-118 415,-118"/>
<text text-anchor="middle" x="447.5" y="-125" font-family="Helvetica,sans-Serif" font-size="10.00">stdexcept</text>
</a>
</g>
</g>
<!-- Node4&#45;&gt;Node5 -->
<g id="edge4" class="edge">
<title>Node4&#45;&gt;Node5</title>
<path fill="none" stroke="midnightblue" d="M305.28,-184.87C333.78,-173.57 383.93,-153.7 416.42,-140.82"/>
<polygon fill="midnightblue" stroke="midnightblue" points="417.89,-144 425.89,-137.06 415.31,-137.49 417.89,-144"/>
</g>
<!-- Node6 -->
<g id="node6" class="node">
<title>Node6</title>
<g id="a_node6"><a target="_blank" xlink:href="https://en.cppreference.com/w/cpp/header/string.html" xlink:title=" ">
<polygon fill="white" stroke="black" points="235.5,-56.5 235.5,-75.5 279.5,-75.5 279.5,-56.5 235.5,-56.5"/>
<text text-anchor="middle" x="257.5" y="-63.5" font-family="Helvetica,sans-Serif" font-size="10.00">string</text>
</a>
</g>
</g>
<!-- Node4&#45;&gt;Node6 -->
<g id="edge5" class="edge">
<title>Node4&#45;&gt;Node6</title>
<path fill="none" stroke="midnightblue" d="M274.41,-184.84C265.34,-175.51 251.97,-159.73 246.5,-143 240.24,-123.85 245.2,-100.82 250.32,-85.17"/>
<polygon fill="midnightblue" stroke="midnightblue" points="253.65,-86.25 253.75,-75.65 247.07,-83.87 253.65,-86.25"/>
</g>
<!-- Node7 -->
<g id="node7" class="node">
<title>Node7</title>
<g id="a_node7"><a xlink:href="pretty__print_8hpp.html" target="_top" xlink:title="Provides pretty printing for chars.">
<polygon fill="white" stroke="black" points="256,-112.5 256,-142.5 397,-142.5 397,-112.5 256,-112.5"/>
<text text-anchor="start" x="264" y="-130.5" font-family="Helvetica,sans-Serif" font-size="10.00">bio/meta/char_operations</text>
<text text-anchor="middle" x="326.5" y="-119.5" font-family="Helvetica,sans-Serif" font-size="10.00">/pretty_print.hpp</text>
</a>
</g>
</g>
<!-- Node4&#45;&gt;Node7 -->
<g id="edge6" class="edge">
<title>Node4&#45;&gt;Node7</title>
<path fill="none" stroke="midnightblue" d="M289.3,-184.73C295,-176.12 303.93,-162.61 311.62,-150.99"/>
<polygon fill="midnightblue" stroke="midnightblue" points="314.58,-152.86 317.18,-142.59 308.74,-149 314.58,-152.86"/>
</g>
<!-- Node12 -->
<g id="node12" class="node">
<title>Node12</title>
<g id="a_node12"><a target="_blank" xlink:href="https://en.cppreference.com/w/cpp/header/concepts.html" xlink:title=" ">
<polygon fill="white" stroke="black" points="1004.5,-118 1004.5,-137 1064.5,-137 1064.5,-118 1004.5,-118"/>
<text text-anchor="middle" x="1034.5" y="-125" font-family="Helvetica,sans-Serif" font-size="10.00">concepts</text>
</a>
</g>
</g>
<!-- Node4&#45;&gt;Node12 -->
<g id="edge12" class="edge">
<title>Node4&#45;&gt;Node12</title>
<path fill="none" stroke="midnightblue" d="M327.31,-184.94C339.92,-182.72 353.72,-180.53 366.5,-179 611.5,-149.73 674.89,-166.58 920.5,-143 944.91,-140.66 972.15,-137.22 993.88,-134.28"/>
<polygon fill="midnightblue" stroke="midnightblue" points="994.64,-137.71 1004.07,-132.89 993.69,-130.78 994.64,-137.71"/>
</g>
<!-- Node7&#45;&gt;Node6 -->
<g id="edge7" class="edge">
<title>Node7&#45;&gt;Node6</title>
<path fill="none" stroke="midnightblue" d="M310.15,-112.4C299.6,-103.31 285.9,-91.49 275.12,-82.19"/>
<polygon fill="midnightblue" stroke="midnightblue" points="277.4,-79.54 267.54,-75.66 272.83,-84.84 277.4,-79.54"/>
</g>
<!-- Node8 -->
<g id="node8" class="node">
<title>Node8</title>
<g id="a_node8"><a xlink:href="platform_8hpp.html" target="_top" xlink:title="Provides platform and dependency checks.">
<polygon fill="white" stroke="black" points="542.5,-56.5 542.5,-75.5 668.5,-75.5 668.5,-56.5 542.5,-56.5"/>
<text text-anchor="middle" x="605.5" y="-63.5" font-family="Helvetica,sans-Serif" font-size="10.00">bio/meta/platform.hpp</text>
</a>
</g>
</g>
<!-- Node7&#45;&gt;Node8 -->
<g id="edge8" class="edge">
<title>Node7&#45;&gt;Node8</title>
<path fill="none" stroke="midnightblue" d="M392.27,-112.47C442.29,-101.81 510.07,-87.35 555.67,-77.63"/>
<polygon fill="midnightblue" stroke="midnightblue" points="556.56,-81.02 565.61,-75.51 555.1,-74.17 556.56,-81.02"/>
</g>
<!-- Node9 -->
<g id="node9" class="node">
<title>Node9</title>
<g id="a_node9"><a target="_blank" xlink:href="https://en.cppreference.com/w/cpp/header/cinttypes.html" xlink:title=" ">
<polygon fill="white" stroke="black" points="498.5,-0.5 498.5,-19.5 560.5,-19.5 560.5,-0.5 498.5,-0.5"/>
<text text-anchor="middle" x="529.5" y="-7.5" font-family="Helvetica,sans-Serif" font-size="10.00">cinttypes</text>
</a>
</g>
</g>
<!-- Node8&#45;&gt;Node9 -->
<g id="edge9" class="edge">
<title>Node8&#45;&gt;Node9</title>
<path fill="none" stroke="midnightblue" d="M593.29,-56.32C581.72,-48.11 564.12,-35.6 550.34,-25.81"/>
<polygon fill="midnightblue" stroke="midnightblue" points="552.11,-22.77 541.93,-19.83 548.06,-28.48 552.11,-22.77"/>
</g>
<!-- Node10 -->
<g id="node10" class="node">
<title>Node10</title>
<g id="a_node10"><a target="_blank" xlink:href="https://en.cppreference.com/w/cpp/header/ciso646.html" xlink:title=" ">
<polygon fill="white" stroke="black" points="578.5,-0.5 578.5,-19.5 632.5,-19.5 632.5,-0.5 578.5,-0.5"/>
<text text-anchor="middle" x="605.5" y="-7.5" font-family="Helvetica,sans-Serif" font-size="10.00">ciso646</text>
</a>
</g>
</g>
<!-- Node8&#45;&gt;Node10 -->
<g id="edge10" class="edge">
<title>Node8&#45;&gt;Node10</title>
<path fill="none" stroke="midnightblue" d="M605.5,-56.08C605.5,-49.01 605.5,-38.86 605.5,-29.99"/>
<polygon fill="midnightblue" stroke="midnightblue" points="609,-29.75 605.5,-19.75 602,-29.75 609,-29.75"/>
</g>
<!-- Node11 -->
<g id="node11" class="node">
<title>Node11</title>
<g id="a_node11"><a target="_blank" xlink:href="https://en.cppreference.com/w/cpp/header/cstddef.html" xlink:title=" ">
<polygon fill="white" stroke="black" points="651,-0.5 651,-19.5 704,-19.5 704,-0.5 651,-0.5"/>
<text text-anchor="middle" x="677.5" y="-7.5" font-family="Helvetica,sans-Serif" font-size="10.00">cstddef</text>
</a>
</g>
</g>
<!-- Node8&#45;&gt;Node11 -->
<g id="edge11" class="edge">
<title>Node8&#45;&gt;Node11</title>
<path fill="none" stroke="midnightblue" d="M617.07,-56.32C627.92,-48.18 644.38,-35.84 657.38,-26.09"/>
<polygon fill="midnightblue" stroke="midnightblue" points="659.82,-28.63 665.72,-19.83 655.62,-23.03 659.82,-28.63"/>
</g>
<!-- Node13&#45;&gt;Node8 -->
<g id="edge15" class="edge">
<title>Node13&#45;&gt;Node8</title>
<path fill="none" stroke="midnightblue" d="M757.3,-184.81C729.96,-163.59 659.57,-108.96 625.11,-82.22"/>
<polygon fill="midnightblue" stroke="midnightblue" points="626.83,-79.12 616.78,-75.76 622.54,-84.65 626.83,-79.12"/>
</g>
<!-- Node13&#45;&gt;Node14 -->
<g id="edge14" class="edge">
<title>Node13&#45;&gt;Node14</title>
<path fill="none" stroke="midnightblue" d="M783.07,-184.73C801.12,-173.87 832.11,-155.22 853.42,-142.39"/>
<polygon fill="midnightblue" stroke="midnightblue" points="855.4,-145.28 862.17,-137.13 851.79,-139.29 855.4,-145.28"/>
</g>
<!-- Node15&#45;&gt;Node8 -->
<g id="edge18" class="edge">
<title>Node15&#45;&gt;Node8</title>
<path fill="none" stroke="midnightblue" d="M993.58,-179.21C979.64,-160.37 952.36,-127.75 920.5,-112 879.33,-91.65 758.74,-78.75 679.28,-72.21"/>
<polygon fill="midnightblue" stroke="midnightblue" points="679.08,-68.68 668.83,-71.36 678.52,-75.66 679.08,-68.68"/>
</g>
<!-- Node15&#45;&gt;Node12 -->
<g id="edge19" class="edge">
<title>Node15&#45;&gt;Node12</title>
<path fill="none" stroke="midnightblue" d="M1010.23,-179.4C1014.82,-169.76 1020.95,-156.91 1025.9,-146.54"/>
<polygon fill="midnightblue" stroke="midnightblue" points="1029.21,-147.73 1030.35,-137.19 1022.89,-144.71 1029.21,-147.73"/>
</g>
<!-- Node15&#45;&gt;Node14 -->
<g id="edge17" class="edge">
<title>Node15&#45;&gt;Node14</title>
<path fill="none" stroke="midnightblue" d="M975.94,-179.4C954.05,-168.19 923.67,-152.64 902.26,-141.69"/>
<polygon fill="midnightblue" stroke="midnightblue" points="903.62,-138.45 893.12,-137.01 900.43,-144.68 903.62,-138.45"/>
</g>
<!-- Node16&#45;&gt;Node8 -->
<g id="edge21" class="edge">
<title>Node16&#45;&gt;Node8</title>
<path fill="none" stroke="midnightblue" d="M593.05,-179.48C595.57,-156.72 600.55,-111.7 603.39,-86.06"/>
<polygon fill="midnightblue" stroke="midnightblue" points="606.91,-86.11 604.53,-75.79 599.95,-85.34 606.91,-86.11"/>
</g>
<!-- Node17&#45;&gt;Node6 -->
<g id="edge25" class="edge">
<title>Node17&#45;&gt;Node6</title>
<path fill="none" stroke="midnightblue" d="M168.99,-112.4C187.93,-102.68 212.94,-89.86 231.54,-80.31"/>
<polygon fill="midnightblue" stroke="midnightblue" points="233.32,-83.34 240.62,-75.66 230.13,-77.11 233.32,-83.34"/>
</g>
<!-- Node17&#45;&gt;Node8 -->
<g id="edge27" class="edge">
<title>Node17&#45;&gt;Node8</title>
<path fill="none" stroke="midnightblue" d="M199.52,-118.35C214.8,-116.25 231.27,-114.01 246.5,-112 345.38,-98.98 459.71,-84.8 532.28,-75.91"/>
<polygon fill="midnightblue" stroke="midnightblue" points="532.74,-79.38 542.24,-74.69 531.89,-72.43 532.74,-79.38"/>
</g>
<!-- Node18 -->
<g id="node18" class="node">
<title>Node18</title>
<g id="a_node18"><a target="_blank" xlink:href="https://en.cppreference.com/w/cpp/header/functional.html" xlink:title=" ">
<polygon fill="white" stroke="black" points="0,-56.5 0,-75.5 65,-75.5 65,-56.5 0,-56.5"/>
<text text-anchor="middle" x="32.5" y="-63.5" font-family="Helvetica,sans-Serif" font-size="10.00">functional</text>
</a>
</g>
</g>
<!-- Node17&#45;&gt;Node18 -->
<g id="edge23" class="edge">
<title>Node17&#45;&gt;Node18</title>
<path fill="none" stroke="midnightblue" d="M115.67,-112.4C98.03,-102.77 74.8,-90.09 57.37,-80.58"/>
<polygon fill="midnightblue" stroke="midnightblue" points="58.81,-77.38 48.36,-75.66 55.46,-83.52 58.81,-77.38"/>
</g>
<!-- Node19 -->
<g id="node19" class="node">
<title>Node19</title>
<g id="a_node19"><a target="_blank" xlink:href="https://en.cppreference.com/w/cpp/header/memory.html" xlink:title=" ">
<polygon fill="white" stroke="black" points="83.5,-56.5 83.5,-75.5 141.5,-75.5 141.5,-56.5 83.5,-56.5"/>
<text text-anchor="middle" x="112.5" y="-63.5" font-family="Helvetica,sans-Serif" font-size="10.00">memory</text>
</a>
</g>
</g>
<!-- Node17&#45;&gt;Node19 -->
<g id="edge24" class="edge">
<title>Node17&#45;&gt;Node19</title>
<path fill="none" stroke="midnightblue" d="M134.63,-112.4C130.59,-104.11 125.44,-93.55 121.13,-84.71"/>
<polygon fill="midnightblue" stroke="midnightblue" points="124.25,-83.11 116.72,-75.66 117.95,-86.18 124.25,-83.11"/>
</g>
<!-- Node20 -->
<g id="node20" class="node">
<title>Node20</title>
<g id="a_node20"><a target="_blank" xlink:href="https://en.cppreference.com/w/cpp/header/typeinfo.html" xlink:title=" ">
<polygon fill="white" stroke="black" points="160,-56.5 160,-75.5 217,-75.5 217,-56.5 160,-56.5"/>
<text text-anchor="middle" x="188.5" y="-63.5" font-family="Helvetica,sans-Serif" font-size="10.00">typeinfo</text>
</a>
</g>
</g>
<!-- Node17&#45;&gt;Node20 -->
<g id="edge26" class="edge">
<title>Node17&#45;&gt;Node20</title>
<path fill="none" stroke="midnightblue" d="M152.64,-112.4C159.47,-103.75 168.24,-92.64 175.41,-83.58"/>
<polygon fill="midnightblue" stroke="midnightblue" points="178.21,-85.67 181.66,-75.66 172.72,-81.34 178.21,-85.67"/>
</g>
<!-- Node21&#45;&gt;Node8 -->
<g id="edge31" class="edge">
<title>Node21&#45;&gt;Node8</title>
<path fill="none" stroke="midnightblue" d="M478.85,-179.4C501,-171.09 527.19,-159.02 547.5,-143 568.2,-126.67 585.54,-101.35 595.72,-84.48"/>
<polygon fill="midnightblue" stroke="midnightblue" points="598.85,-86.06 600.86,-75.65 592.8,-82.53 598.85,-86.06"/>
</g>
<!-- Node21&#45;&gt;Node14 -->
<g id="edge30" class="edge">
<title>Node21&#45;&gt;Node14</title>
<path fill="none" stroke="midnightblue" d="M491.55,-180.64C494.57,-180.06 497.57,-179.51 500.5,-179 619.44,-158.18 760.87,-141.28 831.57,-133.36"/>
<polygon fill="midnightblue" stroke="midnightblue" points="832.33,-136.8 841.89,-132.22 831.56,-129.84 832.33,-136.8"/>
</g>
<!-- Node22 -->
<g id="node22" class="node">
<title>Node22</title>
<g id="a_node22"><a target="_blank" xlink:href="https://en.cppreference.com/w/cpp/header/tuple.html" xlink:title=" ">
<polygon fill="white" stroke="black" points="498,-118 498,-137 539,-137 539,-118 498,-118"/>
<text text-anchor="middle" x="518.5" y="-125" font-family="Helvetica,sans-Serif" font-size="10.00">tuple</text>
</a>
</g>
</g>
<!-- Node21&#45;&gt;Node22 -->
<g id="edge29" class="edge">
<title>Node21&#45;&gt;Node22</title>
<path fill="none" stroke="midnightblue" d="M451.94,-179.4C465.85,-168.76 484.89,-154.2 499.04,-143.38"/>
<polygon fill="midnightblue" stroke="midnightblue" points="501.31,-146.05 507.13,-137.19 497.06,-140.49 501.31,-146.05"/>
</g>
<!-- Node23&#45;&gt;Node3 -->
<g id="edge35" class="edge">
<title>Node23&#45;&gt;Node3</title>
<path fill="none" stroke="midnightblue" d="M1047.75,-315.73C983.66,-303.51 884.39,-284.59 823.09,-272.91"/>
<polygon fill="midnightblue" stroke="midnightblue" points="823.7,-269.46 813.22,-271.02 822.39,-276.33 823.7,-269.46"/>
</g>
<!-- Node23&#45;&gt;Node12 -->
<g id="edge41" class="edge">
<title>Node23&#45;&gt;Node12</title>
<path fill="none" stroke="midnightblue" d="M1128.7,-313.45C1139.38,-304.4 1151.67,-291.6 1157.5,-277 1174.06,-235.54 1164.67,-212.79 1135.5,-179 1130.29,-172.96 1090.85,-154.18 1062.84,-141.3"/>
<polygon fill="midnightblue" stroke="midnightblue" points="1064.03,-138 1053.48,-137.03 1061.12,-144.37 1064.03,-138"/>
</g>
<!-- Node23&#45;&gt;Node14 -->
<g id="edge42" class="edge">
<title>Node23&#45;&gt;Node14</title>
<path fill="none" stroke="midnightblue" d="M1047.95,-324.5C1009.21,-319.51 960.63,-307.12 928.5,-277 891.22,-242.06 880.66,-178.91 877.67,-147.42"/>
<polygon fill="midnightblue" stroke="midnightblue" points="881.15,-147.06 876.88,-137.36 874.18,-147.61 881.15,-147.06"/>
</g>
<!-- Node24 -->
<g id="node24" class="node">
<title>Node24</title>
<g id="a_node24"><a target="_blank" xlink:href="https://en.cppreference.com/w/cpp/header/cassert.html" xlink:title=" ">
<polygon fill="white" stroke="black" points="1096.5,-252 1096.5,-271 1148.5,-271 1148.5,-252 1096.5,-252"/>
<text text-anchor="middle" x="1122.5" y="-259" font-family="Helvetica,sans-Serif" font-size="10.00">cassert</text>
</a>
</g>
</g>
<!-- Node23&#45;&gt;Node24 -->
<g id="edge34" class="edge">
<title>Node23&#45;&gt;Node24</title>
<path fill="none" stroke="midnightblue" d="M1112.32,-313.4C1114.21,-303.96 1116.71,-291.45 1118.76,-281.19"/>
<polygon fill="midnightblue" stroke="midnightblue" points="1122.23,-281.69 1120.76,-271.19 1115.37,-280.31 1122.23,-281.69"/>
</g>
<!-- Node25 -->
<g id="node25" class="node">
<title>Node25</title>
<g id="a_node25"><a xlink:href="int__types_8hpp.html" target="_top" xlink:title="Provides metaprogramming utilities for integer types.">
<polygon fill="white" stroke="black" points="1183,-179.5 1183,-209.5 1290,-209.5 1290,-179.5 1183,-179.5"/>
<text text-anchor="start" x="1191" y="-197.5" font-family="Helvetica,sans-Serif" font-size="10.00">bio/meta/detail/int</text>
<text text-anchor="middle" x="1236.5" y="-186.5" font-family="Helvetica,sans-Serif" font-size="10.00">_types.hpp</text>
</a>
</g>
</g>
<!-- Node23&#45;&gt;Node25 -->
<g id="edge36" class="edge">
<title>Node23&#45;&gt;Node25</title>
<path fill="none" stroke="midnightblue" d="M1139.78,-313.33C1156.21,-304.55 1176.06,-292.08 1190.5,-277 1206.65,-260.12 1219.17,-236.5 1227.04,-219.02"/>
<polygon fill="midnightblue" stroke="midnightblue" points="1230.39,-220.11 1231.13,-209.55 1223.96,-217.34 1230.39,-220.11"/>
</g>
<!-- Node25&#45;&gt;Node8 -->
<g id="edge40" class="edge">
<title>Node25&#45;&gt;Node8</title>
<path fill="none" stroke="midnightblue" d="M1214.89,-179.42C1184.64,-160.5 1127.32,-127.46 1073.5,-112 1001.42,-91.29 791.67,-77.13 679.04,-70.78"/>
<polygon fill="midnightblue" stroke="midnightblue" points="678.96,-67.27 668.79,-70.21 678.57,-74.26 678.96,-67.27"/>
</g>
<!-- Node25&#45;&gt;Node12 -->
<g id="edge37" class="edge">
<title>Node25&#45;&gt;Node12</title>
<path fill="none" stroke="midnightblue" d="M1192.67,-179.4C1156.13,-167.64 1104.7,-151.09 1070.52,-140.09"/>
<polygon fill="midnightblue" stroke="midnightblue" points="1071.53,-136.74 1060.94,-137.01 1069.38,-143.4 1071.53,-136.74"/>
</g>
<!-- Node25&#45;&gt;Node14 -->
<g id="edge39" class="edge">
<title>Node25&#45;&gt;Node14</title>
<path fill="none" stroke="midnightblue" d="M1182.99,-183.84C1111.97,-171.02 987.82,-148.6 921.42,-136.61"/>
<polygon fill="midnightblue" stroke="midnightblue" points="921.74,-133.11 911.27,-134.78 920.49,-140 921.74,-133.11"/>
</g>
<!-- Node26 -->
<g id="node26" class="node">
<title>Node26</title>
<g id="a_node26"><a target="_blank" xlink:href="https://en.cppreference.com/w/cpp/header/limits.html" xlink:title=" ">
<polygon fill="white" stroke="black" points="1214.5,-118 1214.5,-137 1258.5,-137 1258.5,-118 1214.5,-118"/>
<text text-anchor="middle" x="1236.5" y="-125" font-family="Helvetica,sans-Serif" font-size="10.00">limits</text>
</a>
</g>
</g>
<!-- Node25&#45;&gt;Node26 -->
<g id="edge38" class="edge">
<title>Node25&#45;&gt;Node26</title>
<path fill="none" stroke="midnightblue" d="M1236.5,-179.4C1236.5,-170.06 1236.5,-157.71 1236.5,-147.52"/>
<polygon fill="midnightblue" stroke="midnightblue" points="1240,-147.19 1236.5,-137.19 1233,-147.19 1240,-147.19"/>
</g>
<!-- Node27&#45;&gt;Node15 -->
<g id="edge45" class="edge">
<title>Node27&#45;&gt;Node15</title>
<path fill="none" stroke="midnightblue" d="M1006.63,-246.4C1006.15,-238.56 1005.54,-228.6 1004.98,-219.57"/>
<polygon fill="midnightblue" stroke="midnightblue" points="1008.47,-219.34 1004.37,-209.58 1001.49,-219.77 1008.47,-219.34"/>
</g>
<!-- Node27&#45;&gt;Node25 -->
<g id="edge46" class="edge">
<title>Node27&#45;&gt;Node25</title>
<path fill="none" stroke="midnightblue" d="M1056.91,-246.48C1092.15,-236.47 1139.72,-222.97 1177.04,-212.38"/>
<polygon fill="midnightblue" stroke="midnightblue" points="1178.12,-215.71 1186.79,-209.61 1176.21,-208.97 1178.12,-215.71"/>
</g>
<!-- Node28 -->
<g id="node28" class="node">
<title>Node28</title>
<g id="a_node28"><a target="_blank" xlink:href="https://en.cppreference.com/w/cpp/header/array.html" xlink:title=" ">
<polygon fill="white" stroke="black" points="1084.5,-185 1084.5,-204 1126.5,-204 1126.5,-185 1084.5,-185"/>
<text text-anchor="middle" x="1105.5" y="-192" font-family="Helvetica,sans-Serif" font-size="10.00">array</text>
</a>
</g>
</g>
<!-- Node27&#45;&gt;Node28 -->
<g id="edge44" class="edge">
<title>Node27&#45;&gt;Node28</title>
<path fill="none" stroke="midnightblue" d="M1028.76,-246.4C1045.2,-235.5 1067.84,-220.48 1084.27,-209.58"/>
<polygon fill="midnightblue" stroke="midnightblue" points="1086.28,-212.45 1092.67,-204.01 1082.41,-206.62 1086.28,-212.45"/>
</g>
</g>
</svg>
        <g id="navigator" transform="translate(0 0)" fill="#404254">
                <rect fill="#f2f5e9" fill-opacity="0.5" stroke="#606060" stroke-width=".5" x="0" y="0" width="60" height="60"/>
                <use id="zoomplus" xlink:href="#zoomPlus" x="17" y="9" onmousedown="handleZoom(evt,'in')"/>
                <use id="zoomminus" xlink:href="#zoomMin" x="42" y="9" onmousedown="handleZoom(evt,'out')"/>
                <use id="reset" xlink:href="#resetDef" x="30" y="36" onmousedown="handleReset()"/>
                <g id="arrowUp" xlink:href="#dirArrow" transform="translate(30 24)" onmousedown="handlePan(0,-1)">
                  <use xlink:href="#rim" fill="#404040">
                        <set attributeName="fill" to="#808080" begin="arrowUp.mouseover" end="arrowUp.mouseout"/>
                  </use>
                  <path fill="none" stroke="white" stroke-width="1.5" d="M0,-3.0v7 M-2.5,-0.5L0,-3.0L2.5,-0.5"/>
                </g>
                <g id="arrowRight" xlink:href="#dirArrow" transform="rotate(90) translate(36 -43)" onmousedown="handlePan(1,0)">
                  <use xlink:href="#rim" fill="#404040">
                        <set attributeName="fill" to="#808080" begin="arrowRight.mouseover" end="arrowRight.mouseout"/>
                  </use>
                  <path fill="none" stroke="white" stroke-width="1.5" d="M0,-3.0v7 M-2.5,-0.5L0,-3.0L2.5,-0.5"/>
                </g>
                <g id="arrowDown" xlink:href="#dirArrow" transform="rotate(180) translate(-30 -48)" onmousedown="handlePan(0,1)">
                  <use xlink:href="#rim" fill="#404040">
                        <set attributeName="fill" to="#808080" begin="arrowDown.mouseover" end="arrowDown.mouseout"/>
                  </use>
                  <path fill="none" stroke="white" stroke-width="1.5" d="M0,-3.0v7 M-2.5,-0.5L0,-3.0L2.5,-0.5"/>
                </g>
                <g id="arrowLeft" xlink:href="#dirArrow" transform="rotate(270) translate(-36 17)" onmousedown="handlePan(-1,0)">
                  <use xlink:href="#rim" fill="#404040">
                        <set attributeName="fill" to="#808080" begin="arrowLeft.mouseover" end="arrowLeft.mouseout"/>
                  </use>
                  <path fill="none" stroke="white" stroke-width="1.5" d="M0,-3.0v7 M-2.5,-0.5L0,-3.0L2.5,-0.5"/>
                </g>
        </g>
        <svg viewBox="0 0 15 15" width="100%" height="30px" preserveAspectRatio="xMaxYMin meet">
         <g id="arrow_out" transform="scale(0.3 0.3)">
          <a xlink:href="dssp9_8hpp__incl_org.svg" target="_base">
           <rect id="button" ry="5" rx="5" y="6" x="6" height="38" width="38"
                fill="#f2f5e9" fill-opacity="0.5" stroke="#606060" stroke-width="1.0"/>
           <path id="arrow"
             d="M 11.500037,31.436501 C 11.940474,20.09759 22.043105,11.32322 32.158766,21.979434 L 37.068811,17.246167 C 37.068811,17.246167 37.088388,32 37.088388,32 L 22.160133,31.978069 C 22.160133,31.978069 26.997745,27.140456 26.997745,27.140456 C 18.528582,18.264221 13.291696,25.230495 11.500037,31.436501 z"
             style="fill:#404040;"/>
          </a>
         </g>
        </svg>
</svg>
