<?xml version="1.0" encoding="UTF-8" standalone="no"?>
<!DOCTYPE svg PUBLIC "-//W3C//DTD SVG 1.1//EN"
 "http://www.w3.org/Graphics/SVG/1.1/DTD/svg11.dtd">
<!-- Generated by graphviz version 2.43.0 (0)
 -->
<!-- Title: bio/meta/detail/empty_type.hpp Pages: 1 -->
<svg width="548pt" height="564pt"
 viewBox="0.00 0.00 547.50 564.00" xmlns="http://www.w3.org/2000/svg" xmlns:xlink="http://www.w3.org/1999/xlink">
<g id="graph0" class="graph" transform="scale(1 1) rotate(0) translate(4 560)">
<title>bio/meta/detail/empty_type.hpp</title>
<polygon fill="white" stroke="transparent" points="-4,4 -4,-560 543.5,-560 543.5,4 -4,4"/>
<!-- Node1 -->
<g id="node1" class="node">
<title>Node1</title>
<g id="a_node1"><a xlink:title="Provides bio::detail::empty_type.">
<polygon fill="#bfbfbf" stroke="black" points="10,-525.5 10,-555.5 135,-555.5 135,-525.5 10,-525.5"/>
<text text-anchor="start" x="18" y="-543.5" font-family="Helvetica,sans-Serif" font-size="10.00">bio/meta/detail/empty</text>
<text text-anchor="middle" x="72.5" y="-532.5" font-family="Helvetica,sans-Serif" font-size="10.00">_type.hpp</text>
</a>
</g>
</g>
<!-- Node2 -->
<g id="node2" class="node">
<title>Node2</title>
<g id="a_node2"><a xlink:href="inherited__iterator__base_8hpp.html" target="_top" xlink:title="Provides the bio::detail::inherited_iterator_base template.">
<polygon fill="white" stroke="black" points="0,-458.5 0,-488.5 145,-488.5 145,-458.5 0,-458.5"/>
<text text-anchor="start" x="8" y="-476.5" font-family="Helvetica,sans-Serif" font-size="10.00">bio/ranges/detail/inherited</text>
<text text-anchor="middle" x="72.5" y="-465.5" font-family="Helvetica,sans-Serif" font-size="10.00">_iterator_base.hpp</text>
</a>
</g>
</g>
<!-- Node1&#45;&gt;Node2 -->
<g id="edge1" class="edge">
<title>Node1&#45;&gt;Node2</title>
<path fill="none" stroke="midnightblue" d="M72.5,-515.11C72.5,-506.15 72.5,-496.32 72.5,-488.58"/>
<polygon fill="midnightblue" stroke="midnightblue" points="69,-515.4 72.5,-525.4 76,-515.4 69,-515.4"/>
</g>
<!-- Node3 -->
<g id="node3" class="node">
<title>Node3</title>
<g id="a_node3"><a xlink:href="take_8hpp.html" target="_top" xlink:title="Provides bio::views::take.">
<polygon fill="white" stroke="black" points="0.5,-402.5 0.5,-421.5 144.5,-421.5 144.5,-402.5 0.5,-402.5"/>
<text text-anchor="middle" x="72.5" y="-409.5" font-family="Helvetica,sans-Serif" font-size="10.00">bio/ranges/views/take.hpp</text>
</a>
</g>
</g>
<!-- Node2&#45;&gt;Node3 -->
<g id="edge2" class="edge">
<title>Node2&#45;&gt;Node3</title>
<path fill="none" stroke="midnightblue" d="M72.5,-448.29C72.5,-438.86 72.5,-428.65 72.5,-421.66"/>
<polygon fill="midnightblue" stroke="midnightblue" points="69,-448.4 72.5,-458.4 76,-448.4 69,-448.4"/>
</g>
<!-- Node4 -->
<g id="node4" class="node">
<title>Node4</title>
<g id="a_node4"><a xlink:href="take__exactly_8hpp.html" target="_top" xlink:title="Provides bio::views::take_exactly and bio::views::take_exactly_or_throw.">
<polygon fill="white" stroke="black" points="11,-335.5 11,-365.5 134,-365.5 134,-335.5 11,-335.5"/>
<text text-anchor="start" x="19" y="-353.5" font-family="Helvetica,sans-Serif" font-size="10.00">bio/ranges/views/take</text>
<text text-anchor="middle" x="72.5" y="-342.5" font-family="Helvetica,sans-Serif" font-size="10.00">_exactly.hpp</text>
</a>
</g>
</g>
<!-- Node3&#45;&gt;Node4 -->
<g id="edge3" class="edge">
<title>Node3&#45;&gt;Node4</title>
<path fill="none" stroke="midnightblue" d="M72.5,-392.23C72.5,-383.59 72.5,-373.5 72.5,-365.52"/>
<polygon fill="midnightblue" stroke="midnightblue" points="69,-392.48 72.5,-402.48 76,-392.48 69,-392.48"/>
</g>
<!-- Node5 -->
<g id="node5" class="node">
<title>Node5</title>
<g id="a_node5"><a xlink:href="ranges_2views_2all_8hpp.html" target="_top" xlink:title="Meta&#45;header for the views submodule .">
<polygon fill="white" stroke="black" points="123,-6 123,-25 258,-25 258,-6 123,-6"/>
<text text-anchor="middle" x="190.5" y="-13" font-family="Helvetica,sans-Serif" font-size="10.00">bio/ranges/views/all.hpp</text>
</a>
</g>
</g>
<!-- Node4&#45;&gt;Node5 -->
<g id="edge4" class="edge">
<title>Node4&#45;&gt;Node5</title>
<path fill="none" stroke="midnightblue" d="M56.52,-326.74C40.28,-301.34 17.5,-258.41 17.5,-217.5 17.5,-217.5 17.5,-217.5 17.5,-148.5 17.5,-106.24 34.4,-94.49 66.5,-67 91.4,-45.68 126.48,-32.53 152.98,-25.01"/>
<polygon fill="midnightblue" stroke="midnightblue" points="53.72,-328.85 62.15,-335.27 59.57,-325 53.72,-328.85"/>
</g>
<!-- Node6 -->
<g id="node6" class="node">
<title>Node6</title>
<g id="a_node6"><a xlink:href="repeat__n_8hpp.html" target="_top" xlink:title="Provides bio::views::repeat_n.">
<polygon fill="white" stroke="black" points="139.5,-268.5 139.5,-298.5 273.5,-298.5 273.5,-268.5 139.5,-268.5"/>
<text text-anchor="start" x="147.5" y="-286.5" font-family="Helvetica,sans-Serif" font-size="10.00">bio/ranges/views/repeat</text>
<text text-anchor="middle" x="206.5" y="-275.5" font-family="Helvetica,sans-Serif" font-size="10.00">_n.hpp</text>
</a>
</g>
</g>
<!-- Node4&#45;&gt;Node6 -->
<g id="edge5" class="edge">
<title>Node4&#45;&gt;Node6</title>
<path fill="none" stroke="midnightblue" d="M110.65,-330.99C131.89,-320.69 157.91,-308.07 177.48,-298.58"/>
<polygon fill="midnightblue" stroke="midnightblue" points="109.05,-327.88 101.58,-335.4 112.1,-334.18 109.05,-327.88"/>
</g>
<!-- Node7 -->
<g id="node7" class="node">
<title>Node7</title>
<g id="a_node7"><a xlink:href="concatenated__sequences_8hpp.html" target="_top" xlink:title="Provides bio::concatenated_sequences.">
<polygon fill="white" stroke="black" points="45.5,-201.5 45.5,-231.5 209.5,-231.5 209.5,-201.5 45.5,-201.5"/>
<text text-anchor="start" x="53.5" y="-219.5" font-family="Helvetica,sans-Serif" font-size="10.00">bio/ranges/container</text>
<text text-anchor="middle" x="127.5" y="-208.5" font-family="Helvetica,sans-Serif" font-size="10.00">/concatenated_sequences.hpp</text>
</a>
</g>
</g>
<!-- Node6&#45;&gt;Node7 -->
<g id="edge6" class="edge">
<title>Node6&#45;&gt;Node7</title>
<path fill="none" stroke="midnightblue" d="M181.44,-261.88C169.44,-252.01 155.37,-240.43 144.61,-231.58"/>
<polygon fill="midnightblue" stroke="midnightblue" points="179.41,-264.75 189.36,-268.4 183.86,-259.34 179.41,-264.75"/>
</g>
<!-- Node10 -->
<g id="node10" class="node">
<title>Node10</title>
<g id="a_node10"><a xlink:href="dynamic__bitset_8hpp.html" target="_top" xlink:title="A constexpr bitset implementation with dynamic size at compile time.">
<polygon fill="white" stroke="black" points="227.5,-201.5 227.5,-231.5 343.5,-231.5 343.5,-201.5 227.5,-201.5"/>
<text text-anchor="start" x="235.5" y="-219.5" font-family="Helvetica,sans-Serif" font-size="10.00">bio/ranges/container</text>
<text text-anchor="middle" x="285.5" y="-208.5" font-family="Helvetica,sans-Serif" font-size="10.00">/dynamic_bitset.hpp</text>
</a>
</g>
</g>
<!-- Node6&#45;&gt;Node10 -->
<g id="edge9" class="edge">
<title>Node6&#45;&gt;Node10</title>
<path fill="none" stroke="midnightblue" d="M231.56,-261.88C243.56,-252.01 257.63,-240.43 268.39,-231.58"/>
<polygon fill="midnightblue" stroke="midnightblue" points="229.14,-259.34 223.64,-268.4 233.59,-264.75 229.14,-259.34"/>
</g>
<!-- Node11 -->
<g id="node11" class="node">
<title>Node11</title>
<g id="a_node11"><a xlink:href="small__vector_8hpp.html" target="_top" xlink:title="A constexpr vector implementation with dynamic size at compile time.">
<polygon fill="white" stroke="black" points="361.5,-201.5 361.5,-231.5 477.5,-231.5 477.5,-201.5 361.5,-201.5"/>
<text text-anchor="start" x="369.5" y="-219.5" font-family="Helvetica,sans-Serif" font-size="10.00">bio/ranges/container</text>
<text text-anchor="middle" x="419.5" y="-208.5" font-family="Helvetica,sans-Serif" font-size="10.00">/small_vector.hpp</text>
</a>
</g>
</g>
<!-- Node6&#45;&gt;Node11 -->
<g id="edge10" class="edge">
<title>Node6&#45;&gt;Node11</title>
<path fill="none" stroke="midnightblue" d="M262.39,-265.44C296.92,-254.91 340.69,-241.55 373.26,-231.61"/>
<polygon fill="midnightblue" stroke="midnightblue" points="261,-262.21 252.46,-268.48 263.04,-268.9 261,-262.21"/>
</g>
<!-- Node8 -->
<g id="node8" class="node">
<title>Node8</title>
<g id="a_node8"><a xlink:href="ranges_2container_2all_8hpp.html" target="_top" xlink:title="Meta&#45;header for the container submodule .">
<polygon fill="white" stroke="black" points="69.5,-134.5 69.5,-164.5 185.5,-164.5 185.5,-134.5 69.5,-134.5"/>
<text text-anchor="start" x="77.5" y="-152.5" font-family="Helvetica,sans-Serif" font-size="10.00">bio/ranges/container</text>
<text text-anchor="middle" x="127.5" y="-141.5" font-family="Helvetica,sans-Serif" font-size="10.00">/all.hpp</text>
</a>
</g>
</g>
<!-- Node7&#45;&gt;Node8 -->
<g id="edge7" class="edge">
<title>Node7&#45;&gt;Node8</title>
<path fill="none" stroke="midnightblue" d="M127.5,-191.11C127.5,-182.15 127.5,-172.32 127.5,-164.58"/>
<polygon fill="midnightblue" stroke="midnightblue" points="124,-191.4 127.5,-201.4 131,-191.4 124,-191.4"/>
</g>
<!-- Node9 -->
<g id="node9" class="node">
<title>Node9</title>
<g id="a_node9"><a xlink:href="ranges_2all_8hpp.html" target="_top" xlink:title="Meta&#45;header for the range module .">
<polygon fill="white" stroke="black" points="75.5,-73 75.5,-92 179.5,-92 179.5,-73 75.5,-73"/>
<text text-anchor="middle" x="127.5" y="-80" font-family="Helvetica,sans-Serif" font-size="10.00">bio/ranges/all.hpp</text>
</a>
</g>
</g>
<!-- Node8&#45;&gt;Node9 -->
<g id="edge8" class="edge">
<title>Node8&#45;&gt;Node9</title>
<path fill="none" stroke="midnightblue" d="M127.5,-124.25C127.5,-113.02 127.5,-100.38 127.5,-92.19"/>
<polygon fill="midnightblue" stroke="midnightblue" points="124,-124.4 127.5,-134.4 131,-124.4 124,-124.4"/>
</g>
<!-- Node12 -->
<g id="node12" class="node">
<title>Node12</title>
<g id="a_node12"><a xlink:href="small__string_8hpp.html" target="_top" xlink:title="A constexpr string implementation to manipulate string literals at compile time.">
<polygon fill="white" stroke="black" points="357.5,-134.5 357.5,-164.5 473.5,-164.5 473.5,-134.5 357.5,-134.5"/>
<text text-anchor="start" x="365.5" y="-152.5" font-family="Helvetica,sans-Serif" font-size="10.00">bio/ranges/container</text>
<text text-anchor="middle" x="415.5" y="-141.5" font-family="Helvetica,sans-Serif" font-size="10.00">/small_string.hpp</text>
</a>
</g>
</g>
<!-- Node11&#45;&gt;Node12 -->
<g id="edge11" class="edge">
<title>Node11&#45;&gt;Node12</title>
<path fill="none" stroke="midnightblue" d="M418.02,-191.4C417.46,-182.37 416.85,-172.41 416.37,-164.58"/>
<polygon fill="midnightblue" stroke="midnightblue" points="414.52,-191.63 418.63,-201.4 421.51,-191.2 414.52,-191.63"/>
</g>
<!-- Node13 -->
<g id="node13" class="node">
<title>Node13</title>
<g id="a_node13"><a xlink:href="cigar_8hpp.html" target="_top" xlink:title="Provides the bio::cigar alphabet.">
<polygon fill="white" stroke="black" points="205.5,-67.5 205.5,-97.5 309.5,-97.5 309.5,-67.5 205.5,-67.5"/>
<text text-anchor="start" x="213.5" y="-85.5" font-family="Helvetica,sans-Serif" font-size="10.00">bio/alphabet/cigar</text>
<text text-anchor="middle" x="257.5" y="-74.5" font-family="Helvetica,sans-Serif" font-size="10.00">/cigar.hpp</text>
</a>
</g>
</g>
<!-- Node12&#45;&gt;Node13 -->
<g id="edge12" class="edge">
<title>Node12&#45;&gt;Node13</title>
<path fill="none" stroke="midnightblue" d="M371.85,-130.54C346.57,-120.14 315.2,-107.24 291.72,-97.58"/>
<polygon fill="midnightblue" stroke="midnightblue" points="370.64,-133.83 381.22,-134.4 373.3,-127.35 370.64,-133.83"/>
</g>
<!-- Node14 -->
<g id="node14" class="node">
<title>Node14</title>
<g id="a_node14"><a xlink:href="translate_8hpp.html" target="_top" xlink:title="Provides bio::views::translate and bio::views::translate_single.">
<polygon fill="white" stroke="black" points="328,-73 328,-92 495,-92 495,-73 328,-73"/>
<text text-anchor="middle" x="411.5" y="-80" font-family="Helvetica,sans-Serif" font-size="10.00">bio/ranges/views/translate.hpp</text>
</a>
</g>
</g>
<!-- Node12&#45;&gt;Node14 -->
<g id="edge13" class="edge">
<title>Node12&#45;&gt;Node14</title>
<path fill="none" stroke="midnightblue" d="M414.01,-124.25C413.32,-113.02 412.54,-100.38 412.04,-92.19"/>
<polygon fill="midnightblue" stroke="midnightblue" points="410.52,-124.63 414.63,-134.4 417.51,-124.2 410.52,-124.63"/>
</g>
<!-- Node15 -->
<g id="node15" class="node">
<title>Node15</title>
<g id="a_node15"><a xlink:href="translate__join_8hpp.html" target="_top" xlink:title="Provides bio::views::translate_join.">
<polygon fill="white" stroke="black" points="393.5,-0.5 393.5,-30.5 539.5,-30.5 539.5,-0.5 393.5,-0.5"/>
<text text-anchor="start" x="401.5" y="-18.5" font-family="Helvetica,sans-Serif" font-size="10.00">bio/ranges/views/translate</text>
<text text-anchor="middle" x="466.5" y="-7.5" font-family="Helvetica,sans-Serif" font-size="10.00">_join.hpp</text>
</a>
</g>
</g>
<!-- Node12&#45;&gt;Node15 -->
<g id="edge16" class="edge">
<title>Node12&#45;&gt;Node15</title>
<path fill="none" stroke="midnightblue" d="M468.98,-129.82C483,-122.21 496.43,-111.85 504.5,-98 517.7,-75.34 497.21,-47.32 481.56,-30.74"/>
<polygon fill="midnightblue" stroke="midnightblue" points="467.11,-126.84 459.73,-134.44 470.24,-133.1 467.11,-126.84"/>
</g>
<!-- Node14&#45;&gt;Node5 -->
<g id="edge14" class="edge">
<title>Node14&#45;&gt;Node5</title>
<path fill="none" stroke="midnightblue" d="M372.43,-70.01C328.69,-57.15 258.82,-36.59 219.62,-25.06"/>
<polygon fill="midnightblue" stroke="midnightblue" points="371.57,-73.4 382.15,-72.87 373.55,-66.69 371.57,-73.4"/>
</g>
<!-- Node14&#45;&gt;Node15 -->
<g id="edge15" class="edge">
<title>Node14&#45;&gt;Node15</title>
<path fill="none" stroke="midnightblue" d="M425.47,-64.99C434.46,-54.36 446.02,-40.7 454.58,-30.59"/>
<polygon fill="midnightblue" stroke="midnightblue" points="422.71,-62.84 418.92,-72.73 428.05,-67.36 422.71,-62.84"/>
</g>
</g>
</svg>
