<?xml version="1.0" encoding="UTF-8" standalone="no"?>
<!DOCTYPE svg PUBLIC "-//W3C//DTD SVG 1.1//EN"
 "http://www.w3.org/Graphics/SVG/1.1/DTD/svg11.dtd">
<!-- Generated by graphviz version 2.43.0 (0)
 -->
<!-- Title: bio/meta/detail/empty_type.hpp Pages: 1 -->
<!--zoomable 575 -->
<svg id="main" version="1.1" xmlns="http://www.w3.org/2000/svg" xmlns:xlink="http://www.w3.org/1999/xlink" xml:space="preserve" onload="init(evt)">
<style type="text/css"><![CDATA[
.edge:hover path { stroke: red; }
.edge:hover polygon { stroke: red; fill: red; }
]]></style>
<script type="text/javascript"><![CDATA[
var edges = document.getElementsByTagName('g');
if (edges && edges.length) {
  for (var i=0;i<edges.length;i++) {
    if (edges[i].id.substr(0,4)=='edge') {
      edges[i].setAttribute('class','edge');
    }
  }
}
]]></script>
        <defs>
                <circle id="rim" cx="0" cy="0" r="7"/>
                <circle id="rim2" cx="0" cy="0" r="3.5"/>
                <g id="zoomPlus">
                        <use xlink:href="#rim" fill="#404040">
                                <set attributeName="fill" to="#808080" begin="zoomplus.mouseover" end="zoomplus.mouseout"/>
                        </use>
                        <path d="M-4,0h8M0,-4v8" fill="none" stroke="white" stroke-width="1.5" pointer-events="none"/>
                </g>
                <g id="zoomMin">
                        <use xlink:href="#rim" fill="#404040">
                                <set attributeName="fill" to="#808080" begin="zoomminus.mouseover" end="zoomminus.mouseout"/>
                        </use>
                        <path d="M-4,0h8" fill="none" stroke="white" stroke-width="1.5" pointer-events="none"/>
                </g>
                <g id="dirArrow">
                        <path fill="none" stroke="white" stroke-width="1.5" d="M0,-3.0v7 M-2.5,-0.5L0,-3.0L2.5,-0.5"/>
                </g>
               <g id="resetDef">
                       <use xlink:href="#rim2" fill="#404040">
                               <set attributeName="fill" to="#808080" begin="reset.mouseover" end="reset.mouseout"/>
                       </use>
               </g>
        </defs>

<script type="text/javascript">
var viewWidth = 716;
var viewHeight = 575;
var sectionId = 'dynsection-1';
</script>
<script xlink:href="svgpan.js"/>
<svg id="graph" class="graph">
<g id="viewport">
<title>bio/meta/detail/empty_type.hpp</title>
<polygon fill="white" stroke="transparent" points="-4,4 -4,-571 711.5,-571 711.5,4 -4,4"/>
<!-- Node1 -->
<g id="node1" class="node">
<title>Node1</title>
<g id="a_node1"><a xlink:title="Provides bio::meta::detail::empty_type.">
<polygon fill="#bfbfbf" stroke="black" points="79,-536.5 79,-566.5 204,-566.5 204,-536.5 79,-536.5"/>
<text text-anchor="start" x="87" y="-554.5" font-family="Helvetica,sans-Serif" font-size="10.00">bio/meta/detail/empty</text>
<text text-anchor="middle" x="141.5" y="-543.5" font-family="Helvetica,sans-Serif" font-size="10.00">_type.hpp</text>
</a>
</g>
</g>
<!-- Node2 -->
<g id="node2" class="node">
<title>Node2</title>
<g id="a_node2"><a xlink:href="inherited__iterator__base_8hpp.html" target="_top" xlink:title="Provides the bio::ranges::detail::inherited_iterator_base template.">
<polygon fill="white" stroke="black" points="69,-469.5 69,-499.5 214,-499.5 214,-469.5 69,-469.5"/>
<text text-anchor="start" x="77" y="-487.5" font-family="Helvetica,sans-Serif" font-size="10.00">bio/ranges/detail/inherited</text>
<text text-anchor="middle" x="141.5" y="-476.5" font-family="Helvetica,sans-Serif" font-size="10.00">_iterator_base.hpp</text>
</a>
</g>
</g>
<!-- Node1&#45;&gt;Node2 -->
<g id="edge1" class="edge">
<title>Node1&#45;&gt;Node2</title>
<path fill="none" stroke="midnightblue" d="M141.5,-526.11C141.5,-517.15 141.5,-507.32 141.5,-499.58"/>
<polygon fill="midnightblue" stroke="midnightblue" points="138,-526.4 141.5,-536.4 145,-526.4 138,-526.4"/>
</g>
<!-- Node3 -->
<g id="node3" class="node">
<title>Node3</title>
<g id="a_node3"><a xlink:href="make__convertible_8hpp.html" target="_top" xlink:title="Provides bio::views::take.">
<polygon fill="white" stroke="black" points="0,-402.5 0,-432.5 129,-432.5 129,-402.5 0,-402.5"/>
<text text-anchor="start" x="8" y="-420.5" font-family="Helvetica,sans-Serif" font-size="10.00">bio/ranges/views/make</text>
<text text-anchor="middle" x="64.5" y="-409.5" font-family="Helvetica,sans-Serif" font-size="10.00">_convertible.hpp</text>
</a>
</g>
</g>
<!-- Node2&#45;&gt;Node3 -->
<g id="edge2" class="edge">
<title>Node2&#45;&gt;Node3</title>
<path fill="none" stroke="midnightblue" d="M117.08,-462.88C105.38,-453.01 91.66,-441.43 81.18,-432.58"/>
<polygon fill="midnightblue" stroke="midnightblue" points="114.89,-465.62 124.79,-469.4 119.41,-460.27 114.89,-465.62"/>
</g>
<!-- Node4 -->
<g id="node4" class="node">
<title>Node4</title>
<g id="a_node4"><a xlink:href="take_8hpp.html" target="_top" xlink:title="Provides bio::views::take.">
<polygon fill="white" stroke="black" points="147.5,-408 147.5,-427 291.5,-427 291.5,-408 147.5,-408"/>
<text text-anchor="middle" x="219.5" y="-415" font-family="Helvetica,sans-Serif" font-size="10.00">bio/ranges/views/take.hpp</text>
</a>
</g>
</g>
<!-- Node2&#45;&gt;Node4 -->
<g id="edge3" class="edge">
<title>Node2&#45;&gt;Node4</title>
<path fill="none" stroke="midnightblue" d="M166.49,-462.67C180.9,-450.67 198.24,-436.22 209.07,-427.19"/>
<polygon fill="midnightblue" stroke="midnightblue" points="163.87,-460.31 158.42,-469.4 168.35,-465.68 163.87,-460.31"/>
</g>
<!-- Node5 -->
<g id="node5" class="node">
<title>Node5</title>
<g id="a_node5"><a xlink:href="take__exactly_8hpp.html" target="_top" xlink:title="Provides bio::views::take_exactly and bio::views::take_exactly_or_throw.">
<polygon fill="white" stroke="black" points="158,-335.5 158,-365.5 281,-365.5 281,-335.5 158,-335.5"/>
<text text-anchor="start" x="166" y="-353.5" font-family="Helvetica,sans-Serif" font-size="10.00">bio/ranges/views/take</text>
<text text-anchor="middle" x="219.5" y="-342.5" font-family="Helvetica,sans-Serif" font-size="10.00">_exactly.hpp</text>
</a>
</g>
</g>
<!-- Node4&#45;&gt;Node5 -->
<g id="edge4" class="edge">
<title>Node4&#45;&gt;Node5</title>
<path fill="none" stroke="midnightblue" d="M219.5,-397.41C219.5,-387.22 219.5,-374.9 219.5,-365.59"/>
<polygon fill="midnightblue" stroke="midnightblue" points="216,-397.73 219.5,-407.73 223,-397.73 216,-397.73"/>
</g>
<!-- Node6 -->
<g id="node6" class="node">
<title>Node6</title>
<g id="a_node6"><a xlink:href="ranges_2views_2all_8hpp.html" target="_top" xlink:title="Meta&#45;header for the views submodule .">
<polygon fill="white" stroke="black" points="250,-6 250,-25 385,-25 385,-6 250,-6"/>
<text text-anchor="middle" x="317.5" y="-13" font-family="Helvetica,sans-Serif" font-size="10.00">bio/ranges/views/all.hpp</text>
</a>
</g>
</g>
<!-- Node5&#45;&gt;Node6 -->
<g id="edge5" class="edge">
<title>Node5&#45;&gt;Node6</title>
<path fill="none" stroke="midnightblue" d="M177.26,-330.86C136.69,-309.75 81.5,-271.17 81.5,-217.5 81.5,-217.5 81.5,-217.5 81.5,-148.5 81.5,-70.45 181.03,-38.11 250.82,-25.02"/>
<polygon fill="midnightblue" stroke="midnightblue" points="175.94,-334.11 186.45,-335.47 179.08,-327.86 175.94,-334.11"/>
</g>
<!-- Node7 -->
<g id="node7" class="node">
<title>Node7</title>
<g id="a_node7"><a xlink:href="repeat__n_8hpp.html" target="_top" xlink:title="Provides bio::views::repeat_n.">
<polygon fill="white" stroke="black" points="290.5,-268.5 290.5,-298.5 424.5,-298.5 424.5,-268.5 290.5,-268.5"/>
<text text-anchor="start" x="298.5" y="-286.5" font-family="Helvetica,sans-Serif" font-size="10.00">bio/ranges/views/repeat</text>
<text text-anchor="middle" x="357.5" y="-275.5" font-family="Helvetica,sans-Serif" font-size="10.00">_n.hpp</text>
</a>
</g>
</g>
<!-- Node5&#45;&gt;Node7 -->
<g id="edge6" class="edge">
<title>Node5&#45;&gt;Node7</title>
<path fill="none" stroke="midnightblue" d="M258.5,-331.13C280.43,-320.8 307.37,-308.11 327.61,-298.58"/>
<polygon fill="midnightblue" stroke="midnightblue" points="257,-327.97 249.44,-335.4 259.98,-334.3 257,-327.97"/>
</g>
<!-- Node8 -->
<g id="node8" class="node">
<title>Node8</title>
<g id="a_node8"><a xlink:href="bitcompressed__vector_8hpp.html" target="_top" xlink:title="Provides bio::ranges::bitcompressed_vector.">
<polygon fill="white" stroke="black" points="109.5,-201.5 109.5,-231.5 257.5,-231.5 257.5,-201.5 109.5,-201.5"/>
<text text-anchor="start" x="117.5" y="-219.5" font-family="Helvetica,sans-Serif" font-size="10.00">bio/ranges/container</text>
<text text-anchor="middle" x="183.5" y="-208.5" font-family="Helvetica,sans-Serif" font-size="10.00">/bitcompressed_vector.hpp</text>
</a>
</g>
</g>
<!-- Node7&#45;&gt;Node8 -->
<g id="edge7" class="edge">
<title>Node7&#45;&gt;Node8</title>
<path fill="none" stroke="midnightblue" d="M310.17,-264.82C282.2,-254.37 247.27,-241.32 221.18,-231.58"/>
<polygon fill="midnightblue" stroke="midnightblue" points="309.15,-268.18 319.74,-268.4 311.6,-261.62 309.15,-268.18"/>
</g>
<!-- Node11 -->
<g id="node11" class="node">
<title>Node11</title>
<g id="a_node11"><a xlink:href="concatenated__sequences_8hpp.html" target="_top" xlink:title="Provides bio::ranges::concatenated_sequences.">
<polygon fill="white" stroke="black" points="275.5,-201.5 275.5,-231.5 439.5,-231.5 439.5,-201.5 275.5,-201.5"/>
<text text-anchor="start" x="283.5" y="-219.5" font-family="Helvetica,sans-Serif" font-size="10.00">bio/ranges/container</text>
<text text-anchor="middle" x="357.5" y="-208.5" font-family="Helvetica,sans-Serif" font-size="10.00">/concatenated_sequences.hpp</text>
</a>
</g>
</g>
<!-- Node7&#45;&gt;Node11 -->
<g id="edge10" class="edge">
<title>Node7&#45;&gt;Node11</title>
<path fill="none" stroke="midnightblue" d="M357.5,-258.11C357.5,-249.15 357.5,-239.32 357.5,-231.58"/>
<polygon fill="midnightblue" stroke="midnightblue" points="354,-258.4 357.5,-268.4 361,-258.4 354,-258.4"/>
</g>
<!-- Node12 -->
<g id="node12" class="node">
<title>Node12</title>
<g id="a_node12"><a xlink:href="dynamic__bitset_8hpp.html" target="_top" xlink:title="A constexpr bitset implementation with dynamic size at compile time.">
<polygon fill="white" stroke="black" points="457.5,-201.5 457.5,-231.5 573.5,-231.5 573.5,-201.5 457.5,-201.5"/>
<text text-anchor="start" x="465.5" y="-219.5" font-family="Helvetica,sans-Serif" font-size="10.00">bio/ranges/container</text>
<text text-anchor="middle" x="515.5" y="-208.5" font-family="Helvetica,sans-Serif" font-size="10.00">/dynamic_bitset.hpp</text>
</a>
</g>
</g>
<!-- Node7&#45;&gt;Node12 -->
<g id="edge12" class="edge">
<title>Node7&#45;&gt;Node12</title>
<path fill="none" stroke="midnightblue" d="M401.15,-264.54C426.43,-254.14 457.8,-241.24 481.28,-231.58"/>
<polygon fill="midnightblue" stroke="midnightblue" points="399.7,-261.35 391.78,-268.4 402.36,-267.83 399.7,-261.35"/>
</g>
<!-- Node13 -->
<g id="node13" class="node">
<title>Node13</title>
<g id="a_node13"><a xlink:href="small__vector_8hpp.html" target="_top" xlink:title="A constexpr vector implementation with dynamic size at compile time.">
<polygon fill="white" stroke="black" points="591.5,-201.5 591.5,-231.5 707.5,-231.5 707.5,-201.5 591.5,-201.5"/>
<text text-anchor="start" x="599.5" y="-219.5" font-family="Helvetica,sans-Serif" font-size="10.00">bio/ranges/container</text>
<text text-anchor="middle" x="649.5" y="-208.5" font-family="Helvetica,sans-Serif" font-size="10.00">/small_vector.hpp</text>
</a>
</g>
</g>
<!-- Node7&#45;&gt;Node13 -->
<g id="edge13" class="edge">
<title>Node7&#45;&gt;Node13</title>
<path fill="none" stroke="midnightblue" d="M430.53,-266.24C480.14,-255.2 544.89,-240.79 591.08,-230.5"/>
<polygon fill="midnightblue" stroke="midnightblue" points="429.5,-262.89 420.5,-268.48 431.02,-269.72 429.5,-262.89"/>
</g>
<!-- Node9 -->
<g id="node9" class="node">
<title>Node9</title>
<g id="a_node9"><a xlink:href="ranges_2container_2all_8hpp.html" target="_top" xlink:title="Meta&#45;header for the container submodule .">
<polygon fill="white" stroke="black" points="149.5,-134.5 149.5,-164.5 265.5,-164.5 265.5,-134.5 149.5,-134.5"/>
<text text-anchor="start" x="157.5" y="-152.5" font-family="Helvetica,sans-Serif" font-size="10.00">bio/ranges/container</text>
<text text-anchor="middle" x="207.5" y="-141.5" font-family="Helvetica,sans-Serif" font-size="10.00">/all.hpp</text>
</a>
</g>
</g>
<!-- Node8&#45;&gt;Node9 -->
<g id="edge8" class="edge">
<title>Node8&#45;&gt;Node9</title>
<path fill="none" stroke="midnightblue" d="M192.18,-191.99C195.57,-182.8 199.35,-172.58 202.3,-164.58"/>
<polygon fill="midnightblue" stroke="midnightblue" points="188.89,-190.8 188.71,-201.4 195.45,-193.23 188.89,-190.8"/>
</g>
<!-- Node10 -->
<g id="node10" class="node">
<title>Node10</title>
<g id="a_node10"><a xlink:href="ranges_2all_8hpp.html" target="_top" xlink:title="Meta&#45;header for the ranges module .">
<polygon fill="white" stroke="black" points="155.5,-73 155.5,-92 259.5,-92 259.5,-73 155.5,-73"/>
<text text-anchor="middle" x="207.5" y="-80" font-family="Helvetica,sans-Serif" font-size="10.00">bio/ranges/all.hpp</text>
</a>
</g>
</g>
<!-- Node9&#45;&gt;Node10 -->
<g id="edge9" class="edge">
<title>Node9&#45;&gt;Node10</title>
<path fill="none" stroke="midnightblue" d="M207.5,-124.25C207.5,-113.02 207.5,-100.38 207.5,-92.19"/>
<polygon fill="midnightblue" stroke="midnightblue" points="204,-124.4 207.5,-134.4 211,-124.4 204,-124.4"/>
</g>
<!-- Node11&#45;&gt;Node9 -->
<g id="edge11" class="edge">
<title>Node11&#45;&gt;Node9</title>
<path fill="none" stroke="midnightblue" d="M315.75,-197.41C291.8,-187.03 262.18,-174.2 239.98,-164.58"/>
<polygon fill="midnightblue" stroke="midnightblue" points="314.39,-200.63 324.95,-201.4 317.17,-194.21 314.39,-200.63"/>
</g>
<!-- Node14 -->
<g id="node14" class="node">
<title>Node14</title>
<g id="a_node14"><a xlink:href="small__string_8hpp.html" target="_top" xlink:title="A constexpr string implementation to manipulate string literals at compile time.">
<polygon fill="white" stroke="black" points="567.5,-134.5 567.5,-164.5 683.5,-164.5 683.5,-134.5 567.5,-134.5"/>
<text text-anchor="start" x="575.5" y="-152.5" font-family="Helvetica,sans-Serif" font-size="10.00">bio/ranges/container</text>
<text text-anchor="middle" x="625.5" y="-141.5" font-family="Helvetica,sans-Serif" font-size="10.00">/small_string.hpp</text>
</a>
</g>
</g>
<!-- Node13&#45;&gt;Node14 -->
<g id="edge14" class="edge">
<title>Node13&#45;&gt;Node14</title>
<path fill="none" stroke="midnightblue" d="M640.82,-191.99C637.43,-182.8 633.65,-172.58 630.7,-164.58"/>
<polygon fill="midnightblue" stroke="midnightblue" points="637.55,-193.23 644.29,-201.4 644.11,-190.8 637.55,-193.23"/>
</g>
<!-- Node15 -->
<g id="node15" class="node">
<title>Node15</title>
<g id="a_node15"><a xlink:href="cigar_8hpp.html" target="_top" xlink:title="Provides the bio::alphabet::cigar alphabet.">
<polygon fill="white" stroke="black" points="372.5,-67.5 372.5,-97.5 476.5,-97.5 476.5,-67.5 372.5,-67.5"/>
<text text-anchor="start" x="380.5" y="-85.5" font-family="Helvetica,sans-Serif" font-size="10.00">bio/alphabet/cigar</text>
<text text-anchor="middle" x="424.5" y="-74.5" font-family="Helvetica,sans-Serif" font-size="10.00">/cigar.hpp</text>
</a>
</g>
</g>
<!-- Node14&#45;&gt;Node15 -->
<g id="edge15" class="edge">
<title>Node14&#45;&gt;Node15</title>
<path fill="none" stroke="midnightblue" d="M572.09,-131.23C539.57,-120.71 498.56,-107.45 468.03,-97.58"/>
<polygon fill="midnightblue" stroke="midnightblue" points="571.29,-134.65 581.89,-134.4 573.45,-127.99 571.29,-134.65"/>
</g>
<!-- Node16 -->
<g id="node16" class="node">
<title>Node16</title>
<g id="a_node16"><a xlink:href="translate_8hpp.html" target="_top" xlink:title="Provides bio::views::translate and bio::views::translate_single.">
<polygon fill="white" stroke="black" points="495,-73 495,-92 662,-92 662,-73 495,-73"/>
<text text-anchor="middle" x="578.5" y="-80" font-family="Helvetica,sans-Serif" font-size="10.00">bio/ranges/views/translate.hpp</text>
</a>
</g>
</g>
<!-- Node14&#45;&gt;Node16 -->
<g id="edge16" class="edge">
<title>Node14&#45;&gt;Node16</title>
<path fill="none" stroke="midnightblue" d="M609.21,-125.97C600.79,-114.33 591.01,-100.8 584.79,-92.19"/>
<polygon fill="midnightblue" stroke="midnightblue" points="606.61,-128.34 615.3,-134.4 612.28,-124.24 606.61,-128.34"/>
</g>
<!-- Node17 -->
<g id="node17" class="node">
<title>Node17</title>
<g id="a_node17"><a xlink:href="translate__join_8hpp.html" target="_top" xlink:title="Provides bio::views::translate_join.">
<polygon fill="white" stroke="black" points="560.5,-0.5 560.5,-30.5 706.5,-30.5 706.5,-0.5 560.5,-0.5"/>
<text text-anchor="start" x="568.5" y="-18.5" font-family="Helvetica,sans-Serif" font-size="10.00">bio/ranges/views/translate</text>
<text text-anchor="middle" x="633.5" y="-7.5" font-family="Helvetica,sans-Serif" font-size="10.00">_join.hpp</text>
</a>
</g>
</g>
<!-- Node14&#45;&gt;Node17 -->
<g id="edge19" class="edge">
<title>Node14&#45;&gt;Node17</title>
<path fill="none" stroke="midnightblue" d="M651.27,-127.3C659.34,-119.09 667.24,-109.01 671.5,-98 676.47,-85.15 675.87,-80.07 671.5,-67 666.91,-53.26 656.95,-40.27 648.38,-30.9"/>
<polygon fill="midnightblue" stroke="midnightblue" points="648.75,-124.86 643.92,-134.29 653.58,-129.94 648.75,-124.86"/>
</g>
<!-- Node16&#45;&gt;Node6 -->
<g id="edge17" class="edge">
<title>Node16&#45;&gt;Node6</title>
<path fill="none" stroke="midnightblue" d="M534.27,-70.48C482.78,-57.66 398.85,-36.76 351.97,-25.08"/>
<polygon fill="midnightblue" stroke="midnightblue" points="533.56,-73.92 544.11,-72.94 535.25,-67.12 533.56,-73.92"/>
</g>
<!-- Node16&#45;&gt;Node17 -->
<g id="edge18" class="edge">
<title>Node16&#45;&gt;Node17</title>
<path fill="none" stroke="midnightblue" d="M592.47,-64.99C601.46,-54.36 613.02,-40.7 621.58,-30.59"/>
<polygon fill="midnightblue" stroke="midnightblue" points="589.71,-62.84 585.92,-72.73 595.05,-67.36 589.71,-62.84"/>
</g>
</g>
</svg>
        <g id="navigator" transform="translate(0 0)" fill="#404254">
                <rect fill="#f2f5e9" fill-opacity="0.5" stroke="#606060" stroke-width=".5" x="0" y="0" width="60" height="60"/>
                <use id="zoomplus" xlink:href="#zoomPlus" x="17" y="9" onmousedown="handleZoom(evt,'in')"/>
                <use id="zoomminus" xlink:href="#zoomMin" x="42" y="9" onmousedown="handleZoom(evt,'out')"/>
                <use id="reset" xlink:href="#resetDef" x="30" y="36" onmousedown="handleReset()"/>
                <g id="arrowUp" xlink:href="#dirArrow" transform="translate(30 24)" onmousedown="handlePan(0,-1)">
                  <use xlink:href="#rim" fill="#404040">
                        <set attributeName="fill" to="#808080" begin="arrowUp.mouseover" end="arrowUp.mouseout"/>
                  </use>
                  <path fill="none" stroke="white" stroke-width="1.5" d="M0,-3.0v7 M-2.5,-0.5L0,-3.0L2.5,-0.5"/>
                </g>
                <g id="arrowRight" xlink:href="#dirArrow" transform="rotate(90) translate(36 -43)" onmousedown="handlePan(1,0)">
                  <use xlink:href="#rim" fill="#404040">
                        <set attributeName="fill" to="#808080" begin="arrowRight.mouseover" end="arrowRight.mouseout"/>
                  </use>
                  <path fill="none" stroke="white" stroke-width="1.5" d="M0,-3.0v7 M-2.5,-0.5L0,-3.0L2.5,-0.5"/>
                </g>
                <g id="arrowDown" xlink:href="#dirArrow" transform="rotate(180) translate(-30 -48)" onmousedown="handlePan(0,1)">
                  <use xlink:href="#rim" fill="#404040">
                        <set attributeName="fill" to="#808080" begin="arrowDown.mouseover" end="arrowDown.mouseout"/>
                  </use>
                  <path fill="none" stroke="white" stroke-width="1.5" d="M0,-3.0v7 M-2.5,-0.5L0,-3.0L2.5,-0.5"/>
                </g>
                <g id="arrowLeft" xlink:href="#dirArrow" transform="rotate(270) translate(-36 17)" onmousedown="handlePan(-1,0)">
                  <use xlink:href="#rim" fill="#404040">
                        <set attributeName="fill" to="#808080" begin="arrowLeft.mouseover" end="arrowLeft.mouseout"/>
                  </use>
                  <path fill="none" stroke="white" stroke-width="1.5" d="M0,-3.0v7 M-2.5,-0.5L0,-3.0L2.5,-0.5"/>
                </g>
        </g>
        <svg viewBox="0 0 15 15" width="100%" height="30px" preserveAspectRatio="xMaxYMin meet">
         <g id="arrow_out" transform="scale(0.3 0.3)">
          <a xlink:href="empty__type_8hpp__dep__incl_org.svg" target="_base">
           <rect id="button" ry="5" rx="5" y="6" x="6" height="38" width="38"
                fill="#f2f5e9" fill-opacity="0.5" stroke="#606060" stroke-width="1.0"/>
           <path id="arrow"
             d="M 11.500037,31.436501 C 11.940474,20.09759 22.043105,11.32322 32.158766,21.979434 L 37.068811,17.246167 C 37.068811,17.246167 37.088388,32 37.088388,32 L 22.160133,31.978069 C 22.160133,31.978069 26.997745,27.140456 26.997745,27.140456 C 18.528582,18.264221 13.291696,25.230495 11.500037,31.436501 z"
             style="fill:#404040;"/>
          </a>
         </g>
        </svg>
</svg>
