<?xml version="1.0" encoding="UTF-8" standalone="no"?>
<!DOCTYPE svg PUBLIC "-//W3C//DTD SVG 1.1//EN"
 "http://www.w3.org/Graphics/SVG/1.1/DTD/svg11.dtd">
<!-- Generated by graphviz version 2.43.0 (0)
 -->
<!-- Title: bio/meta/detail/endian.hpp Pages: 1 -->
<svg width="421pt" height="341pt"
 viewBox="0.00 0.00 420.50 341.00" xmlns="http://www.w3.org/2000/svg" xmlns:xlink="http://www.w3.org/1999/xlink">
<g id="graph0" class="graph" transform="scale(1 1) rotate(0) translate(4 337)">
<title>bio/meta/detail/endian.hpp</title>
<polygon fill="white" stroke="transparent" points="-4,4 -4,-337 416.5,-337 416.5,4 -4,4"/>
<!-- Node1 -->
<g id="node1" class="node">
<title>Node1</title>
<g id="a_node1"><a xlink:title="Provides bio::detail::endian.">
<polygon fill="#bfbfbf" stroke="black" points="192,-313.5 192,-332.5 340,-332.5 340,-313.5 192,-313.5"/>
<text text-anchor="middle" x="266" y="-320.5" font-family="Helvetica,sans-Serif" font-size="10.00">bio/meta/detail/endian.hpp</text>
</a>
</g>
</g>
<!-- Node2 -->
<g id="node2" class="node">
<title>Node2</title>
<g id="a_node2"><a xlink:href="bit__manipulation_8hpp.html" target="_top" xlink:title="Provides utility functions for bit twiddling.">
<polygon fill="white" stroke="black" points="100.5,-257.5 100.5,-276.5 267.5,-276.5 267.5,-257.5 100.5,-257.5"/>
<text text-anchor="middle" x="184" y="-264.5" font-family="Helvetica,sans-Serif" font-size="10.00">bio/meta/bit_manipulation.hpp</text>
</a>
</g>
</g>
<!-- Node1&#45;&gt;Node2 -->
<g id="edge1" class="edge">
<title>Node1&#45;&gt;Node2</title>
<path fill="none" stroke="midnightblue" d="M244.17,-307.62C229.19,-297.76 209.8,-284.99 197.14,-276.65"/>
<polygon fill="midnightblue" stroke="midnightblue" points="242.55,-310.75 252.83,-313.32 246.4,-304.9 242.55,-310.75"/>
</g>
<!-- Node8 -->
<g id="node8" class="node">
<title>Node8</title>
<g id="a_node8"><a xlink:href="meta_2detail_2all_8hpp.html" target="_top" xlink:title="Meta&#45;header for implementation details in the core module.">
<polygon fill="white" stroke="black" points="285.5,-257.5 285.5,-276.5 412.5,-276.5 412.5,-257.5 285.5,-257.5"/>
<text text-anchor="middle" x="349" y="-264.5" font-family="Helvetica,sans-Serif" font-size="10.00">bio/meta/detail/all.hpp</text>
</a>
</g>
</g>
<!-- Node1&#45;&gt;Node8 -->
<g id="edge7" class="edge">
<title>Node1&#45;&gt;Node8</title>
<path fill="none" stroke="midnightblue" d="M288.1,-307.62C303.26,-297.76 322.88,-284.99 335.7,-276.65"/>
<polygon fill="midnightblue" stroke="midnightblue" points="285.81,-304.94 279.34,-313.32 289.63,-310.8 285.81,-304.94"/>
</g>
<!-- Node3 -->
<g id="node3" class="node">
<title>Node3</title>
<g id="a_node3"><a xlink:href="math_8hpp.html" target="_top" xlink:title="Provides math related functionality.">
<polygon fill="white" stroke="black" points="19,-196 19,-215 129,-215 129,-196 19,-196"/>
<text text-anchor="middle" x="74" y="-203" font-family="Helvetica,sans-Serif" font-size="10.00">bio/meta/math.hpp</text>
</a>
</g>
</g>
<!-- Node2&#45;&gt;Node3 -->
<g id="edge2" class="edge">
<title>Node2&#45;&gt;Node3</title>
<path fill="none" stroke="midnightblue" d="M159.43,-252.71C138.13,-241.19 107.93,-224.86 89.73,-215.01"/>
<polygon fill="midnightblue" stroke="midnightblue" points="157.78,-255.8 168.24,-257.48 161.11,-249.64 157.78,-255.8"/>
</g>
<!-- Node7 -->
<g id="node7" class="node">
<title>Node7</title>
<g id="a_node7"><a xlink:href="dynamic__bitset_8hpp.html" target="_top" xlink:title="A constexpr bitset implementation with dynamic size at compile time.">
<polygon fill="white" stroke="black" points="147,-190.5 147,-220.5 263,-220.5 263,-190.5 147,-190.5"/>
<text text-anchor="start" x="155" y="-208.5" font-family="Helvetica,sans-Serif" font-size="10.00">bio/ranges/container</text>
<text text-anchor="middle" x="205" y="-197.5" font-family="Helvetica,sans-Serif" font-size="10.00">/dynamic_bitset.hpp</text>
</a>
</g>
</g>
<!-- Node2&#45;&gt;Node7 -->
<g id="edge6" class="edge">
<title>Node2&#45;&gt;Node7</title>
<path fill="none" stroke="midnightblue" d="M190.42,-247.82C193.51,-239.04 197.17,-228.68 200.05,-220.52"/>
<polygon fill="midnightblue" stroke="midnightblue" points="187.04,-246.88 187.01,-257.48 193.64,-249.21 187.04,-246.88"/>
</g>
<!-- Node4 -->
<g id="node4" class="node">
<title>Node4</title>
<g id="a_node4"><a xlink:href="bitcompressed__vector_8hpp.html" target="_top" xlink:title="Provides bio::bitcompressed_vector.">
<polygon fill="white" stroke="black" points="0,-123.5 0,-153.5 148,-153.5 148,-123.5 0,-123.5"/>
<text text-anchor="start" x="8" y="-141.5" font-family="Helvetica,sans-Serif" font-size="10.00">bio/ranges/container</text>
<text text-anchor="middle" x="74" y="-130.5" font-family="Helvetica,sans-Serif" font-size="10.00">/bitcompressed_vector.hpp</text>
</a>
</g>
</g>
<!-- Node3&#45;&gt;Node4 -->
<g id="edge3" class="edge">
<title>Node3&#45;&gt;Node4</title>
<path fill="none" stroke="midnightblue" d="M74,-185.41C74,-175.22 74,-162.9 74,-153.59"/>
<polygon fill="midnightblue" stroke="midnightblue" points="70.5,-185.73 74,-195.73 77.5,-185.73 70.5,-185.73"/>
</g>
<!-- Node5 -->
<g id="node5" class="node">
<title>Node5</title>
<g id="a_node5"><a xlink:href="ranges_2container_2all_8hpp.html" target="_top" xlink:title="Meta&#45;header for the container submodule .">
<polygon fill="white" stroke="black" points="16,-56.5 16,-86.5 132,-86.5 132,-56.5 16,-56.5"/>
<text text-anchor="start" x="24" y="-74.5" font-family="Helvetica,sans-Serif" font-size="10.00">bio/ranges/container</text>
<text text-anchor="middle" x="74" y="-63.5" font-family="Helvetica,sans-Serif" font-size="10.00">/all.hpp</text>
</a>
</g>
</g>
<!-- Node4&#45;&gt;Node5 -->
<g id="edge4" class="edge">
<title>Node4&#45;&gt;Node5</title>
<path fill="none" stroke="midnightblue" d="M74,-113.11C74,-104.15 74,-94.32 74,-86.58"/>
<polygon fill="midnightblue" stroke="midnightblue" points="70.5,-113.4 74,-123.4 77.5,-113.4 70.5,-113.4"/>
</g>
<!-- Node6 -->
<g id="node6" class="node">
<title>Node6</title>
<g id="a_node6"><a xlink:href="ranges_2all_8hpp.html" target="_top" xlink:title="Meta&#45;header for the range module .">
<polygon fill="white" stroke="black" points="22,-0.5 22,-19.5 126,-19.5 126,-0.5 22,-0.5"/>
<text text-anchor="middle" x="74" y="-7.5" font-family="Helvetica,sans-Serif" font-size="10.00">bio/ranges/all.hpp</text>
</a>
</g>
</g>
<!-- Node5&#45;&gt;Node6 -->
<g id="edge5" class="edge">
<title>Node5&#45;&gt;Node6</title>
<path fill="none" stroke="midnightblue" d="M74,-46.29C74,-36.86 74,-26.65 74,-19.66"/>
<polygon fill="midnightblue" stroke="midnightblue" points="70.5,-46.4 74,-56.4 77.5,-46.4 70.5,-46.4"/>
</g>
<!-- Node9 -->
<g id="node9" class="node">
<title>Node9</title>
<g id="a_node9"><a xlink:href="meta_2all_8hpp.html" target="_top" xlink:title="Meta&#45;header for the core module .">
<polygon fill="white" stroke="black" points="301,-196 301,-215 397,-215 397,-196 301,-196"/>
<text text-anchor="middle" x="349" y="-203" font-family="Helvetica,sans-Serif" font-size="10.00">bio/meta/all.hpp</text>
</a>
</g>
</g>
<!-- Node8&#45;&gt;Node9 -->
<g id="edge8" class="edge">
<title>Node8&#45;&gt;Node9</title>
<path fill="none" stroke="midnightblue" d="M349,-247.32C349,-236.5 349,-223.4 349,-215.01"/>
<polygon fill="midnightblue" stroke="midnightblue" points="345.5,-247.48 349,-257.48 352.5,-247.48 345.5,-247.48"/>
</g>
</g>
</svg>
