<?xml version="1.0" encoding="UTF-8" standalone="no"?>
<!DOCTYPE svg PUBLIC "-//W3C//DTD SVG 1.1//EN"
 "http://www.w3.org/Graphics/SVG/1.1/DTD/svg11.dtd">
<!-- Generated by graphviz version 2.43.0 (0)
 -->
<!-- Title: bio/alphabet/exception.hpp Pages: 1 -->
<svg width="398pt" height="196pt"
 viewBox="0.00 0.00 397.50 196.00" xmlns="http://www.w3.org/2000/svg" xmlns:xlink="http://www.w3.org/1999/xlink">
<g id="graph0" class="graph" transform="scale(1 1) rotate(0) translate(4 192)">
<title>bio/alphabet/exception.hpp</title>
<polygon fill="white" stroke="transparent" points="-4,4 -4,-192 393.5,-192 393.5,4 -4,4"/>
<!-- Node1 -->
<g id="node1" class="node">
<title>Node1</title>
<g id="a_node1"><a xlink:title="Exceptions thrown by entities in the alphabet module.">
<polygon fill="#bfbfbf" stroke="black" points="72.5,-168.5 72.5,-187.5 221.5,-187.5 221.5,-168.5 72.5,-168.5"/>
<text text-anchor="middle" x="147" y="-175.5" font-family="Helvetica,sans-Serif" font-size="10.00">bio/alphabet/exception.hpp</text>
</a>
</g>
</g>
<!-- Node2 -->
<g id="node2" class="node">
<title>Node2</title>
<g id="a_node2"><a target="_blank" xlink:href="https://en.cppreference.com/w/cpp/header/concepts.html" xlink:title=" ">
<polygon fill="white" stroke="black" points="0,-112.5 0,-131.5 60,-131.5 60,-112.5 0,-112.5"/>
<text text-anchor="middle" x="30" y="-119.5" font-family="Helvetica,sans-Serif" font-size="10.00">concepts</text>
</a>
</g>
</g>
<!-- Node1&#45;&gt;Node2 -->
<g id="edge1" class="edge">
<title>Node1&#45;&gt;Node2</title>
<path fill="none" stroke="midnightblue" d="M128.46,-168.44C109.38,-159.64 79.43,-145.81 57.56,-135.72"/>
<polygon fill="midnightblue" stroke="midnightblue" points="59,-132.53 48.45,-131.52 56.07,-138.88 59,-132.53"/>
</g>
<!-- Node3 -->
<g id="node3" class="node">
<title>Node3</title>
<g id="a_node3"><a target="_blank" xlink:href="https://en.cppreference.com/w/cpp/header/stdexcept.html" xlink:title=" ">
<polygon fill="white" stroke="black" points="78.5,-112.5 78.5,-131.5 143.5,-131.5 143.5,-112.5 78.5,-112.5"/>
<text text-anchor="middle" x="111" y="-119.5" font-family="Helvetica,sans-Serif" font-size="10.00">stdexcept</text>
</a>
</g>
</g>
<!-- Node1&#45;&gt;Node3 -->
<g id="edge2" class="edge">
<title>Node1&#45;&gt;Node3</title>
<path fill="none" stroke="midnightblue" d="M141.06,-168.08C136.02,-160.53 128.66,-149.49 122.49,-140.23"/>
<polygon fill="midnightblue" stroke="midnightblue" points="125.29,-138.13 116.83,-131.75 119.47,-142.01 125.29,-138.13"/>
</g>
<!-- Node4 -->
<g id="node4" class="node">
<title>Node4</title>
<g id="a_node4"><a target="_blank" xlink:href="https://en.cppreference.com/w/cpp/header/string.html" xlink:title=" ">
<polygon fill="white" stroke="black" points="162,-112.5 162,-131.5 206,-131.5 206,-112.5 162,-112.5"/>
<text text-anchor="middle" x="184" y="-119.5" font-family="Helvetica,sans-Serif" font-size="10.00">string</text>
</a>
</g>
</g>
<!-- Node1&#45;&gt;Node4 -->
<g id="edge3" class="edge">
<title>Node1&#45;&gt;Node4</title>
<path fill="none" stroke="midnightblue" d="M153.11,-168.08C158.28,-160.53 165.85,-149.49 172.19,-140.23"/>
<polygon fill="midnightblue" stroke="midnightblue" points="175.24,-141.98 178,-131.75 169.46,-138.02 175.24,-141.98"/>
</g>
<!-- Node5 -->
<g id="node5" class="node">
<title>Node5</title>
<g id="a_node5"><a xlink:href="alphabet_2biocpp_8hpp.html" target="_top" xlink:title="Module header with module&#45;wide definitions.">
<polygon fill="white" stroke="black" points="224,-112.5 224,-131.5 358,-131.5 358,-112.5 224,-112.5"/>
<text text-anchor="middle" x="291" y="-119.5" font-family="Helvetica,sans-Serif" font-size="10.00">bio/alphabet/biocpp.hpp</text>
</a>
</g>
</g>
<!-- Node1&#45;&gt;Node5 -->
<g id="edge4" class="edge">
<title>Node1&#45;&gt;Node5</title>
<path fill="none" stroke="midnightblue" d="M169.82,-168.44C193.83,-159.44 231.83,-145.19 258.87,-135.05"/>
<polygon fill="midnightblue" stroke="midnightblue" points="260.16,-138.3 268.29,-131.52 257.7,-131.75 260.16,-138.3"/>
</g>
<!-- Node6 -->
<g id="node6" class="node">
<title>Node6</title>
<g id="a_node6"><a xlink:href="platform_8hpp.html" target="_top" xlink:title="Provides platform and dependency checks.">
<polygon fill="white" stroke="black" points="228,-56.5 228,-75.5 354,-75.5 354,-56.5 228,-56.5"/>
<text text-anchor="middle" x="291" y="-63.5" font-family="Helvetica,sans-Serif" font-size="10.00">bio/meta/platform.hpp</text>
</a>
</g>
</g>
<!-- Node5&#45;&gt;Node6 -->
<g id="edge5" class="edge">
<title>Node5&#45;&gt;Node6</title>
<path fill="none" stroke="midnightblue" d="M291,-112.08C291,-105.01 291,-94.86 291,-85.99"/>
<polygon fill="midnightblue" stroke="midnightblue" points="294.5,-85.75 291,-75.75 287.5,-85.75 294.5,-85.75"/>
</g>
<!-- Node7 -->
<g id="node7" class="node">
<title>Node7</title>
<g id="a_node7"><a target="_blank" xlink:href="https://en.cppreference.com/w/cpp/header/cinttypes.html" xlink:title=" ">
<polygon fill="white" stroke="black" points="184,-0.5 184,-19.5 246,-19.5 246,-0.5 184,-0.5"/>
<text text-anchor="middle" x="215" y="-7.5" font-family="Helvetica,sans-Serif" font-size="10.00">cinttypes</text>
</a>
</g>
</g>
<!-- Node6&#45;&gt;Node7 -->
<g id="edge6" class="edge">
<title>Node6&#45;&gt;Node7</title>
<path fill="none" stroke="midnightblue" d="M278.79,-56.32C267.22,-48.11 249.62,-35.6 235.84,-25.81"/>
<polygon fill="midnightblue" stroke="midnightblue" points="237.61,-22.77 227.43,-19.83 233.56,-28.48 237.61,-22.77"/>
</g>
<!-- Node8 -->
<g id="node8" class="node">
<title>Node8</title>
<g id="a_node8"><a target="_blank" xlink:href="https://en.cppreference.com/w/cpp/header/ciso646.html" xlink:title=" ">
<polygon fill="white" stroke="black" points="264,-0.5 264,-19.5 318,-19.5 318,-0.5 264,-0.5"/>
<text text-anchor="middle" x="291" y="-7.5" font-family="Helvetica,sans-Serif" font-size="10.00">ciso646</text>
</a>
</g>
</g>
<!-- Node6&#45;&gt;Node8 -->
<g id="edge7" class="edge">
<title>Node6&#45;&gt;Node8</title>
<path fill="none" stroke="midnightblue" d="M291,-56.08C291,-49.01 291,-38.86 291,-29.99"/>
<polygon fill="midnightblue" stroke="midnightblue" points="294.5,-29.75 291,-19.75 287.5,-29.75 294.5,-29.75"/>
</g>
<!-- Node9 -->
<g id="node9" class="node">
<title>Node9</title>
<g id="a_node9"><a target="_blank" xlink:href="https://en.cppreference.com/w/cpp/header/cstddef.html" xlink:title=" ">
<polygon fill="white" stroke="black" points="336.5,-0.5 336.5,-19.5 389.5,-19.5 389.5,-0.5 336.5,-0.5"/>
<text text-anchor="middle" x="363" y="-7.5" font-family="Helvetica,sans-Serif" font-size="10.00">cstddef</text>
</a>
</g>
</g>
<!-- Node6&#45;&gt;Node9 -->
<g id="edge8" class="edge">
<title>Node6&#45;&gt;Node9</title>
<path fill="none" stroke="midnightblue" d="M302.57,-56.32C313.42,-48.18 329.88,-35.84 342.88,-26.09"/>
<polygon fill="midnightblue" stroke="midnightblue" points="345.32,-28.63 351.22,-19.83 341.12,-23.03 345.32,-28.63"/>
</g>
</g>
</svg>
