<?xml version="1.0" encoding="UTF-8" standalone="no"?>
<!DOCTYPE svg PUBLIC "-//W3C//DTD SVG 1.1//EN"
 "http://www.w3.org/Graphics/SVG/1.1/DTD/svg11.dtd">
<!-- Generated by graphviz version 2.43.0 (0)
 -->
<!-- Title: bio/alphabet/exception.hpp Pages: 1 -->
<svg width="397pt" height="137pt"
 viewBox="0.00 0.00 397.00 137.00" xmlns="http://www.w3.org/2000/svg" xmlns:xlink="http://www.w3.org/1999/xlink">
<g id="graph0" class="graph" transform="scale(1 1) rotate(0) translate(4 133)">
<title>bio/alphabet/exception.hpp</title>
<!-- Node1 -->
<g id="node1" class="node">
<title>Node1</title>
<g id="a_node1"><a xlink:title="Exceptions thrown by entities in the alphabet module.">
<polygon fill="#999999" stroke="#666666" points="204.5,-129 71.5,-129 71.5,-110 204.5,-110 204.5,-129"/>
<text text-anchor="middle" x="138" y="-117" font-family="Helvetica,sans-Serif" font-size="10.00">bio/alphabet/exception.hpp</text>
</a>
</g>
</g>
<!-- Node2 -->
<g id="node2" class="node">
<title>Node2</title>
<g id="a_node2"><a target="_blank" xlink:href="https://en.cppreference.com/w/cpp/header/concepts.html" xlink:title=" ">
<polygon fill="white" stroke="#666666" points="56,-74 0,-74 0,-55 56,-55 56,-74"/>
<text text-anchor="middle" x="28" y="-62" font-family="Helvetica,sans-Serif" font-size="10.00">concepts</text>
</a>
</g>
</g>
<!-- Node1&#45;&gt;Node2 -->
<g id="edge1" class="edge">
<title>Node1&#45;&gt;Node2</title>
<path fill="none" stroke="#63b8ff" d="M120.33,-109.98C102.71,-101.5 75.42,-88.35 55.07,-78.54"/>
<polygon fill="#63b8ff" stroke="#63b8ff" points="56.52,-75.36 45.99,-74.17 53.48,-81.66 56.52,-75.36"/>
</g>
<!-- Node3 -->
<g id="node3" class="node">
<title>Node3</title>
<g id="a_node3"><a target="_blank" xlink:href="https://en.cppreference.com/w/cpp/header/stdexcept.html" xlink:title=" ">
<polygon fill="white" stroke="#666666" points="133.5,-74 74.5,-74 74.5,-55 133.5,-55 133.5,-74"/>
<text text-anchor="middle" x="104" y="-62" font-family="Helvetica,sans-Serif" font-size="10.00">stdexcept</text>
</a>
</g>
</g>
<!-- Node1&#45;&gt;Node3 -->
<g id="edge2" class="edge">
<title>Node1&#45;&gt;Node3</title>
<path fill="none" stroke="#63b8ff" d="M132.39,-109.75C127.68,-102.42 120.83,-91.73 115.03,-82.7"/>
<polygon fill="#63b8ff" stroke="#63b8ff" points="117.86,-80.62 109.51,-74.09 111.96,-84.4 117.86,-80.62"/>
</g>
<!-- Node4 -->
<g id="node4" class="node">
<title>Node4</title>
<g id="a_node4"><a target="_blank" xlink:href="https://en.cppreference.com/w/cpp/header/string.html" xlink:title=" ">
<polygon fill="white" stroke="#666666" points="192.5,-74 151.5,-74 151.5,-55 192.5,-55 192.5,-74"/>
<text text-anchor="middle" x="172" y="-62" font-family="Helvetica,sans-Serif" font-size="10.00">string</text>
</a>
</g>
</g>
<!-- Node1&#45;&gt;Node4 -->
<g id="edge3" class="edge">
<title>Node1&#45;&gt;Node4</title>
<path fill="none" stroke="#63b8ff" d="M143.61,-109.75C148.32,-102.42 155.17,-91.73 160.97,-82.7"/>
<polygon fill="#63b8ff" stroke="#63b8ff" points="164.04,-84.4 166.49,-74.09 158.14,-80.62 164.04,-84.4"/>
</g>
<!-- Node5 -->
<g id="node5" class="node">
<title>Node5</title>
<g id="a_node5"><a xlink:href="core_8hpp.html" target="_top" xlink:title="Provides platform and dependency checks.">
<polygon fill="white" stroke="#666666" points="281,-74 211,-74 211,-55 281,-55 281,-74"/>
<text text-anchor="middle" x="246" y="-62" font-family="Helvetica,sans-Serif" font-size="10.00">bio/core.hpp</text>
</a>
</g>
</g>
<!-- Node1&#45;&gt;Node5 -->
<g id="edge4" class="edge">
<title>Node1&#45;&gt;Node5</title>
<path fill="none" stroke="#63b8ff" d="M155.35,-109.98C172.57,-101.54 199.2,-88.47 219.15,-78.68"/>
<polygon fill="#63b8ff" stroke="#63b8ff" points="220.9,-81.72 228.33,-74.17 217.81,-75.43 220.9,-81.72"/>
</g>
<!-- Node6 -->
<g id="node6" class="node">
<title>Node6</title>
<g id="a_node6"><a target="_blank" xlink:href="https://en.cppreference.com/w/cpp/header/cinttypes.html" xlink:title=" ">
<polygon fill="white" stroke="#666666" points="169,-19 113,-19 113,0 169,0 169,-19"/>
<text text-anchor="middle" x="141" y="-7" font-family="Helvetica,sans-Serif" font-size="10.00">cinttypes</text>
</a>
</g>
</g>
<!-- Node5&#45;&gt;Node6 -->
<g id="edge5" class="edge">
<title>Node5&#45;&gt;Node6</title>
<path fill="none" stroke="#63b8ff" d="M229.13,-54.98C212.39,-46.54 186.5,-33.47 167.11,-23.68"/>
<polygon fill="#63b8ff" stroke="#63b8ff" points="168.68,-20.55 158.18,-19.17 165.53,-26.8 168.68,-20.55"/>
</g>
<!-- Node7 -->
<g id="node7" class="node">
<title>Node7</title>
<g id="a_node7"><a target="_blank" xlink:href="https://en.cppreference.com/w/cpp/header/ciso646.html" xlink:title=" ">
<polygon fill="white" stroke="#666666" points="237,-19 187,-19 187,0 237,0 237,-19"/>
<text text-anchor="middle" x="212" y="-7" font-family="Helvetica,sans-Serif" font-size="10.00">ciso646</text>
</a>
</g>
</g>
<!-- Node5&#45;&gt;Node7 -->
<g id="edge6" class="edge">
<title>Node5&#45;&gt;Node7</title>
<path fill="none" stroke="#63b8ff" d="M240.39,-54.75C235.68,-47.42 228.83,-36.73 223.03,-27.7"/>
<polygon fill="#63b8ff" stroke="#63b8ff" points="225.86,-25.62 217.51,-19.09 219.96,-29.4 225.86,-25.62"/>
</g>
<!-- Node8 -->
<g id="node8" class="node">
<title>Node8</title>
<g id="a_node8"><a target="_blank" xlink:href="https://en.cppreference.com/w/cpp/header/cstddef.html" xlink:title=" ">
<polygon fill="white" stroke="#666666" points="304.5,-19 255.5,-19 255.5,0 304.5,0 304.5,-19"/>
<text text-anchor="middle" x="280" y="-7" font-family="Helvetica,sans-Serif" font-size="10.00">cstddef</text>
</a>
</g>
</g>
<!-- Node5&#45;&gt;Node8 -->
<g id="edge7" class="edge">
<title>Node5&#45;&gt;Node8</title>
<path fill="none" stroke="#63b8ff" d="M251.61,-54.75C256.32,-47.42 263.17,-36.73 268.97,-27.7"/>
<polygon fill="#63b8ff" stroke="#63b8ff" points="272.04,-29.4 274.49,-19.09 266.14,-25.62 272.04,-29.4"/>
</g>
<!-- Node9 -->
<g id="node9" class="node">
<title>Node9</title>
<g id="a_node9"><a target="_blank" xlink:href="https://en.cppreference.com/w/cpp/header/string_view.html" xlink:title=" ">
<polygon fill="white" stroke="#666666" points="389,-19 323,-19 323,0 389,0 389,-19"/>
<text text-anchor="middle" x="356" y="-7" font-family="Helvetica,sans-Serif" font-size="10.00">string_view</text>
</a>
</g>
</g>
<!-- Node5&#45;&gt;Node9 -->
<g id="edge8" class="edge">
<title>Node5&#45;&gt;Node9</title>
<path fill="none" stroke="#63b8ff" d="M263.67,-54.98C281.29,-46.5 308.58,-33.35 328.93,-23.54"/>
<polygon fill="#63b8ff" stroke="#63b8ff" points="330.52,-26.66 338.01,-19.17 327.48,-20.36 330.52,-26.66"/>
</g>
</g>
</svg>
