<?xml version="1.0" encoding="UTF-8" standalone="no"?>
<!DOCTYPE svg PUBLIC "-//W3C//DTD SVG 1.1//EN"
 "http://www.w3.org/Graphics/SVG/1.1/DTD/svg11.dtd">
<!-- Generated by graphviz version 2.43.0 (0)
 -->
<!-- Title: bio/alphabet/gap/gapped.hpp Pages: 1 -->
<svg width="1622pt" height="821pt"
 viewBox="0.00 0.00 1621.89 821.00" xmlns="http://www.w3.org/2000/svg" xmlns:xlink="http://www.w3.org/1999/xlink">
<g id="graph0" class="graph" transform="scale(1 1) rotate(0) translate(4 817)">
<title>bio/alphabet/gap/gapped.hpp</title>
<polygon fill="white" stroke="transparent" points="-4,4 -4,-817 1617.89,-817 1617.89,4 -4,4"/>
<!-- Node1 -->
<g id="node1" class="node">
<title>Node1</title>
<g id="a_node1"><a xlink:title="Provides bio::gapped.">
<polygon fill="#bfbfbf" stroke="black" points="628.89,-793.5 628.89,-812.5 786.89,-812.5 786.89,-793.5 628.89,-793.5"/>
<text text-anchor="middle" x="707.89" y="-800.5" font-family="Helvetica,sans-Serif" font-size="10.00">bio/alphabet/gap/gapped.hpp</text>
</a>
</g>
</g>
<!-- Node2 -->
<g id="node2" class="node">
<title>Node2</title>
<g id="a_node2"><a xlink:href="gap_8hpp.html" target="_top" xlink:title="Provides bio::gap.">
<polygon fill="white" stroke="black" points="402.89,-397 402.89,-416 542.89,-416 542.89,-397 402.89,-397"/>
<text text-anchor="middle" x="472.89" y="-404" font-family="Helvetica,sans-Serif" font-size="10.00">bio/alphabet/gap/gap.hpp</text>
</a>
</g>
</g>
<!-- Node1&#45;&gt;Node2 -->
<g id="edge1" class="edge">
<title>Node1&#45;&gt;Node2</title>
<path fill="none" stroke="midnightblue" d="M656.95,-793.49C596.24,-780.09 502.89,-747.75 502.89,-675.5 502.89,-675.5 502.89,-675.5 502.89,-539.5 502.89,-498.15 488.72,-451.28 479.85,-426.01"/>
<polygon fill="midnightblue" stroke="midnightblue" points="483.03,-424.51 476.33,-416.31 476.45,-426.9 483.03,-424.51"/>
</g>
<!-- Node27 -->
<g id="node27" class="node">
<title>Node27</title>
<g id="a_node27"><a xlink:href="alphabet__variant_8hpp.html" target="_top" xlink:title="Provides bio::alphabet_variant.">
<polygon fill="white" stroke="black" points="1046.39,-726.5 1046.39,-756.5 1177.39,-756.5 1177.39,-726.5 1046.39,-726.5"/>
<text text-anchor="start" x="1054.39" y="-744.5" font-family="Helvetica,sans-Serif" font-size="10.00">bio/alphabet/composite</text>
<text text-anchor="middle" x="1111.89" y="-733.5" font-family="Helvetica,sans-Serif" font-size="10.00">/alphabet_variant.hpp</text>
</a>
</g>
</g>
<!-- Node1&#45;&gt;Node27 -->
<g id="edge43" class="edge">
<title>Node1&#45;&gt;Node27</title>
<path fill="none" stroke="midnightblue" d="M765.77,-793.48C836.77,-783.02 957.32,-765.26 1035.77,-753.71"/>
<polygon fill="midnightblue" stroke="midnightblue" points="1036.68,-757.11 1046.07,-752.19 1035.66,-750.19 1036.68,-757.11"/>
</g>
<!-- Node3 -->
<g id="node3" class="node">
<title>Node3</title>
<g id="a_node3"><a target="_blank" xlink:href="https://en.cppreference.com/w/cpp/header/cassert.html" xlink:title=" ">
<polygon fill="white" stroke="black" points="323.89,-263 323.89,-282 375.89,-282 375.89,-263 323.89,-263"/>
<text text-anchor="middle" x="349.89" y="-270" font-family="Helvetica,sans-Serif" font-size="10.00">cassert</text>
</a>
</g>
</g>
<!-- Node2&#45;&gt;Node3 -->
<g id="edge2" class="edge">
<title>Node2&#45;&gt;Node3</title>
<path fill="none" stroke="midnightblue" d="M464.82,-396.84C444.49,-375.02 390.92,-317.53 364.73,-289.42"/>
<polygon fill="midnightblue" stroke="midnightblue" points="367.21,-286.95 357.83,-282.02 362.09,-291.72 367.21,-286.95"/>
</g>
<!-- Node4 -->
<g id="node4" class="node">
<title>Node4</title>
<g id="a_node4"><a xlink:href="alphabet__base_8hpp.html" target="_top" xlink:title="Provides bio::alphabet_base.">
<polygon fill="white" stroke="black" points="599.39,-324.5 599.39,-354.5 722.39,-354.5 722.39,-324.5 599.39,-324.5"/>
<text text-anchor="start" x="607.39" y="-342.5" font-family="Helvetica,sans-Serif" font-size="10.00">bio/alphabet/alphabet</text>
<text text-anchor="middle" x="660.89" y="-331.5" font-family="Helvetica,sans-Serif" font-size="10.00">_base.hpp</text>
</a>
</g>
</g>
<!-- Node2&#45;&gt;Node4 -->
<g id="edge3" class="edge">
<title>Node2&#45;&gt;Node4</title>
<path fill="none" stroke="midnightblue" d="M497.86,-396.87C526.55,-386.95 574.39,-370.41 610.84,-357.81"/>
<polygon fill="midnightblue" stroke="midnightblue" points="612.01,-361.1 620.32,-354.53 609.72,-354.49 612.01,-361.1"/>
</g>
<!-- Node4&#45;&gt;Node3 -->
<g id="edge4" class="edge">
<title>Node4&#45;&gt;Node3</title>
<path fill="none" stroke="midnightblue" d="M599.1,-326.68C594.29,-325.77 589.51,-324.87 584.89,-324 498.27,-307.74 474.94,-311.1 389.89,-288 387.08,-287.24 384.19,-286.37 381.31,-285.44"/>
<polygon fill="midnightblue" stroke="midnightblue" points="382.28,-282.07 371.69,-282.14 380.01,-288.69 382.28,-282.07"/>
</g>
<!-- Node5 -->
<g id="node5" class="node">
<title>Node5</title>
<g id="a_node5"><a xlink:href="alphabet_2concept_8hpp.html" target="_top" xlink:title="Core alphabet concept and free function/type trait wrappers.">
<polygon fill="white" stroke="black" points="809.89,-263 809.89,-282 949.89,-282 949.89,-263 809.89,-263"/>
<text text-anchor="middle" x="879.89" y="-270" font-family="Helvetica,sans-Serif" font-size="10.00">bio/alphabet/concept.hpp</text>
</a>
</g>
</g>
<!-- Node4&#45;&gt;Node5 -->
<g id="edge5" class="edge">
<title>Node4&#45;&gt;Node5</title>
<path fill="none" stroke="midnightblue" d="M708.14,-324.48C747.91,-312.67 804.08,-296 841.22,-284.98"/>
<polygon fill="midnightblue" stroke="midnightblue" points="842.57,-288.23 851.16,-282.03 840.57,-281.52 842.57,-288.23"/>
</g>
<!-- Node14 -->
<g id="node14" class="node">
<title>Node14</title>
<g id="a_node14"><a target="_blank" xlink:href="https://en.cppreference.com/w/cpp/header/concepts.html" xlink:title=" ">
<polygon fill="white" stroke="black" points="395.89,-118 395.89,-137 455.89,-137 455.89,-118 395.89,-118"/>
<text text-anchor="middle" x="425.89" y="-125" font-family="Helvetica,sans-Serif" font-size="10.00">concepts</text>
</a>
</g>
</g>
<!-- Node4&#45;&gt;Node14 -->
<g id="edge41" class="edge">
<title>Node4&#45;&gt;Node14</title>
<path fill="none" stroke="midnightblue" d="M609.7,-324.48C559.76,-308.06 485.55,-275.88 444.89,-221 428.83,-199.32 425.57,-167.27 425.28,-147.16"/>
<polygon fill="midnightblue" stroke="midnightblue" points="428.78,-147.14 425.38,-137.11 421.79,-147.07 428.78,-147.14"/>
</g>
<!-- Node16 -->
<g id="node16" class="node">
<title>Node16</title>
<g id="a_node16"><a target="_blank" xlink:href="https://en.cppreference.com/w/cpp/header/type_traits.html" xlink:title=" ">
<polygon fill="white" stroke="black" points="1270.39,-56.5 1270.39,-75.5 1339.39,-75.5 1339.39,-56.5 1270.39,-56.5"/>
<text text-anchor="middle" x="1304.89" y="-63.5" font-family="Helvetica,sans-Serif" font-size="10.00">type_traits</text>
</a>
</g>
</g>
<!-- Node4&#45;&gt;Node16 -->
<g id="edge42" class="edge">
<title>Node4&#45;&gt;Node16</title>
<path fill="none" stroke="midnightblue" d="M722.64,-332.6C828.68,-320.97 1050.88,-289.96 1225.89,-221 1261.8,-206.85 1267.84,-197.16 1301.89,-179 1332.76,-162.54 1353.67,-172.86 1371.89,-143 1379.07,-131.24 1378.37,-124.16 1371.89,-112 1364.34,-97.83 1350.13,-87.33 1336.73,-80.06"/>
<polygon fill="midnightblue" stroke="midnightblue" points="1338.19,-76.87 1327.68,-75.53 1335.06,-83.13 1338.19,-76.87"/>
</g>
<!-- Node25 -->
<g id="node25" class="node">
<title>Node25</title>
<g id="a_node25"><a xlink:href="int__types_8hpp.html" target="_top" xlink:title="Provides metaprogramming utilities for integer types.">
<polygon fill="white" stroke="black" points="295.39,-185 295.39,-215 402.39,-215 402.39,-185 295.39,-185"/>
<text text-anchor="start" x="303.39" y="-203" font-family="Helvetica,sans-Serif" font-size="10.00">bio/meta/detail/int</text>
<text text-anchor="middle" x="348.89" y="-192" font-family="Helvetica,sans-Serif" font-size="10.00">_types.hpp</text>
</a>
</g>
</g>
<!-- Node4&#45;&gt;Node25 -->
<g id="edge36" class="edge">
<title>Node4&#45;&gt;Node25</title>
<path fill="none" stroke="midnightblue" d="M599.3,-326.12C532.83,-312.61 435.4,-292.33 427.89,-288 400.49,-272.19 377.3,-243.61 363.27,-223.54"/>
<polygon fill="midnightblue" stroke="midnightblue" points="366.17,-221.57 357.66,-215.25 360.37,-225.49 366.17,-221.57"/>
</g>
<!-- Node6 -->
<g id="node6" class="node">
<title>Node6</title>
<g id="a_node6"><a xlink:href="exception_8hpp.html" target="_top" xlink:title="Exceptions thrown by entities in the alphabet module.">
<polygon fill="white" stroke="black" points="128.39,-190.5 128.39,-209.5 277.39,-209.5 277.39,-190.5 128.39,-190.5"/>
<text text-anchor="middle" x="202.89" y="-197.5" font-family="Helvetica,sans-Serif" font-size="10.00">bio/alphabet/exception.hpp</text>
</a>
</g>
</g>
<!-- Node5&#45;&gt;Node6 -->
<g id="edge6" class="edge">
<title>Node5&#45;&gt;Node6</title>
<path fill="none" stroke="midnightblue" d="M809.64,-268.9C698.21,-264.02 474.34,-251.13 286.89,-221 272.74,-218.73 257.44,-215.36 243.82,-212.03"/>
<polygon fill="midnightblue" stroke="midnightblue" points="244.34,-208.56 233.79,-209.52 242.63,-215.35 244.34,-208.56"/>
</g>
<!-- Node15 -->
<g id="node15" class="node">
<title>Node15</title>
<g id="a_node15"><a xlink:href="cereal_8hpp.html" target="_top" xlink:title="Adaptions of concepts from the Cereal library.">
<polygon fill="white" stroke="black" points="899.39,-118 899.39,-137 1054.39,-137 1054.39,-118 899.39,-118"/>
<text text-anchor="middle" x="976.89" y="-125" font-family="Helvetica,sans-Serif" font-size="10.00">bio/meta/concept/cereal.hpp</text>
</a>
</g>
</g>
<!-- Node5&#45;&gt;Node15 -->
<g id="edge16" class="edge">
<title>Node5&#45;&gt;Node15</title>
<path fill="none" stroke="midnightblue" d="M896.54,-262.87C911.71,-254.21 933.7,-239.5 946.89,-221 962.94,-198.49 970.73,-166.92 974.26,-147.1"/>
<polygon fill="midnightblue" stroke="midnightblue" points="977.73,-147.61 975.85,-137.19 970.81,-146.51 977.73,-147.61"/>
</g>
<!-- Node5&#45;&gt;Node16 -->
<g id="edge35" class="edge">
<title>Node5&#45;&gt;Node16</title>
<path fill="none" stroke="midnightblue" d="M895.21,-262.98C913.14,-252.98 943.73,-235.88 969.89,-221 1054.18,-173.05 1070,-150.75 1158.89,-112 1191.84,-97.64 1230.82,-85.87 1260.21,-77.98"/>
<polygon fill="midnightblue" stroke="midnightblue" points="1261.41,-81.28 1270.18,-75.35 1259.62,-74.51 1261.41,-81.28"/>
</g>
<!-- Node17 -->
<g id="node17" class="node">
<title>Node17</title>
<g id="a_node17"><a xlink:href="core__language_8hpp.html" target="_top" xlink:title="Provides concepts for core language types and relations that don&#39;t have concepts in C++20 (yet).">
<polygon fill="white" stroke="black" points="497.39,-185 497.39,-215 622.39,-215 622.39,-185 497.39,-185"/>
<text text-anchor="start" x="505.39" y="-203" font-family="Helvetica,sans-Serif" font-size="10.00">bio/meta/concept/core</text>
<text text-anchor="middle" x="559.89" y="-192" font-family="Helvetica,sans-Serif" font-size="10.00">_language.hpp</text>
</a>
</g>
</g>
<!-- Node5&#45;&gt;Node17 -->
<g id="edge19" class="edge">
<title>Node5&#45;&gt;Node17</title>
<path fill="none" stroke="midnightblue" d="M833.05,-262.98C783.03,-253.64 701.53,-237.74 631.89,-221 627.52,-219.95 623,-218.81 618.47,-217.64"/>
<polygon fill="midnightblue" stroke="midnightblue" points="619.13,-214.19 608.57,-215.02 617.34,-220.96 619.13,-214.19"/>
</g>
<!-- Node18 -->
<g id="node18" class="node">
<title>Node18</title>
<g id="a_node18"><a xlink:href="customisation__point_8hpp.html" target="_top" xlink:title="Helper utilities for defining customisation point objects.">
<polygon fill="white" stroke="black" points="640.39,-185 640.39,-215 803.39,-215 803.39,-185 640.39,-185"/>
<text text-anchor="start" x="648.39" y="-203" font-family="Helvetica,sans-Serif" font-size="10.00">bio/meta/detail/customisation</text>
<text text-anchor="middle" x="721.89" y="-192" font-family="Helvetica,sans-Serif" font-size="10.00">_point.hpp</text>
</a>
</g>
</g>
<!-- Node5&#45;&gt;Node18 -->
<g id="edge23" class="edge">
<title>Node5&#45;&gt;Node18</title>
<path fill="none" stroke="midnightblue" d="M860.83,-263C836.66,-252.21 794.32,-233.32 762.71,-219.21"/>
<polygon fill="midnightblue" stroke="midnightblue" points="763.84,-215.88 753.28,-215.01 760.99,-222.28 763.84,-215.88"/>
</g>
<!-- Node19 -->
<g id="node19" class="node">
<title>Node19</title>
<g id="a_node19"><a xlink:href="type__inspection_8hpp.html" target="_top" xlink:title="Provides traits to inspect some information of a type, for example its name.">
<polygon fill="white" stroke="black" points="821.89,-185 821.89,-215 937.89,-215 937.89,-185 821.89,-185"/>
<text text-anchor="start" x="829.89" y="-203" font-family="Helvetica,sans-Serif" font-size="10.00">bio/meta/detail/type</text>
<text text-anchor="middle" x="879.89" y="-192" font-family="Helvetica,sans-Serif" font-size="10.00">_inspection.hpp</text>
</a>
</g>
</g>
<!-- Node5&#45;&gt;Node19 -->
<g id="edge25" class="edge">
<title>Node5&#45;&gt;Node19</title>
<path fill="none" stroke="midnightblue" d="M879.89,-262.86C879.89,-253.55 879.89,-238.33 879.89,-225.31"/>
<polygon fill="midnightblue" stroke="midnightblue" points="883.39,-225.08 879.89,-215.08 876.39,-225.08 883.39,-225.08"/>
</g>
<!-- Node23 -->
<g id="node23" class="node">
<title>Node23</title>
<g id="a_node23"><a xlink:href="basic_8hpp.html" target="_top" xlink:title="Provides various type traits on generic types.">
<polygon fill="white" stroke="black" points="1100.89,-185 1100.89,-215 1216.89,-215 1216.89,-185 1100.89,-185"/>
<text text-anchor="start" x="1108.89" y="-203" font-family="Helvetica,sans-Serif" font-size="10.00">bio/meta/type_traits</text>
<text text-anchor="middle" x="1158.89" y="-192" font-family="Helvetica,sans-Serif" font-size="10.00">/basic.hpp</text>
</a>
</g>
</g>
<!-- Node5&#45;&gt;Node23 -->
<g id="edge31" class="edge">
<title>Node5&#45;&gt;Node23</title>
<path fill="none" stroke="midnightblue" d="M916.25,-263C957.66,-253.23 1027.29,-236.54 1086.89,-221 1090.92,-219.95 1095.06,-218.85 1099.24,-217.73"/>
<polygon fill="midnightblue" stroke="midnightblue" points="1100.25,-221.08 1108.98,-215.08 1098.41,-214.32 1100.25,-221.08"/>
</g>
<!-- Node7 -->
<g id="node7" class="node">
<title>Node7</title>
<g id="a_node7"><a target="_blank" xlink:href="https://en.cppreference.com/w/cpp/header/stdexcept.html" xlink:title=" ">
<polygon fill="white" stroke="black" points="174.39,-118 174.39,-137 239.39,-137 239.39,-118 174.39,-118"/>
<text text-anchor="middle" x="206.89" y="-125" font-family="Helvetica,sans-Serif" font-size="10.00">stdexcept</text>
</a>
</g>
</g>
<!-- Node6&#45;&gt;Node7 -->
<g id="edge7" class="edge">
<title>Node6&#45;&gt;Node7</title>
<path fill="none" stroke="midnightblue" d="M203.38,-190.36C203.99,-179.68 205.03,-161.22 205.83,-147.23"/>
<polygon fill="midnightblue" stroke="midnightblue" points="209.32,-147.4 206.4,-137.22 202.34,-147 209.32,-147.4"/>
</g>
<!-- Node8 -->
<g id="node8" class="node">
<title>Node8</title>
<g id="a_node8"><a target="_blank" xlink:href="https://en.cppreference.com/w/cpp/header/string.html" xlink:title=" ">
<polygon fill="white" stroke="black" points="63.89,-56.5 63.89,-75.5 107.89,-75.5 107.89,-56.5 63.89,-56.5"/>
<text text-anchor="middle" x="85.89" y="-63.5" font-family="Helvetica,sans-Serif" font-size="10.00">string</text>
</a>
</g>
</g>
<!-- Node6&#45;&gt;Node8 -->
<g id="edge8" class="edge">
<title>Node6&#45;&gt;Node8</title>
<path fill="none" stroke="midnightblue" d="M145.34,-190.43C93.45,-181.39 22.77,-165.34 5.89,-143 -2.41,-132.01 -1.06,-123.89 5.89,-112 16.25,-94.29 36.42,-83.01 53.91,-76.18"/>
<polygon fill="midnightblue" stroke="midnightblue" points="55.57,-79.3 63.81,-72.65 53.22,-72.71 55.57,-79.3"/>
</g>
<!-- Node9 -->
<g id="node9" class="node">
<title>Node9</title>
<g id="a_node9"><a xlink:href="pretty__print_8hpp.html" target="_top" xlink:title="Provides pretty printing for chars.">
<polygon fill="white" stroke="black" points="15.39,-112.5 15.39,-142.5 156.39,-142.5 156.39,-112.5 15.39,-112.5"/>
<text text-anchor="start" x="23.39" y="-130.5" font-family="Helvetica,sans-Serif" font-size="10.00">bio/meta/char_operations</text>
<text text-anchor="middle" x="85.89" y="-119.5" font-family="Helvetica,sans-Serif" font-size="10.00">/pretty_print.hpp</text>
</a>
</g>
</g>
<!-- Node6&#45;&gt;Node9 -->
<g id="edge9" class="edge">
<title>Node6&#45;&gt;Node9</title>
<path fill="none" stroke="midnightblue" d="M188.54,-190.36C171.09,-179.84 141.1,-161.77 118.03,-147.86"/>
<polygon fill="midnightblue" stroke="midnightblue" points="119.62,-144.74 109.25,-142.58 116.01,-150.74 119.62,-144.74"/>
</g>
<!-- Node6&#45;&gt;Node14 -->
<g id="edge15" class="edge">
<title>Node6&#45;&gt;Node14</title>
<path fill="none" stroke="midnightblue" d="M229.79,-190.5C269.64,-177.9 344.46,-154.24 389.27,-140.08"/>
<polygon fill="midnightblue" stroke="midnightblue" points="390.42,-143.39 398.9,-137.03 388.31,-136.71 390.42,-143.39"/>
</g>
<!-- Node9&#45;&gt;Node8 -->
<g id="edge10" class="edge">
<title>Node9&#45;&gt;Node8</title>
<path fill="none" stroke="midnightblue" d="M85.89,-112.4C85.89,-104.47 85.89,-94.46 85.89,-85.86"/>
<polygon fill="midnightblue" stroke="midnightblue" points="89.39,-85.66 85.89,-75.66 82.39,-85.66 89.39,-85.66"/>
</g>
<!-- Node10 -->
<g id="node10" class="node">
<title>Node10</title>
<g id="a_node10"><a xlink:href="platform_8hpp.html" target="_top" xlink:title="Provides platform and dependency checks.">
<polygon fill="white" stroke="black" points="553.89,-56.5 553.89,-75.5 679.89,-75.5 679.89,-56.5 553.89,-56.5"/>
<text text-anchor="middle" x="616.89" y="-63.5" font-family="Helvetica,sans-Serif" font-size="10.00">bio/meta/platform.hpp</text>
</a>
</g>
</g>
<!-- Node9&#45;&gt;Node10 -->
<g id="edge11" class="edge">
<title>Node9&#45;&gt;Node10</title>
<path fill="none" stroke="midnightblue" d="M156.48,-113.25C159.32,-112.81 162.13,-112.39 164.89,-112 297.97,-93.19 454.19,-79.48 543.76,-72.42"/>
<polygon fill="midnightblue" stroke="midnightblue" points="544.11,-75.9 553.81,-71.63 543.57,-68.92 544.11,-75.9"/>
</g>
<!-- Node11 -->
<g id="node11" class="node">
<title>Node11</title>
<g id="a_node11"><a target="_blank" xlink:href="https://en.cppreference.com/w/cpp/header/cinttypes.html" xlink:title=" ">
<polygon fill="white" stroke="black" points="509.89,-0.5 509.89,-19.5 571.89,-19.5 571.89,-0.5 509.89,-0.5"/>
<text text-anchor="middle" x="540.89" y="-7.5" font-family="Helvetica,sans-Serif" font-size="10.00">cinttypes</text>
</a>
</g>
</g>
<!-- Node10&#45;&gt;Node11 -->
<g id="edge12" class="edge">
<title>Node10&#45;&gt;Node11</title>
<path fill="none" stroke="midnightblue" d="M604.68,-56.32C593.12,-48.11 575.52,-35.6 561.73,-25.81"/>
<polygon fill="midnightblue" stroke="midnightblue" points="563.5,-22.77 553.32,-19.83 559.45,-28.48 563.5,-22.77"/>
</g>
<!-- Node12 -->
<g id="node12" class="node">
<title>Node12</title>
<g id="a_node12"><a target="_blank" xlink:href="https://en.cppreference.com/w/cpp/header/ciso646.html" xlink:title=" ">
<polygon fill="white" stroke="black" points="589.89,-0.5 589.89,-19.5 643.89,-19.5 643.89,-0.5 589.89,-0.5"/>
<text text-anchor="middle" x="616.89" y="-7.5" font-family="Helvetica,sans-Serif" font-size="10.00">ciso646</text>
</a>
</g>
</g>
<!-- Node10&#45;&gt;Node12 -->
<g id="edge13" class="edge">
<title>Node10&#45;&gt;Node12</title>
<path fill="none" stroke="midnightblue" d="M616.89,-56.08C616.89,-49.01 616.89,-38.86 616.89,-29.99"/>
<polygon fill="midnightblue" stroke="midnightblue" points="620.39,-29.75 616.89,-19.75 613.39,-29.75 620.39,-29.75"/>
</g>
<!-- Node13 -->
<g id="node13" class="node">
<title>Node13</title>
<g id="a_node13"><a target="_blank" xlink:href="https://en.cppreference.com/w/cpp/header/cstddef.html" xlink:title=" ">
<polygon fill="white" stroke="black" points="662.39,-0.5 662.39,-19.5 715.39,-19.5 715.39,-0.5 662.39,-0.5"/>
<text text-anchor="middle" x="688.89" y="-7.5" font-family="Helvetica,sans-Serif" font-size="10.00">cstddef</text>
</a>
</g>
</g>
<!-- Node10&#45;&gt;Node13 -->
<g id="edge14" class="edge">
<title>Node10&#45;&gt;Node13</title>
<path fill="none" stroke="midnightblue" d="M628.46,-56.32C639.31,-48.18 655.77,-35.84 668.77,-26.09"/>
<polygon fill="midnightblue" stroke="midnightblue" points="671.21,-28.63 677.11,-19.83 667.01,-23.03 671.21,-28.63"/>
</g>
<!-- Node15&#45;&gt;Node10 -->
<g id="edge18" class="edge">
<title>Node15&#45;&gt;Node10</title>
<path fill="none" stroke="midnightblue" d="M926.42,-117.95C914.75,-115.99 902.39,-113.91 890.89,-112 818.26,-99.91 734.76,-86.23 679.21,-77.16"/>
<polygon fill="midnightblue" stroke="midnightblue" points="679.61,-73.68 669.17,-75.52 678.48,-80.58 679.61,-73.68"/>
</g>
<!-- Node15&#45;&gt;Node16 -->
<g id="edge17" class="edge">
<title>Node15&#45;&gt;Node16</title>
<path fill="none" stroke="midnightblue" d="M1023.89,-117.98C1086.98,-106.53 1198.28,-86.34 1260.18,-75.11"/>
<polygon fill="midnightblue" stroke="midnightblue" points="1260.83,-78.55 1270.04,-73.32 1259.58,-71.66 1260.83,-78.55"/>
</g>
<!-- Node17&#45;&gt;Node10 -->
<g id="edge21" class="edge">
<title>Node17&#45;&gt;Node10</title>
<path fill="none" stroke="midnightblue" d="M552.41,-184.81C544.01,-166.77 533.13,-135.19 545.89,-112 553.78,-97.66 568.38,-87.25 582.29,-80.08"/>
<polygon fill="midnightblue" stroke="midnightblue" points="584.18,-83.06 591.73,-75.62 581.19,-76.73 584.18,-83.06"/>
</g>
<!-- Node17&#45;&gt;Node14 -->
<g id="edge22" class="edge">
<title>Node17&#45;&gt;Node14</title>
<path fill="none" stroke="midnightblue" d="M533.1,-184.9C509.2,-172.33 474.47,-154.06 451.08,-141.75"/>
<polygon fill="midnightblue" stroke="midnightblue" points="452.59,-138.59 442.11,-137.03 449.33,-144.79 452.59,-138.59"/>
</g>
<!-- Node17&#45;&gt;Node16 -->
<g id="edge20" class="edge">
<title>Node17&#45;&gt;Node16</title>
<path fill="none" stroke="midnightblue" d="M570.4,-184.75C586.31,-164.43 618.64,-127.87 655.89,-112 764.92,-65.55 1131.3,-65.02 1259.85,-66.33"/>
<polygon fill="midnightblue" stroke="midnightblue" points="1260.08,-69.83 1270.12,-66.45 1260.16,-62.83 1260.08,-69.83"/>
</g>
<!-- Node18&#45;&gt;Node10 -->
<g id="edge24" class="edge">
<title>Node18&#45;&gt;Node10</title>
<path fill="none" stroke="midnightblue" d="M676.71,-184.92C656.46,-176.19 634.37,-162.77 621.89,-143 611.11,-125.92 611.42,-102.16 613.41,-85.78"/>
<polygon fill="midnightblue" stroke="midnightblue" points="616.89,-86.2 614.95,-75.79 609.97,-85.14 616.89,-86.2"/>
</g>
<!-- Node19&#45;&gt;Node8 -->
<g id="edge28" class="edge">
<title>Node19&#45;&gt;Node8</title>
<path fill="none" stroke="midnightblue" d="M835.01,-184.93C827.65,-182.82 820.08,-180.76 812.89,-179 803.33,-176.66 474.62,-113.51 464.89,-112 337.13,-92.14 183.93,-76.41 118.31,-70.05"/>
<polygon fill="midnightblue" stroke="midnightblue" points="118.47,-66.55 108.18,-69.08 117.8,-73.52 118.47,-66.55"/>
</g>
<!-- Node19&#45;&gt;Node10 -->
<g id="edge30" class="edge">
<title>Node19&#45;&gt;Node10</title>
<path fill="none" stroke="midnightblue" d="M834.23,-184.94C827.11,-182.87 819.82,-180.83 812.89,-179 743.67,-160.75 712.4,-186.95 655.89,-143 637.45,-128.66 626.94,-103.2 621.58,-85.73"/>
<polygon fill="midnightblue" stroke="midnightblue" points="624.82,-84.3 618.77,-75.6 618.07,-86.17 624.82,-84.3"/>
</g>
<!-- Node20 -->
<g id="node20" class="node">
<title>Node20</title>
<g id="a_node20"><a target="_blank" xlink:href="https://en.cppreference.com/w/cpp/header/functional.html" xlink:title=" ">
<polygon fill="white" stroke="black" points="816.39,-118 816.39,-137 881.39,-137 881.39,-118 816.39,-118"/>
<text text-anchor="middle" x="848.89" y="-125" font-family="Helvetica,sans-Serif" font-size="10.00">functional</text>
</a>
</g>
</g>
<!-- Node19&#45;&gt;Node20 -->
<g id="edge26" class="edge">
<title>Node19&#45;&gt;Node20</title>
<path fill="none" stroke="midnightblue" d="M873.62,-184.73C868.8,-173.78 862.12,-158.57 856.91,-146.74"/>
<polygon fill="midnightblue" stroke="midnightblue" points="860.03,-145.14 852.8,-137.39 853.62,-147.96 860.03,-145.14"/>
</g>
<!-- Node21 -->
<g id="node21" class="node">
<title>Node21</title>
<g id="a_node21"><a target="_blank" xlink:href="https://en.cppreference.com/w/cpp/header/memory.html" xlink:title=" ">
<polygon fill="white" stroke="black" points="739.89,-118 739.89,-137 797.89,-137 797.89,-118 739.89,-118"/>
<text text-anchor="middle" x="768.89" y="-125" font-family="Helvetica,sans-Serif" font-size="10.00">memory</text>
</a>
</g>
</g>
<!-- Node19&#45;&gt;Node21 -->
<g id="edge27" class="edge">
<title>Node19&#45;&gt;Node21</title>
<path fill="none" stroke="midnightblue" d="M857.7,-184.9C838.25,-172.55 810.15,-154.71 790.8,-142.41"/>
<polygon fill="midnightblue" stroke="midnightblue" points="792.64,-139.44 782.33,-137.03 788.89,-145.35 792.64,-139.44"/>
</g>
<!-- Node22 -->
<g id="node22" class="node">
<title>Node22</title>
<g id="a_node22"><a target="_blank" xlink:href="https://en.cppreference.com/w/cpp/header/typeinfo.html" xlink:title=" ">
<polygon fill="white" stroke="black" points="664.39,-118 664.39,-137 721.39,-137 721.39,-118 664.39,-118"/>
<text text-anchor="middle" x="692.89" y="-125" font-family="Helvetica,sans-Serif" font-size="10.00">typeinfo</text>
</a>
</g>
</g>
<!-- Node19&#45;&gt;Node22 -->
<g id="edge29" class="edge">
<title>Node19&#45;&gt;Node22</title>
<path fill="none" stroke="midnightblue" d="M842.21,-184.9C812.08,-173.61 768.75,-157.34 730.89,-143 729.01,-142.29 727.08,-141.55 725.12,-140.81"/>
<polygon fill="midnightblue" stroke="midnightblue" points="725.98,-137.39 715.39,-137.11 723.49,-143.93 725.98,-137.39"/>
</g>
<!-- Node23&#45;&gt;Node10 -->
<g id="edge34" class="edge">
<title>Node23&#45;&gt;Node10</title>
<path fill="none" stroke="midnightblue" d="M1148.46,-184.9C1132.67,-164.78 1100.63,-128.45 1063.89,-112 998.98,-82.94 799.71,-72.45 690.45,-68.81"/>
<polygon fill="midnightblue" stroke="midnightblue" points="690.27,-65.31 680.16,-68.48 690.05,-72.3 690.27,-65.31"/>
</g>
<!-- Node23&#45;&gt;Node16 -->
<g id="edge33" class="edge">
<title>Node23&#45;&gt;Node16</title>
<path fill="none" stroke="midnightblue" d="M1158.22,-184.79C1158.11,-165.86 1160.76,-132.38 1178.89,-112 1199.49,-88.84 1232.85,-77.59 1260.07,-72.14"/>
<polygon fill="midnightblue" stroke="midnightblue" points="1260.95,-75.54 1270.17,-70.32 1259.71,-68.65 1260.95,-75.54"/>
</g>
<!-- Node24 -->
<g id="node24" class="node">
<title>Node24</title>
<g id="a_node24"><a target="_blank" xlink:href="https://en.cppreference.com/w/cpp/header/tuple.html" xlink:title=" ">
<polygon fill="white" stroke="black" points="1187.39,-118 1187.39,-137 1228.39,-137 1228.39,-118 1187.39,-118"/>
<text text-anchor="middle" x="1207.89" y="-125" font-family="Helvetica,sans-Serif" font-size="10.00">tuple</text>
</a>
</g>
</g>
<!-- Node23&#45;&gt;Node24 -->
<g id="edge32" class="edge">
<title>Node23&#45;&gt;Node24</title>
<path fill="none" stroke="midnightblue" d="M1168.81,-184.73C1176.65,-173.45 1187.63,-157.65 1195.96,-145.67"/>
<polygon fill="midnightblue" stroke="midnightblue" points="1198.88,-147.6 1201.71,-137.39 1193.13,-143.61 1198.88,-147.6"/>
</g>
<!-- Node25&#45;&gt;Node10 -->
<g id="edge40" class="edge">
<title>Node25&#45;&gt;Node10</title>
<path fill="none" stroke="midnightblue" d="M344.93,-184.96C340.49,-165.91 336.05,-131.97 353.89,-112 378.48,-84.49 474.33,-73.79 543.22,-69.63"/>
<polygon fill="midnightblue" stroke="midnightblue" points="543.81,-73.11 553.6,-69.04 543.42,-66.12 543.81,-73.11"/>
</g>
<!-- Node25&#45;&gt;Node14 -->
<g id="edge37" class="edge">
<title>Node25&#45;&gt;Node14</title>
<path fill="none" stroke="midnightblue" d="M364.47,-184.73C377.28,-173 395.41,-156.4 408.66,-144.28"/>
<polygon fill="midnightblue" stroke="midnightblue" points="411.17,-146.73 416.18,-137.39 406.44,-141.56 411.17,-146.73"/>
</g>
<!-- Node25&#45;&gt;Node16 -->
<g id="edge39" class="edge">
<title>Node25&#45;&gt;Node16</title>
<path fill="none" stroke="midnightblue" d="M350.55,-184.67C353.7,-164.61 362.61,-128.76 386.89,-112 423.17,-86.97 1080.8,-71.62 1260.07,-67.89"/>
<polygon fill="midnightblue" stroke="midnightblue" points="1260.28,-71.39 1270.21,-67.68 1260.14,-64.39 1260.28,-71.39"/>
</g>
<!-- Node26 -->
<g id="node26" class="node">
<title>Node26</title>
<g id="a_node26"><a target="_blank" xlink:href="https://en.cppreference.com/w/cpp/header/limits.html" xlink:title=" ">
<polygon fill="white" stroke="black" points="257.89,-118 257.89,-137 301.89,-137 301.89,-118 257.89,-118"/>
<text text-anchor="middle" x="279.89" y="-125" font-family="Helvetica,sans-Serif" font-size="10.00">limits</text>
</a>
</g>
</g>
<!-- Node25&#45;&gt;Node26 -->
<g id="edge38" class="edge">
<title>Node25&#45;&gt;Node26</title>
<path fill="none" stroke="midnightblue" d="M334.93,-184.73C323.56,-173.12 307.51,-156.72 295.67,-144.62"/>
<polygon fill="midnightblue" stroke="midnightblue" points="298.09,-142.09 288.59,-137.39 293.09,-146.99 298.09,-142.09"/>
</g>
<!-- Node27&#45;&gt;Node3 -->
<g id="edge46" class="edge">
<title>Node27&#45;&gt;Node3</title>
<path fill="none" stroke="midnightblue" d="M1046.36,-738.23C902.33,-731.46 570.89,-705.36 570.89,-608.5 570.89,-608.5 570.89,-608.5 570.89,-405.5 570.89,-383.17 436.17,-315.24 377.1,-286.53"/>
<polygon fill="midnightblue" stroke="midnightblue" points="378.5,-283.32 367.98,-282.12 375.45,-289.62 378.5,-283.32"/>
</g>
<!-- Node27&#45;&gt;Node4 -->
<g id="edge49" class="edge">
<title>Node27&#45;&gt;Node4</title>
<path fill="none" stroke="midnightblue" d="M1046.08,-732.8C931.6,-717.56 707.89,-678.78 707.89,-608.5 707.89,-608.5 707.89,-608.5 707.89,-472.5 707.89,-432.38 688.38,-389.17 674.5,-363.5"/>
<polygon fill="midnightblue" stroke="midnightblue" points="677.44,-361.59 669.51,-354.56 671.33,-365 677.44,-361.59"/>
</g>
<!-- Node28 -->
<g id="node28" class="node">
<title>Node28</title>
<g id="a_node28"><a target="_blank" xlink:href="https://en.cppreference.com/w/cpp/header/algorithm.html" xlink:title=" ">
<polygon fill="white" stroke="black" points="1109.89,-665 1109.89,-684 1173.89,-684 1173.89,-665 1109.89,-665"/>
<text text-anchor="middle" x="1141.89" y="-672" font-family="Helvetica,sans-Serif" font-size="10.00">algorithm</text>
</a>
</g>
</g>
<!-- Node27&#45;&gt;Node28 -->
<g id="edge44" class="edge">
<title>Node27&#45;&gt;Node28</title>
<path fill="none" stroke="midnightblue" d="M1118.4,-726.4C1122.85,-716.76 1128.78,-703.91 1133.57,-693.54"/>
<polygon fill="midnightblue" stroke="midnightblue" points="1136.87,-694.74 1137.88,-684.19 1130.51,-691.81 1136.87,-694.74"/>
</g>
<!-- Node29 -->
<g id="node29" class="node">
<title>Node29</title>
<g id="a_node29"><a target="_blank" xlink:href="https://en.cppreference.com/w/cpp/header/array.html" xlink:title=" ">
<polygon fill="white" stroke="black" points="1191.89,-665 1191.89,-684 1233.89,-684 1233.89,-665 1191.89,-665"/>
<text text-anchor="middle" x="1212.89" y="-672" font-family="Helvetica,sans-Serif" font-size="10.00">array</text>
</a>
</g>
</g>
<!-- Node27&#45;&gt;Node29 -->
<g id="edge45" class="edge">
<title>Node27&#45;&gt;Node29</title>
<path fill="none" stroke="midnightblue" d="M1133.81,-726.4C1150.74,-715.5 1174.08,-700.48 1191.01,-689.58"/>
<polygon fill="midnightblue" stroke="midnightblue" points="1193.16,-692.36 1199.67,-684.01 1189.37,-686.48 1193.16,-692.36"/>
</g>
<!-- Node30 -->
<g id="node30" class="node">
<title>Node30</title>
<g id="a_node30"><a target="_blank" xlink:href="https://en.cppreference.com/w/cpp/header/utility.html" xlink:title=" ">
<polygon fill="white" stroke="black" points="1537.39,-330 1537.39,-349 1582.39,-349 1582.39,-330 1537.39,-330"/>
<text text-anchor="middle" x="1559.89" y="-337" font-family="Helvetica,sans-Serif" font-size="10.00">utility</text>
</a>
</g>
</g>
<!-- Node27&#45;&gt;Node30 -->
<g id="edge47" class="edge">
<title>Node27&#45;&gt;Node30</title>
<path fill="none" stroke="midnightblue" d="M1177.88,-735.54C1305.98,-724.09 1575.89,-690.26 1575.89,-608.5 1575.89,-608.5 1575.89,-608.5 1575.89,-472.5 1575.89,-431.86 1568.33,-384.7 1563.6,-359.2"/>
<polygon fill="midnightblue" stroke="midnightblue" points="1566.98,-358.27 1561.66,-349.1 1560.11,-359.59 1566.98,-358.27"/>
</g>
<!-- Node31 -->
<g id="node31" class="node">
<title>Node31</title>
<g id="a_node31"><a target="_blank" xlink:href="https://en.cppreference.com/w/cpp/header/variant.html" xlink:title=" ">
<polygon fill="white" stroke="black" points="1252.39,-665 1252.39,-684 1303.39,-684 1303.39,-665 1252.39,-665"/>
<text text-anchor="middle" x="1277.89" y="-672" font-family="Helvetica,sans-Serif" font-size="10.00">variant</text>
</a>
</g>
</g>
<!-- Node27&#45;&gt;Node31 -->
<g id="edge48" class="edge">
<title>Node27&#45;&gt;Node31</title>
<path fill="none" stroke="midnightblue" d="M1148.97,-726.49C1175.26,-716.48 1211.32,-702.62 1242.89,-690 1244.53,-689.35 1246.21,-688.67 1247.9,-687.98"/>
<polygon fill="midnightblue" stroke="midnightblue" points="1249.64,-691.05 1257.57,-684.02 1246.99,-684.57 1249.64,-691.05"/>
</g>
<!-- Node32 -->
<g id="node32" class="node">
<title>Node32</title>
<g id="a_node32"><a xlink:href="alphabet_2composite_2detail_8hpp_source.html" target="_top" xlink:title=" ">
<polygon fill="white" stroke="black" points="922.39,-659.5 922.39,-689.5 1053.39,-689.5 1053.39,-659.5 922.39,-659.5"/>
<text text-anchor="start" x="930.39" y="-677.5" font-family="Helvetica,sans-Serif" font-size="10.00">bio/alphabet/composite</text>
<text text-anchor="middle" x="987.89" y="-666.5" font-family="Helvetica,sans-Serif" font-size="10.00">/detail.hpp</text>
</a>
</g>
</g>
<!-- Node27&#45;&gt;Node32 -->
<g id="edge50" class="edge">
<title>Node27&#45;&gt;Node32</title>
<path fill="none" stroke="midnightblue" d="M1084.98,-726.4C1067.03,-716.98 1043.22,-704.5 1023.67,-694.26"/>
<polygon fill="midnightblue" stroke="midnightblue" points="1025.23,-691.12 1014.74,-689.58 1021.98,-697.32 1025.23,-691.12"/>
</g>
<!-- Node37 -->
<g id="node37" class="node">
<title>Node37</title>
<g id="a_node37"><a xlink:href="lazy_8hpp.html" target="_top" xlink:title="Provides lazy template instantiation traits.">
<polygon fill="white" stroke="black" points="1184.89,-592.5 1184.89,-622.5 1300.89,-622.5 1300.89,-592.5 1184.89,-592.5"/>
<text text-anchor="start" x="1192.89" y="-610.5" font-family="Helvetica,sans-Serif" font-size="10.00">bio/meta/type_traits</text>
<text text-anchor="middle" x="1242.89" y="-599.5" font-family="Helvetica,sans-Serif" font-size="10.00">/lazy.hpp</text>
</a>
</g>
</g>
<!-- Node27&#45;&gt;Node37 -->
<g id="edge74" class="edge">
<title>Node27&#45;&gt;Node37</title>
<path fill="none" stroke="midnightblue" d="M1104.54,-726.41C1096.56,-708.96 1086.73,-679.06 1100.89,-659 1110.12,-645.92 1142.96,-633.81 1174.73,-624.73"/>
<polygon fill="midnightblue" stroke="midnightblue" points="1175.83,-628.06 1184.53,-622.01 1173.96,-621.31 1175.83,-628.06"/>
</g>
<!-- Node39 -->
<g id="node39" class="node">
<title>Node39</title>
<g id="a_node39"><a xlink:href="type__list_2traits_8hpp.html" target="_top" xlink:title="Provides traits for bio::type_list.">
<polygon fill="white" stroke="black" points="1315.39,-458.5 1315.39,-488.5 1420.39,-488.5 1420.39,-458.5 1315.39,-458.5"/>
<text text-anchor="start" x="1323.39" y="-476.5" font-family="Helvetica,sans-Serif" font-size="10.00">bio/meta/type_list</text>
<text text-anchor="middle" x="1367.89" y="-465.5" font-family="Helvetica,sans-Serif" font-size="10.00">/traits.hpp</text>
</a>
</g>
</g>
<!-- Node27&#45;&gt;Node39 -->
<g id="edge73" class="edge">
<title>Node27&#45;&gt;Node39</title>
<path fill="none" stroke="midnightblue" d="M1177.64,-731.34C1228.66,-722.92 1293.82,-708.9 1312.89,-690 1365.36,-638.02 1370.13,-543.4 1369.18,-498.88"/>
<polygon fill="midnightblue" stroke="midnightblue" points="1372.67,-498.58 1368.85,-488.7 1365.68,-498.81 1372.67,-498.58"/>
</g>
<!-- Node32&#45;&gt;Node5 -->
<g id="edge51" class="edge">
<title>Node32&#45;&gt;Node5</title>
<path fill="none" stroke="midnightblue" d="M981.29,-659.2C970.9,-635.34 951.89,-585.68 951.89,-541.5 951.89,-541.5 951.89,-541.5 951.89,-405.5 951.89,-359 917.03,-313.3 895.83,-289.8"/>
<polygon fill="midnightblue" stroke="midnightblue" points="898.1,-287.11 888.72,-282.19 892.98,-291.89 898.1,-287.11"/>
</g>
<!-- Node32&#45;&gt;Node17 -->
<g id="edge52" class="edge">
<title>Node32&#45;&gt;Node17</title>
<path fill="none" stroke="midnightblue" d="M922.2,-662.05C858.66,-646.75 771.89,-612.81 771.89,-541.5 771.89,-541.5 771.89,-541.5 771.89,-338.5 771.89,-298.75 665.68,-246.39 603.61,-219.18"/>
<polygon fill="midnightblue" stroke="midnightblue" points="604.99,-215.96 594.42,-215.19 602.21,-222.38 604.99,-215.96"/>
</g>
<!-- Node33 -->
<g id="node33" class="node">
<title>Node33</title>
<g id="a_node33"><a xlink:href="type__list_8hpp.html" target="_top" xlink:title="Provides bio::type_list.">
<polygon fill="white" stroke="black" points="1316.39,-324.5 1316.39,-354.5 1421.39,-354.5 1421.39,-324.5 1316.39,-324.5"/>
<text text-anchor="start" x="1324.39" y="-342.5" font-family="Helvetica,sans-Serif" font-size="10.00">bio/meta/type_list</text>
<text text-anchor="middle" x="1368.89" y="-331.5" font-family="Helvetica,sans-Serif" font-size="10.00">/type_list.hpp</text>
</a>
</g>
</g>
<!-- Node32&#45;&gt;Node33 -->
<g id="edge53" class="edge">
<title>Node32&#45;&gt;Node33</title>
<path fill="none" stroke="midnightblue" d="M1004.26,-659.19C1064.47,-606.57 1273.8,-423.61 1344.98,-361.4"/>
<polygon fill="midnightblue" stroke="midnightblue" points="1347.35,-363.97 1352.58,-354.76 1342.75,-358.7 1347.35,-363.97"/>
</g>
<!-- Node32&#45;&gt;Node37 -->
<g id="edge61" class="edge">
<title>Node32&#45;&gt;Node37</title>
<path fill="none" stroke="midnightblue" d="M1042.91,-659.48C1082.49,-649.39 1136.02,-635.74 1177.74,-625.11"/>
<polygon fill="midnightblue" stroke="midnightblue" points="1178.71,-628.47 1187.53,-622.61 1176.98,-621.69 1178.71,-628.47"/>
</g>
<!-- Node34 -->
<g id="node34" class="node">
<title>Node34</title>
<g id="a_node34"><a xlink:href="template__inspection_8hpp.html" target="_top" xlink:title="Provides bio::type_list and auxiliary type traits.">
<polygon fill="white" stroke="black" points="1298.89,-257.5 1298.89,-287.5 1438.89,-287.5 1438.89,-257.5 1298.89,-257.5"/>
<text text-anchor="start" x="1306.89" y="-275.5" font-family="Helvetica,sans-Serif" font-size="10.00">bio/meta/type_traits</text>
<text text-anchor="middle" x="1368.89" y="-264.5" font-family="Helvetica,sans-Serif" font-size="10.00">/template_inspection.hpp</text>
</a>
</g>
</g>
<!-- Node33&#45;&gt;Node34 -->
<g id="edge54" class="edge">
<title>Node33&#45;&gt;Node34</title>
<path fill="none" stroke="midnightblue" d="M1368.89,-324.4C1368.89,-316.64 1368.89,-306.81 1368.89,-297.86"/>
<polygon fill="midnightblue" stroke="midnightblue" points="1372.39,-297.58 1368.89,-287.58 1365.39,-297.58 1372.39,-297.58"/>
</g>
<!-- Node34&#45;&gt;Node14 -->
<g id="edge60" class="edge">
<title>Node34&#45;&gt;Node14</title>
<path fill="none" stroke="midnightblue" d="M1298.7,-269.16C1096.33,-262.2 523.93,-240.84 488.89,-221 459.83,-204.55 441.39,-168.49 432.41,-146.57"/>
<polygon fill="midnightblue" stroke="midnightblue" points="435.62,-145.17 428.76,-137.09 429.09,-147.68 435.62,-145.17"/>
</g>
<!-- Node35 -->
<g id="node35" class="node">
<title>Node35</title>
<g id="a_node35"><a xlink:href="transformation__trait__or_8hpp.html" target="_top" xlink:title="Provides bio::detail::transformation_trait_or.">
<polygon fill="white" stroke="black" points="1310.89,-179.5 1310.89,-220.5 1428.89,-220.5 1428.89,-179.5 1310.89,-179.5"/>
<text text-anchor="start" x="1318.89" y="-208.5" font-family="Helvetica,sans-Serif" font-size="10.00">bio/meta/type_traits</text>
<text text-anchor="start" x="1318.89" y="-197.5" font-family="Helvetica,sans-Serif" font-size="10.00">/transformation_trait</text>
<text text-anchor="middle" x="1369.89" y="-186.5" font-family="Helvetica,sans-Serif" font-size="10.00">_or.hpp</text>
</a>
</g>
</g>
<!-- Node34&#45;&gt;Node35 -->
<g id="edge55" class="edge">
<title>Node34&#45;&gt;Node35</title>
<path fill="none" stroke="midnightblue" d="M1369.09,-257.23C1369.2,-249.57 1369.34,-239.84 1369.47,-230.63"/>
<polygon fill="midnightblue" stroke="midnightblue" points="1372.97,-230.64 1369.61,-220.59 1365.97,-230.54 1372.97,-230.64"/>
</g>
<!-- Node35&#45;&gt;Node16 -->
<g id="edge56" class="edge">
<title>Node35&#45;&gt;Node16</title>
<path fill="none" stroke="midnightblue" d="M1388.05,-179.31C1402.67,-160.97 1418.68,-133.33 1404.89,-112 1392.54,-92.9 1369.95,-81.83 1349.35,-75.45"/>
<polygon fill="midnightblue" stroke="midnightblue" points="1350.03,-72.01 1339.46,-72.68 1348.14,-78.75 1350.03,-72.01"/>
</g>
<!-- Node36 -->
<g id="node36" class="node">
<title>Node36</title>
<g id="a_node36"><a xlink:href="meta_2type__traits_2concept_8hpp.html" target="_top" xlink:title="Provides the concepts bio::transformation_trait and bio::unary_type_trait.">
<polygon fill="white" stroke="black" points="1246.89,-112.5 1246.89,-142.5 1362.89,-142.5 1362.89,-112.5 1246.89,-112.5"/>
<text text-anchor="start" x="1254.89" y="-130.5" font-family="Helvetica,sans-Serif" font-size="10.00">bio/meta/type_traits</text>
<text text-anchor="middle" x="1304.89" y="-119.5" font-family="Helvetica,sans-Serif" font-size="10.00">/concept.hpp</text>
</a>
</g>
</g>
<!-- Node35&#45;&gt;Node36 -->
<g id="edge57" class="edge">
<title>Node35&#45;&gt;Node36</title>
<path fill="none" stroke="midnightblue" d="M1351.78,-179.36C1343.45,-170.32 1333.53,-159.57 1324.97,-150.28"/>
<polygon fill="midnightblue" stroke="midnightblue" points="1327.51,-147.87 1318.16,-142.89 1322.37,-152.62 1327.51,-147.87"/>
</g>
<!-- Node36&#45;&gt;Node10 -->
<g id="edge59" class="edge">
<title>Node36&#45;&gt;Node10</title>
<path fill="none" stroke="midnightblue" d="M1246.88,-113.42C1243.84,-112.9 1240.84,-112.42 1237.89,-112 1041.33,-83.75 807.09,-72.87 690.47,-68.98"/>
<polygon fill="midnightblue" stroke="midnightblue" points="690.34,-65.48 680.23,-68.65 690.11,-72.47 690.34,-65.48"/>
</g>
<!-- Node36&#45;&gt;Node16 -->
<g id="edge58" class="edge">
<title>Node36&#45;&gt;Node16</title>
<path fill="none" stroke="midnightblue" d="M1304.89,-112.4C1304.89,-104.47 1304.89,-94.46 1304.89,-85.86"/>
<polygon fill="midnightblue" stroke="midnightblue" points="1308.39,-85.66 1304.89,-75.66 1301.39,-85.66 1308.39,-85.66"/>
</g>
<!-- Node37&#45;&gt;Node16 -->
<g id="edge63" class="edge">
<title>Node37&#45;&gt;Node16</title>
<path fill="none" stroke="midnightblue" d="M1301.27,-593.36C1405.75,-566.02 1613.89,-492.47 1613.89,-340.5 1613.89,-340.5 1613.89,-340.5 1613.89,-199 1613.89,-85.46 1435.28,-68.27 1349.65,-66.55"/>
<polygon fill="midnightblue" stroke="midnightblue" points="1349.49,-63.04 1339.44,-66.41 1349.39,-70.04 1349.49,-63.04"/>
</g>
<!-- Node37&#45;&gt;Node24 -->
<g id="edge62" class="edge">
<title>Node37&#45;&gt;Node24</title>
<path fill="none" stroke="midnightblue" d="M1232.08,-592.37C1225.4,-582.71 1217.43,-569.29 1213.89,-556 1210.34,-542.69 1213.62,-538.78 1213.89,-525 1216.56,-389.81 1223.22,-356.19 1225.89,-221 1226.26,-202.34 1229.07,-197.39 1225.89,-179 1223.98,-167.94 1219.87,-156.09 1216.06,-146.65"/>
<polygon fill="midnightblue" stroke="midnightblue" points="1219.17,-145.01 1212.02,-137.19 1212.73,-147.76 1219.17,-145.01"/>
</g>
<!-- Node38 -->
<g id="node38" class="node">
<title>Node38</title>
<g id="a_node38"><a xlink:href="function_8hpp.html" target="_top" xlink:title="Provides various type traits for use on functions.">
<polygon fill="white" stroke="black" points="1222.89,-525.5 1222.89,-555.5 1338.89,-555.5 1338.89,-525.5 1222.89,-525.5"/>
<text text-anchor="start" x="1230.89" y="-543.5" font-family="Helvetica,sans-Serif" font-size="10.00">bio/meta/type_traits</text>
<text text-anchor="middle" x="1280.89" y="-532.5" font-family="Helvetica,sans-Serif" font-size="10.00">/function.hpp</text>
</a>
</g>
</g>
<!-- Node37&#45;&gt;Node38 -->
<g id="edge64" class="edge">
<title>Node37&#45;&gt;Node38</title>
<path fill="none" stroke="midnightblue" d="M1251.14,-592.4C1255.92,-584.22 1262.05,-573.73 1267.51,-564.39"/>
<polygon fill="midnightblue" stroke="midnightblue" points="1270.64,-565.98 1272.66,-555.58 1264.59,-562.44 1270.64,-565.98"/>
</g>
<!-- Node38&#45;&gt;Node20 -->
<g id="edge65" class="edge">
<title>Node38&#45;&gt;Node20</title>
<path fill="none" stroke="midnightblue" d="M1272.09,-525.46C1258.23,-501.99 1232.89,-452.86 1232.89,-407.5 1232.89,-407.5 1232.89,-407.5 1232.89,-338.5 1232.89,-298.13 968.22,-180.05 878.34,-141.12"/>
<polygon fill="midnightblue" stroke="midnightblue" points="879.56,-137.83 869,-137.08 876.79,-144.26 879.56,-137.83"/>
</g>
<!-- Node38&#45;&gt;Node39 -->
<g id="edge66" class="edge">
<title>Node38&#45;&gt;Node39</title>
<path fill="none" stroke="midnightblue" d="M1299.77,-525.4C1311.74,-516.45 1327.42,-504.74 1340.72,-494.8"/>
<polygon fill="midnightblue" stroke="midnightblue" points="1343.13,-497.37 1349.05,-488.58 1338.94,-491.76 1343.13,-497.37"/>
</g>
<!-- Node39&#45;&gt;Node16 -->
<g id="edge67" class="edge">
<title>Node39&#45;&gt;Node16</title>
<path fill="none" stroke="midnightblue" d="M1377.04,-458.21C1390.51,-436.62 1415.73,-394.06 1430.89,-355 1459.22,-282.02 1452.52,-255.9 1437.89,-179 1432.15,-148.82 1441.25,-135 1420.89,-112 1402.58,-91.32 1373.62,-80.07 1349.21,-73.99"/>
<polygon fill="midnightblue" stroke="midnightblue" points="1349.95,-70.57 1339.43,-71.76 1348.4,-77.39 1349.95,-70.57"/>
</g>
<!-- Node39&#45;&gt;Node33 -->
<g id="edge68" class="edge">
<title>Node39&#45;&gt;Node33</title>
<path fill="none" stroke="midnightblue" d="M1368,-458.37C1368.17,-436.04 1368.5,-392.31 1368.71,-364.85"/>
<polygon fill="midnightblue" stroke="midnightblue" points="1372.21,-364.55 1368.78,-354.52 1365.21,-364.5 1372.21,-364.55"/>
</g>
<!-- Node40 -->
<g id="node40" class="node">
<title>Node40</title>
<g id="a_node40"><a xlink:href="type__pack_2traits_8hpp.html" target="_top" xlink:title="Provides various traits for template packs.">
<polygon fill="white" stroke="black" points="1434.39,-391.5 1434.39,-421.5 1547.39,-421.5 1547.39,-391.5 1434.39,-391.5"/>
<text text-anchor="start" x="1442.39" y="-409.5" font-family="Helvetica,sans-Serif" font-size="10.00">bio/meta/type_pack</text>
<text text-anchor="middle" x="1490.89" y="-398.5" font-family="Helvetica,sans-Serif" font-size="10.00">/traits.hpp</text>
</a>
</g>
</g>
<!-- Node39&#45;&gt;Node40 -->
<g id="edge69" class="edge">
<title>Node39&#45;&gt;Node40</title>
<path fill="none" stroke="midnightblue" d="M1394.58,-458.4C1412.39,-448.98 1436.01,-436.5 1455.4,-426.26"/>
<polygon fill="midnightblue" stroke="midnightblue" points="1457.05,-429.34 1464.25,-421.58 1453.78,-423.15 1457.05,-429.34"/>
</g>
<!-- Node40&#45;&gt;Node16 -->
<g id="edge70" class="edge">
<title>Node40&#45;&gt;Node16</title>
<path fill="none" stroke="midnightblue" d="M1493.39,-391.29C1497.42,-367.16 1504.89,-316.59 1504.89,-273.5 1504.89,-273.5 1504.89,-273.5 1504.89,-199 1504.89,-158.89 1509.52,-140.09 1480.89,-112 1446.18,-77.93 1389.42,-68.58 1349.77,-66.53"/>
<polygon fill="midnightblue" stroke="midnightblue" points="1349.7,-63.02 1339.58,-66.14 1349.44,-70.02 1349.7,-63.02"/>
</g>
<!-- Node40&#45;&gt;Node30 -->
<g id="edge71" class="edge">
<title>Node40&#45;&gt;Node30</title>
<path fill="none" stroke="midnightblue" d="M1505.86,-391.4C1516.83,-381.06 1531.74,-367.02 1543.11,-356.31"/>
<polygon fill="midnightblue" stroke="midnightblue" points="1545.78,-358.6 1550.66,-349.19 1540.98,-353.5 1545.78,-358.6"/>
</g>
<!-- Node40&#45;&gt;Node33 -->
<g id="edge72" class="edge">
<title>Node40&#45;&gt;Node33</title>
<path fill="none" stroke="midnightblue" d="M1464.42,-391.4C1446.83,-382.03 1423.54,-369.62 1404.36,-359.39"/>
<polygon fill="midnightblue" stroke="midnightblue" points="1405.78,-356.19 1395.31,-354.58 1402.49,-362.37 1405.78,-356.19"/>
</g>
</g>
</svg>
