<?xml version="1.0" encoding="UTF-8" standalone="no"?>
<!DOCTYPE svg PUBLIC "-//W3C//DTD SVG 1.1//EN"
 "http://www.w3.org/Graphics/SVG/1.1/DTD/svg11.dtd">
<!-- Generated by graphviz version 2.42.2 ()
 -->
<!-- Title: Ranges Pages: 1 -->
<svg width="153pt" height="64pt"
 viewBox="0.00 0.00 153.00 64.00" xmlns="http://www.w3.org/2000/svg" xmlns:xlink="http://www.w3.org/1999/xlink">
<g id="graph0" class="graph" transform="scale(1 1) rotate(0) translate(4 60)">
<title>Ranges</title>
<polygon fill="white" stroke="transparent" points="-4,4 -4,-60 149,-60 149,4 -4,4"/>
<!-- Node2 -->
<g id="node1" class="node">
<title>Node2</title>
<g id="a_node1"><a xlink:href="group__container.html" target="_top" xlink:title="The container submodule contains special BioC++ containers and generic container concepts.">
<polygon fill="white" stroke="black" points="145,-56 86,-56 86,-37 145,-37 145,-56"/>
<text text-anchor="middle" x="115.5" y="-44" font-family="Helvetica,sans-Serif" font-size="10.00">Container</text>
</a>
</g>
</g>
<!-- Node1 -->
<g id="node2" class="node">
<title>Node1</title>
<g id="a_node2"><a xlink:title="The ranges module provides general purpose containers, decorators and views.">
<polygon fill="#bfbfbf" stroke="black" points="50,-37 0,-37 0,-18 50,-18 50,-37"/>
<text text-anchor="middle" x="25" y="-25" font-family="Helvetica,sans-Serif" font-size="10.00">Ranges</text>
</a>
</g>
</g>
<!-- Node1&#45;&gt;Node2 -->
<g id="edge1" class="edge">
<title>Node1&#45;&gt;Node2</title>
<path fill="none" stroke="black" d="M60.21,-34.84C68.72,-36.67 77.75,-38.61 85.95,-40.37"/>
<polygon fill="black" stroke="black" points="60.69,-31.37 50.18,-32.69 59.23,-38.21 60.69,-31.37"/>
</g>
<!-- Node3 -->
<g id="node3" class="node">
<title>Node3</title>
<g id="a_node3"><a xlink:href="group__views.html" target="_top" xlink:title="Views are &quot;lazy range combinators&quot; that offer modified views onto other ranges.">
<polygon fill="white" stroke="black" points="137.5,-19 93.5,-19 93.5,0 137.5,0 137.5,-19"/>
<text text-anchor="middle" x="115.5" y="-7" font-family="Helvetica,sans-Serif" font-size="10.00">Views</text>
</a>
</g>
</g>
<!-- Node1&#45;&gt;Node3 -->
<g id="edge2" class="edge">
<title>Node1&#45;&gt;Node3</title>
<path fill="none" stroke="black" d="M60.12,-20.56C71.31,-18.28 83.42,-15.82 93.36,-13.8"/>
<polygon fill="black" stroke="black" points="59.28,-17.16 50.18,-22.58 60.68,-24.02 59.28,-17.16"/>
</g>
</g>
</svg>
