<?xml version="1.0" encoding="UTF-8" standalone="no"?>
<!DOCTYPE svg PUBLIC "-//W3C//DTD SVG 1.1//EN"
 "http://www.w3.org/Graphics/SVG/1.1/DTD/svg11.dtd">
<!-- Generated by graphviz version 2.43.0 (0)
 -->
<!-- Title: Meta Pages: 1 -->
<svg width="153pt" height="138pt"
 viewBox="0.00 0.00 153.00 138.00" xmlns="http://www.w3.org/2000/svg" xmlns:xlink="http://www.w3.org/1999/xlink">
<g id="graph0" class="graph" transform="scale(1 1) rotate(0) translate(4 134)">
<title>Meta</title>
<polygon fill="white" stroke="transparent" points="-4,4 -4,-134 149,-134 149,4 -4,4"/>
<!-- Node2 -->
<g id="node1" class="node">
<title>Node2</title>
<g id="a_node1"><a xlink:href="group__concept.html" target="_top" xlink:title="Additional concepts that are not specific to a BioC++ module.">
<polygon fill="white" stroke="black" points="139,-130 83,-130 83,-111 139,-111 139,-130"/>
<text text-anchor="middle" x="111" y="-118" font-family="Helvetica,sans-Serif" font-size="10.00">Concept</text>
</a>
</g>
</g>
<!-- Node1 -->
<g id="node2" class="node">
<title>Node1</title>
<g id="a_node2"><a xlink:title="Provides metaprogramming utilities, concepts and some helper classes.">
<polygon fill="#bfbfbf" stroke="black" points="41,-74 0,-74 0,-55 41,-55 41,-74"/>
<text text-anchor="middle" x="20.5" y="-62" font-family="Helvetica,sans-Serif" font-size="10.00">Meta</text>
</a>
</g>
</g>
<!-- Node1&#45;&gt;Node2 -->
<g id="edge1" class="edge">
<title>Node1&#45;&gt;Node2</title>
<path fill="none" stroke="black" d="M43.18,-80.1C53.3,-87.18 65.6,-95.51 77,-102.5 81.67,-105.36 86.83,-108.29 91.66,-110.92"/>
<polygon fill="black" stroke="black" points="45.12,-77.18 34.93,-74.26 41.08,-82.89 45.12,-77.18"/>
</g>
<!-- Node3 -->
<g id="node3" class="node">
<title>Node3</title>
<g id="a_node3"><a xlink:href="group__meta__tag.html" target="_top" xlink:title="Provides tagging utilities (often used in tag&#45;dispatching).">
<polygon fill="white" stroke="black" points="127.5,-93 94.5,-93 94.5,-74 127.5,-74 127.5,-93"/>
<text text-anchor="middle" x="111" y="-81" font-family="Helvetica,sans-Serif" font-size="10.00">Tag</text>
</a>
</g>
</g>
<!-- Node1&#45;&gt;Node3 -->
<g id="edge2" class="edge">
<title>Node1&#45;&gt;Node3</title>
<path fill="none" stroke="black" d="M51.13,-70.86C65.55,-73.96 82.31,-77.55 94.24,-80.12"/>
<polygon fill="black" stroke="black" points="51.65,-67.39 41.14,-68.72 50.18,-74.24 51.65,-67.39"/>
</g>
<!-- Node4 -->
<g id="node4" class="node">
<title>Node4</title>
<g id="a_node4"><a xlink:href="group__meta__type__list.html" target="_top" xlink:title="Provides bio::meta::type_list and metaprogramming utilities for working on type lists.">
<polygon fill="white" stroke="black" points="140.5,-56 81.5,-56 81.5,-37 140.5,-37 140.5,-56"/>
<text text-anchor="middle" x="111" y="-44" font-family="Helvetica,sans-Serif" font-size="10.00">Type List</text>
</a>
</g>
</g>
<!-- Node1&#45;&gt;Node4 -->
<g id="edge3" class="edge">
<title>Node1&#45;&gt;Node4</title>
<path fill="none" stroke="black" d="M51.18,-58.46C60.91,-56.49 71.69,-54.29 81.34,-52.33"/>
<polygon fill="black" stroke="black" points="50.24,-55.08 41.14,-60.51 51.64,-61.94 50.24,-55.08"/>
</g>
<!-- Node5 -->
<g id="node5" class="node">
<title>Node5</title>
<g id="a_node5"><a xlink:href="group__type__traits.html" target="_top" xlink:title="Provides various type traits and their shortcuts.">
<polygon fill="white" stroke="black" points="145,-19 77,-19 77,0 145,0 145,-19"/>
<text text-anchor="middle" x="111" y="-7" font-family="Helvetica,sans-Serif" font-size="10.00">Type Traits</text>
</a>
</g>
</g>
<!-- Node1&#45;&gt;Node5 -->
<g id="edge4" class="edge">
<title>Node1&#45;&gt;Node5</title>
<path fill="none" stroke="black" d="M44.48,-49.2C54.41,-42.7 66.2,-35.11 77,-28.5 82.08,-25.4 87.66,-22.13 92.77,-19.19"/>
<polygon fill="black" stroke="black" points="42.4,-46.39 35.97,-54.81 46.25,-52.23 42.4,-46.39"/>
</g>
</g>
</svg>
