<?xml version="1.0" encoding="UTF-8" standalone="no"?>
<!DOCTYPE svg PUBLIC "-//W3C//DTD SVG 1.1//EN"
 "http://www.w3.org/Graphics/SVG/1.1/DTD/svg11.dtd">
<!-- Generated by graphviz version 2.43.0 (0)
 -->
<!-- Title: Graphical Class Hierarchy Pages: 1 -->
<svg width="272pt" height="88pt"
 viewBox="0.00 0.00 272.00 88.00" xmlns="http://www.w3.org/2000/svg" xmlns:xlink="http://www.w3.org/1999/xlink">
<g id="graph0" class="graph" transform="scale(1 1) rotate(0) translate(4 84)">
<title>Graphical Class Hierarchy</title>
<polygon fill="white" stroke="transparent" points="-4,4 -4,-84 268,-84 268,4 -4,4"/>
<!-- Node0 -->
<g id="node1" class="node">
<title>Node0</title>
<g id="a_node1"><a xlink:title=" ">
<polygon fill="white" stroke="#bfbfbf" points="3.5,-49.5 3.5,-79.5 104.5,-79.5 104.5,-49.5 3.5,-49.5"/>
<text text-anchor="start" x="11.5" y="-67.5" font-family="Helvetica,sans-Serif" font-size="10.00">std::ranges::input</text>
<text text-anchor="middle" x="54" y="-56.5" font-family="Helvetica,sans-Serif" font-size="10.00">_range</text>
</a>
</g>
</g>
<!-- Node1 -->
<g id="node2" class="node">
<title>Node1</title>
<g id="a_node2"><a xlink:href="interfacebio_1_1ranges_1_1back__insertable.html" target="_top" xlink:title="Describes range types that can grow in amortised constant time by appending an element.">
<polygon fill="white" stroke="black" points="157,-49 157,-68 251,-68 251,-49 157,-49"/>
<text text-anchor="middle" x="204" y="-56" font-family="Helvetica,sans-Serif" font-size="10.00">back_insertable</text>
</a>
</g>
</g>
<!-- Node0&#45;&gt;Node1 -->
<g id="edge1" class="edge">
<title>Node0&#45;&gt;Node1</title>
<path fill="none" stroke="midnightblue" d="M114.72,-62.08C128.7,-61.51 143.39,-60.92 156.69,-60.38"/>
<polygon fill="midnightblue" stroke="midnightblue" points="114.54,-58.58 104.69,-62.49 114.83,-65.58 114.54,-58.58"/>
</g>
<!-- Node2 -->
<g id="node3" class="node">
<title>Node2</title>
<g id="a_node3"><a xlink:title=" ">
<polygon fill="white" stroke="#bfbfbf" points="0,-0.5 0,-30.5 108,-30.5 108,-0.5 0,-0.5"/>
<text text-anchor="start" x="8" y="-18.5" font-family="Helvetica,sans-Serif" font-size="10.00">std::ranges::output</text>
<text text-anchor="middle" x="54" y="-7.5" font-family="Helvetica,sans-Serif" font-size="10.00">_range</text>
</a>
</g>
</g>
<!-- Node2&#45;&gt;Node1 -->
<g id="edge2" class="edge">
<title>Node2&#45;&gt;Node1</title>
<path fill="none" stroke="midnightblue" d="M116.52,-33.37C134.86,-38.7 154.24,-44.33 170,-48.91"/>
<polygon fill="midnightblue" stroke="midnightblue" points="117.34,-29.97 106.76,-30.54 115.39,-36.69 117.34,-29.97"/>
</g>
<!-- Node3 -->
<g id="node4" class="node">
<title>Node3</title>
<g id="a_node4"><a xlink:href="interfacebio_1_1ranges_1_1back__insertable__with.html" target="_top" xlink:title="Describes range types that can grow in amortised constant time by appending an element of type val_t.">
<polygon fill="white" stroke="black" points="144,-6 144,-25 264,-25 264,-6 144,-6"/>
<text text-anchor="middle" x="204" y="-13" font-family="Helvetica,sans-Serif" font-size="10.00">back_insertable_with</text>
</a>
</g>
</g>
<!-- Node2&#45;&gt;Node3 -->
<g id="edge3" class="edge">
<title>Node2&#45;&gt;Node3</title>
<path fill="none" stroke="midnightblue" d="M118.24,-15.5C126.73,-15.5 135.41,-15.5 143.83,-15.5"/>
<polygon fill="midnightblue" stroke="midnightblue" points="118.01,-12 108.01,-15.5 118.01,-19 118.01,-12"/>
</g>
</g>
</svg>
