<?xml version="1.0" encoding="UTF-8" standalone="no"?>
<!DOCTYPE svg PUBLIC "-//W3C//DTD SVG 1.1//EN"
 "http://www.w3.org/Graphics/SVG/1.1/DTD/svg11.dtd">
<!-- Generated by graphviz version 2.43.0 (0)
 -->
<!-- Title: Graphical Class Hierarchy Pages: 1 -->
<svg width="320pt" height="110pt"
 viewBox="0.00 0.00 320.00 110.00" xmlns="http://www.w3.org/2000/svg" xmlns:xlink="http://www.w3.org/1999/xlink">
<g id="graph0" class="graph" transform="scale(1 1) rotate(0) translate(4 106)">
<title>Graphical Class Hierarchy</title>
<polygon fill="white" stroke="transparent" points="-4,4 -4,-106 316,-106 316,4 -4,4"/>
<!-- Node0 -->
<g id="node1" class="node">
<title>Node0</title>
<g id="a_node1"><a target="_blank" xlink:href="https://en.cppreference.com/w/cpp/types/conditional.html" xlink:title=" ">
<polygon fill="white" stroke="black" points="0,-41.5 0,-60.5 101,-60.5 101,-41.5 0,-41.5"/>
<text text-anchor="middle" x="50.5" y="-48.5" font-family="Helvetica,sans-Serif" font-size="10.00">std::conditional_t</text>
</a>
</g>
</g>
<!-- Node1 -->
<g id="node2" class="node">
<title>Node1</title>
<g id="a_node2"><a xlink:href="classbio_1_1alphabet__proxy.html" target="_top" xlink:title=" ">
<polygon fill="white" stroke="black" points="137,-60.5 137,-101.5 312,-101.5 312,-60.5 137,-60.5"/>
<text text-anchor="start" x="145" y="-89.5" font-family="Helvetica,sans-Serif" font-size="10.00">bio::alphabet_proxy</text>
<text text-anchor="start" x="145" y="-78.5" font-family="Helvetica,sans-Serif" font-size="10.00">&lt; component_proxy&lt; alphabet</text>
<text text-anchor="middle" x="224.5" y="-67.5" font-family="Helvetica,sans-Serif" font-size="10.00">_type, index &gt;, alphabet_type &gt;</text>
</a>
</g>
</g>
<!-- Node0&#45;&gt;Node1 -->
<g id="edge1" class="edge">
<title>Node0&#45;&gt;Node1</title>
<path fill="none" stroke="midnightblue" d="M111.2,-61.41C119.53,-62.86 128.21,-64.38 136.91,-65.9"/>
<polygon fill="midnightblue" stroke="midnightblue" points="111.7,-57.95 101.25,-59.68 110.5,-64.84 111.7,-57.95"/>
</g>
<!-- Node2 -->
<g id="node3" class="node">
<title>Node2</title>
<g id="a_node3"><a xlink:href="classbio_1_1alphabet__proxy.html" target="_top" xlink:title=" ">
<polygon fill="white" stroke="black" points="156,-0.5 156,-41.5 293,-41.5 293,-0.5 156,-0.5"/>
<text text-anchor="start" x="164" y="-29.5" font-family="Helvetica,sans-Serif" font-size="10.00">bio::alphabet_proxy</text>
<text text-anchor="start" x="164" y="-18.5" font-family="Helvetica,sans-Serif" font-size="10.00">&lt; reference_proxy_type,</text>
<text text-anchor="middle" x="224.5" y="-7.5" font-family="Helvetica,sans-Serif" font-size="10.00"> alphabet_type &gt;</text>
</a>
</g>
</g>
<!-- Node0&#45;&gt;Node2 -->
<g id="edge2" class="edge">
<title>Node0&#45;&gt;Node2</title>
<path fill="none" stroke="midnightblue" d="M111.49,-40.54C125.85,-38.03 141.27,-35.34 155.95,-32.78"/>
<polygon fill="midnightblue" stroke="midnightblue" points="110.5,-37.16 101.25,-42.32 111.7,-44.05 110.5,-37.16"/>
</g>
</g>
</svg>
