<?xml version="1.0" encoding="UTF-8" standalone="no"?>
<!DOCTYPE svg PUBLIC "-//W3C//DTD SVG 1.1//EN"
 "http://www.w3.org/Graphics/SVG/1.1/DTD/svg11.dtd">
<!-- Generated by graphviz version 2.43.0 (0)
 -->
<!-- Title: Graphical Class Hierarchy Pages: 1 -->
<svg width="391pt" height="94pt"
 viewBox="0.00 0.00 391.00 94.00" xmlns="http://www.w3.org/2000/svg" xmlns:xlink="http://www.w3.org/1999/xlink">
<g id="graph0" class="graph" transform="scale(1 1) rotate(0) translate(4 90)">
<title>Graphical Class Hierarchy</title>
<polygon fill="white" stroke="transparent" points="-4,4 -4,-90 387,-90 387,4 -4,4"/>
<!-- Node98 -->
<g id="node1" class="node">
<title>Node98</title>
<g id="a_node1"><a xlink:title=" ">
<polygon fill="white" stroke="#bfbfbf" points="0,-0.5 0,-85.5 207,-85.5 207,-0.5 0,-0.5"/>
<text text-anchor="start" x="8" y="-73.5" font-family="Helvetica,sans-Serif" font-size="10.00">std::conditional_t</text>
<text text-anchor="start" x="8" y="-62.5" font-family="Helvetica,sans-Serif" font-size="10.00">&lt; std::is_class_v&lt; alphabet</text>
<text text-anchor="start" x="8" y="-51.5" font-family="Helvetica,sans-Serif" font-size="10.00">_type &gt;, alphabet_type, alphabet</text>
<text text-anchor="start" x="8" y="-40.5" font-family="Helvetica,sans-Serif" font-size="10.00">_base&lt; derived_type, alphabet</text>
<text text-anchor="start" x="8" y="-29.5" font-family="Helvetica,sans-Serif" font-size="10.00">_size&lt; alphabet_type &gt;, detail</text>
<text text-anchor="start" x="8" y="-18.5" font-family="Helvetica,sans-Serif" font-size="10.00">::valid_template_spec_or_t&lt; void,</text>
<text text-anchor="middle" x="103.5" y="-7.5" font-family="Helvetica,sans-Serif" font-size="10.00"> alphabet_char_t, alphabet_type &gt; &gt; &gt;</text>
</a>
</g>
</g>
<!-- Node0 -->
<g id="node2" class="node">
<title>Node0</title>
<g id="a_node2"><a xlink:href="classbio_1_1alphabet__proxy.html" target="_top" xlink:title="A CRTP&#45;base that eases the definition of proxy types returned in place of regular alphabets.">
<polygon fill="white" stroke="black" points="243,-22.5 243,-63.5 383,-63.5 383,-22.5 243,-22.5"/>
<text text-anchor="start" x="251" y="-51.5" font-family="Helvetica,sans-Serif" font-size="10.00">bio::alphabet_proxy</text>
<text text-anchor="start" x="251" y="-40.5" font-family="Helvetica,sans-Serif" font-size="10.00">&lt; derived_type, alphabet</text>
<text text-anchor="middle" x="313" y="-29.5" font-family="Helvetica,sans-Serif" font-size="10.00">_type &gt;</text>
</a>
</g>
</g>
<!-- Node98&#45;&gt;Node0 -->
<g id="edge1" class="edge">
<title>Node98&#45;&gt;Node0</title>
<path fill="none" stroke="midnightblue" d="M217.28,-43C225.98,-43 234.6,-43 242.89,-43"/>
<polygon fill="midnightblue" stroke="midnightblue" points="217.03,-39.5 207.03,-43 217.03,-46.5 217.03,-39.5"/>
</g>
</g>
</svg>
