<?xml version="1.0" encoding="UTF-8" standalone="no"?>
<!DOCTYPE svg PUBLIC "-//W3C//DTD SVG 1.1//EN"
 "http://www.w3.org/Graphics/SVG/1.1/DTD/svg11.dtd">
<!-- Generated by graphviz version 2.42.2 ()
 -->
<!-- Title: Graphical Class Hierarchy Pages: 1 -->
<svg width="324pt" height="279pt"
 viewBox="0.00 0.00 324.00 278.50" xmlns="http://www.w3.org/2000/svg" xmlns:xlink="http://www.w3.org/1999/xlink">
<g id="graph0" class="graph" transform="scale(1 1) rotate(0) translate(4 274.5)">
<title>Graphical Class Hierarchy</title>
<polygon fill="white" stroke="transparent" points="-4,4 -4,-274.5 320,-274.5 320,4 -4,4"/>
<!-- Node0 -->
<g id="node1" class="node">
<title>Node0</title>
<g id="a_node1"><a target="_blank" xlink:href="https://en.cppreference.com/w/cpp/types/integral_constant.html" xlink:title=" ">
<polygon fill="white" stroke="black" points="29.5,-242 29.5,-261 110.5,-261 110.5,-242 29.5,-242"/>
<text text-anchor="middle" x="70" y="-249" font-family="Helvetica,sans-Serif" font-size="10.00">std::false_type</text>
</a>
</g>
</g>
<!-- Node1 -->
<g id="node2" class="node">
<title>Node1</title>
<g id="a_node2"><a xlink:href="structbio_1_1meta_1_1is__constexpr__default__constructible.html" target="_top" xlink:title="Whether a type std::is_default_constructible in constexpr&#45;context.">
<polygon fill="white" stroke="black" points="179.5,-176.5 179.5,-206.5 312.5,-206.5 312.5,-176.5 179.5,-176.5"/>
<text text-anchor="start" x="187.5" y="-194.5" font-family="Helvetica,sans-Serif" font-size="10.00">bio::meta::is_constexpr</text>
<text text-anchor="middle" x="246" y="-183.5" font-family="Helvetica,sans-Serif" font-size="10.00">_default_constructible&lt; t &gt;</text>
</a>
</g>
</g>
<!-- Node0&#45;&gt;Node1 -->
<g id="edge1" class="edge">
<title>Node0&#45;&gt;Node1</title>
<path fill="none" stroke="midnightblue" d="M118.29,-239.18C125.6,-237.07 133.03,-234.81 140,-232.5 152.95,-228.2 182.97,-216.41 207.6,-206.57"/>
<polygon fill="midnightblue" stroke="midnightblue" points="117.13,-235.87 108.45,-241.95 119.03,-242.61 117.13,-235.87"/>
</g>
<!-- Node3 -->
<g id="node3" class="node">
<title>Node3</title>
<g id="a_node3"><a xlink:href="structbio_1_1meta_1_1is__type__specialisation__of.html" target="_top" xlink:title="Determines whether a source_type is a specialisation of another template.">
<polygon fill="white" stroke="black" points="176,-229 176,-270 316,-270 316,-229 176,-229"/>
<text text-anchor="start" x="184" y="-258" font-family="Helvetica,sans-Serif" font-size="10.00">bio::meta::is_type</text>
<text text-anchor="start" x="184" y="-247" font-family="Helvetica,sans-Serif" font-size="10.00">_specialisation_of&lt;</text>
<text text-anchor="middle" x="246" y="-236" font-family="Helvetica,sans-Serif" font-size="10.00"> source_t, target_template &gt;</text>
</a>
</g>
</g>
<!-- Node0&#45;&gt;Node3 -->
<g id="edge2" class="edge">
<title>Node0&#45;&gt;Node3</title>
<path fill="none" stroke="midnightblue" d="M121.21,-250.92C138.27,-250.73 157.65,-250.5 175.92,-250.29"/>
<polygon fill="midnightblue" stroke="midnightblue" points="120.88,-247.43 110.92,-251.04 120.96,-254.43 120.88,-247.43"/>
</g>
<!-- Node9 -->
<g id="node4" class="node">
<title>Node9</title>
<g id="a_node4"><a target="_blank" xlink:href="https://en.cppreference.com/w/cpp/types/integral_constant.html" xlink:title=" ">
<polygon fill="white" stroke="black" points="0,-170.5 0,-222.5 140,-222.5 140,-170.5 0,-170.5"/>
<text text-anchor="start" x="8" y="-210.5" font-family="Helvetica,sans-Serif" font-size="10.00">std::integral_constant</text>
<text text-anchor="start" x="8" y="-199.5" font-family="Helvetica,sans-Serif" font-size="10.00">&lt; size_t, bio::meta::list</text>
<text text-anchor="start" x="8" y="-188.5" font-family="Helvetica,sans-Serif" font-size="10.00">_traits::size&lt; tuple_t::biocpp</text>
<text text-anchor="middle" x="70" y="-177.5" font-family="Helvetica,sans-Serif" font-size="10.00">_required_types &gt; &gt;</text>
</a>
</g>
</g>
<!-- Node8 -->
<g id="node5" class="node">
<title>Node8</title>
<g id="a_node5"><a xlink:href="structstd_1_1tuple__size_3_01tuple__t_01_4.html" target="_top" xlink:title="Provides access to the number of elements in a tuple as a compile&#45;time constant expression.">
<polygon fill="white" stroke="black" points="182,-133 182,-152 310,-152 310,-133 182,-133"/>
<text text-anchor="middle" x="246" y="-140" font-family="Helvetica,sans-Serif" font-size="10.00">std::tuple_size&lt; tuple_t &gt;</text>
</a>
</g>
</g>
<!-- Node9&#45;&gt;Node8 -->
<g id="edge3" class="edge">
<title>Node9&#45;&gt;Node8</title>
<path fill="none" stroke="midnightblue" d="M149.71,-172.07C172.47,-165.01 196,-157.71 213.98,-152.13"/>
<polygon fill="midnightblue" stroke="midnightblue" points="148.53,-168.77 140.02,-175.08 150.61,-175.46 148.53,-168.77"/>
</g>
<!-- Node7 -->
<g id="node6" class="node">
<title>Node7</title>
<g id="a_node6"><a target="_blank" xlink:href="https://en.cppreference.com/w/cpp/types/integral_constant.html" xlink:title=" ">
<polygon fill="white" stroke="black" points="13.5,-72 13.5,-113 126.5,-113 126.5,-72 13.5,-72"/>
<text text-anchor="start" x="21.5" y="-101" font-family="Helvetica,sans-Serif" font-size="10.00">std::integral_constant</text>
<text text-anchor="start" x="21.5" y="-90" font-family="Helvetica,sans-Serif" font-size="10.00">&lt; std::size_t, sizeof...</text>
<text text-anchor="middle" x="70" y="-79" font-family="Helvetica,sans-Serif" font-size="10.00">(types)&gt;</text>
</a>
</g>
</g>
<!-- Node6 -->
<g id="node7" class="node">
<title>Node6</title>
<g id="a_node7"><a xlink:href="structstd_1_1tuple__size_3_01t_3_01types_8_8_8_01_4_01_4.html" target="_top" xlink:title="Provides access to the number of elements in a tuple as a compile&#45;time constant expression.">
<polygon fill="white" stroke="black" points="200,-80.5 200,-110.5 292,-110.5 292,-80.5 200,-80.5"/>
<text text-anchor="start" x="208" y="-98.5" font-family="Helvetica,sans-Serif" font-size="10.00">std::tuple_size&lt; t</text>
<text text-anchor="middle" x="246" y="-87.5" font-family="Helvetica,sans-Serif" font-size="10.00">&lt; types... &gt; &gt;</text>
</a>
</g>
</g>
<!-- Node7&#45;&gt;Node6 -->
<g id="edge4" class="edge">
<title>Node7&#45;&gt;Node6</title>
<path fill="none" stroke="midnightblue" d="M136.71,-93.63C157.78,-94 180.62,-94.39 199.87,-94.72"/>
<polygon fill="midnightblue" stroke="midnightblue" points="136.59,-90.13 126.53,-93.46 136.47,-97.13 136.59,-90.13"/>
</g>
<!-- Node5 -->
<g id="node8" class="node">
<title>Node5</title>
<g id="a_node8"><a target="_blank" xlink:href="https://en.cppreference.com/w/cpp/types/is_same.html" xlink:title=" ">
<polygon fill="white" stroke="black" points="12,-0.5 12,-52.5 128,-52.5 128,-0.5 12,-0.5"/>
<text text-anchor="start" x="20" y="-40.5" font-family="Helvetica,sans-Serif" font-size="10.00">std::is_same&lt; source</text>
<text text-anchor="start" x="20" y="-29.5" font-family="Helvetica,sans-Serif" font-size="10.00">_t, transfer_template</text>
<text text-anchor="start" x="20" y="-18.5" font-family="Helvetica,sans-Serif" font-size="10.00">_vargs_onto_t&lt; source</text>
<text text-anchor="middle" x="70" y="-7.5" font-family="Helvetica,sans-Serif" font-size="10.00">_t, target_template &gt; &gt;</text>
</a>
</g>
</g>
<!-- Node4 -->
<g id="node9" class="node">
<title>Node4</title>
<g id="a_node9"><a xlink:href="structbio_1_1meta_1_1is__value__specialisation__of_3_01source__t_00_01target__template_01_4.html" target="_top" xlink:title="Determines whether a source_type is a specialisation of another template.">
<polygon fill="white" stroke="black" points="176,-15 176,-56 316,-56 316,-15 176,-15"/>
<text text-anchor="start" x="184" y="-44" font-family="Helvetica,sans-Serif" font-size="10.00">bio::meta::is_value</text>
<text text-anchor="start" x="184" y="-33" font-family="Helvetica,sans-Serif" font-size="10.00">_specialisation_of&lt;</text>
<text text-anchor="middle" x="246" y="-22" font-family="Helvetica,sans-Serif" font-size="10.00"> source_t, target_template &gt;</text>
</a>
</g>
</g>
<!-- Node5&#45;&gt;Node4 -->
<g id="edge5" class="edge">
<title>Node5&#45;&gt;Node4</title>
<path fill="none" stroke="midnightblue" d="M138.57,-29.99C150.78,-30.63 163.54,-31.29 175.8,-31.92"/>
<polygon fill="midnightblue" stroke="midnightblue" points="138.62,-26.49 128.46,-29.47 138.26,-33.48 138.62,-26.49"/>
</g>
<!-- Node2 -->
<g id="node10" class="node">
<title>Node2</title>
<g id="a_node10"><a xlink:href="interfacebio_1_1meta_1_1unary__type__trait.html" target="_top" xlink:title="Concept for a unary traits type.">
<polygon fill="white" stroke="black" points="27,-132 27,-151 113,-151 113,-132 27,-132"/>
<text text-anchor="middle" x="70" y="-139" font-family="Helvetica,sans-Serif" font-size="10.00">unary_type_trait</text>
</a>
</g>
</g>
<!-- Node2&#45;&gt;Node1 -->
<g id="edge6" class="edge">
<title>Node2&#45;&gt;Node1</title>
<path fill="none" stroke="midnightblue" d="M113.92,-153.83C137.66,-160.66 167.36,-169.19 192.48,-176.41"/>
<polygon fill="midnightblue" stroke="midnightblue" points="114.72,-150.42 104.14,-151.02 112.78,-157.15 114.72,-150.42"/>
</g>
<!-- Node2&#45;&gt;Node3 -->
<g id="edge7" class="edge">
<title>Node2&#45;&gt;Node3</title>
<path fill="none" stroke="midnightblue" d="M122.97,-152.13C129.03,-154.63 134.87,-157.7 140,-161.5 163.49,-178.87 154.01,-197.27 176,-216.5 181.3,-221.13 187.36,-225.26 193.64,-228.9"/>
<polygon fill="midnightblue" stroke="midnightblue" points="123.94,-148.76 113.34,-148.67 121.57,-155.35 123.94,-148.76"/>
</g>
<!-- Node2&#45;&gt;Node8 -->
<g id="edge10" class="edge">
<title>Node2&#45;&gt;Node8</title>
<path fill="none" stroke="midnightblue" d="M123.35,-141.8C141.77,-141.91 162.65,-142.03 181.86,-142.14"/>
<polygon fill="midnightblue" stroke="midnightblue" points="123.14,-138.3 113.12,-141.74 123.1,-145.3 123.14,-138.3"/>
</g>
<!-- Node2&#45;&gt;Node6 -->
<g id="edge9" class="edge">
<title>Node2&#45;&gt;Node6</title>
<path fill="none" stroke="midnightblue" d="M116.89,-129.37C142.47,-122.61 174.2,-114.22 199.69,-107.48"/>
<polygon fill="midnightblue" stroke="midnightblue" points="115.83,-126.03 107.05,-131.97 117.62,-132.8 115.83,-126.03"/>
</g>
<!-- Node2&#45;&gt;Node4 -->
<g id="edge8" class="edge">
<title>Node2&#45;&gt;Node4</title>
<path fill="none" stroke="midnightblue" d="M122.83,-131.5C128.91,-129.11 134.8,-126.16 140,-122.5 162.7,-106.55 155.11,-89.76 176,-71.5 182.61,-65.72 190.31,-60.55 198.13,-56.06"/>
<polygon fill="midnightblue" stroke="midnightblue" points="121.51,-128.25 113.18,-134.8 123.78,-134.87 121.51,-128.25"/>
</g>
</g>
</svg>
