<?xml version="1.0" encoding="UTF-8" standalone="no"?>
<!DOCTYPE svg PUBLIC "-//W3C//DTD SVG 1.1//EN"
 "http://www.w3.org/Graphics/SVG/1.1/DTD/svg11.dtd">
<!-- Generated by graphviz version 2.43.0 (0)
 -->
<!-- Title: Graphical Class Hierarchy Pages: 1 -->
<svg width="357pt" height="279pt"
 viewBox="0.00 0.00 357.00 278.50" xmlns="http://www.w3.org/2000/svg" xmlns:xlink="http://www.w3.org/1999/xlink">
<g id="graph0" class="graph" transform="scale(1 1) rotate(0) translate(4 274.5)">
<title>Graphical Class Hierarchy</title>
<polygon fill="white" stroke="transparent" points="-4,4 -4,-274.5 353,-274.5 353,4 -4,4"/>
<!-- Node0 -->
<g id="node1" class="node">
<title>Node0</title>
<g id="a_node1"><a target="_blank" xlink:href="https://en.cppreference.com/w/cpp/types/integral_constant.html" xlink:title=" ">
<polygon fill="white" stroke="black" points="33.5,-242 33.5,-261 122.5,-261 122.5,-242 33.5,-242"/>
<text text-anchor="middle" x="78" y="-249" font-family="Helvetica,sans-Serif" font-size="10.00">std::false_type</text>
</a>
</g>
</g>
<!-- Node1 -->
<g id="node2" class="node">
<title>Node1</title>
<g id="a_node2"><a xlink:href="structbio_1_1meta_1_1is__constexpr__default__constructible.html" target="_top" xlink:title="Whether a type std::is_default_constructible in constexpr&#45;context.">
<polygon fill="white" stroke="black" points="195,-176.5 195,-206.5 346,-206.5 346,-176.5 195,-176.5"/>
<text text-anchor="start" x="203" y="-194.5" font-family="Helvetica,sans-Serif" font-size="10.00">bio::meta::is_constexpr</text>
<text text-anchor="middle" x="270.5" y="-183.5" font-family="Helvetica,sans-Serif" font-size="10.00">_default_constructible&lt; t &gt;</text>
</a>
</g>
</g>
<!-- Node0&#45;&gt;Node1 -->
<g id="edge1" class="edge">
<title>Node0&#45;&gt;Node1</title>
<path fill="none" stroke="midnightblue" d="M130.94,-239.47C139.36,-237.3 147.95,-234.94 156,-232.5 156.24,-232.43 195.42,-218.27 227.68,-206.61"/>
<polygon fill="midnightblue" stroke="midnightblue" points="130.02,-236.1 121.18,-241.94 131.73,-242.88 130.02,-236.1"/>
</g>
<!-- Node2 -->
<g id="node3" class="node">
<title>Node2</title>
<g id="a_node3"><a xlink:href="structbio_1_1meta_1_1is__type__specialisation__of.html" target="_top" xlink:title="Determines whether a source_type is a specialisation of another template.">
<polygon fill="white" stroke="black" points="192,-229 192,-270 349,-270 349,-229 192,-229"/>
<text text-anchor="start" x="200" y="-258" font-family="Helvetica,sans-Serif" font-size="10.00">bio::meta::is_type</text>
<text text-anchor="start" x="200" y="-247" font-family="Helvetica,sans-Serif" font-size="10.00">_specialisation_of&lt;</text>
<text text-anchor="middle" x="270.5" y="-236" font-family="Helvetica,sans-Serif" font-size="10.00"> source_t, target_template &gt;</text>
</a>
</g>
</g>
<!-- Node0&#45;&gt;Node2 -->
<g id="edge2" class="edge">
<title>Node0&#45;&gt;Node2</title>
<path fill="none" stroke="midnightblue" d="M132.9,-250.93C151.25,-250.74 172.15,-250.52 191.98,-250.31"/>
<polygon fill="midnightblue" stroke="midnightblue" points="132.67,-247.44 122.7,-251.04 132.74,-254.44 132.67,-247.44"/>
</g>
<!-- Node118 -->
<g id="node4" class="node">
<title>Node118</title>
<g id="a_node4"><a target="_blank" xlink:href="https://en.cppreference.com/w/cpp/types/integral_constant.html" xlink:title=" ">
<polygon fill="white" stroke="black" points="0,-170.5 0,-222.5 156,-222.5 156,-170.5 0,-170.5"/>
<text text-anchor="start" x="8" y="-210.5" font-family="Helvetica,sans-Serif" font-size="10.00">std::integral_constant</text>
<text text-anchor="start" x="8" y="-199.5" font-family="Helvetica,sans-Serif" font-size="10.00">&lt; size_t, bio::meta::list</text>
<text text-anchor="start" x="8" y="-188.5" font-family="Helvetica,sans-Serif" font-size="10.00">_traits::size&lt; tuple_t::biocpp</text>
<text text-anchor="middle" x="78" y="-177.5" font-family="Helvetica,sans-Serif" font-size="10.00">_required_types &gt; &gt;</text>
</a>
</g>
</g>
<!-- Node119 -->
<g id="node5" class="node">
<title>Node119</title>
<g id="a_node5"><a xlink:href="structstd_1_1tuple__size_3_01tuple__t_01_4.html" target="_top" xlink:title="Provides access to the number of elements in a tuple as a compile&#45;time constant expression.">
<polygon fill="white" stroke="black" points="199,-133 199,-152 342,-152 342,-133 199,-133"/>
<text text-anchor="middle" x="270.5" y="-140" font-family="Helvetica,sans-Serif" font-size="10.00">std::tuple_size&lt; tuple_t &gt;</text>
</a>
</g>
</g>
<!-- Node118&#45;&gt;Node119 -->
<g id="edge3" class="edge">
<title>Node118&#45;&gt;Node119</title>
<path fill="none" stroke="midnightblue" d="M166,-171.84C190.72,-164.83 216.18,-157.61 235.67,-152.09"/>
<polygon fill="midnightblue" stroke="midnightblue" points="164.88,-168.52 156.21,-174.61 166.78,-175.25 164.88,-168.52"/>
</g>
<!-- Node120 -->
<g id="node6" class="node">
<title>Node120</title>
<g id="a_node6"><a target="_blank" xlink:href="https://en.cppreference.com/w/cpp/types/integral_constant.html" xlink:title=" ">
<polygon fill="white" stroke="black" points="17,-72 17,-113 139,-113 139,-72 17,-72"/>
<text text-anchor="start" x="25" y="-101" font-family="Helvetica,sans-Serif" font-size="10.00">std::integral_constant</text>
<text text-anchor="start" x="25" y="-90" font-family="Helvetica,sans-Serif" font-size="10.00">&lt; std::size_t, sizeof...</text>
<text text-anchor="middle" x="78" y="-79" font-family="Helvetica,sans-Serif" font-size="10.00">(types)&gt;</text>
</a>
</g>
</g>
<!-- Node121 -->
<g id="node7" class="node">
<title>Node121</title>
<g id="a_node7"><a xlink:href="structstd_1_1tuple__size_3_01t_3_01types_8_8_8_01_4_01_4.html" target="_top" xlink:title="Provides access to the number of elements in a tuple as a compile&#45;time constant expression.">
<polygon fill="white" stroke="black" points="219.5,-80.5 219.5,-110.5 321.5,-110.5 321.5,-80.5 219.5,-80.5"/>
<text text-anchor="start" x="227.5" y="-98.5" font-family="Helvetica,sans-Serif" font-size="10.00">std::tuple_size&lt; t</text>
<text text-anchor="middle" x="270.5" y="-87.5" font-family="Helvetica,sans-Serif" font-size="10.00">&lt; types... &gt; &gt;</text>
</a>
</g>
</g>
<!-- Node120&#45;&gt;Node121 -->
<g id="edge4" class="edge">
<title>Node120&#45;&gt;Node121</title>
<path fill="none" stroke="midnightblue" d="M149.19,-93.61C172.48,-93.97 197.91,-94.37 219.38,-94.71"/>
<polygon fill="midnightblue" stroke="midnightblue" points="149.07,-90.1 139.01,-93.45 148.96,-97.1 149.07,-90.1"/>
</g>
<!-- Node124 -->
<g id="node8" class="node">
<title>Node124</title>
<g id="a_node8"><a target="_blank" xlink:href="https://en.cppreference.com/w/cpp/types/is_same.html" xlink:title=" ">
<polygon fill="white" stroke="black" points="11.5,-0.5 11.5,-52.5 144.5,-52.5 144.5,-0.5 11.5,-0.5"/>
<text text-anchor="start" x="19.5" y="-40.5" font-family="Helvetica,sans-Serif" font-size="10.00">std::is_same&lt; source</text>
<text text-anchor="start" x="19.5" y="-29.5" font-family="Helvetica,sans-Serif" font-size="10.00">_t, transfer_template</text>
<text text-anchor="start" x="19.5" y="-18.5" font-family="Helvetica,sans-Serif" font-size="10.00">_vargs_onto_t&lt; source</text>
<text text-anchor="middle" x="78" y="-7.5" font-family="Helvetica,sans-Serif" font-size="10.00">_t, target_template &gt; &gt;</text>
</a>
</g>
</g>
<!-- Node125 -->
<g id="node9" class="node">
<title>Node125</title>
<g id="a_node9"><a xlink:href="structbio_1_1meta_1_1is__value__specialisation__of_3_01source__t_00_01target__template_01_4.html" target="_top" xlink:title="Determines whether a source_type is a specialisation of another template.">
<polygon fill="white" stroke="black" points="192,-15 192,-56 349,-56 349,-15 192,-15"/>
<text text-anchor="start" x="200" y="-44" font-family="Helvetica,sans-Serif" font-size="10.00">bio::meta::is_value</text>
<text text-anchor="start" x="200" y="-33" font-family="Helvetica,sans-Serif" font-size="10.00">_specialisation_of&lt;</text>
<text text-anchor="middle" x="270.5" y="-22" font-family="Helvetica,sans-Serif" font-size="10.00"> source_t, target_template &gt;</text>
</a>
</g>
</g>
<!-- Node124&#45;&gt;Node125 -->
<g id="edge5" class="edge">
<title>Node124&#45;&gt;Node125</title>
<path fill="none" stroke="midnightblue" d="M154.66,-30.07C166.83,-30.65 179.45,-31.25 191.67,-31.82"/>
<polygon fill="midnightblue" stroke="midnightblue" points="154.71,-26.57 144.56,-29.6 154.38,-33.57 154.71,-26.57"/>
</g>
<!-- Node155 -->
<g id="node10" class="node">
<title>Node155</title>
<g id="a_node10"><a xlink:href="interfacebio_1_1meta_1_1unary__type__trait.html" target="_top" xlink:title="Concept for a unary traits type.">
<polygon fill="white" stroke="black" points="29.5,-132 29.5,-151 126.5,-151 126.5,-132 29.5,-132"/>
<text text-anchor="middle" x="78" y="-139" font-family="Helvetica,sans-Serif" font-size="10.00">unary_type_trait</text>
</a>
</g>
</g>
<!-- Node155&#45;&gt;Node1 -->
<g id="edge6" class="edge">
<title>Node155&#45;&gt;Node1</title>
<path fill="none" stroke="midnightblue" d="M125.63,-153.58C135.65,-156.18 146.18,-158.93 156,-161.5 174.53,-166.36 194.76,-171.69 212.94,-176.5"/>
<polygon fill="midnightblue" stroke="midnightblue" points="126.38,-150.16 115.82,-151.03 124.62,-156.93 126.38,-150.16"/>
</g>
<!-- Node155&#45;&gt;Node2 -->
<g id="edge7" class="edge">
<title>Node155&#45;&gt;Node2</title>
<path fill="none" stroke="midnightblue" d="M136.27,-151.24C143.29,-153.88 150.06,-157.24 156,-161.5 179.73,-178.54 169.6,-197.75 192,-216.5 197.61,-221.19 203.98,-225.31 210.61,-228.9"/>
<polygon fill="midnightblue" stroke="midnightblue" points="137.21,-147.86 126.62,-148.06 135.03,-154.51 137.21,-147.86"/>
</g>
<!-- Node155&#45;&gt;Node119 -->
<g id="edge10" class="edge">
<title>Node155&#45;&gt;Node119</title>
<path fill="none" stroke="midnightblue" d="M136.84,-141.8C156.37,-141.91 178.39,-142.02 198.79,-142.13"/>
<polygon fill="midnightblue" stroke="midnightblue" points="136.6,-138.3 126.58,-141.75 136.56,-145.3 136.6,-138.3"/>
</g>
<!-- Node155&#45;&gt;Node121 -->
<g id="edge9" class="edge">
<title>Node155&#45;&gt;Node121</title>
<path fill="none" stroke="midnightblue" d="M128.42,-129.57C156.33,-122.83 191.14,-114.42 219.19,-107.65"/>
<polygon fill="midnightblue" stroke="midnightblue" points="127.37,-126.22 118.47,-131.97 129.01,-133.02 127.37,-126.22"/>
</g>
<!-- Node155&#45;&gt;Node125 -->
<g id="edge8" class="edge">
<title>Node155&#45;&gt;Node125</title>
<path fill="none" stroke="midnightblue" d="M136.4,-132.26C143.33,-129.75 150.06,-126.56 156,-122.5 178.91,-106.86 170.7,-89.28 192,-71.5 199.06,-65.61 207.25,-60.46 215.6,-56.03"/>
<polygon fill="midnightblue" stroke="midnightblue" points="135.33,-128.93 126.85,-135.28 137.44,-135.6 135.33,-128.93"/>
</g>
</g>
</svg>
