<?xml version="1.0" encoding="UTF-8" standalone="no"?>
<!DOCTYPE svg PUBLIC "-//W3C//DTD SVG 1.1//EN"
 "http://www.w3.org/Graphics/SVG/1.1/DTD/svg11.dtd">
<!-- Generated by graphviz version 2.42.2 ()
 -->
<!-- Title: Graphical Class Hierarchy Pages: 1 -->
<svg width="335pt" height="61pt"
 viewBox="0.00 0.00 335.00 61.00" xmlns="http://www.w3.org/2000/svg" xmlns:xlink="http://www.w3.org/1999/xlink">
<g id="graph0" class="graph" transform="scale(1 1) rotate(0) translate(4 57)">
<title>Graphical Class Hierarchy</title>
<polygon fill="white" stroke="transparent" points="-4,4 -4,-57 331,-57 331,4 -4,4"/>
<!-- Node0 -->
<g id="node1" class="node">
<title>Node0</title>
<g id="a_node1"><a xlink:title=" ">
<polygon fill="white" stroke="#bfbfbf" points="0,-0.5 0,-52.5 139,-52.5 139,-0.5 0,-0.5"/>
<text text-anchor="start" x="8" y="-40.5" font-family="Helvetica,sans-Serif" font-size="10.00">bio::ranges::detail</text>
<text text-anchor="start" x="8" y="-29.5" font-family="Helvetica,sans-Serif" font-size="10.00">::adaptor_base&lt; deep</text>
<text text-anchor="start" x="8" y="-18.5" font-family="Helvetica,sans-Serif" font-size="10.00">&lt; underlying_adaptor</text>
<text text-anchor="middle" x="69.5" y="-7.5" font-family="Helvetica,sans-Serif" font-size="10.00">_t &gt;, underlying_adaptor_t &gt;</text>
</a>
</g>
</g>
<!-- Node1 -->
<g id="node2" class="node">
<title>Node1</title>
<g id="a_node2"><a xlink:href="classbio_1_1ranges_1_1views_1_1deep.html" target="_top" xlink:title="A wrapper type around an existing view adaptor that enables &quot;deep view&quot; behaviour for that view.">
<polygon fill="white" stroke="black" points="175,-11.5 175,-41.5 327,-41.5 327,-11.5 175,-11.5"/>
<text text-anchor="start" x="183" y="-29.5" font-family="Helvetica,sans-Serif" font-size="10.00">bio::ranges::views</text>
<text text-anchor="middle" x="251" y="-18.5" font-family="Helvetica,sans-Serif" font-size="10.00">::deep&lt; underlying_adaptor_t &gt;</text>
</a>
</g>
</g>
<!-- Node0&#45;&gt;Node1 -->
<g id="edge1" class="edge">
<title>Node0&#45;&gt;Node1</title>
<path fill="none" stroke="midnightblue" d="M149.36,-26.5C157.82,-26.5 166.41,-26.5 174.83,-26.5"/>
<polygon fill="midnightblue" stroke="midnightblue" points="149.13,-23 139.13,-26.5 149.13,-30 149.13,-23"/>
</g>
</g>
</svg>
