<?xml version="1.0" encoding="UTF-8" standalone="no"?>
<!DOCTYPE svg PUBLIC "-//W3C//DTD SVG 1.1//EN"
 "http://www.w3.org/Graphics/SVG/1.1/DTD/svg11.dtd">
<!-- Generated by graphviz version 2.43.0 (0)
 -->
<!-- Title: bio/ranges/detail/inherited_iterator_base.hpp Pages: 1 -->
<svg width="593pt" height="285pt"
 viewBox="0.00 0.00 592.51 285.00" xmlns="http://www.w3.org/2000/svg" xmlns:xlink="http://www.w3.org/1999/xlink">
<g id="graph0" class="graph" transform="scale(1 1) rotate(0) translate(4 281)">
<title>bio/ranges/detail/inherited_iterator_base.hpp</title>
<polygon fill="white" stroke="transparent" points="-4,4 -4,-281 588.51,-281 588.51,4 -4,4"/>
<!-- Node1 -->
<g id="node1" class="node">
<title>Node1</title>
<g id="a_node1"><a xlink:title="Provides the bio::ranges::detail::inherited_iterator_base template.">
<polygon fill="#bfbfbf" stroke="black" points="151.5,-246.5 151.5,-276.5 296.5,-276.5 296.5,-246.5 151.5,-246.5"/>
<text text-anchor="start" x="159.5" y="-264.5" font-family="Helvetica,sans-Serif" font-size="10.00">bio/ranges/detail/inherited</text>
<text text-anchor="middle" x="224" y="-253.5" font-family="Helvetica,sans-Serif" font-size="10.00">_iterator_base.hpp</text>
</a>
</g>
</g>
<!-- Node2 -->
<g id="node2" class="node">
<title>Node2</title>
<g id="a_node2"><a target="_blank" xlink:href="https://en.cppreference.com/w/cpp/header/cassert.html" xlink:title=" ">
<polygon fill="white" stroke="black" points="0,-185 0,-204 52,-204 52,-185 0,-185"/>
<text text-anchor="middle" x="26" y="-192" font-family="Helvetica,sans-Serif" font-size="10.00">cassert</text>
</a>
</g>
</g>
<!-- Node1&#45;&gt;Node2 -->
<g id="edge1" class="edge">
<title>Node1&#45;&gt;Node2</title>
<path fill="none" stroke="midnightblue" d="M174.39,-246.42C141.89,-236.89 98.62,-223.59 61,-210 59.14,-209.33 57.24,-208.62 55.33,-207.88"/>
<polygon fill="midnightblue" stroke="midnightblue" points="56.45,-204.56 45.86,-204.1 53.85,-211.06 56.45,-204.56"/>
</g>
<!-- Node3 -->
<g id="node3" class="node">
<title>Node3</title>
<g id="a_node3"><a target="_blank" xlink:href="https://en.cppreference.com/w/cpp/header/type_traits.html" xlink:title=" ">
<polygon fill="white" stroke="black" points="457.5,-56.5 457.5,-75.5 526.5,-75.5 526.5,-56.5 457.5,-56.5"/>
<text text-anchor="middle" x="492" y="-63.5" font-family="Helvetica,sans-Serif" font-size="10.00">type_traits</text>
</a>
</g>
</g>
<!-- Node1&#45;&gt;Node3 -->
<g id="edge2" class="edge">
<title>Node1&#45;&gt;Node3</title>
<path fill="none" stroke="midnightblue" d="M296.9,-247.42C391.49,-228.7 548.11,-191.16 579,-143 586.44,-131.4 586.16,-123.77 579,-112 569.47,-96.34 552.53,-85.88 536.11,-79.03"/>
<polygon fill="midnightblue" stroke="midnightblue" points="537.16,-75.69 526.57,-75.4 534.67,-82.23 537.16,-75.69"/>
</g>
<!-- Node4 -->
<g id="node4" class="node">
<title>Node4</title>
<g id="a_node4"><a xlink:href="empty__type_8hpp.html" target="_top" xlink:title="Provides bio::meta::detail::empty_type.">
<polygon fill="white" stroke="black" points="70.5,-179.5 70.5,-209.5 195.5,-209.5 195.5,-179.5 70.5,-179.5"/>
<text text-anchor="start" x="78.5" y="-197.5" font-family="Helvetica,sans-Serif" font-size="10.00">bio/meta/detail/empty</text>
<text text-anchor="middle" x="133" y="-186.5" font-family="Helvetica,sans-Serif" font-size="10.00">_type.hpp</text>
</a>
</g>
</g>
<!-- Node1&#45;&gt;Node4 -->
<g id="edge3" class="edge">
<title>Node1&#45;&gt;Node4</title>
<path fill="none" stroke="midnightblue" d="M204.25,-246.4C191.61,-237.37 175.02,-225.51 161.03,-215.52"/>
<polygon fill="midnightblue" stroke="midnightblue" points="162.88,-212.54 152.71,-209.58 158.81,-218.24 162.88,-212.54"/>
</g>
<!-- Node9 -->
<g id="node9" class="node">
<title>Node9</title>
<g id="a_node9"><a xlink:href="type__traits_8hpp.html" target="_top" xlink:title="Provides various transformation traits used by the range module.">
<polygon fill="white" stroke="black" points="280,-185 280,-204 424,-204 424,-185 280,-185"/>
<text text-anchor="middle" x="352" y="-192" font-family="Helvetica,sans-Serif" font-size="10.00">bio/ranges/type_traits.hpp</text>
</a>
</g>
</g>
<!-- Node1&#45;&gt;Node9 -->
<g id="edge8" class="edge">
<title>Node1&#45;&gt;Node9</title>
<path fill="none" stroke="midnightblue" d="M251.77,-246.4C273.94,-235.14 304.74,-219.5 326.33,-208.54"/>
<polygon fill="midnightblue" stroke="midnightblue" points="327.92,-211.66 335.25,-204.01 324.75,-205.41 327.92,-211.66"/>
</g>
<!-- Node10 -->
<g id="node10" class="node">
<title>Node10</title>
<g id="a_node10"><a target="_blank" xlink:href="https://en.cppreference.com/w/cpp/header/iterator.html" xlink:title=" ">
<polygon fill="white" stroke="black" points="134.5,-118 134.5,-137 187.5,-137 187.5,-118 134.5,-118"/>
<text text-anchor="middle" x="161" y="-125" font-family="Helvetica,sans-Serif" font-size="10.00">iterator</text>
</a>
</g>
</g>
<!-- Node1&#45;&gt;Node10 -->
<g id="edge18" class="edge">
<title>Node1&#45;&gt;Node10</title>
<path fill="none" stroke="midnightblue" d="M222.53,-246.25C220.34,-229.42 215.22,-200.92 204,-179 197.43,-166.16 186.99,-153.79 178.04,-144.51"/>
<polygon fill="midnightblue" stroke="midnightblue" points="180.26,-141.77 170.7,-137.21 175.32,-146.74 180.26,-141.77"/>
</g>
<!-- Node5 -->
<g id="node5" class="node">
<title>Node5</title>
<g id="a_node5"><a xlink:href="platform_8hpp.html" target="_top" xlink:title="Provides platform and dependency checks.">
<polygon fill="white" stroke="black" points="205,-56.5 205,-75.5 331,-75.5 331,-56.5 205,-56.5"/>
<text text-anchor="middle" x="268" y="-63.5" font-family="Helvetica,sans-Serif" font-size="10.00">bio/meta/platform.hpp</text>
</a>
</g>
</g>
<!-- Node4&#45;&gt;Node5 -->
<g id="edge4" class="edge">
<title>Node4&#45;&gt;Node5</title>
<path fill="none" stroke="midnightblue" d="M126.31,-179.3C119.12,-161.73 110.53,-131.72 125,-112 141.25,-89.86 168.39,-78.32 194.7,-72.41"/>
<polygon fill="midnightblue" stroke="midnightblue" points="195.59,-75.8 204.71,-70.41 194.22,-68.94 195.59,-75.8"/>
</g>
<!-- Node6 -->
<g id="node6" class="node">
<title>Node6</title>
<g id="a_node6"><a target="_blank" xlink:href="https://en.cppreference.com/w/cpp/header/cinttypes.html" xlink:title=" ">
<polygon fill="white" stroke="black" points="161,-0.5 161,-19.5 223,-19.5 223,-0.5 161,-0.5"/>
<text text-anchor="middle" x="192" y="-7.5" font-family="Helvetica,sans-Serif" font-size="10.00">cinttypes</text>
</a>
</g>
</g>
<!-- Node5&#45;&gt;Node6 -->
<g id="edge5" class="edge">
<title>Node5&#45;&gt;Node6</title>
<path fill="none" stroke="midnightblue" d="M255.79,-56.32C244.22,-48.11 226.62,-35.6 212.84,-25.81"/>
<polygon fill="midnightblue" stroke="midnightblue" points="214.61,-22.77 204.43,-19.83 210.56,-28.48 214.61,-22.77"/>
</g>
<!-- Node7 -->
<g id="node7" class="node">
<title>Node7</title>
<g id="a_node7"><a target="_blank" xlink:href="https://en.cppreference.com/w/cpp/header/ciso646.html" xlink:title=" ">
<polygon fill="white" stroke="black" points="241,-0.5 241,-19.5 295,-19.5 295,-0.5 241,-0.5"/>
<text text-anchor="middle" x="268" y="-7.5" font-family="Helvetica,sans-Serif" font-size="10.00">ciso646</text>
</a>
</g>
</g>
<!-- Node5&#45;&gt;Node7 -->
<g id="edge6" class="edge">
<title>Node5&#45;&gt;Node7</title>
<path fill="none" stroke="midnightblue" d="M268,-56.08C268,-49.01 268,-38.86 268,-29.99"/>
<polygon fill="midnightblue" stroke="midnightblue" points="271.5,-29.75 268,-19.75 264.5,-29.75 271.5,-29.75"/>
</g>
<!-- Node8 -->
<g id="node8" class="node">
<title>Node8</title>
<g id="a_node8"><a target="_blank" xlink:href="https://en.cppreference.com/w/cpp/header/cstddef.html" xlink:title=" ">
<polygon fill="white" stroke="black" points="313.5,-0.5 313.5,-19.5 366.5,-19.5 366.5,-0.5 313.5,-0.5"/>
<text text-anchor="middle" x="340" y="-7.5" font-family="Helvetica,sans-Serif" font-size="10.00">cstddef</text>
</a>
</g>
</g>
<!-- Node5&#45;&gt;Node8 -->
<g id="edge7" class="edge">
<title>Node5&#45;&gt;Node8</title>
<path fill="none" stroke="midnightblue" d="M279.57,-56.32C290.42,-48.18 306.88,-35.84 319.88,-26.09"/>
<polygon fill="midnightblue" stroke="midnightblue" points="322.32,-28.63 328.22,-19.83 318.12,-23.03 322.32,-28.63"/>
</g>
<!-- Node9&#45;&gt;Node3 -->
<g id="edge11" class="edge">
<title>Node9&#45;&gt;Node3</title>
<path fill="none" stroke="midnightblue" d="M397.66,-184.98C423.28,-177.91 453.85,-165.27 473,-143 486.69,-127.08 490.78,-102.72 491.87,-85.89"/>
<polygon fill="midnightblue" stroke="midnightblue" points="495.37,-85.76 492.22,-75.64 488.38,-85.52 495.37,-85.76"/>
</g>
<!-- Node9&#45;&gt;Node10 -->
<g id="edge9" class="edge">
<title>Node9&#45;&gt;Node10</title>
<path fill="none" stroke="midnightblue" d="M323.8,-184.95C292.59,-175.33 240.88,-158.97 197,-143 195.1,-142.31 193.15,-141.58 191.19,-140.83"/>
<polygon fill="midnightblue" stroke="midnightblue" points="192.06,-137.41 181.47,-137.02 189.5,-143.93 192.06,-137.41"/>
</g>
<!-- Node11 -->
<g id="node11" class="node">
<title>Node11</title>
<g id="a_node11"><a target="_blank" xlink:href="https://en.cppreference.com/w/cpp/header/ranges.html" xlink:title=" ">
<polygon fill="white" stroke="black" points="520,-118 520,-137 570,-137 570,-118 520,-118"/>
<text text-anchor="middle" x="545" y="-125" font-family="Helvetica,sans-Serif" font-size="10.00">ranges</text>
</a>
</g>
</g>
<!-- Node9&#45;&gt;Node11 -->
<g id="edge10" class="edge">
<title>Node9&#45;&gt;Node11</title>
<path fill="none" stroke="midnightblue" d="M379.09,-184.97C409.94,-175.18 461.78,-158.46 506,-143 508.24,-142.22 510.56,-141.39 512.88,-140.56"/>
<polygon fill="midnightblue" stroke="midnightblue" points="514.18,-143.81 522.37,-137.08 511.78,-137.23 514.18,-143.81"/>
</g>
<!-- Node12 -->
<g id="node12" class="node">
<title>Node12</title>
<g id="a_node12"><a xlink:href="basic_8hpp.html" target="_top" xlink:title="Provides various type traits on generic types.">
<polygon fill="white" stroke="black" points="348,-112.5 348,-142.5 464,-142.5 464,-112.5 348,-112.5"/>
<text text-anchor="start" x="356" y="-130.5" font-family="Helvetica,sans-Serif" font-size="10.00">bio/meta/type_traits</text>
<text text-anchor="middle" x="406" y="-119.5" font-family="Helvetica,sans-Serif" font-size="10.00">/basic.hpp</text>
</a>
</g>
</g>
<!-- Node9&#45;&gt;Node12 -->
<g id="edge12" class="edge">
<title>Node9&#45;&gt;Node12</title>
<path fill="none" stroke="midnightblue" d="M359.28,-184.73C366.58,-175.95 378.1,-162.08 387.88,-150.31"/>
<polygon fill="midnightblue" stroke="midnightblue" points="390.6,-152.52 394.3,-142.59 385.21,-148.04 390.6,-152.52"/>
</g>
<!-- Node14 -->
<g id="node14" class="node">
<title>Node14</title>
<g id="a_node14"><a xlink:href="ranges_2biocpp_8hpp.html" target="_top" xlink:title="Module header with module&#45;wide definitions.">
<polygon fill="white" stroke="black" points="206,-118 206,-137 330,-137 330,-118 206,-118"/>
<text text-anchor="middle" x="268" y="-125" font-family="Helvetica,sans-Serif" font-size="10.00">bio/ranges/biocpp.hpp</text>
</a>
</g>
</g>
<!-- Node9&#45;&gt;Node14 -->
<g id="edge16" class="edge">
<title>Node9&#45;&gt;Node14</title>
<path fill="none" stroke="midnightblue" d="M340.67,-184.73C326.94,-174.11 303.6,-156.05 287.08,-143.26"/>
<polygon fill="midnightblue" stroke="midnightblue" points="289.2,-140.48 279.15,-137.13 284.92,-146.02 289.2,-140.48"/>
</g>
<!-- Node12&#45;&gt;Node3 -->
<g id="edge14" class="edge">
<title>Node12&#45;&gt;Node3</title>
<path fill="none" stroke="midnightblue" d="M426.38,-112.4C439.91,-103.04 457.61,-90.79 471.22,-81.38"/>
<polygon fill="midnightblue" stroke="midnightblue" points="473.25,-84.23 479.49,-75.66 469.27,-78.47 473.25,-84.23"/>
</g>
<!-- Node12&#45;&gt;Node5 -->
<g id="edge15" class="edge">
<title>Node12&#45;&gt;Node5</title>
<path fill="none" stroke="midnightblue" d="M373.3,-112.4C350.25,-102.46 319.64,-89.26 297.37,-79.66"/>
<polygon fill="midnightblue" stroke="midnightblue" points="298.65,-76.4 288.08,-75.66 295.88,-82.83 298.65,-76.4"/>
</g>
<!-- Node13 -->
<g id="node13" class="node">
<title>Node13</title>
<g id="a_node13"><a target="_blank" xlink:href="https://en.cppreference.com/w/cpp/header/tuple.html" xlink:title=" ">
<polygon fill="white" stroke="black" points="385.5,-56.5 385.5,-75.5 426.5,-75.5 426.5,-56.5 385.5,-56.5"/>
<text text-anchor="middle" x="406" y="-63.5" font-family="Helvetica,sans-Serif" font-size="10.00">tuple</text>
</a>
</g>
</g>
<!-- Node12&#45;&gt;Node13 -->
<g id="edge13" class="edge">
<title>Node12&#45;&gt;Node13</title>
<path fill="none" stroke="midnightblue" d="M406,-112.4C406,-104.47 406,-94.46 406,-85.86"/>
<polygon fill="midnightblue" stroke="midnightblue" points="409.5,-85.66 406,-75.66 402.5,-85.66 409.5,-85.66"/>
</g>
<!-- Node14&#45;&gt;Node5 -->
<g id="edge17" class="edge">
<title>Node14&#45;&gt;Node5</title>
<path fill="none" stroke="midnightblue" d="M268,-117.98C268,-109.58 268,-96.48 268,-85.66"/>
<polygon fill="midnightblue" stroke="midnightblue" points="271.5,-85.51 268,-75.51 264.5,-85.51 271.5,-85.51"/>
</g>
</g>
</svg>
