<?xml version="1.0" encoding="UTF-8" standalone="no"?>
<!DOCTYPE svg PUBLIC "-//W3C//DTD SVG 1.1//EN"
 "http://www.w3.org/Graphics/SVG/1.1/DTD/svg11.dtd">
<!-- Generated by graphviz version 2.43.0 (0)
 -->
<!-- Title: Graphical Class Hierarchy Pages: 1 -->
<svg width="516pt" height="465pt"
 viewBox="0.00 0.00 516.00 465.12" xmlns="http://www.w3.org/2000/svg" xmlns:xlink="http://www.w3.org/1999/xlink">
<g id="graph0" class="graph" transform="scale(1 1) rotate(0) translate(4 461.12)">
<title>Graphical Class Hierarchy</title>
<!-- Node0 -->
<g id="node1" class="node">
<title>Node0</title>
<g id="a_node1"><a xlink:title=" ">
<polygon fill="#e0e0e0" stroke="#999999" points="139,-360.62 0,-360.62 0,-341.62 139,-341.62 139,-360.62"/>
<text text-anchor="middle" x="69.5" y="-348.62" font-family="Helvetica,sans-Serif" font-size="10.00">bio::ranges::back_insertable</text>
</a>
</g>
</g>
<!-- Node1 -->
<g id="node2" class="node">
<title>Node1</title>
<g id="a_node2"><a xlink:href="classbio_1_1ranges_1_1dictionary.html" target="_top" xlink:title="An associative container with contiguous, predictable storage.">
<polygon fill="white" stroke="#666666" points="340,-379.62 201,-379.62 201,-338.62 340,-338.62 340,-379.62"/>
<text text-anchor="start" x="209" y="-367.62" font-family="Helvetica,sans-Serif" font-size="10.00">bio::ranges::dictionary</text>
<text text-anchor="start" x="209" y="-356.62" font-family="Helvetica,sans-Serif" font-size="10.00">&lt; key_t, mapped_t, mapped</text>
<text text-anchor="middle" x="270.5" y="-345.62" font-family="Helvetica,sans-Serif" font-size="10.00">_t_is_context_aware &gt;</text>
</a>
</g>
</g>
<!-- Node0&#45;&gt;Node1 -->
<g id="edge1" class="edge">
<title>Node0&#45;&gt;Node1</title>
<path fill="none" stroke="#63b8ff" d="M149.66,-354.31C166.55,-354.99 184.27,-355.7 200.73,-356.36"/>
<polygon fill="#63b8ff" stroke="#63b8ff" points="149.4,-350.79 139.26,-353.89 149.11,-357.79 149.4,-350.79"/>
</g>
<!-- Node2 -->
<g id="node3" class="node">
<title>Node2</title>
<g id="a_node3"><a xlink:title=" ">
<polygon fill="#e0e0e0" stroke="#999999" points="113,-266.62 26,-266.62 26,-247.62 113,-247.62 113,-266.62"/>
<text text-anchor="middle" x="69.5" y="-254.62" font-family="Helvetica,sans-Serif" font-size="10.00">bio::cerealisable</text>
</a>
</g>
</g>
<!-- Node2&#45;&gt;Node1 -->
<g id="edge6" class="edge">
<title>Node2&#45;&gt;Node1</title>
<path fill="none" stroke="#63b8ff" d="M114.06,-270.34C122.77,-274.04 131.52,-278.61 139,-284.12 159.61,-299.33 153.89,-314.63 175,-329.12 182.8,-334.48 191.62,-338.92 200.65,-342.59"/>
<polygon fill="#63b8ff" stroke="#63b8ff" points="115.29,-267.06 104.7,-266.66 112.72,-273.58 115.29,-267.06"/>
</g>
<!-- Node3 -->
<g id="node4" class="node">
<title>Node3</title>
<g id="a_node4"><a xlink:href="classbio_1_1ranges_1_1small__vector.html" target="_top" xlink:title=" ">
<polygon fill="white" stroke="#666666" points="342.5,-320.12 198.5,-320.12 198.5,-290.12 342.5,-290.12 342.5,-320.12"/>
<text text-anchor="start" x="206.5" y="-308.12" font-family="Helvetica,sans-Serif" font-size="10.00">bio::ranges::small</text>
<text text-anchor="middle" x="270.5" y="-297.12" font-family="Helvetica,sans-Serif" font-size="10.00">_vector&lt; char, capacity_+1 &gt;</text>
</a>
</g>
</g>
<!-- Node2&#45;&gt;Node3 -->
<g id="edge2" class="edge">
<title>Node2&#45;&gt;Node3</title>
<path fill="none" stroke="#63b8ff" d="M120.05,-269.08C146.38,-275.43 179.01,-283.3 207.05,-290.06"/>
<polygon fill="#63b8ff" stroke="#63b8ff" points="120.83,-265.67 110.29,-266.72 119.19,-272.47 120.83,-265.67"/>
</g>
<!-- Node6 -->
<g id="node7" class="node">
<title>Node6</title>
<g id="a_node7"><a xlink:href="classbio_1_1ranges_1_1bitcompressed__vector.html" target="_top" xlink:title="A space&#45;optimised version of std::vector that compresses multiple letters into a single byte.">
<polygon fill="white" stroke="#666666" points="337.5,-272.12 203.5,-272.12 203.5,-242.12 337.5,-242.12 337.5,-272.12"/>
<text text-anchor="start" x="211.5" y="-260.12" font-family="Helvetica,sans-Serif" font-size="10.00">bio::ranges::bitcompressed</text>
<text text-anchor="middle" x="270.5" y="-249.12" font-family="Helvetica,sans-Serif" font-size="10.00">_vector&lt; alphabet_type &gt;</text>
</a>
</g>
</g>
<!-- Node2&#45;&gt;Node6 -->
<g id="edge5" class="edge">
<title>Node2&#45;&gt;Node6</title>
<path fill="none" stroke="#63b8ff" d="M123.39,-257.12C147.94,-257.12 177.38,-257.12 203.38,-257.12"/>
<polygon fill="#63b8ff" stroke="#63b8ff" points="123.19,-253.62 113.19,-257.12 123.19,-260.62 123.19,-253.62"/>
</g>
<!-- Node8 -->
<g id="node8" class="node">
<title>Node8</title>
<g id="a_node8"><a xlink:href="classbio_1_1ranges_1_1dynamic__bitset.html" target="_top" xlink:title="A constexpr bitset implementation with dynamic size at compile time.">
<polygon fill="white" stroke="#666666" points="328.5,-224.12 212.5,-224.12 212.5,-194.12 328.5,-194.12 328.5,-224.12"/>
<text text-anchor="start" x="220.5" y="-212.12" font-family="Helvetica,sans-Serif" font-size="10.00">bio::ranges::dynamic</text>
<text text-anchor="middle" x="270.5" y="-201.12" font-family="Helvetica,sans-Serif" font-size="10.00">_bitset&lt; bit_capacity &gt;</text>
</a>
</g>
</g>
<!-- Node2&#45;&gt;Node8 -->
<g id="edge7" class="edge">
<title>Node2&#45;&gt;Node8</title>
<path fill="none" stroke="#63b8ff" d="M120.26,-245.12C148.26,-238.37 183.33,-229.91 212.44,-222.89"/>
<polygon fill="#63b8ff" stroke="#63b8ff" points="119.19,-241.78 110.29,-247.53 120.83,-248.58 119.19,-241.78"/>
</g>
<!-- Node10 -->
<g id="node9" class="node">
<title>Node10</title>
<g id="a_node9"><a xlink:href="classbio_1_1ranges_1_1small__vector.html" target="_top" xlink:title="A constexpr vector implementation with dynamic size at compile time.">
<polygon fill="white" stroke="#666666" points="323,-175.62 218,-175.62 218,-134.62 323,-134.62 323,-175.62"/>
<text text-anchor="start" x="226" y="-163.62" font-family="Helvetica,sans-Serif" font-size="10.00">bio::ranges::small</text>
<text text-anchor="start" x="226" y="-152.62" font-family="Helvetica,sans-Serif" font-size="10.00">_vector&lt; value_type</text>
<text text-anchor="middle" x="270.5" y="-141.62" font-family="Helvetica,sans-Serif" font-size="10.00">_, capacity_ &gt;</text>
</a>
</g>
</g>
<!-- Node2&#45;&gt;Node10 -->
<g id="edge8" class="edge">
<title>Node2&#45;&gt;Node10</title>
<path fill="none" stroke="#63b8ff" d="M89.83,-241.18C110.02,-225.18 143.14,-200.72 175,-185.12 188.45,-178.54 203.67,-172.96 217.91,-168.47"/>
<polygon fill="#63b8ff" stroke="#63b8ff" points="87.61,-238.48 82.01,-247.47 92,-243.93 87.61,-238.48"/>
</g>
<!-- Node4 -->
<g id="node5" class="node">
<title>Node4</title>
<g id="a_node5"><a xlink:href="classbio_1_1ranges_1_1small__string.html" target="_top" xlink:title=" ">
<polygon fill="white" stroke="#666666" points="505.5,-147.12 404.5,-147.12 404.5,-117.12 505.5,-117.12 505.5,-147.12"/>
<text text-anchor="start" x="412.5" y="-135.12" font-family="Helvetica,sans-Serif" font-size="10.00">bio::ranges::small</text>
<text text-anchor="middle" x="455" y="-124.12" font-family="Helvetica,sans-Serif" font-size="10.00">_string&lt; capacity &gt;</text>
</a>
</g>
</g>
<!-- Node3&#45;&gt;Node4 -->
<g id="edge3" class="edge">
<title>Node3&#45;&gt;Node4</title>
<path fill="none" stroke="#63b8ff" d="M351.94,-290.95C357.01,-288.21 361.77,-284.96 366,-281.12 400.98,-249.38 376.1,-220.63 402,-181.12 410.5,-168.16 423.1,-156.17 433.76,-147.3"/>
<polygon fill="#63b8ff" stroke="#63b8ff" points="350.09,-287.95 342.52,-295.35 353.06,-294.29 350.09,-287.95"/>
</g>
<!-- Node9 -->
<g id="node6" class="node">
<title>Node9</title>
<g id="a_node6"><a xlink:href="classbio_1_1ranges_1_1small__string.html" target="_top" xlink:title="Implements a small string that can be used for compile time computations.">
<polygon fill="white" stroke="#666666" points="508,-220.12 402,-220.12 402,-190.12 508,-190.12 508,-220.12"/>
<text text-anchor="start" x="410" y="-208.12" font-family="Helvetica,sans-Serif" font-size="10.00">bio::ranges::small</text>
<text text-anchor="middle" x="455" y="-197.12" font-family="Helvetica,sans-Serif" font-size="10.00">_string&lt; capacity_ &gt;</text>
</a>
</g>
</g>
<!-- Node3&#45;&gt;Node9 -->
<g id="edge4" class="edge">
<title>Node3&#45;&gt;Node9</title>
<path fill="none" stroke="#63b8ff" d="M351.95,-287.5C356.8,-285.58 361.52,-283.46 366,-281.12 396.07,-265.45 424.57,-237.62 440.61,-220.33"/>
<polygon fill="#63b8ff" stroke="#63b8ff" points="350.7,-284.23 342.51,-290.95 353.11,-290.8 350.7,-284.23"/>
</g>
<!-- Node11 -->
<g id="node10" class="node">
<title>Node11</title>
<g id="a_node10"><a xlink:title=" ">
<polygon fill="#e0e0e0" stroke="#999999" points="124,-323.12 15,-323.12 15,-293.12 124,-293.12 124,-323.12"/>
<text text-anchor="start" x="23" y="-311.12" font-family="Helvetica,sans-Serif" font-size="10.00">std::ranges::common</text>
<text text-anchor="middle" x="69.5" y="-300.12" font-family="Helvetica,sans-Serif" font-size="10.00">_range</text>
</a>
</g>
</g>
<!-- Node11&#45;&gt;Node1 -->
<g id="edge9" class="edge">
<title>Node11&#45;&gt;Node1</title>
<path fill="none" stroke="#63b8ff" d="M134,-324.4C155.29,-329.86 179.13,-335.97 200.81,-341.52"/>
<polygon fill="#63b8ff" stroke="#63b8ff" points="134.65,-320.95 124.09,-321.86 132.91,-327.73 134.65,-320.95"/>
</g>
<!-- Node12 -->
<g id="node11" class="node">
<title>Node12</title>
<g id="a_node11"><a xlink:title=" ">
<polygon fill="#e0e0e0" stroke="#999999" points="121.5,-457.12 17.5,-457.12 17.5,-427.12 121.5,-427.12 121.5,-457.12"/>
<text text-anchor="start" x="25.5" y="-445.12" font-family="Helvetica,sans-Serif" font-size="10.00">std::ranges::random</text>
<text text-anchor="middle" x="69.5" y="-434.12" font-family="Helvetica,sans-Serif" font-size="10.00">_access_range</text>
</a>
</g>
</g>
<!-- Node12&#45;&gt;Node1 -->
<g id="edge10" class="edge">
<title>Node12&#45;&gt;Node1</title>
<path fill="none" stroke="#63b8ff" d="M125.03,-423.51C129.77,-421.74 134.49,-419.93 139,-418.12 168.55,-406.3 201.17,-391.55 226.41,-379.75"/>
<polygon fill="#63b8ff" stroke="#63b8ff" points="123.49,-420.34 115.3,-427.06 125.89,-426.92 123.49,-420.34"/>
</g>
<!-- Node5 -->
<g id="node12" class="node">
<title>Node5</title>
<g id="a_node12"><a xlink:title=" ">
<polygon fill="#e0e0e0" stroke="#999999" points="124.5,-170.12 14.5,-170.12 14.5,-140.12 124.5,-140.12 124.5,-170.12"/>
<text text-anchor="start" x="22.5" y="-158.12" font-family="Helvetica,sans-Serif" font-size="10.00">bio::ranges::detail</text>
<text text-anchor="middle" x="69.5" y="-147.12" font-family="Helvetica,sans-Serif" font-size="10.00">::reservible_container</text>
</a>
</g>
</g>
<!-- Node5&#45;&gt;Node3 -->
<g id="edge12" class="edge">
<title>Node5&#45;&gt;Node3</title>
<path fill="none" stroke="#63b8ff" d="M89.92,-178.63C119.95,-214.97 174.3,-280.69 175,-281.12 182.15,-285.65 190.12,-289.32 198.31,-292.3"/>
<polygon fill="#63b8ff" stroke="#63b8ff" points="92.27,-175.99 83.21,-170.51 86.88,-180.44 92.27,-175.99"/>
</g>
<!-- Node5&#45;&gt;Node4 -->
<g id="edge11" class="edge">
<title>Node5&#45;&gt;Node4</title>
<path fill="none" stroke="#63b8ff" d="M81.87,-130.81C97.78,-100.06 129.86,-48.54 175,-27.12 251.69,9.27 289.08,8.77 366,-27.12 406.09,-45.83 434.38,-92.78 446.85,-117.06"/>
<polygon fill="#63b8ff" stroke="#63b8ff" points="78.62,-129.49 77.28,-140 84.88,-132.62 78.62,-129.49"/>
</g>
<!-- Node5&#45;&gt;Node9 -->
<g id="edge16" class="edge">
<title>Node5&#45;&gt;Node9</title>
<path fill="none" stroke="#63b8ff" d="M119.42,-136.88C179.56,-117.39 283.76,-93.33 366,-125.12 370.43,-126.84 413.95,-167.42 438.08,-190.11"/>
<polygon fill="#63b8ff" stroke="#63b8ff" points="118.18,-133.6 109.79,-140.08 120.39,-140.24 118.18,-133.6"/>
</g>
<!-- Node5&#45;&gt;Node6 -->
<g id="edge13" class="edge">
<title>Node5&#45;&gt;Node6</title>
<path fill="none" stroke="#63b8ff" d="M94.24,-177.17C114.34,-194.71 144.65,-218.65 175,-233.12 183.86,-237.35 193.56,-240.89 203.26,-243.85"/>
<polygon fill="#63b8ff" stroke="#63b8ff" points="96.34,-174.35 86.54,-170.32 91.69,-179.58 96.34,-174.35"/>
</g>
<!-- Node5&#45;&gt;Node8 -->
<g id="edge15" class="edge">
<title>Node5&#45;&gt;Node8</title>
<path fill="none" stroke="#63b8ff" d="M133.89,-172.85C147.45,-176.6 161.69,-180.52 175,-184.12 187.04,-187.39 199.95,-190.84 212.25,-194.1"/>
<polygon fill="#63b8ff" stroke="#63b8ff" points="134.74,-169.45 124.16,-170.15 132.87,-176.2 134.74,-169.45"/>
</g>
<!-- Node5&#45;&gt;Node10 -->
<g id="edge17" class="edge">
<title>Node5&#45;&gt;Node10</title>
<path fill="none" stroke="#63b8ff" d="M134.7,-155.12C161.58,-155.12 192.41,-155.12 217.8,-155.12"/>
<polygon fill="#63b8ff" stroke="#63b8ff" points="134.61,-151.62 124.61,-155.12 134.61,-158.62 134.61,-151.62"/>
</g>
<!-- Node7 -->
<g id="node13" class="node">
<title>Node7</title>
<g id="a_node13"><a xlink:href="classbio_1_1ranges_1_1concatenated__sequences.html" target="_top" xlink:title="Container that stores sequences concatenated internally.">
<polygon fill="white" stroke="#666666" points="366,-77.62 175,-77.62 175,-36.62 366,-36.62 366,-77.62"/>
<text text-anchor="start" x="183" y="-65.62" font-family="Helvetica,sans-Serif" font-size="10.00">bio::ranges::concatenated</text>
<text text-anchor="start" x="183" y="-54.62" font-family="Helvetica,sans-Serif" font-size="10.00">_sequences&lt; underlying</text>
<text text-anchor="middle" x="270.5" y="-43.62" font-family="Helvetica,sans-Serif" font-size="10.00">_container_type, data_delimiters_type &gt;</text>
</a>
</g>
</g>
<!-- Node5&#45;&gt;Node7 -->
<g id="edge14" class="edge">
<title>Node5&#45;&gt;Node7</title>
<path fill="none" stroke="#63b8ff" d="M101.19,-134.52C121.57,-121.37 149.23,-104.53 175,-92.12 185.72,-86.96 197.41,-82.08 208.8,-77.68"/>
<polygon fill="#63b8ff" stroke="#63b8ff" points="99.11,-131.7 92.65,-140.09 102.94,-137.56 99.11,-131.7"/>
</g>
<!-- Node13 -->
<g id="node14" class="node">
<title>Node13</title>
<g id="a_node14"><a xlink:title=" ">
<polygon fill="#e0e0e0" stroke="#999999" points="117,-409.12 22,-409.12 22,-379.12 117,-379.12 117,-409.12"/>
<text text-anchor="start" x="30" y="-397.12" font-family="Helvetica,sans-Serif" font-size="10.00">std::ranges::sized</text>
<text text-anchor="middle" x="69.5" y="-386.12" font-family="Helvetica,sans-Serif" font-size="10.00">_range</text>
</a>
</g>
</g>
<!-- Node13&#45;&gt;Node1 -->
<g id="edge18" class="edge">
<title>Node13&#45;&gt;Node1</title>
<path fill="none" stroke="#63b8ff" d="M127.09,-384.17C150.06,-380.13 176.81,-375.43 200.88,-371.19"/>
<polygon fill="#63b8ff" stroke="#63b8ff" points="126.4,-380.74 117.16,-385.92 127.61,-387.63 126.4,-380.74"/>
</g>
</g>
</svg>
