<?xml version="1.0" encoding="UTF-8" standalone="no"?>
<!DOCTYPE svg PUBLIC "-//W3C//DTD SVG 1.1//EN"
 "http://www.w3.org/Graphics/SVG/1.1/DTD/svg11.dtd">
<!-- Generated by graphviz version 2.43.0 (0)
 -->
<!-- Title: random_access_container Pages: 1 -->
<svg width="1491pt" height="281pt"
 viewBox="0.00 0.00 1491.00 280.52" xmlns="http://www.w3.org/2000/svg" xmlns:xlink="http://www.w3.org/1999/xlink">
<g id="graph0" class="graph" transform="scale(1 1) rotate(0) translate(4 276.52)">
<title>random_access_container</title>
<polygon fill="white" stroke="transparent" points="-4,4 -4,-276.52 1487,-276.52 1487,4 -4,4"/>
<!-- Node1 -->
<g id="node1" class="node">
<title>Node1</title>
<g id="a_node1"><a xlink:title="A more refined container concept than bio::sequence_container.">
<polygon fill="#bfbfbf" stroke="black" points="538,-134.52 538,-153.52 681,-153.52 681,-134.52 538,-134.52"/>
<text text-anchor="middle" x="609.5" y="-141.52" font-family="Helvetica,sans-Serif" font-size="10.00">random_access_container</text>
</a>
</g>
</g>
<!-- Node10 -->
<g id="node10" class="node">
<title>Node10</title>
<g id="a_node10"><a xlink:href="interfacebio_1_1reservible__container.html" target="_top" xlink:title="A more refined container concept than bio::random_access_container.">
<polygon fill="white" stroke="black" points="718,-134.52 718,-153.52 834,-153.52 834,-134.52 718,-134.52"/>
<text text-anchor="middle" x="776" y="-141.52" font-family="Helvetica,sans-Serif" font-size="10.00">reservible_container</text>
</a>
</g>
</g>
<!-- Node1&#45;&gt;Node10 -->
<g id="edge9" class="edge">
<title>Node1&#45;&gt;Node10</title>
<path fill="none" stroke="midnightblue" d="M691.35,-144.02C700.34,-144.02 709.37,-144.02 717.98,-144.02"/>
<polygon fill="midnightblue" stroke="midnightblue" points="691.22,-140.52 681.22,-144.02 691.22,-147.52 691.22,-140.52"/>
</g>
<!-- Node2 -->
<g id="node2" class="node">
<title>Node2</title>
<g id="a_node2"><a xlink:href="interfacebio_1_1sequence__container.html" target="_top" xlink:title="A more refined container concept than bio::container.">
<polygon fill="white" stroke="black" points="387,-166.52 387,-185.52 501,-185.52 501,-166.52 387,-166.52"/>
<text text-anchor="middle" x="444" y="-173.52" font-family="Helvetica,sans-Serif" font-size="10.00">sequence_container</text>
</a>
</g>
</g>
<!-- Node2&#45;&gt;Node1 -->
<g id="edge1" class="edge">
<title>Node2&#45;&gt;Node1</title>
<path fill="none" stroke="midnightblue" d="M503.64,-164.55C522.04,-160.95 542.15,-157.01 559.79,-153.56"/>
<polygon fill="midnightblue" stroke="midnightblue" points="502.75,-161.15 493.61,-166.51 504.1,-168.02 502.75,-161.15"/>
</g>
<!-- Node3 -->
<g id="node3" class="node">
<title>Node3</title>
<g id="a_node3"><a xlink:href="interfacebio_1_1container.html" target="_top" xlink:title="The (most general) container concept as defined by the standard library.">
<polygon fill="white" stroke="black" points="288,-166.52 288,-185.52 350,-185.52 350,-166.52 288,-166.52"/>
<text text-anchor="middle" x="319" y="-173.52" font-family="Helvetica,sans-Serif" font-size="10.00">container</text>
</a>
</g>
</g>
<!-- Node3&#45;&gt;Node2 -->
<g id="edge2" class="edge">
<title>Node3&#45;&gt;Node2</title>
<path fill="none" stroke="midnightblue" d="M360.13,-176.02C368.65,-176.02 377.8,-176.02 386.8,-176.02"/>
<polygon fill="midnightblue" stroke="midnightblue" points="360.09,-172.52 350.09,-176.02 360.09,-179.52 360.09,-172.52"/>
</g>
<!-- Node4 -->
<g id="node4" class="node">
<title>Node4</title>
<g id="a_node4"><a xlink:title=" ">
<polygon fill="white" stroke="#bfbfbf" points="134.5,-235.02 134.5,-265.02 248.5,-265.02 248.5,-235.02 134.5,-235.02"/>
<text text-anchor="start" x="142.5" y="-253.02" font-family="Helvetica,sans-Serif" font-size="10.00">std::ranges::forward</text>
<text text-anchor="middle" x="191.5" y="-242.02" font-family="Helvetica,sans-Serif" font-size="10.00">_range</text>
</a>
</g>
</g>
<!-- Node4&#45;&gt;Node3 -->
<g id="edge3" class="edge">
<title>Node4&#45;&gt;Node3</title>
<path fill="none" stroke="midnightblue" d="M242.23,-230.65C245.24,-229.17 248.18,-227.62 251,-226.02 271.97,-214.15 293.91,-196.65 306.75,-185.82"/>
<polygon fill="midnightblue" stroke="midnightblue" points="240.67,-227.52 233.1,-234.93 243.64,-233.86 240.67,-227.52"/>
</g>
<!-- Node5 -->
<g id="node5" class="node">
<title>Node5</title>
<g id="a_node5"><a xlink:title=" ">
<polygon fill="white" stroke="#bfbfbf" points="140.5,-186.02 140.5,-216.02 242.5,-216.02 242.5,-186.02 140.5,-186.02"/>
<text text-anchor="start" x="148.5" y="-204.02" font-family="Helvetica,sans-Serif" font-size="10.00">std::ranges::sized</text>
<text text-anchor="middle" x="191.5" y="-193.02" font-family="Helvetica,sans-Serif" font-size="10.00">_range</text>
</a>
</g>
</g>
<!-- Node5&#45;&gt;Node3 -->
<g id="edge4" class="edge">
<title>Node5&#45;&gt;Node3</title>
<path fill="none" stroke="midnightblue" d="M252.95,-188.98C265.09,-186.56 277.35,-184.12 287.9,-182.02"/>
<polygon fill="midnightblue" stroke="midnightblue" points="251.95,-185.61 242.82,-191 253.31,-192.48 251.95,-185.61"/>
</g>
<!-- Node6 -->
<g id="node6" class="node">
<title>Node6</title>
<g id="a_node6"><a xlink:title=" ">
<polygon fill="white" stroke="#bfbfbf" points="132,-137.02 132,-167.02 251,-167.02 251,-137.02 132,-137.02"/>
<text text-anchor="start" x="140" y="-155.02" font-family="Helvetica,sans-Serif" font-size="10.00">std::ranges::common</text>
<text text-anchor="middle" x="191.5" y="-144.02" font-family="Helvetica,sans-Serif" font-size="10.00">_range</text>
</a>
</g>
</g>
<!-- Node6&#45;&gt;Node3 -->
<g id="edge5" class="edge">
<title>Node6&#45;&gt;Node3</title>
<path fill="none" stroke="midnightblue" d="M261.28,-165.18C270.54,-166.95 279.61,-168.68 287.7,-170.23"/>
<polygon fill="midnightblue" stroke="midnightblue" points="261.69,-161.69 251.21,-163.25 260.37,-168.57 261.69,-161.69"/>
</g>
<!-- Node7 -->
<g id="node7" class="node">
<title>Node7</title>
<g id="a_node7"><a xlink:href="interfacebio_1_1const__iterable__range.html" target="_top" xlink:title="Specifies requirements of an input range type for which the const version of that type satisfies the ...">
<polygon fill="white" stroke="black" points="132,-98.52 132,-117.52 251,-117.52 251,-98.52 132,-98.52"/>
<text text-anchor="middle" x="191.5" y="-105.52" font-family="Helvetica,sans-Serif" font-size="10.00">const_iterable_range</text>
</a>
</g>
</g>
<!-- Node7&#45;&gt;Node3 -->
<g id="edge6" class="edge">
<title>Node7&#45;&gt;Node3</title>
<path fill="none" stroke="midnightblue" d="M237.64,-121.07C242.24,-122.87 246.77,-124.86 251,-127.02 272.3,-137.92 294.15,-155.29 306.88,-166.15"/>
<polygon fill="midnightblue" stroke="midnightblue" points="238.78,-117.76 228.19,-117.62 236.38,-124.33 238.78,-117.76"/>
</g>
<!-- Node8 -->
<g id="node8" class="node">
<title>Node8</title>
<g id="a_node8"><a xlink:title=" ">
<polygon fill="white" stroke="#bfbfbf" points="0,-98.52 0,-117.52 95,-117.52 95,-98.52 0,-98.52"/>
<text text-anchor="middle" x="47.5" y="-105.52" font-family="Helvetica,sans-Serif" font-size="10.00">std::input_range</text>
</a>
</g>
</g>
<!-- Node8&#45;&gt;Node7 -->
<g id="edge7" class="edge">
<title>Node8&#45;&gt;Node7</title>
<path fill="none" stroke="midnightblue" d="M105.4,-108.02C114.08,-108.02 123.04,-108.02 131.76,-108.02"/>
<polygon fill="midnightblue" stroke="midnightblue" points="105.39,-104.52 95.39,-108.02 105.39,-111.52 105.39,-104.52"/>
</g>
<!-- Node9 -->
<g id="node9" class="node">
<title>Node9</title>
<g id="a_node9"><a xlink:title=" ">
<polygon fill="white" stroke="#bfbfbf" points="387,-117.02 387,-147.02 501,-147.02 501,-117.02 387,-117.02"/>
<text text-anchor="start" x="395" y="-135.02" font-family="Helvetica,sans-Serif" font-size="10.00">std::ranges::random</text>
<text text-anchor="middle" x="444" y="-124.02" font-family="Helvetica,sans-Serif" font-size="10.00">_access_range</text>
</a>
</g>
</g>
<!-- Node9&#45;&gt;Node1 -->
<g id="edge8" class="edge">
<title>Node9&#45;&gt;Node1</title>
<path fill="none" stroke="midnightblue" d="M511.41,-136.9C520.16,-137.54 529.16,-138.2 537.97,-138.85"/>
<polygon fill="midnightblue" stroke="midnightblue" points="511.5,-133.4 501.27,-136.15 510.98,-140.38 511.5,-133.4"/>
</g>
<!-- Node11 -->
<g id="node11" class="node">
<title>Node11</title>
<g id="a_node11"><a xlink:href="classbio_1_1small__vector.html" target="_top" xlink:title=" ">
<polygon fill="white" stroke="black" points="1221,-198.02 1221,-228.02 1340,-228.02 1340,-198.02 1221,-198.02"/>
<text text-anchor="start" x="1229" y="-216.02" font-family="Helvetica,sans-Serif" font-size="10.00">bio::small_vector&lt;</text>
<text text-anchor="middle" x="1280.5" y="-205.02" font-family="Helvetica,sans-Serif" font-size="10.00"> char, capacity_+1 &gt;</text>
</a>
</g>
</g>
<!-- Node10&#45;&gt;Node11 -->
<g id="edge10" class="edge">
<title>Node10&#45;&gt;Node11</title>
<path fill="none" stroke="midnightblue" d="M798.99,-159.35C817.32,-171.21 844.62,-186.79 871,-194.02 991.85,-227.17 1140.24,-223.64 1220.75,-218.25"/>
<polygon fill="midnightblue" stroke="midnightblue" points="800.78,-156.34 790.51,-153.72 796.9,-162.17 800.78,-156.34"/>
</g>
<!-- Node12 -->
<g id="node12" class="node">
<title>Node12</title>
<g id="a_node12"><a xlink:href="classbio_1_1small__string.html" target="_top" xlink:title="Implements a small string that can be used for compile time computations.">
<polygon fill="white" stroke="black" points="1377,-24.02 1377,-54.02 1483,-54.02 1483,-24.02 1377,-24.02"/>
<text text-anchor="start" x="1385" y="-42.02" font-family="Helvetica,sans-Serif" font-size="10.00">bio::small_string&lt;</text>
<text text-anchor="middle" x="1430" y="-31.02" font-family="Helvetica,sans-Serif" font-size="10.00"> capacity_ &gt;</text>
</a>
</g>
</g>
<!-- Node10&#45;&gt;Node12 -->
<g id="edge15" class="edge">
<title>Node10&#45;&gt;Node12</title>
<path fill="none" stroke="midnightblue" d="M787.94,-125.69C803.16,-102.17 833.17,-62.44 871,-46.02 1043.2,28.69 1274.37,-5.68 1376.61,-26.81"/>
<polygon fill="midnightblue" stroke="midnightblue" points="784.83,-124.05 782.5,-134.39 790.77,-127.76 784.83,-124.05"/>
</g>
<!-- Node13 -->
<g id="node13" class="node">
<title>Node13</title>
<g id="a_node13"><a xlink:href="classbio_1_1bitcompressed__vector.html" target="_top" xlink:title="A space&#45;optimised version of std::vector that compresses multiple letters into a single byte.">
<polygon fill="white" stroke="black" points="898.5,-154.02 898.5,-184.02 1043.5,-184.02 1043.5,-154.02 898.5,-154.02"/>
<text text-anchor="start" x="906.5" y="-172.02" font-family="Helvetica,sans-Serif" font-size="10.00">bio::bitcompressed</text>
<text text-anchor="middle" x="971" y="-161.02" font-family="Helvetica,sans-Serif" font-size="10.00">_vector&lt; alphabet_type &gt;</text>
</a>
</g>
</g>
<!-- Node10&#45;&gt;Node13 -->
<g id="edge12" class="edge">
<title>Node10&#45;&gt;Node13</title>
<path fill="none" stroke="midnightblue" d="M844.23,-152.73C861.7,-155 880.59,-157.44 898.29,-159.73"/>
<polygon fill="midnightblue" stroke="midnightblue" points="844.49,-149.24 834.12,-151.42 843.59,-156.18 844.49,-149.24"/>
</g>
<!-- Node14 -->
<g id="node14" class="node">
<title>Node14</title>
<g id="a_node14"><a xlink:href="classbio_1_1concatenated__sequences.html" target="_top" xlink:title="Container that stores sequences concatenated internally.">
<polygon fill="white" stroke="black" points="871,-105.02 871,-135.02 1071,-135.02 1071,-105.02 871,-105.02"/>
<text text-anchor="start" x="879" y="-123.02" font-family="Helvetica,sans-Serif" font-size="10.00">bio::concatenated_sequences</text>
<text text-anchor="middle" x="971" y="-112.02" font-family="Helvetica,sans-Serif" font-size="10.00">&lt; inner_type, data_delimiters_type &gt;</text>
</a>
</g>
</g>
<!-- Node10&#45;&gt;Node14 -->
<g id="edge13" class="edge">
<title>Node10&#45;&gt;Node14</title>
<path fill="none" stroke="midnightblue" d="M844.07,-135.68C852.7,-134.61 861.68,-133.49 870.69,-132.37"/>
<polygon fill="midnightblue" stroke="midnightblue" points="843.61,-132.21 834.12,-136.92 844.48,-139.16 843.61,-132.21"/>
</g>
<!-- Node15 -->
<g id="node15" class="node">
<title>Node15</title>
<g id="a_node15"><a xlink:href="classbio_1_1dynamic__bitset.html" target="_top" xlink:title="A constexpr bitset implementation with dynamic size at compile time.">
<polygon fill="white" stroke="black" points="914.5,-56.02 914.5,-86.02 1027.5,-86.02 1027.5,-56.02 914.5,-56.02"/>
<text text-anchor="start" x="922.5" y="-74.02" font-family="Helvetica,sans-Serif" font-size="10.00">bio::dynamic_bitset</text>
<text text-anchor="middle" x="971" y="-63.02" font-family="Helvetica,sans-Serif" font-size="10.00">&lt; bit_capacity &gt;</text>
</a>
</g>
</g>
<!-- Node10&#45;&gt;Node15 -->
<g id="edge14" class="edge">
<title>Node10&#45;&gt;Node15</title>
<path fill="none" stroke="midnightblue" d="M801.1,-129.38C819.65,-118.62 846.24,-104.32 871,-95.02 884.74,-89.86 899.98,-85.53 914.3,-82.02"/>
<polygon fill="midnightblue" stroke="midnightblue" points="799.27,-126.4 792.43,-134.49 802.82,-132.43 799.27,-126.4"/>
</g>
<!-- Node16 -->
<g id="node16" class="node">
<title>Node16</title>
<g id="a_node16"><a xlink:href="classbio_1_1small__vector.html" target="_top" xlink:title="A constexpr vector implementation with dynamic size at compile time.">
<polygon fill="white" stroke="black" points="899.5,-242.02 899.5,-272.02 1042.5,-272.02 1042.5,-242.02 899.5,-242.02"/>
<text text-anchor="start" x="907.5" y="-260.02" font-family="Helvetica,sans-Serif" font-size="10.00">bio::small_vector&lt;</text>
<text text-anchor="middle" x="971" y="-249.02" font-family="Helvetica,sans-Serif" font-size="10.00"> value_type_, capacity_ &gt;</text>
</a>
</g>
</g>
<!-- Node10&#45;&gt;Node16 -->
<g id="edge16" class="edge">
<title>Node10&#45;&gt;Node16</title>
<path fill="none" stroke="midnightblue" d="M788.49,-162.06C801.57,-181.09 824.7,-210.57 852,-227.02 866.3,-235.65 883.01,-241.8 899.29,-246.2"/>
<polygon fill="midnightblue" stroke="midnightblue" points="791.36,-160.04 782.91,-153.66 785.53,-163.92 791.36,-160.04"/>
</g>
<!-- Node11&#45;&gt;Node12 -->
<g id="edge11" class="edge">
<title>Node11&#45;&gt;Node12</title>
<path fill="none" stroke="midnightblue" d="M1301.14,-189.86C1331.8,-153.69 1390.2,-84.79 1416.09,-54.25"/>
<polygon fill="midnightblue" stroke="midnightblue" points="1298.13,-188 1294.33,-197.89 1303.47,-192.52 1298.13,-188"/>
</g>
<!-- Node16&#45;&gt;Node11 -->
<g id="edge17" class="edge">
<title>Node16&#45;&gt;Node11</title>
<path fill="none" stroke="orange" stroke-dasharray="5,2" d="M1052.81,-247.57C1097.22,-242.11 1153.24,-234.8 1203,-227.02 1208.74,-226.13 1214.7,-225.14 1220.66,-224.11"/>
<polygon fill="orange" stroke="orange" points="1052.15,-244.13 1042.65,-248.81 1053,-251.07 1052.15,-244.13"/>
<text text-anchor="middle" x="1146" y="-245.02" font-family="Helvetica,sans-Serif" font-size="10.00"> &lt; char, capacity_+1 &gt;</text>
</g>
</g>
</svg>
