<?xml version="1.0" encoding="UTF-8" standalone="no"?>
<!DOCTYPE svg PUBLIC "-//W3C//DTD SVG 1.1//EN"
 "http://www.w3.org/Graphics/SVG/1.1/DTD/svg11.dtd">
<!-- Generated by graphviz version 2.43.0 (0)
 -->
<!-- Title: writable_alphabet Pages: 1 -->
<!--zoomable 634 -->
<svg id="main" version="1.1" xmlns="http://www.w3.org/2000/svg" xmlns:xlink="http://www.w3.org/1999/xlink" xml:space="preserve" onload="init(evt)">
<style type="text/css"><![CDATA[
.edge:hover path { stroke: red; }
.edge:hover polygon { stroke: red; fill: red; }
]]></style>
<script type="text/javascript"><![CDATA[
var edges = document.getElementsByTagName('g');
if (edges && edges.length) {
  for (var i=0;i<edges.length;i++) {
    if (edges[i].id.substr(0,4)=='edge') {
      edges[i].setAttribute('class','edge');
    }
  }
}
]]></script>
        <defs>
                <circle id="rim" cx="0" cy="0" r="7"/>
                <circle id="rim2" cx="0" cy="0" r="3.5"/>
                <g id="zoomPlus">
                        <use xlink:href="#rim" fill="#404040">
                                <set attributeName="fill" to="#808080" begin="zoomplus.mouseover" end="zoomplus.mouseout"/>
                        </use>
                        <path d="M-4,0h8M0,-4v8" fill="none" stroke="white" stroke-width="1.5" pointer-events="none"/>
                </g>
                <g id="zoomMin">
                        <use xlink:href="#rim" fill="#404040">
                                <set attributeName="fill" to="#808080" begin="zoomminus.mouseover" end="zoomminus.mouseout"/>
                        </use>
                        <path d="M-4,0h8" fill="none" stroke="white" stroke-width="1.5" pointer-events="none"/>
                </g>
                <g id="dirArrow">
                        <path fill="none" stroke="white" stroke-width="1.5" d="M0,-3.0v7 M-2.5,-0.5L0,-3.0L2.5,-0.5"/>
                </g>
               <g id="resetDef">
                       <use xlink:href="#rim2" fill="#404040">
                               <set attributeName="fill" to="#808080" begin="reset.mouseover" end="reset.mouseout"/>
                       </use>
               </g>
        </defs>

<script type="text/javascript">
var viewWidth = 744;
var viewHeight = 634;
var sectionId = 'dynsection-0';
</script>
<script xlink:href="svgpan.js"/>
<svg id="graph" class="graph">
<g id="viewport">
<title>writable_alphabet</title>
<polygon fill="white" stroke="transparent" points="-4,4 -4,-629.5 740,-629.5 740,4 -4,4"/>
<!-- Node1 -->
<g id="node1" class="node">
<title>Node1</title>
<g id="a_node1"><a xlink:title="Refines bio::alphabet::alphabet and adds assignability.">
<polygon fill="#bfbfbf" stroke="black" points="448,-309 448,-328 552,-328 552,-309 448,-309"/>
<text text-anchor="middle" x="500" y="-316" font-family="Helvetica,sans-Serif" font-size="10.00">writable_alphabet</text>
</a>
</g>
</g>
<!-- Node7 -->
<g id="node7" class="node">
<title>Node7</title>
<g id="a_node7"><a xlink:href="classbio_1_1alphabet_1_1aa10li.html" target="_top" xlink:title="The reduced Li amino acid alphabet..">
<polygon fill="white" stroke="black" points="604,-606 604,-625 720,-625 720,-606 604,-606"/>
<text text-anchor="middle" x="662" y="-613" font-family="Helvetica,sans-Serif" font-size="10.00">bio::alphabet::aa10li</text>
</a>
</g>
</g>
<!-- Node1&#45;&gt;Node7 -->
<g id="edge7" class="edge">
<title>Node1&#45;&gt;Node7</title>
<path fill="none" stroke="midnightblue" d="M501.04,-338.32C502.25,-389.09 512.75,-524.83 588,-596.5 592.55,-600.84 597.96,-604.21 603.75,-606.84"/>
<polygon fill="midnightblue" stroke="midnightblue" points="504.53,-338.03 500.89,-328.08 497.53,-338.12 504.53,-338.03"/>
</g>
<!-- Node8 -->
<g id="node8" class="node">
<title>Node8</title>
<g id="a_node8"><a xlink:href="classbio_1_1alphabet_1_1aa10murphy.html" target="_top" xlink:title="The reduced Murphy amino acid alphabet..">
<polygon fill="white" stroke="black" points="588,-568 588,-587 736,-587 736,-568 588,-568"/>
<text text-anchor="middle" x="662" y="-575" font-family="Helvetica,sans-Serif" font-size="10.00">bio::alphabet::aa10murphy</text>
</a>
</g>
</g>
<!-- Node1&#45;&gt;Node8 -->
<g id="edge8" class="edge">
<title>Node1&#45;&gt;Node8</title>
<path fill="none" stroke="midnightblue" d="M502.2,-338.69C506.07,-384.81 522.15,-498.52 588,-558.5 592.26,-562.38 597.21,-565.49 602.49,-567.97"/>
<polygon fill="midnightblue" stroke="midnightblue" points="505.68,-338.21 501.46,-328.49 498.7,-338.72 505.68,-338.21"/>
</g>
<!-- Node9 -->
<g id="node9" class="node">
<title>Node9</title>
<g id="a_node9"><a xlink:href="classbio_1_1alphabet_1_1aa20.html" target="_top" xlink:title="The canonical amino acid alphabet..">
<polygon fill="white" stroke="black" points="607,-530 607,-549 717,-549 717,-530 607,-530"/>
<text text-anchor="middle" x="662" y="-537" font-family="Helvetica,sans-Serif" font-size="10.00">bio::alphabet::aa20</text>
</a>
</g>
</g>
<!-- Node1&#45;&gt;Node9 -->
<g id="edge9" class="edge">
<title>Node1&#45;&gt;Node9</title>
<path fill="none" stroke="midnightblue" d="M503.69,-338.23C510.27,-378.75 531.06,-471.62 588,-520.5 593.47,-525.19 599.95,-528.74 606.77,-531.43"/>
<polygon fill="midnightblue" stroke="midnightblue" points="507.14,-337.64 502.19,-328.27 500.21,-338.68 507.14,-337.64"/>
</g>
<!-- Node10 -->
<g id="node10" class="node">
<title>Node10</title>
<g id="a_node10"><a xlink:href="classbio_1_1alphabet_1_1aa27.html" target="_top" xlink:title="The twenty&#45;seven letter amino acid alphabet..">
<polygon fill="white" stroke="black" points="607,-492 607,-511 717,-511 717,-492 607,-492"/>
<text text-anchor="middle" x="662" y="-499" font-family="Helvetica,sans-Serif" font-size="10.00">bio::alphabet::aa27</text>
</a>
</g>
</g>
<!-- Node1&#45;&gt;Node10 -->
<g id="edge10" class="edge">
<title>Node1&#45;&gt;Node10</title>
<path fill="none" stroke="midnightblue" d="M505.73,-337.79C515.2,-372.28 539.86,-444.45 588,-482.5 593.55,-486.89 600,-490.27 606.74,-492.87"/>
<polygon fill="midnightblue" stroke="midnightblue" points="509.09,-336.8 503.17,-328.01 502.31,-338.57 509.09,-336.8"/>
</g>
<!-- Node11 -->
<g id="node11" class="node">
<title>Node11</title>
<g id="a_node11"><a xlink:href="classbio_1_1alphabet_1_1cigar__op.html" target="_top" xlink:title="The (extended) cigar operation alphabet of M,D,I,H,N,P,S,X,=..">
<polygon fill="white" stroke="black" points="598,-454 598,-473 726,-473 726,-454 598,-454"/>
<text text-anchor="middle" x="662" y="-461" font-family="Helvetica,sans-Serif" font-size="10.00">bio::alphabet::cigar_op</text>
</a>
</g>
</g>
<!-- Node1&#45;&gt;Node11 -->
<g id="edge11" class="edge">
<title>Node1&#45;&gt;Node11</title>
<path fill="none" stroke="midnightblue" d="M508.9,-337.55C521.44,-365.41 548.6,-416.93 588,-444.5 593.58,-448.4 599.9,-451.51 606.44,-453.97"/>
<polygon fill="midnightblue" stroke="midnightblue" points="512,-335.92 504.81,-328.14 505.58,-338.7 512,-335.92"/>
</g>
<!-- Node12 -->
<g id="node12" class="node">
<title>Node12</title>
<g id="a_node12"><a xlink:title=" ">
<polygon fill="white" stroke="black" points="607,-404.5 607,-434.5 717,-434.5 717,-404.5 607,-404.5"/>
<text text-anchor="start" x="615" y="-422.5" font-family="Helvetica,sans-Serif" font-size="10.00">writable_constexpr</text>
<text text-anchor="middle" x="662" y="-411.5" font-family="Helvetica,sans-Serif" font-size="10.00">_alphabet</text>
</a>
</g>
</g>
<!-- Node1&#45;&gt;Node12 -->
<g id="edge12" class="edge">
<title>Node1&#45;&gt;Node12</title>
<path fill="none" stroke="midnightblue" d="M516.85,-335.82C533.23,-352.82 560.24,-378.46 588,-394.5 594.5,-398.25 601.64,-401.56 608.84,-404.44"/>
<polygon fill="midnightblue" stroke="midnightblue" points="519.12,-333.13 509.71,-328.25 514.03,-337.93 519.12,-333.13"/>
</g>
<!-- Node13 -->
<g id="node13" class="node">
<title>Node13</title>
<g id="a_node13"><a xlink:href="classbio_1_1alphabet_1_1dna15.html" target="_top" xlink:title="The 15 letter DNA alphabet, containing all IUPAC smybols minus the gap..">
<polygon fill="white" stroke="black" points="604,-366 604,-385 720,-385 720,-366 604,-366"/>
<text text-anchor="middle" x="662" y="-373" font-family="Helvetica,sans-Serif" font-size="10.00">bio::alphabet::dna15</text>
</a>
</g>
</g>
<!-- Node1&#45;&gt;Node13 -->
<g id="edge13" class="edge">
<title>Node1&#45;&gt;Node13</title>
<path fill="none" stroke="midnightblue" d="M529.92,-332.5C546.63,-340.24 568.21,-349.65 588,-356.5 598.15,-360.01 609.28,-363.22 619.74,-365.97"/>
<polygon fill="midnightblue" stroke="midnightblue" points="531.23,-329.24 520.69,-328.16 528.25,-335.58 531.23,-329.24"/>
</g>
<!-- Node14 -->
<g id="node14" class="node">
<title>Node14</title>
<g id="a_node14"><a xlink:href="classbio_1_1alphabet_1_1dna16sam.html" target="_top" xlink:title="A 16 letter DNA alphabet, containing all IUPAC symbols minus the gap and plus an equality sign (&#39;=&#39;)....">
<polygon fill="white" stroke="black" points="593.5,-328 593.5,-347 730.5,-347 730.5,-328 593.5,-328"/>
<text text-anchor="middle" x="662" y="-335" font-family="Helvetica,sans-Serif" font-size="10.00">bio::alphabet::dna16sam</text>
</a>
</g>
</g>
<!-- Node1&#45;&gt;Node14 -->
<g id="edge14" class="edge">
<title>Node1&#45;&gt;Node14</title>
<path fill="none" stroke="midnightblue" d="M562.14,-325.76C572.39,-326.98 583.08,-328.25 593.48,-329.48"/>
<polygon fill="midnightblue" stroke="midnightblue" points="562.41,-322.27 552.06,-324.56 561.58,-329.22 562.41,-322.27"/>
</g>
<!-- Node15 -->
<g id="node15" class="node">
<title>Node15</title>
<g id="a_node15"><a xlink:href="classbio_1_1alphabet_1_1dna4.html" target="_top" xlink:title="The four letter DNA alphabet of A,C,G,T..">
<polygon fill="white" stroke="black" points="607,-290 607,-309 717,-309 717,-290 607,-290"/>
<text text-anchor="middle" x="662" y="-297" font-family="Helvetica,sans-Serif" font-size="10.00">bio::alphabet::dna4</text>
</a>
</g>
</g>
<!-- Node1&#45;&gt;Node15 -->
<g id="edge15" class="edge">
<title>Node1&#45;&gt;Node15</title>
<path fill="none" stroke="midnightblue" d="M562.09,-311.25C576.81,-309.5 592.45,-307.64 606.83,-305.93"/>
<polygon fill="midnightblue" stroke="midnightblue" points="561.58,-307.78 552.06,-312.44 562.41,-314.73 561.58,-307.78"/>
</g>
<!-- Node16 -->
<g id="node16" class="node">
<title>Node16</title>
<g id="a_node16"><a xlink:href="classbio_1_1alphabet_1_1dna5.html" target="_top" xlink:title="The five letter DNA alphabet of A,C,G,T and the unknown character N..">
<polygon fill="white" stroke="black" points="607,-252 607,-271 717,-271 717,-252 607,-252"/>
<text text-anchor="middle" x="662" y="-259" font-family="Helvetica,sans-Serif" font-size="10.00">bio::alphabet::dna5</text>
</a>
</g>
</g>
<!-- Node1&#45;&gt;Node16 -->
<g id="edge16" class="edge">
<title>Node1&#45;&gt;Node16</title>
<path fill="none" stroke="midnightblue" d="M529.92,-304.5C546.63,-296.76 568.21,-287.35 588,-280.5 598.15,-276.99 609.28,-273.78 619.74,-271.03"/>
<polygon fill="midnightblue" stroke="midnightblue" points="528.25,-301.42 520.69,-308.84 531.23,-307.76 528.25,-301.42"/>
</g>
<!-- Node17 -->
<g id="node17" class="node">
<title>Node17</title>
<g id="a_node17"><a xlink:href="classbio_1_1alphabet_1_1gap.html" target="_top" xlink:title="The alphabet of a gap character &#39;&#45;&#39;.">
<polygon fill="white" stroke="black" points="610,-214 610,-233 714,-233 714,-214 610,-214"/>
<text text-anchor="middle" x="662" y="-221" font-family="Helvetica,sans-Serif" font-size="10.00">bio::alphabet::gap</text>
</a>
</g>
</g>
<!-- Node1&#45;&gt;Node17 -->
<g id="edge17" class="edge">
<title>Node1&#45;&gt;Node17</title>
<path fill="none" stroke="midnightblue" d="M516.09,-301.29C532.21,-283.94 559.35,-257.64 588,-242.5 595.29,-238.64 603.42,-235.54 611.52,-233.04"/>
<polygon fill="midnightblue" stroke="midnightblue" points="513.22,-299.23 509.1,-308.99 518.41,-303.94 513.22,-299.23"/>
</g>
<!-- Node18 -->
<g id="node18" class="node">
<title>Node18</title>
<g id="a_node18"><a xlink:href="classbio_1_1alphabet_1_1masked.html" target="_top" xlink:title="A template for composite alphabets that differentiate between upper and lower case characters....">
<polygon fill="white" stroke="black" points="590.5,-164.5 590.5,-194.5 733.5,-194.5 733.5,-164.5 590.5,-164.5"/>
<text text-anchor="start" x="598.5" y="-182.5" font-family="Helvetica,sans-Serif" font-size="10.00">bio::alphabet::masked</text>
<text text-anchor="middle" x="662" y="-171.5" font-family="Helvetica,sans-Serif" font-size="10.00">&lt; sequence_alphabet_t &gt;</text>
</a>
</g>
</g>
<!-- Node1&#45;&gt;Node18 -->
<g id="edge18" class="edge">
<title>Node1&#45;&gt;Node18</title>
<path fill="none" stroke="midnightblue" d="M510.63,-299.81C524.48,-274.68 552.34,-230.2 588,-204.5 593.33,-200.66 599.29,-197.38 605.45,-194.58"/>
<polygon fill="midnightblue" stroke="midnightblue" points="507.5,-298.23 505.87,-308.7 513.67,-301.54 507.5,-298.23"/>
</g>
<!-- Node19 -->
<g id="node19" class="node">
<title>Node19</title>
<g id="a_node19"><a xlink:href="classbio_1_1alphabet_1_1rna15.html" target="_top" xlink:title="The 15 letter RNA alphabet, containing all IUPAC smybols minus the gap..">
<polygon fill="white" stroke="black" points="605,-126 605,-145 719,-145 719,-126 605,-126"/>
<text text-anchor="middle" x="662" y="-133" font-family="Helvetica,sans-Serif" font-size="10.00">bio::alphabet::rna15</text>
</a>
</g>
</g>
<!-- Node1&#45;&gt;Node19 -->
<g id="edge19" class="edge">
<title>Node1&#45;&gt;Node19</title>
<path fill="none" stroke="midnightblue" d="M505.73,-299.21C515.2,-264.72 539.86,-192.55 588,-154.5 593.03,-150.52 598.82,-147.37 604.87,-144.87"/>
<polygon fill="midnightblue" stroke="midnightblue" points="502.31,-298.43 503.17,-308.99 509.09,-300.2 502.31,-298.43"/>
</g>
<!-- Node20 -->
<g id="node20" class="node">
<title>Node20</title>
<g id="a_node20"><a xlink:href="classbio_1_1alphabet_1_1rna4.html" target="_top" xlink:title="The four letter RNA alphabet of A,C,G,U..">
<polygon fill="white" stroke="black" points="608,-88 608,-107 716,-107 716,-88 608,-88"/>
<text text-anchor="middle" x="662" y="-95" font-family="Helvetica,sans-Serif" font-size="10.00">bio::alphabet::rna4</text>
</a>
</g>
</g>
<!-- Node1&#45;&gt;Node20 -->
<g id="edge20" class="edge">
<title>Node1&#45;&gt;Node20</title>
<path fill="none" stroke="midnightblue" d="M503.69,-298.77C510.27,-258.25 531.06,-165.38 588,-116.5 593.76,-111.55 600.66,-107.87 607.89,-105.14"/>
<polygon fill="midnightblue" stroke="midnightblue" points="500.21,-298.32 502.19,-308.73 507.14,-299.36 500.21,-298.32"/>
</g>
<!-- Node21 -->
<g id="node21" class="node">
<title>Node21</title>
<g id="a_node21"><a xlink:href="classbio_1_1alphabet_1_1rna5.html" target="_top" xlink:title="The five letter RNA alphabet of A,C,G,U and the unknown character N..">
<polygon fill="white" stroke="black" points="608,-50 608,-69 716,-69 716,-50 608,-50"/>
<text text-anchor="middle" x="662" y="-57" font-family="Helvetica,sans-Serif" font-size="10.00">bio::alphabet::rna5</text>
</a>
</g>
</g>
<!-- Node1&#45;&gt;Node21 -->
<g id="edge21" class="edge">
<title>Node1&#45;&gt;Node21</title>
<path fill="none" stroke="midnightblue" d="M502.2,-298.31C506.07,-252.19 522.15,-138.48 588,-78.5 593.71,-73.3 600.67,-69.48 607.99,-66.69"/>
<polygon fill="midnightblue" stroke="midnightblue" points="498.7,-298.28 501.46,-308.51 505.68,-298.79 498.7,-298.28"/>
</g>
<!-- Node22 -->
<g id="node22" class="node">
<title>Node22</title>
<g id="a_node22"><a xlink:href="classbio_1_1alphabet_1_1variant.html" target="_top" xlink:title="A combined alphabet that can hold values of either of its alternatives..">
<polygon fill="white" stroke="black" points="599.5,-0.5 599.5,-30.5 724.5,-30.5 724.5,-0.5 599.5,-0.5"/>
<text text-anchor="start" x="607.5" y="-18.5" font-family="Helvetica,sans-Serif" font-size="10.00">bio::alphabet::variant</text>
<text text-anchor="middle" x="662" y="-7.5" font-family="Helvetica,sans-Serif" font-size="10.00">&lt; alternative_types &gt;</text>
</a>
</g>
</g>
<!-- Node1&#45;&gt;Node22 -->
<g id="edge22" class="edge">
<title>Node1&#45;&gt;Node22</title>
<path fill="none" stroke="midnightblue" d="M501.37,-298.66C503.39,-248.4 515.67,-114.79 588,-40.5 591.74,-36.66 596.09,-33.41 600.77,-30.66"/>
<polygon fill="midnightblue" stroke="midnightblue" points="497.87,-298.72 501.06,-308.82 504.86,-298.93 497.87,-298.72"/>
</g>
<!-- Node2 -->
<g id="node2" class="node">
<title>Node2</title>
<g id="a_node2"><a xlink:href="interfacebio_1_1alphabet_1_1alphabet.html" target="_top" xlink:title="The generic alphabet concept that covers most data types used in ranges.">
<polygon fill="white" stroke="black" points="318.5,-328 318.5,-347 377.5,-347 377.5,-328 318.5,-328"/>
<text text-anchor="middle" x="348" y="-335" font-family="Helvetica,sans-Serif" font-size="10.00">alphabet</text>
</a>
</g>
</g>
<!-- Node2&#45;&gt;Node1 -->
<g id="edge1" class="edge">
<title>Node2&#45;&gt;Node1</title>
<path fill="none" stroke="midnightblue" d="M387.59,-332.61C405.91,-330.29 428.06,-327.49 447.77,-324.99"/>
<polygon fill="midnightblue" stroke="midnightblue" points="387.05,-329.15 377.57,-333.88 387.93,-336.1 387.05,-329.15"/>
</g>
<!-- Node3 -->
<g id="node3" class="node">
<title>Node3</title>
<g id="a_node3"><a xlink:href="interfacebio_1_1alphabet_1_1semialphabet.html" target="_top" xlink:title="The basis for bio::alphabet::alphabet, but requires only rank interface (not char).">
<polygon fill="white" stroke="black" points="165,-309 165,-328 248,-328 248,-309 165,-309"/>
<text text-anchor="middle" x="206.5" y="-316" font-family="Helvetica,sans-Serif" font-size="10.00">semialphabet</text>
</a>
</g>
</g>
<!-- Node3&#45;&gt;Node2 -->
<g id="edge2" class="edge">
<title>Node3&#45;&gt;Node2</title>
<path fill="none" stroke="midnightblue" d="M258.26,-325.41C278.52,-328.17 301.1,-331.25 318.41,-333.61"/>
<polygon fill="midnightblue" stroke="midnightblue" points="258.61,-321.93 248.22,-324.05 257.66,-328.86 258.61,-321.93"/>
</g>
<!-- Node6 -->
<g id="node6" class="node">
<title>Node6</title>
<g id="a_node6"><a xlink:href="interfacebio_1_1alphabet_1_1writable__semialphabet.html" target="_top" xlink:title="A refinement of bio::alphabet::semialphabet that adds assignability.">
<polygon fill="white" stroke="black" points="284,-290 284,-309 412,-309 412,-290 284,-290"/>
<text text-anchor="middle" x="348" y="-297" font-family="Helvetica,sans-Serif" font-size="10.00">writable_semialphabet</text>
</a>
</g>
</g>
<!-- Node3&#45;&gt;Node6 -->
<g id="edge6" class="edge">
<title>Node3&#45;&gt;Node6</title>
<path fill="none" stroke="midnightblue" d="M258.19,-311.6C266.54,-310.46 275.29,-309.27 283.91,-308.09"/>
<polygon fill="midnightblue" stroke="midnightblue" points="257.66,-308.14 248.22,-312.95 258.61,-315.07 257.66,-308.14"/>
</g>
<!-- Node4 -->
<g id="node4" class="node">
<title>Node4</title>
<g id="a_node4"><a xlink:title=" ">
<polygon fill="white" stroke="#bfbfbf" points="8.5,-328 8.5,-347 120.5,-347 120.5,-328 8.5,-328"/>
<text text-anchor="middle" x="64.5" y="-335" font-family="Helvetica,sans-Serif" font-size="10.00">std::totally_ordered</text>
</a>
</g>
</g>
<!-- Node4&#45;&gt;Node3 -->
<g id="edge3" class="edge">
<title>Node4&#45;&gt;Node3</title>
<path fill="none" stroke="midnightblue" d="M130.91,-328.62C142.47,-327.05 154.19,-325.46 164.82,-324.02"/>
<polygon fill="midnightblue" stroke="midnightblue" points="130.27,-325.18 120.83,-329.99 131.21,-332.11 130.27,-325.18"/>
</g>
<!-- Node5 -->
<g id="node5" class="node">
<title>Node5</title>
<g id="a_node5"><a xlink:title=" ">
<polygon fill="white" stroke="#bfbfbf" points="0,-290 0,-309 129,-309 129,-290 0,-290"/>
<text text-anchor="middle" x="64.5" y="-297" font-family="Helvetica,sans-Serif" font-size="10.00">std::copy_constructible</text>
</a>
</g>
</g>
<!-- Node5&#45;&gt;Node3 -->
<g id="edge4" class="edge">
<title>Node5&#45;&gt;Node3</title>
<path fill="none" stroke="midnightblue" d="M139.32,-309.52C148.14,-310.72 156.88,-311.9 164.98,-313"/>
<polygon fill="midnightblue" stroke="midnightblue" points="139.73,-306.04 129.35,-308.17 138.79,-312.98 139.73,-306.04"/>
</g>
<!-- Node6&#45;&gt;Node1 -->
<g id="edge5" class="edge">
<title>Node6&#45;&gt;Node1</title>
<path fill="none" stroke="midnightblue" d="M422.25,-308.78C430.86,-309.87 439.5,-310.96 447.72,-312"/>
<polygon fill="midnightblue" stroke="midnightblue" points="422.54,-305.29 412.18,-307.5 421.66,-312.23 422.54,-305.29"/>
</g>
</g>
</svg>
        <g id="navigator" transform="translate(0 0)" fill="#404254">
                <rect fill="#f2f5e9" fill-opacity="0.5" stroke="#606060" stroke-width=".5" x="0" y="0" width="60" height="60"/>
                <use id="zoomplus" xlink:href="#zoomPlus" x="17" y="9" onmousedown="handleZoom(evt,'in')"/>
                <use id="zoomminus" xlink:href="#zoomMin" x="42" y="9" onmousedown="handleZoom(evt,'out')"/>
                <use id="reset" xlink:href="#resetDef" x="30" y="36" onmousedown="handleReset()"/>
                <g id="arrowUp" xlink:href="#dirArrow" transform="translate(30 24)" onmousedown="handlePan(0,-1)">
                  <use xlink:href="#rim" fill="#404040">
                        <set attributeName="fill" to="#808080" begin="arrowUp.mouseover" end="arrowUp.mouseout"/>
                  </use>
                  <path fill="none" stroke="white" stroke-width="1.5" d="M0,-3.0v7 M-2.5,-0.5L0,-3.0L2.5,-0.5"/>
                </g>
                <g id="arrowRight" xlink:href="#dirArrow" transform="rotate(90) translate(36 -43)" onmousedown="handlePan(1,0)">
                  <use xlink:href="#rim" fill="#404040">
                        <set attributeName="fill" to="#808080" begin="arrowRight.mouseover" end="arrowRight.mouseout"/>
                  </use>
                  <path fill="none" stroke="white" stroke-width="1.5" d="M0,-3.0v7 M-2.5,-0.5L0,-3.0L2.5,-0.5"/>
                </g>
                <g id="arrowDown" xlink:href="#dirArrow" transform="rotate(180) translate(-30 -48)" onmousedown="handlePan(0,1)">
                  <use xlink:href="#rim" fill="#404040">
                        <set attributeName="fill" to="#808080" begin="arrowDown.mouseover" end="arrowDown.mouseout"/>
                  </use>
                  <path fill="none" stroke="white" stroke-width="1.5" d="M0,-3.0v7 M-2.5,-0.5L0,-3.0L2.5,-0.5"/>
                </g>
                <g id="arrowLeft" xlink:href="#dirArrow" transform="rotate(270) translate(-36 17)" onmousedown="handlePan(-1,0)">
                  <use xlink:href="#rim" fill="#404040">
                        <set attributeName="fill" to="#808080" begin="arrowLeft.mouseover" end="arrowLeft.mouseout"/>
                  </use>
                  <path fill="none" stroke="white" stroke-width="1.5" d="M0,-3.0v7 M-2.5,-0.5L0,-3.0L2.5,-0.5"/>
                </g>
        </g>
        <svg viewBox="0 0 15 15" width="100%" height="30px" preserveAspectRatio="xMaxYMin meet">
         <g id="arrow_out" transform="scale(0.3 0.3)">
          <a xlink:href="interfacebio_1_1alphabet_1_1writable__alphabet__inherit__graph_org.svg" target="_base">
           <rect id="button" ry="5" rx="5" y="6" x="6" height="38" width="38"
                fill="#f2f5e9" fill-opacity="0.5" stroke="#606060" stroke-width="1.0"/>
           <path id="arrow"
             d="M 11.500037,31.436501 C 11.940474,20.09759 22.043105,11.32322 32.158766,21.979434 L 37.068811,17.246167 C 37.068811,17.246167 37.088388,32 37.088388,32 L 22.160133,31.978069 C 22.160133,31.978069 26.997745,27.140456 26.997745,27.140456 C 18.528582,18.264221 13.291696,25.230495 11.500037,31.436501 z"
             style="fill:#404040;"/>
          </a>
         </g>
        </svg>
</svg>
