<?xml version="1.0" encoding="UTF-8" standalone="no"?>
<!DOCTYPE svg PUBLIC "-//W3C//DTD SVG 1.1//EN"
 "http://www.w3.org/Graphics/SVG/1.1/DTD/svg11.dtd">
<!-- Generated by graphviz version 2.43.0 (0)
 -->
<!-- Title: aminoacid_alphabet Pages: 1 -->
<svg width="687pt" height="142pt"
 viewBox="0.00 0.00 687.00 142.00" xmlns="http://www.w3.org/2000/svg" xmlns:xlink="http://www.w3.org/1999/xlink">
<g id="graph0" class="graph" transform="scale(1 1) rotate(0) translate(4 138)">
<title>aminoacid_alphabet</title>
<polygon fill="white" stroke="transparent" points="-4,4 -4,-138 683,-138 683,4 -4,4"/>
<!-- Node1 -->
<g id="node1" class="node">
<title>Node1</title>
<g id="a_node1"><a xlink:title="A concept that indicates whether an alphabet represents amino acids.">
<polygon fill="#bfbfbf" stroke="black" points="379,-57.5 379,-76.5 495,-76.5 495,-57.5 379,-57.5"/>
<text text-anchor="middle" x="437" y="-64.5" font-family="Helvetica,sans-Serif" font-size="10.00">aminoacid_alphabet</text>
</a>
</g>
</g>
<!-- Node6 -->
<g id="node6" class="node">
<title>Node6</title>
<g id="a_node6"><a xlink:href="classbio_1_1alphabet_1_1aa10li.html" target="_top" xlink:title="The reduced Li amino acid alphabet.">
<polygon fill="white" stroke="black" points="547,-114.5 547,-133.5 663,-133.5 663,-114.5 547,-114.5"/>
<text text-anchor="middle" x="605" y="-121.5" font-family="Helvetica,sans-Serif" font-size="10.00">bio::alphabet::aa10li</text>
</a>
</g>
</g>
<!-- Node1&#45;&gt;Node6 -->
<g id="edge5" class="edge">
<title>Node1&#45;&gt;Node6</title>
<path fill="none" stroke="midnightblue" d="M468.51,-80.67C486.48,-88.41 509.78,-97.94 531,-105 541.44,-108.47 552.89,-111.71 563.56,-114.5"/>
<polygon fill="midnightblue" stroke="midnightblue" points="469.69,-77.36 459.12,-76.57 466.89,-83.78 469.69,-77.36"/>
</g>
<!-- Node7 -->
<g id="node7" class="node">
<title>Node7</title>
<g id="a_node7"><a xlink:href="classbio_1_1alphabet_1_1aa10murphy.html" target="_top" xlink:title="The reduced Murphy amino acid alphabet.">
<polygon fill="white" stroke="black" points="531,-76.5 531,-95.5 679,-95.5 679,-76.5 531,-76.5"/>
<text text-anchor="middle" x="605" y="-83.5" font-family="Helvetica,sans-Serif" font-size="10.00">bio::alphabet::aa10murphy</text>
</a>
</g>
</g>
<!-- Node1&#45;&gt;Node7 -->
<g id="edge6" class="edge">
<title>Node1&#45;&gt;Node7</title>
<path fill="none" stroke="midnightblue" d="M505.29,-74.7C513.74,-75.67 522.41,-76.66 530.94,-77.64"/>
<polygon fill="midnightblue" stroke="midnightblue" points="505.46,-71.2 495.13,-73.54 504.66,-78.15 505.46,-71.2"/>
</g>
<!-- Node8 -->
<g id="node8" class="node">
<title>Node8</title>
<g id="a_node8"><a xlink:href="classbio_1_1alphabet_1_1aa20.html" target="_top" xlink:title="The canonical amino acid alphabet.">
<polygon fill="white" stroke="black" points="550,-38.5 550,-57.5 660,-57.5 660,-38.5 550,-38.5"/>
<text text-anchor="middle" x="605" y="-45.5" font-family="Helvetica,sans-Serif" font-size="10.00">bio::alphabet::aa20</text>
</a>
</g>
</g>
<!-- Node1&#45;&gt;Node8 -->
<g id="edge7" class="edge">
<title>Node1&#45;&gt;Node8</title>
<path fill="none" stroke="midnightblue" d="M505.26,-59.3C520.09,-57.6 535.61,-55.83 549.84,-54.2"/>
<polygon fill="midnightblue" stroke="midnightblue" points="504.66,-55.85 495.13,-60.46 505.46,-62.8 504.66,-55.85"/>
</g>
<!-- Node9 -->
<g id="node9" class="node">
<title>Node9</title>
<g id="a_node9"><a xlink:href="classbio_1_1alphabet_1_1aa27.html" target="_top" xlink:title="The twenty&#45;seven letter amino acid alphabet.">
<polygon fill="white" stroke="black" points="550,-0.5 550,-19.5 660,-19.5 660,-0.5 550,-0.5"/>
<text text-anchor="middle" x="605" y="-7.5" font-family="Helvetica,sans-Serif" font-size="10.00">bio::alphabet::aa27</text>
</a>
</g>
</g>
<!-- Node1&#45;&gt;Node9 -->
<g id="edge8" class="edge">
<title>Node1&#45;&gt;Node9</title>
<path fill="none" stroke="midnightblue" d="M468.51,-53.33C486.48,-45.59 509.78,-36.06 531,-29 541.44,-25.53 552.89,-22.29 563.56,-19.5"/>
<polygon fill="midnightblue" stroke="midnightblue" points="466.89,-50.22 459.12,-57.43 469.69,-56.64 466.89,-50.22"/>
</g>
<!-- Node2 -->
<g id="node2" class="node">
<title>Node2</title>
<g id="a_node2"><a xlink:href="interfacebio_1_1alphabet_1_1alphabet.html" target="_top" xlink:title="The generic alphabet concept that covers most data types used in ranges.">
<polygon fill="white" stroke="black" points="284,-57.5 284,-76.5 343,-76.5 343,-57.5 284,-57.5"/>
<text text-anchor="middle" x="313.5" y="-64.5" font-family="Helvetica,sans-Serif" font-size="10.00">alphabet</text>
</a>
</g>
</g>
<!-- Node2&#45;&gt;Node1 -->
<g id="edge1" class="edge">
<title>Node2&#45;&gt;Node1</title>
<path fill="none" stroke="midnightblue" d="M353.5,-67C361.56,-67 370.21,-67 378.77,-67"/>
<polygon fill="midnightblue" stroke="midnightblue" points="353.29,-63.5 343.29,-67 353.29,-70.5 353.29,-63.5"/>
</g>
<!-- Node3 -->
<g id="node3" class="node">
<title>Node3</title>
<g id="a_node3"><a xlink:href="interfacebio_1_1alphabet_1_1semialphabet.html" target="_top" xlink:title="The basis for bio::alphabet::alphabet, but requires only rank interface (not char).">
<polygon fill="white" stroke="black" points="165,-57.5 165,-76.5 248,-76.5 248,-57.5 165,-57.5"/>
<text text-anchor="middle" x="206.5" y="-64.5" font-family="Helvetica,sans-Serif" font-size="10.00">semialphabet</text>
</a>
</g>
</g>
<!-- Node3&#45;&gt;Node2 -->
<g id="edge2" class="edge">
<title>Node3&#45;&gt;Node2</title>
<path fill="none" stroke="midnightblue" d="M258.27,-67C267.02,-67 275.82,-67 283.72,-67"/>
<polygon fill="midnightblue" stroke="midnightblue" points="258.1,-63.5 248.1,-67 258.1,-70.5 258.1,-63.5"/>
</g>
<!-- Node4 -->
<g id="node4" class="node">
<title>Node4</title>
<g id="a_node4"><a xlink:title=" ">
<polygon fill="white" stroke="#bfbfbf" points="8.5,-76.5 8.5,-95.5 120.5,-95.5 120.5,-76.5 8.5,-76.5"/>
<text text-anchor="middle" x="64.5" y="-83.5" font-family="Helvetica,sans-Serif" font-size="10.00">std::totally_ordered</text>
</a>
</g>
</g>
<!-- Node4&#45;&gt;Node3 -->
<g id="edge3" class="edge">
<title>Node4&#45;&gt;Node3</title>
<path fill="none" stroke="midnightblue" d="M130.91,-77.12C142.47,-75.55 154.19,-73.96 164.82,-72.52"/>
<polygon fill="midnightblue" stroke="midnightblue" points="130.27,-73.68 120.83,-78.49 131.21,-80.61 130.27,-73.68"/>
</g>
<!-- Node5 -->
<g id="node5" class="node">
<title>Node5</title>
<g id="a_node5"><a xlink:title=" ">
<polygon fill="white" stroke="#bfbfbf" points="0,-38.5 0,-57.5 129,-57.5 129,-38.5 0,-38.5"/>
<text text-anchor="middle" x="64.5" y="-45.5" font-family="Helvetica,sans-Serif" font-size="10.00">std::copy_constructible</text>
</a>
</g>
</g>
<!-- Node5&#45;&gt;Node3 -->
<g id="edge4" class="edge">
<title>Node5&#45;&gt;Node3</title>
<path fill="none" stroke="midnightblue" d="M139.32,-58.02C148.14,-59.22 156.88,-60.4 164.98,-61.5"/>
<polygon fill="midnightblue" stroke="midnightblue" points="139.73,-54.54 129.35,-56.67 138.79,-61.48 139.73,-54.54"/>
</g>
</g>
</svg>
