<?xml version="1.0" encoding="UTF-8" standalone="no"?>
<!DOCTYPE svg PUBLIC "-//W3C//DTD SVG 1.1//EN"
 "http://www.w3.org/Graphics/SVG/1.1/DTD/svg11.dtd">
<!-- Generated by graphviz version 2.42.2 ()
 -->
<!-- Title: standard_layout Pages: 1 -->
<!--zoomable 894 -->
<svg id="main" version="1.1" xmlns="http://www.w3.org/2000/svg" xmlns:xlink="http://www.w3.org/1999/xlink" xml:space="preserve" onload="init(evt)">
<style type="text/css"><![CDATA[
.edge:hover path { stroke: red; }
.edge:hover polygon { stroke: red; fill: red; }
]]></style>
<script type="text/javascript"><![CDATA[
var edges = document.getElementsByTagName('g');
if (edges && edges.length) {
  for (var i=0;i<edges.length;i++) {
    if (edges[i].id.substr(0,4)=='edge') {
      edges[i].setAttribute('class','edge');
    }
  }
}
]]></script>
        <defs>
                <circle id="rim" cx="0" cy="0" r="7"/>
                <circle id="rim2" cx="0" cy="0" r="3.5"/>
                <g id="zoomPlus">
                        <use xlink:href="#rim" fill="#404040">
                                <set attributeName="fill" to="#808080" begin="zoomplus.mouseover" end="zoomplus.mouseout"/>
                        </use>
                        <path d="M-4,0h8M0,-4v8" fill="none" stroke="white" stroke-width="1.5" pointer-events="none"/>
                </g>
                <g id="zoomMin">
                        <use xlink:href="#rim" fill="#404040">
                                <set attributeName="fill" to="#808080" begin="zoomminus.mouseover" end="zoomminus.mouseout"/>
                        </use>
                        <path d="M-4,0h8" fill="none" stroke="white" stroke-width="1.5" pointer-events="none"/>
                </g>
                <g id="dirArrow">
                        <path fill="none" stroke="white" stroke-width="1.5" d="M0,-3.0v7 M-2.5,-0.5L0,-3.0L2.5,-0.5"/>
                </g>
               <g id="resetDef">
                       <use xlink:href="#rim2" fill="#404040">
                               <set attributeName="fill" to="#808080" begin="reset.mouseover" end="reset.mouseout"/>
                       </use>
               </g>
        </defs>

<script type="text/javascript">
var viewWidth = 271;
var viewHeight = 894;
var sectionId = 'dynsection-0';
</script>
<script xlink:href="svgpan.js"/>
<svg id="graph" class="graph">
<g id="viewport">
<title>standard_layout</title>
<polygon fill="white" stroke="transparent" points="-4,4 -4,-889.5 267,-889.5 267,4 -4,4"/>
<!-- Node1 -->
<g id="node1" class="node">
<title>Node1</title>
<g id="a_node1"><a xlink:title="Resolves to std::is_standard_layout_v&lt;t&gt;.">
<polygon fill="#bfbfbf" stroke="black" points="0,-445 0,-464 86,-464 86,-445 0,-445"/>
<text text-anchor="middle" x="43" y="-452" font-family="Helvetica,sans-Serif" font-size="10.00">standard_layout</text>
</a>
</g>
</g>
<!-- Node2 -->
<g id="node2" class="node">
<title>Node2</title>
<g id="a_node2"><a xlink:href="classbio_1_1alphabet_1_1aa10li.html" target="_top" xlink:title="The reduced Li amino acid alphabet..">
<polygon fill="white" stroke="black" points="140.5,-866 140.5,-885 244.5,-885 244.5,-866 140.5,-866"/>
<text text-anchor="middle" x="192.5" y="-873" font-family="Helvetica,sans-Serif" font-size="10.00">bio::alphabet::aa10li</text>
</a>
</g>
</g>
<!-- Node1&#45;&gt;Node2 -->
<g id="edge1" class="edge">
<title>Node1&#45;&gt;Node2</title>
<path fill="none" stroke="midnightblue" d="M45.14,-474.36C49.74,-547.38 69.23,-799.6 122,-856.5 127.02,-861.91 133.42,-865.84 140.29,-868.68"/>
<polygon fill="midnightblue" stroke="midnightblue" points="48.63,-474.01 44.53,-464.24 41.64,-474.44 48.63,-474.01"/>
</g>
<!-- Node3 -->
<g id="node3" class="node">
<title>Node3</title>
<g id="a_node3"><a xlink:href="classbio_1_1alphabet_1_1aa10murphy.html" target="_top" xlink:title="The reduced Murphy amino acid alphabet..">
<polygon fill="white" stroke="black" points="127,-828 127,-847 258,-847 258,-828 127,-828"/>
<text text-anchor="middle" x="192.5" y="-835" font-family="Helvetica,sans-Serif" font-size="10.00">bio::alphabet::aa10murphy</text>
</a>
</g>
</g>
<!-- Node1&#45;&gt;Node3 -->
<g id="edge2" class="edge">
<title>Node1&#45;&gt;Node3</title>
<path fill="none" stroke="midnightblue" d="M45.6,-474.67C51.48,-543.51 74.04,-767.79 122,-818.5 125.61,-822.32 129.91,-825.39 134.57,-827.87"/>
<polygon fill="midnightblue" stroke="midnightblue" points="49.06,-474.02 44.75,-464.34 42.09,-474.6 49.06,-474.02"/>
</g>
<!-- Node4 -->
<g id="node4" class="node">
<title>Node4</title>
<g id="a_node4"><a xlink:href="classbio_1_1alphabet_1_1aa20.html" target="_top" xlink:title="The canonical amino acid alphabet..">
<polygon fill="white" stroke="black" points="143,-790 143,-809 242,-809 242,-790 143,-790"/>
<text text-anchor="middle" x="192.5" y="-797" font-family="Helvetica,sans-Serif" font-size="10.00">bio::alphabet::aa20</text>
</a>
</g>
</g>
<!-- Node1&#45;&gt;Node4 -->
<g id="edge3" class="edge">
<title>Node1&#45;&gt;Node4</title>
<path fill="none" stroke="midnightblue" d="M46.14,-474.6C53.35,-538.57 78.74,-735.83 122,-780.5 127.74,-786.43 135.15,-790.57 142.97,-793.44"/>
<polygon fill="midnightblue" stroke="midnightblue" points="49.58,-473.83 45.01,-464.28 42.62,-474.6 49.58,-473.83"/>
</g>
<!-- Node5 -->
<g id="node5" class="node">
<title>Node5</title>
<g id="a_node5"><a xlink:href="classbio_1_1alphabet_1_1aa27.html" target="_top" xlink:title="The twenty&#45;seven letter amino acid alphabet..">
<polygon fill="white" stroke="black" points="143,-752 143,-771 242,-771 242,-752 143,-752"/>
<text text-anchor="middle" x="192.5" y="-759" font-family="Helvetica,sans-Serif" font-size="10.00">bio::alphabet::aa27</text>
</a>
</g>
</g>
<!-- Node1&#45;&gt;Node5 -->
<g id="edge4" class="edge">
<title>Node1&#45;&gt;Node5</title>
<path fill="none" stroke="midnightblue" d="M43.15,-474.23C42.04,-525.97 46.49,-666.81 122,-742.5 127.74,-748.26 135.05,-752.31 142.76,-755.17"/>
<polygon fill="midnightblue" stroke="midnightblue" points="46.65,-474.19 43.46,-464.08 39.65,-473.97 46.65,-474.19"/>
</g>
<!-- Node6 -->
<g id="node6" class="node">
<title>Node6</title>
<g id="a_node6"><a xlink:href="classbio_1_1alphabet_1_1alphabet__variant.html" target="_top" xlink:title="A combined alphabet that can hold values of either of its alternatives..">
<polygon fill="white" stroke="black" points="135,-692 135,-733 250,-733 250,-692 135,-692"/>
<text text-anchor="start" x="143" y="-721" font-family="Helvetica,sans-Serif" font-size="10.00">bio::alphabet::alphabet</text>
<text text-anchor="start" x="143" y="-710" font-family="Helvetica,sans-Serif" font-size="10.00">_variant&lt; alternative</text>
<text text-anchor="middle" x="192.5" y="-699" font-family="Helvetica,sans-Serif" font-size="10.00">_types &gt;</text>
</a>
</g>
</g>
<!-- Node1&#45;&gt;Node6 -->
<g id="edge5" class="edge">
<title>Node1&#45;&gt;Node6</title>
<path fill="none" stroke="midnightblue" d="M45.46,-474.16C49.66,-517.3 65.41,-621.32 122,-682.5 125.75,-686.55 130.14,-690.08 134.86,-693.15"/>
<polygon fill="midnightblue" stroke="midnightblue" points="48.94,-473.78 44.59,-464.12 41.97,-474.39 48.94,-473.78"/>
</g>
<!-- Node7 -->
<g id="node7" class="node">
<title>Node7</title>
<g id="a_node7"><a xlink:href="classbio_1_1alphabet_1_1cigar.html" target="_top" xlink:title="The cigar semialphabet pairs a counter with a bio::alphabet::cigar_op letter.">
<polygon fill="white" stroke="black" points="143,-654 143,-673 242,-673 242,-654 143,-654"/>
<text text-anchor="middle" x="192.5" y="-661" font-family="Helvetica,sans-Serif" font-size="10.00">bio::alphabet::cigar</text>
</a>
</g>
</g>
<!-- Node1&#45;&gt;Node7 -->
<g id="edge6" class="edge">
<title>Node1&#45;&gt;Node7</title>
<path fill="none" stroke="midnightblue" d="M46.32,-474.01C51.96,-512.51 69.97,-598.49 122,-644.5 128,-649.8 135.34,-653.64 142.98,-656.42"/>
<polygon fill="midnightblue" stroke="midnightblue" points="49.79,-473.53 44.99,-464.08 42.85,-474.46 49.79,-473.53"/>
</g>
<!-- Node8 -->
<g id="node8" class="node">
<title>Node8</title>
<g id="a_node8"><a xlink:href="classbio_1_1alphabet_1_1cigar__op.html" target="_top" xlink:title="The (extended) cigar operation alphabet of M,D,I,H,N,P,S,X,=..">
<polygon fill="white" stroke="black" points="135,-616 135,-635 250,-635 250,-616 135,-616"/>
<text text-anchor="middle" x="192.5" y="-623" font-family="Helvetica,sans-Serif" font-size="10.00">bio::alphabet::cigar_op</text>
</a>
</g>
</g>
<!-- Node1&#45;&gt;Node8 -->
<g id="edge7" class="edge">
<title>Node1&#45;&gt;Node8</title>
<path fill="none" stroke="midnightblue" d="M48.56,-474.08C57.17,-506.58 78.94,-571.56 122,-606.5 126.76,-610.36 132.24,-613.44 138,-615.9"/>
<polygon fill="midnightblue" stroke="midnightblue" points="51.88,-472.89 46.05,-464.04 45.08,-474.59 51.88,-472.89"/>
</g>
<!-- Node9 -->
<g id="node9" class="node">
<title>Node9</title>
<g id="a_node9"><a xlink:href="classbio_1_1alphabet_1_1dna15.html" target="_top" xlink:title="The 15 letter DNA alphabet, containing all IUPAC smybols minus the gap..">
<polygon fill="white" stroke="black" points="140.5,-578 140.5,-597 244.5,-597 244.5,-578 140.5,-578"/>
<text text-anchor="middle" x="192.5" y="-585" font-family="Helvetica,sans-Serif" font-size="10.00">bio::alphabet::dna15</text>
</a>
</g>
</g>
<!-- Node1&#45;&gt;Node9 -->
<g id="edge8" class="edge">
<title>Node1&#45;&gt;Node9</title>
<path fill="none" stroke="midnightblue" d="M51.89,-473.48C63.47,-498.98 87.49,-543.93 122,-568.5 127.5,-572.42 133.78,-575.53 140.25,-578"/>
<polygon fill="midnightblue" stroke="midnightblue" points="55.02,-471.92 47.82,-464.15 48.61,-474.72 55.02,-471.92"/>
</g>
<!-- Node10 -->
<g id="node10" class="node">
<title>Node10</title>
<g id="a_node10"><a xlink:href="classbio_1_1alphabet_1_1dna16sam.html" target="_top" xlink:title="A 16 letter DNA alphabet, containing all IUPAC symbols minus the gap and plus an equality sign (&#39;=&#39;)....">
<polygon fill="white" stroke="black" points="131,-540 131,-559 254,-559 254,-540 131,-540"/>
<text text-anchor="middle" x="192.5" y="-547" font-family="Helvetica,sans-Serif" font-size="10.00">bio::alphabet::dna16sam</text>
</a>
</g>
</g>
<!-- Node1&#45;&gt;Node10 -->
<g id="edge9" class="edge">
<title>Node1&#45;&gt;Node10</title>
<path fill="none" stroke="midnightblue" d="M57.58,-472.18C71.81,-489.52 95.73,-515.47 122,-530.5 128.73,-534.35 136.28,-537.45 143.85,-539.94"/>
<polygon fill="midnightblue" stroke="midnightblue" points="60.03,-469.64 51.06,-464 54.55,-474 60.03,-469.64"/>
</g>
<!-- Node11 -->
<g id="node11" class="node">
<title>Node11</title>
<g id="a_node11"><a xlink:href="classbio_1_1alphabet_1_1dna4.html" target="_top" xlink:title="The four letter DNA alphabet of A,C,G,T..">
<polygon fill="white" stroke="black" points="143,-502 143,-521 242,-521 242,-502 143,-502"/>
<text text-anchor="middle" x="192.5" y="-509" font-family="Helvetica,sans-Serif" font-size="10.00">bio::alphabet::dna4</text>
</a>
</g>
</g>
<!-- Node1&#45;&gt;Node11 -->
<g id="edge10" class="edge">
<title>Node1&#45;&gt;Node11</title>
<path fill="none" stroke="midnightblue" d="M70.35,-468.86C85.21,-476.57 104.31,-485.84 122,-492.5 131.37,-496.03 141.66,-499.2 151.4,-501.91"/>
<polygon fill="midnightblue" stroke="midnightblue" points="71.72,-465.63 61.24,-464.06 68.46,-471.82 71.72,-465.63"/>
</g>
<!-- Node12 -->
<g id="node12" class="node">
<title>Node12</title>
<g id="a_node12"><a xlink:href="classbio_1_1alphabet_1_1dna5.html" target="_top" xlink:title="The five letter DNA alphabet of A,C,G,T and the unknown character N..">
<polygon fill="white" stroke="black" points="143,-464 143,-483 242,-483 242,-464 143,-464"/>
<text text-anchor="middle" x="192.5" y="-471" font-family="Helvetica,sans-Serif" font-size="10.00">bio::alphabet::dna5</text>
</a>
</g>
</g>
<!-- Node1&#45;&gt;Node12 -->
<g id="edge11" class="edge">
<title>Node1&#45;&gt;Node12</title>
<path fill="none" stroke="midnightblue" d="M96.51,-461.26C111.65,-463.21 128.1,-465.33 142.99,-467.25"/>
<polygon fill="midnightblue" stroke="midnightblue" points="96.63,-457.75 86.27,-459.94 95.74,-464.69 96.63,-457.75"/>
</g>
<!-- Node13 -->
<g id="node13" class="node">
<title>Node13</title>
<g id="a_node13"><a xlink:href="classbio_1_1alphabet_1_1gap.html" target="_top" xlink:title="The alphabet of a gap character &#39;&#45;&#39;.">
<polygon fill="white" stroke="black" points="145.5,-426 145.5,-445 239.5,-445 239.5,-426 145.5,-426"/>
<text text-anchor="middle" x="192.5" y="-433" font-family="Helvetica,sans-Serif" font-size="10.00">bio::alphabet::gap</text>
</a>
</g>
</g>
<!-- Node1&#45;&gt;Node13 -->
<g id="edge12" class="edge">
<title>Node1&#45;&gt;Node13</title>
<path fill="none" stroke="midnightblue" d="M96.5,-447.74C112.45,-445.68 129.85,-443.44 145.35,-441.44"/>
<polygon fill="midnightblue" stroke="midnightblue" points="95.74,-444.31 86.27,-449.06 96.63,-451.25 95.74,-444.31"/>
</g>
<!-- Node14 -->
<g id="node14" class="node">
<title>Node14</title>
<g id="a_node14"><a xlink:href="classbio_1_1alphabet_1_1mask.html" target="_top" xlink:title="Implementation of a masked alphabet to be used for tuple composites..">
<polygon fill="white" stroke="black" points="141.5,-388 141.5,-407 243.5,-407 243.5,-388 141.5,-388"/>
<text text-anchor="middle" x="192.5" y="-395" font-family="Helvetica,sans-Serif" font-size="10.00">bio::alphabet::mask</text>
</a>
</g>
</g>
<!-- Node1&#45;&gt;Node14 -->
<g id="edge13" class="edge">
<title>Node1&#45;&gt;Node14</title>
<path fill="none" stroke="midnightblue" d="M70.35,-440.14C85.21,-432.43 104.31,-423.16 122,-416.5 131.37,-412.97 141.66,-409.8 151.4,-407.09"/>
<polygon fill="midnightblue" stroke="midnightblue" points="68.46,-437.18 61.24,-444.94 71.72,-443.37 68.46,-437.18"/>
</g>
<!-- Node15 -->
<g id="node15" class="node">
<title>Node15</title>
<g id="a_node15"><a xlink:href="classbio_1_1alphabet_1_1masked.html" target="_top" xlink:title="Implementation of a masked composite, which extends a given alphabet with a mask..">
<polygon fill="white" stroke="black" points="129,-338.5 129,-368.5 256,-368.5 256,-338.5 129,-338.5"/>
<text text-anchor="start" x="137" y="-356.5" font-family="Helvetica,sans-Serif" font-size="10.00">bio::alphabet::masked</text>
<text text-anchor="middle" x="192.5" y="-345.5" font-family="Helvetica,sans-Serif" font-size="10.00">&lt; sequence_alphabet_t &gt;</text>
</a>
</g>
</g>
<!-- Node1&#45;&gt;Node15 -->
<g id="edge14" class="edge">
<title>Node1&#45;&gt;Node15</title>
<path fill="none" stroke="midnightblue" d="M58.06,-436.98C72.52,-419.97 96.47,-394.46 122,-378.5 127.98,-374.76 134.6,-371.47 141.3,-368.62"/>
<polygon fill="midnightblue" stroke="midnightblue" points="55.1,-435.07 51.41,-445 60.49,-439.54 55.1,-435.07"/>
</g>
<!-- Node16 -->
<g id="node16" class="node">
<title>Node16</title>
<g id="a_node16"><a xlink:href="classbio_1_1alphabet_1_1phred42.html" target="_top" xlink:title="Quality type for traditional Sanger and modern Illumina Phred scores (typical range)....">
<polygon fill="white" stroke="black" points="136,-300 136,-319 249,-319 249,-300 136,-300"/>
<text text-anchor="middle" x="192.5" y="-307" font-family="Helvetica,sans-Serif" font-size="10.00">bio::alphabet::phred42</text>
</a>
</g>
</g>
<!-- Node1&#45;&gt;Node16 -->
<g id="edge15" class="edge">
<title>Node1&#45;&gt;Node16</title>
<path fill="none" stroke="midnightblue" d="M50.97,-434.96C61.82,-407.33 85.41,-357.12 122,-329.5 127.81,-325.11 134.56,-321.69 141.52,-319.01"/>
<polygon fill="midnightblue" stroke="midnightblue" points="47.56,-434.08 47.32,-444.67 54.11,-436.54 47.56,-434.08"/>
</g>
<!-- Node17 -->
<g id="node17" class="node">
<title>Node17</title>
<g id="a_node17"><a xlink:href="classbio_1_1alphabet_1_1phred63.html" target="_top" xlink:title="Quality type for traditional Sanger and modern Illumina Phred scores (full range)....">
<polygon fill="white" stroke="black" points="136,-262 136,-281 249,-281 249,-262 136,-262"/>
<text text-anchor="middle" x="192.5" y="-269" font-family="Helvetica,sans-Serif" font-size="10.00">bio::alphabet::phred63</text>
</a>
</g>
</g>
<!-- Node1&#45;&gt;Node17 -->
<g id="edge16" class="edge">
<title>Node1&#45;&gt;Node17</title>
<path fill="none" stroke="midnightblue" d="M47.78,-434.81C55.46,-400.28 76.18,-328.84 122,-290.5 126.6,-286.65 131.93,-283.57 137.53,-281.11"/>
<polygon fill="midnightblue" stroke="midnightblue" points="44.35,-434.13 45.73,-444.63 51.2,-435.56 44.35,-434.13"/>
</g>
<!-- Node18 -->
<g id="node18" class="node">
<title>Node18</title>
<g id="a_node18"><a xlink:href="classbio_1_1alphabet_1_1phred68legacy.html" target="_top" xlink:title="Quality type for Solexa and deprecated Illumina formats..">
<polygon fill="white" stroke="black" points="122,-224 122,-243 263,-243 263,-224 122,-224"/>
<text text-anchor="middle" x="192.5" y="-231" font-family="Helvetica,sans-Serif" font-size="10.00">bio::alphabet::phred68legacy</text>
</a>
</g>
</g>
<!-- Node1&#45;&gt;Node18 -->
<g id="edge17" class="edge">
<title>Node1&#45;&gt;Node18</title>
<path fill="none" stroke="midnightblue" d="M45.83,-434.62C50.63,-394.16 67.29,-301.91 122,-252.5 126.27,-248.64 131.25,-245.56 136.55,-243.09"/>
<polygon fill="midnightblue" stroke="midnightblue" points="42.32,-434.47 44.75,-444.78 49.28,-435.21 42.32,-434.47"/>
</g>
<!-- Node19 -->
<g id="node19" class="node">
<title>Node19</title>
<g id="a_node19"><a xlink:href="classbio_1_1alphabet_1_1qualified.html" target="_top" xlink:title="Joins an arbitrary alphabet with a quality alphabet.">
<polygon fill="white" stroke="black" points="132,-164 132,-205 253,-205 253,-164 132,-164"/>
<text text-anchor="start" x="140" y="-193" font-family="Helvetica,sans-Serif" font-size="10.00">bio::alphabet::qualified</text>
<text text-anchor="start" x="140" y="-182" font-family="Helvetica,sans-Serif" font-size="10.00">&lt; sequence_alphabet_t,</text>
<text text-anchor="middle" x="192.5" y="-171" font-family="Helvetica,sans-Serif" font-size="10.00"> quality_alphabet_t &gt;</text>
</a>
</g>
</g>
<!-- Node1&#45;&gt;Node19 -->
<g id="edge18" class="edge">
<title>Node1&#45;&gt;Node19</title>
<path fill="none" stroke="midnightblue" d="M45.07,-434.74C48.5,-389.92 62.84,-279.46 122,-214.5 125.19,-211 128.85,-207.9 132.8,-205.14"/>
<polygon fill="midnightblue" stroke="midnightblue" points="41.56,-434.66 44.39,-444.87 48.55,-435.13 41.56,-434.66"/>
</g>
<!-- Node20 -->
<g id="node20" class="node">
<title>Node20</title>
<g id="a_node20"><a xlink:href="classbio_1_1alphabet_1_1rna15.html" target="_top" xlink:title="The 15 letter RNA alphabet, containing all IUPAC smybols minus the gap..">
<polygon fill="white" stroke="black" points="141.5,-126 141.5,-145 243.5,-145 243.5,-126 141.5,-126"/>
<text text-anchor="middle" x="192.5" y="-133" font-family="Helvetica,sans-Serif" font-size="10.00">bio::alphabet::rna15</text>
</a>
</g>
</g>
<!-- Node1&#45;&gt;Node20 -->
<g id="edge19" class="edge">
<title>Node1&#45;&gt;Node20</title>
<path fill="none" stroke="midnightblue" d="M46.53,-434.83C54.65,-374.72 81.86,-195.15 122,-154.5 127.36,-149.07 134.11,-145.15 141.29,-142.33"/>
<polygon fill="midnightblue" stroke="midnightblue" points="43.04,-434.52 45.2,-444.89 49.98,-435.43 43.04,-434.52"/>
</g>
<!-- Node21 -->
<g id="node21" class="node">
<title>Node21</title>
<g id="a_node21"><a xlink:href="classbio_1_1alphabet_1_1rna4.html" target="_top" xlink:title="The four letter RNA alphabet of A,C,G,U..">
<polygon fill="white" stroke="black" points="144,-88 144,-107 241,-107 241,-88 144,-88"/>
<text text-anchor="middle" x="192.5" y="-95" font-family="Helvetica,sans-Serif" font-size="10.00">bio::alphabet::rna4</text>
</a>
</g>
</g>
<!-- Node1&#45;&gt;Node21 -->
<g id="edge20" class="edge">
<title>Node1&#45;&gt;Node21</title>
<path fill="none" stroke="midnightblue" d="M45.95,-434.51C52.71,-369.12 77.23,-163.1 122,-116.5 127.98,-110.28 135.78,-106.03 144,-103.14"/>
<polygon fill="midnightblue" stroke="midnightblue" points="42.44,-434.4 44.92,-444.7 49.4,-435.1 42.44,-434.4"/>
</g>
<!-- Node22 -->
<g id="node22" class="node">
<title>Node22</title>
<g id="a_node22"><a xlink:href="classbio_1_1alphabet_1_1rna5.html" target="_top" xlink:title="The five letter RNA alphabet of A,C,G,U and the unknown character N..">
<polygon fill="white" stroke="black" points="144,-50 144,-69 241,-69 241,-50 144,-50"/>
<text text-anchor="middle" x="192.5" y="-57" font-family="Helvetica,sans-Serif" font-size="10.00">bio::alphabet::rna5</text>
</a>
</g>
</g>
<!-- Node1&#45;&gt;Node22 -->
<g id="edge21" class="edge">
<title>Node1&#45;&gt;Node22</title>
<path fill="none" stroke="midnightblue" d="M45.44,-434.58C50.88,-364.56 72.49,-131.2 122,-78.5 127.91,-72.21 135.68,-67.93 143.89,-65.03"/>
<polygon fill="midnightblue" stroke="midnightblue" points="41.94,-434.46 44.68,-444.69 48.92,-434.98 41.94,-434.46"/>
</g>
<!-- Node23 -->
<g id="node23" class="node">
<title>Node23</title>
<g id="a_node23"><a xlink:href="classbio_1_1alphabet_1_1semialphabet__any.html" target="_top" xlink:title="A semi&#45;alphabet that type erases all other semi&#45;alphabets of the same size.">
<polygon fill="white" stroke="black" points="124.5,-0.5 124.5,-30.5 260.5,-30.5 260.5,-0.5 124.5,-0.5"/>
<text text-anchor="start" x="132.5" y="-18.5" font-family="Helvetica,sans-Serif" font-size="10.00">bio::alphabet::semialphabet</text>
<text text-anchor="middle" x="192.5" y="-7.5" font-family="Helvetica,sans-Serif" font-size="10.00">_any&lt; size_ &gt;</text>
</a>
</g>
</g>
<!-- Node1&#45;&gt;Node23 -->
<g id="edge22" class="edge">
<title>Node1&#45;&gt;Node23</title>
<path fill="none" stroke="midnightblue" d="M45.17,-434.67C49.94,-360.61 70.1,-101.39 122,-40.5 125.33,-36.6 129.31,-33.3 133.67,-30.52"/>
<polygon fill="midnightblue" stroke="midnightblue" points="41.67,-434.71 44.54,-444.9 48.65,-435.14 41.67,-434.71"/>
</g>
</g>
</svg>
        <g id="navigator" transform="translate(0 0)" fill="#404254">
                <rect fill="#f2f5e9" fill-opacity="0.5" stroke="#606060" stroke-width=".5" x="0" y="0" width="60" height="60"/>
                <use id="zoomplus" xlink:href="#zoomPlus" x="17" y="9" onmousedown="handleZoom(evt,'in')"/>
                <use id="zoomminus" xlink:href="#zoomMin" x="42" y="9" onmousedown="handleZoom(evt,'out')"/>
                <use id="reset" xlink:href="#resetDef" x="30" y="36" onmousedown="handleReset()"/>
                <g id="arrowUp" xlink:href="#dirArrow" transform="translate(30 24)" onmousedown="handlePan(0,-1)">
                  <use xlink:href="#rim" fill="#404040">
                        <set attributeName="fill" to="#808080" begin="arrowUp.mouseover" end="arrowUp.mouseout"/>
                  </use>
                  <path fill="none" stroke="white" stroke-width="1.5" d="M0,-3.0v7 M-2.5,-0.5L0,-3.0L2.5,-0.5"/>
                </g>
                <g id="arrowRight" xlink:href="#dirArrow" transform="rotate(90) translate(36 -43)" onmousedown="handlePan(1,0)">
                  <use xlink:href="#rim" fill="#404040">
                        <set attributeName="fill" to="#808080" begin="arrowRight.mouseover" end="arrowRight.mouseout"/>
                  </use>
                  <path fill="none" stroke="white" stroke-width="1.5" d="M0,-3.0v7 M-2.5,-0.5L0,-3.0L2.5,-0.5"/>
                </g>
                <g id="arrowDown" xlink:href="#dirArrow" transform="rotate(180) translate(-30 -48)" onmousedown="handlePan(0,1)">
                  <use xlink:href="#rim" fill="#404040">
                        <set attributeName="fill" to="#808080" begin="arrowDown.mouseover" end="arrowDown.mouseout"/>
                  </use>
                  <path fill="none" stroke="white" stroke-width="1.5" d="M0,-3.0v7 M-2.5,-0.5L0,-3.0L2.5,-0.5"/>
                </g>
                <g id="arrowLeft" xlink:href="#dirArrow" transform="rotate(270) translate(-36 17)" onmousedown="handlePan(-1,0)">
                  <use xlink:href="#rim" fill="#404040">
                        <set attributeName="fill" to="#808080" begin="arrowLeft.mouseover" end="arrowLeft.mouseout"/>
                  </use>
                  <path fill="none" stroke="white" stroke-width="1.5" d="M0,-3.0v7 M-2.5,-0.5L0,-3.0L2.5,-0.5"/>
                </g>
        </g>
        <svg viewBox="0 0 15 15" width="100%" height="30px" preserveAspectRatio="xMaxYMin meet">
         <g id="arrow_out" transform="scale(0.3 0.3)">
          <a xlink:href="interfacebio_1_1meta_1_1standard__layout__inherit__graph_org.svg" target="_base">
           <rect id="button" ry="5" rx="5" y="6" x="6" height="38" width="38"
                fill="#f2f5e9" fill-opacity="0.5" stroke="#606060" stroke-width="1.0"/>
           <path id="arrow"
             d="M 11.500037,31.436501 C 11.940474,20.09759 22.043105,11.32322 32.158766,21.979434 L 37.068811,17.246167 C 37.068811,17.246167 37.088388,32 37.088388,32 L 22.160133,31.978069 C 22.160133,31.978069 26.997745,27.140456 26.997745,27.140456 C 18.528582,18.264221 13.291696,25.230495 11.500037,31.436501 z"
             style="fill:#404040;"/>
          </a>
         </g>
        </svg>
</svg>
