<?xml version="1.0" encoding="UTF-8" standalone="no"?>
<!DOCTYPE svg PUBLIC "-//W3C//DTD SVG 1.1//EN"
 "http://www.w3.org/Graphics/SVG/1.1/DTD/svg11.dtd">
<!-- Generated by graphviz version 2.43.0 (0)
 -->
<!-- Title: cereal_archive Pages: 1 -->
<svg width="401pt" height="84pt"
 viewBox="0.00 0.00 400.50 84.00" xmlns="http://www.w3.org/2000/svg" xmlns:xlink="http://www.w3.org/1999/xlink">
<g id="graph0" class="graph" transform="scale(1 1) rotate(0) translate(4 80)">
<title>cereal_archive</title>
<polygon fill="white" stroke="transparent" points="-4,4 -4,-80 396.5,-80 396.5,4 -4,4"/>
<!-- Node1 -->
<g id="node1" class="node">
<title>Node1</title>
<g id="a_node1"><a xlink:title="All archives of the Cereal library satisfy this.">
<polygon fill="#bfbfbf" stroke="black" points="155,-56.5 155,-75.5 243,-75.5 243,-56.5 155,-56.5"/>
<text text-anchor="middle" x="199" y="-63.5" font-family="Helvetica,sans-Serif" font-size="10.00">cereal_archive</text>
</a>
</g>
</g>
<!-- Node2 -->
<g id="node2" class="node">
<title>Node2</title>
<g id="a_node2"><a xlink:href="interfacebio_1_1cereal__input__archive.html" target="_top" xlink:title="All input archives of the Cereal library satisfy this.">
<polygon fill="white" stroke="black" points="0,-0.5 0,-19.5 118,-19.5 118,-0.5 0,-0.5"/>
<text text-anchor="middle" x="59" y="-7.5" font-family="Helvetica,sans-Serif" font-size="10.00">cereal_input_archive</text>
</a>
</g>
</g>
<!-- Node1&#45;&gt;Node2 -->
<g id="edge1" class="edge">
<title>Node1&#45;&gt;Node2</title>
<path fill="none" stroke="midnightblue" d="M167.3,-52.77C141,-42.63 104.28,-28.47 81.08,-19.52"/>
<polygon fill="midnightblue" stroke="midnightblue" points="166.23,-56.11 176.82,-56.44 168.75,-49.58 166.23,-56.11"/>
</g>
<!-- Node3 -->
<g id="node3" class="node">
<title>Node3</title>
<g id="a_node3"><a xlink:href="interfacebio_1_1cereal__output__archive.html" target="_top" xlink:title="All output archives of the Cereal library satisfy this.">
<polygon fill="white" stroke="black" points="136.5,-0.5 136.5,-19.5 261.5,-19.5 261.5,-0.5 136.5,-0.5"/>
<text text-anchor="middle" x="199" y="-7.5" font-family="Helvetica,sans-Serif" font-size="10.00">cereal_output_archive</text>
</a>
</g>
</g>
<!-- Node1&#45;&gt;Node3 -->
<g id="edge2" class="edge">
<title>Node1&#45;&gt;Node3</title>
<path fill="none" stroke="midnightblue" d="M199,-45.8C199,-36.91 199,-26.78 199,-19.75"/>
<polygon fill="midnightblue" stroke="midnightblue" points="195.5,-46.08 199,-56.08 202.5,-46.08 195.5,-46.08"/>
</g>
<!-- Node4 -->
<g id="node4" class="node">
<title>Node4</title>
<g id="a_node4"><a xlink:href="interfacebio_1_1cereal__text__archive.html" target="_top" xlink:title="All text archives of the Cereal library satisfy this.">
<polygon fill="white" stroke="black" points="279.5,-0.5 279.5,-19.5 392.5,-19.5 392.5,-0.5 279.5,-0.5"/>
<text text-anchor="middle" x="336" y="-7.5" font-family="Helvetica,sans-Serif" font-size="10.00">cereal_text_archive</text>
</a>
</g>
</g>
<!-- Node1&#45;&gt;Node4 -->
<g id="edge3" class="edge">
<title>Node1&#45;&gt;Node4</title>
<path fill="none" stroke="midnightblue" d="M230.02,-52.77C255.76,-42.63 291.69,-28.47 314.39,-19.52"/>
<polygon fill="midnightblue" stroke="midnightblue" points="228.73,-49.52 220.71,-56.44 231.29,-56.03 228.73,-49.52"/>
</g>
</g>
</svg>
