<?xml version="1.0" encoding="UTF-8" standalone="no"?>
<!DOCTYPE svg PUBLIC "-//W3C//DTD SVG 1.1//EN"
 "http://www.w3.org/Graphics/SVG/1.1/DTD/svg11.dtd">
<!-- Generated by graphviz version 2.43.0 (0)
 -->
<!-- Title: unary_type_trait Pages: 1 -->
<svg width="289pt" height="356pt"
 viewBox="0.00 0.00 289.00 356.00" xmlns="http://www.w3.org/2000/svg" xmlns:xlink="http://www.w3.org/1999/xlink">
<g id="graph0" class="graph" transform="scale(1 1) rotate(0) translate(4 352)">
<title>unary_type_trait</title>
<polygon fill="white" stroke="transparent" points="-4,4 -4,-352 285,-352 285,4 -4,4"/>
<!-- Node1 -->
<g id="node1" class="node">
<title>Node1</title>
<g id="a_node1"><a xlink:title="Concept for a unary traits type.">
<polygon fill="#bfbfbf" stroke="black" points="0,-142.5 0,-161.5 97,-161.5 97,-142.5 0,-142.5"/>
<text text-anchor="middle" x="48.5" y="-149.5" font-family="Helvetica,sans-Serif" font-size="10.00">unary_type_trait</text>
</a>
</g>
</g>
<!-- Node2 -->
<g id="node2" class="node">
<title>Node2</title>
<g id="a_node2"><a xlink:title=" ">
<polygon fill="white" stroke="#bfbfbf" points="138,-306.5 138,-347.5 276,-347.5 276,-306.5 138,-306.5"/>
<text text-anchor="start" x="146" y="-335.5" font-family="Helvetica,sans-Serif" font-size="10.00">bio::detail::is_class</text>
<text text-anchor="start" x="146" y="-324.5" font-family="Helvetica,sans-Serif" font-size="10.00">_template_declarable</text>
<text text-anchor="middle" x="207" y="-313.5" font-family="Helvetica,sans-Serif" font-size="10.00">_with&lt; query_t, args_t &gt;</text>
</a>
</g>
</g>
<!-- Node1&#45;&gt;Node2 -->
<g id="edge1" class="edge">
<title>Node1&#45;&gt;Node2</title>
<path fill="none" stroke="midnightblue" d="M55.84,-171.02C66.92,-201.53 92.53,-261.57 133,-297 137.02,-300.52 141.51,-303.66 146.23,-306.46"/>
<polygon fill="midnightblue" stroke="midnightblue" points="59.14,-169.83 52.53,-161.55 52.53,-172.14 59.14,-169.83"/>
</g>
<!-- Node3 -->
<g id="node3" class="node">
<title>Node3</title>
<g id="a_node3"><a xlink:title=" ">
<polygon fill="white" stroke="#bfbfbf" points="133,-246.5 133,-287.5 281,-287.5 281,-246.5 133,-246.5"/>
<text text-anchor="start" x="141" y="-275.5" font-family="Helvetica,sans-Serif" font-size="10.00">bio::detail::is_type</text>
<text text-anchor="start" x="141" y="-264.5" font-family="Helvetica,sans-Serif" font-size="10.00">_specialisation_of&lt; source</text>
<text text-anchor="middle" x="207" y="-253.5" font-family="Helvetica,sans-Serif" font-size="10.00">_t, target_template &gt;</text>
</a>
</g>
</g>
<!-- Node1&#45;&gt;Node3 -->
<g id="edge2" class="edge">
<title>Node1&#45;&gt;Node3</title>
<path fill="none" stroke="midnightblue" d="M63.19,-169.7C78.49,-188.5 104.85,-218.06 133,-237 138.12,-240.44 143.69,-243.6 149.4,-246.47"/>
<polygon fill="midnightblue" stroke="midnightblue" points="65.75,-167.3 56.79,-161.66 60.28,-171.66 65.75,-167.3"/>
</g>
<!-- Node4 -->
<g id="node4" class="node">
<title>Node4</title>
<g id="a_node4"><a xlink:title=" ">
<polygon fill="white" stroke="#bfbfbf" points="133,-186.5 133,-227.5 281,-227.5 281,-186.5 133,-186.5"/>
<text text-anchor="start" x="141" y="-215.5" font-family="Helvetica,sans-Serif" font-size="10.00">bio::detail::is_value</text>
<text text-anchor="start" x="141" y="-204.5" font-family="Helvetica,sans-Serif" font-size="10.00">_specialisation_of&lt; source</text>
<text text-anchor="middle" x="207" y="-193.5" font-family="Helvetica,sans-Serif" font-size="10.00">_t, target_template &gt;</text>
</a>
</g>
</g>
<!-- Node1&#45;&gt;Node4 -->
<g id="edge3" class="edge">
<title>Node1&#45;&gt;Node4</title>
<path fill="none" stroke="midnightblue" d="M86.43,-164.98C104.67,-171.39 127.12,-179.28 147.62,-186.48"/>
<polygon fill="midnightblue" stroke="midnightblue" points="87.36,-161.59 76.76,-161.58 85.03,-168.2 87.36,-161.59"/>
</g>
<!-- Node5 -->
<g id="node5" class="node">
<title>Node5</title>
<g id="a_node5"><a xlink:title=" ">
<polygon fill="white" stroke="#bfbfbf" points="139.5,-137 139.5,-167 274.5,-167 274.5,-137 139.5,-137"/>
<text text-anchor="start" x="147.5" y="-155" font-family="Helvetica,sans-Serif" font-size="10.00">bio::detail::type_in</text>
<text text-anchor="middle" x="207" y="-144" font-family="Helvetica,sans-Serif" font-size="10.00">_pack&lt; target_t, pack &gt;</text>
</a>
</g>
</g>
<!-- Node1&#45;&gt;Node5 -->
<g id="edge4" class="edge">
<title>Node1&#45;&gt;Node5</title>
<path fill="none" stroke="midnightblue" d="M107.51,-152C117.92,-152 128.85,-152 139.47,-152"/>
<polygon fill="midnightblue" stroke="midnightblue" points="107.31,-148.5 97.31,-152 107.31,-155.5 107.31,-148.5"/>
</g>
<!-- Node6 -->
<g id="node6" class="node">
<title>Node6</title>
<g id="a_node6"><a xlink:href="structbio_1_1is__constexpr__default__constructible.html" target="_top" xlink:title="Whether a type std::is_default_constructible in constexpr&#45;context.">
<polygon fill="white" stroke="black" points="137.5,-88 137.5,-118 276.5,-118 276.5,-88 137.5,-88"/>
<text text-anchor="start" x="145.5" y="-106" font-family="Helvetica,sans-Serif" font-size="10.00">bio::is_constexpr_default</text>
<text text-anchor="middle" x="207" y="-95" font-family="Helvetica,sans-Serif" font-size="10.00">_constructible&lt; t &gt;</text>
</a>
</g>
</g>
<!-- Node1&#45;&gt;Node6 -->
<g id="edge5" class="edge">
<title>Node1&#45;&gt;Node6</title>
<path fill="none" stroke="midnightblue" d="M89.84,-139.37C110.65,-132.86 136.16,-124.87 157.97,-118.04"/>
<polygon fill="midnightblue" stroke="midnightblue" points="88.54,-136.11 80.05,-142.44 90.64,-142.79 88.54,-136.11"/>
</g>
<!-- Node7 -->
<g id="node7" class="node">
<title>Node7</title>
<g id="a_node7"><a xlink:href="structstd_1_1tuple__size_3_01t_3_01types_8_8_8_01_4_01_4.html" target="_top" xlink:title="Provides access to the number of elements in a tuple as a compile&#45;time constant expression.">
<polygon fill="white" stroke="black" points="156,-39 156,-69 258,-69 258,-39 156,-39"/>
<text text-anchor="start" x="164" y="-57" font-family="Helvetica,sans-Serif" font-size="10.00">std::tuple_size&lt; t</text>
<text text-anchor="middle" x="207" y="-46" font-family="Helvetica,sans-Serif" font-size="10.00">&lt; types... &gt; &gt;</text>
</a>
</g>
</g>
<!-- Node1&#45;&gt;Node7 -->
<g id="edge6" class="edge">
<title>Node1&#45;&gt;Node7</title>
<path fill="none" stroke="midnightblue" d="M65.22,-134.83C80.99,-118.5 106.64,-94.24 133,-79 140.07,-74.91 147.92,-71.35 155.77,-68.3"/>
<polygon fill="midnightblue" stroke="midnightblue" points="62.65,-132.46 58.32,-142.13 67.73,-137.27 62.65,-132.46"/>
</g>
<!-- Node8 -->
<g id="node8" class="node">
<title>Node8</title>
<g id="a_node8"><a xlink:href="structstd_1_1tuple__size_3_01tuple__t_01_4.html" target="_top" xlink:title="Provides access to the number of elements in a tuple as a compile&#45;time constant expression.">
<polygon fill="white" stroke="black" points="135.5,-0.5 135.5,-19.5 278.5,-19.5 278.5,-0.5 135.5,-0.5"/>
<text text-anchor="middle" x="207" y="-7.5" font-family="Helvetica,sans-Serif" font-size="10.00">std::tuple_size&lt; tuple_t &gt;</text>
</a>
</g>
</g>
<!-- Node1&#45;&gt;Node8 -->
<g id="edge7" class="edge">
<title>Node1&#45;&gt;Node8</title>
<path fill="none" stroke="midnightblue" d="M57.42,-132.86C69.61,-105.8 95.54,-56.69 133,-30 139.1,-25.65 146.1,-22.25 153.3,-19.59"/>
<polygon fill="midnightblue" stroke="midnightblue" points="54.06,-131.8 53.3,-142.37 60.49,-134.58 54.06,-131.8"/>
</g>
</g>
</svg>
