<?xml version="1.0" encoding="UTF-8" standalone="no"?>
<!DOCTYPE svg PUBLIC "-//W3C//DTD SVG 1.1//EN"
 "http://www.w3.org/Graphics/SVG/1.1/DTD/svg11.dtd">
<!-- Generated by graphviz version 2.43.0 (0)
 -->
<!-- Title: nucleotide_alphabet Pages: 1 -->
<!--zoomable 354 -->
<svg id="main" version="1.1" xmlns="http://www.w3.org/2000/svg" xmlns:xlink="http://www.w3.org/1999/xlink" xml:space="preserve" onload="init(evt)">
<style type="text/css"><![CDATA[
.edge:hover path { stroke: red; }
.edge:hover polygon { stroke: red; fill: red; }
]]></style>
<script type="text/javascript"><![CDATA[
var edges = document.getElementsByTagName('g');
if (edges && edges.length) {
  for (var i=0;i<edges.length;i++) {
    if (edges[i].id.substr(0,4)=='edge') {
      edges[i].setAttribute('class','edge');
    }
  }
}
]]></script>
        <defs>
                <circle id="rim" cx="0" cy="0" r="7"/>
                <circle id="rim2" cx="0" cy="0" r="3.5"/>
                <g id="zoomPlus">
                        <use xlink:href="#rim" fill="#404040">
                                <set attributeName="fill" to="#808080" begin="zoomplus.mouseover" end="zoomplus.mouseout"/>
                        </use>
                        <path d="M-4,0h8M0,-4v8" fill="none" stroke="white" stroke-width="1.5" pointer-events="none"/>
                </g>
                <g id="zoomMin">
                        <use xlink:href="#rim" fill="#404040">
                                <set attributeName="fill" to="#808080" begin="zoomminus.mouseover" end="zoomminus.mouseout"/>
                        </use>
                        <path d="M-4,0h8" fill="none" stroke="white" stroke-width="1.5" pointer-events="none"/>
                </g>
                <g id="dirArrow">
                        <path fill="none" stroke="white" stroke-width="1.5" d="M0,-3.0v7 M-2.5,-0.5L0,-3.0L2.5,-0.5"/>
                </g>
               <g id="resetDef">
                       <use xlink:href="#rim2" fill="#404040">
                               <set attributeName="fill" to="#808080" begin="reset.mouseover" end="reset.mouseout"/>
                       </use>
               </g>
        </defs>

<script type="text/javascript">
var viewWidth = 682;
var viewHeight = 354;
var sectionId = 'dynsection-0';
</script>
<script xlink:href="svgpan.js"/>
<svg id="graph" class="graph">
<g id="viewport">
<title>nucleotide_alphabet</title>
<polygon fill="white" stroke="transparent" points="-4,4 -4,-350 678,-350 678,4 -4,4"/>
<!-- Node1 -->
<g id="node1" class="node">
<title>Node1</title>
<g id="a_node1"><a xlink:title="A concept that indicates whether an alphabet represents nucleotides.">
<polygon fill="#bfbfbf" stroke="black" points="379,-174.5 379,-193.5 495,-193.5 495,-174.5 379,-174.5"/>
<text text-anchor="middle" x="437" y="-181.5" font-family="Helvetica,sans-Serif" font-size="10.00">nucleotide_alphabet</text>
</a>
</g>
</g>
<!-- Node6 -->
<g id="node6" class="node">
<title>Node6</title>
<g id="a_node6"><a xlink:href="classbio_1_1dna15.html" target="_top" xlink:title="The 15 letter DNA alphabet, containing all IUPAC smybols minus the gap.">
<polygon fill="white" stroke="black" points="568.5,-326.5 568.5,-345.5 636.5,-345.5 636.5,-326.5 568.5,-326.5"/>
<text text-anchor="middle" x="602.5" y="-333.5" font-family="Helvetica,sans-Serif" font-size="10.00">bio::dna15</text>
</a>
</g>
</g>
<!-- Node1&#45;&gt;Node6 -->
<g id="edge5" class="edge">
<title>Node1&#45;&gt;Node6</title>
<path fill="none" stroke="midnightblue" d="M446.17,-203.25C459.54,-232.4 488.89,-287.45 531,-317 541.89,-324.65 555.71,-329.22 568.22,-331.95"/>
<polygon fill="midnightblue" stroke="midnightblue" points="449.22,-201.51 441.97,-193.78 442.83,-204.34 449.22,-201.51"/>
</g>
<!-- Node7 -->
<g id="node7" class="node">
<title>Node7</title>
<g id="a_node7"><a xlink:href="classbio_1_1dna3bs.html" target="_top" xlink:title="The three letter reduced DNA alphabet for bisulfite sequencing mode (A,G,T(=C)).">
<polygon fill="white" stroke="black" points="566,-288.5 566,-307.5 639,-307.5 639,-288.5 566,-288.5"/>
<text text-anchor="middle" x="602.5" y="-295.5" font-family="Helvetica,sans-Serif" font-size="10.00">bio::dna3bs</text>
</a>
</g>
</g>
<!-- Node1&#45;&gt;Node7 -->
<g id="edge6" class="edge">
<title>Node1&#45;&gt;Node7</title>
<path fill="none" stroke="midnightblue" d="M450.79,-202.01C467.02,-223.53 497.01,-259.1 531,-279 541.61,-285.21 554.3,-289.44 565.97,-292.31"/>
<polygon fill="midnightblue" stroke="midnightblue" points="453.45,-199.72 444.71,-193.74 447.81,-203.87 453.45,-199.72"/>
</g>
<!-- Node8 -->
<g id="node8" class="node">
<title>Node8</title>
<g id="a_node8"><a xlink:href="classbio_1_1dna4.html" target="_top" xlink:title="The four letter DNA alphabet of A,C,G,T.">
<polygon fill="white" stroke="black" points="571.5,-250.5 571.5,-269.5 633.5,-269.5 633.5,-250.5 571.5,-250.5"/>
<text text-anchor="middle" x="602.5" y="-257.5" font-family="Helvetica,sans-Serif" font-size="10.00">bio::dna4</text>
</a>
</g>
</g>
<!-- Node1&#45;&gt;Node8 -->
<g id="edge7" class="edge">
<title>Node1&#45;&gt;Node8</title>
<path fill="none" stroke="midnightblue" d="M459.07,-199.35C477.32,-212.04 504.84,-229.74 531,-241 543.81,-246.51 558.62,-250.8 571.36,-253.89"/>
<polygon fill="midnightblue" stroke="midnightblue" points="461.08,-196.49 450.9,-193.57 457.04,-202.2 461.08,-196.49"/>
</g>
<!-- Node9 -->
<g id="node9" class="node">
<title>Node9</title>
<g id="a_node9"><a xlink:href="classbio_1_1dna5.html" target="_top" xlink:title="The five letter DNA alphabet of A,C,G,T and the unknown character N.">
<polygon fill="white" stroke="black" points="571.5,-212.5 571.5,-231.5 633.5,-231.5 633.5,-212.5 571.5,-212.5"/>
<text text-anchor="middle" x="602.5" y="-219.5" font-family="Helvetica,sans-Serif" font-size="10.00">bio::dna5</text>
</a>
</g>
</g>
<!-- Node1&#45;&gt;Node9 -->
<g id="edge8" class="edge">
<title>Node1&#45;&gt;Node9</title>
<path fill="none" stroke="midnightblue" d="M489.31,-195.93C516.28,-202.19 548.4,-209.66 571.35,-214.99"/>
<polygon fill="midnightblue" stroke="midnightblue" points="489.79,-192.44 479.26,-193.59 488.21,-199.26 489.79,-192.44"/>
</g>
<!-- Node10 -->
<g id="node10" class="node">
<title>Node10</title>
<g id="a_node10"><a xlink:href="classbio_1_1rna15.html" target="_top" xlink:title="The 15 letter RNA alphabet, containing all IUPAC smybols minus the gap.">
<polygon fill="white" stroke="black" points="570,-174.5 570,-193.5 635,-193.5 635,-174.5 570,-174.5"/>
<text text-anchor="middle" x="602.5" y="-181.5" font-family="Helvetica,sans-Serif" font-size="10.00">bio::rna15</text>
</a>
</g>
</g>
<!-- Node1&#45;&gt;Node10 -->
<g id="edge9" class="edge">
<title>Node1&#45;&gt;Node10</title>
<path fill="none" stroke="midnightblue" d="M505.32,-184C527.66,-184 551.48,-184 569.83,-184"/>
<polygon fill="midnightblue" stroke="midnightblue" points="505.18,-180.5 495.18,-184 505.18,-187.5 505.18,-180.5"/>
</g>
<!-- Node11 -->
<g id="node11" class="node">
<title>Node11</title>
<g id="a_node11"><a xlink:href="classbio_1_1rna4.html" target="_top" xlink:title="The four letter RNA alphabet of A,C,G,U.">
<polygon fill="white" stroke="black" points="573,-136.5 573,-155.5 632,-155.5 632,-136.5 573,-136.5"/>
<text text-anchor="middle" x="602.5" y="-143.5" font-family="Helvetica,sans-Serif" font-size="10.00">bio::rna4</text>
</a>
</g>
</g>
<!-- Node1&#45;&gt;Node11 -->
<g id="edge10" class="edge">
<title>Node1&#45;&gt;Node11</title>
<path fill="none" stroke="midnightblue" d="M489.15,-172.11C516.76,-165.7 549.8,-158.02 572.87,-152.65"/>
<polygon fill="midnightblue" stroke="midnightblue" points="488.21,-168.74 479.26,-174.41 489.79,-175.56 488.21,-168.74"/>
</g>
<!-- Node12 -->
<g id="node12" class="node">
<title>Node12</title>
<g id="a_node12"><a xlink:href="classbio_1_1rna5.html" target="_top" xlink:title="The five letter RNA alphabet of A,C,G,U and the unknown character N.">
<polygon fill="white" stroke="black" points="573,-98.5 573,-117.5 632,-117.5 632,-98.5 573,-98.5"/>
<text text-anchor="middle" x="602.5" y="-105.5" font-family="Helvetica,sans-Serif" font-size="10.00">bio::rna5</text>
</a>
</g>
</g>
<!-- Node1&#45;&gt;Node12 -->
<g id="edge11" class="edge">
<title>Node1&#45;&gt;Node12</title>
<path fill="none" stroke="midnightblue" d="M459.07,-168.65C477.32,-155.96 504.84,-138.26 531,-127 544.27,-121.29 559.71,-116.89 572.74,-113.78"/>
<polygon fill="midnightblue" stroke="midnightblue" points="457.04,-165.8 450.9,-174.43 461.08,-171.51 457.04,-165.8"/>
</g>
<!-- Node13 -->
<g id="node13" class="node">
<title>Node13</title>
<g id="a_node13"><a xlink:href="classbio_1_1sam__dna16.html" target="_top" xlink:title="A 16 letter DNA alphabet, containing all IUPAC symbols minus the gap and plus an equality sign (&#39;=&#39;).">
<polygon fill="white" stroke="black" points="555.5,-60.5 555.5,-79.5 649.5,-79.5 649.5,-60.5 555.5,-60.5"/>
<text text-anchor="middle" x="602.5" y="-67.5" font-family="Helvetica,sans-Serif" font-size="10.00">bio::sam_dna16</text>
</a>
</g>
</g>
<!-- Node1&#45;&gt;Node13 -->
<g id="edge12" class="edge">
<title>Node1&#45;&gt;Node13</title>
<path fill="none" stroke="midnightblue" d="M450.79,-165.99C467.02,-144.47 497.01,-108.9 531,-89 538.44,-84.65 546.9,-81.26 555.32,-78.64"/>
<polygon fill="midnightblue" stroke="midnightblue" points="447.81,-164.13 444.71,-174.26 453.45,-168.28 447.81,-164.13"/>
</g>
<!-- Node14 -->
<g id="node14" class="node">
<title>Node14</title>
<g id="a_node14"><a xlink:href="classbio_1_1structured__rna.html" target="_top" xlink:title="A bio::alphabet_tuple_base that joins a nucleotide alphabet with an RNA structure alphabet.">
<polygon fill="white" stroke="black" points="531,-0.5 531,-41.5 674,-41.5 674,-0.5 531,-0.5"/>
<text text-anchor="start" x="539" y="-29.5" font-family="Helvetica,sans-Serif" font-size="10.00">bio::structured_rna</text>
<text text-anchor="start" x="539" y="-18.5" font-family="Helvetica,sans-Serif" font-size="10.00">&lt; sequence_alphabet</text>
<text text-anchor="middle" x="602.5" y="-7.5" font-family="Helvetica,sans-Serif" font-size="10.00">_t, structure_alphabet_t &gt;</text>
</a>
</g>
</g>
<!-- Node1&#45;&gt;Node14 -->
<g id="edge13" class="edge">
<title>Node1&#45;&gt;Node14</title>
<path fill="none" stroke="midnightblue" d="M446.91,-165.04C461.07,-136.71 491.24,-83.25 531,-51 535.24,-47.56 539.92,-44.46 544.81,-41.67"/>
<polygon fill="midnightblue" stroke="midnightblue" points="443.66,-163.72 442.43,-174.25 449.95,-166.79 443.66,-163.72"/>
</g>
<!-- Node2 -->
<g id="node2" class="node">
<title>Node2</title>
<g id="a_node2"><a xlink:href="interfacebio_1_1alphabet.html" target="_top" xlink:title="The generic alphabet concept that covers most data types used in ranges.">
<polygon fill="white" stroke="black" points="284,-174.5 284,-193.5 343,-193.5 343,-174.5 284,-174.5"/>
<text text-anchor="middle" x="313.5" y="-181.5" font-family="Helvetica,sans-Serif" font-size="10.00">alphabet</text>
</a>
</g>
</g>
<!-- Node2&#45;&gt;Node1 -->
<g id="edge1" class="edge">
<title>Node2&#45;&gt;Node1</title>
<path fill="none" stroke="midnightblue" d="M353.5,-184C361.56,-184 370.21,-184 378.77,-184"/>
<polygon fill="midnightblue" stroke="midnightblue" points="353.29,-180.5 343.29,-184 353.29,-187.5 353.29,-180.5"/>
</g>
<!-- Node3 -->
<g id="node3" class="node">
<title>Node3</title>
<g id="a_node3"><a xlink:href="interfacebio_1_1semialphabet.html" target="_top" xlink:title="The basis for bio::alphabet, but requires only rank interface (not char).">
<polygon fill="white" stroke="black" points="165,-174.5 165,-193.5 248,-193.5 248,-174.5 165,-174.5"/>
<text text-anchor="middle" x="206.5" y="-181.5" font-family="Helvetica,sans-Serif" font-size="10.00">semialphabet</text>
</a>
</g>
</g>
<!-- Node3&#45;&gt;Node2 -->
<g id="edge2" class="edge">
<title>Node3&#45;&gt;Node2</title>
<path fill="none" stroke="midnightblue" d="M258.27,-184C267.02,-184 275.82,-184 283.72,-184"/>
<polygon fill="midnightblue" stroke="midnightblue" points="258.1,-180.5 248.1,-184 258.1,-187.5 258.1,-180.5"/>
</g>
<!-- Node4 -->
<g id="node4" class="node">
<title>Node4</title>
<g id="a_node4"><a xlink:title=" ">
<polygon fill="white" stroke="#bfbfbf" points="8.5,-193.5 8.5,-212.5 120.5,-212.5 120.5,-193.5 8.5,-193.5"/>
<text text-anchor="middle" x="64.5" y="-200.5" font-family="Helvetica,sans-Serif" font-size="10.00">std::totally_ordered</text>
</a>
</g>
</g>
<!-- Node4&#45;&gt;Node3 -->
<g id="edge3" class="edge">
<title>Node4&#45;&gt;Node3</title>
<path fill="none" stroke="midnightblue" d="M130.91,-194.12C142.47,-192.55 154.19,-190.96 164.82,-189.52"/>
<polygon fill="midnightblue" stroke="midnightblue" points="130.27,-190.68 120.83,-195.49 131.21,-197.61 130.27,-190.68"/>
</g>
<!-- Node5 -->
<g id="node5" class="node">
<title>Node5</title>
<g id="a_node5"><a xlink:title=" ">
<polygon fill="white" stroke="#bfbfbf" points="0,-155.5 0,-174.5 129,-174.5 129,-155.5 0,-155.5"/>
<text text-anchor="middle" x="64.5" y="-162.5" font-family="Helvetica,sans-Serif" font-size="10.00">std::copy_constructible</text>
</a>
</g>
</g>
<!-- Node5&#45;&gt;Node3 -->
<g id="edge4" class="edge">
<title>Node5&#45;&gt;Node3</title>
<path fill="none" stroke="midnightblue" d="M139.32,-175.02C148.14,-176.22 156.88,-177.4 164.98,-178.5"/>
<polygon fill="midnightblue" stroke="midnightblue" points="139.73,-171.54 129.35,-173.67 138.79,-178.48 139.73,-171.54"/>
</g>
</g>
</svg>
        <g id="navigator" transform="translate(0 0)" fill="#404254">
                <rect fill="#f2f5e9" fill-opacity="0.5" stroke="#606060" stroke-width=".5" x="0" y="0" width="60" height="60"/>
                <use id="zoomplus" xlink:href="#zoomPlus" x="17" y="9" onmousedown="handleZoom(evt,'in')"/>
                <use id="zoomminus" xlink:href="#zoomMin" x="42" y="9" onmousedown="handleZoom(evt,'out')"/>
                <use id="reset" xlink:href="#resetDef" x="30" y="36" onmousedown="handleReset()"/>
                <g id="arrowUp" xlink:href="#dirArrow" transform="translate(30 24)" onmousedown="handlePan(0,-1)">
                  <use xlink:href="#rim" fill="#404040">
                        <set attributeName="fill" to="#808080" begin="arrowUp.mouseover" end="arrowUp.mouseout"/>
                  </use>
                  <path fill="none" stroke="white" stroke-width="1.5" d="M0,-3.0v7 M-2.5,-0.5L0,-3.0L2.5,-0.5"/>
                </g>
                <g id="arrowRight" xlink:href="#dirArrow" transform="rotate(90) translate(36 -43)" onmousedown="handlePan(1,0)">
                  <use xlink:href="#rim" fill="#404040">
                        <set attributeName="fill" to="#808080" begin="arrowRight.mouseover" end="arrowRight.mouseout"/>
                  </use>
                  <path fill="none" stroke="white" stroke-width="1.5" d="M0,-3.0v7 M-2.5,-0.5L0,-3.0L2.5,-0.5"/>
                </g>
                <g id="arrowDown" xlink:href="#dirArrow" transform="rotate(180) translate(-30 -48)" onmousedown="handlePan(0,1)">
                  <use xlink:href="#rim" fill="#404040">
                        <set attributeName="fill" to="#808080" begin="arrowDown.mouseover" end="arrowDown.mouseout"/>
                  </use>
                  <path fill="none" stroke="white" stroke-width="1.5" d="M0,-3.0v7 M-2.5,-0.5L0,-3.0L2.5,-0.5"/>
                </g>
                <g id="arrowLeft" xlink:href="#dirArrow" transform="rotate(270) translate(-36 17)" onmousedown="handlePan(-1,0)">
                  <use xlink:href="#rim" fill="#404040">
                        <set attributeName="fill" to="#808080" begin="arrowLeft.mouseover" end="arrowLeft.mouseout"/>
                  </use>
                  <path fill="none" stroke="white" stroke-width="1.5" d="M0,-3.0v7 M-2.5,-0.5L0,-3.0L2.5,-0.5"/>
                </g>
        </g>
        <svg viewBox="0 0 15 15" width="100%" height="30px" preserveAspectRatio="xMaxYMin meet">
         <g id="arrow_out" transform="scale(0.3 0.3)">
          <a xlink:href="interfacebio_1_1nucleotide__alphabet__inherit__graph_org.svg" target="_base">
           <rect id="button" ry="5" rx="5" y="6" x="6" height="38" width="38"
                fill="#f2f5e9" fill-opacity="0.5" stroke="#606060" stroke-width="1.0"/>
           <path id="arrow"
             d="M 11.500037,31.436501 C 11.940474,20.09759 22.043105,11.32322 32.158766,21.979434 L 37.068811,17.246167 C 37.068811,17.246167 37.088388,32 37.088388,32 L 22.160133,31.978069 C 22.160133,31.978069 26.997745,27.140456 26.997745,27.140456 C 18.528582,18.264221 13.291696,25.230495 11.500037,31.436501 z"
             style="fill:#404040;"/>
          </a>
         </g>
        </svg>
</svg>
