<?xml version="1.0" encoding="UTF-8" standalone="no"?>
<!DOCTYPE svg PUBLIC "-//W3C//DTD SVG 1.1//EN"
 "http://www.w3.org/Graphics/SVG/1.1/DTD/svg11.dtd">
<!-- Generated by graphviz version 2.43.0 (0)
 -->
<!-- Title: trivially_copyable Pages: 1 -->
<!--zoomable 932 -->
<svg id="main" version="1.1" xmlns="http://www.w3.org/2000/svg" xmlns:xlink="http://www.w3.org/1999/xlink" xml:space="preserve" onload="init(evt)">
<style type="text/css"><![CDATA[
.edge:hover path { stroke: red; }
.edge:hover polygon { stroke: red; fill: red; }
]]></style>
<script type="text/javascript"><![CDATA[
var edges = document.getElementsByTagName('g');
if (edges && edges.length) {
  for (var i=0;i<edges.length;i++) {
    if (edges[i].id.substr(0,4)=='edge') {
      edges[i].setAttribute('class','edge');
    }
  }
}
]]></script>
        <defs>
                <circle id="rim" cx="0" cy="0" r="7"/>
                <circle id="rim2" cx="0" cy="0" r="3.5"/>
                <g id="zoomPlus">
                        <use xlink:href="#rim" fill="#404040">
                                <set attributeName="fill" to="#808080" begin="zoomplus.mouseover" end="zoomplus.mouseout"/>
                        </use>
                        <path d="M-4,0h8M0,-4v8" fill="none" stroke="white" stroke-width="1.5" pointer-events="none"/>
                </g>
                <g id="zoomMin">
                        <use xlink:href="#rim" fill="#404040">
                                <set attributeName="fill" to="#808080" begin="zoomminus.mouseover" end="zoomminus.mouseout"/>
                        </use>
                        <path d="M-4,0h8" fill="none" stroke="white" stroke-width="1.5" pointer-events="none"/>
                </g>
                <g id="dirArrow">
                        <path fill="none" stroke="white" stroke-width="1.5" d="M0,-3.0v7 M-2.5,-0.5L0,-3.0L2.5,-0.5"/>
                </g>
               <g id="resetDef">
                       <use xlink:href="#rim2" fill="#404040">
                               <set attributeName="fill" to="#808080" begin="reset.mouseover" end="reset.mouseout"/>
                       </use>
               </g>
        </defs>

<script type="text/javascript">
var viewWidth = 424;
var viewHeight = 932;
var sectionId = 'dynsection-0';
</script>
<script xlink:href="svgpan.js"/>
<svg id="graph" class="graph">
<g id="viewport">
<title>trivially_copyable</title>
<polygon fill="white" stroke="transparent" points="-4,4 -4,-928 420,-928 420,4 -4,4"/>
<!-- Node1 -->
<g id="node1" class="node">
<title>Node1</title>
<g id="a_node1"><a xlink:title="A type that satisfies std::is_trivially_copyable_v&lt;t&gt;.">
<polygon fill="#bfbfbf" stroke="black" points="118,-464.5 118,-483.5 222,-483.5 222,-464.5 118,-464.5"/>
<text text-anchor="middle" x="170" y="-471.5" font-family="Helvetica,sans-Serif" font-size="10.00">trivially_copyable</text>
</a>
</g>
</g>
<!-- Node3 -->
<g id="node3" class="node">
<title>Node3</title>
<g id="a_node3"><a xlink:href="classbio_1_1alphabet_1_1aa10li.html" target="_top" xlink:title="The reduced Li amino acid alphabet.">
<polygon fill="white" stroke="black" points="279,-904.5 279,-923.5 395,-923.5 395,-904.5 279,-904.5"/>
<text text-anchor="middle" x="337" y="-911.5" font-family="Helvetica,sans-Serif" font-size="10.00">bio::alphabet::aa10li</text>
</a>
</g>
</g>
<!-- Node1&#45;&gt;Node3 -->
<g id="edge2" class="edge">
<title>Node1&#45;&gt;Node3</title>
<path fill="none" stroke="midnightblue" d="M172.35,-493.9C177.87,-569.31 201.17,-836.14 258,-895 263.71,-900.92 270.93,-905.11 278.67,-908.07"/>
<polygon fill="midnightblue" stroke="midnightblue" points="175.84,-493.59 171.64,-483.86 168.85,-494.08 175.84,-493.59"/>
</g>
<!-- Node4 -->
<g id="node4" class="node">
<title>Node4</title>
<g id="a_node4"><a xlink:href="classbio_1_1alphabet_1_1aa10murphy.html" target="_top" xlink:title="The reduced Murphy amino acid alphabet.">
<polygon fill="white" stroke="black" points="263,-866.5 263,-885.5 411,-885.5 411,-866.5 263,-866.5"/>
<text text-anchor="middle" x="337" y="-873.5" font-family="Helvetica,sans-Serif" font-size="10.00">bio::alphabet::aa10murphy</text>
</a>
</g>
</g>
<!-- Node1&#45;&gt;Node4 -->
<g id="edge3" class="edge">
<title>Node1&#45;&gt;Node4</title>
<path fill="none" stroke="midnightblue" d="M172.79,-493.9C179.58,-564.87 206,-804.18 258,-857 261.72,-860.77 266.05,-863.85 270.73,-866.34"/>
<polygon fill="midnightblue" stroke="midnightblue" points="176.25,-493.3 171.84,-483.67 169.28,-493.95 176.25,-493.3"/>
</g>
<!-- Node5 -->
<g id="node5" class="node">
<title>Node5</title>
<g id="a_node5"><a xlink:href="classbio_1_1alphabet_1_1aa20.html" target="_top" xlink:title="The canonical amino acid alphabet.">
<polygon fill="white" stroke="black" points="282,-828.5 282,-847.5 392,-847.5 392,-828.5 282,-828.5"/>
<text text-anchor="middle" x="337" y="-835.5" font-family="Helvetica,sans-Serif" font-size="10.00">bio::alphabet::aa20</text>
</a>
</g>
</g>
<!-- Node1&#45;&gt;Node5 -->
<g id="edge4" class="edge">
<title>Node1&#45;&gt;Node5</title>
<path fill="none" stroke="midnightblue" d="M173.34,-494.03C181.51,-560.51 210.84,-772.22 258,-819 264.53,-825.48 272.88,-829.88 281.67,-832.84"/>
<polygon fill="midnightblue" stroke="midnightblue" points="176.77,-493.21 172.1,-483.7 169.82,-494.05 176.77,-493.21"/>
</g>
<!-- Node6 -->
<g id="node6" class="node">
<title>Node6</title>
<g id="a_node6"><a xlink:href="classbio_1_1alphabet_1_1aa27.html" target="_top" xlink:title="The twenty&#45;seven letter amino acid alphabet.">
<polygon fill="white" stroke="black" points="282,-790.5 282,-809.5 392,-809.5 392,-790.5 282,-790.5"/>
<text text-anchor="middle" x="337" y="-797.5" font-family="Helvetica,sans-Serif" font-size="10.00">bio::alphabet::aa27</text>
</a>
</g>
</g>
<!-- Node1&#45;&gt;Node6 -->
<g id="edge5" class="edge">
<title>Node1&#45;&gt;Node6</title>
<path fill="none" stroke="midnightblue" d="M170.28,-493.75C169.44,-548.07 174.94,-700.98 258,-781 264.62,-787.38 273.02,-791.74 281.83,-794.68"/>
<polygon fill="midnightblue" stroke="midnightblue" points="173.78,-493.8 170.53,-483.72 166.78,-493.63 173.78,-493.8"/>
</g>
<!-- Node7 -->
<g id="node7" class="node">
<title>Node7</title>
<g id="a_node7"><a xlink:href="classbio_1_1alphabet_1_1alphabet__variant.html" target="_top" xlink:title="A combined alphabet that can hold values of either of its alternatives.">
<polygon fill="white" stroke="black" points="272.5,-730.5 272.5,-771.5 401.5,-771.5 401.5,-730.5 272.5,-730.5"/>
<text text-anchor="start" x="280.5" y="-759.5" font-family="Helvetica,sans-Serif" font-size="10.00">bio::alphabet::alphabet</text>
<text text-anchor="start" x="280.5" y="-748.5" font-family="Helvetica,sans-Serif" font-size="10.00">_variant&lt; alternative</text>
<text text-anchor="middle" x="337" y="-737.5" font-family="Helvetica,sans-Serif" font-size="10.00">_types &gt;</text>
</a>
</g>
</g>
<!-- Node1&#45;&gt;Node7 -->
<g id="edge6" class="edge">
<title>Node1&#45;&gt;Node7</title>
<path fill="none" stroke="midnightblue" d="M172.44,-493.62C176.85,-539.55 194.03,-655.18 258,-721 262.15,-725.27 266.96,-728.93 272.13,-732.09"/>
<polygon fill="midnightblue" stroke="midnightblue" points="175.92,-493.18 171.58,-483.51 168.94,-493.78 175.92,-493.18"/>
</g>
<!-- Node8 -->
<g id="node8" class="node">
<title>Node8</title>
<g id="a_node8"><a xlink:href="classbio_1_1alphabet_1_1cigar.html" target="_top" xlink:title="The cigar semialphabet pairs a counter with a bio::alphabet::cigar_op letter.">
<polygon fill="white" stroke="black" points="282,-692.5 282,-711.5 392,-711.5 392,-692.5 282,-692.5"/>
<text text-anchor="middle" x="337" y="-699.5" font-family="Helvetica,sans-Serif" font-size="10.00">bio::alphabet::cigar</text>
</a>
</g>
</g>
<!-- Node1&#45;&gt;Node8 -->
<g id="edge7" class="edge">
<title>Node1&#45;&gt;Node8</title>
<path fill="none" stroke="midnightblue" d="M173.28,-493.62C179.19,-535.19 198.91,-632.45 258,-683 264.78,-688.8 273.04,-692.89 281.63,-695.75"/>
<polygon fill="midnightblue" stroke="midnightblue" points="176.75,-493.14 171.98,-483.67 169.8,-494.04 176.75,-493.14"/>
</g>
<!-- Node9 -->
<g id="node9" class="node">
<title>Node9</title>
<g id="a_node9"><a xlink:href="classbio_1_1alphabet_1_1cigar__op.html" target="_top" xlink:title="The (extended) cigar operation alphabet of M,D,I,H,N,P,S,X,=.">
<polygon fill="white" stroke="black" points="273,-654.5 273,-673.5 401,-673.5 401,-654.5 273,-654.5"/>
<text text-anchor="middle" x="337" y="-661.5" font-family="Helvetica,sans-Serif" font-size="10.00">bio::alphabet::cigar_op</text>
</a>
</g>
</g>
<!-- Node1&#45;&gt;Node9 -->
<g id="edge8" class="edge">
<title>Node1&#45;&gt;Node9</title>
<path fill="none" stroke="midnightblue" d="M175.29,-493.67C184.16,-529.53 208.04,-605.45 258,-645 262.92,-648.89 268.52,-652 274.41,-654.49"/>
<polygon fill="midnightblue" stroke="midnightblue" points="178.6,-492.48 172.92,-483.53 171.79,-494.07 178.6,-492.48"/>
</g>
<!-- Node10 -->
<g id="node10" class="node">
<title>Node10</title>
<g id="a_node10"><a xlink:href="classbio_1_1alphabet_1_1dna15.html" target="_top" xlink:title="The 15 letter DNA alphabet, containing all IUPAC smybols minus the gap.">
<polygon fill="white" stroke="black" points="279,-616.5 279,-635.5 395,-635.5 395,-616.5 279,-616.5"/>
<text text-anchor="middle" x="337" y="-623.5" font-family="Helvetica,sans-Serif" font-size="10.00">bio::alphabet::dna15</text>
</a>
</g>
</g>
<!-- Node1&#45;&gt;Node10 -->
<g id="edge9" class="edge">
<title>Node1&#45;&gt;Node10</title>
<path fill="none" stroke="midnightblue" d="M178.21,-493.37C190.15,-522.67 216.86,-577.93 258,-607 264.26,-611.42 271.43,-614.82 278.83,-617.44"/>
<polygon fill="midnightblue" stroke="midnightblue" points="181.39,-491.88 174.48,-483.85 174.87,-494.43 181.39,-491.88"/>
</g>
<!-- Node11 -->
<g id="node11" class="node">
<title>Node11</title>
<g id="a_node11"><a xlink:href="classbio_1_1alphabet_1_1dna16sam.html" target="_top" xlink:title="A 16 letter DNA alphabet, containing all IUPAC symbols minus the gap and plus an equality sign (&#39;=&#39;).">
<polygon fill="white" stroke="black" points="268.5,-578.5 268.5,-597.5 405.5,-597.5 405.5,-578.5 268.5,-578.5"/>
<text text-anchor="middle" x="337" y="-585.5" font-family="Helvetica,sans-Serif" font-size="10.00">bio::alphabet::dna16sam</text>
</a>
</g>
</g>
<!-- Node1&#45;&gt;Node11 -->
<g id="edge10" class="edge">
<title>Node1&#45;&gt;Node11</title>
<path fill="none" stroke="midnightblue" d="M182.59,-492.13C197.41,-513.8 225.14,-549.56 258,-569 264.6,-572.9 271.96,-576.01 279.46,-578.47"/>
<polygon fill="midnightblue" stroke="midnightblue" points="185.33,-489.93 176.88,-483.53 179.5,-493.8 185.33,-489.93"/>
</g>
<!-- Node12 -->
<g id="node12" class="node">
<title>Node12</title>
<g id="a_node12"><a xlink:href="classbio_1_1alphabet_1_1dna4.html" target="_top" xlink:title="The four letter DNA alphabet of A,C,G,T.">
<polygon fill="white" stroke="black" points="282,-540.5 282,-559.5 392,-559.5 392,-540.5 282,-540.5"/>
<text text-anchor="middle" x="337" y="-547.5" font-family="Helvetica,sans-Serif" font-size="10.00">bio::alphabet::dna4</text>
</a>
</g>
</g>
<!-- Node1&#45;&gt;Node12 -->
<g id="edge11" class="edge">
<title>Node1&#45;&gt;Node12</title>
<path fill="none" stroke="midnightblue" d="M190.66,-489.71C207.6,-502.53 233.17,-520.23 258,-531 266.69,-534.77 276.27,-537.88 285.65,-540.41"/>
<polygon fill="midnightblue" stroke="midnightblue" points="192.69,-486.86 182.64,-483.51 188.41,-492.4 192.69,-486.86"/>
</g>
<!-- Node13 -->
<g id="node13" class="node">
<title>Node13</title>
<g id="a_node13"><a xlink:href="classbio_1_1alphabet_1_1dna5.html" target="_top" xlink:title="The five letter DNA alphabet of A,C,G,T and the unknown character N.">
<polygon fill="white" stroke="black" points="282,-502.5 282,-521.5 392,-521.5 392,-502.5 282,-502.5"/>
<text text-anchor="middle" x="337" y="-509.5" font-family="Helvetica,sans-Serif" font-size="10.00">bio::alphabet::dna5</text>
</a>
</g>
</g>
<!-- Node1&#45;&gt;Node13 -->
<g id="edge12" class="edge">
<title>Node1&#45;&gt;Node13</title>
<path fill="none" stroke="midnightblue" d="M222.65,-485.9C245.85,-491.24 272.84,-497.45 294.66,-502.48"/>
<polygon fill="midnightblue" stroke="midnightblue" points="223.17,-482.42 212.64,-483.59 221.6,-489.24 223.17,-482.42"/>
</g>
<!-- Node14 -->
<g id="node14" class="node">
<title>Node14</title>
<g id="a_node14"><a xlink:href="classbio_1_1alphabet_1_1gap.html" target="_top" xlink:title="The alphabet of a gap character &#39;&#45;&#39;.">
<polygon fill="white" stroke="black" points="285,-464.5 285,-483.5 389,-483.5 389,-464.5 285,-464.5"/>
<text text-anchor="middle" x="337" y="-471.5" font-family="Helvetica,sans-Serif" font-size="10.00">bio::alphabet::gap</text>
</a>
</g>
</g>
<!-- Node1&#45;&gt;Node14 -->
<g id="edge13" class="edge">
<title>Node1&#45;&gt;Node14</title>
<path fill="none" stroke="midnightblue" d="M232.77,-474C249.89,-474 268.28,-474 284.73,-474"/>
<polygon fill="midnightblue" stroke="midnightblue" points="232.3,-470.5 222.3,-474 232.3,-477.5 232.3,-470.5"/>
</g>
<!-- Node15 -->
<g id="node15" class="node">
<title>Node15</title>
<g id="a_node15"><a xlink:href="classbio_1_1alphabet_1_1mask.html" target="_top" xlink:title="Implementation of a masked alphabet to be used for tuple composites.">
<polygon fill="white" stroke="black" points="280.5,-426.5 280.5,-445.5 393.5,-445.5 393.5,-426.5 280.5,-426.5"/>
<text text-anchor="middle" x="337" y="-433.5" font-family="Helvetica,sans-Serif" font-size="10.00">bio::alphabet::mask</text>
</a>
</g>
</g>
<!-- Node1&#45;&gt;Node15 -->
<g id="edge14" class="edge">
<title>Node1&#45;&gt;Node15</title>
<path fill="none" stroke="midnightblue" d="M222.65,-462.1C245.85,-456.76 272.84,-450.55 294.66,-445.52"/>
<polygon fill="midnightblue" stroke="midnightblue" points="221.6,-458.76 212.64,-464.41 223.17,-465.58 221.6,-458.76"/>
</g>
<!-- Node16 -->
<g id="node16" class="node">
<title>Node16</title>
<g id="a_node16"><a xlink:href="classbio_1_1alphabet_1_1masked.html" target="_top" xlink:title="Implementation of a masked composite, which extends a given alphabet with a mask.">
<polygon fill="white" stroke="black" points="265.5,-377 265.5,-407 408.5,-407 408.5,-377 265.5,-377"/>
<text text-anchor="start" x="273.5" y="-395" font-family="Helvetica,sans-Serif" font-size="10.00">bio::alphabet::masked</text>
<text text-anchor="middle" x="337" y="-384" font-family="Helvetica,sans-Serif" font-size="10.00">&lt; sequence_alphabet_t &gt;</text>
</a>
</g>
</g>
<!-- Node1&#45;&gt;Node16 -->
<g id="edge15" class="edge">
<title>Node1&#45;&gt;Node16</title>
<path fill="none" stroke="midnightblue" d="M191.45,-458.31C208.51,-445.8 233.85,-428.52 258,-417 265.7,-413.33 274.08,-410 282.39,-407.06"/>
<polygon fill="midnightblue" stroke="midnightblue" points="189.26,-455.58 183.33,-464.37 193.44,-461.19 189.26,-455.58"/>
</g>
<!-- Node17 -->
<g id="node17" class="node">
<title>Node17</title>
<g id="a_node17"><a xlink:href="classbio_1_1alphabet_1_1phred42.html" target="_top" xlink:title="Quality type for traditional Sanger and modern Illumina Phred scores (typical range).">
<polygon fill="white" stroke="black" points="274,-338.5 274,-357.5 400,-357.5 400,-338.5 274,-338.5"/>
<text text-anchor="middle" x="337" y="-345.5" font-family="Helvetica,sans-Serif" font-size="10.00">bio::alphabet::phred42</text>
</a>
</g>
</g>
<!-- Node1&#45;&gt;Node17 -->
<g id="edge16" class="edge">
<title>Node1&#45;&gt;Node17</title>
<path fill="none" stroke="midnightblue" d="M181,-455.32C194.96,-431.12 222.6,-389.37 258,-367 264.13,-363.13 270.98,-360.05 278.02,-357.59"/>
<polygon fill="midnightblue" stroke="midnightblue" points="177.85,-453.8 176.03,-464.23 183.96,-457.21 177.85,-453.8"/>
</g>
<!-- Node18 -->
<g id="node18" class="node">
<title>Node18</title>
<g id="a_node18"><a xlink:href="classbio_1_1alphabet_1_1phred63.html" target="_top" xlink:title="Quality type for traditional Sanger and modern Illumina Phred scores (full range).">
<polygon fill="white" stroke="black" points="274,-300.5 274,-319.5 400,-319.5 400,-300.5 274,-300.5"/>
<text text-anchor="middle" x="337" y="-307.5" font-family="Helvetica,sans-Serif" font-size="10.00">bio::alphabet::phred63</text>
</a>
</g>
</g>
<!-- Node1&#45;&gt;Node18 -->
<g id="edge17" class="edge">
<title>Node1&#45;&gt;Node18</title>
<path fill="none" stroke="midnightblue" d="M177.08,-454.7C188.01,-423.29 214.01,-361.39 258,-329 263.28,-325.12 269.24,-322.02 275.47,-319.55"/>
<polygon fill="midnightblue" stroke="midnightblue" points="173.68,-453.84 173.84,-464.44 180.32,-456.05 173.68,-453.84"/>
</g>
<!-- Node19 -->
<g id="node19" class="node">
<title>Node19</title>
<g id="a_node19"><a xlink:href="classbio_1_1alphabet_1_1phred68legacy.html" target="_top" xlink:title="Quality type for Solexa and deprecated Illumina formats.">
<polygon fill="white" stroke="black" points="258,-262.5 258,-281.5 416,-281.5 416,-262.5 258,-262.5"/>
<text text-anchor="middle" x="337" y="-269.5" font-family="Helvetica,sans-Serif" font-size="10.00">bio::alphabet::phred68legacy</text>
</a>
</g>
</g>
<!-- Node1&#45;&gt;Node19 -->
<g id="edge18" class="edge">
<title>Node1&#45;&gt;Node19</title>
<path fill="none" stroke="midnightblue" d="M174.64,-454.01C182.62,-416.13 205.33,-333.86 258,-291 262.76,-287.13 268.18,-284.03 273.91,-281.55"/>
<polygon fill="midnightblue" stroke="midnightblue" points="171.12,-453.76 172.62,-464.25 177.99,-455.12 171.12,-453.76"/>
</g>
<!-- Node20 -->
<g id="node20" class="node">
<title>Node20</title>
<g id="a_node20"><a xlink:href="classbio_1_1alphabet_1_1qualified.html" target="_top" xlink:title="Joins an arbitrary alphabet with a quality alphabet.">
<polygon fill="white" stroke="black" points="270,-202.5 270,-243.5 404,-243.5 404,-202.5 270,-202.5"/>
<text text-anchor="start" x="278" y="-231.5" font-family="Helvetica,sans-Serif" font-size="10.00">bio::alphabet::qualified</text>
<text text-anchor="start" x="278" y="-220.5" font-family="Helvetica,sans-Serif" font-size="10.00">&lt; sequence_alphabet_t,</text>
<text text-anchor="middle" x="337" y="-209.5" font-family="Helvetica,sans-Serif" font-size="10.00"> quality_alphabet_t &gt;</text>
</a>
</g>
</g>
<!-- Node1&#45;&gt;Node20 -->
<g id="edge19" class="edge">
<title>Node1&#45;&gt;Node20</title>
<path fill="none" stroke="midnightblue" d="M173.42,-454.14C179.64,-411.55 199.96,-310.58 258,-253 261.5,-249.53 265.45,-246.44 269.66,-243.71"/>
<polygon fill="midnightblue" stroke="midnightblue" points="169.95,-453.72 172.08,-464.09 176.89,-454.65 169.95,-453.72"/>
</g>
<!-- Node21 -->
<g id="node21" class="node">
<title>Node21</title>
<g id="a_node21"><a xlink:href="classbio_1_1alphabet_1_1rna15.html" target="_top" xlink:title="The 15 letter RNA alphabet, containing all IUPAC smybols minus the gap.">
<polygon fill="white" stroke="black" points="280,-164.5 280,-183.5 394,-183.5 394,-164.5 280,-164.5"/>
<text text-anchor="middle" x="337" y="-171.5" font-family="Helvetica,sans-Serif" font-size="10.00">bio::alphabet::rna15</text>
</a>
</g>
</g>
<!-- Node1&#45;&gt;Node21 -->
<g id="edge20" class="edge">
<title>Node1&#45;&gt;Node21</title>
<path fill="none" stroke="midnightblue" d="M170.89,-454.22C171.74,-403.01 181.39,-265.05 258,-193 264.19,-187.18 271.86,-183.05 279.96,-180.14"/>
<polygon fill="midnightblue" stroke="midnightblue" points="167.39,-454.26 170.82,-464.29 174.39,-454.31 167.39,-454.26"/>
</g>
<!-- Node22 -->
<g id="node22" class="node">
<title>Node22</title>
<g id="a_node22"><a xlink:href="classbio_1_1alphabet_1_1rna4.html" target="_top" xlink:title="The four letter RNA alphabet of A,C,G,U.">
<polygon fill="white" stroke="black" points="283,-126.5 283,-145.5 391,-145.5 391,-126.5 283,-126.5"/>
<text text-anchor="middle" x="337" y="-133.5" font-family="Helvetica,sans-Serif" font-size="10.00">bio::alphabet::rna4</text>
</a>
</g>
</g>
<!-- Node1&#45;&gt;Node22 -->
<g id="edge21" class="edge">
<title>Node1&#45;&gt;Node22</title>
<path fill="none" stroke="midnightblue" d="M173.74,-454.25C182.85,-391.42 214.04,-197.78 258,-155 264.89,-148.29 273.74,-143.82 282.98,-140.87"/>
<polygon fill="midnightblue" stroke="midnightblue" points="170.24,-454 172.3,-464.4 177.17,-454.99 170.24,-454"/>
</g>
<!-- Node23 -->
<g id="node23" class="node">
<title>Node23</title>
<g id="a_node23"><a xlink:href="classbio_1_1alphabet_1_1rna5.html" target="_top" xlink:title="The five letter RNA alphabet of A,C,G,U and the unknown character N.">
<polygon fill="white" stroke="black" points="283,-88.5 283,-107.5 391,-107.5 391,-88.5 283,-88.5"/>
<text text-anchor="middle" x="337" y="-95.5" font-family="Helvetica,sans-Serif" font-size="10.00">bio::alphabet::rna5</text>
</a>
</g>
</g>
<!-- Node1&#45;&gt;Node23 -->
<g id="edge22" class="edge">
<title>Node1&#45;&gt;Node23</title>
<path fill="none" stroke="midnightblue" d="M173.14,-454.15C180.84,-386.38 209.28,-165.72 258,-117 264.8,-110.2 273.6,-105.69 282.83,-102.72"/>
<polygon fill="midnightblue" stroke="midnightblue" points="169.64,-453.99 172.01,-464.31 176.59,-454.76 169.64,-453.99"/>
</g>
<!-- Node24 -->
<g id="node24" class="node">
<title>Node24</title>
<g id="a_node24"><a xlink:href="classbio_1_1alphabet_1_1semialphabet__any.html" target="_top" xlink:title="A semi&#45;alphabet that type erases all other semi&#45;alphabets of the same size.">
<polygon fill="white" stroke="black" points="260.5,-39 260.5,-69 413.5,-69 413.5,-39 260.5,-39"/>
<text text-anchor="start" x="268.5" y="-57" font-family="Helvetica,sans-Serif" font-size="10.00">bio::alphabet::semialphabet</text>
<text text-anchor="middle" x="337" y="-46" font-family="Helvetica,sans-Serif" font-size="10.00">_any&lt; size_ &gt;</text>
</a>
</g>
</g>
<!-- Node1&#45;&gt;Node24 -->
<g id="edge23" class="edge">
<title>Node1&#45;&gt;Node24</title>
<path fill="none" stroke="midnightblue" d="M172.79,-454.09C179.64,-381.95 206.49,-135.56 258,-79 261.54,-75.11 265.69,-71.82 270.2,-69.04"/>
<polygon fill="midnightblue" stroke="midnightblue" points="169.26,-454.17 171.83,-464.45 176.23,-454.82 169.26,-454.17"/>
</g>
<!-- Node25 -->
<g id="node25" class="node">
<title>Node25</title>
<g id="a_node25"><a xlink:href="interfacebio_1_1meta_1_1trivial.html" target="_top" xlink:title="A type that satisfies bio::meta::trivially_copyable and bio::meta::trivially_destructible.">
<polygon fill="white" stroke="black" points="314.5,-0.5 314.5,-19.5 359.5,-19.5 359.5,-0.5 314.5,-0.5"/>
<text text-anchor="middle" x="337" y="-7.5" font-family="Helvetica,sans-Serif" font-size="10.00">trivial</text>
</a>
</g>
</g>
<!-- Node1&#45;&gt;Node25 -->
<g id="edge24" class="edge">
<title>Node1&#45;&gt;Node25</title>
<path fill="none" stroke="midnightblue" d="M172.12,-454C176.89,-375.76 198.14,-91.67 258,-29 272.44,-13.88 296.74,-9.96 314.38,-9.3"/>
<polygon fill="midnightblue" stroke="midnightblue" points="168.6,-454.18 171.51,-464.36 175.59,-454.59 168.6,-454.18"/>
</g>
<!-- Node2 -->
<g id="node2" class="node">
<title>Node2</title>
<g id="a_node2"><a xlink:title=" ">
<polygon fill="white" stroke="#bfbfbf" points="0,-464.5 0,-483.5 82,-483.5 82,-464.5 0,-464.5"/>
<text text-anchor="middle" x="41" y="-471.5" font-family="Helvetica,sans-Serif" font-size="10.00">std::copyable</text>
</a>
</g>
</g>
<!-- Node2&#45;&gt;Node1 -->
<g id="edge1" class="edge">
<title>Node2&#45;&gt;Node1</title>
<path fill="none" stroke="midnightblue" d="M92.26,-474C100.69,-474 109.44,-474 117.89,-474"/>
<polygon fill="midnightblue" stroke="midnightblue" points="92.18,-470.5 82.18,-474 92.18,-477.5 92.18,-470.5"/>
</g>
</g>
</svg>
        <g id="navigator" transform="translate(0 0)" fill="#404254">
                <rect fill="#f2f5e9" fill-opacity="0.5" stroke="#606060" stroke-width=".5" x="0" y="0" width="60" height="60"/>
                <use id="zoomplus" xlink:href="#zoomPlus" x="17" y="9" onmousedown="handleZoom(evt,'in')"/>
                <use id="zoomminus" xlink:href="#zoomMin" x="42" y="9" onmousedown="handleZoom(evt,'out')"/>
                <use id="reset" xlink:href="#resetDef" x="30" y="36" onmousedown="handleReset()"/>
                <g id="arrowUp" xlink:href="#dirArrow" transform="translate(30 24)" onmousedown="handlePan(0,-1)">
                  <use xlink:href="#rim" fill="#404040">
                        <set attributeName="fill" to="#808080" begin="arrowUp.mouseover" end="arrowUp.mouseout"/>
                  </use>
                  <path fill="none" stroke="white" stroke-width="1.5" d="M0,-3.0v7 M-2.5,-0.5L0,-3.0L2.5,-0.5"/>
                </g>
                <g id="arrowRight" xlink:href="#dirArrow" transform="rotate(90) translate(36 -43)" onmousedown="handlePan(1,0)">
                  <use xlink:href="#rim" fill="#404040">
                        <set attributeName="fill" to="#808080" begin="arrowRight.mouseover" end="arrowRight.mouseout"/>
                  </use>
                  <path fill="none" stroke="white" stroke-width="1.5" d="M0,-3.0v7 M-2.5,-0.5L0,-3.0L2.5,-0.5"/>
                </g>
                <g id="arrowDown" xlink:href="#dirArrow" transform="rotate(180) translate(-30 -48)" onmousedown="handlePan(0,1)">
                  <use xlink:href="#rim" fill="#404040">
                        <set attributeName="fill" to="#808080" begin="arrowDown.mouseover" end="arrowDown.mouseout"/>
                  </use>
                  <path fill="none" stroke="white" stroke-width="1.5" d="M0,-3.0v7 M-2.5,-0.5L0,-3.0L2.5,-0.5"/>
                </g>
                <g id="arrowLeft" xlink:href="#dirArrow" transform="rotate(270) translate(-36 17)" onmousedown="handlePan(-1,0)">
                  <use xlink:href="#rim" fill="#404040">
                        <set attributeName="fill" to="#808080" begin="arrowLeft.mouseover" end="arrowLeft.mouseout"/>
                  </use>
                  <path fill="none" stroke="white" stroke-width="1.5" d="M0,-3.0v7 M-2.5,-0.5L0,-3.0L2.5,-0.5"/>
                </g>
        </g>
        <svg viewBox="0 0 15 15" width="100%" height="30px" preserveAspectRatio="xMaxYMin meet">
         <g id="arrow_out" transform="scale(0.3 0.3)">
          <a xlink:href="interfacebio_1_1meta_1_1trivially__copyable__inherit__graph_org.svg" target="_base">
           <rect id="button" ry="5" rx="5" y="6" x="6" height="38" width="38"
                fill="#f2f5e9" fill-opacity="0.5" stroke="#606060" stroke-width="1.0"/>
           <path id="arrow"
             d="M 11.500037,31.436501 C 11.940474,20.09759 22.043105,11.32322 32.158766,21.979434 L 37.068811,17.246167 C 37.068811,17.246167 37.088388,32 37.088388,32 L 22.160133,31.978069 C 22.160133,31.978069 26.997745,27.140456 26.997745,27.140456 C 18.528582,18.264221 13.291696,25.230495 11.500037,31.436501 z"
             style="fill:#404040;"/>
          </a>
         </g>
        </svg>
</svg>
