<?xml version="1.0" encoding="UTF-8" standalone="no"?>
<!DOCTYPE svg PUBLIC "-//W3C//DTD SVG 1.1//EN"
 "http://www.w3.org/Graphics/SVG/1.1/DTD/svg11.dtd">
<!-- Generated by graphviz version 2.43.0 (0)
 -->
<!-- Title: trivially_copyable Pages: 1 -->
<svg width="424pt" height="921pt"
 viewBox="0.00 0.00 424.00 921.00" xmlns="http://www.w3.org/2000/svg" xmlns:xlink="http://www.w3.org/1999/xlink">
<g id="graph0" class="graph" transform="scale(1 1) rotate(0) translate(4 917)">
<title>trivially_copyable</title>
<polygon fill="white" stroke="transparent" points="-4,4 -4,-917 420,-917 420,4 -4,4"/>
<!-- Node1 -->
<g id="node1" class="node">
<title>Node1</title>
<g id="a_node1"><a xlink:title="A type that satisfies std::is_trivially_copyable_v&lt;t&gt;.">
<polygon fill="#bfbfbf" stroke="black" points="118,-475.5 118,-494.5 222,-494.5 222,-475.5 118,-475.5"/>
<text text-anchor="middle" x="170" y="-482.5" font-family="Helvetica,sans-Serif" font-size="10.00">trivially_copyable</text>
</a>
</g>
</g>
<!-- Node3 -->
<g id="node3" class="node">
<title>Node3</title>
<g id="a_node3"><a xlink:href="classbio_1_1alphabet_1_1aa10li.html" target="_top" xlink:title="The reduced Li amino acid alphabet..">
<polygon fill="white" stroke="black" points="279,-893.5 279,-912.5 395,-912.5 395,-893.5 279,-893.5"/>
<text text-anchor="middle" x="337" y="-900.5" font-family="Helvetica,sans-Serif" font-size="10.00">bio::alphabet::aa10li</text>
</a>
</g>
</g>
<!-- Node1&#45;&gt;Node3 -->
<g id="edge2" class="edge">
<title>Node1&#45;&gt;Node3</title>
<path fill="none" stroke="midnightblue" d="M172.59,-504.79C178.81,-577.51 203.94,-828.62 258,-884 263.74,-889.88 270.98,-894.07 278.72,-897.02"/>
<polygon fill="midnightblue" stroke="midnightblue" points="176.06,-504.38 171.75,-494.71 169.09,-504.96 176.06,-504.38"/>
</g>
<!-- Node4 -->
<g id="node4" class="node">
<title>Node4</title>
<g id="a_node4"><a xlink:href="classbio_1_1alphabet_1_1aa10murphy.html" target="_top" xlink:title="The reduced Murphy amino acid alphabet..">
<polygon fill="white" stroke="black" points="263,-855.5 263,-874.5 411,-874.5 411,-855.5 263,-855.5"/>
<text text-anchor="middle" x="337" y="-862.5" font-family="Helvetica,sans-Serif" font-size="10.00">bio::alphabet::aa10murphy</text>
</a>
</g>
</g>
<!-- Node1&#45;&gt;Node4 -->
<g id="edge3" class="edge">
<title>Node1&#45;&gt;Node4</title>
<path fill="none" stroke="midnightblue" d="M173.11,-505.07C180.7,-573.59 208.83,-796.71 258,-846 261.84,-849.85 266.32,-852.97 271.15,-855.48"/>
<polygon fill="midnightblue" stroke="midnightblue" points="176.55,-504.36 172,-494.8 169.59,-505.12 176.55,-504.36"/>
</g>
<!-- Node5 -->
<g id="node5" class="node">
<title>Node5</title>
<g id="a_node5"><a xlink:href="classbio_1_1alphabet_1_1aa20.html" target="_top" xlink:title="The canonical amino acid alphabet..">
<polygon fill="white" stroke="black" points="282,-817.5 282,-836.5 392,-836.5 392,-817.5 282,-817.5"/>
<text text-anchor="middle" x="337" y="-824.5" font-family="Helvetica,sans-Serif" font-size="10.00">bio::alphabet::aa20</text>
</a>
</g>
</g>
<!-- Node1&#45;&gt;Node5 -->
<g id="edge4" class="edge">
<title>Node1&#45;&gt;Node5</title>
<path fill="none" stroke="midnightblue" d="M173.7,-504.99C182.7,-568.6 213.59,-764.66 258,-808 264.58,-814.43 272.96,-818.8 281.76,-821.76"/>
<polygon fill="midnightblue" stroke="midnightblue" points="177.12,-504.15 172.28,-494.72 170.19,-505.11 177.12,-504.15"/>
</g>
<!-- Node6 -->
<g id="node6" class="node">
<title>Node6</title>
<g id="a_node6"><a xlink:href="classbio_1_1alphabet_1_1aa27.html" target="_top" xlink:title="The twenty&#45;seven letter amino acid alphabet..">
<polygon fill="white" stroke="black" points="282,-779.5 282,-798.5 392,-798.5 392,-779.5 282,-779.5"/>
<text text-anchor="middle" x="337" y="-786.5" font-family="Helvetica,sans-Serif" font-size="10.00">bio::alphabet::aa27</text>
</a>
</g>
</g>
<!-- Node1&#45;&gt;Node6 -->
<g id="edge5" class="edge">
<title>Node1&#45;&gt;Node6</title>
<path fill="none" stroke="midnightblue" d="M170.79,-504.7C171.36,-556.34 180.37,-696.7 258,-770 264.69,-776.32 273.11,-780.64 281.93,-783.57"/>
<polygon fill="midnightblue" stroke="midnightblue" points="174.29,-504.57 170.78,-494.57 167.29,-504.58 174.29,-504.57"/>
</g>
<!-- Node7 -->
<g id="node7" class="node">
<title>Node7</title>
<g id="a_node7"><a xlink:href="classbio_1_1alphabet_1_1cigar.html" target="_top" xlink:title="The cigar semialphabet pairs a counter with a bio::alphabet::cigar_op letter.">
<polygon fill="white" stroke="black" points="282,-741.5 282,-760.5 392,-760.5 392,-741.5 282,-741.5"/>
<text text-anchor="middle" x="337" y="-748.5" font-family="Helvetica,sans-Serif" font-size="10.00">bio::alphabet::cigar</text>
</a>
</g>
</g>
<!-- Node1&#45;&gt;Node7 -->
<g id="edge6" class="edge">
<title>Node1&#45;&gt;Node7</title>
<path fill="none" stroke="midnightblue" d="M171.85,-504.57C174.99,-551.3 189.64,-670.14 258,-732 264.72,-738.08 273.05,-742.3 281.75,-745.2"/>
<polygon fill="midnightblue" stroke="midnightblue" points="175.35,-504.34 171.29,-494.55 168.36,-504.73 175.35,-504.34"/>
</g>
<!-- Node8 -->
<g id="node8" class="node">
<title>Node8</title>
<g id="a_node8"><a xlink:href="classbio_1_1alphabet_1_1cigar__op.html" target="_top" xlink:title="The (extended) cigar operation alphabet of M,D,I,H,N,P,S,X,=..">
<polygon fill="white" stroke="black" points="273,-703.5 273,-722.5 401,-722.5 401,-703.5 273,-703.5"/>
<text text-anchor="middle" x="337" y="-710.5" font-family="Helvetica,sans-Serif" font-size="10.00">bio::alphabet::cigar_op</text>
</a>
</g>
</g>
<!-- Node1&#45;&gt;Node8 -->
<g id="edge7" class="edge">
<title>Node1&#45;&gt;Node8</title>
<path fill="none" stroke="midnightblue" d="M173.28,-504.62C179.19,-546.19 198.91,-643.45 258,-694 262.45,-697.81 267.54,-700.87 272.93,-703.34"/>
<polygon fill="midnightblue" stroke="midnightblue" points="176.75,-504.14 171.98,-494.67 169.8,-505.04 176.75,-504.14"/>
</g>
<!-- Node9 -->
<g id="node9" class="node">
<title>Node9</title>
<g id="a_node9"><a xlink:href="classbio_1_1alphabet_1_1dna15.html" target="_top" xlink:title="The 15 letter DNA alphabet, containing all IUPAC smybols minus the gap..">
<polygon fill="white" stroke="black" points="279,-665.5 279,-684.5 395,-684.5 395,-665.5 279,-665.5"/>
<text text-anchor="middle" x="337" y="-672.5" font-family="Helvetica,sans-Serif" font-size="10.00">bio::alphabet::dna15</text>
</a>
</g>
</g>
<!-- Node1&#45;&gt;Node9 -->
<g id="edge8" class="edge">
<title>Node1&#45;&gt;Node9</title>
<path fill="none" stroke="midnightblue" d="M175.29,-504.67C184.16,-540.53 208.04,-616.45 258,-656 264.12,-660.84 271.29,-664.48 278.77,-667.2"/>
<polygon fill="midnightblue" stroke="midnightblue" points="178.6,-503.48 172.92,-494.53 171.79,-505.07 178.6,-503.48"/>
</g>
<!-- Node10 -->
<g id="node10" class="node">
<title>Node10</title>
<g id="a_node10"><a xlink:href="classbio_1_1alphabet_1_1dna16sam.html" target="_top" xlink:title="A 16 letter DNA alphabet, containing all IUPAC symbols minus the gap and plus an equality sign (&#39;=&#39;)....">
<polygon fill="white" stroke="black" points="268.5,-627.5 268.5,-646.5 405.5,-646.5 405.5,-627.5 268.5,-627.5"/>
<text text-anchor="middle" x="337" y="-634.5" font-family="Helvetica,sans-Serif" font-size="10.00">bio::alphabet::dna16sam</text>
</a>
</g>
</g>
<!-- Node1&#45;&gt;Node10 -->
<g id="edge9" class="edge">
<title>Node1&#45;&gt;Node10</title>
<path fill="none" stroke="midnightblue" d="M178.21,-504.37C190.15,-533.67 216.86,-588.93 258,-618 263.46,-621.86 269.62,-624.94 276.02,-627.4"/>
<polygon fill="midnightblue" stroke="midnightblue" points="181.39,-502.88 174.48,-494.85 174.87,-505.43 181.39,-502.88"/>
</g>
<!-- Node11 -->
<g id="node11" class="node">
<title>Node11</title>
<g id="a_node11"><a xlink:href="classbio_1_1alphabet_1_1dna4.html" target="_top" xlink:title="The four letter DNA alphabet of A,C,G,T..">
<polygon fill="white" stroke="black" points="282,-589.5 282,-608.5 392,-608.5 392,-589.5 282,-589.5"/>
<text text-anchor="middle" x="337" y="-596.5" font-family="Helvetica,sans-Serif" font-size="10.00">bio::alphabet::dna4</text>
</a>
</g>
</g>
<!-- Node1&#45;&gt;Node11 -->
<g id="edge10" class="edge">
<title>Node1&#45;&gt;Node11</title>
<path fill="none" stroke="midnightblue" d="M182.59,-503.13C197.41,-524.8 225.14,-560.56 258,-580 265.32,-584.33 273.58,-587.67 281.91,-590.26"/>
<polygon fill="midnightblue" stroke="midnightblue" points="185.33,-500.93 176.88,-494.53 179.5,-504.8 185.33,-500.93"/>
</g>
<!-- Node12 -->
<g id="node12" class="node">
<title>Node12</title>
<g id="a_node12"><a xlink:href="classbio_1_1alphabet_1_1dna5.html" target="_top" xlink:title="The five letter DNA alphabet of A,C,G,T and the unknown character N..">
<polygon fill="white" stroke="black" points="282,-551.5 282,-570.5 392,-570.5 392,-551.5 282,-551.5"/>
<text text-anchor="middle" x="337" y="-558.5" font-family="Helvetica,sans-Serif" font-size="10.00">bio::alphabet::dna5</text>
</a>
</g>
</g>
<!-- Node1&#45;&gt;Node12 -->
<g id="edge11" class="edge">
<title>Node1&#45;&gt;Node12</title>
<path fill="none" stroke="midnightblue" d="M190.66,-500.71C207.6,-513.53 233.17,-531.23 258,-542 266.69,-545.77 276.27,-548.88 285.65,-551.41"/>
<polygon fill="midnightblue" stroke="midnightblue" points="192.69,-497.86 182.64,-494.51 188.41,-503.4 192.69,-497.86"/>
</g>
<!-- Node13 -->
<g id="node13" class="node">
<title>Node13</title>
<g id="a_node13"><a xlink:href="classbio_1_1alphabet_1_1gap.html" target="_top" xlink:title="The alphabet of a gap character &#39;&#45;&#39;.">
<polygon fill="white" stroke="black" points="285,-513.5 285,-532.5 389,-532.5 389,-513.5 285,-513.5"/>
<text text-anchor="middle" x="337" y="-520.5" font-family="Helvetica,sans-Serif" font-size="10.00">bio::alphabet::gap</text>
</a>
</g>
</g>
<!-- Node1&#45;&gt;Node13 -->
<g id="edge12" class="edge">
<title>Node1&#45;&gt;Node13</title>
<path fill="none" stroke="midnightblue" d="M222.65,-496.9C245.85,-502.24 272.84,-508.45 294.66,-513.48"/>
<polygon fill="midnightblue" stroke="midnightblue" points="223.17,-493.42 212.64,-494.59 221.6,-500.24 223.17,-493.42"/>
</g>
<!-- Node14 -->
<g id="node14" class="node">
<title>Node14</title>
<g id="a_node14"><a xlink:href="classbio_1_1alphabet_1_1mask.html" target="_top" xlink:title="Implementation of a masked semialphabet to be used for tuple composites..">
<polygon fill="white" stroke="black" points="280.5,-475.5 280.5,-494.5 393.5,-494.5 393.5,-475.5 280.5,-475.5"/>
<text text-anchor="middle" x="337" y="-482.5" font-family="Helvetica,sans-Serif" font-size="10.00">bio::alphabet::mask</text>
</a>
</g>
</g>
<!-- Node1&#45;&gt;Node14 -->
<g id="edge13" class="edge">
<title>Node1&#45;&gt;Node14</title>
<path fill="none" stroke="midnightblue" d="M232.46,-485C248.19,-485 265.01,-485 280.43,-485"/>
<polygon fill="midnightblue" stroke="midnightblue" points="232.3,-481.5 222.3,-485 232.3,-488.5 232.3,-481.5"/>
</g>
<!-- Node15 -->
<g id="node15" class="node">
<title>Node15</title>
<g id="a_node15"><a xlink:href="classbio_1_1alphabet_1_1masked.html" target="_top" xlink:title="A template for composite alphabets that differentiate between upper and lower case characters....">
<polygon fill="white" stroke="black" points="265.5,-426 265.5,-456 408.5,-456 408.5,-426 265.5,-426"/>
<text text-anchor="start" x="273.5" y="-444" font-family="Helvetica,sans-Serif" font-size="10.00">bio::alphabet::masked</text>
<text text-anchor="middle" x="337" y="-433" font-family="Helvetica,sans-Serif" font-size="10.00">&lt; sequence_alphabet_t &gt;</text>
</a>
</g>
</g>
<!-- Node1&#45;&gt;Node15 -->
<g id="edge14" class="edge">
<title>Node1&#45;&gt;Node15</title>
<path fill="none" stroke="midnightblue" d="M216.63,-472.83C236.09,-467.64 258.99,-461.54 279.5,-456.07"/>
<polygon fill="midnightblue" stroke="midnightblue" points="215.56,-469.49 206.8,-475.45 217.37,-476.26 215.56,-469.49"/>
</g>
<!-- Node16 -->
<g id="node16" class="node">
<title>Node16</title>
<g id="a_node16"><a xlink:href="classbio_1_1alphabet_1_1phred42.html" target="_top" xlink:title="Quality type for traditional Sanger and modern Illumina Phred scores (typical range)....">
<polygon fill="white" stroke="black" points="274,-387.5 274,-406.5 400,-406.5 400,-387.5 274,-387.5"/>
<text text-anchor="middle" x="337" y="-394.5" font-family="Helvetica,sans-Serif" font-size="10.00">bio::alphabet::phred42</text>
</a>
</g>
</g>
<!-- Node1&#45;&gt;Node16 -->
<g id="edge15" class="edge">
<title>Node1&#45;&gt;Node16</title>
<path fill="none" stroke="midnightblue" d="M187.42,-468.33C203.87,-452.56 230.61,-429.39 258,-416 265.89,-412.14 274.62,-409.03 283.3,-406.54"/>
<polygon fill="midnightblue" stroke="midnightblue" points="184.9,-465.89 180.21,-475.39 189.8,-470.89 184.9,-465.89"/>
</g>
<!-- Node17 -->
<g id="node17" class="node">
<title>Node17</title>
<g id="a_node17"><a xlink:href="classbio_1_1alphabet_1_1phred63.html" target="_top" xlink:title="Quality type for traditional Sanger and modern Illumina Phred scores (full range)....">
<polygon fill="white" stroke="black" points="274,-349.5 274,-368.5 400,-368.5 400,-349.5 274,-349.5"/>
<text text-anchor="middle" x="337" y="-356.5" font-family="Helvetica,sans-Serif" font-size="10.00">bio::alphabet::phred63</text>
</a>
</g>
</g>
<!-- Node1&#45;&gt;Node17 -->
<g id="edge16" class="edge">
<title>Node1&#45;&gt;Node17</title>
<path fill="none" stroke="midnightblue" d="M181,-466.32C194.96,-442.12 222.6,-400.37 258,-378 264.13,-374.13 270.98,-371.05 278.02,-368.59"/>
<polygon fill="midnightblue" stroke="midnightblue" points="177.85,-464.8 176.03,-475.23 183.96,-468.21 177.85,-464.8"/>
</g>
<!-- Node18 -->
<g id="node18" class="node">
<title>Node18</title>
<g id="a_node18"><a xlink:href="classbio_1_1alphabet_1_1phred68legacy.html" target="_top" xlink:title="Quality type for Solexa and deprecated Illumina formats..">
<polygon fill="white" stroke="black" points="258,-311.5 258,-330.5 416,-330.5 416,-311.5 258,-311.5"/>
<text text-anchor="middle" x="337" y="-318.5" font-family="Helvetica,sans-Serif" font-size="10.00">bio::alphabet::phred68legacy</text>
</a>
</g>
</g>
<!-- Node1&#45;&gt;Node18 -->
<g id="edge17" class="edge">
<title>Node1&#45;&gt;Node18</title>
<path fill="none" stroke="midnightblue" d="M177.08,-465.7C188.01,-434.29 214.01,-372.39 258,-340 263.28,-336.12 269.24,-333.02 275.47,-330.55"/>
<polygon fill="midnightblue" stroke="midnightblue" points="173.68,-464.84 173.84,-475.44 180.32,-467.05 173.68,-464.84"/>
</g>
<!-- Node19 -->
<g id="node19" class="node">
<title>Node19</title>
<g id="a_node19"><a xlink:href="classbio_1_1alphabet_1_1qualified.html" target="_top" xlink:title="Joins an arbitrary alphabet with a quality alphabet.">
<polygon fill="white" stroke="black" points="270,-251.5 270,-292.5 404,-292.5 404,-251.5 270,-251.5"/>
<text text-anchor="start" x="278" y="-280.5" font-family="Helvetica,sans-Serif" font-size="10.00">bio::alphabet::qualified</text>
<text text-anchor="start" x="278" y="-269.5" font-family="Helvetica,sans-Serif" font-size="10.00">&lt; sequence_alphabet_t,</text>
<text text-anchor="middle" x="337" y="-258.5" font-family="Helvetica,sans-Serif" font-size="10.00"> quality_alphabet_t &gt;</text>
</a>
</g>
</g>
<!-- Node1&#45;&gt;Node19 -->
<g id="edge18" class="edge">
<title>Node1&#45;&gt;Node19</title>
<path fill="none" stroke="midnightblue" d="M175.28,-465.08C184.25,-427.99 208.41,-347.93 258,-302 261.83,-298.45 266.13,-295.31 270.68,-292.52"/>
<polygon fill="midnightblue" stroke="midnightblue" points="171.8,-464.6 172.98,-475.13 178.63,-466.17 171.8,-464.6"/>
</g>
<!-- Node20 -->
<g id="node20" class="node">
<title>Node20</title>
<g id="a_node20"><a xlink:href="classbio_1_1alphabet_1_1rna15.html" target="_top" xlink:title="The 15 letter RNA alphabet, containing all IUPAC smybols minus the gap..">
<polygon fill="white" stroke="black" points="280,-213.5 280,-232.5 394,-232.5 394,-213.5 280,-213.5"/>
<text text-anchor="middle" x="337" y="-220.5" font-family="Helvetica,sans-Serif" font-size="10.00">bio::alphabet::rna15</text>
</a>
</g>
</g>
<!-- Node1&#45;&gt;Node20 -->
<g id="edge19" class="edge">
<title>Node1&#45;&gt;Node20</title>
<path fill="none" stroke="midnightblue" d="M172.01,-465.13C175.47,-418.72 190.77,-302.53 258,-242 264.22,-236.4 271.8,-232.39 279.77,-229.52"/>
<polygon fill="midnightblue" stroke="midnightblue" points="168.5,-465.15 171.36,-475.35 175.48,-465.6 168.5,-465.15"/>
</g>
<!-- Node21 -->
<g id="node21" class="node">
<title>Node21</title>
<g id="a_node21"><a xlink:href="classbio_1_1alphabet_1_1rna4.html" target="_top" xlink:title="The four letter RNA alphabet of A,C,G,U..">
<polygon fill="white" stroke="black" points="283,-175.5 283,-194.5 391,-194.5 391,-175.5 283,-175.5"/>
<text text-anchor="middle" x="337" y="-182.5" font-family="Helvetica,sans-Serif" font-size="10.00">bio::alphabet::rna4</text>
</a>
</g>
</g>
<!-- Node1&#45;&gt;Node21 -->
<g id="edge20" class="edge">
<title>Node1&#45;&gt;Node21</title>
<path fill="none" stroke="midnightblue" d="M170.89,-465.22C171.74,-414.01 181.39,-276.05 258,-204 264.9,-197.51 273.64,-193.12 282.76,-190.19"/>
<polygon fill="midnightblue" stroke="midnightblue" points="167.39,-465.26 170.82,-475.29 174.39,-465.31 167.39,-465.26"/>
</g>
<!-- Node22 -->
<g id="node22" class="node">
<title>Node22</title>
<g id="a_node22"><a xlink:href="classbio_1_1alphabet_1_1rna5.html" target="_top" xlink:title="The five letter RNA alphabet of A,C,G,U and the unknown character N..">
<polygon fill="white" stroke="black" points="283,-137.5 283,-156.5 391,-156.5 391,-137.5 283,-137.5"/>
<text text-anchor="middle" x="337" y="-144.5" font-family="Helvetica,sans-Serif" font-size="10.00">bio::alphabet::rna5</text>
</a>
</g>
</g>
<!-- Node1&#45;&gt;Node22 -->
<g id="edge21" class="edge">
<title>Node1&#45;&gt;Node22</title>
<path fill="none" stroke="midnightblue" d="M173.74,-465.25C182.85,-402.42 214.04,-208.78 258,-166 264.89,-159.29 273.74,-154.82 282.98,-151.87"/>
<polygon fill="midnightblue" stroke="midnightblue" points="170.24,-465 172.3,-475.4 177.17,-465.99 170.24,-465"/>
</g>
<!-- Node23 -->
<g id="node23" class="node">
<title>Node23</title>
<g id="a_node23"><a xlink:href="classbio_1_1alphabet_1_1semialphabet__any.html" target="_top" xlink:title="A semi&#45;alphabet that type erases all other semi&#45;alphabets of the same size.">
<polygon fill="white" stroke="black" points="260.5,-88 260.5,-118 413.5,-118 413.5,-88 260.5,-88"/>
<text text-anchor="start" x="268.5" y="-106" font-family="Helvetica,sans-Serif" font-size="10.00">bio::alphabet::semialphabet</text>
<text text-anchor="middle" x="337" y="-95" font-family="Helvetica,sans-Serif" font-size="10.00">_any&lt; size_ &gt;</text>
</a>
</g>
</g>
<!-- Node1&#45;&gt;Node23 -->
<g id="edge22" class="edge">
<title>Node1&#45;&gt;Node23</title>
<path fill="none" stroke="midnightblue" d="M173.27,-465.27C181.39,-397.92 211.05,-178.42 258,-128 261.59,-124.15 265.76,-120.89 270.29,-118.13"/>
<polygon fill="midnightblue" stroke="midnightblue" points="169.77,-465.03 172.08,-475.37 176.72,-465.85 169.77,-465.03"/>
</g>
<!-- Node24 -->
<g id="node24" class="node">
<title>Node24</title>
<g id="a_node24"><a xlink:href="classbio_1_1alphabet_1_1variant.html" target="_top" xlink:title="A combined alphabet that can hold values of either of its alternatives..">
<polygon fill="white" stroke="black" points="274.5,-39 274.5,-69 399.5,-69 399.5,-39 274.5,-39"/>
<text text-anchor="start" x="282.5" y="-57" font-family="Helvetica,sans-Serif" font-size="10.00">bio::alphabet::variant</text>
<text text-anchor="middle" x="337" y="-46" font-family="Helvetica,sans-Serif" font-size="10.00">&lt; alternative_types &gt;</text>
</a>
</g>
</g>
<!-- Node1&#45;&gt;Node24 -->
<g id="edge23" class="edge">
<title>Node1&#45;&gt;Node24</title>
<path fill="none" stroke="midnightblue" d="M172.64,-464.92C179.04,-391.13 204.73,-136.17 258,-78 262.59,-72.98 268.21,-69.01 274.29,-65.85"/>
<polygon fill="midnightblue" stroke="midnightblue" points="169.13,-464.9 171.77,-475.15 176.1,-465.48 169.13,-464.9"/>
</g>
<!-- Node25 -->
<g id="node25" class="node">
<title>Node25</title>
<g id="a_node25"><a xlink:href="interfacebio_1_1meta_1_1trivial.html" target="_top" xlink:title="A type that satisfies bio::meta::trivially_copyable and bio::meta::trivially_destructible.">
<polygon fill="white" stroke="black" points="314.5,-0.5 314.5,-19.5 359.5,-19.5 359.5,-0.5 314.5,-0.5"/>
<text text-anchor="middle" x="337" y="-7.5" font-family="Helvetica,sans-Serif" font-size="10.00">trivial</text>
</a>
</g>
</g>
<!-- Node1&#45;&gt;Node25 -->
<g id="edge24" class="edge">
<title>Node1&#45;&gt;Node25</title>
<path fill="none" stroke="midnightblue" d="M172.01,-465C176.45,-385.55 196.73,-93.44 258,-29 272.41,-13.85 296.71,-9.93 314.37,-9.28"/>
<polygon fill="midnightblue" stroke="midnightblue" points="168.51,-464.95 171.47,-475.13 175.5,-465.33 168.51,-464.95"/>
</g>
<!-- Node2 -->
<g id="node2" class="node">
<title>Node2</title>
<g id="a_node2"><a xlink:title=" ">
<polygon fill="white" stroke="#bfbfbf" points="0,-475.5 0,-494.5 82,-494.5 82,-475.5 0,-475.5"/>
<text text-anchor="middle" x="41" y="-482.5" font-family="Helvetica,sans-Serif" font-size="10.00">std::copyable</text>
</a>
</g>
</g>
<!-- Node2&#45;&gt;Node1 -->
<g id="edge1" class="edge">
<title>Node2&#45;&gt;Node1</title>
<path fill="none" stroke="midnightblue" d="M92.26,-485C100.69,-485 109.44,-485 117.89,-485"/>
<polygon fill="midnightblue" stroke="midnightblue" points="92.18,-481.5 82.18,-485 92.18,-488.5 92.18,-481.5"/>
</g>
</g>
</svg>
