<?xml version="1.0" encoding="UTF-8" standalone="no"?>
<!DOCTYPE svg PUBLIC "-//W3C//DTD SVG 1.1//EN"
 "http://www.w3.org/Graphics/SVG/1.1/DTD/svg11.dtd">
<!-- Generated by graphviz version 2.42.2 ()
 -->
<!-- Title: bio/ranges/views/interleave.hpp Pages: 1 -->
<svg width="1563pt" height="475pt"
 viewBox="0.00 0.00 1562.50 475.00" xmlns="http://www.w3.org/2000/svg" xmlns:xlink="http://www.w3.org/1999/xlink">
<g id="graph0" class="graph" transform="scale(1 1) rotate(0) translate(4 471)">
<title>bio/ranges/views/interleave.hpp</title>
<polygon fill="white" stroke="transparent" points="-4,4 -4,-471 1558.5,-471 1558.5,4 -4,4"/>
<!-- Node1 -->
<g id="node1" class="node">
<title>Node1</title>
<g id="a_node1"><a xlink:title="Provides bio::views::interleave.">
<polygon fill="#bfbfbf" stroke="black" points="167.5,-447.5 167.5,-466.5 321.5,-466.5 321.5,-447.5 167.5,-447.5"/>
<text text-anchor="middle" x="244.5" y="-454.5" font-family="Helvetica,sans-Serif" font-size="10.00">bio/ranges/views/interleave.hpp</text>
</a>
</g>
</g>
<!-- Node2 -->
<g id="node2" class="node">
<title>Node2</title>
<g id="a_node2"><a target="_blank" xlink:href="https://en.cppreference.com/w/cpp/header/cmath.html" xlink:title=" ">
<polygon fill="white" stroke="black" points="40.5,-386 40.5,-405 84.5,-405 84.5,-386 40.5,-386"/>
<text text-anchor="middle" x="62.5" y="-393" font-family="Helvetica,sans-Serif" font-size="10.00">cmath</text>
</a>
</g>
</g>
<!-- Node1&#45;&gt;Node2 -->
<g id="edge1" class="edge">
<title>Node1&#45;&gt;Node2</title>
<path fill="none" stroke="midnightblue" d="M214.06,-447.43C184.35,-438.87 138,-425.01 98.5,-411 96.59,-410.32 94.64,-409.61 92.68,-408.87"/>
<polygon fill="midnightblue" stroke="midnightblue" points="93.54,-405.45 82.95,-405.08 91,-411.97 93.54,-405.45"/>
</g>
<!-- Node3 -->
<g id="node3" class="node">
<title>Node3</title>
<g id="a_node3"><a xlink:href="transformation__trait__or_8hpp.html" target="_top" xlink:title="Provides bio::meta::transformation_trait_or.">
<polygon fill="white" stroke="black" points="178.5,-235.5 178.5,-276.5 282.5,-276.5 282.5,-235.5 178.5,-235.5"/>
<text text-anchor="start" x="186.5" y="-264.5" font-family="Helvetica,sans-Serif" font-size="10.00">bio/meta/type_traits</text>
<text text-anchor="start" x="186.5" y="-253.5" font-family="Helvetica,sans-Serif" font-size="10.00">/transformation_trait</text>
<text text-anchor="middle" x="230.5" y="-242.5" font-family="Helvetica,sans-Serif" font-size="10.00">_or.hpp</text>
</a>
</g>
</g>
<!-- Node1&#45;&gt;Node3 -->
<g id="edge2" class="edge">
<title>Node1&#45;&gt;Node3</title>
<path fill="none" stroke="midnightblue" d="M243.46,-447.3C241.24,-428.49 236.06,-382.6 233.5,-344 232.25,-325.07 231.5,-303.79 231.07,-287.02"/>
<polygon fill="midnightblue" stroke="midnightblue" points="234.56,-286.63 230.82,-276.71 227.56,-286.79 234.56,-286.63"/>
</g>
<!-- Node10 -->
<g id="node10" class="node">
<title>Node10</title>
<g id="a_node10"><a xlink:href="random__access__iterator_8hpp.html" target="_top" xlink:title="Provides the bio::ranges::detail::random_access_iterator class.">
<polygon fill="white" stroke="black" points="0,-168.5 0,-198.5 123,-198.5 123,-168.5 0,-168.5"/>
<text text-anchor="start" x="8" y="-186.5" font-family="Helvetica,sans-Serif" font-size="10.00">bio/ranges/detail/random</text>
<text text-anchor="middle" x="61.5" y="-175.5" font-family="Helvetica,sans-Serif" font-size="10.00">_access_iterator.hpp</text>
</a>
</g>
</g>
<!-- Node1&#45;&gt;Node10 -->
<g id="edge10" class="edge">
<title>Node1&#45;&gt;Node10</title>
<path fill="none" stroke="midnightblue" d="M229.23,-447.39C215.91,-439.31 196.7,-426.21 183.5,-411 127.41,-346.35 86.93,-251.57 70.12,-207.99"/>
<polygon fill="midnightblue" stroke="midnightblue" points="73.36,-206.65 66.54,-198.54 66.81,-209.13 73.36,-206.65"/>
</g>
<!-- Node14 -->
<g id="node14" class="node">
<title>Node14</title>
<g id="a_node14"><a xlink:href="ranges_2views_2detail_8hpp_source.html" target="_top" xlink:title=" ">
<polygon fill="white" stroke="black" points="377,-319 377,-338 512,-338 512,-319 377,-319"/>
<text text-anchor="middle" x="444.5" y="-326" font-family="Helvetica,sans-Serif" font-size="10.00">bio/ranges/views/detail.hpp</text>
</a>
</g>
</g>
<!-- Node1&#45;&gt;Node14 -->
<g id="edge16" class="edge">
<title>Node1&#45;&gt;Node14</title>
<path fill="none" stroke="midnightblue" d="M258.25,-447.31C292.3,-425.77 380.79,-369.79 422.34,-343.51"/>
<polygon fill="midnightblue" stroke="midnightblue" points="424.34,-346.39 430.92,-338.09 420.6,-340.48 424.34,-346.39"/>
</g>
<!-- Node15 -->
<g id="node15" class="node">
<title>Node15</title>
<g id="a_node15"><a target="_blank" xlink:href="https://en.cppreference.com/w/cpp/header/ranges.html" xlink:title=" ">
<polygon fill="white" stroke="black" points="338.5,-174 338.5,-193 384.5,-193 384.5,-174 338.5,-174"/>
<text text-anchor="middle" x="361.5" y="-181" font-family="Helvetica,sans-Serif" font-size="10.00">ranges</text>
</a>
</g>
</g>
<!-- Node1&#45;&gt;Node15 -->
<g id="edge78" class="edge">
<title>Node1&#45;&gt;Node15</title>
<path fill="none" stroke="midnightblue" d="M236.47,-447.46C207.88,-416.03 115.57,-304.95 169.5,-235 188.75,-210.03 278.58,-194.95 328.25,-188.39"/>
<polygon fill="midnightblue" stroke="midnightblue" points="328.73,-191.85 338.2,-187.11 327.84,-184.91 328.73,-191.85"/>
</g>
<!-- Node19 -->
<g id="node19" class="node">
<title>Node19</title>
<g id="a_node19"><a xlink:href="persist_8hpp.html" target="_top" xlink:title="Provides bio::views::persist.">
<polygon fill="white" stroke="black" points="374,-386 374,-405 515,-405 515,-386 374,-386"/>
<text text-anchor="middle" x="444.5" y="-393" font-family="Helvetica,sans-Serif" font-size="10.00">bio/ranges/views/persist.hpp</text>
</a>
</g>
</g>
<!-- Node1&#45;&gt;Node19 -->
<g id="edge29" class="edge">
<title>Node1&#45;&gt;Node19</title>
<path fill="none" stroke="midnightblue" d="M273.16,-447.48C308.06,-437.09 367.15,-419.51 406,-407.95"/>
<polygon fill="midnightblue" stroke="midnightblue" points="407.31,-411.22 415.9,-405.01 405.32,-404.51 407.31,-411.22"/>
</g>
<!-- Node21 -->
<g id="node21" class="node">
<title>Node21</title>
<g id="a_node21"><a target="_blank" xlink:href="https://en.cppreference.com/w/cpp/header/concepts.html" xlink:title=" ">
<polygon fill="white" stroke="black" points="1236.5,-112.5 1236.5,-131.5 1292.5,-131.5 1292.5,-112.5 1236.5,-112.5"/>
<text text-anchor="middle" x="1264.5" y="-119.5" font-family="Helvetica,sans-Serif" font-size="10.00">concepts</text>
</a>
</g>
</g>
<!-- Node1&#45;&gt;Node21 -->
<g id="edge77" class="edge">
<title>Node1&#45;&gt;Node21</title>
<path fill="none" stroke="midnightblue" d="M321.79,-455.48C576.84,-452.76 1375.5,-435.76 1375.5,-329.5 1375.5,-329.5 1375.5,-329.5 1375.5,-255 1375.5,-211.87 1361.03,-200.35 1332.5,-168 1321.09,-155.06 1305.13,-144.24 1291.54,-136.46"/>
<polygon fill="midnightblue" stroke="midnightblue" points="1293.05,-133.29 1282.6,-131.56 1289.69,-139.43 1293.05,-133.29"/>
</g>
<!-- Node36 -->
<g id="node36" class="node">
<title>Node36</title>
<g id="a_node36"><a xlink:href="type__reduce_8hpp.html" target="_top" xlink:title="Provides bio::views::type_reduce.">
<polygon fill="white" stroke="black" points="742.5,-380.5 742.5,-410.5 854.5,-410.5 854.5,-380.5 742.5,-380.5"/>
<text text-anchor="start" x="750.5" y="-398.5" font-family="Helvetica,sans-Serif" font-size="10.00">bio/ranges/views/type</text>
<text text-anchor="middle" x="798.5" y="-387.5" font-family="Helvetica,sans-Serif" font-size="10.00">_reduce.hpp</text>
</a>
</g>
</g>
<!-- Node1&#45;&gt;Node36 -->
<g id="edge67" class="edge">
<title>Node1&#45;&gt;Node36</title>
<path fill="none" stroke="midnightblue" d="M321.53,-447.73C430.87,-435.98 629.21,-414.68 732.29,-403.61"/>
<polygon fill="midnightblue" stroke="midnightblue" points="732.7,-407.09 742.27,-402.54 731.95,-400.13 732.7,-407.09"/>
</g>
<!-- Node4 -->
<g id="node4" class="node">
<title>Node4</title>
<g id="a_node4"><a target="_blank" xlink:href="https://en.cppreference.com/w/cpp/header/type_traits.html" xlink:title=" ">
<polygon fill="white" stroke="black" points="543.5,-112.5 543.5,-131.5 605.5,-131.5 605.5,-112.5 543.5,-112.5"/>
<text text-anchor="middle" x="574.5" y="-119.5" font-family="Helvetica,sans-Serif" font-size="10.00">type_traits</text>
</a>
</g>
</g>
<!-- Node3&#45;&gt;Node4 -->
<g id="edge3" class="edge">
<title>Node3&#45;&gt;Node4</title>
<path fill="none" stroke="midnightblue" d="M246.89,-235.29C264.93,-214.99 295.87,-184.14 329.5,-168 410.05,-129.35 441.62,-148.71 533.14,-132.12"/>
<polygon fill="midnightblue" stroke="midnightblue" points="533.92,-135.53 543.09,-130.22 532.61,-128.66 533.92,-135.53"/>
</g>
<!-- Node5 -->
<g id="node5" class="node">
<title>Node5</title>
<g id="a_node5"><a xlink:href="meta_2type__traits_2concept_8hpp.html" target="_top" xlink:title="Provides the concepts bio::meta::transformation_trait and bio::meta::unary_type_trait.">
<polygon fill="white" stroke="black" points="141,-168.5 141,-198.5 244,-198.5 244,-168.5 141,-168.5"/>
<text text-anchor="start" x="149" y="-186.5" font-family="Helvetica,sans-Serif" font-size="10.00">bio/meta/type_traits</text>
<text text-anchor="middle" x="192.5" y="-175.5" font-family="Helvetica,sans-Serif" font-size="10.00">/concept.hpp</text>
</a>
</g>
</g>
<!-- Node3&#45;&gt;Node5 -->
<g id="edge4" class="edge">
<title>Node3&#45;&gt;Node5</title>
<path fill="none" stroke="midnightblue" d="M219.91,-235.36C215.33,-226.86 209.94,-216.85 205.15,-207.96"/>
<polygon fill="midnightblue" stroke="midnightblue" points="208.08,-206.03 200.26,-198.89 201.92,-209.35 208.08,-206.03"/>
</g>
<!-- Node5&#45;&gt;Node4 -->
<g id="edge5" class="edge">
<title>Node5&#45;&gt;Node4</title>
<path fill="none" stroke="midnightblue" d="M244.3,-170.68C249.09,-169.72 253.88,-168.81 258.5,-168 377.15,-147.27 410.93,-153.26 533,-132.13"/>
<polygon fill="midnightblue" stroke="midnightblue" points="533.87,-135.53 543.11,-130.35 532.66,-128.63 533.87,-135.53"/>
</g>
<!-- Node6 -->
<g id="node6" class="node">
<title>Node6</title>
<g id="a_node6"><a xlink:href="platform_8hpp.html" target="_top" xlink:title="Provides platform and dependency checks.">
<polygon fill="white" stroke="black" points="775,-56.5 775,-75.5 886,-75.5 886,-56.5 775,-56.5"/>
<text text-anchor="middle" x="830.5" y="-63.5" font-family="Helvetica,sans-Serif" font-size="10.00">bio/meta/platform.hpp</text>
</a>
</g>
</g>
<!-- Node5&#45;&gt;Node6 -->
<g id="edge6" class="edge">
<title>Node5&#45;&gt;Node6</title>
<path fill="none" stroke="midnightblue" d="M205.22,-168.44C221.36,-151.67 250.9,-124.37 282.5,-112 368.63,-78.27 638.42,-69.82 764.43,-67.71"/>
<polygon fill="midnightblue" stroke="midnightblue" points="764.76,-71.2 774.71,-67.54 764.65,-64.2 764.76,-71.2"/>
</g>
<!-- Node7 -->
<g id="node7" class="node">
<title>Node7</title>
<g id="a_node7"><a target="_blank" xlink:href="https://en.cppreference.com/w/cpp/header/cinttypes.html" xlink:title=" ">
<polygon fill="white" stroke="black" points="731.5,-0.5 731.5,-19.5 787.5,-19.5 787.5,-0.5 731.5,-0.5"/>
<text text-anchor="middle" x="759.5" y="-7.5" font-family="Helvetica,sans-Serif" font-size="10.00">cinttypes</text>
</a>
</g>
</g>
<!-- Node6&#45;&gt;Node7 -->
<g id="edge7" class="edge">
<title>Node6&#45;&gt;Node7</title>
<path fill="none" stroke="midnightblue" d="M819.09,-56.32C808.39,-48.18 792.16,-35.84 779.34,-26.09"/>
<polygon fill="midnightblue" stroke="midnightblue" points="781.19,-23.1 771.11,-19.83 776.96,-28.67 781.19,-23.1"/>
</g>
<!-- Node8 -->
<g id="node8" class="node">
<title>Node8</title>
<g id="a_node8"><a target="_blank" xlink:href="https://en.cppreference.com/w/cpp/header/ciso646.html" xlink:title=" ">
<polygon fill="white" stroke="black" points="805.5,-0.5 805.5,-19.5 855.5,-19.5 855.5,-0.5 805.5,-0.5"/>
<text text-anchor="middle" x="830.5" y="-7.5" font-family="Helvetica,sans-Serif" font-size="10.00">ciso646</text>
</a>
</g>
</g>
<!-- Node6&#45;&gt;Node8 -->
<g id="edge8" class="edge">
<title>Node6&#45;&gt;Node8</title>
<path fill="none" stroke="midnightblue" d="M830.5,-56.08C830.5,-49.01 830.5,-38.86 830.5,-29.99"/>
<polygon fill="midnightblue" stroke="midnightblue" points="834,-29.75 830.5,-19.75 827,-29.75 834,-29.75"/>
</g>
<!-- Node9 -->
<g id="node9" class="node">
<title>Node9</title>
<g id="a_node9"><a target="_blank" xlink:href="https://en.cppreference.com/w/cpp/header/cstddef.html" xlink:title=" ">
<polygon fill="white" stroke="black" points="874,-0.5 874,-19.5 923,-19.5 923,-0.5 874,-0.5"/>
<text text-anchor="middle" x="898.5" y="-7.5" font-family="Helvetica,sans-Serif" font-size="10.00">cstddef</text>
</a>
</g>
</g>
<!-- Node6&#45;&gt;Node9 -->
<g id="edge9" class="edge">
<title>Node6&#45;&gt;Node9</title>
<path fill="none" stroke="midnightblue" d="M841.43,-56.32C851.67,-48.18 867.22,-35.84 879.5,-26.09"/>
<polygon fill="midnightblue" stroke="midnightblue" points="881.72,-28.79 887.38,-19.83 877.37,-23.31 881.72,-28.79"/>
</g>
<!-- Node10&#45;&gt;Node4 -->
<g id="edge13" class="edge">
<title>Node10&#45;&gt;Node4</title>
<path fill="none" stroke="midnightblue" d="M123.27,-169.3C126.05,-168.84 128.8,-168.4 131.5,-168 306.18,-142.19 355.08,-159.16 533.17,-132.01"/>
<polygon fill="midnightblue" stroke="midnightblue" points="533.79,-135.46 543.13,-130.47 532.71,-128.54 533.79,-135.46"/>
</g>
<!-- Node11 -->
<g id="node11" class="node">
<title>Node11</title>
<g id="a_node11"><a target="_blank" xlink:href="https://en.cppreference.com/w/cpp/header/cassert.html" xlink:title=" ">
<polygon fill="white" stroke="black" points="37,-112.5 37,-131.5 86,-131.5 86,-112.5 37,-112.5"/>
<text text-anchor="middle" x="61.5" y="-119.5" font-family="Helvetica,sans-Serif" font-size="10.00">cassert</text>
</a>
</g>
</g>
<!-- Node10&#45;&gt;Node11 -->
<g id="edge11" class="edge">
<title>Node10&#45;&gt;Node11</title>
<path fill="none" stroke="midnightblue" d="M61.5,-168.4C61.5,-160.47 61.5,-150.46 61.5,-141.86"/>
<polygon fill="midnightblue" stroke="midnightblue" points="65,-141.66 61.5,-131.66 58,-141.66 65,-141.66"/>
</g>
<!-- Node12 -->
<g id="node12" class="node">
<title>Node12</title>
<g id="a_node12"><a target="_blank" xlink:href="https://en.cppreference.com/w/cpp/header/iterator.html" xlink:title=" ">
<polygon fill="white" stroke="black" points="422,-112.5 422,-131.5 469,-131.5 469,-112.5 422,-112.5"/>
<text text-anchor="middle" x="445.5" y="-119.5" font-family="Helvetica,sans-Serif" font-size="10.00">iterator</text>
</a>
</g>
</g>
<!-- Node10&#45;&gt;Node12 -->
<g id="edge12" class="edge">
<title>Node10&#45;&gt;Node12</title>
<path fill="none" stroke="midnightblue" d="M123.29,-169.43C126.06,-168.93 128.81,-168.45 131.5,-168 252.53,-147.74 287.27,-156.17 411.88,-131.85"/>
<polygon fill="midnightblue" stroke="midnightblue" points="412.67,-135.26 421.8,-129.89 411.31,-128.4 412.67,-135.26"/>
</g>
<!-- Node13 -->
<g id="node13" class="node">
<title>Node13</title>
<g id="a_node13"><a xlink:href="ranges_2biocpp_8hpp.html" target="_top" xlink:title="Module header with module&#45;wide definitions.">
<polygon fill="white" stroke="black" points="291.5,-112.5 291.5,-131.5 403.5,-131.5 403.5,-112.5 291.5,-112.5"/>
<text text-anchor="middle" x="347.5" y="-119.5" font-family="Helvetica,sans-Serif" font-size="10.00">bio/ranges/biocpp.hpp</text>
</a>
</g>
</g>
<!-- Node10&#45;&gt;Node13 -->
<g id="edge14" class="edge">
<title>Node10&#45;&gt;Node13</title>
<path fill="none" stroke="midnightblue" d="M123.21,-169.66C175.02,-158.88 248.17,-143.67 296.67,-133.58"/>
<polygon fill="midnightblue" stroke="midnightblue" points="297.55,-136.97 306.62,-131.5 296.12,-130.11 297.55,-136.97"/>
</g>
<!-- Node13&#45;&gt;Node6 -->
<g id="edge15" class="edge">
<title>Node13&#45;&gt;Node6</title>
<path fill="none" stroke="midnightblue" d="M403.66,-113.23C406.99,-112.81 410.29,-112.39 413.5,-112 537.53,-96.85 682.64,-81.79 764.84,-73.51"/>
<polygon fill="midnightblue" stroke="midnightblue" points="765.2,-76.99 774.8,-72.51 764.5,-70.03 765.2,-76.99"/>
</g>
<!-- Node14&#45;&gt;Node15 -->
<g id="edge17" class="edge">
<title>Node14&#45;&gt;Node15</title>
<path fill="none" stroke="midnightblue" d="M438.19,-318.74C431.14,-308.82 419.52,-292.05 410.5,-277 395.29,-251.61 379.6,-221.1 370.2,-202.25"/>
<polygon fill="midnightblue" stroke="midnightblue" points="373.24,-200.49 365.67,-193.08 366.96,-203.6 373.24,-200.49"/>
</g>
<!-- Node16 -->
<g id="node16" class="node">
<title>Node16</title>
<g id="a_node16"><a target="_blank" xlink:href="https://en.cppreference.com/w/cpp/header/tuple.html" xlink:title=" ">
<polygon fill="white" stroke="black" points="487.5,-112.5 487.5,-131.5 525.5,-131.5 525.5,-112.5 487.5,-112.5"/>
<text text-anchor="middle" x="506.5" y="-119.5" font-family="Helvetica,sans-Serif" font-size="10.00">tuple</text>
</a>
</g>
</g>
<!-- Node14&#45;&gt;Node16 -->
<g id="edge18" class="edge">
<title>Node14&#45;&gt;Node16</title>
<path fill="none" stroke="midnightblue" d="M429.54,-318.84C389.45,-294.56 285.47,-223.93 329.5,-168 369.75,-116.87 409.2,-147.39 477.45,-131.89"/>
<polygon fill="midnightblue" stroke="midnightblue" points="478.45,-135.25 487.28,-129.39 476.72,-128.46 478.45,-135.25"/>
</g>
<!-- Node17 -->
<g id="node17" class="node">
<title>Node17</title>
<g id="a_node17"><a xlink:href="basic_8hpp.html" target="_top" xlink:title="Provides various type traits on generic types.">
<polygon fill="white" stroke="black" points="517,-168.5 517,-198.5 620,-198.5 620,-168.5 517,-168.5"/>
<text text-anchor="start" x="525" y="-186.5" font-family="Helvetica,sans-Serif" font-size="10.00">bio/meta/type_traits</text>
<text text-anchor="middle" x="568.5" y="-175.5" font-family="Helvetica,sans-Serif" font-size="10.00">/basic.hpp</text>
</a>
</g>
</g>
<!-- Node14&#45;&gt;Node17 -->
<g id="edge19" class="edge">
<title>Node14&#45;&gt;Node17</title>
<path fill="none" stroke="midnightblue" d="M505.11,-318.98C553.03,-310.87 614.3,-296.91 629.5,-277 640.83,-262.16 637.44,-251.89 629.5,-235 623.77,-222.83 613.51,-212.58 603.02,-204.57"/>
<polygon fill="midnightblue" stroke="midnightblue" points="604.82,-201.56 594.64,-198.63 600.78,-207.27 604.82,-201.56"/>
</g>
<!-- Node18 -->
<g id="node18" class="node">
<title>Node18</title>
<g id="a_node18"><a xlink:href="type__traits_8hpp.html" target="_top" xlink:title="Provides various transformation traits used by the range module.">
<polygon fill="white" stroke="black" points="491,-246.5 491,-265.5 620,-265.5 620,-246.5 491,-246.5"/>
<text text-anchor="middle" x="555.5" y="-253.5" font-family="Helvetica,sans-Serif" font-size="10.00">bio/ranges/type_traits.hpp</text>
</a>
</g>
</g>
<!-- Node14&#45;&gt;Node18 -->
<g id="edge23" class="edge">
<title>Node14&#45;&gt;Node18</title>
<path fill="none" stroke="midnightblue" d="M458.11,-318.86C476.83,-306.96 510.77,-285.41 533.22,-271.15"/>
<polygon fill="midnightblue" stroke="midnightblue" points="535.21,-274.03 541.78,-265.72 531.46,-268.12 535.21,-274.03"/>
</g>
<!-- Node17&#45;&gt;Node4 -->
<g id="edge21" class="edge">
<title>Node17&#45;&gt;Node4</title>
<path fill="none" stroke="midnightblue" d="M569.92,-168.4C570.72,-160.47 571.73,-150.46 572.6,-141.86"/>
<polygon fill="midnightblue" stroke="midnightblue" points="576.11,-141.96 573.63,-131.66 569.14,-141.26 576.11,-141.96"/>
</g>
<!-- Node17&#45;&gt;Node6 -->
<g id="edge22" class="edge">
<title>Node17&#45;&gt;Node6</title>
<path fill="none" stroke="midnightblue" d="M588.01,-168.41C610.23,-152.88 648.06,-127.98 683.5,-112 715.82,-97.43 754.18,-85.86 783.61,-78.11"/>
<polygon fill="midnightblue" stroke="midnightblue" points="784.81,-81.41 793.62,-75.52 783.06,-74.63 784.81,-81.41"/>
</g>
<!-- Node17&#45;&gt;Node16 -->
<g id="edge20" class="edge">
<title>Node17&#45;&gt;Node16</title>
<path fill="none" stroke="midnightblue" d="M553.81,-168.4C544.52,-159.49 532.5,-147.95 522.9,-138.74"/>
<polygon fill="midnightblue" stroke="midnightblue" points="525.16,-136.06 515.52,-131.66 520.31,-141.11 525.16,-136.06"/>
</g>
<!-- Node18&#45;&gt;Node4 -->
<g id="edge26" class="edge">
<title>Node18&#45;&gt;Node4</title>
<path fill="none" stroke="midnightblue" d="M544.7,-246.38C526.53,-230.79 493.26,-196.84 508.5,-168 515.92,-153.95 529.92,-143.47 543.12,-136.17"/>
<polygon fill="midnightblue" stroke="midnightblue" points="544.72,-139.28 552.04,-131.62 541.54,-133.04 544.72,-139.28"/>
</g>
<!-- Node18&#45;&gt;Node12 -->
<g id="edge24" class="edge">
<title>Node18&#45;&gt;Node12</title>
<path fill="none" stroke="midnightblue" d="M546.11,-246.28C534.8,-235.59 515.45,-216.7 500.5,-199 484.31,-179.84 467.69,-156.22 457.02,-140.45"/>
<polygon fill="midnightblue" stroke="midnightblue" points="459.67,-138.11 451.2,-131.75 453.85,-142.01 459.67,-138.11"/>
</g>
<!-- Node18&#45;&gt;Node13 -->
<g id="edge28" class="edge">
<title>Node18&#45;&gt;Node13</title>
<path fill="none" stroke="midnightblue" d="M541.85,-246.34C506.66,-224 412.57,-164.29 369.53,-136.98"/>
<polygon fill="midnightblue" stroke="midnightblue" points="371.25,-133.92 360.93,-131.52 367.5,-139.83 371.25,-133.92"/>
</g>
<!-- Node18&#45;&gt;Node15 -->
<g id="edge25" class="edge">
<title>Node18&#45;&gt;Node15</title>
<path fill="none" stroke="midnightblue" d="M530.67,-246.41C499.65,-235.61 444.98,-216.39 398.5,-199 396.61,-198.29 394.67,-197.56 392.71,-196.81"/>
<polygon fill="midnightblue" stroke="midnightblue" points="393.57,-193.39 382.98,-193.05 391.04,-199.92 393.57,-193.39"/>
</g>
<!-- Node18&#45;&gt;Node17 -->
<g id="edge27" class="edge">
<title>Node18&#45;&gt;Node17</title>
<path fill="none" stroke="midnightblue" d="M557.09,-246.36C558.83,-236.96 561.67,-221.52 564.09,-208.42"/>
<polygon fill="midnightblue" stroke="midnightblue" points="567.53,-209.05 565.9,-198.58 560.65,-207.78 567.53,-209.05"/>
</g>
<!-- Node19&#45;&gt;Node3 -->
<g id="edge33" class="edge">
<title>Node19&#45;&gt;Node3</title>
<path fill="none" stroke="midnightblue" d="M373.73,-392.15C334.15,-387.17 286.65,-374.57 255.5,-344 240.33,-329.12 234.21,-305.68 231.82,-286.89"/>
<polygon fill="midnightblue" stroke="midnightblue" points="235.28,-286.34 230.81,-276.73 228.31,-287.02 235.28,-286.34"/>
</g>
<!-- Node19&#45;&gt;Node14 -->
<g id="edge66" class="edge">
<title>Node19&#45;&gt;Node14</title>
<path fill="none" stroke="midnightblue" d="M444.5,-385.73C444.5,-376.18 444.5,-360.62 444.5,-348.28"/>
<polygon fill="midnightblue" stroke="midnightblue" points="448,-348.13 444.5,-338.13 441,-348.13 448,-348.13"/>
</g>
<!-- Node19&#45;&gt;Node15 -->
<g id="edge32" class="edge">
<title>Node19&#45;&gt;Node15</title>
<path fill="none" stroke="midnightblue" d="M421.13,-385.86C403.31,-377.92 379.95,-364.28 368.5,-344 343.01,-298.86 351.03,-234.54 357.2,-203.16"/>
<polygon fill="midnightblue" stroke="midnightblue" points="360.66,-203.7 359.32,-193.19 353.82,-202.24 360.66,-203.7"/>
</g>
<!-- Node19&#45;&gt;Node18 -->
<g id="edge65" class="edge">
<title>Node19&#45;&gt;Node18</title>
<path fill="none" stroke="midnightblue" d="M464.05,-385.94C481.28,-377.51 505.99,-363.12 521.5,-344 537.99,-323.67 547.2,-294.39 551.76,-275.53"/>
<polygon fill="midnightblue" stroke="midnightblue" points="555.23,-276.06 553.97,-265.54 548.39,-274.54 555.23,-276.06"/>
</g>
<!-- Node20 -->
<g id="node20" class="node">
<title>Node20</title>
<g id="a_node20"><a target="_blank" xlink:href="https://en.cppreference.com/w/cpp/header/algorithm.html" xlink:title=" ">
<polygon fill="white" stroke="black" points="264.5,-319 264.5,-338 320.5,-338 320.5,-319 264.5,-319"/>
<text text-anchor="middle" x="292.5" y="-326" font-family="Helvetica,sans-Serif" font-size="10.00">algorithm</text>
</a>
</g>
</g>
<!-- Node19&#45;&gt;Node20 -->
<g id="edge30" class="edge">
<title>Node19&#45;&gt;Node20</title>
<path fill="none" stroke="midnightblue" d="M424.32,-385.87C398.2,-374.7 352.47,-355.15 322.34,-342.26"/>
<polygon fill="midnightblue" stroke="midnightblue" points="323.34,-338.88 312.77,-338.17 320.59,-345.32 323.34,-338.88"/>
</g>
<!-- Node19&#45;&gt;Node21 -->
<g id="edge31" class="edge">
<title>Node19&#45;&gt;Node21</title>
<path fill="none" stroke="midnightblue" d="M515.17,-390.1C607.7,-383.61 774.68,-369.42 915.5,-344 1033.78,-322.65 1071.49,-333.63 1177.5,-277 1223.31,-252.53 1243.33,-246.42 1264.5,-199 1272.55,-180.97 1271.19,-158.04 1268.67,-142.11"/>
<polygon fill="midnightblue" stroke="midnightblue" points="1272.04,-141.09 1266.74,-131.91 1265.16,-142.39 1272.04,-141.09"/>
</g>
<!-- Node22 -->
<g id="node22" class="node">
<title>Node22</title>
<g id="a_node22"><a xlink:href="ranges_2concept_8hpp.html" target="_top" xlink:title="Additional non&#45;standard concepts for ranges.">
<polygon fill="white" stroke="black" points="606.5,-319 606.5,-338 724.5,-338 724.5,-319 606.5,-319"/>
<text text-anchor="middle" x="665.5" y="-326" font-family="Helvetica,sans-Serif" font-size="10.00">bio/ranges/concept.hpp</text>
</a>
</g>
</g>
<!-- Node19&#45;&gt;Node22 -->
<g id="edge34" class="edge">
<title>Node19&#45;&gt;Node22</title>
<path fill="none" stroke="midnightblue" d="M473.85,-385.87C513.17,-374.3 583.05,-353.75 626.69,-340.91"/>
<polygon fill="midnightblue" stroke="midnightblue" points="627.78,-344.24 636.38,-338.06 625.8,-337.53 627.78,-344.24"/>
</g>
<!-- Node34 -->
<g id="node34" class="node">
<title>Node34</title>
<g id="a_node34"><a xlink:href="ranges_2container_2concept_8hpp.html" target="_top" xlink:title="Adaptations of concepts from the standard library.">
<polygon fill="white" stroke="black" points="676.5,-168.5 676.5,-198.5 780.5,-198.5 780.5,-168.5 676.5,-168.5"/>
<text text-anchor="start" x="684.5" y="-186.5" font-family="Helvetica,sans-Serif" font-size="10.00">bio/ranges/container</text>
<text text-anchor="middle" x="728.5" y="-175.5" font-family="Helvetica,sans-Serif" font-size="10.00">/concept.hpp</text>
</a>
</g>
</g>
<!-- Node19&#45;&gt;Node34 -->
<g id="edge58" class="edge">
<title>Node19&#45;&gt;Node34</title>
<path fill="none" stroke="midnightblue" d="M462.69,-385.93C482.78,-376.31 515.94,-359.93 543.5,-344 567.14,-330.33 625.81,-294.82 646.5,-277 671.43,-255.53 695.91,-226.6 711.54,-206.84"/>
<polygon fill="midnightblue" stroke="midnightblue" points="714.47,-208.77 717.87,-198.73 708.95,-204.46 714.47,-208.77"/>
</g>
<!-- Node22&#45;&gt;Node15 -->
<g id="edge35" class="edge">
<title>Node22&#45;&gt;Node15</title>
<path fill="none" stroke="midnightblue" d="M606.22,-323.35C560.47,-317.96 497,-305.55 448.5,-277 426.81,-264.23 427.71,-253.37 410.5,-235 399.56,-223.32 386.99,-210.38 377.32,-200.51"/>
<polygon fill="midnightblue" stroke="midnightblue" points="379.78,-198.02 370.27,-193.35 374.79,-202.93 379.78,-198.02"/>
</g>
<!-- Node23 -->
<g id="node23" class="node">
<title>Node23</title>
<g id="a_node23"><a xlink:href="alphabet_2concept_8hpp.html" target="_top" xlink:title="Core alphabet concept and free function/type trait wrappers.">
<polygon fill="white" stroke="black" points="859,-246.5 859,-265.5 984,-265.5 984,-246.5 859,-246.5"/>
<text text-anchor="middle" x="921.5" y="-253.5" font-family="Helvetica,sans-Serif" font-size="10.00">bio/alphabet/concept.hpp</text>
</a>
</g>
</g>
<!-- Node22&#45;&gt;Node23 -->
<g id="edge36" class="edge">
<title>Node22&#45;&gt;Node23</title>
<path fill="none" stroke="midnightblue" d="M696.38,-319C742.51,-306.29 829.46,-282.35 880.75,-268.22"/>
<polygon fill="midnightblue" stroke="midnightblue" points="881.8,-271.56 890.51,-265.53 879.94,-264.81 881.8,-271.56"/>
</g>
<!-- Node23&#45;&gt;Node4 -->
<g id="edge37" class="edge">
<title>Node23&#45;&gt;Node4</title>
<path fill="none" stroke="midnightblue" d="M858.8,-249.4C805.7,-242.77 728.66,-228.63 667.5,-199 667.23,-198.87 620.2,-160.4 593.13,-138.25"/>
<polygon fill="midnightblue" stroke="midnightblue" points="595.08,-135.32 585.13,-131.7 590.65,-140.74 595.08,-135.32"/>
</g>
<!-- Node23&#45;&gt;Node17 -->
<g id="edge57" class="edge">
<title>Node23&#45;&gt;Node17</title>
<path fill="none" stroke="midnightblue" d="M875.7,-246.41C819,-235.69 719.5,-216.63 634.5,-199 633.06,-198.7 631.61,-198.4 630.15,-198.09"/>
<polygon fill="midnightblue" stroke="midnightblue" points="630.86,-194.67 620.36,-196.01 629.41,-201.51 630.86,-194.67"/>
</g>
<!-- Node24 -->
<g id="node24" class="node">
<title>Node24</title>
<g id="a_node24"><a xlink:href="alphabet_2biocpp_8hpp.html" target="_top" xlink:title="Module header with module&#45;wide definitions.">
<polygon fill="white" stroke="black" points="963,-112.5 963,-131.5 1082,-131.5 1082,-112.5 963,-112.5"/>
<text text-anchor="middle" x="1022.5" y="-119.5" font-family="Helvetica,sans-Serif" font-size="10.00">bio/alphabet/biocpp.hpp</text>
</a>
</g>
</g>
<!-- Node23&#45;&gt;Node24 -->
<g id="edge38" class="edge">
<title>Node23&#45;&gt;Node24</title>
<path fill="none" stroke="midnightblue" d="M975.25,-246.47C1003.33,-238.98 1035.33,-225.01 1052.5,-199 1064.9,-180.22 1050.41,-155.53 1037.6,-139.47"/>
<polygon fill="midnightblue" stroke="midnightblue" points="1039.98,-136.87 1030.84,-131.53 1034.65,-141.41 1039.98,-136.87"/>
</g>
<!-- Node25 -->
<g id="node25" class="node">
<title>Node25</title>
<g id="a_node25"><a xlink:href="exception_8hpp.html" target="_top" xlink:title="Exceptions thrown by entities in the alphabet module.">
<polygon fill="white" stroke="black" points="1100,-174 1100,-193 1233,-193 1233,-174 1100,-174"/>
<text text-anchor="middle" x="1166.5" y="-181" font-family="Helvetica,sans-Serif" font-size="10.00">bio/alphabet/exception.hpp</text>
</a>
</g>
</g>
<!-- Node23&#45;&gt;Node25 -->
<g id="edge40" class="edge">
<title>Node23&#45;&gt;Node25</title>
<path fill="none" stroke="midnightblue" d="M951.05,-246.5C995.11,-233.82 1078.07,-209.95 1127.2,-195.81"/>
<polygon fill="midnightblue" stroke="midnightblue" points="1128.2,-199.16 1136.84,-193.03 1126.26,-192.44 1128.2,-199.16"/>
</g>
<!-- Node28 -->
<g id="node28" class="node">
<title>Node28</title>
<g id="a_node28"><a xlink:href="core__language_8hpp.html" target="_top" xlink:title="Provides concepts for core language types and relations that don&#39;t have concepts in C++20 (yet).">
<polygon fill="white" stroke="black" points="930,-168.5 930,-198.5 1043,-198.5 1043,-168.5 930,-168.5"/>
<text text-anchor="start" x="938" y="-186.5" font-family="Helvetica,sans-Serif" font-size="10.00">bio/meta/concept/core</text>
<text text-anchor="middle" x="986.5" y="-175.5" font-family="Helvetica,sans-Serif" font-size="10.00">_language.hpp</text>
</a>
</g>
</g>
<!-- Node23&#45;&gt;Node28 -->
<g id="edge45" class="edge">
<title>Node23&#45;&gt;Node28</title>
<path fill="none" stroke="midnightblue" d="M929.47,-246.36C938.65,-236.4 954.08,-219.67 966.57,-206.11"/>
<polygon fill="midnightblue" stroke="midnightblue" points="969.32,-208.3 973.52,-198.58 964.17,-203.56 969.32,-208.3"/>
</g>
<!-- Node29 -->
<g id="node29" class="node">
<title>Node29</title>
<g id="a_node29"><a xlink:href="priority__tag_8hpp.html" target="_top" xlink:title="provides bio::meta::detail::priority_tag.">
<polygon fill="white" stroke="black" points="799,-168.5 799,-198.5 912,-198.5 912,-168.5 799,-168.5"/>
<text text-anchor="start" x="807" y="-186.5" font-family="Helvetica,sans-Serif" font-size="10.00">bio/meta/detail/priority</text>
<text text-anchor="middle" x="855.5" y="-175.5" font-family="Helvetica,sans-Serif" font-size="10.00">_tag.hpp</text>
</a>
</g>
</g>
<!-- Node23&#45;&gt;Node29 -->
<g id="edge49" class="edge">
<title>Node23&#45;&gt;Node29</title>
<path fill="none" stroke="midnightblue" d="M913.41,-246.36C904.08,-236.4 888.42,-219.67 875.73,-206.11"/>
<polygon fill="midnightblue" stroke="midnightblue" points="878.07,-203.48 868.68,-198.58 872.96,-208.27 878.07,-203.48"/>
</g>
<!-- Node30 -->
<g id="node30" class="node">
<title>Node30</title>
<g id="a_node30"><a xlink:href="type__inspection_8hpp.html" target="_top" xlink:title="Provides traits to inspect some information of a type, for example its name.">
<polygon fill="white" stroke="black" points="1403.5,-168.5 1403.5,-198.5 1505.5,-198.5 1505.5,-168.5 1403.5,-168.5"/>
<text text-anchor="start" x="1411.5" y="-186.5" font-family="Helvetica,sans-Serif" font-size="10.00">bio/meta/detail/type</text>
<text text-anchor="middle" x="1454.5" y="-175.5" font-family="Helvetica,sans-Serif" font-size="10.00">_inspection.hpp</text>
</a>
</g>
</g>
<!-- Node23&#45;&gt;Node30 -->
<g id="edge51" class="edge">
<title>Node23&#45;&gt;Node30</title>
<path fill="none" stroke="midnightblue" d="M984.21,-246.71C1087.17,-233.09 1290.79,-206.15 1392.97,-192.64"/>
<polygon fill="midnightblue" stroke="midnightblue" points="1393.68,-196.08 1403.14,-191.29 1392.76,-189.14 1393.68,-196.08"/>
</g>
<!-- Node24&#45;&gt;Node6 -->
<g id="edge39" class="edge">
<title>Node24&#45;&gt;Node6</title>
<path fill="none" stroke="midnightblue" d="M992.08,-112.44C959.22,-103.2 906.72,-88.44 870.53,-78.26"/>
<polygon fill="midnightblue" stroke="midnightblue" points="871.35,-74.85 860.78,-75.52 869.46,-81.59 871.35,-74.85"/>
</g>
<!-- Node25&#45;&gt;Node21 -->
<g id="edge41" class="edge">
<title>Node25&#45;&gt;Node21</title>
<path fill="none" stroke="midnightblue" d="M1180.54,-173.98C1196.55,-164.25 1222.95,-148.23 1241.87,-136.74"/>
<polygon fill="midnightblue" stroke="midnightblue" points="1243.75,-139.69 1250.49,-131.51 1240.12,-133.71 1243.75,-139.69"/>
</g>
<!-- Node25&#45;&gt;Node24 -->
<g id="edge44" class="edge">
<title>Node25&#45;&gt;Node24</title>
<path fill="none" stroke="midnightblue" d="M1145.87,-173.98C1121.38,-163.86 1080.35,-146.9 1052.39,-135.35"/>
<polygon fill="midnightblue" stroke="midnightblue" points="1053.67,-132.09 1043.09,-131.51 1051,-138.56 1053.67,-132.09"/>
</g>
<!-- Node26 -->
<g id="node26" class="node">
<title>Node26</title>
<g id="a_node26"><a target="_blank" xlink:href="https://en.cppreference.com/w/cpp/header/stdexcept.html" xlink:title=" ">
<polygon fill="white" stroke="black" points="1100,-112.5 1100,-131.5 1159,-131.5 1159,-112.5 1100,-112.5"/>
<text text-anchor="middle" x="1129.5" y="-119.5" font-family="Helvetica,sans-Serif" font-size="10.00">stdexcept</text>
</a>
</g>
</g>
<!-- Node25&#45;&gt;Node26 -->
<g id="edge42" class="edge">
<title>Node25&#45;&gt;Node26</title>
<path fill="none" stroke="midnightblue" d="M1161.2,-173.98C1155.76,-165.23 1147.14,-151.37 1140.26,-140.31"/>
<polygon fill="midnightblue" stroke="midnightblue" points="1143.04,-138.15 1134.79,-131.51 1137.1,-141.85 1143.04,-138.15"/>
</g>
<!-- Node27 -->
<g id="node27" class="node">
<title>Node27</title>
<g id="a_node27"><a target="_blank" xlink:href="https://en.cppreference.com/w/cpp/header/string.html" xlink:title=" ">
<polygon fill="white" stroke="black" points="1177,-112.5 1177,-131.5 1218,-131.5 1218,-112.5 1177,-112.5"/>
<text text-anchor="middle" x="1197.5" y="-119.5" font-family="Helvetica,sans-Serif" font-size="10.00">string</text>
</a>
</g>
</g>
<!-- Node25&#45;&gt;Node27 -->
<g id="edge43" class="edge">
<title>Node25&#45;&gt;Node27</title>
<path fill="none" stroke="midnightblue" d="M1170.94,-173.98C1175.45,-165.32 1182.57,-151.65 1188.31,-140.65"/>
<polygon fill="midnightblue" stroke="midnightblue" points="1191.55,-141.99 1193.07,-131.51 1185.34,-138.76 1191.55,-141.99"/>
</g>
<!-- Node28&#45;&gt;Node4 -->
<g id="edge46" class="edge">
<title>Node28&#45;&gt;Node4</title>
<path fill="none" stroke="midnightblue" d="M929.84,-169.54C927.02,-169 924.23,-168.48 921.5,-168 811.84,-148.7 681.32,-133.97 616.03,-127.16"/>
<polygon fill="midnightblue" stroke="midnightblue" points="616.06,-123.64 605.75,-126.09 615.34,-130.6 616.06,-123.64"/>
</g>
<!-- Node28&#45;&gt;Node6 -->
<g id="edge47" class="edge">
<title>Node28&#45;&gt;Node6</title>
<path fill="none" stroke="midnightblue" d="M967.37,-168.34C937.6,-146.3 880.48,-104.01 850.31,-81.66"/>
<polygon fill="midnightblue" stroke="midnightblue" points="852.33,-78.81 842.21,-75.67 848.16,-84.43 852.33,-78.81"/>
</g>
<!-- Node28&#45;&gt;Node21 -->
<g id="edge48" class="edge">
<title>Node28&#45;&gt;Node21</title>
<path fill="none" stroke="midnightblue" d="M1043.1,-171.17C1089.71,-161.72 1157.79,-147.65 1226.15,-132.25"/>
<polygon fill="midnightblue" stroke="midnightblue" points="1227.26,-135.59 1236.24,-129.97 1225.71,-128.76 1227.26,-135.59"/>
</g>
<!-- Node29&#45;&gt;Node6 -->
<g id="edge50" class="edge">
<title>Node29&#45;&gt;Node6</title>
<path fill="none" stroke="midnightblue" d="M852.43,-168.34C847.93,-147.53 839.52,-108.66 834.52,-85.58"/>
<polygon fill="midnightblue" stroke="midnightblue" points="837.91,-84.7 832.38,-75.67 831.07,-86.18 837.91,-84.7"/>
</g>
<!-- Node30&#45;&gt;Node6 -->
<g id="edge56" class="edge">
<title>Node30&#45;&gt;Node6</title>
<path fill="none" stroke="midnightblue" d="M1424.44,-168.34C1381.73,-148.25 1307.89,-113.72 1301.5,-112 1160.66,-74 988.56,-67.07 896.35,-66.38"/>
<polygon fill="midnightblue" stroke="midnightblue" points="896.34,-62.88 886.32,-66.33 896.3,-69.88 896.34,-62.88"/>
</g>
<!-- Node30&#45;&gt;Node27 -->
<g id="edge54" class="edge">
<title>Node30&#45;&gt;Node27</title>
<path fill="none" stroke="midnightblue" d="M1403.31,-172.22C1359.3,-163.13 1293.95,-149.04 1227.86,-131.94"/>
<polygon fill="midnightblue" stroke="midnightblue" points="1228.66,-128.53 1218.1,-129.39 1226.89,-135.31 1228.66,-128.53"/>
</g>
<!-- Node31 -->
<g id="node31" class="node">
<title>Node31</title>
<g id="a_node31"><a target="_blank" xlink:href="https://en.cppreference.com/w/cpp/header/functional.html" xlink:title=" ">
<polygon fill="white" stroke="black" points="1425,-112.5 1425,-131.5 1484,-131.5 1484,-112.5 1425,-112.5"/>
<text text-anchor="middle" x="1454.5" y="-119.5" font-family="Helvetica,sans-Serif" font-size="10.00">functional</text>
</a>
</g>
</g>
<!-- Node30&#45;&gt;Node31 -->
<g id="edge52" class="edge">
<title>Node30&#45;&gt;Node31</title>
<path fill="none" stroke="midnightblue" d="M1454.5,-168.4C1454.5,-160.47 1454.5,-150.46 1454.5,-141.86"/>
<polygon fill="midnightblue" stroke="midnightblue" points="1458,-141.66 1454.5,-131.66 1451,-141.66 1458,-141.66"/>
</g>
<!-- Node32 -->
<g id="node32" class="node">
<title>Node32</title>
<g id="a_node32"><a target="_blank" xlink:href="https://en.cppreference.com/w/cpp/header/memory.html" xlink:title=" ">
<polygon fill="white" stroke="black" points="1502.5,-112.5 1502.5,-131.5 1554.5,-131.5 1554.5,-112.5 1502.5,-112.5"/>
<text text-anchor="middle" x="1528.5" y="-119.5" font-family="Helvetica,sans-Serif" font-size="10.00">memory</text>
</a>
</g>
</g>
<!-- Node30&#45;&gt;Node32 -->
<g id="edge53" class="edge">
<title>Node30&#45;&gt;Node32</title>
<path fill="none" stroke="midnightblue" d="M1472.04,-168.4C1483.34,-159.31 1498.04,-147.49 1509.61,-138.19"/>
<polygon fill="midnightblue" stroke="midnightblue" points="1512.13,-140.65 1517.73,-131.66 1507.75,-135.2 1512.13,-140.65"/>
</g>
<!-- Node33 -->
<g id="node33" class="node">
<title>Node33</title>
<g id="a_node33"><a target="_blank" xlink:href="https://en.cppreference.com/w/cpp/header/typeinfo.html" xlink:title=" ">
<polygon fill="white" stroke="black" points="1356,-112.5 1356,-131.5 1407,-131.5 1407,-112.5 1356,-112.5"/>
<text text-anchor="middle" x="1381.5" y="-119.5" font-family="Helvetica,sans-Serif" font-size="10.00">typeinfo</text>
</a>
</g>
</g>
<!-- Node30&#45;&gt;Node33 -->
<g id="edge55" class="edge">
<title>Node30&#45;&gt;Node33</title>
<path fill="none" stroke="midnightblue" d="M1437.2,-168.4C1426.05,-159.31 1411.55,-147.49 1400.14,-138.19"/>
<polygon fill="midnightblue" stroke="midnightblue" points="1402.08,-135.26 1392.12,-131.66 1397.66,-140.69 1402.08,-135.26"/>
</g>
<!-- Node34&#45;&gt;Node4 -->
<g id="edge61" class="edge">
<title>Node34&#45;&gt;Node4</title>
<path fill="none" stroke="midnightblue" d="M692,-168.4C665.93,-158.33 631.21,-144.91 606.28,-135.28"/>
<polygon fill="midnightblue" stroke="midnightblue" points="607.5,-132 596.91,-131.66 604.97,-138.53 607.5,-132"/>
</g>
<!-- Node34&#45;&gt;Node6 -->
<g id="edge64" class="edge">
<title>Node34&#45;&gt;Node6</title>
<path fill="none" stroke="midnightblue" d="M741.49,-168.45C750.77,-158.37 763.49,-144.43 774.5,-132 788.92,-115.72 805.11,-96.87 816.36,-83.67"/>
<polygon fill="midnightblue" stroke="midnightblue" points="819.16,-85.78 822.97,-75.9 813.82,-81.25 819.16,-85.78"/>
</g>
<!-- Node34&#45;&gt;Node12 -->
<g id="edge60" class="edge">
<title>Node34&#45;&gt;Node12</title>
<path fill="none" stroke="midnightblue" d="M676.09,-172.97C627.53,-163.9 553.1,-149.4 479.19,-132.04"/>
<polygon fill="midnightblue" stroke="midnightblue" points="479.78,-128.58 469.24,-129.68 478.17,-135.39 479.78,-128.58"/>
</g>
<!-- Node34&#45;&gt;Node21 -->
<g id="edge63" class="edge">
<title>Node34&#45;&gt;Node21</title>
<path fill="none" stroke="midnightblue" d="M780.82,-169.69C784.09,-169.07 787.33,-168.5 790.5,-168 979.82,-138.23 1033.35,-162.3 1226.41,-131.92"/>
<polygon fill="midnightblue" stroke="midnightblue" points="1226.99,-135.38 1236.31,-130.34 1225.88,-128.46 1226.99,-135.38"/>
</g>
<!-- Node34&#45;&gt;Node27 -->
<g id="edge62" class="edge">
<title>Node34&#45;&gt;Node27</title>
<path fill="none" stroke="midnightblue" d="M780.83,-169.74C784.09,-169.1 787.34,-168.52 790.5,-168 953.79,-141.26 1001.19,-164.25 1166.69,-132"/>
<polygon fill="midnightblue" stroke="midnightblue" points="1167.6,-135.39 1176.72,-130.01 1166.23,-128.53 1167.6,-135.39"/>
</g>
<!-- Node35 -->
<g id="node35" class="node">
<title>Node35</title>
<g id="a_node35"><a target="_blank" xlink:href="https://en.cppreference.com/w/cpp/header/initializer_list.html" xlink:title=" ">
<polygon fill="white" stroke="black" points="692,-112.5 692,-131.5 765,-131.5 765,-112.5 692,-112.5"/>
<text text-anchor="middle" x="728.5" y="-119.5" font-family="Helvetica,sans-Serif" font-size="10.00">initializer_list</text>
</a>
</g>
</g>
<!-- Node34&#45;&gt;Node35 -->
<g id="edge59" class="edge">
<title>Node34&#45;&gt;Node35</title>
<path fill="none" stroke="midnightblue" d="M728.5,-168.4C728.5,-160.47 728.5,-150.46 728.5,-141.86"/>
<polygon fill="midnightblue" stroke="midnightblue" points="732,-141.66 728.5,-131.66 725,-141.66 732,-141.66"/>
</g>
<!-- Node36&#45;&gt;Node14 -->
<g id="edge73" class="edge">
<title>Node36&#45;&gt;Node14</title>
<path fill="none" stroke="midnightblue" d="M742.41,-384.2C676.3,-372.06 567.09,-352.01 500.86,-339.85"/>
<polygon fill="midnightblue" stroke="midnightblue" points="501.48,-336.4 491.01,-338.04 500.22,-343.29 501.48,-336.4"/>
</g>
<!-- Node36&#45;&gt;Node15 -->
<g id="edge75" class="edge">
<title>Node36&#45;&gt;Node15</title>
<path fill="none" stroke="midnightblue" d="M791.52,-380.23C781.5,-361.41 761.14,-328.83 733.5,-313 635.7,-257 582.33,-329.28 482.5,-277 459.93,-265.18 463.19,-251.16 443.5,-235 426.11,-220.73 404.34,-207.5 387.6,-198.17"/>
<polygon fill="midnightblue" stroke="midnightblue" points="388.85,-194.87 378.4,-193.15 385.5,-201.01 388.85,-194.87"/>
</g>
<!-- Node36&#45;&gt;Node21 -->
<g id="edge74" class="edge">
<title>Node36&#45;&gt;Node21</title>
<path fill="none" stroke="midnightblue" d="M854.51,-393.86C962.29,-391.75 1193.98,-382.71 1262.5,-344 1295.08,-325.59 1301.54,-312.46 1313.5,-277 1328.98,-231.1 1332.99,-212.35 1313.5,-168 1308.11,-155.73 1297.54,-145.34 1287.6,-137.65"/>
<polygon fill="midnightblue" stroke="midnightblue" points="1289.33,-134.58 1279.16,-131.6 1285.25,-140.27 1289.33,-134.58"/>
</g>
<!-- Node36&#45;&gt;Node22 -->
<g id="edge72" class="edge">
<title>Node36&#45;&gt;Node22</title>
<path fill="none" stroke="midnightblue" d="M769.64,-380.4C746.61,-369.14 714.61,-353.5 692.18,-342.54"/>
<polygon fill="midnightblue" stroke="midnightblue" points="693.43,-339.25 682.91,-338.01 690.35,-345.54 693.43,-339.25"/>
</g>
<!-- Node37 -->
<g id="node37" class="node">
<title>Node37</title>
<g id="a_node37"><a target="_blank" xlink:href="https://en.cppreference.com/w/cpp/header/string_view.html" xlink:title=" ">
<polygon fill="white" stroke="black" points="1187.5,-319 1187.5,-338 1253.5,-338 1253.5,-319 1187.5,-319"/>
<text text-anchor="middle" x="1220.5" y="-326" font-family="Helvetica,sans-Serif" font-size="10.00">string_view</text>
</a>
</g>
</g>
<!-- Node36&#45;&gt;Node37 -->
<g id="edge68" class="edge">
<title>Node36&#45;&gt;Node37</title>
<path fill="none" stroke="midnightblue" d="M854.6,-389.86C928.36,-383.11 1061.71,-368.6 1173.5,-344 1177.42,-343.14 1181.49,-342.1 1185.52,-340.99"/>
<polygon fill="midnightblue" stroke="midnightblue" points="1186.73,-344.28 1195.34,-338.1 1184.76,-337.56 1186.73,-344.28"/>
</g>
<!-- Node38 -->
<g id="node38" class="node">
<title>Node38</title>
<g id="a_node38"><a xlink:href="template__inspection_8hpp.html" target="_top" xlink:title="Provides various traits to inspect templates.">
<polygon fill="white" stroke="black" points="781,-313.5 781,-343.5 906,-343.5 906,-313.5 781,-313.5"/>
<text text-anchor="start" x="789" y="-331.5" font-family="Helvetica,sans-Serif" font-size="10.00">bio/meta/type_traits</text>
<text text-anchor="middle" x="843.5" y="-320.5" font-family="Helvetica,sans-Serif" font-size="10.00">/template_inspection.hpp</text>
</a>
</g>
</g>
<!-- Node36&#45;&gt;Node38 -->
<g id="edge69" class="edge">
<title>Node36&#45;&gt;Node38</title>
<path fill="none" stroke="midnightblue" d="M808.26,-380.4C814.04,-372.05 821.49,-361.29 828.05,-351.81"/>
<polygon fill="midnightblue" stroke="midnightblue" points="830.94,-353.79 833.75,-343.58 825.18,-349.81 830.94,-353.79"/>
</g>
<!-- Node39 -->
<g id="node39" class="node">
<title>Node39</title>
<g id="a_node39"><a target="_blank" xlink:href="https://en.cppreference.com/w/cpp/header/span.html" xlink:title=" ">
<polygon fill="white" stroke="black" points="1309.5,-319 1309.5,-338 1347.5,-338 1347.5,-319 1309.5,-319"/>
<text text-anchor="middle" x="1328.5" y="-326" font-family="Helvetica,sans-Serif" font-size="10.00">span</text>
</a>
</g>
</g>
<!-- Node36&#45;&gt;Node39 -->
<g id="edge76" class="edge">
<title>Node36&#45;&gt;Node39</title>
<path fill="none" stroke="midnightblue" d="M854.67,-394.46C947.83,-393.14 1139.51,-385.1 1295.5,-344 1297.8,-343.39 1300.14,-342.65 1302.46,-341.82"/>
<polygon fill="midnightblue" stroke="midnightblue" points="1303.78,-345.06 1311.74,-338.07 1301.16,-338.57 1303.78,-345.06"/>
</g>
<!-- Node38&#45;&gt;Node3 -->
<g id="edge70" class="edge">
<title>Node38&#45;&gt;Node3</title>
<path fill="none" stroke="midnightblue" d="M780.99,-319.04C765.48,-317 748.89,-314.87 733.5,-313 574.86,-293.72 387.75,-273.57 292.7,-263.52"/>
<polygon fill="midnightblue" stroke="midnightblue" points="292.99,-260.03 282.68,-262.46 292.25,-266.99 292.99,-260.03"/>
</g>
<!-- Node38&#45;&gt;Node21 -->
<g id="edge71" class="edge">
<title>Node38&#45;&gt;Node21</title>
<path fill="none" stroke="midnightblue" d="M906.19,-324.93C993.73,-317.91 1152.02,-292.21 1242.5,-199 1257.35,-183.7 1262.28,-159.02 1263.86,-141.96"/>
<polygon fill="midnightblue" stroke="midnightblue" points="1267.38,-141.77 1264.5,-131.57 1260.39,-141.34 1267.38,-141.77"/>
</g>
</g>
</svg>
