<?xml version="1.0" encoding="UTF-8" standalone="no"?>
<!DOCTYPE svg PUBLIC "-//W3C//DTD SVG 1.1//EN"
 "http://www.w3.org/Graphics/SVG/1.1/DTD/svg11.dtd">
<!-- Generated by graphviz version 2.43.0 (0)
 -->
<!-- Title: back_insertable Pages: 1 -->
<svg width="236pt" height="95pt"
 viewBox="0.00 0.00 235.50 95.00" xmlns="http://www.w3.org/2000/svg" xmlns:xlink="http://www.w3.org/1999/xlink">
<g id="graph0" class="graph" transform="scale(1 1) rotate(0) translate(4 91)">
<title>back_insertable</title>
<polygon fill="white" stroke="transparent" points="-4,4 -4,-91 231.5,-91 231.5,4 -4,4"/>
<!-- Node1 -->
<g id="node1" class="node">
<title>Node1</title>
<g id="a_node1"><a xlink:title="Describes range types that can grow in amortised constant time by appending an element.">
<polygon fill="#bfbfbf" stroke="black" points="68,-0.5 68,-19.5 162,-19.5 162,-0.5 68,-0.5"/>
<text text-anchor="middle" x="115" y="-7.5" font-family="Helvetica,sans-Serif" font-size="10.00">back_insertable</text>
</a>
</g>
</g>
<!-- Node2 -->
<g id="node2" class="node">
<title>Node2</title>
<g id="a_node2"><a xlink:title=" ">
<polygon fill="white" stroke="#bfbfbf" points="0,-56.5 0,-86.5 108,-86.5 108,-56.5 0,-56.5"/>
<text text-anchor="start" x="8" y="-74.5" font-family="Helvetica,sans-Serif" font-size="10.00">std::ranges::output</text>
<text text-anchor="middle" x="54" y="-63.5" font-family="Helvetica,sans-Serif" font-size="10.00">_range</text>
</a>
</g>
</g>
<!-- Node2&#45;&gt;Node1 -->
<g id="edge1" class="edge">
<title>Node2&#45;&gt;Node1</title>
<path fill="none" stroke="midnightblue" d="M75.73,-49.3C86.2,-39.09 98.18,-27.41 106.12,-19.66"/>
<polygon fill="midnightblue" stroke="midnightblue" points="73.17,-46.91 68.46,-56.4 78.06,-51.92 73.17,-46.91"/>
</g>
<!-- Node3 -->
<g id="node3" class="node">
<title>Node3</title>
<g id="a_node3"><a xlink:title=" ">
<polygon fill="white" stroke="#bfbfbf" points="126.5,-56.5 126.5,-86.5 227.5,-86.5 227.5,-56.5 126.5,-56.5"/>
<text text-anchor="start" x="134.5" y="-74.5" font-family="Helvetica,sans-Serif" font-size="10.00">std::ranges::input</text>
<text text-anchor="middle" x="177" y="-63.5" font-family="Helvetica,sans-Serif" font-size="10.00">_range</text>
</a>
</g>
</g>
<!-- Node3&#45;&gt;Node1 -->
<g id="edge2" class="edge">
<title>Node3&#45;&gt;Node1</title>
<path fill="none" stroke="midnightblue" d="M154.91,-49.3C144.27,-39.09 132.1,-27.41 124.02,-19.66"/>
<polygon fill="midnightblue" stroke="midnightblue" points="152.67,-52 162.31,-56.4 157.52,-46.95 152.67,-52"/>
</g>
</g>
</svg>
