<?xml version="1.0" encoding="UTF-8" standalone="no"?>
<!DOCTYPE svg PUBLIC "-//W3C//DTD SVG 1.1//EN"
 "http://www.w3.org/Graphics/SVG/1.1/DTD/svg11.dtd">
<!-- Generated by graphviz version 2.43.0 (0)
 -->
<!-- Title: writable_semialphabet Pages: 1 -->
<!--zoomable 1206 -->
<svg id="main" version="1.1" xmlns="http://www.w3.org/2000/svg" xmlns:xlink="http://www.w3.org/1999/xlink" xml:space="preserve" onload="init(evt)">
<style type="text/css"><![CDATA[
.edge:hover path { stroke: red; }
.edge:hover polygon { stroke: red; fill: red; }
]]></style>
<script type="text/javascript"><![CDATA[
var edges = document.getElementsByTagName('g');
if (edges && edges.length) {
  for (var i=0;i<edges.length;i++) {
    if (edges[i].id.substr(0,4)=='edge') {
      edges[i].setAttribute('class','edge');
    }
  }
}
]]></script>
        <defs>
                <circle id="rim" cx="0" cy="0" r="7"/>
                <circle id="rim2" cx="0" cy="0" r="3.5"/>
                <g id="zoomPlus">
                        <use xlink:href="#rim" fill="#404040">
                                <set attributeName="fill" to="#808080" begin="zoomplus.mouseover" end="zoomplus.mouseout"/>
                        </use>
                        <path d="M-4,0h8M0,-4v8" fill="none" stroke="white" stroke-width="1.5" pointer-events="none"/>
                </g>
                <g id="zoomMin">
                        <use xlink:href="#rim" fill="#404040">
                                <set attributeName="fill" to="#808080" begin="zoomminus.mouseover" end="zoomminus.mouseout"/>
                        </use>
                        <path d="M-4,0h8" fill="none" stroke="white" stroke-width="1.5" pointer-events="none"/>
                </g>
                <g id="dirArrow">
                        <path fill="none" stroke="white" stroke-width="1.5" d="M0,-3.0v7 M-2.5,-0.5L0,-3.0L2.5,-0.5"/>
                </g>
               <g id="resetDef">
                       <use xlink:href="#rim2" fill="#404040">
                               <set attributeName="fill" to="#808080" begin="reset.mouseover" end="reset.mouseout"/>
                       </use>
               </g>
        </defs>

<script type="text/javascript">
var viewWidth = 1203;
var viewHeight = 1206;
var sectionId = 'dynsection-0';
</script>
<script xlink:href="svgpan.js"/>
<svg id="graph" class="graph">
<g id="viewport">
<title>writable_semialphabet</title>
<polygon fill="white" stroke="transparent" points="-4,4 -4,-1202.08 1199,-1202.08 1199,4 -4,4"/>
<!-- Node1 -->
<g id="node1" class="node">
<title>Node1</title>
<g id="a_node1"><a xlink:title="A refinement of bio::semialphabet that adds assignability.">
<polygon fill="#bfbfbf" stroke="black" points="286,-846.5 286,-865.5 414,-865.5 414,-846.5 286,-846.5"/>
<text text-anchor="middle" x="350" y="-853.5" font-family="Helvetica,sans-Serif" font-size="10.00">writable_semialphabet</text>
</a>
</g>
</g>
<!-- Node5 -->
<g id="node5" class="node">
<title>Node5</title>
<g id="a_node5"><a xlink:href="classbio_1_1alphabet__tuple__base.html" target="_top" xlink:title=" ">
<polygon fill="white" stroke="black" points="817.5,-917 817.5,-969 948.5,-969 948.5,-917 817.5,-917"/>
<text text-anchor="start" x="825.5" y="-957" font-family="Helvetica,sans-Serif" font-size="10.00">bio::alphabet_tuple</text>
<text text-anchor="start" x="825.5" y="-946" font-family="Helvetica,sans-Serif" font-size="10.00">_base&lt; structured_aa</text>
<text text-anchor="start" x="825.5" y="-935" font-family="Helvetica,sans-Serif" font-size="10.00">&lt; aa27, dssp9 &gt;, aa27,</text>
<text text-anchor="middle" x="883" y="-924" font-family="Helvetica,sans-Serif" font-size="10.00"> dssp9 &gt;</text>
</a>
</g>
</g>
<!-- Node1&#45;&gt;Node5 -->
<g id="edge4" class="edge">
<title>Node1&#45;&gt;Node5</title>
<path fill="none" stroke="midnightblue" d="M397.77,-868.04C446.11,-880.12 523.91,-898.53 592,-910 668.95,-922.96 758.26,-932.27 817.22,-937.63"/>
<polygon fill="midnightblue" stroke="midnightblue" points="398.47,-864.61 387.91,-865.57 396.76,-871.4 398.47,-864.61"/>
</g>
<!-- Node7 -->
<g id="node7" class="node">
<title>Node7</title>
<g id="a_node7"><a xlink:href="classbio_1_1alphabet__tuple__base.html" target="_top" xlink:title=" ">
<polygon fill="white" stroke="black" points="807,-846 807,-898 959,-898 959,-846 807,-846"/>
<text text-anchor="start" x="815" y="-886" font-family="Helvetica,sans-Serif" font-size="10.00">bio::alphabet_tuple</text>
<text text-anchor="start" x="815" y="-875" font-family="Helvetica,sans-Serif" font-size="10.00">_base&lt; masked&lt; sequence</text>
<text text-anchor="start" x="815" y="-864" font-family="Helvetica,sans-Serif" font-size="10.00">_alphabet_t &gt;, sequence</text>
<text text-anchor="middle" x="883" y="-853" font-family="Helvetica,sans-Serif" font-size="10.00">_alphabet_t, mask &gt;</text>
</a>
</g>
</g>
<!-- Node1&#45;&gt;Node7 -->
<g id="edge6" class="edge">
<title>Node1&#45;&gt;Node7</title>
<path fill="none" stroke="midnightblue" d="M389.5,-843.3C481.29,-814.06 709.94,-747.64 772,-790 790.13,-802.38 774.48,-820.48 790,-836 794.97,-840.97 800.71,-845.28 806.85,-849"/>
<polygon fill="midnightblue" stroke="midnightblue" points="388.23,-840.03 379.78,-846.42 390.37,-846.7 388.23,-840.03"/>
</g>
<!-- Node9 -->
<g id="node9" class="node">
<title>Node9</title>
<g id="a_node9"><a xlink:href="classbio_1_1alphabet__tuple__base.html" target="_top" xlink:title=" ">
<polygon fill="white" stroke="black" points="790,-1083.5 790,-1146.5 976,-1146.5 976,-1083.5 790,-1083.5"/>
<text text-anchor="start" x="798" y="-1134.5" font-family="Helvetica,sans-Serif" font-size="10.00">bio::alphabet_tuple</text>
<text text-anchor="start" x="798" y="-1123.5" font-family="Helvetica,sans-Serif" font-size="10.00">_base&lt; qualified&lt; sequence</text>
<text text-anchor="start" x="798" y="-1112.5" font-family="Helvetica,sans-Serif" font-size="10.00">_alphabet_t, quality_alphabet</text>
<text text-anchor="start" x="798" y="-1101.5" font-family="Helvetica,sans-Serif" font-size="10.00">_t &gt;, sequence_alphabet_t, quality</text>
<text text-anchor="middle" x="883" y="-1090.5" font-family="Helvetica,sans-Serif" font-size="10.00">_alphabet_t &gt;</text>
</a>
</g>
</g>
<!-- Node1&#45;&gt;Node9 -->
<g id="edge8" class="edge">
<title>Node1&#45;&gt;Node9</title>
<path fill="none" stroke="midnightblue" d="M355.7,-875.73C366.13,-915.51 394.87,-1005.96 451,-1058 541.63,-1142.03 692.66,-1141.89 789.74,-1130.87"/>
<polygon fill="midnightblue" stroke="midnightblue" points="359.07,-874.77 353.23,-865.93 352.28,-876.48 359.07,-874.77"/>
</g>
<!-- Node11 -->
<g id="node11" class="node">
<title>Node11</title>
<g id="a_node11"><a xlink:href="classbio_1_1alphabet__tuple__base.html" target="_top" xlink:title=" ">
<polygon fill="white" stroke="black" points="824.5,-1023.5 824.5,-1064.5 941.5,-1064.5 941.5,-1023.5 824.5,-1023.5"/>
<text text-anchor="start" x="832.5" y="-1052.5" font-family="Helvetica,sans-Serif" font-size="10.00">bio::alphabet_tuple</text>
<text text-anchor="start" x="832.5" y="-1041.5" font-family="Helvetica,sans-Serif" font-size="10.00">_base&lt; cigar, uint32</text>
<text text-anchor="middle" x="883" y="-1030.5" font-family="Helvetica,sans-Serif" font-size="10.00">_t, cigar_op &gt;</text>
</a>
</g>
</g>
<!-- Node1&#45;&gt;Node11 -->
<g id="edge10" class="edge">
<title>Node1&#45;&gt;Node11</title>
<path fill="none" stroke="midnightblue" d="M360.52,-874.84C376.27,-904.69 410.1,-963.48 451,-1003 504.29,-1054.49 520.81,-1071.41 592,-1092 668.85,-1114.23 698.09,-1122.61 772,-1092 782.45,-1087.67 780.36,-1079.92 790,-1074 800.45,-1067.59 812.43,-1062.39 824.2,-1058.24"/>
<polygon fill="midnightblue" stroke="midnightblue" points="363.43,-872.85 355.72,-865.58 357.21,-876.07 363.43,-872.85"/>
</g>
<!-- Node12 -->
<g id="node12" class="node">
<title>Node12</title>
<g id="a_node12"><a xlink:href="classbio_1_1cigar.html" target="_top" xlink:title="The cigar semialphabet pairs a counter with a bio::cigar_op letter.">
<polygon fill="white" stroke="black" points="1073,-1048.5 1073,-1067.5 1135,-1067.5 1135,-1048.5 1073,-1048.5"/>
<text text-anchor="middle" x="1104" y="-1055.5" font-family="Helvetica,sans-Serif" font-size="10.00">bio::cigar</text>
</a>
</g>
</g>
<!-- Node1&#45;&gt;Node12 -->
<g id="edge20" class="edge">
<title>Node1&#45;&gt;Node12</title>
<path fill="none" stroke="midnightblue" d="M353.24,-875.64C359.58,-922.06 381.94,-1039.31 451,-1102 499.41,-1145.95 527.61,-1132.61 592,-1144 760.14,-1173.73 828.39,-1241.83 976,-1156 1004.74,-1139.29 987.63,-1112.48 1013,-1091 1030.02,-1076.59 1053.88,-1068.23 1072.76,-1063.52"/>
<polygon fill="midnightblue" stroke="midnightblue" points="356.7,-875.16 351.98,-865.68 349.76,-876.04 356.7,-875.16"/>
</g>
<!-- Node13 -->
<g id="node13" class="node">
<title>Node13</title>
<g id="a_node13"><a xlink:href="classbio_1_1alphabet__tuple__base.html" target="_top" xlink:title=" ">
<polygon fill="white" stroke="black" points="795,-753 795,-827 971,-827 971,-753 795,-753"/>
<text text-anchor="start" x="803" y="-815" font-family="Helvetica,sans-Serif" font-size="10.00">bio::alphabet_tuple</text>
<text text-anchor="start" x="803" y="-804" font-family="Helvetica,sans-Serif" font-size="10.00">_base&lt; structured_rna</text>
<text text-anchor="start" x="803" y="-793" font-family="Helvetica,sans-Serif" font-size="10.00">&lt; sequence_alphabet_t,</text>
<text text-anchor="start" x="803" y="-782" font-family="Helvetica,sans-Serif" font-size="10.00"> structure_alphabet_t &gt;</text>
<text text-anchor="start" x="803" y="-771" font-family="Helvetica,sans-Serif" font-size="10.00">, sequence_alphabet_t, structure</text>
<text text-anchor="middle" x="883" y="-760" font-family="Helvetica,sans-Serif" font-size="10.00">_alphabet_t &gt;</text>
</a>
</g>
</g>
<!-- Node1&#45;&gt;Node13 -->
<g id="edge12" class="edge">
<title>Node1&#45;&gt;Node13</title>
<path fill="none" stroke="midnightblue" d="M369.99,-839.87C389.12,-824.58 420.15,-802.32 451,-791 564.1,-749.5 705.41,-759.8 794.72,-773.17"/>
<polygon fill="midnightblue" stroke="midnightblue" points="367.6,-837.3 362.08,-846.34 372.04,-842.72 367.6,-837.3"/>
</g>
<!-- Node15 -->
<g id="node15" class="node">
<title>Node15</title>
<g id="a_node15"><a xlink:href="classbio_1_1alphabet__tuple__base.html" target="_top" xlink:title="The CRTP base for a combined alphabet that contains multiple values of different alphabets at the sam...">
<polygon fill="white" stroke="black" points="451,-952.5 451,-993.5 574,-993.5 574,-952.5 451,-952.5"/>
<text text-anchor="start" x="459" y="-981.5" font-family="Helvetica,sans-Serif" font-size="10.00">bio::alphabet_tuple</text>
<text text-anchor="start" x="459" y="-970.5" font-family="Helvetica,sans-Serif" font-size="10.00">_base&lt; derived_type,</text>
<text text-anchor="middle" x="512.5" y="-959.5" font-family="Helvetica,sans-Serif" font-size="10.00"> component_types &gt;</text>
</a>
</g>
</g>
<!-- Node1&#45;&gt;Node15 -->
<g id="edge14" class="edge">
<title>Node1&#45;&gt;Node15</title>
<path fill="none" stroke="midnightblue" d="M364.83,-873.47C379.83,-891.51 405.23,-919.56 432,-938 439.7,-943.3 448.33,-948.09 457,-952.3"/>
<polygon fill="midnightblue" stroke="midnightblue" points="367.37,-871.05 358.34,-865.5 361.94,-875.47 367.37,-871.05"/>
</g>
<!-- Node16 -->
<g id="node16" class="node">
<title>Node16</title>
<g id="a_node16"><a xlink:title=" ">
<polygon fill="white" stroke="#bfbfbf" points="627,-702 627,-732 737,-732 737,-702 627,-702"/>
<text text-anchor="start" x="635" y="-720" font-family="Helvetica,sans-Serif" font-size="10.00">writable_constexpr</text>
<text text-anchor="middle" x="682" y="-709" font-family="Helvetica,sans-Serif" font-size="10.00">_semialphabet</text>
</a>
</g>
</g>
<!-- Node1&#45;&gt;Node16 -->
<g id="edge21" class="edge">
<title>Node1&#45;&gt;Node16</title>
<path fill="none" stroke="midnightblue" d="M357.88,-836.78C368.84,-809.31 393.09,-759.62 432,-737 491.71,-702.29 573.48,-703.02 626.77,-708.54"/>
<polygon fill="midnightblue" stroke="midnightblue" points="354.49,-835.85 354.21,-846.44 361.04,-838.33 354.49,-835.85"/>
</g>
<!-- Node18 -->
<g id="node18" class="node">
<title>Node18</title>
<g id="a_node18"><a xlink:href="classbio_1_1mask.html" target="_top" xlink:title="Implementation of a masked alphabet to be used for tuple composites.">
<polygon fill="white" stroke="black" points="480,-665.5 480,-684.5 545,-684.5 545,-665.5 480,-665.5"/>
<text text-anchor="middle" x="512.5" y="-672.5" font-family="Helvetica,sans-Serif" font-size="10.00">bio::mask</text>
</a>
</g>
</g>
<!-- Node1&#45;&gt;Node18 -->
<g id="edge23" class="edge">
<title>Node1&#45;&gt;Node18</title>
<path fill="none" stroke="midnightblue" d="M355.76,-836.34C364.82,-803.1 387.72,-735.83 432,-699 445.41,-687.84 463.91,-681.87 479.68,-678.68"/>
<polygon fill="midnightblue" stroke="midnightblue" points="352.32,-835.65 353.2,-846.21 359.1,-837.41 352.32,-835.65"/>
</g>
<!-- Node19 -->
<g id="node19" class="node">
<title>Node19</title>
<g id="a_node19"><a xlink:href="interfacebio_1_1writable__alphabet.html" target="_top" xlink:title="Refines bio::alphabet and adds assignability.">
<polygon fill="white" stroke="black" points="831,-449.5 831,-468.5 935,-468.5 935,-449.5 831,-449.5"/>
<text text-anchor="middle" x="883" y="-456.5" font-family="Helvetica,sans-Serif" font-size="10.00">writable_alphabet</text>
</a>
</g>
</g>
<!-- Node1&#45;&gt;Node19 -->
<g id="edge24" class="edge">
<title>Node1&#45;&gt;Node19</title>
<path fill="none" stroke="midnightblue" d="M356.02,-836.42C366.97,-797.28 396.49,-708.64 451,-656 565.81,-545.13 754.13,-489.16 838.61,-468.56"/>
<polygon fill="midnightblue" stroke="midnightblue" points="352.59,-835.71 353.37,-846.28 359.34,-837.53 352.59,-835.71"/>
</g>
<!-- Node2 -->
<g id="node2" class="node">
<title>Node2</title>
<g id="a_node2"><a xlink:href="interfacebio_1_1semialphabet.html" target="_top" xlink:title="The basis for bio::alphabet, but requires only rank interface (not char).">
<polygon fill="white" stroke="black" points="166,-846.5 166,-865.5 249,-865.5 249,-846.5 166,-846.5"/>
<text text-anchor="middle" x="207.5" y="-853.5" font-family="Helvetica,sans-Serif" font-size="10.00">semialphabet</text>
</a>
</g>
</g>
<!-- Node2&#45;&gt;Node1 -->
<g id="edge1" class="edge">
<title>Node2&#45;&gt;Node1</title>
<path fill="none" stroke="midnightblue" d="M259.4,-856C268.02,-856 277.07,-856 285.95,-856"/>
<polygon fill="midnightblue" stroke="midnightblue" points="259.14,-852.5 249.14,-856 259.14,-859.5 259.14,-852.5"/>
</g>
<!-- Node3 -->
<g id="node3" class="node">
<title>Node3</title>
<g id="a_node3"><a xlink:title=" ">
<polygon fill="white" stroke="#bfbfbf" points="8.5,-865.5 8.5,-884.5 120.5,-884.5 120.5,-865.5 8.5,-865.5"/>
<text text-anchor="middle" x="64.5" y="-872.5" font-family="Helvetica,sans-Serif" font-size="10.00">std::totally_ordered</text>
</a>
</g>
</g>
<!-- Node3&#45;&gt;Node2 -->
<g id="edge2" class="edge">
<title>Node3&#45;&gt;Node2</title>
<path fill="none" stroke="midnightblue" d="M130.75,-866.21C142.67,-864.6 154.78,-862.97 165.72,-861.49"/>
<polygon fill="midnightblue" stroke="midnightblue" points="130.27,-862.74 120.82,-867.55 131.2,-869.68 130.27,-862.74"/>
</g>
<!-- Node4 -->
<g id="node4" class="node">
<title>Node4</title>
<g id="a_node4"><a xlink:title=" ">
<polygon fill="white" stroke="#bfbfbf" points="0,-827.5 0,-846.5 129,-846.5 129,-827.5 0,-827.5"/>
<text text-anchor="middle" x="64.5" y="-834.5" font-family="Helvetica,sans-Serif" font-size="10.00">std::copy_constructible</text>
</a>
</g>
</g>
<!-- Node4&#45;&gt;Node2 -->
<g id="edge3" class="edge">
<title>Node4&#45;&gt;Node2</title>
<path fill="none" stroke="midnightblue" d="M139.59,-846.98C148.62,-848.2 157.56,-849.41 165.84,-850.52"/>
<polygon fill="midnightblue" stroke="midnightblue" points="139.78,-843.48 129.4,-845.61 138.84,-850.41 139.78,-843.48"/>
</g>
<!-- Node6 -->
<g id="node6" class="node">
<title>Node6</title>
<g id="a_node6"><a xlink:href="classbio_1_1structured__aa.html" target="_top" xlink:title="A bio::alphabet_tuple_base that joins an aminoacid alphabet with a protein structure alphabet.">
<polygon fill="white" stroke="black" points="1032.5,-910.5 1032.5,-951.5 1175.5,-951.5 1175.5,-910.5 1032.5,-910.5"/>
<text text-anchor="start" x="1040.5" y="-939.5" font-family="Helvetica,sans-Serif" font-size="10.00">bio::structured_aa</text>
<text text-anchor="start" x="1040.5" y="-928.5" font-family="Helvetica,sans-Serif" font-size="10.00">&lt; sequence_alphabet</text>
<text text-anchor="middle" x="1104" y="-917.5" font-family="Helvetica,sans-Serif" font-size="10.00">_t, structure_alphabet_t &gt;</text>
</a>
</g>
</g>
<!-- Node5&#45;&gt;Node6 -->
<g id="edge5" class="edge">
<title>Node5&#45;&gt;Node6</title>
<path fill="none" stroke="midnightblue" d="M958.59,-938.91C982.48,-937.6 1008.84,-936.16 1032.44,-934.87"/>
<polygon fill="midnightblue" stroke="midnightblue" points="958.32,-935.42 948.52,-939.46 958.7,-942.41 958.32,-935.42"/>
</g>
<!-- Node8 -->
<g id="node8" class="node">
<title>Node8</title>
<g id="a_node8"><a xlink:href="classbio_1_1masked.html" target="_top" xlink:title="Implementation of a masked composite, which extends a given alphabet with a mask.">
<polygon fill="white" stroke="black" points="1037,-837 1037,-867 1171,-867 1171,-837 1037,-837"/>
<text text-anchor="start" x="1045" y="-855" font-family="Helvetica,sans-Serif" font-size="10.00">bio::masked&lt; sequence</text>
<text text-anchor="middle" x="1104" y="-844" font-family="Helvetica,sans-Serif" font-size="10.00">_alphabet_t &gt;</text>
</a>
</g>
</g>
<!-- Node7&#45;&gt;Node8 -->
<g id="edge7" class="edge">
<title>Node7&#45;&gt;Node8</title>
<path fill="none" stroke="midnightblue" d="M969.25,-864.21C991.69,-862.17 1015.56,-859.99 1036.83,-858.04"/>
<polygon fill="midnightblue" stroke="midnightblue" points="968.7,-860.75 959.06,-865.15 969.34,-867.72 968.7,-860.75"/>
</g>
<!-- Node10 -->
<g id="node10" class="node">
<title>Node10</title>
<g id="a_node10"><a xlink:href="classbio_1_1qualified.html" target="_top" xlink:title="Joins an arbitrary alphabet with a quality alphabet.">
<polygon fill="white" stroke="black" points="1013,-1100 1013,-1130 1195,-1130 1195,-1100 1013,-1100"/>
<text text-anchor="start" x="1021" y="-1118" font-family="Helvetica,sans-Serif" font-size="10.00">bio::qualified&lt; sequence</text>
<text text-anchor="middle" x="1104" y="-1107" font-family="Helvetica,sans-Serif" font-size="10.00">_alphabet_t, quality_alphabet_t &gt;</text>
</a>
</g>
</g>
<!-- Node9&#45;&gt;Node10 -->
<g id="edge9" class="edge">
<title>Node9&#45;&gt;Node10</title>
<path fill="none" stroke="midnightblue" d="M986.27,-1115C995.18,-1115 1004.16,-1115 1012.97,-1115"/>
<polygon fill="midnightblue" stroke="midnightblue" points="986.24,-1111.5 976.24,-1115 986.24,-1118.5 986.24,-1111.5"/>
</g>
<!-- Node11&#45;&gt;Node12 -->
<g id="edge11" class="edge">
<title>Node11&#45;&gt;Node12</title>
<path fill="none" stroke="midnightblue" d="M951.63,-1048.32C992.14,-1050.91 1041.65,-1054.08 1072.76,-1056.07"/>
<polygon fill="midnightblue" stroke="midnightblue" points="951.74,-1044.82 941.54,-1047.68 951.3,-1051.81 951.74,-1044.82"/>
</g>
<!-- Node14 -->
<g id="node14" class="node">
<title>Node14</title>
<g id="a_node14"><a xlink:href="classbio_1_1structured__rna.html" target="_top" xlink:title="A bio::alphabet_tuple_base that joins a nucleotide alphabet with an RNA structure alphabet.">
<polygon fill="white" stroke="black" points="1032.5,-749.5 1032.5,-790.5 1175.5,-790.5 1175.5,-749.5 1032.5,-749.5"/>
<text text-anchor="start" x="1040.5" y="-778.5" font-family="Helvetica,sans-Serif" font-size="10.00">bio::structured_rna</text>
<text text-anchor="start" x="1040.5" y="-767.5" font-family="Helvetica,sans-Serif" font-size="10.00">&lt; sequence_alphabet</text>
<text text-anchor="middle" x="1104" y="-756.5" font-family="Helvetica,sans-Serif" font-size="10.00">_t, structure_alphabet_t &gt;</text>
</a>
</g>
</g>
<!-- Node13&#45;&gt;Node14 -->
<g id="edge13" class="edge">
<title>Node13&#45;&gt;Node14</title>
<path fill="none" stroke="midnightblue" d="M981.24,-781.12C998.41,-779.55 1016,-777.95 1032.27,-776.46"/>
<polygon fill="midnightblue" stroke="midnightblue" points="980.82,-777.64 971.18,-782.04 981.46,-784.61 980.82,-777.64"/>
</g>
<!-- Node15&#45;&gt;Node5 -->
<g id="edge15" class="edge">
<title>Node15&#45;&gt;Node5</title>
<path fill="none" stroke="orange" stroke-dasharray="5,2" d="M584.3,-959.01C586.9,-958.65 589.47,-958.31 592,-958 669.08,-948.69 758.37,-945.15 817.28,-943.81"/>
<polygon fill="orange" stroke="orange" points="583.59,-955.58 574.23,-960.54 584.64,-962.5 583.59,-955.58"/>
<text text-anchor="start" x="622" y="-972" font-family="Helvetica,sans-Serif" font-size="10.00"> &lt; structured_aa&lt; aa27,</text>
<text text-anchor="middle" x="682" y="-961" font-family="Helvetica,sans-Serif" font-size="10.00"> dssp9 &gt;, aa27, dssp9 &gt;</text>
</g>
<!-- Node15&#45;&gt;Node7 -->
<g id="edge16" class="edge">
<title>Node15&#45;&gt;Node7</title>
<path fill="none" stroke="orange" stroke-dasharray="5,2" d="M539.39,-945.08C553.58,-931.6 572.26,-916.52 592,-908 660.7,-878.34 746.51,-870.91 806.9,-869.93"/>
<polygon fill="orange" stroke="orange" points="536.67,-942.85 532,-952.36 541.58,-947.84 536.67,-942.85"/>
<text text-anchor="start" x="621.5" y="-933" font-family="Helvetica,sans-Serif" font-size="10.00"> &lt; masked&lt; sequence</text>
<text text-anchor="start" x="621.5" y="-922" font-family="Helvetica,sans-Serif" font-size="10.00">_alphabet_t &gt;, sequence</text>
<text text-anchor="middle" x="682" y="-911" font-family="Helvetica,sans-Serif" font-size="10.00">_alphabet_t, mask &gt;</text>
</g>
<!-- Node15&#45;&gt;Node9 -->
<g id="edge17" class="edge">
<title>Node15&#45;&gt;Node9</title>
<path fill="none" stroke="orange" stroke-dasharray="5,2" d="M548.58,-999.43C561.71,-1008.44 577.06,-1018 592,-1025 667.63,-1060.44 692.3,-1054.01 772,-1079 777.85,-1080.83 783.86,-1082.74 789.92,-1084.68"/>
<polygon fill="orange" stroke="orange" points="550.5,-996.5 540.31,-993.61 546.48,-1002.22 550.5,-996.5"/>
<text text-anchor="start" x="599" y="-1115" font-family="Helvetica,sans-Serif" font-size="10.00"> &lt; qualified&lt; sequence</text>
<text text-anchor="start" x="599" y="-1104" font-family="Helvetica,sans-Serif" font-size="10.00">_alphabet_t, quality</text>
<text text-anchor="start" x="599" y="-1093" font-family="Helvetica,sans-Serif" font-size="10.00">_alphabet_t &gt;, sequence</text>
<text text-anchor="middle" x="682" y="-1082" font-family="Helvetica,sans-Serif" font-size="10.00">_alphabet_t, quality_alphabet_t &gt;</text>
</g>
<!-- Node15&#45;&gt;Node11 -->
<g id="edge18" class="edge">
<title>Node15&#45;&gt;Node11</title>
<path fill="none" stroke="orange" stroke-dasharray="5,2" d="M584.28,-979.28C648.27,-985.32 737.55,-994.71 772,-1003 793,-1008.05 815.47,-1015.95 834.59,-1023.47"/>
<polygon fill="orange" stroke="orange" points="584.52,-975.79 574.24,-978.34 583.87,-982.76 584.52,-975.79"/>
<text text-anchor="start" x="638" y="-1017" font-family="Helvetica,sans-Serif" font-size="10.00"> &lt; cigar, uint32_t,</text>
<text text-anchor="middle" x="682" y="-1006" font-family="Helvetica,sans-Serif" font-size="10.00"> cigar_op &gt;</text>
</g>
<!-- Node15&#45;&gt;Node13 -->
<g id="edge19" class="edge">
<title>Node15&#45;&gt;Node13</title>
<path fill="none" stroke="orange" stroke-dasharray="5,2" d="M520.29,-942.71C529.87,-907.65 550.96,-851.14 592,-823 650.93,-782.6 732.92,-776.69 794.69,-779.54"/>
<polygon fill="orange" stroke="orange" points="516.9,-941.86 517.78,-952.42 523.67,-943.62 516.9,-941.86"/>
<text text-anchor="start" x="592" y="-859" font-family="Helvetica,sans-Serif" font-size="10.00"> &lt; structured_rna&lt; sequence</text>
<text text-anchor="start" x="592" y="-848" font-family="Helvetica,sans-Serif" font-size="10.00">_alphabet_t, structure_alphabet</text>
<text text-anchor="start" x="592" y="-837" font-family="Helvetica,sans-Serif" font-size="10.00">_t &gt;, sequence_alphabet_t, structure</text>
<text text-anchor="middle" x="682" y="-826" font-family="Helvetica,sans-Serif" font-size="10.00">_alphabet_t &gt;</text>
</g>
<!-- Node17 -->
<g id="node17" class="node">
<title>Node17</title>
<g id="a_node17"><a xlink:title=" ">
<polygon fill="white" stroke="#bfbfbf" points="1049,-699 1049,-729 1159,-729 1159,-699 1049,-699"/>
<text text-anchor="start" x="1057" y="-717" font-family="Helvetica,sans-Serif" font-size="10.00">writable_constexpr</text>
<text text-anchor="middle" x="1104" y="-706" font-family="Helvetica,sans-Serif" font-size="10.00">_alphabet</text>
</a>
</g>
</g>
<!-- Node16&#45;&gt;Node17 -->
<g id="edge22" class="edge">
<title>Node16&#45;&gt;Node17</title>
<path fill="none" stroke="midnightblue" d="M747.05,-716.54C829.53,-715.95 971.45,-714.94 1048.83,-714.39"/>
<polygon fill="midnightblue" stroke="midnightblue" points="747.02,-713.04 737.05,-716.61 747.07,-720.04 747.02,-713.04"/>
</g>
<!-- Node19&#45;&gt;Node6 -->
<g id="edge45" class="edge">
<title>Node19&#45;&gt;Node6</title>
<path fill="none" stroke="midnightblue" d="M890.57,-478.32C906.06,-524.09 945.86,-642.84 976,-743 993.68,-801.75 976.03,-827.04 1013,-876 1023.81,-890.32 1039.54,-901.74 1054.83,-910.37"/>
<polygon fill="midnightblue" stroke="midnightblue" points="893.85,-477.11 887.33,-468.76 887.22,-479.36 893.85,-477.11"/>
</g>
<!-- Node19&#45;&gt;Node8 -->
<g id="edge40" class="edge">
<title>Node19&#45;&gt;Node8</title>
<path fill="none" stroke="midnightblue" d="M894.13,-477.5C915.8,-517.82 966.95,-617.14 995,-706 1007.8,-746.56 988.35,-765.33 1013,-800 1024.71,-816.47 1043.4,-828.48 1060.72,-836.79"/>
<polygon fill="midnightblue" stroke="midnightblue" points="897.13,-475.69 889.29,-468.56 890.97,-479.02 897.13,-475.69"/>
</g>
<!-- Node19&#45;&gt;Node14 -->
<g id="edge46" class="edge">
<title>Node19&#45;&gt;Node14</title>
<path fill="none" stroke="midnightblue" d="M894.66,-477.77C915.76,-515.43 963.52,-603.27 995,-681 1004.97,-705.62 994.55,-718.88 1013,-738 1018.53,-743.73 1025.15,-748.43 1032.25,-752.3"/>
<polygon fill="midnightblue" stroke="midnightblue" points="897.63,-475.91 889.67,-468.92 891.53,-479.35 897.63,-475.91"/>
</g>
<!-- Node19&#45;&gt;Node17 -->
<g id="edge31" class="edge">
<title>Node19&#45;&gt;Node17</title>
<path fill="none" stroke="midnightblue" d="M894.5,-477.67C925.06,-531.97 1011.83,-686.07 1013,-687 1023.33,-695.24 1036.13,-700.97 1048.81,-704.96"/>
<polygon fill="midnightblue" stroke="midnightblue" points="897.44,-475.75 889.48,-468.75 891.34,-479.18 897.44,-475.75"/>
</g>
<!-- Node20 -->
<g id="node20" class="node">
<title>Node20</title>
<g id="a_node20"><a xlink:href="classbio_1_1aa10li.html" target="_top" xlink:title="The reduced Li amino acid alphabet.">
<polygon fill="white" stroke="black" points="1070,-278.5 1070,-297.5 1138,-297.5 1138,-278.5 1070,-278.5"/>
<text text-anchor="middle" x="1104" y="-285.5" font-family="Helvetica,sans-Serif" font-size="10.00">bio::aa10li</text>
</a>
</g>
</g>
<!-- Node19&#45;&gt;Node20 -->
<g id="edge25" class="edge">
<title>Node19&#45;&gt;Node20</title>
<path fill="none" stroke="midnightblue" d="M894.21,-440.31C913.09,-407.67 956.69,-340.57 1013,-307 1030.15,-296.78 1052.01,-292.01 1069.89,-289.8"/>
<polygon fill="midnightblue" stroke="midnightblue" points="891.03,-438.83 889.16,-449.26 897.13,-442.27 891.03,-438.83"/>
</g>
<!-- Node21 -->
<g id="node21" class="node">
<title>Node21</title>
<g id="a_node21"><a xlink:href="classbio_1_1aa10murphy.html" target="_top" xlink:title="The reduced Murphy amino acid alphabet.">
<polygon fill="white" stroke="black" points="1054.5,-240.5 1054.5,-259.5 1153.5,-259.5 1153.5,-240.5 1054.5,-240.5"/>
<text text-anchor="middle" x="1104" y="-247.5" font-family="Helvetica,sans-Serif" font-size="10.00">bio::aa10murphy</text>
</a>
</g>
</g>
<!-- Node19&#45;&gt;Node21 -->
<g id="edge26" class="edge">
<title>Node19&#45;&gt;Node21</title>
<path fill="none" stroke="midnightblue" d="M891.34,-439.53C907.13,-400.44 948.25,-312.47 1013,-269 1025.07,-260.9 1039.93,-256.16 1054.07,-253.41"/>
<polygon fill="midnightblue" stroke="midnightblue" points="887.95,-438.59 887.56,-449.18 894.46,-441.14 887.95,-438.59"/>
</g>
<!-- Node22 -->
<g id="node22" class="node">
<title>Node22</title>
<g id="a_node22"><a xlink:href="classbio_1_1aa20.html" target="_top" xlink:title="The canonical amino acid alphabet.">
<polygon fill="white" stroke="black" points="1073,-202.5 1073,-221.5 1135,-221.5 1135,-202.5 1073,-202.5"/>
<text text-anchor="middle" x="1104" y="-209.5" font-family="Helvetica,sans-Serif" font-size="10.00">bio::aa20</text>
</a>
</g>
</g>
<!-- Node19&#45;&gt;Node22 -->
<g id="edge27" class="edge">
<title>Node19&#45;&gt;Node22</title>
<path fill="none" stroke="midnightblue" d="M889.1,-439.41C901.79,-394.73 939.25,-284.99 1013,-231 1030.27,-218.36 1054.12,-213.75 1072.93,-212.22"/>
<polygon fill="midnightblue" stroke="midnightblue" points="885.66,-438.72 886.4,-449.29 892.41,-440.57 885.66,-438.72"/>
</g>
<!-- Node23 -->
<g id="node23" class="node">
<title>Node23</title>
<g id="a_node23"><a xlink:href="classbio_1_1aa27.html" target="_top" xlink:title="The twenty&#45;seven letter amino acid alphabet.">
<polygon fill="white" stroke="black" points="1073,-164.5 1073,-183.5 1135,-183.5 1135,-164.5 1073,-164.5"/>
<text text-anchor="middle" x="1104" y="-171.5" font-family="Helvetica,sans-Serif" font-size="10.00">bio::aa27</text>
</a>
</g>
</g>
<!-- Node19&#45;&gt;Node23 -->
<g id="edge28" class="edge">
<title>Node19&#45;&gt;Node23</title>
<path fill="none" stroke="midnightblue" d="M887.45,-439.27C897.25,-389.43 930.1,-257.82 1013,-193 1029.86,-179.82 1053.73,-175.23 1072.65,-173.85"/>
<polygon fill="midnightblue" stroke="midnightblue" points="883.96,-438.89 885.56,-449.36 890.84,-440.17 883.96,-438.89"/>
</g>
<!-- Node24 -->
<g id="node24" class="node">
<title>Node24</title>
<g id="a_node24"><a xlink:href="classbio_1_1alphabet__variant.html" target="_top" xlink:title="A combined alphabet that can hold values of either of its alternatives.">
<polygon fill="white" stroke="black" points="1041.5,-115 1041.5,-145 1166.5,-145 1166.5,-115 1041.5,-115"/>
<text text-anchor="start" x="1049.5" y="-133" font-family="Helvetica,sans-Serif" font-size="10.00">bio::alphabet_variant</text>
<text text-anchor="middle" x="1104" y="-122" font-family="Helvetica,sans-Serif" font-size="10.00">&lt; alternative_types &gt;</text>
</a>
</g>
</g>
<!-- Node19&#45;&gt;Node24 -->
<g id="edge29" class="edge">
<title>Node19&#45;&gt;Node24</title>
<path fill="none" stroke="midnightblue" d="M886.43,-439.39C894.17,-385.46 923.28,-233.72 1013,-155 1021.05,-147.94 1030.92,-142.86 1041.16,-139.21"/>
<polygon fill="midnightblue" stroke="midnightblue" points="882.95,-438.97 885.09,-449.35 889.89,-439.91 882.95,-438.97"/>
</g>
<!-- Node25 -->
<g id="node25" class="node">
<title>Node25</title>
<g id="a_node25"><a xlink:href="classbio_1_1cigar__op.html" target="_top" xlink:title="The (extended) cigar operation alphabet of M,D,I,H,N,P,S,X,=.">
<polygon fill="white" stroke="black" points="1064.5,-76.5 1064.5,-95.5 1143.5,-95.5 1143.5,-76.5 1064.5,-76.5"/>
<text text-anchor="middle" x="1104" y="-83.5" font-family="Helvetica,sans-Serif" font-size="10.00">bio::cigar_op</text>
</a>
</g>
</g>
<!-- Node19&#45;&gt;Node25 -->
<g id="edge30" class="edge">
<title>Node19&#45;&gt;Node25</title>
<path fill="none" stroke="midnightblue" d="M884.85,-439.15C888.56,-378.75 908.34,-195.82 1013,-105 1026.99,-92.86 1046.78,-87.82 1064.24,-85.94"/>
<polygon fill="midnightblue" stroke="midnightblue" points="881.35,-439.07 884.31,-449.24 888.34,-439.44 881.35,-439.07"/>
</g>
<!-- Node26 -->
<g id="node26" class="node">
<title>Node26</title>
<g id="a_node26"><a xlink:href="classbio_1_1dna15.html" target="_top" xlink:title="The 15 letter DNA alphabet, containing all IUPAC smybols minus the gap.">
<polygon fill="white" stroke="black" points="1070,-38.5 1070,-57.5 1138,-57.5 1138,-38.5 1070,-38.5"/>
<text text-anchor="middle" x="1104" y="-45.5" font-family="Helvetica,sans-Serif" font-size="10.00">bio::dna15</text>
</a>
</g>
</g>
<!-- Node19&#45;&gt;Node26 -->
<g id="edge32" class="edge">
<title>Node19&#45;&gt;Node26</title>
<path fill="none" stroke="midnightblue" d="M883.92,-439.48C884.77,-375.07 896.82,-167.72 1013,-67 1028.44,-53.61 1050.94,-48.86 1069.58,-47.46"/>
<polygon fill="midnightblue" stroke="midnightblue" points="880.42,-439.46 883.86,-449.48 887.42,-439.5 880.42,-439.46"/>
</g>
<!-- Node27 -->
<g id="node27" class="node">
<title>Node27</title>
<g id="a_node27"><a xlink:href="classbio_1_1dna3bs.html" target="_top" xlink:title="The three letter reduced DNA alphabet for bisulfite sequencing mode (A,G,T(=C)).">
<polygon fill="white" stroke="black" points="1067.5,-0.5 1067.5,-19.5 1140.5,-19.5 1140.5,-0.5 1067.5,-0.5"/>
<text text-anchor="middle" x="1104" y="-7.5" font-family="Helvetica,sans-Serif" font-size="10.00">bio::dna3bs</text>
</a>
</g>
</g>
<!-- Node19&#45;&gt;Node27 -->
<g id="edge33" class="edge">
<title>Node19&#45;&gt;Node27</title>
<path fill="none" stroke="midnightblue" d="M887.15,-438.93C899.68,-361.71 948.48,-85.29 1013,-29 1027.8,-16.09 1049.16,-11.2 1067.35,-9.6"/>
<polygon fill="midnightblue" stroke="midnightblue" points="883.63,-438.76 885.51,-449.19 890.54,-439.87 883.63,-438.76"/>
</g>
<!-- Node28 -->
<g id="node28" class="node">
<title>Node28</title>
<g id="a_node28"><a xlink:href="classbio_1_1dna4.html" target="_top" xlink:title="The four letter DNA alphabet of A,C,G,T.">
<polygon fill="white" stroke="black" points="1073,-658.5 1073,-677.5 1135,-677.5 1135,-658.5 1073,-658.5"/>
<text text-anchor="middle" x="1104" y="-665.5" font-family="Helvetica,sans-Serif" font-size="10.00">bio::dna4</text>
</a>
</g>
</g>
<!-- Node19&#45;&gt;Node28 -->
<g id="edge34" class="edge">
<title>Node19&#45;&gt;Node28</title>
<path fill="none" stroke="midnightblue" d="M895.33,-477.31C923.57,-522.71 996.04,-637.62 1013,-649 1030.63,-660.84 1054.24,-665.5 1072.85,-667.25"/>
<polygon fill="midnightblue" stroke="midnightblue" points="898.26,-475.39 890.01,-468.74 892.31,-479.08 898.26,-475.39"/>
</g>
<!-- Node29 -->
<g id="node29" class="node">
<title>Node29</title>
<g id="a_node29"><a xlink:href="classbio_1_1dna5.html" target="_top" xlink:title="The five letter DNA alphabet of A,C,G,T and the unknown character N.">
<polygon fill="white" stroke="black" points="1073,-582.5 1073,-601.5 1135,-601.5 1135,-582.5 1073,-582.5"/>
<text text-anchor="middle" x="1104" y="-589.5" font-family="Helvetica,sans-Serif" font-size="10.00">bio::dna5</text>
</a>
</g>
</g>
<!-- Node19&#45;&gt;Node29 -->
<g id="edge35" class="edge">
<title>Node19&#45;&gt;Node29</title>
<path fill="none" stroke="midnightblue" d="M898.43,-476.54C920.4,-501.99 964.78,-548.75 1013,-573 1031.69,-582.4 1054.82,-587.15 1072.95,-589.56"/>
<polygon fill="midnightblue" stroke="midnightblue" points="901.01,-474.16 891.87,-468.79 895.66,-478.68 901.01,-474.16"/>
</g>
<!-- Node30 -->
<g id="node30" class="node">
<title>Node30</title>
<g id="a_node30"><a xlink:href="classbio_1_1dot__bracket3.html" target="_top" xlink:title="The three letter RNA structure alphabet of the characters &quot;.()&quot;.">
<polygon fill="white" stroke="black" points="1053.5,-506.5 1053.5,-525.5 1154.5,-525.5 1154.5,-506.5 1053.5,-506.5"/>
<text text-anchor="middle" x="1104" y="-513.5" font-family="Helvetica,sans-Serif" font-size="10.00">bio::dot_bracket3</text>
</a>
</g>
</g>
<!-- Node19&#45;&gt;Node30 -->
<g id="edge36" class="edge">
<title>Node19&#45;&gt;Node30</title>
<path fill="none" stroke="midnightblue" d="M923.7,-471.57C949.1,-479.39 982.82,-489.38 1013,-497 1026.32,-500.36 1040.84,-503.61 1054.26,-506.44"/>
<polygon fill="midnightblue" stroke="midnightblue" points="924.64,-468.2 914.05,-468.58 922.57,-474.88 924.64,-468.2"/>
</g>
<!-- Node31 -->
<g id="node31" class="node">
<title>Node31</title>
<g id="a_node31"><a xlink:href="classbio_1_1dssp9.html" target="_top" xlink:title="The protein structure alphabet of the characters &quot;HGIEBTSCX&quot;.">
<polygon fill="white" stroke="black" points="1071,-620.5 1071,-639.5 1137,-639.5 1137,-620.5 1071,-620.5"/>
<text text-anchor="middle" x="1104" y="-627.5" font-family="Helvetica,sans-Serif" font-size="10.00">bio::dssp9</text>
</a>
</g>
</g>
<!-- Node19&#45;&gt;Node31 -->
<g id="edge37" class="edge">
<title>Node19&#45;&gt;Node31</title>
<path fill="none" stroke="midnightblue" d="M897.4,-477.22C917.71,-508.3 959.65,-570.2 1013,-602 1030.56,-612.47 1053.06,-617.22 1071.17,-620.47"/>
<polygon fill="midnightblue" stroke="midnightblue" points="900.19,-475.1 891.8,-468.63 894.33,-478.92 900.19,-475.1"/>
</g>
<!-- Node19&#45;&gt;Node31 -->
<g id="edge38" class="edge">
<title>Node19&#45;&gt;Node31</title>
<path fill="none" stroke="midnightblue" d="M891.46,-477.61C908.56,-512.21 953.74,-584.67 1013,-620 1030.42,-630.38 1052.71,-635.14 1070.74,-636.2"/>
<polygon fill="midnightblue" stroke="midnightblue" points="894.62,-476.12 887.23,-468.54 888.28,-479.08 894.62,-476.12"/>
</g>
<!-- Node32 -->
<g id="node32" class="node">
<title>Node32</title>
<g id="a_node32"><a xlink:href="classbio_1_1gap.html" target="_top" xlink:title="The alphabet of a gap character &#39;&#45;&#39;.">
<polygon fill="white" stroke="black" points="1076,-544.5 1076,-563.5 1132,-563.5 1132,-544.5 1076,-544.5"/>
<text text-anchor="middle" x="1104" y="-551.5" font-family="Helvetica,sans-Serif" font-size="10.00">bio::gap</text>
</a>
</g>
</g>
<!-- Node19&#45;&gt;Node32 -->
<g id="edge39" class="edge">
<title>Node19&#45;&gt;Node32</title>
<path fill="none" stroke="midnightblue" d="M905.46,-474.62C930.2,-491.89 972.64,-519.34 1013,-535 1033.4,-542.92 1057.74,-547.8 1075.96,-550.63"/>
<polygon fill="midnightblue" stroke="midnightblue" points="907.37,-471.68 897.19,-468.75 903.32,-477.39 907.37,-471.68"/>
</g>
<!-- Node33 -->
<g id="node33" class="node">
<title>Node33</title>
<g id="a_node33"><a xlink:href="classbio_1_1rna15.html" target="_top" xlink:title="The 15 letter RNA alphabet, containing all IUPAC smybols minus the gap.">
<polygon fill="white" stroke="black" points="1071.5,-468.5 1071.5,-487.5 1136.5,-487.5 1136.5,-468.5 1071.5,-468.5"/>
<text text-anchor="middle" x="1104" y="-475.5" font-family="Helvetica,sans-Serif" font-size="10.00">bio::rna15</text>
</a>
</g>
</g>
<!-- Node19&#45;&gt;Node33 -->
<g id="edge41" class="edge">
<title>Node19&#45;&gt;Node33</title>
<path fill="none" stroke="midnightblue" d="M945.21,-464.31C986.14,-467.86 1038.32,-472.39 1071.21,-475.24"/>
<polygon fill="midnightblue" stroke="midnightblue" points="945.33,-460.81 935.07,-463.43 944.73,-467.78 945.33,-460.81"/>
</g>
<!-- Node34 -->
<g id="node34" class="node">
<title>Node34</title>
<g id="a_node34"><a xlink:href="classbio_1_1rna4.html" target="_top" xlink:title="The four letter RNA alphabet of A,C,G,U.">
<polygon fill="white" stroke="black" points="1074.5,-430.5 1074.5,-449.5 1133.5,-449.5 1133.5,-430.5 1074.5,-430.5"/>
<text text-anchor="middle" x="1104" y="-437.5" font-family="Helvetica,sans-Serif" font-size="10.00">bio::rna4</text>
</a>
</g>
</g>
<!-- Node19&#45;&gt;Node34 -->
<g id="edge42" class="edge">
<title>Node19&#45;&gt;Node34</title>
<path fill="none" stroke="midnightblue" d="M945.26,-453.69C987.51,-450.02 1041.74,-445.31 1074.36,-442.48"/>
<polygon fill="midnightblue" stroke="midnightblue" points="944.73,-450.22 935.07,-454.57 945.33,-457.19 944.73,-450.22"/>
</g>
<!-- Node35 -->
<g id="node35" class="node">
<title>Node35</title>
<g id="a_node35"><a xlink:href="classbio_1_1rna5.html" target="_top" xlink:title="The five letter RNA alphabet of A,C,G,U and the unknown character N.">
<polygon fill="white" stroke="black" points="1074.5,-392.5 1074.5,-411.5 1133.5,-411.5 1133.5,-392.5 1074.5,-392.5"/>
<text text-anchor="middle" x="1104" y="-399.5" font-family="Helvetica,sans-Serif" font-size="10.00">bio::rna5</text>
</a>
</g>
</g>
<!-- Node19&#45;&gt;Node35 -->
<g id="edge43" class="edge">
<title>Node19&#45;&gt;Node35</title>
<path fill="none" stroke="midnightblue" d="M923.7,-446.43C949.1,-438.61 982.82,-428.62 1013,-421 1033.44,-415.84 1056.73,-410.95 1074.49,-407.42"/>
<polygon fill="midnightblue" stroke="midnightblue" points="922.57,-443.12 914.05,-449.42 924.64,-449.8 922.57,-443.12"/>
</g>
<!-- Node36 -->
<g id="node36" class="node">
<title>Node36</title>
<g id="a_node36"><a xlink:href="classbio_1_1sam__dna16.html" target="_top" xlink:title="A 16 letter DNA alphabet, containing all IUPAC symbols minus the gap and plus an equality sign (&#39;=&#39;).">
<polygon fill="white" stroke="black" points="1057,-354.5 1057,-373.5 1151,-373.5 1151,-354.5 1057,-354.5"/>
<text text-anchor="middle" x="1104" y="-361.5" font-family="Helvetica,sans-Serif" font-size="10.00">bio::sam_dna16</text>
</a>
</g>
</g>
<!-- Node19&#45;&gt;Node36 -->
<g id="edge44" class="edge">
<title>Node19&#45;&gt;Node36</title>
<path fill="none" stroke="midnightblue" d="M905.46,-443.38C930.2,-426.11 972.64,-398.66 1013,-383 1026.85,-377.63 1042.51,-373.65 1056.84,-370.76"/>
<polygon fill="midnightblue" stroke="midnightblue" points="903.32,-440.61 897.19,-449.25 907.37,-446.32 903.32,-440.61"/>
</g>
<!-- Node37 -->
<g id="node37" class="node">
<title>Node37</title>
<g id="a_node37"><a xlink:href="classbio_1_1wuss.html" target="_top" xlink:title="The WUSS structure alphabet of the characters .&lt;&gt;:,&#45;_~;()[]{}AaBbCcDd...">
<polygon fill="white" stroke="black" points="1050.5,-316.5 1050.5,-335.5 1157.5,-335.5 1157.5,-316.5 1050.5,-316.5"/>
<text text-anchor="middle" x="1104" y="-323.5" font-family="Helvetica,sans-Serif" font-size="10.00">bio::wuss&lt; SIZE &gt;</text>
</a>
</g>
</g>
<!-- Node19&#45;&gt;Node37 -->
<g id="edge47" class="edge">
<title>Node19&#45;&gt;Node37</title>
<path fill="none" stroke="midnightblue" d="M898.43,-441.46C920.4,-416.01 964.78,-369.25 1013,-345 1024.41,-339.26 1037.48,-335.25 1050.06,-332.46"/>
<polygon fill="midnightblue" stroke="midnightblue" points="895.66,-439.32 891.87,-449.21 901.01,-443.84 895.66,-439.32"/>
</g>
</g>
</svg>
        <g id="navigator" transform="translate(0 0)" fill="#404254">
                <rect fill="#f2f5e9" fill-opacity="0.5" stroke="#606060" stroke-width=".5" x="0" y="0" width="60" height="60"/>
                <use id="zoomplus" xlink:href="#zoomPlus" x="17" y="9" onmousedown="handleZoom(evt,'in')"/>
                <use id="zoomminus" xlink:href="#zoomMin" x="42" y="9" onmousedown="handleZoom(evt,'out')"/>
                <use id="reset" xlink:href="#resetDef" x="30" y="36" onmousedown="handleReset()"/>
                <g id="arrowUp" xlink:href="#dirArrow" transform="translate(30 24)" onmousedown="handlePan(0,-1)">
                  <use xlink:href="#rim" fill="#404040">
                        <set attributeName="fill" to="#808080" begin="arrowUp.mouseover" end="arrowUp.mouseout"/>
                  </use>
                  <path fill="none" stroke="white" stroke-width="1.5" d="M0,-3.0v7 M-2.5,-0.5L0,-3.0L2.5,-0.5"/>
                </g>
                <g id="arrowRight" xlink:href="#dirArrow" transform="rotate(90) translate(36 -43)" onmousedown="handlePan(1,0)">
                  <use xlink:href="#rim" fill="#404040">
                        <set attributeName="fill" to="#808080" begin="arrowRight.mouseover" end="arrowRight.mouseout"/>
                  </use>
                  <path fill="none" stroke="white" stroke-width="1.5" d="M0,-3.0v7 M-2.5,-0.5L0,-3.0L2.5,-0.5"/>
                </g>
                <g id="arrowDown" xlink:href="#dirArrow" transform="rotate(180) translate(-30 -48)" onmousedown="handlePan(0,1)">
                  <use xlink:href="#rim" fill="#404040">
                        <set attributeName="fill" to="#808080" begin="arrowDown.mouseover" end="arrowDown.mouseout"/>
                  </use>
                  <path fill="none" stroke="white" stroke-width="1.5" d="M0,-3.0v7 M-2.5,-0.5L0,-3.0L2.5,-0.5"/>
                </g>
                <g id="arrowLeft" xlink:href="#dirArrow" transform="rotate(270) translate(-36 17)" onmousedown="handlePan(-1,0)">
                  <use xlink:href="#rim" fill="#404040">
                        <set attributeName="fill" to="#808080" begin="arrowLeft.mouseover" end="arrowLeft.mouseout"/>
                  </use>
                  <path fill="none" stroke="white" stroke-width="1.5" d="M0,-3.0v7 M-2.5,-0.5L0,-3.0L2.5,-0.5"/>
                </g>
        </g>
        <svg viewBox="0 0 15 15" width="100%" height="30px" preserveAspectRatio="xMaxYMin meet">
         <g id="arrow_out" transform="scale(0.3 0.3)">
          <a xlink:href="interfacebio_1_1writable__semialphabet__inherit__graph_org.svg" target="_base">
           <rect id="button" ry="5" rx="5" y="6" x="6" height="38" width="38"
                fill="#f2f5e9" fill-opacity="0.5" stroke="#606060" stroke-width="1.0"/>
           <path id="arrow"
             d="M 11.500037,31.436501 C 11.940474,20.09759 22.043105,11.32322 32.158766,21.979434 L 37.068811,17.246167 C 37.068811,17.246167 37.088388,32 37.088388,32 L 22.160133,31.978069 C 22.160133,31.978069 26.997745,27.140456 26.997745,27.140456 C 18.528582,18.264221 13.291696,25.230495 11.500037,31.436501 z"
             style="fill:#404040;"/>
          </a>
         </g>
        </svg>
</svg>
