<?xml version="1.0" encoding="UTF-8" standalone="no"?>
<!DOCTYPE svg PUBLIC "-//W3C//DTD SVG 1.1//EN"
 "http://www.w3.org/Graphics/SVG/1.1/DTD/svg11.dtd">
<!-- Generated by graphviz version 2.43.0 (0)
 -->
<!-- Title: cerealisable Pages: 1 -->
<!--zoomable 234 -->
<svg id="main" version="1.1" xmlns="http://www.w3.org/2000/svg" xmlns:xlink="http://www.w3.org/1999/xlink" xml:space="preserve" onload="init(evt)">
<style type="text/css"><![CDATA[
.edge:hover path { stroke: red; }
.edge:hover polygon { stroke: red; fill: red; }
]]></style>
<script type="text/javascript"><![CDATA[
var edges = document.getElementsByTagName('g');
if (edges && edges.length) {
  for (var i=0;i<edges.length;i++) {
    if (edges[i].id.substr(0,4)=='edge') {
      edges[i].setAttribute('class','edge');
    }
  }
}
]]></script>
        <defs>
                <circle id="rim" cx="0" cy="0" r="7"/>
                <circle id="rim2" cx="0" cy="0" r="3.5"/>
                <g id="zoomPlus">
                        <use xlink:href="#rim" fill="#404040">
                                <set attributeName="fill" to="#808080" begin="zoomplus.mouseover" end="zoomplus.mouseout"/>
                        </use>
                        <path d="M-4,0h8M0,-4v8" fill="none" stroke="white" stroke-width="1.5" pointer-events="none"/>
                </g>
                <g id="zoomMin">
                        <use xlink:href="#rim" fill="#404040">
                                <set attributeName="fill" to="#808080" begin="zoomminus.mouseover" end="zoomminus.mouseout"/>
                        </use>
                        <path d="M-4,0h8" fill="none" stroke="white" stroke-width="1.5" pointer-events="none"/>
                </g>
                <g id="dirArrow">
                        <path fill="none" stroke="white" stroke-width="1.5" d="M0,-3.0v7 M-2.5,-0.5L0,-3.0L2.5,-0.5"/>
                </g>
               <g id="resetDef">
                       <use xlink:href="#rim2" fill="#404040">
                               <set attributeName="fill" to="#808080" begin="reset.mouseover" end="reset.mouseout"/>
                       </use>
               </g>
        </defs>

<script type="text/javascript">
var viewWidth = 739;
var viewHeight = 234;
var sectionId = 'dynsection-0';
</script>
<script xlink:href="svgpan.js"/>
<svg id="graph" class="graph">
<g id="viewport">
<title>cerealisable</title>
<polygon fill="white" stroke="transparent" points="-4,4 -4,-230.24 735,-230.24 735,4 -4,4"/>
<!-- Node1 -->
<g id="node1" class="node">
<title>Node1</title>
<g id="a_node1"><a xlink:title="Specifies the requirements for types that are serialisable via Cereal.">
<polygon fill="#bfbfbf" stroke="black" points="0,-121.5 0,-140.5 76,-140.5 76,-121.5 0,-121.5"/>
<text text-anchor="middle" x="38" y="-128.5" font-family="Helvetica,sans-Serif" font-size="10.00">cerealisable</text>
</a>
</g>
</g>
<!-- Node2 -->
<g id="node2" class="node">
<title>Node2</title>
<g id="a_node2"><a xlink:href="classbio_1_1ranges_1_1small__vector.html" target="_top" xlink:title=" ">
<polygon fill="white" stroke="black" points="412,-111 412,-141 575,-141 575,-111 412,-111"/>
<text text-anchor="start" x="420" y="-129" font-family="Helvetica,sans-Serif" font-size="10.00">bio::ranges::small</text>
<text text-anchor="middle" x="493.5" y="-118" font-family="Helvetica,sans-Serif" font-size="10.00">_vector&lt; char, capacity_+1 &gt;</text>
</a>
</g>
</g>
<!-- Node1&#45;&gt;Node2 -->
<g id="edge1" class="edge">
<title>Node1&#45;&gt;Node2</title>
<path fill="none" stroke="midnightblue" d="M49.56,-149.4C61.92,-168.88 84.4,-198.49 113,-211 173.68,-237.53 196.81,-222.64 262,-211 336.74,-197.66 418.98,-161.78 462.16,-141.15"/>
<polygon fill="midnightblue" stroke="midnightblue" points="52.5,-147.5 44.32,-140.77 46.52,-151.14 52.5,-147.5"/>
</g>
<!-- Node4 -->
<g id="node4" class="node">
<title>Node4</title>
<g id="a_node4"><a xlink:href="classbio_1_1ranges_1_1bitcompressed__vector.html" target="_top" xlink:title="A space&#45;optimised version of std::vector that compresses multiple letters into a single byte.">
<polygon fill="white" stroke="black" points="113,-171 113,-201 262,-201 262,-171 113,-171"/>
<text text-anchor="start" x="121" y="-189" font-family="Helvetica,sans-Serif" font-size="10.00">bio::ranges::bitcompressed</text>
<text text-anchor="middle" x="187.5" y="-178" font-family="Helvetica,sans-Serif" font-size="10.00">_vector&lt; alphabet_type &gt;</text>
</a>
</g>
</g>
<!-- Node1&#45;&gt;Node4 -->
<g id="edge3" class="edge">
<title>Node1&#45;&gt;Node4</title>
<path fill="none" stroke="midnightblue" d="M70.98,-144.43C83.95,-149.76 99.13,-155.83 113,-161 121.97,-164.34 131.62,-167.75 140.87,-170.93"/>
<polygon fill="midnightblue" stroke="midnightblue" points="72.12,-141.11 61.54,-140.53 69.44,-147.58 72.12,-141.11"/>
</g>
<!-- Node5 -->
<g id="node5" class="node">
<title>Node5</title>
<g id="a_node5"><a xlink:href="classbio_1_1ranges_1_1concatenated__sequences.html" target="_top" xlink:title="Container that stores sequences concatenated internally.">
<polygon fill="white" stroke="black" points="116,-110.5 116,-151.5 259,-151.5 259,-110.5 116,-110.5"/>
<text text-anchor="start" x="124" y="-139.5" font-family="Helvetica,sans-Serif" font-size="10.00">bio::ranges::concatenated</text>
<text text-anchor="start" x="124" y="-128.5" font-family="Helvetica,sans-Serif" font-size="10.00">_sequences&lt; inner_type,</text>
<text text-anchor="middle" x="187.5" y="-117.5" font-family="Helvetica,sans-Serif" font-size="10.00"> data_delimiters_type &gt;</text>
</a>
</g>
</g>
<!-- Node1&#45;&gt;Node5 -->
<g id="edge4" class="edge">
<title>Node1&#45;&gt;Node5</title>
<path fill="none" stroke="midnightblue" d="M86.52,-131C95.92,-131 105.97,-131 115.95,-131"/>
<polygon fill="midnightblue" stroke="midnightblue" points="86.22,-127.5 76.22,-131 86.22,-134.5 86.22,-127.5"/>
</g>
<!-- Node6 -->
<g id="node6" class="node">
<title>Node6</title>
<g id="a_node6"><a xlink:href="classbio_1_1ranges_1_1dynamic__bitset.html" target="_top" xlink:title="A constexpr bitset implementation with dynamic size at compile time.">
<polygon fill="white" stroke="black" points="122,-61 122,-91 253,-91 253,-61 122,-61"/>
<text text-anchor="start" x="130" y="-79" font-family="Helvetica,sans-Serif" font-size="10.00">bio::ranges::dynamic</text>
<text text-anchor="middle" x="187.5" y="-68" font-family="Helvetica,sans-Serif" font-size="10.00">_bitset&lt; bit_capacity &gt;</text>
</a>
</g>
</g>
<!-- Node1&#45;&gt;Node6 -->
<g id="edge5" class="edge">
<title>Node1&#45;&gt;Node6</title>
<path fill="none" stroke="midnightblue" d="M70.98,-117.57C83.95,-112.24 99.13,-106.17 113,-101 121.97,-97.66 131.62,-94.25 140.87,-91.07"/>
<polygon fill="midnightblue" stroke="midnightblue" points="69.44,-114.42 61.54,-121.47 72.12,-120.89 69.44,-114.42"/>
</g>
<!-- Node7 -->
<g id="node7" class="node">
<title>Node7</title>
<g id="a_node7"><a xlink:href="classbio_1_1ranges_1_1small__vector.html" target="_top" xlink:title="A constexpr vector implementation with dynamic size at compile time.">
<polygon fill="white" stroke="black" points="128.5,-0.5 128.5,-41.5 246.5,-41.5 246.5,-0.5 128.5,-0.5"/>
<text text-anchor="start" x="136.5" y="-29.5" font-family="Helvetica,sans-Serif" font-size="10.00">bio::ranges::small</text>
<text text-anchor="start" x="136.5" y="-18.5" font-family="Helvetica,sans-Serif" font-size="10.00">_vector&lt; value_type</text>
<text text-anchor="middle" x="187.5" y="-7.5" font-family="Helvetica,sans-Serif" font-size="10.00">_, capacity_ &gt;</text>
</a>
</g>
</g>
<!-- Node1&#45;&gt;Node7 -->
<g id="edge6" class="edge">
<title>Node1&#45;&gt;Node7</title>
<path fill="none" stroke="midnightblue" d="M51.89,-112.99C65.41,-95.21 88.1,-68.25 113,-51 117.98,-47.55 123.43,-44.39 129.02,-41.54"/>
<polygon fill="midnightblue" stroke="midnightblue" points="48.84,-111.23 45.7,-121.35 54.47,-115.4 48.84,-111.23"/>
</g>
<!-- Node3 -->
<g id="node3" class="node">
<title>Node3</title>
<g id="a_node3"><a xlink:href="classbio_1_1ranges_1_1small__string.html" target="_top" xlink:title="Implements a small string that can be used for compile time computations.">
<polygon fill="white" stroke="black" points="612,-111 612,-141 731,-141 731,-111 612,-111"/>
<text text-anchor="start" x="620" y="-129" font-family="Helvetica,sans-Serif" font-size="10.00">bio::ranges::small</text>
<text text-anchor="middle" x="671.5" y="-118" font-family="Helvetica,sans-Serif" font-size="10.00">_string&lt; capacity_ &gt;</text>
</a>
</g>
</g>
<!-- Node2&#45;&gt;Node3 -->
<g id="edge2" class="edge">
<title>Node2&#45;&gt;Node3</title>
<path fill="none" stroke="midnightblue" d="M585.23,-126C594.26,-126 603.26,-126 611.84,-126"/>
<polygon fill="midnightblue" stroke="midnightblue" points="585.03,-122.5 575.03,-126 585.03,-129.5 585.03,-122.5"/>
</g>
<!-- Node7&#45;&gt;Node2 -->
<g id="edge7" class="edge">
<title>Node7&#45;&gt;Node2</title>
<path fill="none" stroke="orange" stroke-dasharray="5,2" d="M256.33,-44.43C315.09,-64.72 398.36,-93.48 448.72,-110.88"/>
<polygon fill="orange" stroke="orange" points="257.35,-41.08 246.75,-41.12 255.06,-47.69 257.35,-41.08"/>
<text text-anchor="middle" x="337" y="-93" font-family="Helvetica,sans-Serif" font-size="10.00"> &lt; char, capacity_+1 &gt;</text>
</g>
</g>
</svg>
        <g id="navigator" transform="translate(0 0)" fill="#404254">
                <rect fill="#f2f5e9" fill-opacity="0.5" stroke="#606060" stroke-width=".5" x="0" y="0" width="60" height="60"/>
                <use id="zoomplus" xlink:href="#zoomPlus" x="17" y="9" onmousedown="handleZoom(evt,'in')"/>
                <use id="zoomminus" xlink:href="#zoomMin" x="42" y="9" onmousedown="handleZoom(evt,'out')"/>
                <use id="reset" xlink:href="#resetDef" x="30" y="36" onmousedown="handleReset()"/>
                <g id="arrowUp" xlink:href="#dirArrow" transform="translate(30 24)" onmousedown="handlePan(0,-1)">
                  <use xlink:href="#rim" fill="#404040">
                        <set attributeName="fill" to="#808080" begin="arrowUp.mouseover" end="arrowUp.mouseout"/>
                  </use>
                  <path fill="none" stroke="white" stroke-width="1.5" d="M0,-3.0v7 M-2.5,-0.5L0,-3.0L2.5,-0.5"/>
                </g>
                <g id="arrowRight" xlink:href="#dirArrow" transform="rotate(90) translate(36 -43)" onmousedown="handlePan(1,0)">
                  <use xlink:href="#rim" fill="#404040">
                        <set attributeName="fill" to="#808080" begin="arrowRight.mouseover" end="arrowRight.mouseout"/>
                  </use>
                  <path fill="none" stroke="white" stroke-width="1.5" d="M0,-3.0v7 M-2.5,-0.5L0,-3.0L2.5,-0.5"/>
                </g>
                <g id="arrowDown" xlink:href="#dirArrow" transform="rotate(180) translate(-30 -48)" onmousedown="handlePan(0,1)">
                  <use xlink:href="#rim" fill="#404040">
                        <set attributeName="fill" to="#808080" begin="arrowDown.mouseover" end="arrowDown.mouseout"/>
                  </use>
                  <path fill="none" stroke="white" stroke-width="1.5" d="M0,-3.0v7 M-2.5,-0.5L0,-3.0L2.5,-0.5"/>
                </g>
                <g id="arrowLeft" xlink:href="#dirArrow" transform="rotate(270) translate(-36 17)" onmousedown="handlePan(-1,0)">
                  <use xlink:href="#rim" fill="#404040">
                        <set attributeName="fill" to="#808080" begin="arrowLeft.mouseover" end="arrowLeft.mouseout"/>
                  </use>
                  <path fill="none" stroke="white" stroke-width="1.5" d="M0,-3.0v7 M-2.5,-0.5L0,-3.0L2.5,-0.5"/>
                </g>
        </g>
        <svg viewBox="0 0 15 15" width="100%" height="30px" preserveAspectRatio="xMaxYMin meet">
         <g id="arrow_out" transform="scale(0.3 0.3)">
          <a xlink:href="interfacebio_1_1cerealisable__inherit__graph_org.svg" target="_base">
           <rect id="button" ry="5" rx="5" y="6" x="6" height="38" width="38"
                fill="#f2f5e9" fill-opacity="0.5" stroke="#606060" stroke-width="1.0"/>
           <path id="arrow"
             d="M 11.500037,31.436501 C 11.940474,20.09759 22.043105,11.32322 32.158766,21.979434 L 37.068811,17.246167 C 37.068811,17.246167 37.088388,32 37.088388,32 L 22.160133,31.978069 C 22.160133,31.978069 26.997745,27.140456 26.997745,27.140456 C 18.528582,18.264221 13.291696,25.230495 11.500037,31.436501 z"
             style="fill:#404040;"/>
          </a>
         </g>
        </svg>
</svg>
