<?xml version="1.0" encoding="UTF-8" standalone="no"?>
<!DOCTYPE svg PUBLIC "-//W3C//DTD SVG 1.1//EN"
 "http://www.w3.org/Graphics/SVG/1.1/DTD/svg11.dtd">
<!-- Generated by graphviz version 2.42.2 ()
 -->
<!-- Title: trivial Pages: 1 -->
<svg width="222pt" height="140pt"
 viewBox="0.00 0.00 221.50 140.00" xmlns="http://www.w3.org/2000/svg" xmlns:xlink="http://www.w3.org/1999/xlink">
<g id="graph0" class="graph" transform="scale(1 1) rotate(0) translate(4 136)">
<title>trivial</title>
<polygon fill="white" stroke="transparent" points="-4,4 -4,-136 217.5,-136 217.5,4 -4,4"/>
<!-- Node1 -->
<g id="node1" class="node">
<title>Node1</title>
<g id="a_node1"><a xlink:title="A type that satisfies bio::meta::trivially_copyable and bio::meta::trivially_destructible.">
<polygon fill="#bfbfbf" stroke="black" points="84,-0.5 84,-19.5 124,-19.5 124,-0.5 84,-0.5"/>
<text text-anchor="middle" x="104" y="-7.5" font-family="Helvetica,sans-Serif" font-size="10.00">trivial</text>
</a>
</g>
</g>
<!-- Node2 -->
<g id="node2" class="node">
<title>Node2</title>
<g id="a_node2"><a xlink:href="interfacebio_1_1meta_1_1trivially__copyable.html" target="_top" xlink:title="A type that satisfies std::is_trivially_copyable_v&lt;t&gt;.">
<polygon fill="white" stroke="black" points="0,-56.5 0,-75.5 92,-75.5 92,-56.5 0,-56.5"/>
<text text-anchor="middle" x="46" y="-63.5" font-family="Helvetica,sans-Serif" font-size="10.00">trivially_copyable</text>
</a>
</g>
</g>
<!-- Node2&#45;&gt;Node1 -->
<g id="edge1" class="edge">
<title>Node2&#45;&gt;Node1</title>
<path fill="none" stroke="midnightblue" d="M62.91,-49.25C73.2,-39.67 85.97,-27.79 94.51,-19.83"/>
<polygon fill="midnightblue" stroke="midnightblue" points="60.25,-46.95 55.32,-56.32 65.02,-52.07 60.25,-46.95"/>
</g>
<!-- Node3 -->
<g id="node3" class="node">
<title>Node3</title>
<g id="a_node3"><a xlink:title=" ">
<polygon fill="white" stroke="#bfbfbf" points="8.5,-112.5 8.5,-131.5 83.5,-131.5 83.5,-112.5 8.5,-112.5"/>
<text text-anchor="middle" x="46" y="-119.5" font-family="Helvetica,sans-Serif" font-size="10.00">std::copyable</text>
</a>
</g>
</g>
<!-- Node3&#45;&gt;Node2 -->
<g id="edge2" class="edge">
<title>Node3&#45;&gt;Node2</title>
<path fill="none" stroke="midnightblue" d="M46,-101.8C46,-92.91 46,-82.78 46,-75.75"/>
<polygon fill="midnightblue" stroke="midnightblue" points="42.5,-102.08 46,-112.08 49.5,-102.08 42.5,-102.08"/>
</g>
<!-- Node4 -->
<g id="node4" class="node">
<title>Node4</title>
<g id="a_node4"><a xlink:href="interfacebio_1_1meta_1_1trivially__destructible.html" target="_top" xlink:title="A type that satisfies std::is_trivially_destructible_v&lt;t&gt;.">
<polygon fill="white" stroke="black" points="110.5,-56.5 110.5,-75.5 213.5,-75.5 213.5,-56.5 110.5,-56.5"/>
<text text-anchor="middle" x="162" y="-63.5" font-family="Helvetica,sans-Serif" font-size="10.00">trivially_destructible</text>
</a>
</g>
</g>
<!-- Node4&#45;&gt;Node1 -->
<g id="edge3" class="edge">
<title>Node4&#45;&gt;Node1</title>
<path fill="none" stroke="midnightblue" d="M145.09,-49.25C134.8,-39.67 122.03,-27.79 113.49,-19.83"/>
<polygon fill="midnightblue" stroke="midnightblue" points="142.98,-52.07 152.68,-56.32 147.75,-46.95 142.98,-52.07"/>
</g>
<!-- Node5 -->
<g id="node5" class="node">
<title>Node5</title>
<g id="a_node5"><a xlink:title=" ">
<polygon fill="white" stroke="#bfbfbf" points="119,-112.5 119,-131.5 205,-131.5 205,-112.5 119,-112.5"/>
<text text-anchor="middle" x="162" y="-119.5" font-family="Helvetica,sans-Serif" font-size="10.00">std::destructible</text>
</a>
</g>
</g>
<!-- Node5&#45;&gt;Node4 -->
<g id="edge4" class="edge">
<title>Node5&#45;&gt;Node4</title>
<path fill="none" stroke="midnightblue" d="M162,-101.8C162,-92.91 162,-82.78 162,-75.75"/>
<polygon fill="midnightblue" stroke="midnightblue" points="158.5,-102.08 162,-112.08 165.5,-102.08 158.5,-102.08"/>
</g>
</g>
</svg>
