<?xml version="1.0" encoding="UTF-8" standalone="no"?>
<!DOCTYPE svg PUBLIC "-//W3C//DTD SVG 1.1//EN"
 "http://www.w3.org/Graphics/SVG/1.1/DTD/svg11.dtd">
<!-- Generated by graphviz version 2.42.2 ()
 -->
<!-- Title: semialphabet Pages: 1 -->
<svg width="1109pt" height="1110pt"
 viewBox="0.00 0.00 1109.00 1110.00" xmlns="http://www.w3.org/2000/svg" xmlns:xlink="http://www.w3.org/1999/xlink">
<g id="graph0" class="graph" transform="scale(1 1) rotate(0) translate(4 1106)">
<title>semialphabet</title>
<polygon fill="white" stroke="transparent" points="-4,4 -4,-1106 1105,-1106 1105,4 -4,4"/>
<!-- Node1 -->
<g id="node1" class="node">
<title>Node1</title>
<g id="a_node1"><a xlink:title="The basis for bio::alphabet::alphabet, but requires only rank interface (not char).">
<polygon fill="#bfbfbf" stroke="black" points="155,-330.5 155,-349.5 229,-349.5 229,-330.5 155,-330.5"/>
<text text-anchor="middle" x="192" y="-337.5" font-family="Helvetica,sans-Serif" font-size="10.00">semialphabet</text>
</a>
</g>
</g>
<!-- Node4 -->
<g id="node4" class="node">
<title>Node4</title>
<g id="a_node4"><a xlink:href="interfacebio_1_1alphabet_1_1alphabet.html" target="_top" xlink:title="The generic alphabet concept that covers most data types used in ranges.">
<polygon fill="white" stroke="black" points="307.5,-644.5 307.5,-663.5 360.5,-663.5 360.5,-644.5 307.5,-644.5"/>
<text text-anchor="middle" x="334" y="-651.5" font-family="Helvetica,sans-Serif" font-size="10.00">alphabet</text>
</a>
</g>
</g>
<!-- Node1&#45;&gt;Node4 -->
<g id="edge3" class="edge">
<title>Node1&#45;&gt;Node4</title>
<path fill="none" stroke="midnightblue" d="M201.53,-359.12C228.15,-418.84 309.13,-600.47 328.71,-644.37"/>
<polygon fill="midnightblue" stroke="midnightblue" points="204.61,-357.45 197.34,-349.74 198.22,-360.3 204.61,-357.45"/>
</g>
<!-- Node31 -->
<g id="node31" class="node">
<title>Node31</title>
<g id="a_node31"><a xlink:title=" ">
<polygon fill="white" stroke="black" points="273,-362.5 273,-381.5 395,-381.5 395,-362.5 273,-362.5"/>
<text text-anchor="middle" x="334" y="-369.5" font-family="Helvetica,sans-Serif" font-size="10.00">constexpr_semialphabet</text>
</a>
</g>
</g>
<!-- Node1&#45;&gt;Node31 -->
<g id="edge43" class="edge">
<title>Node1&#45;&gt;Node31</title>
<path fill="none" stroke="midnightblue" d="M239.22,-350.56C256.05,-354.41 274.96,-358.73 291.36,-362.48"/>
<polygon fill="midnightblue" stroke="midnightblue" points="239.58,-347.06 229.05,-348.24 238.02,-353.88 239.58,-347.06"/>
</g>
<!-- Node33 -->
<g id="node33" class="node">
<title>Node33</title>
<g id="a_node33"><a xlink:href="classbio_1_1alphabet_1_1semialphabet__any.html" target="_top" xlink:title="A semi&#45;alphabet that type erases all other semi&#45;alphabets of the same size.">
<polygon fill="white" stroke="black" points="266,-313 266,-343 402,-343 402,-313 266,-313"/>
<text text-anchor="start" x="274" y="-331" font-family="Helvetica,sans-Serif" font-size="10.00">bio::alphabet::semialphabet</text>
<text text-anchor="middle" x="334" y="-320" font-family="Helvetica,sans-Serif" font-size="10.00">_any&lt; size_ &gt;</text>
</a>
</g>
</g>
<!-- Node1&#45;&gt;Node33 -->
<g id="edge47" class="edge">
<title>Node1&#45;&gt;Node33</title>
<path fill="none" stroke="midnightblue" d="M239.17,-336.04C247.71,-335.31 256.79,-334.53 265.81,-333.76"/>
<polygon fill="midnightblue" stroke="midnightblue" points="238.72,-332.57 229.05,-336.91 239.32,-339.54 238.72,-332.57"/>
</g>
<!-- Node34 -->
<g id="node34" class="node">
<title>Node34</title>
<g id="a_node34"><a xlink:href="interfacebio_1_1alphabet_1_1writable__semialphabet.html" target="_top" xlink:title="A refinement of bio::alphabet::semialphabet that adds assignability.">
<polygon fill="white" stroke="black" points="277.5,-256.5 277.5,-275.5 390.5,-275.5 390.5,-256.5 277.5,-256.5"/>
<text text-anchor="middle" x="334" y="-263.5" font-family="Helvetica,sans-Serif" font-size="10.00">writable_semialphabet</text>
</a>
</g>
</g>
<!-- Node1&#45;&gt;Node34 -->
<g id="edge48" class="edge">
<title>Node1&#45;&gt;Node34</title>
<path fill="none" stroke="midnightblue" d="M220.19,-325.63C248.02,-310.92 290.5,-288.46 314.61,-275.72"/>
<polygon fill="midnightblue" stroke="midnightblue" points="218.22,-322.71 211.02,-330.48 221.49,-328.9 218.22,-322.71"/>
</g>
<!-- Node2 -->
<g id="node2" class="node">
<title>Node2</title>
<g id="a_node2"><a xlink:title=" ">
<polygon fill="white" stroke="#bfbfbf" points="9,-349.5 9,-368.5 109,-368.5 109,-349.5 9,-349.5"/>
<text text-anchor="middle" x="59" y="-356.5" font-family="Helvetica,sans-Serif" font-size="10.00">std::totally_ordered</text>
</a>
</g>
</g>
<!-- Node2&#45;&gt;Node1 -->
<g id="edge1" class="edge">
<title>Node2&#45;&gt;Node1</title>
<path fill="none" stroke="midnightblue" d="M119.2,-350.41C131.29,-348.66 143.67,-346.86 154.67,-345.27"/>
<polygon fill="midnightblue" stroke="midnightblue" points="118.55,-346.97 109.15,-351.87 119.55,-353.9 118.55,-346.97"/>
</g>
<!-- Node3 -->
<g id="node3" class="node">
<title>Node3</title>
<g id="a_node3"><a xlink:title=" ">
<polygon fill="white" stroke="#bfbfbf" points="0,-311.5 0,-330.5 118,-330.5 118,-311.5 0,-311.5"/>
<text text-anchor="middle" x="59" y="-318.5" font-family="Helvetica,sans-Serif" font-size="10.00">std::copy_constructible</text>
</a>
</g>
</g>
<!-- Node3&#45;&gt;Node1 -->
<g id="edge2" class="edge">
<title>Node3&#45;&gt;Node1</title>
<path fill="none" stroke="midnightblue" d="M128.17,-330.89C137.35,-332.22 146.46,-333.54 154.77,-334.75"/>
<polygon fill="midnightblue" stroke="midnightblue" points="128.62,-327.42 118.22,-329.44 127.62,-334.34 128.62,-327.42"/>
</g>
<!-- Node5 -->
<g id="node5" class="node">
<title>Node5</title>
<g id="a_node5"><a xlink:href="interfacebio_1_1alphabet_1_1aminoacid__alphabet.html" target="_top" xlink:title="A concept that indicates whether an alphabet represents amino acids.">
<polygon fill="white" stroke="black" points="456,-444.5 456,-463.5 559,-463.5 559,-444.5 456,-444.5"/>
<text text-anchor="middle" x="507.5" y="-451.5" font-family="Helvetica,sans-Serif" font-size="10.00">aminoacid_alphabet</text>
</a>
</g>
</g>
<!-- Node4&#45;&gt;Node5 -->
<g id="edge4" class="edge">
<title>Node4&#45;&gt;Node5</title>
<path fill="none" stroke="midnightblue" d="M349.92,-636.6C384.9,-595.8 471.32,-495.02 498.31,-463.55"/>
<polygon fill="midnightblue" stroke="midnightblue" points="347.12,-634.48 343.27,-644.35 352.44,-639.04 347.12,-634.48"/>
</g>
<!-- Node10 -->
<g id="node10" class="node">
<title>Node10</title>
<g id="a_node10"><a xlink:title=" ">
<polygon fill="white" stroke="black" points="457,-382.5 457,-401.5 558,-401.5 558,-382.5 457,-382.5"/>
<text text-anchor="middle" x="507.5" y="-389.5" font-family="Helvetica,sans-Serif" font-size="10.00">constexpr_alphabet</text>
</a>
</g>
</g>
<!-- Node4&#45;&gt;Node10 -->
<g id="edge9" class="edge">
<title>Node4&#45;&gt;Node10</title>
<path fill="none" stroke="midnightblue" d="M340.29,-634.33C352.13,-593.28 384.13,-497.13 439,-435 451.88,-420.42 470.86,-408.93 485.41,-401.5"/>
<polygon fill="midnightblue" stroke="midnightblue" points="336.86,-633.59 337.54,-644.17 343.6,-635.48 336.86,-633.59"/>
</g>
<!-- Node12 -->
<g id="node12" class="node">
<title>Node12</title>
<g id="a_node12"><a xlink:href="interfacebio_1_1alphabet_1_1nucleotide__alphabet.html" target="_top" xlink:title="A concept that indicates whether an alphabet represents nucleotides.">
<polygon fill="white" stroke="black" points="456,-869.5 456,-888.5 559,-888.5 559,-869.5 456,-869.5"/>
<text text-anchor="middle" x="507.5" y="-876.5" font-family="Helvetica,sans-Serif" font-size="10.00">nucleotide_alphabet</text>
</a>
</g>
</g>
<!-- Node4&#45;&gt;Node12 -->
<g id="edge11" class="edge">
<title>Node4&#45;&gt;Node12</title>
<path fill="none" stroke="midnightblue" d="M348.46,-671.66C382.8,-716.71 472.82,-834.81 499.16,-869.37"/>
<polygon fill="midnightblue" stroke="midnightblue" points="351.21,-669.5 342.37,-663.67 345.65,-673.74 351.21,-669.5"/>
</g>
<!-- Node20 -->
<g id="node20" class="node">
<title>Node20</title>
<g id="a_node20"><a xlink:href="interfacebio_1_1alphabet_1_1quality__alphabet.html" target="_top" xlink:title="A concept that indicates whether an alphabet represents quality scores.">
<polygon fill="white" stroke="black" points="464,-1082.5 464,-1101.5 551,-1101.5 551,-1082.5 464,-1082.5"/>
<text text-anchor="middle" x="507.5" y="-1089.5" font-family="Helvetica,sans-Serif" font-size="10.00">quality_alphabet</text>
</a>
</g>
</g>
<!-- Node4&#45;&gt;Node20 -->
<g id="edge19" class="edge">
<title>Node4&#45;&gt;Node20</title>
<path fill="none" stroke="midnightblue" d="M336.39,-673.97C341.98,-748.54 365.21,-1009.34 420,-1068 431.28,-1080.07 448.04,-1086.26 463.82,-1089.37"/>
<polygon fill="midnightblue" stroke="midnightblue" points="339.86,-673.39 335.64,-663.67 332.88,-673.89 339.86,-673.39"/>
</g>
<!-- Node21 -->
<g id="node21" class="node">
<title>Node21</title>
<g id="a_node21"><a xlink:href="interfacebio_1_1alphabet_1_1writable__quality__alphabet.html" target="_top" xlink:title="A concept that indicates whether a writable alphabet represents quality scores.">
<polygon fill="white" stroke="black" points="777,-1044.5 777,-1063.5 903,-1063.5 903,-1044.5 777,-1044.5"/>
<text text-anchor="middle" x="840" y="-1051.5" font-family="Helvetica,sans-Serif" font-size="10.00">writable_quality_alphabet</text>
</a>
</g>
</g>
<!-- Node4&#45;&gt;Node21 -->
<g id="edge42" class="edge">
<title>Node4&#45;&gt;Node21</title>
<path fill="none" stroke="midnightblue" d="M338.9,-673.32C348.7,-717.69 378.05,-828.37 439,-898 527.13,-998.68 688.33,-1034.87 776.8,-1047.5"/>
<polygon fill="midnightblue" stroke="midnightblue" points="342.32,-672.59 336.82,-663.54 335.48,-674.05 342.32,-672.59"/>
</g>
<!-- Node26 -->
<g id="node26" class="node">
<title>Node26</title>
<g id="a_node26"><a xlink:href="interfacebio_1_1alphabet_1_1writable__alphabet.html" target="_top" xlink:title="Refines bio::alphabet::alphabet and adds assignability.">
<polygon fill="white" stroke="black" points="461.5,-644.5 461.5,-663.5 553.5,-663.5 553.5,-644.5 461.5,-644.5"/>
<text text-anchor="middle" x="507.5" y="-651.5" font-family="Helvetica,sans-Serif" font-size="10.00">writable_alphabet</text>
</a>
</g>
</g>
<!-- Node4&#45;&gt;Node26 -->
<g id="edge25" class="edge">
<title>Node4&#45;&gt;Node26</title>
<path fill="none" stroke="midnightblue" d="M370.95,-654C397.23,-654 433.07,-654 461.29,-654"/>
<polygon fill="midnightblue" stroke="midnightblue" points="370.68,-650.5 360.68,-654 370.68,-657.5 370.68,-650.5"/>
</g>
<!-- Node6 -->
<g id="node6" class="node">
<title>Node6</title>
<g id="a_node6"><a xlink:href="classbio_1_1alphabet_1_1aa10li.html" target="_top" xlink:title="The reduced Li amino acid alphabet..">
<polygon fill="white" stroke="black" points="788,-543.5 788,-562.5 892,-562.5 892,-543.5 788,-543.5"/>
<text text-anchor="middle" x="840" y="-550.5" font-family="Helvetica,sans-Serif" font-size="10.00">bio::alphabet::aa10li</text>
</a>
</g>
</g>
<!-- Node5&#45;&gt;Node6 -->
<g id="edge5" class="edge">
<title>Node5&#45;&gt;Node6</title>
<path fill="none" stroke="midnightblue" d="M535.85,-468.07C552.37,-476.16 574.03,-486.07 594,-493 659.57,-515.76 737.87,-533.34 787.99,-543.42"/>
<polygon fill="midnightblue" stroke="midnightblue" points="537.28,-464.87 526.77,-463.55 534.16,-471.14 537.28,-464.87"/>
</g>
<!-- Node7 -->
<g id="node7" class="node">
<title>Node7</title>
<g id="a_node7"><a xlink:href="classbio_1_1alphabet_1_1aa10murphy.html" target="_top" xlink:title="The reduced Murphy amino acid alphabet..">
<polygon fill="white" stroke="black" points="774.5,-449.5 774.5,-468.5 905.5,-468.5 905.5,-449.5 774.5,-449.5"/>
<text text-anchor="middle" x="840" y="-456.5" font-family="Helvetica,sans-Serif" font-size="10.00">bio::alphabet::aa10murphy</text>
</a>
</g>
</g>
<!-- Node5&#45;&gt;Node7 -->
<g id="edge6" class="edge">
<title>Node5&#45;&gt;Node7</title>
<path fill="none" stroke="midnightblue" d="M569.11,-445.23C577.46,-444.31 585.93,-443.52 594,-443 658.31,-438.88 674.76,-437.89 739,-443 755.48,-444.31 773.33,-446.81 789.34,-449.46"/>
<polygon fill="midnightblue" stroke="midnightblue" points="568.56,-441.77 559.03,-446.41 569.37,-448.72 568.56,-441.77"/>
</g>
<!-- Node8 -->
<g id="node8" class="node">
<title>Node8</title>
<g id="a_node8"><a xlink:href="classbio_1_1alphabet_1_1aa20.html" target="_top" xlink:title="The canonical amino acid alphabet..">
<polygon fill="white" stroke="black" points="790.5,-407.5 790.5,-426.5 889.5,-426.5 889.5,-407.5 790.5,-407.5"/>
<text text-anchor="middle" x="840" y="-414.5" font-family="Helvetica,sans-Serif" font-size="10.00">bio::alphabet::aa20</text>
</a>
</g>
</g>
<!-- Node5&#45;&gt;Node8 -->
<g id="edge7" class="edge">
<title>Node5&#45;&gt;Node8</title>
<path fill="none" stroke="midnightblue" d="M555.84,-442.19C568.2,-439.47 581.54,-436.83 594,-435 661.72,-425.04 740.83,-420.49 790.43,-418.49"/>
<polygon fill="midnightblue" stroke="midnightblue" points="554.71,-438.86 545.74,-444.49 556.27,-445.69 554.71,-438.86"/>
</g>
<!-- Node9 -->
<g id="node9" class="node">
<title>Node9</title>
<g id="a_node9"><a xlink:href="classbio_1_1alphabet_1_1aa27.html" target="_top" xlink:title="The twenty&#45;seven letter amino acid alphabet..">
<polygon fill="white" stroke="black" points="790.5,-499.5 790.5,-518.5 889.5,-518.5 889.5,-499.5 790.5,-499.5"/>
<text text-anchor="middle" x="840" y="-506.5" font-family="Helvetica,sans-Serif" font-size="10.00">bio::alphabet::aa27</text>
</a>
</g>
</g>
<!-- Node5&#45;&gt;Node9 -->
<g id="edge8" class="edge">
<title>Node5&#45;&gt;Node9</title>
<path fill="none" stroke="midnightblue" d="M568.95,-464.06C632.59,-474.65 731.53,-491.12 790.34,-500.9"/>
<polygon fill="midnightblue" stroke="midnightblue" points="569.49,-460.6 559.06,-462.41 568.35,-467.51 569.49,-460.6"/>
</g>
<!-- Node11 -->
<g id="node11" class="node">
<title>Node11</title>
<g id="a_node11"><a xlink:title=" ">
<polygon fill="white" stroke="black" points="791,-355 791,-385 889,-385 889,-355 791,-355"/>
<text text-anchor="start" x="799" y="-373" font-family="Helvetica,sans-Serif" font-size="10.00">writable_constexpr</text>
<text text-anchor="middle" x="840" y="-362" font-family="Helvetica,sans-Serif" font-size="10.00">_alphabet</text>
</a>
</g>
</g>
<!-- Node10&#45;&gt;Node11 -->
<g id="edge10" class="edge">
<title>Node10&#45;&gt;Node11</title>
<path fill="none" stroke="midnightblue" d="M552.43,-379.64C573.25,-373.78 593.7,-368.04 594,-368 661.84,-358.66 741.26,-361.86 790.85,-365.52"/>
<polygon fill="midnightblue" stroke="midnightblue" points="551.27,-376.33 542.59,-382.4 553.16,-383.07 551.27,-376.33"/>
</g>
<!-- Node13 -->
<g id="node13" class="node">
<title>Node13</title>
<g id="a_node13"><a xlink:href="classbio_1_1alphabet_1_1dna15.html" target="_top" xlink:title="The 15 letter DNA alphabet, containing all IUPAC smybols minus the gap..">
<polygon fill="white" stroke="black" points="788,-923.5 788,-942.5 892,-942.5 892,-923.5 788,-923.5"/>
<text text-anchor="middle" x="840" y="-930.5" font-family="Helvetica,sans-Serif" font-size="10.00">bio::alphabet::dna15</text>
</a>
</g>
</g>
<!-- Node12&#45;&gt;Node13 -->
<g id="edge12" class="edge">
<title>Node12&#45;&gt;Node13</title>
<path fill="none" stroke="midnightblue" d="M564.62,-890.54C574.4,-892.45 584.48,-894.34 594,-896 660.74,-907.67 738.09,-918.98 787.74,-925.96"/>
<polygon fill="midnightblue" stroke="midnightblue" points="565.06,-887.06 554.57,-888.57 563.71,-893.93 565.06,-887.06"/>
</g>
<!-- Node14 -->
<g id="node14" class="node">
<title>Node14</title>
<g id="a_node14"><a xlink:href="classbio_1_1alphabet_1_1dna16sam.html" target="_top" xlink:title="A 16 letter DNA alphabet, containing all IUPAC symbols minus the gap and plus an equality sign (&#39;=&#39;)....">
<polygon fill="white" stroke="black" points="778.5,-838.5 778.5,-857.5 901.5,-857.5 901.5,-838.5 778.5,-838.5"/>
<text text-anchor="middle" x="840" y="-845.5" font-family="Helvetica,sans-Serif" font-size="10.00">bio::alphabet::dna16sam</text>
</a>
</g>
</g>
<!-- Node12&#45;&gt;Node14 -->
<g id="edge13" class="edge">
<title>Node12&#45;&gt;Node14</title>
<path fill="none" stroke="midnightblue" d="M569.06,-873.32C628.55,-867.74 718.82,-859.27 778.35,-853.69"/>
<polygon fill="midnightblue" stroke="midnightblue" points="568.69,-869.84 559.06,-874.26 569.34,-876.81 568.69,-869.84"/>
</g>
<!-- Node15 -->
<g id="node15" class="node">
<title>Node15</title>
<g id="a_node15"><a xlink:href="classbio_1_1alphabet_1_1dna4.html" target="_top" xlink:title="The four letter DNA alphabet of A,C,G,T..">
<polygon fill="white" stroke="black" points="790.5,-794.5 790.5,-813.5 889.5,-813.5 889.5,-794.5 790.5,-794.5"/>
<text text-anchor="middle" x="840" y="-801.5" font-family="Helvetica,sans-Serif" font-size="10.00">bio::alphabet::dna4</text>
</a>
</g>
</g>
<!-- Node12&#45;&gt;Node15 -->
<g id="edge14" class="edge">
<title>Node12&#45;&gt;Node15</title>
<path fill="none" stroke="midnightblue" d="M548.77,-866.48C562.99,-862.25 579.14,-857.68 594,-854 661.63,-837.24 740.76,-821.84 790.39,-812.69"/>
<polygon fill="midnightblue" stroke="midnightblue" points="547.37,-863.24 538.8,-869.47 549.39,-869.95 547.37,-863.24"/>
</g>
<!-- Node16 -->
<g id="node16" class="node">
<title>Node16</title>
<g id="a_node16"><a xlink:href="classbio_1_1alphabet_1_1dna5.html" target="_top" xlink:title="The five letter DNA alphabet of A,C,G,T and the unknown character N..">
<polygon fill="white" stroke="black" points="790.5,-755.5 790.5,-774.5 889.5,-774.5 889.5,-755.5 790.5,-755.5"/>
<text text-anchor="middle" x="840" y="-762.5" font-family="Helvetica,sans-Serif" font-size="10.00">bio::alphabet::dna5</text>
</a>
</g>
</g>
<!-- Node12&#45;&gt;Node16 -->
<g id="edge15" class="edge">
<title>Node12&#45;&gt;Node16</title>
<path fill="none" stroke="midnightblue" d="M527.01,-862.72C543.5,-849.06 568.84,-830.07 594,-819 658.59,-790.59 739.54,-776.51 790.28,-770"/>
<polygon fill="midnightblue" stroke="midnightblue" points="524.61,-860.17 519.25,-869.3 529.14,-865.51 524.61,-860.17"/>
</g>
<!-- Node17 -->
<g id="node17" class="node">
<title>Node17</title>
<g id="a_node17"><a xlink:href="classbio_1_1alphabet_1_1rna15.html" target="_top" xlink:title="The 15 letter RNA alphabet, containing all IUPAC smybols minus the gap..">
<polygon fill="white" stroke="black" points="789,-877.5 789,-896.5 891,-896.5 891,-877.5 789,-877.5"/>
<text text-anchor="middle" x="840" y="-884.5" font-family="Helvetica,sans-Serif" font-size="10.00">bio::alphabet::rna15</text>
</a>
</g>
</g>
<!-- Node12&#45;&gt;Node17 -->
<g id="edge16" class="edge">
<title>Node12&#45;&gt;Node17</title>
<path fill="none" stroke="midnightblue" d="M569.27,-880.47C632.44,-882 730.14,-884.36 788.99,-885.79"/>
<polygon fill="midnightblue" stroke="midnightblue" points="569.14,-876.97 559.06,-880.22 568.97,-883.96 569.14,-876.97"/>
</g>
<!-- Node18 -->
<g id="node18" class="node">
<title>Node18</title>
<g id="a_node18"><a xlink:href="classbio_1_1alphabet_1_1rna4.html" target="_top" xlink:title="The four letter RNA alphabet of A,C,G,U..">
<polygon fill="white" stroke="black" points="791.5,-1005.5 791.5,-1024.5 888.5,-1024.5 888.5,-1005.5 791.5,-1005.5"/>
<text text-anchor="middle" x="840" y="-1012.5" font-family="Helvetica,sans-Serif" font-size="10.00">bio::alphabet::rna4</text>
</a>
</g>
</g>
<!-- Node12&#45;&gt;Node18 -->
<g id="edge17" class="edge">
<title>Node12&#45;&gt;Node18</title>
<path fill="none" stroke="midnightblue" d="M523.59,-896.06C539.48,-912.98 566.03,-938.41 594,-953 657.61,-986.17 739.9,-1002.26 791.07,-1009.56"/>
<polygon fill="midnightblue" stroke="midnightblue" points="526.03,-893.54 516.69,-888.53 520.87,-898.27 526.03,-893.54"/>
</g>
<!-- Node19 -->
<g id="node19" class="node">
<title>Node19</title>
<g id="a_node19"><a xlink:href="classbio_1_1alphabet_1_1rna5.html" target="_top" xlink:title="The five letter RNA alphabet of A,C,G,U and the unknown character N..">
<polygon fill="white" stroke="black" points="791.5,-965.5 791.5,-984.5 888.5,-984.5 888.5,-965.5 791.5,-965.5"/>
<text text-anchor="middle" x="840" y="-972.5" font-family="Helvetica,sans-Serif" font-size="10.00">bio::alphabet::rna5</text>
</a>
</g>
</g>
<!-- Node12&#45;&gt;Node19 -->
<g id="edge18" class="edge">
<title>Node12&#45;&gt;Node19</title>
<path fill="none" stroke="midnightblue" d="M534.09,-893.59C550.72,-902.55 573.12,-913.69 594,-921 660.6,-944.32 741.02,-959.75 791.1,-967.94"/>
<polygon fill="midnightblue" stroke="midnightblue" points="535.47,-890.35 525.02,-888.6 532.1,-896.48 535.47,-890.35"/>
</g>
<!-- Node20&#45;&gt;Node21 -->
<g id="edge20" class="edge">
<title>Node20&#45;&gt;Node21</title>
<path fill="none" stroke="midnightblue" d="M561.23,-1087.04C607.99,-1082.52 678.11,-1075.43 739,-1068 751.27,-1066.5 764.36,-1064.77 776.9,-1063.04"/>
<polygon fill="midnightblue" stroke="midnightblue" points="560.65,-1083.58 551.03,-1088.03 561.32,-1090.55 560.65,-1083.58"/>
</g>
<!-- Node22 -->
<g id="node22" class="node">
<title>Node22</title>
<g id="a_node22"><a xlink:href="classbio_1_1alphabet_1_1phred42.html" target="_top" xlink:title="Quality type for traditional Sanger and modern Illumina Phred scores (typical range)....">
<polygon fill="white" stroke="black" points="974,-1082.5 974,-1101.5 1087,-1101.5 1087,-1082.5 974,-1082.5"/>
<text text-anchor="middle" x="1030.5" y="-1089.5" font-family="Helvetica,sans-Serif" font-size="10.00">bio::alphabet::phred42</text>
</a>
</g>
</g>
<!-- Node21&#45;&gt;Node22 -->
<g id="edge21" class="edge">
<title>Node21&#45;&gt;Node22</title>
<path fill="none" stroke="midnightblue" d="M898.59,-1065.61C925.4,-1071.01 956.9,-1077.36 982.28,-1082.48"/>
<polygon fill="midnightblue" stroke="midnightblue" points="899.06,-1062.13 888.57,-1063.59 897.68,-1069 899.06,-1062.13"/>
</g>
<!-- Node23 -->
<g id="node23" class="node">
<title>Node23</title>
<g id="a_node23"><a xlink:href="classbio_1_1alphabet_1_1phred63.html" target="_top" xlink:title="Quality type for traditional Sanger and modern Illumina Phred scores (full range)....">
<polygon fill="white" stroke="black" points="974,-1044.5 974,-1063.5 1087,-1063.5 1087,-1044.5 974,-1044.5"/>
<text text-anchor="middle" x="1030.5" y="-1051.5" font-family="Helvetica,sans-Serif" font-size="10.00">bio::alphabet::phred63</text>
</a>
</g>
</g>
<!-- Node21&#45;&gt;Node23 -->
<g id="edge22" class="edge">
<title>Node21&#45;&gt;Node23</title>
<path fill="none" stroke="midnightblue" d="M913.31,-1054C933.44,-1054 954.98,-1054 973.99,-1054"/>
<polygon fill="midnightblue" stroke="midnightblue" points="913.24,-1050.5 903.24,-1054 913.24,-1057.5 913.24,-1050.5"/>
</g>
<!-- Node24 -->
<g id="node24" class="node">
<title>Node24</title>
<g id="a_node24"><a xlink:href="classbio_1_1alphabet_1_1phred68legacy.html" target="_top" xlink:title="Quality type for Solexa and deprecated Illumina formats..">
<polygon fill="white" stroke="black" points="960,-1006.5 960,-1025.5 1101,-1025.5 1101,-1006.5 960,-1006.5"/>
<text text-anchor="middle" x="1030.5" y="-1013.5" font-family="Helvetica,sans-Serif" font-size="10.00">bio::alphabet::phred68legacy</text>
</a>
</g>
</g>
<!-- Node21&#45;&gt;Node24 -->
<g id="edge23" class="edge">
<title>Node21&#45;&gt;Node24</title>
<path fill="none" stroke="midnightblue" d="M898.59,-1042.39C925.4,-1036.99 956.9,-1030.64 982.28,-1025.52"/>
<polygon fill="midnightblue" stroke="midnightblue" points="897.68,-1039 888.57,-1044.41 899.06,-1045.87 897.68,-1039"/>
</g>
<!-- Node25 -->
<g id="node25" class="node">
<title>Node25</title>
<g id="a_node25"><a xlink:href="classbio_1_1alphabet_1_1qualified.html" target="_top" xlink:title="Joins an arbitrary alphabet with a quality alphabet.">
<polygon fill="white" stroke="black" points="970,-783.5 970,-824.5 1091,-824.5 1091,-783.5 970,-783.5"/>
<text text-anchor="start" x="978" y="-812.5" font-family="Helvetica,sans-Serif" font-size="10.00">bio::alphabet::qualified</text>
<text text-anchor="start" x="978" y="-801.5" font-family="Helvetica,sans-Serif" font-size="10.00">&lt; sequence_alphabet_t,</text>
<text text-anchor="middle" x="1030.5" y="-790.5" font-family="Helvetica,sans-Serif" font-size="10.00"> quality_alphabet_t &gt;</text>
</a>
</g>
</g>
<!-- Node21&#45;&gt;Node25 -->
<g id="edge24" class="edge">
<title>Node21&#45;&gt;Node25</title>
<path fill="none" stroke="midnightblue" d="M912.24,-1041.13C916.06,-1039.08 919.69,-1036.72 923,-1034 990.81,-978.24 1017.61,-869.71 1026.14,-824.52"/>
<polygon fill="midnightblue" stroke="midnightblue" points="910.65,-1038.01 903.01,-1045.36 913.56,-1044.38 910.65,-1038.01"/>
</g>
<!-- Node26&#45;&gt;Node6 -->
<g id="edge26" class="edge">
<title>Node26&#45;&gt;Node6</title>
<path fill="none" stroke="midnightblue" d="M526.27,-637.56C542.61,-623.41 568.16,-603.65 594,-593 657.56,-566.82 737.02,-557.73 787.9,-554.6"/>
<polygon fill="midnightblue" stroke="midnightblue" points="523.76,-635.11 518.61,-644.37 528.41,-640.34 523.76,-635.11"/>
</g>
<!-- Node26&#45;&gt;Node7 -->
<g id="edge27" class="edge">
<title>Node26&#45;&gt;Node7</title>
<path fill="none" stroke="midnightblue" d="M515.03,-634.39C526.16,-604.23 551.77,-546.9 594,-518 648.17,-480.93 675.34,-505.96 739,-490 763.68,-483.81 791.28,-475.12 811.21,-468.51"/>
<polygon fill="midnightblue" stroke="midnightblue" points="511.61,-633.58 511.58,-644.18 518.21,-635.91 511.61,-633.58"/>
</g>
<!-- Node26&#45;&gt;Node8 -->
<g id="edge28" class="edge">
<title>Node26&#45;&gt;Node8</title>
<path fill="none" stroke="midnightblue" d="M513.64,-634.42C523.51,-600.65 548.27,-531.4 594,-493 610.29,-479.33 738.65,-443.75 802.79,-426.57"/>
<polygon fill="midnightblue" stroke="midnightblue" points="510.17,-633.84 510.86,-644.41 516.91,-635.72 510.17,-633.84"/>
</g>
<!-- Node26&#45;&gt;Node9 -->
<g id="edge29" class="edge">
<title>Node26&#45;&gt;Node9</title>
<path fill="none" stroke="midnightblue" d="M519.05,-635.46C533.07,-612.64 560.07,-574.52 594,-555 626.73,-536.17 728.68,-521.64 790.27,-514.29"/>
<polygon fill="midnightblue" stroke="midnightblue" points="515.95,-633.82 513.85,-644.2 521.97,-637.39 515.95,-633.82"/>
</g>
<!-- Node26&#45;&gt;Node11 -->
<g id="edge32" class="edge">
<title>Node26&#45;&gt;Node11</title>
<path fill="none" stroke="midnightblue" d="M515.65,-634.78C534.8,-583.53 586.29,-446.96 594,-440 648.83,-390.49 736.38,-375.78 790.63,-371.55"/>
<polygon fill="midnightblue" stroke="midnightblue" points="512.3,-633.76 512.08,-644.35 518.86,-636.2 512.3,-633.76"/>
</g>
<!-- Node26&#45;&gt;Node13 -->
<g id="edge33" class="edge">
<title>Node26&#45;&gt;Node13</title>
<path fill="none" stroke="midnightblue" d="M512.31,-674.01C520.54,-712.05 543.49,-795.24 594,-843 624.87,-872.19 741.95,-906.9 802.39,-923.39"/>
<polygon fill="midnightblue" stroke="midnightblue" points="515.64,-672.84 510.21,-663.75 508.78,-674.24 515.64,-672.84"/>
</g>
<!-- Node26&#45;&gt;Node14 -->
<g id="edge34" class="edge">
<title>Node26&#45;&gt;Node14</title>
<path fill="none" stroke="midnightblue" d="M519.96,-671.94C534.74,-693.87 562.37,-730.9 594,-754 650.46,-795.24 674.83,-787.25 739,-815 747.04,-818.48 748.8,-819.94 757,-823 772.34,-828.72 789.64,-834.14 804.38,-838.46"/>
<polygon fill="midnightblue" stroke="midnightblue" points="522.85,-669.98 514.43,-663.55 517.01,-673.83 522.85,-669.98"/>
</g>
<!-- Node26&#45;&gt;Node15 -->
<g id="edge35" class="edge">
<title>Node26&#45;&gt;Node15</title>
<path fill="none" stroke="midnightblue" d="M527.59,-670.07C544.27,-683.5 569.57,-702.41 594,-715 654.59,-746.23 681.69,-728.09 739,-765 748.78,-771.3 746.94,-778.16 757,-784 767.14,-789.88 778.95,-794.04 790.4,-796.98"/>
<polygon fill="midnightblue" stroke="midnightblue" points="529.66,-667.25 519.71,-663.62 525.22,-672.66 529.66,-667.25"/>
</g>
<!-- Node26&#45;&gt;Node16 -->
<g id="edge36" class="edge">
<title>Node26&#45;&gt;Node16</title>
<path fill="none" stroke="midnightblue" d="M537.6,-668.03C553.88,-675.43 574.73,-684.15 594,-690 656.81,-709.06 684.65,-681.21 739,-718 751.25,-726.29 744.9,-737.48 757,-746 766.8,-752.9 778.73,-757.33 790.43,-760.16"/>
<polygon fill="midnightblue" stroke="midnightblue" points="538.65,-664.66 528.11,-663.64 535.71,-671.01 538.65,-664.66"/>
</g>
<!-- Node26&#45;&gt;Node17 -->
<g id="edge39" class="edge">
<title>Node26&#45;&gt;Node17</title>
<path fill="none" stroke="midnightblue" d="M515.37,-673.28C527.08,-703.64 553.64,-762.76 594,-798 653.26,-849.74 682.32,-842.27 757,-867 768.96,-870.96 782.14,-874.52 794.37,-877.5"/>
<polygon fill="midnightblue" stroke="midnightblue" points="518.62,-671.97 511.85,-663.83 512.06,-674.42 518.62,-671.97"/>
</g>
<!-- Node26&#45;&gt;Node18 -->
<g id="edge40" class="edge">
<title>Node26&#45;&gt;Node18</title>
<path fill="none" stroke="midnightblue" d="M515.55,-673.59C528.51,-709.99 556.59,-790.7 576,-860 585.48,-893.84 570.51,-910.86 594,-937 645.3,-994.09 683.54,-971.79 757,-994 770.5,-998.08 785.41,-1002.06 798.77,-1005.43"/>
<polygon fill="midnightblue" stroke="midnightblue" points="518.7,-672.01 512.04,-663.77 512.11,-674.36 518.7,-672.01"/>
</g>
<!-- Node26&#45;&gt;Node19 -->
<g id="edge41" class="edge">
<title>Node26&#45;&gt;Node19</title>
<path fill="none" stroke="midnightblue" d="M514.57,-673.39C531.37,-726.57 578.24,-871.86 594,-888 647.13,-942.42 736.46,-962.89 791.32,-970.53"/>
<polygon fill="midnightblue" stroke="midnightblue" points="517.81,-672.01 511.47,-663.52 511.13,-674.11 517.81,-672.01"/>
</g>
<!-- Node27 -->
<g id="node27" class="node">
<title>Node27</title>
<g id="a_node27"><a xlink:href="classbio_1_1alphabet_1_1alphabet__variant.html" target="_top" xlink:title="A combined alphabet that can hold values of either of its alternatives..">
<polygon fill="white" stroke="black" points="782.5,-695.5 782.5,-736.5 897.5,-736.5 897.5,-695.5 782.5,-695.5"/>
<text text-anchor="start" x="790.5" y="-724.5" font-family="Helvetica,sans-Serif" font-size="10.00">bio::alphabet::alphabet</text>
<text text-anchor="start" x="790.5" y="-713.5" font-family="Helvetica,sans-Serif" font-size="10.00">_variant&lt; alternative</text>
<text text-anchor="middle" x="840" y="-702.5" font-family="Helvetica,sans-Serif" font-size="10.00">_types &gt;</text>
</a>
</g>
</g>
<!-- Node26&#45;&gt;Node27 -->
<g id="edge30" class="edge">
<title>Node26&#45;&gt;Node27</title>
<path fill="none" stroke="midnightblue" d="M563.63,-662.4C610.43,-669.75 679.3,-681.09 739,-693 753.06,-695.8 768.17,-699.12 782.27,-702.35"/>
<polygon fill="midnightblue" stroke="midnightblue" points="564.11,-658.93 553.69,-660.85 563.03,-665.85 564.11,-658.93"/>
</g>
<!-- Node28 -->
<g id="node28" class="node">
<title>Node28</title>
<g id="a_node28"><a xlink:href="classbio_1_1alphabet_1_1cigar__op.html" target="_top" xlink:title="The (extended) cigar operation alphabet of M,D,I,H,N,P,S,X,=..">
<polygon fill="white" stroke="black" points="782.5,-657.5 782.5,-676.5 897.5,-676.5 897.5,-657.5 782.5,-657.5"/>
<text text-anchor="middle" x="840" y="-664.5" font-family="Helvetica,sans-Serif" font-size="10.00">bio::alphabet::cigar_op</text>
</a>
</g>
</g>
<!-- Node26&#45;&gt;Node28 -->
<g id="edge31" class="edge">
<title>Node26&#45;&gt;Node28</title>
<path fill="none" stroke="midnightblue" d="M563.91,-656.18C624.56,-658.57 721.29,-662.37 782.4,-664.77"/>
<polygon fill="midnightblue" stroke="midnightblue" points="563.89,-652.68 553.76,-655.78 563.62,-659.67 563.89,-652.68"/>
</g>
<!-- Node29 -->
<g id="node29" class="node">
<title>Node29</title>
<g id="a_node29"><a xlink:href="classbio_1_1alphabet_1_1gap.html" target="_top" xlink:title="The alphabet of a gap character &#39;&#45;&#39;.">
<polygon fill="white" stroke="black" points="793,-619.5 793,-638.5 887,-638.5 887,-619.5 793,-619.5"/>
<text text-anchor="middle" x="840" y="-626.5" font-family="Helvetica,sans-Serif" font-size="10.00">bio::alphabet::gap</text>
</a>
</g>
</g>
<!-- Node26&#45;&gt;Node29 -->
<g id="edge37" class="edge">
<title>Node26&#45;&gt;Node29</title>
<path fill="none" stroke="midnightblue" d="M564.11,-649.79C628.4,-644.93 733.03,-637.02 792.96,-632.48"/>
<polygon fill="midnightblue" stroke="midnightblue" points="563.47,-646.33 553.76,-650.58 564,-653.31 563.47,-646.33"/>
</g>
<!-- Node30 -->
<g id="node30" class="node">
<title>Node30</title>
<g id="a_node30"><a xlink:href="classbio_1_1alphabet_1_1masked.html" target="_top" xlink:title="Implementation of a masked composite, which extends a given alphabet with a mask..">
<polygon fill="white" stroke="black" points="967,-394 967,-424 1094,-424 1094,-394 967,-394"/>
<text text-anchor="start" x="975" y="-412" font-family="Helvetica,sans-Serif" font-size="10.00">bio::alphabet::masked</text>
<text text-anchor="middle" x="1030.5" y="-401" font-family="Helvetica,sans-Serif" font-size="10.00">&lt; sequence_alphabet_t &gt;</text>
</a>
</g>
</g>
<!-- Node26&#45;&gt;Node30 -->
<g id="edge38" class="edge">
<title>Node26&#45;&gt;Node30</title>
<path fill="none" stroke="midnightblue" d="M555.23,-642.01C567.79,-638.93 581.38,-635.72 594,-633 630.35,-625.17 892.06,-592.61 923,-572 978.98,-534.7 1012.28,-456.9 1024.34,-424.1"/>
<polygon fill="midnightblue" stroke="midnightblue" points="554.29,-638.63 545.43,-644.44 555.98,-645.43 554.29,-638.63"/>
</g>
<!-- Node31&#45;&gt;Node10 -->
<g id="edge44" class="edge">
<title>Node31&#45;&gt;Node10</title>
<path fill="none" stroke="midnightblue" d="M405.48,-380.22C422.69,-382.23 440.75,-384.33 456.77,-386.2"/>
<polygon fill="midnightblue" stroke="midnightblue" points="405.8,-376.73 395.46,-379.05 404.99,-383.69 405.8,-376.73"/>
</g>
<!-- Node32 -->
<g id="node32" class="node">
<title>Node32</title>
<g id="a_node32"><a xlink:title=" ">
<polygon fill="white" stroke="black" points="458.5,-333 458.5,-363 556.5,-363 556.5,-333 458.5,-333"/>
<text text-anchor="start" x="466.5" y="-351" font-family="Helvetica,sans-Serif" font-size="10.00">writable_constexpr</text>
<text text-anchor="middle" x="507.5" y="-340" font-family="Helvetica,sans-Serif" font-size="10.00">_semialphabet</text>
</a>
</g>
</g>
<!-- Node31&#45;&gt;Node32 -->
<g id="edge45" class="edge">
<title>Node31&#45;&gt;Node32</title>
<path fill="none" stroke="midnightblue" d="M405.77,-362.1C423.49,-359.62 442.09,-357.01 458.42,-354.73"/>
<polygon fill="midnightblue" stroke="midnightblue" points="404.88,-358.69 395.46,-363.54 405.85,-365.62 404.88,-358.69"/>
</g>
<!-- Node32&#45;&gt;Node11 -->
<g id="edge46" class="edge">
<title>Node32&#45;&gt;Node11</title>
<path fill="none" stroke="midnightblue" d="M566.92,-348.83C613.57,-349.84 680.57,-352.07 739,-357 755.92,-358.43 774.38,-360.64 790.77,-362.84"/>
<polygon fill="midnightblue" stroke="midnightblue" points="566.77,-345.32 556.7,-348.62 566.62,-352.32 566.77,-345.32"/>
</g>
<!-- Node34&#45;&gt;Node26 -->
<g id="edge62" class="edge">
<title>Node34&#45;&gt;Node26</title>
<path fill="none" stroke="midnightblue" d="M373.25,-280.02C383.98,-285.65 394.69,-293.19 402,-303 448.19,-365.01 417.21,-398.81 439,-473 458.66,-539.93 490.93,-617.59 502.34,-644.36"/>
<polygon fill="midnightblue" stroke="midnightblue" points="374.44,-276.71 363.91,-275.55 371.42,-283.03 374.44,-276.71"/>
</g>
<!-- Node34&#45;&gt;Node32 -->
<g id="edge60" class="edge">
<title>Node34&#45;&gt;Node32</title>
<path fill="none" stroke="midnightblue" d="M363.85,-280.38C375.95,-286.81 389.97,-294.78 402,-303 410.6,-308.88 410.93,-312.88 420,-318 431.9,-324.72 445.57,-330.32 458.47,-334.78"/>
<polygon fill="midnightblue" stroke="midnightblue" points="365.12,-277.1 354.64,-275.59 361.89,-283.31 365.12,-277.1"/>
</g>
<!-- Node35 -->
<g id="node35" class="node">
<title>Node35</title>
<g id="a_node35"><a xlink:href="classbio_1_1alphabet_1_1alphabet__tuple__base.html" target="_top" xlink:title=" ">
<polygon fill="white" stroke="black" points="774.5,-76.5 774.5,-117.5 905.5,-117.5 905.5,-76.5 774.5,-76.5"/>
<text text-anchor="start" x="782.5" y="-105.5" font-family="Helvetica,sans-Serif" font-size="10.00">bio::alphabet::alphabet</text>
<text text-anchor="start" x="782.5" y="-94.5" font-family="Helvetica,sans-Serif" font-size="10.00">_tuple_base&lt; cigar, uint32</text>
<text text-anchor="middle" x="840" y="-83.5" font-family="Helvetica,sans-Serif" font-size="10.00">_t, cigar_op &gt;</text>
</a>
</g>
</g>
<!-- Node34&#45;&gt;Node35 -->
<g id="edge49" class="edge">
<title>Node34&#45;&gt;Node35</title>
<path fill="none" stroke="midnightblue" d="M348.48,-248.41C366.8,-225.55 401.57,-185.66 439,-161 500.82,-120.27 521.35,-114.24 594,-100 654.32,-88.17 724.6,-88.74 774.38,-91.48"/>
<polygon fill="midnightblue" stroke="midnightblue" points="345.73,-246.25 342.3,-256.27 351.23,-250.58 345.73,-246.25"/>
</g>
<!-- Node36 -->
<g id="node36" class="node">
<title>Node36</title>
<g id="a_node36"><a xlink:href="classbio_1_1alphabet_1_1cigar.html" target="_top" xlink:title="The cigar semialphabet pairs a counter with a bio::alphabet::cigar_op letter.">
<polygon fill="white" stroke="black" points="981,-57.5 981,-76.5 1080,-76.5 1080,-57.5 981,-57.5"/>
<text text-anchor="middle" x="1030.5" y="-64.5" font-family="Helvetica,sans-Serif" font-size="10.00">bio::alphabet::cigar</text>
</a>
</g>
</g>
<!-- Node34&#45;&gt;Node36 -->
<g id="edge59" class="edge">
<title>Node34&#45;&gt;Node36</title>
<path fill="none" stroke="midnightblue" d="M340.84,-246.61C352.75,-210.74 383.55,-134.56 439,-100 618.51,11.86 891.48,-34.94 991.27,-57.48"/>
<polygon fill="midnightblue" stroke="midnightblue" points="337.43,-245.76 337.74,-256.35 344.1,-247.88 337.43,-245.76"/>
</g>
<!-- Node37 -->
<g id="node37" class="node">
<title>Node37</title>
<g id="a_node37"><a xlink:href="classbio_1_1alphabet_1_1alphabet__tuple__base.html" target="_top" xlink:title=" ">
<polygon fill="white" stroke="black" points="757,-201 757,-253 923,-253 923,-201 757,-201"/>
<text text-anchor="start" x="765" y="-241" font-family="Helvetica,sans-Serif" font-size="10.00">bio::alphabet::alphabet</text>
<text text-anchor="start" x="765" y="-230" font-family="Helvetica,sans-Serif" font-size="10.00">_tuple_base&lt; masked&lt; sequence</text>
<text text-anchor="start" x="765" y="-219" font-family="Helvetica,sans-Serif" font-size="10.00">_alphabet_t &gt;, sequence_alphabet</text>
<text text-anchor="middle" x="840" y="-208" font-family="Helvetica,sans-Serif" font-size="10.00">_t, mask &gt;</text>
</a>
</g>
</g>
<!-- Node34&#45;&gt;Node37 -->
<g id="edge51" class="edge">
<title>Node34&#45;&gt;Node37</title>
<path fill="none" stroke="midnightblue" d="M400.8,-273.02C481.31,-279.97 621.43,-286.74 739,-265 752.97,-262.42 767.52,-257.98 781.06,-253.04"/>
<polygon fill="midnightblue" stroke="midnightblue" points="401.07,-269.53 390.8,-272.13 400.45,-276.5 401.07,-269.53"/>
</g>
<!-- Node38 -->
<g id="node38" class="node">
<title>Node38</title>
<g id="a_node38"><a xlink:href="classbio_1_1alphabet_1_1alphabet__tuple__base.html" target="_top" xlink:title=" ">
<polygon fill="white" stroke="black" points="759.5,-272.5 759.5,-335.5 920.5,-335.5 920.5,-272.5 759.5,-272.5"/>
<text text-anchor="start" x="767.5" y="-323.5" font-family="Helvetica,sans-Serif" font-size="10.00">bio::alphabet::alphabet</text>
<text text-anchor="start" x="767.5" y="-312.5" font-family="Helvetica,sans-Serif" font-size="10.00">_tuple_base&lt; qualified</text>
<text text-anchor="start" x="767.5" y="-301.5" font-family="Helvetica,sans-Serif" font-size="10.00">&lt; sequence_alphabet_t,</text>
<text text-anchor="start" x="767.5" y="-290.5" font-family="Helvetica,sans-Serif" font-size="10.00"> quality_alphabet_t &gt;, sequence</text>
<text text-anchor="middle" x="840" y="-279.5" font-family="Helvetica,sans-Serif" font-size="10.00">_alphabet_t, quality_alphabet_t &gt;</text>
</a>
</g>
</g>
<!-- Node34&#45;&gt;Node38 -->
<g id="edge53" class="edge">
<title>Node34&#45;&gt;Node38</title>
<path fill="none" stroke="midnightblue" d="M397.39,-277.05C404.99,-278.17 412.66,-279.19 420,-280 537.68,-293.04 674.79,-299.19 759.24,-301.95"/>
<polygon fill="midnightblue" stroke="midnightblue" points="397.89,-273.59 387.48,-275.54 396.83,-280.51 397.89,-273.59"/>
</g>
<!-- Node39 -->
<g id="node39" class="node">
<title>Node39</title>
<g id="a_node39"><a xlink:href="classbio_1_1alphabet_1_1alphabet__tuple__base.html" target="_top" xlink:title="The CRTP base for a combined alphabet that contains multiple values of different alphabets at the sam...">
<polygon fill="white" stroke="black" points="439,-170.5 439,-211.5 576,-211.5 576,-170.5 439,-170.5"/>
<text text-anchor="start" x="447" y="-199.5" font-family="Helvetica,sans-Serif" font-size="10.00">bio::alphabet::alphabet</text>
<text text-anchor="start" x="447" y="-188.5" font-family="Helvetica,sans-Serif" font-size="10.00">_tuple_base&lt; derived_type,</text>
<text text-anchor="middle" x="507.5" y="-177.5" font-family="Helvetica,sans-Serif" font-size="10.00"> component_types &gt;</text>
</a>
</g>
</g>
<!-- Node34&#45;&gt;Node39 -->
<g id="edge55" class="edge">
<title>Node34&#45;&gt;Node39</title>
<path fill="none" stroke="midnightblue" d="M366.43,-252.25C392.42,-240.89 429.71,-224.58 459.28,-211.65"/>
<polygon fill="midnightblue" stroke="midnightblue" points="364.83,-249.13 357.07,-256.35 367.63,-255.55 364.83,-249.13"/>
</g>
<!-- Node40 -->
<g id="node40" class="node">
<title>Node40</title>
<g id="a_node40"><a xlink:href="classbio_1_1alphabet_1_1mask.html" target="_top" xlink:title="Implementation of a masked alphabet to be used for tuple composites..">
<polygon fill="white" stroke="black" points="456.5,-0.5 456.5,-19.5 558.5,-19.5 558.5,-0.5 456.5,-0.5"/>
<text text-anchor="middle" x="507.5" y="-7.5" font-family="Helvetica,sans-Serif" font-size="10.00">bio::alphabet::mask</text>
</a>
</g>
</g>
<!-- Node34&#45;&gt;Node40 -->
<g id="edge61" class="edge">
<title>Node34&#45;&gt;Node40</title>
<path fill="none" stroke="midnightblue" d="M336.34,-246.27C340.44,-201.64 356.77,-92.33 420,-34 429.97,-24.81 443.15,-19.09 456.21,-15.55"/>
<polygon fill="midnightblue" stroke="midnightblue" points="332.84,-246.12 335.52,-256.37 339.81,-246.69 332.84,-246.12"/>
</g>
<!-- Node35&#45;&gt;Node36 -->
<g id="edge50" class="edge">
<title>Node35&#45;&gt;Node36</title>
<path fill="none" stroke="midnightblue" d="M915.56,-85.13C937.48,-81.65 960.89,-77.92 980.76,-74.76"/>
<polygon fill="midnightblue" stroke="midnightblue" points="914.93,-81.69 905.61,-86.72 916.03,-88.6 914.93,-81.69"/>
</g>
<!-- Node37&#45;&gt;Node30 -->
<g id="edge52" class="edge">
<title>Node37&#45;&gt;Node30</title>
<path fill="none" stroke="midnightblue" d="M917.34,-258.75C919.29,-260.12 921.18,-261.54 923,-263 970.19,-300.94 1006.76,-364.66 1021.9,-393.72"/>
<polygon fill="midnightblue" stroke="midnightblue" points="918.81,-255.53 908.51,-253.05 915.02,-261.41 918.81,-255.53"/>
</g>
<!-- Node38&#45;&gt;Node25 -->
<g id="edge54" class="edge">
<title>Node38&#45;&gt;Node25</title>
<path fill="none" stroke="midnightblue" d="M920.41,-342.88C921.3,-343.9 922.17,-344.94 923,-346 950.82,-381.63 1010.23,-698.48 1025.73,-783.23"/>
<polygon fill="midnightblue" stroke="midnightblue" points="922.56,-340.09 912.98,-335.56 917.65,-345.07 922.56,-340.09"/>
</g>
<!-- Node39&#45;&gt;Node35 -->
<g id="edge56" class="edge">
<title>Node39&#45;&gt;Node35</title>
<path fill="none" stroke="orange" stroke-dasharray="5,2" d="M537.92,-164.01C553.47,-151.28 573.54,-137.14 594,-129 652.19,-105.85 723.7,-98.7 774.4,-96.82"/>
<polygon fill="orange" stroke="orange" points="535.61,-161.37 530.22,-170.49 540.12,-166.73 535.61,-161.37"/>
<text text-anchor="start" x="628.5" y="-143" font-family="Helvetica,sans-Serif" font-size="10.00"> &lt; cigar, uint32_t,</text>
<text text-anchor="middle" x="666.5" y="-132" font-family="Helvetica,sans-Serif" font-size="10.00"> cigar_op &gt;</text>
</g>
<!-- Node39&#45;&gt;Node37 -->
<g id="edge57" class="edge">
<title>Node39&#45;&gt;Node37</title>
<path fill="none" stroke="orange" stroke-dasharray="5,2" d="M578.33,-167.95C583.59,-166.77 588.86,-165.76 594,-165 657.74,-155.52 677.02,-147.35 739,-165 763.75,-172.05 788.37,-187.18 806.98,-200.73"/>
<polygon fill="orange" stroke="orange" points="577.14,-164.64 568.25,-170.41 578.79,-171.44 577.14,-164.64"/>
<text text-anchor="start" x="612.5" y="-190" font-family="Helvetica,sans-Serif" font-size="10.00"> &lt; masked&lt; sequence</text>
<text text-anchor="start" x="612.5" y="-179" font-family="Helvetica,sans-Serif" font-size="10.00">_alphabet_t &gt;, sequence</text>
<text text-anchor="middle" x="666.5" y="-168" font-family="Helvetica,sans-Serif" font-size="10.00">_alphabet_t, mask &gt;</text>
</g>
<!-- Node39&#45;&gt;Node38 -->
<g id="edge58" class="edge">
<title>Node39&#45;&gt;Node38</title>
<path fill="none" stroke="orange" stroke-dasharray="5,2" d="M586.12,-199.82C632.48,-207.39 691.41,-221.2 739,-246 748.49,-250.95 748.17,-255.96 757,-262 762.28,-265.61 767.91,-269.12 773.66,-272.47"/>
<polygon fill="orange" stroke="orange" points="586.55,-196.34 576.13,-198.25 585.46,-203.26 586.55,-196.34"/>
<text text-anchor="start" x="594" y="-282" font-family="Helvetica,sans-Serif" font-size="10.00"> &lt; qualified&lt; sequence</text>
<text text-anchor="start" x="594" y="-271" font-family="Helvetica,sans-Serif" font-size="10.00">_alphabet_t, quality</text>
<text text-anchor="start" x="594" y="-260" font-family="Helvetica,sans-Serif" font-size="10.00">_alphabet_t &gt;, sequence</text>
<text text-anchor="middle" x="666.5" y="-249" font-family="Helvetica,sans-Serif" font-size="10.00">_alphabet_t, quality_alphabet_t &gt;</text>
</g>
</g>
</svg>
