<?xml version="1.0" encoding="UTF-8" standalone="no"?>
<!DOCTYPE svg PUBLIC "-//W3C//DTD SVG 1.1//EN"
 "http://www.w3.org/Graphics/SVG/1.1/DTD/svg11.dtd">
<!-- Generated by graphviz version 2.43.0 (0)
 -->
<!-- Title: quality_alphabet Pages: 1 -->
<svg width="858pt" height="164pt"
 viewBox="0.00 0.00 858.00 164.00" xmlns="http://www.w3.org/2000/svg" xmlns:xlink="http://www.w3.org/1999/xlink">
<g id="graph0" class="graph" transform="scale(1 1) rotate(0) translate(4 160)">
<title>quality_alphabet</title>
<polygon fill="white" stroke="transparent" points="-4,4 -4,-160 854,-160 854,4 -4,4"/>
<!-- Node1 -->
<g id="node1" class="node">
<title>Node1</title>
<g id="a_node1"><a xlink:title="A concept that indicates whether an alphabet represents quality scores.">
<polygon fill="#bfbfbf" stroke="black" points="379,-79.5 379,-98.5 477,-98.5 477,-79.5 379,-79.5"/>
<text text-anchor="middle" x="428" y="-86.5" font-family="Helvetica,sans-Serif" font-size="10.00">quality_alphabet</text>
</a>
</g>
</g>
<!-- Node6 -->
<g id="node6" class="node">
<title>Node6</title>
<g id="a_node6"><a xlink:href="interfacebio_1_1alphabet_1_1writable__quality__alphabet.html" target="_top" xlink:title="A concept that indicates whether a writable alphabet represents quality scores.">
<polygon fill="white" stroke="black" points="513,-79.5 513,-98.5 656,-98.5 656,-79.5 513,-79.5"/>
<text text-anchor="middle" x="584.5" y="-86.5" font-family="Helvetica,sans-Serif" font-size="10.00">writable_quality_alphabet</text>
</a>
</g>
</g>
<!-- Node1&#45;&gt;Node6 -->
<g id="edge5" class="edge">
<title>Node1&#45;&gt;Node6</title>
<path fill="none" stroke="midnightblue" d="M487.09,-89C495.48,-89 504.2,-89 512.81,-89"/>
<polygon fill="midnightblue" stroke="midnightblue" points="487.04,-85.5 477.04,-89 487.04,-92.5 487.04,-85.5"/>
</g>
<!-- Node2 -->
<g id="node2" class="node">
<title>Node2</title>
<g id="a_node2"><a xlink:href="interfacebio_1_1alphabet_1_1alphabet.html" target="_top" xlink:title="The generic alphabet concept that covers most data types used in ranges.">
<polygon fill="white" stroke="black" points="284,-79.5 284,-98.5 343,-98.5 343,-79.5 284,-79.5"/>
<text text-anchor="middle" x="313.5" y="-86.5" font-family="Helvetica,sans-Serif" font-size="10.00">alphabet</text>
</a>
</g>
</g>
<!-- Node2&#45;&gt;Node1 -->
<g id="edge1" class="edge">
<title>Node2&#45;&gt;Node1</title>
<path fill="none" stroke="midnightblue" d="M353.22,-89C361.43,-89 370.19,-89 378.7,-89"/>
<polygon fill="midnightblue" stroke="midnightblue" points="353.18,-85.5 343.18,-89 353.18,-92.5 353.18,-85.5"/>
</g>
<!-- Node3 -->
<g id="node3" class="node">
<title>Node3</title>
<g id="a_node3"><a xlink:href="interfacebio_1_1alphabet_1_1semialphabet.html" target="_top" xlink:title="The basis for bio::alphabet::alphabet, but requires only rank interface (not char).">
<polygon fill="white" stroke="black" points="165,-79.5 165,-98.5 248,-98.5 248,-79.5 165,-79.5"/>
<text text-anchor="middle" x="206.5" y="-86.5" font-family="Helvetica,sans-Serif" font-size="10.00">semialphabet</text>
</a>
</g>
</g>
<!-- Node3&#45;&gt;Node2 -->
<g id="edge2" class="edge">
<title>Node3&#45;&gt;Node2</title>
<path fill="none" stroke="midnightblue" d="M258.27,-89C267.02,-89 275.82,-89 283.72,-89"/>
<polygon fill="midnightblue" stroke="midnightblue" points="258.1,-85.5 248.1,-89 258.1,-92.5 258.1,-85.5"/>
</g>
<!-- Node4 -->
<g id="node4" class="node">
<title>Node4</title>
<g id="a_node4"><a xlink:title=" ">
<polygon fill="white" stroke="#bfbfbf" points="8.5,-98.5 8.5,-117.5 120.5,-117.5 120.5,-98.5 8.5,-98.5"/>
<text text-anchor="middle" x="64.5" y="-105.5" font-family="Helvetica,sans-Serif" font-size="10.00">std::totally_ordered</text>
</a>
</g>
</g>
<!-- Node4&#45;&gt;Node3 -->
<g id="edge3" class="edge">
<title>Node4&#45;&gt;Node3</title>
<path fill="none" stroke="midnightblue" d="M130.91,-99.12C142.47,-97.55 154.19,-95.96 164.82,-94.52"/>
<polygon fill="midnightblue" stroke="midnightblue" points="130.27,-95.68 120.83,-100.49 131.21,-102.61 130.27,-95.68"/>
</g>
<!-- Node5 -->
<g id="node5" class="node">
<title>Node5</title>
<g id="a_node5"><a xlink:title=" ">
<polygon fill="white" stroke="#bfbfbf" points="0,-60.5 0,-79.5 129,-79.5 129,-60.5 0,-60.5"/>
<text text-anchor="middle" x="64.5" y="-67.5" font-family="Helvetica,sans-Serif" font-size="10.00">std::copy_constructible</text>
</a>
</g>
</g>
<!-- Node5&#45;&gt;Node3 -->
<g id="edge4" class="edge">
<title>Node5&#45;&gt;Node3</title>
<path fill="none" stroke="midnightblue" d="M139.32,-80.02C148.14,-81.22 156.88,-82.4 164.98,-83.5"/>
<polygon fill="midnightblue" stroke="midnightblue" points="139.73,-76.54 129.35,-78.67 138.79,-83.48 139.73,-76.54"/>
</g>
<!-- Node7 -->
<g id="node7" class="node">
<title>Node7</title>
<g id="a_node7"><a xlink:href="classbio_1_1alphabet_1_1phred42.html" target="_top" xlink:title="Quality type for traditional Sanger and modern Illumina Phred scores (typical range)....">
<polygon fill="white" stroke="black" points="708,-136.5 708,-155.5 834,-155.5 834,-136.5 708,-136.5"/>
<text text-anchor="middle" x="771" y="-143.5" font-family="Helvetica,sans-Serif" font-size="10.00">bio::alphabet::phred42</text>
</a>
</g>
</g>
<!-- Node6&#45;&gt;Node7 -->
<g id="edge6" class="edge">
<title>Node6&#45;&gt;Node7</title>
<path fill="none" stroke="midnightblue" d="M619.85,-102.28C640.57,-110.03 667.6,-119.7 692,-127 703.35,-130.4 715.76,-133.63 727.28,-136.44"/>
<polygon fill="midnightblue" stroke="midnightblue" points="620.81,-98.9 610.22,-98.64 618.34,-105.45 620.81,-98.9"/>
</g>
<!-- Node8 -->
<g id="node8" class="node">
<title>Node8</title>
<g id="a_node8"><a xlink:href="classbio_1_1alphabet_1_1phred63.html" target="_top" xlink:title="Quality type for traditional Sanger and modern Illumina Phred scores (full range)....">
<polygon fill="white" stroke="black" points="708,-98.5 708,-117.5 834,-117.5 834,-98.5 708,-98.5"/>
<text text-anchor="middle" x="771" y="-105.5" font-family="Helvetica,sans-Serif" font-size="10.00">bio::alphabet::phred63</text>
</a>
</g>
</g>
<!-- Node6&#45;&gt;Node8 -->
<g id="edge7" class="edge">
<title>Node6&#45;&gt;Node8</title>
<path fill="none" stroke="midnightblue" d="M666.16,-97.31C680.16,-98.75 694.53,-100.23 707.94,-101.61"/>
<polygon fill="midnightblue" stroke="midnightblue" points="666.35,-93.81 656.04,-96.26 665.63,-100.77 666.35,-93.81"/>
</g>
<!-- Node9 -->
<g id="node9" class="node">
<title>Node9</title>
<g id="a_node9"><a xlink:href="classbio_1_1alphabet_1_1phred68legacy.html" target="_top" xlink:title="Quality type for Solexa and deprecated Illumina formats..">
<polygon fill="white" stroke="black" points="692,-60.5 692,-79.5 850,-79.5 850,-60.5 692,-60.5"/>
<text text-anchor="middle" x="771" y="-67.5" font-family="Helvetica,sans-Serif" font-size="10.00">bio::alphabet::phred68legacy</text>
</a>
</g>
</g>
<!-- Node6&#45;&gt;Node9 -->
<g id="edge8" class="edge">
<title>Node6&#45;&gt;Node9</title>
<path fill="none" stroke="midnightblue" d="M666.01,-80.71C674.57,-79.83 683.27,-78.93 691.81,-78.05"/>
<polygon fill="midnightblue" stroke="midnightblue" points="665.63,-77.23 656.04,-81.74 666.35,-84.19 665.63,-77.23"/>
</g>
<!-- Node10 -->
<g id="node10" class="node">
<title>Node10</title>
<g id="a_node10"><a xlink:href="classbio_1_1alphabet_1_1qualified.html" target="_top" xlink:title="Joins an arbitrary alphabet with a quality alphabet.">
<polygon fill="white" stroke="black" points="704,-0.5 704,-41.5 838,-41.5 838,-0.5 704,-0.5"/>
<text text-anchor="start" x="712" y="-29.5" font-family="Helvetica,sans-Serif" font-size="10.00">bio::alphabet::qualified</text>
<text text-anchor="start" x="712" y="-18.5" font-family="Helvetica,sans-Serif" font-size="10.00">&lt; sequence_alphabet_t,</text>
<text text-anchor="middle" x="771" y="-7.5" font-family="Helvetica,sans-Serif" font-size="10.00"> quality_alphabet_t &gt;</text>
</a>
</g>
</g>
<!-- Node6&#45;&gt;Node10 -->
<g id="edge9" class="edge">
<title>Node6&#45;&gt;Node10</title>
<path fill="none" stroke="midnightblue" d="M621.12,-75.87C647.47,-66.16 683.88,-52.74 714.09,-41.61"/>
<polygon fill="midnightblue" stroke="midnightblue" points="619.72,-72.66 611.54,-79.4 622.14,-79.23 619.72,-72.66"/>
</g>
</g>
</svg>
