<?xml version="1.0" encoding="UTF-8" standalone="no"?>
<!DOCTYPE svg PUBLIC "-//W3C//DTD SVG 1.1//EN"
 "http://www.w3.org/Graphics/SVG/1.1/DTD/svg11.dtd">
<!-- Generated by graphviz version 2.42.2 ()
 -->
<!-- Title: bio/meta/type_traits/lazy.hpp Pages: 1 -->
<svg width="389pt" height="631pt"
 viewBox="0.00 0.00 389.00 631.00" xmlns="http://www.w3.org/2000/svg" xmlns:xlink="http://www.w3.org/1999/xlink">
<g id="graph0" class="graph" transform="scale(1 1) rotate(0) translate(4 627)">
<title>bio/meta/type_traits/lazy.hpp</title>
<polygon fill="white" stroke="transparent" points="-4,4 -4,-627 385,-627 385,4 -4,4"/>
<!-- Node1 -->
<g id="node1" class="node">
<title>Node1</title>
<g id="a_node1"><a xlink:title="Provides lazy template instantiation traits.">
<polygon fill="#bfbfbf" stroke="black" points="14.5,-592.5 14.5,-622.5 117.5,-622.5 117.5,-592.5 14.5,-592.5"/>
<text text-anchor="start" x="22.5" y="-610.5" font-family="Helvetica,sans-Serif" font-size="10.00">bio/meta/type_traits</text>
<text text-anchor="middle" x="66" y="-599.5" font-family="Helvetica,sans-Serif" font-size="10.00">/lazy.hpp</text>
</a>
</g>
</g>
<!-- Node2 -->
<g id="node2" class="node">
<title>Node2</title>
<g id="a_node2"><a target="_blank" xlink:href="https://en.cppreference.com/w/cpp/header/tuple.html" xlink:title=" ">
<polygon fill="white" stroke="black" points="0,-531 0,-550 38,-550 38,-531 0,-531"/>
<text text-anchor="middle" x="19" y="-538" font-family="Helvetica,sans-Serif" font-size="10.00">tuple</text>
</a>
</g>
</g>
<!-- Node1&#45;&gt;Node2 -->
<g id="edge1" class="edge">
<title>Node1&#45;&gt;Node2</title>
<path fill="none" stroke="midnightblue" d="M55.8,-592.4C48.62,-582.46 38.96,-569.11 31.34,-558.57"/>
<polygon fill="midnightblue" stroke="midnightblue" points="33.98,-556.25 25.29,-550.19 28.31,-560.35 33.98,-556.25"/>
</g>
<!-- Node3 -->
<g id="node3" class="node">
<title>Node3</title>
<g id="a_node3"><a target="_blank" xlink:href="https://en.cppreference.com/w/cpp/header/type_traits.html" xlink:title=" ">
<polygon fill="white" stroke="black" points="125,-56.5 125,-75.5 187,-75.5 187,-56.5 125,-56.5"/>
<text text-anchor="middle" x="156" y="-63.5" font-family="Helvetica,sans-Serif" font-size="10.00">type_traits</text>
</a>
</g>
</g>
<!-- Node1&#45;&gt;Node3 -->
<g id="edge2" class="edge">
<title>Node1&#45;&gt;Node3</title>
<path fill="none" stroke="midnightblue" d="M66,-592.24C66,-568.03 66,-517.35 66,-474.5 66,-474.5 66,-474.5 66,-199 66,-149.19 110.28,-104.31 136.72,-81.95"/>
<polygon fill="midnightblue" stroke="midnightblue" points="139.08,-84.55 144.6,-75.51 134.65,-79.13 139.08,-84.55"/>
</g>
<!-- Node4 -->
<g id="node4" class="node">
<title>Node4</title>
<g id="a_node4"><a xlink:href="type__traits_2function_8hpp.html" target="_top" xlink:title="Provides various type traits for use on functions.">
<polygon fill="white" stroke="black" points="94.5,-525.5 94.5,-555.5 197.5,-555.5 197.5,-525.5 94.5,-525.5"/>
<text text-anchor="start" x="102.5" y="-543.5" font-family="Helvetica,sans-Serif" font-size="10.00">bio/meta/type_traits</text>
<text text-anchor="middle" x="146" y="-532.5" font-family="Helvetica,sans-Serif" font-size="10.00">/function.hpp</text>
</a>
</g>
</g>
<!-- Node1&#45;&gt;Node4 -->
<g id="edge3" class="edge">
<title>Node1&#45;&gt;Node4</title>
<path fill="none" stroke="midnightblue" d="M83.36,-592.4C94.26,-583.54 108.51,-571.96 120.66,-562.09"/>
<polygon fill="midnightblue" stroke="midnightblue" points="123.12,-564.6 128.68,-555.58 118.71,-559.17 123.12,-564.6"/>
</g>
<!-- Node5 -->
<g id="node5" class="node">
<title>Node5</title>
<g id="a_node5"><a target="_blank" xlink:href="https://en.cppreference.com/w/cpp/header/functional.html" xlink:title=" ">
<polygon fill="white" stroke="black" points="94.5,-464 94.5,-483 153.5,-483 153.5,-464 94.5,-464"/>
<text text-anchor="middle" x="124" y="-471" font-family="Helvetica,sans-Serif" font-size="10.00">functional</text>
</a>
</g>
</g>
<!-- Node4&#45;&gt;Node5 -->
<g id="edge4" class="edge">
<title>Node4&#45;&gt;Node5</title>
<path fill="none" stroke="midnightblue" d="M141.23,-525.4C138,-515.86 133.71,-503.18 130.21,-492.86"/>
<polygon fill="midnightblue" stroke="midnightblue" points="133.46,-491.54 126.94,-483.19 126.83,-493.79 133.46,-491.54"/>
</g>
<!-- Node6 -->
<g id="node6" class="node">
<title>Node6</title>
<g id="a_node6"><a xlink:href="traits_8hpp.html" target="_top" xlink:title="Provides traits for meta::type_list.">
<polygon fill="white" stroke="black" points="172,-458.5 172,-488.5 266,-488.5 266,-458.5 172,-458.5"/>
<text text-anchor="start" x="180" y="-476.5" font-family="Helvetica,sans-Serif" font-size="10.00">bio/meta/type_list</text>
<text text-anchor="middle" x="219" y="-465.5" font-family="Helvetica,sans-Serif" font-size="10.00">/traits.hpp</text>
</a>
</g>
</g>
<!-- Node4&#45;&gt;Node6 -->
<g id="edge5" class="edge">
<title>Node4&#45;&gt;Node6</title>
<path fill="none" stroke="midnightblue" d="M161.84,-525.4C171.69,-516.62 184.54,-505.18 195.56,-495.37"/>
<polygon fill="midnightblue" stroke="midnightblue" points="198.05,-497.84 203.19,-488.58 193.4,-492.61 198.05,-497.84"/>
</g>
<!-- Node6&#45;&gt;Node3 -->
<g id="edge6" class="edge">
<title>Node6&#45;&gt;Node3</title>
<path fill="none" stroke="midnightblue" d="M192.86,-458.33C178.58,-449.48 161.51,-436.93 150,-422 126.25,-391.18 118,-379.41 118,-340.5 118,-340.5 118,-340.5 118,-199 118,-156.85 136.11,-109.98 147.33,-85"/>
<polygon fill="midnightblue" stroke="midnightblue" points="150.61,-86.26 151.64,-75.71 144.26,-83.31 150.61,-86.26"/>
</g>
<!-- Node7 -->
<g id="node7" class="node">
<title>Node7</title>
<g id="a_node7"><a xlink:href="traits__detail_8hpp.html" target="_top" xlink:title="Provides various traits for template packs.">
<polygon fill="white" stroke="black" points="159,-391.5 159,-421.5 253,-421.5 253,-391.5 159,-391.5"/>
<text text-anchor="start" x="167" y="-409.5" font-family="Helvetica,sans-Serif" font-size="10.00">bio/meta/type_list</text>
<text text-anchor="middle" x="206" y="-398.5" font-family="Helvetica,sans-Serif" font-size="10.00">/traits_detail.hpp</text>
</a>
</g>
</g>
<!-- Node6&#45;&gt;Node7 -->
<g id="edge7" class="edge">
<title>Node6&#45;&gt;Node7</title>
<path fill="none" stroke="midnightblue" d="M216.18,-458.4C214.61,-450.56 212.62,-440.6 210.81,-431.57"/>
<polygon fill="midnightblue" stroke="midnightblue" points="214.21,-430.7 208.82,-421.58 207.34,-432.07 214.21,-430.7"/>
</g>
<!-- Node9 -->
<g id="node9" class="node">
<title>Node9</title>
<g id="a_node9"><a xlink:href="type__list_8hpp.html" target="_top" xlink:title="Provides bio::meta::type_list.">
<polygon fill="white" stroke="black" points="242,-324.5 242,-354.5 336,-354.5 336,-324.5 242,-324.5"/>
<text text-anchor="start" x="250" y="-342.5" font-family="Helvetica,sans-Serif" font-size="10.00">bio/meta/type_list</text>
<text text-anchor="middle" x="289" y="-331.5" font-family="Helvetica,sans-Serif" font-size="10.00">/type_list.hpp</text>
</a>
</g>
</g>
<!-- Node6&#45;&gt;Node9 -->
<g id="edge21" class="edge">
<title>Node6&#45;&gt;Node9</title>
<path fill="none" stroke="midnightblue" d="M233.83,-458.19C243.01,-448.65 254.43,-435.45 262,-422 272.14,-403.99 279.21,-381.59 283.57,-364.83"/>
<polygon fill="midnightblue" stroke="midnightblue" points="287.06,-365.28 286.05,-354.73 280.26,-363.61 287.06,-365.28"/>
</g>
<!-- Node7&#45;&gt;Node3 -->
<g id="edge8" class="edge">
<title>Node7&#45;&gt;Node3</title>
<path fill="none" stroke="midnightblue" d="M195.46,-391.14C188.73,-381.39 180.32,-367.94 175,-355 160.87,-320.6 156,-310.69 156,-273.5 156,-273.5 156,-273.5 156,-199 156,-158.66 156,-111.38 156,-85.78"/>
<polygon fill="midnightblue" stroke="midnightblue" points="159.5,-85.65 156,-75.65 152.5,-85.65 159.5,-85.65"/>
</g>
<!-- Node8 -->
<g id="node8" class="node">
<title>Node8</title>
<g id="a_node8"><a target="_blank" xlink:href="https://en.cppreference.com/w/cpp/header/utility.html" xlink:title=" ">
<polygon fill="white" stroke="black" points="184,-330 184,-349 224,-349 224,-330 184,-330"/>
<text text-anchor="middle" x="204" y="-337" font-family="Helvetica,sans-Serif" font-size="10.00">utility</text>
</a>
</g>
</g>
<!-- Node7&#45;&gt;Node8 -->
<g id="edge9" class="edge">
<title>Node7&#45;&gt;Node8</title>
<path fill="none" stroke="midnightblue" d="M205.57,-391.4C205.28,-382.06 204.9,-369.71 204.59,-359.52"/>
<polygon fill="midnightblue" stroke="midnightblue" points="208.07,-359.08 204.27,-349.19 201.08,-359.3 208.07,-359.08"/>
</g>
<!-- Node7&#45;&gt;Node9 -->
<g id="edge10" class="edge">
<title>Node7&#45;&gt;Node9</title>
<path fill="none" stroke="midnightblue" d="M224.01,-391.4C235.43,-382.45 250.39,-370.74 263.08,-360.8"/>
<polygon fill="midnightblue" stroke="midnightblue" points="265.31,-363.5 271.03,-354.58 260.99,-357.99 265.31,-363.5"/>
</g>
<!-- Node10 -->
<g id="node10" class="node">
<title>Node10</title>
<g id="a_node10"><a xlink:href="template__inspection_8hpp.html" target="_top" xlink:title="Provides various traits to inspect templates.">
<polygon fill="white" stroke="black" points="226.5,-257.5 226.5,-287.5 351.5,-287.5 351.5,-257.5 226.5,-257.5"/>
<text text-anchor="start" x="234.5" y="-275.5" font-family="Helvetica,sans-Serif" font-size="10.00">bio/meta/type_traits</text>
<text text-anchor="middle" x="289" y="-264.5" font-family="Helvetica,sans-Serif" font-size="10.00">/template_inspection.hpp</text>
</a>
</g>
</g>
<!-- Node9&#45;&gt;Node10 -->
<g id="edge11" class="edge">
<title>Node9&#45;&gt;Node10</title>
<path fill="none" stroke="midnightblue" d="M289,-324.4C289,-316.64 289,-306.81 289,-297.86"/>
<polygon fill="midnightblue" stroke="midnightblue" points="292.5,-297.58 289,-287.58 285.5,-297.58 292.5,-297.58"/>
</g>
<!-- Node11 -->
<g id="node11" class="node">
<title>Node11</title>
<g id="a_node11"><a xlink:href="transformation__trait__or_8hpp.html" target="_top" xlink:title="Provides bio::meta::transformation_trait_or.">
<polygon fill="white" stroke="black" points="203,-179.5 203,-220.5 307,-220.5 307,-179.5 203,-179.5"/>
<text text-anchor="start" x="211" y="-208.5" font-family="Helvetica,sans-Serif" font-size="10.00">bio/meta/type_traits</text>
<text text-anchor="start" x="211" y="-197.5" font-family="Helvetica,sans-Serif" font-size="10.00">/transformation_trait</text>
<text text-anchor="middle" x="255" y="-186.5" font-family="Helvetica,sans-Serif" font-size="10.00">_or.hpp</text>
</a>
</g>
</g>
<!-- Node10&#45;&gt;Node11 -->
<g id="edge12" class="edge">
<title>Node10&#45;&gt;Node11</title>
<path fill="none" stroke="midnightblue" d="M282.12,-257.23C278.31,-249.33 273.43,-239.21 268.86,-229.74"/>
<polygon fill="midnightblue" stroke="midnightblue" points="271.94,-228.08 264.45,-220.59 265.64,-231.12 271.94,-228.08"/>
</g>
<!-- Node17 -->
<g id="node17" class="node">
<title>Node17</title>
<g id="a_node17"><a target="_blank" xlink:href="https://en.cppreference.com/w/cpp/header/concepts.html" xlink:title=" ">
<polygon fill="white" stroke="black" points="325,-190.5 325,-209.5 381,-209.5 381,-190.5 325,-190.5"/>
<text text-anchor="middle" x="353" y="-197.5" font-family="Helvetica,sans-Serif" font-size="10.00">concepts</text>
</a>
</g>
</g>
<!-- Node10&#45;&gt;Node17 -->
<g id="edge20" class="edge">
<title>Node10&#45;&gt;Node17</title>
<path fill="none" stroke="midnightblue" d="M301.95,-257.23C312.4,-245.73 327.1,-229.53 338.05,-217.47"/>
<polygon fill="midnightblue" stroke="midnightblue" points="340.8,-219.65 344.93,-209.89 335.61,-214.94 340.8,-219.65"/>
</g>
<!-- Node11&#45;&gt;Node3 -->
<g id="edge13" class="edge">
<title>Node11&#45;&gt;Node3</title>
<path fill="none" stroke="midnightblue" d="M240.18,-179.24C220.76,-153.35 187.03,-108.37 168.72,-83.96"/>
<polygon fill="midnightblue" stroke="midnightblue" points="171.31,-81.59 162.51,-75.69 165.71,-85.79 171.31,-81.59"/>
</g>
<!-- Node12 -->
<g id="node12" class="node">
<title>Node12</title>
<g id="a_node12"><a xlink:href="meta_2type__traits_2concept_8hpp.html" target="_top" xlink:title="Provides the concepts bio::meta::transformation_trait and bio::meta::unary_type_trait.">
<polygon fill="white" stroke="black" points="222.5,-112.5 222.5,-142.5 325.5,-142.5 325.5,-112.5 222.5,-112.5"/>
<text text-anchor="start" x="230.5" y="-130.5" font-family="Helvetica,sans-Serif" font-size="10.00">bio/meta/type_traits</text>
<text text-anchor="middle" x="274" y="-119.5" font-family="Helvetica,sans-Serif" font-size="10.00">/concept.hpp</text>
</a>
</g>
</g>
<!-- Node11&#45;&gt;Node12 -->
<g id="edge14" class="edge">
<title>Node11&#45;&gt;Node12</title>
<path fill="none" stroke="midnightblue" d="M260.29,-179.36C262.51,-171.14 265.11,-161.49 267.45,-152.82"/>
<polygon fill="midnightblue" stroke="midnightblue" points="270.9,-153.46 270.12,-142.89 264.14,-151.64 270.9,-153.46"/>
</g>
<!-- Node12&#45;&gt;Node3 -->
<g id="edge15" class="edge">
<title>Node12&#45;&gt;Node3</title>
<path fill="none" stroke="midnightblue" d="M246.04,-112.4C226.68,-102.64 201.09,-89.74 182.14,-80.18"/>
<polygon fill="midnightblue" stroke="midnightblue" points="183.67,-77.04 173.17,-75.66 180.52,-83.29 183.67,-77.04"/>
</g>
<!-- Node13 -->
<g id="node13" class="node">
<title>Node13</title>
<g id="a_node13"><a xlink:href="platform_8hpp.html" target="_top" xlink:title="Provides platform and dependency checks.">
<polygon fill="white" stroke="black" points="218.5,-56.5 218.5,-75.5 329.5,-75.5 329.5,-56.5 218.5,-56.5"/>
<text text-anchor="middle" x="274" y="-63.5" font-family="Helvetica,sans-Serif" font-size="10.00">bio/meta/platform.hpp</text>
</a>
</g>
</g>
<!-- Node12&#45;&gt;Node13 -->
<g id="edge16" class="edge">
<title>Node12&#45;&gt;Node13</title>
<path fill="none" stroke="midnightblue" d="M274,-112.4C274,-104.47 274,-94.46 274,-85.86"/>
<polygon fill="midnightblue" stroke="midnightblue" points="277.5,-85.66 274,-75.66 270.5,-85.66 277.5,-85.66"/>
</g>
<!-- Node14 -->
<g id="node14" class="node">
<title>Node14</title>
<g id="a_node14"><a target="_blank" xlink:href="https://en.cppreference.com/w/cpp/header/cinttypes.html" xlink:title=" ">
<polygon fill="white" stroke="black" points="175,-0.5 175,-19.5 231,-19.5 231,-0.5 175,-0.5"/>
<text text-anchor="middle" x="203" y="-7.5" font-family="Helvetica,sans-Serif" font-size="10.00">cinttypes</text>
</a>
</g>
</g>
<!-- Node13&#45;&gt;Node14 -->
<g id="edge17" class="edge">
<title>Node13&#45;&gt;Node14</title>
<path fill="none" stroke="midnightblue" d="M262.59,-56.32C251.89,-48.18 235.66,-35.84 222.84,-26.09"/>
<polygon fill="midnightblue" stroke="midnightblue" points="224.69,-23.1 214.61,-19.83 220.46,-28.67 224.69,-23.1"/>
</g>
<!-- Node15 -->
<g id="node15" class="node">
<title>Node15</title>
<g id="a_node15"><a target="_blank" xlink:href="https://en.cppreference.com/w/cpp/header/ciso646.html" xlink:title=" ">
<polygon fill="white" stroke="black" points="249,-0.5 249,-19.5 299,-19.5 299,-0.5 249,-0.5"/>
<text text-anchor="middle" x="274" y="-7.5" font-family="Helvetica,sans-Serif" font-size="10.00">ciso646</text>
</a>
</g>
</g>
<!-- Node13&#45;&gt;Node15 -->
<g id="edge18" class="edge">
<title>Node13&#45;&gt;Node15</title>
<path fill="none" stroke="midnightblue" d="M274,-56.08C274,-49.01 274,-38.86 274,-29.99"/>
<polygon fill="midnightblue" stroke="midnightblue" points="277.5,-29.75 274,-19.75 270.5,-29.75 277.5,-29.75"/>
</g>
<!-- Node16 -->
<g id="node16" class="node">
<title>Node16</title>
<g id="a_node16"><a target="_blank" xlink:href="https://en.cppreference.com/w/cpp/header/cstddef.html" xlink:title=" ">
<polygon fill="white" stroke="black" points="317.5,-0.5 317.5,-19.5 366.5,-19.5 366.5,-0.5 317.5,-0.5"/>
<text text-anchor="middle" x="342" y="-7.5" font-family="Helvetica,sans-Serif" font-size="10.00">cstddef</text>
</a>
</g>
</g>
<!-- Node13&#45;&gt;Node16 -->
<g id="edge19" class="edge">
<title>Node13&#45;&gt;Node16</title>
<path fill="none" stroke="midnightblue" d="M284.93,-56.32C295.17,-48.18 310.72,-35.84 323,-26.09"/>
<polygon fill="midnightblue" stroke="midnightblue" points="325.22,-28.79 330.88,-19.83 320.87,-23.31 325.22,-28.79"/>
</g>
</g>
</svg>
