<?xml version="1.0" encoding="UTF-8" standalone="no"?>
<!DOCTYPE svg PUBLIC "-//W3C//DTD SVG 1.1//EN"
 "http://www.w3.org/Graphics/SVG/1.1/DTD/svg11.dtd">
<!-- Generated by graphviz version 2.43.0 (0)
 -->
<!-- Title: bio/meta/type_traits/lazy.hpp Pages: 1 -->
<!--zoomable 430 -->
<svg id="main" version="1.1" xmlns="http://www.w3.org/2000/svg" xmlns:xlink="http://www.w3.org/1999/xlink" xml:space="preserve" onload="init(evt)">
<style type="text/css"><![CDATA[
.edge:hover path { stroke: red; }
.edge:hover polygon { stroke: red; fill: red; }
]]></style>
<script type="text/javascript"><![CDATA[
var edges = document.getElementsByTagName('g');
if (edges && edges.length) {
  for (var i=0;i<edges.length;i++) {
    if (edges[i].id.substr(0,4)=='edge') {
      edges[i].setAttribute('class','edge');
    }
  }
}
]]></script>
        <defs>
                <circle id="rim" cx="0" cy="0" r="7"/>
                <circle id="rim2" cx="0" cy="0" r="3.5"/>
                <g id="zoomPlus">
                        <use xlink:href="#rim" fill="#404040">
                                <set attributeName="fill" to="#808080" begin="zoomplus.mouseover" end="zoomplus.mouseout"/>
                        </use>
                        <path d="M-4,0h8M0,-4v8" fill="none" stroke="white" stroke-width="1.5" pointer-events="none"/>
                </g>
                <g id="zoomMin">
                        <use xlink:href="#rim" fill="#404040">
                                <set attributeName="fill" to="#808080" begin="zoomminus.mouseover" end="zoomminus.mouseout"/>
                        </use>
                        <path d="M-4,0h8" fill="none" stroke="white" stroke-width="1.5" pointer-events="none"/>
                </g>
                <g id="dirArrow">
                        <path fill="none" stroke="white" stroke-width="1.5" d="M0,-3.0v7 M-2.5,-0.5L0,-3.0L2.5,-0.5"/>
                </g>
               <g id="resetDef">
                       <use xlink:href="#rim2" fill="#404040">
                               <set attributeName="fill" to="#808080" begin="reset.mouseover" end="reset.mouseout"/>
                       </use>
               </g>
        </defs>

<script type="text/javascript">
var viewWidth = 758;
var viewHeight = 430;
var sectionId = 'dynsection-1';
</script>
<script xlink:href="svgpan.js"/>
<svg id="graph" class="graph">
<g id="viewport">
<title>bio/meta/type_traits/lazy.hpp</title>
<polygon fill="white" stroke="transparent" points="-4,4 -4,-426 754,-426 754,4 -4,4"/>
<!-- Node1 -->
<g id="node1" class="node">
<title>Node1</title>
<g id="a_node1"><a xlink:title="Provides lazy template instantiation traits.">
<polygon fill="#bfbfbf" stroke="black" points="224,-391.5 224,-421.5 340,-421.5 340,-391.5 224,-391.5"/>
<text text-anchor="start" x="232" y="-409.5" font-family="Helvetica,sans-Serif" font-size="10.00">bio/meta/type_traits</text>
<text text-anchor="middle" x="282" y="-398.5" font-family="Helvetica,sans-Serif" font-size="10.00">/lazy.hpp</text>
</a>
</g>
</g>
<!-- Node2 -->
<g id="node2" class="node">
<title>Node2</title>
<g id="a_node2"><a xlink:href="alphabet__variant_8hpp.html" target="_top" xlink:title="Provides bio::alphabet::alphabet_variant.">
<polygon fill="white" stroke="black" points="169.5,-257.5 169.5,-287.5 300.5,-287.5 300.5,-257.5 169.5,-257.5"/>
<text text-anchor="start" x="177.5" y="-275.5" font-family="Helvetica,sans-Serif" font-size="10.00">bio/alphabet/composite</text>
<text text-anchor="middle" x="235" y="-264.5" font-family="Helvetica,sans-Serif" font-size="10.00">/alphabet_variant.hpp</text>
</a>
</g>
</g>
<!-- Node1&#45;&gt;Node2 -->
<g id="edge1" class="edge">
<title>Node1&#45;&gt;Node2</title>
<path fill="none" stroke="midnightblue" d="M268.14,-382.51C263.48,-374.07 258.57,-364.31 255,-355 246.24,-332.14 240.37,-304.19 237.36,-287.67"/>
<polygon fill="midnightblue" stroke="midnightblue" points="265.2,-384.43 273.21,-391.37 271.28,-380.95 265.2,-384.43"/>
</g>
<!-- Node7 -->
<g id="node7" class="node">
<title>Node7</title>
<g id="a_node7"><a xlink:href="alphabet_2composite_2detail_8hpp_source.html" target="_top" xlink:title=" ">
<polygon fill="white" stroke="black" points="263.5,-324.5 263.5,-354.5 394.5,-354.5 394.5,-324.5 263.5,-324.5"/>
<text text-anchor="start" x="271.5" y="-342.5" font-family="Helvetica,sans-Serif" font-size="10.00">bio/alphabet/composite</text>
<text text-anchor="middle" x="329" y="-331.5" font-family="Helvetica,sans-Serif" font-size="10.00">/detail.hpp</text>
</a>
</g>
</g>
<!-- Node1&#45;&gt;Node7 -->
<g id="edge7" class="edge">
<title>Node1&#45;&gt;Node7</title>
<path fill="none" stroke="midnightblue" d="M298.16,-383.16C305.01,-373.68 312.79,-362.92 318.82,-354.58"/>
<polygon fill="midnightblue" stroke="midnightblue" points="295.22,-381.24 292.2,-391.4 300.89,-385.34 295.22,-381.24"/>
</g>
<!-- Node3 -->
<g id="node3" class="node">
<title>Node3</title>
<g id="a_node3"><a xlink:href="alphabet_2composite_2all_8hpp.html" target="_top" xlink:title="Meta&#45;header for the composite submodule; includes all headers from alphabet/composite/.">
<polygon fill="white" stroke="black" points="176.5,-190.5 176.5,-220.5 307.5,-220.5 307.5,-190.5 176.5,-190.5"/>
<text text-anchor="start" x="184.5" y="-208.5" font-family="Helvetica,sans-Serif" font-size="10.00">bio/alphabet/composite</text>
<text text-anchor="middle" x="242" y="-197.5" font-family="Helvetica,sans-Serif" font-size="10.00">/all.hpp</text>
</a>
</g>
</g>
<!-- Node2&#45;&gt;Node3 -->
<g id="edge2" class="edge">
<title>Node2&#45;&gt;Node3</title>
<path fill="none" stroke="midnightblue" d="M237.6,-247.4C238.57,-238.37 239.64,-228.41 240.48,-220.58"/>
<polygon fill="midnightblue" stroke="midnightblue" points="234.11,-247.08 236.52,-257.4 241.07,-247.83 234.11,-247.08"/>
</g>
<!-- Node5 -->
<g id="node5" class="node">
<title>Node5</title>
<g id="a_node5"><a xlink:href="gapped_8hpp.html" target="_top" xlink:title="Provides bio::alphabet::gapped.">
<polygon fill="white" stroke="black" points="0,-196 0,-215 158,-215 158,-196 0,-196"/>
<text text-anchor="middle" x="79" y="-203" font-family="Helvetica,sans-Serif" font-size="10.00">bio/alphabet/gap/gapped.hpp</text>
</a>
</g>
</g>
<!-- Node2&#45;&gt;Node5 -->
<g id="edge4" class="edge">
<title>Node2&#45;&gt;Node5</title>
<path fill="none" stroke="midnightblue" d="M191.7,-253.46C161.56,-240.9 122.74,-224.72 99.42,-215.01"/>
<polygon fill="midnightblue" stroke="midnightblue" points="190.57,-256.78 201.15,-257.4 193.27,-250.32 190.57,-256.78"/>
</g>
<!-- Node4 -->
<g id="node4" class="node">
<title>Node4</title>
<g id="a_node4"><a xlink:href="alphabet_2all_8hpp.html" target="_top" xlink:title="Meta&#45;header for the alphabet module.">
<polygon fill="white" stroke="black" points="295.5,-0.5 295.5,-19.5 408.5,-19.5 408.5,-0.5 295.5,-0.5"/>
<text text-anchor="middle" x="352" y="-7.5" font-family="Helvetica,sans-Serif" font-size="10.00">bio/alphabet/all.hpp</text>
</a>
</g>
</g>
<!-- Node3&#45;&gt;Node4 -->
<g id="edge3" class="edge">
<title>Node3&#45;&gt;Node4</title>
<path fill="none" stroke="midnightblue" d="M236.78,-180.14C231.45,-148.51 227.2,-92.99 253,-56 266.18,-37.11 289.28,-26 309.85,-19.55"/>
<polygon fill="midnightblue" stroke="midnightblue" points="233.39,-181.07 238.66,-190.27 240.28,-179.79 233.39,-181.07"/>
</g>
<!-- Node6 -->
<g id="node6" class="node">
<title>Node6</title>
<g id="a_node6"><a xlink:href="alphabet_2gap_2all_8hpp.html" target="_top" xlink:title="Meta&#45;header for the gap submodule; includes all headers from alphabet/gap/.">
<polygon fill="white" stroke="black" points="63,-62 63,-81 197,-81 197,-62 63,-62"/>
<text text-anchor="middle" x="130" y="-69" font-family="Helvetica,sans-Serif" font-size="10.00">bio/alphabet/gap/all.hpp</text>
</a>
</g>
</g>
<!-- Node5&#45;&gt;Node6 -->
<g id="edge5" class="edge">
<title>Node5&#45;&gt;Node6</title>
<path fill="none" stroke="midnightblue" d="M86.09,-186.16C97.26,-157.23 118.55,-102.13 126.71,-81.02"/>
<polygon fill="midnightblue" stroke="midnightblue" points="82.69,-185.25 82.35,-195.84 89.22,-187.77 82.69,-185.25"/>
</g>
<!-- Node6&#45;&gt;Node4 -->
<g id="edge6" class="edge">
<title>Node6&#45;&gt;Node4</title>
<path fill="none" stroke="midnightblue" d="M171.7,-59.32C214.83,-47.76 281.21,-29.97 320.25,-19.51"/>
<polygon fill="midnightblue" stroke="midnightblue" points="170.56,-56.01 161.81,-61.98 172.37,-62.77 170.56,-56.01"/>
</g>
<!-- Node7&#45;&gt;Node2 -->
<g id="edge21" class="edge">
<title>Node7&#45;&gt;Node2</title>
<path fill="none" stroke="midnightblue" d="M300.01,-318.45C285.55,-308.45 268.41,-296.6 255.36,-287.58"/>
<polygon fill="midnightblue" stroke="midnightblue" points="298.39,-321.59 308.6,-324.4 302.37,-315.83 298.39,-321.59"/>
</g>
<!-- Node8 -->
<g id="node8" class="node">
<title>Node8</title>
<g id="a_node8"><a xlink:href="alphabet__tuple__base_8hpp.html" target="_top" xlink:title="Provides bio::alphabet::alphabet_tuple_base.">
<polygon fill="white" stroke="black" points="319,-257.5 319,-287.5 461,-287.5 461,-257.5 319,-257.5"/>
<text text-anchor="start" x="327" y="-275.5" font-family="Helvetica,sans-Serif" font-size="10.00">bio/alphabet/composite</text>
<text text-anchor="middle" x="390" y="-264.5" font-family="Helvetica,sans-Serif" font-size="10.00">/alphabet_tuple_base.hpp</text>
</a>
</g>
</g>
<!-- Node7&#45;&gt;Node8 -->
<g id="edge8" class="edge">
<title>Node7&#45;&gt;Node8</title>
<path fill="none" stroke="midnightblue" d="M349.15,-317.02C358.24,-307.34 368.72,-296.17 376.79,-287.58"/>
<polygon fill="midnightblue" stroke="midnightblue" points="346.53,-314.71 342.24,-324.4 351.63,-319.5 346.53,-314.71"/>
</g>
<!-- Node8&#45;&gt;Node3 -->
<g id="edge10" class="edge">
<title>Node8&#45;&gt;Node3</title>
<path fill="none" stroke="midnightblue" d="M348.49,-253.27C324.92,-242.92 295.86,-230.15 274.05,-220.58"/>
<polygon fill="midnightblue" stroke="midnightblue" points="347.32,-256.58 357.89,-257.4 350.14,-250.17 347.32,-256.58"/>
</g>
<!-- Node9 -->
<g id="node9" class="node">
<title>Node9</title>
<g id="a_node9"><a xlink:href="cigar_8hpp.html" target="_top" xlink:title="Provides the bio::alphabet::cigar alphabet.">
<polygon fill="white" stroke="black" points="458,-190.5 458,-220.5 562,-220.5 562,-190.5 458,-190.5"/>
<text text-anchor="start" x="466" y="-208.5" font-family="Helvetica,sans-Serif" font-size="10.00">bio/alphabet/cigar</text>
<text text-anchor="middle" x="510" y="-197.5" font-family="Helvetica,sans-Serif" font-size="10.00">/cigar.hpp</text>
</a>
</g>
</g>
<!-- Node8&#45;&gt;Node9 -->
<g id="edge9" class="edge">
<title>Node8&#45;&gt;Node9</title>
<path fill="none" stroke="midnightblue" d="M424.94,-252.57C443.82,-242.35 466.73,-229.94 484.01,-220.58"/>
<polygon fill="midnightblue" stroke="midnightblue" points="423.16,-249.56 416.04,-257.4 426.5,-255.71 423.16,-249.56"/>
</g>
<!-- Node10 -->
<g id="node10" class="node">
<title>Node10</title>
<g id="a_node10"><a xlink:href="masked_8hpp.html" target="_top" xlink:title="Extends a given alphabet with the mask alphabet.">
<polygon fill="white" stroke="black" points="580,-196 580,-215 750,-215 750,-196 580,-196"/>
<text text-anchor="middle" x="665" y="-203" font-family="Helvetica,sans-Serif" font-size="10.00">bio/alphabet/mask/masked.hpp</text>
</a>
</g>
</g>
<!-- Node8&#45;&gt;Node10 -->
<g id="edge11" class="edge">
<title>Node8&#45;&gt;Node10</title>
<path fill="none" stroke="midnightblue" d="M459.18,-255.15C513.14,-242.39 585.92,-225.19 628.92,-215.03"/>
<polygon fill="midnightblue" stroke="midnightblue" points="458.26,-251.77 449.33,-257.48 459.87,-258.58 458.26,-251.77"/>
</g>
<!-- Node12 -->
<g id="node12" class="node">
<title>Node12</title>
<g id="a_node12"><a xlink:href="qualified_8hpp.html" target="_top" xlink:title="Provides quality alphabet composites.">
<polygon fill="white" stroke="black" points="326,-190.5 326,-220.5 440,-220.5 440,-190.5 326,-190.5"/>
<text text-anchor="start" x="334" y="-208.5" font-family="Helvetica,sans-Serif" font-size="10.00">bio/alphabet/quality</text>
<text text-anchor="middle" x="383" y="-197.5" font-family="Helvetica,sans-Serif" font-size="10.00">/qualified.hpp</text>
</a>
</g>
</g>
<!-- Node8&#45;&gt;Node12 -->
<g id="edge14" class="edge">
<title>Node8&#45;&gt;Node12</title>
<path fill="none" stroke="midnightblue" d="M387.4,-247.4C386.43,-238.37 385.36,-228.41 384.52,-220.58"/>
<polygon fill="midnightblue" stroke="midnightblue" points="383.93,-247.83 388.48,-257.4 390.89,-247.08 383.93,-247.83"/>
</g>
<!-- Node11 -->
<g id="node11" class="node">
<title>Node11</title>
<g id="a_node11"><a xlink:href="alphabet_2mask_2all_8hpp.html" target="_top" xlink:title="Meta&#45;header for the mask submodule; includes all headers from alphabet/mask/.">
<polygon fill="white" stroke="black" points="583.5,-129 583.5,-148 726.5,-148 726.5,-129 583.5,-129"/>
<text text-anchor="middle" x="655" y="-136" font-family="Helvetica,sans-Serif" font-size="10.00">bio/alphabet/mask/all.hpp</text>
</a>
</g>
</g>
<!-- Node10&#45;&gt;Node11 -->
<g id="edge12" class="edge">
<title>Node10&#45;&gt;Node11</title>
<path fill="none" stroke="midnightblue" d="M662.08,-185.54C660.18,-173.17 657.79,-157.62 656.33,-148.13"/>
<polygon fill="midnightblue" stroke="midnightblue" points="658.67,-186.38 663.65,-195.73 665.59,-185.32 658.67,-186.38"/>
</g>
<!-- Node11&#45;&gt;Node4 -->
<g id="edge13" class="edge">
<title>Node11&#45;&gt;Node4</title>
<path fill="none" stroke="midnightblue" d="M637.74,-122.34C615.96,-104 576.66,-73.4 538,-56 496.65,-37.39 446.51,-25.83 408.72,-19.1"/>
<polygon fill="midnightblue" stroke="midnightblue" points="635.57,-125.1 645.44,-128.94 640.12,-119.78 635.57,-125.1"/>
</g>
<!-- Node13 -->
<g id="node13" class="node">
<title>Node13</title>
<g id="a_node13"><a xlink:href="aliases_8hpp.html" target="_top" xlink:title="Provides aliases for qualified.">
<polygon fill="white" stroke="black" points="404,-123.5 404,-153.5 518,-153.5 518,-123.5 404,-123.5"/>
<text text-anchor="start" x="412" y="-141.5" font-family="Helvetica,sans-Serif" font-size="10.00">bio/alphabet/quality</text>
<text text-anchor="middle" x="461" y="-130.5" font-family="Helvetica,sans-Serif" font-size="10.00">/aliases.hpp</text>
</a>
</g>
</g>
<!-- Node12&#45;&gt;Node13 -->
<g id="edge15" class="edge">
<title>Node12&#45;&gt;Node13</title>
<path fill="none" stroke="midnightblue" d="M407.74,-183.88C419.59,-174.01 433.48,-162.43 444.11,-153.58"/>
<polygon fill="midnightblue" stroke="midnightblue" points="405.37,-181.31 399.92,-190.4 409.85,-186.68 405.37,-181.31"/>
</g>
<!-- Node14 -->
<g id="node14" class="node">
<title>Node14</title>
<g id="a_node14"><a xlink:href="alphabet_2quality_2all_8hpp.html" target="_top" xlink:title="Meta&#45;header that includes all headers from alphabet/quality/.">
<polygon fill="white" stroke="black" points="415,-56.5 415,-86.5 529,-86.5 529,-56.5 415,-56.5"/>
<text text-anchor="start" x="423" y="-74.5" font-family="Helvetica,sans-Serif" font-size="10.00">bio/alphabet/quality</text>
<text text-anchor="middle" x="472" y="-63.5" font-family="Helvetica,sans-Serif" font-size="10.00">/all.hpp</text>
</a>
</g>
</g>
<!-- Node12&#45;&gt;Node14 -->
<g id="edge18" class="edge">
<title>Node12&#45;&gt;Node14</title>
<path fill="none" stroke="midnightblue" d="M449.89,-189.01C482.79,-179.89 517.41,-167.52 527,-154 543.49,-130.75 515.06,-103.15 493.3,-86.77"/>
<polygon fill="midnightblue" stroke="midnightblue" points="448.97,-185.63 440.23,-191.61 450.79,-192.39 448.97,-185.63"/>
</g>
<!-- Node15 -->
<g id="node15" class="node">
<title>Node15</title>
<g id="a_node15"><a xlink:href="trim__quality_8hpp.html" target="_top" xlink:title="Provides bio::views::trim_quality.">
<polygon fill="white" stroke="black" points="264,-123.5 264,-153.5 386,-153.5 386,-123.5 264,-123.5"/>
<text text-anchor="start" x="272" y="-141.5" font-family="Helvetica,sans-Serif" font-size="10.00">bio/ranges/views/trim</text>
<text text-anchor="middle" x="325" y="-130.5" font-family="Helvetica,sans-Serif" font-size="10.00">_quality.hpp</text>
</a>
</g>
</g>
<!-- Node12&#45;&gt;Node15 -->
<g id="edge19" class="edge">
<title>Node12&#45;&gt;Node15</title>
<path fill="none" stroke="midnightblue" d="M363.58,-182.74C355,-173.12 345.16,-162.09 337.56,-153.58"/>
<polygon fill="midnightblue" stroke="midnightblue" points="361.15,-185.26 370.41,-190.4 366.37,-180.6 361.15,-185.26"/>
</g>
<!-- Node13&#45;&gt;Node14 -->
<g id="edge16" class="edge">
<title>Node13&#45;&gt;Node14</title>
<path fill="none" stroke="midnightblue" d="M465.08,-113.4C466.61,-104.37 468.29,-94.41 469.62,-86.58"/>
<polygon fill="midnightblue" stroke="midnightblue" points="461.6,-112.95 463.39,-123.4 468.51,-114.12 461.6,-112.95"/>
</g>
<!-- Node14&#45;&gt;Node4 -->
<g id="edge17" class="edge">
<title>Node14&#45;&gt;Node4</title>
<path fill="none" stroke="midnightblue" d="M434.57,-51.94C412.83,-41.16 386.46,-28.08 369.46,-19.66"/>
<polygon fill="midnightblue" stroke="midnightblue" points="433.05,-55.09 443.56,-56.4 436.16,-48.82 433.05,-55.09"/>
</g>
<!-- Node16 -->
<g id="node16" class="node">
<title>Node16</title>
<g id="a_node16"><a xlink:href="ranges_2views_2all_8hpp.html" target="_top" xlink:title="Meta&#45;header for the views submodule .">
<polygon fill="white" stroke="black" points="261.5,-62 261.5,-81 396.5,-81 396.5,-62 261.5,-62"/>
<text text-anchor="middle" x="329" y="-69" font-family="Helvetica,sans-Serif" font-size="10.00">bio/ranges/views/all.hpp</text>
</a>
</g>
</g>
<!-- Node15&#45;&gt;Node16 -->
<g id="edge20" class="edge">
<title>Node15&#45;&gt;Node16</title>
<path fill="none" stroke="midnightblue" d="M326.49,-113.25C327.18,-102.02 327.96,-89.38 328.46,-81.19"/>
<polygon fill="midnightblue" stroke="midnightblue" points="322.99,-113.2 325.87,-123.4 329.98,-113.63 322.99,-113.2"/>
</g>
</g>
</svg>
        <g id="navigator" transform="translate(0 0)" fill="#404254">
                <rect fill="#f2f5e9" fill-opacity="0.5" stroke="#606060" stroke-width=".5" x="0" y="0" width="60" height="60"/>
                <use id="zoomplus" xlink:href="#zoomPlus" x="17" y="9" onmousedown="handleZoom(evt,'in')"/>
                <use id="zoomminus" xlink:href="#zoomMin" x="42" y="9" onmousedown="handleZoom(evt,'out')"/>
                <use id="reset" xlink:href="#resetDef" x="30" y="36" onmousedown="handleReset()"/>
                <g id="arrowUp" xlink:href="#dirArrow" transform="translate(30 24)" onmousedown="handlePan(0,-1)">
                  <use xlink:href="#rim" fill="#404040">
                        <set attributeName="fill" to="#808080" begin="arrowUp.mouseover" end="arrowUp.mouseout"/>
                  </use>
                  <path fill="none" stroke="white" stroke-width="1.5" d="M0,-3.0v7 M-2.5,-0.5L0,-3.0L2.5,-0.5"/>
                </g>
                <g id="arrowRight" xlink:href="#dirArrow" transform="rotate(90) translate(36 -43)" onmousedown="handlePan(1,0)">
                  <use xlink:href="#rim" fill="#404040">
                        <set attributeName="fill" to="#808080" begin="arrowRight.mouseover" end="arrowRight.mouseout"/>
                  </use>
                  <path fill="none" stroke="white" stroke-width="1.5" d="M0,-3.0v7 M-2.5,-0.5L0,-3.0L2.5,-0.5"/>
                </g>
                <g id="arrowDown" xlink:href="#dirArrow" transform="rotate(180) translate(-30 -48)" onmousedown="handlePan(0,1)">
                  <use xlink:href="#rim" fill="#404040">
                        <set attributeName="fill" to="#808080" begin="arrowDown.mouseover" end="arrowDown.mouseout"/>
                  </use>
                  <path fill="none" stroke="white" stroke-width="1.5" d="M0,-3.0v7 M-2.5,-0.5L0,-3.0L2.5,-0.5"/>
                </g>
                <g id="arrowLeft" xlink:href="#dirArrow" transform="rotate(270) translate(-36 17)" onmousedown="handlePan(-1,0)">
                  <use xlink:href="#rim" fill="#404040">
                        <set attributeName="fill" to="#808080" begin="arrowLeft.mouseover" end="arrowLeft.mouseout"/>
                  </use>
                  <path fill="none" stroke="white" stroke-width="1.5" d="M0,-3.0v7 M-2.5,-0.5L0,-3.0L2.5,-0.5"/>
                </g>
        </g>
        <svg viewBox="0 0 15 15" width="100%" height="30px" preserveAspectRatio="xMaxYMin meet">
         <g id="arrow_out" transform="scale(0.3 0.3)">
          <a xlink:href="lazy_8hpp__dep__incl_org.svg" target="_base">
           <rect id="button" ry="5" rx="5" y="6" x="6" height="38" width="38"
                fill="#f2f5e9" fill-opacity="0.5" stroke="#606060" stroke-width="1.0"/>
           <path id="arrow"
             d="M 11.500037,31.436501 C 11.940474,20.09759 22.043105,11.32322 32.158766,21.979434 L 37.068811,17.246167 C 37.068811,17.246167 37.088388,32 37.088388,32 L 22.160133,31.978069 C 22.160133,31.978069 26.997745,27.140456 26.997745,27.140456 C 18.528582,18.264221 13.291696,25.230495 11.500037,31.436501 z"
             style="fill:#404040;"/>
          </a>
         </g>
        </svg>
</svg>
