<?xml version="1.0" encoding="UTF-8" standalone="no"?>
<!DOCTYPE svg PUBLIC "-//W3C//DTD SVG 1.1//EN"
 "http://www.w3.org/Graphics/SVG/1.1/DTD/svg11.dtd">
<!-- Generated by graphviz version 2.42.2 ()
 -->
<!-- Title: bio/meta/type_traits/lazy.hpp Pages: 1 -->
<svg width="685pt" height="430pt"
 viewBox="0.00 0.00 684.50 430.00" xmlns="http://www.w3.org/2000/svg" xmlns:xlink="http://www.w3.org/1999/xlink">
<g id="graph0" class="graph" transform="scale(1 1) rotate(0) translate(4 426)">
<title>bio/meta/type_traits/lazy.hpp</title>
<polygon fill="white" stroke="transparent" points="-4,4 -4,-426 680.5,-426 680.5,4 -4,4"/>
<!-- Node1 -->
<g id="node1" class="node">
<title>Node1</title>
<g id="a_node1"><a xlink:title="Provides lazy template instantiation traits.">
<polygon fill="#bfbfbf" stroke="black" points="202,-391.5 202,-421.5 305,-421.5 305,-391.5 202,-391.5"/>
<text text-anchor="start" x="210" y="-409.5" font-family="Helvetica,sans-Serif" font-size="10.00">bio/meta/type_traits</text>
<text text-anchor="middle" x="253.5" y="-398.5" font-family="Helvetica,sans-Serif" font-size="10.00">/lazy.hpp</text>
</a>
</g>
</g>
<!-- Node2 -->
<g id="node2" class="node">
<title>Node2</title>
<g id="a_node2"><a xlink:href="alphabet__variant_8hpp.html" target="_top" xlink:title="Provides bio::alphabet::alphabet_variant.">
<polygon fill="white" stroke="black" points="152,-257.5 152,-287.5 269,-287.5 269,-257.5 152,-257.5"/>
<text text-anchor="start" x="160" y="-275.5" font-family="Helvetica,sans-Serif" font-size="10.00">bio/alphabet/composite</text>
<text text-anchor="middle" x="210.5" y="-264.5" font-family="Helvetica,sans-Serif" font-size="10.00">/alphabet_variant.hpp</text>
</a>
</g>
</g>
<!-- Node1&#45;&gt;Node2 -->
<g id="edge1" class="edge">
<title>Node1&#45;&gt;Node2</title>
<path fill="none" stroke="midnightblue" d="M241.71,-382.03C237.79,-373.64 233.63,-364.03 230.5,-355 222.48,-331.88 216.37,-304 213.12,-287.57"/>
<polygon fill="midnightblue" stroke="midnightblue" points="238.63,-383.71 246.12,-391.21 244.94,-380.68 238.63,-383.71"/>
</g>
<!-- Node7 -->
<g id="node7" class="node">
<title>Node7</title>
<g id="a_node7"><a xlink:href="alphabet_2composite_2detail_8hpp_source.html" target="_top" xlink:title=" ">
<polygon fill="white" stroke="black" points="239,-324.5 239,-354.5 356,-354.5 356,-324.5 239,-324.5"/>
<text text-anchor="start" x="247" y="-342.5" font-family="Helvetica,sans-Serif" font-size="10.00">bio/alphabet/composite</text>
<text text-anchor="middle" x="297.5" y="-331.5" font-family="Helvetica,sans-Serif" font-size="10.00">/detail.hpp</text>
</a>
</g>
</g>
<!-- Node1&#45;&gt;Node7 -->
<g id="edge7" class="edge">
<title>Node1&#45;&gt;Node7</title>
<path fill="none" stroke="midnightblue" d="M268.82,-382.87C275.19,-373.46 282.38,-362.83 287.97,-354.58"/>
<polygon fill="midnightblue" stroke="midnightblue" points="265.75,-381.15 263.05,-391.4 271.55,-385.08 265.75,-381.15"/>
</g>
<!-- Node3 -->
<g id="node3" class="node">
<title>Node3</title>
<g id="a_node3"><a xlink:href="alphabet_2composite_2all_8hpp.html" target="_top" xlink:title="Meta&#45;header for the composite submodule; includes all headers from alphabet/composite/.">
<polygon fill="white" stroke="black" points="159,-190.5 159,-220.5 276,-220.5 276,-190.5 159,-190.5"/>
<text text-anchor="start" x="167" y="-208.5" font-family="Helvetica,sans-Serif" font-size="10.00">bio/alphabet/composite</text>
<text text-anchor="middle" x="217.5" y="-197.5" font-family="Helvetica,sans-Serif" font-size="10.00">/all.hpp</text>
</a>
</g>
</g>
<!-- Node2&#45;&gt;Node3 -->
<g id="edge2" class="edge">
<title>Node2&#45;&gt;Node3</title>
<path fill="none" stroke="midnightblue" d="M213.1,-247.4C214.07,-238.37 215.14,-228.41 215.98,-220.58"/>
<polygon fill="midnightblue" stroke="midnightblue" points="209.61,-247.08 212.02,-257.4 216.57,-247.83 209.61,-247.08"/>
</g>
<!-- Node5 -->
<g id="node5" class="node">
<title>Node5</title>
<g id="a_node5"><a xlink:href="gapped_8hpp.html" target="_top" xlink:title="Provides bio::alphabet::gapped.">
<polygon fill="white" stroke="black" points="0,-196 0,-215 141,-215 141,-196 0,-196"/>
<text text-anchor="middle" x="70.5" y="-203" font-family="Helvetica,sans-Serif" font-size="10.00">bio/alphabet/gap/gapped.hpp</text>
</a>
</g>
</g>
<!-- Node2&#45;&gt;Node5 -->
<g id="edge4" class="edge">
<title>Node2&#45;&gt;Node5</title>
<path fill="none" stroke="midnightblue" d="M170.94,-253.13C143.99,-240.62 109.57,-224.64 88.82,-215.01"/>
<polygon fill="midnightblue" stroke="midnightblue" points="169.58,-256.36 180.12,-257.4 172.53,-250.01 169.58,-256.36"/>
</g>
<!-- Node4 -->
<g id="node4" class="node">
<title>Node4</title>
<g id="a_node4"><a xlink:href="alphabet_2all_8hpp.html" target="_top" xlink:title="Meta&#45;header for the alphabet module.">
<polygon fill="white" stroke="black" points="254,-0.5 254,-19.5 355,-19.5 355,-0.5 254,-0.5"/>
<text text-anchor="middle" x="304.5" y="-7.5" font-family="Helvetica,sans-Serif" font-size="10.00">bio/alphabet/all.hpp</text>
</a>
</g>
</g>
<!-- Node3&#45;&gt;Node4 -->
<g id="edge3" class="edge">
<title>Node3&#45;&gt;Node4</title>
<path fill="none" stroke="midnightblue" d="M209.56,-180.46C200.81,-149.24 190.87,-94.23 214.5,-56 226.07,-37.28 248.06,-26.08 267.4,-19.54"/>
<polygon fill="midnightblue" stroke="midnightblue" points="206.21,-181.5 212.43,-190.08 212.92,-179.49 206.21,-181.5"/>
</g>
<!-- Node6 -->
<g id="node6" class="node">
<title>Node6</title>
<g id="a_node6"><a xlink:href="alphabet_2gap_2all_8hpp.html" target="_top" xlink:title="Meta&#45;header for the gap submodule; includes all headers from alphabet/gap/.">
<polygon fill="white" stroke="black" points="40,-129 40,-148 159,-148 159,-129 40,-129"/>
<text text-anchor="middle" x="99.5" y="-136" font-family="Helvetica,sans-Serif" font-size="10.00">bio/alphabet/gap/all.hpp</text>
</a>
</g>
</g>
<!-- Node5&#45;&gt;Node6 -->
<g id="edge5" class="edge">
<title>Node5&#45;&gt;Node6</title>
<path fill="none" stroke="midnightblue" d="M78.62,-186.29C84.19,-173.81 91.33,-157.81 95.65,-148.13"/>
<polygon fill="midnightblue" stroke="midnightblue" points="75.29,-185.18 74.41,-195.73 81.68,-188.03 75.29,-185.18"/>
</g>
<!-- Node6&#45;&gt;Node4 -->
<g id="edge6" class="edge">
<title>Node6&#45;&gt;Node4</title>
<path fill="none" stroke="midnightblue" d="M112.62,-120.66C127.57,-102.49 153.56,-73.77 181.5,-56 208.74,-38.67 243.61,-26.72 269.26,-19.51"/>
<polygon fill="midnightblue" stroke="midnightblue" points="109.75,-118.66 106.22,-128.64 115.21,-123.04 109.75,-118.66"/>
</g>
<!-- Node7&#45;&gt;Node2 -->
<g id="edge21" class="edge">
<title>Node7&#45;&gt;Node2</title>
<path fill="none" stroke="midnightblue" d="M270.29,-318.17C256.98,-308.23 241.3,-296.51 229.34,-287.58"/>
<polygon fill="midnightblue" stroke="midnightblue" points="268.52,-321.21 278.62,-324.4 272.71,-315.61 268.52,-321.21"/>
</g>
<!-- Node8 -->
<g id="node8" class="node">
<title>Node8</title>
<g id="a_node8"><a xlink:href="alphabet__tuple__base_8hpp.html" target="_top" xlink:title="Provides bio::alphabet::alphabet_tuple_base.">
<polygon fill="white" stroke="black" points="287.5,-257.5 287.5,-287.5 415.5,-287.5 415.5,-257.5 287.5,-257.5"/>
<text text-anchor="start" x="295.5" y="-275.5" font-family="Helvetica,sans-Serif" font-size="10.00">bio/alphabet/composite</text>
<text text-anchor="middle" x="351.5" y="-264.5" font-family="Helvetica,sans-Serif" font-size="10.00">/alphabet_tuple_base.hpp</text>
</a>
</g>
</g>
<!-- Node7&#45;&gt;Node8 -->
<g id="edge8" class="edge">
<title>Node7&#45;&gt;Node8</title>
<path fill="none" stroke="midnightblue" d="M315.82,-316.45C323.75,-306.9 332.8,-296 339.81,-287.58"/>
<polygon fill="midnightblue" stroke="midnightblue" points="312.92,-314.47 309.22,-324.4 318.3,-318.94 312.92,-314.47"/>
</g>
<!-- Node8&#45;&gt;Node3 -->
<g id="edge10" class="edge">
<title>Node8&#45;&gt;Node3</title>
<path fill="none" stroke="midnightblue" d="M313.35,-252.99C292.11,-242.69 266.09,-230.07 246.52,-220.58"/>
<polygon fill="midnightblue" stroke="midnightblue" points="311.9,-256.18 322.42,-257.4 314.95,-249.88 311.9,-256.18"/>
</g>
<!-- Node9 -->
<g id="node9" class="node">
<title>Node9</title>
<g id="a_node9"><a xlink:href="cigar_8hpp.html" target="_top" xlink:title="Provides the bio::alphabet::cigar alphabet.">
<polygon fill="white" stroke="black" points="413,-190.5 413,-220.5 506,-220.5 506,-190.5 413,-190.5"/>
<text text-anchor="start" x="421" y="-208.5" font-family="Helvetica,sans-Serif" font-size="10.00">bio/alphabet/cigar</text>
<text text-anchor="middle" x="459.5" y="-197.5" font-family="Helvetica,sans-Serif" font-size="10.00">/cigar.hpp</text>
</a>
</g>
</g>
<!-- Node8&#45;&gt;Node9 -->
<g id="edge9" class="edge">
<title>Node8&#45;&gt;Node9</title>
<path fill="none" stroke="midnightblue" d="M383.87,-252.02C400.68,-241.9 420.84,-229.77 436.11,-220.58"/>
<polygon fill="midnightblue" stroke="midnightblue" points="381.7,-249.24 374.93,-257.4 385.31,-255.24 381.7,-249.24"/>
</g>
<!-- Node10 -->
<g id="node10" class="node">
<title>Node10</title>
<g id="a_node10"><a xlink:href="masked_8hpp.html" target="_top" xlink:title="Extends a given alphabet with the mask alphabet.">
<polygon fill="white" stroke="black" points="524.5,-196 524.5,-215 676.5,-215 676.5,-196 524.5,-196"/>
<text text-anchor="middle" x="600.5" y="-203" font-family="Helvetica,sans-Serif" font-size="10.00">bio/alphabet/mask/masked.hpp</text>
</a>
</g>
</g>
<!-- Node8&#45;&gt;Node10 -->
<g id="edge11" class="edge">
<title>Node8&#45;&gt;Node10</title>
<path fill="none" stroke="midnightblue" d="M415.05,-254.91C463.82,-242.18 529.14,-225.13 567.83,-215.03"/>
<polygon fill="midnightblue" stroke="midnightblue" points="414.01,-251.56 405.22,-257.48 415.78,-258.34 414.01,-251.56"/>
</g>
<!-- Node12 -->
<g id="node12" class="node">
<title>Node12</title>
<g id="a_node12"><a xlink:href="qualified_8hpp.html" target="_top" xlink:title="Provides quality alphabet composites.">
<polygon fill="white" stroke="black" points="294,-190.5 294,-220.5 395,-220.5 395,-190.5 294,-190.5"/>
<text text-anchor="start" x="302" y="-208.5" font-family="Helvetica,sans-Serif" font-size="10.00">bio/alphabet/quality</text>
<text text-anchor="middle" x="344.5" y="-197.5" font-family="Helvetica,sans-Serif" font-size="10.00">/qualified.hpp</text>
</a>
</g>
</g>
<!-- Node8&#45;&gt;Node12 -->
<g id="edge14" class="edge">
<title>Node8&#45;&gt;Node12</title>
<path fill="none" stroke="midnightblue" d="M348.9,-247.4C347.93,-238.37 346.86,-228.41 346.02,-220.58"/>
<polygon fill="midnightblue" stroke="midnightblue" points="345.43,-247.83 349.98,-257.4 352.39,-247.08 345.43,-247.83"/>
</g>
<!-- Node11 -->
<g id="node11" class="node">
<title>Node11</title>
<g id="a_node11"><a xlink:href="alphabet_2mask_2all_8hpp.html" target="_top" xlink:title="Meta&#45;header for the mask submodule; includes all headers from alphabet/mask/.">
<polygon fill="white" stroke="black" points="498.5,-62 498.5,-81 626.5,-81 626.5,-62 498.5,-62"/>
<text text-anchor="middle" x="562.5" y="-69" font-family="Helvetica,sans-Serif" font-size="10.00">bio/alphabet/mask/all.hpp</text>
</a>
</g>
</g>
<!-- Node10&#45;&gt;Node11 -->
<g id="edge12" class="edge">
<title>Node10&#45;&gt;Node11</title>
<path fill="none" stroke="midnightblue" d="M595.22,-186.16C586.89,-157.23 571.03,-102.13 564.95,-81.02"/>
<polygon fill="midnightblue" stroke="midnightblue" points="591.88,-187.2 598.01,-195.84 598.6,-185.26 591.88,-187.2"/>
</g>
<!-- Node11&#45;&gt;Node4 -->
<g id="edge13" class="edge">
<title>Node11&#45;&gt;Node4</title>
<path fill="none" stroke="midnightblue" d="M515.61,-59.69C465.55,-48.14 387.25,-30.08 341.4,-19.51"/>
<polygon fill="midnightblue" stroke="midnightblue" points="515,-63.14 525.53,-61.98 516.58,-56.32 515,-63.14"/>
</g>
<!-- Node13 -->
<g id="node13" class="node">
<title>Node13</title>
<g id="a_node13"><a xlink:href="aliases_8hpp.html" target="_top" xlink:title="Provides aliases for qualified.">
<polygon fill="white" stroke="black" points="355,-123.5 355,-153.5 456,-153.5 456,-123.5 355,-123.5"/>
<text text-anchor="start" x="363" y="-141.5" font-family="Helvetica,sans-Serif" font-size="10.00">bio/alphabet/quality</text>
<text text-anchor="middle" x="405.5" y="-130.5" font-family="Helvetica,sans-Serif" font-size="10.00">/aliases.hpp</text>
</a>
</g>
</g>
<!-- Node12&#45;&gt;Node13 -->
<g id="edge15" class="edge">
<title>Node12&#45;&gt;Node13</title>
<path fill="none" stroke="midnightblue" d="M364.65,-183.02C373.74,-173.34 384.22,-162.17 392.29,-153.58"/>
<polygon fill="midnightblue" stroke="midnightblue" points="362.03,-180.71 357.74,-190.4 367.13,-185.5 362.03,-180.71"/>
</g>
<!-- Node14 -->
<g id="node14" class="node">
<title>Node14</title>
<g id="a_node14"><a xlink:href="alphabet_2quality_2all_8hpp.html" target="_top" xlink:title="Meta&#45;header that includes all headers from alphabet/quality/.">
<polygon fill="white" stroke="black" points="364,-56.5 364,-86.5 465,-86.5 465,-56.5 364,-56.5"/>
<text text-anchor="start" x="372" y="-74.5" font-family="Helvetica,sans-Serif" font-size="10.00">bio/alphabet/quality</text>
<text text-anchor="middle" x="414.5" y="-63.5" font-family="Helvetica,sans-Serif" font-size="10.00">/all.hpp</text>
</a>
</g>
</g>
<!-- Node12&#45;&gt;Node14 -->
<g id="edge18" class="edge">
<title>Node12&#45;&gt;Node14</title>
<path fill="none" stroke="midnightblue" d="M402.26,-187.2C429.5,-177.76 457.74,-165.65 465.5,-154 480.96,-130.8 454.54,-103.19 434.31,-86.79"/>
<polygon fill="midnightblue" stroke="midnightblue" points="401.06,-183.92 392.7,-190.43 403.29,-190.55 401.06,-183.92"/>
</g>
<!-- Node15 -->
<g id="node15" class="node">
<title>Node15</title>
<g id="a_node15"><a xlink:href="trim__quality_8hpp.html" target="_top" xlink:title="Provides bio::views::trim_quality.">
<polygon fill="white" stroke="black" points="226.5,-123.5 226.5,-153.5 336.5,-153.5 336.5,-123.5 226.5,-123.5"/>
<text text-anchor="start" x="234.5" y="-141.5" font-family="Helvetica,sans-Serif" font-size="10.00">bio/ranges/views/trim</text>
<text text-anchor="middle" x="281.5" y="-130.5" font-family="Helvetica,sans-Serif" font-size="10.00">_quality.hpp</text>
</a>
</g>
</g>
<!-- Node12&#45;&gt;Node15 -->
<g id="edge19" class="edge">
<title>Node12&#45;&gt;Node15</title>
<path fill="none" stroke="midnightblue" d="M323.69,-183.02C314.3,-173.34 303.48,-162.17 295.14,-153.58"/>
<polygon fill="midnightblue" stroke="midnightblue" points="321.36,-185.65 330.83,-190.4 326.38,-180.78 321.36,-185.65"/>
</g>
<!-- Node13&#45;&gt;Node14 -->
<g id="edge16" class="edge">
<title>Node13&#45;&gt;Node14</title>
<path fill="none" stroke="midnightblue" d="M408.84,-113.4C410.09,-104.37 411.47,-94.41 412.55,-86.58"/>
<polygon fill="midnightblue" stroke="midnightblue" points="405.36,-113.01 407.45,-123.4 412.29,-113.97 405.36,-113.01"/>
</g>
<!-- Node14&#45;&gt;Node4 -->
<g id="edge17" class="edge">
<title>Node14&#45;&gt;Node4</title>
<path fill="none" stroke="midnightblue" d="M379.38,-51.51C359.61,-40.81 335.88,-27.97 320.51,-19.66"/>
<polygon fill="midnightblue" stroke="midnightblue" points="377.97,-54.72 388.43,-56.4 381.3,-48.56 377.97,-54.72"/>
</g>
<!-- Node16 -->
<g id="node16" class="node">
<title>Node16</title>
<g id="a_node16"><a xlink:href="ranges_2views_2all_8hpp.html" target="_top" xlink:title="Meta&#45;header for the views submodule .">
<polygon fill="white" stroke="black" points="223.5,-62 223.5,-81 345.5,-81 345.5,-62 223.5,-62"/>
<text text-anchor="middle" x="284.5" y="-69" font-family="Helvetica,sans-Serif" font-size="10.00">bio/ranges/views/all.hpp</text>
</a>
</g>
</g>
<!-- Node15&#45;&gt;Node16 -->
<g id="edge20" class="edge">
<title>Node15&#45;&gt;Node16</title>
<path fill="none" stroke="midnightblue" d="M282.62,-113.25C283.14,-102.02 283.72,-89.38 284.1,-81.19"/>
<polygon fill="midnightblue" stroke="midnightblue" points="279.12,-113.25 282.15,-123.4 286.11,-113.57 279.12,-113.25"/>
</g>
</g>
</svg>
