<?xml version="1.0" encoding="UTF-8" standalone="no"?>
<!DOCTYPE svg PUBLIC "-//W3C//DTD SVG 1.1//EN"
 "http://www.w3.org/Graphics/SVG/1.1/DTD/svg11.dtd">
<!-- Generated by graphviz version 2.43.0 (0)
 -->
<!-- Title: bio/ranges/views/make_convertible.hpp Pages: 1 -->
<!--zoomable 423 -->
<svg id="main" version="1.1" xmlns="http://www.w3.org/2000/svg" xmlns:xlink="http://www.w3.org/1999/xlink" xml:space="preserve" onload="init(evt)">
<style type="text/css"><![CDATA[
.edge:hover path { stroke: red; }
.edge:hover polygon { stroke: red; fill: red; }
]]></style>
<script type="text/javascript"><![CDATA[
var edges = document.getElementsByTagName('g');
if (edges && edges.length) {
  for (var i=0;i<edges.length;i++) {
    if (edges[i].id.substr(0,4)=='edge') {
      edges[i].setAttribute('class','edge');
    }
  }
}
]]></script>
        <defs>
                <circle id="rim" cx="0" cy="0" r="7"/>
                <circle id="rim2" cx="0" cy="0" r="3.5"/>
                <g id="zoomPlus">
                        <use xlink:href="#rim" fill="#404040">
                                <set attributeName="fill" to="#808080" begin="zoomplus.mouseover" end="zoomplus.mouseout"/>
                        </use>
                        <path d="M-4,0h8M0,-4v8" fill="none" stroke="white" stroke-width="1.5" pointer-events="none"/>
                </g>
                <g id="zoomMin">
                        <use xlink:href="#rim" fill="#404040">
                                <set attributeName="fill" to="#808080" begin="zoomminus.mouseover" end="zoomminus.mouseout"/>
                        </use>
                        <path d="M-4,0h8" fill="none" stroke="white" stroke-width="1.5" pointer-events="none"/>
                </g>
                <g id="dirArrow">
                        <path fill="none" stroke="white" stroke-width="1.5" d="M0,-3.0v7 M-2.5,-0.5L0,-3.0L2.5,-0.5"/>
                </g>
               <g id="resetDef">
                       <use xlink:href="#rim2" fill="#404040">
                               <set attributeName="fill" to="#808080" begin="reset.mouseover" end="reset.mouseout"/>
                       </use>
               </g>
        </defs>

<script type="text/javascript">
var viewWidth = 1637;
var viewHeight = 423;
var sectionId = 'dynsection-0';
</script>
<script xlink:href="svgpan.js"/>
<svg id="graph" class="graph">
<g id="viewport">
<title>bio/ranges/views/make_convertible.hpp</title>
<!-- Node1 -->
<g id="node1" class="node">
<title>Node1</title>
<g id="a_node1"><a xlink:title="Provides bio::views::take.">
<polygon fill="#999999" stroke="#666666" points="998.5,-415 881.5,-415 881.5,-385 998.5,-385 998.5,-415"/>
<text text-anchor="start" x="889.5" y="-403" font-family="Helvetica,sans-Serif" font-size="10.00">bio/ranges/views/make</text>
<text text-anchor="middle" x="940" y="-392" font-family="Helvetica,sans-Serif" font-size="10.00">_convertible.hpp</text>
</a>
</g>
</g>
<!-- Node2 -->
<g id="node2" class="node">
<title>Node2</title>
<g id="a_node2"><a target="_blank" xlink:href="https://en.cppreference.com/w/cpp/header/algorithm.html" xlink:title=" ">
<polygon fill="white" stroke="#666666" points="56,-343.5 0,-343.5 0,-324.5 56,-324.5 56,-343.5"/>
<text text-anchor="middle" x="28" y="-331.5" font-family="Helvetica,sans-Serif" font-size="10.00">algorithm</text>
</a>
</g>
</g>
<!-- Node1&#45;&gt;Node2 -->
<g id="edge1" class="edge">
<title>Node1&#45;&gt;Node2</title>
<path fill="none" stroke="#63b8ff" d="M881.24,-397.64C712.08,-393.42 226.1,-378.95 70,-349 66.57,-348.34 63.04,-347.48 59.55,-346.5"/>
<polygon fill="#63b8ff" stroke="#63b8ff" points="60.53,-343.14 49.94,-343.53 58.46,-349.83 60.53,-343.14"/>
</g>
<!-- Node3 -->
<g id="node3" class="node">
<title>Node3</title>
<g id="a_node3"><a target="_blank" xlink:href="https://en.cppreference.com/w/cpp/header/concepts.html" xlink:title=" ">
<polygon fill="white" stroke="#666666" points="188,-74 132,-74 132,-55 188,-55 188,-74"/>
<text text-anchor="middle" x="160" y="-62" font-family="Helvetica,sans-Serif" font-size="10.00">concepts</text>
</a>
</g>
</g>
<!-- Node1&#45;&gt;Node3 -->
<g id="edge2" class="edge">
<title>Node1&#45;&gt;Node3</title>
<path fill="none" stroke="#63b8ff" d="M881.16,-396.28C687.77,-386.57 84,-349.79 84,-269 84,-269 84,-269 84,-195.5 84,-148.96 120.75,-104.29 143.14,-81.39"/>
<polygon fill="#63b8ff" stroke="#63b8ff" points="145.73,-83.75 150.37,-74.23 140.8,-78.77 145.73,-83.75"/>
</g>
<!-- Node4 -->
<g id="node4" class="node">
<title>Node4</title>
<g id="a_node4"><a target="_blank" xlink:href="https://en.cppreference.com/w/cpp/header/iterator.html" xlink:title=" ">
<polygon fill="white" stroke="#666666" points="1508.5,-206 1461.5,-206 1461.5,-187 1508.5,-187 1508.5,-206"/>
<text text-anchor="middle" x="1485" y="-194" font-family="Helvetica,sans-Serif" font-size="10.00">iterator</text>
</a>
</g>
</g>
<!-- Node1&#45;&gt;Node4 -->
<g id="edge3" class="edge">
<title>Node1&#45;&gt;Node4</title>
<path fill="none" stroke="#63b8ff" d="M998.82,-396.98C1131.67,-391.96 1446.39,-377.18 1485,-349 1520.9,-322.8 1523.29,-296.24 1513,-253 1509.75,-239.33 1502.57,-225.22 1496.29,-214.64"/>
<polygon fill="#63b8ff" stroke="#63b8ff" points="1499.18,-212.67 1490.92,-206.04 1493.24,-216.38 1499.18,-212.67"/>
</g>
<!-- Node5 -->
<g id="node5" class="node">
<title>Node5</title>
<g id="a_node5"><a target="_blank" xlink:href="https://en.cppreference.com/w/cpp/header/ranges.html" xlink:title=" ">
<polygon fill="white" stroke="#666666" points="1250,-206 1204,-206 1204,-187 1250,-187 1250,-206"/>
<text text-anchor="middle" x="1227" y="-194" font-family="Helvetica,sans-Serif" font-size="10.00">ranges</text>
</a>
</g>
</g>
<!-- Node1&#45;&gt;Node5 -->
<g id="edge4" class="edge">
<title>Node1&#45;&gt;Node5</title>
<path fill="none" stroke="#63b8ff" d="M953.15,-384.83C979.98,-356.6 1043.92,-292.63 1108,-253 1143.59,-230.99 1157.69,-235.94 1195,-217 1198.39,-215.28 1201.9,-213.33 1205.3,-211.34"/>
<polygon fill="#63b8ff" stroke="#63b8ff" points="1207.14,-214.31 1213.87,-206.13 1203.51,-208.33 1207.14,-214.31"/>
</g>
<!-- Node6 -->
<g id="node6" class="node">
<title>Node6</title>
<g id="a_node6"><a target="_blank" xlink:href="https://en.cppreference.com/w/cpp/header/span.html" xlink:title=" ">
<polygon fill="white" stroke="#666666" points="776,-343.5 738,-343.5 738,-324.5 776,-324.5 776,-343.5"/>
<text text-anchor="middle" x="757" y="-331.5" font-family="Helvetica,sans-Serif" font-size="10.00">span</text>
</a>
</g>
</g>
<!-- Node1&#45;&gt;Node6 -->
<g id="edge5" class="edge">
<title>Node1&#45;&gt;Node6</title>
<path fill="none" stroke="#63b8ff" d="M889.75,-384.9C859.07,-375.77 819.29,-363.01 785,-349 784.14,-348.65 783.27,-348.28 782.4,-347.91"/>
<polygon fill="#63b8ff" stroke="#63b8ff" points="783.64,-344.62 773.09,-343.57 780.68,-350.96 783.64,-344.62"/>
</g>
<!-- Node7 -->
<g id="node7" class="node">
<title>Node7</title>
<g id="a_node7"><a target="_blank" xlink:href="https://en.cppreference.com/w/cpp/header/type_traits.html" xlink:title=" ">
<polygon fill="white" stroke="#666666" points="1224,-74 1162,-74 1162,-55 1224,-55 1224,-74"/>
<text text-anchor="middle" x="1193" y="-62" font-family="Helvetica,sans-Serif" font-size="10.00">type_traits</text>
</a>
</g>
</g>
<!-- Node1&#45;&gt;Node7 -->
<g id="edge6" class="edge">
<title>Node1&#45;&gt;Node7</title>
<path fill="none" stroke="#63b8ff" d="M998.55,-397.64C1124.77,-394.09 1418.61,-382.4 1512,-349 1571.31,-327.79 1629,-331.99 1629,-269 1629,-269 1629,-269 1629,-195.5 1629,-113.61 1342.98,-79.09 1234.26,-68.93"/>
<polygon fill="#63b8ff" stroke="#63b8ff" points="1234.28,-65.42 1224.01,-67.99 1233.65,-72.39 1234.28,-65.42"/>
</g>
<!-- Node8 -->
<g id="node8" class="node">
<title>Node8</title>
<g id="a_node8"><a xlink:href="template__inspection_8hpp.html" target="_top" xlink:title="Provides various traits to inspect templates.">
<polygon fill="white" stroke="#666666" points="500.5,-283 375.5,-283 375.5,-253 500.5,-253 500.5,-283"/>
<text text-anchor="start" x="383.5" y="-271" font-family="Helvetica,sans-Serif" font-size="10.00">bio/meta/type_traits</text>
<text text-anchor="middle" x="438" y="-260" font-family="Helvetica,sans-Serif" font-size="10.00">/template_inspection.hpp</text>
</a>
</g>
</g>
<!-- Node1&#45;&gt;Node8 -->
<g id="edge7" class="edge">
<title>Node1&#45;&gt;Node8</title>
<path fill="none" stroke="#63b8ff" d="M881.24,-391.53C823.94,-383.55 734.62,-369.26 659,-349 595.61,-332.02 524.64,-304.8 480.63,-286.91"/>
<polygon fill="#63b8ff" stroke="#63b8ff" points="481.71,-283.56 471.13,-283.02 479.05,-290.04 481.71,-283.56"/>
</g>
<!-- Node9 -->
<g id="node9" class="node">
<title>Node9</title>
<g id="a_node9"><a xlink:href="transformation__trait__or_8hpp.html" target="_top" xlink:title="Provides bio::meta::transformation_trait_or.">
<polygon fill="white" stroke="#666666" points="988,-217 884,-217 884,-176 988,-176 988,-217"/>
<text text-anchor="start" x="892" y="-205" font-family="Helvetica,sans-Serif" font-size="10.00">bio/meta/type_traits</text>
<text text-anchor="start" x="892" y="-194" font-family="Helvetica,sans-Serif" font-size="10.00">/transformation_trait</text>
<text text-anchor="middle" x="936" y="-183" font-family="Helvetica,sans-Serif" font-size="10.00">_or.hpp</text>
</a>
</g>
</g>
<!-- Node1&#45;&gt;Node9 -->
<g id="edge18" class="edge">
<title>Node1&#45;&gt;Node9</title>
<path fill="none" stroke="#63b8ff" d="M939.72,-384.83C939.07,-352.22 937.47,-271.3 936.59,-227.24"/>
<polygon fill="#63b8ff" stroke="#63b8ff" points="940.09,-227.07 936.39,-217.14 933.09,-227.21 940.09,-227.07"/>
</g>
<!-- Node16 -->
<g id="node16" class="node">
<title>Node16</title>
<g id="a_node16"><a xlink:href="ranges_2concept_8hpp.html" target="_top" xlink:title="Additional non&#45;standard concepts for ranges.">
<polygon fill="white" stroke="#666666" points="912,-343.5 794,-343.5 794,-324.5 912,-324.5 912,-343.5"/>
<text text-anchor="middle" x="853" y="-331.5" font-family="Helvetica,sans-Serif" font-size="10.00">bio/ranges/concept.hpp</text>
</a>
</g>
</g>
<!-- Node1&#45;&gt;Node16 -->
<g id="edge19" class="edge">
<title>Node1&#45;&gt;Node16</title>
<path fill="none" stroke="#63b8ff" d="M920.69,-384.8C906.51,-374.37 887.31,-360.24 872.98,-349.69"/>
<polygon fill="#63b8ff" stroke="#63b8ff" points="874.9,-346.76 864.77,-343.66 870.75,-352.4 874.9,-346.76"/>
</g>
<!-- Node30 -->
<g id="node30" class="node">
<title>Node30</title>
<g id="a_node30"><a xlink:href="ranges_2container_2concept_8hpp.html" target="_top" xlink:title="Adaptations of concepts from the standard library.">
<polygon fill="white" stroke="#666666" points="623,-283 519,-283 519,-253 623,-253 623,-283"/>
<text text-anchor="start" x="527" y="-271" font-family="Helvetica,sans-Serif" font-size="10.00">bio/ranges/container</text>
<text text-anchor="middle" x="571" y="-260" font-family="Helvetica,sans-Serif" font-size="10.00">/concept.hpp</text>
</a>
</g>
</g>
<!-- Node1&#45;&gt;Node30 -->
<g id="edge46" class="edge">
<title>Node1&#45;&gt;Node30</title>
<path fill="none" stroke="#63b8ff" d="M881.15,-388.92C838.21,-380.65 779.03,-367.3 729,-349 683.53,-332.37 634.22,-305.93 603,-288.04"/>
<polygon fill="#63b8ff" stroke="#63b8ff" points="604.71,-284.99 594.3,-283.01 601.21,-291.05 604.71,-284.99"/>
</g>
<!-- Node32 -->
<g id="node32" class="node">
<title>Node32</title>
<g id="a_node32"><a xlink:href="inherited__iterator__base_8hpp.html" target="_top" xlink:title="Provides the bio::ranges::detail::inherited_iterator_base template.">
<polygon fill="white" stroke="#666666" points="1476,-349 1348,-349 1348,-319 1476,-319 1476,-349"/>
<text text-anchor="start" x="1356" y="-337" font-family="Helvetica,sans-Serif" font-size="10.00">bio/ranges/detail/inherited</text>
<text text-anchor="middle" x="1412" y="-326" font-family="Helvetica,sans-Serif" font-size="10.00">_iterator_base.hpp</text>
</a>
</g>
</g>
<!-- Node1&#45;&gt;Node32 -->
<g id="edge53" class="edge">
<title>Node1&#45;&gt;Node32</title>
<path fill="none" stroke="#63b8ff" d="M998.82,-391.02C1084.66,-379.38 1244.19,-357.75 1337.92,-345.04"/>
<polygon fill="#63b8ff" stroke="#63b8ff" points="1338.46,-348.5 1347.9,-343.69 1337.52,-341.57 1338.46,-348.5"/>
</g>
<!-- Node35 -->
<g id="node35" class="node">
<title>Node35</title>
<g id="a_node35"><a xlink:href="type__traits_8hpp.html" target="_top" xlink:title="Provides various transformation traits used by the range module.">
<polygon fill="white" stroke="#666666" points="1290.5,-277.5 1161.5,-277.5 1161.5,-258.5 1290.5,-258.5 1290.5,-277.5"/>
<text text-anchor="middle" x="1226" y="-265.5" font-family="Helvetica,sans-Serif" font-size="10.00">bio/ranges/type_traits.hpp</text>
</a>
</g>
</g>
<!-- Node1&#45;&gt;Node35 -->
<g id="edge65" class="edge">
<title>Node1&#45;&gt;Node35</title>
<path fill="none" stroke="#63b8ff" d="M998.74,-395.57C1068.7,-390.25 1179.79,-377.47 1209,-349 1225.17,-333.24 1227.81,-306.2 1227.49,-287.97"/>
<polygon fill="#63b8ff" stroke="#63b8ff" points="1230.98,-287.75 1227,-277.93 1223.99,-288.09 1230.98,-287.75"/>
</g>
<!-- Node36 -->
<g id="node36" class="node">
<title>Node36</title>
<g id="a_node36"><a xlink:href="ranges_2views_2detail_8hpp.html" target="_top" xlink:title="Auxiliary header for the views submodule .">
<polygon fill="white" stroke="#666666" points="1199.5,-343.5 1064.5,-343.5 1064.5,-324.5 1199.5,-324.5 1199.5,-343.5"/>
<text text-anchor="middle" x="1132" y="-331.5" font-family="Helvetica,sans-Serif" font-size="10.00">bio/ranges/views/detail.hpp</text>
</a>
</g>
</g>
<!-- Node1&#45;&gt;Node36 -->
<g id="edge66" class="edge">
<title>Node1&#45;&gt;Node36</title>
<path fill="none" stroke="#63b8ff" d="M982.14,-384.95C1016.55,-373.48 1064.62,-357.46 1096.95,-346.68"/>
<polygon fill="#63b8ff" stroke="#63b8ff" points="1098.07,-350 1106.45,-343.52 1095.85,-343.36 1098.07,-350"/>
</g>
<!-- Node8&#45;&gt;Node3 -->
<g id="edge8" class="edge">
<title>Node8&#45;&gt;Node3</title>
<path fill="none" stroke="#63b8ff" d="M375.2,-265.38C298.31,-261.92 174.72,-251.06 146,-217 113.87,-178.9 136.7,-114.67 150.94,-83.52"/>
<polygon fill="#63b8ff" stroke="#63b8ff" points="154.19,-84.84 155.34,-74.31 147.87,-81.82 154.19,-84.84"/>
</g>
<!-- Node8&#45;&gt;Node9 -->
<g id="edge9" class="edge">
<title>Node8&#45;&gt;Node9</title>
<path fill="none" stroke="#63b8ff" d="M500.78,-254.5C503.89,-253.97 506.98,-253.47 510,-253 645.75,-231.87 680.96,-236.11 817,-217 835.54,-214.4 855.65,-211.23 873.97,-208.21"/>
<polygon fill="#63b8ff" stroke="#63b8ff" points="874.65,-211.65 883.95,-206.56 873.51,-204.74 874.65,-211.65"/>
</g>
<!-- Node9&#45;&gt;Node7 -->
<g id="edge10" class="edge">
<title>Node9&#45;&gt;Node7</title>
<path fill="none" stroke="#63b8ff" d="M988.25,-179.68C1027.89,-167.29 1078.73,-150.46 1098,-140 1114.01,-131.31 1152.06,-100.08 1174.86,-80.92"/>
<polygon fill="#63b8ff" stroke="#63b8ff" points="1177.38,-83.37 1182.77,-74.24 1172.87,-78.02 1177.38,-83.37"/>
</g>
<!-- Node10 -->
<g id="node10" class="node">
<title>Node10</title>
<g id="a_node10"><a xlink:href="meta_2type__traits_2concept_8hpp.html" target="_top" xlink:title="Provides the concepts bio::meta::transformation_trait and bio::meta::unary_type_trait.">
<polygon fill="white" stroke="#666666" points="1088.5,-140 985.5,-140 985.5,-110 1088.5,-110 1088.5,-140"/>
<text text-anchor="start" x="993.5" y="-128" font-family="Helvetica,sans-Serif" font-size="10.00">bio/meta/type_traits</text>
<text text-anchor="middle" x="1037" y="-117" font-family="Helvetica,sans-Serif" font-size="10.00">/concept.hpp</text>
</a>
</g>
</g>
<!-- Node9&#45;&gt;Node10 -->
<g id="edge11" class="edge">
<title>Node9&#45;&gt;Node10</title>
<path fill="none" stroke="#63b8ff" d="M964.4,-175.96C978,-166.6 994.25,-155.42 1007.93,-146.01"/>
<polygon fill="#63b8ff" stroke="#63b8ff" points="1010.24,-148.66 1016.49,-140.11 1006.27,-142.9 1010.24,-148.66"/>
</g>
<!-- Node10&#45;&gt;Node7 -->
<g id="edge12" class="edge">
<title>Node10&#45;&gt;Node7</title>
<path fill="none" stroke="#63b8ff" d="M1074.37,-109.99C1100.63,-100.14 1135.41,-87.1 1160.52,-77.68"/>
<polygon fill="#63b8ff" stroke="#63b8ff" points="1161.83,-80.93 1169.96,-74.14 1159.37,-74.37 1161.83,-80.93"/>
</g>
<!-- Node11 -->
<g id="node11" class="node">
<title>Node11</title>
<g id="a_node11"><a xlink:href="core_8hpp.html" target="_top" xlink:title="Provides platform and dependency checks.">
<polygon fill="white" stroke="#666666" points="644,-74 574,-74 574,-55 644,-55 644,-74"/>
<text text-anchor="middle" x="609" y="-62" font-family="Helvetica,sans-Serif" font-size="10.00">bio/core.hpp</text>
</a>
</g>
</g>
<!-- Node10&#45;&gt;Node11 -->
<g id="edge13" class="edge">
<title>Node10&#45;&gt;Node11</title>
<path fill="none" stroke="#63b8ff" d="M985.36,-111.58C982.54,-111.01 979.74,-110.48 977,-110 861.57,-89.62 724.09,-75.71 654.39,-69.38"/>
<polygon fill="#63b8ff" stroke="#63b8ff" points="654.47,-65.88 644.2,-68.47 653.85,-72.85 654.47,-65.88"/>
</g>
<!-- Node12 -->
<g id="node12" class="node">
<title>Node12</title>
<g id="a_node12"><a target="_blank" xlink:href="https://en.cppreference.com/w/cpp/header/cinttypes.html" xlink:title=" ">
<polygon fill="white" stroke="#666666" points="532,-19 476,-19 476,0 532,0 532,-19"/>
<text text-anchor="middle" x="504" y="-7" font-family="Helvetica,sans-Serif" font-size="10.00">cinttypes</text>
</a>
</g>
</g>
<!-- Node11&#45;&gt;Node12 -->
<g id="edge14" class="edge">
<title>Node11&#45;&gt;Node12</title>
<path fill="none" stroke="#63b8ff" d="M592.13,-54.98C575.39,-46.54 549.5,-33.47 530.11,-23.68"/>
<polygon fill="#63b8ff" stroke="#63b8ff" points="531.68,-20.55 521.18,-19.17 528.53,-26.8 531.68,-20.55"/>
</g>
<!-- Node13 -->
<g id="node13" class="node">
<title>Node13</title>
<g id="a_node13"><a target="_blank" xlink:href="https://en.cppreference.com/w/cpp/header/ciso646.html" xlink:title=" ">
<polygon fill="white" stroke="#666666" points="600,-19 550,-19 550,0 600,0 600,-19"/>
<text text-anchor="middle" x="575" y="-7" font-family="Helvetica,sans-Serif" font-size="10.00">ciso646</text>
</a>
</g>
</g>
<!-- Node11&#45;&gt;Node13 -->
<g id="edge15" class="edge">
<title>Node11&#45;&gt;Node13</title>
<path fill="none" stroke="#63b8ff" d="M603.39,-54.75C598.68,-47.42 591.83,-36.73 586.03,-27.7"/>
<polygon fill="#63b8ff" stroke="#63b8ff" points="588.86,-25.62 580.51,-19.09 582.96,-29.4 588.86,-25.62"/>
</g>
<!-- Node14 -->
<g id="node14" class="node">
<title>Node14</title>
<g id="a_node14"><a target="_blank" xlink:href="https://en.cppreference.com/w/cpp/header/cstddef.html" xlink:title=" ">
<polygon fill="white" stroke="#666666" points="667.5,-19 618.5,-19 618.5,0 667.5,0 667.5,-19"/>
<text text-anchor="middle" x="643" y="-7" font-family="Helvetica,sans-Serif" font-size="10.00">cstddef</text>
</a>
</g>
</g>
<!-- Node11&#45;&gt;Node14 -->
<g id="edge16" class="edge">
<title>Node11&#45;&gt;Node14</title>
<path fill="none" stroke="#63b8ff" d="M614.61,-54.75C619.32,-47.42 626.17,-36.73 631.97,-27.7"/>
<polygon fill="#63b8ff" stroke="#63b8ff" points="635.04,-29.4 637.49,-19.09 629.14,-25.62 635.04,-29.4"/>
</g>
<!-- Node15 -->
<g id="node15" class="node">
<title>Node15</title>
<g id="a_node15"><a target="_blank" xlink:href="https://en.cppreference.com/w/cpp/header/string_view.html" xlink:title=" ">
<polygon fill="white" stroke="#666666" points="752,-19 686,-19 686,0 752,0 752,-19"/>
<text text-anchor="middle" x="719" y="-7" font-family="Helvetica,sans-Serif" font-size="10.00">string_view</text>
</a>
</g>
</g>
<!-- Node11&#45;&gt;Node15 -->
<g id="edge17" class="edge">
<title>Node11&#45;&gt;Node15</title>
<path fill="none" stroke="#63b8ff" d="M626.67,-54.98C644.29,-46.5 671.58,-33.35 691.93,-23.54"/>
<polygon fill="#63b8ff" stroke="#63b8ff" points="693.52,-26.66 701.01,-19.17 690.48,-20.36 693.52,-26.66"/>
</g>
<!-- Node16&#45;&gt;Node5 -->
<g id="edge20" class="edge">
<title>Node16&#45;&gt;Node5</title>
<path fill="none" stroke="#63b8ff" d="M870.14,-324.45C902.59,-308.54 975.56,-274.08 1040,-253 1107.22,-231.01 1129.53,-243.74 1195,-217 1198.82,-215.44 1202.71,-213.46 1206.41,-211.35"/>
<polygon fill="#63b8ff" stroke="#63b8ff" points="1208.34,-214.27 1215.02,-206.06 1204.67,-208.31 1208.34,-214.27"/>
</g>
<!-- Node17 -->
<g id="node17" class="node">
<title>Node17</title>
<g id="a_node17"><a xlink:href="alphabet_2concept_8hpp.html" target="_top" xlink:title="Core alphabet concept and free function/type trait wrappers.">
<polygon fill="white" stroke="#666666" points="819.5,-277.5 694.5,-277.5 694.5,-258.5 819.5,-258.5 819.5,-277.5"/>
<text text-anchor="middle" x="757" y="-265.5" font-family="Helvetica,sans-Serif" font-size="10.00">bio/alphabet/concept.hpp</text>
</a>
</g>
</g>
<!-- Node16&#45;&gt;Node17 -->
<g id="edge21" class="edge">
<title>Node16&#45;&gt;Node17</title>
<path fill="none" stroke="#63b8ff" d="M840.05,-324.37C824.31,-313.87 797.5,-296 778.6,-283.4"/>
<polygon fill="#63b8ff" stroke="#63b8ff" points="780.31,-280.33 770.05,-277.7 776.43,-286.16 780.31,-280.33"/>
</g>
<!-- Node17&#45;&gt;Node7 -->
<g id="edge22" class="edge">
<title>Node17&#45;&gt;Node7</title>
<path fill="none" stroke="#63b8ff" d="M819.51,-265.47C876.99,-261.83 963.16,-250.59 1030,-217 1053.88,-205 1051.3,-190.11 1074,-176 1112.35,-152.16 1137.89,-172.72 1169,-140 1183.45,-124.8 1189.2,-100.84 1191.49,-84.21"/>
<polygon fill="#63b8ff" stroke="#63b8ff" points="1194.99,-84.39 1192.58,-74.07 1188.03,-83.64 1194.99,-84.39"/>
</g>
<!-- Node17&#45;&gt;Node11 -->
<g id="edge29" class="edge">
<title>Node17&#45;&gt;Node11</title>
<path fill="none" stroke="#63b8ff" d="M745.57,-258.2C733.22,-248.52 713.13,-232.3 697,-217 678.97,-199.9 677.54,-192.54 659,-176 638.84,-158.01 622.37,-164.03 610,-140 601.14,-122.79 602.3,-100.23 604.79,-84.47"/>
<polygon fill="#63b8ff" stroke="#63b8ff" points="608.28,-84.84 606.71,-74.37 601.4,-83.53 608.28,-84.84"/>
</g>
<!-- Node18 -->
<g id="node18" class="node">
<title>Node18</title>
<g id="a_node18"><a xlink:href="tag_8hpp.html" target="_top" xlink:title="Provides the customisation tags for the alphabet concepts.">
<polygon fill="white" stroke="#666666" points="650,-211.5 546,-211.5 546,-181.5 650,-181.5 650,-211.5"/>
<text text-anchor="start" x="554" y="-199.5" font-family="Helvetica,sans-Serif" font-size="10.00">bio/alphabet/custom</text>
<text text-anchor="middle" x="598" y="-188.5" font-family="Helvetica,sans-Serif" font-size="10.00">/tag.hpp</text>
</a>
</g>
</g>
<!-- Node17&#45;&gt;Node18 -->
<g id="edge23" class="edge">
<title>Node17&#45;&gt;Node18</title>
<path fill="none" stroke="#63b8ff" d="M737.5,-258.48C713.23,-247.87 671.11,-229.46 639.49,-215.64"/>
<polygon fill="#63b8ff" stroke="#63b8ff" points="640.61,-212.31 630.04,-211.51 637.81,-218.72 640.61,-212.31"/>
</g>
<!-- Node19 -->
<g id="node19" class="node">
<title>Node19</title>
<g id="a_node19"><a xlink:href="exception_8hpp.html" target="_top" xlink:title="Exceptions thrown by entities in the alphabet module.">
<polygon fill="white" stroke="#666666" points="489.5,-206 356.5,-206 356.5,-187 489.5,-187 489.5,-206"/>
<text text-anchor="middle" x="423" y="-194" font-family="Helvetica,sans-Serif" font-size="10.00">bio/alphabet/exception.hpp</text>
</a>
</g>
</g>
<!-- Node17&#45;&gt;Node19 -->
<g id="edge24" class="edge">
<title>Node17&#45;&gt;Node19</title>
<path fill="none" stroke="#63b8ff" d="M716.05,-258.48C654.99,-245.77 540.19,-221.89 473.85,-208.08"/>
<polygon fill="#63b8ff" stroke="#63b8ff" points="474.53,-204.65 464.03,-206.04 473.11,-211.5 474.53,-204.65"/>
</g>
<!-- Node22 -->
<g id="node22" class="node">
<title>Node22</title>
<g id="a_node22"><a xlink:href="core__language_8hpp.html" target="_top" xlink:title="Provides concepts for core language types and relations that don&#39;t have concepts in C++20 (yet).">
<polygon fill="white" stroke="#666666" points="967.5,-140 854.5,-140 854.5,-110 967.5,-110 967.5,-140"/>
<text text-anchor="start" x="862.5" y="-128" font-family="Helvetica,sans-Serif" font-size="10.00">bio/meta/concept/core</text>
<text text-anchor="middle" x="911" y="-117" font-family="Helvetica,sans-Serif" font-size="10.00">_language.hpp</text>
</a>
</g>
</g>
<!-- Node17&#45;&gt;Node22 -->
<g id="edge30" class="edge">
<title>Node17&#45;&gt;Node22</title>
<path fill="none" stroke="#63b8ff" d="M767.82,-258.38C780,-248.6 800.26,-232.04 817,-217 842.58,-194.02 870.77,-166.4 889.55,-147.66"/>
<polygon fill="#63b8ff" stroke="#63b8ff" points="892.39,-149.76 896.98,-140.21 887.44,-144.82 892.39,-149.76"/>
</g>
<!-- Node23 -->
<g id="node23" class="node">
<title>Node23</title>
<g id="a_node23"><a xlink:href="type__inspection_8hpp.html" target="_top" xlink:title="Provides traits to inspect some information of a type, for example its name.">
<polygon fill="white" stroke="#666666" points="808,-211.5 706,-211.5 706,-181.5 808,-181.5 808,-211.5"/>
<text text-anchor="start" x="714" y="-199.5" font-family="Helvetica,sans-Serif" font-size="10.00">bio/meta/detail/type</text>
<text text-anchor="middle" x="757" y="-188.5" font-family="Helvetica,sans-Serif" font-size="10.00">_inspection.hpp</text>
</a>
</g>
</g>
<!-- Node17&#45;&gt;Node23 -->
<g id="edge34" class="edge">
<title>Node17&#45;&gt;Node23</title>
<path fill="none" stroke="#63b8ff" d="M757,-258.48C757,-249.36 757,-234.48 757,-221.7"/>
<polygon fill="#63b8ff" stroke="#63b8ff" points="760.5,-221.64 757,-211.64 753.5,-221.64 760.5,-221.64"/>
</g>
<!-- Node27 -->
<g id="node27" class="node">
<title>Node27</title>
<g id="a_node27"><a xlink:href="priority__tag_8hpp.html" target="_top" xlink:title="provides bio::meta::priority_tag.">
<polygon fill="white" stroke="#666666" points="329.5,-140 226.5,-140 226.5,-110 329.5,-110 329.5,-140"/>
<text text-anchor="start" x="234.5" y="-128" font-family="Helvetica,sans-Serif" font-size="10.00">bio/meta/tag/priority</text>
<text text-anchor="middle" x="278" y="-117" font-family="Helvetica,sans-Serif" font-size="10.00">_tag.hpp</text>
</a>
</g>
</g>
<!-- Node17&#45;&gt;Node27 -->
<g id="edge40" class="edge">
<title>Node17&#45;&gt;Node27</title>
<path fill="none" stroke="#63b8ff" d="M694.34,-259.99C581.36,-247.27 354.46,-221.29 347,-217 332.75,-208.81 308.01,-173.05 292.35,-148.87"/>
<polygon fill="#63b8ff" stroke="#63b8ff" points="295.17,-146.79 286.83,-140.26 289.28,-150.56 295.17,-146.79"/>
</g>
<!-- Node28 -->
<g id="node28" class="node">
<title>Node28</title>
<g id="a_node28"><a xlink:href="basic_8hpp.html" target="_top" xlink:title="Provides various type traits on generic types.">
<polygon fill="white" stroke="#666666" points="1185.5,-211.5 1082.5,-211.5 1082.5,-181.5 1185.5,-181.5 1185.5,-211.5"/>
<text text-anchor="start" x="1090.5" y="-199.5" font-family="Helvetica,sans-Serif" font-size="10.00">bio/meta/type_traits</text>
<text text-anchor="middle" x="1134" y="-188.5" font-family="Helvetica,sans-Serif" font-size="10.00">/basic.hpp</text>
</a>
</g>
</g>
<!-- Node17&#45;&gt;Node28 -->
<g id="edge42" class="edge">
<title>Node17&#45;&gt;Node28</title>
<path fill="none" stroke="#63b8ff" d="M819.7,-259.32C882.83,-251.02 982.81,-236.35 1068,-217 1071.65,-216.17 1075.4,-215.25 1079.16,-214.28"/>
<polygon fill="#63b8ff" stroke="#63b8ff" points="1080.37,-217.58 1089.11,-211.6 1078.55,-210.82 1080.37,-217.58"/>
</g>
<!-- Node19&#45;&gt;Node3 -->
<g id="edge25" class="edge">
<title>Node19&#45;&gt;Node3</title>
<path fill="none" stroke="#63b8ff" d="M417.06,-186.95C404.55,-169.62 373.67,-130.27 338,-110 293.95,-84.97 235.93,-73.87 198.3,-69.04"/>
<polygon fill="#63b8ff" stroke="#63b8ff" points="198.6,-65.56 188.26,-67.84 197.77,-72.51 198.6,-65.56"/>
</g>
<!-- Node19&#45;&gt;Node11 -->
<g id="edge28" class="edge">
<title>Node19&#45;&gt;Node11</title>
<path fill="none" stroke="#63b8ff" d="M418.65,-186.86C410.87,-170.06 396.98,-132.62 415,-110 433.23,-87.12 512.22,-75.04 563.62,-69.48"/>
<polygon fill="#63b8ff" stroke="#63b8ff" points="564.23,-72.93 573.82,-68.42 563.51,-65.97 564.23,-72.93"/>
</g>
<!-- Node20 -->
<g id="node20" class="node">
<title>Node20</title>
<g id="a_node20"><a target="_blank" xlink:href="https://en.cppreference.com/w/cpp/header/stdexcept.html" xlink:title=" ">
<polygon fill="white" stroke="#666666" points="483.5,-134.5 424.5,-134.5 424.5,-115.5 483.5,-115.5 483.5,-134.5"/>
<text text-anchor="middle" x="454" y="-122.5" font-family="Helvetica,sans-Serif" font-size="10.00">stdexcept</text>
</a>
</g>
</g>
<!-- Node19&#45;&gt;Node20 -->
<g id="edge26" class="edge">
<title>Node19&#45;&gt;Node20</title>
<path fill="none" stroke="#63b8ff" d="M426.8,-186.98C431.54,-176.35 439.78,-157.89 445.94,-144.06"/>
<polygon fill="#63b8ff" stroke="#63b8ff" points="449.29,-145.15 450.17,-134.59 442.9,-142.3 449.29,-145.15"/>
</g>
<!-- Node21 -->
<g id="node21" class="node">
<title>Node21</title>
<g id="a_node21"><a target="_blank" xlink:href="https://en.cppreference.com/w/cpp/header/string.html" xlink:title=" ">
<polygon fill="white" stroke="#666666" points="542.5,-134.5 501.5,-134.5 501.5,-115.5 542.5,-115.5 542.5,-134.5"/>
<text text-anchor="middle" x="522" y="-122.5" font-family="Helvetica,sans-Serif" font-size="10.00">string</text>
</a>
</g>
</g>
<!-- Node19&#45;&gt;Node21 -->
<g id="edge27" class="edge">
<title>Node19&#45;&gt;Node21</title>
<path fill="none" stroke="#63b8ff" d="M435.14,-186.98C451.62,-175.41 481.3,-154.57 501.32,-140.52"/>
<polygon fill="#63b8ff" stroke="#63b8ff" points="503.59,-143.2 509.76,-134.59 499.57,-137.47 503.59,-143.2"/>
</g>
<!-- Node22&#45;&gt;Node3 -->
<g id="edge31" class="edge">
<title>Node22&#45;&gt;Node3</title>
<path fill="none" stroke="#63b8ff" d="M854.21,-111.41C851.1,-110.89 848.02,-110.42 845,-110 600.17,-76.26 302.49,-67.98 198.25,-66.05"/>
<polygon fill="#63b8ff" stroke="#63b8ff" points="198.26,-62.55 188.2,-65.88 198.14,-69.55 198.26,-62.55"/>
</g>
<!-- Node22&#45;&gt;Node7 -->
<g id="edge32" class="edge">
<title>Node22&#45;&gt;Node7</title>
<path fill="none" stroke="#63b8ff" d="M967.52,-111.99C970.73,-111.31 973.9,-110.65 977,-110 1037.89,-97.27 1108.5,-82.77 1151.96,-73.88"/>
<polygon fill="#63b8ff" stroke="#63b8ff" points="1152.77,-77.29 1161.87,-71.85 1151.37,-70.43 1152.77,-77.29"/>
</g>
<!-- Node22&#45;&gt;Node11 -->
<g id="edge33" class="edge">
<title>Node22&#45;&gt;Node11</title>
<path fill="none" stroke="#63b8ff" d="M854.49,-111.93C851.28,-111.27 848.1,-110.62 845,-110 778.73,-96.72 701.76,-82.42 654.21,-73.71"/>
<polygon fill="#63b8ff" stroke="#63b8ff" points="654.7,-70.24 644.23,-71.89 653.44,-77.13 654.7,-70.24"/>
</g>
<!-- Node23&#45;&gt;Node11 -->
<g id="edge39" class="edge">
<title>Node23&#45;&gt;Node11</title>
<path fill="none" stroke="#63b8ff" d="M713.42,-181.41C680.73,-170.01 639.68,-153.67 628,-140 614.75,-124.5 610.55,-100.97 609.32,-84.52"/>
<polygon fill="#63b8ff" stroke="#63b8ff" points="612.81,-84.27 608.86,-74.44 605.81,-84.59 612.81,-84.27"/>
</g>
<!-- Node23&#45;&gt;Node21 -->
<g id="edge37" class="edge">
<title>Node23&#45;&gt;Node21</title>
<path fill="none" stroke="#63b8ff" d="M709.44,-181.44C662.56,-167.57 592.32,-146.8 552.47,-135.01"/>
<polygon fill="#63b8ff" stroke="#63b8ff" points="553.37,-131.63 542.79,-132.15 551.39,-138.34 553.37,-131.63"/>
</g>
<!-- Node24 -->
<g id="node24" class="node">
<title>Node24</title>
<g id="a_node24"><a target="_blank" xlink:href="https://en.cppreference.com/w/cpp/header/functional.html" xlink:title=" ">
<polygon fill="white" stroke="#666666" points="765.5,-134.5 706.5,-134.5 706.5,-115.5 765.5,-115.5 765.5,-134.5"/>
<text text-anchor="middle" x="736" y="-122.5" font-family="Helvetica,sans-Serif" font-size="10.00">functional</text>
</a>
</g>
</g>
<!-- Node23&#45;&gt;Node24 -->
<g id="edge35" class="edge">
<title>Node23&#45;&gt;Node24</title>
<path fill="none" stroke="#63b8ff" d="M752.75,-181.44C749.55,-170.86 745.14,-156.25 741.65,-144.69"/>
<polygon fill="#63b8ff" stroke="#63b8ff" points="744.89,-143.33 738.65,-134.77 738.19,-145.35 744.89,-143.33"/>
</g>
<!-- Node25 -->
<g id="node25" class="node">
<title>Node25</title>
<g id="a_node25"><a target="_blank" xlink:href="https://en.cppreference.com/w/cpp/header/memory.html" xlink:title=" ">
<polygon fill="white" stroke="#666666" points="836,-134.5 784,-134.5 784,-115.5 836,-115.5 836,-134.5"/>
<text text-anchor="middle" x="810" y="-122.5" font-family="Helvetica,sans-Serif" font-size="10.00">memory</text>
</a>
</g>
</g>
<!-- Node23&#45;&gt;Node25 -->
<g id="edge36" class="edge">
<title>Node23&#45;&gt;Node25</title>
<path fill="none" stroke="#63b8ff" d="M767.73,-181.44C776.21,-170.31 788.09,-154.74 797.09,-142.93"/>
<polygon fill="#63b8ff" stroke="#63b8ff" points="800.03,-144.84 803.31,-134.77 794.47,-140.6 800.03,-144.84"/>
</g>
<!-- Node26 -->
<g id="node26" class="node">
<title>Node26</title>
<g id="a_node26"><a target="_blank" xlink:href="https://en.cppreference.com/w/cpp/header/typeinfo.html" xlink:title=" ">
<polygon fill="white" stroke="#666666" points="688.5,-134.5 637.5,-134.5 637.5,-115.5 688.5,-115.5 688.5,-134.5"/>
<text text-anchor="middle" x="663" y="-122.5" font-family="Helvetica,sans-Serif" font-size="10.00">typeinfo</text>
</a>
</g>
</g>
<!-- Node23&#45;&gt;Node26 -->
<g id="edge38" class="edge">
<title>Node23&#45;&gt;Node26</title>
<path fill="none" stroke="#63b8ff" d="M737.98,-181.44C721.95,-169.59 699.11,-152.7 682.85,-140.68"/>
<polygon fill="#63b8ff" stroke="#63b8ff" points="684.71,-137.7 674.59,-134.57 680.55,-143.33 684.71,-137.7"/>
</g>
<!-- Node27&#45;&gt;Node11 -->
<g id="edge41" class="edge">
<title>Node27&#45;&gt;Node11</title>
<path fill="none" stroke="#63b8ff" d="M329.72,-114.86C394,-103.5 502.67,-84.29 563.78,-73.49"/>
<polygon fill="#63b8ff" stroke="#63b8ff" points="564.65,-76.89 573.89,-71.71 563.43,-70 564.65,-76.89"/>
</g>
<!-- Node28&#45;&gt;Node7 -->
<g id="edge44" class="edge">
<title>Node28&#45;&gt;Node7</title>
<path fill="none" stroke="#63b8ff" d="M1163.71,-181.44C1179.7,-172.13 1197.95,-158.26 1207,-140 1215.92,-122.01 1209.24,-99 1202.38,-83.34"/>
<polygon fill="#63b8ff" stroke="#63b8ff" points="1205.49,-81.74 1198.01,-74.25 1199.18,-84.78 1205.49,-81.74"/>
</g>
<!-- Node28&#45;&gt;Node22 -->
<g id="edge45" class="edge">
<title>Node28&#45;&gt;Node22</title>
<path fill="none" stroke="#63b8ff" d="M1088.87,-181.44C1053.36,-170.37 1003.72,-154.9 965.9,-143.11"/>
<polygon fill="#63b8ff" stroke="#63b8ff" points="966.65,-139.68 956.06,-140.04 964.57,-146.36 966.65,-139.68"/>
</g>
<!-- Node29 -->
<g id="node29" class="node">
<title>Node29</title>
<g id="a_node29"><a target="_blank" xlink:href="https://en.cppreference.com/w/cpp/header/tuple.html" xlink:title=" ">
<polygon fill="white" stroke="#666666" points="1297,-134.5 1259,-134.5 1259,-115.5 1297,-115.5 1297,-134.5"/>
<text text-anchor="middle" x="1278" y="-122.5" font-family="Helvetica,sans-Serif" font-size="10.00">tuple</text>
</a>
</g>
</g>
<!-- Node28&#45;&gt;Node29 -->
<g id="edge43" class="edge">
<title>Node28&#45;&gt;Node29</title>
<path fill="none" stroke="#63b8ff" d="M1163.14,-181.44C1188.82,-169.04 1225.95,-151.12 1250.98,-139.04"/>
<polygon fill="#63b8ff" stroke="#63b8ff" points="1252.76,-142.07 1260.25,-134.57 1249.72,-135.76 1252.76,-142.07"/>
</g>
<!-- Node30&#45;&gt;Node3 -->
<g id="edge50" class="edge">
<title>Node30&#45;&gt;Node3</title>
<path fill="none" stroke="#63b8ff" d="M518.99,-254.82C515.61,-254.17 512.26,-253.55 509,-253 438.88,-241.15 243.48,-265 191,-217 153.61,-182.8 154.5,-116.68 157.55,-84.29"/>
<polygon fill="#63b8ff" stroke="#63b8ff" points="161.03,-84.68 158.66,-74.35 154.07,-83.9 161.03,-84.68"/>
</g>
<!-- Node30&#45;&gt;Node4 -->
<g id="edge48" class="edge">
<title>Node30&#45;&gt;Node4</title>
<path fill="none" stroke="#63b8ff" d="M623.03,-260.01C642.73,-257.54 665.37,-254.9 686,-253 940.09,-229.57 1004.54,-235.97 1259,-217 1327.21,-211.92 1406.89,-204.75 1451.08,-200.68"/>
<polygon fill="#63b8ff" stroke="#63b8ff" points="1451.63,-204.14 1461.26,-199.73 1450.98,-197.17 1451.63,-204.14"/>
</g>
<!-- Node30&#45;&gt;Node7 -->
<g id="edge49" class="edge">
<title>Node30&#45;&gt;Node7</title>
<path fill="none" stroke="#63b8ff" d="M623.09,-260.59C642.79,-258.19 665.43,-255.44 686,-253 755.09,-244.8 936.08,-250.61 997,-217 1017.48,-205.7 1010.91,-189.52 1030,-176 1069.23,-148.22 1092.65,-167.62 1132,-140 1153.73,-124.75 1171.98,-99.74 1182.7,-82.96"/>
<polygon fill="#63b8ff" stroke="#63b8ff" points="1185.85,-84.51 1188.11,-74.16 1179.89,-80.85 1185.85,-84.51"/>
</g>
<!-- Node30&#45;&gt;Node11 -->
<g id="edge52" class="edge">
<title>Node30&#45;&gt;Node11</title>
<path fill="none" stroke="#63b8ff" d="M518.98,-254.86C515.61,-254.19 512.26,-253.57 509,-253 444.59,-241.79 260.31,-265.98 217,-217 185.5,-181.38 185.33,-145.47 217,-110 239.75,-84.52 465.06,-71.73 563.44,-67.32"/>
<polygon fill="#63b8ff" stroke="#63b8ff" points="563.84,-70.81 573.68,-66.88 563.53,-63.82 563.84,-70.81"/>
</g>
<!-- Node30&#45;&gt;Node21 -->
<g id="edge51" class="edge">
<title>Node30&#45;&gt;Node21</title>
<path fill="none" stroke="#63b8ff" d="M558.75,-252.66C551.29,-243.15 542.22,-230.06 537,-217 527.5,-193.24 524.02,-163.68 522.74,-144.82"/>
<polygon fill="#63b8ff" stroke="#63b8ff" points="526.22,-144.41 522.19,-134.61 519.23,-144.78 526.22,-144.41"/>
</g>
<!-- Node31 -->
<g id="node31" class="node">
<title>Node31</title>
<g id="a_node31"><a target="_blank" xlink:href="https://en.cppreference.com/w/cpp/header/initializer_list.html" xlink:title=" ">
<polygon fill="white" stroke="#666666" points="299.5,-206 226.5,-206 226.5,-187 299.5,-187 299.5,-206"/>
<text text-anchor="middle" x="263" y="-194" font-family="Helvetica,sans-Serif" font-size="10.00">initializer_list</text>
</a>
</g>
</g>
<!-- Node30&#45;&gt;Node31 -->
<g id="edge47" class="edge">
<title>Node30&#45;&gt;Node31</title>
<path fill="none" stroke="#63b8ff" d="M518.94,-255.09C515.58,-254.37 512.24,-253.67 509,-253 422.67,-235.29 398.85,-240.84 314,-217 307.01,-215.04 299.64,-212.5 292.74,-209.91"/>
<polygon fill="#63b8ff" stroke="#63b8ff" points="293.65,-206.51 283.06,-206.15 291.11,-213.04 293.65,-206.51"/>
</g>
<!-- Node32&#45;&gt;Node4 -->
<g id="edge55" class="edge">
<title>Node32&#45;&gt;Node4</title>
<path fill="none" stroke="#63b8ff" d="M1453.36,-318.81C1469.66,-310.95 1486.69,-299.38 1496,-283 1507.87,-262.12 1500.53,-233.81 1493.41,-215.6"/>
<polygon fill="#63b8ff" stroke="#63b8ff" points="1496.53,-214 1489.38,-206.18 1490.09,-216.75 1496.53,-214"/>
</g>
<!-- Node32&#45;&gt;Node7 -->
<g id="edge56" class="edge">
<title>Node32&#45;&gt;Node7</title>
<path fill="none" stroke="#63b8ff" d="M1464.5,-318.89C1482.82,-311.29 1501.62,-299.87 1513,-283 1539.62,-243.53 1544.35,-215.65 1518,-176 1455.37,-81.73 1306.81,-66.52 1234.28,-64.94"/>
<polygon fill="#63b8ff" stroke="#63b8ff" points="1234.19,-61.44 1224.14,-64.8 1234.1,-68.44 1234.19,-61.44"/>
</g>
<!-- Node33 -->
<g id="node33" class="node">
<title>Node33</title>
<g id="a_node33"><a target="_blank" xlink:href="https://en.cppreference.com/w/cpp/header/cassert.html" xlink:title=" ">
<polygon fill="white" stroke="#666666" points="1486.5,-277.5 1437.5,-277.5 1437.5,-258.5 1486.5,-258.5 1486.5,-277.5"/>
<text text-anchor="middle" x="1462" y="-265.5" font-family="Helvetica,sans-Serif" font-size="10.00">cassert</text>
</a>
</g>
</g>
<!-- Node32&#45;&gt;Node33 -->
<g id="edge54" class="edge">
<title>Node32&#45;&gt;Node33</title>
<path fill="none" stroke="#63b8ff" d="M1423.1,-318.8C1430.66,-309.11 1440.72,-296.24 1448.71,-286.01"/>
<polygon fill="#63b8ff" stroke="#63b8ff" points="1451.69,-287.88 1455.09,-277.84 1446.18,-283.57 1451.69,-287.88"/>
</g>
<!-- Node34 -->
<g id="node34" class="node">
<title>Node34</title>
<g id="a_node34"><a xlink:href="empty__type_8hpp.html" target="_top" xlink:title="Provides bio::meta::detail::empty_type.">
<polygon fill="white" stroke="#666666" points="1419,-283 1309,-283 1309,-253 1419,-253 1419,-283"/>
<text text-anchor="start" x="1317" y="-271" font-family="Helvetica,sans-Serif" font-size="10.00">bio/meta/detail/empty</text>
<text text-anchor="middle" x="1364" y="-260" font-family="Helvetica,sans-Serif" font-size="10.00">_type.hpp</text>
</a>
</g>
</g>
<!-- Node32&#45;&gt;Node34 -->
<g id="edge57" class="edge">
<title>Node32&#45;&gt;Node34</title>
<path fill="none" stroke="#63b8ff" d="M1401.35,-318.8C1395.32,-310.76 1387.64,-300.53 1380.82,-291.43"/>
<polygon fill="#63b8ff" stroke="#63b8ff" points="1383.42,-289.06 1374.62,-283.16 1377.82,-293.26 1383.42,-289.06"/>
</g>
<!-- Node32&#45;&gt;Node35 -->
<g id="edge59" class="edge">
<title>Node32&#45;&gt;Node35</title>
<path fill="none" stroke="#63b8ff" d="M1371.18,-318.95C1337.99,-307.53 1291.68,-291.6 1260.36,-280.82"/>
<polygon fill="#63b8ff" stroke="#63b8ff" points="1261.35,-277.46 1250.75,-277.52 1259.07,-284.08 1261.35,-277.46"/>
</g>
<!-- Node34&#45;&gt;Node11 -->
<g id="edge58" class="edge">
<title>Node34&#45;&gt;Node11</title>
<path fill="none" stroke="#63b8ff" d="M1365.61,-252.93C1368.31,-221.62 1369.81,-146.11 1327,-110 1275.66,-66.7 803.74,-64.75 654.22,-65.23"/>
<polygon fill="#63b8ff" stroke="#63b8ff" points="654.01,-61.73 644.02,-65.27 654.03,-68.73 654.01,-61.73"/>
</g>
<!-- Node35&#45;&gt;Node4 -->
<g id="edge60" class="edge">
<title>Node35&#45;&gt;Node4</title>
<path fill="none" stroke="#63b8ff" d="M1258.81,-258.46C1296.54,-248.61 1360.3,-231.85 1415,-217 1426.96,-213.75 1440.05,-210.13 1451.64,-206.89"/>
<polygon fill="#63b8ff" stroke="#63b8ff" points="1452.68,-210.23 1461.37,-204.17 1450.79,-203.49 1452.68,-210.23"/>
</g>
<!-- Node35&#45;&gt;Node5 -->
<g id="edge61" class="edge">
<title>Node35&#45;&gt;Node5</title>
<path fill="none" stroke="#63b8ff" d="M1226.12,-258.48C1226.27,-248.06 1226.53,-230.11 1226.73,-216.38"/>
<polygon fill="#63b8ff" stroke="#63b8ff" points="1230.23,-216.14 1226.88,-206.09 1223.23,-216.04 1230.23,-216.14"/>
</g>
<!-- Node35&#45;&gt;Node7 -->
<g id="edge62" class="edge">
<title>Node35&#45;&gt;Node7</title>
<path fill="none" stroke="#63b8ff" d="M1274.15,-258.44C1297.95,-251.52 1324.6,-239.11 1339,-217 1364.95,-177.15 1367.3,-148.22 1339,-110 1315.13,-77.77 1268.46,-68.1 1234.28,-65.57"/>
<polygon fill="#63b8ff" stroke="#63b8ff" points="1234.3,-62.07 1224.12,-65 1233.91,-69.06 1234.3,-62.07"/>
</g>
<!-- Node35&#45;&gt;Node11 -->
<g id="edge63" class="edge">
<title>Node35&#45;&gt;Node11</title>
<path fill="none" stroke="#63b8ff" d="M1238.68,-258.5C1251.11,-249.54 1269.8,-234.34 1281,-217 1307.5,-175.98 1339.41,-145.62 1306,-110 1283.67,-86.2 805.77,-70.95 654.49,-66.71"/>
<polygon fill="#63b8ff" stroke="#63b8ff" points="654.27,-63.2 644.17,-66.42 654.07,-70.2 654.27,-63.2"/>
</g>
<!-- Node35&#45;&gt;Node28 -->
<g id="edge64" class="edge">
<title>Node35&#45;&gt;Node28</title>
<path fill="none" stroke="#63b8ff" d="M1214.72,-258.48C1201.44,-248.45 1178.94,-231.45 1161.06,-217.94"/>
<polygon fill="#63b8ff" stroke="#63b8ff" points="1162.8,-214.87 1152.71,-211.64 1158.58,-220.46 1162.8,-214.87"/>
</g>
<!-- Node36&#45;&gt;Node5 -->
<g id="edge67" class="edge">
<title>Node36&#45;&gt;Node5</title>
<path fill="none" stroke="#63b8ff" d="M1127,-324.29C1118.79,-308.72 1104.7,-275.59 1119,-253 1138.99,-221.42 1162.11,-234.75 1195,-217 1198.19,-215.28 1201.5,-213.38 1204.74,-211.47"/>
<polygon fill="#63b8ff" stroke="#63b8ff" points="1206.75,-214.35 1213.48,-206.17 1203.12,-208.37 1206.75,-214.35"/>
</g>
<!-- Node36&#45;&gt;Node28 -->
<g id="edge69" class="edge">
<title>Node36&#45;&gt;Node28</title>
<path fill="none" stroke="#63b8ff" d="M1118.16,-324.24C1105.79,-315.5 1088.49,-300.83 1081,-283 1075.84,-270.71 1076.04,-265.38 1081,-253 1086.37,-239.6 1096.69,-227.6 1106.81,-218.21"/>
<polygon fill="#63b8ff" stroke="#63b8ff" points="1109.19,-220.78 1114.42,-211.57 1104.59,-215.51 1109.19,-220.78"/>
</g>
<!-- Node36&#45;&gt;Node29 -->
<g id="edge68" class="edge">
<title>Node36&#45;&gt;Node29</title>
<path fill="none" stroke="#63b8ff" d="M1131.76,-324.28C1131.79,-308.09 1134.21,-273.17 1153,-253 1186.92,-216.6 1226.02,-254.25 1259,-217 1276.61,-197.11 1279.43,-165.17 1279.2,-144.91"/>
<polygon fill="#63b8ff" stroke="#63b8ff" points="1282.69,-144.61 1278.81,-134.75 1275.69,-144.88 1282.69,-144.61"/>
</g>
<!-- Node36&#45;&gt;Node35 -->
<g id="edge70" class="edge">
<title>Node36&#45;&gt;Node35</title>
<path fill="none" stroke="#63b8ff" d="M1144.68,-324.37C1160.09,-313.87 1186.35,-296 1204.85,-283.4"/>
<polygon fill="#63b8ff" stroke="#63b8ff" points="1206.93,-286.22 1213.22,-277.7 1202.99,-280.43 1206.93,-286.22"/>
</g>
</g>
</svg>
        <g id="navigator" transform="translate(0 0)" fill="#404254">
                <rect fill="#f2f5e9" fill-opacity="0.5" stroke="#606060" stroke-width=".5" x="0" y="0" width="60" height="60"/>
                <use id="zoomplus" xlink:href="#zoomPlus" x="17" y="9" onmousedown="handleZoom(evt,'in')"/>
                <use id="zoomminus" xlink:href="#zoomMin" x="42" y="9" onmousedown="handleZoom(evt,'out')"/>
                <use id="reset" xlink:href="#resetDef" x="30" y="36" onmousedown="handleReset()"/>
                <g id="arrowUp" xlink:href="#dirArrow" transform="translate(30 24)" onmousedown="handlePan(0,-1)">
                  <use xlink:href="#rim" fill="#404040">
                        <set attributeName="fill" to="#808080" begin="arrowUp.mouseover" end="arrowUp.mouseout"/>
                  </use>
                  <path fill="none" stroke="white" stroke-width="1.5" d="M0,-3.0v7 M-2.5,-0.5L0,-3.0L2.5,-0.5"/>
                </g>
                <g id="arrowRight" xlink:href="#dirArrow" transform="rotate(90) translate(36 -43)" onmousedown="handlePan(1,0)">
                  <use xlink:href="#rim" fill="#404040">
                        <set attributeName="fill" to="#808080" begin="arrowRight.mouseover" end="arrowRight.mouseout"/>
                  </use>
                  <path fill="none" stroke="white" stroke-width="1.5" d="M0,-3.0v7 M-2.5,-0.5L0,-3.0L2.5,-0.5"/>
                </g>
                <g id="arrowDown" xlink:href="#dirArrow" transform="rotate(180) translate(-30 -48)" onmousedown="handlePan(0,1)">
                  <use xlink:href="#rim" fill="#404040">
                        <set attributeName="fill" to="#808080" begin="arrowDown.mouseover" end="arrowDown.mouseout"/>
                  </use>
                  <path fill="none" stroke="white" stroke-width="1.5" d="M0,-3.0v7 M-2.5,-0.5L0,-3.0L2.5,-0.5"/>
                </g>
                <g id="arrowLeft" xlink:href="#dirArrow" transform="rotate(270) translate(-36 17)" onmousedown="handlePan(-1,0)">
                  <use xlink:href="#rim" fill="#404040">
                        <set attributeName="fill" to="#808080" begin="arrowLeft.mouseover" end="arrowLeft.mouseout"/>
                  </use>
                  <path fill="none" stroke="white" stroke-width="1.5" d="M0,-3.0v7 M-2.5,-0.5L0,-3.0L2.5,-0.5"/>
                </g>
        </g>
        <svg viewBox="0 0 15 15" width="100%" height="30px" preserveAspectRatio="xMaxYMin meet">
         <g id="arrow_out" transform="scale(0.3 0.3)">
          <a xlink:href="make__convertible_8hpp__incl_org.svg" target="_base">
           <rect id="button" ry="5" rx="5" y="6" x="6" height="38" width="38"
                fill="#f2f5e9" fill-opacity="0.5" stroke="#606060" stroke-width="1.0"/>
           <path id="arrow"
             d="M 11.500037,31.436501 C 11.940474,20.09759 22.043105,11.32322 32.158766,21.979434 L 37.068811,17.246167 C 37.068811,17.246167 37.088388,32 37.088388,32 L 22.160133,31.978069 C 22.160133,31.978069 26.997745,27.140456 26.997745,27.140456 C 18.528582,18.264221 13.291696,25.230495 11.500037,31.436501 z"
             style="fill:#404040;"/>
          </a>
         </g>
        </svg>
</svg>
