<?xml version="1.0" encoding="UTF-8" standalone="no"?>
<!DOCTYPE svg PUBLIC "-//W3C//DTD SVG 1.1//EN"
 "http://www.w3.org/Graphics/SVG/1.1/DTD/svg11.dtd">
<!-- Generated by graphviz version 2.42.2 ()
 -->
<!-- Title: bio/alphabet/mask/mask.hpp Pages: 1 -->
<svg width="207pt" height="196pt"
 viewBox="0.00 0.00 207.00 196.00" xmlns="http://www.w3.org/2000/svg" xmlns:xlink="http://www.w3.org/1999/xlink">
<g id="graph0" class="graph" transform="scale(1 1) rotate(0) translate(4 192)">
<title>bio/alphabet/mask/mask.hpp</title>
<polygon fill="white" stroke="transparent" points="-4,4 -4,-192 203,-192 203,4 -4,4"/>
<!-- Node1 -->
<g id="node1" class="node">
<title>Node1</title>
<g id="a_node1"><a xlink:title="Create a mask composite which can be applied with another alphabet.">
<polygon fill="#bfbfbf" stroke="black" points="0,-168.5 0,-187.5 142,-187.5 142,-168.5 0,-168.5"/>
<text text-anchor="middle" x="71" y="-175.5" font-family="Helvetica,sans-Serif" font-size="10.00">bio/alphabet/mask/mask.hpp</text>
</a>
</g>
</g>
<!-- Node2 -->
<g id="node2" class="node">
<title>Node2</title>
<g id="a_node2"><a xlink:href="alphabet_2mask_2all_8hpp.html" target="_top" xlink:title="Meta&#45;header for the mask submodule; includes all headers from alphabet/mask/.">
<polygon fill="white" stroke="black" points="7,-56.5 7,-75.5 135,-75.5 135,-56.5 7,-56.5"/>
<text text-anchor="middle" x="71" y="-63.5" font-family="Helvetica,sans-Serif" font-size="10.00">bio/alphabet/mask/all.hpp</text>
</a>
</g>
</g>
<!-- Node1&#45;&gt;Node2 -->
<g id="edge1" class="edge">
<title>Node1&#45;&gt;Node2</title>
<path fill="none" stroke="midnightblue" d="M55.29,-160.88C48.57,-152.88 41.49,-142.66 38,-132 31.07,-110.83 49.27,-88.05 61.32,-75.87"/>
<polygon fill="midnightblue" stroke="midnightblue" points="52.7,-163.24 61.98,-168.34 57.9,-158.56 52.7,-163.24"/>
</g>
<!-- Node4 -->
<g id="node4" class="node">
<title>Node4</title>
<g id="a_node4"><a xlink:href="masked_8hpp.html" target="_top" xlink:title="Extends a given alphabet with the mask alphabet.">
<polygon fill="white" stroke="black" points="47,-112.5 47,-131.5 199,-131.5 199,-112.5 47,-112.5"/>
<text text-anchor="middle" x="123" y="-119.5" font-family="Helvetica,sans-Serif" font-size="10.00">bio/alphabet/mask/masked.hpp</text>
</a>
</g>
</g>
<!-- Node1&#45;&gt;Node4 -->
<g id="edge3" class="edge">
<title>Node1&#45;&gt;Node4</title>
<path fill="none" stroke="midnightblue" d="M86.68,-160.72C95.84,-151.2 107.05,-139.56 114.57,-131.75"/>
<polygon fill="midnightblue" stroke="midnightblue" points="84,-158.45 79.59,-168.08 89.04,-163.31 84,-158.45"/>
</g>
<!-- Node3 -->
<g id="node3" class="node">
<title>Node3</title>
<g id="a_node3"><a xlink:href="alphabet_2all_8hpp.html" target="_top" xlink:title="Meta&#45;header for the alphabet module.">
<polygon fill="white" stroke="black" points="20.5,-0.5 20.5,-19.5 121.5,-19.5 121.5,-0.5 20.5,-0.5"/>
<text text-anchor="middle" x="71" y="-7.5" font-family="Helvetica,sans-Serif" font-size="10.00">bio/alphabet/all.hpp</text>
</a>
</g>
</g>
<!-- Node2&#45;&gt;Node3 -->
<g id="edge2" class="edge">
<title>Node2&#45;&gt;Node3</title>
<path fill="none" stroke="midnightblue" d="M71,-45.8C71,-36.91 71,-26.78 71,-19.75"/>
<polygon fill="midnightblue" stroke="midnightblue" points="67.5,-46.08 71,-56.08 74.5,-46.08 67.5,-46.08"/>
</g>
<!-- Node4&#45;&gt;Node2 -->
<g id="edge4" class="edge">
<title>Node4&#45;&gt;Node2</title>
<path fill="none" stroke="midnightblue" d="M107.32,-104.72C98.16,-95.2 86.95,-83.56 79.43,-75.75"/>
<polygon fill="midnightblue" stroke="midnightblue" points="104.96,-107.31 114.41,-112.08 110,-102.45 104.96,-107.31"/>
</g>
</g>
</svg>
