<?xml version="1.0" encoding="UTF-8" standalone="no"?>
<!DOCTYPE svg PUBLIC "-//W3C//DTD SVG 1.1//EN"
 "http://www.w3.org/Graphics/SVG/1.1/DTD/svg11.dtd">
<!-- Generated by graphviz version 2.43.0 (0)
 -->
<!-- Title: bio/alphabet/mask/mask.hpp Pages: 1 -->
<!--zoomable 379 -->
<svg id="main" version="1.1" xmlns="http://www.w3.org/2000/svg" xmlns:xlink="http://www.w3.org/1999/xlink" xml:space="preserve" onload="init(evt)">
<style type="text/css"><![CDATA[
.edge:hover path { stroke: red; }
.edge:hover polygon { stroke: red; fill: red; }
]]></style>
<script type="text/javascript"><![CDATA[
var edges = document.getElementsByTagName('g');
if (edges && edges.length) {
  for (var i=0;i<edges.length;i++) {
    if (edges[i].id.substr(0,4)=='edge') {
      edges[i].setAttribute('class','edge');
    }
  }
}
]]></script>
        <defs>
                <circle id="rim" cx="0" cy="0" r="7"/>
                <circle id="rim2" cx="0" cy="0" r="3.5"/>
                <g id="zoomPlus">
                        <use xlink:href="#rim" fill="#404040">
                                <set attributeName="fill" to="#808080" begin="zoomplus.mouseover" end="zoomplus.mouseout"/>
                        </use>
                        <path d="M-4,0h8M0,-4v8" fill="none" stroke="white" stroke-width="1.5" pointer-events="none"/>
                </g>
                <g id="zoomMin">
                        <use xlink:href="#rim" fill="#404040">
                                <set attributeName="fill" to="#808080" begin="zoomminus.mouseover" end="zoomminus.mouseout"/>
                        </use>
                        <path d="M-4,0h8" fill="none" stroke="white" stroke-width="1.5" pointer-events="none"/>
                </g>
                <g id="dirArrow">
                        <path fill="none" stroke="white" stroke-width="1.5" d="M0,-3.0v7 M-2.5,-0.5L0,-3.0L2.5,-0.5"/>
                </g>
               <g id="resetDef">
                       <use xlink:href="#rim2" fill="#404040">
                               <set attributeName="fill" to="#808080" begin="reset.mouseover" end="reset.mouseout"/>
                       </use>
               </g>
        </defs>

<script type="text/javascript">
var viewWidth = 805;
var viewHeight = 379;
var sectionId = 'dynsection-0';
</script>
<script xlink:href="svgpan.js"/>
<svg id="graph" class="graph">
<g id="viewport">
<title>bio/alphabet/mask/mask.hpp</title>
<!-- Node1 -->
<g id="node1" class="node">
<title>Node1</title>
<g id="a_node1"><a xlink:title="Create a mask composite which can be applied with another alphabet.">
<polygon fill="#999999" stroke="#666666" points="434.5,-371 292.5,-371 292.5,-352 434.5,-352 434.5,-371"/>
<text text-anchor="middle" x="363.5" y="-359" font-family="Helvetica,sans-Serif" font-size="10.00">bio/alphabet/mask/mask.hpp</text>
</a>
</g>
</g>
<!-- Node2 -->
<g id="node2" class="node">
<title>Node2</title>
<g id="a_node2"><a target="_blank" xlink:href="https://en.cppreference.com/w/cpp/header/cassert.html" xlink:title=" ">
<polygon fill="white" stroke="#666666" points="282,-261 233,-261 233,-242 282,-242 282,-261"/>
<text text-anchor="middle" x="257.5" y="-249" font-family="Helvetica,sans-Serif" font-size="10.00">cassert</text>
</a>
</g>
</g>
<!-- Node1&#45;&gt;Node2 -->
<g id="edge1" class="edge">
<title>Node1&#45;&gt;Node2</title>
<path fill="none" stroke="#63b8ff" d="M354.83,-351.66C336.96,-333.46 295.82,-291.55 273.17,-268.47"/>
<polygon fill="#63b8ff" stroke="#63b8ff" points="275.5,-265.84 266,-261.16 270.5,-270.75 275.5,-265.84"/>
</g>
<!-- Node3 -->
<g id="node3" class="node">
<title>Node3</title>
<g id="a_node3"><a xlink:href="base_8hpp.html" target="_top" xlink:title="Provides bio::alphabet::base.">
<polygon fill="white" stroke="#666666" points="493.5,-316 381.5,-316 381.5,-297 493.5,-297 493.5,-316"/>
<text text-anchor="middle" x="437.5" y="-304" font-family="Helvetica,sans-Serif" font-size="10.00">bio/alphabet/base.hpp</text>
</a>
</g>
</g>
<!-- Node1&#45;&gt;Node3 -->
<g id="edge2" class="edge">
<title>Node1&#45;&gt;Node3</title>
<path fill="none" stroke="#63b8ff" d="M375.39,-351.98C386.65,-343.92 403.79,-331.65 417.21,-322.03"/>
<polygon fill="#63b8ff" stroke="#63b8ff" points="419.3,-324.84 425.39,-316.17 415.23,-319.15 419.3,-324.84"/>
</g>
<!-- Node3&#45;&gt;Node2 -->
<g id="edge3" class="edge">
<title>Node3&#45;&gt;Node2</title>
<path fill="none" stroke="#63b8ff" d="M408.58,-296.98C376.79,-287.62 325.74,-272.59 291.92,-262.63"/>
<polygon fill="#63b8ff" stroke="#63b8ff" points="292.59,-259.18 282.01,-259.72 290.62,-265.9 292.59,-259.18"/>
</g>
<!-- Node4 -->
<g id="node4" class="node">
<title>Node4</title>
<g id="a_node4"><a target="_blank" xlink:href="https://en.cppreference.com/w/cpp/header/concepts.html" xlink:title=" ">
<polygon fill="white" stroke="#666666" points="611.5,-74 555.5,-74 555.5,-55 611.5,-55 611.5,-74"/>
<text text-anchor="middle" x="583.5" y="-62" font-family="Helvetica,sans-Serif" font-size="10.00">concepts</text>
</a>
</g>
</g>
<!-- Node3&#45;&gt;Node4 -->
<g id="edge4" class="edge">
<title>Node3&#45;&gt;Node4</title>
<path fill="none" stroke="#63b8ff" d="M493.65,-296.96C579.81,-282.59 738.18,-250.69 771.5,-206 796.12,-172.98 738.68,-114.09 733.5,-110 701.09,-84.4 654.26,-73.52 621.58,-68.89"/>
<polygon fill="#63b8ff" stroke="#63b8ff" points="621.87,-65.4 611.5,-67.6 620.98,-72.34 621.87,-65.4"/>
</g>
<!-- Node5 -->
<g id="node5" class="node">
<title>Node5</title>
<g id="a_node5"><a target="_blank" xlink:href="https://en.cppreference.com/w/cpp/header/type_traits.html" xlink:title=" ">
<polygon fill="white" stroke="#666666" points="783.5,-74 721.5,-74 721.5,-55 783.5,-55 783.5,-74"/>
<text text-anchor="middle" x="752.5" y="-62" font-family="Helvetica,sans-Serif" font-size="10.00">type_traits</text>
</a>
</g>
</g>
<!-- Node3&#45;&gt;Node5 -->
<g id="edge5" class="edge">
<title>Node3&#45;&gt;Node5</title>
<path fill="none" stroke="#63b8ff" d="M493.58,-302.09C547.54,-297.4 630.71,-286.42 698.5,-261 742.39,-244.54 765.57,-246.89 788.5,-206 811.2,-165.53 782.57,-110.52 764.74,-82.88"/>
<polygon fill="#63b8ff" stroke="#63b8ff" points="767.47,-80.66 758.99,-74.31 761.66,-84.56 767.47,-80.66"/>
</g>
<!-- Node6 -->
<g id="node6" class="node">
<title>Node6</title>
<g id="a_node6"><a xlink:href="alphabet_2concept_8hpp.html" target="_top" xlink:title="Core alphabet concept and free function/type trait wrappers.">
<polygon fill="white" stroke="#666666" points="533,-261 408,-261 408,-242 533,-242 533,-261"/>
<text text-anchor="middle" x="470.5" y="-249" font-family="Helvetica,sans-Serif" font-size="10.00">bio/alphabet/concept.hpp</text>
</a>
</g>
</g>
<!-- Node3&#45;&gt;Node6 -->
<g id="edge6" class="edge">
<title>Node3&#45;&gt;Node6</title>
<path fill="none" stroke="#63b8ff" d="M442.95,-296.75C447.51,-289.42 454.17,-278.73 459.79,-269.7"/>
<polygon fill="#63b8ff" stroke="#63b8ff" points="462.84,-271.43 465.15,-261.09 456.9,-267.73 462.84,-271.43"/>
</g>
<!-- Node24 -->
<g id="node24" class="node">
<title>Node24</title>
<g id="a_node24"><a xlink:href="int__types_8hpp.html" target="_top" xlink:title="Provides metaprogramming utilities for integer types.">
<polygon fill="white" stroke="#666666" points="536.5,-140 442.5,-140 442.5,-110 536.5,-110 536.5,-140"/>
<text text-anchor="start" x="450.5" y="-128" font-family="Helvetica,sans-Serif" font-size="10.00">bio/meta/detail/int</text>
<text text-anchor="middle" x="489.5" y="-117" font-family="Helvetica,sans-Serif" font-size="10.00">_types.hpp</text>
</a>
</g>
</g>
<!-- Node3&#45;&gt;Node24 -->
<g id="edge35" class="edge">
<title>Node3&#45;&gt;Node24</title>
<path fill="none" stroke="#63b8ff" d="M420.57,-296.98C382.42,-276.67 295.65,-223.5 330.5,-176 336.87,-167.32 389.62,-151.82 432.65,-140.37"/>
<polygon fill="#63b8ff" stroke="#63b8ff" points="433.72,-143.71 442.5,-137.78 431.93,-136.94 433.72,-143.71"/>
</g>
<!-- Node6&#45;&gt;Node5 -->
<g id="edge7" class="edge">
<title>Node6&#45;&gt;Node5</title>
<path fill="none" stroke="#63b8ff" d="M533.1,-250.46C612.1,-248.92 741.34,-240.94 771.5,-206 801.57,-171.16 777.58,-112.27 762.46,-83.04"/>
<polygon fill="#63b8ff" stroke="#63b8ff" points="765.42,-81.16 757.58,-74.03 759.26,-84.49 765.42,-81.16"/>
</g>
<!-- Node7 -->
<g id="node7" class="node">
<title>Node7</title>
<g id="a_node7"><a xlink:href="tag_8hpp.html" target="_top" xlink:title="Provides the customisation tags for the alphabet concepts.">
<polygon fill="white" stroke="#666666" points="762.5,-206 658.5,-206 658.5,-176 762.5,-176 762.5,-206"/>
<text text-anchor="start" x="666.5" y="-194" font-family="Helvetica,sans-Serif" font-size="10.00">bio/alphabet/custom</text>
<text text-anchor="middle" x="710.5" y="-183" font-family="Helvetica,sans-Serif" font-size="10.00">/tag.hpp</text>
</a>
</g>
</g>
<!-- Node6&#45;&gt;Node7 -->
<g id="edge8" class="edge">
<title>Node6&#45;&gt;Node7</title>
<path fill="none" stroke="#63b8ff" d="M505.4,-241.99C542.82,-232.87 603,-218.2 648.52,-207.11"/>
<polygon fill="#63b8ff" stroke="#63b8ff" points="649.4,-210.5 658.29,-204.73 647.74,-203.69 649.4,-210.5"/>
</g>
<!-- Node8 -->
<g id="node8" class="node">
<title>Node8</title>
<g id="a_node8"><a xlink:href="exception_8hpp.html" target="_top" xlink:title="Exceptions thrown by entities in the alphabet module.">
<polygon fill="white" stroke="#666666" points="424,-134.5 291,-134.5 291,-115.5 424,-115.5 424,-134.5"/>
<text text-anchor="middle" x="357.5" y="-122.5" font-family="Helvetica,sans-Serif" font-size="10.00">bio/alphabet/exception.hpp</text>
</a>
</g>
</g>
<!-- Node6&#45;&gt;Node8 -->
<g id="edge9" class="edge">
<title>Node6&#45;&gt;Node8</title>
<path fill="none" stroke="#63b8ff" d="M470.47,-241.7C469.98,-226.66 467,-195.73 451.5,-176 437.63,-158.34 415.76,-146.18 396.6,-138.28"/>
<polygon fill="#63b8ff" stroke="#63b8ff" points="397.76,-134.98 387.17,-134.63 395.24,-141.51 397.76,-134.98"/>
</g>
<!-- Node11 -->
<g id="node11" class="node">
<title>Node11</title>
<g id="a_node11"><a xlink:href="core_8hpp.html" target="_top" xlink:title="Provides platform and dependency checks.">
<polygon fill="white" stroke="#666666" points="346.5,-74 276.5,-74 276.5,-55 346.5,-55 346.5,-74"/>
<text text-anchor="middle" x="311.5" y="-62" font-family="Helvetica,sans-Serif" font-size="10.00">bio/core.hpp</text>
</a>
</g>
</g>
<!-- Node6&#45;&gt;Node11 -->
<g id="edge18" class="edge">
<title>Node6&#45;&gt;Node11</title>
<path fill="none" stroke="#63b8ff" d="M421.93,-241.96C393.57,-235.36 358.07,-224.19 330.5,-206 298.15,-184.66 287.01,-176.33 273.5,-140 268.85,-127.5 268.89,-122.51 273.5,-110 277.56,-98.99 285.69,-88.86 293.4,-81.05"/>
<polygon fill="#63b8ff" stroke="#63b8ff" points="295.92,-83.48 300.79,-74.07 291.11,-78.39 295.92,-83.48"/>
</g>
<!-- Node16 -->
<g id="node16" class="node">
<title>Node16</title>
<g id="a_node16"><a xlink:href="core__language_8hpp.html" target="_top" xlink:title="Provides concepts for core language types and relations that don&#39;t have concepts in C++20 (yet).">
<polygon fill="white" stroke="#666666" points="668,-140 555,-140 555,-110 668,-110 668,-140"/>
<text text-anchor="start" x="563" y="-128" font-family="Helvetica,sans-Serif" font-size="10.00">bio/meta/concept/core</text>
<text text-anchor="middle" x="611.5" y="-117" font-family="Helvetica,sans-Serif" font-size="10.00">_language.hpp</text>
</a>
</g>
</g>
<!-- Node6&#45;&gt;Node16 -->
<g id="edge19" class="edge">
<title>Node6&#45;&gt;Node16</title>
<path fill="none" stroke="#63b8ff" d="M475.72,-241.85C484.97,-227.04 505.45,-196.45 528.5,-176 541.94,-164.07 558.62,-153.39 573.49,-145"/>
<polygon fill="#63b8ff" stroke="#63b8ff" points="575.39,-147.95 582.47,-140.07 572.02,-141.81 575.39,-147.95"/>
</g>
<!-- Node17 -->
<g id="node17" class="node">
<title>Node17</title>
<g id="a_node17"><a xlink:href="type__inspection_8hpp.html" target="_top" xlink:title="Provides traits to inspect some information of a type, for example its name.">
<polygon fill="white" stroke="#666666" points="196.5,-140 94.5,-140 94.5,-110 196.5,-110 196.5,-140"/>
<text text-anchor="start" x="102.5" y="-128" font-family="Helvetica,sans-Serif" font-size="10.00">bio/meta/detail/type</text>
<text text-anchor="middle" x="145.5" y="-117" font-family="Helvetica,sans-Serif" font-size="10.00">_inspection.hpp</text>
</a>
</g>
</g>
<!-- Node6&#45;&gt;Node17 -->
<g id="edge23" class="edge">
<title>Node6&#45;&gt;Node17</title>
<path fill="none" stroke="#63b8ff" d="M407.96,-244.89C342,-238.08 243.17,-225.1 210.5,-206 187.37,-192.48 169.06,-167.41 157.85,-148.93"/>
<polygon fill="#63b8ff" stroke="#63b8ff" points="160.83,-147.1 152.78,-140.21 154.78,-150.62 160.83,-147.1"/>
</g>
<!-- Node21 -->
<g id="node21" class="node">
<title>Node21</title>
<g id="a_node21"><a xlink:href="priority__tag_8hpp.html" target="_top" xlink:title="provides bio::meta::priority_tag.">
<polygon fill="white" stroke="#666666" points="442,-206 339,-206 339,-176 442,-176 442,-206"/>
<text text-anchor="start" x="347" y="-194" font-family="Helvetica,sans-Serif" font-size="10.00">bio/meta/tag/priority</text>
<text text-anchor="middle" x="390.5" y="-183" font-family="Helvetica,sans-Serif" font-size="10.00">_tag.hpp</text>
</a>
</g>
</g>
<!-- Node6&#45;&gt;Node21 -->
<g id="edge29" class="edge">
<title>Node6&#45;&gt;Node21</title>
<path fill="none" stroke="#63b8ff" d="M458.7,-241.87C448.04,-234.08 431.96,-222.32 418.09,-212.17"/>
<polygon fill="#63b8ff" stroke="#63b8ff" points="419.94,-209.19 409.8,-206.11 415.81,-214.84 419.94,-209.19"/>
</g>
<!-- Node22 -->
<g id="node22" class="node">
<title>Node22</title>
<g id="a_node22"><a xlink:href="basic_8hpp.html" target="_top" xlink:title="Provides various type traits on generic types.">
<polygon fill="white" stroke="#666666" points="640,-206 537,-206 537,-176 640,-176 640,-206"/>
<text text-anchor="start" x="545" y="-194" font-family="Helvetica,sans-Serif" font-size="10.00">bio/meta/type_traits</text>
<text text-anchor="middle" x="588.5" y="-183" font-family="Helvetica,sans-Serif" font-size="10.00">/basic.hpp</text>
</a>
</g>
</g>
<!-- Node6&#45;&gt;Node22 -->
<g id="edge31" class="edge">
<title>Node6&#45;&gt;Node22</title>
<path fill="none" stroke="#63b8ff" d="M487.66,-241.99C504.14,-233.82 529.6,-221.2 550.81,-210.69"/>
<polygon fill="#63b8ff" stroke="#63b8ff" points="552.5,-213.76 559.9,-206.18 549.39,-207.48 552.5,-213.76"/>
</g>
<!-- Node8&#45;&gt;Node4 -->
<g id="edge10" class="edge">
<title>Node8&#45;&gt;Node4</title>
<path fill="none" stroke="#63b8ff" d="M390.36,-115.49C431.5,-104.84 501.84,-86.64 545.33,-75.38"/>
<polygon fill="#63b8ff" stroke="#63b8ff" points="546.44,-78.71 555.24,-72.81 544.68,-71.93 546.44,-78.71"/>
</g>
<!-- Node9 -->
<g id="node9" class="node">
<title>Node9</title>
<g id="a_node9"><a target="_blank" xlink:href="https://en.cppreference.com/w/cpp/header/stdexcept.html" xlink:title=" ">
<polygon fill="white" stroke="#666666" points="424,-74 365,-74 365,-55 424,-55 424,-74"/>
<text text-anchor="middle" x="394.5" y="-62" font-family="Helvetica,sans-Serif" font-size="10.00">stdexcept</text>
</a>
</g>
</g>
<!-- Node8&#45;&gt;Node9 -->
<g id="edge11" class="edge">
<title>Node8&#45;&gt;Node9</title>
<path fill="none" stroke="#63b8ff" d="M362.96,-115.37C368.37,-106.81 376.81,-93.47 383.6,-82.74"/>
<polygon fill="#63b8ff" stroke="#63b8ff" points="386.63,-84.49 389.02,-74.17 380.71,-80.75 386.63,-84.49"/>
</g>
<!-- Node10 -->
<g id="node10" class="node">
<title>Node10</title>
<g id="a_node10"><a target="_blank" xlink:href="https://en.cppreference.com/w/cpp/header/string.html" xlink:title=" ">
<polygon fill="white" stroke="#666666" points="258,-74 217,-74 217,-55 258,-55 258,-74"/>
<text text-anchor="middle" x="237.5" y="-62" font-family="Helvetica,sans-Serif" font-size="10.00">string</text>
</a>
</g>
</g>
<!-- Node8&#45;&gt;Node10 -->
<g id="edge12" class="edge">
<title>Node8&#45;&gt;Node10</title>
<path fill="none" stroke="#63b8ff" d="M340.05,-115.49C320.14,-105.79 287.36,-89.81 264.23,-78.53"/>
<polygon fill="#63b8ff" stroke="#63b8ff" points="265.49,-75.25 254.97,-74.02 262.43,-81.54 265.49,-75.25"/>
</g>
<!-- Node8&#45;&gt;Node11 -->
<g id="edge13" class="edge">
<title>Node8&#45;&gt;Node11</title>
<path fill="none" stroke="#63b8ff" d="M350.71,-115.37C343.85,-106.64 333.07,-92.93 324.55,-82.09"/>
<polygon fill="#63b8ff" stroke="#63b8ff" points="327.25,-79.86 318.32,-74.17 321.75,-84.19 327.25,-79.86"/>
</g>
<!-- Node12 -->
<g id="node12" class="node">
<title>Node12</title>
<g id="a_node12"><a target="_blank" xlink:href="https://en.cppreference.com/w/cpp/header/cinttypes.html" xlink:title=" ">
<polygon fill="white" stroke="#666666" points="234.5,-19 178.5,-19 178.5,0 234.5,0 234.5,-19"/>
<text text-anchor="middle" x="206.5" y="-7" font-family="Helvetica,sans-Serif" font-size="10.00">cinttypes</text>
</a>
</g>
</g>
<!-- Node11&#45;&gt;Node12 -->
<g id="edge14" class="edge">
<title>Node11&#45;&gt;Node12</title>
<path fill="none" stroke="#63b8ff" d="M294.63,-54.98C277.89,-46.54 252,-33.47 232.61,-23.68"/>
<polygon fill="#63b8ff" stroke="#63b8ff" points="234.18,-20.55 223.68,-19.17 231.03,-26.8 234.18,-20.55"/>
</g>
<!-- Node13 -->
<g id="node13" class="node">
<title>Node13</title>
<g id="a_node13"><a target="_blank" xlink:href="https://en.cppreference.com/w/cpp/header/ciso646.html" xlink:title=" ">
<polygon fill="white" stroke="#666666" points="302.5,-19 252.5,-19 252.5,0 302.5,0 302.5,-19"/>
<text text-anchor="middle" x="277.5" y="-7" font-family="Helvetica,sans-Serif" font-size="10.00">ciso646</text>
</a>
</g>
</g>
<!-- Node11&#45;&gt;Node13 -->
<g id="edge15" class="edge">
<title>Node11&#45;&gt;Node13</title>
<path fill="none" stroke="#63b8ff" d="M305.89,-54.75C301.18,-47.42 294.33,-36.73 288.53,-27.7"/>
<polygon fill="#63b8ff" stroke="#63b8ff" points="291.36,-25.62 283.01,-19.09 285.46,-29.4 291.36,-25.62"/>
</g>
<!-- Node14 -->
<g id="node14" class="node">
<title>Node14</title>
<g id="a_node14"><a target="_blank" xlink:href="https://en.cppreference.com/w/cpp/header/cstddef.html" xlink:title=" ">
<polygon fill="white" stroke="#666666" points="370,-19 321,-19 321,0 370,0 370,-19"/>
<text text-anchor="middle" x="345.5" y="-7" font-family="Helvetica,sans-Serif" font-size="10.00">cstddef</text>
</a>
</g>
</g>
<!-- Node11&#45;&gt;Node14 -->
<g id="edge16" class="edge">
<title>Node11&#45;&gt;Node14</title>
<path fill="none" stroke="#63b8ff" d="M317.11,-54.75C321.82,-47.42 328.67,-36.73 334.47,-27.7"/>
<polygon fill="#63b8ff" stroke="#63b8ff" points="337.54,-29.4 339.99,-19.09 331.64,-25.62 337.54,-29.4"/>
</g>
<!-- Node15 -->
<g id="node15" class="node">
<title>Node15</title>
<g id="a_node15"><a target="_blank" xlink:href="https://en.cppreference.com/w/cpp/header/string_view.html" xlink:title=" ">
<polygon fill="white" stroke="#666666" points="454.5,-19 388.5,-19 388.5,0 454.5,0 454.5,-19"/>
<text text-anchor="middle" x="421.5" y="-7" font-family="Helvetica,sans-Serif" font-size="10.00">string_view</text>
</a>
</g>
</g>
<!-- Node11&#45;&gt;Node15 -->
<g id="edge17" class="edge">
<title>Node11&#45;&gt;Node15</title>
<path fill="none" stroke="#63b8ff" d="M329.17,-54.98C346.79,-46.5 374.08,-33.35 394.43,-23.54"/>
<polygon fill="#63b8ff" stroke="#63b8ff" points="396.02,-26.66 403.51,-19.17 392.98,-20.36 396.02,-26.66"/>
</g>
<!-- Node16&#45;&gt;Node4 -->
<g id="edge20" class="edge">
<title>Node16&#45;&gt;Node4</title>
<path fill="none" stroke="#63b8ff" d="M604.72,-109.84C600.91,-101.87 596.11,-91.84 592.04,-83.33"/>
<polygon fill="#63b8ff" stroke="#63b8ff" points="595.17,-81.77 587.7,-74.27 588.86,-84.8 595.17,-81.77"/>
</g>
<!-- Node16&#45;&gt;Node5 -->
<g id="edge21" class="edge">
<title>Node16&#45;&gt;Node5</title>
<path fill="none" stroke="#63b8ff" d="M645.27,-109.99C668.69,-100.27 699.62,-87.44 722.23,-78.06"/>
<polygon fill="#63b8ff" stroke="#63b8ff" points="723.78,-81.2 731.68,-74.14 721.1,-74.74 723.78,-81.2"/>
</g>
<!-- Node16&#45;&gt;Node11 -->
<g id="edge22" class="edge">
<title>Node16&#45;&gt;Node11</title>
<path fill="none" stroke="#63b8ff" d="M554.99,-111.93C551.78,-111.27 548.6,-110.62 545.5,-110 527.31,-106.34 419.57,-85.93 356.82,-74.06"/>
<polygon fill="#63b8ff" stroke="#63b8ff" points="357.25,-70.59 346.78,-72.17 355.95,-77.46 357.25,-70.59"/>
</g>
<!-- Node17&#45;&gt;Node10 -->
<g id="edge26" class="edge">
<title>Node17&#45;&gt;Node10</title>
<path fill="none" stroke="#63b8ff" d="M167.77,-109.84C182.17,-100.68 200.83,-88.82 215.23,-79.66"/>
<polygon fill="#63b8ff" stroke="#63b8ff" points="217.42,-82.41 223.98,-74.09 213.67,-76.51 217.42,-82.41"/>
</g>
<!-- Node17&#45;&gt;Node11 -->
<g id="edge28" class="edge">
<title>Node17&#45;&gt;Node11</title>
<path fill="none" stroke="#63b8ff" d="M185.26,-109.99C213.33,-100.1 250.55,-86.98 277.29,-77.56"/>
<polygon fill="#63b8ff" stroke="#63b8ff" points="278.72,-80.76 286.99,-74.14 276.39,-74.16 278.72,-80.76"/>
</g>
<!-- Node18 -->
<g id="node18" class="node">
<title>Node18</title>
<g id="a_node18"><a target="_blank" xlink:href="https://en.cppreference.com/w/cpp/header/functional.html" xlink:title=" ">
<polygon fill="white" stroke="#666666" points="59,-74 0,-74 0,-55 59,-55 59,-74"/>
<text text-anchor="middle" x="29.5" y="-62" font-family="Helvetica,sans-Serif" font-size="10.00">functional</text>
</a>
</g>
</g>
<!-- Node17&#45;&gt;Node18 -->
<g id="edge24" class="edge">
<title>Node17&#45;&gt;Node18</title>
<path fill="none" stroke="#63b8ff" d="M117.72,-109.99C98.88,-100.49 74.15,-88.02 55.66,-78.69"/>
<polygon fill="#63b8ff" stroke="#63b8ff" points="57.14,-75.52 46.63,-74.14 53.98,-81.77 57.14,-75.52"/>
</g>
<!-- Node19 -->
<g id="node19" class="node">
<title>Node19</title>
<g id="a_node19"><a target="_blank" xlink:href="https://en.cppreference.com/w/cpp/header/memory.html" xlink:title=" ">
<polygon fill="white" stroke="#666666" points="129.5,-74 77.5,-74 77.5,-55 129.5,-55 129.5,-74"/>
<text text-anchor="middle" x="103.5" y="-62" font-family="Helvetica,sans-Serif" font-size="10.00">memory</text>
</a>
</g>
</g>
<!-- Node17&#45;&gt;Node19 -->
<g id="edge25" class="edge">
<title>Node17&#45;&gt;Node19</title>
<path fill="none" stroke="#63b8ff" d="M135.33,-109.84C129.42,-101.61 121.94,-91.18 115.71,-82.51"/>
<polygon fill="#63b8ff" stroke="#63b8ff" points="118.47,-80.35 109.79,-74.27 112.78,-84.43 118.47,-80.35"/>
</g>
<!-- Node20 -->
<g id="node20" class="node">
<title>Node20</title>
<g id="a_node20"><a target="_blank" xlink:href="https://en.cppreference.com/w/cpp/header/typeinfo.html" xlink:title=" ">
<polygon fill="white" stroke="#666666" points="199,-74 148,-74 148,-55 199,-55 199,-74"/>
<text text-anchor="middle" x="173.5" y="-62" font-family="Helvetica,sans-Serif" font-size="10.00">typeinfo</text>
</a>
</g>
</g>
<!-- Node17&#45;&gt;Node20 -->
<g id="edge27" class="edge">
<title>Node17&#45;&gt;Node20</title>
<path fill="none" stroke="#63b8ff" d="M152.28,-109.84C156.09,-101.87 160.89,-91.84 164.96,-83.33"/>
<polygon fill="#63b8ff" stroke="#63b8ff" points="168.14,-84.8 169.3,-74.27 161.83,-81.77 168.14,-84.8"/>
</g>
<!-- Node21&#45;&gt;Node11 -->
<g id="edge30" class="edge">
<title>Node21&#45;&gt;Node11</title>
<path fill="none" stroke="#63b8ff" d="M338.82,-179.04C317.59,-171.72 295.07,-159.67 282.5,-140 270.77,-121.65 284.32,-97.8 296.56,-82.09"/>
<polygon fill="#63b8ff" stroke="#63b8ff" points="299.35,-84.21 303.06,-74.29 293.97,-79.73 299.35,-84.21"/>
</g>
<!-- Node22&#45;&gt;Node5 -->
<g id="edge33" class="edge">
<title>Node22&#45;&gt;Node5</title>
<path fill="none" stroke="#63b8ff" d="M640.02,-177.76C676.26,-168.16 720.51,-154.1 733.5,-140 747.46,-124.84 751.49,-100.87 752.49,-84.23"/>
<polygon fill="#63b8ff" stroke="#63b8ff" points="756,-84.18 752.79,-74.08 749,-83.98 756,-84.18"/>
</g>
<!-- Node22&#45;&gt;Node16 -->
<g id="edge34" class="edge">
<title>Node22&#45;&gt;Node16</title>
<path fill="none" stroke="#63b8ff" d="M593.6,-175.8C596.34,-168.17 599.79,-158.57 602.93,-149.84"/>
<polygon fill="#63b8ff" stroke="#63b8ff" points="606.32,-150.76 606.41,-140.16 599.73,-148.39 606.32,-150.76"/>
</g>
<!-- Node23 -->
<g id="node23" class="node">
<title>Node23</title>
<g id="a_node23"><a target="_blank" xlink:href="https://en.cppreference.com/w/cpp/header/tuple.html" xlink:title=" ">
<polygon fill="white" stroke="#666666" points="724.5,-134.5 686.5,-134.5 686.5,-115.5 724.5,-115.5 724.5,-134.5"/>
<text text-anchor="middle" x="705.5" y="-122.5" font-family="Helvetica,sans-Serif" font-size="10.00">tuple</text>
</a>
</g>
</g>
<!-- Node22&#45;&gt;Node23 -->
<g id="edge32" class="edge">
<title>Node22&#45;&gt;Node23</title>
<path fill="none" stroke="#63b8ff" d="M614.18,-175.95C634.06,-165.08 661.43,-150.11 681.01,-139.4"/>
<polygon fill="#63b8ff" stroke="#63b8ff" points="682.84,-142.39 689.93,-134.52 679.48,-136.25 682.84,-142.39"/>
</g>
<!-- Node24&#45;&gt;Node4 -->
<g id="edge36" class="edge">
<title>Node24&#45;&gt;Node4</title>
<path fill="none" stroke="#63b8ff" d="M512.25,-109.84C527.1,-100.6 546.4,-88.59 561.16,-79.4"/>
<polygon fill="#63b8ff" stroke="#63b8ff" points="563.05,-82.35 569.69,-74.09 559.35,-76.41 563.05,-82.35"/>
</g>
<!-- Node24&#45;&gt;Node5 -->
<g id="edge38" class="edge">
<title>Node24&#45;&gt;Node5</title>
<path fill="none" stroke="#63b8ff" d="M536.75,-112.29C540.05,-111.5 543.32,-110.73 546.5,-110 603.52,-96.84 669.71,-82.75 711.34,-74.04"/>
<polygon fill="#63b8ff" stroke="#63b8ff" points="712.31,-77.41 721.38,-71.94 710.87,-70.56 712.31,-77.41"/>
</g>
<!-- Node24&#45;&gt;Node11 -->
<g id="edge39" class="edge">
<title>Node24&#45;&gt;Node11</title>
<path fill="none" stroke="#63b8ff" d="M446.86,-109.99C416.41,-99.98 375.91,-86.67 347.17,-77.22"/>
<polygon fill="#63b8ff" stroke="#63b8ff" points="348.12,-73.85 337.53,-74.05 345.93,-80.5 348.12,-73.85"/>
</g>
<!-- Node25 -->
<g id="node25" class="node">
<title>Node25</title>
<g id="a_node25"><a target="_blank" xlink:href="https://en.cppreference.com/w/cpp/header/limits.html" xlink:title=" ">
<polygon fill="white" stroke="#666666" points="509.5,-74 469.5,-74 469.5,-55 509.5,-55 509.5,-74"/>
<text text-anchor="middle" x="489.5" y="-62" font-family="Helvetica,sans-Serif" font-size="10.00">limits</text>
</a>
</g>
</g>
<!-- Node24&#45;&gt;Node25 -->
<g id="edge37" class="edge">
<title>Node24&#45;&gt;Node25</title>
<path fill="none" stroke="#63b8ff" d="M489.5,-109.84C489.5,-102.21 489.5,-92.7 489.5,-84.45"/>
<polygon fill="#63b8ff" stroke="#63b8ff" points="493,-84.27 489.5,-74.27 486,-84.27 493,-84.27"/>
</g>
</g>
</svg>
        <g id="navigator" transform="translate(0 0)" fill="#404254">
                <rect fill="#f2f5e9" fill-opacity="0.5" stroke="#606060" stroke-width=".5" x="0" y="0" width="60" height="60"/>
                <use id="zoomplus" xlink:href="#zoomPlus" x="17" y="9" onmousedown="handleZoom(evt,'in')"/>
                <use id="zoomminus" xlink:href="#zoomMin" x="42" y="9" onmousedown="handleZoom(evt,'out')"/>
                <use id="reset" xlink:href="#resetDef" x="30" y="36" onmousedown="handleReset()"/>
                <g id="arrowUp" xlink:href="#dirArrow" transform="translate(30 24)" onmousedown="handlePan(0,-1)">
                  <use xlink:href="#rim" fill="#404040">
                        <set attributeName="fill" to="#808080" begin="arrowUp.mouseover" end="arrowUp.mouseout"/>
                  </use>
                  <path fill="none" stroke="white" stroke-width="1.5" d="M0,-3.0v7 M-2.5,-0.5L0,-3.0L2.5,-0.5"/>
                </g>
                <g id="arrowRight" xlink:href="#dirArrow" transform="rotate(90) translate(36 -43)" onmousedown="handlePan(1,0)">
                  <use xlink:href="#rim" fill="#404040">
                        <set attributeName="fill" to="#808080" begin="arrowRight.mouseover" end="arrowRight.mouseout"/>
                  </use>
                  <path fill="none" stroke="white" stroke-width="1.5" d="M0,-3.0v7 M-2.5,-0.5L0,-3.0L2.5,-0.5"/>
                </g>
                <g id="arrowDown" xlink:href="#dirArrow" transform="rotate(180) translate(-30 -48)" onmousedown="handlePan(0,1)">
                  <use xlink:href="#rim" fill="#404040">
                        <set attributeName="fill" to="#808080" begin="arrowDown.mouseover" end="arrowDown.mouseout"/>
                  </use>
                  <path fill="none" stroke="white" stroke-width="1.5" d="M0,-3.0v7 M-2.5,-0.5L0,-3.0L2.5,-0.5"/>
                </g>
                <g id="arrowLeft" xlink:href="#dirArrow" transform="rotate(270) translate(-36 17)" onmousedown="handlePan(-1,0)">
                  <use xlink:href="#rim" fill="#404040">
                        <set attributeName="fill" to="#808080" begin="arrowLeft.mouseover" end="arrowLeft.mouseout"/>
                  </use>
                  <path fill="none" stroke="white" stroke-width="1.5" d="M0,-3.0v7 M-2.5,-0.5L0,-3.0L2.5,-0.5"/>
                </g>
        </g>
        <svg viewBox="0 0 15 15" width="100%" height="30px" preserveAspectRatio="xMaxYMin meet">
         <g id="arrow_out" transform="scale(0.3 0.3)">
          <a xlink:href="mask_8hpp__incl_org.svg" target="_base">
           <rect id="button" ry="5" rx="5" y="6" x="6" height="38" width="38"
                fill="#f2f5e9" fill-opacity="0.5" stroke="#606060" stroke-width="1.0"/>
           <path id="arrow"
             d="M 11.500037,31.436501 C 11.940474,20.09759 22.043105,11.32322 32.158766,21.979434 L 37.068811,17.246167 C 37.068811,17.246167 37.088388,32 37.088388,32 L 22.160133,31.978069 C 22.160133,31.978069 26.997745,27.140456 26.997745,27.140456 C 18.528582,18.264221 13.291696,25.230495 11.500037,31.436501 z"
             style="fill:#404040;"/>
          </a>
         </g>
        </svg>
</svg>
