<?xml version="1.0" encoding="UTF-8" standalone="no"?>
<!DOCTYPE svg PUBLIC "-//W3C//DTD SVG 1.1//EN"
 "http://www.w3.org/Graphics/SVG/1.1/DTD/svg11.dtd">
<!-- Generated by graphviz version 2.43.0 (0)
 -->
<!-- Title: bio/meta/type_list/all.hpp Pages: 1 -->
<svg width="288pt" height="564pt"
 viewBox="0.00 0.00 288.40 564.00" xmlns="http://www.w3.org/2000/svg" xmlns:xlink="http://www.w3.org/1999/xlink">
<g id="graph0" class="graph" transform="scale(1 1) rotate(0) translate(4 560)">
<title>bio/meta/type_list/all.hpp</title>
<polygon fill="white" stroke="transparent" points="-4,4 -4,-560 284.4,-560 284.4,4 -4,4"/>
<!-- Node1 -->
<g id="node1" class="node">
<title>Node1</title>
<g id="a_node1"><a xlink:title="Meta&#45;header for the Utility / Type List submodule .">
<polygon fill="#bfbfbf" stroke="black" points="95.9,-525.5 95.9,-555.5 200.9,-555.5 200.9,-525.5 95.9,-525.5"/>
<text text-anchor="start" x="103.9" y="-543.5" font-family="Helvetica,sans-Serif" font-size="10.00">bio/meta/type_list</text>
<text text-anchor="middle" x="148.4" y="-532.5" font-family="Helvetica,sans-Serif" font-size="10.00">/all.hpp</text>
</a>
</g>
</g>
<!-- Node2 -->
<g id="node2" class="node">
<title>Node2</title>
<g id="a_node2"><a xlink:href="type__list_2traits_8hpp.html" target="_top" xlink:title="Provides traits for bio::type_list.">
<polygon fill="white" stroke="black" points="55.9,-458.5 55.9,-488.5 160.9,-488.5 160.9,-458.5 55.9,-458.5"/>
<text text-anchor="start" x="63.9" y="-476.5" font-family="Helvetica,sans-Serif" font-size="10.00">bio/meta/type_list</text>
<text text-anchor="middle" x="108.4" y="-465.5" font-family="Helvetica,sans-Serif" font-size="10.00">/traits.hpp</text>
</a>
</g>
</g>
<!-- Node1&#45;&gt;Node2 -->
<g id="edge1" class="edge">
<title>Node1&#45;&gt;Node2</title>
<path fill="none" stroke="midnightblue" d="M139.72,-525.4C134.63,-517.13 128.09,-506.51 122.31,-497.1"/>
<polygon fill="midnightblue" stroke="midnightblue" points="125.28,-495.26 117.06,-488.58 119.32,-498.93 125.28,-495.26"/>
</g>
<!-- Node4 -->
<g id="node4" class="node">
<title>Node4</title>
<g id="a_node4"><a xlink:href="type__list_8hpp.html" target="_top" xlink:title="Provides bio::type_list.">
<polygon fill="white" stroke="black" points="129.9,-324.5 129.9,-354.5 234.9,-354.5 234.9,-324.5 129.9,-324.5"/>
<text text-anchor="start" x="137.9" y="-342.5" font-family="Helvetica,sans-Serif" font-size="10.00">bio/meta/type_list</text>
<text text-anchor="middle" x="182.4" y="-331.5" font-family="Helvetica,sans-Serif" font-size="10.00">/type_list.hpp</text>
</a>
</g>
</g>
<!-- Node1&#45;&gt;Node4 -->
<g id="edge18" class="edge">
<title>Node1&#45;&gt;Node4</title>
<path fill="none" stroke="midnightblue" d="M156.07,-525.36C161.05,-515.48 167.19,-501.8 170.4,-489 181.11,-446.29 182.88,-394.71 182.87,-364.95"/>
<polygon fill="midnightblue" stroke="midnightblue" points="186.36,-364.64 182.79,-354.67 179.37,-364.7 186.36,-364.64"/>
</g>
<!-- Node3 -->
<g id="node3" class="node">
<title>Node3</title>
<g id="a_node3"><a target="_blank" xlink:href="https://en.cppreference.com/w/cpp/header/type_traits.html" xlink:title=" ">
<polygon fill="white" stroke="black" points="7.9,-56.5 7.9,-75.5 76.9,-75.5 76.9,-56.5 7.9,-56.5"/>
<text text-anchor="middle" x="42.4" y="-63.5" font-family="Helvetica,sans-Serif" font-size="10.00">type_traits</text>
</a>
</g>
</g>
<!-- Node2&#45;&gt;Node3 -->
<g id="edge2" class="edge">
<title>Node2&#45;&gt;Node3</title>
<path fill="none" stroke="midnightblue" d="M70.22,-458.41C52.97,-450.23 33.74,-438.28 21.4,-422 -1.19,-392.19 0.4,-377.91 0.4,-340.5 0.4,-340.5 0.4,-340.5 0.4,-199 0.4,-156.3 20.6,-109.34 32.98,-84.57"/>
<polygon fill="midnightblue" stroke="midnightblue" points="36.1,-86.15 37.58,-75.66 29.88,-82.94 36.1,-86.15"/>
</g>
<!-- Node2&#45;&gt;Node4 -->
<g id="edge3" class="edge">
<title>Node2&#45;&gt;Node4</title>
<path fill="none" stroke="midnightblue" d="M123.85,-458.25C133.42,-448.74 145.38,-435.54 153.4,-422 164.01,-404.09 171.63,-381.67 176.39,-364.89"/>
<polygon fill="midnightblue" stroke="midnightblue" points="179.9,-365.34 179.11,-354.77 173.14,-363.52 179.9,-365.34"/>
</g>
<!-- Node13 -->
<g id="node13" class="node">
<title>Node13</title>
<g id="a_node13"><a xlink:href="type__pack_2traits_8hpp.html" target="_top" xlink:title="Provides various traits for template packs.">
<polygon fill="white" stroke="black" points="30.9,-391.5 30.9,-421.5 143.9,-421.5 143.9,-391.5 30.9,-391.5"/>
<text text-anchor="start" x="38.9" y="-409.5" font-family="Helvetica,sans-Serif" font-size="10.00">bio/meta/type_pack</text>
<text text-anchor="middle" x="87.4" y="-398.5" font-family="Helvetica,sans-Serif" font-size="10.00">/traits.hpp</text>
</a>
</g>
</g>
<!-- Node2&#45;&gt;Node13 -->
<g id="edge14" class="edge">
<title>Node2&#45;&gt;Node13</title>
<path fill="none" stroke="midnightblue" d="M103.84,-458.4C101.28,-450.47 98.02,-440.38 95.08,-431.27"/>
<polygon fill="midnightblue" stroke="midnightblue" points="98.35,-430.02 91.95,-421.58 91.69,-432.17 98.35,-430.02"/>
</g>
<!-- Node5 -->
<g id="node5" class="node">
<title>Node5</title>
<g id="a_node5"><a xlink:href="template__inspection_8hpp.html" target="_top" xlink:title="Provides bio::type_list and auxiliary type traits.">
<polygon fill="white" stroke="black" points="112.4,-257.5 112.4,-287.5 252.4,-287.5 252.4,-257.5 112.4,-257.5"/>
<text text-anchor="start" x="120.4" y="-275.5" font-family="Helvetica,sans-Serif" font-size="10.00">bio/meta/type_traits</text>
<text text-anchor="middle" x="182.4" y="-264.5" font-family="Helvetica,sans-Serif" font-size="10.00">/template_inspection.hpp</text>
</a>
</g>
</g>
<!-- Node4&#45;&gt;Node5 -->
<g id="edge4" class="edge">
<title>Node4&#45;&gt;Node5</title>
<path fill="none" stroke="midnightblue" d="M182.4,-324.4C182.4,-316.64 182.4,-306.81 182.4,-297.86"/>
<polygon fill="midnightblue" stroke="midnightblue" points="185.9,-297.58 182.4,-287.58 178.9,-297.58 185.9,-297.58"/>
</g>
<!-- Node6 -->
<g id="node6" class="node">
<title>Node6</title>
<g id="a_node6"><a xlink:href="transformation__trait__or_8hpp.html" target="_top" xlink:title="Provides bio::detail::transformation_trait_or.">
<polygon fill="white" stroke="black" points="84.4,-179.5 84.4,-220.5 202.4,-220.5 202.4,-179.5 84.4,-179.5"/>
<text text-anchor="start" x="92.4" y="-208.5" font-family="Helvetica,sans-Serif" font-size="10.00">bio/meta/type_traits</text>
<text text-anchor="start" x="92.4" y="-197.5" font-family="Helvetica,sans-Serif" font-size="10.00">/transformation_trait</text>
<text text-anchor="middle" x="143.4" y="-186.5" font-family="Helvetica,sans-Serif" font-size="10.00">_or.hpp</text>
</a>
</g>
</g>
<!-- Node5&#45;&gt;Node6 -->
<g id="edge5" class="edge">
<title>Node5&#45;&gt;Node6</title>
<path fill="none" stroke="midnightblue" d="M174.51,-257.23C170.09,-249.24 164.42,-239 159.13,-229.44"/>
<polygon fill="midnightblue" stroke="midnightblue" points="162.14,-227.64 154.23,-220.59 156.01,-231.03 162.14,-227.64"/>
</g>
<!-- Node12 -->
<g id="node12" class="node">
<title>Node12</title>
<g id="a_node12"><a target="_blank" xlink:href="https://en.cppreference.com/w/cpp/header/concepts.html" xlink:title=" ">
<polygon fill="white" stroke="black" points="220.4,-190.5 220.4,-209.5 280.4,-209.5 280.4,-190.5 220.4,-190.5"/>
<text text-anchor="middle" x="250.4" y="-197.5" font-family="Helvetica,sans-Serif" font-size="10.00">concepts</text>
</a>
</g>
</g>
<!-- Node5&#45;&gt;Node12 -->
<g id="edge13" class="edge">
<title>Node5&#45;&gt;Node12</title>
<path fill="none" stroke="midnightblue" d="M196.16,-257.23C207.37,-245.62 223.18,-229.22 234.85,-217.12"/>
<polygon fill="midnightblue" stroke="midnightblue" points="237.4,-219.52 241.82,-209.89 232.36,-214.66 237.4,-219.52"/>
</g>
<!-- Node6&#45;&gt;Node3 -->
<g id="edge6" class="edge">
<title>Node6&#45;&gt;Node3</title>
<path fill="none" stroke="midnightblue" d="M125.8,-179.44C116.5,-168.87 105.04,-155.45 95.4,-143 80.23,-123.41 64.13,-99.88 53.71,-84.24"/>
<polygon fill="midnightblue" stroke="midnightblue" points="56.45,-82.04 48.01,-75.63 50.61,-85.9 56.45,-82.04"/>
</g>
<!-- Node7 -->
<g id="node7" class="node">
<title>Node7</title>
<g id="a_node7"><a xlink:href="meta_2type__traits_2concept_8hpp.html" target="_top" xlink:title="Provides the concepts bio::transformation_trait and bio::unary_type_trait.">
<polygon fill="white" stroke="black" points="104.4,-112.5 104.4,-142.5 220.4,-142.5 220.4,-112.5 104.4,-112.5"/>
<text text-anchor="start" x="112.4" y="-130.5" font-family="Helvetica,sans-Serif" font-size="10.00">bio/meta/type_traits</text>
<text text-anchor="middle" x="162.4" y="-119.5" font-family="Helvetica,sans-Serif" font-size="10.00">/concept.hpp</text>
</a>
</g>
</g>
<!-- Node6&#45;&gt;Node7 -->
<g id="edge7" class="edge">
<title>Node6&#45;&gt;Node7</title>
<path fill="none" stroke="midnightblue" d="M148.69,-179.36C150.91,-171.14 153.51,-161.49 155.84,-152.82"/>
<polygon fill="midnightblue" stroke="midnightblue" points="159.3,-153.46 158.52,-142.89 152.54,-151.64 159.3,-153.46"/>
</g>
<!-- Node7&#45;&gt;Node3 -->
<g id="edge8" class="edge">
<title>Node7&#45;&gt;Node3</title>
<path fill="none" stroke="midnightblue" d="M133.96,-112.4C114.28,-102.64 88.26,-89.74 68.99,-80.18"/>
<polygon fill="midnightblue" stroke="midnightblue" points="70.37,-76.96 59.86,-75.66 67.26,-83.24 70.37,-76.96"/>
</g>
<!-- Node8 -->
<g id="node8" class="node">
<title>Node8</title>
<g id="a_node8"><a xlink:href="platform_8hpp.html" target="_top" xlink:title="Provides platform and dependency checks.">
<polygon fill="white" stroke="black" points="99.4,-56.5 99.4,-75.5 225.4,-75.5 225.4,-56.5 99.4,-56.5"/>
<text text-anchor="middle" x="162.4" y="-63.5" font-family="Helvetica,sans-Serif" font-size="10.00">bio/meta/platform.hpp</text>
</a>
</g>
</g>
<!-- Node7&#45;&gt;Node8 -->
<g id="edge9" class="edge">
<title>Node7&#45;&gt;Node8</title>
<path fill="none" stroke="midnightblue" d="M162.4,-112.4C162.4,-104.47 162.4,-94.46 162.4,-85.86"/>
<polygon fill="midnightblue" stroke="midnightblue" points="165.9,-85.66 162.4,-75.66 158.9,-85.66 165.9,-85.66"/>
</g>
<!-- Node9 -->
<g id="node9" class="node">
<title>Node9</title>
<g id="a_node9"><a target="_blank" xlink:href="https://en.cppreference.com/w/cpp/header/cinttypes.html" xlink:title=" ">
<polygon fill="white" stroke="black" points="55.4,-0.5 55.4,-19.5 117.4,-19.5 117.4,-0.5 55.4,-0.5"/>
<text text-anchor="middle" x="86.4" y="-7.5" font-family="Helvetica,sans-Serif" font-size="10.00">cinttypes</text>
</a>
</g>
</g>
<!-- Node8&#45;&gt;Node9 -->
<g id="edge10" class="edge">
<title>Node8&#45;&gt;Node9</title>
<path fill="none" stroke="midnightblue" d="M150.19,-56.32C138.62,-48.11 121.02,-35.6 107.24,-25.81"/>
<polygon fill="midnightblue" stroke="midnightblue" points="109.01,-22.77 98.83,-19.83 104.96,-28.48 109.01,-22.77"/>
</g>
<!-- Node10 -->
<g id="node10" class="node">
<title>Node10</title>
<g id="a_node10"><a target="_blank" xlink:href="https://en.cppreference.com/w/cpp/header/ciso646.html" xlink:title=" ">
<polygon fill="white" stroke="black" points="135.4,-0.5 135.4,-19.5 189.4,-19.5 189.4,-0.5 135.4,-0.5"/>
<text text-anchor="middle" x="162.4" y="-7.5" font-family="Helvetica,sans-Serif" font-size="10.00">ciso646</text>
</a>
</g>
</g>
<!-- Node8&#45;&gt;Node10 -->
<g id="edge11" class="edge">
<title>Node8&#45;&gt;Node10</title>
<path fill="none" stroke="midnightblue" d="M162.4,-56.08C162.4,-49.01 162.4,-38.86 162.4,-29.99"/>
<polygon fill="midnightblue" stroke="midnightblue" points="165.9,-29.75 162.4,-19.75 158.9,-29.75 165.9,-29.75"/>
</g>
<!-- Node11 -->
<g id="node11" class="node">
<title>Node11</title>
<g id="a_node11"><a target="_blank" xlink:href="https://en.cppreference.com/w/cpp/header/cstddef.html" xlink:title=" ">
<polygon fill="white" stroke="black" points="207.9,-0.5 207.9,-19.5 260.9,-19.5 260.9,-0.5 207.9,-0.5"/>
<text text-anchor="middle" x="234.4" y="-7.5" font-family="Helvetica,sans-Serif" font-size="10.00">cstddef</text>
</a>
</g>
</g>
<!-- Node8&#45;&gt;Node11 -->
<g id="edge12" class="edge">
<title>Node8&#45;&gt;Node11</title>
<path fill="none" stroke="midnightblue" d="M173.97,-56.32C184.82,-48.18 201.28,-35.84 214.28,-26.09"/>
<polygon fill="midnightblue" stroke="midnightblue" points="216.72,-28.63 222.62,-19.83 212.52,-23.03 216.72,-28.63"/>
</g>
<!-- Node13&#45;&gt;Node3 -->
<g id="edge15" class="edge">
<title>Node13&#45;&gt;Node3</title>
<path fill="none" stroke="midnightblue" d="M77.22,-391.1C70.72,-381.31 62.58,-367.87 57.4,-355 43.51,-320.49 38.4,-310.69 38.4,-273.5 38.4,-273.5 38.4,-273.5 38.4,-199 38.4,-158.64 40.29,-111.37 41.47,-85.78"/>
<polygon fill="midnightblue" stroke="midnightblue" points="44.97,-85.8 41.95,-75.65 37.98,-85.47 44.97,-85.8"/>
</g>
<!-- Node13&#45;&gt;Node4 -->
<g id="edge17" class="edge">
<title>Node13&#45;&gt;Node4</title>
<path fill="none" stroke="midnightblue" d="M108.01,-391.4C121.33,-382.28 138.86,-370.29 153.55,-360.24"/>
<polygon fill="midnightblue" stroke="midnightblue" points="155.55,-363.11 161.82,-354.58 151.6,-357.33 155.55,-363.11"/>
</g>
<!-- Node14 -->
<g id="node14" class="node">
<title>Node14</title>
<g id="a_node14"><a target="_blank" xlink:href="https://en.cppreference.com/w/cpp/header/utility.html" xlink:title=" ">
<polygon fill="white" stroke="black" points="66.9,-330 66.9,-349 111.9,-349 111.9,-330 66.9,-330"/>
<text text-anchor="middle" x="89.4" y="-337" font-family="Helvetica,sans-Serif" font-size="10.00">utility</text>
</a>
</g>
</g>
<!-- Node13&#45;&gt;Node14 -->
<g id="edge16" class="edge">
<title>Node13&#45;&gt;Node14</title>
<path fill="none" stroke="midnightblue" d="M87.83,-391.4C88.12,-382.06 88.5,-369.71 88.81,-359.52"/>
<polygon fill="midnightblue" stroke="midnightblue" points="92.32,-359.3 89.13,-349.19 85.32,-359.08 92.32,-359.3"/>
</g>
</g>
</svg>
