<?xml version="1.0" encoding="UTF-8" standalone="no"?>
<!DOCTYPE svg PUBLIC "-//W3C//DTD SVG 1.1//EN"
 "http://www.w3.org/Graphics/SVG/1.1/DTD/svg11.dtd">
<!-- Generated by graphviz version 2.43.0 (0)
 -->
<!-- Title: bio/meta/type_list/all.hpp Pages: 1 -->
<svg width="327pt" height="555pt"
 viewBox="0.00 0.00 327.00 555.00" xmlns="http://www.w3.org/2000/svg" xmlns:xlink="http://www.w3.org/1999/xlink">
<g id="graph0" class="graph" transform="scale(1 1) rotate(0) translate(4 551)">
<title>bio/meta/type_list/all.hpp</title>
<!-- Node1 -->
<g id="node1" class="node">
<title>Node1</title>
<g id="a_node1"><a xlink:title="Meta&#45;header for the Utility / Type List submodule .">
<polygon fill="#999999" stroke="#666666" points="183,-547 89,-547 89,-517 183,-517 183,-547"/>
<text text-anchor="start" x="97" y="-535" font-family="Helvetica,sans-Serif" font-size="10.00">bio/meta/type_list</text>
<text text-anchor="middle" x="136" y="-524" font-family="Helvetica,sans-Serif" font-size="10.00">/all.hpp</text>
</a>
</g>
</g>
<!-- Node2 -->
<g id="node2" class="node">
<title>Node2</title>
<g id="a_node2"><a xlink:href="traits_8hpp.html" target="_top" xlink:title="Provides traits for meta::type_list.">
<polygon fill="white" stroke="#666666" points="146,-481 52,-481 52,-451 146,-451 146,-481"/>
<text text-anchor="start" x="60" y="-469" font-family="Helvetica,sans-Serif" font-size="10.00">bio/meta/type_list</text>
<text text-anchor="middle" x="99" y="-458" font-family="Helvetica,sans-Serif" font-size="10.00">/traits.hpp</text>
</a>
</g>
</g>
<!-- Node1&#45;&gt;Node2 -->
<g id="edge1" class="edge">
<title>Node1&#45;&gt;Node2</title>
<path fill="none" stroke="#63b8ff" d="M127.79,-516.8C123.24,-508.92 117.47,-498.95 112.29,-489.99"/>
<polygon fill="#63b8ff" stroke="#63b8ff" points="115.22,-488.07 107.19,-481.16 109.16,-491.57 115.22,-488.07"/>
</g>
<!-- Node6 -->
<g id="node6" class="node">
<title>Node6</title>
<g id="a_node6"><a xlink:href="type__list_8hpp.html" target="_top" xlink:title="Provides bio::meta::type_list.">
<polygon fill="white" stroke="#666666" points="218,-349 124,-349 124,-319 218,-319 218,-349"/>
<text text-anchor="start" x="132" y="-337" font-family="Helvetica,sans-Serif" font-size="10.00">bio/meta/type_list</text>
<text text-anchor="middle" x="171" y="-326" font-family="Helvetica,sans-Serif" font-size="10.00">/type_list.hpp</text>
</a>
</g>
</g>
<!-- Node1&#45;&gt;Node6 -->
<g id="edge19" class="edge">
<title>Node1&#45;&gt;Node6</title>
<path fill="none" stroke="#63b8ff" d="M142.48,-516.87C146.71,-507.02 152,-493.46 155,-481 165.1,-439.01 168.84,-388.68 170.21,-359.42"/>
<polygon fill="#63b8ff" stroke="#63b8ff" points="173.72,-359.44 170.63,-349.3 166.72,-359.15 173.72,-359.44"/>
</g>
<!-- Node3 -->
<g id="node3" class="node">
<title>Node3</title>
<g id="a_node3"><a target="_blank" xlink:href="https://en.cppreference.com/w/cpp/header/type_traits.html" xlink:title=" ">
<polygon fill="white" stroke="#666666" points="96,-74 34,-74 34,-55 96,-55 96,-74"/>
<text text-anchor="middle" x="65" y="-62" font-family="Helvetica,sans-Serif" font-size="10.00">type_traits</text>
</a>
</g>
</g>
<!-- Node2&#45;&gt;Node3 -->
<g id="edge2" class="edge">
<title>Node2&#45;&gt;Node3</title>
<path fill="none" stroke="#63b8ff" d="M68.2,-450.86C52.92,-442.42 35.36,-430.35 24,-415 1.92,-385.16 0,-372.12 0,-335 0,-335 0,-335 0,-195.5 0,-150.75 31.19,-105.61 50.36,-82.1"/>
<polygon fill="#63b8ff" stroke="#63b8ff" points="53.26,-84.1 57.03,-74.2 47.91,-79.58 53.26,-84.1"/>
</g>
<!-- Node4 -->
<g id="node4" class="node">
<title>Node4</title>
<g id="a_node4"><a xlink:href="traits__detail_8hpp.html" target="_top" xlink:title="Provides various traits for template packs.">
<polygon fill="white" stroke="#666666" points="127,-415 33,-415 33,-385 127,-385 127,-415"/>
<text text-anchor="start" x="41" y="-403" font-family="Helvetica,sans-Serif" font-size="10.00">bio/meta/type_list</text>
<text text-anchor="middle" x="80" y="-392" font-family="Helvetica,sans-Serif" font-size="10.00">/traits_detail.hpp</text>
</a>
</g>
</g>
<!-- Node2&#45;&gt;Node4 -->
<g id="edge3" class="edge">
<title>Node2&#45;&gt;Node4</title>
<path fill="none" stroke="#63b8ff" d="M94.78,-450.8C92.52,-443.17 89.67,-433.57 87.08,-424.84"/>
<polygon fill="#63b8ff" stroke="#63b8ff" points="90.41,-423.75 84.2,-415.16 83.7,-425.75 90.41,-423.75"/>
</g>
<!-- Node2&#45;&gt;Node6 -->
<g id="edge18" class="edge">
<title>Node2&#45;&gt;Node6</title>
<path fill="none" stroke="#63b8ff" d="M110.92,-450.72C118.66,-441.03 128.64,-427.71 136,-415 146.47,-396.92 155.81,-375.12 162.2,-358.85"/>
<polygon fill="#63b8ff" stroke="#63b8ff" points="165.65,-359.64 165.96,-349.05 159.11,-357.13 165.65,-359.64"/>
</g>
<!-- Node4&#45;&gt;Node3 -->
<g id="edge4" class="edge">
<title>Node4&#45;&gt;Node3</title>
<path fill="none" stroke="#63b8ff" d="M72.1,-384.67C59.93,-361.23 38,-312.88 38,-269 38,-269 38,-269 38,-195.5 38,-154.94 50.76,-108.72 58.73,-83.78"/>
<polygon fill="#63b8ff" stroke="#63b8ff" points="62.09,-84.79 61.9,-74.2 55.44,-82.59 62.09,-84.79"/>
</g>
<!-- Node5 -->
<g id="node5" class="node">
<title>Node5</title>
<g id="a_node5"><a target="_blank" xlink:href="https://en.cppreference.com/w/cpp/header/utility.html" xlink:title=" ">
<polygon fill="white" stroke="#666666" points="106,-343.5 66,-343.5 66,-324.5 106,-324.5 106,-343.5"/>
<text text-anchor="middle" x="86" y="-331.5" font-family="Helvetica,sans-Serif" font-size="10.00">utility</text>
</a>
</g>
</g>
<!-- Node4&#45;&gt;Node5 -->
<g id="edge5" class="edge">
<title>Node4&#45;&gt;Node5</title>
<path fill="none" stroke="#63b8ff" d="M81.33,-384.8C82.18,-375.7 83.3,-363.79 84.23,-353.9"/>
<polygon fill="#63b8ff" stroke="#63b8ff" points="87.72,-354.13 85.17,-343.84 80.75,-353.47 87.72,-354.13"/>
</g>
<!-- Node4&#45;&gt;Node6 -->
<g id="edge6" class="edge">
<title>Node4&#45;&gt;Node6</title>
<path fill="none" stroke="#63b8ff" d="M100.2,-384.8C112.68,-376.01 128.9,-364.61 142.66,-354.93"/>
<polygon fill="#63b8ff" stroke="#63b8ff" points="144.69,-357.78 150.86,-349.16 140.67,-352.05 144.69,-357.78"/>
</g>
<!-- Node7 -->
<g id="node7" class="node">
<title>Node7</title>
<g id="a_node7"><a xlink:href="template__inspection_8hpp.html" target="_top" xlink:title="Provides various traits to inspect templates.">
<polygon fill="white" stroke="#666666" points="233.5,-283 108.5,-283 108.5,-253 233.5,-253 233.5,-283"/>
<text text-anchor="start" x="116.5" y="-271" font-family="Helvetica,sans-Serif" font-size="10.00">bio/meta/type_traits</text>
<text text-anchor="middle" x="171" y="-260" font-family="Helvetica,sans-Serif" font-size="10.00">/template_inspection.hpp</text>
</a>
</g>
</g>
<!-- Node6&#45;&gt;Node7 -->
<g id="edge7" class="edge">
<title>Node6&#45;&gt;Node7</title>
<path fill="none" stroke="#63b8ff" d="M171,-318.8C171,-311.34 171,-301.99 171,-293.41"/>
<polygon fill="#63b8ff" stroke="#63b8ff" points="174.5,-293.16 171,-283.16 167.5,-293.16 174.5,-293.16"/>
</g>
<!-- Node8 -->
<g id="node8" class="node">
<title>Node8</title>
<g id="a_node8"><a target="_blank" xlink:href="https://en.cppreference.com/w/cpp/header/concepts.html" xlink:title=" ">
<polygon fill="white" stroke="#666666" points="122,-206 66,-206 66,-187 122,-187 122,-206"/>
<text text-anchor="middle" x="94" y="-194" font-family="Helvetica,sans-Serif" font-size="10.00">concepts</text>
</a>
</g>
</g>
<!-- Node7&#45;&gt;Node8 -->
<g id="edge8" class="edge">
<title>Node7&#45;&gt;Node8</title>
<path fill="none" stroke="#63b8ff" d="M155.42,-252.94C142.61,-241.37 124.48,-225.01 111.23,-213.06"/>
<polygon fill="#63b8ff" stroke="#63b8ff" points="113.48,-210.37 103.71,-206.27 108.79,-215.57 113.48,-210.37"/>
</g>
<!-- Node9 -->
<g id="node9" class="node">
<title>Node9</title>
<g id="a_node9"><a xlink:href="transformation__trait__or_8hpp.html" target="_top" xlink:title="Provides bio::meta::transformation_trait_or.">
<polygon fill="white" stroke="#666666" points="244,-217 140,-217 140,-176 244,-176 244,-217"/>
<text text-anchor="start" x="148" y="-205" font-family="Helvetica,sans-Serif" font-size="10.00">bio/meta/type_traits</text>
<text text-anchor="start" x="148" y="-194" font-family="Helvetica,sans-Serif" font-size="10.00">/transformation_trait</text>
<text text-anchor="middle" x="192" y="-183" font-family="Helvetica,sans-Serif" font-size="10.00">_or.hpp</text>
</a>
</g>
</g>
<!-- Node7&#45;&gt;Node9 -->
<g id="edge9" class="edge">
<title>Node7&#45;&gt;Node9</title>
<path fill="none" stroke="#63b8ff" d="M175.25,-252.94C177.51,-245.44 180.39,-235.93 183.11,-226.91"/>
<polygon fill="#63b8ff" stroke="#63b8ff" points="186.54,-227.66 186.09,-217.07 179.84,-225.63 186.54,-227.66"/>
</g>
<!-- Node9&#45;&gt;Node3 -->
<g id="edge10" class="edge">
<title>Node9&#45;&gt;Node3</title>
<path fill="none" stroke="#63b8ff" d="M160.14,-175.81C145.75,-166.06 129.08,-153.49 116,-140 99.19,-122.67 84.15,-99.22 74.83,-83.29"/>
<polygon fill="#63b8ff" stroke="#63b8ff" points="77.79,-81.43 69.8,-74.47 71.71,-84.89 77.79,-81.43"/>
</g>
<!-- Node10 -->
<g id="node10" class="node">
<title>Node10</title>
<g id="a_node10"><a xlink:href="meta_2type__traits_2concept_8hpp.html" target="_top" xlink:title="Provides the concepts bio::meta::transformation_trait and bio::meta::unary_type_trait.">
<polygon fill="white" stroke="#666666" points="227.5,-140 124.5,-140 124.5,-110 227.5,-110 227.5,-140"/>
<text text-anchor="start" x="132.5" y="-128" font-family="Helvetica,sans-Serif" font-size="10.00">bio/meta/type_traits</text>
<text text-anchor="middle" x="176" y="-117" font-family="Helvetica,sans-Serif" font-size="10.00">/concept.hpp</text>
</a>
</g>
</g>
<!-- Node9&#45;&gt;Node10 -->
<g id="edge11" class="edge">
<title>Node9&#45;&gt;Node10</title>
<path fill="none" stroke="#63b8ff" d="M187.46,-175.77C185.61,-167.76 183.46,-158.42 181.53,-150.02"/>
<polygon fill="#63b8ff" stroke="#63b8ff" points="184.89,-149 179.23,-140.04 178.06,-150.57 184.89,-149"/>
</g>
<!-- Node10&#45;&gt;Node3 -->
<g id="edge12" class="edge">
<title>Node10&#45;&gt;Node3</title>
<path fill="none" stroke="#63b8ff" d="M149.41,-109.99C131.55,-100.58 108.16,-88.24 90.52,-78.95"/>
<polygon fill="#63b8ff" stroke="#63b8ff" points="91.87,-75.71 81.39,-74.14 88.61,-81.9 91.87,-75.71"/>
</g>
<!-- Node11 -->
<g id="node11" class="node">
<title>Node11</title>
<g id="a_node11"><a xlink:href="core_8hpp.html" target="_top" xlink:title="Provides platform and dependency checks.">
<polygon fill="white" stroke="#666666" points="211,-74 141,-74 141,-55 211,-55 211,-74"/>
<text text-anchor="middle" x="176" y="-62" font-family="Helvetica,sans-Serif" font-size="10.00">bio/core.hpp</text>
</a>
</g>
</g>
<!-- Node10&#45;&gt;Node11 -->
<g id="edge13" class="edge">
<title>Node10&#45;&gt;Node11</title>
<path fill="none" stroke="#63b8ff" d="M176,-109.84C176,-102.21 176,-92.7 176,-84.45"/>
<polygon fill="#63b8ff" stroke="#63b8ff" points="179.5,-84.27 176,-74.27 172.5,-84.27 179.5,-84.27"/>
</g>
<!-- Node12 -->
<g id="node12" class="node">
<title>Node12</title>
<g id="a_node12"><a target="_blank" xlink:href="https://en.cppreference.com/w/cpp/header/cinttypes.html" xlink:title=" ">
<polygon fill="white" stroke="#666666" points="99,-19 43,-19 43,0 99,0 99,-19"/>
<text text-anchor="middle" x="71" y="-7" font-family="Helvetica,sans-Serif" font-size="10.00">cinttypes</text>
</a>
</g>
</g>
<!-- Node11&#45;&gt;Node12 -->
<g id="edge14" class="edge">
<title>Node11&#45;&gt;Node12</title>
<path fill="none" stroke="#63b8ff" d="M159.13,-54.98C142.39,-46.54 116.5,-33.47 97.11,-23.68"/>
<polygon fill="#63b8ff" stroke="#63b8ff" points="98.68,-20.55 88.18,-19.17 95.53,-26.8 98.68,-20.55"/>
</g>
<!-- Node13 -->
<g id="node13" class="node">
<title>Node13</title>
<g id="a_node13"><a target="_blank" xlink:href="https://en.cppreference.com/w/cpp/header/ciso646.html" xlink:title=" ">
<polygon fill="white" stroke="#666666" points="167,-19 117,-19 117,0 167,0 167,-19"/>
<text text-anchor="middle" x="142" y="-7" font-family="Helvetica,sans-Serif" font-size="10.00">ciso646</text>
</a>
</g>
</g>
<!-- Node11&#45;&gt;Node13 -->
<g id="edge15" class="edge">
<title>Node11&#45;&gt;Node13</title>
<path fill="none" stroke="#63b8ff" d="M170.39,-54.75C165.68,-47.42 158.83,-36.73 153.03,-27.7"/>
<polygon fill="#63b8ff" stroke="#63b8ff" points="155.86,-25.62 147.51,-19.09 149.96,-29.4 155.86,-25.62"/>
</g>
<!-- Node14 -->
<g id="node14" class="node">
<title>Node14</title>
<g id="a_node14"><a target="_blank" xlink:href="https://en.cppreference.com/w/cpp/header/cstddef.html" xlink:title=" ">
<polygon fill="white" stroke="#666666" points="234.5,-19 185.5,-19 185.5,0 234.5,0 234.5,-19"/>
<text text-anchor="middle" x="210" y="-7" font-family="Helvetica,sans-Serif" font-size="10.00">cstddef</text>
</a>
</g>
</g>
<!-- Node11&#45;&gt;Node14 -->
<g id="edge16" class="edge">
<title>Node11&#45;&gt;Node14</title>
<path fill="none" stroke="#63b8ff" d="M181.61,-54.75C186.32,-47.42 193.17,-36.73 198.97,-27.7"/>
<polygon fill="#63b8ff" stroke="#63b8ff" points="202.04,-29.4 204.49,-19.09 196.14,-25.62 202.04,-29.4"/>
</g>
<!-- Node15 -->
<g id="node15" class="node">
<title>Node15</title>
<g id="a_node15"><a target="_blank" xlink:href="https://en.cppreference.com/w/cpp/header/string_view.html" xlink:title=" ">
<polygon fill="white" stroke="#666666" points="319,-19 253,-19 253,0 319,0 319,-19"/>
<text text-anchor="middle" x="286" y="-7" font-family="Helvetica,sans-Serif" font-size="10.00">string_view</text>
</a>
</g>
</g>
<!-- Node11&#45;&gt;Node15 -->
<g id="edge17" class="edge">
<title>Node11&#45;&gt;Node15</title>
<path fill="none" stroke="#63b8ff" d="M193.67,-54.98C211.29,-46.5 238.58,-33.35 258.93,-23.54"/>
<polygon fill="#63b8ff" stroke="#63b8ff" points="260.52,-26.66 268.01,-19.17 257.48,-20.36 260.52,-26.66"/>
</g>
</g>
</svg>
