<?xml version="1.0" encoding="UTF-8" standalone="no"?>
<!DOCTYPE svg PUBLIC "-//W3C//DTD SVG 1.1//EN"
 "http://www.w3.org/Graphics/SVG/1.1/DTD/svg11.dtd">
<!-- Generated by graphviz version 2.43.0 (0)
 -->
<!-- Title: bio/meta/all.hpp Pages: 1 -->
<!--zoomable 709 -->
<svg id="main" version="1.1" xmlns="http://www.w3.org/2000/svg" xmlns:xlink="http://www.w3.org/1999/xlink" xml:space="preserve" onload="init(evt)">
<style type="text/css"><![CDATA[
.edge:hover path { stroke: red; }
.edge:hover polygon { stroke: red; fill: red; }
]]></style>
<script type="text/javascript"><![CDATA[
var edges = document.getElementsByTagName('g');
if (edges && edges.length) {
  for (var i=0;i<edges.length;i++) {
    if (edges[i].id.substr(0,4)=='edge') {
      edges[i].setAttribute('class','edge');
    }
  }
}
]]></script>
        <defs>
                <circle id="rim" cx="0" cy="0" r="7"/>
                <circle id="rim2" cx="0" cy="0" r="3.5"/>
                <g id="zoomPlus">
                        <use xlink:href="#rim" fill="#404040">
                                <set attributeName="fill" to="#808080" begin="zoomplus.mouseover" end="zoomplus.mouseout"/>
                        </use>
                        <path d="M-4,0h8M0,-4v8" fill="none" stroke="white" stroke-width="1.5" pointer-events="none"/>
                </g>
                <g id="zoomMin">
                        <use xlink:href="#rim" fill="#404040">
                                <set attributeName="fill" to="#808080" begin="zoomminus.mouseover" end="zoomminus.mouseout"/>
                        </use>
                        <path d="M-4,0h8" fill="none" stroke="white" stroke-width="1.5" pointer-events="none"/>
                </g>
                <g id="dirArrow">
                        <path fill="none" stroke="white" stroke-width="1.5" d="M0,-3.0v7 M-2.5,-0.5L0,-3.0L2.5,-0.5"/>
                </g>
               <g id="resetDef">
                       <use xlink:href="#rim2" fill="#404040">
                               <set attributeName="fill" to="#808080" begin="reset.mouseover" end="reset.mouseout"/>
                       </use>
               </g>
        </defs>

<script type="text/javascript">
var viewWidth = 1058;
var viewHeight = 709;
var sectionId = 'dynsection-0';
</script>
<script xlink:href="svgpan.js"/>
<svg id="graph" class="graph">
<g id="viewport">
<title>bio/meta/all.hpp</title>
<!-- Node1 -->
<g id="node1" class="node">
<title>Node1</title>
<g id="a_node1"><a xlink:title="Meta&#45;header for the meta module .">
<polygon fill="#999999" stroke="#666666" points="596,-701 510,-701 510,-682 596,-682 596,-701"/>
<text text-anchor="middle" x="553" y="-689" font-family="Helvetica,sans-Serif" font-size="10.00">bio/meta/all.hpp</text>
</a>
</g>
</g>
<!-- Node2 -->
<g id="node2" class="node">
<title>Node2</title>
<g id="a_node2"><a xlink:href="core_8hpp.html" target="_top" xlink:title="Provides platform and dependency checks.">
<polygon fill="white" stroke="#666666" points="711,-74 641,-74 641,-55 711,-55 711,-74"/>
<text text-anchor="middle" x="676" y="-62" font-family="Helvetica,sans-Serif" font-size="10.00">bio/core.hpp</text>
</a>
</g>
</g>
<!-- Node1&#45;&gt;Node2 -->
<g id="edge1" class="edge">
<title>Node1&#45;&gt;Node2</title>
<path fill="none" stroke="#63b8ff" d="M596.24,-690.26C717.15,-688.43 1050,-674.99 1050,-582.5 1050,-582.5 1050,-582.5 1050,-195.5 1050,-126.62 820.8,-85.91 721.25,-71.48"/>
<polygon fill="#63b8ff" stroke="#63b8ff" points="721.58,-68 711.19,-70.05 720.59,-74.93 721.58,-68"/>
</g>
<!-- Node7 -->
<g id="node7" class="node">
<title>Node7</title>
<g id="a_node7"><a xlink:href="meta_2concept_2all_8hpp.html" target="_top" xlink:title="Meta&#45;include for custom concepts.">
<polygon fill="white" stroke="#666666" points="390.5,-646 267.5,-646 267.5,-627 390.5,-627 390.5,-646"/>
<text text-anchor="middle" x="329" y="-634" font-family="Helvetica,sans-Serif" font-size="10.00">bio/meta/concept/all.hpp</text>
</a>
</g>
</g>
<!-- Node1&#45;&gt;Node7 -->
<g id="edge6" class="edge">
<title>Node1&#45;&gt;Node7</title>
<path fill="none" stroke="#63b8ff" d="M517.01,-681.98C478.51,-672.87 417.31,-658.4 375.26,-648.45"/>
<polygon fill="#63b8ff" stroke="#63b8ff" points="375.81,-644.98 365.27,-646.08 374.2,-651.79 375.81,-644.98"/>
</g>
<!-- Node13 -->
<g id="node13" class="node">
<title>Node13</title>
<g id="a_node13"><a xlink:href="pod__tuple_8hpp.html" target="_top" xlink:title="Provides bio::meta::pod_tuple.">
<polygon fill="white" stroke="#666666" points="532,-536 414,-536 414,-517 532,-517 532,-536"/>
<text text-anchor="middle" x="473" y="-524" font-family="Helvetica,sans-Serif" font-size="10.00">bio/meta/pod_tuple.hpp</text>
</a>
</g>
</g>
<!-- Node1&#45;&gt;Node13 -->
<g id="edge50" class="edge">
<title>Node1&#45;&gt;Node13</title>
<path fill="none" stroke="#63b8ff" d="M548.7,-681.74C536.06,-655.98 498.83,-580.13 481.75,-545.33"/>
<polygon fill="#63b8ff" stroke="#63b8ff" points="484.87,-543.74 477.32,-536.31 478.59,-546.83 484.87,-543.74"/>
</g>
<!-- Node18 -->
<g id="node18" class="node">
<title>Node18</title>
<g id="a_node18"><a xlink:href="type__list_8hpp.html" target="_top" xlink:title="Provides bio::meta::type_list.">
<polygon fill="white" stroke="#666666" points="510,-349 416,-349 416,-319 510,-319 510,-349"/>
<text text-anchor="start" x="424" y="-337" font-family="Helvetica,sans-Serif" font-size="10.00">bio/meta/type_list</text>
<text text-anchor="middle" x="463" y="-326" font-family="Helvetica,sans-Serif" font-size="10.00">/type_list.hpp</text>
</a>
</g>
</g>
<!-- Node1&#45;&gt;Node18 -->
<g id="edge56" class="edge">
<title>Node1&#45;&gt;Node18</title>
<path fill="none" stroke="#63b8ff" d="M554.12,-681.95C557.94,-649.4 567.92,-531.02 523,-451 512.23,-431.81 500.23,-433.93 489,-415 478.67,-397.59 471.9,-375.57 467.87,-359.05"/>
<polygon fill="#63b8ff" stroke="#63b8ff" points="471.23,-358.06 465.6,-349.08 464.41,-359.61 471.23,-358.06"/>
</g>
<!-- Node23 -->
<g id="node23" class="node">
<title>Node23</title>
<g id="a_node23"><a xlink:href="meta_2detail_2all_8hpp.html" target="_top" xlink:title="Meta&#45;header for implementation details in the core module.">
<polygon fill="white" stroke="#666666" points="789,-343.5 677,-343.5 677,-324.5 789,-324.5 789,-343.5"/>
<text text-anchor="middle" x="733" y="-331.5" font-family="Helvetica,sans-Serif" font-size="10.00">bio/meta/detail/all.hpp</text>
</a>
</g>
</g>
<!-- Node1&#45;&gt;Node23 -->
<g id="edge38" class="edge">
<title>Node1&#45;&gt;Node23</title>
<path fill="none" stroke="#63b8ff" d="M596.25,-689.64C632.32,-686.61 682.71,-676.64 714,-646 735.05,-625.39 733,-611.96 733,-582.5 733,-582.5 733,-582.5 733,-465 733,-425.45 733,-379.13 733,-353.84"/>
<polygon fill="#63b8ff" stroke="#63b8ff" points="736.5,-353.52 733,-343.52 729.5,-353.52 736.5,-353.52"/>
</g>
<!-- Node31 -->
<g id="node31" class="node">
<title>Node31</title>
<g id="a_node31"><a xlink:href="tuple__utility_8hpp.html" target="_top" xlink:title="Provides utility functions for tuple like interfaces.">
<polygon fill="white" stroke="#666666" points="705,-646 581,-646 581,-627 705,-627 705,-646"/>
<text text-anchor="middle" x="643" y="-634" font-family="Helvetica,sans-Serif" font-size="10.00">bio/meta/tuple_utility.hpp</text>
</a>
</g>
</g>
<!-- Node1&#45;&gt;Node31 -->
<g id="edge51" class="edge">
<title>Node1&#45;&gt;Node31</title>
<path fill="none" stroke="#63b8ff" d="M567.46,-681.98C581.42,-673.77 602.79,-661.18 619.25,-651.49"/>
<polygon fill="#63b8ff" stroke="#63b8ff" points="621.44,-654.26 628.28,-646.17 617.88,-648.23 621.44,-654.26"/>
</g>
<!-- Node32 -->
<g id="node32" class="node">
<title>Node32</title>
<g id="a_node32"><a xlink:href="meta_2type__traits_2all_8hpp.html" target="_top" xlink:title="Provides various type traits.">
<polygon fill="white" stroke="#666666" points="207.5,-415 104.5,-415 104.5,-385 207.5,-385 207.5,-415"/>
<text text-anchor="start" x="112.5" y="-403" font-family="Helvetica,sans-Serif" font-size="10.00">bio/meta/type_traits</text>
<text text-anchor="middle" x="156" y="-392" font-family="Helvetica,sans-Serif" font-size="10.00">/all.hpp</text>
</a>
</g>
</g>
<!-- Node1&#45;&gt;Node32 -->
<g id="edge57" class="edge">
<title>Node1&#45;&gt;Node32</title>
<path fill="none" stroke="#63b8ff" d="M509.71,-689.02C398.95,-684.06 114,-663.44 114,-582.5 114,-582.5 114,-582.5 114,-525.5 114,-488.61 130.76,-448.64 143.11,-424.21"/>
<polygon fill="#63b8ff" stroke="#63b8ff" points="146.37,-425.53 147.9,-415.04 140.16,-422.28 146.37,-425.53"/>
</g>
<!-- Node3 -->
<g id="node3" class="node">
<title>Node3</title>
<g id="a_node3"><a target="_blank" xlink:href="https://en.cppreference.com/w/cpp/header/cinttypes.html" xlink:title=" ">
<polygon fill="white" stroke="#666666" points="599,-19 543,-19 543,0 599,0 599,-19"/>
<text text-anchor="middle" x="571" y="-7" font-family="Helvetica,sans-Serif" font-size="10.00">cinttypes</text>
</a>
</g>
</g>
<!-- Node2&#45;&gt;Node3 -->
<g id="edge2" class="edge">
<title>Node2&#45;&gt;Node3</title>
<path fill="none" stroke="#63b8ff" d="M659.13,-54.98C642.39,-46.54 616.5,-33.47 597.11,-23.68"/>
<polygon fill="#63b8ff" stroke="#63b8ff" points="598.68,-20.55 588.18,-19.17 595.53,-26.8 598.68,-20.55"/>
</g>
<!-- Node4 -->
<g id="node4" class="node">
<title>Node4</title>
<g id="a_node4"><a target="_blank" xlink:href="https://en.cppreference.com/w/cpp/header/ciso646.html" xlink:title=" ">
<polygon fill="white" stroke="#666666" points="667,-19 617,-19 617,0 667,0 667,-19"/>
<text text-anchor="middle" x="642" y="-7" font-family="Helvetica,sans-Serif" font-size="10.00">ciso646</text>
</a>
</g>
</g>
<!-- Node2&#45;&gt;Node4 -->
<g id="edge3" class="edge">
<title>Node2&#45;&gt;Node4</title>
<path fill="none" stroke="#63b8ff" d="M670.39,-54.75C665.68,-47.42 658.83,-36.73 653.03,-27.7"/>
<polygon fill="#63b8ff" stroke="#63b8ff" points="655.86,-25.62 647.51,-19.09 649.96,-29.4 655.86,-25.62"/>
</g>
<!-- Node5 -->
<g id="node5" class="node">
<title>Node5</title>
<g id="a_node5"><a target="_blank" xlink:href="https://en.cppreference.com/w/cpp/header/cstddef.html" xlink:title=" ">
<polygon fill="white" stroke="#666666" points="734.5,-19 685.5,-19 685.5,0 734.5,0 734.5,-19"/>
<text text-anchor="middle" x="710" y="-7" font-family="Helvetica,sans-Serif" font-size="10.00">cstddef</text>
</a>
</g>
</g>
<!-- Node2&#45;&gt;Node5 -->
<g id="edge4" class="edge">
<title>Node2&#45;&gt;Node5</title>
<path fill="none" stroke="#63b8ff" d="M681.61,-54.75C686.32,-47.42 693.17,-36.73 698.97,-27.7"/>
<polygon fill="#63b8ff" stroke="#63b8ff" points="702.04,-29.4 704.49,-19.09 696.14,-25.62 702.04,-29.4"/>
</g>
<!-- Node6 -->
<g id="node6" class="node">
<title>Node6</title>
<g id="a_node6"><a target="_blank" xlink:href="https://en.cppreference.com/w/cpp/header/string_view.html" xlink:title=" ">
<polygon fill="white" stroke="#666666" points="819,-19 753,-19 753,0 819,0 819,-19"/>
<text text-anchor="middle" x="786" y="-7" font-family="Helvetica,sans-Serif" font-size="10.00">string_view</text>
</a>
</g>
</g>
<!-- Node2&#45;&gt;Node6 -->
<g id="edge5" class="edge">
<title>Node2&#45;&gt;Node6</title>
<path fill="none" stroke="#63b8ff" d="M693.67,-54.98C711.29,-46.5 738.58,-33.35 758.93,-23.54"/>
<polygon fill="#63b8ff" stroke="#63b8ff" points="760.52,-26.66 768.01,-19.17 757.48,-20.36 760.52,-26.66"/>
</g>
<!-- Node8 -->
<g id="node8" class="node">
<title>Node8</title>
<g id="a_node8"><a xlink:href="core__language_8hpp.html" target="_top" xlink:title="Provides concepts for core language types and relations that don&#39;t have concepts in C++20 (yet).">
<polygon fill="white" stroke="#666666" points="245.5,-283 132.5,-283 132.5,-253 245.5,-253 245.5,-283"/>
<text text-anchor="start" x="140.5" y="-271" font-family="Helvetica,sans-Serif" font-size="10.00">bio/meta/concept/core</text>
<text text-anchor="middle" x="189" y="-260" font-family="Helvetica,sans-Serif" font-size="10.00">_language.hpp</text>
</a>
</g>
</g>
<!-- Node7&#45;&gt;Node8 -->
<g id="edge7" class="edge">
<title>Node7&#45;&gt;Node8</title>
<path fill="none" stroke="#63b8ff" d="M284.06,-626.95C211.36,-610.23 76,-565.82 76,-467 76,-467 76,-467 76,-399 76,-362.35 73.49,-347.93 96,-319 106.53,-305.46 121.79,-295.14 136.92,-287.49"/>
<polygon fill="#63b8ff" stroke="#63b8ff" points="138.73,-290.51 146.27,-283.07 135.73,-284.18 138.73,-290.51"/>
</g>
<!-- Node11 -->
<g id="node11" class="node">
<title>Node11</title>
<g id="a_node11"><a xlink:href="tuple_8hpp.html" target="_top" xlink:title="Provides bio::meta::tuple_like.">
<polygon fill="white" stroke="#666666" points="396,-591 262,-591 262,-572 396,-572 396,-591"/>
<text text-anchor="middle" x="329" y="-579" font-family="Helvetica,sans-Serif" font-size="10.00">bio/meta/concept/tuple.hpp</text>
</a>
</g>
</g>
<!-- Node7&#45;&gt;Node11 -->
<g id="edge11" class="edge">
<title>Node7&#45;&gt;Node11</title>
<path fill="none" stroke="#63b8ff" d="M329,-626.75C329,-619.8 329,-609.85 329,-601.13"/>
<polygon fill="#63b8ff" stroke="#63b8ff" points="332.5,-601.09 329,-591.09 325.5,-601.09 332.5,-601.09"/>
</g>
<!-- Node8&#45;&gt;Node2 -->
<g id="edge10" class="edge">
<title>Node8&#45;&gt;Node2</title>
<path fill="none" stroke="#63b8ff" d="M245.65,-254.87C301.48,-242.63 380.23,-224.51 393,-217 414.41,-204.4 410.83,-190.51 431,-176 497.45,-128.21 587.87,-94.03 638.21,-77.25"/>
<polygon fill="#63b8ff" stroke="#63b8ff" points="639.61,-80.47 648.02,-74.03 637.43,-73.82 639.61,-80.47"/>
</g>
<!-- Node9 -->
<g id="node9" class="node">
<title>Node9</title>
<g id="a_node9"><a target="_blank" xlink:href="https://en.cppreference.com/w/cpp/header/concepts.html" xlink:title=" ">
<polygon fill="white" stroke="#666666" points="496,-206 440,-206 440,-187 496,-187 496,-206"/>
<text text-anchor="middle" x="468" y="-194" font-family="Helvetica,sans-Serif" font-size="10.00">concepts</text>
</a>
</g>
</g>
<!-- Node8&#45;&gt;Node9 -->
<g id="edge8" class="edge">
<title>Node8&#45;&gt;Node9</title>
<path fill="none" stroke="#63b8ff" d="M245.53,-255.77C310.09,-242.84 409.04,-222.64 426,-217 431.43,-215.19 437.1,-212.88 442.44,-210.48"/>
<polygon fill="#63b8ff" stroke="#63b8ff" points="444.04,-213.6 451.59,-206.17 441.06,-207.27 444.04,-213.6"/>
</g>
<!-- Node10 -->
<g id="node10" class="node">
<title>Node10</title>
<g id="a_node10"><a target="_blank" xlink:href="https://en.cppreference.com/w/cpp/header/type_traits.html" xlink:title=" ">
<polygon fill="white" stroke="#666666" points="403,-74 341,-74 341,-55 403,-55 403,-74"/>
<text text-anchor="middle" x="372" y="-62" font-family="Helvetica,sans-Serif" font-size="10.00">type_traits</text>
</a>
</g>
</g>
<!-- Node8&#45;&gt;Node10 -->
<g id="edge9" class="edge">
<title>Node8&#45;&gt;Node10</title>
<path fill="none" stroke="#63b8ff" d="M201.75,-252.79C217.85,-234.85 246.42,-203.09 271,-176 301.53,-142.36 337.46,-103.14 357.18,-81.65"/>
<polygon fill="#63b8ff" stroke="#63b8ff" points="359.94,-83.81 364.12,-74.08 354.78,-79.08 359.94,-83.81"/>
</g>
<!-- Node11&#45;&gt;Node9 -->
<g id="edge12" class="edge">
<title>Node11&#45;&gt;Node9</title>
<path fill="none" stroke="#63b8ff" d="M324.1,-571.75C301.87,-530.74 214.78,-355.2 293,-253 330.22,-204.37 368.46,-237.97 426,-217 431.16,-215.12 436.55,-212.86 441.68,-210.55"/>
<polygon fill="#63b8ff" stroke="#63b8ff" points="443.54,-213.55 451.11,-206.14 440.57,-207.2 443.54,-213.55"/>
</g>
<!-- Node11&#45;&gt;Node10 -->
<g id="edge14" class="edge">
<title>Node11&#45;&gt;Node10</title>
<path fill="none" stroke="#63b8ff" d="M305.87,-571.9C230.98,-542.39 0,-437.72 0,-269 0,-269 0,-269 0,-195.5 0,-126.03 234.14,-84.96 330.91,-70.96"/>
<polygon fill="#63b8ff" stroke="#63b8ff" points="331.52,-74.41 340.92,-69.54 330.53,-67.48 331.52,-74.41"/>
</g>
<!-- Node12 -->
<g id="node12" class="node">
<title>Node12</title>
<g id="a_node12"><a target="_blank" xlink:href="https://en.cppreference.com/w/cpp/header/tuple.html" xlink:title=" ">
<polygon fill="white" stroke="#666666" points="340,-277.5 302,-277.5 302,-258.5 340,-258.5 340,-277.5"/>
<text text-anchor="middle" x="321" y="-265.5" font-family="Helvetica,sans-Serif" font-size="10.00">tuple</text>
</a>
</g>
</g>
<!-- Node11&#45;&gt;Node12 -->
<g id="edge13" class="edge">
<title>Node11&#45;&gt;Node12</title>
<path fill="none" stroke="#63b8ff" d="M328.78,-571.84C327.7,-529.93 323.02,-347.65 321.49,-287.98"/>
<polygon fill="#63b8ff" stroke="#63b8ff" points="324.98,-287.67 321.23,-277.76 317.98,-287.85 324.98,-287.67"/>
</g>
<!-- Node11&#45;&gt;Node13 -->
<g id="edge15" class="edge">
<title>Node11&#45;&gt;Node13</title>
<path fill="none" stroke="#63b8ff" d="M352.14,-571.98C375.82,-563.27 412.87,-549.63 439.71,-539.75"/>
<polygon fill="#63b8ff" stroke="#63b8ff" points="441.27,-542.91 449.44,-536.17 438.85,-536.34 441.27,-542.91"/>
</g>
<!-- Node11&#45;&gt;Node18 -->
<g id="edge32" class="edge">
<title>Node11&#45;&gt;Node18</title>
<path fill="none" stroke="#63b8ff" d="M336.04,-571.95C343.06,-563.21 353.93,-549.1 362,-536 399.97,-474.33 435.92,-396.54 452.86,-358.34"/>
<polygon fill="#63b8ff" stroke="#63b8ff" points="456.11,-359.65 456.93,-349.09 449.7,-356.83 456.11,-359.65"/>
</g>
<!-- Node19 -->
<g id="node19" class="node">
<title>Node19</title>
<g id="a_node19"><a xlink:href="template__inspection_8hpp.html" target="_top" xlink:title="Provides various traits to inspect templates.">
<polygon fill="white" stroke="#666666" points="483.5,-283 358.5,-283 358.5,-253 483.5,-253 483.5,-283"/>
<text text-anchor="start" x="366.5" y="-271" font-family="Helvetica,sans-Serif" font-size="10.00">bio/meta/type_traits</text>
<text text-anchor="middle" x="421" y="-260" font-family="Helvetica,sans-Serif" font-size="10.00">/template_inspection.hpp</text>
</a>
</g>
</g>
<!-- Node11&#45;&gt;Node19 -->
<g id="edge37" class="edge">
<title>Node11&#45;&gt;Node19</title>
<path fill="none" stroke="#63b8ff" d="M331.56,-571.84C343.62,-530.98 395.09,-356.72 414,-292.71"/>
<polygon fill="#63b8ff" stroke="#63b8ff" points="417.36,-293.66 416.84,-283.08 410.65,-291.68 417.36,-293.66"/>
</g>
<!-- Node22 -->
<g id="node22" class="node">
<title>Node22</title>
<g id="a_node22"><a xlink:href="basic_8hpp.html" target="_top" xlink:title="Provides various type traits on generic types.">
<polygon fill="white" stroke="#666666" points="207.5,-349 104.5,-349 104.5,-319 207.5,-319 207.5,-349"/>
<text text-anchor="start" x="112.5" y="-337" font-family="Helvetica,sans-Serif" font-size="10.00">bio/meta/type_traits</text>
<text text-anchor="middle" x="156" y="-326" font-family="Helvetica,sans-Serif" font-size="10.00">/basic.hpp</text>
</a>
</g>
</g>
<!-- Node11&#45;&gt;Node22 -->
<g id="edge33" class="edge">
<title>Node11&#45;&gt;Node22</title>
<path fill="none" stroke="#63b8ff" d="M322.01,-571.92C315.02,-563.16 304.18,-549.04 296,-536 255.76,-471.83 264.81,-443.75 217,-385 207.98,-373.91 196.17,-363.55 185.35,-355.17"/>
<polygon fill="#63b8ff" stroke="#63b8ff" points="187.43,-352.36 177.33,-349.17 183.24,-357.96 187.43,-352.36"/>
</g>
<!-- Node13&#45;&gt;Node12 -->
<g id="edge16" class="edge">
<title>Node13&#45;&gt;Node12</title>
<path fill="none" stroke="#63b8ff" d="M466.84,-516.76C460.64,-507.87 450.89,-493.65 443,-481 398.83,-410.19 350.58,-323.16 330.54,-286.55"/>
<polygon fill="#63b8ff" stroke="#63b8ff" points="333.53,-284.71 325.67,-277.61 327.39,-288.07 333.53,-284.71"/>
</g>
<!-- Node14 -->
<g id="node14" class="node">
<title>Node14</title>
<g id="a_node14"><a xlink:title=" ">
<polygon fill="#e0e0e0" stroke="#999999" points="514,-475.5 452,-475.5 452,-456.5 514,-456.5 514,-475.5"/>
<text text-anchor="middle" x="483" y="-463.5" font-family="Helvetica,sans-Serif" font-size="10.00">type_traits</text>
</a>
</g>
</g>
<!-- Node13&#45;&gt;Node14 -->
<g id="edge17" class="edge">
<title>Node13&#45;&gt;Node14</title>
<path fill="none" stroke="#63b8ff" d="M474.48,-516.87C475.88,-508.66 478.04,-496.04 479.83,-485.55"/>
<polygon fill="#63b8ff" stroke="#63b8ff" points="483.28,-486.11 481.52,-475.67 476.38,-484.93 483.28,-486.11"/>
</g>
<!-- Node15 -->
<g id="node15" class="node">
<title>Node15</title>
<g id="a_node15"><a xlink:href="traits_8hpp.html" target="_top" xlink:title="Provides traits for meta::type_list.">
<polygon fill="white" stroke="#666666" points="664,-481 570,-481 570,-451 664,-451 664,-481"/>
<text text-anchor="start" x="578" y="-469" font-family="Helvetica,sans-Serif" font-size="10.00">bio/meta/type_list</text>
<text text-anchor="middle" x="617" y="-458" font-family="Helvetica,sans-Serif" font-size="10.00">/traits.hpp</text>
</a>
</g>
</g>
<!-- Node13&#45;&gt;Node15 -->
<g id="edge18" class="edge">
<title>Node13&#45;&gt;Node15</title>
<path fill="none" stroke="#63b8ff" d="M493.94,-516.99C514.57,-508.61 546.73,-495.55 573,-484.87"/>
<polygon fill="#63b8ff" stroke="#63b8ff" points="574.43,-488.07 582.38,-481.06 571.8,-481.59 574.43,-488.07"/>
</g>
<!-- Node15&#45;&gt;Node10 -->
<g id="edge19" class="edge">
<title>Node15&#45;&gt;Node10</title>
<path fill="none" stroke="#63b8ff" d="M622.83,-450.84C626.56,-440.99 631.06,-427.43 633,-415 639.65,-372.4 639.83,-356.76 619,-319 607.92,-298.91 595.48,-301.57 582,-283 531.68,-213.67 560.95,-167.01 497,-110 473.52,-89.07 439.52,-77.81 412.91,-71.85"/>
<polygon fill="#63b8ff" stroke="#63b8ff" points="413.61,-68.42 403.11,-69.82 412.19,-75.28 413.61,-68.42"/>
</g>
<!-- Node16 -->
<g id="node16" class="node">
<title>Node16</title>
<g id="a_node16"><a xlink:href="traits__detail_8hpp.html" target="_top" xlink:title="Provides various traits for template packs.">
<polygon fill="white" stroke="#666666" points="624,-415 530,-415 530,-385 624,-385 624,-415"/>
<text text-anchor="start" x="538" y="-403" font-family="Helvetica,sans-Serif" font-size="10.00">bio/meta/type_list</text>
<text text-anchor="middle" x="577" y="-392" font-family="Helvetica,sans-Serif" font-size="10.00">/traits_detail.hpp</text>
</a>
</g>
</g>
<!-- Node15&#45;&gt;Node16 -->
<g id="edge20" class="edge">
<title>Node15&#45;&gt;Node16</title>
<path fill="none" stroke="#63b8ff" d="M608.12,-450.8C603.15,-442.84 596.84,-432.74 591.19,-423.71"/>
<polygon fill="#63b8ff" stroke="#63b8ff" points="594.12,-421.79 585.85,-415.16 588.18,-425.5 594.12,-421.79"/>
</g>
<!-- Node15&#45;&gt;Node18 -->
<g id="edge31" class="edge">
<title>Node15&#45;&gt;Node18</title>
<path fill="none" stroke="#63b8ff" d="M580.82,-450.97C561.72,-442.43 538.64,-430.22 521,-415 502.26,-398.83 486.22,-375.48 475.79,-358.17"/>
<polygon fill="#63b8ff" stroke="#63b8ff" points="478.65,-356.14 470.59,-349.26 472.61,-359.67 478.65,-356.14"/>
</g>
<!-- Node16&#45;&gt;Node10 -->
<g id="edge21" class="edge">
<title>Node16&#45;&gt;Node10</title>
<path fill="none" stroke="#63b8ff" d="M572.43,-384.74C556.9,-336.35 507.05,-181.1 505,-176 492.85,-145.75 496.47,-132.63 473,-110 456.29,-93.88 432.77,-83.05 412.63,-76.12"/>
<polygon fill="#63b8ff" stroke="#63b8ff" points="413.65,-72.77 403.06,-73.02 411.49,-79.43 413.65,-72.77"/>
</g>
<!-- Node17 -->
<g id="node17" class="node">
<title>Node17</title>
<g id="a_node17"><a target="_blank" xlink:href="https://en.cppreference.com/w/cpp/header/utility.html" xlink:title=" ">
<polygon fill="white" stroke="#666666" points="610,-343.5 570,-343.5 570,-324.5 610,-324.5 610,-343.5"/>
<text text-anchor="middle" x="590" y="-331.5" font-family="Helvetica,sans-Serif" font-size="10.00">utility</text>
</a>
</g>
</g>
<!-- Node16&#45;&gt;Node17 -->
<g id="edge22" class="edge">
<title>Node16&#45;&gt;Node17</title>
<path fill="none" stroke="#63b8ff" d="M579.89,-384.8C581.73,-375.7 584.15,-363.79 586.16,-353.9"/>
<polygon fill="#63b8ff" stroke="#63b8ff" points="589.64,-354.34 588.2,-343.84 582.78,-352.95 589.64,-354.34"/>
</g>
<!-- Node16&#45;&gt;Node18 -->
<g id="edge23" class="edge">
<title>Node16&#45;&gt;Node18</title>
<path fill="none" stroke="#63b8ff" d="M551.98,-384.95C535.8,-375.87 514.52,-363.93 496.84,-354"/>
<polygon fill="#63b8ff" stroke="#63b8ff" points="498.39,-350.86 487.96,-349.01 494.97,-356.96 498.39,-350.86"/>
</g>
<!-- Node18&#45;&gt;Node19 -->
<g id="edge24" class="edge">
<title>Node18&#45;&gt;Node19</title>
<path fill="none" stroke="#63b8ff" d="M453.68,-318.8C448.46,-310.84 441.83,-300.74 435.9,-291.71"/>
<polygon fill="#63b8ff" stroke="#63b8ff" points="438.71,-289.6 430.3,-283.16 432.86,-293.44 438.71,-289.6"/>
</g>
<!-- Node19&#45;&gt;Node9 -->
<g id="edge25" class="edge">
<title>Node19&#45;&gt;Node9</title>
<path fill="none" stroke="#63b8ff" d="M430.51,-252.94C437.96,-241.92 448.36,-226.54 456.32,-214.78"/>
<polygon fill="#63b8ff" stroke="#63b8ff" points="459.37,-216.51 462.07,-206.27 453.57,-212.59 459.37,-216.51"/>
</g>
<!-- Node20 -->
<g id="node20" class="node">
<title>Node20</title>
<g id="a_node20"><a xlink:href="transformation__trait__or_8hpp.html" target="_top" xlink:title="Provides bio::meta::transformation_trait_or.">
<polygon fill="white" stroke="#666666" points="384,-217 280,-217 280,-176 384,-176 384,-217"/>
<text text-anchor="start" x="288" y="-205" font-family="Helvetica,sans-Serif" font-size="10.00">bio/meta/type_traits</text>
<text text-anchor="start" x="288" y="-194" font-family="Helvetica,sans-Serif" font-size="10.00">/transformation_trait</text>
<text text-anchor="middle" x="332" y="-183" font-family="Helvetica,sans-Serif" font-size="10.00">_or.hpp</text>
</a>
</g>
</g>
<!-- Node19&#45;&gt;Node20 -->
<g id="edge26" class="edge">
<title>Node19&#45;&gt;Node20</title>
<path fill="none" stroke="#63b8ff" d="M402.99,-252.94C392.16,-244.48 378.03,-233.44 365.23,-223.45"/>
<polygon fill="#63b8ff" stroke="#63b8ff" points="367.1,-220.47 357.07,-217.07 362.79,-225.99 367.1,-220.47"/>
</g>
<!-- Node20&#45;&gt;Node10 -->
<g id="edge27" class="edge">
<title>Node20&#45;&gt;Node10</title>
<path fill="none" stroke="#63b8ff" d="M335.48,-175.85C338.84,-158.32 344.53,-132.09 352,-110 355.05,-100.97 359.28,-91.29 363.07,-83.26"/>
<polygon fill="#63b8ff" stroke="#63b8ff" points="366.27,-84.69 367.5,-74.16 359.98,-81.62 366.27,-84.69"/>
</g>
<!-- Node21 -->
<g id="node21" class="node">
<title>Node21</title>
<g id="a_node21"><a xlink:href="meta_2type__traits_2concept_8hpp.html" target="_top" xlink:title="Provides the concepts bio::meta::transformation_trait and bio::meta::unary_type_trait.">
<polygon fill="white" stroke="#666666" points="463.5,-140 360.5,-140 360.5,-110 463.5,-110 463.5,-140"/>
<text text-anchor="start" x="368.5" y="-128" font-family="Helvetica,sans-Serif" font-size="10.00">bio/meta/type_traits</text>
<text text-anchor="middle" x="412" y="-117" font-family="Helvetica,sans-Serif" font-size="10.00">/concept.hpp</text>
</a>
</g>
</g>
<!-- Node20&#45;&gt;Node21 -->
<g id="edge28" class="edge">
<title>Node20&#45;&gt;Node21</title>
<path fill="none" stroke="#63b8ff" d="M354.71,-175.77C365.17,-166.69 377.57,-155.91 388.16,-146.71"/>
<polygon fill="#63b8ff" stroke="#63b8ff" points="390.59,-149.24 395.84,-140.04 386,-143.95 390.59,-149.24"/>
</g>
<!-- Node21&#45;&gt;Node2 -->
<g id="edge30" class="edge">
<title>Node21&#45;&gt;Node2</title>
<path fill="none" stroke="#63b8ff" d="M463.53,-112.58C512.18,-101.8 584.41,-85.8 630.85,-75.5"/>
<polygon fill="#63b8ff" stroke="#63b8ff" points="631.63,-78.92 640.64,-73.34 630.12,-72.08 631.63,-78.92"/>
</g>
<!-- Node21&#45;&gt;Node10 -->
<g id="edge29" class="edge">
<title>Node21&#45;&gt;Node10</title>
<path fill="none" stroke="#63b8ff" d="M402.32,-109.84C396.75,-101.69 389.71,-91.4 383.82,-82.78"/>
<polygon fill="#63b8ff" stroke="#63b8ff" points="386.53,-80.55 377.99,-74.27 380.75,-84.5 386.53,-80.55"/>
</g>
<!-- Node22&#45;&gt;Node8 -->
<g id="edge36" class="edge">
<title>Node22&#45;&gt;Node8</title>
<path fill="none" stroke="#63b8ff" d="M163.32,-318.8C167.34,-311.01 172.42,-301.16 177,-292.28"/>
<polygon fill="#63b8ff" stroke="#63b8ff" points="180.22,-293.66 181.7,-283.16 174,-290.45 180.22,-293.66"/>
</g>
<!-- Node22&#45;&gt;Node10 -->
<g id="edge35" class="edge">
<title>Node22&#45;&gt;Node10</title>
<path fill="none" stroke="#63b8ff" d="M143.19,-318.89C130.15,-302.73 113.26,-275.56 124,-253 168.1,-160.36 283.44,-101.92 339.91,-77.96"/>
<polygon fill="#63b8ff" stroke="#63b8ff" points="341.52,-81.09 349.42,-74.02 338.84,-74.62 341.52,-81.09"/>
</g>
<!-- Node22&#45;&gt;Node12 -->
<g id="edge34" class="edge">
<title>Node22&#45;&gt;Node12</title>
<path fill="none" stroke="#63b8ff" d="M192.21,-318.95C222.29,-307.29 264.5,-290.91 292.29,-280.14"/>
<polygon fill="#63b8ff" stroke="#63b8ff" points="293.77,-283.32 301.82,-276.44 291.23,-276.79 293.77,-283.32"/>
</g>
<!-- Node24 -->
<g id="node24" class="node">
<title>Node24</title>
<g id="a_node24"><a xlink:href="int__types_8hpp.html" target="_top" xlink:title="Provides metaprogramming utilities for integer types.">
<polygon fill="white" stroke="#666666" points="685,-283 591,-283 591,-253 685,-253 685,-283"/>
<text text-anchor="start" x="599" y="-271" font-family="Helvetica,sans-Serif" font-size="10.00">bio/meta/detail/int</text>
<text text-anchor="middle" x="638" y="-260" font-family="Helvetica,sans-Serif" font-size="10.00">_types.hpp</text>
</a>
</g>
</g>
<!-- Node23&#45;&gt;Node24 -->
<g id="edge39" class="edge">
<title>Node23&#45;&gt;Node24</title>
<path fill="none" stroke="#63b8ff" d="M720.19,-324.37C706.7,-315.28 684.99,-300.66 667.28,-288.72"/>
<polygon fill="#63b8ff" stroke="#63b8ff" points="669.2,-285.8 658.95,-283.12 665.29,-291.61 669.2,-285.8"/>
</g>
<!-- Node26 -->
<g id="node26" class="node">
<title>Node26</title>
<g id="a_node26"><a xlink:href="type__inspection_8hpp.html" target="_top" xlink:title="Provides traits to inspect some information of a type, for example its name.">
<polygon fill="white" stroke="#666666" points="912,-283 810,-283 810,-253 912,-253 912,-283"/>
<text text-anchor="start" x="818" y="-271" font-family="Helvetica,sans-Serif" font-size="10.00">bio/meta/detail/type</text>
<text text-anchor="middle" x="861" y="-260" font-family="Helvetica,sans-Serif" font-size="10.00">_inspection.hpp</text>
</a>
</g>
</g>
<!-- Node23&#45;&gt;Node26 -->
<g id="edge44" class="edge">
<title>Node23&#45;&gt;Node26</title>
<path fill="none" stroke="#63b8ff" d="M750.26,-324.37C769.02,-314.99 799.56,-299.72 823.82,-287.59"/>
<polygon fill="#63b8ff" stroke="#63b8ff" points="825.39,-290.72 832.77,-283.12 822.26,-284.46 825.39,-290.72"/>
</g>
<!-- Node24&#45;&gt;Node2 -->
<g id="edge43" class="edge">
<title>Node24&#45;&gt;Node2</title>
<path fill="none" stroke="#63b8ff" d="M640.67,-252.83C647.39,-217.21 664.99,-123.91 672.51,-84.02"/>
<polygon fill="#63b8ff" stroke="#63b8ff" points="675.97,-84.55 674.38,-74.08 669.09,-83.25 675.97,-84.55"/>
</g>
<!-- Node24&#45;&gt;Node9 -->
<g id="edge40" class="edge">
<title>Node24&#45;&gt;Node9</title>
<path fill="none" stroke="#63b8ff" d="M603.6,-252.94C572.74,-240.32 527.9,-221.99 498.35,-209.91"/>
<polygon fill="#63b8ff" stroke="#63b8ff" points="499.54,-206.61 488.96,-206.07 496.89,-213.09 499.54,-206.61"/>
</g>
<!-- Node24&#45;&gt;Node10 -->
<g id="edge42" class="edge">
<title>Node24&#45;&gt;Node10</title>
<path fill="none" stroke="#63b8ff" d="M636.75,-252.73C633.25,-221.69 620.43,-147.78 576,-110 551.86,-89.47 465.53,-76.23 413.23,-69.89"/>
<polygon fill="#63b8ff" stroke="#63b8ff" points="413.59,-66.41 403.25,-68.72 412.77,-73.36 413.59,-66.41"/>
</g>
<!-- Node25 -->
<g id="node25" class="node">
<title>Node25</title>
<g id="a_node25"><a target="_blank" xlink:href="https://en.cppreference.com/w/cpp/header/limits.html" xlink:title=" ">
<polygon fill="white" stroke="#666666" points="706,-206 666,-206 666,-187 706,-187 706,-206"/>
<text text-anchor="middle" x="686" y="-194" font-family="Helvetica,sans-Serif" font-size="10.00">limits</text>
</a>
</g>
</g>
<!-- Node24&#45;&gt;Node25 -->
<g id="edge41" class="edge">
<title>Node24&#45;&gt;Node25</title>
<path fill="none" stroke="#63b8ff" d="M647.71,-252.94C655.32,-241.92 665.94,-226.54 674.07,-214.78"/>
<polygon fill="#63b8ff" stroke="#63b8ff" points="677.14,-216.48 679.95,-206.27 671.38,-212.51 677.14,-216.48"/>
</g>
<!-- Node26&#45;&gt;Node2 -->
<g id="edge49" class="edge">
<title>Node26&#45;&gt;Node2</title>
<path fill="none" stroke="#63b8ff" d="M887.87,-252.96C901.06,-244.49 915.66,-232.34 923,-217 930.86,-200.56 932.91,-191.29 923,-176 878.29,-107.02 779.29,-80.71 721.11,-70.97"/>
<polygon fill="#63b8ff" stroke="#63b8ff" points="721.52,-67.49 711.1,-69.39 720.43,-74.4 721.52,-67.49"/>
</g>
<!-- Node27 -->
<g id="node27" class="node">
<title>Node27</title>
<g id="a_node27"><a target="_blank" xlink:href="https://en.cppreference.com/w/cpp/header/functional.html" xlink:title=" ">
<polygon fill="white" stroke="#666666" points="783.5,-206 724.5,-206 724.5,-187 783.5,-187 783.5,-206"/>
<text text-anchor="middle" x="754" y="-194" font-family="Helvetica,sans-Serif" font-size="10.00">functional</text>
</a>
</g>
</g>
<!-- Node26&#45;&gt;Node27 -->
<g id="edge45" class="edge">
<title>Node26&#45;&gt;Node27</title>
<path fill="none" stroke="#63b8ff" d="M839.35,-252.94C820.77,-240.87 794.14,-223.57 775.58,-211.52"/>
<polygon fill="#63b8ff" stroke="#63b8ff" points="777.48,-208.58 767.19,-206.07 773.67,-214.45 777.48,-208.58"/>
</g>
<!-- Node28 -->
<g id="node28" class="node">
<title>Node28</title>
<g id="a_node28"><a target="_blank" xlink:href="https://en.cppreference.com/w/cpp/header/memory.html" xlink:title=" ">
<polygon fill="white" stroke="#666666" points="854,-206 802,-206 802,-187 854,-187 854,-206"/>
<text text-anchor="middle" x="828" y="-194" font-family="Helvetica,sans-Serif" font-size="10.00">memory</text>
</a>
</g>
</g>
<!-- Node26&#45;&gt;Node28 -->
<g id="edge46" class="edge">
<title>Node26&#45;&gt;Node28</title>
<path fill="none" stroke="#63b8ff" d="M854.32,-252.94C849.19,-242.14 842.08,-227.15 836.54,-215.48"/>
<polygon fill="#63b8ff" stroke="#63b8ff" points="839.61,-213.8 832.16,-206.27 833.29,-216.8 839.61,-213.8"/>
</g>
<!-- Node29 -->
<g id="node29" class="node">
<title>Node29</title>
<g id="a_node29"><a target="_blank" xlink:href="https://en.cppreference.com/w/cpp/header/string.html" xlink:title=" ">
<polygon fill="white" stroke="#666666" points="913.5,-206 872.5,-206 872.5,-187 913.5,-187 913.5,-206"/>
<text text-anchor="middle" x="893" y="-194" font-family="Helvetica,sans-Serif" font-size="10.00">string</text>
</a>
</g>
</g>
<!-- Node26&#45;&gt;Node29 -->
<g id="edge47" class="edge">
<title>Node26&#45;&gt;Node29</title>
<path fill="none" stroke="#63b8ff" d="M867.48,-252.94C872.45,-242.14 879.35,-227.15 884.72,-215.48"/>
<polygon fill="#63b8ff" stroke="#63b8ff" points="887.96,-216.81 888.96,-206.27 881.6,-213.89 887.96,-216.81"/>
</g>
<!-- Node30 -->
<g id="node30" class="node">
<title>Node30</title>
<g id="a_node30"><a target="_blank" xlink:href="https://en.cppreference.com/w/cpp/header/typeinfo.html" xlink:title=" ">
<polygon fill="white" stroke="#666666" points="1021.5,-206 970.5,-206 970.5,-187 1021.5,-187 1021.5,-206"/>
<text text-anchor="middle" x="996" y="-194" font-family="Helvetica,sans-Serif" font-size="10.00">typeinfo</text>
</a>
</g>
</g>
<!-- Node26&#45;&gt;Node30 -->
<g id="edge48" class="edge">
<title>Node26&#45;&gt;Node30</title>
<path fill="none" stroke="#63b8ff" d="M888.32,-252.94C912.29,-240.59 946.89,-222.78 970.35,-210.7"/>
<polygon fill="#63b8ff" stroke="#63b8ff" points="972.07,-213.76 979.36,-206.07 968.86,-207.53 972.07,-213.76"/>
</g>
<!-- Node31&#45;&gt;Node11 -->
<g id="edge53" class="edge">
<title>Node31&#45;&gt;Node11</title>
<path fill="none" stroke="#63b8ff" d="M592.55,-626.98C537.24,-617.65 448.53,-602.67 389.52,-592.71"/>
<polygon fill="#63b8ff" stroke="#63b8ff" points="390.03,-589.25 379.58,-591.04 388.86,-596.15 390.03,-589.25"/>
</g>
<!-- Node31&#45;&gt;Node13 -->
<g id="edge54" class="edge">
<title>Node31&#45;&gt;Node13</title>
<path fill="none" stroke="#63b8ff" d="M629.38,-626.84C600.16,-608.28 531.22,-564.49 495.44,-541.75"/>
<polygon fill="#63b8ff" stroke="#63b8ff" points="497.01,-538.6 486.69,-536.2 493.25,-544.51 497.01,-538.6"/>
</g>
<!-- Node31&#45;&gt;Node15 -->
<g id="edge55" class="edge">
<title>Node31&#45;&gt;Node15</title>
<path fill="none" stroke="#63b8ff" d="M641.67,-626.91C637.85,-602.13 626.69,-529.82 620.78,-491.5"/>
<polygon fill="#63b8ff" stroke="#63b8ff" points="624.18,-490.57 619.19,-481.22 617.26,-491.64 624.18,-490.57"/>
</g>
<!-- Node31&#45;&gt;Node17 -->
<g id="edge52" class="edge">
<title>Node31&#45;&gt;Node17</title>
<path fill="none" stroke="#63b8ff" d="M650.02,-626.87C663.57,-609.3 692,-567.65 692,-527.5 692,-527.5 692,-527.5 692,-465 692,-413.78 642.39,-370.78 612.37,-349.44"/>
<polygon fill="#63b8ff" stroke="#63b8ff" points="613.98,-346.3 603.76,-343.53 610.02,-352.07 613.98,-346.3"/>
</g>
<!-- Node32&#45;&gt;Node19 -->
<g id="edge59" class="edge">
<title>Node32&#45;&gt;Node19</title>
<path fill="none" stroke="#63b8ff" d="M184.61,-384.96C232.59,-361.43 329.26,-314 382.93,-287.68"/>
<polygon fill="#63b8ff" stroke="#63b8ff" points="384.67,-290.72 392.11,-283.17 381.59,-284.44 384.67,-290.72"/>
</g>
<!-- Node32&#45;&gt;Node20 -->
<g id="edge60" class="edge">
<title>Node32&#45;&gt;Node20</title>
<path fill="none" stroke="#63b8ff" d="M130.28,-384.97C117.43,-376.43 103.13,-364.23 96,-349 77.15,-308.75 90.44,-282.14 124,-253 164.4,-217.91 224.67,-204.71 269.95,-199.89"/>
<polygon fill="#63b8ff" stroke="#63b8ff" points="270.33,-203.37 279.95,-198.94 269.66,-196.4 270.33,-203.37"/>
</g>
<!-- Node32&#45;&gt;Node22 -->
<g id="edge58" class="edge">
<title>Node32&#45;&gt;Node22</title>
<path fill="none" stroke="#63b8ff" d="M156,-384.8C156,-377.34 156,-367.99 156,-359.41"/>
<polygon fill="#63b8ff" stroke="#63b8ff" points="159.5,-359.16 156,-349.16 152.5,-359.16 159.5,-359.16"/>
</g>
</g>
</svg>
        <g id="navigator" transform="translate(0 0)" fill="#404254">
                <rect fill="#f2f5e9" fill-opacity="0.5" stroke="#606060" stroke-width=".5" x="0" y="0" width="60" height="60"/>
                <use id="zoomplus" xlink:href="#zoomPlus" x="17" y="9" onmousedown="handleZoom(evt,'in')"/>
                <use id="zoomminus" xlink:href="#zoomMin" x="42" y="9" onmousedown="handleZoom(evt,'out')"/>
                <use id="reset" xlink:href="#resetDef" x="30" y="36" onmousedown="handleReset()"/>
                <g id="arrowUp" xlink:href="#dirArrow" transform="translate(30 24)" onmousedown="handlePan(0,-1)">
                  <use xlink:href="#rim" fill="#404040">
                        <set attributeName="fill" to="#808080" begin="arrowUp.mouseover" end="arrowUp.mouseout"/>
                  </use>
                  <path fill="none" stroke="white" stroke-width="1.5" d="M0,-3.0v7 M-2.5,-0.5L0,-3.0L2.5,-0.5"/>
                </g>
                <g id="arrowRight" xlink:href="#dirArrow" transform="rotate(90) translate(36 -43)" onmousedown="handlePan(1,0)">
                  <use xlink:href="#rim" fill="#404040">
                        <set attributeName="fill" to="#808080" begin="arrowRight.mouseover" end="arrowRight.mouseout"/>
                  </use>
                  <path fill="none" stroke="white" stroke-width="1.5" d="M0,-3.0v7 M-2.5,-0.5L0,-3.0L2.5,-0.5"/>
                </g>
                <g id="arrowDown" xlink:href="#dirArrow" transform="rotate(180) translate(-30 -48)" onmousedown="handlePan(0,1)">
                  <use xlink:href="#rim" fill="#404040">
                        <set attributeName="fill" to="#808080" begin="arrowDown.mouseover" end="arrowDown.mouseout"/>
                  </use>
                  <path fill="none" stroke="white" stroke-width="1.5" d="M0,-3.0v7 M-2.5,-0.5L0,-3.0L2.5,-0.5"/>
                </g>
                <g id="arrowLeft" xlink:href="#dirArrow" transform="rotate(270) translate(-36 17)" onmousedown="handlePan(-1,0)">
                  <use xlink:href="#rim" fill="#404040">
                        <set attributeName="fill" to="#808080" begin="arrowLeft.mouseover" end="arrowLeft.mouseout"/>
                  </use>
                  <path fill="none" stroke="white" stroke-width="1.5" d="M0,-3.0v7 M-2.5,-0.5L0,-3.0L2.5,-0.5"/>
                </g>
        </g>
        <svg viewBox="0 0 15 15" width="100%" height="30px" preserveAspectRatio="xMaxYMin meet">
         <g id="arrow_out" transform="scale(0.3 0.3)">
          <a xlink:href="meta_2all_8hpp__incl_org.svg" target="_base">
           <rect id="button" ry="5" rx="5" y="6" x="6" height="38" width="38"
                fill="#f2f5e9" fill-opacity="0.5" stroke="#606060" stroke-width="1.0"/>
           <path id="arrow"
             d="M 11.500037,31.436501 C 11.940474,20.09759 22.043105,11.32322 32.158766,21.979434 L 37.068811,17.246167 C 37.068811,17.246167 37.088388,32 37.088388,32 L 22.160133,31.978069 C 22.160133,31.978069 26.997745,27.140456 26.997745,27.140456 C 18.528582,18.264221 13.291696,25.230495 11.500037,31.436501 z"
             style="fill:#404040;"/>
          </a>
         </g>
        </svg>
</svg>
