<?xml version="1.0" encoding="UTF-8" standalone="no"?>
<!DOCTYPE svg PUBLIC "-//W3C//DTD SVG 1.1//EN"
 "http://www.w3.org/Graphics/SVG/1.1/DTD/svg11.dtd">
<!-- Generated by graphviz version 2.43.0 (0)
 -->
<!-- Title: bio/meta/detail/all.hpp Pages: 1 -->
<svg width="660pt" height="207pt"
 viewBox="0.00 0.00 659.50 207.00" xmlns="http://www.w3.org/2000/svg" xmlns:xlink="http://www.w3.org/1999/xlink">
<g id="graph0" class="graph" transform="scale(1 1) rotate(0) translate(4 203)">
<title>bio/meta/detail/all.hpp</title>
<polygon fill="white" stroke="transparent" points="-4,4 -4,-203 655.5,-203 655.5,4 -4,4"/>
<!-- Node1 -->
<g id="node1" class="node">
<title>Node1</title>
<g id="a_node1"><a xlink:title="Meta&#45;header for implementation details in the core module.">
<polygon fill="#bfbfbf" stroke="black" points="226.5,-179.5 226.5,-198.5 353.5,-198.5 353.5,-179.5 226.5,-179.5"/>
<text text-anchor="middle" x="290" y="-186.5" font-family="Helvetica,sans-Serif" font-size="10.00">bio/meta/detail/all.hpp</text>
</a>
</g>
</g>
<!-- Node2 -->
<g id="node2" class="node">
<title>Node2</title>
<g id="a_node2"><a xlink:href="int__types_8hpp.html" target="_top" xlink:title="Provides metaprogramming utilities for integer types.">
<polygon fill="white" stroke="black" points="121.5,-112.5 121.5,-142.5 228.5,-142.5 228.5,-112.5 121.5,-112.5"/>
<text text-anchor="start" x="129.5" y="-130.5" font-family="Helvetica,sans-Serif" font-size="10.00">bio/meta/detail/int</text>
<text text-anchor="middle" x="175" y="-119.5" font-family="Helvetica,sans-Serif" font-size="10.00">_types.hpp</text>
</a>
</g>
</g>
<!-- Node1&#45;&gt;Node2 -->
<g id="edge1" class="edge">
<title>Node1&#45;&gt;Node2</title>
<path fill="none" stroke="midnightblue" d="M273.52,-179.48C257.29,-171.08 231.96,-157.97 211.05,-147.15"/>
<polygon fill="midnightblue" stroke="midnightblue" points="212.59,-144.01 202.1,-142.52 209.38,-150.23 212.59,-144.01"/>
</g>
<!-- Node10 -->
<g id="node10" class="node">
<title>Node10</title>
<g id="a_node10"><a xlink:href="type__inspection_8hpp.html" target="_top" xlink:title="Provides traits to inspect some information of a type, for example its name.">
<polygon fill="white" stroke="black" points="387,-112.5 387,-142.5 503,-142.5 503,-112.5 387,-112.5"/>
<text text-anchor="start" x="395" y="-130.5" font-family="Helvetica,sans-Serif" font-size="10.00">bio/meta/detail/type</text>
<text text-anchor="middle" x="445" y="-119.5" font-family="Helvetica,sans-Serif" font-size="10.00">_inspection.hpp</text>
</a>
</g>
</g>
<!-- Node1&#45;&gt;Node10 -->
<g id="edge9" class="edge">
<title>Node1&#45;&gt;Node10</title>
<path fill="none" stroke="midnightblue" d="M312.21,-179.48C334.77,-170.81 370.38,-157.15 399.04,-146.14"/>
<polygon fill="midnightblue" stroke="midnightblue" points="400.39,-149.37 408.47,-142.52 397.88,-142.84 400.39,-149.37"/>
</g>
<!-- Node3 -->
<g id="node3" class="node">
<title>Node3</title>
<g id="a_node3"><a target="_blank" xlink:href="https://en.cppreference.com/w/cpp/header/concepts.html" xlink:title=" ">
<polygon fill="white" stroke="black" points="0,-56.5 0,-75.5 60,-75.5 60,-56.5 0,-56.5"/>
<text text-anchor="middle" x="30" y="-63.5" font-family="Helvetica,sans-Serif" font-size="10.00">concepts</text>
</a>
</g>
</g>
<!-- Node2&#45;&gt;Node3 -->
<g id="edge2" class="edge">
<title>Node2&#45;&gt;Node3</title>
<path fill="none" stroke="midnightblue" d="M140.64,-112.4C116.31,-102.42 83.97,-89.15 60.54,-79.53"/>
<polygon fill="midnightblue" stroke="midnightblue" points="61.68,-76.22 51.1,-75.66 59.02,-82.69 61.68,-76.22"/>
</g>
<!-- Node4 -->
<g id="node4" class="node">
<title>Node4</title>
<g id="a_node4"><a target="_blank" xlink:href="https://en.cppreference.com/w/cpp/header/limits.html" xlink:title=" ">
<polygon fill="white" stroke="black" points="78,-56.5 78,-75.5 122,-75.5 122,-56.5 78,-56.5"/>
<text text-anchor="middle" x="100" y="-63.5" font-family="Helvetica,sans-Serif" font-size="10.00">limits</text>
</a>
</g>
</g>
<!-- Node2&#45;&gt;Node4 -->
<g id="edge3" class="edge">
<title>Node2&#45;&gt;Node4</title>
<path fill="none" stroke="midnightblue" d="M157.23,-112.4C145.65,-103.22 130.58,-91.26 118.8,-81.92"/>
<polygon fill="midnightblue" stroke="midnightblue" points="120.92,-79.13 110.91,-75.66 116.57,-84.61 120.92,-79.13"/>
</g>
<!-- Node5 -->
<g id="node5" class="node">
<title>Node5</title>
<g id="a_node5"><a target="_blank" xlink:href="https://en.cppreference.com/w/cpp/header/type_traits.html" xlink:title=" ">
<polygon fill="white" stroke="black" points="140.5,-56.5 140.5,-75.5 209.5,-75.5 209.5,-56.5 140.5,-56.5"/>
<text text-anchor="middle" x="175" y="-63.5" font-family="Helvetica,sans-Serif" font-size="10.00">type_traits</text>
</a>
</g>
</g>
<!-- Node2&#45;&gt;Node5 -->
<g id="edge4" class="edge">
<title>Node2&#45;&gt;Node5</title>
<path fill="none" stroke="midnightblue" d="M175,-112.4C175,-104.47 175,-94.46 175,-85.86"/>
<polygon fill="midnightblue" stroke="midnightblue" points="178.5,-85.66 175,-75.66 171.5,-85.66 178.5,-85.66"/>
</g>
<!-- Node6 -->
<g id="node6" class="node">
<title>Node6</title>
<g id="a_node6"><a xlink:href="platform_8hpp.html" target="_top" xlink:title="Provides platform and dependency checks.">
<polygon fill="white" stroke="black" points="228,-56.5 228,-75.5 354,-75.5 354,-56.5 228,-56.5"/>
<text text-anchor="middle" x="291" y="-63.5" font-family="Helvetica,sans-Serif" font-size="10.00">bio/meta/platform.hpp</text>
</a>
</g>
</g>
<!-- Node2&#45;&gt;Node6 -->
<g id="edge5" class="edge">
<title>Node2&#45;&gt;Node6</title>
<path fill="none" stroke="midnightblue" d="M202.49,-112.4C221.43,-102.68 246.44,-89.86 265.04,-80.31"/>
<polygon fill="midnightblue" stroke="midnightblue" points="266.82,-83.34 274.12,-75.66 263.63,-77.11 266.82,-83.34"/>
</g>
<!-- Node7 -->
<g id="node7" class="node">
<title>Node7</title>
<g id="a_node7"><a target="_blank" xlink:href="https://en.cppreference.com/w/cpp/header/cinttypes.html" xlink:title=" ">
<polygon fill="white" stroke="black" points="184,-0.5 184,-19.5 246,-19.5 246,-0.5 184,-0.5"/>
<text text-anchor="middle" x="215" y="-7.5" font-family="Helvetica,sans-Serif" font-size="10.00">cinttypes</text>
</a>
</g>
</g>
<!-- Node6&#45;&gt;Node7 -->
<g id="edge6" class="edge">
<title>Node6&#45;&gt;Node7</title>
<path fill="none" stroke="midnightblue" d="M278.79,-56.32C267.22,-48.11 249.62,-35.6 235.84,-25.81"/>
<polygon fill="midnightblue" stroke="midnightblue" points="237.61,-22.77 227.43,-19.83 233.56,-28.48 237.61,-22.77"/>
</g>
<!-- Node8 -->
<g id="node8" class="node">
<title>Node8</title>
<g id="a_node8"><a target="_blank" xlink:href="https://en.cppreference.com/w/cpp/header/ciso646.html" xlink:title=" ">
<polygon fill="white" stroke="black" points="264,-0.5 264,-19.5 318,-19.5 318,-0.5 264,-0.5"/>
<text text-anchor="middle" x="291" y="-7.5" font-family="Helvetica,sans-Serif" font-size="10.00">ciso646</text>
</a>
</g>
</g>
<!-- Node6&#45;&gt;Node8 -->
<g id="edge7" class="edge">
<title>Node6&#45;&gt;Node8</title>
<path fill="none" stroke="midnightblue" d="M291,-56.08C291,-49.01 291,-38.86 291,-29.99"/>
<polygon fill="midnightblue" stroke="midnightblue" points="294.5,-29.75 291,-19.75 287.5,-29.75 294.5,-29.75"/>
</g>
<!-- Node9 -->
<g id="node9" class="node">
<title>Node9</title>
<g id="a_node9"><a target="_blank" xlink:href="https://en.cppreference.com/w/cpp/header/cstddef.html" xlink:title=" ">
<polygon fill="white" stroke="black" points="336.5,-0.5 336.5,-19.5 389.5,-19.5 389.5,-0.5 336.5,-0.5"/>
<text text-anchor="middle" x="363" y="-7.5" font-family="Helvetica,sans-Serif" font-size="10.00">cstddef</text>
</a>
</g>
</g>
<!-- Node6&#45;&gt;Node9 -->
<g id="edge8" class="edge">
<title>Node6&#45;&gt;Node9</title>
<path fill="none" stroke="midnightblue" d="M302.57,-56.32C313.42,-48.18 329.88,-35.84 342.88,-26.09"/>
<polygon fill="midnightblue" stroke="midnightblue" points="345.32,-28.63 351.22,-19.83 341.12,-23.03 345.32,-28.63"/>
</g>
<!-- Node10&#45;&gt;Node6 -->
<g id="edge14" class="edge">
<title>Node10&#45;&gt;Node6</title>
<path fill="none" stroke="midnightblue" d="M408.5,-112.4C382.43,-102.33 347.71,-88.91 322.78,-79.28"/>
<polygon fill="midnightblue" stroke="midnightblue" points="324,-76 313.41,-75.66 321.47,-82.53 324,-76"/>
</g>
<!-- Node11 -->
<g id="node11" class="node">
<title>Node11</title>
<g id="a_node11"><a target="_blank" xlink:href="https://en.cppreference.com/w/cpp/header/functional.html" xlink:title=" ">
<polygon fill="white" stroke="black" points="372.5,-56.5 372.5,-75.5 437.5,-75.5 437.5,-56.5 372.5,-56.5"/>
<text text-anchor="middle" x="405" y="-63.5" font-family="Helvetica,sans-Serif" font-size="10.00">functional</text>
</a>
</g>
</g>
<!-- Node10&#45;&gt;Node11 -->
<g id="edge10" class="edge">
<title>Node10&#45;&gt;Node11</title>
<path fill="none" stroke="midnightblue" d="M435.52,-112.4C429.83,-103.93 422.55,-93.1 416.52,-84.14"/>
<polygon fill="midnightblue" stroke="midnightblue" points="419.3,-82 410.82,-75.66 413.49,-85.91 419.3,-82"/>
</g>
<!-- Node12 -->
<g id="node12" class="node">
<title>Node12</title>
<g id="a_node12"><a target="_blank" xlink:href="https://en.cppreference.com/w/cpp/header/memory.html" xlink:title=" ">
<polygon fill="white" stroke="black" points="456,-56.5 456,-75.5 514,-75.5 514,-56.5 456,-56.5"/>
<text text-anchor="middle" x="485" y="-63.5" font-family="Helvetica,sans-Serif" font-size="10.00">memory</text>
</a>
</g>
</g>
<!-- Node10&#45;&gt;Node12 -->
<g id="edge11" class="edge">
<title>Node10&#45;&gt;Node12</title>
<path fill="none" stroke="midnightblue" d="M454.48,-112.4C460.17,-103.93 467.45,-93.1 473.48,-84.14"/>
<polygon fill="midnightblue" stroke="midnightblue" points="476.51,-85.91 479.18,-75.66 470.7,-82 476.51,-85.91"/>
</g>
<!-- Node13 -->
<g id="node13" class="node">
<title>Node13</title>
<g id="a_node13"><a target="_blank" xlink:href="https://en.cppreference.com/w/cpp/header/string.html" xlink:title=" ">
<polygon fill="white" stroke="black" points="532,-56.5 532,-75.5 576,-75.5 576,-56.5 532,-56.5"/>
<text text-anchor="middle" x="554" y="-63.5" font-family="Helvetica,sans-Serif" font-size="10.00">string</text>
</a>
</g>
</g>
<!-- Node10&#45;&gt;Node13 -->
<g id="edge12" class="edge">
<title>Node10&#45;&gt;Node13</title>
<path fill="none" stroke="midnightblue" d="M470.83,-112.4C488.47,-102.77 511.7,-90.09 529.13,-80.58"/>
<polygon fill="midnightblue" stroke="midnightblue" points="531.04,-83.52 538.14,-75.66 527.69,-77.38 531.04,-83.52"/>
</g>
<!-- Node14 -->
<g id="node14" class="node">
<title>Node14</title>
<g id="a_node14"><a target="_blank" xlink:href="https://en.cppreference.com/w/cpp/header/typeinfo.html" xlink:title=" ">
<polygon fill="white" stroke="black" points="594.5,-56.5 594.5,-75.5 651.5,-75.5 651.5,-56.5 594.5,-56.5"/>
<text text-anchor="middle" x="623" y="-63.5" font-family="Helvetica,sans-Serif" font-size="10.00">typeinfo</text>
</a>
</g>
</g>
<!-- Node10&#45;&gt;Node14 -->
<g id="edge13" class="edge">
<title>Node10&#45;&gt;Node14</title>
<path fill="none" stroke="midnightblue" d="M487.18,-112.4C517.81,-102.16 558.77,-88.47 587.67,-78.81"/>
<polygon fill="midnightblue" stroke="midnightblue" points="588.98,-82.06 597.36,-75.57 586.77,-75.42 588.98,-82.06"/>
</g>
</g>
</svg>
