<?xml version="1.0" encoding="UTF-8" standalone="no"?>
<!DOCTYPE svg PUBLIC "-//W3C//DTD SVG 1.1//EN"
 "http://www.w3.org/Graphics/SVG/1.1/DTD/svg11.dtd">
<!-- Generated by graphviz version 2.43.0 (0)
 -->
<!-- Title: bio/ranges/views/move.hpp Pages: 1 -->
<svg width="276pt" height="196pt"
 viewBox="0.00 0.00 276.00 196.00" xmlns="http://www.w3.org/2000/svg" xmlns:xlink="http://www.w3.org/1999/xlink">
<g id="graph0" class="graph" transform="scale(1 1) rotate(0) translate(4 192)">
<title>bio/ranges/views/move.hpp</title>
<polygon fill="white" stroke="transparent" points="-4,4 -4,-192 272,-192 272,4 -4,4"/>
<!-- Node1 -->
<g id="node1" class="node">
<title>Node1</title>
<g id="a_node1"><a xlink:title="Provides bio::views::move.">
<polygon fill="#bfbfbf" stroke="black" points="18.5,-168.5 18.5,-187.5 169.5,-187.5 169.5,-168.5 18.5,-168.5"/>
<text text-anchor="middle" x="94" y="-175.5" font-family="Helvetica,sans-Serif" font-size="10.00">bio/ranges/views/move.hpp</text>
</a>
</g>
</g>
<!-- Node2 -->
<g id="node2" class="node">
<title>Node2</title>
<g id="a_node2"><a target="_blank" xlink:href="https://en.cppreference.com/w/cpp/header/ranges.html" xlink:title=" ">
<polygon fill="white" stroke="black" points="16,-112.5 16,-131.5 66,-131.5 66,-112.5 16,-112.5"/>
<text text-anchor="middle" x="41" y="-119.5" font-family="Helvetica,sans-Serif" font-size="10.00">ranges</text>
</a>
</g>
</g>
<!-- Node1&#45;&gt;Node2 -->
<g id="edge1" class="edge">
<title>Node1&#45;&gt;Node2</title>
<path fill="none" stroke="midnightblue" d="M85.25,-168.08C77.53,-160.22 66.1,-148.57 56.78,-139.08"/>
<polygon fill="midnightblue" stroke="midnightblue" points="59.09,-136.44 49.59,-131.75 54.1,-141.34 59.09,-136.44"/>
</g>
<!-- Node3 -->
<g id="node3" class="node">
<title>Node3</title>
<g id="a_node3"><a xlink:href="core_8hpp.html" target="_top" xlink:title="Provides platform and dependency checks.">
<polygon fill="white" stroke="black" points="104.5,-56.5 104.5,-75.5 181.5,-75.5 181.5,-56.5 104.5,-56.5"/>
<text text-anchor="middle" x="143" y="-63.5" font-family="Helvetica,sans-Serif" font-size="10.00">bio/core.hpp</text>
</a>
</g>
</g>
<!-- Node1&#45;&gt;Node3 -->
<g id="edge2" class="edge">
<title>Node1&#45;&gt;Node3</title>
<path fill="none" stroke="midnightblue" d="M95.87,-168.31C98.79,-155.58 105.03,-131.27 114,-112 118.56,-102.2 124.96,-92.03 130.58,-83.83"/>
<polygon fill="midnightblue" stroke="midnightblue" points="133.53,-85.73 136.47,-75.55 127.82,-81.67 133.53,-85.73"/>
</g>
<!-- Node8 -->
<g id="node8" class="node">
<title>Node8</title>
<g id="a_node8"><a xlink:href="overloaded_8hpp.html" target="_top" xlink:title="Provides bio::meta::overloaded.">
<polygon fill="white" stroke="black" points="122.5,-112.5 122.5,-131.5 261.5,-131.5 261.5,-112.5 122.5,-112.5"/>
<text text-anchor="middle" x="192" y="-119.5" font-family="Helvetica,sans-Serif" font-size="10.00">bio/meta/overloaded.hpp</text>
</a>
</g>
</g>
<!-- Node1&#45;&gt;Node8 -->
<g id="edge7" class="edge">
<title>Node1&#45;&gt;Node8</title>
<path fill="none" stroke="midnightblue" d="M109.75,-168.32C125.32,-159.74 149.38,-146.49 167.46,-136.52"/>
<polygon fill="midnightblue" stroke="midnightblue" points="169.22,-139.55 176.29,-131.65 165.85,-133.42 169.22,-139.55"/>
</g>
<!-- Node4 -->
<g id="node4" class="node">
<title>Node4</title>
<g id="a_node4"><a target="_blank" xlink:href="https://en.cppreference.com/w/cpp/header/cinttypes.html" xlink:title=" ">
<polygon fill="white" stroke="black" points="0,-0.5 0,-19.5 62,-19.5 62,-0.5 0,-0.5"/>
<text text-anchor="middle" x="31" y="-7.5" font-family="Helvetica,sans-Serif" font-size="10.00">cinttypes</text>
</a>
</g>
</g>
<!-- Node3&#45;&gt;Node4 -->
<g id="edge3" class="edge">
<title>Node3&#45;&gt;Node4</title>
<path fill="none" stroke="midnightblue" d="M125.01,-56.32C106.96,-47.62 78.95,-34.12 58.2,-24.11"/>
<polygon fill="midnightblue" stroke="midnightblue" points="59.48,-20.84 48.95,-19.65 56.44,-27.15 59.48,-20.84"/>
</g>
<!-- Node5 -->
<g id="node5" class="node">
<title>Node5</title>
<g id="a_node5"><a target="_blank" xlink:href="https://en.cppreference.com/w/cpp/header/ciso646.html" xlink:title=" ">
<polygon fill="white" stroke="black" points="80,-0.5 80,-19.5 134,-19.5 134,-0.5 80,-0.5"/>
<text text-anchor="middle" x="107" y="-7.5" font-family="Helvetica,sans-Serif" font-size="10.00">ciso646</text>
</a>
</g>
</g>
<!-- Node3&#45;&gt;Node5 -->
<g id="edge4" class="edge">
<title>Node3&#45;&gt;Node5</title>
<path fill="none" stroke="midnightblue" d="M137.06,-56.08C132.02,-48.53 124.66,-37.49 118.49,-28.23"/>
<polygon fill="midnightblue" stroke="midnightblue" points="121.29,-26.13 112.83,-19.75 115.47,-30.01 121.29,-26.13"/>
</g>
<!-- Node6 -->
<g id="node6" class="node">
<title>Node6</title>
<g id="a_node6"><a target="_blank" xlink:href="https://en.cppreference.com/w/cpp/header/cstddef.html" xlink:title=" ">
<polygon fill="white" stroke="black" points="152.5,-0.5 152.5,-19.5 205.5,-19.5 205.5,-0.5 152.5,-0.5"/>
<text text-anchor="middle" x="179" y="-7.5" font-family="Helvetica,sans-Serif" font-size="10.00">cstddef</text>
</a>
</g>
</g>
<!-- Node3&#45;&gt;Node6 -->
<g id="edge5" class="edge">
<title>Node3&#45;&gt;Node6</title>
<path fill="none" stroke="midnightblue" d="M148.94,-56.08C153.98,-48.53 161.34,-37.49 167.51,-28.23"/>
<polygon fill="midnightblue" stroke="midnightblue" points="170.53,-30.01 173.17,-19.75 164.71,-26.13 170.53,-30.01"/>
</g>
<!-- Node7 -->
<g id="node7" class="node">
<title>Node7</title>
<g id="a_node7"><a target="_blank" xlink:href="https://en.cppreference.com/w/cpp/header/string.html" xlink:title=" ">
<polygon fill="white" stroke="black" points="224,-0.5 224,-19.5 268,-19.5 268,-0.5 224,-0.5"/>
<text text-anchor="middle" x="246" y="-7.5" font-family="Helvetica,sans-Serif" font-size="10.00">string</text>
</a>
</g>
</g>
<!-- Node3&#45;&gt;Node7 -->
<g id="edge6" class="edge">
<title>Node3&#45;&gt;Node7</title>
<path fill="none" stroke="midnightblue" d="M159.55,-56.32C175.99,-47.7 201.43,-34.36 220.47,-24.39"/>
<polygon fill="midnightblue" stroke="midnightblue" points="222.26,-27.4 229.49,-19.65 219.01,-21.2 222.26,-27.4"/>
</g>
<!-- Node8&#45;&gt;Node3 -->
<g id="edge8" class="edge">
<title>Node8&#45;&gt;Node3</title>
<path fill="none" stroke="midnightblue" d="M183.91,-112.08C176.84,-104.3 166.41,-92.8 157.85,-83.37"/>
<polygon fill="midnightblue" stroke="midnightblue" points="160.25,-80.8 150.94,-75.75 155.07,-85.51 160.25,-80.8"/>
</g>
</g>
</svg>
