<?xml version="1.0" encoding="UTF-8" standalone="no"?>
<!DOCTYPE svg PUBLIC "-//W3C//DTD SVG 1.1//EN"
 "http://www.w3.org/Graphics/SVG/1.1/DTD/svg11.dtd">
<!-- Generated by graphviz version 2.42.2 ()
 -->
<!-- Title: bio/ranges/views/pairwise_combine.hpp Pages: 1 -->
<svg width="1248pt" height="408pt"
 viewBox="0.00 0.00 1247.51 408.00" xmlns="http://www.w3.org/2000/svg" xmlns:xlink="http://www.w3.org/1999/xlink">
<g id="graph0" class="graph" transform="scale(1 1) rotate(0) translate(4 404)">
<title>bio/ranges/views/pairwise_combine.hpp</title>
<polygon fill="white" stroke="transparent" points="-4,4 -4,-404 1243.51,-404 1243.51,4 -4,4"/>
<!-- Node1 -->
<g id="node1" class="node">
<title>Node1</title>
<g id="a_node1"><a xlink:title="Provides bio::views::pairwise_combine.">
<polygon fill="#bfbfbf" stroke="black" points="696,-369.5 696,-399.5 825,-399.5 825,-369.5 696,-369.5"/>
<text text-anchor="start" x="704" y="-387.5" font-family="Helvetica,sans-Serif" font-size="10.00">bio/ranges/views/pairwise</text>
<text text-anchor="middle" x="760.5" y="-376.5" font-family="Helvetica,sans-Serif" font-size="10.00">_combine.hpp</text>
</a>
</g>
</g>
<!-- Node2 -->
<g id="node2" class="node">
<title>Node2</title>
<g id="a_node2"><a target="_blank" xlink:href="https://en.cppreference.com/w/cpp/header/cmath.html" xlink:title=" ">
<polygon fill="white" stroke="black" points="601.5,-313.5 601.5,-332.5 645.5,-332.5 645.5,-313.5 601.5,-313.5"/>
<text text-anchor="middle" x="623.5" y="-320.5" font-family="Helvetica,sans-Serif" font-size="10.00">cmath</text>
</a>
</g>
</g>
<!-- Node1&#45;&gt;Node2 -->
<g id="edge1" class="edge">
<title>Node1&#45;&gt;Node2</title>
<path fill="none" stroke="midnightblue" d="M728.03,-369.4C705.15,-359.46 674.77,-346.26 652.66,-336.66"/>
<polygon fill="midnightblue" stroke="midnightblue" points="654,-333.43 643.43,-332.66 651.21,-339.85 654,-333.43"/>
</g>
<!-- Node3 -->
<g id="node3" class="node">
<title>Node3</title>
<g id="a_node3"><a target="_blank" xlink:href="https://en.cppreference.com/w/cpp/header/ranges.html" xlink:title=" ">
<polygon fill="white" stroke="black" points="822.5,-174 822.5,-193 868.5,-193 868.5,-174 822.5,-174"/>
<text text-anchor="middle" x="845.5" y="-181" font-family="Helvetica,sans-Serif" font-size="10.00">ranges</text>
</a>
</g>
</g>
<!-- Node1&#45;&gt;Node3 -->
<g id="edge2" class="edge">
<title>Node1&#45;&gt;Node3</title>
<path fill="none" stroke="midnightblue" d="M789.18,-369.46C803.42,-360.94 819.47,-348.67 828.5,-333 852.3,-291.72 850.7,-233.26 847.9,-203.5"/>
<polygon fill="midnightblue" stroke="midnightblue" points="851.35,-202.83 846.77,-193.27 844.39,-203.6 851.35,-202.83"/>
</g>
<!-- Node4 -->
<g id="node4" class="node">
<title>Node4</title>
<g id="a_node4"><a xlink:href="transformation__trait__or_8hpp.html" target="_top" xlink:title="Provides bio::meta::transformation_trait_or.">
<polygon fill="white" stroke="black" points="624.5,-235.5 624.5,-276.5 728.5,-276.5 728.5,-235.5 624.5,-235.5"/>
<text text-anchor="start" x="632.5" y="-264.5" font-family="Helvetica,sans-Serif" font-size="10.00">bio/meta/type_traits</text>
<text text-anchor="start" x="632.5" y="-253.5" font-family="Helvetica,sans-Serif" font-size="10.00">/transformation_trait</text>
<text text-anchor="middle" x="676.5" y="-242.5" font-family="Helvetica,sans-Serif" font-size="10.00">_or.hpp</text>
</a>
</g>
</g>
<!-- Node1&#45;&gt;Node4 -->
<g id="edge3" class="edge">
<title>Node1&#45;&gt;Node4</title>
<path fill="none" stroke="midnightblue" d="M732.75,-369.31C718.6,-360.68 702.34,-348.35 692.5,-333 683.72,-319.3 679.66,-301.62 677.83,-286.76"/>
<polygon fill="midnightblue" stroke="midnightblue" points="681.29,-286.16 676.85,-276.54 674.32,-286.83 681.29,-286.16"/>
</g>
<!-- Node11 -->
<g id="node11" class="node">
<title>Node11</title>
<g id="a_node11"><a xlink:href="ranges_2concept_8hpp.html" target="_top" xlink:title="Additional non&#45;standard concepts for ranges.">
<polygon fill="white" stroke="black" points="701.5,-313.5 701.5,-332.5 819.5,-332.5 819.5,-313.5 701.5,-313.5"/>
<text text-anchor="middle" x="760.5" y="-320.5" font-family="Helvetica,sans-Serif" font-size="10.00">bio/ranges/concept.hpp</text>
</a>
</g>
</g>
<!-- Node1&#45;&gt;Node11 -->
<g id="edge11" class="edge">
<title>Node1&#45;&gt;Node11</title>
<path fill="none" stroke="midnightblue" d="M760.5,-369.4C760.5,-361.47 760.5,-351.46 760.5,-342.86"/>
<polygon fill="midnightblue" stroke="midnightblue" points="764,-342.66 760.5,-332.66 757,-342.66 764,-342.66"/>
</g>
<!-- Node26 -->
<g id="node26" class="node">
<title>Node26</title>
<g id="a_node26"><a xlink:href="ranges_2views_2detail_8hpp_source.html" target="_top" xlink:title=" ">
<polygon fill="white" stroke="black" points="876,-313.5 876,-332.5 1011,-332.5 1011,-313.5 876,-313.5"/>
<text text-anchor="middle" x="943.5" y="-320.5" font-family="Helvetica,sans-Serif" font-size="10.00">bio/ranges/views/detail.hpp</text>
</a>
</g>
</g>
<!-- Node1&#45;&gt;Node26 -->
<g id="edge38" class="edge">
<title>Node1&#45;&gt;Node26</title>
<path fill="none" stroke="midnightblue" d="M803.87,-369.4C835.49,-359.12 877.83,-345.35 907.57,-335.68"/>
<polygon fill="midnightblue" stroke="midnightblue" points="908.71,-338.99 917.14,-332.57 906.55,-332.33 908.71,-338.99"/>
</g>
<!-- Node5 -->
<g id="node5" class="node">
<title>Node5</title>
<g id="a_node5"><a target="_blank" xlink:href="https://en.cppreference.com/w/cpp/header/type_traits.html" xlink:title=" ">
<polygon fill="white" stroke="black" points="744.5,-112.5 744.5,-131.5 806.5,-131.5 806.5,-112.5 744.5,-112.5"/>
<text text-anchor="middle" x="775.5" y="-119.5" font-family="Helvetica,sans-Serif" font-size="10.00">type_traits</text>
</a>
</g>
</g>
<!-- Node4&#45;&gt;Node5 -->
<g id="edge4" class="edge">
<title>Node4&#45;&gt;Node5</title>
<path fill="none" stroke="midnightblue" d="M728.61,-235.48C744.72,-226.8 760.78,-214.87 770.5,-199 781.05,-181.78 780.79,-158.05 778.86,-141.71"/>
<polygon fill="midnightblue" stroke="midnightblue" points="782.32,-141.12 777.38,-131.75 775.39,-142.16 782.32,-141.12"/>
</g>
<!-- Node6 -->
<g id="node6" class="node">
<title>Node6</title>
<g id="a_node6"><a xlink:href="meta_2type__traits_2concept_8hpp.html" target="_top" xlink:title="Provides the concepts bio::meta::transformation_trait and bio::meta::unary_type_trait.">
<polygon fill="white" stroke="black" points="625,-168.5 625,-198.5 728,-198.5 728,-168.5 625,-168.5"/>
<text text-anchor="start" x="633" y="-186.5" font-family="Helvetica,sans-Serif" font-size="10.00">bio/meta/type_traits</text>
<text text-anchor="middle" x="676.5" y="-175.5" font-family="Helvetica,sans-Serif" font-size="10.00">/concept.hpp</text>
</a>
</g>
</g>
<!-- Node4&#45;&gt;Node6 -->
<g id="edge5" class="edge">
<title>Node4&#45;&gt;Node6</title>
<path fill="none" stroke="midnightblue" d="M676.5,-235.36C676.5,-227.23 676.5,-217.7 676.5,-209.11"/>
<polygon fill="midnightblue" stroke="midnightblue" points="680,-208.89 676.5,-198.89 673,-208.89 680,-208.89"/>
</g>
<!-- Node6&#45;&gt;Node5 -->
<g id="edge6" class="edge">
<title>Node6&#45;&gt;Node5</title>
<path fill="none" stroke="midnightblue" d="M699.96,-168.4C715.83,-158.86 736.69,-146.32 752.47,-136.84"/>
<polygon fill="midnightblue" stroke="midnightblue" points="754.33,-139.81 761.09,-131.66 750.72,-133.81 754.33,-139.81"/>
</g>
<!-- Node7 -->
<g id="node7" class="node">
<title>Node7</title>
<g id="a_node7"><a xlink:href="platform_8hpp.html" target="_top" xlink:title="Provides platform and dependency checks.">
<polygon fill="white" stroke="black" points="588,-56.5 588,-75.5 699,-75.5 699,-56.5 588,-56.5"/>
<text text-anchor="middle" x="643.5" y="-63.5" font-family="Helvetica,sans-Serif" font-size="10.00">bio/meta/platform.hpp</text>
</a>
</g>
</g>
<!-- Node6&#45;&gt;Node7 -->
<g id="edge7" class="edge">
<title>Node6&#45;&gt;Node7</title>
<path fill="none" stroke="midnightblue" d="M672.87,-168.41C669.16,-154.15 663.15,-131.48 657.5,-112 654.93,-103.15 651.91,-93.37 649.34,-85.2"/>
<polygon fill="midnightblue" stroke="midnightblue" points="652.65,-84.07 646.28,-75.6 645.98,-86.19 652.65,-84.07"/>
</g>
<!-- Node8 -->
<g id="node8" class="node">
<title>Node8</title>
<g id="a_node8"><a target="_blank" xlink:href="https://en.cppreference.com/w/cpp/header/cinttypes.html" xlink:title=" ">
<polygon fill="white" stroke="black" points="544.5,-0.5 544.5,-19.5 600.5,-19.5 600.5,-0.5 544.5,-0.5"/>
<text text-anchor="middle" x="572.5" y="-7.5" font-family="Helvetica,sans-Serif" font-size="10.00">cinttypes</text>
</a>
</g>
</g>
<!-- Node7&#45;&gt;Node8 -->
<g id="edge8" class="edge">
<title>Node7&#45;&gt;Node8</title>
<path fill="none" stroke="midnightblue" d="M632.09,-56.32C621.39,-48.18 605.16,-35.84 592.34,-26.09"/>
<polygon fill="midnightblue" stroke="midnightblue" points="594.19,-23.1 584.11,-19.83 589.96,-28.67 594.19,-23.1"/>
</g>
<!-- Node9 -->
<g id="node9" class="node">
<title>Node9</title>
<g id="a_node9"><a target="_blank" xlink:href="https://en.cppreference.com/w/cpp/header/ciso646.html" xlink:title=" ">
<polygon fill="white" stroke="black" points="618.5,-0.5 618.5,-19.5 668.5,-19.5 668.5,-0.5 618.5,-0.5"/>
<text text-anchor="middle" x="643.5" y="-7.5" font-family="Helvetica,sans-Serif" font-size="10.00">ciso646</text>
</a>
</g>
</g>
<!-- Node7&#45;&gt;Node9 -->
<g id="edge9" class="edge">
<title>Node7&#45;&gt;Node9</title>
<path fill="none" stroke="midnightblue" d="M643.5,-56.08C643.5,-49.01 643.5,-38.86 643.5,-29.99"/>
<polygon fill="midnightblue" stroke="midnightblue" points="647,-29.75 643.5,-19.75 640,-29.75 647,-29.75"/>
</g>
<!-- Node10 -->
<g id="node10" class="node">
<title>Node10</title>
<g id="a_node10"><a target="_blank" xlink:href="https://en.cppreference.com/w/cpp/header/cstddef.html" xlink:title=" ">
<polygon fill="white" stroke="black" points="687,-0.5 687,-19.5 736,-19.5 736,-0.5 687,-0.5"/>
<text text-anchor="middle" x="711.5" y="-7.5" font-family="Helvetica,sans-Serif" font-size="10.00">cstddef</text>
</a>
</g>
</g>
<!-- Node7&#45;&gt;Node10 -->
<g id="edge10" class="edge">
<title>Node7&#45;&gt;Node10</title>
<path fill="none" stroke="midnightblue" d="M654.43,-56.32C664.67,-48.18 680.22,-35.84 692.5,-26.09"/>
<polygon fill="midnightblue" stroke="midnightblue" points="694.72,-28.79 700.38,-19.83 690.37,-23.31 694.72,-28.79"/>
</g>
<!-- Node11&#45;&gt;Node3 -->
<g id="edge12" class="edge">
<title>Node11&#45;&gt;Node3</title>
<path fill="none" stroke="midnightblue" d="M765.82,-313.4C779.53,-291.21 816.31,-231.72 834.71,-201.95"/>
<polygon fill="midnightblue" stroke="midnightblue" points="837.9,-203.44 840.18,-193.1 831.95,-199.76 837.9,-203.44"/>
</g>
<!-- Node12 -->
<g id="node12" class="node">
<title>Node12</title>
<g id="a_node12"><a xlink:href="alphabet_2concept_8hpp.html" target="_top" xlink:title="Core alphabet concept and free function/type trait wrappers.">
<polygon fill="white" stroke="black" points="414,-246.5 414,-265.5 539,-265.5 539,-246.5 414,-246.5"/>
<text text-anchor="middle" x="476.5" y="-253.5" font-family="Helvetica,sans-Serif" font-size="10.00">bio/alphabet/concept.hpp</text>
</a>
</g>
</g>
<!-- Node11&#45;&gt;Node12 -->
<g id="edge13" class="edge">
<title>Node11&#45;&gt;Node12</title>
<path fill="none" stroke="midnightblue" d="M723.08,-313.44C671.89,-301.72 580.02,-280.69 524.02,-267.88"/>
<polygon fill="midnightblue" stroke="midnightblue" points="524.53,-264.4 514,-265.58 522.97,-271.23 524.53,-264.4"/>
</g>
<!-- Node12&#45;&gt;Node5 -->
<g id="edge14" class="edge">
<title>Node12&#45;&gt;Node5</title>
<path fill="none" stroke="midnightblue" d="M527.79,-246.45C599.02,-234.21 721.04,-211.76 737.5,-199 755.87,-184.77 766.02,-159.28 771.11,-141.78"/>
<polygon fill="midnightblue" stroke="midnightblue" points="774.62,-142.18 773.76,-131.62 767.85,-140.41 774.62,-142.18"/>
</g>
<!-- Node13 -->
<g id="node13" class="node">
<title>Node13</title>
<g id="a_node13"><a xlink:href="alphabet_2biocpp_8hpp.html" target="_top" xlink:title="Module header with module&#45;wide definitions.">
<polygon fill="white" stroke="black" points="345,-112.5 345,-131.5 464,-131.5 464,-112.5 345,-112.5"/>
<text text-anchor="middle" x="404.5" y="-119.5" font-family="Helvetica,sans-Serif" font-size="10.00">bio/alphabet/biocpp.hpp</text>
</a>
</g>
</g>
<!-- Node12&#45;&gt;Node13 -->
<g id="edge15" class="edge">
<title>Node12&#45;&gt;Node13</title>
<path fill="none" stroke="midnightblue" d="M413.94,-246.85C384.35,-239.5 351.61,-225.54 333.5,-199 325.73,-187.62 326.86,-180.07 333.5,-168 341.39,-153.66 355.99,-143.25 369.9,-136.08"/>
<polygon fill="midnightblue" stroke="midnightblue" points="371.79,-139.06 379.34,-131.62 368.8,-132.73 371.79,-139.06"/>
</g>
<!-- Node14 -->
<g id="node14" class="node">
<title>Node14</title>
<g id="a_node14"><a xlink:href="exception_8hpp.html" target="_top" xlink:title="Exceptions thrown by entities in the alphabet module.">
<polygon fill="white" stroke="black" points="343,-174 343,-193 476,-193 476,-174 343,-174"/>
<text text-anchor="middle" x="409.5" y="-181" font-family="Helvetica,sans-Serif" font-size="10.00">bio/alphabet/exception.hpp</text>
</a>
</g>
</g>
<!-- Node12&#45;&gt;Node14 -->
<g id="edge17" class="edge">
<title>Node12&#45;&gt;Node14</title>
<path fill="none" stroke="midnightblue" d="M468.28,-246.36C457.54,-235.04 438.48,-215 424.98,-200.79"/>
<polygon fill="midnightblue" stroke="midnightblue" points="427.21,-198.05 417.78,-193.22 422.13,-202.88 427.21,-198.05"/>
</g>
<!-- Node18 -->
<g id="node18" class="node">
<title>Node18</title>
<g id="a_node18"><a xlink:href="core__language_8hpp.html" target="_top" xlink:title="Provides concepts for core language types and relations that don&#39;t have concepts in C++20 (yet).">
<polygon fill="white" stroke="black" points="494,-168.5 494,-198.5 607,-198.5 607,-168.5 494,-168.5"/>
<text text-anchor="start" x="502" y="-186.5" font-family="Helvetica,sans-Serif" font-size="10.00">bio/meta/concept/core</text>
<text text-anchor="middle" x="550.5" y="-175.5" font-family="Helvetica,sans-Serif" font-size="10.00">_language.hpp</text>
</a>
</g>
</g>
<!-- Node12&#45;&gt;Node18 -->
<g id="edge22" class="edge">
<title>Node12&#45;&gt;Node18</title>
<path fill="none" stroke="midnightblue" d="M485.57,-246.36C496.12,-236.3 513.92,-219.35 528.21,-205.73"/>
<polygon fill="midnightblue" stroke="midnightblue" points="530.9,-208.01 535.73,-198.58 526.07,-202.94 530.9,-208.01"/>
</g>
<!-- Node19 -->
<g id="node19" class="node">
<title>Node19</title>
<g id="a_node19"><a xlink:href="priority__tag_8hpp.html" target="_top" xlink:title="provides bio::meta::detail::priority_tag.">
<polygon fill="white" stroke="black" points="0,-168.5 0,-198.5 113,-198.5 113,-168.5 0,-168.5"/>
<text text-anchor="start" x="8" y="-186.5" font-family="Helvetica,sans-Serif" font-size="10.00">bio/meta/detail/priority</text>
<text text-anchor="middle" x="56.5" y="-175.5" font-family="Helvetica,sans-Serif" font-size="10.00">_tag.hpp</text>
</a>
</g>
</g>
<!-- Node12&#45;&gt;Node19 -->
<g id="edge26" class="edge">
<title>Node12&#45;&gt;Node19</title>
<path fill="none" stroke="midnightblue" d="M425.84,-246.5C350.05,-233.77 207.08,-209.78 122.99,-195.66"/>
<polygon fill="midnightblue" stroke="midnightblue" points="123.47,-192.19 113.03,-193.99 122.31,-199.1 123.47,-192.19"/>
</g>
<!-- Node20 -->
<g id="node20" class="node">
<title>Node20</title>
<g id="a_node20"><a xlink:href="type__inspection_8hpp.html" target="_top" xlink:title="Provides traits to inspect some information of a type, for example its name.">
<polygon fill="white" stroke="black" points="166.5,-168.5 166.5,-198.5 268.5,-198.5 268.5,-168.5 166.5,-168.5"/>
<text text-anchor="start" x="174.5" y="-186.5" font-family="Helvetica,sans-Serif" font-size="10.00">bio/meta/detail/type</text>
<text text-anchor="middle" x="217.5" y="-175.5" font-family="Helvetica,sans-Serif" font-size="10.00">_inspection.hpp</text>
</a>
</g>
</g>
<!-- Node12&#45;&gt;Node20 -->
<g id="edge28" class="edge">
<title>Node12&#45;&gt;Node20</title>
<path fill="none" stroke="midnightblue" d="M445.26,-246.5C404.18,-235.31 331.1,-215.42 278.79,-201.18"/>
<polygon fill="midnightblue" stroke="midnightblue" points="279.52,-197.76 268.95,-198.51 277.68,-204.51 279.52,-197.76"/>
</g>
<!-- Node24 -->
<g id="node24" class="node">
<title>Node24</title>
<g id="a_node24"><a xlink:href="basic_8hpp.html" target="_top" xlink:title="Provides various type traits on generic types.">
<polygon fill="white" stroke="black" points="887,-168.5 887,-198.5 990,-198.5 990,-168.5 887,-168.5"/>
<text text-anchor="start" x="895" y="-186.5" font-family="Helvetica,sans-Serif" font-size="10.00">bio/meta/type_traits</text>
<text text-anchor="middle" x="938.5" y="-175.5" font-family="Helvetica,sans-Serif" font-size="10.00">/basic.hpp</text>
</a>
</g>
</g>
<!-- Node12&#45;&gt;Node24 -->
<g id="edge34" class="edge">
<title>Node12&#45;&gt;Node24</title>
<path fill="none" stroke="midnightblue" d="M535.33,-246.45C560.08,-242.88 589.18,-238.7 615.5,-235 728.71,-219.08 760.26,-220.52 876.94,-198.99"/>
<polygon fill="midnightblue" stroke="midnightblue" points="877.8,-202.39 886.99,-197.11 876.52,-195.51 877.8,-202.39"/>
</g>
<!-- Node13&#45;&gt;Node7 -->
<g id="edge16" class="edge">
<title>Node13&#45;&gt;Node7</title>
<path fill="none" stroke="midnightblue" d="M442.37,-112.44C483.98,-103.04 550.87,-87.93 595.97,-77.74"/>
<polygon fill="midnightblue" stroke="midnightblue" points="596.82,-81.13 605.81,-75.52 595.28,-74.31 596.82,-81.13"/>
</g>
<!-- Node14&#45;&gt;Node13 -->
<g id="edge21" class="edge">
<title>Node14&#45;&gt;Node13</title>
<path fill="none" stroke="midnightblue" d="M408.78,-173.98C408.08,-165.58 406.98,-152.48 406.07,-141.66"/>
<polygon fill="midnightblue" stroke="midnightblue" points="409.54,-141.18 405.22,-131.51 402.56,-141.77 409.54,-141.18"/>
</g>
<!-- Node15 -->
<g id="node15" class="node">
<title>Node15</title>
<g id="a_node15"><a target="_blank" xlink:href="https://en.cppreference.com/w/cpp/header/concepts.html" xlink:title=" ">
<polygon fill="white" stroke="black" points="559.5,-112.5 559.5,-131.5 615.5,-131.5 615.5,-112.5 559.5,-112.5"/>
<text text-anchor="middle" x="587.5" y="-119.5" font-family="Helvetica,sans-Serif" font-size="10.00">concepts</text>
</a>
</g>
</g>
<!-- Node14&#45;&gt;Node15 -->
<g id="edge18" class="edge">
<title>Node14&#45;&gt;Node15</title>
<path fill="none" stroke="midnightblue" d="M435,-173.98C465.8,-163.68 517.77,-146.31 552.35,-134.75"/>
<polygon fill="midnightblue" stroke="midnightblue" points="553.67,-138 562.04,-131.51 551.45,-131.36 553.67,-138"/>
</g>
<!-- Node16 -->
<g id="node16" class="node">
<title>Node16</title>
<g id="a_node16"><a target="_blank" xlink:href="https://en.cppreference.com/w/cpp/header/stdexcept.html" xlink:title=" ">
<polygon fill="white" stroke="black" points="482,-112.5 482,-131.5 541,-131.5 541,-112.5 482,-112.5"/>
<text text-anchor="middle" x="511.5" y="-119.5" font-family="Helvetica,sans-Serif" font-size="10.00">stdexcept</text>
</a>
</g>
</g>
<!-- Node14&#45;&gt;Node16 -->
<g id="edge19" class="edge">
<title>Node14&#45;&gt;Node16</title>
<path fill="none" stroke="midnightblue" d="M424.11,-173.98C440.85,-164.21 468.5,-148.08 488.22,-136.58"/>
<polygon fill="midnightblue" stroke="midnightblue" points="490.04,-139.57 496.91,-131.51 486.51,-133.52 490.04,-139.57"/>
</g>
<!-- Node17 -->
<g id="node17" class="node">
<title>Node17</title>
<g id="a_node17"><a target="_blank" xlink:href="https://en.cppreference.com/w/cpp/header/string.html" xlink:title=" ">
<polygon fill="white" stroke="black" points="286,-112.5 286,-131.5 327,-131.5 327,-112.5 286,-112.5"/>
<text text-anchor="middle" x="306.5" y="-119.5" font-family="Helvetica,sans-Serif" font-size="10.00">string</text>
</a>
</g>
</g>
<!-- Node14&#45;&gt;Node17 -->
<g id="edge20" class="edge">
<title>Node14&#45;&gt;Node17</title>
<path fill="none" stroke="midnightblue" d="M394.74,-173.98C377.84,-164.21 349.92,-148.08 330.01,-136.58"/>
<polygon fill="midnightblue" stroke="midnightblue" points="331.64,-133.48 321.23,-131.51 328.14,-139.54 331.64,-133.48"/>
</g>
<!-- Node18&#45;&gt;Node5 -->
<g id="edge23" class="edge">
<title>Node18&#45;&gt;Node5</title>
<path fill="none" stroke="midnightblue" d="M603.54,-168.47C643.56,-157.89 697.67,-143.58 734.43,-133.86"/>
<polygon fill="midnightblue" stroke="midnightblue" points="735.54,-137.19 744.31,-131.25 733.75,-130.42 735.54,-137.19"/>
</g>
<!-- Node18&#45;&gt;Node7 -->
<g id="edge24" class="edge">
<title>Node18&#45;&gt;Node7</title>
<path fill="none" stroke="midnightblue" d="M580.56,-168.31C595.74,-159.74 613.26,-147.48 624.5,-132 634.32,-118.47 639.1,-99.92 641.4,-86.1"/>
<polygon fill="midnightblue" stroke="midnightblue" points="644.92,-86.2 642.81,-75.81 637.98,-85.25 644.92,-86.2"/>
</g>
<!-- Node18&#45;&gt;Node15 -->
<g id="edge25" class="edge">
<title>Node18&#45;&gt;Node15</title>
<path fill="none" stroke="midnightblue" d="M559.27,-168.4C564.48,-160.02 571.13,-149.33 576.67,-140.42"/>
<polygon fill="midnightblue" stroke="midnightblue" points="579.81,-142 582.12,-131.66 573.86,-138.3 579.81,-142"/>
</g>
<!-- Node19&#45;&gt;Node7 -->
<g id="edge27" class="edge">
<title>Node19&#45;&gt;Node7</title>
<path fill="none" stroke="midnightblue" d="M40.56,-168.37C25.12,-153.02 6.14,-128.51 21.5,-112 58.78,-71.92 425.31,-67.08 577.64,-66.82"/>
<polygon fill="midnightblue" stroke="midnightblue" points="577.79,-70.32 587.79,-66.81 577.79,-63.32 577.79,-70.32"/>
</g>
<!-- Node20&#45;&gt;Node7 -->
<g id="edge33" class="edge">
<title>Node20&#45;&gt;Node7</title>
<path fill="none" stroke="midnightblue" d="M224.93,-168.36C234.47,-151.8 252.66,-124.96 276.5,-112 327,-84.54 486.47,-73.48 577.71,-69.31"/>
<polygon fill="midnightblue" stroke="midnightblue" points="578.12,-72.8 587.95,-68.86 577.81,-65.8 578.12,-72.8"/>
</g>
<!-- Node20&#45;&gt;Node17 -->
<g id="edge31" class="edge">
<title>Node20&#45;&gt;Node17</title>
<path fill="none" stroke="midnightblue" d="M238.59,-168.4C252.59,-159.04 270.91,-146.79 284.99,-137.38"/>
<polygon fill="midnightblue" stroke="midnightblue" points="287.18,-140.13 293.55,-131.66 283.29,-134.31 287.18,-140.13"/>
</g>
<!-- Node21 -->
<g id="node21" class="node">
<title>Node21</title>
<g id="a_node21"><a target="_blank" xlink:href="https://en.cppreference.com/w/cpp/header/functional.html" xlink:title=" ">
<polygon fill="white" stroke="black" points="170,-112.5 170,-131.5 229,-131.5 229,-112.5 170,-112.5"/>
<text text-anchor="middle" x="199.5" y="-119.5" font-family="Helvetica,sans-Serif" font-size="10.00">functional</text>
</a>
</g>
</g>
<!-- Node20&#45;&gt;Node21 -->
<g id="edge29" class="edge">
<title>Node20&#45;&gt;Node21</title>
<path fill="none" stroke="midnightblue" d="M213.23,-168.4C210.78,-160.29 207.67,-150.01 205.03,-141.28"/>
<polygon fill="midnightblue" stroke="midnightblue" points="208.36,-140.22 202.12,-131.66 201.66,-142.24 208.36,-140.22"/>
</g>
<!-- Node22 -->
<g id="node22" class="node">
<title>Node22</title>
<g id="a_node22"><a target="_blank" xlink:href="https://en.cppreference.com/w/cpp/header/memory.html" xlink:title=" ">
<polygon fill="white" stroke="black" points="30.5,-112.5 30.5,-131.5 82.5,-131.5 82.5,-112.5 30.5,-112.5"/>
<text text-anchor="middle" x="56.5" y="-119.5" font-family="Helvetica,sans-Serif" font-size="10.00">memory</text>
</a>
</g>
</g>
<!-- Node20&#45;&gt;Node22 -->
<g id="edge30" class="edge">
<title>Node20&#45;&gt;Node22</title>
<path fill="none" stroke="midnightblue" d="M179.35,-168.4C151.97,-158.28 115.46,-144.79 89.37,-135.15"/>
<polygon fill="midnightblue" stroke="midnightblue" points="90.52,-131.84 79.93,-131.66 88.09,-138.41 90.52,-131.84"/>
</g>
<!-- Node23 -->
<g id="node23" class="node">
<title>Node23</title>
<g id="a_node23"><a target="_blank" xlink:href="https://en.cppreference.com/w/cpp/header/typeinfo.html" xlink:title=" ">
<polygon fill="white" stroke="black" points="101,-112.5 101,-131.5 152,-131.5 152,-112.5 101,-112.5"/>
<text text-anchor="middle" x="126.5" y="-119.5" font-family="Helvetica,sans-Serif" font-size="10.00">typeinfo</text>
</a>
</g>
</g>
<!-- Node20&#45;&gt;Node23 -->
<g id="edge32" class="edge">
<title>Node20&#45;&gt;Node23</title>
<path fill="none" stroke="midnightblue" d="M195.93,-168.4C181.62,-159.04 162.89,-146.79 148.49,-137.38"/>
<polygon fill="midnightblue" stroke="midnightblue" points="150.03,-134.2 139.74,-131.66 146.2,-140.06 150.03,-134.2"/>
</g>
<!-- Node24&#45;&gt;Node5 -->
<g id="edge36" class="edge">
<title>Node24&#45;&gt;Node5</title>
<path fill="none" stroke="midnightblue" d="M899.87,-168.4C872.16,-158.28 835.19,-144.79 808.78,-135.15"/>
<polygon fill="midnightblue" stroke="midnightblue" points="809.81,-131.8 799.22,-131.66 807.41,-138.37 809.81,-131.8"/>
</g>
<!-- Node24&#45;&gt;Node7 -->
<g id="edge37" class="edge">
<title>Node24&#45;&gt;Node7</title>
<path fill="none" stroke="midnightblue" d="M917.6,-168.22C893.81,-152.52 853.32,-127.46 815.5,-112 777.93,-96.63 733.56,-85.18 699.3,-77.67"/>
<polygon fill="midnightblue" stroke="midnightblue" points="699.98,-74.24 689.47,-75.57 698.51,-81.08 699.98,-74.24"/>
</g>
<!-- Node25 -->
<g id="node25" class="node">
<title>Node25</title>
<g id="a_node25"><a target="_blank" xlink:href="https://en.cppreference.com/w/cpp/header/tuple.html" xlink:title=" ">
<polygon fill="white" stroke="black" points="952.5,-112.5 952.5,-131.5 990.5,-131.5 990.5,-112.5 952.5,-112.5"/>
<text text-anchor="middle" x="971.5" y="-119.5" font-family="Helvetica,sans-Serif" font-size="10.00">tuple</text>
</a>
</g>
</g>
<!-- Node24&#45;&gt;Node25 -->
<g id="edge35" class="edge">
<title>Node24&#45;&gt;Node25</title>
<path fill="none" stroke="midnightblue" d="M946.32,-168.4C950.97,-160.02 956.9,-149.33 961.84,-140.42"/>
<polygon fill="midnightblue" stroke="midnightblue" points="964.91,-142.1 966.7,-131.66 958.79,-138.71 964.91,-142.1"/>
</g>
<!-- Node26&#45;&gt;Node3 -->
<g id="edge39" class="edge">
<title>Node26&#45;&gt;Node3</title>
<path fill="none" stroke="midnightblue" d="M937.37,-313.4C921.49,-291.12 878.78,-231.2 857.66,-201.57"/>
<polygon fill="midnightblue" stroke="midnightblue" points="860.28,-199.21 851.63,-193.1 854.58,-203.27 860.28,-199.21"/>
</g>
<!-- Node26&#45;&gt;Node24 -->
<g id="edge41" class="edge">
<title>Node26&#45;&gt;Node24</title>
<path fill="none" stroke="midnightblue" d="M943.19,-313.4C942.44,-292.78 940.52,-239.94 939.38,-208.69"/>
<polygon fill="midnightblue" stroke="midnightblue" points="942.87,-208.49 939.01,-198.62 935.88,-208.75 942.87,-208.49"/>
</g>
<!-- Node26&#45;&gt;Node25 -->
<g id="edge40" class="edge">
<title>Node26&#45;&gt;Node25</title>
<path fill="none" stroke="midnightblue" d="M1011.12,-316.07C1081.98,-305.7 1189.04,-277.21 1233.5,-199 1240.31,-187.02 1242.38,-178.53 1233.5,-168 1204.04,-133.05 1063.28,-125.24 1001.12,-123.5"/>
<polygon fill="midnightblue" stroke="midnightblue" points="1000.9,-119.99 990.81,-123.25 1000.72,-126.99 1000.9,-119.99"/>
</g>
<!-- Node27 -->
<g id="node27" class="node">
<title>Node27</title>
<g id="a_node27"><a xlink:href="type__traits_8hpp.html" target="_top" xlink:title="Provides various transformation traits used by the range module.">
<polygon fill="white" stroke="black" points="964,-246.5 964,-265.5 1093,-265.5 1093,-246.5 964,-246.5"/>
<text text-anchor="middle" x="1028.5" y="-253.5" font-family="Helvetica,sans-Serif" font-size="10.00">bio/ranges/type_traits.hpp</text>
</a>
</g>
</g>
<!-- Node26&#45;&gt;Node27 -->
<g id="edge42" class="edge">
<title>Node26&#45;&gt;Node27</title>
<path fill="none" stroke="midnightblue" d="M954.96,-313.23C968.86,-302.61 992.48,-284.55 1009.19,-271.76"/>
<polygon fill="midnightblue" stroke="midnightblue" points="1011.4,-274.48 1017.22,-265.63 1007.15,-268.92 1011.4,-274.48"/>
</g>
<!-- Node27&#45;&gt;Node3 -->
<g id="edge44" class="edge">
<title>Node27&#45;&gt;Node3</title>
<path fill="none" stroke="midnightblue" d="M1004.44,-246.49C974.67,-235.86 922.54,-216.88 878.5,-199 877.09,-198.43 875.64,-197.83 874.19,-197.22"/>
<polygon fill="midnightblue" stroke="midnightblue" points="875.19,-193.84 864.62,-193.12 872.43,-200.28 875.19,-193.84"/>
</g>
<!-- Node27&#45;&gt;Node5 -->
<g id="edge45" class="edge">
<title>Node27&#45;&gt;Node5</title>
<path fill="none" stroke="midnightblue" d="M1028.32,-246.31C1027.46,-228.68 1022.89,-188.66 999.5,-168 972.92,-144.51 874.13,-131.88 817.01,-126.4"/>
<polygon fill="midnightblue" stroke="midnightblue" points="817.14,-122.89 806.86,-125.46 816.49,-129.86 817.14,-122.89"/>
</g>
<!-- Node27&#45;&gt;Node24 -->
<g id="edge46" class="edge">
<title>Node27&#45;&gt;Node24</title>
<path fill="none" stroke="midnightblue" d="M1017.46,-246.36C1004.39,-236.12 982.19,-218.72 964.65,-204.98"/>
<polygon fill="midnightblue" stroke="midnightblue" points="966.5,-201.99 956.47,-198.58 962.18,-207.5 966.5,-201.99"/>
</g>
<!-- Node28 -->
<g id="node28" class="node">
<title>Node28</title>
<g id="a_node28"><a target="_blank" xlink:href="https://en.cppreference.com/w/cpp/header/iterator.html" xlink:title=" ">
<polygon fill="white" stroke="black" points="1047,-174 1047,-193 1094,-193 1094,-174 1047,-174"/>
<text text-anchor="middle" x="1070.5" y="-181" font-family="Helvetica,sans-Serif" font-size="10.00">iterator</text>
</a>
</g>
</g>
<!-- Node27&#45;&gt;Node28 -->
<g id="edge43" class="edge">
<title>Node27&#45;&gt;Node28</title>
<path fill="none" stroke="midnightblue" d="M1033.65,-246.36C1040.2,-235.36 1051.67,-216.11 1060.07,-202"/>
<polygon fill="midnightblue" stroke="midnightblue" points="1063.2,-203.6 1065.31,-193.22 1057.18,-200.02 1063.2,-203.6"/>
</g>
<!-- Node29 -->
<g id="node29" class="node">
<title>Node29</title>
<g id="a_node29"><a xlink:href="ranges_2biocpp_8hpp.html" target="_top" xlink:title="Module header with module&#45;wide definitions.">
<polygon fill="white" stroke="black" points="1112.5,-174 1112.5,-193 1224.5,-193 1224.5,-174 1112.5,-174"/>
<text text-anchor="middle" x="1168.5" y="-181" font-family="Helvetica,sans-Serif" font-size="10.00">bio/ranges/biocpp.hpp</text>
</a>
</g>
</g>
<!-- Node27&#45;&gt;Node29 -->
<g id="edge47" class="edge">
<title>Node27&#45;&gt;Node29</title>
<path fill="none" stroke="midnightblue" d="M1045.39,-246.5C1069.56,-234.32 1114.24,-211.82 1142.61,-197.54"/>
<polygon fill="midnightblue" stroke="midnightblue" points="1144.2,-200.66 1151.55,-193.03 1141.05,-194.41 1144.2,-200.66"/>
</g>
<!-- Node29&#45;&gt;Node7 -->
<g id="edge48" class="edge">
<title>Node29&#45;&gt;Node7</title>
<path fill="none" stroke="midnightblue" d="M1152.23,-173.96C1122.69,-158.86 1057.87,-127.56 999.5,-112 900.53,-85.62 781.84,-74.56 709.59,-70.03"/>
<polygon fill="midnightblue" stroke="midnightblue" points="709.47,-66.52 699.27,-69.41 709.04,-73.5 709.47,-66.52"/>
</g>
</g>
</svg>
