<?xml version="1.0" encoding="UTF-8" standalone="no"?>
<!DOCTYPE svg PUBLIC "-//W3C//DTD SVG 1.1//EN"
 "http://www.w3.org/Graphics/SVG/1.1/DTD/svg11.dtd">
<!-- Generated by graphviz version 2.43.0 (0)
 -->
<!-- Title: bio/ranges/views/persist.hpp Pages: 1 -->
<svg width="278pt" height="151pt"
 viewBox="0.00 0.00 277.50 151.00" xmlns="http://www.w3.org/2000/svg" xmlns:xlink="http://www.w3.org/1999/xlink">
<g id="graph0" class="graph" transform="scale(1 1) rotate(0) translate(4 147)">
<title>bio/ranges/views/persist.hpp</title>
<polygon fill="white" stroke="transparent" points="-4,4 -4,-147 273.5,-147 273.5,4 -4,4"/>
<!-- Node1 -->
<g id="node1" class="node">
<title>Node1</title>
<g id="a_node1"><a xlink:title="Provides bio::views::persist.">
<polygon fill="#bfbfbf" stroke="black" points="46.5,-123.5 46.5,-142.5 202.5,-142.5 202.5,-123.5 46.5,-123.5"/>
<text text-anchor="middle" x="124.5" y="-130.5" font-family="Helvetica,sans-Serif" font-size="10.00">bio/ranges/views/persist.hpp</text>
</a>
</g>
</g>
<!-- Node2 -->
<g id="node2" class="node">
<title>Node2</title>
<g id="a_node2"><a xlink:href="ranges_2views_2all_8hpp.html" target="_top" xlink:title="Meta&#45;header for the views submodule .">
<polygon fill="white" stroke="black" points="0,-6 0,-25 135,-25 135,-6 0,-6"/>
<text text-anchor="middle" x="67.5" y="-13" font-family="Helvetica,sans-Serif" font-size="10.00">bio/ranges/views/all.hpp</text>
</a>
</g>
</g>
<!-- Node1&#45;&gt;Node2 -->
<g id="edge1" class="edge">
<title>Node1&#45;&gt;Node2</title>
<path fill="none" stroke="midnightblue" d="M108.76,-116.19C101.4,-108.05 93.06,-97.62 87.5,-87 76.64,-66.26 71.06,-38.91 68.78,-25.17"/>
<polygon fill="midnightblue" stroke="midnightblue" points="106.23,-118.62 115.64,-123.49 111.33,-113.81 106.23,-118.62"/>
</g>
<!-- Node3 -->
<g id="node3" class="node">
<title>Node3</title>
<g id="a_node3"><a xlink:href="interleave_8hpp.html" target="_top" xlink:title="Provides bio::views::interleave.">
<polygon fill="white" stroke="black" points="96,-67.5 96,-86.5 269,-86.5 269,-67.5 96,-67.5"/>
<text text-anchor="middle" x="182.5" y="-74.5" font-family="Helvetica,sans-Serif" font-size="10.00">bio/ranges/views/interleave.hpp</text>
</a>
</g>
</g>
<!-- Node1&#45;&gt;Node3 -->
<g id="edge2" class="edge">
<title>Node1&#45;&gt;Node3</title>
<path fill="none" stroke="midnightblue" d="M141.41,-116.25C151.7,-106.67 164.47,-94.79 173.01,-86.83"/>
<polygon fill="midnightblue" stroke="midnightblue" points="138.75,-113.95 133.82,-123.32 143.52,-119.07 138.75,-113.95"/>
</g>
<!-- Node3&#45;&gt;Node2 -->
<g id="edge4" class="edge">
<title>Node3&#45;&gt;Node2</title>
<path fill="none" stroke="midnightblue" d="M157.12,-62.87C134.83,-51.33 103.06,-34.9 83.95,-25.01"/>
<polygon fill="midnightblue" stroke="midnightblue" points="155.53,-65.99 166.02,-67.48 158.75,-59.77 155.53,-65.99"/>
</g>
<!-- Node4 -->
<g id="node4" class="node">
<title>Node4</title>
<g id="a_node4"><a xlink:href="dynamic__bitset_8hpp.html" target="_top" xlink:title="A constexpr bitset implementation with dynamic size at compile time.">
<polygon fill="white" stroke="black" points="153.5,-0.5 153.5,-30.5 269.5,-30.5 269.5,-0.5 153.5,-0.5"/>
<text text-anchor="start" x="161.5" y="-18.5" font-family="Helvetica,sans-Serif" font-size="10.00">bio/ranges/container</text>
<text text-anchor="middle" x="211.5" y="-7.5" font-family="Helvetica,sans-Serif" font-size="10.00">/dynamic_bitset.hpp</text>
</a>
</g>
</g>
<!-- Node3&#45;&gt;Node4 -->
<g id="edge3" class="edge">
<title>Node3&#45;&gt;Node4</title>
<path fill="none" stroke="midnightblue" d="M191.08,-58.39C195.42,-49.5 200.6,-38.86 204.67,-30.52"/>
<polygon fill="midnightblue" stroke="midnightblue" points="187.89,-56.95 186.65,-67.48 194.18,-60.02 187.89,-56.95"/>
</g>
</g>
</svg>
