<?xml version="1.0" encoding="UTF-8" standalone="no"?>
<!DOCTYPE svg PUBLIC "-//W3C//DTD SVG 1.1//EN"
 "http://www.w3.org/Graphics/SVG/1.1/DTD/svg11.dtd">
<!-- Generated by graphviz version 2.43.0 (0)
 -->
<!-- Title: bio/ranges/views/persist.hpp Pages: 1 -->
<svg width="1546pt" height="397pt"
 viewBox="0.00 0.00 1545.78 397.00" xmlns="http://www.w3.org/2000/svg" xmlns:xlink="http://www.w3.org/1999/xlink">
<g id="graph0" class="graph" transform="scale(1 1) rotate(0) translate(4 393)">
<title>bio/ranges/views/persist.hpp</title>
<polygon fill="white" stroke="transparent" points="-4,4 -4,-393 1541.78,-393 1541.78,4 -4,4"/>
<!-- Node1 -->
<g id="node1" class="node">
<title>Node1</title>
<g id="a_node1"><a xlink:title="Provides bio::views::persist.">
<polygon fill="#bfbfbf" stroke="black" points="836.88,-369.5 836.88,-388.5 992.88,-388.5 992.88,-369.5 836.88,-369.5"/>
<text text-anchor="middle" x="914.88" y="-376.5" font-family="Helvetica,sans-Serif" font-size="10.00">bio/ranges/views/persist.hpp</text>
</a>
</g>
</g>
<!-- Node2 -->
<g id="node2" class="node">
<title>Node2</title>
<g id="a_node2"><a target="_blank" xlink:href="https://en.cppreference.com/w/cpp/header/algorithm.html" xlink:title=" ">
<polygon fill="white" stroke="black" points="364.88,-313.5 364.88,-332.5 428.88,-332.5 428.88,-313.5 364.88,-313.5"/>
<text text-anchor="middle" x="396.88" y="-320.5" font-family="Helvetica,sans-Serif" font-size="10.00">algorithm</text>
</a>
</g>
</g>
<!-- Node1&#45;&gt;Node2 -->
<g id="edge1" class="edge">
<title>Node1&#45;&gt;Node2</title>
<path fill="none" stroke="midnightblue" d="M836.51,-372.89C742.63,-366.23 580.76,-353.01 442.88,-333 441.61,-332.82 440.33,-332.62 439.03,-332.42"/>
<polygon fill="midnightblue" stroke="midnightblue" points="439.43,-328.93 428.98,-330.7 438.25,-335.83 439.43,-328.93"/>
</g>
<!-- Node3 -->
<g id="node3" class="node">
<title>Node3</title>
<g id="a_node3"><a target="_blank" xlink:href="https://en.cppreference.com/w/cpp/header/concepts.html" xlink:title=" ">
<polygon fill="white" stroke="black" points="551.88,-112.5 551.88,-131.5 611.88,-131.5 611.88,-112.5 551.88,-112.5"/>
<text text-anchor="middle" x="581.88" y="-119.5" font-family="Helvetica,sans-Serif" font-size="10.00">concepts</text>
</a>
</g>
</g>
<!-- Node1&#45;&gt;Node3 -->
<g id="edge2" class="edge">
<title>Node1&#45;&gt;Node3</title>
<path fill="none" stroke="midnightblue" d="M836.6,-371.3C757.27,-361.32 633.87,-336.79 544.88,-277 497.29,-245.02 444.24,-215.81 475.88,-168 483.77,-156.08 515.9,-143.45 542.74,-134.61"/>
<polygon fill="midnightblue" stroke="midnightblue" points="543.88,-137.92 552.33,-131.53 541.74,-131.25 543.88,-137.92"/>
</g>
<!-- Node4 -->
<g id="node4" class="node">
<title>Node4</title>
<g id="a_node4"><a target="_blank" xlink:href="https://en.cppreference.com/w/cpp/header/ranges.html" xlink:title=" ">
<polygon fill="white" stroke="black" points="1119.88,-174 1119.88,-193 1169.88,-193 1169.88,-174 1119.88,-174"/>
<text text-anchor="middle" x="1144.88" y="-181" font-family="Helvetica,sans-Serif" font-size="10.00">ranges</text>
</a>
</g>
</g>
<!-- Node1&#45;&gt;Node4 -->
<g id="edge3" class="edge">
<title>Node1&#45;&gt;Node4</title>
<path fill="none" stroke="midnightblue" d="M930.3,-369.46C958.6,-353.42 1020.01,-316.77 1064.88,-277 1091.63,-253.29 1117.79,-220.77 1132.57,-201.27"/>
<polygon fill="midnightblue" stroke="midnightblue" points="1135.52,-203.18 1138.7,-193.08 1129.91,-198.99 1135.52,-203.18"/>
</g>
<!-- Node5 -->
<g id="node5" class="node">
<title>Node5</title>
<g id="a_node5"><a xlink:href="transformation__trait__or_8hpp.html" target="_top" xlink:title="Provides bio::meta::transformation_trait_or.">
<polygon fill="white" stroke="black" points="899.88,-235.5 899.88,-276.5 1017.88,-276.5 1017.88,-235.5 899.88,-235.5"/>
<text text-anchor="start" x="907.88" y="-264.5" font-family="Helvetica,sans-Serif" font-size="10.00">bio/meta/type_traits</text>
<text text-anchor="start" x="907.88" y="-253.5" font-family="Helvetica,sans-Serif" font-size="10.00">/transformation_trait</text>
<text text-anchor="middle" x="958.88" y="-242.5" font-family="Helvetica,sans-Serif" font-size="10.00">_or.hpp</text>
</a>
</g>
</g>
<!-- Node1&#45;&gt;Node5 -->
<g id="edge4" class="edge">
<title>Node1&#45;&gt;Node5</title>
<path fill="none" stroke="midnightblue" d="M918.05,-369.3C924.29,-352.12 938.46,-313.15 948.35,-285.97"/>
<polygon fill="midnightblue" stroke="midnightblue" points="951.65,-287.14 951.77,-276.55 945.07,-284.75 951.65,-287.14"/>
</g>
<!-- Node12 -->
<g id="node12" class="node">
<title>Node12</title>
<g id="a_node12"><a xlink:href="ranges_2concept_8hpp.html" target="_top" xlink:title="Additional non&#45;standard concepts for ranges.">
<polygon fill="white" stroke="black" points="713.88,-313.5 713.88,-332.5 843.88,-332.5 843.88,-313.5 713.88,-313.5"/>
<text text-anchor="middle" x="778.88" y="-320.5" font-family="Helvetica,sans-Serif" font-size="10.00">bio/ranges/concept.hpp</text>
</a>
</g>
</g>
<!-- Node1&#45;&gt;Node12 -->
<g id="edge12" class="edge">
<title>Node1&#45;&gt;Node12</title>
<path fill="none" stroke="midnightblue" d="M893.33,-369.44C870.85,-360.52 835.39,-346.44 809.9,-336.32"/>
<polygon fill="midnightblue" stroke="midnightblue" points="810.92,-332.95 800.33,-332.52 808.33,-339.46 810.92,-332.95"/>
</g>
<!-- Node26 -->
<g id="node26" class="node">
<title>Node26</title>
<g id="a_node26"><a xlink:href="ranges_2container_2concept_8hpp.html" target="_top" xlink:title="Adaptations of concepts from the standard library.">
<polygon fill="white" stroke="black" points="775.88,-168.5 775.88,-198.5 891.88,-198.5 891.88,-168.5 775.88,-168.5"/>
<text text-anchor="start" x="783.88" y="-186.5" font-family="Helvetica,sans-Serif" font-size="10.00">bio/ranges/container</text>
<text text-anchor="middle" x="833.88" y="-175.5" font-family="Helvetica,sans-Serif" font-size="10.00">/concept.hpp</text>
</a>
</g>
</g>
<!-- Node1&#45;&gt;Node26 -->
<g id="edge39" class="edge">
<title>Node1&#45;&gt;Node26</title>
<path fill="none" stroke="midnightblue" d="M911.3,-369.44C899.53,-341.34 861.83,-251.27 843.75,-208.06"/>
<polygon fill="midnightblue" stroke="midnightblue" points="846.89,-206.5 839.8,-198.63 840.43,-209.21 846.89,-206.5"/>
</g>
<!-- Node29 -->
<g id="node29" class="node">
<title>Node29</title>
<g id="a_node29"><a xlink:href="type__traits_8hpp.html" target="_top" xlink:title="Provides various transformation traits used by the range module.">
<polygon fill="white" stroke="black" points="1163.88,-246.5 1163.88,-265.5 1307.88,-265.5 1307.88,-246.5 1163.88,-246.5"/>
<text text-anchor="middle" x="1235.88" y="-253.5" font-family="Helvetica,sans-Serif" font-size="10.00">bio/ranges/type_traits.hpp</text>
</a>
</g>
</g>
<!-- Node1&#45;&gt;Node29 -->
<g id="edge46" class="edge">
<title>Node1&#45;&gt;Node29</title>
<path fill="none" stroke="midnightblue" d="M968.69,-369.47C1007.21,-362.34 1059.84,-350.49 1103.88,-333 1145.69,-316.4 1190.22,-288.3 1215.39,-271.32"/>
<polygon fill="midnightblue" stroke="midnightblue" points="1217.47,-274.14 1223.75,-265.6 1213.52,-268.36 1217.47,-274.14"/>
</g>
<!-- Node31 -->
<g id="node31" class="node">
<title>Node31</title>
<g id="a_node31"><a xlink:href="ranges_2views_2detail_8hpp_source.html" target="_top" xlink:title=" ">
<polygon fill="white" stroke="black" points="1160.38,-313.5 1160.38,-332.5 1311.38,-332.5 1311.38,-313.5 1160.38,-313.5"/>
<text text-anchor="middle" x="1235.88" y="-320.5" font-family="Helvetica,sans-Serif" font-size="10.00">bio/ranges/views/detail.hpp</text>
</a>
</g>
</g>
<!-- Node1&#45;&gt;Node31 -->
<g id="edge53" class="edge">
<title>Node1&#45;&gt;Node31</title>
<path fill="none" stroke="midnightblue" d="M965.75,-369.44C1022.57,-359.89 1114.5,-344.42 1175.07,-334.23"/>
<polygon fill="midnightblue" stroke="midnightblue" points="1175.98,-337.63 1185.26,-332.52 1174.82,-330.72 1175.98,-337.63"/>
</g>
<!-- Node6 -->
<g id="node6" class="node">
<title>Node6</title>
<g id="a_node6"><a target="_blank" xlink:href="https://en.cppreference.com/w/cpp/header/type_traits.html" xlink:title=" ">
<polygon fill="white" stroke="black" points="923.38,-112.5 923.38,-131.5 992.38,-131.5 992.38,-112.5 923.38,-112.5"/>
<text text-anchor="middle" x="957.88" y="-119.5" font-family="Helvetica,sans-Serif" font-size="10.00">type_traits</text>
</a>
</g>
</g>
<!-- Node5&#45;&gt;Node6 -->
<g id="edge5" class="edge">
<title>Node5&#45;&gt;Node6</title>
<path fill="none" stroke="midnightblue" d="M958.73,-235.24C958.54,-210.03 958.21,-166.74 958.03,-141.93"/>
<polygon fill="midnightblue" stroke="midnightblue" points="961.52,-141.66 957.95,-131.69 954.52,-141.71 961.52,-141.66"/>
</g>
<!-- Node7 -->
<g id="node7" class="node">
<title>Node7</title>
<g id="a_node7"><a xlink:href="meta_2type__traits_2concept_8hpp.html" target="_top" xlink:title="Provides the concepts bio::meta::transformation_trait and bio::meta::unary_type_trait.">
<polygon fill="white" stroke="black" points="985.88,-168.5 985.88,-198.5 1101.88,-198.5 1101.88,-168.5 985.88,-168.5"/>
<text text-anchor="start" x="993.88" y="-186.5" font-family="Helvetica,sans-Serif" font-size="10.00">bio/meta/type_traits</text>
<text text-anchor="middle" x="1043.88" y="-175.5" font-family="Helvetica,sans-Serif" font-size="10.00">/concept.hpp</text>
</a>
</g>
</g>
<!-- Node5&#45;&gt;Node7 -->
<g id="edge6" class="edge">
<title>Node5&#45;&gt;Node7</title>
<path fill="none" stroke="midnightblue" d="M982.56,-235.36C993.86,-225.99 1007.4,-214.76 1018.87,-205.25"/>
<polygon fill="midnightblue" stroke="midnightblue" points="1021.34,-207.75 1026.8,-198.67 1016.87,-202.36 1021.34,-207.75"/>
</g>
<!-- Node7&#45;&gt;Node6 -->
<g id="edge7" class="edge">
<title>Node7&#45;&gt;Node6</title>
<path fill="none" stroke="midnightblue" d="M1023.5,-168.4C1009.97,-159.04 992.27,-146.79 978.66,-137.38"/>
<polygon fill="midnightblue" stroke="midnightblue" points="980.61,-134.47 970.4,-131.66 976.63,-140.23 980.61,-134.47"/>
</g>
<!-- Node8 -->
<g id="node8" class="node">
<title>Node8</title>
<g id="a_node8"><a xlink:href="platform_8hpp.html" target="_top" xlink:title="Provides platform and dependency checks.">
<polygon fill="white" stroke="black" points="676.88,-56.5 676.88,-75.5 802.88,-75.5 802.88,-56.5 676.88,-56.5"/>
<text text-anchor="middle" x="739.88" y="-63.5" font-family="Helvetica,sans-Serif" font-size="10.00">bio/meta/platform.hpp</text>
</a>
</g>
</g>
<!-- Node7&#45;&gt;Node8 -->
<g id="edge8" class="edge">
<title>Node7&#45;&gt;Node8</title>
<path fill="none" stroke="midnightblue" d="M1039.5,-168.33C1033.68,-151.99 1021.73,-125.63 1001.88,-112 971.94,-91.43 879.75,-79.15 813.19,-72.73"/>
<polygon fill="midnightblue" stroke="midnightblue" points="813.44,-69.24 803.16,-71.79 812.79,-76.21 813.44,-69.24"/>
</g>
<!-- Node9 -->
<g id="node9" class="node">
<title>Node9</title>
<g id="a_node9"><a target="_blank" xlink:href="https://en.cppreference.com/w/cpp/header/cinttypes.html" xlink:title=" ">
<polygon fill="white" stroke="black" points="632.88,-0.5 632.88,-19.5 694.88,-19.5 694.88,-0.5 632.88,-0.5"/>
<text text-anchor="middle" x="663.88" y="-7.5" font-family="Helvetica,sans-Serif" font-size="10.00">cinttypes</text>
</a>
</g>
</g>
<!-- Node8&#45;&gt;Node9 -->
<g id="edge9" class="edge">
<title>Node8&#45;&gt;Node9</title>
<path fill="none" stroke="midnightblue" d="M727.67,-56.32C716.11,-48.11 698.51,-35.6 684.72,-25.81"/>
<polygon fill="midnightblue" stroke="midnightblue" points="686.49,-22.77 676.32,-19.83 682.44,-28.48 686.49,-22.77"/>
</g>
<!-- Node10 -->
<g id="node10" class="node">
<title>Node10</title>
<g id="a_node10"><a target="_blank" xlink:href="https://en.cppreference.com/w/cpp/header/ciso646.html" xlink:title=" ">
<polygon fill="white" stroke="black" points="712.88,-0.5 712.88,-19.5 766.88,-19.5 766.88,-0.5 712.88,-0.5"/>
<text text-anchor="middle" x="739.88" y="-7.5" font-family="Helvetica,sans-Serif" font-size="10.00">ciso646</text>
</a>
</g>
</g>
<!-- Node8&#45;&gt;Node10 -->
<g id="edge10" class="edge">
<title>Node8&#45;&gt;Node10</title>
<path fill="none" stroke="midnightblue" d="M739.88,-56.08C739.88,-49.01 739.88,-38.86 739.88,-29.99"/>
<polygon fill="midnightblue" stroke="midnightblue" points="743.38,-29.75 739.88,-19.75 736.38,-29.75 743.38,-29.75"/>
</g>
<!-- Node11 -->
<g id="node11" class="node">
<title>Node11</title>
<g id="a_node11"><a target="_blank" xlink:href="https://en.cppreference.com/w/cpp/header/cstddef.html" xlink:title=" ">
<polygon fill="white" stroke="black" points="785.38,-0.5 785.38,-19.5 838.38,-19.5 838.38,-0.5 785.38,-0.5"/>
<text text-anchor="middle" x="811.88" y="-7.5" font-family="Helvetica,sans-Serif" font-size="10.00">cstddef</text>
</a>
</g>
</g>
<!-- Node8&#45;&gt;Node11 -->
<g id="edge11" class="edge">
<title>Node8&#45;&gt;Node11</title>
<path fill="none" stroke="midnightblue" d="M751.45,-56.32C762.3,-48.18 778.76,-35.84 791.77,-26.09"/>
<polygon fill="midnightblue" stroke="midnightblue" points="794.2,-28.63 800.1,-19.83 790,-23.03 794.2,-28.63"/>
</g>
<!-- Node12&#45;&gt;Node4 -->
<g id="edge13" class="edge">
<title>Node12&#45;&gt;Node4</title>
<path fill="none" stroke="midnightblue" d="M843.88,-319.5C895.65,-315.37 968.8,-304.63 1026.88,-277 1052.78,-264.68 1053.4,-252.82 1075.88,-235 1091.72,-222.44 1110.24,-208.96 1124.09,-199.08"/>
<polygon fill="midnightblue" stroke="midnightblue" points="1126.32,-201.8 1132.46,-193.16 1122.27,-196.08 1126.32,-201.8"/>
</g>
<!-- Node13 -->
<g id="node13" class="node">
<title>Node13</title>
<g id="a_node13"><a xlink:href="alphabet_2concept_8hpp.html" target="_top" xlink:title="Core alphabet concept and free function/type trait wrappers.">
<polygon fill="white" stroke="black" points="553.88,-246.5 553.88,-265.5 693.88,-265.5 693.88,-246.5 553.88,-246.5"/>
<text text-anchor="middle" x="623.88" y="-253.5" font-family="Helvetica,sans-Serif" font-size="10.00">bio/alphabet/concept.hpp</text>
</a>
</g>
</g>
<!-- Node12&#45;&gt;Node13 -->
<g id="edge14" class="edge">
<title>Node12&#45;&gt;Node13</title>
<path fill="none" stroke="midnightblue" d="M758.3,-313.37C731.55,-302.15 684.63,-282.48 653.91,-269.59"/>
<polygon fill="midnightblue" stroke="midnightblue" points="655.13,-266.31 644.55,-265.67 652.42,-272.76 655.13,-266.31"/>
</g>
<!-- Node13&#45;&gt;Node6 -->
<g id="edge15" class="edge">
<title>Node13&#45;&gt;Node6</title>
<path fill="none" stroke="midnightblue" d="M694.14,-254.42C753.41,-250.9 838.35,-238.5 900.88,-199 923.26,-184.86 939.99,-158.58 949.35,-140.94"/>
<polygon fill="midnightblue" stroke="midnightblue" points="952.62,-142.21 954,-131.7 946.37,-139.06 952.62,-142.21"/>
</g>
<!-- Node14 -->
<g id="node14" class="node">
<title>Node14</title>
<g id="a_node14"><a xlink:href="alphabet_2biocpp_8hpp.html" target="_top" xlink:title="Module header with module&#45;wide definitions.">
<polygon fill="white" stroke="black" points="253.88,-112.5 253.88,-131.5 387.88,-131.5 387.88,-112.5 253.88,-112.5"/>
<text text-anchor="middle" x="320.88" y="-119.5" font-family="Helvetica,sans-Serif" font-size="10.00">bio/alphabet/biocpp.hpp</text>
</a>
</g>
</g>
<!-- Node13&#45;&gt;Node14 -->
<g id="edge16" class="edge">
<title>Node13&#45;&gt;Node14</title>
<path fill="none" stroke="midnightblue" d="M553.58,-254.21C461.2,-251.52 306.49,-240.7 270.88,-199 254.1,-179.35 279.2,-153.77 299.5,-137.87"/>
<polygon fill="midnightblue" stroke="midnightblue" points="301.85,-140.48 307.76,-131.69 297.66,-134.87 301.85,-140.48"/>
</g>
<!-- Node15 -->
<g id="node15" class="node">
<title>Node15</title>
<g id="a_node15"><a xlink:href="exception_8hpp.html" target="_top" xlink:title="Exceptions thrown by entities in the alphabet module.">
<polygon fill="white" stroke="black" points="280.38,-174 280.38,-193 429.38,-193 429.38,-174 280.38,-174"/>
<text text-anchor="middle" x="354.88" y="-181" font-family="Helvetica,sans-Serif" font-size="10.00">bio/alphabet/exception.hpp</text>
</a>
</g>
</g>
<!-- Node13&#45;&gt;Node15 -->
<g id="edge18" class="edge">
<title>Node13&#45;&gt;Node15</title>
<path fill="none" stroke="midnightblue" d="M591.43,-246.5C542.86,-233.77 451.21,-209.75 397.36,-195.63"/>
<polygon fill="midnightblue" stroke="midnightblue" points="398.01,-192.18 387.45,-193.03 396.23,-198.96 398.01,-192.18"/>
</g>
<!-- Node18 -->
<g id="node18" class="node">
<title>Node18</title>
<g id="a_node18"><a xlink:href="core__language_8hpp.html" target="_top" xlink:title="Provides concepts for core language types and relations that don&#39;t have concepts in C++20 (yet).">
<polygon fill="white" stroke="black" points="485.38,-168.5 485.38,-198.5 610.38,-198.5 610.38,-168.5 485.38,-168.5"/>
<text text-anchor="start" x="493.38" y="-186.5" font-family="Helvetica,sans-Serif" font-size="10.00">bio/meta/concept/core</text>
<text text-anchor="middle" x="547.88" y="-175.5" font-family="Helvetica,sans-Serif" font-size="10.00">_language.hpp</text>
</a>
</g>
</g>
<!-- Node13&#45;&gt;Node18 -->
<g id="edge23" class="edge">
<title>Node13&#45;&gt;Node18</title>
<path fill="none" stroke="midnightblue" d="M614.56,-246.36C603.73,-236.3 585.45,-219.35 570.77,-205.73"/>
<polygon fill="midnightblue" stroke="midnightblue" points="572.77,-202.81 563.06,-198.58 568.01,-207.94 572.77,-202.81"/>
</g>
<!-- Node19 -->
<g id="node19" class="node">
<title>Node19</title>
<g id="a_node19"><a xlink:href="priority__tag_8hpp.html" target="_top" xlink:title="provides bio::meta::detail::priority_tag.">
<polygon fill="white" stroke="black" points="628.38,-168.5 628.38,-198.5 757.38,-198.5 757.38,-168.5 628.38,-168.5"/>
<text text-anchor="start" x="636.38" y="-186.5" font-family="Helvetica,sans-Serif" font-size="10.00">bio/meta/detail/priority</text>
<text text-anchor="middle" x="692.88" y="-175.5" font-family="Helvetica,sans-Serif" font-size="10.00">_tag.hpp</text>
</a>
</g>
</g>
<!-- Node13&#45;&gt;Node19 -->
<g id="edge27" class="edge">
<title>Node13&#45;&gt;Node19</title>
<path fill="none" stroke="midnightblue" d="M632.34,-246.36C642.18,-236.3 658.77,-219.35 672.1,-205.73"/>
<polygon fill="midnightblue" stroke="midnightblue" points="674.61,-208.17 679.11,-198.58 669.61,-203.27 674.61,-208.17"/>
</g>
<!-- Node20 -->
<g id="node20" class="node">
<title>Node20</title>
<g id="a_node20"><a xlink:href="type__inspection_8hpp.html" target="_top" xlink:title="Provides traits to inspect some information of a type, for example its name.">
<polygon fill="white" stroke="black" points="107.88,-168.5 107.88,-198.5 223.88,-198.5 223.88,-168.5 107.88,-168.5"/>
<text text-anchor="start" x="115.88" y="-186.5" font-family="Helvetica,sans-Serif" font-size="10.00">bio/meta/detail/type</text>
<text text-anchor="middle" x="165.88" y="-175.5" font-family="Helvetica,sans-Serif" font-size="10.00">_inspection.hpp</text>
</a>
</g>
</g>
<!-- Node13&#45;&gt;Node20 -->
<g id="edge29" class="edge">
<title>Node13&#45;&gt;Node20</title>
<path fill="none" stroke="midnightblue" d="M557.98,-246.47C481.18,-236.28 350.55,-218.2 238.88,-199 237.37,-198.74 235.84,-198.47 234.3,-198.2"/>
<polygon fill="midnightblue" stroke="midnightblue" points="234.47,-194.67 224.01,-196.33 233.22,-201.56 234.47,-194.67"/>
</g>
<!-- Node24 -->
<g id="node24" class="node">
<title>Node24</title>
<g id="a_node24"><a xlink:href="basic_8hpp.html" target="_top" xlink:title="Provides various type traits on generic types.">
<polygon fill="white" stroke="black" points="1263.88,-168.5 1263.88,-198.5 1379.88,-198.5 1379.88,-168.5 1263.88,-168.5"/>
<text text-anchor="start" x="1271.88" y="-186.5" font-family="Helvetica,sans-Serif" font-size="10.00">bio/meta/type_traits</text>
<text text-anchor="middle" x="1321.88" y="-175.5" font-family="Helvetica,sans-Serif" font-size="10.00">/basic.hpp</text>
</a>
</g>
</g>
<!-- Node13&#45;&gt;Node24 -->
<g id="edge35" class="edge">
<title>Node13&#45;&gt;Node24</title>
<path fill="none" stroke="midnightblue" d="M693.97,-247.94C799.26,-237.33 1004.49,-216.64 1178.88,-199 1203.32,-196.53 1230.11,-193.81 1253.83,-191.41"/>
<polygon fill="midnightblue" stroke="midnightblue" points="1254.19,-194.89 1263.79,-190.4 1253.48,-187.92 1254.19,-194.89"/>
</g>
<!-- Node14&#45;&gt;Node8 -->
<g id="edge17" class="edge">
<title>Node14&#45;&gt;Node8</title>
<path fill="none" stroke="midnightblue" d="M387.27,-112.44C463.24,-102.65 587.3,-86.66 666.2,-76.5"/>
<polygon fill="midnightblue" stroke="midnightblue" points="667.07,-79.91 676.54,-75.16 666.18,-72.97 667.07,-79.91"/>
</g>
<!-- Node15&#45;&gt;Node3 -->
<g id="edge19" class="edge">
<title>Node15&#45;&gt;Node3</title>
<path fill="none" stroke="midnightblue" d="M387.41,-173.98C428.12,-163.3 497.85,-145.03 541.82,-133.5"/>
<polygon fill="midnightblue" stroke="midnightblue" points="542.81,-136.86 551.6,-130.94 541.03,-130.09 542.81,-136.86"/>
</g>
<!-- Node15&#45;&gt;Node14 -->
<g id="edge22" class="edge">
<title>Node15&#45;&gt;Node14</title>
<path fill="none" stroke="midnightblue" d="M350.01,-173.98C345.01,-165.23 337.09,-151.37 330.77,-140.31"/>
<polygon fill="midnightblue" stroke="midnightblue" points="333.75,-138.46 325.74,-131.51 327.67,-141.93 333.75,-138.46"/>
</g>
<!-- Node16 -->
<g id="node16" class="node">
<title>Node16</title>
<g id="a_node16"><a target="_blank" xlink:href="https://en.cppreference.com/w/cpp/header/stdexcept.html" xlink:title=" ">
<polygon fill="white" stroke="black" points="406.38,-112.5 406.38,-131.5 471.38,-131.5 471.38,-112.5 406.38,-112.5"/>
<text text-anchor="middle" x="438.88" y="-119.5" font-family="Helvetica,sans-Serif" font-size="10.00">stdexcept</text>
</a>
</g>
</g>
<!-- Node15&#45;&gt;Node16 -->
<g id="edge20" class="edge">
<title>Node15&#45;&gt;Node16</title>
<path fill="none" stroke="midnightblue" d="M366.92,-173.98C380.39,-164.43 402.45,-148.81 418.6,-137.37"/>
<polygon fill="midnightblue" stroke="midnightblue" points="420.73,-140.15 426.87,-131.51 416.69,-134.43 420.73,-140.15"/>
</g>
<!-- Node17 -->
<g id="node17" class="node">
<title>Node17</title>
<g id="a_node17"><a target="_blank" xlink:href="https://en.cppreference.com/w/cpp/header/string.html" xlink:title=" ">
<polygon fill="white" stroke="black" points="489.88,-112.5 489.88,-131.5 533.88,-131.5 533.88,-112.5 489.88,-112.5"/>
<text text-anchor="middle" x="511.88" y="-119.5" font-family="Helvetica,sans-Serif" font-size="10.00">string</text>
</a>
</g>
</g>
<!-- Node15&#45;&gt;Node17 -->
<g id="edge21" class="edge">
<title>Node15&#45;&gt;Node17</title>
<path fill="none" stroke="midnightblue" d="M377.38,-173.98C404.27,-163.78 449.45,-146.66 479.95,-135.1"/>
<polygon fill="midnightblue" stroke="midnightblue" points="481.57,-138.23 489.68,-131.41 479.09,-131.68 481.57,-138.23"/>
</g>
<!-- Node18&#45;&gt;Node3 -->
<g id="edge26" class="edge">
<title>Node18&#45;&gt;Node3</title>
<path fill="none" stroke="midnightblue" d="M555.94,-168.4C560.73,-160.02 566.84,-149.33 571.93,-140.42"/>
<polygon fill="midnightblue" stroke="midnightblue" points="575.01,-142.08 576.94,-131.66 568.93,-138.6 575.01,-142.08"/>
</g>
<!-- Node18&#45;&gt;Node6 -->
<g id="edge24" class="edge">
<title>Node18&#45;&gt;Node6</title>
<path fill="none" stroke="midnightblue" d="M610.56,-169.45C613.37,-168.95 616.15,-168.46 618.88,-168 674.56,-158.63 834.65,-138.34 913.25,-128.53"/>
<polygon fill="midnightblue" stroke="midnightblue" points="913.84,-131.99 923.33,-127.28 912.98,-125.04 913.84,-131.99"/>
</g>
<!-- Node18&#45;&gt;Node8 -->
<g id="edge25" class="edge">
<title>Node18&#45;&gt;Node8</title>
<path fill="none" stroke="midnightblue" d="M571.43,-168.34C608.38,-146.11 679.57,-103.28 716.45,-81.09"/>
<polygon fill="midnightblue" stroke="midnightblue" points="718.71,-83.82 725.47,-75.67 715.1,-77.83 718.71,-83.82"/>
</g>
<!-- Node19&#45;&gt;Node8 -->
<g id="edge28" class="edge">
<title>Node19&#45;&gt;Node8</title>
<path fill="none" stroke="midnightblue" d="M698.65,-168.34C707.19,-147.34 723.22,-107.96 732.58,-84.96"/>
<polygon fill="midnightblue" stroke="midnightblue" points="735.83,-86.25 736.35,-75.67 729.34,-83.61 735.83,-86.25"/>
</g>
<!-- Node20&#45;&gt;Node8 -->
<g id="edge34" class="edge">
<title>Node20&#45;&gt;Node8</title>
<path fill="none" stroke="midnightblue" d="M107.67,-175.72C50.09,-166.82 -24.89,-147.92 8.88,-112 31.18,-88.29 485.53,-73.72 666.47,-68.84"/>
<polygon fill="midnightblue" stroke="midnightblue" points="666.79,-72.33 676.69,-68.56 666.6,-65.33 666.79,-72.33"/>
</g>
<!-- Node20&#45;&gt;Node17 -->
<g id="edge32" class="edge">
<title>Node20&#45;&gt;Node17</title>
<path fill="none" stroke="midnightblue" d="M224.15,-173.95C296.86,-163.14 418.11,-144.65 479.54,-131.79"/>
<polygon fill="midnightblue" stroke="midnightblue" points="480.55,-135.16 489.59,-129.62 479.07,-128.32 480.55,-135.16"/>
</g>
<!-- Node21 -->
<g id="node21" class="node">
<title>Node21</title>
<g id="a_node21"><a target="_blank" xlink:href="https://en.cppreference.com/w/cpp/header/functional.html" xlink:title=" ">
<polygon fill="white" stroke="black" points="18.38,-112.5 18.38,-131.5 83.38,-131.5 83.38,-112.5 18.38,-112.5"/>
<text text-anchor="middle" x="50.88" y="-119.5" font-family="Helvetica,sans-Serif" font-size="10.00">functional</text>
</a>
</g>
</g>
<!-- Node20&#45;&gt;Node21 -->
<g id="edge30" class="edge">
<title>Node20&#45;&gt;Node21</title>
<path fill="none" stroke="midnightblue" d="M138.63,-168.4C119.85,-158.68 95.06,-145.86 76.61,-136.31"/>
<polygon fill="midnightblue" stroke="midnightblue" points="78.11,-133.14 67.62,-131.66 74.89,-139.36 78.11,-133.14"/>
</g>
<!-- Node22 -->
<g id="node22" class="node">
<title>Node22</title>
<g id="a_node22"><a target="_blank" xlink:href="https://en.cppreference.com/w/cpp/header/memory.html" xlink:title=" ">
<polygon fill="white" stroke="black" points="101.88,-112.5 101.88,-131.5 159.88,-131.5 159.88,-112.5 101.88,-112.5"/>
<text text-anchor="middle" x="130.88" y="-119.5" font-family="Helvetica,sans-Serif" font-size="10.00">memory</text>
</a>
</g>
</g>
<!-- Node20&#45;&gt;Node22 -->
<g id="edge31" class="edge">
<title>Node20&#45;&gt;Node22</title>
<path fill="none" stroke="midnightblue" d="M157.59,-168.4C152.66,-160.02 146.37,-149.33 141.13,-140.42"/>
<polygon fill="midnightblue" stroke="midnightblue" points="144.06,-138.5 135.98,-131.66 138.03,-142.05 144.06,-138.5"/>
</g>
<!-- Node23 -->
<g id="node23" class="node">
<title>Node23</title>
<g id="a_node23"><a target="_blank" xlink:href="https://en.cppreference.com/w/cpp/header/typeinfo.html" xlink:title=" ">
<polygon fill="white" stroke="black" points="178.38,-112.5 178.38,-131.5 235.38,-131.5 235.38,-112.5 178.38,-112.5"/>
<text text-anchor="middle" x="206.88" y="-119.5" font-family="Helvetica,sans-Serif" font-size="10.00">typeinfo</text>
</a>
</g>
</g>
<!-- Node20&#45;&gt;Node23 -->
<g id="edge33" class="edge">
<title>Node20&#45;&gt;Node23</title>
<path fill="none" stroke="midnightblue" d="M175.6,-168.4C181.43,-159.93 188.9,-149.1 195.07,-140.14"/>
<polygon fill="midnightblue" stroke="midnightblue" points="198.12,-141.88 200.92,-131.66 192.36,-137.91 198.12,-141.88"/>
</g>
<!-- Node24&#45;&gt;Node6 -->
<g id="edge37" class="edge">
<title>Node24&#45;&gt;Node6</title>
<path fill="none" stroke="midnightblue" d="M1263.8,-173.01C1191.21,-161.14 1068.54,-141.09 1002.75,-130.33"/>
<polygon fill="midnightblue" stroke="midnightblue" points="1003.13,-126.85 992.7,-128.69 1002,-133.76 1003.13,-126.85"/>
</g>
<!-- Node24&#45;&gt;Node8 -->
<g id="edge38" class="edge">
<title>Node24&#45;&gt;Node8</title>
<path fill="none" stroke="midnightblue" d="M1300.99,-168.34C1275.35,-151.75 1229.94,-124.89 1186.88,-112 1118.93,-91.66 921.9,-77.51 813.5,-71.02"/>
<polygon fill="midnightblue" stroke="midnightblue" points="813.49,-67.51 803.3,-70.41 813.07,-74.5 813.49,-67.51"/>
</g>
<!-- Node25 -->
<g id="node25" class="node">
<title>Node25</title>
<g id="a_node25"><a target="_blank" xlink:href="https://en.cppreference.com/w/cpp/header/tuple.html" xlink:title=" ">
<polygon fill="white" stroke="black" points="1323.38,-112.5 1323.38,-131.5 1364.38,-131.5 1364.38,-112.5 1323.38,-112.5"/>
<text text-anchor="middle" x="1343.88" y="-119.5" font-family="Helvetica,sans-Serif" font-size="10.00">tuple</text>
</a>
</g>
</g>
<!-- Node24&#45;&gt;Node25 -->
<g id="edge36" class="edge">
<title>Node24&#45;&gt;Node25</title>
<path fill="none" stroke="midnightblue" d="M1327.1,-168.4C1330.1,-160.29 1333.9,-150.01 1337.12,-141.28"/>
<polygon fill="midnightblue" stroke="midnightblue" points="1340.5,-142.25 1340.68,-131.66 1333.93,-139.82 1340.5,-142.25"/>
</g>
<!-- Node26&#45;&gt;Node3 -->
<g id="edge44" class="edge">
<title>Node26&#45;&gt;Node3</title>
<path fill="none" stroke="midnightblue" d="M775.75,-168.77C728.62,-157.65 663.43,-142.25 621.95,-132.46"/>
<polygon fill="midnightblue" stroke="midnightblue" points="622.74,-129.05 612.2,-130.16 621.13,-135.86 622.74,-129.05"/>
</g>
<!-- Node26&#45;&gt;Node6 -->
<g id="edge42" class="edge">
<title>Node26&#45;&gt;Node6</title>
<path fill="none" stroke="midnightblue" d="M863.27,-168.4C883.7,-158.59 910.74,-145.62 930.68,-136.05"/>
<polygon fill="midnightblue" stroke="midnightblue" points="932.34,-139.14 939.84,-131.66 929.31,-132.83 932.34,-139.14"/>
</g>
<!-- Node26&#45;&gt;Node8 -->
<g id="edge45" class="edge">
<title>Node26&#45;&gt;Node8</title>
<path fill="none" stroke="midnightblue" d="M817.86,-168.25C807.36,-158.53 793.64,-145.1 782.88,-132 770.45,-116.85 758.32,-98.04 750.13,-84.55"/>
<polygon fill="midnightblue" stroke="midnightblue" points="753.04,-82.61 744.92,-75.81 747.03,-86.19 753.04,-82.61"/>
</g>
<!-- Node26&#45;&gt;Node17 -->
<g id="edge43" class="edge">
<title>Node26&#45;&gt;Node17</title>
<path fill="none" stroke="midnightblue" d="M775.68,-169.89C772.37,-169.23 769.09,-168.6 765.88,-168 670.29,-150.1 642.55,-153.78 543.92,-132.01"/>
<polygon fill="midnightblue" stroke="midnightblue" points="544.67,-128.59 534.15,-129.82 543.14,-135.42 544.67,-128.59"/>
</g>
<!-- Node27 -->
<g id="node27" class="node">
<title>Node27</title>
<g id="a_node27"><a target="_blank" xlink:href="https://en.cppreference.com/w/cpp/header/initializer_list.html" xlink:title=" ">
<polygon fill="white" stroke="black" points="792.38,-112.5 792.38,-131.5 875.38,-131.5 875.38,-112.5 792.38,-112.5"/>
<text text-anchor="middle" x="833.88" y="-119.5" font-family="Helvetica,sans-Serif" font-size="10.00">initializer_list</text>
</a>
</g>
</g>
<!-- Node26&#45;&gt;Node27 -->
<g id="edge40" class="edge">
<title>Node26&#45;&gt;Node27</title>
<path fill="none" stroke="midnightblue" d="M833.88,-168.4C833.88,-160.47 833.88,-150.46 833.88,-141.86"/>
<polygon fill="midnightblue" stroke="midnightblue" points="837.38,-141.66 833.88,-131.66 830.38,-141.66 837.38,-141.66"/>
</g>
<!-- Node28 -->
<g id="node28" class="node">
<title>Node28</title>
<g id="a_node28"><a target="_blank" xlink:href="https://en.cppreference.com/w/cpp/header/iterator.html" xlink:title=" ">
<polygon fill="white" stroke="black" points="1124.38,-112.5 1124.38,-131.5 1177.38,-131.5 1177.38,-112.5 1124.38,-112.5"/>
<text text-anchor="middle" x="1150.88" y="-119.5" font-family="Helvetica,sans-Serif" font-size="10.00">iterator</text>
</a>
</g>
</g>
<!-- Node26&#45;&gt;Node28 -->
<g id="edge41" class="edge">
<title>Node26&#45;&gt;Node28</title>
<path fill="none" stroke="midnightblue" d="M892.03,-171.59C956.84,-159.42 1059.7,-140.12 1114.19,-129.89"/>
<polygon fill="midnightblue" stroke="midnightblue" points="1114.92,-133.31 1124.1,-128.03 1113.63,-126.43 1114.92,-133.31"/>
</g>
<!-- Node29&#45;&gt;Node4 -->
<g id="edge48" class="edge">
<title>Node29&#45;&gt;Node4</title>
<path fill="none" stroke="midnightblue" d="M1224.72,-246.36C1209.71,-234.73 1182.79,-213.86 1164.39,-199.61"/>
<polygon fill="midnightblue" stroke="midnightblue" points="1166.18,-196.57 1156.13,-193.22 1161.89,-202.11 1166.18,-196.57"/>
</g>
<!-- Node29&#45;&gt;Node6 -->
<g id="edge49" class="edge">
<title>Node29&#45;&gt;Node6</title>
<path fill="none" stroke="midnightblue" d="M1232.89,-246.45C1226.21,-228.72 1208.33,-187.96 1178.88,-168 1125.74,-131.97 1050.01,-123.63 1002.43,-122.3"/>
<polygon fill="midnightblue" stroke="midnightblue" points="1002.49,-118.8 992.43,-122.11 1002.36,-125.8 1002.49,-118.8"/>
</g>
<!-- Node29&#45;&gt;Node24 -->
<g id="edge50" class="edge">
<title>Node29&#45;&gt;Node24</title>
<path fill="none" stroke="midnightblue" d="M1246.43,-246.36C1258.92,-236.12 1280.14,-218.72 1296.9,-204.98"/>
<polygon fill="midnightblue" stroke="midnightblue" points="1299.2,-207.62 1304.71,-198.58 1294.76,-202.21 1299.2,-207.62"/>
</g>
<!-- Node29&#45;&gt;Node28 -->
<g id="edge47" class="edge">
<title>Node29&#45;&gt;Node28</title>
<path fill="none" stroke="midnightblue" d="M1235.35,-246.31C1233.95,-229.71 1229.01,-192.92 1211.88,-168 1203.03,-155.12 1189.27,-144.51 1177.05,-136.83"/>
<polygon fill="midnightblue" stroke="midnightblue" points="1178.51,-133.63 1168.12,-131.54 1174.94,-139.65 1178.51,-133.63"/>
</g>
<!-- Node30 -->
<g id="node30" class="node">
<title>Node30</title>
<g id="a_node30"><a xlink:href="ranges_2biocpp_8hpp.html" target="_top" xlink:title="Module header with module&#45;wide definitions.">
<polygon fill="white" stroke="black" points="1397.88,-174 1397.88,-193 1521.88,-193 1521.88,-174 1397.88,-174"/>
<text text-anchor="middle" x="1459.88" y="-181" font-family="Helvetica,sans-Serif" font-size="10.00">bio/ranges/biocpp.hpp</text>
</a>
</g>
</g>
<!-- Node29&#45;&gt;Node30 -->
<g id="edge51" class="edge">
<title>Node29&#45;&gt;Node30</title>
<path fill="none" stroke="midnightblue" d="M1262.9,-246.5C1302.93,-233.9 1378.08,-210.24 1423.1,-196.08"/>
<polygon fill="midnightblue" stroke="midnightblue" points="1424.28,-199.37 1432.77,-193.03 1422.18,-192.7 1424.28,-199.37"/>
</g>
<!-- Node30&#45;&gt;Node8 -->
<g id="edge52" class="edge">
<title>Node30&#45;&gt;Node8</title>
<path fill="none" stroke="midnightblue" d="M1452.69,-173.81C1439.15,-158.17 1408.14,-125.64 1373.88,-112 1273.76,-72.15 957.38,-66.91 813,-66.67"/>
<polygon fill="midnightblue" stroke="midnightblue" points="812.91,-63.17 802.91,-66.66 812.9,-70.17 812.91,-63.17"/>
</g>
<!-- Node31&#45;&gt;Node4 -->
<g id="edge54" class="edge">
<title>Node31&#45;&gt;Node4</title>
<path fill="none" stroke="midnightblue" d="M1206.75,-313.47C1188.76,-306.62 1166.89,-295.1 1154.88,-277 1140.18,-254.84 1140.25,-222.94 1142.18,-202.98"/>
<polygon fill="midnightblue" stroke="midnightblue" points="1145.66,-203.36 1143.39,-193.01 1138.71,-202.52 1145.66,-203.36"/>
</g>
<!-- Node31&#45;&gt;Node24 -->
<g id="edge56" class="edge">
<title>Node31&#45;&gt;Node24</title>
<path fill="none" stroke="midnightblue" d="M1266.15,-313.38C1284.12,-306.58 1305.54,-295.14 1316.88,-277 1329.62,-256.64 1329.2,-228.55 1326.63,-208.68"/>
<polygon fill="midnightblue" stroke="midnightblue" points="1330.06,-207.94 1325.06,-198.59 1323.14,-209.01 1330.06,-207.94"/>
</g>
<!-- Node31&#45;&gt;Node25 -->
<g id="edge55" class="edge">
<title>Node31&#45;&gt;Node25</title>
<path fill="none" stroke="midnightblue" d="M1311.43,-313.74C1381.6,-301.61 1482.34,-271.84 1530.88,-199 1569.28,-141.39 1437.03,-127.43 1374.66,-124.07"/>
<polygon fill="midnightblue" stroke="midnightblue" points="1374.74,-120.57 1364.59,-123.58 1374.41,-127.56 1374.74,-120.57"/>
</g>
<!-- Node31&#45;&gt;Node29 -->
<g id="edge57" class="edge">
<title>Node31&#45;&gt;Node29</title>
<path fill="none" stroke="midnightblue" d="M1235.88,-313.23C1235.88,-303.68 1235.88,-288.12 1235.88,-275.78"/>
<polygon fill="midnightblue" stroke="midnightblue" points="1239.38,-275.63 1235.88,-265.63 1232.38,-275.63 1239.38,-275.63"/>
</g>
</g>
</svg>
