<?xml version="1.0" encoding="UTF-8" standalone="no"?>
<!DOCTYPE svg PUBLIC "-//W3C//DTD SVG 1.1//EN"
 "http://www.w3.org/Graphics/SVG/1.1/DTD/svg11.dtd">
<!-- Generated by graphviz version 2.42.2 ()
 -->
<!-- Title: bio/alphabet/quality/phred63.hpp Pages: 1 -->
<!--zoomable 464 -->
<svg id="main" version="1.1" xmlns="http://www.w3.org/2000/svg" xmlns:xlink="http://www.w3.org/1999/xlink" xml:space="preserve" onload="init(evt)">
<style type="text/css"><![CDATA[
.edge:hover path { stroke: red; }
.edge:hover polygon { stroke: red; fill: red; }
]]></style>
<script type="text/javascript"><![CDATA[
var edges = document.getElementsByTagName('g');
if (edges && edges.length) {
  for (var i=0;i<edges.length;i++) {
    if (edges[i].id.substr(0,4)=='edge') {
      edges[i].setAttribute('class','edge');
    }
  }
}
]]></script>
        <defs>
                <circle id="rim" cx="0" cy="0" r="7"/>
                <circle id="rim2" cx="0" cy="0" r="3.5"/>
                <g id="zoomPlus">
                        <use xlink:href="#rim" fill="#404040">
                                <set attributeName="fill" to="#808080" begin="zoomplus.mouseover" end="zoomplus.mouseout"/>
                        </use>
                        <path d="M-4,0h8M0,-4v8" fill="none" stroke="white" stroke-width="1.5" pointer-events="none"/>
                </g>
                <g id="zoomMin">
                        <use xlink:href="#rim" fill="#404040">
                                <set attributeName="fill" to="#808080" begin="zoomminus.mouseover" end="zoomminus.mouseout"/>
                        </use>
                        <path d="M-4,0h8" fill="none" stroke="white" stroke-width="1.5" pointer-events="none"/>
                </g>
                <g id="dirArrow">
                        <path fill="none" stroke="white" stroke-width="1.5" d="M0,-3.0v7 M-2.5,-0.5L0,-3.0L2.5,-0.5"/>
                </g>
               <g id="resetDef">
                       <use xlink:href="#rim2" fill="#404040">
                               <set attributeName="fill" to="#808080" begin="reset.mouseover" end="reset.mouseout"/>
                       </use>
               </g>
        </defs>

<script type="text/javascript">
var viewWidth = 986;
var viewHeight = 464;
var sectionId = 'dynsection-0';
</script>
<script xlink:href="svgpan.js"/>
<svg id="graph" class="graph">
<g id="viewport">
<title>bio/alphabet/quality/phred63.hpp</title>
<polygon fill="white" stroke="transparent" points="-4,4 -4,-460 982.5,-460 982.5,4 -4,4"/>
<!-- Node1 -->
<g id="node1" class="node">
<title>Node1</title>
<g id="a_node1"><a xlink:title="Provides bio::alphabet::phred63 quality scores.">
<polygon fill="#bfbfbf" stroke="black" points="473.5,-425.5 473.5,-455.5 574.5,-455.5 574.5,-425.5 473.5,-425.5"/>
<text text-anchor="start" x="481.5" y="-443.5" font-family="Helvetica,sans-Serif" font-size="10.00">bio/alphabet/quality</text>
<text text-anchor="middle" x="524" y="-432.5" font-family="Helvetica,sans-Serif" font-size="10.00">/phred63.hpp</text>
</a>
</g>
</g>
<!-- Node2 -->
<g id="node2" class="node">
<title>Node2</title>
<g id="a_node2"><a xlink:href="quality__base_8hpp.html" target="_top" xlink:title="Provides bio::alphabet::phred42 quality scores.">
<polygon fill="white" stroke="black" points="473.5,-358.5 473.5,-388.5 574.5,-388.5 574.5,-358.5 473.5,-358.5"/>
<text text-anchor="start" x="481.5" y="-376.5" font-family="Helvetica,sans-Serif" font-size="10.00">bio/alphabet/quality</text>
<text text-anchor="middle" x="524" y="-365.5" font-family="Helvetica,sans-Serif" font-size="10.00">/quality_base.hpp</text>
</a>
</g>
</g>
<!-- Node1&#45;&gt;Node2 -->
<g id="edge1" class="edge">
<title>Node1&#45;&gt;Node2</title>
<path fill="none" stroke="midnightblue" d="M524,-425.4C524,-417.64 524,-407.81 524,-398.86"/>
<polygon fill="midnightblue" stroke="midnightblue" points="527.5,-398.58 524,-388.58 520.5,-398.58 527.5,-398.58"/>
</g>
<!-- Node3 -->
<g id="node3" class="node">
<title>Node3</title>
<g id="a_node3"><a xlink:href="alphabet__base_8hpp.html" target="_top" xlink:title="Provides bio::alphabet::alphabet_base.">
<polygon fill="white" stroke="black" points="345.5,-291.5 345.5,-321.5 454.5,-321.5 454.5,-291.5 345.5,-291.5"/>
<text text-anchor="start" x="353.5" y="-309.5" font-family="Helvetica,sans-Serif" font-size="10.00">bio/alphabet/alphabet</text>
<text text-anchor="middle" x="400" y="-298.5" font-family="Helvetica,sans-Serif" font-size="10.00">_base.hpp</text>
</a>
</g>
</g>
<!-- Node2&#45;&gt;Node3 -->
<g id="edge2" class="edge">
<title>Node2&#45;&gt;Node3</title>
<path fill="none" stroke="midnightblue" d="M497.09,-358.4C479.14,-348.98 455.33,-336.5 435.78,-326.26"/>
<polygon fill="midnightblue" stroke="midnightblue" points="437.34,-323.12 426.85,-321.58 434.09,-329.32 437.34,-323.12"/>
</g>
<!-- Node26 -->
<g id="node26" class="node">
<title>Node26</title>
<g id="a_node26"><a xlink:href="alphabet_2detail_2convert_8hpp_source.html" target="_top" xlink:title=" ">
<polygon fill="white" stroke="black" points="592.5,-291.5 592.5,-321.5 687.5,-321.5 687.5,-291.5 592.5,-291.5"/>
<text text-anchor="start" x="600.5" y="-309.5" font-family="Helvetica,sans-Serif" font-size="10.00">bio/alphabet/detail</text>
<text text-anchor="middle" x="640" y="-298.5" font-family="Helvetica,sans-Serif" font-size="10.00">/convert.hpp</text>
</a>
</g>
</g>
<!-- Node2&#45;&gt;Node26 -->
<g id="edge39" class="edge">
<title>Node2&#45;&gt;Node26</title>
<path fill="none" stroke="midnightblue" d="M549.17,-358.4C565.74,-349.11 587.64,-336.84 605.78,-326.67"/>
<polygon fill="midnightblue" stroke="midnightblue" points="607.87,-329.52 614.88,-321.58 604.44,-323.41 607.87,-329.52"/>
</g>
<!-- Node28 -->
<g id="node28" class="node">
<title>Node28</title>
<g id="a_node28"><a xlink:href="alphabet_2quality_2concept_8hpp.html" target="_top" xlink:title="Quality alphabet concept.">
<polygon fill="white" stroke="black" points="473.5,-291.5 473.5,-321.5 574.5,-321.5 574.5,-291.5 473.5,-291.5"/>
<text text-anchor="start" x="481.5" y="-309.5" font-family="Helvetica,sans-Serif" font-size="10.00">bio/alphabet/quality</text>
<text text-anchor="middle" x="524" y="-298.5" font-family="Helvetica,sans-Serif" font-size="10.00">/concept.hpp</text>
</a>
</g>
</g>
<!-- Node2&#45;&gt;Node28 -->
<g id="edge42" class="edge">
<title>Node2&#45;&gt;Node28</title>
<path fill="none" stroke="midnightblue" d="M524,-358.4C524,-350.64 524,-340.81 524,-331.86"/>
<polygon fill="midnightblue" stroke="midnightblue" points="527.5,-331.58 524,-321.58 520.5,-331.58 527.5,-331.58"/>
</g>
<!-- Node4 -->
<g id="node4" class="node">
<title>Node4</title>
<g id="a_node4"><a target="_blank" xlink:href="https://en.cppreference.com/w/cpp/header/cassert.html" xlink:title=" ">
<polygon fill="white" stroke="black" points="373.5,-235.5 373.5,-254.5 422.5,-254.5 422.5,-235.5 373.5,-235.5"/>
<text text-anchor="middle" x="398" y="-242.5" font-family="Helvetica,sans-Serif" font-size="10.00">cassert</text>
</a>
</g>
</g>
<!-- Node3&#45;&gt;Node4 -->
<g id="edge3" class="edge">
<title>Node3&#45;&gt;Node4</title>
<path fill="none" stroke="midnightblue" d="M399.53,-291.4C399.26,-283.47 398.92,-273.46 398.63,-264.86"/>
<polygon fill="midnightblue" stroke="midnightblue" points="402.13,-264.53 398.29,-254.66 395.13,-264.77 402.13,-264.53"/>
</g>
<!-- Node5 -->
<g id="node5" class="node">
<title>Node5</title>
<g id="a_node5"><a target="_blank" xlink:href="https://en.cppreference.com/w/cpp/header/concepts.html" xlink:title=" ">
<polygon fill="white" stroke="black" points="331,-112.5 331,-131.5 387,-131.5 387,-112.5 331,-112.5"/>
<text text-anchor="middle" x="359" y="-119.5" font-family="Helvetica,sans-Serif" font-size="10.00">concepts</text>
</a>
</g>
</g>
<!-- Node3&#45;&gt;Node5 -->
<g id="edge4" class="edge">
<title>Node3&#45;&gt;Node5</title>
<path fill="none" stroke="midnightblue" d="M412.24,-291.12C419.54,-281.57 428.12,-268.36 432,-255 442.77,-217.86 450.85,-201.76 432,-168 423.84,-153.39 408.78,-142.94 394.45,-135.8"/>
<polygon fill="midnightblue" stroke="midnightblue" points="395.76,-132.56 385.21,-131.59 392.85,-138.92 395.76,-132.56"/>
</g>
<!-- Node6 -->
<g id="node6" class="node">
<title>Node6</title>
<g id="a_node6"><a target="_blank" xlink:href="https://en.cppreference.com/w/cpp/header/type_traits.html" xlink:title=" ">
<polygon fill="white" stroke="black" points="119,-112.5 119,-131.5 181,-131.5 181,-112.5 119,-112.5"/>
<text text-anchor="middle" x="150" y="-119.5" font-family="Helvetica,sans-Serif" font-size="10.00">type_traits</text>
</a>
</g>
</g>
<!-- Node3&#45;&gt;Node6 -->
<g id="edge5" class="edge">
<title>Node3&#45;&gt;Node6</title>
<path fill="none" stroke="midnightblue" d="M345.3,-298.32C287.55,-287.58 198.91,-261.39 155,-199 143.38,-182.48 143.84,-158.62 146.11,-142.06"/>
<polygon fill="midnightblue" stroke="midnightblue" points="149.61,-142.38 147.84,-131.93 142.71,-141.2 149.61,-142.38"/>
</g>
<!-- Node7 -->
<g id="node7" class="node">
<title>Node7</title>
<g id="a_node7"><a xlink:href="alphabet_2concept_8hpp.html" target="_top" xlink:title="Core alphabet concept and free function/type trait wrappers.">
<polygon fill="white" stroke="black" points="479.5,-235.5 479.5,-254.5 604.5,-254.5 604.5,-235.5 479.5,-235.5"/>
<text text-anchor="middle" x="542" y="-242.5" font-family="Helvetica,sans-Serif" font-size="10.00">bio/alphabet/concept.hpp</text>
</a>
</g>
</g>
<!-- Node3&#45;&gt;Node7 -->
<g id="edge6" class="edge">
<title>Node3&#45;&gt;Node7</title>
<path fill="none" stroke="midnightblue" d="M433.65,-291.4C457.48,-281.42 489.15,-268.15 512.09,-258.53"/>
<polygon fill="midnightblue" stroke="midnightblue" points="513.47,-261.75 521.34,-254.66 510.76,-255.29 513.47,-261.75"/>
</g>
<!-- Node24 -->
<g id="node24" class="node">
<title>Node24</title>
<g id="a_node24"><a xlink:href="int__types_8hpp.html" target="_top" xlink:title="Provides metaprogramming utilities for integer types.">
<polygon fill="white" stroke="black" points="0,-168.5 0,-198.5 94,-198.5 94,-168.5 0,-168.5"/>
<text text-anchor="start" x="8" y="-186.5" font-family="Helvetica,sans-Serif" font-size="10.00">bio/meta/detail/int</text>
<text text-anchor="middle" x="47" y="-175.5" font-family="Helvetica,sans-Serif" font-size="10.00">_types.hpp</text>
</a>
</g>
</g>
<!-- Node3&#45;&gt;Node24 -->
<g id="edge34" class="edge">
<title>Node3&#45;&gt;Node24</title>
<path fill="none" stroke="midnightblue" d="M345.37,-300.47C272.4,-293.01 147.69,-277.43 108,-255 88.09,-243.75 71.58,-223.45 60.78,-207.51"/>
<polygon fill="midnightblue" stroke="midnightblue" points="63.47,-205.22 55.1,-198.73 57.59,-209.03 63.47,-205.22"/>
</g>
<!-- Node7&#45;&gt;Node6 -->
<g id="edge7" class="edge">
<title>Node7&#45;&gt;Node6</title>
<path fill="none" stroke="midnightblue" d="M479.43,-237.89C378.96,-227.85 191.69,-208.06 180,-199 162.26,-185.25 154.99,-159.46 152.02,-141.77"/>
<polygon fill="midnightblue" stroke="midnightblue" points="155.47,-141.18 150.65,-131.75 148.54,-142.13 155.47,-141.18"/>
</g>
<!-- Node8 -->
<g id="node8" class="node">
<title>Node8</title>
<g id="a_node8"><a xlink:href="alphabet_2biocpp_8hpp.html" target="_top" xlink:title="Module header with module&#45;wide definitions.">
<polygon fill="white" stroke="black" points="796.5,-112.5 796.5,-131.5 915.5,-131.5 915.5,-112.5 796.5,-112.5"/>
<text text-anchor="middle" x="856" y="-119.5" font-family="Helvetica,sans-Serif" font-size="10.00">bio/alphabet/biocpp.hpp</text>
</a>
</g>
</g>
<!-- Node7&#45;&gt;Node8 -->
<g id="edge8" class="edge">
<title>Node7&#45;&gt;Node8</title>
<path fill="none" stroke="midnightblue" d="M596.32,-235.47C650.29,-226.49 728.93,-211.89 757,-199 789.93,-183.88 822.09,-156.07 840.43,-138.62"/>
<polygon fill="midnightblue" stroke="midnightblue" points="842.89,-141.1 847.62,-131.62 838.01,-136.08 842.89,-141.1"/>
</g>
<!-- Node13 -->
<g id="node13" class="node">
<title>Node13</title>
<g id="a_node13"><a xlink:href="exception_8hpp.html" target="_top" xlink:title="Exceptions thrown by entities in the alphabet module.">
<polygon fill="white" stroke="black" points="614.5,-174 614.5,-193 747.5,-193 747.5,-174 614.5,-174"/>
<text text-anchor="middle" x="681" y="-181" font-family="Helvetica,sans-Serif" font-size="10.00">bio/alphabet/exception.hpp</text>
</a>
</g>
</g>
<!-- Node7&#45;&gt;Node13 -->
<g id="edge13" class="edge">
<title>Node7&#45;&gt;Node13</title>
<path fill="none" stroke="midnightblue" d="M561.92,-235.48C585.45,-225.4 624.81,-208.55 651.79,-197"/>
<polygon fill="midnightblue" stroke="midnightblue" points="653.31,-200.16 661.12,-193.01 650.55,-193.73 653.31,-200.16"/>
</g>
<!-- Node16 -->
<g id="node16" class="node">
<title>Node16</title>
<g id="a_node16"><a xlink:href="core__language_8hpp.html" target="_top" xlink:title="Provides concepts for core language types and relations that don&#39;t have concepts in C++20 (yet).">
<polygon fill="white" stroke="black" points="309.5,-168.5 309.5,-198.5 422.5,-198.5 422.5,-168.5 309.5,-168.5"/>
<text text-anchor="start" x="317.5" y="-186.5" font-family="Helvetica,sans-Serif" font-size="10.00">bio/meta/concept/core</text>
<text text-anchor="middle" x="366" y="-175.5" font-family="Helvetica,sans-Serif" font-size="10.00">_language.hpp</text>
</a>
</g>
</g>
<!-- Node7&#45;&gt;Node16 -->
<g id="edge18" class="edge">
<title>Node7&#45;&gt;Node16</title>
<path fill="none" stroke="midnightblue" d="M516.78,-235.48C490.94,-226.74 450.03,-212.91 417.34,-201.86"/>
<polygon fill="midnightblue" stroke="midnightblue" points="418.07,-198.41 407.48,-198.52 415.83,-205.04 418.07,-198.41"/>
</g>
<!-- Node17 -->
<g id="node17" class="node">
<title>Node17</title>
<g id="a_node17"><a xlink:href="priority__tag_8hpp.html" target="_top" xlink:title="provides bio::meta::detail::priority_tag.">
<polygon fill="white" stroke="black" points="865.5,-168.5 865.5,-198.5 978.5,-198.5 978.5,-168.5 865.5,-168.5"/>
<text text-anchor="start" x="873.5" y="-186.5" font-family="Helvetica,sans-Serif" font-size="10.00">bio/meta/detail/priority</text>
<text text-anchor="middle" x="922" y="-175.5" font-family="Helvetica,sans-Serif" font-size="10.00">_tag.hpp</text>
</a>
</g>
</g>
<!-- Node7&#45;&gt;Node17 -->
<g id="edge22" class="edge">
<title>Node7&#45;&gt;Node17</title>
<path fill="none" stroke="midnightblue" d="M596.68,-235.48C654.61,-226.44 748.76,-211.75 830,-199 838.15,-197.72 846.71,-196.38 855.19,-195.04"/>
<polygon fill="midnightblue" stroke="midnightblue" points="855.74,-198.5 865.07,-193.48 854.65,-191.58 855.74,-198.5"/>
</g>
<!-- Node18 -->
<g id="node18" class="node">
<title>Node18</title>
<g id="a_node18"><a xlink:href="type__inspection_8hpp.html" target="_top" xlink:title="Provides traits to inspect some information of a type, for example its name.">
<polygon fill="white" stroke="black" points="491,-168.5 491,-198.5 593,-198.5 593,-168.5 491,-168.5"/>
<text text-anchor="start" x="499" y="-186.5" font-family="Helvetica,sans-Serif" font-size="10.00">bio/meta/detail/type</text>
<text text-anchor="middle" x="542" y="-175.5" font-family="Helvetica,sans-Serif" font-size="10.00">_inspection.hpp</text>
</a>
</g>
</g>
<!-- Node7&#45;&gt;Node18 -->
<g id="edge24" class="edge">
<title>Node7&#45;&gt;Node18</title>
<path fill="none" stroke="midnightblue" d="M542,-235.48C542,-228.47 542,-218.19 542,-208.7"/>
<polygon fill="midnightblue" stroke="midnightblue" points="545.5,-208.52 542,-198.52 538.5,-208.52 545.5,-208.52"/>
</g>
<!-- Node22 -->
<g id="node22" class="node">
<title>Node22</title>
<g id="a_node22"><a xlink:href="basic_8hpp.html" target="_top" xlink:title="Provides various type traits on generic types.">
<polygon fill="white" stroke="black" points="188.5,-168.5 188.5,-198.5 291.5,-198.5 291.5,-168.5 188.5,-168.5"/>
<text text-anchor="start" x="196.5" y="-186.5" font-family="Helvetica,sans-Serif" font-size="10.00">bio/meta/type_traits</text>
<text text-anchor="middle" x="240" y="-175.5" font-family="Helvetica,sans-Serif" font-size="10.00">/basic.hpp</text>
</a>
</g>
</g>
<!-- Node7&#45;&gt;Node22 -->
<g id="edge30" class="edge">
<title>Node7&#45;&gt;Node22</title>
<path fill="none" stroke="midnightblue" d="M492.47,-235.48C445.85,-227.3 373.83,-214.24 301.72,-199.09"/>
<polygon fill="midnightblue" stroke="midnightblue" points="302.05,-195.58 291.54,-196.94 300.6,-202.43 302.05,-195.58"/>
</g>
<!-- Node9 -->
<g id="node9" class="node">
<title>Node9</title>
<g id="a_node9"><a xlink:href="platform_8hpp.html" target="_top" xlink:title="Provides platform and dependency checks.">
<polygon fill="white" stroke="black" points="303.5,-56.5 303.5,-75.5 414.5,-75.5 414.5,-56.5 303.5,-56.5"/>
<text text-anchor="middle" x="359" y="-63.5" font-family="Helvetica,sans-Serif" font-size="10.00">bio/meta/platform.hpp</text>
</a>
</g>
</g>
<!-- Node8&#45;&gt;Node9 -->
<g id="edge9" class="edge">
<title>Node8&#45;&gt;Node9</title>
<path fill="none" stroke="midnightblue" d="M796.31,-113.01C793.5,-112.66 790.72,-112.32 788,-112 659.5,-96.76 509.02,-81.59 424.78,-73.34"/>
<polygon fill="midnightblue" stroke="midnightblue" points="424.88,-69.83 414.59,-72.35 424.2,-76.8 424.88,-69.83"/>
</g>
<!-- Node10 -->
<g id="node10" class="node">
<title>Node10</title>
<g id="a_node10"><a target="_blank" xlink:href="https://en.cppreference.com/w/cpp/header/cinttypes.html" xlink:title=" ">
<polygon fill="white" stroke="black" points="260,-0.5 260,-19.5 316,-19.5 316,-0.5 260,-0.5"/>
<text text-anchor="middle" x="288" y="-7.5" font-family="Helvetica,sans-Serif" font-size="10.00">cinttypes</text>
</a>
</g>
</g>
<!-- Node9&#45;&gt;Node10 -->
<g id="edge10" class="edge">
<title>Node9&#45;&gt;Node10</title>
<path fill="none" stroke="midnightblue" d="M347.59,-56.32C336.89,-48.18 320.66,-35.84 307.84,-26.09"/>
<polygon fill="midnightblue" stroke="midnightblue" points="309.69,-23.1 299.61,-19.83 305.46,-28.67 309.69,-23.1"/>
</g>
<!-- Node11 -->
<g id="node11" class="node">
<title>Node11</title>
<g id="a_node11"><a target="_blank" xlink:href="https://en.cppreference.com/w/cpp/header/ciso646.html" xlink:title=" ">
<polygon fill="white" stroke="black" points="334,-0.5 334,-19.5 384,-19.5 384,-0.5 334,-0.5"/>
<text text-anchor="middle" x="359" y="-7.5" font-family="Helvetica,sans-Serif" font-size="10.00">ciso646</text>
</a>
</g>
</g>
<!-- Node9&#45;&gt;Node11 -->
<g id="edge11" class="edge">
<title>Node9&#45;&gt;Node11</title>
<path fill="none" stroke="midnightblue" d="M359,-56.08C359,-49.01 359,-38.86 359,-29.99"/>
<polygon fill="midnightblue" stroke="midnightblue" points="362.5,-29.75 359,-19.75 355.5,-29.75 362.5,-29.75"/>
</g>
<!-- Node12 -->
<g id="node12" class="node">
<title>Node12</title>
<g id="a_node12"><a target="_blank" xlink:href="https://en.cppreference.com/w/cpp/header/cstddef.html" xlink:title=" ">
<polygon fill="white" stroke="black" points="402.5,-0.5 402.5,-19.5 451.5,-19.5 451.5,-0.5 402.5,-0.5"/>
<text text-anchor="middle" x="427" y="-7.5" font-family="Helvetica,sans-Serif" font-size="10.00">cstddef</text>
</a>
</g>
</g>
<!-- Node9&#45;&gt;Node12 -->
<g id="edge12" class="edge">
<title>Node9&#45;&gt;Node12</title>
<path fill="none" stroke="midnightblue" d="M369.93,-56.32C380.17,-48.18 395.72,-35.84 408,-26.09"/>
<polygon fill="midnightblue" stroke="midnightblue" points="410.22,-28.79 415.88,-19.83 405.87,-23.31 410.22,-28.79"/>
</g>
<!-- Node13&#45;&gt;Node5 -->
<g id="edge14" class="edge">
<title>Node13&#45;&gt;Node5</title>
<path fill="none" stroke="midnightblue" d="M634.87,-173.98C571.05,-162.18 457,-141.11 397.5,-130.11"/>
<polygon fill="midnightblue" stroke="midnightblue" points="397.87,-126.62 387.4,-128.25 396.6,-133.51 397.87,-126.62"/>
</g>
<!-- Node13&#45;&gt;Node8 -->
<g id="edge17" class="edge">
<title>Node13&#45;&gt;Node8</title>
<path fill="none" stroke="midnightblue" d="M706.07,-173.98C736.35,-163.68 787.44,-146.31 821.44,-134.75"/>
<polygon fill="midnightblue" stroke="midnightblue" points="822.63,-138.04 830.97,-131.51 820.38,-131.41 822.63,-138.04"/>
</g>
<!-- Node14 -->
<g id="node14" class="node">
<title>Node14</title>
<g id="a_node14"><a target="_blank" xlink:href="https://en.cppreference.com/w/cpp/header/stdexcept.html" xlink:title=" ">
<polygon fill="white" stroke="black" points="719.5,-112.5 719.5,-131.5 778.5,-131.5 778.5,-112.5 719.5,-112.5"/>
<text text-anchor="middle" x="749" y="-119.5" font-family="Helvetica,sans-Serif" font-size="10.00">stdexcept</text>
</a>
</g>
</g>
<!-- Node13&#45;&gt;Node14 -->
<g id="edge15" class="edge">
<title>Node13&#45;&gt;Node14</title>
<path fill="none" stroke="midnightblue" d="M690.74,-173.98C701.35,-164.7 718.52,-149.67 731.48,-138.33"/>
<polygon fill="midnightblue" stroke="midnightblue" points="734.05,-140.73 739.28,-131.51 729.44,-135.46 734.05,-140.73"/>
</g>
<!-- Node15 -->
<g id="node15" class="node">
<title>Node15</title>
<g id="a_node15"><a target="_blank" xlink:href="https://en.cppreference.com/w/cpp/header/string.html" xlink:title=" ">
<polygon fill="white" stroke="black" points="660.5,-112.5 660.5,-131.5 701.5,-131.5 701.5,-112.5 660.5,-112.5"/>
<text text-anchor="middle" x="681" y="-119.5" font-family="Helvetica,sans-Serif" font-size="10.00">string</text>
</a>
</g>
</g>
<!-- Node13&#45;&gt;Node15 -->
<g id="edge16" class="edge">
<title>Node13&#45;&gt;Node15</title>
<path fill="none" stroke="midnightblue" d="M681,-173.98C681,-165.58 681,-152.48 681,-141.66"/>
<polygon fill="midnightblue" stroke="midnightblue" points="684.5,-141.51 681,-131.51 677.5,-141.51 684.5,-141.51"/>
</g>
<!-- Node16&#45;&gt;Node5 -->
<g id="edge21" class="edge">
<title>Node16&#45;&gt;Node5</title>
<path fill="none" stroke="midnightblue" d="M364.34,-168.4C363.41,-160.47 362.23,-150.46 361.22,-141.86"/>
<polygon fill="midnightblue" stroke="midnightblue" points="364.66,-141.18 360.02,-131.66 357.71,-142 364.66,-141.18"/>
</g>
<!-- Node16&#45;&gt;Node6 -->
<g id="edge19" class="edge">
<title>Node16&#45;&gt;Node6</title>
<path fill="none" stroke="midnightblue" d="M315.08,-168.47C277.17,-158.03 226.08,-143.96 190.83,-134.25"/>
<polygon fill="midnightblue" stroke="midnightblue" points="191.45,-130.79 180.88,-131.51 189.59,-137.54 191.45,-130.79"/>
</g>
<!-- Node16&#45;&gt;Node9 -->
<g id="edge20" class="edge">
<title>Node16&#45;&gt;Node9</title>
<path fill="none" stroke="midnightblue" d="M348.37,-168.13C338.57,-158.96 327.3,-146.16 322,-132 315.36,-114.28 328.28,-95.67 340.63,-82.92"/>
<polygon fill="midnightblue" stroke="midnightblue" points="343.26,-85.25 348.07,-75.81 338.42,-80.19 343.26,-85.25"/>
</g>
<!-- Node17&#45;&gt;Node9 -->
<g id="edge23" class="edge">
<title>Node17&#45;&gt;Node9</title>
<path fill="none" stroke="midnightblue" d="M927.87,-168.31C933.38,-152.45 938.88,-127.03 925,-112 891.68,-75.93 567.31,-68.75 425.17,-67.34"/>
<polygon fill="midnightblue" stroke="midnightblue" points="424.88,-63.83 414.85,-67.24 424.82,-70.83 424.88,-63.83"/>
</g>
<!-- Node18&#45;&gt;Node9 -->
<g id="edge29" class="edge">
<title>Node18&#45;&gt;Node9</title>
<path fill="none" stroke="midnightblue" d="M506.05,-168.38C484.66,-159.3 457.42,-146.51 435,-132 412.62,-117.52 389.74,-97.02 375.02,-82.94"/>
<polygon fill="midnightblue" stroke="midnightblue" points="377.34,-80.31 367.73,-75.85 372.46,-85.33 377.34,-80.31"/>
</g>
<!-- Node18&#45;&gt;Node15 -->
<g id="edge27" class="edge">
<title>Node18&#45;&gt;Node15</title>
<path fill="none" stroke="midnightblue" d="M574.94,-168.4C598.16,-158.46 628.99,-145.26 651.42,-135.66"/>
<polygon fill="midnightblue" stroke="midnightblue" points="652.96,-138.81 660.77,-131.66 650.2,-132.38 652.96,-138.81"/>
</g>
<!-- Node19 -->
<g id="node19" class="node">
<title>Node19</title>
<g id="a_node19"><a target="_blank" xlink:href="https://en.cppreference.com/w/cpp/header/functional.html" xlink:title=" ">
<polygon fill="white" stroke="black" points="512.5,-112.5 512.5,-131.5 571.5,-131.5 571.5,-112.5 512.5,-112.5"/>
<text text-anchor="middle" x="542" y="-119.5" font-family="Helvetica,sans-Serif" font-size="10.00">functional</text>
</a>
</g>
</g>
<!-- Node18&#45;&gt;Node19 -->
<g id="edge25" class="edge">
<title>Node18&#45;&gt;Node19</title>
<path fill="none" stroke="midnightblue" d="M542,-168.4C542,-160.47 542,-150.46 542,-141.86"/>
<polygon fill="midnightblue" stroke="midnightblue" points="545.5,-141.66 542,-131.66 538.5,-141.66 545.5,-141.66"/>
</g>
<!-- Node20 -->
<g id="node20" class="node">
<title>Node20</title>
<g id="a_node20"><a target="_blank" xlink:href="https://en.cppreference.com/w/cpp/header/memory.html" xlink:title=" ">
<polygon fill="white" stroke="black" points="590,-112.5 590,-131.5 642,-131.5 642,-112.5 590,-112.5"/>
<text text-anchor="middle" x="616" y="-119.5" font-family="Helvetica,sans-Serif" font-size="10.00">memory</text>
</a>
</g>
</g>
<!-- Node18&#45;&gt;Node20 -->
<g id="edge26" class="edge">
<title>Node18&#45;&gt;Node20</title>
<path fill="none" stroke="midnightblue" d="M559.54,-168.4C570.84,-159.31 585.54,-147.49 597.11,-138.19"/>
<polygon fill="midnightblue" stroke="midnightblue" points="599.63,-140.65 605.23,-131.66 595.25,-135.2 599.63,-140.65"/>
</g>
<!-- Node21 -->
<g id="node21" class="node">
<title>Node21</title>
<g id="a_node21"><a target="_blank" xlink:href="https://en.cppreference.com/w/cpp/header/typeinfo.html" xlink:title=" ">
<polygon fill="white" stroke="black" points="443.5,-112.5 443.5,-131.5 494.5,-131.5 494.5,-112.5 443.5,-112.5"/>
<text text-anchor="middle" x="469" y="-119.5" font-family="Helvetica,sans-Serif" font-size="10.00">typeinfo</text>
</a>
</g>
</g>
<!-- Node18&#45;&gt;Node21 -->
<g id="edge28" class="edge">
<title>Node18&#45;&gt;Node21</title>
<path fill="none" stroke="midnightblue" d="M524.7,-168.4C513.55,-159.31 499.05,-147.49 487.64,-138.19"/>
<polygon fill="midnightblue" stroke="midnightblue" points="489.58,-135.26 479.62,-131.66 485.16,-140.69 489.58,-135.26"/>
</g>
<!-- Node22&#45;&gt;Node6 -->
<g id="edge32" class="edge">
<title>Node22&#45;&gt;Node6</title>
<path fill="none" stroke="midnightblue" d="M218.67,-168.4C204.51,-159.04 185.99,-146.79 171.75,-137.38"/>
<polygon fill="midnightblue" stroke="midnightblue" points="173.37,-134.25 163.1,-131.66 169.51,-140.09 173.37,-134.25"/>
</g>
<!-- Node22&#45;&gt;Node9 -->
<g id="edge33" class="edge">
<title>Node22&#45;&gt;Node9</title>
<path fill="none" stroke="midnightblue" d="M254.59,-168.34C276.91,-146.68 319.38,-105.45 342.69,-82.83"/>
<polygon fill="midnightblue" stroke="midnightblue" points="345.33,-85.15 350.07,-75.67 340.45,-80.12 345.33,-85.15"/>
</g>
<!-- Node23 -->
<g id="node23" class="node">
<title>Node23</title>
<g id="a_node23"><a target="_blank" xlink:href="https://en.cppreference.com/w/cpp/header/tuple.html" xlink:title=" ">
<polygon fill="white" stroke="black" points="199,-112.5 199,-131.5 237,-131.5 237,-112.5 199,-112.5"/>
<text text-anchor="middle" x="218" y="-119.5" font-family="Helvetica,sans-Serif" font-size="10.00">tuple</text>
</a>
</g>
</g>
<!-- Node22&#45;&gt;Node23 -->
<g id="edge31" class="edge">
<title>Node22&#45;&gt;Node23</title>
<path fill="none" stroke="midnightblue" d="M234.79,-168.4C231.79,-160.29 227.99,-150.01 224.76,-141.28"/>
<polygon fill="midnightblue" stroke="midnightblue" points="227.95,-139.82 221.2,-131.66 221.39,-142.25 227.95,-139.82"/>
</g>
<!-- Node24&#45;&gt;Node5 -->
<g id="edge35" class="edge">
<title>Node24&#45;&gt;Node5</title>
<path fill="none" stroke="midnightblue" d="M94.05,-173.53C155.91,-161.73 263.42,-141.23 320.62,-130.32"/>
<polygon fill="midnightblue" stroke="midnightblue" points="321.53,-133.71 330.7,-128.4 320.22,-126.83 321.53,-133.71"/>
</g>
<!-- Node24&#45;&gt;Node6 -->
<g id="edge37" class="edge">
<title>Node24&#45;&gt;Node6</title>
<path fill="none" stroke="midnightblue" d="M71.41,-168.4C87.92,-158.86 109.62,-146.32 126.04,-136.84"/>
<polygon fill="midnightblue" stroke="midnightblue" points="128.1,-139.69 135.01,-131.66 124.6,-133.63 128.1,-139.69"/>
</g>
<!-- Node24&#45;&gt;Node9 -->
<g id="edge38" class="edge">
<title>Node24&#45;&gt;Node9</title>
<path fill="none" stroke="midnightblue" d="M55.5,-168.3C66.09,-151.93 85.79,-125.55 110,-112 166.52,-80.38 240.51,-70.25 293.12,-67.35"/>
<polygon fill="midnightblue" stroke="midnightblue" points="293.52,-70.84 303.34,-66.86 293.19,-63.84 293.52,-70.84"/>
</g>
<!-- Node25 -->
<g id="node25" class="node">
<title>Node25</title>
<g id="a_node25"><a target="_blank" xlink:href="https://en.cppreference.com/w/cpp/header/limits.html" xlink:title=" ">
<polygon fill="white" stroke="black" points="23,-112.5 23,-131.5 63,-131.5 63,-112.5 23,-112.5"/>
<text text-anchor="middle" x="43" y="-119.5" font-family="Helvetica,sans-Serif" font-size="10.00">limits</text>
</a>
</g>
</g>
<!-- Node24&#45;&gt;Node25 -->
<g id="edge36" class="edge">
<title>Node24&#45;&gt;Node25</title>
<path fill="none" stroke="midnightblue" d="M46.05,-168.4C45.52,-160.47 44.85,-150.46 44.27,-141.86"/>
<polygon fill="midnightblue" stroke="midnightblue" points="47.74,-141.4 43.58,-131.66 40.76,-141.87 47.74,-141.4"/>
</g>
<!-- Node26&#45;&gt;Node7 -->
<g id="edge41" class="edge">
<title>Node26&#45;&gt;Node7</title>
<path fill="none" stroke="midnightblue" d="M616.78,-291.4C601.21,-281.95 580.8,-269.56 565.24,-260.11"/>
<polygon fill="midnightblue" stroke="midnightblue" points="566.62,-256.86 556.26,-254.66 562.99,-262.84 566.62,-256.86"/>
</g>
<!-- Node27 -->
<g id="node27" class="node">
<title>Node27</title>
<g id="a_node27"><a target="_blank" xlink:href="https://en.cppreference.com/w/cpp/header/array.html" xlink:title=" ">
<polygon fill="white" stroke="black" points="623,-235.5 623,-254.5 661,-254.5 661,-235.5 623,-235.5"/>
<text text-anchor="middle" x="642" y="-242.5" font-family="Helvetica,sans-Serif" font-size="10.00">array</text>
</a>
</g>
</g>
<!-- Node26&#45;&gt;Node27 -->
<g id="edge40" class="edge">
<title>Node26&#45;&gt;Node27</title>
<path fill="none" stroke="midnightblue" d="M640.47,-291.4C640.74,-283.47 641.08,-273.46 641.37,-264.86"/>
<polygon fill="midnightblue" stroke="midnightblue" points="644.87,-264.77 641.71,-254.66 637.87,-264.53 644.87,-264.77"/>
</g>
<!-- Node28&#45;&gt;Node7 -->
<g id="edge43" class="edge">
<title>Node28&#45;&gt;Node7</title>
<path fill="none" stroke="midnightblue" d="M528.27,-291.4C530.72,-283.29 533.83,-273.01 536.47,-264.28"/>
<polygon fill="midnightblue" stroke="midnightblue" points="539.84,-265.24 539.38,-254.66 533.14,-263.22 539.84,-265.24"/>
</g>
</g>
</svg>
        <g id="navigator" transform="translate(0 0)" fill="#404254">
                <rect fill="#f2f5e9" fill-opacity="0.5" stroke="#606060" stroke-width=".5" x="0" y="0" width="60" height="60"/>
                <use id="zoomplus" xlink:href="#zoomPlus" x="17" y="9" onmousedown="handleZoom(evt,'in')"/>
                <use id="zoomminus" xlink:href="#zoomMin" x="42" y="9" onmousedown="handleZoom(evt,'out')"/>
                <use id="reset" xlink:href="#resetDef" x="30" y="36" onmousedown="handleReset()"/>
                <g id="arrowUp" xlink:href="#dirArrow" transform="translate(30 24)" onmousedown="handlePan(0,-1)">
                  <use xlink:href="#rim" fill="#404040">
                        <set attributeName="fill" to="#808080" begin="arrowUp.mouseover" end="arrowUp.mouseout"/>
                  </use>
                  <path fill="none" stroke="white" stroke-width="1.5" d="M0,-3.0v7 M-2.5,-0.5L0,-3.0L2.5,-0.5"/>
                </g>
                <g id="arrowRight" xlink:href="#dirArrow" transform="rotate(90) translate(36 -43)" onmousedown="handlePan(1,0)">
                  <use xlink:href="#rim" fill="#404040">
                        <set attributeName="fill" to="#808080" begin="arrowRight.mouseover" end="arrowRight.mouseout"/>
                  </use>
                  <path fill="none" stroke="white" stroke-width="1.5" d="M0,-3.0v7 M-2.5,-0.5L0,-3.0L2.5,-0.5"/>
                </g>
                <g id="arrowDown" xlink:href="#dirArrow" transform="rotate(180) translate(-30 -48)" onmousedown="handlePan(0,1)">
                  <use xlink:href="#rim" fill="#404040">
                        <set attributeName="fill" to="#808080" begin="arrowDown.mouseover" end="arrowDown.mouseout"/>
                  </use>
                  <path fill="none" stroke="white" stroke-width="1.5" d="M0,-3.0v7 M-2.5,-0.5L0,-3.0L2.5,-0.5"/>
                </g>
                <g id="arrowLeft" xlink:href="#dirArrow" transform="rotate(270) translate(-36 17)" onmousedown="handlePan(-1,0)">
                  <use xlink:href="#rim" fill="#404040">
                        <set attributeName="fill" to="#808080" begin="arrowLeft.mouseover" end="arrowLeft.mouseout"/>
                  </use>
                  <path fill="none" stroke="white" stroke-width="1.5" d="M0,-3.0v7 M-2.5,-0.5L0,-3.0L2.5,-0.5"/>
                </g>
        </g>
        <svg viewBox="0 0 15 15" width="100%" height="30px" preserveAspectRatio="xMaxYMin meet">
         <g id="arrow_out" transform="scale(0.3 0.3)">
          <a xlink:href="phred63_8hpp__incl_org.svg" target="_base">
           <rect id="button" ry="5" rx="5" y="6" x="6" height="38" width="38"
                fill="#f2f5e9" fill-opacity="0.5" stroke="#606060" stroke-width="1.0"/>
           <path id="arrow"
             d="M 11.500037,31.436501 C 11.940474,20.09759 22.043105,11.32322 32.158766,21.979434 L 37.068811,17.246167 C 37.068811,17.246167 37.088388,32 37.088388,32 L 22.160133,31.978069 C 22.160133,31.978069 26.997745,27.140456 26.997745,27.140456 C 18.528582,18.264221 13.291696,25.230495 11.500037,31.436501 z"
             style="fill:#404040;"/>
          </a>
         </g>
        </svg>
</svg>
