<?xml version="1.0" encoding="UTF-8" standalone="no"?>
<!DOCTYPE svg PUBLIC "-//W3C//DTD SVG 1.1//EN"
 "http://www.w3.org/Graphics/SVG/1.1/DTD/svg11.dtd">
<!-- Generated by graphviz version 2.42.2 ()
 -->
<!-- Title: bio/meta/pod_tuple.hpp Pages: 1 -->
<svg width="428pt" height="196pt"
 viewBox="0.00 0.00 428.31 196.00" xmlns="http://www.w3.org/2000/svg" xmlns:xlink="http://www.w3.org/1999/xlink">
<g id="graph0" class="graph" transform="scale(1 1) rotate(0) translate(4 192)">
<title>bio/meta/pod_tuple.hpp</title>
<polygon fill="white" stroke="transparent" points="-4,4 -4,-192 424.31,-192 424.31,4 -4,4"/>
<!-- Node1 -->
<g id="node1" class="node">
<title>Node1</title>
<g id="a_node1"><a xlink:title="Provides bio::meta::pod_tuple.">
<polygon fill="#bfbfbf" stroke="black" points="287.5,-168.5 287.5,-187.5 405.5,-187.5 405.5,-168.5 287.5,-168.5"/>
<text text-anchor="middle" x="346.5" y="-175.5" font-family="Helvetica,sans-Serif" font-size="10.00">bio/meta/pod_tuple.hpp</text>
</a>
</g>
</g>
<!-- Node2 -->
<g id="node2" class="node">
<title>Node2</title>
<g id="a_node2"><a xlink:href="meta_2all_8hpp.html" target="_top" xlink:title="Meta&#45;header for the meta module .">
<polygon fill="white" stroke="black" points="303.5,-0.5 303.5,-19.5 389.5,-19.5 389.5,-0.5 303.5,-0.5"/>
<text text-anchor="middle" x="346.5" y="-7.5" font-family="Helvetica,sans-Serif" font-size="10.00">bio/meta/all.hpp</text>
</a>
</g>
</g>
<!-- Node1&#45;&gt;Node2 -->
<g id="edge1" class="edge">
<title>Node1&#45;&gt;Node2</title>
<path fill="none" stroke="midnightblue" d="M362.56,-161.03C379.98,-142.47 406.74,-110 417.5,-76 420.18,-67.52 421.78,-63.79 417.5,-56 407.79,-38.35 387.92,-26.66 371.66,-19.62"/>
<polygon fill="midnightblue" stroke="midnightblue" points="359.95,-158.7 355.52,-168.32 364.98,-163.56 359.95,-158.7"/>
</g>
<!-- Node3 -->
<g id="node3" class="node">
<title>Node3</title>
<g id="a_node3"><a xlink:href="tuple_8hpp.html" target="_top" xlink:title="Provides bio::meta::tuple_like.">
<polygon fill="white" stroke="black" points="161.5,-112.5 161.5,-131.5 295.5,-131.5 295.5,-112.5 161.5,-112.5"/>
<text text-anchor="middle" x="228.5" y="-119.5" font-family="Helvetica,sans-Serif" font-size="10.00">bio/meta/concept/tuple.hpp</text>
</a>
</g>
</g>
<!-- Node1&#45;&gt;Node3 -->
<g id="edge2" class="edge">
<title>Node1&#45;&gt;Node3</title>
<path fill="none" stroke="midnightblue" d="M318.6,-164.23C296.53,-154.13 266.32,-140.31 247.11,-131.52"/>
<polygon fill="midnightblue" stroke="midnightblue" points="317.25,-167.46 327.8,-168.44 320.17,-161.1 317.25,-167.46"/>
</g>
<!-- Node5 -->
<g id="node5" class="node">
<title>Node5</title>
<g id="a_node5"><a xlink:href="tuple__utility_8hpp.html" target="_top" xlink:title="Provides utility functions for tuple like interfaces.">
<polygon fill="white" stroke="black" points="284.5,-56.5 284.5,-75.5 408.5,-75.5 408.5,-56.5 284.5,-56.5"/>
<text text-anchor="middle" x="346.5" y="-63.5" font-family="Helvetica,sans-Serif" font-size="10.00">bio/meta/tuple_utility.hpp</text>
</a>
</g>
</g>
<!-- Node1&#45;&gt;Node5 -->
<g id="edge9" class="edge">
<title>Node1&#45;&gt;Node5</title>
<path fill="none" stroke="midnightblue" d="M346.5,-158.35C346.5,-134.25 346.5,-93.31 346.5,-75.59"/>
<polygon fill="midnightblue" stroke="midnightblue" points="343,-158.37 346.5,-168.37 350,-158.37 343,-158.37"/>
</g>
<!-- Node4 -->
<g id="node4" class="node">
<title>Node4</title>
<g id="a_node4"><a xlink:href="meta_2concept_2all_8hpp.html" target="_top" xlink:title="Meta&#45;include for custom concepts.">
<polygon fill="white" stroke="black" points="143,-56.5 143,-75.5 266,-75.5 266,-56.5 143,-56.5"/>
<text text-anchor="middle" x="204.5" y="-63.5" font-family="Helvetica,sans-Serif" font-size="10.00">bio/meta/concept/all.hpp</text>
</a>
</g>
</g>
<!-- Node3&#45;&gt;Node4 -->
<g id="edge3" class="edge">
<title>Node3&#45;&gt;Node4</title>
<path fill="none" stroke="midnightblue" d="M220.36,-102.69C216.32,-93.59 211.62,-83.01 208.39,-75.75"/>
<polygon fill="midnightblue" stroke="midnightblue" points="217.28,-104.37 224.54,-112.08 223.67,-101.52 217.28,-104.37"/>
</g>
<!-- Node3&#45;&gt;Node5 -->
<g id="edge5" class="edge">
<title>Node3&#45;&gt;Node5</title>
<path fill="none" stroke="midnightblue" d="M256.4,-108.23C278.47,-98.13 308.68,-84.31 327.89,-75.52"/>
<polygon fill="midnightblue" stroke="midnightblue" points="254.83,-105.1 247.2,-112.44 257.75,-111.46 254.83,-105.1"/>
</g>
<!-- Node6 -->
<g id="node6" class="node">
<title>Node6</title>
<g id="a_node6"><a xlink:href="get_8hpp.html" target="_top" xlink:title="Provides bio::views::get.">
<polygon fill="white" stroke="black" points="0,-56.5 0,-75.5 125,-75.5 125,-56.5 0,-56.5"/>
<text text-anchor="middle" x="62.5" y="-63.5" font-family="Helvetica,sans-Serif" font-size="10.00">bio/ranges/views/get.hpp</text>
</a>
</g>
</g>
<!-- Node3&#45;&gt;Node6 -->
<g id="edge7" class="edge">
<title>Node3&#45;&gt;Node6</title>
<path fill="none" stroke="midnightblue" d="M192.55,-109.3C161.27,-99.13 116.68,-84.62 88.68,-75.52"/>
<polygon fill="midnightblue" stroke="midnightblue" points="191.6,-112.68 202.2,-112.44 193.77,-106.02 191.6,-112.68"/>
</g>
<!-- Node4&#45;&gt;Node2 -->
<g id="edge4" class="edge">
<title>Node4&#45;&gt;Node2</title>
<path fill="none" stroke="midnightblue" d="M236.66,-52.77C263.33,-42.63 300.57,-28.47 324.1,-19.52"/>
<polygon fill="midnightblue" stroke="midnightblue" points="235.1,-49.62 227,-56.44 237.59,-56.16 235.1,-49.62"/>
</g>
<!-- Node5&#45;&gt;Node2 -->
<g id="edge6" class="edge">
<title>Node5&#45;&gt;Node2</title>
<path fill="none" stroke="midnightblue" d="M346.5,-45.8C346.5,-36.91 346.5,-26.78 346.5,-19.75"/>
<polygon fill="midnightblue" stroke="midnightblue" points="343,-46.08 346.5,-56.08 350,-46.08 343,-46.08"/>
</g>
<!-- Node7 -->
<g id="node7" class="node">
<title>Node7</title>
<g id="a_node7"><a xlink:href="ranges_2views_2all_8hpp.html" target="_top" xlink:title="Meta&#45;header for the views submodule .">
<polygon fill="white" stroke="black" points="1.5,-0.5 1.5,-19.5 123.5,-19.5 123.5,-0.5 1.5,-0.5"/>
<text text-anchor="middle" x="62.5" y="-7.5" font-family="Helvetica,sans-Serif" font-size="10.00">bio/ranges/views/all.hpp</text>
</a>
</g>
</g>
<!-- Node6&#45;&gt;Node7 -->
<g id="edge8" class="edge">
<title>Node6&#45;&gt;Node7</title>
<path fill="none" stroke="midnightblue" d="M62.5,-45.8C62.5,-36.91 62.5,-26.78 62.5,-19.75"/>
<polygon fill="midnightblue" stroke="midnightblue" points="59,-46.08 62.5,-56.08 66,-46.08 59,-46.08"/>
</g>
</g>
</svg>
