<?xml version="1.0" encoding="UTF-8" standalone="no"?>
<!DOCTYPE svg PUBLIC "-//W3C//DTD SVG 1.1//EN"
 "http://www.w3.org/Graphics/SVG/1.1/DTD/svg11.dtd">
<!-- Generated by graphviz version 2.43.0 (0)
 -->
<!-- Title: bio/meta/pod_tuple.hpp Pages: 1 -->
<svg width="427pt" height="553pt"
 viewBox="0.00 0.00 426.50 553.00" xmlns="http://www.w3.org/2000/svg" xmlns:xlink="http://www.w3.org/1999/xlink">
<g id="graph0" class="graph" transform="scale(1 1) rotate(0) translate(4 549)">
<title>bio/meta/pod_tuple.hpp</title>
<polygon fill="white" stroke="transparent" points="-4,4 -4,-549 422.5,-549 422.5,4 -4,4"/>
<!-- Node1 -->
<g id="node1" class="node">
<title>Node1</title>
<g id="a_node1"><a xlink:title="Provides bio::meta::pod_tuple.">
<polygon fill="#bfbfbf" stroke="black" points="27.5,-525.5 27.5,-544.5 159.5,-544.5 159.5,-525.5 27.5,-525.5"/>
<text text-anchor="middle" x="93.5" y="-532.5" font-family="Helvetica,sans-Serif" font-size="10.00">bio/meta/pod_tuple.hpp</text>
</a>
</g>
</g>
<!-- Node2 -->
<g id="node2" class="node">
<title>Node2</title>
<g id="a_node2"><a target="_blank" xlink:href="https://en.cppreference.com/w/cpp/header/tuple.html" xlink:title=" ">
<polygon fill="white" stroke="black" points="0,-464 0,-483 41,-483 41,-464 0,-464"/>
<text text-anchor="middle" x="20.5" y="-471" font-family="Helvetica,sans-Serif" font-size="10.00">tuple</text>
</a>
</g>
</g>
<!-- Node1&#45;&gt;Node2 -->
<g id="edge1" class="edge">
<title>Node1&#45;&gt;Node2</title>
<path fill="none" stroke="midnightblue" d="M83.04,-525.48C71.55,-516.11 52.87,-500.88 38.91,-489.51"/>
<polygon fill="midnightblue" stroke="midnightblue" points="40.9,-486.61 30.94,-483.01 36.48,-492.04 40.9,-486.61"/>
</g>
<!-- Node3 -->
<g id="node3" class="node">
<title>Node3</title>
<g id="a_node3"><a xlink:title=" ">
<polygon fill="white" stroke="#bfbfbf" points="59,-464 59,-483 128,-483 128,-464 59,-464"/>
<text text-anchor="middle" x="93.5" y="-471" font-family="Helvetica,sans-Serif" font-size="10.00">type_traits</text>
</a>
</g>
</g>
<!-- Node1&#45;&gt;Node3 -->
<g id="edge2" class="edge">
<title>Node1&#45;&gt;Node3</title>
<path fill="none" stroke="midnightblue" d="M93.5,-525.48C93.5,-517.08 93.5,-503.98 93.5,-493.16"/>
<polygon fill="midnightblue" stroke="midnightblue" points="97,-493.01 93.5,-483.01 90,-493.01 97,-493.01"/>
</g>
<!-- Node4 -->
<g id="node4" class="node">
<title>Node4</title>
<g id="a_node4"><a xlink:href="traits_8hpp.html" target="_top" xlink:title="Provides traits for meta::type_list.">
<polygon fill="white" stroke="black" points="146,-458.5 146,-488.5 251,-488.5 251,-458.5 146,-458.5"/>
<text text-anchor="start" x="154" y="-476.5" font-family="Helvetica,sans-Serif" font-size="10.00">bio/meta/type_list</text>
<text text-anchor="middle" x="198.5" y="-465.5" font-family="Helvetica,sans-Serif" font-size="10.00">/traits.hpp</text>
</a>
</g>
</g>
<!-- Node1&#45;&gt;Node4 -->
<g id="edge3" class="edge">
<title>Node1&#45;&gt;Node4</title>
<path fill="none" stroke="midnightblue" d="M108.54,-525.48C123.16,-517.19 145.87,-504.32 164.81,-493.59"/>
<polygon fill="midnightblue" stroke="midnightblue" points="166.78,-496.5 173.75,-488.52 163.33,-490.41 166.78,-496.5"/>
</g>
<!-- Node5 -->
<g id="node5" class="node">
<title>Node5</title>
<g id="a_node5"><a target="_blank" xlink:href="https://en.cppreference.com/w/cpp/header/type_traits.html" xlink:title=" ">
<polygon fill="white" stroke="black" points="141,-56.5 141,-75.5 210,-75.5 210,-56.5 141,-56.5"/>
<text text-anchor="middle" x="175.5" y="-63.5" font-family="Helvetica,sans-Serif" font-size="10.00">type_traits</text>
</a>
</g>
</g>
<!-- Node4&#45;&gt;Node5 -->
<g id="edge4" class="edge">
<title>Node4&#45;&gt;Node5</title>
<path fill="none" stroke="midnightblue" d="M175.37,-458.43C162.33,-449.45 146.66,-436.74 136.5,-422 114.84,-390.58 109.5,-378.66 109.5,-340.5 109.5,-340.5 109.5,-340.5 109.5,-199 109.5,-153.13 141.77,-106.87 161.18,-83.19"/>
<polygon fill="midnightblue" stroke="midnightblue" points="163.88,-85.42 167.67,-75.53 158.54,-80.9 163.88,-85.42"/>
</g>
<!-- Node6 -->
<g id="node6" class="node">
<title>Node6</title>
<g id="a_node6"><a xlink:href="traits__detail_8hpp.html" target="_top" xlink:title="Provides various traits for template packs.">
<polygon fill="white" stroke="black" points="146,-391.5 146,-421.5 251,-421.5 251,-391.5 146,-391.5"/>
<text text-anchor="start" x="154" y="-409.5" font-family="Helvetica,sans-Serif" font-size="10.00">bio/meta/type_list</text>
<text text-anchor="middle" x="198.5" y="-398.5" font-family="Helvetica,sans-Serif" font-size="10.00">/traits_detail.hpp</text>
</a>
</g>
</g>
<!-- Node4&#45;&gt;Node6 -->
<g id="edge5" class="edge">
<title>Node4&#45;&gt;Node6</title>
<path fill="none" stroke="midnightblue" d="M198.5,-458.4C198.5,-450.64 198.5,-440.81 198.5,-431.86"/>
<polygon fill="midnightblue" stroke="midnightblue" points="202,-431.58 198.5,-421.58 195,-431.58 202,-431.58"/>
</g>
<!-- Node8 -->
<g id="node8" class="node">
<title>Node8</title>
<g id="a_node8"><a xlink:href="type__list_8hpp.html" target="_top" xlink:title="Provides bio::meta::type_list.">
<polygon fill="white" stroke="black" points="239,-324.5 239,-354.5 344,-354.5 344,-324.5 239,-324.5"/>
<text text-anchor="start" x="247" y="-342.5" font-family="Helvetica,sans-Serif" font-size="10.00">bio/meta/type_list</text>
<text text-anchor="middle" x="291.5" y="-331.5" font-family="Helvetica,sans-Serif" font-size="10.00">/type_list.hpp</text>
</a>
</g>
</g>
<!-- Node4&#45;&gt;Node8 -->
<g id="edge20" class="edge">
<title>Node4&#45;&gt;Node8</title>
<path fill="none" stroke="midnightblue" d="M221.1,-458.48C234.11,-449.43 249.94,-436.63 260.5,-422 273.05,-404.62 281.2,-381.53 285.98,-364.36"/>
<polygon fill="midnightblue" stroke="midnightblue" points="289.4,-365.11 288.53,-354.55 282.63,-363.35 289.4,-365.11"/>
</g>
<!-- Node6&#45;&gt;Node5 -->
<g id="edge6" class="edge">
<title>Node6&#45;&gt;Node5</title>
<path fill="none" stroke="midnightblue" d="M187.6,-391.2C180.65,-381.46 171.96,-368.02 166.5,-355 152.12,-320.7 147.5,-310.69 147.5,-273.5 147.5,-273.5 147.5,-273.5 147.5,-199 147.5,-157.57 160.86,-110.4 169.12,-85.18"/>
<polygon fill="midnightblue" stroke="midnightblue" points="172.5,-86.11 172.4,-75.52 165.87,-83.86 172.5,-86.11"/>
</g>
<!-- Node7 -->
<g id="node7" class="node">
<title>Node7</title>
<g id="a_node7"><a target="_blank" xlink:href="https://en.cppreference.com/w/cpp/header/utility.html" xlink:title=" ">
<polygon fill="white" stroke="black" points="176,-330 176,-349 221,-349 221,-330 176,-330"/>
<text text-anchor="middle" x="198.5" y="-337" font-family="Helvetica,sans-Serif" font-size="10.00">utility</text>
</a>
</g>
</g>
<!-- Node6&#45;&gt;Node7 -->
<g id="edge7" class="edge">
<title>Node6&#45;&gt;Node7</title>
<path fill="none" stroke="midnightblue" d="M198.5,-391.4C198.5,-382.06 198.5,-369.71 198.5,-359.52"/>
<polygon fill="midnightblue" stroke="midnightblue" points="202,-359.19 198.5,-349.19 195,-359.19 202,-359.19"/>
</g>
<!-- Node6&#45;&gt;Node8 -->
<g id="edge8" class="edge">
<title>Node6&#45;&gt;Node8</title>
<path fill="none" stroke="midnightblue" d="M218.68,-391.4C231.6,-382.37 248.56,-370.51 262.86,-360.52"/>
<polygon fill="midnightblue" stroke="midnightblue" points="265.17,-363.17 271.36,-354.58 261.16,-357.44 265.17,-363.17"/>
</g>
<!-- Node9 -->
<g id="node9" class="node">
<title>Node9</title>
<g id="a_node9"><a xlink:href="template__inspection_8hpp.html" target="_top" xlink:title="Provides various traits to inspect templates.">
<polygon fill="white" stroke="black" points="221.5,-257.5 221.5,-287.5 361.5,-287.5 361.5,-257.5 221.5,-257.5"/>
<text text-anchor="start" x="229.5" y="-275.5" font-family="Helvetica,sans-Serif" font-size="10.00">bio/meta/type_traits</text>
<text text-anchor="middle" x="291.5" y="-264.5" font-family="Helvetica,sans-Serif" font-size="10.00">/template_inspection.hpp</text>
</a>
</g>
</g>
<!-- Node8&#45;&gt;Node9 -->
<g id="edge9" class="edge">
<title>Node8&#45;&gt;Node9</title>
<path fill="none" stroke="midnightblue" d="M291.5,-324.4C291.5,-316.64 291.5,-306.81 291.5,-297.86"/>
<polygon fill="midnightblue" stroke="midnightblue" points="295,-297.58 291.5,-287.58 288,-297.58 295,-297.58"/>
</g>
<!-- Node10 -->
<g id="node10" class="node">
<title>Node10</title>
<g id="a_node10"><a target="_blank" xlink:href="https://en.cppreference.com/w/cpp/header/concepts.html" xlink:title=" ">
<polygon fill="white" stroke="black" points="175.5,-190.5 175.5,-209.5 235.5,-209.5 235.5,-190.5 175.5,-190.5"/>
<text text-anchor="middle" x="205.5" y="-197.5" font-family="Helvetica,sans-Serif" font-size="10.00">concepts</text>
</a>
</g>
</g>
<!-- Node9&#45;&gt;Node10 -->
<g id="edge10" class="edge">
<title>Node9&#45;&gt;Node10</title>
<path fill="none" stroke="midnightblue" d="M274.1,-257.23C259.65,-245.39 239.16,-228.59 224.33,-216.44"/>
<polygon fill="midnightblue" stroke="midnightblue" points="226.3,-213.53 216.35,-209.89 221.86,-218.94 226.3,-213.53"/>
</g>
<!-- Node11 -->
<g id="node11" class="node">
<title>Node11</title>
<g id="a_node11"><a xlink:href="transformation__trait__or_8hpp.html" target="_top" xlink:title="Provides bio::meta::transformation_trait_or.">
<polygon fill="white" stroke="black" points="253.5,-179.5 253.5,-220.5 371.5,-220.5 371.5,-179.5 253.5,-179.5"/>
<text text-anchor="start" x="261.5" y="-208.5" font-family="Helvetica,sans-Serif" font-size="10.00">bio/meta/type_traits</text>
<text text-anchor="start" x="261.5" y="-197.5" font-family="Helvetica,sans-Serif" font-size="10.00">/transformation_trait</text>
<text text-anchor="middle" x="312.5" y="-186.5" font-family="Helvetica,sans-Serif" font-size="10.00">_or.hpp</text>
</a>
</g>
</g>
<!-- Node9&#45;&gt;Node11 -->
<g id="edge11" class="edge">
<title>Node9&#45;&gt;Node11</title>
<path fill="none" stroke="midnightblue" d="M295.75,-257.23C298.06,-249.49 300.99,-239.63 303.76,-230.33"/>
<polygon fill="midnightblue" stroke="midnightblue" points="307.16,-231.17 306.67,-220.59 300.46,-229.17 307.16,-231.17"/>
</g>
<!-- Node11&#45;&gt;Node5 -->
<g id="edge12" class="edge">
<title>Node11&#45;&gt;Node5</title>
<path fill="none" stroke="midnightblue" d="M275.39,-179.33C259.27,-169.71 240.83,-157.14 226.5,-143 208.89,-125.63 193.83,-101.28 184.74,-84.86"/>
<polygon fill="midnightblue" stroke="midnightblue" points="187.69,-82.96 179.88,-75.8 181.52,-86.26 187.69,-82.96"/>
</g>
<!-- Node12 -->
<g id="node12" class="node">
<title>Node12</title>
<g id="a_node12"><a xlink:href="meta_2type__traits_2concept_8hpp.html" target="_top" xlink:title="Provides the concepts bio::meta::transformation_trait and bio::meta::unary_type_trait.">
<polygon fill="white" stroke="black" points="235.5,-112.5 235.5,-142.5 351.5,-142.5 351.5,-112.5 235.5,-112.5"/>
<text text-anchor="start" x="243.5" y="-130.5" font-family="Helvetica,sans-Serif" font-size="10.00">bio/meta/type_traits</text>
<text text-anchor="middle" x="293.5" y="-119.5" font-family="Helvetica,sans-Serif" font-size="10.00">/concept.hpp</text>
</a>
</g>
</g>
<!-- Node11&#45;&gt;Node12 -->
<g id="edge13" class="edge">
<title>Node11&#45;&gt;Node12</title>
<path fill="none" stroke="midnightblue" d="M307.21,-179.36C304.99,-171.14 302.39,-161.49 300.05,-152.82"/>
<polygon fill="midnightblue" stroke="midnightblue" points="303.36,-151.64 297.38,-142.89 296.6,-153.46 303.36,-151.64"/>
</g>
<!-- Node12&#45;&gt;Node5 -->
<g id="edge14" class="edge">
<title>Node12&#45;&gt;Node5</title>
<path fill="none" stroke="midnightblue" d="M265.54,-112.4C246.18,-102.64 220.59,-89.74 201.64,-80.18"/>
<polygon fill="midnightblue" stroke="midnightblue" points="203.17,-77.04 192.67,-75.66 200.02,-83.29 203.17,-77.04"/>
</g>
<!-- Node13 -->
<g id="node13" class="node">
<title>Node13</title>
<g id="a_node13"><a xlink:href="core_8hpp.html" target="_top" xlink:title="Provides platform and dependency checks.">
<polygon fill="white" stroke="black" points="255,-56.5 255,-75.5 332,-75.5 332,-56.5 255,-56.5"/>
<text text-anchor="middle" x="293.5" y="-63.5" font-family="Helvetica,sans-Serif" font-size="10.00">bio/core.hpp</text>
</a>
</g>
</g>
<!-- Node12&#45;&gt;Node13 -->
<g id="edge15" class="edge">
<title>Node12&#45;&gt;Node13</title>
<path fill="none" stroke="midnightblue" d="M293.5,-112.4C293.5,-104.47 293.5,-94.46 293.5,-85.86"/>
<polygon fill="midnightblue" stroke="midnightblue" points="297,-85.66 293.5,-75.66 290,-85.66 297,-85.66"/>
</g>
<!-- Node14 -->
<g id="node14" class="node">
<title>Node14</title>
<g id="a_node14"><a target="_blank" xlink:href="https://en.cppreference.com/w/cpp/header/cinttypes.html" xlink:title=" ">
<polygon fill="white" stroke="black" points="150.5,-0.5 150.5,-19.5 212.5,-19.5 212.5,-0.5 150.5,-0.5"/>
<text text-anchor="middle" x="181.5" y="-7.5" font-family="Helvetica,sans-Serif" font-size="10.00">cinttypes</text>
</a>
</g>
</g>
<!-- Node13&#45;&gt;Node14 -->
<g id="edge16" class="edge">
<title>Node13&#45;&gt;Node14</title>
<path fill="none" stroke="midnightblue" d="M275.51,-56.32C257.46,-47.62 229.45,-34.12 208.7,-24.11"/>
<polygon fill="midnightblue" stroke="midnightblue" points="209.98,-20.84 199.45,-19.65 206.94,-27.15 209.98,-20.84"/>
</g>
<!-- Node15 -->
<g id="node15" class="node">
<title>Node15</title>
<g id="a_node15"><a target="_blank" xlink:href="https://en.cppreference.com/w/cpp/header/ciso646.html" xlink:title=" ">
<polygon fill="white" stroke="black" points="230.5,-0.5 230.5,-19.5 284.5,-19.5 284.5,-0.5 230.5,-0.5"/>
<text text-anchor="middle" x="257.5" y="-7.5" font-family="Helvetica,sans-Serif" font-size="10.00">ciso646</text>
</a>
</g>
</g>
<!-- Node13&#45;&gt;Node15 -->
<g id="edge17" class="edge">
<title>Node13&#45;&gt;Node15</title>
<path fill="none" stroke="midnightblue" d="M287.56,-56.08C282.52,-48.53 275.16,-37.49 268.99,-28.23"/>
<polygon fill="midnightblue" stroke="midnightblue" points="271.79,-26.13 263.33,-19.75 265.97,-30.01 271.79,-26.13"/>
</g>
<!-- Node16 -->
<g id="node16" class="node">
<title>Node16</title>
<g id="a_node16"><a target="_blank" xlink:href="https://en.cppreference.com/w/cpp/header/cstddef.html" xlink:title=" ">
<polygon fill="white" stroke="black" points="303,-0.5 303,-19.5 356,-19.5 356,-0.5 303,-0.5"/>
<text text-anchor="middle" x="329.5" y="-7.5" font-family="Helvetica,sans-Serif" font-size="10.00">cstddef</text>
</a>
</g>
</g>
<!-- Node13&#45;&gt;Node16 -->
<g id="edge18" class="edge">
<title>Node13&#45;&gt;Node16</title>
<path fill="none" stroke="midnightblue" d="M299.44,-56.08C304.48,-48.53 311.84,-37.49 318.01,-28.23"/>
<polygon fill="midnightblue" stroke="midnightblue" points="321.03,-30.01 323.67,-19.75 315.21,-26.13 321.03,-30.01"/>
</g>
<!-- Node17 -->
<g id="node17" class="node">
<title>Node17</title>
<g id="a_node17"><a target="_blank" xlink:href="https://en.cppreference.com/w/cpp/header/string.html" xlink:title=" ">
<polygon fill="white" stroke="black" points="374.5,-0.5 374.5,-19.5 418.5,-19.5 418.5,-0.5 374.5,-0.5"/>
<text text-anchor="middle" x="396.5" y="-7.5" font-family="Helvetica,sans-Serif" font-size="10.00">string</text>
</a>
</g>
</g>
<!-- Node13&#45;&gt;Node17 -->
<g id="edge19" class="edge">
<title>Node13&#45;&gt;Node17</title>
<path fill="none" stroke="midnightblue" d="M310.05,-56.32C326.49,-47.7 351.93,-34.36 370.97,-24.39"/>
<polygon fill="midnightblue" stroke="midnightblue" points="372.76,-27.4 379.99,-19.65 369.51,-21.2 372.76,-27.4"/>
</g>
</g>
</svg>
