<?xml version="1.0" encoding="UTF-8" standalone="no"?>
<!DOCTYPE svg PUBLIC "-//W3C//DTD SVG 1.1//EN"
 "http://www.w3.org/Graphics/SVG/1.1/DTD/svg11.dtd">
<!-- Generated by graphviz version 2.43.0 (0)
 -->
<!-- Title: bio/meta/pod_tuple.hpp Pages: 1 -->
<svg width="455pt" height="553pt"
 viewBox="0.00 0.00 454.50 553.00" xmlns="http://www.w3.org/2000/svg" xmlns:xlink="http://www.w3.org/1999/xlink">
<g id="graph0" class="graph" transform="scale(1 1) rotate(0) translate(4 549)">
<title>bio/meta/pod_tuple.hpp</title>
<polygon fill="white" stroke="transparent" points="-4,4 -4,-549 450.5,-549 450.5,4 -4,4"/>
<!-- Node1 -->
<g id="node1" class="node">
<title>Node1</title>
<g id="a_node1"><a xlink:title="Provides bio::meta::pod_tuple.">
<polygon fill="#bfbfbf" stroke="black" points="58.5,-525.5 58.5,-544.5 190.5,-544.5 190.5,-525.5 58.5,-525.5"/>
<text text-anchor="middle" x="124.5" y="-532.5" font-family="Helvetica,sans-Serif" font-size="10.00">bio/meta/pod_tuple.hpp</text>
</a>
</g>
</g>
<!-- Node2 -->
<g id="node2" class="node">
<title>Node2</title>
<g id="a_node2"><a target="_blank" xlink:href="https://en.cppreference.com/w/cpp/header/tuple.html" xlink:title=" ">
<polygon fill="white" stroke="black" points="0,-464 0,-483 41,-483 41,-464 0,-464"/>
<text text-anchor="middle" x="20.5" y="-471" font-family="Helvetica,sans-Serif" font-size="10.00">tuple</text>
</a>
</g>
</g>
<!-- Node1&#45;&gt;Node2 -->
<g id="edge1" class="edge">
<title>Node1&#45;&gt;Node2</title>
<path fill="none" stroke="midnightblue" d="M109.6,-525.48C92.53,-515.71 64.34,-499.58 44.24,-488.08"/>
<polygon fill="midnightblue" stroke="midnightblue" points="45.79,-484.94 35.37,-483.01 42.31,-491.01 45.79,-484.94"/>
</g>
<!-- Node3 -->
<g id="node3" class="node">
<title>Node3</title>
<g id="a_node3"><a xlink:title=" ">
<polygon fill="white" stroke="#bfbfbf" points="59,-464 59,-483 128,-483 128,-464 59,-464"/>
<text text-anchor="middle" x="93.5" y="-471" font-family="Helvetica,sans-Serif" font-size="10.00">type_traits</text>
</a>
</g>
</g>
<!-- Node1&#45;&gt;Node3 -->
<g id="edge2" class="edge">
<title>Node1&#45;&gt;Node3</title>
<path fill="none" stroke="midnightblue" d="M120.06,-525.48C115.55,-516.82 108.43,-503.15 102.69,-492.15"/>
<polygon fill="midnightblue" stroke="midnightblue" points="105.66,-490.26 97.93,-483.01 99.45,-493.49 105.66,-490.26"/>
</g>
<!-- Node4 -->
<g id="node4" class="node">
<title>Node4</title>
<g id="a_node4"><a xlink:href="platform_8hpp.html" target="_top" xlink:title="Provides platform and dependency checks.">
<polygon fill="white" stroke="black" points="154.5,-56.5 154.5,-75.5 280.5,-75.5 280.5,-56.5 154.5,-56.5"/>
<text text-anchor="middle" x="217.5" y="-63.5" font-family="Helvetica,sans-Serif" font-size="10.00">bio/meta/platform.hpp</text>
</a>
</g>
</g>
<!-- Node1&#45;&gt;Node4 -->
<g id="edge3" class="edge">
<title>Node1&#45;&gt;Node4</title>
<path fill="none" stroke="midnightblue" d="M128.3,-525.3C136.77,-505.05 156.5,-453.03 156.5,-407.5 156.5,-407.5 156.5,-407.5 156.5,-199 156.5,-159.32 158.09,-147.15 176.5,-112 182.3,-100.93 191.48,-90.49 199.69,-82.46"/>
<polygon fill="midnightblue" stroke="midnightblue" points="202.18,-84.92 207.12,-75.55 197.41,-79.79 202.18,-84.92"/>
</g>
<!-- Node8 -->
<g id="node8" class="node">
<title>Node8</title>
<g id="a_node8"><a xlink:href="traits_8hpp.html" target="_top" xlink:title="Provides traits for meta::type_list.">
<polygon fill="white" stroke="black" points="261,-458.5 261,-488.5 366,-488.5 366,-458.5 261,-458.5"/>
<text text-anchor="start" x="269" y="-476.5" font-family="Helvetica,sans-Serif" font-size="10.00">bio/meta/type_list</text>
<text text-anchor="middle" x="313.5" y="-465.5" font-family="Helvetica,sans-Serif" font-size="10.00">/traits.hpp</text>
</a>
</g>
</g>
<!-- Node1&#45;&gt;Node8 -->
<g id="edge7" class="edge">
<title>Node1&#45;&gt;Node8</title>
<path fill="none" stroke="midnightblue" d="M151.58,-525.48C179.57,-516.66 224.02,-502.67 259.28,-491.57"/>
<polygon fill="midnightblue" stroke="midnightblue" points="260.47,-494.86 268.96,-488.52 258.37,-488.19 260.47,-494.86"/>
</g>
<!-- Node5 -->
<g id="node5" class="node">
<title>Node5</title>
<g id="a_node5"><a target="_blank" xlink:href="https://en.cppreference.com/w/cpp/header/cinttypes.html" xlink:title=" ">
<polygon fill="white" stroke="black" points="110.5,-0.5 110.5,-19.5 172.5,-19.5 172.5,-0.5 110.5,-0.5"/>
<text text-anchor="middle" x="141.5" y="-7.5" font-family="Helvetica,sans-Serif" font-size="10.00">cinttypes</text>
</a>
</g>
</g>
<!-- Node4&#45;&gt;Node5 -->
<g id="edge4" class="edge">
<title>Node4&#45;&gt;Node5</title>
<path fill="none" stroke="midnightblue" d="M205.29,-56.32C193.72,-48.11 176.12,-35.6 162.34,-25.81"/>
<polygon fill="midnightblue" stroke="midnightblue" points="164.11,-22.77 153.93,-19.83 160.06,-28.48 164.11,-22.77"/>
</g>
<!-- Node6 -->
<g id="node6" class="node">
<title>Node6</title>
<g id="a_node6"><a target="_blank" xlink:href="https://en.cppreference.com/w/cpp/header/ciso646.html" xlink:title=" ">
<polygon fill="white" stroke="black" points="190.5,-0.5 190.5,-19.5 244.5,-19.5 244.5,-0.5 190.5,-0.5"/>
<text text-anchor="middle" x="217.5" y="-7.5" font-family="Helvetica,sans-Serif" font-size="10.00">ciso646</text>
</a>
</g>
</g>
<!-- Node4&#45;&gt;Node6 -->
<g id="edge5" class="edge">
<title>Node4&#45;&gt;Node6</title>
<path fill="none" stroke="midnightblue" d="M217.5,-56.08C217.5,-49.01 217.5,-38.86 217.5,-29.99"/>
<polygon fill="midnightblue" stroke="midnightblue" points="221,-29.75 217.5,-19.75 214,-29.75 221,-29.75"/>
</g>
<!-- Node7 -->
<g id="node7" class="node">
<title>Node7</title>
<g id="a_node7"><a target="_blank" xlink:href="https://en.cppreference.com/w/cpp/header/cstddef.html" xlink:title=" ">
<polygon fill="white" stroke="black" points="263,-0.5 263,-19.5 316,-19.5 316,-0.5 263,-0.5"/>
<text text-anchor="middle" x="289.5" y="-7.5" font-family="Helvetica,sans-Serif" font-size="10.00">cstddef</text>
</a>
</g>
</g>
<!-- Node4&#45;&gt;Node7 -->
<g id="edge6" class="edge">
<title>Node4&#45;&gt;Node7</title>
<path fill="none" stroke="midnightblue" d="M229.07,-56.32C239.92,-48.18 256.38,-35.84 269.38,-26.09"/>
<polygon fill="midnightblue" stroke="midnightblue" points="271.82,-28.63 277.72,-19.83 267.62,-23.03 271.82,-28.63"/>
</g>
<!-- Node9 -->
<g id="node9" class="node">
<title>Node9</title>
<g id="a_node9"><a target="_blank" xlink:href="https://en.cppreference.com/w/cpp/header/type_traits.html" xlink:title=" ">
<polygon fill="white" stroke="black" points="335,-56.5 335,-75.5 404,-75.5 404,-56.5 335,-56.5"/>
<text text-anchor="middle" x="369.5" y="-63.5" font-family="Helvetica,sans-Serif" font-size="10.00">type_traits</text>
</a>
</g>
</g>
<!-- Node8&#45;&gt;Node9 -->
<g id="edge8" class="edge">
<title>Node8&#45;&gt;Node9</title>
<path fill="none" stroke="midnightblue" d="M357.05,-458.5C376.45,-450.42 398.29,-438.53 413.5,-422 439.96,-393.25 446.5,-379.58 446.5,-340.5 446.5,-340.5 446.5,-340.5 446.5,-199 446.5,-151.53 408.89,-105.94 386.24,-82.79"/>
<polygon fill="midnightblue" stroke="midnightblue" points="388.51,-80.11 378.94,-75.57 383.59,-85.09 388.51,-80.11"/>
</g>
<!-- Node10 -->
<g id="node10" class="node">
<title>Node10</title>
<g id="a_node10"><a xlink:href="traits__detail_8hpp.html" target="_top" xlink:title="Provides various traits for template packs.">
<polygon fill="white" stroke="black" points="299,-391.5 299,-421.5 404,-421.5 404,-391.5 299,-391.5"/>
<text text-anchor="start" x="307" y="-409.5" font-family="Helvetica,sans-Serif" font-size="10.00">bio/meta/type_list</text>
<text text-anchor="middle" x="351.5" y="-398.5" font-family="Helvetica,sans-Serif" font-size="10.00">/traits_detail.hpp</text>
</a>
</g>
</g>
<!-- Node8&#45;&gt;Node10 -->
<g id="edge9" class="edge">
<title>Node8&#45;&gt;Node10</title>
<path fill="none" stroke="midnightblue" d="M321.75,-458.4C326.53,-450.22 332.66,-439.73 338.12,-430.39"/>
<polygon fill="midnightblue" stroke="midnightblue" points="341.25,-431.98 343.27,-421.58 335.2,-428.44 341.25,-431.98"/>
</g>
<!-- Node12 -->
<g id="node12" class="node">
<title>Node12</title>
<g id="a_node12"><a xlink:href="type__list_8hpp.html" target="_top" xlink:title="Provides bio::meta::type_list.">
<polygon fill="white" stroke="black" points="212,-324.5 212,-354.5 317,-354.5 317,-324.5 212,-324.5"/>
<text text-anchor="start" x="220" y="-342.5" font-family="Helvetica,sans-Serif" font-size="10.00">bio/meta/type_list</text>
<text text-anchor="middle" x="264.5" y="-331.5" font-family="Helvetica,sans-Serif" font-size="10.00">/type_list.hpp</text>
</a>
</g>
</g>
<!-- Node8&#45;&gt;Node12 -->
<g id="edge20" class="edge">
<title>Node8&#45;&gt;Node12</title>
<path fill="none" stroke="midnightblue" d="M306,-458.16C300.95,-448.19 294.35,-434.49 289.5,-422 282.11,-402.99 275.43,-380.83 270.84,-364.42"/>
<polygon fill="midnightblue" stroke="midnightblue" points="274.16,-363.27 268.14,-354.55 267.41,-365.12 274.16,-363.27"/>
</g>
<!-- Node10&#45;&gt;Node9 -->
<g id="edge10" class="edge">
<title>Node10&#45;&gt;Node9</title>
<path fill="none" stroke="midnightblue" d="M364.92,-391.1C373.16,-381.53 383.28,-368.32 389.5,-355 405.24,-321.3 408.5,-310.69 408.5,-273.5 408.5,-273.5 408.5,-273.5 408.5,-199 408.5,-156.76 389.91,-109.93 378.4,-84.98"/>
<polygon fill="midnightblue" stroke="midnightblue" points="381.44,-83.22 373.97,-75.7 375.12,-86.23 381.44,-83.22"/>
</g>
<!-- Node11 -->
<g id="node11" class="node">
<title>Node11</title>
<g id="a_node11"><a target="_blank" xlink:href="https://en.cppreference.com/w/cpp/header/utility.html" xlink:title=" ">
<polygon fill="white" stroke="black" points="335,-330 335,-349 380,-349 380,-330 335,-330"/>
<text text-anchor="middle" x="357.5" y="-337" font-family="Helvetica,sans-Serif" font-size="10.00">utility</text>
</a>
</g>
</g>
<!-- Node10&#45;&gt;Node11 -->
<g id="edge11" class="edge">
<title>Node10&#45;&gt;Node11</title>
<path fill="none" stroke="midnightblue" d="M352.8,-391.4C353.67,-381.96 354.83,-369.45 355.77,-359.19"/>
<polygon fill="midnightblue" stroke="midnightblue" points="359.26,-359.47 356.7,-349.19 352.29,-358.83 359.26,-359.47"/>
</g>
<!-- Node10&#45;&gt;Node12 -->
<g id="edge12" class="edge">
<title>Node10&#45;&gt;Node12</title>
<path fill="none" stroke="midnightblue" d="M332.62,-391.4C320.65,-382.45 304.97,-370.74 291.67,-360.8"/>
<polygon fill="midnightblue" stroke="midnightblue" points="293.45,-357.76 283.34,-354.58 289.26,-363.37 293.45,-357.76"/>
</g>
<!-- Node13 -->
<g id="node13" class="node">
<title>Node13</title>
<g id="a_node13"><a xlink:href="template__inspection_8hpp.html" target="_top" xlink:title="Provides various traits to inspect templates.">
<polygon fill="white" stroke="black" points="194.5,-257.5 194.5,-287.5 334.5,-287.5 334.5,-257.5 194.5,-257.5"/>
<text text-anchor="start" x="202.5" y="-275.5" font-family="Helvetica,sans-Serif" font-size="10.00">bio/meta/type_traits</text>
<text text-anchor="middle" x="264.5" y="-264.5" font-family="Helvetica,sans-Serif" font-size="10.00">/template_inspection.hpp</text>
</a>
</g>
</g>
<!-- Node12&#45;&gt;Node13 -->
<g id="edge13" class="edge">
<title>Node12&#45;&gt;Node13</title>
<path fill="none" stroke="midnightblue" d="M264.5,-324.4C264.5,-316.64 264.5,-306.81 264.5,-297.86"/>
<polygon fill="midnightblue" stroke="midnightblue" points="268,-297.58 264.5,-287.58 261,-297.58 268,-297.58"/>
</g>
<!-- Node14 -->
<g id="node14" class="node">
<title>Node14</title>
<g id="a_node14"><a xlink:href="transformation__trait__or_8hpp.html" target="_top" xlink:title="Provides bio::meta::transformation_trait_or.">
<polygon fill="white" stroke="black" points="184.5,-179.5 184.5,-220.5 302.5,-220.5 302.5,-179.5 184.5,-179.5"/>
<text text-anchor="start" x="192.5" y="-208.5" font-family="Helvetica,sans-Serif" font-size="10.00">bio/meta/type_traits</text>
<text text-anchor="start" x="192.5" y="-197.5" font-family="Helvetica,sans-Serif" font-size="10.00">/transformation_trait</text>
<text text-anchor="middle" x="243.5" y="-186.5" font-family="Helvetica,sans-Serif" font-size="10.00">_or.hpp</text>
</a>
</g>
</g>
<!-- Node13&#45;&gt;Node14 -->
<g id="edge14" class="edge">
<title>Node13&#45;&gt;Node14</title>
<path fill="none" stroke="midnightblue" d="M260.25,-257.23C257.94,-249.49 255.01,-239.63 252.24,-230.33"/>
<polygon fill="midnightblue" stroke="midnightblue" points="255.54,-229.17 249.33,-220.59 248.84,-231.17 255.54,-229.17"/>
</g>
<!-- Node16 -->
<g id="node16" class="node">
<title>Node16</title>
<g id="a_node16"><a target="_blank" xlink:href="https://en.cppreference.com/w/cpp/header/concepts.html" xlink:title=" ">
<polygon fill="white" stroke="black" points="320.5,-190.5 320.5,-209.5 380.5,-209.5 380.5,-190.5 320.5,-190.5"/>
<text text-anchor="middle" x="350.5" y="-197.5" font-family="Helvetica,sans-Serif" font-size="10.00">concepts</text>
</a>
</g>
</g>
<!-- Node13&#45;&gt;Node16 -->
<g id="edge19" class="edge">
<title>Node13&#45;&gt;Node16</title>
<path fill="none" stroke="midnightblue" d="M281.9,-257.23C296.35,-245.39 316.84,-228.59 331.67,-216.44"/>
<polygon fill="midnightblue" stroke="midnightblue" points="334.14,-218.94 339.65,-209.89 329.7,-213.53 334.14,-218.94"/>
</g>
<!-- Node14&#45;&gt;Node9 -->
<g id="edge15" class="edge">
<title>Node14&#45;&gt;Node9</title>
<path fill="none" stroke="midnightblue" d="M269.44,-179.46C282.36,-169.22 297.87,-156.09 310.5,-143 328.53,-124.31 346.42,-100.29 357.69,-84.3"/>
<polygon fill="midnightblue" stroke="midnightblue" points="360.69,-86.13 363.52,-75.92 354.94,-82.14 360.69,-86.13"/>
</g>
<!-- Node15 -->
<g id="node15" class="node">
<title>Node15</title>
<g id="a_node15"><a xlink:href="meta_2type__traits_2concept_8hpp.html" target="_top" xlink:title="Provides the concepts bio::meta::transformation_trait and bio::meta::unary_type_trait.">
<polygon fill="white" stroke="black" points="185.5,-112.5 185.5,-142.5 301.5,-142.5 301.5,-112.5 185.5,-112.5"/>
<text text-anchor="start" x="193.5" y="-130.5" font-family="Helvetica,sans-Serif" font-size="10.00">bio/meta/type_traits</text>
<text text-anchor="middle" x="243.5" y="-119.5" font-family="Helvetica,sans-Serif" font-size="10.00">/concept.hpp</text>
</a>
</g>
</g>
<!-- Node14&#45;&gt;Node15 -->
<g id="edge16" class="edge">
<title>Node14&#45;&gt;Node15</title>
<path fill="none" stroke="midnightblue" d="M243.5,-179.36C243.5,-171.23 243.5,-161.7 243.5,-153.11"/>
<polygon fill="midnightblue" stroke="midnightblue" points="247,-152.89 243.5,-142.89 240,-152.89 247,-152.89"/>
</g>
<!-- Node15&#45;&gt;Node4 -->
<g id="edge18" class="edge">
<title>Node15&#45;&gt;Node4</title>
<path fill="none" stroke="midnightblue" d="M237.34,-112.4C233.76,-104.2 229.2,-93.78 225.36,-84.99"/>
<polygon fill="midnightblue" stroke="midnightblue" points="228.49,-83.42 221.28,-75.66 222.08,-86.22 228.49,-83.42"/>
</g>
<!-- Node15&#45;&gt;Node9 -->
<g id="edge17" class="edge">
<title>Node15&#45;&gt;Node9</title>
<path fill="none" stroke="midnightblue" d="M273.36,-112.4C294.12,-102.59 321.6,-89.62 341.86,-80.05"/>
<polygon fill="midnightblue" stroke="midnightblue" points="343.62,-83.09 351.17,-75.66 340.63,-76.76 343.62,-83.09"/>
</g>
</g>
</svg>
