<?xml version="1.0" encoding="UTF-8" standalone="no"?>
<!DOCTYPE svg PUBLIC "-//W3C//DTD SVG 1.1//EN"
 "http://www.w3.org/Graphics/SVG/1.1/DTD/svg11.dtd">
<!-- Generated by graphviz version 2.43.0 (0)
 -->
<!-- Title: bio/meta/pod_tuple.hpp Pages: 1 -->
<svg width="285pt" height="192pt"
 viewBox="0.00 0.00 285.43 192.00" xmlns="http://www.w3.org/2000/svg" xmlns:xlink="http://www.w3.org/1999/xlink">
<g id="graph0" class="graph" transform="scale(1 1) rotate(0) translate(4 188)">
<title>bio/meta/pod_tuple.hpp</title>
<!-- Node1 -->
<g id="node1" class="node">
<title>Node1</title>
<g id="a_node1"><a xlink:title="Provides bio::meta::pod_tuple.">
<polygon fill="#999999" stroke="#666666" points="158.43,-184 40.43,-184 40.43,-165 158.43,-165 158.43,-184"/>
<text text-anchor="middle" x="99.43" y="-172" font-family="Helvetica,sans-Serif" font-size="10.00">bio/meta/pod_tuple.hpp</text>
</a>
</g>
</g>
<!-- Node2 -->
<g id="node2" class="node">
<title>Node2</title>
<g id="a_node2"><a xlink:href="meta_2all_8hpp.html" target="_top" xlink:title="Meta&#45;header for the meta module .">
<polygon fill="white" stroke="#666666" points="116.43,-19 30.43,-19 30.43,0 116.43,0 116.43,-19"/>
<text text-anchor="middle" x="73.43" y="-7" font-family="Helvetica,sans-Serif" font-size="10.00">bio/meta/all.hpp</text>
</a>
</g>
</g>
<!-- Node1&#45;&gt;Node2 -->
<g id="edge1" class="edge">
<title>Node1&#45;&gt;Node2</title>
<path fill="none" stroke="#63b8ff" d="M66.89,-160.52C51.95,-153.17 35.02,-142.68 23.43,-129 6.51,-109.04 7.17,-99.73 2.43,-74 0.9,-65.7 -1.66,-62.39 2.43,-55 12.08,-37.56 31.73,-26.04 47.92,-19.1"/>
<polygon fill="#63b8ff" stroke="#63b8ff" points="65.79,-163.87 76.34,-164.89 68.73,-157.52 65.79,-163.87"/>
</g>
<!-- Node3 -->
<g id="node3" class="node">
<title>Node3</title>
<g id="a_node3"><a xlink:href="tuple_8hpp.html" target="_top" xlink:title="Provides bio::meta::tuple_like.">
<polygon fill="white" stroke="#666666" points="166.43,-129 32.43,-129 32.43,-110 166.43,-110 166.43,-129"/>
<text text-anchor="middle" x="99.43" y="-117" font-family="Helvetica,sans-Serif" font-size="10.00">bio/meta/concept/tuple.hpp</text>
</a>
</g>
</g>
<!-- Node1&#45;&gt;Node3 -->
<g id="edge2" class="edge">
<title>Node1&#45;&gt;Node3</title>
<path fill="none" stroke="#63b8ff" d="M99.43,-154.66C99.43,-145.93 99.43,-135.99 99.43,-129.09"/>
<polygon fill="#63b8ff" stroke="#63b8ff" points="95.93,-154.75 99.43,-164.75 102.93,-154.75 95.93,-154.75"/>
</g>
<!-- Node5 -->
<g id="node5" class="node">
<title>Node5</title>
<g id="a_node5"><a xlink:href="tuple__utility_8hpp.html" target="_top" xlink:title="Provides utility functions for tuple like interfaces.">
<polygon fill="white" stroke="#666666" points="277.43,-74 153.43,-74 153.43,-55 277.43,-55 277.43,-74"/>
<text text-anchor="middle" x="215.43" y="-62" font-family="Helvetica,sans-Serif" font-size="10.00">bio/meta/tuple_utility.hpp</text>
</a>
</g>
</g>
<!-- Node1&#45;&gt;Node5 -->
<g id="edge7" class="edge">
<title>Node1&#45;&gt;Node5</title>
<path fill="none" stroke="#63b8ff" d="M129,-160.39C144.07,-152.73 162,-142 175.43,-129 192.46,-112.51 205.49,-87.37 211.6,-74.22"/>
<polygon fill="#63b8ff" stroke="#63b8ff" points="127.04,-157.46 119.58,-164.98 130.1,-163.75 127.04,-157.46"/>
</g>
<!-- Node4 -->
<g id="node4" class="node">
<title>Node4</title>
<g id="a_node4"><a xlink:href="meta_2concept_2all_8hpp.html" target="_top" xlink:title="Meta&#45;include for custom concepts.">
<polygon fill="white" stroke="#666666" points="134.93,-74 11.93,-74 11.93,-55 134.93,-55 134.93,-74"/>
<text text-anchor="middle" x="73.43" y="-62" font-family="Helvetica,sans-Serif" font-size="10.00">bio/meta/concept/all.hpp</text>
</a>
</g>
</g>
<!-- Node3&#45;&gt;Node4 -->
<g id="edge3" class="edge">
<title>Node3&#45;&gt;Node4</title>
<path fill="none" stroke="#63b8ff" d="M90.61,-100.53C86.23,-91.6 81.14,-81.22 77.64,-74.09"/>
<polygon fill="#63b8ff" stroke="#63b8ff" points="87.59,-102.31 95.13,-109.75 93.87,-99.23 87.59,-102.31"/>
</g>
<!-- Node3&#45;&gt;Node5 -->
<g id="edge5" class="edge">
<title>Node3&#45;&gt;Node5</title>
<path fill="none" stroke="#63b8ff" d="M127.3,-105.77C148.7,-95.99 177.67,-82.75 196.45,-74.17"/>
<polygon fill="#63b8ff" stroke="#63b8ff" points="125.71,-102.65 118.06,-109.98 128.61,-109.01 125.71,-102.65"/>
</g>
<!-- Node4&#45;&gt;Node2 -->
<g id="edge4" class="edge">
<title>Node4&#45;&gt;Node2</title>
<path fill="none" stroke="#63b8ff" d="M73.43,-44.66C73.43,-35.93 73.43,-25.99 73.43,-19.09"/>
<polygon fill="#63b8ff" stroke="#63b8ff" points="69.93,-44.75 73.43,-54.75 76.93,-44.75 69.93,-44.75"/>
</g>
<!-- Node5&#45;&gt;Node2 -->
<g id="edge6" class="edge">
<title>Node5&#45;&gt;Node2</title>
<path fill="none" stroke="#63b8ff" d="M183.06,-51.42C156.72,-41.59 120.17,-27.95 96.66,-19.17"/>
<polygon fill="#63b8ff" stroke="#63b8ff" points="182.02,-54.77 192.61,-54.98 184.47,-48.21 182.02,-54.77"/>
</g>
</g>
</svg>
