<?xml version="1.0" encoding="UTF-8" standalone="no"?>
<!DOCTYPE svg PUBLIC "-//W3C//DTD SVG 1.1//EN"
 "http://www.w3.org/Graphics/SVG/1.1/DTD/svg11.dtd">
<!-- Generated by graphviz version 2.43.0 (0)
 -->
<!-- Title: bio/alphabet/proxy_base.hpp Pages: 1 -->
<svg width="1082pt" height="430pt"
 viewBox="0.00 0.00 1081.85 430.00" xmlns="http://www.w3.org/2000/svg" xmlns:xlink="http://www.w3.org/1999/xlink">
<g id="graph0" class="graph" transform="scale(1 1) rotate(0) translate(4 426)">
<title>bio/alphabet/proxy_base.hpp</title>
<polygon fill="white" stroke="transparent" points="-4,4 -4,-426 1077.85,-426 1077.85,4 -4,4"/>
<!-- Node1 -->
<g id="node1" class="node">
<title>Node1</title>
<g id="a_node1"><a xlink:title="Provides bio::alphabet::proxy_base.">
<polygon fill="#bfbfbf" stroke="black" points="481,-391.5 481,-421.5 589,-421.5 589,-391.5 481,-391.5"/>
<text text-anchor="start" x="489" y="-409.5" font-family="Helvetica,sans-Serif" font-size="10.00">bio/alphabet/proxy</text>
<text text-anchor="middle" x="535" y="-398.5" font-family="Helvetica,sans-Serif" font-size="10.00">_base.hpp</text>
</a>
</g>
</g>
<!-- Node2 -->
<g id="node2" class="node">
<title>Node2</title>
<g id="a_node2"><a target="_blank" xlink:href="https://en.cppreference.com/w/cpp/header/concepts.html" xlink:title=" ">
<polygon fill="white" stroke="black" points="79,-56.5 79,-75.5 139,-75.5 139,-56.5 79,-56.5"/>
<text text-anchor="middle" x="109" y="-63.5" font-family="Helvetica,sans-Serif" font-size="10.00">concepts</text>
</a>
</g>
</g>
<!-- Node1&#45;&gt;Node2 -->
<g id="edge1" class="edge">
<title>Node1&#45;&gt;Node2</title>
<path fill="none" stroke="midnightblue" d="M480.76,-403.59C344.74,-397.34 0,-371.8 0,-273.5 0,-273.5 0,-273.5 0,-199 0,-155.26 17.21,-144.93 46,-112 56.82,-99.62 71.68,-88.8 84.26,-80.87"/>
<polygon fill="midnightblue" stroke="midnightblue" points="86.17,-83.8 92.91,-75.63 82.55,-77.82 86.17,-83.8"/>
</g>
<!-- Node3 -->
<g id="node3" class="node">
<title>Node3</title>
<g id="a_node3"><a xlink:href="base_8hpp.html" target="_top" xlink:title="Provides bio::alphabet::base.">
<polygon fill="white" stroke="black" points="334.5,-330 334.5,-349 459.5,-349 459.5,-330 334.5,-330"/>
<text text-anchor="middle" x="397" y="-337" font-family="Helvetica,sans-Serif" font-size="10.00">bio/alphabet/base.hpp</text>
</a>
</g>
</g>
<!-- Node1&#45;&gt;Node3 -->
<g id="edge2" class="edge">
<title>Node1&#45;&gt;Node3</title>
<path fill="none" stroke="midnightblue" d="M505.06,-391.4C481.06,-380.09 447.66,-364.36 424.37,-353.39"/>
<polygon fill="midnightblue" stroke="midnightblue" points="425.6,-350.1 415.06,-349.01 422.62,-356.43 425.6,-350.1"/>
</g>
<!-- Node15 -->
<g id="node15" class="node">
<title>Node15</title>
<g id="a_node15"><a xlink:href="core__language_8hpp.html" target="_top" xlink:title="Provides concepts for core language types and relations that don&#39;t have concepts in C++20 (yet).">
<polygon fill="white" stroke="black" points="644.5,-112.5 644.5,-142.5 769.5,-142.5 769.5,-112.5 644.5,-112.5"/>
<text text-anchor="start" x="652.5" y="-130.5" font-family="Helvetica,sans-Serif" font-size="10.00">bio/meta/concept/core</text>
<text text-anchor="middle" x="707" y="-119.5" font-family="Helvetica,sans-Serif" font-size="10.00">_language.hpp</text>
</a>
</g>
</g>
<!-- Node1&#45;&gt;Node15 -->
<g id="edge45" class="edge">
<title>Node1&#45;&gt;Node15</title>
<path fill="none" stroke="midnightblue" d="M582.57,-391.36C628.44,-374.85 695.02,-342.61 724,-288 747.09,-244.5 730.16,-184.98 717.49,-152.33"/>
<polygon fill="midnightblue" stroke="midnightblue" points="720.59,-150.67 713.58,-142.73 714.11,-153.31 720.59,-150.67"/>
</g>
<!-- Node21 -->
<g id="node21" class="node">
<title>Node21</title>
<g id="a_node21"><a xlink:href="basic_8hpp.html" target="_top" xlink:title="Provides various type traits on generic types.">
<polygon fill="white" stroke="black" points="771,-185 771,-215 887,-215 887,-185 771,-185"/>
<text text-anchor="start" x="779" y="-203" font-family="Helvetica,sans-Serif" font-size="10.00">bio/meta/type_traits</text>
<text text-anchor="middle" x="829" y="-192" font-family="Helvetica,sans-Serif" font-size="10.00">/basic.hpp</text>
</a>
</g>
</g>
<!-- Node1&#45;&gt;Node21 -->
<g id="edge46" class="edge">
<title>Node1&#45;&gt;Node21</title>
<path fill="none" stroke="midnightblue" d="M589.07,-398.73C646.21,-390.62 731.54,-375.53 757,-355 798.26,-321.74 817.06,-259.37 824.61,-225.09"/>
<polygon fill="midnightblue" stroke="midnightblue" points="828.1,-225.52 826.68,-215.02 821.24,-224.11 828.1,-225.52"/>
</g>
<!-- Node25 -->
<g id="node25" class="node">
<title>Node25</title>
<g id="a_node25"><a xlink:href="alphabet_2nucleotide_2concept_8hpp.html" target="_top" xlink:title="Provides bio::alphabet::nucleotide_alphabet.">
<polygon fill="white" stroke="black" points="185.5,-324.5 185.5,-354.5 316.5,-354.5 316.5,-324.5 185.5,-324.5"/>
<text text-anchor="start" x="193.5" y="-342.5" font-family="Helvetica,sans-Serif" font-size="10.00">bio/alphabet/nucleotide</text>
<text text-anchor="middle" x="251" y="-331.5" font-family="Helvetica,sans-Serif" font-size="10.00">/concept.hpp</text>
</a>
</g>
</g>
<!-- Node1&#45;&gt;Node25 -->
<g id="edge40" class="edge">
<title>Node1&#45;&gt;Node25</title>
<path fill="none" stroke="midnightblue" d="M480.91,-393.12C435.89,-382.82 371.44,-368.07 322.22,-356.8"/>
<polygon fill="midnightblue" stroke="midnightblue" points="322.81,-353.34 312.28,-354.53 321.25,-360.17 322.81,-353.34"/>
</g>
<!-- Node26 -->
<g id="node26" class="node">
<title>Node26</title>
<g id="a_node26"><a xlink:href="alphabet_2quality_2concept_8hpp.html" target="_top" xlink:title="Quality alphabet concept.">
<polygon fill="white" stroke="black" points="478,-324.5 478,-354.5 592,-354.5 592,-324.5 478,-324.5"/>
<text text-anchor="start" x="486" y="-342.5" font-family="Helvetica,sans-Serif" font-size="10.00">bio/alphabet/quality</text>
<text text-anchor="middle" x="535" y="-331.5" font-family="Helvetica,sans-Serif" font-size="10.00">/concept.hpp</text>
</a>
</g>
</g>
<!-- Node1&#45;&gt;Node26 -->
<g id="edge43" class="edge">
<title>Node1&#45;&gt;Node26</title>
<path fill="none" stroke="midnightblue" d="M535,-391.4C535,-383.64 535,-373.81 535,-364.86"/>
<polygon fill="midnightblue" stroke="midnightblue" points="538.5,-364.58 535,-354.58 531.5,-364.58 538.5,-364.58"/>
</g>
<!-- Node27 -->
<g id="node27" class="node">
<title>Node27</title>
<g id="a_node27"><a xlink:href="template__inspection_8hpp.html" target="_top" xlink:title="Provides various traits to inspect templates.">
<polygon fill="white" stroke="black" points="575,-257.5 575,-287.5 715,-287.5 715,-257.5 575,-257.5"/>
<text text-anchor="start" x="583" y="-275.5" font-family="Helvetica,sans-Serif" font-size="10.00">bio/meta/type_traits</text>
<text text-anchor="middle" x="645" y="-264.5" font-family="Helvetica,sans-Serif" font-size="10.00">/template_inspection.hpp</text>
</a>
</g>
</g>
<!-- Node1&#45;&gt;Node27 -->
<g id="edge47" class="edge">
<title>Node1&#45;&gt;Node27</title>
<path fill="none" stroke="midnightblue" d="M558.07,-391.42C571.74,-382.26 588.73,-369.38 601,-355 615.92,-337.51 627.9,-314.15 635.56,-296.91"/>
<polygon fill="midnightblue" stroke="midnightblue" points="638.85,-298.14 639.57,-287.57 632.41,-295.38 638.85,-298.14"/>
</g>
<!-- Node3&#45;&gt;Node2 -->
<g id="edge4" class="edge">
<title>Node3&#45;&gt;Node2</title>
<path fill="none" stroke="midnightblue" d="M369.63,-329.98C309.03,-309.43 164.64,-250.67 111,-143 102.1,-125.13 103.02,-101.84 105.26,-85.78"/>
<polygon fill="midnightblue" stroke="midnightblue" points="108.78,-85.98 107.01,-75.54 101.88,-84.81 108.78,-85.98"/>
</g>
<!-- Node4 -->
<g id="node4" class="node">
<title>Node4</title>
<g id="a_node4"><a target="_blank" xlink:href="https://en.cppreference.com/w/cpp/header/cassert.html" xlink:title=" ">
<polygon fill="white" stroke="black" points="347,-263 347,-282 399,-282 399,-263 347,-263"/>
<text text-anchor="middle" x="373" y="-270" font-family="Helvetica,sans-Serif" font-size="10.00">cassert</text>
</a>
</g>
</g>
<!-- Node3&#45;&gt;Node4 -->
<g id="edge3" class="edge">
<title>Node3&#45;&gt;Node4</title>
<path fill="none" stroke="midnightblue" d="M393.76,-329.73C390.16,-319.99 384.25,-303.98 379.66,-291.53"/>
<polygon fill="midnightblue" stroke="midnightblue" points="382.93,-290.3 376.19,-282.13 376.37,-292.72 382.93,-290.3"/>
</g>
<!-- Node5 -->
<g id="node5" class="node">
<title>Node5</title>
<g id="a_node5"><a target="_blank" xlink:href="https://en.cppreference.com/w/cpp/header/type_traits.html" xlink:title=" ">
<polygon fill="white" stroke="black" points="909.5,-56.5 909.5,-75.5 978.5,-75.5 978.5,-56.5 909.5,-56.5"/>
<text text-anchor="middle" x="944" y="-63.5" font-family="Helvetica,sans-Serif" font-size="10.00">type_traits</text>
</a>
</g>
</g>
<!-- Node3&#45;&gt;Node5 -->
<g id="edge5" class="edge">
<title>Node3&#45;&gt;Node5</title>
<path fill="none" stroke="midnightblue" d="M437.29,-329.95C447.6,-327.89 458.69,-325.76 469,-324 719.73,-281.09 840.79,-388.76 1032,-221 1069.6,-188.01 1088.26,-153.27 1060,-112 1044,-88.63 1013.97,-77.4 988.47,-72"/>
<polygon fill="midnightblue" stroke="midnightblue" points="989.07,-68.55 978.6,-70.14 987.78,-75.43 989.07,-68.55"/>
</g>
<!-- Node6 -->
<g id="node6" class="node">
<title>Node6</title>
<g id="a_node6"><a xlink:href="alphabet_2concept_8hpp.html" target="_top" xlink:title="Core alphabet concept and free function/type trait wrappers.">
<polygon fill="white" stroke="black" points="417,-263 417,-282 557,-282 557,-263 417,-263"/>
<text text-anchor="middle" x="487" y="-270" font-family="Helvetica,sans-Serif" font-size="10.00">bio/alphabet/concept.hpp</text>
</a>
</g>
</g>
<!-- Node3&#45;&gt;Node6 -->
<g id="edge6" class="edge">
<title>Node3&#45;&gt;Node6</title>
<path fill="none" stroke="midnightblue" d="M409.14,-329.73C423.85,-319.11 448.86,-301.05 466.56,-288.26"/>
<polygon fill="midnightblue" stroke="midnightblue" points="469,-290.82 475.05,-282.13 464.9,-285.14 469,-290.82"/>
</g>
<!-- Node23 -->
<g id="node23" class="node">
<title>Node23</title>
<g id="a_node23"><a xlink:href="int__types_8hpp.html" target="_top" xlink:title="Provides metaprogramming utilities for integer types.">
<polygon fill="white" stroke="black" points="308.5,-112.5 308.5,-142.5 415.5,-142.5 415.5,-112.5 308.5,-112.5"/>
<text text-anchor="start" x="316.5" y="-130.5" font-family="Helvetica,sans-Serif" font-size="10.00">bio/meta/detail/int</text>
<text text-anchor="middle" x="362" y="-119.5" font-family="Helvetica,sans-Serif" font-size="10.00">_types.hpp</text>
</a>
</g>
</g>
<!-- Node3&#45;&gt;Node23 -->
<g id="edge35" class="edge">
<title>Node3&#45;&gt;Node23</title>
<path fill="none" stroke="midnightblue" d="M382.04,-329.93C354.6,-313.2 297.21,-273.21 277,-221 270.26,-203.59 267.77,-195.22 277,-179 284.8,-165.29 297.95,-154.92 311.6,-147.25"/>
<polygon fill="midnightblue" stroke="midnightblue" points="313.33,-150.3 320.6,-142.6 310.11,-144.09 313.33,-150.3"/>
</g>
<!-- Node6&#45;&gt;Node5 -->
<g id="edge7" class="edge">
<title>Node6&#45;&gt;Node5</title>
<path fill="none" stroke="midnightblue" d="M531.95,-262.97C568.83,-254.99 621.81,-241.24 665,-221 720.59,-194.95 729.61,-179.46 779,-143 796.82,-129.85 798.65,-122.76 818,-112 844.35,-97.36 876.36,-85.99 901.53,-78.35"/>
<polygon fill="midnightblue" stroke="midnightblue" points="902.56,-81.7 911.16,-75.5 900.57,-74.98 902.56,-81.7"/>
</g>
<!-- Node7 -->
<g id="node7" class="node">
<title>Node7</title>
<g id="a_node7"><a xlink:href="tag_8hpp.html" target="_top" xlink:title="Provides the customisation tags for the alphabet concepts.">
<polygon fill="white" stroke="black" points="434,-185 434,-215 550,-215 550,-185 434,-185"/>
<text text-anchor="start" x="442" y="-203" font-family="Helvetica,sans-Serif" font-size="10.00">bio/alphabet/custom</text>
<text text-anchor="middle" x="492" y="-192" font-family="Helvetica,sans-Serif" font-size="10.00">/tag.hpp</text>
</a>
</g>
</g>
<!-- Node6&#45;&gt;Node7 -->
<g id="edge8" class="edge">
<title>Node6&#45;&gt;Node7</title>
<path fill="none" stroke="midnightblue" d="M487.61,-262.86C488.27,-253.55 489.35,-238.33 490.28,-225.31"/>
<polygon fill="midnightblue" stroke="midnightblue" points="493.79,-225.3 491,-215.08 486.8,-224.8 493.79,-225.3"/>
</g>
<!-- Node8 -->
<g id="node8" class="node">
<title>Node8</title>
<g id="a_node8"><a xlink:href="exception_8hpp.html" target="_top" xlink:title="Exceptions thrown by entities in the alphabet module.">
<polygon fill="white" stroke="black" points="141.5,-118 141.5,-137 290.5,-137 290.5,-118 141.5,-118"/>
<text text-anchor="middle" x="216" y="-125" font-family="Helvetica,sans-Serif" font-size="10.00">bio/alphabet/exception.hpp</text>
</a>
</g>
</g>
<!-- Node6&#45;&gt;Node8 -->
<g id="edge9" class="edge">
<title>Node6&#45;&gt;Node8</title>
<path fill="none" stroke="midnightblue" d="M444.2,-262.96C386.85,-251.26 290.66,-230.59 277,-221 250.33,-202.28 232.25,-167.84 223.06,-146.67"/>
<polygon fill="midnightblue" stroke="midnightblue" points="226.22,-145.14 219.17,-137.22 219.74,-147.8 226.22,-145.14"/>
</g>
<!-- Node11 -->
<g id="node11" class="node">
<title>Node11</title>
<g id="a_node11"><a xlink:href="core_8hpp.html" target="_top" xlink:title="Provides platform and dependency checks.">
<polygon fill="white" stroke="black" points="614.5,-56.5 614.5,-75.5 691.5,-75.5 691.5,-56.5 614.5,-56.5"/>
<text text-anchor="middle" x="653" y="-63.5" font-family="Helvetica,sans-Serif" font-size="10.00">bio/core.hpp</text>
</a>
</g>
</g>
<!-- Node6&#45;&gt;Node11 -->
<g id="edge18" class="edge">
<title>Node6&#45;&gt;Node11</title>
<path fill="none" stroke="midnightblue" d="M503.02,-262.87C518.64,-253.9 542.39,-238.7 559,-221 599.07,-178.29 630.75,-115.83 644.92,-85.24"/>
<polygon fill="midnightblue" stroke="midnightblue" points="648.24,-86.39 649.19,-75.84 641.87,-83.5 648.24,-86.39"/>
</g>
<!-- Node6&#45;&gt;Node15 -->
<g id="edge19" class="edge">
<title>Node6&#45;&gt;Node15</title>
<path fill="none" stroke="midnightblue" d="M529.2,-262.92C559.24,-255.37 599.53,-242.21 630,-221 656.74,-202.39 679.47,-172.13 693.16,-151.32"/>
<polygon fill="midnightblue" stroke="midnightblue" points="696.19,-153.08 698.62,-142.77 690.29,-149.31 696.19,-153.08"/>
</g>
<!-- Node16 -->
<g id="node16" class="node">
<title>Node16</title>
<g id="a_node16"><a xlink:href="type__inspection_8hpp.html" target="_top" xlink:title="Provides traits to inspect some information of a type, for example its name.">
<polygon fill="white" stroke="black" points="434,-112.5 434,-142.5 550,-142.5 550,-112.5 434,-112.5"/>
<text text-anchor="start" x="442" y="-130.5" font-family="Helvetica,sans-Serif" font-size="10.00">bio/meta/detail/type</text>
<text text-anchor="middle" x="492" y="-119.5" font-family="Helvetica,sans-Serif" font-size="10.00">_inspection.hpp</text>
</a>
</g>
</g>
<!-- Node6&#45;&gt;Node16 -->
<g id="edge23" class="edge">
<title>Node6&#45;&gt;Node16</title>
<path fill="none" stroke="midnightblue" d="M441.73,-262.92C386.54,-251.99 299.39,-233.1 290,-221 278.56,-206.25 278.51,-193.71 290,-179 294.3,-173.5 366.96,-156.25 423.92,-143.43"/>
<polygon fill="midnightblue" stroke="midnightblue" points="424.99,-146.78 433.99,-141.17 423.46,-139.95 424.99,-146.78"/>
</g>
<!-- Node20 -->
<g id="node20" class="node">
<title>Node20</title>
<g id="a_node20"><a xlink:href="priority__tag_8hpp.html" target="_top" xlink:title="provides bio::meta::priority_tag.">
<polygon fill="white" stroke="black" points="298.5,-185 298.5,-215 415.5,-215 415.5,-185 298.5,-185"/>
<text text-anchor="start" x="306.5" y="-203" font-family="Helvetica,sans-Serif" font-size="10.00">bio/meta/tag/priority</text>
<text text-anchor="middle" x="357" y="-192" font-family="Helvetica,sans-Serif" font-size="10.00">_tag.hpp</text>
</a>
</g>
</g>
<!-- Node6&#45;&gt;Node20 -->
<g id="edge29" class="edge">
<title>Node6&#45;&gt;Node20</title>
<path fill="none" stroke="midnightblue" d="M471.32,-263C451.83,-252.43 418,-234.08 392.18,-220.08"/>
<polygon fill="midnightblue" stroke="midnightblue" points="393.53,-216.83 383.07,-215.14 390.19,-222.98 393.53,-216.83"/>
</g>
<!-- Node6&#45;&gt;Node21 -->
<g id="edge31" class="edge">
<title>Node6&#45;&gt;Node21</title>
<path fill="none" stroke="midnightblue" d="M528.25,-263C585.91,-251.11 691.31,-229.38 760.76,-215.07"/>
<polygon fill="midnightblue" stroke="midnightblue" points="761.65,-218.46 770.74,-213.01 760.24,-211.6 761.65,-218.46"/>
</g>
<!-- Node8&#45;&gt;Node2 -->
<g id="edge10" class="edge">
<title>Node8&#45;&gt;Node2</title>
<path fill="none" stroke="midnightblue" d="M200.67,-117.98C183.03,-108.17 153.84,-91.93 133.14,-80.42"/>
<polygon fill="midnightblue" stroke="midnightblue" points="134.74,-77.31 124.3,-75.51 131.34,-83.43 134.74,-77.31"/>
</g>
<!-- Node9 -->
<g id="node9" class="node">
<title>Node9</title>
<g id="a_node9"><a target="_blank" xlink:href="https://en.cppreference.com/w/cpp/header/stdexcept.html" xlink:title=" ">
<polygon fill="white" stroke="black" points="157.5,-56.5 157.5,-75.5 222.5,-75.5 222.5,-56.5 157.5,-56.5"/>
<text text-anchor="middle" x="190" y="-63.5" font-family="Helvetica,sans-Serif" font-size="10.00">stdexcept</text>
</a>
</g>
</g>
<!-- Node8&#45;&gt;Node9 -->
<g id="edge11" class="edge">
<title>Node8&#45;&gt;Node9</title>
<path fill="none" stroke="midnightblue" d="M212.27,-117.98C208.53,-109.4 202.64,-95.93 197.86,-84.98"/>
<polygon fill="midnightblue" stroke="midnightblue" points="200.93,-83.27 193.72,-75.51 194.52,-86.07 200.93,-83.27"/>
</g>
<!-- Node10 -->
<g id="node10" class="node">
<title>Node10</title>
<g id="a_node10"><a target="_blank" xlink:href="https://en.cppreference.com/w/cpp/header/string.html" xlink:title=" ">
<polygon fill="white" stroke="black" points="329,-0.5 329,-19.5 373,-19.5 373,-0.5 329,-0.5"/>
<text text-anchor="middle" x="351" y="-7.5" font-family="Helvetica,sans-Serif" font-size="10.00">string</text>
</a>
</g>
</g>
<!-- Node8&#45;&gt;Node10 -->
<g id="edge12" class="edge">
<title>Node8&#45;&gt;Node10</title>
<path fill="none" stroke="midnightblue" d="M221.04,-117.77C229.62,-103.46 248.29,-74.74 270,-56 285.13,-42.94 304.64,-31.96 320.73,-24.12"/>
<polygon fill="midnightblue" stroke="midnightblue" points="322.67,-27.07 330.23,-19.65 319.69,-20.74 322.67,-27.07"/>
</g>
<!-- Node8&#45;&gt;Node11 -->
<g id="edge13" class="edge">
<title>Node8&#45;&gt;Node11</title>
<path fill="none" stroke="midnightblue" d="M262.58,-118C274.74,-115.91 287.84,-113.76 300,-112 432.34,-92.81 468.96,-96.69 604.39,-76.16"/>
<polygon fill="midnightblue" stroke="midnightblue" points="604.96,-79.61 614.31,-74.64 603.89,-72.69 604.96,-79.61"/>
</g>
<!-- Node11&#45;&gt;Node10 -->
<g id="edge17" class="edge">
<title>Node11&#45;&gt;Node10</title>
<path fill="none" stroke="midnightblue" d="M614.28,-57.54C611.48,-57.01 608.7,-56.5 606,-56 525.88,-41.26 431.42,-24.84 383.07,-16.5"/>
<polygon fill="midnightblue" stroke="midnightblue" points="383.64,-13.05 373.19,-14.8 382.45,-19.95 383.64,-13.05"/>
</g>
<!-- Node12 -->
<g id="node12" class="node">
<title>Node12</title>
<g id="a_node12"><a target="_blank" xlink:href="https://en.cppreference.com/w/cpp/header/cinttypes.html" xlink:title=" ">
<polygon fill="white" stroke="black" points="546,-0.5 546,-19.5 608,-19.5 608,-0.5 546,-0.5"/>
<text text-anchor="middle" x="577" y="-7.5" font-family="Helvetica,sans-Serif" font-size="10.00">cinttypes</text>
</a>
</g>
</g>
<!-- Node11&#45;&gt;Node12 -->
<g id="edge14" class="edge">
<title>Node11&#45;&gt;Node12</title>
<path fill="none" stroke="midnightblue" d="M640.79,-56.32C629.22,-48.11 611.62,-35.6 597.84,-25.81"/>
<polygon fill="midnightblue" stroke="midnightblue" points="599.61,-22.77 589.43,-19.83 595.56,-28.48 599.61,-22.77"/>
</g>
<!-- Node13 -->
<g id="node13" class="node">
<title>Node13</title>
<g id="a_node13"><a target="_blank" xlink:href="https://en.cppreference.com/w/cpp/header/ciso646.html" xlink:title=" ">
<polygon fill="white" stroke="black" points="626,-0.5 626,-19.5 680,-19.5 680,-0.5 626,-0.5"/>
<text text-anchor="middle" x="653" y="-7.5" font-family="Helvetica,sans-Serif" font-size="10.00">ciso646</text>
</a>
</g>
</g>
<!-- Node11&#45;&gt;Node13 -->
<g id="edge15" class="edge">
<title>Node11&#45;&gt;Node13</title>
<path fill="none" stroke="midnightblue" d="M653,-56.08C653,-49.01 653,-38.86 653,-29.99"/>
<polygon fill="midnightblue" stroke="midnightblue" points="656.5,-29.75 653,-19.75 649.5,-29.75 656.5,-29.75"/>
</g>
<!-- Node14 -->
<g id="node14" class="node">
<title>Node14</title>
<g id="a_node14"><a target="_blank" xlink:href="https://en.cppreference.com/w/cpp/header/cstddef.html" xlink:title=" ">
<polygon fill="white" stroke="black" points="698.5,-0.5 698.5,-19.5 751.5,-19.5 751.5,-0.5 698.5,-0.5"/>
<text text-anchor="middle" x="725" y="-7.5" font-family="Helvetica,sans-Serif" font-size="10.00">cstddef</text>
</a>
</g>
</g>
<!-- Node11&#45;&gt;Node14 -->
<g id="edge16" class="edge">
<title>Node11&#45;&gt;Node14</title>
<path fill="none" stroke="midnightblue" d="M664.57,-56.32C675.42,-48.18 691.88,-35.84 704.88,-26.09"/>
<polygon fill="midnightblue" stroke="midnightblue" points="707.32,-28.63 713.22,-19.83 703.12,-23.03 707.32,-28.63"/>
</g>
<!-- Node15&#45;&gt;Node2 -->
<g id="edge20" class="edge">
<title>Node15&#45;&gt;Node2</title>
<path fill="none" stroke="midnightblue" d="M644.36,-120.22C618.01,-117.61 587.02,-114.6 559,-112 379.63,-95.36 330.81,-104.36 149.04,-75.96"/>
<polygon fill="midnightblue" stroke="midnightblue" points="149.58,-72.5 139.15,-74.4 148.48,-79.41 149.58,-72.5"/>
</g>
<!-- Node15&#45;&gt;Node5 -->
<g id="edge21" class="edge">
<title>Node15&#45;&gt;Node5</title>
<path fill="none" stroke="midnightblue" d="M762.87,-112.47C804.82,-101.94 861.49,-87.72 900.19,-78"/>
<polygon fill="midnightblue" stroke="midnightblue" points="901.27,-81.34 910.12,-75.51 899.57,-74.55 901.27,-81.34"/>
</g>
<!-- Node15&#45;&gt;Node11 -->
<g id="edge22" class="edge">
<title>Node15&#45;&gt;Node11</title>
<path fill="none" stroke="midnightblue" d="M694.2,-112.4C686.28,-103.66 676.06,-92.41 667.79,-83.3"/>
<polygon fill="midnightblue" stroke="midnightblue" points="670.17,-80.71 660.86,-75.66 664.99,-85.42 670.17,-80.71"/>
</g>
<!-- Node16&#45;&gt;Node10 -->
<g id="edge26" class="edge">
<title>Node16&#45;&gt;Node10</title>
<path fill="none" stroke="midnightblue" d="M433.69,-113.53C411.42,-105.93 387.45,-94.12 371,-76 359.48,-63.31 354.59,-44.1 352.52,-29.86"/>
<polygon fill="midnightblue" stroke="midnightblue" points="355.98,-29.27 351.39,-19.72 349.02,-30.04 355.98,-29.27"/>
</g>
<!-- Node16&#45;&gt;Node11 -->
<g id="edge28" class="edge">
<title>Node16&#45;&gt;Node11</title>
<path fill="none" stroke="midnightblue" d="M530.15,-112.4C557.53,-102.28 594.04,-88.79 620.13,-79.15"/>
<polygon fill="midnightblue" stroke="midnightblue" points="621.41,-82.41 629.57,-75.66 618.98,-75.84 621.41,-82.41"/>
</g>
<!-- Node17 -->
<g id="node17" class="node">
<title>Node17</title>
<g id="a_node17"><a target="_blank" xlink:href="https://en.cppreference.com/w/cpp/header/functional.html" xlink:title=" ">
<polygon fill="white" stroke="black" points="379.5,-56.5 379.5,-75.5 444.5,-75.5 444.5,-56.5 379.5,-56.5"/>
<text text-anchor="middle" x="412" y="-63.5" font-family="Helvetica,sans-Serif" font-size="10.00">functional</text>
</a>
</g>
</g>
<!-- Node16&#45;&gt;Node17 -->
<g id="edge24" class="edge">
<title>Node16&#45;&gt;Node17</title>
<path fill="none" stroke="midnightblue" d="M473.04,-112.4C460.58,-103.13 444.3,-91.03 431.69,-81.65"/>
<polygon fill="midnightblue" stroke="midnightblue" points="433.75,-78.82 423.64,-75.66 429.58,-84.43 433.75,-78.82"/>
</g>
<!-- Node18 -->
<g id="node18" class="node">
<title>Node18</title>
<g id="a_node18"><a target="_blank" xlink:href="https://en.cppreference.com/w/cpp/header/memory.html" xlink:title=" ">
<polygon fill="white" stroke="black" points="463,-56.5 463,-75.5 521,-75.5 521,-56.5 463,-56.5"/>
<text text-anchor="middle" x="492" y="-63.5" font-family="Helvetica,sans-Serif" font-size="10.00">memory</text>
</a>
</g>
</g>
<!-- Node16&#45;&gt;Node18 -->
<g id="edge25" class="edge">
<title>Node16&#45;&gt;Node18</title>
<path fill="none" stroke="midnightblue" d="M492,-112.4C492,-104.47 492,-94.46 492,-85.86"/>
<polygon fill="midnightblue" stroke="midnightblue" points="495.5,-85.66 492,-75.66 488.5,-85.66 495.5,-85.66"/>
</g>
<!-- Node19 -->
<g id="node19" class="node">
<title>Node19</title>
<g id="a_node19"><a target="_blank" xlink:href="https://en.cppreference.com/w/cpp/header/typeinfo.html" xlink:title=" ">
<polygon fill="white" stroke="black" points="539.5,-56.5 539.5,-75.5 596.5,-75.5 596.5,-56.5 539.5,-56.5"/>
<text text-anchor="middle" x="568" y="-63.5" font-family="Helvetica,sans-Serif" font-size="10.00">typeinfo</text>
</a>
</g>
</g>
<!-- Node16&#45;&gt;Node19 -->
<g id="edge27" class="edge">
<title>Node16&#45;&gt;Node19</title>
<path fill="none" stroke="midnightblue" d="M510.01,-112.4C521.74,-103.22 537.02,-91.26 548.94,-81.92"/>
<polygon fill="midnightblue" stroke="midnightblue" points="551.22,-84.58 556.94,-75.66 546.91,-79.07 551.22,-84.58"/>
</g>
<!-- Node20&#45;&gt;Node11 -->
<g id="edge30" class="edge">
<title>Node20&#45;&gt;Node11</title>
<path fill="none" stroke="midnightblue" d="M404.15,-184.98C411.13,-182.94 418.25,-180.9 425,-179 484.36,-162.3 504.05,-170.99 559,-143 575.33,-134.68 613.14,-102.33 635.52,-82.61"/>
<polygon fill="midnightblue" stroke="midnightblue" points="638.09,-85.01 643.26,-75.75 633.45,-79.77 638.09,-85.01"/>
</g>
<!-- Node21&#45;&gt;Node5 -->
<g id="edge33" class="edge">
<title>Node21&#45;&gt;Node5</title>
<path fill="none" stroke="midnightblue" d="M875.99,-184.91C929.57,-168.79 1009.95,-144.42 1011,-143 1019.19,-131.92 1017.48,-124.16 1011,-112 1003.45,-97.83 989.24,-87.33 975.84,-80.06"/>
<polygon fill="midnightblue" stroke="midnightblue" points="977.3,-76.87 966.79,-75.53 974.17,-83.13 977.3,-76.87"/>
</g>
<!-- Node21&#45;&gt;Node15 -->
<g id="edge34" class="edge">
<title>Node21&#45;&gt;Node15</title>
<path fill="none" stroke="midnightblue" d="M804.6,-184.9C786.15,-174.24 760.61,-159.48 740.28,-147.73"/>
<polygon fill="midnightblue" stroke="midnightblue" points="741.76,-144.55 731.35,-142.57 738.26,-150.61 741.76,-144.55"/>
</g>
<!-- Node22 -->
<g id="node22" class="node">
<title>Node22</title>
<g id="a_node22"><a target="_blank" xlink:href="https://en.cppreference.com/w/cpp/header/tuple.html" xlink:title=" ">
<polygon fill="white" stroke="black" points="826.5,-118 826.5,-137 867.5,-137 867.5,-118 826.5,-118"/>
<text text-anchor="middle" x="847" y="-125" font-family="Helvetica,sans-Serif" font-size="10.00">tuple</text>
</a>
</g>
</g>
<!-- Node21&#45;&gt;Node22 -->
<g id="edge32" class="edge">
<title>Node21&#45;&gt;Node22</title>
<path fill="none" stroke="midnightblue" d="M832.64,-184.73C835.41,-173.89 839.24,-158.88 842.25,-147.1"/>
<polygon fill="midnightblue" stroke="midnightblue" points="845.65,-147.95 844.73,-137.39 838.86,-146.22 845.65,-147.95"/>
</g>
<!-- Node23&#45;&gt;Node2 -->
<g id="edge36" class="edge">
<title>Node23&#45;&gt;Node2</title>
<path fill="none" stroke="midnightblue" d="M308.35,-113.88C260.67,-102.67 192.07,-86.54 149.04,-76.42"/>
<polygon fill="midnightblue" stroke="midnightblue" points="149.75,-72.99 139.21,-74.11 148.14,-79.8 149.75,-72.99"/>
</g>
<!-- Node23&#45;&gt;Node5 -->
<g id="edge38" class="edge">
<title>Node23&#45;&gt;Node5</title>
<path fill="none" stroke="midnightblue" d="M415.52,-113.65C418.72,-113.05 421.9,-112.49 425,-112 599.24,-84.53 809.21,-72.8 899.35,-68.77"/>
<polygon fill="midnightblue" stroke="midnightblue" points="899.65,-72.26 909.49,-68.32 899.34,-65.27 899.65,-72.26"/>
</g>
<!-- Node23&#45;&gt;Node11 -->
<g id="edge39" class="edge">
<title>Node23&#45;&gt;Node11</title>
<path fill="none" stroke="midnightblue" d="M415.59,-114.05C418.77,-113.34 421.93,-112.66 425,-112 458.52,-104.84 548,-87.36 604.37,-76.41"/>
<polygon fill="midnightblue" stroke="midnightblue" points="605.35,-79.79 614.5,-74.45 604.01,-72.92 605.35,-79.79"/>
</g>
<!-- Node24 -->
<g id="node24" class="node">
<title>Node24</title>
<g id="a_node24"><a target="_blank" xlink:href="https://en.cppreference.com/w/cpp/header/limits.html" xlink:title=" ">
<polygon fill="white" stroke="black" points="279,-56.5 279,-75.5 323,-75.5 323,-56.5 279,-56.5"/>
<text text-anchor="middle" x="301" y="-63.5" font-family="Helvetica,sans-Serif" font-size="10.00">limits</text>
</a>
</g>
</g>
<!-- Node23&#45;&gt;Node24 -->
<g id="edge37" class="edge">
<title>Node23&#45;&gt;Node24</title>
<path fill="none" stroke="midnightblue" d="M347.54,-112.4C338.41,-103.49 326.58,-91.95 317.14,-82.74"/>
<polygon fill="midnightblue" stroke="midnightblue" points="319.48,-80.13 309.88,-75.66 314.59,-85.15 319.48,-80.13"/>
</g>
<!-- Node25&#45;&gt;Node2 -->
<g id="edge41" class="edge">
<title>Node25&#45;&gt;Node2</title>
<path fill="none" stroke="midnightblue" d="M185.16,-329.52C136.86,-321.42 77.15,-307.73 62,-288 14.36,-225.96 31.28,-183.94 62,-112 67.15,-99.95 77.28,-89.58 86.83,-81.84"/>
<polygon fill="midnightblue" stroke="midnightblue" points="89.04,-84.55 94.92,-75.74 84.83,-78.96 89.04,-84.55"/>
</g>
<!-- Node25&#45;&gt;Node6 -->
<g id="edge42" class="edge">
<title>Node25&#45;&gt;Node6</title>
<path fill="none" stroke="midnightblue" d="M301.92,-324.48C345.14,-312.57 406.34,-295.72 446.34,-284.7"/>
<polygon fill="midnightblue" stroke="midnightblue" points="447.32,-288.06 456.03,-282.03 445.46,-281.31 447.32,-288.06"/>
</g>
<!-- Node26&#45;&gt;Node6 -->
<g id="edge44" class="edge">
<title>Node26&#45;&gt;Node6</title>
<path fill="none" stroke="midnightblue" d="M524.58,-324.4C517.17,-314.36 507.19,-300.84 499.37,-290.25"/>
<polygon fill="midnightblue" stroke="midnightblue" points="502.18,-288.16 493.42,-282.19 496.55,-292.32 502.18,-288.16"/>
</g>
<!-- Node27&#45;&gt;Node2 -->
<g id="edge48" class="edge">
<title>Node27&#45;&gt;Node2</title>
<path fill="none" stroke="midnightblue" d="M636.59,-257.16C623.21,-235.85 594.88,-196.47 559,-179 473.58,-137.42 207.19,-202.34 133,-143 115.9,-129.32 110.77,-103.51 109.35,-85.8"/>
<polygon fill="midnightblue" stroke="midnightblue" points="112.84,-85.58 108.86,-75.76 105.85,-85.92 112.84,-85.58"/>
</g>
<!-- Node28 -->
<g id="node28" class="node">
<title>Node28</title>
<g id="a_node28"><a xlink:href="transformation__trait__or_8hpp.html" target="_top" xlink:title="Provides bio::meta::transformation_trait_or.">
<polygon fill="white" stroke="black" points="905,-179.5 905,-220.5 1023,-220.5 1023,-179.5 905,-179.5"/>
<text text-anchor="start" x="913" y="-208.5" font-family="Helvetica,sans-Serif" font-size="10.00">bio/meta/type_traits</text>
<text text-anchor="start" x="913" y="-197.5" font-family="Helvetica,sans-Serif" font-size="10.00">/transformation_trait</text>
<text text-anchor="middle" x="964" y="-186.5" font-family="Helvetica,sans-Serif" font-size="10.00">_or.hpp</text>
</a>
</g>
</g>
<!-- Node27&#45;&gt;Node28 -->
<g id="edge49" class="edge">
<title>Node27&#45;&gt;Node28</title>
<path fill="none" stroke="midnightblue" d="M715.15,-259.09C763.32,-250.17 828.88,-237.26 894.99,-221.16"/>
<polygon fill="midnightblue" stroke="midnightblue" points="895.87,-224.55 904.74,-218.76 894.2,-217.75 895.87,-224.55"/>
</g>
<!-- Node28&#45;&gt;Node5 -->
<g id="edge50" class="edge">
<title>Node28&#45;&gt;Node5</title>
<path fill="none" stroke="midnightblue" d="M1003.23,-179.4C1030.98,-162.76 1060.54,-137.59 1044,-112 1031.65,-92.9 1009.05,-81.83 988.46,-75.45"/>
<polygon fill="midnightblue" stroke="midnightblue" points="989.14,-72.01 978.57,-72.68 987.25,-78.75 989.14,-72.01"/>
</g>
<!-- Node29 -->
<g id="node29" class="node">
<title>Node29</title>
<g id="a_node29"><a xlink:href="meta_2type__traits_2concept_8hpp.html" target="_top" xlink:title="Provides the concepts bio::meta::transformation_trait and bio::meta::unary_type_trait.">
<polygon fill="white" stroke="black" points="886,-112.5 886,-142.5 1002,-142.5 1002,-112.5 886,-112.5"/>
<text text-anchor="start" x="894" y="-130.5" font-family="Helvetica,sans-Serif" font-size="10.00">bio/meta/type_traits</text>
<text text-anchor="middle" x="944" y="-119.5" font-family="Helvetica,sans-Serif" font-size="10.00">/concept.hpp</text>
</a>
</g>
</g>
<!-- Node28&#45;&gt;Node29 -->
<g id="edge51" class="edge">
<title>Node28&#45;&gt;Node29</title>
<path fill="none" stroke="midnightblue" d="M958.43,-179.36C956.07,-171.05 953.3,-161.28 950.82,-152.53"/>
<polygon fill="midnightblue" stroke="midnightblue" points="954.18,-151.56 948.08,-142.89 947.44,-153.47 954.18,-151.56"/>
</g>
<!-- Node29&#45;&gt;Node5 -->
<g id="edge52" class="edge">
<title>Node29&#45;&gt;Node5</title>
<path fill="none" stroke="midnightblue" d="M944,-112.4C944,-104.47 944,-94.46 944,-85.86"/>
<polygon fill="midnightblue" stroke="midnightblue" points="947.5,-85.66 944,-75.66 940.5,-85.66 947.5,-85.66"/>
</g>
<!-- Node29&#45;&gt;Node11 -->
<g id="edge53" class="edge">
<title>Node29&#45;&gt;Node11</title>
<path fill="none" stroke="midnightblue" d="M885.91,-113.87C882.9,-113.23 879.91,-112.61 877,-112 816.71,-99.42 747.16,-85.55 701.76,-76.58"/>
<polygon fill="midnightblue" stroke="midnightblue" points="702.37,-73.13 691.88,-74.63 701.02,-80 702.37,-73.13"/>
</g>
</g>
</svg>
