<?xml version="1.0" encoding="UTF-8" standalone="no"?>
<!DOCTYPE svg PUBLIC "-//W3C//DTD SVG 1.1//EN"
 "http://www.w3.org/Graphics/SVG/1.1/DTD/svg11.dtd">
<!-- Generated by graphviz version 2.42.2 ()
 -->
<!-- Title: bio/alphabet/quality/qualified.hpp Pages: 1 -->
<svg width="282pt" height="229pt"
 viewBox="0.00 0.00 281.50 229.00" xmlns="http://www.w3.org/2000/svg" xmlns:xlink="http://www.w3.org/1999/xlink">
<g id="graph0" class="graph" transform="scale(1 1) rotate(0) translate(4 225)">
<title>bio/alphabet/quality/qualified.hpp</title>
<polygon fill="white" stroke="transparent" points="-4,4 -4,-225 277.5,-225 277.5,4 -4,4"/>
<!-- Node1 -->
<g id="node1" class="node">
<title>Node1</title>
<g id="a_node1"><a xlink:title="Provides quality alphabet composites.">
<polygon fill="#bfbfbf" stroke="black" points="79,-190.5 79,-220.5 180,-220.5 180,-190.5 79,-190.5"/>
<text text-anchor="start" x="87" y="-208.5" font-family="Helvetica,sans-Serif" font-size="10.00">bio/alphabet/quality</text>
<text text-anchor="middle" x="129.5" y="-197.5" font-family="Helvetica,sans-Serif" font-size="10.00">/qualified.hpp</text>
</a>
</g>
</g>
<!-- Node2 -->
<g id="node2" class="node">
<title>Node2</title>
<g id="a_node2"><a xlink:href="aliases_8hpp.html" target="_top" xlink:title="Provides aliases for qualified.">
<polygon fill="white" stroke="black" points="0,-123.5 0,-153.5 101,-153.5 101,-123.5 0,-123.5"/>
<text text-anchor="start" x="8" y="-141.5" font-family="Helvetica,sans-Serif" font-size="10.00">bio/alphabet/quality</text>
<text text-anchor="middle" x="50.5" y="-130.5" font-family="Helvetica,sans-Serif" font-size="10.00">/aliases.hpp</text>
</a>
</g>
</g>
<!-- Node1&#45;&gt;Node2 -->
<g id="edge1" class="edge">
<title>Node1&#45;&gt;Node2</title>
<path fill="none" stroke="midnightblue" d="M104.44,-183.88C92.44,-174.01 78.37,-162.43 67.61,-153.58"/>
<polygon fill="midnightblue" stroke="midnightblue" points="102.41,-186.75 112.36,-190.4 106.86,-181.34 102.41,-186.75"/>
</g>
<!-- Node3 -->
<g id="node3" class="node">
<title>Node3</title>
<g id="a_node3"><a xlink:href="alphabet_2quality_2all_8hpp.html" target="_top" xlink:title="Meta&#45;header that includes all headers from alphabet/quality/.">
<polygon fill="white" stroke="black" points="16,-56.5 16,-86.5 117,-86.5 117,-56.5 16,-56.5"/>
<text text-anchor="start" x="24" y="-74.5" font-family="Helvetica,sans-Serif" font-size="10.00">bio/alphabet/quality</text>
<text text-anchor="middle" x="66.5" y="-63.5" font-family="Helvetica,sans-Serif" font-size="10.00">/all.hpp</text>
</a>
</g>
</g>
<!-- Node1&#45;&gt;Node3 -->
<g id="edge4" class="edge">
<title>Node1&#45;&gt;Node3</title>
<path fill="none" stroke="midnightblue" d="M126.97,-180.12C124.48,-163.34 119.67,-140.93 110.5,-123 103.4,-109.13 91.68,-95.94 82.12,-86.52"/>
<polygon fill="midnightblue" stroke="midnightblue" points="123.52,-180.77 128.28,-190.23 130.46,-179.86 123.52,-180.77"/>
</g>
<!-- Node5 -->
<g id="node5" class="node">
<title>Node5</title>
<g id="a_node5"><a xlink:href="trim__quality_8hpp.html" target="_top" xlink:title="Provides bio::views::trim_quality.">
<polygon fill="white" stroke="black" points="157.5,-123.5 157.5,-153.5 267.5,-153.5 267.5,-123.5 157.5,-123.5"/>
<text text-anchor="start" x="165.5" y="-141.5" font-family="Helvetica,sans-Serif" font-size="10.00">bio/ranges/views/trim</text>
<text text-anchor="middle" x="212.5" y="-130.5" font-family="Helvetica,sans-Serif" font-size="10.00">_quality.hpp</text>
</a>
</g>
</g>
<!-- Node1&#45;&gt;Node5 -->
<g id="edge5" class="edge">
<title>Node1&#45;&gt;Node5</title>
<path fill="none" stroke="midnightblue" d="M155.46,-184.17C168.15,-174.23 183.11,-162.51 194.53,-153.58"/>
<polygon fill="midnightblue" stroke="midnightblue" points="153.22,-181.47 147.51,-190.4 157.54,-186.99 153.22,-181.47"/>
</g>
<!-- Node2&#45;&gt;Node3 -->
<g id="edge2" class="edge">
<title>Node2&#45;&gt;Node3</title>
<path fill="none" stroke="midnightblue" d="M56.43,-113.4C58.66,-104.37 61.11,-94.41 63.04,-86.58"/>
<polygon fill="midnightblue" stroke="midnightblue" points="52.96,-112.85 53.97,-123.4 59.76,-114.52 52.96,-112.85"/>
</g>
<!-- Node4 -->
<g id="node4" class="node">
<title>Node4</title>
<g id="a_node4"><a xlink:href="alphabet_2all_8hpp.html" target="_top" xlink:title="Meta&#45;header for the alphabet module.">
<polygon fill="white" stroke="black" points="16,-0.5 16,-19.5 117,-19.5 117,-0.5 16,-0.5"/>
<text text-anchor="middle" x="66.5" y="-7.5" font-family="Helvetica,sans-Serif" font-size="10.00">bio/alphabet/all.hpp</text>
</a>
</g>
</g>
<!-- Node3&#45;&gt;Node4 -->
<g id="edge3" class="edge">
<title>Node3&#45;&gt;Node4</title>
<path fill="none" stroke="midnightblue" d="M66.5,-46.29C66.5,-36.86 66.5,-26.65 66.5,-19.66"/>
<polygon fill="midnightblue" stroke="midnightblue" points="63,-46.4 66.5,-56.4 70,-46.4 63,-46.4"/>
</g>
<!-- Node6 -->
<g id="node6" class="node">
<title>Node6</title>
<g id="a_node6"><a xlink:href="ranges_2views_2all_8hpp.html" target="_top" xlink:title="Meta&#45;header for the views submodule .">
<polygon fill="white" stroke="black" points="151.5,-62 151.5,-81 273.5,-81 273.5,-62 151.5,-62"/>
<text text-anchor="middle" x="212.5" y="-69" font-family="Helvetica,sans-Serif" font-size="10.00">bio/ranges/views/all.hpp</text>
</a>
</g>
</g>
<!-- Node5&#45;&gt;Node6 -->
<g id="edge6" class="edge">
<title>Node5&#45;&gt;Node6</title>
<path fill="none" stroke="midnightblue" d="M212.5,-113.25C212.5,-102.02 212.5,-89.38 212.5,-81.19"/>
<polygon fill="midnightblue" stroke="midnightblue" points="209,-113.4 212.5,-123.4 216,-113.4 209,-113.4"/>
</g>
</g>
</svg>
