<?xml version="1.0" encoding="UTF-8" standalone="no"?>
<!DOCTYPE svg PUBLIC "-//W3C//DTD SVG 1.1//EN"
 "http://www.w3.org/Graphics/SVG/1.1/DTD/svg11.dtd">
<!-- Generated by graphviz version 2.43.0 (0)
 -->
<!-- Title: bio/alphabet/quality/qualified.hpp Pages: 1 -->
<svg width="307pt" height="229pt"
 viewBox="0.00 0.00 306.50 229.00" xmlns="http://www.w3.org/2000/svg" xmlns:xlink="http://www.w3.org/1999/xlink">
<g id="graph0" class="graph" transform="scale(1 1) rotate(0) translate(4 225)">
<title>bio/alphabet/quality/qualified.hpp</title>
<polygon fill="white" stroke="transparent" points="-4,4 -4,-225 302.5,-225 302.5,4 -4,4"/>
<!-- Node1 -->
<g id="node1" class="node">
<title>Node1</title>
<g id="a_node1"><a xlink:title="Provides quality alphabet composites.">
<polygon fill="#bfbfbf" stroke="black" points="85,-190.5 85,-220.5 199,-220.5 199,-190.5 85,-190.5"/>
<text text-anchor="start" x="93" y="-208.5" font-family="Helvetica,sans-Serif" font-size="10.00">bio/alphabet/quality</text>
<text text-anchor="middle" x="142" y="-197.5" font-family="Helvetica,sans-Serif" font-size="10.00">/qualified.hpp</text>
</a>
</g>
</g>
<!-- Node2 -->
<g id="node2" class="node">
<title>Node2</title>
<g id="a_node2"><a xlink:href="aliases_8hpp.html" target="_top" xlink:title="Provides aliases for qualified.">
<polygon fill="white" stroke="black" points="0,-123.5 0,-153.5 114,-153.5 114,-123.5 0,-123.5"/>
<text text-anchor="start" x="8" y="-141.5" font-family="Helvetica,sans-Serif" font-size="10.00">bio/alphabet/quality</text>
<text text-anchor="middle" x="57" y="-130.5" font-family="Helvetica,sans-Serif" font-size="10.00">/aliases.hpp</text>
</a>
</g>
</g>
<!-- Node1&#45;&gt;Node2 -->
<g id="edge1" class="edge">
<title>Node1&#45;&gt;Node2</title>
<path fill="none" stroke="midnightblue" d="M115.41,-184.17C102.41,-174.23 87.1,-162.51 75.41,-153.58"/>
<polygon fill="midnightblue" stroke="midnightblue" points="113.49,-187.1 123.56,-190.4 117.74,-181.54 113.49,-187.1"/>
</g>
<!-- Node3 -->
<g id="node3" class="node">
<title>Node3</title>
<g id="a_node3"><a xlink:href="alphabet_2quality_2all_8hpp.html" target="_top" xlink:title="Meta&#45;header that includes all headers from alphabet/quality/.">
<polygon fill="white" stroke="black" points="16,-56.5 16,-86.5 130,-86.5 130,-56.5 16,-56.5"/>
<text text-anchor="start" x="24" y="-74.5" font-family="Helvetica,sans-Serif" font-size="10.00">bio/alphabet/quality</text>
<text text-anchor="middle" x="73" y="-63.5" font-family="Helvetica,sans-Serif" font-size="10.00">/all.hpp</text>
</a>
</g>
</g>
<!-- Node1&#45;&gt;Node3 -->
<g id="edge4" class="edge">
<title>Node1&#45;&gt;Node3</title>
<path fill="none" stroke="midnightblue" d="M139.86,-180.23C137.56,-163.33 132.8,-140.73 123,-123 115.12,-108.75 102.08,-95.76 91.29,-86.53"/>
<polygon fill="midnightblue" stroke="midnightblue" points="136.42,-180.88 141.05,-190.41 143.37,-180.07 136.42,-180.88"/>
</g>
<!-- Node5 -->
<g id="node5" class="node">
<title>Node5</title>
<g id="a_node5"><a xlink:href="trim__quality_8hpp.html" target="_top" xlink:title="Provides bio::views::trim_quality.">
<polygon fill="white" stroke="black" points="170,-123.5 170,-153.5 292,-153.5 292,-123.5 170,-123.5"/>
<text text-anchor="start" x="178" y="-141.5" font-family="Helvetica,sans-Serif" font-size="10.00">bio/ranges/views/trim</text>
<text text-anchor="middle" x="231" y="-130.5" font-family="Helvetica,sans-Serif" font-size="10.00">_quality.hpp</text>
</a>
</g>
</g>
<!-- Node1&#45;&gt;Node5 -->
<g id="edge5" class="edge">
<title>Node1&#45;&gt;Node5</title>
<path fill="none" stroke="midnightblue" d="M169.45,-184.45C183.14,-174.45 199.37,-162.6 211.73,-153.58"/>
<polygon fill="midnightblue" stroke="midnightblue" points="167.32,-181.67 161.31,-190.4 171.45,-187.32 167.32,-181.67"/>
</g>
<!-- Node2&#45;&gt;Node3 -->
<g id="edge2" class="edge">
<title>Node2&#45;&gt;Node3</title>
<path fill="none" stroke="midnightblue" d="M62.93,-113.4C65.16,-104.37 67.61,-94.41 69.54,-86.58"/>
<polygon fill="midnightblue" stroke="midnightblue" points="59.46,-112.85 60.47,-123.4 66.26,-114.52 59.46,-112.85"/>
</g>
<!-- Node4 -->
<g id="node4" class="node">
<title>Node4</title>
<g id="a_node4"><a xlink:href="alphabet_2all_8hpp.html" target="_top" xlink:title="Meta&#45;header for the alphabet module.">
<polygon fill="white" stroke="black" points="16.5,-0.5 16.5,-19.5 129.5,-19.5 129.5,-0.5 16.5,-0.5"/>
<text text-anchor="middle" x="73" y="-7.5" font-family="Helvetica,sans-Serif" font-size="10.00">bio/alphabet/all.hpp</text>
</a>
</g>
</g>
<!-- Node3&#45;&gt;Node4 -->
<g id="edge3" class="edge">
<title>Node3&#45;&gt;Node4</title>
<path fill="none" stroke="midnightblue" d="M73,-46.29C73,-36.86 73,-26.65 73,-19.66"/>
<polygon fill="midnightblue" stroke="midnightblue" points="69.5,-46.4 73,-56.4 76.5,-46.4 69.5,-46.4"/>
</g>
<!-- Node6 -->
<g id="node6" class="node">
<title>Node6</title>
<g id="a_node6"><a xlink:href="ranges_2views_2all_8hpp.html" target="_top" xlink:title="Meta&#45;header for the views submodule .">
<polygon fill="white" stroke="black" points="163.5,-62 163.5,-81 298.5,-81 298.5,-62 163.5,-62"/>
<text text-anchor="middle" x="231" y="-69" font-family="Helvetica,sans-Serif" font-size="10.00">bio/ranges/views/all.hpp</text>
</a>
</g>
</g>
<!-- Node5&#45;&gt;Node6 -->
<g id="edge6" class="edge">
<title>Node5&#45;&gt;Node6</title>
<path fill="none" stroke="midnightblue" d="M231,-113.25C231,-102.02 231,-89.38 231,-81.19"/>
<polygon fill="midnightblue" stroke="midnightblue" points="227.5,-113.4 231,-123.4 234.5,-113.4 227.5,-113.4"/>
</g>
</g>
</svg>
