<?xml version="1.0" encoding="UTF-8" standalone="no"?>
<!DOCTYPE svg PUBLIC "-//W3C//DTD SVG 1.1//EN"
 "http://www.w3.org/Graphics/SVG/1.1/DTD/svg11.dtd">
<!-- Generated by graphviz version 2.43.0 (0)
 -->
<!-- Title: bio/alphabet/quality/quality_base.hpp Pages: 1 -->
<svg width="1067pt" height="397pt"
 viewBox="0.00 0.00 1067.00 397.00" xmlns="http://www.w3.org/2000/svg" xmlns:xlink="http://www.w3.org/1999/xlink">
<g id="graph0" class="graph" transform="scale(1 1) rotate(0) translate(4 393)">
<title>bio/alphabet/quality/quality_base.hpp</title>
<polygon fill="white" stroke="transparent" points="-4,4 -4,-393 1063,-393 1063,4 -4,4"/>
<!-- Node1 -->
<g id="node1" class="node">
<title>Node1</title>
<g id="a_node1"><a xlink:title="Provides bio::alphabet::phred42 quality scores.">
<polygon fill="#bfbfbf" stroke="black" points="512.5,-358.5 512.5,-388.5 626.5,-388.5 626.5,-358.5 512.5,-358.5"/>
<text text-anchor="start" x="520.5" y="-376.5" font-family="Helvetica,sans-Serif" font-size="10.00">bio/alphabet/quality</text>
<text text-anchor="middle" x="569.5" y="-365.5" font-family="Helvetica,sans-Serif" font-size="10.00">/quality_base.hpp</text>
</a>
</g>
</g>
<!-- Node2 -->
<g id="node2" class="node">
<title>Node2</title>
<g id="a_node2"><a xlink:href="alphabet__base_8hpp.html" target="_top" xlink:title="Provides bio::alphabet::alphabet_base.">
<polygon fill="white" stroke="black" points="371,-291.5 371,-321.5 494,-321.5 494,-291.5 371,-291.5"/>
<text text-anchor="start" x="379" y="-309.5" font-family="Helvetica,sans-Serif" font-size="10.00">bio/alphabet/alphabet</text>
<text text-anchor="middle" x="432.5" y="-298.5" font-family="Helvetica,sans-Serif" font-size="10.00">_base.hpp</text>
</a>
</g>
</g>
<!-- Node1&#45;&gt;Node2 -->
<g id="edge1" class="edge">
<title>Node1&#45;&gt;Node2</title>
<path fill="none" stroke="midnightblue" d="M539.77,-358.4C519.76,-348.9 493.15,-336.28 471.45,-325.98"/>
<polygon fill="midnightblue" stroke="midnightblue" points="472.7,-322.7 462.17,-321.58 469.7,-329.03 472.7,-322.7"/>
</g>
<!-- Node25 -->
<g id="node25" class="node">
<title>Node25</title>
<g id="a_node25"><a xlink:href="alphabet_2detail_2convert_8hpp_source.html" target="_top" xlink:title=" ">
<polygon fill="white" stroke="black" points="644.5,-291.5 644.5,-321.5 752.5,-321.5 752.5,-291.5 644.5,-291.5"/>
<text text-anchor="start" x="652.5" y="-309.5" font-family="Helvetica,sans-Serif" font-size="10.00">bio/alphabet/detail</text>
<text text-anchor="middle" x="698.5" y="-298.5" font-family="Helvetica,sans-Serif" font-size="10.00">/convert.hpp</text>
</a>
</g>
</g>
<!-- Node1&#45;&gt;Node25 -->
<g id="edge38" class="edge">
<title>Node1&#45;&gt;Node25</title>
<path fill="none" stroke="midnightblue" d="M597.49,-358.4C616.25,-348.94 641.17,-336.39 661.55,-326.12"/>
<polygon fill="midnightblue" stroke="midnightblue" points="663.21,-329.2 670.56,-321.58 660.06,-322.95 663.21,-329.2"/>
</g>
<!-- Node27 -->
<g id="node27" class="node">
<title>Node27</title>
<g id="a_node27"><a xlink:href="alphabet_2quality_2concept_8hpp.html" target="_top" xlink:title="Quality alphabet concept.">
<polygon fill="white" stroke="black" points="512.5,-291.5 512.5,-321.5 626.5,-321.5 626.5,-291.5 512.5,-291.5"/>
<text text-anchor="start" x="520.5" y="-309.5" font-family="Helvetica,sans-Serif" font-size="10.00">bio/alphabet/quality</text>
<text text-anchor="middle" x="569.5" y="-298.5" font-family="Helvetica,sans-Serif" font-size="10.00">/concept.hpp</text>
</a>
</g>
</g>
<!-- Node1&#45;&gt;Node27 -->
<g id="edge41" class="edge">
<title>Node1&#45;&gt;Node27</title>
<path fill="none" stroke="midnightblue" d="M569.5,-358.4C569.5,-350.64 569.5,-340.81 569.5,-331.86"/>
<polygon fill="midnightblue" stroke="midnightblue" points="573,-331.58 569.5,-321.58 566,-331.58 573,-331.58"/>
</g>
<!-- Node3 -->
<g id="node3" class="node">
<title>Node3</title>
<g id="a_node3"><a target="_blank" xlink:href="https://en.cppreference.com/w/cpp/header/cassert.html" xlink:title=" ">
<polygon fill="white" stroke="black" points="406.5,-235.5 406.5,-254.5 458.5,-254.5 458.5,-235.5 406.5,-235.5"/>
<text text-anchor="middle" x="432.5" y="-242.5" font-family="Helvetica,sans-Serif" font-size="10.00">cassert</text>
</a>
</g>
</g>
<!-- Node2&#45;&gt;Node3 -->
<g id="edge2" class="edge">
<title>Node2&#45;&gt;Node3</title>
<path fill="none" stroke="midnightblue" d="M432.5,-291.4C432.5,-283.47 432.5,-273.46 432.5,-264.86"/>
<polygon fill="midnightblue" stroke="midnightblue" points="436,-264.66 432.5,-254.66 429,-264.66 436,-264.66"/>
</g>
<!-- Node4 -->
<g id="node4" class="node">
<title>Node4</title>
<g id="a_node4"><a target="_blank" xlink:href="https://en.cppreference.com/w/cpp/header/concepts.html" xlink:title=" ">
<polygon fill="white" stroke="black" points="358.5,-112.5 358.5,-131.5 418.5,-131.5 418.5,-112.5 358.5,-112.5"/>
<text text-anchor="middle" x="388.5" y="-119.5" font-family="Helvetica,sans-Serif" font-size="10.00">concepts</text>
</a>
</g>
</g>
<!-- Node2&#45;&gt;Node4 -->
<g id="edge3" class="edge">
<title>Node2&#45;&gt;Node4</title>
<path fill="none" stroke="midnightblue" d="M445.62,-291.24C453.5,-281.73 462.87,-268.52 467.5,-255 480.03,-218.4 490.21,-201.29 470.5,-168 461.17,-152.23 444.13,-141.62 427.99,-134.68"/>
<polygon fill="midnightblue" stroke="midnightblue" points="429.24,-131.42 418.66,-131.01 426.68,-137.93 429.24,-131.42"/>
</g>
<!-- Node5 -->
<g id="node5" class="node">
<title>Node5</title>
<g id="a_node5"><a target="_blank" xlink:href="https://en.cppreference.com/w/cpp/header/type_traits.html" xlink:title=" ">
<polygon fill="white" stroke="black" points="136,-112.5 136,-131.5 205,-131.5 205,-112.5 136,-112.5"/>
<text text-anchor="middle" x="170.5" y="-119.5" font-family="Helvetica,sans-Serif" font-size="10.00">type_traits</text>
</a>
</g>
</g>
<!-- Node2&#45;&gt;Node5 -->
<g id="edge4" class="edge">
<title>Node2&#45;&gt;Node5</title>
<path fill="none" stroke="midnightblue" d="M370.72,-299.7C308.32,-290.19 214.98,-265.09 170.5,-199 159.25,-182.28 161.42,-158.45 165.01,-141.96"/>
<polygon fill="midnightblue" stroke="midnightblue" points="168.5,-142.44 167.57,-131.88 161.71,-140.71 168.5,-142.44"/>
</g>
<!-- Node6 -->
<g id="node6" class="node">
<title>Node6</title>
<g id="a_node6"><a xlink:href="alphabet_2concept_8hpp.html" target="_top" xlink:title="Core alphabet concept and free function/type trait wrappers.">
<polygon fill="white" stroke="black" points="517.5,-235.5 517.5,-254.5 657.5,-254.5 657.5,-235.5 517.5,-235.5"/>
<text text-anchor="middle" x="587.5" y="-242.5" font-family="Helvetica,sans-Serif" font-size="10.00">bio/alphabet/concept.hpp</text>
</a>
</g>
</g>
<!-- Node2&#45;&gt;Node6 -->
<g id="edge5" class="edge">
<title>Node2&#45;&gt;Node6</title>
<path fill="none" stroke="midnightblue" d="M469.23,-291.4C495.47,-281.33 530.43,-267.91 555.52,-258.28"/>
<polygon fill="midnightblue" stroke="midnightblue" points="556.86,-261.51 564.95,-254.66 554.36,-254.97 556.86,-261.51"/>
</g>
<!-- Node23 -->
<g id="node23" class="node">
<title>Node23</title>
<g id="a_node23"><a xlink:href="int__types_8hpp.html" target="_top" xlink:title="Provides metaprogramming utilities for integer types.">
<polygon fill="white" stroke="black" points="0,-168.5 0,-198.5 107,-198.5 107,-168.5 0,-168.5"/>
<text text-anchor="start" x="8" y="-186.5" font-family="Helvetica,sans-Serif" font-size="10.00">bio/meta/detail/int</text>
<text text-anchor="middle" x="53.5" y="-175.5" font-family="Helvetica,sans-Serif" font-size="10.00">_types.hpp</text>
</a>
</g>
</g>
<!-- Node2&#45;&gt;Node23 -->
<g id="edge33" class="edge">
<title>Node2&#45;&gt;Node23</title>
<path fill="none" stroke="midnightblue" d="M370.86,-300.13C292.92,-292.56 163.78,-277.13 121.5,-255 100.02,-243.76 81.37,-223.16 69.06,-207.13"/>
<polygon fill="midnightblue" stroke="midnightblue" points="71.65,-204.74 62.9,-198.78 66.02,-208.9 71.65,-204.74"/>
</g>
<!-- Node6&#45;&gt;Node5 -->
<g id="edge6" class="edge">
<title>Node6&#45;&gt;Node5</title>
<path fill="none" stroke="midnightblue" d="M517.36,-238.03C407.18,-228.37 204.74,-209.34 192.5,-199 175.97,-185.04 171.45,-159.49 170.42,-141.9"/>
<polygon fill="midnightblue" stroke="midnightblue" points="173.92,-141.59 170.16,-131.68 166.92,-141.77 173.92,-141.59"/>
</g>
<!-- Node7 -->
<g id="node7" class="node">
<title>Node7</title>
<g id="a_node7"><a xlink:href="alphabet_2biocpp_8hpp.html" target="_top" xlink:title="Module header with module&#45;wide definitions.">
<polygon fill="white" stroke="black" points="855.5,-112.5 855.5,-131.5 989.5,-131.5 989.5,-112.5 855.5,-112.5"/>
<text text-anchor="middle" x="922.5" y="-119.5" font-family="Helvetica,sans-Serif" font-size="10.00">bio/alphabet/biocpp.hpp</text>
</a>
</g>
</g>
<!-- Node6&#45;&gt;Node7 -->
<g id="edge7" class="edge">
<title>Node6&#45;&gt;Node7</title>
<path fill="none" stroke="midnightblue" d="M646.07,-235.48C703.72,-226.58 787.37,-212.09 817.5,-199 852.17,-183.93 886.56,-155.91 906.1,-138.43"/>
<polygon fill="midnightblue" stroke="midnightblue" points="908.5,-140.97 913.52,-131.65 903.78,-135.81 908.5,-140.97"/>
</g>
<!-- Node12 -->
<g id="node12" class="node">
<title>Node12</title>
<g id="a_node12"><a xlink:href="exception_8hpp.html" target="_top" xlink:title="Exceptions thrown by entities in the alphabet module.">
<polygon fill="white" stroke="black" points="659,-174 659,-193 808,-193 808,-174 659,-174"/>
<text text-anchor="middle" x="733.5" y="-181" font-family="Helvetica,sans-Serif" font-size="10.00">bio/alphabet/exception.hpp</text>
</a>
</g>
</g>
<!-- Node6&#45;&gt;Node12 -->
<g id="edge12" class="edge">
<title>Node6&#45;&gt;Node12</title>
<path fill="none" stroke="midnightblue" d="M608.42,-235.48C633.25,-225.36 674.84,-208.4 703.19,-196.85"/>
<polygon fill="midnightblue" stroke="midnightblue" points="704.68,-200.02 712.62,-193.01 702.04,-193.54 704.68,-200.02"/>
</g>
<!-- Node15 -->
<g id="node15" class="node">
<title>Node15</title>
<g id="a_node15"><a xlink:href="core__language_8hpp.html" target="_top" xlink:title="Provides concepts for core language types and relations that don&#39;t have concepts in C++20 (yet).">
<polygon fill="white" stroke="black" points="336,-168.5 336,-198.5 461,-198.5 461,-168.5 336,-168.5"/>
<text text-anchor="start" x="344" y="-186.5" font-family="Helvetica,sans-Serif" font-size="10.00">bio/meta/concept/core</text>
<text text-anchor="middle" x="398.5" y="-175.5" font-family="Helvetica,sans-Serif" font-size="10.00">_language.hpp</text>
</a>
</g>
</g>
<!-- Node6&#45;&gt;Node15 -->
<g id="edge17" class="edge">
<title>Node6&#45;&gt;Node15</title>
<path fill="none" stroke="midnightblue" d="M560.42,-235.48C532.43,-226.66 487.98,-212.67 452.72,-201.57"/>
<polygon fill="midnightblue" stroke="midnightblue" points="453.63,-198.19 443.04,-198.52 451.53,-204.86 453.63,-198.19"/>
</g>
<!-- Node16 -->
<g id="node16" class="node">
<title>Node16</title>
<g id="a_node16"><a xlink:href="priority__tag_8hpp.html" target="_top" xlink:title="provides bio::meta::detail::priority_tag.">
<polygon fill="white" stroke="black" points="930,-168.5 930,-198.5 1059,-198.5 1059,-168.5 930,-168.5"/>
<text text-anchor="start" x="938" y="-186.5" font-family="Helvetica,sans-Serif" font-size="10.00">bio/meta/detail/priority</text>
<text text-anchor="middle" x="994.5" y="-175.5" font-family="Helvetica,sans-Serif" font-size="10.00">_tag.hpp</text>
</a>
</g>
</g>
<!-- Node6&#45;&gt;Node16 -->
<g id="edge21" class="edge">
<title>Node6&#45;&gt;Node16</title>
<path fill="none" stroke="midnightblue" d="M645.81,-235.48C717.86,-224.94 840.57,-207 919.55,-195.46"/>
<polygon fill="midnightblue" stroke="midnightblue" points="920.52,-198.85 929.91,-193.94 919.51,-191.93 920.52,-198.85"/>
</g>
<!-- Node17 -->
<g id="node17" class="node">
<title>Node17</title>
<g id="a_node17"><a xlink:href="type__inspection_8hpp.html" target="_top" xlink:title="Provides traits to inspect some information of a type, for example its name.">
<polygon fill="white" stroke="black" points="524.5,-168.5 524.5,-198.5 640.5,-198.5 640.5,-168.5 524.5,-168.5"/>
<text text-anchor="start" x="532.5" y="-186.5" font-family="Helvetica,sans-Serif" font-size="10.00">bio/meta/detail/type</text>
<text text-anchor="middle" x="582.5" y="-175.5" font-family="Helvetica,sans-Serif" font-size="10.00">_inspection.hpp</text>
</a>
</g>
</g>
<!-- Node6&#45;&gt;Node17 -->
<g id="edge23" class="edge">
<title>Node6&#45;&gt;Node17</title>
<path fill="none" stroke="midnightblue" d="M586.78,-235.48C586.2,-228.47 585.33,-218.19 584.53,-208.7"/>
<polygon fill="midnightblue" stroke="midnightblue" points="588,-208.19 583.68,-198.52 581.03,-208.78 588,-208.19"/>
</g>
<!-- Node21 -->
<g id="node21" class="node">
<title>Node21</title>
<g id="a_node21"><a xlink:href="basic_8hpp.html" target="_top" xlink:title="Provides various type traits on generic types.">
<polygon fill="white" stroke="black" points="201.5,-168.5 201.5,-198.5 317.5,-198.5 317.5,-168.5 201.5,-168.5"/>
<text text-anchor="start" x="209.5" y="-186.5" font-family="Helvetica,sans-Serif" font-size="10.00">bio/meta/type_traits</text>
<text text-anchor="middle" x="259.5" y="-175.5" font-family="Helvetica,sans-Serif" font-size="10.00">/basic.hpp</text>
</a>
</g>
</g>
<!-- Node6&#45;&gt;Node21 -->
<g id="edge29" class="edge">
<title>Node6&#45;&gt;Node21</title>
<path fill="none" stroke="midnightblue" d="M534.61,-235.46C484.15,-227.18 405.77,-213.95 327.72,-198.99"/>
<polygon fill="midnightblue" stroke="midnightblue" points="328.19,-195.52 317.71,-197.07 326.87,-202.39 328.19,-195.52"/>
</g>
<!-- Node8 -->
<g id="node8" class="node">
<title>Node8</title>
<g id="a_node8"><a xlink:href="platform_8hpp.html" target="_top" xlink:title="Provides platform and dependency checks.">
<polygon fill="white" stroke="black" points="325.5,-56.5 325.5,-75.5 451.5,-75.5 451.5,-56.5 325.5,-56.5"/>
<text text-anchor="middle" x="388.5" y="-63.5" font-family="Helvetica,sans-Serif" font-size="10.00">bio/meta/platform.hpp</text>
</a>
</g>
</g>
<!-- Node7&#45;&gt;Node8 -->
<g id="edge8" class="edge">
<title>Node7&#45;&gt;Node8</title>
<path fill="none" stroke="midnightblue" d="M855.37,-112.98C852.37,-112.64 849.41,-112.31 846.5,-112 710.74,-97.29 552.11,-82.17 461.66,-73.74"/>
<polygon fill="midnightblue" stroke="midnightblue" points="461.79,-70.23 451.51,-72.79 461.14,-77.2 461.79,-70.23"/>
</g>
<!-- Node9 -->
<g id="node9" class="node">
<title>Node9</title>
<g id="a_node9"><a target="_blank" xlink:href="https://en.cppreference.com/w/cpp/header/cinttypes.html" xlink:title=" ">
<polygon fill="white" stroke="black" points="281.5,-0.5 281.5,-19.5 343.5,-19.5 343.5,-0.5 281.5,-0.5"/>
<text text-anchor="middle" x="312.5" y="-7.5" font-family="Helvetica,sans-Serif" font-size="10.00">cinttypes</text>
</a>
</g>
</g>
<!-- Node8&#45;&gt;Node9 -->
<g id="edge9" class="edge">
<title>Node8&#45;&gt;Node9</title>
<path fill="none" stroke="midnightblue" d="M376.29,-56.32C364.72,-48.11 347.12,-35.6 333.34,-25.81"/>
<polygon fill="midnightblue" stroke="midnightblue" points="335.11,-22.77 324.93,-19.83 331.06,-28.48 335.11,-22.77"/>
</g>
<!-- Node10 -->
<g id="node10" class="node">
<title>Node10</title>
<g id="a_node10"><a target="_blank" xlink:href="https://en.cppreference.com/w/cpp/header/ciso646.html" xlink:title=" ">
<polygon fill="white" stroke="black" points="361.5,-0.5 361.5,-19.5 415.5,-19.5 415.5,-0.5 361.5,-0.5"/>
<text text-anchor="middle" x="388.5" y="-7.5" font-family="Helvetica,sans-Serif" font-size="10.00">ciso646</text>
</a>
</g>
</g>
<!-- Node8&#45;&gt;Node10 -->
<g id="edge10" class="edge">
<title>Node8&#45;&gt;Node10</title>
<path fill="none" stroke="midnightblue" d="M388.5,-56.08C388.5,-49.01 388.5,-38.86 388.5,-29.99"/>
<polygon fill="midnightblue" stroke="midnightblue" points="392,-29.75 388.5,-19.75 385,-29.75 392,-29.75"/>
</g>
<!-- Node11 -->
<g id="node11" class="node">
<title>Node11</title>
<g id="a_node11"><a target="_blank" xlink:href="https://en.cppreference.com/w/cpp/header/cstddef.html" xlink:title=" ">
<polygon fill="white" stroke="black" points="434,-0.5 434,-19.5 487,-19.5 487,-0.5 434,-0.5"/>
<text text-anchor="middle" x="460.5" y="-7.5" font-family="Helvetica,sans-Serif" font-size="10.00">cstddef</text>
</a>
</g>
</g>
<!-- Node8&#45;&gt;Node11 -->
<g id="edge11" class="edge">
<title>Node8&#45;&gt;Node11</title>
<path fill="none" stroke="midnightblue" d="M400.07,-56.32C410.92,-48.18 427.38,-35.84 440.38,-26.09"/>
<polygon fill="midnightblue" stroke="midnightblue" points="442.82,-28.63 448.72,-19.83 438.62,-23.03 442.82,-28.63"/>
</g>
<!-- Node12&#45;&gt;Node4 -->
<g id="edge13" class="edge">
<title>Node12&#45;&gt;Node4</title>
<path fill="none" stroke="midnightblue" d="M684.2,-173.99C672.8,-172.02 660.73,-169.94 649.5,-168 571.29,-154.51 479.89,-138.75 428.64,-129.92"/>
<polygon fill="midnightblue" stroke="midnightblue" points="429.09,-126.44 418.64,-128.19 427.9,-133.34 429.09,-126.44"/>
</g>
<!-- Node12&#45;&gt;Node7 -->
<g id="edge16" class="edge">
<title>Node12&#45;&gt;Node7</title>
<path fill="none" stroke="midnightblue" d="M760.58,-173.98C793.42,-163.64 848.93,-146.16 885.65,-134.6"/>
<polygon fill="midnightblue" stroke="midnightblue" points="886.98,-137.85 895.47,-131.51 884.88,-131.17 886.98,-137.85"/>
</g>
<!-- Node13 -->
<g id="node13" class="node">
<title>Node13</title>
<g id="a_node13"><a target="_blank" xlink:href="https://en.cppreference.com/w/cpp/header/stdexcept.html" xlink:title=" ">
<polygon fill="white" stroke="black" points="772,-112.5 772,-131.5 837,-131.5 837,-112.5 772,-112.5"/>
<text text-anchor="middle" x="804.5" y="-119.5" font-family="Helvetica,sans-Serif" font-size="10.00">stdexcept</text>
</a>
</g>
</g>
<!-- Node12&#45;&gt;Node13 -->
<g id="edge14" class="edge">
<title>Node12&#45;&gt;Node13</title>
<path fill="none" stroke="midnightblue" d="M743.67,-173.98C754.85,-164.61 773.02,-149.38 786.59,-138.01"/>
<polygon fill="midnightblue" stroke="midnightblue" points="788.93,-140.61 794.35,-131.51 784.43,-135.25 788.93,-140.61"/>
</g>
<!-- Node14 -->
<g id="node14" class="node">
<title>Node14</title>
<g id="a_node14"><a target="_blank" xlink:href="https://en.cppreference.com/w/cpp/header/string.html" xlink:title=" ">
<polygon fill="white" stroke="black" points="709.5,-112.5 709.5,-131.5 753.5,-131.5 753.5,-112.5 709.5,-112.5"/>
<text text-anchor="middle" x="731.5" y="-119.5" font-family="Helvetica,sans-Serif" font-size="10.00">string</text>
</a>
</g>
</g>
<!-- Node12&#45;&gt;Node14 -->
<g id="edge15" class="edge">
<title>Node12&#45;&gt;Node14</title>
<path fill="none" stroke="midnightblue" d="M733.21,-173.98C732.93,-165.58 732.49,-152.48 732.13,-141.66"/>
<polygon fill="midnightblue" stroke="midnightblue" points="735.62,-141.39 731.79,-131.51 728.62,-141.62 735.62,-141.39"/>
</g>
<!-- Node15&#45;&gt;Node4 -->
<g id="edge20" class="edge">
<title>Node15&#45;&gt;Node4</title>
<path fill="none" stroke="midnightblue" d="M396.13,-168.4C394.78,-160.38 393.08,-150.23 391.62,-141.57"/>
<polygon fill="midnightblue" stroke="midnightblue" points="395.06,-140.94 389.96,-131.66 388.16,-142.1 395.06,-140.94"/>
</g>
<!-- Node15&#45;&gt;Node5 -->
<g id="edge18" class="edge">
<title>Node15&#45;&gt;Node5</title>
<path fill="none" stroke="midnightblue" d="M344.76,-168.47C304.56,-157.99 250.35,-143.84 213.12,-134.12"/>
<polygon fill="midnightblue" stroke="midnightblue" points="213.66,-130.64 203.1,-131.51 211.89,-137.42 213.66,-130.64"/>
</g>
<!-- Node15&#45;&gt;Node8 -->
<g id="edge19" class="edge">
<title>Node15&#45;&gt;Node8</title>
<path fill="none" stroke="midnightblue" d="M378.66,-168.33C367.82,-159.31 355.42,-146.6 349.5,-132 342.23,-114.06 356.19,-95.27 369.39,-82.53"/>
<polygon fill="midnightblue" stroke="midnightblue" points="371.8,-85.07 376.91,-75.79 367.13,-79.86 371.8,-85.07"/>
</g>
<!-- Node16&#45;&gt;Node8 -->
<g id="edge22" class="edge">
<title>Node16&#45;&gt;Node8</title>
<path fill="none" stroke="midnightblue" d="M1000.67,-168.3C1006.49,-152.43 1012.43,-127 998.5,-112 962.67,-73.43 616.27,-67.61 461.99,-66.95"/>
<polygon fill="midnightblue" stroke="midnightblue" points="461.68,-63.45 451.67,-66.91 461.66,-70.45 461.68,-63.45"/>
</g>
<!-- Node17&#45;&gt;Node8 -->
<g id="edge28" class="edge">
<title>Node17&#45;&gt;Node8</title>
<path fill="none" stroke="midnightblue" d="M542.72,-168.42C519.66,-159.48 490.52,-146.82 466.5,-132 443.46,-117.79 420,-97.24 404.91,-83.07"/>
<polygon fill="midnightblue" stroke="midnightblue" points="407.09,-80.31 397.44,-75.93 402.25,-85.37 407.09,-80.31"/>
</g>
<!-- Node17&#45;&gt;Node14 -->
<g id="edge26" class="edge">
<title>Node17&#45;&gt;Node14</title>
<path fill="none" stroke="midnightblue" d="M617.81,-168.4C642.92,-158.37 676.34,-145.03 700.44,-135.4"/>
<polygon fill="midnightblue" stroke="midnightblue" points="701.83,-138.62 709.82,-131.66 699.23,-132.12 701.83,-138.62"/>
</g>
<!-- Node18 -->
<g id="node18" class="node">
<title>Node18</title>
<g id="a_node18"><a target="_blank" xlink:href="https://en.cppreference.com/w/cpp/header/functional.html" xlink:title=" ">
<polygon fill="white" stroke="black" points="550,-112.5 550,-131.5 615,-131.5 615,-112.5 550,-112.5"/>
<text text-anchor="middle" x="582.5" y="-119.5" font-family="Helvetica,sans-Serif" font-size="10.00">functional</text>
</a>
</g>
</g>
<!-- Node17&#45;&gt;Node18 -->
<g id="edge24" class="edge">
<title>Node17&#45;&gt;Node18</title>
<path fill="none" stroke="midnightblue" d="M582.5,-168.4C582.5,-160.47 582.5,-150.46 582.5,-141.86"/>
<polygon fill="midnightblue" stroke="midnightblue" points="586,-141.66 582.5,-131.66 579,-141.66 586,-141.66"/>
</g>
<!-- Node19 -->
<g id="node19" class="node">
<title>Node19</title>
<g id="a_node19"><a target="_blank" xlink:href="https://en.cppreference.com/w/cpp/header/memory.html" xlink:title=" ">
<polygon fill="white" stroke="black" points="633.5,-112.5 633.5,-131.5 691.5,-131.5 691.5,-112.5 633.5,-112.5"/>
<text text-anchor="middle" x="662.5" y="-119.5" font-family="Helvetica,sans-Serif" font-size="10.00">memory</text>
</a>
</g>
</g>
<!-- Node17&#45;&gt;Node19 -->
<g id="edge25" class="edge">
<title>Node17&#45;&gt;Node19</title>
<path fill="none" stroke="midnightblue" d="M601.46,-168.4C613.92,-159.13 630.2,-147.03 642.81,-137.65"/>
<polygon fill="midnightblue" stroke="midnightblue" points="644.92,-140.43 650.86,-131.66 640.75,-134.82 644.92,-140.43"/>
</g>
<!-- Node20 -->
<g id="node20" class="node">
<title>Node20</title>
<g id="a_node20"><a target="_blank" xlink:href="https://en.cppreference.com/w/cpp/header/typeinfo.html" xlink:title=" ">
<polygon fill="white" stroke="black" points="475,-112.5 475,-131.5 532,-131.5 532,-112.5 475,-112.5"/>
<text text-anchor="middle" x="503.5" y="-119.5" font-family="Helvetica,sans-Serif" font-size="10.00">typeinfo</text>
</a>
</g>
</g>
<!-- Node17&#45;&gt;Node20 -->
<g id="edge27" class="edge">
<title>Node17&#45;&gt;Node20</title>
<path fill="none" stroke="midnightblue" d="M563.78,-168.4C551.59,-159.22 535.71,-147.26 523.31,-137.92"/>
<polygon fill="midnightblue" stroke="midnightblue" points="525.09,-134.88 515,-131.66 520.88,-140.47 525.09,-134.88"/>
</g>
<!-- Node21&#45;&gt;Node5 -->
<g id="edge31" class="edge">
<title>Node21&#45;&gt;Node5</title>
<path fill="none" stroke="midnightblue" d="M238.41,-168.4C224.41,-159.04 206.09,-146.79 192.01,-137.38"/>
<polygon fill="midnightblue" stroke="midnightblue" points="193.71,-134.31 183.45,-131.66 189.82,-140.13 193.71,-134.31"/>
</g>
<!-- Node21&#45;&gt;Node8 -->
<g id="edge32" class="edge">
<title>Node21&#45;&gt;Node8</title>
<path fill="none" stroke="midnightblue" d="M275.32,-168.34C299.62,-146.58 345.95,-105.09 371.15,-82.54"/>
<polygon fill="midnightblue" stroke="midnightblue" points="373.7,-84.95 378.82,-75.67 369.03,-79.73 373.7,-84.95"/>
</g>
<!-- Node22 -->
<g id="node22" class="node">
<title>Node22</title>
<g id="a_node22"><a target="_blank" xlink:href="https://en.cppreference.com/w/cpp/header/tuple.html" xlink:title=" ">
<polygon fill="white" stroke="black" points="223,-112.5 223,-131.5 264,-131.5 264,-112.5 223,-112.5"/>
<text text-anchor="middle" x="243.5" y="-119.5" font-family="Helvetica,sans-Serif" font-size="10.00">tuple</text>
</a>
</g>
</g>
<!-- Node21&#45;&gt;Node22 -->
<g id="edge30" class="edge">
<title>Node21&#45;&gt;Node22</title>
<path fill="none" stroke="midnightblue" d="M255.71,-168.4C253.55,-160.38 250.82,-150.23 248.49,-141.57"/>
<polygon fill="midnightblue" stroke="midnightblue" points="251.8,-140.41 245.83,-131.66 245.05,-142.22 251.8,-140.41"/>
</g>
<!-- Node23&#45;&gt;Node4 -->
<g id="edge34" class="edge">
<title>Node23&#45;&gt;Node4</title>
<path fill="none" stroke="midnightblue" d="M107.32,-172.94C174.64,-160.98 288.33,-140.79 348.45,-130.11"/>
<polygon fill="midnightblue" stroke="midnightblue" points="349.09,-133.55 358.33,-128.36 347.87,-126.66 349.09,-133.55"/>
</g>
<!-- Node23&#45;&gt;Node5 -->
<g id="edge36" class="edge">
<title>Node23&#45;&gt;Node5</title>
<path fill="none" stroke="midnightblue" d="M81.23,-168.4C100.33,-158.68 125.56,-145.86 144.32,-136.31"/>
<polygon fill="midnightblue" stroke="midnightblue" points="146.15,-139.31 153.48,-131.66 142.98,-133.07 146.15,-139.31"/>
</g>
<!-- Node23&#45;&gt;Node8 -->
<g id="edge37" class="edge">
<title>Node23&#45;&gt;Node8</title>
<path fill="none" stroke="midnightblue" d="M64.05,-168.28C77.04,-151.88 100.71,-125.47 127.5,-112 186.26,-82.45 260.83,-71.87 315.21,-68.29"/>
<polygon fill="midnightblue" stroke="midnightblue" points="315.68,-71.77 325.46,-67.68 315.27,-64.78 315.68,-71.77"/>
</g>
<!-- Node24 -->
<g id="node24" class="node">
<title>Node24</title>
<g id="a_node24"><a target="_blank" xlink:href="https://en.cppreference.com/w/cpp/header/limits.html" xlink:title=" ">
<polygon fill="white" stroke="black" points="31.5,-112.5 31.5,-131.5 75.5,-131.5 75.5,-112.5 31.5,-112.5"/>
<text text-anchor="middle" x="53.5" y="-119.5" font-family="Helvetica,sans-Serif" font-size="10.00">limits</text>
</a>
</g>
</g>
<!-- Node23&#45;&gt;Node24 -->
<g id="edge35" class="edge">
<title>Node23&#45;&gt;Node24</title>
<path fill="none" stroke="midnightblue" d="M53.5,-168.4C53.5,-160.47 53.5,-150.46 53.5,-141.86"/>
<polygon fill="midnightblue" stroke="midnightblue" points="57,-141.66 53.5,-131.66 50,-141.66 57,-141.66"/>
</g>
<!-- Node25&#45;&gt;Node6 -->
<g id="edge40" class="edge">
<title>Node25&#45;&gt;Node6</title>
<path fill="none" stroke="midnightblue" d="M672.19,-291.4C654.24,-281.77 630.58,-269.09 612.83,-259.58"/>
<polygon fill="midnightblue" stroke="midnightblue" points="614.12,-256.3 603.65,-254.66 610.81,-262.47 614.12,-256.3"/>
</g>
<!-- Node26 -->
<g id="node26" class="node">
<title>Node26</title>
<g id="a_node26"><a target="_blank" xlink:href="https://en.cppreference.com/w/cpp/header/array.html" xlink:title=" ">
<polygon fill="white" stroke="black" points="677.5,-235.5 677.5,-254.5 719.5,-254.5 719.5,-235.5 677.5,-235.5"/>
<text text-anchor="middle" x="698.5" y="-242.5" font-family="Helvetica,sans-Serif" font-size="10.00">array</text>
</a>
</g>
</g>
<!-- Node25&#45;&gt;Node26 -->
<g id="edge39" class="edge">
<title>Node25&#45;&gt;Node26</title>
<path fill="none" stroke="midnightblue" d="M698.5,-291.4C698.5,-283.47 698.5,-273.46 698.5,-264.86"/>
<polygon fill="midnightblue" stroke="midnightblue" points="702,-264.66 698.5,-254.66 695,-264.66 702,-264.66"/>
</g>
<!-- Node27&#45;&gt;Node6 -->
<g id="edge42" class="edge">
<title>Node27&#45;&gt;Node6</title>
<path fill="none" stroke="midnightblue" d="M573.77,-291.4C576.22,-283.29 579.33,-273.01 581.97,-264.28"/>
<polygon fill="midnightblue" stroke="midnightblue" points="585.34,-265.24 584.88,-254.66 578.64,-263.22 585.34,-265.24"/>
</g>
</g>
</svg>
