<?xml version="1.0" encoding="UTF-8" standalone="no"?>
<!DOCTYPE svg PUBLIC "-//W3C//DTD SVG 1.1//EN"
 "http://www.w3.org/Graphics/SVG/1.1/DTD/svg11.dtd">
<!-- Generated by graphviz version 2.43.0 (0)
 -->
<!-- Title: bio/ranges/detail/random_access_iterator.hpp Pages: 1 -->
<!--zoomable 430 -->
<svg id="main" version="1.1" xmlns="http://www.w3.org/2000/svg" xmlns:xlink="http://www.w3.org/1999/xlink" xml:space="preserve" onload="init(evt)">
<style type="text/css"><![CDATA[
.edge:hover path { stroke: red; }
.edge:hover polygon { stroke: red; fill: red; }
]]></style>
<script type="text/javascript"><![CDATA[
var edges = document.getElementsByTagName('g');
if (edges && edges.length) {
  for (var i=0;i<edges.length;i++) {
    if (edges[i].id.substr(0,4)=='edge') {
      edges[i].setAttribute('class','edge');
    }
  }
}
]]></script>
        <defs>
                <circle id="rim" cx="0" cy="0" r="7"/>
                <circle id="rim2" cx="0" cy="0" r="3.5"/>
                <g id="zoomPlus">
                        <use xlink:href="#rim" fill="#404040">
                                <set attributeName="fill" to="#808080" begin="zoomplus.mouseover" end="zoomplus.mouseout"/>
                        </use>
                        <path d="M-4,0h8M0,-4v8" fill="none" stroke="white" stroke-width="1.5" pointer-events="none"/>
                </g>
                <g id="zoomMin">
                        <use xlink:href="#rim" fill="#404040">
                                <set attributeName="fill" to="#808080" begin="zoomminus.mouseover" end="zoomminus.mouseout"/>
                        </use>
                        <path d="M-4,0h8" fill="none" stroke="white" stroke-width="1.5" pointer-events="none"/>
                </g>
                <g id="dirArrow">
                        <path fill="none" stroke="white" stroke-width="1.5" d="M0,-3.0v7 M-2.5,-0.5L0,-3.0L2.5,-0.5"/>
                </g>
               <g id="resetDef">
                       <use xlink:href="#rim2" fill="#404040">
                               <set attributeName="fill" to="#808080" begin="reset.mouseover" end="reset.mouseout"/>
                       </use>
               </g>
        </defs>

<script type="text/javascript">
var viewWidth = 1017;
var viewHeight = 430;
var sectionId = 'dynsection-1';
</script>
<script xlink:href="svgpan.js"/>
<svg id="graph" class="graph">
<g id="viewport">
<title>bio/ranges/detail/random_access_iterator.hpp</title>
<polygon fill="white" stroke="transparent" points="-4,4 -4,-426 1013.08,-426 1013.08,4 -4,4"/>
<!-- Node1 -->
<g id="node1" class="node">
<title>Node1</title>
<g id="a_node1"><a xlink:title="Provides the bio::ranges::detail::random_access_iterator class.">
<polygon fill="#bfbfbf" stroke="black" points="427.5,-391.5 427.5,-421.5 566.5,-421.5 566.5,-391.5 427.5,-391.5"/>
<text text-anchor="start" x="435.5" y="-409.5" font-family="Helvetica,sans-Serif" font-size="10.00">bio/ranges/detail/random</text>
<text text-anchor="middle" x="497" y="-398.5" font-family="Helvetica,sans-Serif" font-size="10.00">_access_iterator.hpp</text>
</a>
</g>
</g>
<!-- Node2 -->
<g id="node2" class="node">
<title>Node2</title>
<g id="a_node2"><a xlink:href="bitcompressed__vector_8hpp.html" target="_top" xlink:title="Provides bio::ranges::bitcompressed_vector.">
<polygon fill="white" stroke="black" points="182,-201.5 182,-231.5 330,-231.5 330,-201.5 182,-201.5"/>
<text text-anchor="start" x="190" y="-219.5" font-family="Helvetica,sans-Serif" font-size="10.00">bio/ranges/container</text>
<text text-anchor="middle" x="256" y="-208.5" font-family="Helvetica,sans-Serif" font-size="10.00">/bitcompressed_vector.hpp</text>
</a>
</g>
</g>
<!-- Node1&#45;&gt;Node2 -->
<g id="edge1" class="edge">
<title>Node1&#45;&gt;Node2</title>
<path fill="none" stroke="midnightblue" d="M417.42,-394.65C387.49,-387.37 354.76,-375.24 330,-355 289.07,-321.54 267.56,-259.27 259.63,-231.5"/>
<polygon fill="midnightblue" stroke="midnightblue" points="416.92,-398.12 427.44,-396.93 418.47,-391.3 416.92,-398.12"/>
</g>
<!-- Node5 -->
<g id="node5" class="node">
<title>Node5</title>
<g id="a_node5"><a xlink:href="concatenated__sequences_8hpp.html" target="_top" xlink:title="Provides bio::ranges::concatenated_sequences.">
<polygon fill="white" stroke="black" points="0,-201.5 0,-231.5 164,-231.5 164,-201.5 0,-201.5"/>
<text text-anchor="start" x="8" y="-219.5" font-family="Helvetica,sans-Serif" font-size="10.00">bio/ranges/container</text>
<text text-anchor="middle" x="82" y="-208.5" font-family="Helvetica,sans-Serif" font-size="10.00">/concatenated_sequences.hpp</text>
</a>
</g>
</g>
<!-- Node1&#45;&gt;Node5 -->
<g id="edge4" class="edge">
<title>Node1&#45;&gt;Node5</title>
<path fill="none" stroke="midnightblue" d="M417.17,-389.7C382.54,-381.47 341.99,-369.97 307,-355 225.34,-320.07 138.23,-259.12 100.83,-231.64"/>
<polygon fill="midnightblue" stroke="midnightblue" points="416.71,-393.18 427.24,-392.04 418.29,-386.37 416.71,-393.18"/>
</g>
<!-- Node6 -->
<g id="node6" class="node">
<title>Node6</title>
<g id="a_node6"><a xlink:href="interleave_8hpp.html" target="_top" xlink:title="Provides bio::views::interleave.">
<polygon fill="white" stroke="black" points="472.5,-274 472.5,-293 645.5,-293 645.5,-274 472.5,-274"/>
<text text-anchor="middle" x="559" y="-281" font-family="Helvetica,sans-Serif" font-size="10.00">bio/ranges/views/interleave.hpp</text>
</a>
</g>
</g>
<!-- Node1&#45;&gt;Node6 -->
<g id="edge6" class="edge">
<title>Node1&#45;&gt;Node6</title>
<path fill="none" stroke="midnightblue" d="M509.08,-381.92C523.03,-354.7 545.26,-311.32 554.62,-293.05"/>
<polygon fill="midnightblue" stroke="midnightblue" points="505.8,-380.65 504.36,-391.14 512.03,-383.84 505.8,-380.65"/>
</g>
<!-- Node9 -->
<g id="node9" class="node">
<title>Node9</title>
<g id="a_node9"><a xlink:href="repeat_8hpp.html" target="_top" xlink:title="Provides the views::repeat_view.">
<polygon fill="white" stroke="black" points="339.5,-335.5 339.5,-354.5 494.5,-354.5 494.5,-335.5 339.5,-335.5"/>
<text text-anchor="middle" x="417" y="-342.5" font-family="Helvetica,sans-Serif" font-size="10.00">bio/ranges/views/repeat.hpp</text>
</a>
</g>
</g>
<!-- Node1&#45;&gt;Node9 -->
<g id="edge9" class="edge">
<title>Node1&#45;&gt;Node9</title>
<path fill="none" stroke="midnightblue" d="M469.69,-385.19C455.68,-374.77 439.36,-362.63 428.64,-354.66"/>
<polygon fill="midnightblue" stroke="midnightblue" points="467.93,-388.24 478.04,-391.4 472.11,-382.62 467.93,-388.24"/>
</g>
<!-- Node14 -->
<g id="node14" class="node">
<title>Node14</title>
<g id="a_node14"><a xlink:href="translate_8hpp.html" target="_top" xlink:title="Provides bio::views::translate and bio::views::translate_single.">
<polygon fill="white" stroke="black" points="813.5,-73 813.5,-92 980.5,-92 980.5,-73 813.5,-73"/>
<text text-anchor="middle" x="897" y="-80" font-family="Helvetica,sans-Serif" font-size="10.00">bio/ranges/views/translate.hpp</text>
</a>
</g>
</g>
<!-- Node1&#45;&gt;Node14 -->
<g id="edge21" class="edge">
<title>Node1&#45;&gt;Node14</title>
<path fill="none" stroke="midnightblue" d="M576.78,-395.66C685.28,-380.02 866,-344.89 866,-284.5 866,-284.5 866,-284.5 866,-215.5 866,-167.95 885.3,-113.25 893.44,-92.29"/>
<polygon fill="midnightblue" stroke="midnightblue" points="576.25,-392.2 566.84,-397.07 577.23,-399.13 576.25,-392.2"/>
</g>
<!-- Node15 -->
<g id="node15" class="node">
<title>Node15</title>
<g id="a_node15"><a xlink:href="translate__join_8hpp.html" target="_top" xlink:title="Provides bio::views::translate_join.">
<polygon fill="white" stroke="black" points="824,-0.5 824,-30.5 970,-30.5 970,-0.5 824,-0.5"/>
<text text-anchor="start" x="832" y="-18.5" font-family="Helvetica,sans-Serif" font-size="10.00">bio/ranges/views/translate</text>
<text text-anchor="middle" x="897" y="-7.5" font-family="Helvetica,sans-Serif" font-size="10.00">_join.hpp</text>
</a>
</g>
</g>
<!-- Node1&#45;&gt;Node15 -->
<g id="edge22" class="edge">
<title>Node1&#45;&gt;Node15</title>
<path fill="none" stroke="midnightblue" d="M576.81,-403.01C720.51,-396.33 1008,-372.03 1008,-284.5 1008,-284.5 1008,-284.5 1008,-148.5 1008,-111.4 1012.31,-96.63 990,-67 977.51,-50.41 957.93,-38.63 939.95,-30.64"/>
<polygon fill="midnightblue" stroke="midnightblue" points="576.55,-399.51 566.71,-403.46 576.86,-406.51 576.55,-399.51"/>
</g>
<!-- Node3 -->
<g id="node3" class="node">
<title>Node3</title>
<g id="a_node3"><a xlink:href="ranges_2container_2all_8hpp.html" target="_top" xlink:title="Meta&#45;header for the container submodule .">
<polygon fill="white" stroke="black" points="111,-134.5 111,-164.5 227,-164.5 227,-134.5 111,-134.5"/>
<text text-anchor="start" x="119" y="-152.5" font-family="Helvetica,sans-Serif" font-size="10.00">bio/ranges/container</text>
<text text-anchor="middle" x="169" y="-141.5" font-family="Helvetica,sans-Serif" font-size="10.00">/all.hpp</text>
</a>
</g>
</g>
<!-- Node2&#45;&gt;Node3 -->
<g id="edge2" class="edge">
<title>Node2&#45;&gt;Node3</title>
<path fill="none" stroke="midnightblue" d="M228.79,-195.17C215.48,-185.23 199.8,-173.51 187.84,-164.58"/>
<polygon fill="midnightblue" stroke="midnightblue" points="227.02,-198.21 237.12,-201.4 231.21,-192.61 227.02,-198.21"/>
</g>
<!-- Node4 -->
<g id="node4" class="node">
<title>Node4</title>
<g id="a_node4"><a xlink:href="ranges_2all_8hpp.html" target="_top" xlink:title="Meta&#45;header for the ranges module .">
<polygon fill="white" stroke="black" points="117,-73 117,-92 221,-92 221,-73 117,-73"/>
<text text-anchor="middle" x="169" y="-80" font-family="Helvetica,sans-Serif" font-size="10.00">bio/ranges/all.hpp</text>
</a>
</g>
</g>
<!-- Node3&#45;&gt;Node4 -->
<g id="edge3" class="edge">
<title>Node3&#45;&gt;Node4</title>
<path fill="none" stroke="midnightblue" d="M169,-124.25C169,-113.02 169,-100.38 169,-92.19"/>
<polygon fill="midnightblue" stroke="midnightblue" points="165.5,-124.4 169,-134.4 172.5,-124.4 165.5,-124.4"/>
</g>
<!-- Node5&#45;&gt;Node3 -->
<g id="edge5" class="edge">
<title>Node5&#45;&gt;Node3</title>
<path fill="none" stroke="midnightblue" d="M109.21,-195.17C122.52,-185.23 138.2,-173.51 150.16,-164.58"/>
<polygon fill="midnightblue" stroke="midnightblue" points="106.79,-192.61 100.88,-201.4 110.98,-198.21 106.79,-192.61"/>
</g>
<!-- Node7 -->
<g id="node7" class="node">
<title>Node7</title>
<g id="a_node7"><a xlink:href="dynamic__bitset_8hpp.html" target="_top" xlink:title="A constexpr bitset implementation with dynamic size at compile time.">
<polygon fill="white" stroke="black" points="482,-201.5 482,-231.5 598,-231.5 598,-201.5 482,-201.5"/>
<text text-anchor="start" x="490" y="-219.5" font-family="Helvetica,sans-Serif" font-size="10.00">bio/ranges/container</text>
<text text-anchor="middle" x="540" y="-208.5" font-family="Helvetica,sans-Serif" font-size="10.00">/dynamic_bitset.hpp</text>
</a>
</g>
</g>
<!-- Node6&#45;&gt;Node7 -->
<g id="edge7" class="edge">
<title>Node6&#45;&gt;Node7</title>
<path fill="none" stroke="midnightblue" d="M553.61,-264.06C550.6,-253.75 546.9,-241.1 544.12,-231.59"/>
<polygon fill="midnightblue" stroke="midnightblue" points="550.27,-265.12 556.44,-273.73 556.99,-263.15 550.27,-265.12"/>
</g>
<!-- Node8 -->
<g id="node8" class="node">
<title>Node8</title>
<g id="a_node8"><a xlink:href="ranges_2views_2all_8hpp.html" target="_top" xlink:title="Meta&#45;header for the views submodule .">
<polygon fill="white" stroke="black" points="614.5,-6 614.5,-25 749.5,-25 749.5,-6 614.5,-6"/>
<text text-anchor="middle" x="682" y="-13" font-family="Helvetica,sans-Serif" font-size="10.00">bio/ranges/views/all.hpp</text>
</a>
</g>
</g>
<!-- Node6&#45;&gt;Node8 -->
<g id="edge8" class="edge">
<title>Node6&#45;&gt;Node8</title>
<path fill="none" stroke="midnightblue" d="M577.92,-267.1C588,-257.92 599.77,-245.45 607,-232 642.63,-165.72 613.67,-135.42 645,-67 652.42,-50.79 665.52,-34.63 673.97,-25.1"/>
<polygon fill="midnightblue" stroke="midnightblue" points="575.57,-264.51 570.32,-273.71 580.16,-269.79 575.57,-264.51"/>
</g>
<!-- Node10 -->
<g id="node10" class="node">
<title>Node10</title>
<g id="a_node10"><a xlink:href="repeat__n_8hpp.html" target="_top" xlink:title="Provides bio::views::repeat_n.">
<polygon fill="white" stroke="black" points="320,-268.5 320,-298.5 454,-298.5 454,-268.5 320,-268.5"/>
<text text-anchor="start" x="328" y="-286.5" font-family="Helvetica,sans-Serif" font-size="10.00">bio/ranges/views/repeat</text>
<text text-anchor="middle" x="387" y="-275.5" font-family="Helvetica,sans-Serif" font-size="10.00">_n.hpp</text>
</a>
</g>
</g>
<!-- Node9&#45;&gt;Node10 -->
<g id="edge10" class="edge">
<title>Node9&#45;&gt;Node10</title>
<path fill="none" stroke="midnightblue" d="M408.12,-326.39C403.64,-317.5 398.27,-306.86 394.07,-298.52"/>
<polygon fill="midnightblue" stroke="midnightblue" points="405.07,-328.12 412.7,-335.48 411.32,-324.97 405.07,-328.12"/>
</g>
<!-- Node10&#45;&gt;Node2 -->
<g id="edge11" class="edge">
<title>Node10&#45;&gt;Node2</title>
<path fill="none" stroke="midnightblue" d="M349.42,-263.85C328.71,-253.58 303.41,-241.03 284.37,-231.58"/>
<polygon fill="midnightblue" stroke="midnightblue" points="348.06,-267.09 358.57,-268.4 351.17,-260.82 348.06,-267.09"/>
</g>
<!-- Node10&#45;&gt;Node5 -->
<g id="edge12" class="edge">
<title>Node10&#45;&gt;Node5</title>
<path fill="none" stroke="midnightblue" d="M311.37,-266.38C261.2,-255.69 196.01,-241.8 147.95,-231.55"/>
<polygon fill="midnightblue" stroke="midnightblue" points="310.69,-269.81 321.2,-268.48 312.14,-262.97 310.69,-269.81"/>
</g>
<!-- Node10&#45;&gt;Node7 -->
<g id="edge13" class="edge">
<title>Node10&#45;&gt;Node7</title>
<path fill="none" stroke="midnightblue" d="M429.59,-264.41C454.02,-254.03 484.22,-241.2 506.87,-231.58"/>
<polygon fill="midnightblue" stroke="midnightblue" points="428.03,-261.26 420.2,-268.4 430.77,-267.71 428.03,-261.26"/>
</g>
<!-- Node11 -->
<g id="node11" class="node">
<title>Node11</title>
<g id="a_node11"><a xlink:href="small__vector_8hpp.html" target="_top" xlink:title="A constexpr vector implementation with dynamic size at compile time.">
<polygon fill="white" stroke="black" points="348,-201.5 348,-231.5 464,-231.5 464,-201.5 348,-201.5"/>
<text text-anchor="start" x="356" y="-219.5" font-family="Helvetica,sans-Serif" font-size="10.00">bio/ranges/container</text>
<text text-anchor="middle" x="406" y="-208.5" font-family="Helvetica,sans-Serif" font-size="10.00">/small_vector.hpp</text>
</a>
</g>
</g>
<!-- Node10&#45;&gt;Node11 -->
<g id="edge14" class="edge">
<title>Node10&#45;&gt;Node11</title>
<path fill="none" stroke="midnightblue" d="M393.96,-258.7C396.62,-249.59 399.57,-239.49 401.89,-231.58"/>
<polygon fill="midnightblue" stroke="midnightblue" points="390.57,-257.82 391.12,-268.4 397.29,-259.78 390.57,-257.82"/>
</g>
<!-- Node12 -->
<g id="node12" class="node">
<title>Node12</title>
<g id="a_node12"><a xlink:href="small__string_8hpp.html" target="_top" xlink:title="A constexpr string implementation to manipulate string literals at compile time.">
<polygon fill="white" stroke="black" points="691,-134.5 691,-164.5 807,-164.5 807,-134.5 691,-134.5"/>
<text text-anchor="start" x="699" y="-152.5" font-family="Helvetica,sans-Serif" font-size="10.00">bio/ranges/container</text>
<text text-anchor="middle" x="749" y="-141.5" font-family="Helvetica,sans-Serif" font-size="10.00">/small_string.hpp</text>
</a>
</g>
</g>
<!-- Node11&#45;&gt;Node12 -->
<g id="edge15" class="edge">
<title>Node11&#45;&gt;Node12</title>
<path fill="none" stroke="midnightblue" d="M473.93,-200.85C554.73,-184.82 637,-170.04 690.74,-160.6"/>
<polygon fill="midnightblue" stroke="midnightblue" points="473.2,-197.42 464.08,-202.81 474.57,-204.29 473.2,-197.42"/>
</g>
<!-- Node13 -->
<g id="node13" class="node">
<title>Node13</title>
<g id="a_node13"><a xlink:href="cigar_8hpp.html" target="_top" xlink:title="Provides the bio::alphabet::cigar alphabet.">
<polygon fill="white" stroke="black" points="654,-67.5 654,-97.5 758,-97.5 758,-67.5 654,-67.5"/>
<text text-anchor="start" x="662" y="-85.5" font-family="Helvetica,sans-Serif" font-size="10.00">bio/alphabet/cigar</text>
<text text-anchor="middle" x="706" y="-74.5" font-family="Helvetica,sans-Serif" font-size="10.00">/cigar.hpp</text>
</a>
</g>
</g>
<!-- Node12&#45;&gt;Node13 -->
<g id="edge16" class="edge">
<title>Node12&#45;&gt;Node13</title>
<path fill="none" stroke="midnightblue" d="M734.03,-125.87C727.8,-116.46 720.77,-105.83 715.31,-97.58"/>
<polygon fill="midnightblue" stroke="midnightblue" points="731.23,-127.99 739.67,-134.4 737.07,-124.12 731.23,-127.99"/>
</g>
<!-- Node12&#45;&gt;Node14 -->
<g id="edge17" class="edge">
<title>Node12&#45;&gt;Node14</title>
<path fill="none" stroke="midnightblue" d="M790.45,-130.3C818.99,-117.76 855.6,-101.68 877.63,-92.01"/>
<polygon fill="midnightblue" stroke="midnightblue" points="788.86,-127.17 781.11,-134.4 791.68,-133.58 788.86,-127.17"/>
</g>
<!-- Node12&#45;&gt;Node15 -->
<g id="edge20" class="edge">
<title>Node12&#45;&gt;Node15</title>
<path fill="none" stroke="midnightblue" d="M761.02,-125.28C771,-107.67 786.52,-83.71 805,-67 821.89,-51.72 844.22,-39.32 862.65,-30.63"/>
<polygon fill="midnightblue" stroke="midnightblue" points="757.8,-123.88 756.06,-134.33 763.93,-127.25 757.8,-123.88"/>
</g>
<!-- Node14&#45;&gt;Node8 -->
<g id="edge18" class="edge">
<title>Node14&#45;&gt;Node8</title>
<path fill="none" stroke="midnightblue" d="M858.73,-69.93C816.16,-57.06 748.39,-36.57 710.33,-25.06"/>
<polygon fill="midnightblue" stroke="midnightblue" points="857.86,-73.32 868.45,-72.87 859.89,-66.62 857.86,-73.32"/>
</g>
<!-- Node14&#45;&gt;Node15 -->
<g id="edge19" class="edge">
<title>Node14&#45;&gt;Node15</title>
<path fill="none" stroke="midnightblue" d="M897,-62.41C897,-52.22 897,-39.9 897,-30.59"/>
<polygon fill="midnightblue" stroke="midnightblue" points="893.5,-62.73 897,-72.73 900.5,-62.73 893.5,-62.73"/>
</g>
</g>
</svg>
        <g id="navigator" transform="translate(0 0)" fill="#404254">
                <rect fill="#f2f5e9" fill-opacity="0.5" stroke="#606060" stroke-width=".5" x="0" y="0" width="60" height="60"/>
                <use id="zoomplus" xlink:href="#zoomPlus" x="17" y="9" onmousedown="handleZoom(evt,'in')"/>
                <use id="zoomminus" xlink:href="#zoomMin" x="42" y="9" onmousedown="handleZoom(evt,'out')"/>
                <use id="reset" xlink:href="#resetDef" x="30" y="36" onmousedown="handleReset()"/>
                <g id="arrowUp" xlink:href="#dirArrow" transform="translate(30 24)" onmousedown="handlePan(0,-1)">
                  <use xlink:href="#rim" fill="#404040">
                        <set attributeName="fill" to="#808080" begin="arrowUp.mouseover" end="arrowUp.mouseout"/>
                  </use>
                  <path fill="none" stroke="white" stroke-width="1.5" d="M0,-3.0v7 M-2.5,-0.5L0,-3.0L2.5,-0.5"/>
                </g>
                <g id="arrowRight" xlink:href="#dirArrow" transform="rotate(90) translate(36 -43)" onmousedown="handlePan(1,0)">
                  <use xlink:href="#rim" fill="#404040">
                        <set attributeName="fill" to="#808080" begin="arrowRight.mouseover" end="arrowRight.mouseout"/>
                  </use>
                  <path fill="none" stroke="white" stroke-width="1.5" d="M0,-3.0v7 M-2.5,-0.5L0,-3.0L2.5,-0.5"/>
                </g>
                <g id="arrowDown" xlink:href="#dirArrow" transform="rotate(180) translate(-30 -48)" onmousedown="handlePan(0,1)">
                  <use xlink:href="#rim" fill="#404040">
                        <set attributeName="fill" to="#808080" begin="arrowDown.mouseover" end="arrowDown.mouseout"/>
                  </use>
                  <path fill="none" stroke="white" stroke-width="1.5" d="M0,-3.0v7 M-2.5,-0.5L0,-3.0L2.5,-0.5"/>
                </g>
                <g id="arrowLeft" xlink:href="#dirArrow" transform="rotate(270) translate(-36 17)" onmousedown="handlePan(-1,0)">
                  <use xlink:href="#rim" fill="#404040">
                        <set attributeName="fill" to="#808080" begin="arrowLeft.mouseover" end="arrowLeft.mouseout"/>
                  </use>
                  <path fill="none" stroke="white" stroke-width="1.5" d="M0,-3.0v7 M-2.5,-0.5L0,-3.0L2.5,-0.5"/>
                </g>
        </g>
        <svg viewBox="0 0 15 15" width="100%" height="30px" preserveAspectRatio="xMaxYMin meet">
         <g id="arrow_out" transform="scale(0.3 0.3)">
          <a xlink:href="random__access__iterator_8hpp__dep__incl_org.svg" target="_base">
           <rect id="button" ry="5" rx="5" y="6" x="6" height="38" width="38"
                fill="#f2f5e9" fill-opacity="0.5" stroke="#606060" stroke-width="1.0"/>
           <path id="arrow"
             d="M 11.500037,31.436501 C 11.940474,20.09759 22.043105,11.32322 32.158766,21.979434 L 37.068811,17.246167 C 37.068811,17.246167 37.088388,32 37.088388,32 L 22.160133,31.978069 C 22.160133,31.978069 26.997745,27.140456 26.997745,27.140456 C 18.528582,18.264221 13.291696,25.230495 11.500037,31.436501 z"
             style="fill:#404040;"/>
          </a>
         </g>
        </svg>
</svg>
