<?xml version="1.0" encoding="UTF-8" standalone="no"?>
<!DOCTYPE svg PUBLIC "-//W3C//DTD SVG 1.1//EN"
 "http://www.w3.org/Graphics/SVG/1.1/DTD/svg11.dtd">
<!-- Generated by graphviz version 2.43.0 (0)
 -->
<!-- Title: bio/ranges/views/detail.hpp Pages: 1 -->
<svg width="526pt" height="341pt"
 viewBox="0.00 0.00 525.50 341.00" xmlns="http://www.w3.org/2000/svg" xmlns:xlink="http://www.w3.org/1999/xlink">
<g id="graph0" class="graph" transform="scale(1 1) rotate(0) translate(4 337)">
<title>bio/ranges/views/detail.hpp</title>
<polygon fill="white" stroke="transparent" points="-4,4 -4,-337 521.5,-337 521.5,4 -4,4"/>
<!-- Node1 -->
<g id="node1" class="node">
<title>Node1</title>
<g id="a_node1"><a xlink:title=" ">
<polygon fill="#bfbfbf" stroke="black" points="111,-313.5 111,-332.5 262,-332.5 262,-313.5 111,-313.5"/>
<text text-anchor="middle" x="186.5" y="-320.5" font-family="Helvetica,sans-Serif" font-size="10.00">bio/ranges/views/detail.hpp</text>
</a>
</g>
</g>
<!-- Node2 -->
<g id="node2" class="node">
<title>Node2</title>
<g id="a_node2"><a target="_blank" xlink:href="https://en.cppreference.com/w/cpp/header/tuple.html" xlink:title=" ">
<polygon fill="white" stroke="black" points="0,-118 0,-137 41,-137 41,-118 0,-118"/>
<text text-anchor="middle" x="20.5" y="-125" font-family="Helvetica,sans-Serif" font-size="10.00">tuple</text>
</a>
</g>
</g>
<!-- Node1&#45;&gt;Node2 -->
<g id="edge1" class="edge">
<title>Node1&#45;&gt;Node2</title>
<path fill="none" stroke="midnightblue" d="M167.9,-313.41C136.03,-297.69 71.29,-261.13 38.5,-210 26.25,-190.89 22.25,-164.64 20.99,-147.15"/>
<polygon fill="midnightblue" stroke="midnightblue" points="24.48,-146.91 20.5,-137.09 17.49,-147.25 24.48,-146.91"/>
</g>
<!-- Node3 -->
<g id="node3" class="node">
<title>Node3</title>
<g id="a_node3"><a xlink:href="basic_8hpp.html" target="_top" xlink:title="Provides various type traits on generic types.">
<polygon fill="white" stroke="black" points="47.5,-179.5 47.5,-209.5 163.5,-209.5 163.5,-179.5 47.5,-179.5"/>
<text text-anchor="start" x="55.5" y="-197.5" font-family="Helvetica,sans-Serif" font-size="10.00">bio/meta/type_traits</text>
<text text-anchor="middle" x="105.5" y="-186.5" font-family="Helvetica,sans-Serif" font-size="10.00">/basic.hpp</text>
</a>
</g>
</g>
<!-- Node1&#45;&gt;Node3 -->
<g id="edge2" class="edge">
<title>Node1&#45;&gt;Node3</title>
<path fill="none" stroke="midnightblue" d="M180.93,-313.31C168.55,-293.96 138.38,-246.85 120.17,-218.41"/>
<polygon fill="midnightblue" stroke="midnightblue" points="123.05,-216.42 114.71,-209.89 117.16,-220.2 123.05,-216.42"/>
</g>
<!-- Node9 -->
<g id="node9" class="node">
<title>Node9</title>
<g id="a_node9"><a xlink:href="range_8hpp.html" target="_top" xlink:title="Provides various transformation traits used by the range module.">
<polygon fill="white" stroke="black" points="214.5,-246.5 214.5,-276.5 330.5,-276.5 330.5,-246.5 214.5,-246.5"/>
<text text-anchor="start" x="222.5" y="-264.5" font-family="Helvetica,sans-Serif" font-size="10.00">bio/meta/type_traits</text>
<text text-anchor="middle" x="272.5" y="-253.5" font-family="Helvetica,sans-Serif" font-size="10.00">/range.hpp</text>
</a>
</g>
</g>
<!-- Node1&#45;&gt;Node9 -->
<g id="edge9" class="edge">
<title>Node1&#45;&gt;Node9</title>
<path fill="none" stroke="midnightblue" d="M198.82,-313.48C210.47,-305.42 228.38,-293.02 243.63,-282.47"/>
<polygon fill="midnightblue" stroke="midnightblue" points="246,-285.09 252.23,-276.52 242.02,-279.33 246,-285.09"/>
</g>
<!-- Node13 -->
<g id="node13" class="node">
<title>Node13</title>
<g id="a_node13"><a target="_blank" xlink:href="https://en.cppreference.com/w/cpp/header/ranges.html" xlink:title=" ">
<polygon fill="white" stroke="black" points="467.5,-185 467.5,-204 517.5,-204 517.5,-185 467.5,-185"/>
<text text-anchor="middle" x="492.5" y="-192" font-family="Helvetica,sans-Serif" font-size="10.00">ranges</text>
</a>
</g>
</g>
<!-- Node1&#45;&gt;Node13 -->
<g id="edge22" class="edge">
<title>Node1&#45;&gt;Node13</title>
<path fill="none" stroke="midnightblue" d="M223.07,-313.48C254.52,-305.62 300.8,-292.81 339.5,-277 387.77,-257.29 440.78,-226.93 470.01,-209.36"/>
<polygon fill="midnightblue" stroke="midnightblue" points="471.89,-212.31 478.62,-204.14 468.26,-206.33 471.89,-212.31"/>
</g>
<!-- Node3&#45;&gt;Node2 -->
<g id="edge3" class="edge">
<title>Node3&#45;&gt;Node2</title>
<path fill="none" stroke="midnightblue" d="M87.06,-179.4C73.15,-168.76 54.11,-154.2 39.96,-143.38"/>
<polygon fill="midnightblue" stroke="midnightblue" points="41.94,-140.49 31.87,-137.19 37.69,-146.05 41.94,-140.49"/>
</g>
<!-- Node4 -->
<g id="node4" class="node">
<title>Node4</title>
<g id="a_node4"><a target="_blank" xlink:href="https://en.cppreference.com/w/cpp/header/type_traits.html" xlink:title=" ">
<polygon fill="white" stroke="black" points="98,-118 98,-137 167,-137 167,-118 98,-118"/>
<text text-anchor="middle" x="132.5" y="-125" font-family="Helvetica,sans-Serif" font-size="10.00">type_traits</text>
</a>
</g>
</g>
<!-- Node3&#45;&gt;Node4 -->
<g id="edge4" class="edge">
<title>Node3&#45;&gt;Node4</title>
<path fill="none" stroke="midnightblue" d="M111.36,-179.4C115.36,-169.76 120.7,-156.91 125.01,-146.54"/>
<polygon fill="midnightblue" stroke="midnightblue" points="128.28,-147.77 128.89,-137.19 121.82,-145.09 128.28,-147.77"/>
</g>
<!-- Node5 -->
<g id="node5" class="node">
<title>Node5</title>
<g id="a_node5"><a xlink:href="platform_8hpp.html" target="_top" xlink:title="Provides platform and dependency checks.">
<polygon fill="white" stroke="black" points="223.5,-56.5 223.5,-75.5 349.5,-75.5 349.5,-56.5 223.5,-56.5"/>
<text text-anchor="middle" x="286.5" y="-63.5" font-family="Helvetica,sans-Serif" font-size="10.00">bio/meta/platform.hpp</text>
</a>
</g>
</g>
<!-- Node3&#45;&gt;Node5 -->
<g id="edge5" class="edge">
<title>Node3&#45;&gt;Node5</title>
<path fill="none" stroke="midnightblue" d="M96.2,-179.21C86,-161.54 72.99,-131.43 88.5,-112 104.14,-92.41 163.5,-80.7 213.18,-74.16"/>
<polygon fill="midnightblue" stroke="midnightblue" points="213.81,-77.61 223.29,-72.88 212.93,-70.66 213.81,-77.61"/>
</g>
<!-- Node6 -->
<g id="node6" class="node">
<title>Node6</title>
<g id="a_node6"><a target="_blank" xlink:href="https://en.cppreference.com/w/cpp/header/cinttypes.html" xlink:title=" ">
<polygon fill="white" stroke="black" points="179.5,-0.5 179.5,-19.5 241.5,-19.5 241.5,-0.5 179.5,-0.5"/>
<text text-anchor="middle" x="210.5" y="-7.5" font-family="Helvetica,sans-Serif" font-size="10.00">cinttypes</text>
</a>
</g>
</g>
<!-- Node5&#45;&gt;Node6 -->
<g id="edge6" class="edge">
<title>Node5&#45;&gt;Node6</title>
<path fill="none" stroke="midnightblue" d="M274.29,-56.32C262.72,-48.11 245.12,-35.6 231.34,-25.81"/>
<polygon fill="midnightblue" stroke="midnightblue" points="233.11,-22.77 222.93,-19.83 229.06,-28.48 233.11,-22.77"/>
</g>
<!-- Node7 -->
<g id="node7" class="node">
<title>Node7</title>
<g id="a_node7"><a target="_blank" xlink:href="https://en.cppreference.com/w/cpp/header/ciso646.html" xlink:title=" ">
<polygon fill="white" stroke="black" points="259.5,-0.5 259.5,-19.5 313.5,-19.5 313.5,-0.5 259.5,-0.5"/>
<text text-anchor="middle" x="286.5" y="-7.5" font-family="Helvetica,sans-Serif" font-size="10.00">ciso646</text>
</a>
</g>
</g>
<!-- Node5&#45;&gt;Node7 -->
<g id="edge7" class="edge">
<title>Node5&#45;&gt;Node7</title>
<path fill="none" stroke="midnightblue" d="M286.5,-56.08C286.5,-49.01 286.5,-38.86 286.5,-29.99"/>
<polygon fill="midnightblue" stroke="midnightblue" points="290,-29.75 286.5,-19.75 283,-29.75 290,-29.75"/>
</g>
<!-- Node8 -->
<g id="node8" class="node">
<title>Node8</title>
<g id="a_node8"><a target="_blank" xlink:href="https://en.cppreference.com/w/cpp/header/cstddef.html" xlink:title=" ">
<polygon fill="white" stroke="black" points="332,-0.5 332,-19.5 385,-19.5 385,-0.5 332,-0.5"/>
<text text-anchor="middle" x="358.5" y="-7.5" font-family="Helvetica,sans-Serif" font-size="10.00">cstddef</text>
</a>
</g>
</g>
<!-- Node5&#45;&gt;Node8 -->
<g id="edge8" class="edge">
<title>Node5&#45;&gt;Node8</title>
<path fill="none" stroke="midnightblue" d="M298.07,-56.32C308.92,-48.18 325.38,-35.84 338.38,-26.09"/>
<polygon fill="midnightblue" stroke="midnightblue" points="340.82,-28.63 346.72,-19.83 336.62,-23.03 340.82,-28.63"/>
</g>
<!-- Node9&#45;&gt;Node3 -->
<g id="edge14" class="edge">
<title>Node9&#45;&gt;Node3</title>
<path fill="none" stroke="midnightblue" d="M236.26,-246.4C211.32,-236.69 177.97,-223.71 151.2,-213.29"/>
<polygon fill="midnightblue" stroke="midnightblue" points="152.25,-209.94 141.67,-209.58 149.72,-216.47 152.25,-209.94"/>
</g>
<!-- Node9&#45;&gt;Node4 -->
<g id="edge10" class="edge">
<title>Node9&#45;&gt;Node4</title>
<path fill="none" stroke="midnightblue" d="M257.52,-246.37C231.18,-221.54 176.77,-170.24 149.24,-144.28"/>
<polygon fill="midnightblue" stroke="midnightblue" points="151.3,-141.41 141.62,-137.1 146.49,-146.5 151.3,-141.41"/>
</g>
<!-- Node9&#45;&gt;Node5 -->
<g id="edge11" class="edge">
<title>Node9&#45;&gt;Node5</title>
<path fill="none" stroke="midnightblue" d="M320.23,-246.49C351.71,-236.37 389.15,-222.36 400.5,-210 421.51,-187.1 416.01,-173.75 420.5,-143 422.49,-129.37 428.54,-123.19 420.5,-112 406.27,-92.21 382.92,-81.01 359.66,-74.7"/>
<polygon fill="midnightblue" stroke="midnightblue" points="360.26,-71.25 349.72,-72.29 358.61,-78.05 360.26,-71.25"/>
</g>
<!-- Node10 -->
<g id="node10" class="node">
<title>Node10</title>
<g id="a_node10"><a xlink:href="pre_8hpp.html" target="_top" xlink:title="Provides various transformation trait base templates and shortcuts.">
<polygon fill="white" stroke="black" points="185.5,-112.5 185.5,-142.5 301.5,-142.5 301.5,-112.5 185.5,-112.5"/>
<text text-anchor="start" x="193.5" y="-130.5" font-family="Helvetica,sans-Serif" font-size="10.00">bio/meta/type_traits</text>
<text text-anchor="middle" x="243.5" y="-119.5" font-family="Helvetica,sans-Serif" font-size="10.00">/pre.hpp</text>
</a>
</g>
</g>
<!-- Node9&#45;&gt;Node10 -->
<g id="edge12" class="edge">
<title>Node9&#45;&gt;Node10</title>
<path fill="none" stroke="midnightblue" d="M264.04,-246.47C258.56,-236.63 251.85,-222.97 248.5,-210 243.67,-191.26 242.57,-169.34 242.59,-152.95"/>
<polygon fill="midnightblue" stroke="midnightblue" points="246.1,-152.65 242.76,-142.6 239.1,-152.54 246.1,-152.65"/>
</g>
<!-- Node11 -->
<g id="node11" class="node">
<title>Node11</title>
<g id="a_node11"><a xlink:href="iterator_8hpp.html" target="_top" xlink:title="Provides various transformation traits for use on iterators.">
<polygon fill="white" stroke="black" points="257.5,-179.5 257.5,-209.5 373.5,-209.5 373.5,-179.5 257.5,-179.5"/>
<text text-anchor="start" x="265.5" y="-197.5" font-family="Helvetica,sans-Serif" font-size="10.00">bio/meta/type_traits</text>
<text text-anchor="middle" x="315.5" y="-186.5" font-family="Helvetica,sans-Serif" font-size="10.00">/iterator.hpp</text>
</a>
</g>
</g>
<!-- Node9&#45;&gt;Node11 -->
<g id="edge15" class="edge">
<title>Node9&#45;&gt;Node11</title>
<path fill="none" stroke="midnightblue" d="M281.83,-246.4C287.3,-238.13 294.33,-227.51 300.55,-218.1"/>
<polygon fill="midnightblue" stroke="midnightblue" points="303.59,-219.85 306.19,-209.58 297.75,-215.99 303.59,-219.85"/>
</g>
<!-- Node12 -->
<g id="node12" class="node">
<title>Node12</title>
<g id="a_node12"><a target="_blank" xlink:href="https://en.cppreference.com/w/cpp/header/iterator.html" xlink:title=" ">
<polygon fill="white" stroke="black" points="358,-118 358,-137 411,-137 411,-118 358,-118"/>
<text text-anchor="middle" x="384.5" y="-125" font-family="Helvetica,sans-Serif" font-size="10.00">iterator</text>
</a>
</g>
</g>
<!-- Node9&#45;&gt;Node12 -->
<g id="edge21" class="edge">
<title>Node9&#45;&gt;Node12</title>
<path fill="none" stroke="midnightblue" d="M330.65,-247.32C350.46,-239.78 370.59,-228.08 382.5,-210 394.76,-191.39 392.7,-164.85 389.29,-147.17"/>
<polygon fill="midnightblue" stroke="midnightblue" points="392.66,-146.22 387.05,-137.23 385.83,-147.75 392.66,-146.22"/>
</g>
<!-- Node9&#45;&gt;Node13 -->
<g id="edge20" class="edge">
<title>Node9&#45;&gt;Node13</title>
<path fill="none" stroke="midnightblue" d="M327.51,-246.44C363.57,-236.9 411.61,-223.6 453.5,-210 455.9,-209.22 458.38,-208.38 460.86,-207.51"/>
<polygon fill="midnightblue" stroke="midnightblue" points="462.11,-210.78 470.34,-204.11 459.74,-204.2 462.11,-210.78"/>
</g>
<!-- Node10&#45;&gt;Node5 -->
<g id="edge13" class="edge">
<title>Node10&#45;&gt;Node5</title>
<path fill="none" stroke="midnightblue" d="M253.69,-112.4C259.87,-103.84 267.8,-92.87 274.32,-83.86"/>
<polygon fill="midnightblue" stroke="midnightblue" points="277.22,-85.81 280.24,-75.66 271.55,-81.71 277.22,-85.81"/>
</g>
<!-- Node11&#45;&gt;Node4 -->
<g id="edge17" class="edge">
<title>Node11&#45;&gt;Node4</title>
<path fill="none" stroke="midnightblue" d="M275.79,-179.4C242.97,-167.74 196.9,-151.37 165.94,-140.38"/>
<polygon fill="midnightblue" stroke="midnightblue" points="167.05,-137.06 156.45,-137.01 164.7,-143.65 167.05,-137.06"/>
</g>
<!-- Node11&#45;&gt;Node5 -->
<g id="edge18" class="edge">
<title>Node11&#45;&gt;Node5</title>
<path fill="none" stroke="midnightblue" d="M316.43,-179.35C317.11,-162.85 316.98,-134.92 310.5,-112 307.76,-102.32 302.73,-92.38 297.98,-84.3"/>
<polygon fill="midnightblue" stroke="midnightblue" points="300.95,-82.45 292.68,-75.82 295.01,-86.15 300.95,-82.45"/>
</g>
<!-- Node11&#45;&gt;Node10 -->
<g id="edge19" class="edge">
<title>Node11&#45;&gt;Node10</title>
<path fill="none" stroke="midnightblue" d="M299.88,-179.4C290.16,-170.62 277.49,-159.18 266.62,-149.37"/>
<polygon fill="midnightblue" stroke="midnightblue" points="268.86,-146.68 259.09,-142.58 264.17,-151.88 268.86,-146.68"/>
</g>
<!-- Node11&#45;&gt;Node12 -->
<g id="edge16" class="edge">
<title>Node11&#45;&gt;Node12</title>
<path fill="none" stroke="midnightblue" d="M330.47,-179.4C341.44,-169.06 356.34,-155.02 367.72,-144.31"/>
<polygon fill="midnightblue" stroke="midnightblue" points="370.39,-146.6 375.27,-137.19 365.59,-141.5 370.39,-146.6"/>
</g>
</g>
</svg>
