<?xml version="1.0" encoding="UTF-8" standalone="no"?>
<!DOCTYPE svg PUBLIC "-//W3C//DTD SVG 1.1//EN"
 "http://www.w3.org/Graphics/SVG/1.1/DTD/svg11.dtd">
<!-- Generated by graphviz version 2.43.0 (0)
 -->
<!-- Title: bio/meta/type_traits/range.hpp Pages: 1 -->
<!--zoomable 285 -->
<svg id="main" version="1.1" xmlns="http://www.w3.org/2000/svg" xmlns:xlink="http://www.w3.org/1999/xlink" xml:space="preserve" onload="init(evt)">
<style type="text/css"><![CDATA[
.edge:hover path { stroke: red; }
.edge:hover polygon { stroke: red; fill: red; }
]]></style>
<script type="text/javascript"><![CDATA[
var edges = document.getElementsByTagName('g');
if (edges && edges.length) {
  for (var i=0;i<edges.length;i++) {
    if (edges[i].id.substr(0,4)=='edge') {
      edges[i].setAttribute('class','edge');
    }
  }
}
]]></script>
        <defs>
                <circle id="rim" cx="0" cy="0" r="7"/>
                <circle id="rim2" cx="0" cy="0" r="3.5"/>
                <g id="zoomPlus">
                        <use xlink:href="#rim" fill="#404040">
                                <set attributeName="fill" to="#808080" begin="zoomplus.mouseover" end="zoomplus.mouseout"/>
                        </use>
                        <path d="M-4,0h8M0,-4v8" fill="none" stroke="white" stroke-width="1.5" pointer-events="none"/>
                </g>
                <g id="zoomMin">
                        <use xlink:href="#rim" fill="#404040">
                                <set attributeName="fill" to="#808080" begin="zoomminus.mouseover" end="zoomminus.mouseout"/>
                        </use>
                        <path d="M-4,0h8" fill="none" stroke="white" stroke-width="1.5" pointer-events="none"/>
                </g>
                <g id="dirArrow">
                        <path fill="none" stroke="white" stroke-width="1.5" d="M0,-3.0v7 M-2.5,-0.5L0,-3.0L2.5,-0.5"/>
                </g>
               <g id="resetDef">
                       <use xlink:href="#rim2" fill="#404040">
                               <set attributeName="fill" to="#808080" begin="reset.mouseover" end="reset.mouseout"/>
                       </use>
               </g>
        </defs>

<script type="text/javascript">
var viewWidth = 503;
var viewHeight = 285;
var sectionId = 'dynsection-0';
</script>
<script xlink:href="svgpan.js"/>
<svg id="graph" class="graph">
<g id="viewport">
<title>bio/meta/type_traits/range.hpp</title>
<polygon fill="white" stroke="transparent" points="-4,4 -4,-281 498.63,-281 498.63,4 -4,4"/>
<!-- Node1 -->
<g id="node1" class="node">
<title>Node1</title>
<g id="a_node1"><a xlink:title="Provides various transformation traits used by the range module.">
<polygon fill="#bfbfbf" stroke="black" points="138.63,-246.5 138.63,-276.5 254.63,-276.5 254.63,-246.5 138.63,-246.5"/>
<text text-anchor="start" x="146.63" y="-264.5" font-family="Helvetica,sans-Serif" font-size="10.00">bio/meta/type_traits</text>
<text text-anchor="middle" x="196.63" y="-253.5" font-family="Helvetica,sans-Serif" font-size="10.00">/range.hpp</text>
</a>
</g>
</g>
<!-- Node2 -->
<g id="node2" class="node">
<title>Node2</title>
<g id="a_node2"><a target="_blank" xlink:href="https://en.cppreference.com/w/cpp/header/type_traits.html" xlink:title=" ">
<polygon fill="white" stroke="black" points="259.13,-118 259.13,-137 328.13,-137 328.13,-118 259.13,-118"/>
<text text-anchor="middle" x="293.63" y="-125" font-family="Helvetica,sans-Serif" font-size="10.00">type_traits</text>
</a>
</g>
</g>
<!-- Node1&#45;&gt;Node2 -->
<g id="edge1" class="edge">
<title>Node1&#45;&gt;Node2</title>
<path fill="none" stroke="midnightblue" d="M221.79,-246.48C235.76,-237.59 252.51,-224.97 263.63,-210 277.71,-191.04 285.8,-164.76 289.95,-147.22"/>
<polygon fill="midnightblue" stroke="midnightblue" points="293.44,-147.64 292.13,-137.12 286.6,-146.16 293.44,-147.64"/>
</g>
<!-- Node3 -->
<g id="node3" class="node">
<title>Node3</title>
<g id="a_node3"><a xlink:href="platform_8hpp.html" target="_top" xlink:title="Provides platform and dependency checks.">
<polygon fill="white" stroke="black" points="88.63,-56.5 88.63,-75.5 214.63,-75.5 214.63,-56.5 88.63,-56.5"/>
<text text-anchor="middle" x="151.63" y="-63.5" font-family="Helvetica,sans-Serif" font-size="10.00">bio/meta/platform.hpp</text>
</a>
</g>
</g>
<!-- Node1&#45;&gt;Node3 -->
<g id="edge2" class="edge">
<title>Node1&#45;&gt;Node3</title>
<path fill="none" stroke="midnightblue" d="M146.6,-246.38C99.83,-230.1 33.18,-198.22 5.63,-143 -0.52,-130.67 -2.55,-123.08 5.63,-112 22.61,-89 51.16,-77.39 78.54,-71.66"/>
<polygon fill="midnightblue" stroke="midnightblue" points="79.35,-75.07 88.55,-69.8 78.08,-68.19 79.35,-75.07"/>
</g>
<!-- Node7 -->
<g id="node7" class="node">
<title>Node7</title>
<g id="a_node7"><a xlink:href="pre_8hpp.html" target="_top" xlink:title="Provides various transformation trait base templates and shortcuts.">
<polygon fill="white" stroke="black" points="14.63,-112.5 14.63,-142.5 130.63,-142.5 130.63,-112.5 14.63,-112.5"/>
<text text-anchor="start" x="22.63" y="-130.5" font-family="Helvetica,sans-Serif" font-size="10.00">bio/meta/type_traits</text>
<text text-anchor="middle" x="72.63" y="-119.5" font-family="Helvetica,sans-Serif" font-size="10.00">/pre.hpp</text>
</a>
</g>
</g>
<!-- Node1&#45;&gt;Node7 -->
<g id="edge6" class="edge">
<title>Node1&#45;&gt;Node7</title>
<path fill="none" stroke="midnightblue" d="M169.09,-246.29C153.57,-237.35 134.57,-224.72 120.63,-210 104.49,-192.96 91.41,-169.54 83,-152.17"/>
<polygon fill="midnightblue" stroke="midnightblue" points="86,-150.33 78.6,-142.75 79.66,-153.29 86,-150.33"/>
</g>
<!-- Node8 -->
<g id="node8" class="node">
<title>Node8</title>
<g id="a_node8"><a xlink:href="basic_8hpp.html" target="_top" xlink:title="Provides various type traits on generic types.">
<polygon fill="white" stroke="black" points="310.63,-179.5 310.63,-209.5 426.63,-209.5 426.63,-179.5 310.63,-179.5"/>
<text text-anchor="start" x="318.63" y="-197.5" font-family="Helvetica,sans-Serif" font-size="10.00">bio/meta/type_traits</text>
<text text-anchor="middle" x="368.63" y="-186.5" font-family="Helvetica,sans-Serif" font-size="10.00">/basic.hpp</text>
</a>
</g>
</g>
<!-- Node1&#45;&gt;Node8 -->
<g id="edge8" class="edge">
<title>Node1&#45;&gt;Node8</title>
<path fill="none" stroke="midnightblue" d="M233.95,-246.4C259.76,-236.64 294.29,-223.59 321.92,-213.15"/>
<polygon fill="midnightblue" stroke="midnightblue" points="323.26,-216.39 331.38,-209.58 320.79,-209.84 323.26,-216.39"/>
</g>
<!-- Node10 -->
<g id="node10" class="node">
<title>Node10</title>
<g id="a_node10"><a xlink:href="iterator_8hpp.html" target="_top" xlink:title="Provides various transformation traits for use on iterators.">
<polygon fill="white" stroke="black" points="138.63,-179.5 138.63,-209.5 254.63,-209.5 254.63,-179.5 138.63,-179.5"/>
<text text-anchor="start" x="146.63" y="-197.5" font-family="Helvetica,sans-Serif" font-size="10.00">bio/meta/type_traits</text>
<text text-anchor="middle" x="196.63" y="-186.5" font-family="Helvetica,sans-Serif" font-size="10.00">/iterator.hpp</text>
</a>
</g>
</g>
<!-- Node1&#45;&gt;Node10 -->
<g id="edge12" class="edge">
<title>Node1&#45;&gt;Node10</title>
<path fill="none" stroke="midnightblue" d="M196.63,-246.4C196.63,-238.64 196.63,-228.81 196.63,-219.86"/>
<polygon fill="midnightblue" stroke="midnightblue" points="200.13,-219.58 196.63,-209.58 193.13,-219.58 200.13,-219.58"/>
</g>
<!-- Node11 -->
<g id="node11" class="node">
<title>Node11</title>
<g id="a_node11"><a target="_blank" xlink:href="https://en.cppreference.com/w/cpp/header/iterator.html" xlink:title=" ">
<polygon fill="white" stroke="black" points="149.13,-118 149.13,-137 202.13,-137 202.13,-118 149.13,-118"/>
<text text-anchor="middle" x="175.63" y="-125" font-family="Helvetica,sans-Serif" font-size="10.00">iterator</text>
</a>
</g>
</g>
<!-- Node1&#45;&gt;Node11 -->
<g id="edge18" class="edge">
<title>Node1&#45;&gt;Node11</title>
<path fill="none" stroke="midnightblue" d="M166.94,-246.34C152.89,-237.92 137.49,-225.77 129.63,-210 123.48,-197.67 124.65,-191.85 129.63,-179 135.03,-165.04 146.3,-152.56 156.32,-143.51"/>
<polygon fill="midnightblue" stroke="midnightblue" points="158.61,-146.16 163.96,-137.01 154.08,-140.82 158.61,-146.16"/>
</g>
<!-- Node12 -->
<g id="node12" class="node">
<title>Node12</title>
<g id="a_node12"><a target="_blank" xlink:href="https://en.cppreference.com/w/cpp/header/ranges.html" xlink:title=" ">
<polygon fill="white" stroke="black" points="444.63,-185 444.63,-204 494.63,-204 494.63,-185 444.63,-185"/>
<text text-anchor="middle" x="469.63" y="-192" font-family="Helvetica,sans-Serif" font-size="10.00">ranges</text>
</a>
</g>
</g>
<!-- Node1&#45;&gt;Node12 -->
<g id="edge17" class="edge">
<title>Node1&#45;&gt;Node12</title>
<path fill="none" stroke="midnightblue" d="M254.91,-251.46C303.81,-243.1 375.17,-229.08 435.63,-210 437.56,-209.39 439.52,-208.71 441.49,-207.99"/>
<polygon fill="midnightblue" stroke="midnightblue" points="443.17,-211.09 451.17,-204.14 440.58,-204.59 443.17,-211.09"/>
</g>
<!-- Node4 -->
<g id="node4" class="node">
<title>Node4</title>
<g id="a_node4"><a target="_blank" xlink:href="https://en.cppreference.com/w/cpp/header/cinttypes.html" xlink:title=" ">
<polygon fill="white" stroke="black" points="44.63,-0.5 44.63,-19.5 106.63,-19.5 106.63,-0.5 44.63,-0.5"/>
<text text-anchor="middle" x="75.63" y="-7.5" font-family="Helvetica,sans-Serif" font-size="10.00">cinttypes</text>
</a>
</g>
</g>
<!-- Node3&#45;&gt;Node4 -->
<g id="edge3" class="edge">
<title>Node3&#45;&gt;Node4</title>
<path fill="none" stroke="midnightblue" d="M139.42,-56.32C127.85,-48.11 110.25,-35.6 96.47,-25.81"/>
<polygon fill="midnightblue" stroke="midnightblue" points="98.24,-22.77 88.06,-19.83 94.19,-28.48 98.24,-22.77"/>
</g>
<!-- Node5 -->
<g id="node5" class="node">
<title>Node5</title>
<g id="a_node5"><a target="_blank" xlink:href="https://en.cppreference.com/w/cpp/header/ciso646.html" xlink:title=" ">
<polygon fill="white" stroke="black" points="124.63,-0.5 124.63,-19.5 178.63,-19.5 178.63,-0.5 124.63,-0.5"/>
<text text-anchor="middle" x="151.63" y="-7.5" font-family="Helvetica,sans-Serif" font-size="10.00">ciso646</text>
</a>
</g>
</g>
<!-- Node3&#45;&gt;Node5 -->
<g id="edge4" class="edge">
<title>Node3&#45;&gt;Node5</title>
<path fill="none" stroke="midnightblue" d="M151.63,-56.08C151.63,-49.01 151.63,-38.86 151.63,-29.99"/>
<polygon fill="midnightblue" stroke="midnightblue" points="155.13,-29.75 151.63,-19.75 148.13,-29.75 155.13,-29.75"/>
</g>
<!-- Node6 -->
<g id="node6" class="node">
<title>Node6</title>
<g id="a_node6"><a target="_blank" xlink:href="https://en.cppreference.com/w/cpp/header/cstddef.html" xlink:title=" ">
<polygon fill="white" stroke="black" points="197.13,-0.5 197.13,-19.5 250.13,-19.5 250.13,-0.5 197.13,-0.5"/>
<text text-anchor="middle" x="223.63" y="-7.5" font-family="Helvetica,sans-Serif" font-size="10.00">cstddef</text>
</a>
</g>
</g>
<!-- Node3&#45;&gt;Node6 -->
<g id="edge5" class="edge">
<title>Node3&#45;&gt;Node6</title>
<path fill="none" stroke="midnightblue" d="M163.2,-56.32C174.05,-48.18 190.51,-35.84 203.51,-26.09"/>
<polygon fill="midnightblue" stroke="midnightblue" points="205.95,-28.63 211.85,-19.83 201.75,-23.03 205.95,-28.63"/>
</g>
<!-- Node7&#45;&gt;Node3 -->
<g id="edge7" class="edge">
<title>Node7&#45;&gt;Node3</title>
<path fill="none" stroke="midnightblue" d="M91.35,-112.4C103.54,-103.22 119.42,-91.26 131.82,-81.92"/>
<polygon fill="midnightblue" stroke="midnightblue" points="134.25,-84.47 140.13,-75.66 130.04,-78.88 134.25,-84.47"/>
</g>
<!-- Node8&#45;&gt;Node2 -->
<g id="edge10" class="edge">
<title>Node8&#45;&gt;Node2</title>
<path fill="none" stroke="midnightblue" d="M352.36,-179.4C340.31,-168.96 323.92,-154.75 311.51,-144"/>
<polygon fill="midnightblue" stroke="midnightblue" points="313.51,-141.1 303.66,-137.19 308.93,-146.39 313.51,-141.1"/>
</g>
<!-- Node8&#45;&gt;Node3 -->
<g id="edge11" class="edge">
<title>Node8&#45;&gt;Node3</title>
<path fill="none" stroke="midnightblue" d="M381.01,-179.32C394.8,-161.77 413.1,-131.77 396.63,-112 375.05,-86.1 288.88,-75.05 224.8,-70.38"/>
<polygon fill="midnightblue" stroke="midnightblue" points="224.94,-66.88 214.72,-69.68 224.46,-73.86 224.94,-66.88"/>
</g>
<!-- Node9 -->
<g id="node9" class="node">
<title>Node9</title>
<g id="a_node9"><a target="_blank" xlink:href="https://en.cppreference.com/w/cpp/header/tuple.html" xlink:title=" ">
<polygon fill="white" stroke="black" points="346.13,-118 346.13,-137 387.13,-137 387.13,-118 346.13,-118"/>
<text text-anchor="middle" x="366.63" y="-125" font-family="Helvetica,sans-Serif" font-size="10.00">tuple</text>
</a>
</g>
</g>
<!-- Node8&#45;&gt;Node9 -->
<g id="edge9" class="edge">
<title>Node8&#45;&gt;Node9</title>
<path fill="none" stroke="midnightblue" d="M368.2,-179.4C367.91,-170.06 367.53,-157.71 367.21,-147.52"/>
<polygon fill="midnightblue" stroke="midnightblue" points="370.7,-147.08 366.9,-137.19 363.71,-147.3 370.7,-147.08"/>
</g>
<!-- Node10&#45;&gt;Node2 -->
<g id="edge14" class="edge">
<title>Node10&#45;&gt;Node2</title>
<path fill="none" stroke="midnightblue" d="M217.68,-179.4C233.94,-168.5 256.35,-153.48 272.61,-142.58"/>
<polygon fill="midnightblue" stroke="midnightblue" points="274.57,-145.48 280.93,-137.01 270.68,-139.67 274.57,-145.48"/>
</g>
<!-- Node10&#45;&gt;Node3 -->
<g id="edge15" class="edge">
<title>Node10&#45;&gt;Node3</title>
<path fill="none" stroke="midnightblue" d="M204.27,-179.49C212.36,-162.64 222.57,-133.88 211.63,-112 204.9,-98.54 192.02,-88.07 179.92,-80.62"/>
<polygon fill="midnightblue" stroke="midnightblue" points="181.35,-77.41 170.93,-75.52 177.9,-83.5 181.35,-77.41"/>
</g>
<!-- Node10&#45;&gt;Node7 -->
<g id="edge16" class="edge">
<title>Node10&#45;&gt;Node7</title>
<path fill="none" stroke="midnightblue" d="M169.72,-179.4C151.77,-169.98 127.96,-157.5 108.41,-147.26"/>
<polygon fill="midnightblue" stroke="midnightblue" points="109.96,-144.12 99.48,-142.58 106.71,-150.32 109.96,-144.12"/>
</g>
<!-- Node10&#45;&gt;Node11 -->
<g id="edge13" class="edge">
<title>Node10&#45;&gt;Node11</title>
<path fill="none" stroke="midnightblue" d="M192.07,-179.4C188.99,-169.86 184.9,-157.18 181.56,-146.86"/>
<polygon fill="midnightblue" stroke="midnightblue" points="184.84,-145.63 178.44,-137.19 178.18,-147.79 184.84,-145.63"/>
</g>
</g>
</svg>
        <g id="navigator" transform="translate(0 0)" fill="#404254">
                <rect fill="#f2f5e9" fill-opacity="0.5" stroke="#606060" stroke-width=".5" x="0" y="0" width="60" height="60"/>
                <use id="zoomplus" xlink:href="#zoomPlus" x="17" y="9" onmousedown="handleZoom(evt,'in')"/>
                <use id="zoomminus" xlink:href="#zoomMin" x="42" y="9" onmousedown="handleZoom(evt,'out')"/>
                <use id="reset" xlink:href="#resetDef" x="30" y="36" onmousedown="handleReset()"/>
                <g id="arrowUp" xlink:href="#dirArrow" transform="translate(30 24)" onmousedown="handlePan(0,-1)">
                  <use xlink:href="#rim" fill="#404040">
                        <set attributeName="fill" to="#808080" begin="arrowUp.mouseover" end="arrowUp.mouseout"/>
                  </use>
                  <path fill="none" stroke="white" stroke-width="1.5" d="M0,-3.0v7 M-2.5,-0.5L0,-3.0L2.5,-0.5"/>
                </g>
                <g id="arrowRight" xlink:href="#dirArrow" transform="rotate(90) translate(36 -43)" onmousedown="handlePan(1,0)">
                  <use xlink:href="#rim" fill="#404040">
                        <set attributeName="fill" to="#808080" begin="arrowRight.mouseover" end="arrowRight.mouseout"/>
                  </use>
                  <path fill="none" stroke="white" stroke-width="1.5" d="M0,-3.0v7 M-2.5,-0.5L0,-3.0L2.5,-0.5"/>
                </g>
                <g id="arrowDown" xlink:href="#dirArrow" transform="rotate(180) translate(-30 -48)" onmousedown="handlePan(0,1)">
                  <use xlink:href="#rim" fill="#404040">
                        <set attributeName="fill" to="#808080" begin="arrowDown.mouseover" end="arrowDown.mouseout"/>
                  </use>
                  <path fill="none" stroke="white" stroke-width="1.5" d="M0,-3.0v7 M-2.5,-0.5L0,-3.0L2.5,-0.5"/>
                </g>
                <g id="arrowLeft" xlink:href="#dirArrow" transform="rotate(270) translate(-36 17)" onmousedown="handlePan(-1,0)">
                  <use xlink:href="#rim" fill="#404040">
                        <set attributeName="fill" to="#808080" begin="arrowLeft.mouseover" end="arrowLeft.mouseout"/>
                  </use>
                  <path fill="none" stroke="white" stroke-width="1.5" d="M0,-3.0v7 M-2.5,-0.5L0,-3.0L2.5,-0.5"/>
                </g>
        </g>
        <svg viewBox="0 0 15 15" width="100%" height="30px" preserveAspectRatio="xMaxYMin meet">
         <g id="arrow_out" transform="scale(0.3 0.3)">
          <a xlink:href="range_8hpp__incl_org.svg" target="_base">
           <rect id="button" ry="5" rx="5" y="6" x="6" height="38" width="38"
                fill="#f2f5e9" fill-opacity="0.5" stroke="#606060" stroke-width="1.0"/>
           <path id="arrow"
             d="M 11.500037,31.436501 C 11.940474,20.09759 22.043105,11.32322 32.158766,21.979434 L 37.068811,17.246167 C 37.068811,17.246167 37.088388,32 37.088388,32 L 22.160133,31.978069 C 22.160133,31.978069 26.997745,27.140456 26.997745,27.140456 C 18.528582,18.264221 13.291696,25.230495 11.500037,31.436501 z"
             style="fill:#404040;"/>
          </a>
         </g>
        </svg>
</svg>
