<?xml version="1.0" encoding="UTF-8" standalone="no"?>
<!DOCTYPE svg PUBLIC "-//W3C//DTD SVG 1.1//EN"
 "http://www.w3.org/Graphics/SVG/1.1/DTD/svg11.dtd">
<!-- Generated by graphviz version 2.43.0 (0)
 -->
<!-- Title: bio/ranges/views/convert.hpp Pages: 1 -->
<svg width="310pt" height="218pt"
 viewBox="0.00 0.00 309.50 218.00" xmlns="http://www.w3.org/2000/svg" xmlns:xlink="http://www.w3.org/1999/xlink">
<g id="graph0" class="graph" transform="scale(1 1) rotate(0) translate(4 214)">
<title>bio/ranges/views/convert.hpp</title>
<polygon fill="white" stroke="transparent" points="-4,4 -4,-214 305.5,-214 305.5,4 -4,4"/>
<!-- Node1 -->
<g id="node1" class="node">
<title>Node1</title>
<g id="a_node1"><a xlink:title="Provides bio::views::convert.">
<polygon fill="#bfbfbf" stroke="black" points="74,-190.5 74,-209.5 234,-209.5 234,-190.5 74,-190.5"/>
<text text-anchor="middle" x="154" y="-197.5" font-family="Helvetica,sans-Serif" font-size="10.00">bio/ranges/views/convert.hpp</text>
</a>
</g>
</g>
<!-- Node2 -->
<g id="node2" class="node">
<title>Node2</title>
<g id="a_node2"><a xlink:href="bitcompressed__vector_8hpp.html" target="_top" xlink:title="Provides bio::ranges::bitcompressed_vector.">
<polygon fill="white" stroke="black" points="0,-123.5 0,-153.5 148,-153.5 148,-123.5 0,-123.5"/>
<text text-anchor="start" x="8" y="-141.5" font-family="Helvetica,sans-Serif" font-size="10.00">bio/ranges/container</text>
<text text-anchor="middle" x="74" y="-130.5" font-family="Helvetica,sans-Serif" font-size="10.00">/bitcompressed_vector.hpp</text>
</a>
</g>
</g>
<!-- Node1&#45;&gt;Node2 -->
<g id="edge1" class="edge">
<title>Node1&#45;&gt;Node2</title>
<path fill="none" stroke="midnightblue" d="M134.46,-184.47C121.79,-175.05 105.38,-162.84 92.85,-153.52"/>
<polygon fill="midnightblue" stroke="midnightblue" points="132.43,-187.32 142.54,-190.48 136.6,-181.7 132.43,-187.32"/>
</g>
<!-- Node5 -->
<g id="node5" class="node">
<title>Node5</title>
<g id="a_node5"><a xlink:href="ranges_2views_2all_8hpp.html" target="_top" xlink:title="Meta&#45;header for the views submodule .">
<polygon fill="white" stroke="black" points="166.5,-129 166.5,-148 301.5,-148 301.5,-129 166.5,-129"/>
<text text-anchor="middle" x="234" y="-136" font-family="Helvetica,sans-Serif" font-size="10.00">bio/ranges/views/all.hpp</text>
</a>
</g>
</g>
<!-- Node1&#45;&gt;Node5 -->
<g id="edge4" class="edge">
<title>Node1&#45;&gt;Node5</title>
<path fill="none" stroke="midnightblue" d="M173.77,-184.29C189.12,-172.88 209.86,-157.46 222.56,-148.01"/>
<polygon fill="midnightblue" stroke="midnightblue" points="171.4,-181.7 165.46,-190.48 175.57,-187.32 171.4,-181.7"/>
</g>
<!-- Node3 -->
<g id="node3" class="node">
<title>Node3</title>
<g id="a_node3"><a xlink:href="ranges_2container_2all_8hpp.html" target="_top" xlink:title="Meta&#45;header for the container submodule .">
<polygon fill="white" stroke="black" points="16,-56.5 16,-86.5 132,-86.5 132,-56.5 16,-56.5"/>
<text text-anchor="start" x="24" y="-74.5" font-family="Helvetica,sans-Serif" font-size="10.00">bio/ranges/container</text>
<text text-anchor="middle" x="74" y="-63.5" font-family="Helvetica,sans-Serif" font-size="10.00">/all.hpp</text>
</a>
</g>
</g>
<!-- Node2&#45;&gt;Node3 -->
<g id="edge2" class="edge">
<title>Node2&#45;&gt;Node3</title>
<path fill="none" stroke="midnightblue" d="M74,-113.11C74,-104.15 74,-94.32 74,-86.58"/>
<polygon fill="midnightblue" stroke="midnightblue" points="70.5,-113.4 74,-123.4 77.5,-113.4 70.5,-113.4"/>
</g>
<!-- Node4 -->
<g id="node4" class="node">
<title>Node4</title>
<g id="a_node4"><a xlink:href="ranges_2all_8hpp.html" target="_top" xlink:title="Meta&#45;header for the ranges module .">
<polygon fill="white" stroke="black" points="22,-0.5 22,-19.5 126,-19.5 126,-0.5 22,-0.5"/>
<text text-anchor="middle" x="74" y="-7.5" font-family="Helvetica,sans-Serif" font-size="10.00">bio/ranges/all.hpp</text>
</a>
</g>
</g>
<!-- Node3&#45;&gt;Node4 -->
<g id="edge3" class="edge">
<title>Node3&#45;&gt;Node4</title>
<path fill="none" stroke="midnightblue" d="M74,-46.29C74,-36.86 74,-26.65 74,-19.66"/>
<polygon fill="midnightblue" stroke="midnightblue" points="70.5,-46.4 74,-56.4 77.5,-46.4 70.5,-46.4"/>
</g>
</g>
</svg>
