<?xml version="1.0" encoding="UTF-8" standalone="no"?>
<!DOCTYPE svg PUBLIC "-//W3C//DTD SVG 1.1//EN"
 "http://www.w3.org/Graphics/SVG/1.1/DTD/svg11.dtd">
<!-- Generated by graphviz version 2.42.2 ()
 -->
<!-- Title: bio/ranges/container/concept.hpp Pages: 1 -->
<svg width="809pt" height="497pt"
 viewBox="0.00 0.00 808.50 497.00" xmlns="http://www.w3.org/2000/svg" xmlns:xlink="http://www.w3.org/1999/xlink">
<g id="graph0" class="graph" transform="scale(1 1) rotate(0) translate(4 493)">
<title>bio/ranges/container/concept.hpp</title>
<polygon fill="white" stroke="transparent" points="-4,4 -4,-493 804.5,-493 804.5,4 -4,4"/>
<!-- Node1 -->
<g id="node1" class="node">
<title>Node1</title>
<g id="a_node1"><a xlink:title="Adaptations of concepts from the standard library.">
<polygon fill="#bfbfbf" stroke="black" points="299,-458.5 299,-488.5 403,-488.5 403,-458.5 299,-458.5"/>
<text text-anchor="start" x="307" y="-476.5" font-family="Helvetica,sans-Serif" font-size="10.00">bio/ranges/container</text>
<text text-anchor="middle" x="351" y="-465.5" font-family="Helvetica,sans-Serif" font-size="10.00">/concept.hpp</text>
</a>
</g>
</g>
<!-- Node2 -->
<g id="node2" class="node">
<title>Node2</title>
<g id="a_node2"><a xlink:href="concatenated__sequences_8hpp.html" target="_top" xlink:title="Provides bio::ranges::concatenated_sequences.">
<polygon fill="white" stroke="black" points="188.5,-201.5 188.5,-231.5 337.5,-231.5 337.5,-201.5 188.5,-201.5"/>
<text text-anchor="start" x="196.5" y="-219.5" font-family="Helvetica,sans-Serif" font-size="10.00">bio/ranges/container</text>
<text text-anchor="middle" x="263" y="-208.5" font-family="Helvetica,sans-Serif" font-size="10.00">/concatenated_sequences.hpp</text>
</a>
</g>
</g>
<!-- Node1&#45;&gt;Node2 -->
<g id="edge1" class="edge">
<title>Node1&#45;&gt;Node2</title>
<path fill="none" stroke="midnightblue" d="M323.32,-451.62C314.21,-443.37 304.92,-433.18 299,-422 264.66,-357.17 262.17,-266.19 262.59,-231.6"/>
<polygon fill="midnightblue" stroke="midnightblue" points="321.3,-454.5 331.17,-458.35 325.85,-449.19 321.3,-454.5"/>
</g>
<!-- Node5 -->
<g id="node5" class="node">
<title>Node5</title>
<g id="a_node5"><a xlink:href="persist_8hpp.html" target="_top" xlink:title="Provides bio::views::persist.">
<polygon fill="white" stroke="black" points="41.5,-341 41.5,-360 182.5,-360 182.5,-341 41.5,-341"/>
<text text-anchor="middle" x="112" y="-348" font-family="Helvetica,sans-Serif" font-size="10.00">bio/ranges/views/persist.hpp</text>
</a>
</g>
</g>
<!-- Node1&#45;&gt;Node5 -->
<g id="edge4" class="edge">
<title>Node1&#45;&gt;Node5</title>
<path fill="none" stroke="midnightblue" d="M314.13,-453.83C261.6,-427.24 167.36,-379.53 128.97,-360.09"/>
<polygon fill="midnightblue" stroke="midnightblue" points="312.61,-456.99 323.12,-458.38 315.78,-450.74 312.61,-456.99"/>
</g>
<!-- Node9 -->
<g id="node9" class="node">
<title>Node9</title>
<g id="a_node9"><a xlink:href="take_8hpp.html" target="_top" xlink:title="Provides bio::views::take.">
<polygon fill="white" stroke="black" points="308.5,-402.5 308.5,-421.5 439.5,-421.5 439.5,-402.5 308.5,-402.5"/>
<text text-anchor="middle" x="374" y="-409.5" font-family="Helvetica,sans-Serif" font-size="10.00">bio/ranges/views/take.hpp</text>
</a>
</g>
</g>
<!-- Node1&#45;&gt;Node9 -->
<g id="edge9" class="edge">
<title>Node1&#45;&gt;Node9</title>
<path fill="none" stroke="midnightblue" d="M360.12,-448.9C363.83,-439.3 367.89,-428.81 370.65,-421.66"/>
<polygon fill="midnightblue" stroke="midnightblue" points="356.79,-447.81 356.45,-458.4 363.32,-450.33 356.79,-447.81"/>
</g>
<!-- Node16 -->
<g id="node16" class="node">
<title>Node16</title>
<g id="a_node16"><a xlink:href="translate_8hpp.html" target="_top" xlink:title="Provides bio::views::translate and bio::views::translate_single.">
<polygon fill="white" stroke="black" points="651.5,-73 651.5,-92 800.5,-92 800.5,-73 651.5,-73"/>
<text text-anchor="middle" x="726" y="-80" font-family="Helvetica,sans-Serif" font-size="10.00">bio/ranges/views/translate.hpp</text>
</a>
</g>
</g>
<!-- Node1&#45;&gt;Node16 -->
<g id="edge24" class="edge">
<title>Node1&#45;&gt;Node16</title>
<path fill="none" stroke="midnightblue" d="M413.24,-462.53C508.1,-445.55 678,-407.35 678,-351.5 678,-351.5 678,-351.5 678,-215.5 678,-166.24 707.89,-112.53 720.49,-92.07"/>
<polygon fill="midnightblue" stroke="midnightblue" points="412.42,-459.12 403.18,-464.3 413.63,-466.02 412.42,-459.12"/>
</g>
<!-- Node3 -->
<g id="node3" class="node">
<title>Node3</title>
<g id="a_node3"><a xlink:href="ranges_2container_2all_8hpp.html" target="_top" xlink:title="Meta&#45;header for the container submodule .">
<polygon fill="white" stroke="black" points="279,-134.5 279,-164.5 383,-164.5 383,-134.5 279,-134.5"/>
<text text-anchor="start" x="287" y="-152.5" font-family="Helvetica,sans-Serif" font-size="10.00">bio/ranges/container</text>
<text text-anchor="middle" x="331" y="-141.5" font-family="Helvetica,sans-Serif" font-size="10.00">/all.hpp</text>
</a>
</g>
</g>
<!-- Node2&#45;&gt;Node3 -->
<g id="edge2" class="edge">
<title>Node2&#45;&gt;Node3</title>
<path fill="none" stroke="midnightblue" d="M285.17,-194.31C295.37,-184.56 307.19,-173.26 316.27,-164.58"/>
<polygon fill="midnightblue" stroke="midnightblue" points="282.57,-191.96 277.75,-201.4 287.4,-197.02 282.57,-191.96"/>
</g>
<!-- Node4 -->
<g id="node4" class="node">
<title>Node4</title>
<g id="a_node4"><a xlink:href="ranges_2all_8hpp.html" target="_top" xlink:title="Meta&#45;header for the ranges module .">
<polygon fill="white" stroke="black" points="284.5,-73 284.5,-92 377.5,-92 377.5,-73 284.5,-73"/>
<text text-anchor="middle" x="331" y="-80" font-family="Helvetica,sans-Serif" font-size="10.00">bio/ranges/all.hpp</text>
</a>
</g>
</g>
<!-- Node3&#45;&gt;Node4 -->
<g id="edge3" class="edge">
<title>Node3&#45;&gt;Node4</title>
<path fill="none" stroke="midnightblue" d="M331,-124.25C331,-113.02 331,-100.38 331,-92.19"/>
<polygon fill="midnightblue" stroke="midnightblue" points="327.5,-124.4 331,-134.4 334.5,-124.4 327.5,-124.4"/>
</g>
<!-- Node6 -->
<g id="node6" class="node">
<title>Node6</title>
<g id="a_node6"><a xlink:href="ranges_2views_2all_8hpp.html" target="_top" xlink:title="Meta&#45;header for the views submodule .">
<polygon fill="white" stroke="black" points="249,-6 249,-25 371,-25 371,-6 249,-6"/>
<text text-anchor="middle" x="310" y="-13" font-family="Helvetica,sans-Serif" font-size="10.00">bio/ranges/views/all.hpp</text>
</a>
</g>
</g>
<!-- Node5&#45;&gt;Node6 -->
<g id="edge5" class="edge">
<title>Node5&#45;&gt;Node6</title>
<path fill="none" stroke="midnightblue" d="M78.41,-336.79C60.57,-328.49 39.59,-316 26,-299 2.26,-269.3 0,-255.52 0,-217.5 0,-217.5 0,-217.5 0,-148.5 0,-41.45 158.41,-20 248.75,-16.47"/>
<polygon fill="midnightblue" stroke="midnightblue" points="77.37,-340.15 87.93,-340.97 80.18,-333.74 77.37,-340.15"/>
</g>
<!-- Node7 -->
<g id="node7" class="node">
<title>Node7</title>
<g id="a_node7"><a xlink:href="interleave_8hpp.html" target="_top" xlink:title="Provides bio::views::interleave.">
<polygon fill="white" stroke="black" points="35,-274 35,-293 189,-293 189,-274 35,-274"/>
<text text-anchor="middle" x="112" y="-281" font-family="Helvetica,sans-Serif" font-size="10.00">bio/ranges/views/interleave.hpp</text>
</a>
</g>
</g>
<!-- Node5&#45;&gt;Node7 -->
<g id="edge6" class="edge">
<title>Node5&#45;&gt;Node7</title>
<path fill="none" stroke="midnightblue" d="M112,-330.54C112,-318.17 112,-302.62 112,-293.13"/>
<polygon fill="midnightblue" stroke="midnightblue" points="108.5,-330.73 112,-340.73 115.5,-330.73 108.5,-330.73"/>
</g>
<!-- Node7&#45;&gt;Node6 -->
<g id="edge8" class="edge">
<title>Node7&#45;&gt;Node6</title>
<path fill="none" stroke="midnightblue" d="M88.81,-268.13C76.9,-259.33 63.55,-246.9 57,-232 51.46,-219.39 50.76,-213.28 57,-201 106.4,-103.84 233.61,-45.7 286.45,-25.06"/>
<polygon fill="midnightblue" stroke="midnightblue" points="86.89,-271.06 97.1,-273.88 90.88,-265.31 86.89,-271.06"/>
</g>
<!-- Node8 -->
<g id="node8" class="node">
<title>Node8</title>
<g id="a_node8"><a xlink:href="dynamic__bitset_8hpp.html" target="_top" xlink:title="A constexpr bitset implementation with dynamic size at compile time.">
<polygon fill="white" stroke="black" points="66,-201.5 66,-231.5 170,-231.5 170,-201.5 66,-201.5"/>
<text text-anchor="start" x="74" y="-219.5" font-family="Helvetica,sans-Serif" font-size="10.00">bio/ranges/container</text>
<text text-anchor="middle" x="118" y="-208.5" font-family="Helvetica,sans-Serif" font-size="10.00">/dynamic_bitset.hpp</text>
</a>
</g>
</g>
<!-- Node7&#45;&gt;Node8 -->
<g id="edge7" class="edge">
<title>Node7&#45;&gt;Node8</title>
<path fill="none" stroke="midnightblue" d="M113.73,-263.74C114.68,-253.49 115.83,-241 116.7,-231.59"/>
<polygon fill="midnightblue" stroke="midnightblue" points="110.24,-263.45 112.81,-273.73 117.21,-264.1 110.24,-263.45"/>
</g>
<!-- Node10 -->
<g id="node10" class="node">
<title>Node10</title>
<g id="a_node10"><a xlink:href="take__exactly_8hpp.html" target="_top" xlink:title="Provides bio::views::take_exactly and bio::views::take_exactly_or_throw.">
<polygon fill="white" stroke="black" points="334,-335.5 334,-365.5 446,-365.5 446,-335.5 334,-335.5"/>
<text text-anchor="start" x="342" y="-353.5" font-family="Helvetica,sans-Serif" font-size="10.00">bio/ranges/views/take</text>
<text text-anchor="middle" x="390" y="-342.5" font-family="Helvetica,sans-Serif" font-size="10.00">_exactly.hpp</text>
</a>
</g>
</g>
<!-- Node9&#45;&gt;Node10 -->
<g id="edge10" class="edge">
<title>Node9&#45;&gt;Node10</title>
<path fill="none" stroke="midnightblue" d="M378.89,-392.82C381.25,-384.04 384.04,-373.68 386.23,-365.52"/>
<polygon fill="midnightblue" stroke="midnightblue" points="375.51,-391.91 376.29,-402.48 382.27,-393.73 375.51,-391.91"/>
</g>
<!-- Node10&#45;&gt;Node6 -->
<g id="edge11" class="edge">
<title>Node10&#45;&gt;Node6</title>
<path fill="none" stroke="midnightblue" d="M456.16,-335.82C510.94,-320.62 585.35,-290.13 621,-232 643.77,-194.87 635.68,-175.01 621,-134 608.02,-97.73 599.06,-86.78 566,-67 506.13,-31.19 425.65,-20.19 371.02,-17.11"/>
<polygon fill="midnightblue" stroke="midnightblue" points="454.94,-332.52 446.18,-338.48 456.74,-339.28 454.94,-332.52"/>
</g>
<!-- Node11 -->
<g id="node11" class="node">
<title>Node11</title>
<g id="a_node11"><a xlink:href="repeat__n_8hpp.html" target="_top" xlink:title="Provides bio::views::repeat_n.">
<polygon fill="white" stroke="black" points="330,-268.5 330,-298.5 450,-298.5 450,-268.5 330,-268.5"/>
<text text-anchor="start" x="338" y="-286.5" font-family="Helvetica,sans-Serif" font-size="10.00">bio/ranges/views/repeat</text>
<text text-anchor="middle" x="390" y="-275.5" font-family="Helvetica,sans-Serif" font-size="10.00">_n.hpp</text>
</a>
</g>
</g>
<!-- Node10&#45;&gt;Node11 -->
<g id="edge12" class="edge">
<title>Node10&#45;&gt;Node11</title>
<path fill="none" stroke="midnightblue" d="M390,-325.11C390,-316.15 390,-306.32 390,-298.58"/>
<polygon fill="midnightblue" stroke="midnightblue" points="386.5,-325.4 390,-335.4 393.5,-325.4 386.5,-325.4"/>
</g>
<!-- Node11&#45;&gt;Node2 -->
<g id="edge15" class="edge">
<title>Node11&#45;&gt;Node2</title>
<path fill="none" stroke="midnightblue" d="M353.3,-263.71C333.27,-253.46 308.88,-240.98 290.5,-231.58"/>
<polygon fill="midnightblue" stroke="midnightblue" points="351.95,-266.96 362.44,-268.4 355.14,-260.72 351.95,-266.96"/>
</g>
<!-- Node11&#45;&gt;Node8 -->
<g id="edge16" class="edge">
<title>Node11&#45;&gt;Node8</title>
<path fill="none" stroke="midnightblue" d="M321.52,-266.14C274.55,-254.91 213.17,-240.24 170.15,-229.96"/>
<polygon fill="midnightblue" stroke="midnightblue" points="320.78,-269.56 331.31,-268.48 322.4,-262.75 320.78,-269.56"/>
</g>
<!-- Node12 -->
<g id="node12" class="node">
<title>Node12</title>
<g id="a_node12"><a xlink:href="bitcompressed__vector_8hpp.html" target="_top" xlink:title="Provides bio::ranges::bitcompressed_vector.">
<polygon fill="white" stroke="black" points="356,-201.5 356,-231.5 490,-231.5 490,-201.5 356,-201.5"/>
<text text-anchor="start" x="364" y="-219.5" font-family="Helvetica,sans-Serif" font-size="10.00">bio/ranges/container</text>
<text text-anchor="middle" x="423" y="-208.5" font-family="Helvetica,sans-Serif" font-size="10.00">/bitcompressed_vector.hpp</text>
</a>
</g>
</g>
<!-- Node11&#45;&gt;Node12 -->
<g id="edge13" class="edge">
<title>Node11&#45;&gt;Node12</title>
<path fill="none" stroke="midnightblue" d="M401.79,-259.28C406.49,-250.02 411.75,-239.66 415.85,-231.58"/>
<polygon fill="midnightblue" stroke="midnightblue" points="398.57,-257.89 397.16,-268.4 404.81,-261.06 398.57,-257.89"/>
</g>
<!-- Node13 -->
<g id="node13" class="node">
<title>Node13</title>
<g id="a_node13"><a xlink:href="small__vector_8hpp.html" target="_top" xlink:title="A constexpr vector implementation with dynamic size at compile time.">
<polygon fill="white" stroke="black" points="508,-201.5 508,-231.5 612,-231.5 612,-201.5 508,-201.5"/>
<text text-anchor="start" x="516" y="-219.5" font-family="Helvetica,sans-Serif" font-size="10.00">bio/ranges/container</text>
<text text-anchor="middle" x="560" y="-208.5" font-family="Helvetica,sans-Serif" font-size="10.00">/small_vector.hpp</text>
</a>
</g>
</g>
<!-- Node11&#45;&gt;Node13 -->
<g id="edge17" class="edge">
<title>Node11&#45;&gt;Node13</title>
<path fill="none" stroke="midnightblue" d="M436.24,-264.82C463.57,-254.37 497.69,-241.32 523.18,-231.58"/>
<polygon fill="midnightblue" stroke="midnightblue" points="434.98,-261.56 426.89,-268.4 437.48,-268.09 434.98,-261.56"/>
</g>
<!-- Node12&#45;&gt;Node3 -->
<g id="edge14" class="edge">
<title>Node12&#45;&gt;Node3</title>
<path fill="none" stroke="midnightblue" d="M394.62,-195.45C380.47,-185.45 363.69,-173.6 350.92,-164.58"/>
<polygon fill="midnightblue" stroke="midnightblue" points="392.85,-198.48 403.04,-201.4 396.89,-192.77 392.85,-198.48"/>
</g>
<!-- Node14 -->
<g id="node14" class="node">
<title>Node14</title>
<g id="a_node14"><a xlink:href="small__string_8hpp.html" target="_top" xlink:title="A constexpr string implementation to manipulate string literals at compile time.">
<polygon fill="white" stroke="black" points="508,-134.5 508,-164.5 612,-164.5 612,-134.5 508,-134.5"/>
<text text-anchor="start" x="516" y="-152.5" font-family="Helvetica,sans-Serif" font-size="10.00">bio/ranges/container</text>
<text text-anchor="middle" x="560" y="-141.5" font-family="Helvetica,sans-Serif" font-size="10.00">/small_string.hpp</text>
</a>
</g>
</g>
<!-- Node13&#45;&gt;Node14 -->
<g id="edge18" class="edge">
<title>Node13&#45;&gt;Node14</title>
<path fill="none" stroke="midnightblue" d="M560,-191.11C560,-182.15 560,-172.32 560,-164.58"/>
<polygon fill="midnightblue" stroke="midnightblue" points="556.5,-191.4 560,-201.4 563.5,-191.4 556.5,-191.4"/>
</g>
<!-- Node15 -->
<g id="node15" class="node">
<title>Node15</title>
<g id="a_node15"><a xlink:href="cigar_8hpp.html" target="_top" xlink:title="Provides the bio::alphabet::cigar alphabet.">
<polygon fill="white" stroke="black" points="464.5,-67.5 464.5,-97.5 557.5,-97.5 557.5,-67.5 464.5,-67.5"/>
<text text-anchor="start" x="472.5" y="-85.5" font-family="Helvetica,sans-Serif" font-size="10.00">bio/alphabet/cigar</text>
<text text-anchor="middle" x="511" y="-74.5" font-family="Helvetica,sans-Serif" font-size="10.00">/cigar.hpp</text>
</a>
</g>
</g>
<!-- Node14&#45;&gt;Node15 -->
<g id="edge19" class="edge">
<title>Node14&#45;&gt;Node15</title>
<path fill="none" stroke="midnightblue" d="M543.16,-126.16C536.01,-116.68 527.9,-105.92 521.61,-97.58"/>
<polygon fill="midnightblue" stroke="midnightblue" points="540.55,-128.52 549.37,-134.4 546.14,-124.3 540.55,-128.52"/>
</g>
<!-- Node14&#45;&gt;Node16 -->
<g id="edge20" class="edge">
<title>Node14&#45;&gt;Node16</title>
<path fill="none" stroke="midnightblue" d="M605.66,-130.62C637.79,-118.04 679.35,-101.77 704.27,-92.01"/>
<polygon fill="midnightblue" stroke="midnightblue" points="604.05,-127.49 596.02,-134.4 606.61,-134.01 604.05,-127.49"/>
</g>
<!-- Node17 -->
<g id="node17" class="node">
<title>Node17</title>
<g id="a_node17"><a xlink:href="translate__join_8hpp.html" target="_top" xlink:title="Provides bio::views::translate_join.">
<polygon fill="white" stroke="black" points="609.5,-0.5 609.5,-30.5 740.5,-30.5 740.5,-0.5 609.5,-0.5"/>
<text text-anchor="start" x="617.5" y="-18.5" font-family="Helvetica,sans-Serif" font-size="10.00">bio/ranges/views/translate</text>
<text text-anchor="middle" x="675" y="-7.5" font-family="Helvetica,sans-Serif" font-size="10.00">_join.hpp</text>
</a>
</g>
</g>
<!-- Node14&#45;&gt;Node17 -->
<g id="edge23" class="edge">
<title>Node14&#45;&gt;Node17</title>
<path fill="none" stroke="midnightblue" d="M579.13,-126.54C602.9,-99.25 642.78,-53.48 662.78,-30.52"/>
<polygon fill="midnightblue" stroke="midnightblue" points="576.24,-124.53 572.31,-134.37 581.51,-129.13 576.24,-124.53"/>
</g>
<!-- Node16&#45;&gt;Node6 -->
<g id="edge21" class="edge">
<title>Node16&#45;&gt;Node6</title>
<path fill="none" stroke="midnightblue" d="M661.04,-71.35C579.47,-58.6 440.98,-36.96 364.6,-25.03"/>
<polygon fill="midnightblue" stroke="midnightblue" points="660.77,-74.85 671.19,-72.94 661.85,-67.93 660.77,-74.85"/>
</g>
<!-- Node16&#45;&gt;Node17 -->
<g id="edge22" class="edge">
<title>Node16&#45;&gt;Node17</title>
<path fill="none" stroke="midnightblue" d="M712.8,-64.67C704.5,-54.09 693.91,-40.6 686.05,-30.59"/>
<polygon fill="midnightblue" stroke="midnightblue" points="710.2,-67.03 719.12,-72.73 715.7,-62.71 710.2,-67.03"/>
</g>
</g>
</svg>
