<?xml version="1.0" encoding="UTF-8" standalone="no"?>
<!DOCTYPE svg PUBLIC "-//W3C//DTD SVG 1.1//EN"
 "http://www.w3.org/Graphics/SVG/1.1/DTD/svg11.dtd">
<!-- Generated by graphviz version 2.43.0 (0)
 -->
<!-- Title: bio/ranges/views/detail.hpp Pages: 1 -->
<svg width="1922pt" height="620pt"
 viewBox="0.00 0.00 1922.33 620.00" xmlns="http://www.w3.org/2000/svg" xmlns:xlink="http://www.w3.org/1999/xlink">
<g id="graph0" class="graph" transform="scale(1 1) rotate(0) translate(4 616)">
<title>bio/ranges/views/detail.hpp</title>
<polygon fill="white" stroke="transparent" points="-4,4 -4,-616 1918.33,-616 1918.33,4 -4,4"/>
<!-- Node1 -->
<g id="node1" class="node">
<title>Node1</title>
<g id="a_node1"><a xlink:title=" ">
<polygon fill="#bfbfbf" stroke="black" points="1196.33,-592.5 1196.33,-611.5 1347.33,-611.5 1347.33,-592.5 1196.33,-592.5"/>
<text text-anchor="middle" x="1271.83" y="-599.5" font-family="Helvetica,sans-Serif" font-size="10.00">bio/ranges/views/detail.hpp</text>
</a>
</g>
</g>
<!-- Node2 -->
<g id="node2" class="node">
<title>Node2</title>
<g id="a_node2"><a xlink:href="deep_8hpp.html" target="_top" xlink:title="Provides bio::views::deep.">
<polygon fill="white" stroke="black" points="624.33,-263 624.33,-282 771.33,-282 771.33,-263 624.33,-263"/>
<text text-anchor="middle" x="697.83" y="-270" font-family="Helvetica,sans-Serif" font-size="10.00">bio/ranges/views/deep.hpp</text>
</a>
</g>
</g>
<!-- Node1&#45;&gt;Node2 -->
<g id="edge1" class="edge">
<title>Node1&#45;&gt;Node2</title>
<path fill="none" stroke="midnightblue" d="M1186.17,-594.75C1054.1,-582.73 815.83,-550.52 815.83,-474.5 815.83,-474.5 815.83,-474.5 815.83,-405.5 815.83,-345.41 747.01,-300.11 714.48,-282.06"/>
<polygon fill="midnightblue" stroke="midnightblue" points="1186,-598.25 1196.27,-595.65 1186.62,-591.28 1186,-598.25"/>
</g>
<!-- Node14 -->
<g id="node14" class="node">
<title>Node14</title>
<g id="a_node14"><a xlink:href="translate_8hpp.html" target="_top" xlink:title="Provides bio::views::translate and bio::views::translate_single.">
<polygon fill="white" stroke="black" points="1401.33,-196 1401.33,-215 1568.33,-215 1568.33,-196 1401.33,-196"/>
<text text-anchor="middle" x="1484.83" y="-203" font-family="Helvetica,sans-Serif" font-size="10.00">bio/ranges/views/translate.hpp</text>
</a>
</g>
</g>
<!-- Node1&#45;&gt;Node14 -->
<g id="edge53" class="edge">
<title>Node1&#45;&gt;Node14</title>
<path fill="none" stroke="midnightblue" d="M1357.66,-598.59C1428.5,-594.58 1521.09,-583.97 1544.83,-556 1592.28,-500.09 1556.31,-463.43 1544.83,-391 1533.7,-320.81 1500.16,-240.98 1488.71,-215.09"/>
<polygon fill="midnightblue" stroke="midnightblue" points="1357.18,-595.11 1347.38,-599.14 1357.55,-602.1 1357.18,-595.11"/>
</g>
<!-- Node17 -->
<g id="node17" class="node">
<title>Node17</title>
<g id="a_node17"><a xlink:href="interleave_8hpp.html" target="_top" xlink:title="Provides bio::views::interleave.">
<polygon fill="white" stroke="black" points="1212.33,-464 1212.33,-483 1385.33,-483 1385.33,-464 1212.33,-464"/>
<text text-anchor="middle" x="1298.83" y="-471" font-family="Helvetica,sans-Serif" font-size="10.00">bio/ranges/views/interleave.hpp</text>
</a>
</g>
</g>
<!-- Node1&#45;&gt;Node17 -->
<g id="edge24" class="edge">
<title>Node1&#45;&gt;Node17</title>
<path fill="none" stroke="midnightblue" d="M1257,-584.38C1245.05,-568.87 1231.65,-545.17 1240.83,-525 1249.4,-506.17 1268.86,-491.63 1282.87,-483.08"/>
<polygon fill="midnightblue" stroke="midnightblue" points="1254.61,-586.99 1263.68,-592.47 1260.01,-582.53 1254.61,-586.99"/>
</g>
<!-- Node19 -->
<g id="node19" class="node">
<title>Node19</title>
<g id="a_node19"><a xlink:href="make__convertible_8hpp.html" target="_top" xlink:title="Provides bio::views::take.">
<polygon fill="white" stroke="black" points="1630.33,-525.5 1630.33,-555.5 1759.33,-555.5 1759.33,-525.5 1630.33,-525.5"/>
<text text-anchor="start" x="1638.33" y="-543.5" font-family="Helvetica,sans-Serif" font-size="10.00">bio/ranges/views/make</text>
<text text-anchor="middle" x="1694.83" y="-532.5" font-family="Helvetica,sans-Serif" font-size="10.00">_convertible.hpp</text>
</a>
</g>
</g>
<!-- Node1&#45;&gt;Node19 -->
<g id="edge27" class="edge">
<title>Node1&#45;&gt;Node19</title>
<path fill="none" stroke="midnightblue" d="M1355.52,-591.27C1425.28,-582.87 1527.21,-569.92 1615.83,-556 1620.51,-555.26 1625.34,-554.47 1630.2,-553.64"/>
<polygon fill="midnightblue" stroke="midnightblue" points="1354.98,-587.81 1345.46,-592.48 1355.81,-594.76 1354.98,-587.81"/>
</g>
<!-- Node20 -->
<g id="node20" class="node">
<title>Node20</title>
<g id="a_node20"><a xlink:href="pairwise__combine_8hpp.html" target="_top" xlink:title="Provides bio::views::pairwise_combine.">
<polygon fill="white" stroke="black" points="208.33,-391.5 208.33,-421.5 351.33,-421.5 351.33,-391.5 208.33,-391.5"/>
<text text-anchor="start" x="216.33" y="-409.5" font-family="Helvetica,sans-Serif" font-size="10.00">bio/ranges/views/pairwise</text>
<text text-anchor="middle" x="279.83" y="-398.5" font-family="Helvetica,sans-Serif" font-size="10.00">_combine.hpp</text>
</a>
</g>
</g>
<!-- Node1&#45;&gt;Node20 -->
<g id="edge28" class="edge">
<title>Node1&#45;&gt;Node20</title>
<path fill="none" stroke="midnightblue" d="M1185.83,-597.46C1091.09,-592.47 934.53,-581.01 801.83,-556 618.5,-521.44 406.49,-451.51 319.84,-421.59"/>
<polygon fill="midnightblue" stroke="midnightblue" points="1185.77,-600.96 1195.94,-597.98 1186.13,-593.97 1185.77,-600.96"/>
</g>
<!-- Node21 -->
<g id="node21" class="node">
<title>Node21</title>
<g id="a_node21"><a xlink:href="persist_8hpp.html" target="_top" xlink:title="Provides bio::views::persist.">
<polygon fill="white" stroke="black" points="999.83,-531 999.83,-550 1155.83,-550 1155.83,-531 999.83,-531"/>
<text text-anchor="middle" x="1077.83" y="-538" font-family="Helvetica,sans-Serif" font-size="10.00">bio/ranges/views/persist.hpp</text>
</a>
</g>
</g>
<!-- Node1&#45;&gt;Node21 -->
<g id="edge30" class="edge">
<title>Node1&#45;&gt;Node21</title>
<path fill="none" stroke="midnightblue" d="M1234.42,-589.53C1196.72,-577.96 1139.4,-560.38 1105.57,-550.01"/>
<polygon fill="midnightblue" stroke="midnightblue" points="1233.45,-592.89 1244.03,-592.48 1235.5,-586.2 1233.45,-592.89"/>
</g>
<!-- Node22 -->
<g id="node22" class="node">
<title>Node22</title>
<g id="a_node22"><a xlink:href="single__pass__input_8hpp.html" target="_top" xlink:title="Provides bio::alphabet::single_pass_input_view.">
<polygon fill="white" stroke="black" points="955.33,-257.5 955.33,-287.5 1086.33,-287.5 1086.33,-257.5 955.33,-257.5"/>
<text text-anchor="start" x="963.33" y="-275.5" font-family="Helvetica,sans-Serif" font-size="10.00">bio/ranges/views/single</text>
<text text-anchor="middle" x="1020.83" y="-264.5" font-family="Helvetica,sans-Serif" font-size="10.00">_pass_input.hpp</text>
</a>
</g>
</g>
<!-- Node1&#45;&gt;Node22 -->
<g id="edge33" class="edge">
<title>Node1&#45;&gt;Node22</title>
<path fill="none" stroke="midnightblue" d="M1186.14,-597.57C1114.1,-592.89 1018.57,-581.86 990.83,-556 963.62,-530.64 971.83,-511.69 971.83,-474.5 971.83,-474.5 971.83,-474.5 971.83,-405.5 971.83,-360.03 997.69,-310.95 1011.84,-287.51"/>
<polygon fill="midnightblue" stroke="midnightblue" points="1185.94,-601.07 1196.14,-598.19 1186.37,-594.08 1185.94,-601.07"/>
</g>
<!-- Node23 -->
<g id="node23" class="node">
<title>Node23</title>
<g id="a_node23"><a xlink:href="slice_8hpp.html" target="_top" xlink:title="Provides bio::views::slice.">
<polygon fill="white" stroke="black" points="1591.83,-464 1591.83,-483 1737.83,-483 1737.83,-464 1591.83,-464"/>
<text text-anchor="middle" x="1664.83" y="-471" font-family="Helvetica,sans-Serif" font-size="10.00">bio/ranges/views/slice.hpp</text>
</a>
</g>
</g>
<!-- Node1&#45;&gt;Node23 -->
<g id="edge35" class="edge">
<title>Node1&#45;&gt;Node23</title>
<path fill="none" stroke="midnightblue" d="M1357.81,-594.13C1434.41,-586.96 1540.05,-574.22 1577.83,-556 1614.18,-538.47 1645.63,-500.36 1658.55,-483.19"/>
<polygon fill="midnightblue" stroke="midnightblue" points="1357.31,-590.66 1347.68,-595.06 1357.96,-597.63 1357.31,-590.66"/>
</g>
<!-- Node25 -->
<g id="node25" class="node">
<title>Node25</title>
<g id="a_node25"><a xlink:href="take_8hpp.html" target="_top" xlink:title="Provides bio::views::take.">
<polygon fill="white" stroke="black" points="1249.83,-531 1249.83,-550 1393.83,-550 1393.83,-531 1249.83,-531"/>
<text text-anchor="middle" x="1321.83" y="-538" font-family="Helvetica,sans-Serif" font-size="10.00">bio/ranges/views/take.hpp</text>
</a>
</g>
</g>
<!-- Node1&#45;&gt;Node25 -->
<g id="edge38" class="edge">
<title>Node1&#45;&gt;Node25</title>
<path fill="none" stroke="midnightblue" d="M1285.55,-584.67C1294.98,-573.45 1307.11,-559.02 1314.68,-550.01"/>
<polygon fill="midnightblue" stroke="midnightblue" points="1282.75,-582.57 1278.99,-592.48 1288.1,-587.07 1282.75,-582.57"/>
</g>
<!-- Node31 -->
<g id="node31" class="node">
<title>Node31</title>
<g id="a_node31"><a xlink:href="to_8hpp_source.html" target="_top" xlink:title=" ">
<polygon fill="white" stroke="black" points="1117.33,-397 1117.33,-416 1250.33,-416 1250.33,-397 1117.33,-397"/>
<text text-anchor="middle" x="1183.83" y="-404" font-family="Helvetica,sans-Serif" font-size="10.00">bio/ranges/views/to.hpp</text>
</a>
</g>
</g>
<!-- Node1&#45;&gt;Node31 -->
<g id="edge50" class="edge">
<title>Node1&#45;&gt;Node31</title>
<path fill="none" stroke="midnightblue" d="M1255.8,-584.98C1248.19,-576.78 1239.35,-566.37 1232.83,-556 1202.77,-508.2 1189.21,-440.04 1185.18,-416.16"/>
<polygon fill="midnightblue" stroke="midnightblue" points="1253.43,-587.56 1262.88,-592.34 1258.48,-582.71 1253.43,-587.56"/>
</g>
<!-- Node32 -->
<g id="node32" class="node">
<title>Node32</title>
<g id="a_node32"><a xlink:href="type__reduce_8hpp.html" target="_top" xlink:title="Provides bio::views::type_reduce.">
<polygon fill="white" stroke="black" points="1411.83,-525.5 1411.83,-555.5 1535.83,-555.5 1535.83,-525.5 1411.83,-525.5"/>
<text text-anchor="start" x="1419.83" y="-543.5" font-family="Helvetica,sans-Serif" font-size="10.00">bio/ranges/views/type</text>
<text text-anchor="middle" x="1473.83" y="-532.5" font-family="Helvetica,sans-Serif" font-size="10.00">_reduce.hpp</text>
</a>
</g>
</g>
<!-- Node1&#45;&gt;Node32 -->
<g id="edge54" class="edge">
<title>Node1&#45;&gt;Node32</title>
<path fill="none" stroke="midnightblue" d="M1310.5,-589.61C1343.45,-579.9 1390.94,-565.92 1426.22,-555.52"/>
<polygon fill="midnightblue" stroke="midnightblue" points="1309.37,-586.29 1300.77,-592.48 1311.35,-593.01 1309.37,-586.29"/>
</g>
<!-- Node33 -->
<g id="node33" class="node">
<title>Node33</title>
<g id="a_node33"><a xlink:href="zip_8hpp.html" target="_top" xlink:title="Provides bio::views::zip.">
<polygon fill="white" stroke="black" points="1777.33,-531 1777.33,-550 1914.33,-550 1914.33,-531 1777.33,-531"/>
<text text-anchor="middle" x="1845.83" y="-538" font-family="Helvetica,sans-Serif" font-size="10.00">bio/ranges/views/zip.hpp</text>
</a>
</g>
</g>
<!-- Node1&#45;&gt;Node33 -->
<g id="edge57" class="edge">
<title>Node1&#45;&gt;Node33</title>
<path fill="none" stroke="midnightblue" d="M1357.42,-595.75C1456.69,-589.09 1625.1,-575.99 1768.83,-556 1780.41,-554.39 1792.91,-552.22 1804.39,-550.06"/>
<polygon fill="midnightblue" stroke="midnightblue" points="1357.19,-592.26 1347.44,-596.42 1357.65,-599.24 1357.19,-592.26"/>
</g>
<!-- Node3 -->
<g id="node3" class="node">
<title>Node3</title>
<g id="a_node3"><a xlink:href="ranges_2views_2all_8hpp.html" target="_top" xlink:title="Meta&#45;header for the views submodule .">
<polygon fill="white" stroke="black" points="978.33,-129 978.33,-148 1113.33,-148 1113.33,-129 978.33,-129"/>
<text text-anchor="middle" x="1045.83" y="-136" font-family="Helvetica,sans-Serif" font-size="10.00">bio/ranges/views/all.hpp</text>
</a>
</g>
</g>
<!-- Node2&#45;&gt;Node3 -->
<g id="edge2" class="edge">
<title>Node2&#45;&gt;Node3</title>
<path fill="none" stroke="midnightblue" d="M696.64,-252.61C696.59,-233.91 699.7,-205.86 716.83,-190 753.82,-155.74 893.25,-144.72 978.27,-141.18"/>
<polygon fill="midnightblue" stroke="midnightblue" points="693.15,-252.97 696.99,-262.84 700.15,-252.73 693.15,-252.97"/>
</g>
<!-- Node4 -->
<g id="node4" class="node">
<title>Node4</title>
<g id="a_node4"><a xlink:href="char__to_8hpp.html" target="_top" xlink:title="Provides bio::views::char_to.">
<polygon fill="white" stroke="black" points="726.33,-190.5 726.33,-220.5 849.33,-220.5 849.33,-190.5 726.33,-190.5"/>
<text text-anchor="start" x="734.33" y="-208.5" font-family="Helvetica,sans-Serif" font-size="10.00">bio/ranges/views/char</text>
<text text-anchor="middle" x="787.83" y="-197.5" font-family="Helvetica,sans-Serif" font-size="10.00">_to.hpp</text>
</a>
</g>
</g>
<!-- Node2&#45;&gt;Node4 -->
<g id="edge3" class="edge">
<title>Node2&#45;&gt;Node4</title>
<path fill="none" stroke="midnightblue" d="M718.11,-256.85C733.14,-246 753.49,-231.3 768.32,-220.59"/>
<polygon fill="midnightblue" stroke="midnightblue" points="716.02,-254.04 709.97,-262.73 720.12,-259.72 716.02,-254.04"/>
</g>
<!-- Node5 -->
<g id="node5" class="node">
<title>Node5</title>
<g id="a_node5"><a xlink:href="complement_8hpp.html" target="_top" xlink:title="Provides bio::views::complement.">
<polygon fill="white" stroke="black" points="867.33,-196 867.33,-215 1052.33,-215 1052.33,-196 867.33,-196"/>
<text text-anchor="middle" x="959.83" y="-203" font-family="Helvetica,sans-Serif" font-size="10.00">bio/ranges/views/complement.hpp</text>
</a>
</g>
</g>
<!-- Node2&#45;&gt;Node5 -->
<g id="edge5" class="edge">
<title>Node2&#45;&gt;Node5</title>
<path fill="none" stroke="midnightblue" d="M742.23,-260.48C793.91,-247.66 878.16,-226.76 925.23,-215.08"/>
<polygon fill="midnightblue" stroke="midnightblue" points="741.21,-257.13 732.35,-262.94 742.9,-263.92 741.21,-257.13"/>
</g>
<!-- Node6 -->
<g id="node6" class="node">
<title>Node6</title>
<g id="a_node6"><a xlink:href="rank__to_8hpp.html" target="_top" xlink:title="Provides bio::views::rank_to.">
<polygon fill="white" stroke="black" points="1069.83,-190.5 1069.83,-220.5 1193.83,-220.5 1193.83,-190.5 1069.83,-190.5"/>
<text text-anchor="start" x="1077.83" y="-208.5" font-family="Helvetica,sans-Serif" font-size="10.00">bio/ranges/views/rank</text>
<text text-anchor="middle" x="1131.83" y="-197.5" font-family="Helvetica,sans-Serif" font-size="10.00">_to.hpp</text>
</a>
</g>
</g>
<!-- Node2&#45;&gt;Node6 -->
<g id="edge7" class="edge">
<title>Node2&#45;&gt;Node6</title>
<path fill="none" stroke="midnightblue" d="M778.78,-261.73C852.5,-252.47 964.25,-237.56 1060.83,-221 1063.68,-220.51 1066.59,-219.99 1069.53,-219.45"/>
<polygon fill="midnightblue" stroke="midnightblue" points="778.13,-258.28 768.64,-262.99 779,-265.23 778.13,-258.28"/>
</g>
<!-- Node7 -->
<g id="node7" class="node">
<title>Node7</title>
<g id="a_node7"><a xlink:href="to__char_8hpp.html" target="_top" xlink:title="Provides bio::views::to_char.">
<polygon fill="white" stroke="black" points="157.83,-190.5 157.83,-220.5 269.83,-220.5 269.83,-190.5 157.83,-190.5"/>
<text text-anchor="start" x="165.83" y="-208.5" font-family="Helvetica,sans-Serif" font-size="10.00">bio/ranges/views/to</text>
<text text-anchor="middle" x="213.83" y="-197.5" font-family="Helvetica,sans-Serif" font-size="10.00">_char.hpp</text>
</a>
</g>
</g>
<!-- Node2&#45;&gt;Node7 -->
<g id="edge9" class="edge">
<title>Node2&#45;&gt;Node7</title>
<path fill="none" stroke="midnightblue" d="M613.99,-263.87C529.15,-255.58 394.37,-240.8 278.83,-221 275.98,-220.51 273.07,-219.98 270.13,-219.42"/>
<polygon fill="midnightblue" stroke="midnightblue" points="613.8,-267.37 624.09,-264.85 614.47,-260.4 613.8,-267.37"/>
</g>
<!-- Node11 -->
<g id="node11" class="node">
<title>Node11</title>
<g id="a_node11"><a xlink:href="ranges_2views_2to__lower_8hpp.html" target="_top" xlink:title="Provides bio::views::to_lower.">
<polygon fill="white" stroke="black" points="287.83,-190.5 287.83,-220.5 399.83,-220.5 399.83,-190.5 287.83,-190.5"/>
<text text-anchor="start" x="295.83" y="-208.5" font-family="Helvetica,sans-Serif" font-size="10.00">bio/ranges/views/to</text>
<text text-anchor="middle" x="343.83" y="-197.5" font-family="Helvetica,sans-Serif" font-size="10.00">_lower.hpp</text>
</a>
</g>
</g>
<!-- Node2&#45;&gt;Node11 -->
<g id="edge14" class="edge">
<title>Node2&#45;&gt;Node11</title>
<path fill="none" stroke="midnightblue" d="M634.47,-261.3C575.81,-251.65 486.23,-236.39 408.83,-221 405.99,-220.44 403.09,-219.84 400.16,-219.24"/>
<polygon fill="midnightblue" stroke="midnightblue" points="634.26,-264.81 644.69,-262.98 635.39,-257.9 634.26,-264.81"/>
</g>
<!-- Node12 -->
<g id="node12" class="node">
<title>Node12</title>
<g id="a_node12"><a xlink:href="to__rank_8hpp.html" target="_top" xlink:title="Provides bio::views::to_rank.">
<polygon fill="white" stroke="black" points="27.83,-190.5 27.83,-220.5 139.83,-220.5 139.83,-190.5 27.83,-190.5"/>
<text text-anchor="start" x="35.83" y="-208.5" font-family="Helvetica,sans-Serif" font-size="10.00">bio/ranges/views/to</text>
<text text-anchor="middle" x="83.83" y="-197.5" font-family="Helvetica,sans-Serif" font-size="10.00">_rank.hpp</text>
</a>
</g>
</g>
<!-- Node2&#45;&gt;Node12 -->
<g id="edge15" class="edge">
<title>Node2&#45;&gt;Node12</title>
<path fill="none" stroke="midnightblue" d="M614.01,-267.13C505.99,-260.73 312.57,-246.69 148.83,-221 145.97,-220.55 143.05,-220.05 140.11,-219.52"/>
<polygon fill="midnightblue" stroke="midnightblue" points="614.01,-270.63 624.2,-267.72 614.42,-263.65 614.01,-270.63"/>
</g>
<!-- Node13 -->
<g id="node13" class="node">
<title>Node13</title>
<g id="a_node13"><a xlink:href="to__upper_8hpp.html" target="_top" xlink:title="Provides bio::views::to_upper.">
<polygon fill="white" stroke="black" points="417.83,-190.5 417.83,-220.5 529.83,-220.5 529.83,-190.5 417.83,-190.5"/>
<text text-anchor="start" x="425.83" y="-208.5" font-family="Helvetica,sans-Serif" font-size="10.00">bio/ranges/views/to</text>
<text text-anchor="middle" x="473.83" y="-197.5" font-family="Helvetica,sans-Serif" font-size="10.00">_upper.hpp</text>
</a>
</g>
</g>
<!-- Node2&#45;&gt;Node13 -->
<g id="edge18" class="edge">
<title>Node2&#45;&gt;Node13</title>
<path fill="none" stroke="midnightblue" d="M658.39,-260.06C620.42,-249.04 562.89,-232.34 522.17,-220.53"/>
<polygon fill="midnightblue" stroke="midnightblue" points="657.5,-263.44 668.08,-262.87 659.45,-256.72 657.5,-263.44"/>
</g>
<!-- Node2&#45;&gt;Node14 -->
<g id="edge19" class="edge">
<title>Node2&#45;&gt;Node14</title>
<path fill="none" stroke="midnightblue" d="M781.68,-264.57C933,-252.08 1250.02,-225.89 1401.19,-213.41"/>
<polygon fill="midnightblue" stroke="midnightblue" points="781.19,-261.1 771.51,-265.41 781.77,-268.08 781.19,-261.1"/>
</g>
<!-- Node16 -->
<g id="node16" class="node">
<title>Node16</title>
<g id="a_node16"><a xlink:href="trim__quality_8hpp.html" target="_top" xlink:title="Provides bio::views::trim_quality.">
<polygon fill="white" stroke="black" points="547.83,-190.5 547.83,-220.5 669.83,-220.5 669.83,-190.5 547.83,-190.5"/>
<text text-anchor="start" x="555.83" y="-208.5" font-family="Helvetica,sans-Serif" font-size="10.00">bio/ranges/views/trim</text>
<text text-anchor="middle" x="608.83" y="-197.5" font-family="Helvetica,sans-Serif" font-size="10.00">_quality.hpp</text>
</a>
</g>
</g>
<!-- Node2&#45;&gt;Node16 -->
<g id="edge22" class="edge">
<title>Node2&#45;&gt;Node16</title>
<path fill="none" stroke="midnightblue" d="M677.35,-256.54C662.54,-245.73 642.65,-231.2 628.12,-220.59"/>
<polygon fill="midnightblue" stroke="midnightblue" points="675.68,-259.66 685.82,-262.73 679.81,-254.01 675.68,-259.66"/>
</g>
<!-- Node4&#45;&gt;Node3 -->
<g id="edge4" class="edge">
<title>Node4&#45;&gt;Node3</title>
<path fill="none" stroke="midnightblue" d="M853.36,-187.99C903.92,-175.25 971.81,-158.15 1011.98,-148.03"/>
<polygon fill="midnightblue" stroke="midnightblue" points="852.33,-184.64 843.49,-190.48 854.04,-191.43 852.33,-184.64"/>
</g>
<!-- Node5&#45;&gt;Node3 -->
<g id="edge6" class="edge">
<title>Node5&#45;&gt;Node3</title>
<path fill="none" stroke="midnightblue" d="M979.58,-189.57C996.56,-176.74 1020.44,-158.69 1034.41,-148.13"/>
<polygon fill="midnightblue" stroke="midnightblue" points="977.29,-186.91 971.43,-195.73 981.51,-192.5 977.29,-186.91"/>
</g>
<!-- Node6&#45;&gt;Node3 -->
<g id="edge8" class="edge">
<title>Node6&#45;&gt;Node3</title>
<path fill="none" stroke="midnightblue" d="M1105.16,-184.34C1089.11,-172.21 1069.5,-157.39 1057.33,-148.19"/>
<polygon fill="midnightblue" stroke="midnightblue" points="1103.08,-187.16 1113.17,-190.4 1107.3,-181.57 1103.08,-187.16"/>
</g>
<!-- Node7&#45;&gt;Node3 -->
<g id="edge13" class="edge">
<title>Node7&#45;&gt;Node3</title>
<path fill="none" stroke="midnightblue" d="M280.23,-189.95C543.23,-152.9 845.92,-143.12 978.27,-140.47"/>
<polygon fill="midnightblue" stroke="midnightblue" points="279.51,-186.52 270.1,-191.39 280.49,-193.45 279.51,-186.52"/>
</g>
<!-- Node8 -->
<g id="node8" class="node">
<title>Node8</title>
<g id="a_node8"><a xlink:href="bitcompressed__vector_8hpp.html" target="_top" xlink:title="Provides bio::ranges::bitcompressed_vector.">
<polygon fill="white" stroke="black" points="74.83,-123.5 74.83,-153.5 222.83,-153.5 222.83,-123.5 74.83,-123.5"/>
<text text-anchor="start" x="82.83" y="-141.5" font-family="Helvetica,sans-Serif" font-size="10.00">bio/ranges/container</text>
<text text-anchor="middle" x="148.83" y="-130.5" font-family="Helvetica,sans-Serif" font-size="10.00">/bitcompressed_vector.hpp</text>
</a>
</g>
</g>
<!-- Node7&#45;&gt;Node8 -->
<g id="edge10" class="edge">
<title>Node7&#45;&gt;Node8</title>
<path fill="none" stroke="midnightblue" d="M192.64,-183.31C182.89,-173.56 171.59,-162.26 162.9,-153.58"/>
<polygon fill="midnightblue" stroke="midnightblue" points="190.18,-185.8 199.72,-190.4 195.13,-180.85 190.18,-185.8"/>
</g>
<!-- Node9 -->
<g id="node9" class="node">
<title>Node9</title>
<g id="a_node9"><a xlink:href="ranges_2container_2all_8hpp.html" target="_top" xlink:title="Meta&#45;header for the container submodule .">
<polygon fill="white" stroke="black" points="904.83,-56.5 904.83,-86.5 1020.83,-86.5 1020.83,-56.5 904.83,-56.5"/>
<text text-anchor="start" x="912.83" y="-74.5" font-family="Helvetica,sans-Serif" font-size="10.00">bio/ranges/container</text>
<text text-anchor="middle" x="962.83" y="-63.5" font-family="Helvetica,sans-Serif" font-size="10.00">/all.hpp</text>
</a>
</g>
</g>
<!-- Node8&#45;&gt;Node9 -->
<g id="edge11" class="edge">
<title>Node8&#45;&gt;Node9</title>
<path fill="none" stroke="midnightblue" d="M233,-130.78C398.61,-117.55 762.97,-88.46 904.76,-77.14"/>
<polygon fill="midnightblue" stroke="midnightblue" points="232.55,-127.3 222.86,-131.59 233.11,-134.28 232.55,-127.3"/>
</g>
<!-- Node10 -->
<g id="node10" class="node">
<title>Node10</title>
<g id="a_node10"><a xlink:href="ranges_2all_8hpp.html" target="_top" xlink:title="Meta&#45;header for the ranges module .">
<polygon fill="white" stroke="black" points="910.83,-0.5 910.83,-19.5 1014.83,-19.5 1014.83,-0.5 910.83,-0.5"/>
<text text-anchor="middle" x="962.83" y="-7.5" font-family="Helvetica,sans-Serif" font-size="10.00">bio/ranges/all.hpp</text>
</a>
</g>
</g>
<!-- Node9&#45;&gt;Node10 -->
<g id="edge12" class="edge">
<title>Node9&#45;&gt;Node10</title>
<path fill="none" stroke="midnightblue" d="M962.83,-46.29C962.83,-36.86 962.83,-26.65 962.83,-19.66"/>
<polygon fill="midnightblue" stroke="midnightblue" points="959.33,-46.4 962.83,-56.4 966.33,-46.4 959.33,-46.4"/>
</g>
<!-- Node12&#45;&gt;Node3 -->
<g id="edge17" class="edge">
<title>Node12&#45;&gt;Node3</title>
<path fill="none" stroke="midnightblue" d="M150.31,-189.95C464.43,-147.17 829.84,-140.47 978.23,-139.55"/>
<polygon fill="midnightblue" stroke="midnightblue" points="149.52,-186.53 140.1,-191.36 150.48,-193.46 149.52,-186.53"/>
</g>
<!-- Node12&#45;&gt;Node8 -->
<g id="edge16" class="edge">
<title>Node12&#45;&gt;Node8</title>
<path fill="none" stroke="midnightblue" d="M105.02,-183.31C114.77,-173.56 126.07,-162.26 134.75,-153.58"/>
<polygon fill="midnightblue" stroke="midnightblue" points="102.53,-180.85 97.93,-190.4 107.48,-185.8 102.53,-180.85"/>
</g>
<!-- Node14&#45;&gt;Node3 -->
<g id="edge20" class="edge">
<title>Node14&#45;&gt;Node3</title>
<path fill="none" stroke="midnightblue" d="M1417.91,-194.48C1407.83,-192.98 1397.55,-191.45 1387.83,-190 1287.94,-175.16 1171.63,-158.01 1103.62,-148"/>
<polygon fill="midnightblue" stroke="midnightblue" points="1417.49,-197.96 1427.9,-195.97 1418.52,-191.03 1417.49,-197.96"/>
</g>
<!-- Node15 -->
<g id="node15" class="node">
<title>Node15</title>
<g id="a_node15"><a xlink:href="translate__join_8hpp.html" target="_top" xlink:title="Provides bio::views::translate_join.">
<polygon fill="white" stroke="black" points="1506.83,-123.5 1506.83,-153.5 1652.83,-153.5 1652.83,-123.5 1506.83,-123.5"/>
<text text-anchor="start" x="1514.83" y="-141.5" font-family="Helvetica,sans-Serif" font-size="10.00">bio/ranges/views/translate</text>
<text text-anchor="middle" x="1579.83" y="-130.5" font-family="Helvetica,sans-Serif" font-size="10.00">_join.hpp</text>
</a>
</g>
</g>
<!-- Node14&#45;&gt;Node15 -->
<g id="edge21" class="edge">
<title>Node14&#45;&gt;Node15</title>
<path fill="none" stroke="midnightblue" d="M1506.24,-189.85C1522.1,-179 1543.58,-164.3 1559.24,-153.59"/>
<polygon fill="midnightblue" stroke="midnightblue" points="1503.92,-187.2 1497.64,-195.73 1507.87,-192.98 1503.92,-187.2"/>
</g>
<!-- Node16&#45;&gt;Node3 -->
<g id="edge23" class="edge">
<title>Node16&#45;&gt;Node3</title>
<path fill="none" stroke="midnightblue" d="M680.04,-190.64C681.31,-190.42 682.58,-190.21 683.83,-190 786.17,-172.98 905.45,-157.1 978.28,-147.85"/>
<polygon fill="midnightblue" stroke="midnightblue" points="679.42,-187.19 670.18,-192.37 680.63,-194.09 679.42,-187.19"/>
</g>
<!-- Node17&#45;&gt;Node3 -->
<g id="edge26" class="edge">
<title>Node17&#45;&gt;Node3</title>
<path fill="none" stroke="midnightblue" d="M1307.27,-454.48C1318.19,-429.47 1335.83,-382.57 1335.83,-340.5 1335.83,-340.5 1335.83,-340.5 1335.83,-271.5 1335.83,-230.55 1325.59,-214.57 1292.83,-190 1264.99,-169.12 1176.45,-154.7 1113.35,-146.76"/>
<polygon fill="midnightblue" stroke="midnightblue" points="1304,-453.22 1303.07,-463.78 1310.38,-456.1 1304,-453.22"/>
</g>
<!-- Node18 -->
<g id="node18" class="node">
<title>Node18</title>
<g id="a_node18"><a xlink:href="dynamic__bitset_8hpp.html" target="_top" xlink:title="A constexpr bitset implementation with dynamic size at compile time.">
<polygon fill="white" stroke="black" points="1153.83,-324.5 1153.83,-354.5 1269.83,-354.5 1269.83,-324.5 1153.83,-324.5"/>
<text text-anchor="start" x="1161.83" y="-342.5" font-family="Helvetica,sans-Serif" font-size="10.00">bio/ranges/container</text>
<text text-anchor="middle" x="1211.83" y="-331.5" font-family="Helvetica,sans-Serif" font-size="10.00">/dynamic_bitset.hpp</text>
</a>
</g>
</g>
<!-- Node17&#45;&gt;Node18 -->
<g id="edge25" class="edge">
<title>Node17&#45;&gt;Node18</title>
<path fill="none" stroke="midnightblue" d="M1292.15,-454.57C1285.35,-437.45 1273.83,-411.33 1259.83,-391 1250.63,-377.65 1237.91,-364.44 1227.88,-354.88"/>
<polygon fill="midnightblue" stroke="midnightblue" points="1288.9,-455.86 1295.76,-463.94 1295.43,-453.35 1288.9,-455.86"/>
</g>
<!-- Node20&#45;&gt;Node3 -->
<g id="edge29" class="edge">
<title>Node20&#45;&gt;Node3</title>
<path fill="none" stroke="midnightblue" d="M226.89,-388.02C129.86,-353.42 -59.62,-272.39 18.83,-190 51.93,-155.23 754.62,-143.24 978.17,-140.29"/>
<polygon fill="midnightblue" stroke="midnightblue" points="225.95,-391.4 236.54,-391.42 228.27,-384.79 225.95,-391.4"/>
</g>
<!-- Node21&#45;&gt;Node3 -->
<g id="edge31" class="edge">
<title>Node21&#45;&gt;Node3</title>
<path fill="none" stroke="midnightblue" d="M1080.62,-520.92C1085.12,-492.53 1094.92,-436.85 1108.83,-391 1118.14,-360.28 1119.5,-351.64 1135.83,-324 1165.87,-273.14 1200.01,-276.65 1219.83,-221 1224.45,-208.02 1228.1,-201.02 1219.83,-190 1205.33,-170.7 1145.66,-156.39 1100.2,-148.02"/>
<polygon fill="midnightblue" stroke="midnightblue" points="1077.13,-520.58 1079.06,-531 1084.05,-521.65 1077.13,-520.58"/>
</g>
<!-- Node21&#45;&gt;Node17 -->
<g id="edge32" class="edge">
<title>Node21&#45;&gt;Node17</title>
<path fill="none" stroke="midnightblue" d="M1116.89,-528.01C1160.63,-515.15 1230.51,-494.59 1269.71,-483.06"/>
<polygon fill="midnightblue" stroke="midnightblue" points="1115.78,-524.69 1107.17,-530.87 1117.76,-531.4 1115.78,-524.69"/>
</g>
<!-- Node22&#45;&gt;Node3 -->
<g id="edge34" class="edge">
<title>Node22&#45;&gt;Node3</title>
<path fill="none" stroke="midnightblue" d="M1096.5,-259.92C1140.38,-251.48 1189.54,-238.47 1202.83,-221 1233.26,-180.97 1160.53,-158.8 1104.15,-148.03"/>
<polygon fill="midnightblue" stroke="midnightblue" points="1095.84,-256.48 1086.65,-261.75 1097.12,-263.36 1095.84,-256.48"/>
</g>
<!-- Node24 -->
<g id="node24" class="node">
<title>Node24</title>
<g id="a_node24"><a xlink:href="concatenated__sequences_8hpp.html" target="_top" xlink:title="Provides bio::ranges::concatenated_sequences.">
<polygon fill="white" stroke="black" points="1699.83,-324.5 1699.83,-354.5 1863.83,-354.5 1863.83,-324.5 1699.83,-324.5"/>
<text text-anchor="start" x="1707.83" y="-342.5" font-family="Helvetica,sans-Serif" font-size="10.00">bio/ranges/container</text>
<text text-anchor="middle" x="1781.83" y="-331.5" font-family="Helvetica,sans-Serif" font-size="10.00">/concatenated_sequences.hpp</text>
</a>
</g>
</g>
<!-- Node23&#45;&gt;Node24 -->
<g id="edge36" class="edge">
<title>Node23&#45;&gt;Node24</title>
<path fill="none" stroke="midnightblue" d="M1679.17,-456.32C1702.24,-430.3 1747.22,-379.55 1769.17,-354.78"/>
<polygon fill="midnightblue" stroke="midnightblue" points="1676.52,-454.03 1672.5,-463.84 1681.76,-458.68 1676.52,-454.03"/>
</g>
<!-- Node24&#45;&gt;Node9 -->
<g id="edge37" class="edge">
<title>Node24&#45;&gt;Node9</title>
<path fill="none" stroke="midnightblue" d="M1777.28,-314.43C1766.8,-266.8 1735.92,-161.79 1661.83,-123 1605.71,-93.62 1178.33,-78.62 1020.85,-74.05"/>
<polygon fill="midnightblue" stroke="midnightblue" points="1773.91,-315.38 1779.37,-324.46 1780.76,-313.96 1773.91,-315.38"/>
</g>
<!-- Node26 -->
<g id="node26" class="node">
<title>Node26</title>
<g id="a_node26"><a xlink:href="take__exactly_8hpp.html" target="_top" xlink:title="Provides bio::views::take_exactly and bio::views::take_exactly_or_throw.">
<polygon fill="white" stroke="black" points="1403.33,-458.5 1403.33,-488.5 1526.33,-488.5 1526.33,-458.5 1403.33,-458.5"/>
<text text-anchor="start" x="1411.33" y="-476.5" font-family="Helvetica,sans-Serif" font-size="10.00">bio/ranges/views/take</text>
<text text-anchor="middle" x="1464.83" y="-465.5" font-family="Helvetica,sans-Serif" font-size="10.00">_exactly.hpp</text>
</a>
</g>
</g>
<!-- Node25&#45;&gt;Node26 -->
<g id="edge39" class="edge">
<title>Node25&#45;&gt;Node26</title>
<path fill="none" stroke="midnightblue" d="M1350.16,-526.62C1374.35,-515.63 1409.08,-499.84 1433.97,-488.53"/>
<polygon fill="midnightblue" stroke="midnightblue" points="1348.47,-523.54 1340.82,-530.87 1351.37,-529.92 1348.47,-523.54"/>
</g>
<!-- Node26&#45;&gt;Node3 -->
<g id="edge40" class="edge">
<title>Node26&#45;&gt;Node3</title>
<path fill="none" stroke="midnightblue" d="M1426.34,-452.94C1413.97,-444.91 1401.29,-434.52 1392.83,-422 1372.01,-391.18 1373.83,-377.69 1373.83,-340.5 1373.83,-340.5 1373.83,-340.5 1373.83,-271.5 1373.83,-228.53 1357.48,-213.97 1321.83,-190 1288.53,-167.61 1183.78,-153.12 1113.34,-145.64"/>
<polygon fill="midnightblue" stroke="midnightblue" points="1424.87,-456.15 1435.23,-458.37 1428.52,-450.17 1424.87,-456.15"/>
</g>
<!-- Node27 -->
<g id="node27" class="node">
<title>Node27</title>
<g id="a_node27"><a xlink:href="repeat__n_8hpp.html" target="_top" xlink:title="Provides bio::views::repeat_n.">
<polygon fill="white" stroke="black" points="1401.83,-391.5 1401.83,-421.5 1535.83,-421.5 1535.83,-391.5 1401.83,-391.5"/>
<text text-anchor="start" x="1409.83" y="-409.5" font-family="Helvetica,sans-Serif" font-size="10.00">bio/ranges/views/repeat</text>
<text text-anchor="middle" x="1468.83" y="-398.5" font-family="Helvetica,sans-Serif" font-size="10.00">_n.hpp</text>
</a>
</g>
</g>
<!-- Node26&#45;&gt;Node27 -->
<g id="edge41" class="edge">
<title>Node26&#45;&gt;Node27</title>
<path fill="none" stroke="midnightblue" d="M1466.31,-448.4C1466.87,-439.37 1467.48,-429.41 1467.96,-421.58"/>
<polygon fill="midnightblue" stroke="midnightblue" points="1462.82,-448.2 1465.7,-458.4 1469.8,-448.63 1462.82,-448.2"/>
</g>
<!-- Node27&#45;&gt;Node8 -->
<g id="edge42" class="edge">
<title>Node27&#45;&gt;Node8</title>
<path fill="none" stroke="midnightblue" d="M1435.12,-386.71C1398.07,-367.11 1336.18,-337.41 1278.83,-324 1142.05,-292.02 112.44,-325.73 18.83,-221 -8.42,-190.51 43.75,-167.29 89.89,-153.57"/>
<polygon fill="midnightblue" stroke="midnightblue" points="1433.52,-389.83 1443.99,-391.46 1436.82,-383.66 1433.52,-389.83"/>
</g>
<!-- Node27&#45;&gt;Node18 -->
<g id="edge44" class="edge">
<title>Node27&#45;&gt;Node18</title>
<path fill="none" stroke="midnightblue" d="M1403.53,-388.98C1361.55,-378.37 1307.59,-364.72 1267.62,-354.61"/>
<polygon fill="midnightblue" stroke="midnightblue" points="1402.83,-392.42 1413.38,-391.48 1404.54,-385.63 1402.83,-392.42"/>
</g>
<!-- Node27&#45;&gt;Node24 -->
<g id="edge43" class="edge">
<title>Node27&#45;&gt;Node24</title>
<path fill="none" stroke="midnightblue" d="M1546.07,-389.46C1597.64,-378.75 1664.81,-364.8 1714.25,-354.53"/>
<polygon fill="midnightblue" stroke="midnightblue" points="1545.05,-386.1 1535.97,-391.56 1546.48,-392.95 1545.05,-386.1"/>
</g>
<!-- Node28 -->
<g id="node28" class="node">
<title>Node28</title>
<g id="a_node28"><a xlink:href="small__vector_8hpp.html" target="_top" xlink:title="A constexpr vector implementation with dynamic size at compile time.">
<polygon fill="white" stroke="black" points="1565.83,-324.5 1565.83,-354.5 1681.83,-354.5 1681.83,-324.5 1565.83,-324.5"/>
<text text-anchor="start" x="1573.83" y="-342.5" font-family="Helvetica,sans-Serif" font-size="10.00">bio/ranges/container</text>
<text text-anchor="middle" x="1623.83" y="-331.5" font-family="Helvetica,sans-Serif" font-size="10.00">/small_vector.hpp</text>
</a>
</g>
</g>
<!-- Node27&#45;&gt;Node28 -->
<g id="edge45" class="edge">
<title>Node27&#45;&gt;Node28</title>
<path fill="none" stroke="midnightblue" d="M1511.97,-387.41C1536.72,-377.03 1567.32,-364.2 1590.26,-354.58"/>
<polygon fill="midnightblue" stroke="midnightblue" points="1510.33,-384.3 1502.46,-391.4 1513.04,-390.76 1510.33,-384.3"/>
</g>
<!-- Node29 -->
<g id="node29" class="node">
<title>Node29</title>
<g id="a_node29"><a xlink:href="small__string_8hpp.html" target="_top" xlink:title="A constexpr string implementation to manipulate string literals at compile time.">
<polygon fill="white" stroke="black" points="1570.83,-257.5 1570.83,-287.5 1686.83,-287.5 1686.83,-257.5 1570.83,-257.5"/>
<text text-anchor="start" x="1578.83" y="-275.5" font-family="Helvetica,sans-Serif" font-size="10.00">bio/ranges/container</text>
<text text-anchor="middle" x="1628.83" y="-264.5" font-family="Helvetica,sans-Serif" font-size="10.00">/small_string.hpp</text>
</a>
</g>
</g>
<!-- Node28&#45;&gt;Node29 -->
<g id="edge46" class="edge">
<title>Node28&#45;&gt;Node29</title>
<path fill="none" stroke="midnightblue" d="M1625.68,-314.4C1626.38,-305.37 1627.14,-295.41 1627.74,-287.58"/>
<polygon fill="midnightblue" stroke="midnightblue" points="1622.19,-314.16 1624.91,-324.4 1629.17,-314.69 1622.19,-314.16"/>
</g>
<!-- Node29&#45;&gt;Node14 -->
<g id="edge48" class="edge">
<title>Node29&#45;&gt;Node14</title>
<path fill="none" stroke="midnightblue" d="M1588.13,-253.13C1560.42,-240.62 1525.01,-224.64 1503.67,-215.01"/>
<polygon fill="midnightblue" stroke="midnightblue" points="1587.03,-256.47 1597.58,-257.4 1589.91,-250.09 1587.03,-256.47"/>
</g>
<!-- Node29&#45;&gt;Node15 -->
<g id="edge49" class="edge">
<title>Node29&#45;&gt;Node15</title>
<path fill="none" stroke="midnightblue" d="M1669.65,-252.04C1681.58,-244.18 1693.19,-233.87 1699.83,-221 1706.14,-208.76 1707.45,-201.48 1699.83,-190 1688.2,-172.49 1669.18,-161.04 1649.68,-153.55"/>
<polygon fill="midnightblue" stroke="midnightblue" points="1667.69,-249.14 1660.98,-257.34 1671.33,-255.12 1667.69,-249.14"/>
</g>
<!-- Node30 -->
<g id="node30" class="node">
<title>Node30</title>
<g id="a_node30"><a xlink:href="cigar_8hpp.html" target="_top" xlink:title="Provides the bio::alphabet::cigar alphabet.">
<polygon fill="white" stroke="black" points="1586.83,-190.5 1586.83,-220.5 1690.83,-220.5 1690.83,-190.5 1586.83,-190.5"/>
<text text-anchor="start" x="1594.83" y="-208.5" font-family="Helvetica,sans-Serif" font-size="10.00">bio/alphabet/cigar</text>
<text text-anchor="middle" x="1638.83" y="-197.5" font-family="Helvetica,sans-Serif" font-size="10.00">/cigar.hpp</text>
</a>
</g>
</g>
<!-- Node29&#45;&gt;Node30 -->
<g id="edge47" class="edge">
<title>Node29&#45;&gt;Node30</title>
<path fill="none" stroke="midnightblue" d="M1632.53,-247.4C1633.92,-238.37 1635.46,-228.41 1636.66,-220.58"/>
<polygon fill="midnightblue" stroke="midnightblue" points="1629.06,-246.98 1631,-257.4 1635.98,-248.04 1629.06,-246.98"/>
</g>
<!-- Node31&#45;&gt;Node3 -->
<g id="edge52" class="edge">
<title>Node31&#45;&gt;Node3</title>
<path fill="none" stroke="midnightblue" d="M1166.44,-389.35C1150.38,-372.42 1130.94,-345.36 1144.83,-324 1166.29,-290.97 1195.29,-312.88 1225.83,-288 1263.43,-257.37 1304.19,-227.82 1273.83,-190 1253.97,-165.26 1173.18,-151.9 1113.38,-145.24"/>
<polygon fill="midnightblue" stroke="midnightblue" points="1164.34,-392.2 1173.89,-396.78 1169.28,-387.24 1164.34,-392.2"/>
</g>
<!-- Node31&#45;&gt;Node18 -->
<g id="edge51" class="edge">
<title>Node31&#45;&gt;Node18</title>
<path fill="none" stroke="midnightblue" d="M1191.63,-387.39C1196.1,-377.02 1201.62,-364.2 1205.76,-354.59"/>
<polygon fill="midnightblue" stroke="midnightblue" points="1188.35,-386.16 1187.6,-396.73 1194.77,-388.93 1188.35,-386.16"/>
</g>
<!-- Node32&#45;&gt;Node17 -->
<g id="edge55" class="edge">
<title>Node32&#45;&gt;Node17</title>
<path fill="none" stroke="midnightblue" d="M1426.13,-521.78C1392.2,-509.18 1348.12,-492.81 1321.73,-483.01"/>
<polygon fill="midnightblue" stroke="midnightblue" points="1425.26,-525.2 1435.86,-525.4 1427.7,-518.63 1425.26,-525.2"/>
</g>
<!-- Node32&#45;&gt;Node23 -->
<g id="edge56" class="edge">
<title>Node32&#45;&gt;Node23</title>
<path fill="none" stroke="midnightblue" d="M1524.93,-522.11C1562.09,-509.46 1610.78,-492.89 1639.83,-483.01"/>
<polygon fill="midnightblue" stroke="midnightblue" points="1523.61,-518.86 1515.27,-525.4 1525.87,-525.49 1523.61,-518.86"/>
</g>
</g>
</svg>
