<?xml version="1.0" encoding="UTF-8" standalone="no"?>
<!DOCTYPE svg PUBLIC "-//W3C//DTD SVG 1.1//EN"
 "http://www.w3.org/Graphics/SVG/1.1/DTD/svg11.dtd">
<!-- Generated by graphviz version 2.42.2 ()
 -->
<!-- Title: bio/ranges/hash.hpp Pages: 1 -->
<svg width="989pt" height="375pt"
 viewBox="0.00 0.00 988.50 375.00" xmlns="http://www.w3.org/2000/svg" xmlns:xlink="http://www.w3.org/1999/xlink">
<g id="graph0" class="graph" transform="scale(1 1) rotate(0) translate(4 371)">
<title>bio/ranges/hash.hpp</title>
<polygon fill="white" stroke="transparent" points="-4,4 -4,-371 984.5,-371 984.5,4 -4,4"/>
<!-- Node1 -->
<g id="node1" class="node">
<title>Node1</title>
<g id="a_node1"><a xlink:title="Provides overloads for std::hash.">
<polygon fill="#bfbfbf" stroke="black" points="585.5,-347.5 585.5,-366.5 689.5,-366.5 689.5,-347.5 585.5,-347.5"/>
<text text-anchor="middle" x="637.5" y="-354.5" font-family="Helvetica,sans-Serif" font-size="10.00">bio/ranges/hash.hpp</text>
</a>
</g>
</g>
<!-- Node2 -->
<g id="node2" class="node">
<title>Node2</title>
<g id="a_node2"><a xlink:href="alphabet_2hash_8hpp.html" target="_top" xlink:title="Provides overloads for std::hash.">
<polygon fill="white" stroke="black" points="405.5,-291.5 405.5,-310.5 517.5,-310.5 517.5,-291.5 405.5,-291.5"/>
<text text-anchor="middle" x="461.5" y="-298.5" font-family="Helvetica,sans-Serif" font-size="10.00">bio/alphabet/hash.hpp</text>
</a>
</g>
</g>
<!-- Node1&#45;&gt;Node2 -->
<g id="edge1" class="edge">
<title>Node1&#45;&gt;Node2</title>
<path fill="none" stroke="midnightblue" d="M609.61,-347.44C579.75,-338.28 532.19,-323.69 499.04,-313.52"/>
<polygon fill="midnightblue" stroke="midnightblue" points="499.84,-310.1 489.26,-310.52 497.79,-316.8 499.84,-310.1"/>
</g>
<!-- Node22 -->
<g id="node22" class="node">
<title>Node22</title>
<g id="a_node22"><a xlink:href="ranges_2concept_8hpp.html" target="_top" xlink:title="Additional non&#45;standard concepts for ranges.">
<polygon fill="white" stroke="black" points="535.5,-291.5 535.5,-310.5 653.5,-310.5 653.5,-291.5 535.5,-291.5"/>
<text text-anchor="middle" x="594.5" y="-298.5" font-family="Helvetica,sans-Serif" font-size="10.00">bio/ranges/concept.hpp</text>
</a>
</g>
</g>
<!-- Node1&#45;&gt;Node22 -->
<g id="edge30" class="edge">
<title>Node1&#45;&gt;Node22</title>
<path fill="none" stroke="midnightblue" d="M630.4,-347.08C624.26,-339.38 615.23,-328.03 607.76,-318.65"/>
<polygon fill="midnightblue" stroke="midnightblue" points="610.44,-316.39 601.47,-310.75 604.96,-320.75 610.44,-316.39"/>
</g>
<!-- Node23 -->
<g id="node23" class="node">
<title>Node23</title>
<g id="a_node23"><a target="_blank" xlink:href="https://en.cppreference.com/w/cpp/header/ranges.html" xlink:title=" ">
<polygon fill="white" stroke="black" points="634.5,-235.5 634.5,-254.5 680.5,-254.5 680.5,-235.5 634.5,-235.5"/>
<text text-anchor="middle" x="657.5" y="-242.5" font-family="Helvetica,sans-Serif" font-size="10.00">ranges</text>
</a>
</g>
</g>
<!-- Node1&#45;&gt;Node23 -->
<g id="edge40" class="edge">
<title>Node1&#45;&gt;Node23</title>
<path fill="none" stroke="midnightblue" d="M644.13,-347.27C650.27,-338.61 658.96,-324.67 662.5,-311 666.45,-295.75 664.63,-277.86 662.14,-264.72"/>
<polygon fill="midnightblue" stroke="midnightblue" points="665.48,-263.59 659.91,-254.57 658.64,-265.09 665.48,-263.59"/>
</g>
<!-- Node24 -->
<g id="node24" class="node">
<title>Node24</title>
<g id="a_node24"><a xlink:href="type__traits_8hpp.html" target="_top" xlink:title="Provides various transformation traits used by the range module.">
<polygon fill="white" stroke="black" points="710,-291.5 710,-310.5 839,-310.5 839,-291.5 710,-291.5"/>
<text text-anchor="middle" x="774.5" y="-298.5" font-family="Helvetica,sans-Serif" font-size="10.00">bio/ranges/type_traits.hpp</text>
</a>
</g>
</g>
<!-- Node1&#45;&gt;Node24 -->
<g id="edge33" class="edge">
<title>Node1&#45;&gt;Node24</title>
<path fill="none" stroke="midnightblue" d="M659.21,-347.44C681.85,-338.52 717.57,-324.44 743.25,-314.32"/>
<polygon fill="midnightblue" stroke="midnightblue" points="744.87,-317.44 752.89,-310.52 742.31,-310.93 744.87,-317.44"/>
</g>
<!-- Node3 -->
<g id="node3" class="node">
<title>Node3</title>
<g id="a_node3"><a xlink:href="alphabet_2concept_8hpp.html" target="_top" xlink:title="Core alphabet concept and free function/type trait wrappers.">
<polygon fill="white" stroke="black" points="458,-235.5 458,-254.5 583,-254.5 583,-235.5 458,-235.5"/>
<text text-anchor="middle" x="520.5" y="-242.5" font-family="Helvetica,sans-Serif" font-size="10.00">bio/alphabet/concept.hpp</text>
</a>
</g>
</g>
<!-- Node2&#45;&gt;Node3 -->
<g id="edge2" class="edge">
<title>Node2&#45;&gt;Node3</title>
<path fill="none" stroke="midnightblue" d="M470.98,-291.32C479.7,-283.34 492.84,-271.31 503.4,-261.65"/>
<polygon fill="midnightblue" stroke="midnightblue" points="505.83,-264.17 510.85,-254.83 501.11,-259 505.83,-264.17"/>
</g>
<!-- Node4 -->
<g id="node4" class="node">
<title>Node4</title>
<g id="a_node4"><a target="_blank" xlink:href="https://en.cppreference.com/w/cpp/header/type_traits.html" xlink:title=" ">
<polygon fill="white" stroke="black" points="708.5,-112.5 708.5,-131.5 770.5,-131.5 770.5,-112.5 708.5,-112.5"/>
<text text-anchor="middle" x="739.5" y="-119.5" font-family="Helvetica,sans-Serif" font-size="10.00">type_traits</text>
</a>
</g>
</g>
<!-- Node3&#45;&gt;Node4 -->
<g id="edge3" class="edge">
<title>Node3&#45;&gt;Node4</title>
<path fill="none" stroke="midnightblue" d="M583.14,-236.51C632.93,-229.33 697.3,-216.93 716.5,-199 732.28,-184.26 737.36,-159.09 738.93,-141.78"/>
<polygon fill="midnightblue" stroke="midnightblue" points="742.43,-141.92 739.53,-131.73 735.44,-141.51 742.43,-141.92"/>
</g>
<!-- Node5 -->
<g id="node5" class="node">
<title>Node5</title>
<g id="a_node5"><a xlink:href="alphabet_2biocpp_8hpp.html" target="_top" xlink:title="Module header with module&#45;wide definitions.">
<polygon fill="white" stroke="black" points="315,-112.5 315,-131.5 434,-131.5 434,-112.5 315,-112.5"/>
<text text-anchor="middle" x="374.5" y="-119.5" font-family="Helvetica,sans-Serif" font-size="10.00">bio/alphabet/biocpp.hpp</text>
</a>
</g>
</g>
<!-- Node3&#45;&gt;Node5 -->
<g id="edge4" class="edge">
<title>Node3&#45;&gt;Node5</title>
<path fill="none" stroke="midnightblue" d="M457.88,-239.63C400.85,-234.19 322.69,-222.57 303.5,-199 294.8,-188.31 296.86,-180.07 303.5,-168 311.39,-153.66 325.99,-143.25 339.9,-136.08"/>
<polygon fill="midnightblue" stroke="midnightblue" points="341.79,-139.06 349.34,-131.62 338.8,-132.73 341.79,-139.06"/>
</g>
<!-- Node10 -->
<g id="node10" class="node">
<title>Node10</title>
<g id="a_node10"><a xlink:href="exception_8hpp.html" target="_top" xlink:title="Exceptions thrown by entities in the alphabet module.">
<polygon fill="white" stroke="black" points="313,-174 313,-193 446,-193 446,-174 313,-174"/>
<text text-anchor="middle" x="379.5" y="-181" font-family="Helvetica,sans-Serif" font-size="10.00">bio/alphabet/exception.hpp</text>
</a>
</g>
</g>
<!-- Node3&#45;&gt;Node10 -->
<g id="edge9" class="edge">
<title>Node3&#45;&gt;Node10</title>
<path fill="none" stroke="midnightblue" d="M500.3,-235.48C476.43,-225.4 436.5,-208.55 409.13,-197"/>
<polygon fill="midnightblue" stroke="midnightblue" points="410.24,-193.67 399.66,-193.01 407.52,-200.12 410.24,-193.67"/>
</g>
<!-- Node14 -->
<g id="node14" class="node">
<title>Node14</title>
<g id="a_node14"><a xlink:href="core__language_8hpp.html" target="_top" xlink:title="Provides concepts for core language types and relations that don&#39;t have concepts in C++20 (yet).">
<polygon fill="white" stroke="black" points="464,-168.5 464,-198.5 577,-198.5 577,-168.5 464,-168.5"/>
<text text-anchor="start" x="472" y="-186.5" font-family="Helvetica,sans-Serif" font-size="10.00">bio/meta/concept/core</text>
<text text-anchor="middle" x="520.5" y="-175.5" font-family="Helvetica,sans-Serif" font-size="10.00">_language.hpp</text>
</a>
</g>
</g>
<!-- Node3&#45;&gt;Node14 -->
<g id="edge14" class="edge">
<title>Node3&#45;&gt;Node14</title>
<path fill="none" stroke="midnightblue" d="M520.5,-235.48C520.5,-228.47 520.5,-218.19 520.5,-208.7"/>
<polygon fill="midnightblue" stroke="midnightblue" points="524,-208.52 520.5,-198.52 517,-208.52 524,-208.52"/>
</g>
<!-- Node15 -->
<g id="node15" class="node">
<title>Node15</title>
<g id="a_node15"><a xlink:href="priority__tag_8hpp.html" target="_top" xlink:title="provides bio::meta::detail::priority_tag.">
<polygon fill="white" stroke="black" points="595,-168.5 595,-198.5 708,-198.5 708,-168.5 595,-168.5"/>
<text text-anchor="start" x="603" y="-186.5" font-family="Helvetica,sans-Serif" font-size="10.00">bio/meta/detail/priority</text>
<text text-anchor="middle" x="651.5" y="-175.5" font-family="Helvetica,sans-Serif" font-size="10.00">_tag.hpp</text>
</a>
</g>
</g>
<!-- Node3&#45;&gt;Node15 -->
<g id="edge18" class="edge">
<title>Node3&#45;&gt;Node15</title>
<path fill="none" stroke="midnightblue" d="M539.27,-235.48C558.01,-226.96 587.39,-213.62 611.39,-202.72"/>
<polygon fill="midnightblue" stroke="midnightblue" points="612.97,-205.85 620.63,-198.52 610.07,-199.47 612.97,-205.85"/>
</g>
<!-- Node16 -->
<g id="node16" class="node">
<title>Node16</title>
<g id="a_node16"><a xlink:href="type__inspection_8hpp.html" target="_top" xlink:title="Provides traits to inspect some information of a type, for example its name.">
<polygon fill="white" stroke="black" points="138.5,-168.5 138.5,-198.5 240.5,-198.5 240.5,-168.5 138.5,-168.5"/>
<text text-anchor="start" x="146.5" y="-186.5" font-family="Helvetica,sans-Serif" font-size="10.00">bio/meta/detail/type</text>
<text text-anchor="middle" x="189.5" y="-175.5" font-family="Helvetica,sans-Serif" font-size="10.00">_inspection.hpp</text>
</a>
</g>
</g>
<!-- Node3&#45;&gt;Node16 -->
<g id="edge20" class="edge">
<title>Node3&#45;&gt;Node16</title>
<path fill="none" stroke="midnightblue" d="M473.08,-235.48C414.54,-224.95 314.87,-207.04 250.64,-195.49"/>
<polygon fill="midnightblue" stroke="midnightblue" points="251.1,-192.02 240.64,-193.69 249.87,-198.91 251.1,-192.02"/>
</g>
<!-- Node20 -->
<g id="node20" class="node">
<title>Node20</title>
<g id="a_node20"><a xlink:href="basic_8hpp.html" target="_top" xlink:title="Provides various type traits on generic types.">
<polygon fill="white" stroke="black" points="803,-168.5 803,-198.5 906,-198.5 906,-168.5 803,-168.5"/>
<text text-anchor="start" x="811" y="-186.5" font-family="Helvetica,sans-Serif" font-size="10.00">bio/meta/type_traits</text>
<text text-anchor="middle" x="854.5" y="-175.5" font-family="Helvetica,sans-Serif" font-size="10.00">/basic.hpp</text>
</a>
</g>
</g>
<!-- Node3&#45;&gt;Node20 -->
<g id="edge26" class="edge">
<title>Node3&#45;&gt;Node20</title>
<path fill="none" stroke="midnightblue" d="M568.35,-235.48C627.42,-224.95 727.99,-207.04 792.81,-195.49"/>
<polygon fill="midnightblue" stroke="midnightblue" points="793.66,-198.89 802.89,-193.69 792.43,-192 793.66,-198.89"/>
</g>
<!-- Node6 -->
<g id="node6" class="node">
<title>Node6</title>
<g id="a_node6"><a xlink:href="platform_8hpp.html" target="_top" xlink:title="Provides platform and dependency checks.">
<polygon fill="white" stroke="black" points="577,-56.5 577,-75.5 688,-75.5 688,-56.5 577,-56.5"/>
<text text-anchor="middle" x="632.5" y="-63.5" font-family="Helvetica,sans-Serif" font-size="10.00">bio/meta/platform.hpp</text>
</a>
</g>
</g>
<!-- Node5&#45;&gt;Node6 -->
<g id="edge5" class="edge">
<title>Node5&#45;&gt;Node6</title>
<path fill="none" stroke="midnightblue" d="M415.38,-112.44C460.48,-103 533.11,-87.8 581.8,-77.61"/>
<polygon fill="midnightblue" stroke="midnightblue" points="582.74,-80.99 591.81,-75.52 581.31,-74.14 582.74,-80.99"/>
</g>
<!-- Node7 -->
<g id="node7" class="node">
<title>Node7</title>
<g id="a_node7"><a target="_blank" xlink:href="https://en.cppreference.com/w/cpp/header/cinttypes.html" xlink:title=" ">
<polygon fill="white" stroke="black" points="533.5,-0.5 533.5,-19.5 589.5,-19.5 589.5,-0.5 533.5,-0.5"/>
<text text-anchor="middle" x="561.5" y="-7.5" font-family="Helvetica,sans-Serif" font-size="10.00">cinttypes</text>
</a>
</g>
</g>
<!-- Node6&#45;&gt;Node7 -->
<g id="edge6" class="edge">
<title>Node6&#45;&gt;Node7</title>
<path fill="none" stroke="midnightblue" d="M621.09,-56.32C610.39,-48.18 594.16,-35.84 581.34,-26.09"/>
<polygon fill="midnightblue" stroke="midnightblue" points="583.19,-23.1 573.11,-19.83 578.96,-28.67 583.19,-23.1"/>
</g>
<!-- Node8 -->
<g id="node8" class="node">
<title>Node8</title>
<g id="a_node8"><a target="_blank" xlink:href="https://en.cppreference.com/w/cpp/header/ciso646.html" xlink:title=" ">
<polygon fill="white" stroke="black" points="607.5,-0.5 607.5,-19.5 657.5,-19.5 657.5,-0.5 607.5,-0.5"/>
<text text-anchor="middle" x="632.5" y="-7.5" font-family="Helvetica,sans-Serif" font-size="10.00">ciso646</text>
</a>
</g>
</g>
<!-- Node6&#45;&gt;Node8 -->
<g id="edge7" class="edge">
<title>Node6&#45;&gt;Node8</title>
<path fill="none" stroke="midnightblue" d="M632.5,-56.08C632.5,-49.01 632.5,-38.86 632.5,-29.99"/>
<polygon fill="midnightblue" stroke="midnightblue" points="636,-29.75 632.5,-19.75 629,-29.75 636,-29.75"/>
</g>
<!-- Node9 -->
<g id="node9" class="node">
<title>Node9</title>
<g id="a_node9"><a target="_blank" xlink:href="https://en.cppreference.com/w/cpp/header/cstddef.html" xlink:title=" ">
<polygon fill="white" stroke="black" points="676,-0.5 676,-19.5 725,-19.5 725,-0.5 676,-0.5"/>
<text text-anchor="middle" x="700.5" y="-7.5" font-family="Helvetica,sans-Serif" font-size="10.00">cstddef</text>
</a>
</g>
</g>
<!-- Node6&#45;&gt;Node9 -->
<g id="edge8" class="edge">
<title>Node6&#45;&gt;Node9</title>
<path fill="none" stroke="midnightblue" d="M643.43,-56.32C653.67,-48.18 669.22,-35.84 681.5,-26.09"/>
<polygon fill="midnightblue" stroke="midnightblue" points="683.72,-28.79 689.38,-19.83 679.37,-23.31 683.72,-28.79"/>
</g>
<!-- Node10&#45;&gt;Node5 -->
<g id="edge13" class="edge">
<title>Node10&#45;&gt;Node5</title>
<path fill="none" stroke="midnightblue" d="M378.78,-173.98C378.08,-165.58 376.98,-152.48 376.07,-141.66"/>
<polygon fill="midnightblue" stroke="midnightblue" points="379.54,-141.18 375.22,-131.51 372.56,-141.77 379.54,-141.18"/>
</g>
<!-- Node11 -->
<g id="node11" class="node">
<title>Node11</title>
<g id="a_node11"><a target="_blank" xlink:href="https://en.cppreference.com/w/cpp/header/concepts.html" xlink:title=" ">
<polygon fill="white" stroke="black" points="529.5,-112.5 529.5,-131.5 585.5,-131.5 585.5,-112.5 529.5,-112.5"/>
<text text-anchor="middle" x="557.5" y="-119.5" font-family="Helvetica,sans-Serif" font-size="10.00">concepts</text>
</a>
</g>
</g>
<!-- Node10&#45;&gt;Node11 -->
<g id="edge10" class="edge">
<title>Node10&#45;&gt;Node11</title>
<path fill="none" stroke="midnightblue" d="M405,-173.98C435.8,-163.68 487.77,-146.31 522.35,-134.75"/>
<polygon fill="midnightblue" stroke="midnightblue" points="523.67,-138 532.04,-131.51 521.45,-131.36 523.67,-138"/>
</g>
<!-- Node12 -->
<g id="node12" class="node">
<title>Node12</title>
<g id="a_node12"><a target="_blank" xlink:href="https://en.cppreference.com/w/cpp/header/stdexcept.html" xlink:title=" ">
<polygon fill="white" stroke="black" points="452,-112.5 452,-131.5 511,-131.5 511,-112.5 452,-112.5"/>
<text text-anchor="middle" x="481.5" y="-119.5" font-family="Helvetica,sans-Serif" font-size="10.00">stdexcept</text>
</a>
</g>
</g>
<!-- Node10&#45;&gt;Node12 -->
<g id="edge11" class="edge">
<title>Node10&#45;&gt;Node12</title>
<path fill="none" stroke="midnightblue" d="M394.11,-173.98C410.85,-164.21 438.5,-148.08 458.22,-136.58"/>
<polygon fill="midnightblue" stroke="midnightblue" points="460.04,-139.57 466.91,-131.51 456.51,-133.52 460.04,-139.57"/>
</g>
<!-- Node13 -->
<g id="node13" class="node">
<title>Node13</title>
<g id="a_node13"><a target="_blank" xlink:href="https://en.cppreference.com/w/cpp/header/string.html" xlink:title=" ">
<polygon fill="white" stroke="black" points="256,-112.5 256,-131.5 297,-131.5 297,-112.5 256,-112.5"/>
<text text-anchor="middle" x="276.5" y="-119.5" font-family="Helvetica,sans-Serif" font-size="10.00">string</text>
</a>
</g>
</g>
<!-- Node10&#45;&gt;Node13 -->
<g id="edge12" class="edge">
<title>Node10&#45;&gt;Node13</title>
<path fill="none" stroke="midnightblue" d="M364.74,-173.98C347.84,-164.21 319.92,-148.08 300.01,-136.58"/>
<polygon fill="midnightblue" stroke="midnightblue" points="301.64,-133.48 291.23,-131.51 298.14,-139.54 301.64,-133.48"/>
</g>
<!-- Node14&#45;&gt;Node4 -->
<g id="edge15" class="edge">
<title>Node14&#45;&gt;Node4</title>
<path fill="none" stroke="midnightblue" d="M572.12,-168.47C610.56,-158.03 662.36,-143.96 698.1,-134.25"/>
<polygon fill="midnightblue" stroke="midnightblue" points="699.46,-137.51 708.19,-131.51 697.62,-130.75 699.46,-137.51"/>
</g>
<!-- Node14&#45;&gt;Node6 -->
<g id="edge16" class="edge">
<title>Node14&#45;&gt;Node6</title>
<path fill="none" stroke="midnightblue" d="M546.96,-168.38C562.13,-159.38 580.82,-146.67 594.5,-132 607.43,-118.14 617.91,-99.12 624.56,-85.24"/>
<polygon fill="midnightblue" stroke="midnightblue" points="627.9,-86.34 628.88,-75.79 621.54,-83.43 627.9,-86.34"/>
</g>
<!-- Node14&#45;&gt;Node11 -->
<g id="edge17" class="edge">
<title>Node14&#45;&gt;Node11</title>
<path fill="none" stroke="midnightblue" d="M529.27,-168.4C534.48,-160.02 541.13,-149.33 546.67,-140.42"/>
<polygon fill="midnightblue" stroke="midnightblue" points="549.81,-142 552.12,-131.66 543.86,-138.3 549.81,-142"/>
</g>
<!-- Node15&#45;&gt;Node6 -->
<g id="edge19" class="edge">
<title>Node15&#45;&gt;Node6</title>
<path fill="none" stroke="midnightblue" d="M649.17,-168.34C645.75,-147.53 639.35,-108.66 635.56,-85.58"/>
<polygon fill="midnightblue" stroke="midnightblue" points="639,-84.97 633.93,-75.67 632.1,-86.1 639,-84.97"/>
</g>
<!-- Node16&#45;&gt;Node6 -->
<g id="edge25" class="edge">
<title>Node16&#45;&gt;Node6</title>
<path fill="none" stroke="midnightblue" d="M196.54,-168.35C205.62,-151.76 223.06,-124.91 246.5,-112 300.03,-82.52 471.08,-72.23 566.53,-68.73"/>
<polygon fill="midnightblue" stroke="midnightblue" points="566.78,-72.22 576.65,-68.37 566.53,-65.23 566.78,-72.22"/>
</g>
<!-- Node16&#45;&gt;Node13 -->
<g id="edge23" class="edge">
<title>Node16&#45;&gt;Node13</title>
<path fill="none" stroke="midnightblue" d="M210.12,-168.4C223.8,-159.04 241.71,-146.79 255.48,-137.38"/>
<polygon fill="midnightblue" stroke="midnightblue" points="257.56,-140.19 263.84,-131.66 253.61,-134.41 257.56,-140.19"/>
</g>
<!-- Node17 -->
<g id="node17" class="node">
<title>Node17</title>
<g id="a_node17"><a target="_blank" xlink:href="https://en.cppreference.com/w/cpp/header/functional.html" xlink:title=" ">
<polygon fill="white" stroke="black" points="0,-112.5 0,-131.5 59,-131.5 59,-112.5 0,-112.5"/>
<text text-anchor="middle" x="29.5" y="-119.5" font-family="Helvetica,sans-Serif" font-size="10.00">functional</text>
</a>
</g>
</g>
<!-- Node16&#45;&gt;Node17 -->
<g id="edge21" class="edge">
<title>Node16&#45;&gt;Node17</title>
<path fill="none" stroke="midnightblue" d="M151.58,-168.4C124.38,-158.28 88.1,-144.79 62.17,-135.15"/>
<polygon fill="midnightblue" stroke="midnightblue" points="63.37,-131.86 52.78,-131.66 60.93,-138.42 63.37,-131.86"/>
</g>
<!-- Node18 -->
<g id="node18" class="node">
<title>Node18</title>
<g id="a_node18"><a target="_blank" xlink:href="https://en.cppreference.com/w/cpp/header/memory.html" xlink:title=" ">
<polygon fill="white" stroke="black" points="77.5,-112.5 77.5,-131.5 129.5,-131.5 129.5,-112.5 77.5,-112.5"/>
<text text-anchor="middle" x="103.5" y="-119.5" font-family="Helvetica,sans-Serif" font-size="10.00">memory</text>
</a>
</g>
</g>
<!-- Node16&#45;&gt;Node18 -->
<g id="edge22" class="edge">
<title>Node16&#45;&gt;Node18</title>
<path fill="none" stroke="midnightblue" d="M169.12,-168.4C155.59,-159.04 137.89,-146.79 124.28,-137.38"/>
<polygon fill="midnightblue" stroke="midnightblue" points="126.23,-134.47 116.01,-131.66 122.25,-140.23 126.23,-134.47"/>
</g>
<!-- Node19 -->
<g id="node19" class="node">
<title>Node19</title>
<g id="a_node19"><a target="_blank" xlink:href="https://en.cppreference.com/w/cpp/header/typeinfo.html" xlink:title=" ">
<polygon fill="white" stroke="black" points="148,-112.5 148,-131.5 199,-131.5 199,-112.5 148,-112.5"/>
<text text-anchor="middle" x="173.5" y="-119.5" font-family="Helvetica,sans-Serif" font-size="10.00">typeinfo</text>
</a>
</g>
</g>
<!-- Node16&#45;&gt;Node19 -->
<g id="edge24" class="edge">
<title>Node16&#45;&gt;Node19</title>
<path fill="none" stroke="midnightblue" d="M185.71,-168.4C183.55,-160.38 180.82,-150.23 178.49,-141.57"/>
<polygon fill="midnightblue" stroke="midnightblue" points="181.8,-140.41 175.83,-131.66 175.05,-142.22 181.8,-140.41"/>
</g>
<!-- Node20&#45;&gt;Node4 -->
<g id="edge28" class="edge">
<title>Node20&#45;&gt;Node4</title>
<path fill="none" stroke="midnightblue" d="M827.25,-168.4C808.47,-158.68 783.67,-145.86 765.23,-136.31"/>
<polygon fill="midnightblue" stroke="midnightblue" points="766.72,-133.14 756.23,-131.66 763.51,-139.36 766.72,-133.14"/>
</g>
<!-- Node20&#45;&gt;Node6 -->
<g id="edge29" class="edge">
<title>Node20&#45;&gt;Node6</title>
<path fill="none" stroke="midnightblue" d="M842.97,-168.29C829.36,-152.42 805.31,-126.98 779.5,-112 751.62,-95.82 717.33,-84.9 688.89,-77.86"/>
<polygon fill="midnightblue" stroke="midnightblue" points="689.63,-74.44 679.09,-75.54 688.01,-81.25 689.63,-74.44"/>
</g>
<!-- Node21 -->
<g id="node21" class="node">
<title>Node21</title>
<g id="a_node21"><a target="_blank" xlink:href="https://en.cppreference.com/w/cpp/header/tuple.html" xlink:title=" ">
<polygon fill="white" stroke="black" points="835.5,-112.5 835.5,-131.5 873.5,-131.5 873.5,-112.5 835.5,-112.5"/>
<text text-anchor="middle" x="854.5" y="-119.5" font-family="Helvetica,sans-Serif" font-size="10.00">tuple</text>
</a>
</g>
</g>
<!-- Node20&#45;&gt;Node21 -->
<g id="edge27" class="edge">
<title>Node20&#45;&gt;Node21</title>
<path fill="none" stroke="midnightblue" d="M854.5,-168.4C854.5,-160.47 854.5,-150.46 854.5,-141.86"/>
<polygon fill="midnightblue" stroke="midnightblue" points="858,-141.66 854.5,-131.66 851,-141.66 858,-141.66"/>
</g>
<!-- Node22&#45;&gt;Node3 -->
<g id="edge32" class="edge">
<title>Node22&#45;&gt;Node3</title>
<path fill="none" stroke="midnightblue" d="M582.61,-291.32C571.35,-283.11 554.21,-270.6 540.79,-260.81"/>
<polygon fill="midnightblue" stroke="midnightblue" points="542.75,-257.9 532.61,-254.83 538.62,-263.56 542.75,-257.9"/>
</g>
<!-- Node22&#45;&gt;Node23 -->
<g id="edge31" class="edge">
<title>Node22&#45;&gt;Node23</title>
<path fill="none" stroke="midnightblue" d="M604.62,-291.32C614.03,-283.26 628.24,-271.08 639.57,-261.37"/>
<polygon fill="midnightblue" stroke="midnightblue" points="641.88,-264 647.19,-254.83 637.32,-258.68 641.88,-264"/>
</g>
<!-- Node24&#45;&gt;Node4 -->
<g id="edge36" class="edge">
<title>Node24&#45;&gt;Node4</title>
<path fill="none" stroke="midnightblue" d="M772.81,-291.46C767.47,-264.43 750.82,-180.24 743.28,-142.11"/>
<polygon fill="midnightblue" stroke="midnightblue" points="746.63,-141 741.25,-131.87 739.76,-142.36 746.63,-141"/>
</g>
<!-- Node24&#45;&gt;Node20 -->
<g id="edge37" class="edge">
<title>Node24&#45;&gt;Node20</title>
<path fill="none" stroke="midnightblue" d="M780.51,-291.32C792.8,-273.58 821.13,-232.68 838.95,-206.95"/>
<polygon fill="midnightblue" stroke="midnightblue" points="841.95,-208.76 844.77,-198.55 836.2,-204.77 841.95,-208.76"/>
</g>
<!-- Node24&#45;&gt;Node23 -->
<g id="edge35" class="edge">
<title>Node24&#45;&gt;Node23</title>
<path fill="none" stroke="midnightblue" d="M755.96,-291.44C736.88,-282.64 706.93,-268.81 685.06,-258.72"/>
<polygon fill="midnightblue" stroke="midnightblue" points="686.5,-255.53 675.95,-254.52 683.57,-261.88 686.5,-255.53"/>
</g>
<!-- Node25 -->
<g id="node25" class="node">
<title>Node25</title>
<g id="a_node25"><a target="_blank" xlink:href="https://en.cppreference.com/w/cpp/header/iterator.html" xlink:title=" ">
<polygon fill="white" stroke="black" points="699,-235.5 699,-254.5 746,-254.5 746,-235.5 699,-235.5"/>
<text text-anchor="middle" x="722.5" y="-242.5" font-family="Helvetica,sans-Serif" font-size="10.00">iterator</text>
</a>
</g>
</g>
<!-- Node24&#45;&gt;Node25 -->
<g id="edge34" class="edge">
<title>Node24&#45;&gt;Node25</title>
<path fill="none" stroke="midnightblue" d="M765.91,-291.08C758.34,-283.22 747.12,-271.57 737.99,-262.08"/>
<polygon fill="midnightblue" stroke="midnightblue" points="740.38,-259.53 730.93,-254.75 735.34,-264.38 740.38,-259.53"/>
</g>
<!-- Node26 -->
<g id="node26" class="node">
<title>Node26</title>
<g id="a_node26"><a xlink:href="ranges_2biocpp_8hpp.html" target="_top" xlink:title="Module header with module&#45;wide definitions.">
<polygon fill="white" stroke="black" points="868.5,-235.5 868.5,-254.5 980.5,-254.5 980.5,-235.5 868.5,-235.5"/>
<text text-anchor="middle" x="924.5" y="-242.5" font-family="Helvetica,sans-Serif" font-size="10.00">bio/ranges/biocpp.hpp</text>
</a>
</g>
</g>
<!-- Node24&#45;&gt;Node26 -->
<g id="edge38" class="edge">
<title>Node24&#45;&gt;Node26</title>
<path fill="none" stroke="midnightblue" d="M798.27,-291.44C823.39,-282.4 863.21,-268.06 891.4,-257.92"/>
<polygon fill="midnightblue" stroke="midnightblue" points="892.62,-261.2 900.84,-254.52 890.25,-254.61 892.62,-261.2"/>
</g>
<!-- Node26&#45;&gt;Node6 -->
<g id="edge39" class="edge">
<title>Node26&#45;&gt;Node6</title>
<path fill="none" stroke="midnightblue" d="M924.92,-235.22C925.57,-210.63 923.56,-140.99 882.5,-112 853.48,-91.5 761.95,-78.98 698.1,-72.52"/>
<polygon fill="midnightblue" stroke="midnightblue" points="698.4,-69.03 688.1,-71.53 697.71,-75.99 698.4,-69.03"/>
</g>
</g>
</svg>
