<?xml version="1.0" encoding="UTF-8" standalone="no"?>
<!DOCTYPE svg PUBLIC "-//W3C//DTD SVG 1.1//EN"
 "http://www.w3.org/Graphics/SVG/1.1/DTD/svg11.dtd">
<!-- Generated by graphviz version 2.43.0 (0)
 -->
<!-- Title: bio/ranges/hash.hpp Pages: 1 -->
<svg width="1065pt" height="375pt"
 viewBox="0.00 0.00 1064.50 375.00" xmlns="http://www.w3.org/2000/svg" xmlns:xlink="http://www.w3.org/1999/xlink">
<g id="graph0" class="graph" transform="scale(1 1) rotate(0) translate(4 371)">
<title>bio/ranges/hash.hpp</title>
<polygon fill="white" stroke="transparent" points="-4,4 -4,-371 1060.5,-371 1060.5,4 -4,4"/>
<!-- Node1 -->
<g id="node1" class="node">
<title>Node1</title>
<g id="a_node1"><a xlink:title="Provides overloads for std::hash.">
<polygon fill="#bfbfbf" stroke="black" points="629,-347.5 629,-366.5 744,-366.5 744,-347.5 629,-347.5"/>
<text text-anchor="middle" x="686.5" y="-354.5" font-family="Helvetica,sans-Serif" font-size="10.00">bio/ranges/hash.hpp</text>
</a>
</g>
</g>
<!-- Node2 -->
<g id="node2" class="node">
<title>Node2</title>
<g id="a_node2"><a xlink:href="alphabet_2hash_8hpp.html" target="_top" xlink:title="Provides overloads for std::hash.">
<polygon fill="white" stroke="black" points="432,-291.5 432,-310.5 557,-310.5 557,-291.5 432,-291.5"/>
<text text-anchor="middle" x="494.5" y="-298.5" font-family="Helvetica,sans-Serif" font-size="10.00">bio/alphabet/hash.hpp</text>
</a>
</g>
</g>
<!-- Node1&#45;&gt;Node2 -->
<g id="edge1" class="edge">
<title>Node1&#45;&gt;Node2</title>
<path fill="none" stroke="midnightblue" d="M656.08,-347.44C623.22,-338.2 570.72,-323.44 534.53,-313.26"/>
<polygon fill="midnightblue" stroke="midnightblue" points="535.35,-309.85 524.78,-310.52 533.46,-316.59 535.35,-309.85"/>
</g>
<!-- Node22 -->
<g id="node22" class="node">
<title>Node22</title>
<g id="a_node22"><a xlink:href="ranges_2concept_8hpp.html" target="_top" xlink:title="Additional non&#45;standard concepts for ranges.">
<polygon fill="white" stroke="black" points="575.5,-291.5 575.5,-310.5 705.5,-310.5 705.5,-291.5 575.5,-291.5"/>
<text text-anchor="middle" x="640.5" y="-298.5" font-family="Helvetica,sans-Serif" font-size="10.00">bio/ranges/concept.hpp</text>
</a>
</g>
</g>
<!-- Node1&#45;&gt;Node22 -->
<g id="edge30" class="edge">
<title>Node1&#45;&gt;Node22</title>
<path fill="none" stroke="midnightblue" d="M678.9,-347.08C672.27,-339.3 662.48,-327.8 654.44,-318.37"/>
<polygon fill="midnightblue" stroke="midnightblue" points="657.1,-316.09 647.95,-310.75 651.77,-320.63 657.1,-316.09"/>
</g>
<!-- Node23 -->
<g id="node23" class="node">
<title>Node23</title>
<g id="a_node23"><a target="_blank" xlink:href="https://en.cppreference.com/w/cpp/header/ranges.html" xlink:title=" ">
<polygon fill="white" stroke="black" points="683.5,-235.5 683.5,-254.5 733.5,-254.5 733.5,-235.5 683.5,-235.5"/>
<text text-anchor="middle" x="708.5" y="-242.5" font-family="Helvetica,sans-Serif" font-size="10.00">ranges</text>
</a>
</g>
</g>
<!-- Node1&#45;&gt;Node23 -->
<g id="edge40" class="edge">
<title>Node1&#45;&gt;Node23</title>
<path fill="none" stroke="midnightblue" d="M693.91,-347.41C700.78,-338.84 710.51,-324.98 714.5,-311 718.88,-295.68 716.64,-277.57 713.73,-264.37"/>
<polygon fill="midnightblue" stroke="midnightblue" points="717.1,-263.44 711.25,-254.6 710.31,-265.15 717.1,-263.44"/>
</g>
<!-- Node24 -->
<g id="node24" class="node">
<title>Node24</title>
<g id="a_node24"><a xlink:href="type__traits_8hpp.html" target="_top" xlink:title="Provides various transformation traits used by the range module.">
<polygon fill="white" stroke="black" points="761.5,-291.5 761.5,-310.5 905.5,-310.5 905.5,-291.5 761.5,-291.5"/>
<text text-anchor="middle" x="833.5" y="-298.5" font-family="Helvetica,sans-Serif" font-size="10.00">bio/ranges/type_traits.hpp</text>
</a>
</g>
</g>
<!-- Node1&#45;&gt;Node24 -->
<g id="edge33" class="edge">
<title>Node1&#45;&gt;Node24</title>
<path fill="none" stroke="midnightblue" d="M709.79,-347.44C734.31,-338.44 773.1,-324.19 800.7,-314.05"/>
<polygon fill="midnightblue" stroke="midnightblue" points="802.14,-317.25 810.32,-310.52 799.72,-310.68 802.14,-317.25"/>
</g>
<!-- Node3 -->
<g id="node3" class="node">
<title>Node3</title>
<g id="a_node3"><a xlink:href="alphabet_2concept_8hpp.html" target="_top" xlink:title="Core alphabet concept and free function/type trait wrappers.">
<polygon fill="white" stroke="black" points="487.5,-235.5 487.5,-254.5 627.5,-254.5 627.5,-235.5 487.5,-235.5"/>
<text text-anchor="middle" x="557.5" y="-242.5" font-family="Helvetica,sans-Serif" font-size="10.00">bio/alphabet/concept.hpp</text>
</a>
</g>
</g>
<!-- Node2&#45;&gt;Node3 -->
<g id="edge2" class="edge">
<title>Node2&#45;&gt;Node3</title>
<path fill="none" stroke="midnightblue" d="M504.62,-291.32C514.03,-283.26 528.24,-271.08 539.57,-261.37"/>
<polygon fill="midnightblue" stroke="midnightblue" points="541.88,-264 547.19,-254.83 537.32,-258.68 541.88,-264"/>
</g>
<!-- Node4 -->
<g id="node4" class="node">
<title>Node4</title>
<g id="a_node4"><a target="_blank" xlink:href="https://en.cppreference.com/w/cpp/header/type_traits.html" xlink:title=" ">
<polygon fill="white" stroke="black" points="764,-112.5 764,-131.5 833,-131.5 833,-112.5 764,-112.5"/>
<text text-anchor="middle" x="798.5" y="-119.5" font-family="Helvetica,sans-Serif" font-size="10.00">type_traits</text>
</a>
</g>
</g>
<!-- Node3&#45;&gt;Node4 -->
<g id="edge3" class="edge">
<title>Node3&#45;&gt;Node4</title>
<path fill="none" stroke="midnightblue" d="M627.67,-237.3C682.93,-230.64 754.1,-218.55 775.5,-199 791.53,-184.36 796.54,-158.96 798.02,-141.59"/>
<polygon fill="midnightblue" stroke="midnightblue" points="801.52,-141.7 798.57,-131.53 794.53,-141.32 801.52,-141.7"/>
</g>
<!-- Node5 -->
<g id="node5" class="node">
<title>Node5</title>
<g id="a_node5"><a xlink:href="alphabet_2biocpp_8hpp.html" target="_top" xlink:title="Module header with module&#45;wide definitions.">
<polygon fill="white" stroke="black" points="335.5,-112.5 335.5,-131.5 469.5,-131.5 469.5,-112.5 335.5,-112.5"/>
<text text-anchor="middle" x="402.5" y="-119.5" font-family="Helvetica,sans-Serif" font-size="10.00">bio/alphabet/biocpp.hpp</text>
</a>
</g>
</g>
<!-- Node3&#45;&gt;Node5 -->
<g id="edge4" class="edge">
<title>Node3&#45;&gt;Node5</title>
<path fill="none" stroke="midnightblue" d="M487.41,-240.46C424.76,-235.66 339.66,-224.51 318.5,-199 309.71,-188.39 311.42,-179.82 318.5,-168 327.65,-152.72 343.96,-142.33 359.79,-135.43"/>
<polygon fill="midnightblue" stroke="midnightblue" points="361.51,-138.51 369.51,-131.56 358.93,-132 361.51,-138.51"/>
</g>
<!-- Node10 -->
<g id="node10" class="node">
<title>Node10</title>
<g id="a_node10"><a xlink:href="exception_8hpp.html" target="_top" xlink:title="Exceptions thrown by entities in the alphabet module.">
<polygon fill="white" stroke="black" points="328,-174 328,-193 477,-193 477,-174 328,-174"/>
<text text-anchor="middle" x="402.5" y="-181" font-family="Helvetica,sans-Serif" font-size="10.00">bio/alphabet/exception.hpp</text>
</a>
</g>
</g>
<!-- Node3&#45;&gt;Node10 -->
<g id="edge9" class="edge">
<title>Node3&#45;&gt;Node10</title>
<path fill="none" stroke="midnightblue" d="M535.29,-235.48C508.82,-225.31 464.39,-208.26 434.28,-196.7"/>
<polygon fill="midnightblue" stroke="midnightblue" points="435.26,-193.33 424.67,-193.01 432.75,-199.86 435.26,-193.33"/>
</g>
<!-- Node14 -->
<g id="node14" class="node">
<title>Node14</title>
<g id="a_node14"><a xlink:href="core__language_8hpp.html" target="_top" xlink:title="Provides concepts for core language types and relations that don&#39;t have concepts in C++20 (yet).">
<polygon fill="white" stroke="black" points="495,-168.5 495,-198.5 620,-198.5 620,-168.5 495,-168.5"/>
<text text-anchor="start" x="503" y="-186.5" font-family="Helvetica,sans-Serif" font-size="10.00">bio/meta/concept/core</text>
<text text-anchor="middle" x="557.5" y="-175.5" font-family="Helvetica,sans-Serif" font-size="10.00">_language.hpp</text>
</a>
</g>
</g>
<!-- Node3&#45;&gt;Node14 -->
<g id="edge14" class="edge">
<title>Node3&#45;&gt;Node14</title>
<path fill="none" stroke="midnightblue" d="M557.5,-235.48C557.5,-228.47 557.5,-218.19 557.5,-208.7"/>
<polygon fill="midnightblue" stroke="midnightblue" points="561,-208.52 557.5,-198.52 554,-208.52 561,-208.52"/>
</g>
<!-- Node15 -->
<g id="node15" class="node">
<title>Node15</title>
<g id="a_node15"><a xlink:href="priority__tag_8hpp.html" target="_top" xlink:title="provides bio::meta::detail::priority_tag.">
<polygon fill="white" stroke="black" points="638,-168.5 638,-198.5 767,-198.5 767,-168.5 638,-168.5"/>
<text text-anchor="start" x="646" y="-186.5" font-family="Helvetica,sans-Serif" font-size="10.00">bio/meta/detail/priority</text>
<text text-anchor="middle" x="702.5" y="-175.5" font-family="Helvetica,sans-Serif" font-size="10.00">_tag.hpp</text>
</a>
</g>
</g>
<!-- Node3&#45;&gt;Node15 -->
<g id="edge18" class="edge">
<title>Node3&#45;&gt;Node15</title>
<path fill="none" stroke="midnightblue" d="M578.27,-235.48C599.2,-226.89 632.11,-213.38 658.81,-202.43"/>
<polygon fill="midnightblue" stroke="midnightblue" points="660.4,-205.56 668.33,-198.52 657.75,-199.08 660.4,-205.56"/>
</g>
<!-- Node16 -->
<g id="node16" class="node">
<title>Node16</title>
<g id="a_node16"><a xlink:href="type__inspection_8hpp.html" target="_top" xlink:title="Provides traits to inspect some information of a type, for example its name.">
<polygon fill="white" stroke="black" points="143.5,-168.5 143.5,-198.5 259.5,-198.5 259.5,-168.5 143.5,-168.5"/>
<text text-anchor="start" x="151.5" y="-186.5" font-family="Helvetica,sans-Serif" font-size="10.00">bio/meta/detail/type</text>
<text text-anchor="middle" x="201.5" y="-175.5" font-family="Helvetica,sans-Serif" font-size="10.00">_inspection.hpp</text>
</a>
</g>
</g>
<!-- Node3&#45;&gt;Node16 -->
<g id="edge20" class="edge">
<title>Node3&#45;&gt;Node16</title>
<path fill="none" stroke="midnightblue" d="M505.79,-235.48C451.25,-226.48 362.81,-211.84 286.5,-199 281.06,-198.08 275.42,-197.13 269.75,-196.17"/>
<polygon fill="midnightblue" stroke="midnightblue" points="270.01,-192.66 259.56,-194.44 268.84,-199.56 270.01,-192.66"/>
</g>
<!-- Node20 -->
<g id="node20" class="node">
<title>Node20</title>
<g id="a_node20"><a xlink:href="basic_8hpp.html" target="_top" xlink:title="Provides various type traits on generic types.">
<polygon fill="white" stroke="black" points="861.5,-168.5 861.5,-198.5 977.5,-198.5 977.5,-168.5 861.5,-168.5"/>
<text text-anchor="start" x="869.5" y="-186.5" font-family="Helvetica,sans-Serif" font-size="10.00">bio/meta/type_traits</text>
<text text-anchor="middle" x="919.5" y="-175.5" font-family="Helvetica,sans-Serif" font-size="10.00">/basic.hpp</text>
</a>
</g>
</g>
<!-- Node3&#45;&gt;Node20 -->
<g id="edge26" class="edge">
<title>Node3&#45;&gt;Node20</title>
<path fill="none" stroke="midnightblue" d="M609.37,-235.48C673,-225.02 781.07,-207.25 851.35,-195.7"/>
<polygon fill="midnightblue" stroke="midnightblue" points="852.14,-199.12 861.44,-194.04 851.01,-192.21 852.14,-199.12"/>
</g>
<!-- Node6 -->
<g id="node6" class="node">
<title>Node6</title>
<g id="a_node6"><a xlink:href="platform_8hpp.html" target="_top" xlink:title="Provides platform and dependency checks.">
<polygon fill="white" stroke="black" points="617.5,-56.5 617.5,-75.5 743.5,-75.5 743.5,-56.5 617.5,-56.5"/>
<text text-anchor="middle" x="680.5" y="-63.5" font-family="Helvetica,sans-Serif" font-size="10.00">bio/meta/platform.hpp</text>
</a>
</g>
</g>
<!-- Node5&#45;&gt;Node6 -->
<g id="edge5" class="edge">
<title>Node5&#45;&gt;Node6</title>
<path fill="none" stroke="midnightblue" d="M446.55,-112.44C495.35,-102.96 574.06,-87.67 626.53,-77.48"/>
<polygon fill="midnightblue" stroke="midnightblue" points="627.51,-80.86 636.66,-75.52 626.17,-73.99 627.51,-80.86"/>
</g>
<!-- Node7 -->
<g id="node7" class="node">
<title>Node7</title>
<g id="a_node7"><a target="_blank" xlink:href="https://en.cppreference.com/w/cpp/header/cinttypes.html" xlink:title=" ">
<polygon fill="white" stroke="black" points="573.5,-0.5 573.5,-19.5 635.5,-19.5 635.5,-0.5 573.5,-0.5"/>
<text text-anchor="middle" x="604.5" y="-7.5" font-family="Helvetica,sans-Serif" font-size="10.00">cinttypes</text>
</a>
</g>
</g>
<!-- Node6&#45;&gt;Node7 -->
<g id="edge6" class="edge">
<title>Node6&#45;&gt;Node7</title>
<path fill="none" stroke="midnightblue" d="M668.29,-56.32C656.72,-48.11 639.12,-35.6 625.34,-25.81"/>
<polygon fill="midnightblue" stroke="midnightblue" points="627.11,-22.77 616.93,-19.83 623.06,-28.48 627.11,-22.77"/>
</g>
<!-- Node8 -->
<g id="node8" class="node">
<title>Node8</title>
<g id="a_node8"><a target="_blank" xlink:href="https://en.cppreference.com/w/cpp/header/ciso646.html" xlink:title=" ">
<polygon fill="white" stroke="black" points="653.5,-0.5 653.5,-19.5 707.5,-19.5 707.5,-0.5 653.5,-0.5"/>
<text text-anchor="middle" x="680.5" y="-7.5" font-family="Helvetica,sans-Serif" font-size="10.00">ciso646</text>
</a>
</g>
</g>
<!-- Node6&#45;&gt;Node8 -->
<g id="edge7" class="edge">
<title>Node6&#45;&gt;Node8</title>
<path fill="none" stroke="midnightblue" d="M680.5,-56.08C680.5,-49.01 680.5,-38.86 680.5,-29.99"/>
<polygon fill="midnightblue" stroke="midnightblue" points="684,-29.75 680.5,-19.75 677,-29.75 684,-29.75"/>
</g>
<!-- Node9 -->
<g id="node9" class="node">
<title>Node9</title>
<g id="a_node9"><a target="_blank" xlink:href="https://en.cppreference.com/w/cpp/header/cstddef.html" xlink:title=" ">
<polygon fill="white" stroke="black" points="726,-0.5 726,-19.5 779,-19.5 779,-0.5 726,-0.5"/>
<text text-anchor="middle" x="752.5" y="-7.5" font-family="Helvetica,sans-Serif" font-size="10.00">cstddef</text>
</a>
</g>
</g>
<!-- Node6&#45;&gt;Node9 -->
<g id="edge8" class="edge">
<title>Node6&#45;&gt;Node9</title>
<path fill="none" stroke="midnightblue" d="M692.07,-56.32C702.92,-48.18 719.38,-35.84 732.38,-26.09"/>
<polygon fill="midnightblue" stroke="midnightblue" points="734.82,-28.63 740.72,-19.83 730.62,-23.03 734.82,-28.63"/>
</g>
<!-- Node10&#45;&gt;Node5 -->
<g id="edge13" class="edge">
<title>Node10&#45;&gt;Node5</title>
<path fill="none" stroke="midnightblue" d="M402.5,-173.98C402.5,-165.58 402.5,-152.48 402.5,-141.66"/>
<polygon fill="midnightblue" stroke="midnightblue" points="406,-141.51 402.5,-131.51 399,-141.51 406,-141.51"/>
</g>
<!-- Node11 -->
<g id="node11" class="node">
<title>Node11</title>
<g id="a_node11"><a target="_blank" xlink:href="https://en.cppreference.com/w/cpp/header/concepts.html" xlink:title=" ">
<polygon fill="white" stroke="black" points="571.5,-112.5 571.5,-131.5 631.5,-131.5 631.5,-112.5 571.5,-112.5"/>
<text text-anchor="middle" x="601.5" y="-119.5" font-family="Helvetica,sans-Serif" font-size="10.00">concepts</text>
</a>
</g>
</g>
<!-- Node10&#45;&gt;Node11 -->
<g id="edge10" class="edge">
<title>Node10&#45;&gt;Node11</title>
<path fill="none" stroke="midnightblue" d="M431.01,-173.98C465.74,-163.59 524.54,-146.01 563.19,-134.45"/>
<polygon fill="midnightblue" stroke="midnightblue" points="564.46,-137.73 573.04,-131.51 562.46,-131.02 564.46,-137.73"/>
</g>
<!-- Node12 -->
<g id="node12" class="node">
<title>Node12</title>
<g id="a_node12"><a target="_blank" xlink:href="https://en.cppreference.com/w/cpp/header/stdexcept.html" xlink:title=" ">
<polygon fill="white" stroke="black" points="488,-112.5 488,-131.5 553,-131.5 553,-112.5 488,-112.5"/>
<text text-anchor="middle" x="520.5" y="-119.5" font-family="Helvetica,sans-Serif" font-size="10.00">stdexcept</text>
</a>
</g>
</g>
<!-- Node10&#45;&gt;Node12 -->
<g id="edge11" class="edge">
<title>Node10&#45;&gt;Node12</title>
<path fill="none" stroke="midnightblue" d="M419.41,-173.98C439.03,-164.08 471.63,-147.64 494.49,-136.12"/>
<polygon fill="midnightblue" stroke="midnightblue" points="496.27,-139.14 503.62,-131.51 493.12,-132.89 496.27,-139.14"/>
</g>
<!-- Node13 -->
<g id="node13" class="node">
<title>Node13</title>
<g id="a_node13"><a target="_blank" xlink:href="https://en.cppreference.com/w/cpp/header/string.html" xlink:title=" ">
<polygon fill="white" stroke="black" points="273.5,-112.5 273.5,-131.5 317.5,-131.5 317.5,-112.5 273.5,-112.5"/>
<text text-anchor="middle" x="295.5" y="-119.5" font-family="Helvetica,sans-Serif" font-size="10.00">string</text>
</a>
</g>
</g>
<!-- Node10&#45;&gt;Node13 -->
<g id="edge12" class="edge">
<title>Node10&#45;&gt;Node13</title>
<path fill="none" stroke="midnightblue" d="M387.17,-173.98C369.53,-164.17 340.34,-147.93 319.64,-136.42"/>
<polygon fill="midnightblue" stroke="midnightblue" points="321.24,-133.31 310.8,-131.51 317.84,-139.43 321.24,-133.31"/>
</g>
<!-- Node14&#45;&gt;Node4 -->
<g id="edge15" class="edge">
<title>Node14&#45;&gt;Node4</title>
<path fill="none" stroke="midnightblue" d="M614.31,-168.47C657.07,-157.92 714.84,-143.66 754.21,-133.94"/>
<polygon fill="midnightblue" stroke="midnightblue" points="755.18,-137.3 764.05,-131.51 753.5,-130.51 755.18,-137.3"/>
</g>
<!-- Node14&#45;&gt;Node6 -->
<g id="edge16" class="edge">
<title>Node14&#45;&gt;Node6</title>
<path fill="none" stroke="midnightblue" d="M587.92,-168.46C604.77,-159.66 625.31,-147.11 640.5,-132 654.26,-118.31 665.36,-99.01 672.35,-85"/>
<polygon fill="midnightblue" stroke="midnightblue" points="675.55,-86.42 676.69,-75.89 669.23,-83.41 675.55,-86.42"/>
</g>
<!-- Node14&#45;&gt;Node11 -->
<g id="edge17" class="edge">
<title>Node14&#45;&gt;Node11</title>
<path fill="none" stroke="midnightblue" d="M567.93,-168.4C574.26,-159.84 582.37,-148.87 589.03,-139.86"/>
<polygon fill="midnightblue" stroke="midnightblue" points="591.97,-141.78 595.1,-131.66 586.34,-137.62 591.97,-141.78"/>
</g>
<!-- Node15&#45;&gt;Node6 -->
<g id="edge19" class="edge">
<title>Node15&#45;&gt;Node6</title>
<path fill="none" stroke="midnightblue" d="M699.8,-168.34C695.84,-147.53 688.44,-108.66 684.04,-85.58"/>
<polygon fill="midnightblue" stroke="midnightblue" points="687.46,-84.84 682.15,-75.67 680.58,-86.15 687.46,-84.84"/>
</g>
<!-- Node16&#45;&gt;Node6 -->
<g id="edge25" class="edge">
<title>Node16&#45;&gt;Node6</title>
<path fill="none" stroke="midnightblue" d="M209.65,-168.29C220.04,-151.66 239.68,-124.75 264.5,-112 322.58,-82.16 504.21,-72.04 607.25,-68.66"/>
<polygon fill="midnightblue" stroke="midnightblue" points="607.39,-72.15 617.27,-68.34 607.17,-65.16 607.39,-72.15"/>
</g>
<!-- Node16&#45;&gt;Node13 -->
<g id="edge23" class="edge">
<title>Node16&#45;&gt;Node13</title>
<path fill="none" stroke="midnightblue" d="M223.78,-168.4C238.7,-158.95 258.28,-146.56 273.21,-137.11"/>
<polygon fill="midnightblue" stroke="midnightblue" points="275.24,-139.96 281.82,-131.66 271.5,-134.05 275.24,-139.96"/>
</g>
<!-- Node17 -->
<g id="node17" class="node">
<title>Node17</title>
<g id="a_node17"><a target="_blank" xlink:href="https://en.cppreference.com/w/cpp/header/functional.html" xlink:title=" ">
<polygon fill="white" stroke="black" points="0,-112.5 0,-131.5 65,-131.5 65,-112.5 0,-112.5"/>
<text text-anchor="middle" x="32.5" y="-119.5" font-family="Helvetica,sans-Serif" font-size="10.00">functional</text>
</a>
</g>
</g>
<!-- Node16&#45;&gt;Node17 -->
<g id="edge21" class="edge">
<title>Node16&#45;&gt;Node17</title>
<path fill="none" stroke="midnightblue" d="M161.45,-168.4C132.59,-158.24 94.05,-144.67 66.65,-135.02"/>
<polygon fill="midnightblue" stroke="midnightblue" points="67.69,-131.68 57.09,-131.66 65.36,-138.28 67.69,-131.68"/>
</g>
<!-- Node18 -->
<g id="node18" class="node">
<title>Node18</title>
<g id="a_node18"><a target="_blank" xlink:href="https://en.cppreference.com/w/cpp/header/memory.html" xlink:title=" ">
<polygon fill="white" stroke="black" points="83.5,-112.5 83.5,-131.5 141.5,-131.5 141.5,-112.5 83.5,-112.5"/>
<text text-anchor="middle" x="112.5" y="-119.5" font-family="Helvetica,sans-Serif" font-size="10.00">memory</text>
</a>
</g>
</g>
<!-- Node16&#45;&gt;Node18 -->
<g id="edge22" class="edge">
<title>Node16&#45;&gt;Node18</title>
<path fill="none" stroke="midnightblue" d="M180.41,-168.4C166.41,-159.04 148.09,-146.79 134.01,-137.38"/>
<polygon fill="midnightblue" stroke="midnightblue" points="135.71,-134.31 125.45,-131.66 131.82,-140.13 135.71,-134.31"/>
</g>
<!-- Node19 -->
<g id="node19" class="node">
<title>Node19</title>
<g id="a_node19"><a target="_blank" xlink:href="https://en.cppreference.com/w/cpp/header/typeinfo.html" xlink:title=" ">
<polygon fill="white" stroke="black" points="160,-112.5 160,-131.5 217,-131.5 217,-112.5 160,-112.5"/>
<text text-anchor="middle" x="188.5" y="-119.5" font-family="Helvetica,sans-Serif" font-size="10.00">typeinfo</text>
</a>
</g>
</g>
<!-- Node16&#45;&gt;Node19 -->
<g id="edge24" class="edge">
<title>Node16&#45;&gt;Node19</title>
<path fill="none" stroke="midnightblue" d="M198.42,-168.4C196.67,-160.38 194.45,-150.23 192.56,-141.57"/>
<polygon fill="midnightblue" stroke="midnightblue" points="195.95,-140.68 190.39,-131.66 189.11,-142.17 195.95,-140.68"/>
</g>
<!-- Node20&#45;&gt;Node4 -->
<g id="edge28" class="edge">
<title>Node20&#45;&gt;Node4</title>
<path fill="none" stroke="midnightblue" d="M890.82,-168.4C870.98,-158.64 844.74,-145.74 825.31,-136.18"/>
<polygon fill="midnightblue" stroke="midnightblue" points="826.62,-132.93 816.11,-131.66 823.54,-139.21 826.62,-132.93"/>
</g>
<!-- Node20&#45;&gt;Node6 -->
<g id="edge29" class="edge">
<title>Node20&#45;&gt;Node6</title>
<path fill="none" stroke="midnightblue" d="M907.71,-168.48C893.56,-152.54 868.36,-126.8 841.5,-112 811.47,-95.45 774.87,-84.59 744.16,-77.69"/>
<polygon fill="midnightblue" stroke="midnightblue" points="744.5,-74.19 733.98,-75.51 743.02,-81.03 744.5,-74.19"/>
</g>
<!-- Node21 -->
<g id="node21" class="node">
<title>Node21</title>
<g id="a_node21"><a target="_blank" xlink:href="https://en.cppreference.com/w/cpp/header/tuple.html" xlink:title=" ">
<polygon fill="white" stroke="black" points="899,-112.5 899,-131.5 940,-131.5 940,-112.5 899,-112.5"/>
<text text-anchor="middle" x="919.5" y="-119.5" font-family="Helvetica,sans-Serif" font-size="10.00">tuple</text>
</a>
</g>
</g>
<!-- Node20&#45;&gt;Node21 -->
<g id="edge27" class="edge">
<title>Node20&#45;&gt;Node21</title>
<path fill="none" stroke="midnightblue" d="M919.5,-168.4C919.5,-160.47 919.5,-150.46 919.5,-141.86"/>
<polygon fill="midnightblue" stroke="midnightblue" points="923,-141.66 919.5,-131.66 916,-141.66 923,-141.66"/>
</g>
<!-- Node22&#45;&gt;Node3 -->
<g id="edge32" class="edge">
<title>Node22&#45;&gt;Node3</title>
<path fill="none" stroke="midnightblue" d="M627.16,-291.32C614.34,-282.98 594.72,-270.21 579.56,-260.35"/>
<polygon fill="midnightblue" stroke="midnightblue" points="581.09,-257.17 570.8,-254.65 577.28,-263.04 581.09,-257.17"/>
</g>
<!-- Node22&#45;&gt;Node23 -->
<g id="edge31" class="edge">
<title>Node22&#45;&gt;Node23</title>
<path fill="none" stroke="midnightblue" d="M651.43,-291.32C661.67,-283.18 677.22,-270.84 689.5,-261.09"/>
<polygon fill="midnightblue" stroke="midnightblue" points="691.72,-263.79 697.38,-254.83 687.37,-258.31 691.72,-263.79"/>
</g>
<!-- Node24&#45;&gt;Node4 -->
<g id="edge36" class="edge">
<title>Node24&#45;&gt;Node4</title>
<path fill="none" stroke="midnightblue" d="M831.81,-291.46C826.47,-264.43 809.82,-180.24 802.28,-142.11"/>
<polygon fill="midnightblue" stroke="midnightblue" points="805.63,-141 800.25,-131.87 798.76,-142.36 805.63,-141"/>
</g>
<!-- Node24&#45;&gt;Node20 -->
<g id="edge37" class="edge">
<title>Node24&#45;&gt;Node20</title>
<path fill="none" stroke="midnightblue" d="M839.96,-291.32C853.23,-273.5 883.89,-232.32 903.03,-206.61"/>
<polygon fill="midnightblue" stroke="midnightblue" points="905.88,-208.66 909.04,-198.55 900.26,-204.48 905.88,-208.66"/>
</g>
<!-- Node24&#45;&gt;Node23 -->
<g id="edge35" class="edge">
<title>Node24&#45;&gt;Node23</title>
<path fill="none" stroke="midnightblue" d="M813.69,-291.44C793.21,-282.6 761.02,-268.69 737.64,-258.59"/>
<polygon fill="midnightblue" stroke="midnightblue" points="738.78,-255.27 728.21,-254.52 736.01,-261.7 738.78,-255.27"/>
</g>
<!-- Node25 -->
<g id="node25" class="node">
<title>Node25</title>
<g id="a_node25"><a target="_blank" xlink:href="https://en.cppreference.com/w/cpp/header/iterator.html" xlink:title=" ">
<polygon fill="white" stroke="black" points="752,-235.5 752,-254.5 805,-254.5 805,-235.5 752,-235.5"/>
<text text-anchor="middle" x="778.5" y="-242.5" font-family="Helvetica,sans-Serif" font-size="10.00">iterator</text>
</a>
</g>
</g>
<!-- Node24&#45;&gt;Node25 -->
<g id="edge34" class="edge">
<title>Node24&#45;&gt;Node25</title>
<path fill="none" stroke="midnightblue" d="M824.42,-291.08C816.33,-283.14 804.3,-271.34 794.59,-261.8"/>
<polygon fill="midnightblue" stroke="midnightblue" points="797,-259.26 787.41,-254.75 792.1,-264.25 797,-259.26"/>
</g>
<!-- Node26 -->
<g id="node26" class="node">
<title>Node26</title>
<g id="a_node26"><a xlink:href="ranges_2biocpp_8hpp.html" target="_top" xlink:title="Module header with module&#45;wide definitions.">
<polygon fill="white" stroke="black" points="932.5,-235.5 932.5,-254.5 1056.5,-254.5 1056.5,-235.5 932.5,-235.5"/>
<text text-anchor="middle" x="994.5" y="-242.5" font-family="Helvetica,sans-Serif" font-size="10.00">bio/ranges/biocpp.hpp</text>
</a>
</g>
</g>
<!-- Node24&#45;&gt;Node26 -->
<g id="edge38" class="edge">
<title>Node24&#45;&gt;Node26</title>
<path fill="none" stroke="midnightblue" d="M859.01,-291.44C886.1,-282.36 929.09,-267.94 959.37,-257.78"/>
<polygon fill="midnightblue" stroke="midnightblue" points="960.74,-261.01 969.11,-254.52 958.51,-254.38 960.74,-261.01"/>
</g>
<!-- Node26&#45;&gt;Node6 -->
<g id="edge39" class="edge">
<title>Node26&#45;&gt;Node6</title>
<path fill="none" stroke="midnightblue" d="M994.93,-235.26C995.36,-220.79 994.97,-191.18 986.5,-168 976.17,-139.75 973.82,-128.24 948.5,-112 917.06,-91.82 821.95,-79.39 753.99,-72.84"/>
<polygon fill="midnightblue" stroke="midnightblue" points="754.03,-69.33 743.74,-71.88 753.37,-76.3 754.03,-69.33"/>
</g>
</g>
</svg>
