<?xml version="1.0" encoding="UTF-8" standalone="no"?>
<!DOCTYPE svg PUBLIC "-//W3C//DTD SVG 1.1//EN"
 "http://www.w3.org/Graphics/SVG/1.1/DTD/svg11.dtd">
<!-- Generated by graphviz version 2.43.0 (0)
 -->
<!-- Title: bio/ranges/views/convert.hpp Pages: 1 -->
<svg width="345pt" height="207pt"
 viewBox="0.00 0.00 344.50 207.00" xmlns="http://www.w3.org/2000/svg" xmlns:xlink="http://www.w3.org/1999/xlink">
<g id="graph0" class="graph" transform="scale(1 1) rotate(0) translate(4 203)">
<title>bio/ranges/views/convert.hpp</title>
<polygon fill="white" stroke="transparent" points="-4,4 -4,-203 340.5,-203 340.5,4 -4,4"/>
<!-- Node1 -->
<g id="node1" class="node">
<title>Node1</title>
<g id="a_node1"><a xlink:title="Provides bio::views::convert.">
<polygon fill="#bfbfbf" stroke="black" points="176.5,-179.5 176.5,-198.5 336.5,-198.5 336.5,-179.5 176.5,-179.5"/>
<text text-anchor="middle" x="256.5" y="-186.5" font-family="Helvetica,sans-Serif" font-size="10.00">bio/ranges/views/convert.hpp</text>
</a>
</g>
</g>
<!-- Node2 -->
<g id="node2" class="node">
<title>Node2</title>
<g id="a_node2"><a xlink:href="core__language_8hpp.html" target="_top" xlink:title="Provides concepts for core language types and relations that don&#39;t have concepts in C++20 (yet).">
<polygon fill="white" stroke="black" points="98,-112.5 98,-142.5 223,-142.5 223,-112.5 98,-112.5"/>
<text text-anchor="start" x="106" y="-130.5" font-family="Helvetica,sans-Serif" font-size="10.00">bio/meta/concept/core</text>
<text text-anchor="middle" x="160.5" y="-119.5" font-family="Helvetica,sans-Serif" font-size="10.00">_language.hpp</text>
</a>
</g>
</g>
<!-- Node1&#45;&gt;Node2 -->
<g id="edge1" class="edge">
<title>Node1&#45;&gt;Node2</title>
<path fill="none" stroke="midnightblue" d="M242.75,-179.48C229.5,-171.27 209,-158.56 191.78,-147.88"/>
<polygon fill="midnightblue" stroke="midnightblue" points="193.47,-144.82 183.13,-142.52 189.78,-150.77 193.47,-144.82"/>
</g>
<!-- Node8 -->
<g id="node8" class="node">
<title>Node8</title>
<g id="a_node8"><a target="_blank" xlink:href="https://en.cppreference.com/w/cpp/header/concepts.html" xlink:title=" ">
<polygon fill="white" stroke="black" points="231.5,-56.5 231.5,-75.5 291.5,-75.5 291.5,-56.5 231.5,-56.5"/>
<text text-anchor="middle" x="261.5" y="-63.5" font-family="Helvetica,sans-Serif" font-size="10.00">concepts</text>
</a>
</g>
</g>
<!-- Node1&#45;&gt;Node8 -->
<g id="edge8" class="edge">
<title>Node1&#45;&gt;Node8</title>
<path fill="none" stroke="midnightblue" d="M256.86,-179.3C257.66,-159.85 259.62,-112.49 260.72,-85.9"/>
<polygon fill="midnightblue" stroke="midnightblue" points="264.23,-85.76 261.14,-75.62 257.23,-85.47 264.23,-85.76"/>
</g>
<!-- Node9 -->
<g id="node9" class="node">
<title>Node9</title>
<g id="a_node9"><a target="_blank" xlink:href="https://en.cppreference.com/w/cpp/header/ranges.html" xlink:title=" ">
<polygon fill="white" stroke="black" points="284.5,-118 284.5,-137 334.5,-137 334.5,-118 284.5,-118"/>
<text text-anchor="middle" x="309.5" y="-125" font-family="Helvetica,sans-Serif" font-size="10.00">ranges</text>
</a>
</g>
</g>
<!-- Node1&#45;&gt;Node9 -->
<g id="edge9" class="edge">
<title>Node1&#45;&gt;Node9</title>
<path fill="none" stroke="midnightblue" d="M264.09,-179.48C272.2,-170.37 285.23,-155.74 295.26,-144.48"/>
<polygon fill="midnightblue" stroke="midnightblue" points="297.88,-146.8 301.92,-137.01 292.66,-142.15 297.88,-146.8"/>
</g>
<!-- Node3 -->
<g id="node3" class="node">
<title>Node3</title>
<g id="a_node3"><a target="_blank" xlink:href="https://en.cppreference.com/w/cpp/header/type_traits.html" xlink:title=" ">
<polygon fill="white" stroke="black" points="0,-56.5 0,-75.5 69,-75.5 69,-56.5 0,-56.5"/>
<text text-anchor="middle" x="34.5" y="-63.5" font-family="Helvetica,sans-Serif" font-size="10.00">type_traits</text>
</a>
</g>
</g>
<!-- Node2&#45;&gt;Node3 -->
<g id="edge2" class="edge">
<title>Node2&#45;&gt;Node3</title>
<path fill="none" stroke="midnightblue" d="M130.64,-112.4C109.88,-102.59 82.4,-89.62 62.14,-80.05"/>
<polygon fill="midnightblue" stroke="midnightblue" points="63.37,-76.76 52.83,-75.66 60.38,-83.09 63.37,-76.76"/>
</g>
<!-- Node4 -->
<g id="node4" class="node">
<title>Node4</title>
<g id="a_node4"><a xlink:href="platform_8hpp.html" target="_top" xlink:title="Provides platform and dependency checks.">
<polygon fill="white" stroke="black" points="87.5,-56.5 87.5,-75.5 213.5,-75.5 213.5,-56.5 87.5,-56.5"/>
<text text-anchor="middle" x="150.5" y="-63.5" font-family="Helvetica,sans-Serif" font-size="10.00">bio/meta/platform.hpp</text>
</a>
</g>
</g>
<!-- Node2&#45;&gt;Node4 -->
<g id="edge3" class="edge">
<title>Node2&#45;&gt;Node4</title>
<path fill="none" stroke="midnightblue" d="M158.13,-112.4C156.78,-104.38 155.08,-94.23 153.62,-85.57"/>
<polygon fill="midnightblue" stroke="midnightblue" points="157.06,-84.94 151.96,-75.66 150.16,-86.1 157.06,-84.94"/>
</g>
<!-- Node2&#45;&gt;Node8 -->
<g id="edge7" class="edge">
<title>Node2&#45;&gt;Node8</title>
<path fill="none" stroke="midnightblue" d="M184.44,-112.4C200.63,-102.86 221.91,-90.32 238,-80.84"/>
<polygon fill="midnightblue" stroke="midnightblue" points="239.96,-83.75 246.8,-75.66 236.41,-77.72 239.96,-83.75"/>
</g>
<!-- Node5 -->
<g id="node5" class="node">
<title>Node5</title>
<g id="a_node5"><a target="_blank" xlink:href="https://en.cppreference.com/w/cpp/header/cinttypes.html" xlink:title=" ">
<polygon fill="white" stroke="black" points="43.5,-0.5 43.5,-19.5 105.5,-19.5 105.5,-0.5 43.5,-0.5"/>
<text text-anchor="middle" x="74.5" y="-7.5" font-family="Helvetica,sans-Serif" font-size="10.00">cinttypes</text>
</a>
</g>
</g>
<!-- Node4&#45;&gt;Node5 -->
<g id="edge4" class="edge">
<title>Node4&#45;&gt;Node5</title>
<path fill="none" stroke="midnightblue" d="M138.29,-56.32C126.72,-48.11 109.12,-35.6 95.34,-25.81"/>
<polygon fill="midnightblue" stroke="midnightblue" points="97.11,-22.77 86.93,-19.83 93.06,-28.48 97.11,-22.77"/>
</g>
<!-- Node6 -->
<g id="node6" class="node">
<title>Node6</title>
<g id="a_node6"><a target="_blank" xlink:href="https://en.cppreference.com/w/cpp/header/ciso646.html" xlink:title=" ">
<polygon fill="white" stroke="black" points="123.5,-0.5 123.5,-19.5 177.5,-19.5 177.5,-0.5 123.5,-0.5"/>
<text text-anchor="middle" x="150.5" y="-7.5" font-family="Helvetica,sans-Serif" font-size="10.00">ciso646</text>
</a>
</g>
</g>
<!-- Node4&#45;&gt;Node6 -->
<g id="edge5" class="edge">
<title>Node4&#45;&gt;Node6</title>
<path fill="none" stroke="midnightblue" d="M150.5,-56.08C150.5,-49.01 150.5,-38.86 150.5,-29.99"/>
<polygon fill="midnightblue" stroke="midnightblue" points="154,-29.75 150.5,-19.75 147,-29.75 154,-29.75"/>
</g>
<!-- Node7 -->
<g id="node7" class="node">
<title>Node7</title>
<g id="a_node7"><a target="_blank" xlink:href="https://en.cppreference.com/w/cpp/header/cstddef.html" xlink:title=" ">
<polygon fill="white" stroke="black" points="196,-0.5 196,-19.5 249,-19.5 249,-0.5 196,-0.5"/>
<text text-anchor="middle" x="222.5" y="-7.5" font-family="Helvetica,sans-Serif" font-size="10.00">cstddef</text>
</a>
</g>
</g>
<!-- Node4&#45;&gt;Node7 -->
<g id="edge6" class="edge">
<title>Node4&#45;&gt;Node7</title>
<path fill="none" stroke="midnightblue" d="M162.07,-56.32C172.92,-48.18 189.38,-35.84 202.38,-26.09"/>
<polygon fill="midnightblue" stroke="midnightblue" points="204.82,-28.63 210.72,-19.83 200.62,-23.03 204.82,-28.63"/>
</g>
</g>
</svg>
