<?xml version="1.0" encoding="UTF-8" standalone="no"?>
<!DOCTYPE svg PUBLIC "-//W3C//DTD SVG 1.1//EN"
 "http://www.w3.org/Graphics/SVG/1.1/DTD/svg11.dtd">
<!-- Generated by graphviz version 2.42.2 ()
 -->
<!-- Title: bio/ranges/views/detail.hpp Pages: 1 -->
<svg width="430pt" height="263pt"
 viewBox="0.00 0.00 430.00 263.00" xmlns="http://www.w3.org/2000/svg" xmlns:xlink="http://www.w3.org/1999/xlink">
<g id="graph0" class="graph" transform="scale(1 1) rotate(0) translate(4 259)">
<title>bio/ranges/views/detail.hpp</title>
<polygon fill="white" stroke="transparent" points="-4,4 -4,-259 426,-259 426,4 -4,4"/>
<!-- Node1 -->
<g id="node1" class="node">
<title>Node1</title>
<g id="a_node1"><a xlink:title=" ">
<polygon fill="#bfbfbf" stroke="black" points="0,-235.5 0,-254.5 135,-254.5 135,-235.5 0,-235.5"/>
<text text-anchor="middle" x="67.5" y="-242.5" font-family="Helvetica,sans-Serif" font-size="10.00">bio/ranges/views/detail.hpp</text>
</a>
</g>
</g>
<!-- Node2 -->
<g id="node2" class="node">
<title>Node2</title>
<g id="a_node2"><a target="_blank" xlink:href="https://en.cppreference.com/w/cpp/header/ranges.html" xlink:title=" ">
<polygon fill="white" stroke="black" points="20.5,-118 20.5,-137 66.5,-137 66.5,-118 20.5,-118"/>
<text text-anchor="middle" x="43.5" y="-125" font-family="Helvetica,sans-Serif" font-size="10.00">ranges</text>
</a>
</g>
</g>
<!-- Node1&#45;&gt;Node2 -->
<g id="edge1" class="edge">
<title>Node1&#45;&gt;Node2</title>
<path fill="none" stroke="midnightblue" d="M65.7,-235.32C61.82,-216.67 52.63,-172.44 47.37,-147.13"/>
<polygon fill="midnightblue" stroke="midnightblue" points="50.79,-146.36 45.32,-137.28 43.93,-147.78 50.79,-146.36"/>
</g>
<!-- Node3 -->
<g id="node3" class="node">
<title>Node3</title>
<g id="a_node3"><a target="_blank" xlink:href="https://en.cppreference.com/w/cpp/header/tuple.html" xlink:title=" ">
<polygon fill="white" stroke="black" points="26.5,-56.5 26.5,-75.5 64.5,-75.5 64.5,-56.5 26.5,-56.5"/>
<text text-anchor="middle" x="45.5" y="-63.5" font-family="Helvetica,sans-Serif" font-size="10.00">tuple</text>
</a>
</g>
</g>
<!-- Node1&#45;&gt;Node3 -->
<g id="edge2" class="edge">
<title>Node1&#45;&gt;Node3</title>
<path fill="none" stroke="midnightblue" d="M60.76,-235.47C48.1,-218.84 21.19,-180.46 11.5,-143 8.05,-129.66 7.12,-125.06 11.5,-112 15.1,-101.25 22.4,-91.02 29.32,-83.04"/>
<polygon fill="midnightblue" stroke="midnightblue" points="31.98,-85.32 36.21,-75.61 26.85,-80.56 31.98,-85.32"/>
</g>
<!-- Node4 -->
<g id="node4" class="node">
<title>Node4</title>
<g id="a_node4"><a xlink:href="basic_8hpp.html" target="_top" xlink:title="Provides various type traits on generic types.">
<polygon fill="white" stroke="black" points="85,-112.5 85,-142.5 188,-142.5 188,-112.5 85,-112.5"/>
<text text-anchor="start" x="93" y="-130.5" font-family="Helvetica,sans-Serif" font-size="10.00">bio/meta/type_traits</text>
<text text-anchor="middle" x="136.5" y="-119.5" font-family="Helvetica,sans-Serif" font-size="10.00">/basic.hpp</text>
</a>
</g>
</g>
<!-- Node1&#45;&gt;Node4 -->
<g id="edge3" class="edge">
<title>Node1&#45;&gt;Node4</title>
<path fill="none" stroke="midnightblue" d="M72.69,-235.32C83.24,-217.66 107.5,-177.04 122.89,-151.29"/>
<polygon fill="midnightblue" stroke="midnightblue" points="125.99,-152.93 128.11,-142.55 119.98,-149.34 125.99,-152.93"/>
</g>
<!-- Node10 -->
<g id="node10" class="node">
<title>Node10</title>
<g id="a_node10"><a xlink:href="type__traits_8hpp.html" target="_top" xlink:title="Provides various transformation traits used by the range module.">
<polygon fill="white" stroke="black" points="146,-179.5 146,-198.5 275,-198.5 275,-179.5 146,-179.5"/>
<text text-anchor="middle" x="210.5" y="-186.5" font-family="Helvetica,sans-Serif" font-size="10.00">bio/ranges/type_traits.hpp</text>
</a>
</g>
</g>
<!-- Node1&#45;&gt;Node10 -->
<g id="edge10" class="edge">
<title>Node1&#45;&gt;Node10</title>
<path fill="none" stroke="midnightblue" d="M90.16,-235.44C113.9,-226.48 151.41,-212.31 178.24,-202.18"/>
<polygon fill="midnightblue" stroke="midnightblue" points="179.83,-205.32 187.95,-198.52 177.36,-198.77 179.83,-205.32"/>
</g>
<!-- Node4&#45;&gt;Node3 -->
<g id="edge4" class="edge">
<title>Node4&#45;&gt;Node3</title>
<path fill="none" stroke="midnightblue" d="M114.93,-112.4C100.62,-103.04 81.89,-90.79 67.49,-81.38"/>
<polygon fill="midnightblue" stroke="midnightblue" points="69.03,-78.2 58.74,-75.66 65.2,-84.06 69.03,-78.2"/>
</g>
<!-- Node5 -->
<g id="node5" class="node">
<title>Node5</title>
<g id="a_node5"><a target="_blank" xlink:href="https://en.cppreference.com/w/cpp/header/type_traits.html" xlink:title=" ">
<polygon fill="white" stroke="black" points="120.5,-56.5 120.5,-75.5 182.5,-75.5 182.5,-56.5 120.5,-56.5"/>
<text text-anchor="middle" x="151.5" y="-63.5" font-family="Helvetica,sans-Serif" font-size="10.00">type_traits</text>
</a>
</g>
</g>
<!-- Node4&#45;&gt;Node5 -->
<g id="edge5" class="edge">
<title>Node4&#45;&gt;Node5</title>
<path fill="none" stroke="midnightblue" d="M140.05,-112.4C142.08,-104.38 144.63,-94.23 146.82,-85.57"/>
<polygon fill="midnightblue" stroke="midnightblue" points="150.27,-86.21 149.32,-75.66 143.48,-84.5 150.27,-86.21"/>
</g>
<!-- Node6 -->
<g id="node6" class="node">
<title>Node6</title>
<g id="a_node6"><a xlink:href="platform_8hpp.html" target="_top" xlink:title="Provides platform and dependency checks.">
<polygon fill="white" stroke="black" points="230,-56.5 230,-75.5 341,-75.5 341,-56.5 230,-56.5"/>
<text text-anchor="middle" x="285.5" y="-63.5" font-family="Helvetica,sans-Serif" font-size="10.00">bio/meta/platform.hpp</text>
</a>
</g>
</g>
<!-- Node4&#45;&gt;Node6 -->
<g id="edge6" class="edge">
<title>Node4&#45;&gt;Node6</title>
<path fill="none" stroke="midnightblue" d="M171.81,-112.4C196.92,-102.37 230.34,-89.03 254.44,-79.4"/>
<polygon fill="midnightblue" stroke="midnightblue" points="255.83,-82.62 263.82,-75.66 253.23,-76.12 255.83,-82.62"/>
</g>
<!-- Node7 -->
<g id="node7" class="node">
<title>Node7</title>
<g id="a_node7"><a target="_blank" xlink:href="https://en.cppreference.com/w/cpp/header/cinttypes.html" xlink:title=" ">
<polygon fill="white" stroke="black" points="186.5,-0.5 186.5,-19.5 242.5,-19.5 242.5,-0.5 186.5,-0.5"/>
<text text-anchor="middle" x="214.5" y="-7.5" font-family="Helvetica,sans-Serif" font-size="10.00">cinttypes</text>
</a>
</g>
</g>
<!-- Node6&#45;&gt;Node7 -->
<g id="edge7" class="edge">
<title>Node6&#45;&gt;Node7</title>
<path fill="none" stroke="midnightblue" d="M274.09,-56.32C263.39,-48.18 247.16,-35.84 234.34,-26.09"/>
<polygon fill="midnightblue" stroke="midnightblue" points="236.19,-23.1 226.11,-19.83 231.96,-28.67 236.19,-23.1"/>
</g>
<!-- Node8 -->
<g id="node8" class="node">
<title>Node8</title>
<g id="a_node8"><a target="_blank" xlink:href="https://en.cppreference.com/w/cpp/header/ciso646.html" xlink:title=" ">
<polygon fill="white" stroke="black" points="260.5,-0.5 260.5,-19.5 310.5,-19.5 310.5,-0.5 260.5,-0.5"/>
<text text-anchor="middle" x="285.5" y="-7.5" font-family="Helvetica,sans-Serif" font-size="10.00">ciso646</text>
</a>
</g>
</g>
<!-- Node6&#45;&gt;Node8 -->
<g id="edge8" class="edge">
<title>Node6&#45;&gt;Node8</title>
<path fill="none" stroke="midnightblue" d="M285.5,-56.08C285.5,-49.01 285.5,-38.86 285.5,-29.99"/>
<polygon fill="midnightblue" stroke="midnightblue" points="289,-29.75 285.5,-19.75 282,-29.75 289,-29.75"/>
</g>
<!-- Node9 -->
<g id="node9" class="node">
<title>Node9</title>
<g id="a_node9"><a target="_blank" xlink:href="https://en.cppreference.com/w/cpp/header/cstddef.html" xlink:title=" ">
<polygon fill="white" stroke="black" points="329,-0.5 329,-19.5 378,-19.5 378,-0.5 329,-0.5"/>
<text text-anchor="middle" x="353.5" y="-7.5" font-family="Helvetica,sans-Serif" font-size="10.00">cstddef</text>
</a>
</g>
</g>
<!-- Node6&#45;&gt;Node9 -->
<g id="edge9" class="edge">
<title>Node6&#45;&gt;Node9</title>
<path fill="none" stroke="midnightblue" d="M296.43,-56.32C306.67,-48.18 322.22,-35.84 334.5,-26.09"/>
<polygon fill="midnightblue" stroke="midnightblue" points="336.72,-28.79 342.38,-19.83 332.37,-23.31 336.72,-28.79"/>
</g>
<!-- Node10&#45;&gt;Node2 -->
<g id="edge12" class="edge">
<title>Node10&#45;&gt;Node2</title>
<path fill="none" stroke="midnightblue" d="M182.01,-179.45C154.48,-170.96 111.73,-157.2 75.5,-143 74.08,-142.44 72.63,-141.86 71.18,-141.25"/>
<polygon fill="midnightblue" stroke="midnightblue" points="72.2,-137.88 61.64,-137.11 69.42,-144.3 72.2,-137.88"/>
</g>
<!-- Node10&#45;&gt;Node4 -->
<g id="edge14" class="edge">
<title>Node10&#45;&gt;Node4</title>
<path fill="none" stroke="midnightblue" d="M199.9,-179.48C190.06,-171.57 175.04,-159.48 162.08,-149.07"/>
<polygon fill="midnightblue" stroke="midnightblue" points="163.93,-146.06 153.94,-142.52 159.54,-151.52 163.93,-146.06"/>
</g>
<!-- Node10&#45;&gt;Node5 -->
<g id="edge13" class="edge">
<title>Node10&#45;&gt;Node5</title>
<path fill="none" stroke="midnightblue" d="M210.54,-179.49C210.28,-164.85 208.23,-134.33 196.5,-112 190.44,-100.47 180.42,-90.01 171.37,-82.09"/>
<polygon fill="midnightblue" stroke="midnightblue" points="173.41,-79.24 163.47,-75.57 168.95,-84.63 173.41,-79.24"/>
</g>
<!-- Node11 -->
<g id="node11" class="node">
<title>Node11</title>
<g id="a_node11"><a target="_blank" xlink:href="https://en.cppreference.com/w/cpp/header/iterator.html" xlink:title=" ">
<polygon fill="white" stroke="black" points="375,-118 375,-137 422,-137 422,-118 375,-118"/>
<text text-anchor="middle" x="398.5" y="-125" font-family="Helvetica,sans-Serif" font-size="10.00">iterator</text>
</a>
</g>
</g>
<!-- Node10&#45;&gt;Node11 -->
<g id="edge11" class="edge">
<title>Node10&#45;&gt;Node11</title>
<path fill="none" stroke="midnightblue" d="M244.78,-179.44C276.46,-171.19 324.68,-157.82 365.5,-143 367.16,-142.4 368.85,-141.75 370.55,-141.08"/>
<polygon fill="midnightblue" stroke="midnightblue" points="372.29,-144.15 380.17,-137.06 369.6,-137.69 372.29,-144.15"/>
</g>
<!-- Node12 -->
<g id="node12" class="node">
<title>Node12</title>
<g id="a_node12"><a xlink:href="ranges_2biocpp_8hpp.html" target="_top" xlink:title="Module header with module&#45;wide definitions.">
<polygon fill="white" stroke="black" points="244.5,-118 244.5,-137 356.5,-137 356.5,-118 244.5,-118"/>
<text text-anchor="middle" x="300.5" y="-125" font-family="Helvetica,sans-Serif" font-size="10.00">bio/ranges/biocpp.hpp</text>
</a>
</g>
</g>
<!-- Node10&#45;&gt;Node12 -->
<g id="edge15" class="edge">
<title>Node10&#45;&gt;Node12</title>
<path fill="none" stroke="midnightblue" d="M223.39,-179.48C237.96,-169.84 261.9,-154.02 279.25,-142.55"/>
<polygon fill="midnightblue" stroke="midnightblue" points="281.22,-145.44 287.63,-137.01 277.36,-139.6 281.22,-145.44"/>
</g>
<!-- Node12&#45;&gt;Node6 -->
<g id="edge16" class="edge">
<title>Node12&#45;&gt;Node6</title>
<path fill="none" stroke="midnightblue" d="M298.35,-117.98C296.21,-109.49 292.86,-96.2 290.12,-85.32"/>
<polygon fill="midnightblue" stroke="midnightblue" points="293.48,-84.35 287.65,-75.51 286.7,-86.06 293.48,-84.35"/>
</g>
</g>
</svg>
