<?xml version="1.0" encoding="UTF-8" standalone="no"?>
<!DOCTYPE svg PUBLIC "-//W3C//DTD SVG 1.1//EN"
 "http://www.w3.org/Graphics/SVG/1.1/DTD/svg11.dtd">
<!-- Generated by graphviz version 2.43.0 (0)
 -->
<!-- Title: bio/ranges/views/repeat_n.hpp Pages: 1 -->
<svg width="1749pt" height="553pt"
 viewBox="0.00 0.00 1748.50 553.00" xmlns="http://www.w3.org/2000/svg" xmlns:xlink="http://www.w3.org/1999/xlink">
<g id="graph0" class="graph" transform="scale(1 1) rotate(0) translate(4 549)">
<title>bio/ranges/views/repeat_n.hpp</title>
<polygon fill="white" stroke="transparent" points="-4,4 -4,-549 1744.5,-549 1744.5,4 -4,4"/>
<!-- Node1 -->
<g id="node1" class="node">
<title>Node1</title>
<g id="a_node1"><a xlink:title="Provides bio::views::repeat_n.">
<polygon fill="#bfbfbf" stroke="black" points="1023.5,-514.5 1023.5,-544.5 1157.5,-544.5 1157.5,-514.5 1023.5,-514.5"/>
<text text-anchor="start" x="1031.5" y="-532.5" font-family="Helvetica,sans-Serif" font-size="10.00">bio/ranges/views/repeat</text>
<text text-anchor="middle" x="1090.5" y="-521.5" font-family="Helvetica,sans-Serif" font-size="10.00">_n.hpp</text>
</a>
</g>
</g>
<!-- Node2 -->
<g id="node2" class="node">
<title>Node2</title>
<g id="a_node2"><a target="_blank" xlink:href="https://en.cppreference.com/w/cpp/header/concepts.html" xlink:title=" ">
<polygon fill="white" stroke="black" points="405.5,-56.5 405.5,-75.5 465.5,-75.5 465.5,-56.5 405.5,-56.5"/>
<text text-anchor="middle" x="435.5" y="-63.5" font-family="Helvetica,sans-Serif" font-size="10.00">concepts</text>
</a>
</g>
</g>
<!-- Node1&#45;&gt;Node2 -->
<g id="edge1" class="edge">
<title>Node1&#45;&gt;Node2</title>
<path fill="none" stroke="midnightblue" d="M1023.45,-526.09C815.2,-517.74 193.5,-485.8 193.5,-402 193.5,-402 193.5,-402 193.5,-199 193.5,-157.32 196.63,-138.86 228.5,-112 286.56,-63.07 321.35,-92.33 395.5,-76 395.6,-75.98 395.7,-75.96 395.8,-75.93"/>
<polygon fill="midnightblue" stroke="midnightblue" points="396.36,-79.39 405.37,-73.81 394.84,-72.56 396.36,-79.39"/>
</g>
<!-- Node3 -->
<g id="node3" class="node">
<title>Node3</title>
<g id="a_node3"><a xlink:href="repeat_8hpp.html" target="_top" xlink:title="Provides the views::repeat_view.">
<polygon fill="white" stroke="black" points="1285,-330 1285,-349 1440,-349 1440,-330 1285,-330"/>
<text text-anchor="middle" x="1362.5" y="-337" font-family="Helvetica,sans-Serif" font-size="10.00">bio/ranges/views/repeat.hpp</text>
</a>
</g>
</g>
<!-- Node1&#45;&gt;Node3 -->
<g id="edge2" class="edge">
<title>Node1&#45;&gt;Node3</title>
<path fill="none" stroke="midnightblue" d="M1110.94,-514.37C1161.29,-479.57 1290.86,-390.01 1341.64,-354.92"/>
<polygon fill="midnightblue" stroke="midnightblue" points="1343.67,-357.77 1349.9,-349.21 1339.69,-352.01 1343.67,-357.77"/>
</g>
<!-- Node19 -->
<g id="node19" class="node">
<title>Node19</title>
<g id="a_node19"><a xlink:href="take__exactly_8hpp.html" target="_top" xlink:title="Provides bio::views::take_exactly and bio::views::take_exactly_or_throw.">
<polygon fill="white" stroke="black" points="1029,-447.5 1029,-477.5 1152,-477.5 1152,-447.5 1029,-447.5"/>
<text text-anchor="start" x="1037" y="-465.5" font-family="Helvetica,sans-Serif" font-size="10.00">bio/ranges/views/take</text>
<text text-anchor="middle" x="1090.5" y="-454.5" font-family="Helvetica,sans-Serif" font-size="10.00">_exactly.hpp</text>
</a>
</g>
</g>
<!-- Node1&#45;&gt;Node19 -->
<g id="edge26" class="edge">
<title>Node1&#45;&gt;Node19</title>
<path fill="none" stroke="midnightblue" d="M1090.5,-514.4C1090.5,-506.64 1090.5,-496.81 1090.5,-487.86"/>
<polygon fill="midnightblue" stroke="midnightblue" points="1094,-487.58 1090.5,-477.58 1087,-487.58 1094,-487.58"/>
</g>
<!-- Node4 -->
<g id="node4" class="node">
<title>Node4</title>
<g id="a_node4"><a target="_blank" xlink:href="https://en.cppreference.com/w/cpp/header/algorithm.html" xlink:title=" ">
<polygon fill="white" stroke="black" points="1648.5,-263 1648.5,-282 1712.5,-282 1712.5,-263 1648.5,-263"/>
<text text-anchor="middle" x="1680.5" y="-270" font-family="Helvetica,sans-Serif" font-size="10.00">algorithm</text>
</a>
</g>
</g>
<!-- Node3&#45;&gt;Node4 -->
<g id="edge3" class="edge">
<title>Node3&#45;&gt;Node4</title>
<path fill="none" stroke="midnightblue" d="M1404.4,-329.94C1465.14,-317.52 1577.05,-294.65 1638.08,-282.17"/>
<polygon fill="midnightblue" stroke="midnightblue" points="1639.05,-285.55 1648.14,-280.11 1637.65,-278.69 1639.05,-285.55"/>
</g>
<!-- Node5 -->
<g id="node5" class="node">
<title>Node5</title>
<g id="a_node5"><a target="_blank" xlink:href="https://en.cppreference.com/w/cpp/header/ranges.html" xlink:title=" ">
<polygon fill="white" stroke="black" points="782.5,-190.5 782.5,-209.5 832.5,-209.5 832.5,-190.5 782.5,-190.5"/>
<text text-anchor="middle" x="807.5" y="-197.5" font-family="Helvetica,sans-Serif" font-size="10.00">ranges</text>
</a>
</g>
</g>
<!-- Node3&#45;&gt;Node5 -->
<g id="edge4" class="edge">
<title>Node3&#45;&gt;Node5</title>
<path fill="none" stroke="midnightblue" d="M1284.95,-332.59C1163.17,-322.92 937.4,-303.26 903.5,-288 884.97,-279.66 844.77,-239.75 822.72,-216.99"/>
<polygon fill="midnightblue" stroke="midnightblue" points="825.2,-214.52 815.75,-209.74 820.16,-219.37 825.2,-214.52"/>
</g>
<!-- Node6 -->
<g id="node6" class="node">
<title>Node6</title>
<g id="a_node6"><a xlink:href="random__access__iterator_8hpp.html" target="_top" xlink:title="Provides the bio::ranges::detail::random_access_iterator class.">
<polygon fill="white" stroke="black" points="1415,-257.5 1415,-287.5 1554,-287.5 1554,-257.5 1415,-257.5"/>
<text text-anchor="start" x="1423" y="-275.5" font-family="Helvetica,sans-Serif" font-size="10.00">bio/ranges/detail/random</text>
<text text-anchor="middle" x="1484.5" y="-264.5" font-family="Helvetica,sans-Serif" font-size="10.00">_access_iterator.hpp</text>
</a>
</g>
</g>
<!-- Node3&#45;&gt;Node6 -->
<g id="edge5" class="edge">
<title>Node3&#45;&gt;Node6</title>
<path fill="none" stroke="midnightblue" d="M1378.7,-329.87C1396.55,-320.36 1425.82,-304.77 1449.05,-292.39"/>
<polygon fill="midnightblue" stroke="midnightblue" points="1450.76,-295.44 1457.94,-287.65 1447.47,-289.26 1450.76,-295.44"/>
</g>
<!-- Node15 -->
<g id="node15" class="node">
<title>Node15</title>
<g id="a_node15"><a xlink:href="type__traits_8hpp.html" target="_top" xlink:title="Provides various transformation traits used by the range module.">
<polygon fill="white" stroke="black" points="1046.5,-263 1046.5,-282 1190.5,-282 1190.5,-263 1046.5,-263"/>
<text text-anchor="middle" x="1118.5" y="-270" font-family="Helvetica,sans-Serif" font-size="10.00">bio/ranges/type_traits.hpp</text>
</a>
</g>
</g>
<!-- Node3&#45;&gt;Node15 -->
<g id="edge14" class="edge">
<title>Node3&#45;&gt;Node15</title>
<path fill="none" stroke="midnightblue" d="M1330.35,-329.94C1286.74,-318.32 1208.75,-297.54 1160.53,-284.7"/>
<polygon fill="midnightblue" stroke="midnightblue" points="1161.28,-281.28 1150.72,-282.08 1159.48,-288.04 1161.28,-281.28"/>
</g>
<!-- Node7 -->
<g id="node7" class="node">
<title>Node7</title>
<g id="a_node7"><a target="_blank" xlink:href="https://en.cppreference.com/w/cpp/header/cassert.html" xlink:title=" ">
<polygon fill="white" stroke="black" points="1540.5,-190.5 1540.5,-209.5 1592.5,-209.5 1592.5,-190.5 1540.5,-190.5"/>
<text text-anchor="middle" x="1566.5" y="-197.5" font-family="Helvetica,sans-Serif" font-size="10.00">cassert</text>
</a>
</g>
</g>
<!-- Node6&#45;&gt;Node7 -->
<g id="edge6" class="edge">
<title>Node6&#45;&gt;Node7</title>
<path fill="none" stroke="midnightblue" d="M1501.09,-257.23C1514.86,-245.39 1534.41,-228.59 1548.54,-216.44"/>
<polygon fill="midnightblue" stroke="midnightblue" points="1550.86,-219.07 1556.16,-209.89 1546.29,-213.76 1550.86,-219.07"/>
</g>
<!-- Node8 -->
<g id="node8" class="node">
<title>Node8</title>
<g id="a_node8"><a target="_blank" xlink:href="https://en.cppreference.com/w/cpp/header/iterator.html" xlink:title=" ">
<polygon fill="white" stroke="black" points="1355,-190.5 1355,-209.5 1408,-209.5 1408,-190.5 1355,-190.5"/>
<text text-anchor="middle" x="1381.5" y="-197.5" font-family="Helvetica,sans-Serif" font-size="10.00">iterator</text>
</a>
</g>
</g>
<!-- Node6&#45;&gt;Node8 -->
<g id="edge7" class="edge">
<title>Node6&#45;&gt;Node8</title>
<path fill="none" stroke="midnightblue" d="M1463.66,-257.23C1445.94,-245.1 1420.6,-227.76 1402.76,-215.55"/>
<polygon fill="midnightblue" stroke="midnightblue" points="1404.43,-212.45 1394.2,-209.69 1400.47,-218.23 1404.43,-212.45"/>
</g>
<!-- Node9 -->
<g id="node9" class="node">
<title>Node9</title>
<g id="a_node9"><a target="_blank" xlink:href="https://en.cppreference.com/w/cpp/header/type_traits.html" xlink:title=" ">
<polygon fill="white" stroke="black" points="1378,-56.5 1378,-75.5 1447,-75.5 1447,-56.5 1378,-56.5"/>
<text text-anchor="middle" x="1412.5" y="-63.5" font-family="Helvetica,sans-Serif" font-size="10.00">type_traits</text>
</a>
</g>
</g>
<!-- Node6&#45;&gt;Node9 -->
<g id="edge8" class="edge">
<title>Node6&#45;&gt;Node9</title>
<path fill="none" stroke="midnightblue" d="M1488.84,-257.44C1497.02,-228.02 1511.56,-158.78 1483.5,-112 1474.88,-97.63 1459.71,-87.09 1445.59,-79.85"/>
<polygon fill="midnightblue" stroke="midnightblue" points="1447.08,-76.68 1436.55,-75.55 1444.08,-83 1447.08,-76.68"/>
</g>
<!-- Node10 -->
<g id="node10" class="node">
<title>Node10</title>
<g id="a_node10"><a xlink:href="core_8hpp.html" target="_top" xlink:title="Provides platform and dependency checks.">
<polygon fill="white" stroke="black" points="916,-56.5 916,-75.5 993,-75.5 993,-56.5 916,-56.5"/>
<text text-anchor="middle" x="954.5" y="-63.5" font-family="Helvetica,sans-Serif" font-size="10.00">bio/core.hpp</text>
</a>
</g>
</g>
<!-- Node6&#45;&gt;Node10 -->
<g id="edge9" class="edge">
<title>Node6&#45;&gt;Node10</title>
<path fill="none" stroke="midnightblue" d="M1481.18,-257.35C1475.53,-236.64 1462.02,-198.46 1435.5,-179 1364.45,-126.86 1320.72,-179.51 1240.5,-143 1220.35,-133.83 1221.66,-121.15 1201.5,-112 1136.88,-82.69 1054.57,-72.46 1003.2,-68.89"/>
<polygon fill="midnightblue" stroke="midnightblue" points="1003.23,-65.39 993.03,-68.25 1002.79,-72.38 1003.23,-65.39"/>
</g>
<!-- Node11 -->
<g id="node11" class="node">
<title>Node11</title>
<g id="a_node11"><a target="_blank" xlink:href="https://en.cppreference.com/w/cpp/header/cinttypes.html" xlink:title=" ">
<polygon fill="white" stroke="black" points="923.5,-0.5 923.5,-19.5 985.5,-19.5 985.5,-0.5 923.5,-0.5"/>
<text text-anchor="middle" x="954.5" y="-7.5" font-family="Helvetica,sans-Serif" font-size="10.00">cinttypes</text>
</a>
</g>
</g>
<!-- Node10&#45;&gt;Node11 -->
<g id="edge10" class="edge">
<title>Node10&#45;&gt;Node11</title>
<path fill="none" stroke="midnightblue" d="M954.5,-56.08C954.5,-49.01 954.5,-38.86 954.5,-29.99"/>
<polygon fill="midnightblue" stroke="midnightblue" points="958,-29.75 954.5,-19.75 951,-29.75 958,-29.75"/>
</g>
<!-- Node12 -->
<g id="node12" class="node">
<title>Node12</title>
<g id="a_node12"><a target="_blank" xlink:href="https://en.cppreference.com/w/cpp/header/ciso646.html" xlink:title=" ">
<polygon fill="white" stroke="black" points="1003.5,-0.5 1003.5,-19.5 1057.5,-19.5 1057.5,-0.5 1003.5,-0.5"/>
<text text-anchor="middle" x="1030.5" y="-7.5" font-family="Helvetica,sans-Serif" font-size="10.00">ciso646</text>
</a>
</g>
</g>
<!-- Node10&#45;&gt;Node12 -->
<g id="edge11" class="edge">
<title>Node10&#45;&gt;Node12</title>
<path fill="none" stroke="midnightblue" d="M966.71,-56.32C978.28,-48.11 995.88,-35.6 1009.66,-25.81"/>
<polygon fill="midnightblue" stroke="midnightblue" points="1011.94,-28.48 1018.07,-19.83 1007.89,-22.77 1011.94,-28.48"/>
</g>
<!-- Node13 -->
<g id="node13" class="node">
<title>Node13</title>
<g id="a_node13"><a target="_blank" xlink:href="https://en.cppreference.com/w/cpp/header/cstddef.html" xlink:title=" ">
<polygon fill="white" stroke="black" points="852,-0.5 852,-19.5 905,-19.5 905,-0.5 852,-0.5"/>
<text text-anchor="middle" x="878.5" y="-7.5" font-family="Helvetica,sans-Serif" font-size="10.00">cstddef</text>
</a>
</g>
</g>
<!-- Node10&#45;&gt;Node13 -->
<g id="edge12" class="edge">
<title>Node10&#45;&gt;Node13</title>
<path fill="none" stroke="midnightblue" d="M942.29,-56.32C930.72,-48.11 913.12,-35.6 899.34,-25.81"/>
<polygon fill="midnightblue" stroke="midnightblue" points="901.11,-22.77 890.93,-19.83 897.06,-28.48 901.11,-22.77"/>
</g>
<!-- Node14 -->
<g id="node14" class="node">
<title>Node14</title>
<g id="a_node14"><a target="_blank" xlink:href="https://en.cppreference.com/w/cpp/header/string.html" xlink:title=" ">
<polygon fill="white" stroke="black" points="530.5,-0.5 530.5,-19.5 574.5,-19.5 574.5,-0.5 530.5,-0.5"/>
<text text-anchor="middle" x="552.5" y="-7.5" font-family="Helvetica,sans-Serif" font-size="10.00">string</text>
</a>
</g>
</g>
<!-- Node10&#45;&gt;Node14 -->
<g id="edge13" class="edge">
<title>Node10&#45;&gt;Node14</title>
<path fill="none" stroke="midnightblue" d="M915.74,-58.23C910.95,-57.45 906.12,-56.69 901.5,-56 785.22,-38.64 646.54,-21.95 584.85,-14.73"/>
<polygon fill="midnightblue" stroke="midnightblue" points="584.93,-11.22 574.59,-13.54 584.12,-18.17 584.93,-11.22"/>
</g>
<!-- Node15&#45;&gt;Node5 -->
<g id="edge16" class="edge">
<title>Node15&#45;&gt;Node5</title>
<path fill="none" stroke="midnightblue" d="M1080.99,-263C1020.33,-249.25 901.57,-222.32 842.54,-208.94"/>
<polygon fill="midnightblue" stroke="midnightblue" points="843.1,-205.48 832.57,-206.68 841.55,-212.31 843.1,-205.48"/>
</g>
<!-- Node15&#45;&gt;Node8 -->
<g id="edge15" class="edge">
<title>Node15&#45;&gt;Node8</title>
<path fill="none" stroke="midnightblue" d="M1171.49,-262.99C1217.09,-254.84 1284.21,-240.83 1340.5,-221 1345.92,-219.09 1351.55,-216.66 1356.85,-214.16"/>
<polygon fill="midnightblue" stroke="midnightblue" points="1358.5,-217.24 1365.9,-209.66 1355.39,-210.97 1358.5,-217.24"/>
</g>
<!-- Node15&#45;&gt;Node9 -->
<g id="edge17" class="edge">
<title>Node15&#45;&gt;Node9</title>
<path fill="none" stroke="midnightblue" d="M1178.22,-262.99C1215.75,-255.79 1264.14,-243 1302.5,-221 1325.67,-207.71 1322.86,-193.18 1345.5,-179 1385.53,-153.92 1418.34,-181.65 1445.5,-143 1458.74,-124.16 1442.52,-99.16 1428.5,-83.07"/>
<polygon fill="midnightblue" stroke="midnightblue" points="1430.9,-80.52 1421.54,-75.55 1425.76,-85.27 1430.9,-80.52"/>
</g>
<!-- Node15&#45;&gt;Node10 -->
<g id="edge18" class="edge">
<title>Node15&#45;&gt;Node10</title>
<path fill="none" stroke="midnightblue" d="M1118.06,-262.87C1116.81,-245.61 1112.09,-206.15 1094.5,-179 1078.65,-154.54 1011.08,-105.93 975.93,-81.6"/>
<polygon fill="midnightblue" stroke="midnightblue" points="977.57,-78.47 967.35,-75.69 973.6,-84.24 977.57,-78.47"/>
</g>
<!-- Node16 -->
<g id="node16" class="node">
<title>Node16</title>
<g id="a_node16"><a xlink:href="basic_8hpp.html" target="_top" xlink:title="Provides various type traits on generic types.">
<polygon fill="white" stroke="black" points="648.5,-185 648.5,-215 764.5,-215 764.5,-185 648.5,-185"/>
<text text-anchor="start" x="656.5" y="-203" font-family="Helvetica,sans-Serif" font-size="10.00">bio/meta/type_traits</text>
<text text-anchor="middle" x="706.5" y="-192" font-family="Helvetica,sans-Serif" font-size="10.00">/basic.hpp</text>
</a>
</g>
</g>
<!-- Node15&#45;&gt;Node16 -->
<g id="edge19" class="edge">
<title>Node15&#45;&gt;Node16</title>
<path fill="none" stroke="midnightblue" d="M1072.72,-262.96C1061.24,-260.91 1048.93,-258.8 1037.5,-257 920.52,-238.56 889.25,-246.01 773.5,-221 769.04,-220.04 764.45,-218.93 759.86,-217.73"/>
<polygon fill="midnightblue" stroke="midnightblue" points="760.42,-214.26 749.86,-215 758.58,-221.01 760.42,-214.26"/>
</g>
<!-- Node16&#45;&gt;Node9 -->
<g id="edge21" class="edge">
<title>Node16&#45;&gt;Node9</title>
<path fill="none" stroke="midnightblue" d="M737.98,-184.88C783.61,-165.08 871.23,-129.53 949.5,-112 1100.27,-78.23 1284.28,-69.8 1367.64,-67.7"/>
<polygon fill="midnightblue" stroke="midnightblue" points="1367.86,-71.19 1377.77,-67.46 1367.69,-64.2 1367.86,-71.19"/>
</g>
<!-- Node17 -->
<g id="node17" class="node">
<title>Node17</title>
<g id="a_node17"><a target="_blank" xlink:href="https://en.cppreference.com/w/cpp/header/tuple.html" xlink:title=" ">
<polygon fill="white" stroke="black" points="780,-118 780,-137 821,-137 821,-118 780,-118"/>
<text text-anchor="middle" x="800.5" y="-125" font-family="Helvetica,sans-Serif" font-size="10.00">tuple</text>
</a>
</g>
</g>
<!-- Node16&#45;&gt;Node17 -->
<g id="edge20" class="edge">
<title>Node16&#45;&gt;Node17</title>
<path fill="none" stroke="midnightblue" d="M725.52,-184.73C741.55,-172.72 764.39,-155.58 780.65,-143.39"/>
<polygon fill="midnightblue" stroke="midnightblue" points="783.01,-145.99 788.91,-137.19 778.81,-140.39 783.01,-145.99"/>
</g>
<!-- Node18 -->
<g id="node18" class="node">
<title>Node18</title>
<g id="a_node18"><a xlink:href="core__language_8hpp.html" target="_top" xlink:title="Provides concepts for core language types and relations that don&#39;t have concepts in C++20 (yet).">
<polygon fill="white" stroke="black" points="637,-112.5 637,-142.5 762,-142.5 762,-112.5 637,-112.5"/>
<text text-anchor="start" x="645" y="-130.5" font-family="Helvetica,sans-Serif" font-size="10.00">bio/meta/concept/core</text>
<text text-anchor="middle" x="699.5" y="-119.5" font-family="Helvetica,sans-Serif" font-size="10.00">_language.hpp</text>
</a>
</g>
</g>
<!-- Node16&#45;&gt;Node18 -->
<g id="edge22" class="edge">
<title>Node16&#45;&gt;Node18</title>
<path fill="none" stroke="midnightblue" d="M705.08,-184.73C704.17,-175.56 702.97,-163.41 701.91,-152.74"/>
<polygon fill="midnightblue" stroke="midnightblue" points="705.39,-152.35 700.91,-142.75 698.42,-153.04 705.39,-152.35"/>
</g>
<!-- Node18&#45;&gt;Node2 -->
<g id="edge23" class="edge">
<title>Node18&#45;&gt;Node2</title>
<path fill="none" stroke="midnightblue" d="M637.27,-112.47C587.17,-101.18 518.25,-85.65 475.32,-75.97"/>
<polygon fill="midnightblue" stroke="midnightblue" points="476.04,-72.55 465.52,-73.76 474.5,-79.38 476.04,-72.55"/>
</g>
<!-- Node18&#45;&gt;Node9 -->
<g id="edge24" class="edge">
<title>Node18&#45;&gt;Node9</title>
<path fill="none" stroke="midnightblue" d="M762.14,-113.24C764.96,-112.79 767.76,-112.37 770.5,-112 993.39,-81.56 1262.78,-71.17 1367.67,-68.12"/>
<polygon fill="midnightblue" stroke="midnightblue" points="1367.99,-71.61 1377.89,-67.83 1367.79,-64.61 1367.99,-71.61"/>
</g>
<!-- Node18&#45;&gt;Node10 -->
<g id="edge25" class="edge">
<title>Node18&#45;&gt;Node10</title>
<path fill="none" stroke="midnightblue" d="M759.61,-112.47C805.04,-101.87 866.5,-87.53 908.16,-77.81"/>
<polygon fill="midnightblue" stroke="midnightblue" points="909.1,-81.19 918.04,-75.51 907.51,-74.37 909.1,-81.19"/>
</g>
<!-- Node20 -->
<g id="node20" class="node">
<title>Node20</title>
<g id="a_node20"><a xlink:href="take_8hpp.html" target="_top" xlink:title="Provides bio::views::take.">
<polygon fill="white" stroke="black" points="1018.5,-391.5 1018.5,-410.5 1162.5,-410.5 1162.5,-391.5 1018.5,-391.5"/>
<text text-anchor="middle" x="1090.5" y="-398.5" font-family="Helvetica,sans-Serif" font-size="10.00">bio/ranges/views/take.hpp</text>
</a>
</g>
</g>
<!-- Node19&#45;&gt;Node20 -->
<g id="edge27" class="edge">
<title>Node19&#45;&gt;Node20</title>
<path fill="none" stroke="midnightblue" d="M1090.5,-447.4C1090.5,-439.47 1090.5,-429.46 1090.5,-420.86"/>
<polygon fill="midnightblue" stroke="midnightblue" points="1094,-420.66 1090.5,-410.66 1087,-420.66 1094,-420.66"/>
</g>
<!-- Node20&#45;&gt;Node2 -->
<g id="edge29" class="edge">
<title>Node20&#45;&gt;Node2</title>
<path fill="none" stroke="midnightblue" d="M1018.34,-397.73C872.98,-392.7 549.59,-379.14 441.5,-355 343.79,-333.18 231.5,-373.62 231.5,-273.5 231.5,-273.5 231.5,-273.5 231.5,-199 231.5,-159.51 222.05,-140.38 249.5,-112 252.08,-109.34 341.49,-88.51 395.39,-76.14"/>
<polygon fill="midnightblue" stroke="midnightblue" points="396.37,-79.51 405.33,-73.87 394.8,-72.69 396.37,-79.51"/>
</g>
<!-- Node20&#45;&gt;Node4 -->
<g id="edge28" class="edge">
<title>Node20&#45;&gt;Node4</title>
<path fill="none" stroke="midnightblue" d="M1162.73,-400.47C1286.98,-400.17 1535.19,-394.46 1611.5,-355 1638.99,-340.79 1659.96,-310.46 1671.23,-291.08"/>
<polygon fill="midnightblue" stroke="midnightblue" points="1674.43,-292.52 1676.22,-282.08 1668.31,-289.13 1674.43,-292.52"/>
</g>
<!-- Node20&#45;&gt;Node5 -->
<g id="edge31" class="edge">
<title>Node20&#45;&gt;Node5</title>
<path fill="none" stroke="midnightblue" d="M1060.5,-391.46C1013.31,-376.8 920.94,-343.01 860.5,-288 838.98,-268.41 823.23,-238.07 814.72,-218.88"/>
<polygon fill="midnightblue" stroke="midnightblue" points="817.87,-217.35 810.75,-209.51 811.43,-220.08 817.87,-217.35"/>
</g>
<!-- Node20&#45;&gt;Node8 -->
<g id="edge30" class="edge">
<title>Node20&#45;&gt;Node8</title>
<path fill="none" stroke="midnightblue" d="M1114.9,-391.36C1136.16,-383.35 1167.41,-370.37 1192.5,-355 1262.08,-312.38 1334.04,-246.62 1365.34,-216.74"/>
<polygon fill="midnightblue" stroke="midnightblue" points="1367.95,-219.09 1372.73,-209.63 1363.1,-214.05 1367.95,-219.09"/>
</g>
<!-- Node20&#45;&gt;Node9 -->
<g id="edge33" class="edge">
<title>Node20&#45;&gt;Node9</title>
<path fill="none" stroke="midnightblue" d="M1162.64,-399.54C1292.12,-397.82 1558.36,-390 1643.5,-355 1695.58,-333.59 1740.5,-329.81 1740.5,-273.5 1740.5,-273.5 1740.5,-273.5 1740.5,-199 1740.5,-138.64 1546.91,-93.12 1457.19,-75.26"/>
<polygon fill="midnightblue" stroke="midnightblue" points="1457.78,-71.81 1447.29,-73.32 1456.43,-78.68 1457.78,-71.81"/>
</g>
<!-- Node20&#45;&gt;Node15 -->
<g id="edge77" class="edge">
<title>Node20&#45;&gt;Node15</title>
<path fill="none" stroke="midnightblue" d="M1092.42,-391.31C1096.92,-370.99 1108.2,-320.05 1114.34,-292.28"/>
<polygon fill="midnightblue" stroke="midnightblue" points="1117.82,-292.78 1116.56,-282.26 1110.98,-291.26 1117.82,-292.78"/>
</g>
<!-- Node21 -->
<g id="node21" class="node">
<title>Node21</title>
<g id="a_node21"><a target="_blank" xlink:href="https://en.cppreference.com/w/cpp/header/span.html" xlink:title=" ">
<polygon fill="white" stroke="black" points="1118.5,-330 1118.5,-349 1158.5,-349 1158.5,-330 1118.5,-330"/>
<text text-anchor="middle" x="1138.5" y="-337" font-family="Helvetica,sans-Serif" font-size="10.00">span</text>
</a>
</g>
</g>
<!-- Node20&#45;&gt;Node21 -->
<g id="edge32" class="edge">
<title>Node20&#45;&gt;Node21</title>
<path fill="none" stroke="midnightblue" d="M1097.38,-391.48C1104.65,-382.46 1116.3,-368.02 1125.34,-356.81"/>
<polygon fill="midnightblue" stroke="midnightblue" points="1128.08,-358.99 1131.64,-349.01 1122.63,-354.59 1128.08,-358.99"/>
</g>
<!-- Node22 -->
<g id="node22" class="node">
<title>Node22</title>
<g id="a_node22"><a xlink:href="template__inspection_8hpp.html" target="_top" xlink:title="Provides various traits to inspect templates.">
<polygon fill="white" stroke="black" points="543.5,-257.5 543.5,-287.5 683.5,-287.5 683.5,-257.5 543.5,-257.5"/>
<text text-anchor="start" x="551.5" y="-275.5" font-family="Helvetica,sans-Serif" font-size="10.00">bio/meta/type_traits</text>
<text text-anchor="middle" x="613.5" y="-264.5" font-family="Helvetica,sans-Serif" font-size="10.00">/template_inspection.hpp</text>
</a>
</g>
</g>
<!-- Node20&#45;&gt;Node22 -->
<g id="edge34" class="edge">
<title>Node20&#45;&gt;Node22</title>
<path fill="none" stroke="midnightblue" d="M1018.49,-400.14C912,-399.08 718.9,-391.91 661.5,-355 640.78,-341.67 627.86,-315.97 620.71,-296.98"/>
<polygon fill="midnightblue" stroke="midnightblue" points="624,-295.79 617.41,-287.5 617.4,-298.1 624,-295.79"/>
</g>
<!-- Node23 -->
<g id="node23" class="node">
<title>Node23</title>
<g id="a_node23"><a xlink:href="transformation__trait__or_8hpp.html" target="_top" xlink:title="Provides bio::meta::transformation_trait_or.">
<polygon fill="white" stroke="black" points="1142.5,-179.5 1142.5,-220.5 1260.5,-220.5 1260.5,-179.5 1142.5,-179.5"/>
<text text-anchor="start" x="1150.5" y="-208.5" font-family="Helvetica,sans-Serif" font-size="10.00">bio/meta/type_traits</text>
<text text-anchor="start" x="1150.5" y="-197.5" font-family="Helvetica,sans-Serif" font-size="10.00">/transformation_trait</text>
<text text-anchor="middle" x="1201.5" y="-186.5" font-family="Helvetica,sans-Serif" font-size="10.00">_or.hpp</text>
</a>
</g>
</g>
<!-- Node20&#45;&gt;Node23 -->
<g id="edge41" class="edge">
<title>Node20&#45;&gt;Node23</title>
<path fill="none" stroke="midnightblue" d="M1112.45,-391.43C1129.3,-383.93 1152.19,-371.64 1167.5,-355 1189.84,-330.71 1191.84,-320.1 1199.5,-288 1203.93,-269.44 1204.48,-248.01 1203.89,-231.06"/>
<polygon fill="midnightblue" stroke="midnightblue" points="1207.37,-230.46 1203.37,-220.65 1200.37,-230.81 1207.37,-230.46"/>
</g>
<!-- Node25 -->
<g id="node25" class="node">
<title>Node25</title>
<g id="a_node25"><a xlink:href="ranges_2concept_8hpp.html" target="_top" xlink:title="Additional non&#45;standard concepts for ranges.">
<polygon fill="white" stroke="black" points="450.5,-330 450.5,-349 580.5,-349 580.5,-330 450.5,-330"/>
<text text-anchor="middle" x="515.5" y="-337" font-family="Helvetica,sans-Serif" font-size="10.00">bio/ranges/concept.hpp</text>
</a>
</g>
</g>
<!-- Node20&#45;&gt;Node25 -->
<g id="edge42" class="edge">
<title>Node20&#45;&gt;Node25</title>
<path fill="none" stroke="midnightblue" d="M1018.3,-394.44C924.58,-386.93 756.06,-372.47 612.5,-355 601.63,-353.68 590.1,-352.1 578.93,-350.49"/>
<polygon fill="midnightblue" stroke="midnightblue" points="579.2,-346.99 568.79,-349 578.18,-353.92 579.2,-346.99"/>
</g>
<!-- Node35 -->
<g id="node35" class="node">
<title>Node35</title>
<g id="a_node35"><a xlink:href="ranges_2container_2concept_8hpp.html" target="_top" xlink:title="Adaptations of concepts from the standard library.">
<polygon fill="white" stroke="black" points="912.5,-257.5 912.5,-287.5 1028.5,-287.5 1028.5,-257.5 912.5,-257.5"/>
<text text-anchor="start" x="920.5" y="-275.5" font-family="Helvetica,sans-Serif" font-size="10.00">bio/ranges/container</text>
<text text-anchor="middle" x="970.5" y="-264.5" font-family="Helvetica,sans-Serif" font-size="10.00">/concept.hpp</text>
</a>
</g>
</g>
<!-- Node20&#45;&gt;Node35 -->
<g id="edge63" class="edge">
<title>Node20&#45;&gt;Node35</title>
<path fill="none" stroke="midnightblue" d="M1082.25,-391.31C1063.67,-371.71 1018.04,-323.62 991.19,-295.31"/>
<polygon fill="midnightblue" stroke="midnightblue" points="993.57,-292.73 984.15,-287.89 988.49,-297.55 993.57,-292.73"/>
</g>
<!-- Node37 -->
<g id="node37" class="node">
<title>Node37</title>
<g id="a_node37"><a xlink:href="inherited__iterator__base_8hpp.html" target="_top" xlink:title="Provides the bio::ranges::detail::inherited_iterator_base template.">
<polygon fill="white" stroke="black" points="1458,-324.5 1458,-354.5 1603,-354.5 1603,-324.5 1458,-324.5"/>
<text text-anchor="start" x="1466" y="-342.5" font-family="Helvetica,sans-Serif" font-size="10.00">bio/ranges/detail/inherited</text>
<text text-anchor="middle" x="1530.5" y="-331.5" font-family="Helvetica,sans-Serif" font-size="10.00">_iterator_base.hpp</text>
</a>
</g>
</g>
<!-- Node20&#45;&gt;Node37 -->
<g id="edge70" class="edge">
<title>Node20&#45;&gt;Node37</title>
<path fill="none" stroke="midnightblue" d="M1162.64,-392C1232.79,-383.99 1342.58,-370.79 1447.52,-355.1"/>
<polygon fill="midnightblue" stroke="midnightblue" points="1448.29,-358.53 1457.65,-353.58 1447.24,-351.6 1448.29,-358.53"/>
</g>
<!-- Node39 -->
<g id="node39" class="node">
<title>Node39</title>
<g id="a_node39"><a xlink:href="ranges_2views_2detail_8hpp_source.html" target="_top" xlink:title=" ">
<polygon fill="white" stroke="black" points="671,-330 671,-349 822,-349 822,-330 671,-330"/>
<text text-anchor="middle" x="746.5" y="-337" font-family="Helvetica,sans-Serif" font-size="10.00">bio/ranges/views/detail.hpp</text>
</a>
</g>
</g>
<!-- Node20&#45;&gt;Node39 -->
<g id="edge78" class="edge">
<title>Node20&#45;&gt;Node39</title>
<path fill="none" stroke="midnightblue" d="M1041.21,-391.48C979.01,-380.72 872.13,-362.23 805.61,-350.72"/>
<polygon fill="midnightblue" stroke="midnightblue" points="806.15,-347.26 795.7,-349.01 804.95,-354.16 806.15,-347.26"/>
</g>
<!-- Node22&#45;&gt;Node2 -->
<g id="edge35" class="edge">
<title>Node22&#45;&gt;Node2</title>
<path fill="none" stroke="midnightblue" d="M599.16,-257.34C575.93,-234.17 529,-186.38 492.5,-143 475.99,-123.38 458.51,-99.55 447.33,-83.87"/>
<polygon fill="midnightblue" stroke="midnightblue" points="450.16,-81.82 441.52,-75.67 444.44,-85.86 450.16,-81.82"/>
</g>
<!-- Node22&#45;&gt;Node23 -->
<g id="edge36" class="edge">
<title>Node22&#45;&gt;Node23</title>
<path fill="none" stroke="midnightblue" d="M683.82,-265.9C777.71,-258.01 949.1,-242.19 1094.5,-221 1106.82,-219.2 1119.89,-217.01 1132.5,-214.74"/>
<polygon fill="midnightblue" stroke="midnightblue" points="1133.29,-218.15 1142.49,-212.91 1132.03,-211.27 1133.29,-218.15"/>
</g>
<!-- Node23&#45;&gt;Node9 -->
<g id="edge37" class="edge">
<title>Node23&#45;&gt;Node9</title>
<path fill="none" stroke="midnightblue" d="M1260.84,-182.25C1307.28,-168.74 1365.49,-150.74 1374.5,-143 1392.03,-127.93 1402.33,-102.84 1407.69,-85.64"/>
<polygon fill="midnightblue" stroke="midnightblue" points="1411.16,-86.23 1410.53,-75.66 1404.43,-84.32 1411.16,-86.23"/>
</g>
<!-- Node24 -->
<g id="node24" class="node">
<title>Node24</title>
<g id="a_node24"><a xlink:href="meta_2type__traits_2concept_8hpp.html" target="_top" xlink:title="Provides the concepts bio::meta::transformation_trait and bio::meta::unary_type_trait.">
<polygon fill="white" stroke="black" points="1249.5,-112.5 1249.5,-142.5 1365.5,-142.5 1365.5,-112.5 1249.5,-112.5"/>
<text text-anchor="start" x="1257.5" y="-130.5" font-family="Helvetica,sans-Serif" font-size="10.00">bio/meta/type_traits</text>
<text text-anchor="middle" x="1307.5" y="-119.5" font-family="Helvetica,sans-Serif" font-size="10.00">/concept.hpp</text>
</a>
</g>
</g>
<!-- Node23&#45;&gt;Node24 -->
<g id="edge38" class="edge">
<title>Node23&#45;&gt;Node24</title>
<path fill="none" stroke="midnightblue" d="M1231.03,-179.36C1245.54,-169.71 1262.99,-158.11 1277.55,-148.42"/>
<polygon fill="midnightblue" stroke="midnightblue" points="1279.81,-151.12 1286.19,-142.67 1275.93,-145.29 1279.81,-151.12"/>
</g>
<!-- Node24&#45;&gt;Node9 -->
<g id="edge39" class="edge">
<title>Node24&#45;&gt;Node9</title>
<path fill="none" stroke="midnightblue" d="M1332.38,-112.4C1349.21,-102.86 1371.34,-90.32 1388.07,-80.84"/>
<polygon fill="midnightblue" stroke="midnightblue" points="1390.25,-83.63 1397.22,-75.66 1386.8,-77.54 1390.25,-83.63"/>
</g>
<!-- Node24&#45;&gt;Node10 -->
<g id="edge40" class="edge">
<title>Node24&#45;&gt;Node10</title>
<path fill="none" stroke="midnightblue" d="M1249.38,-114.59C1244.69,-113.69 1240.02,-112.82 1235.5,-112 1154.26,-97.32 1059.35,-82.63 1003.23,-74.2"/>
<polygon fill="midnightblue" stroke="midnightblue" points="1003.63,-70.72 993.22,-72.7 1002.59,-77.64 1003.63,-70.72"/>
</g>
<!-- Node25&#45;&gt;Node5 -->
<g id="edge43" class="edge">
<title>Node25&#45;&gt;Node5</title>
<path fill="none" stroke="midnightblue" d="M514.66,-329.84C513.56,-313.07 513.79,-276.12 534.5,-257 613.42,-184.12 672.25,-256.89 773.5,-221 777.98,-219.41 782.53,-217.22 786.78,-214.86"/>
<polygon fill="midnightblue" stroke="midnightblue" points="788.72,-217.78 795.47,-209.61 785.1,-211.79 788.72,-217.78"/>
</g>
<!-- Node26 -->
<g id="node26" class="node">
<title>Node26</title>
<g id="a_node26"><a xlink:href="alphabet_2concept_8hpp.html" target="_top" xlink:title="Core alphabet concept and free function/type trait wrappers.">
<polygon fill="white" stroke="black" points="347.5,-263 347.5,-282 487.5,-282 487.5,-263 347.5,-263"/>
<text text-anchor="middle" x="417.5" y="-270" font-family="Helvetica,sans-Serif" font-size="10.00">bio/alphabet/concept.hpp</text>
</a>
</g>
</g>
<!-- Node25&#45;&gt;Node26 -->
<g id="edge44" class="edge">
<title>Node25&#45;&gt;Node26</title>
<path fill="none" stroke="midnightblue" d="M502.28,-329.73C486.05,-318.96 458.28,-300.55 438.97,-287.74"/>
<polygon fill="midnightblue" stroke="midnightblue" points="440.78,-284.74 430.51,-282.13 436.91,-290.57 440.78,-284.74"/>
</g>
<!-- Node26&#45;&gt;Node9 -->
<g id="edge45" class="edge">
<title>Node26&#45;&gt;Node9</title>
<path fill="none" stroke="midnightblue" d="M485.55,-262.99C501.6,-261 518.65,-258.91 534.5,-257 670.89,-240.55 709.9,-260.43 841.5,-221 944.89,-190.02 955.26,-143.48 1058.5,-112 1166.08,-79.2 1299.1,-70.29 1367.38,-67.88"/>
<polygon fill="midnightblue" stroke="midnightblue" points="1367.88,-71.37 1377.77,-67.55 1367.66,-64.37 1367.88,-71.37"/>
</g>
<!-- Node26&#45;&gt;Node10 -->
<g id="edge52" class="edge">
<title>Node26&#45;&gt;Node10</title>
<path fill="none" stroke="midnightblue" d="M423.69,-262.86C430.56,-253.03 441.69,-236.36 449.5,-221 473.1,-174.58 450.92,-143.35 492.5,-112 524.99,-87.5 793.71,-73.65 905.75,-68.9"/>
<polygon fill="midnightblue" stroke="midnightblue" points="905.93,-72.39 915.77,-68.48 905.63,-65.4 905.93,-72.39"/>
</g>
<!-- Node26&#45;&gt;Node16 -->
<g id="edge62" class="edge">
<title>Node26&#45;&gt;Node16</title>
<path fill="none" stroke="midnightblue" d="M452.36,-263C498.48,-251.74 580.76,-231.67 639.2,-217.42"/>
<polygon fill="midnightblue" stroke="midnightblue" points="640.2,-220.78 649.09,-215.01 638.54,-213.98 640.2,-220.78"/>
</g>
<!-- Node26&#45;&gt;Node18 -->
<g id="edge53" class="edge">
<title>Node26&#45;&gt;Node18</title>
<path fill="none" stroke="midnightblue" d="M434.3,-262.98C478.85,-240.39 600.82,-178.54 662.6,-147.21"/>
<polygon fill="midnightblue" stroke="midnightblue" points="664.28,-150.28 671.62,-142.64 661.12,-144.04 664.28,-150.28"/>
</g>
<!-- Node27 -->
<g id="node27" class="node">
<title>Node27</title>
<g id="a_node27"><a xlink:href="tag_8hpp.html" target="_top" xlink:title="Provides the customisation tags for the alphabet concepts.">
<polygon fill="white" stroke="black" points="324.5,-185 324.5,-215 440.5,-215 440.5,-185 324.5,-185"/>
<text text-anchor="start" x="332.5" y="-203" font-family="Helvetica,sans-Serif" font-size="10.00">bio/alphabet/custom</text>
<text text-anchor="middle" x="382.5" y="-192" font-family="Helvetica,sans-Serif" font-size="10.00">/tag.hpp</text>
</a>
</g>
</g>
<!-- Node26&#45;&gt;Node27 -->
<g id="edge46" class="edge">
<title>Node26&#45;&gt;Node27</title>
<path fill="none" stroke="midnightblue" d="M413.21,-262.86C408.45,-253.27 400.57,-237.41 393.99,-224.15"/>
<polygon fill="midnightblue" stroke="midnightblue" points="397.07,-222.48 389.49,-215.08 390.8,-225.59 397.07,-222.48"/>
</g>
<!-- Node28 -->
<g id="node28" class="node">
<title>Node28</title>
<g id="a_node28"><a xlink:href="exception_8hpp.html" target="_top" xlink:title="Exceptions thrown by entities in the alphabet module.">
<polygon fill="white" stroke="black" points="259,-118 259,-137 408,-137 408,-118 259,-118"/>
<text text-anchor="middle" x="333.5" y="-125" font-family="Helvetica,sans-Serif" font-size="10.00">bio/alphabet/exception.hpp</text>
</a>
</g>
</g>
<!-- Node26&#45;&gt;Node28 -->
<g id="edge47" class="edge">
<title>Node26&#45;&gt;Node28</title>
<path fill="none" stroke="midnightblue" d="M378.31,-262.95C355.74,-255.8 329.2,-243.08 315.5,-221 301.11,-197.81 313.11,-165.57 323.23,-145.91"/>
<polygon fill="midnightblue" stroke="midnightblue" points="326.3,-147.59 328.06,-137.14 320.17,-144.21 326.3,-147.59"/>
</g>
<!-- Node30 -->
<g id="node30" class="node">
<title>Node30</title>
<g id="a_node30"><a xlink:href="type__inspection_8hpp.html" target="_top" xlink:title="Provides traits to inspect some information of a type, for example its name.">
<polygon fill="white" stroke="black" points="49.5,-112.5 49.5,-142.5 165.5,-142.5 165.5,-112.5 49.5,-112.5"/>
<text text-anchor="start" x="57.5" y="-130.5" font-family="Helvetica,sans-Serif" font-size="10.00">bio/meta/detail/type</text>
<text text-anchor="middle" x="107.5" y="-119.5" font-family="Helvetica,sans-Serif" font-size="10.00">_inspection.hpp</text>
</a>
</g>
</g>
<!-- Node26&#45;&gt;Node30 -->
<g id="edge54" class="edge">
<title>Node26&#45;&gt;Node30</title>
<path fill="none" stroke="midnightblue" d="M398.44,-263C376.12,-253.03 338.07,-235.95 305.5,-221 250.11,-195.58 186.28,-165.64 146.41,-146.86"/>
<polygon fill="midnightblue" stroke="midnightblue" points="147.83,-143.67 137.3,-142.57 144.85,-150 147.83,-143.67"/>
</g>
<!-- Node34 -->
<g id="node34" class="node">
<title>Node34</title>
<g id="a_node34"><a xlink:href="priority__tag_8hpp.html" target="_top" xlink:title="provides bio::meta::priority_tag.">
<polygon fill="white" stroke="black" points="502,-112.5 502,-142.5 619,-142.5 619,-112.5 502,-112.5"/>
<text text-anchor="start" x="510" y="-130.5" font-family="Helvetica,sans-Serif" font-size="10.00">bio/meta/tag/priority</text>
<text text-anchor="middle" x="560.5" y="-119.5" font-family="Helvetica,sans-Serif" font-size="10.00">_tag.hpp</text>
</a>
</g>
</g>
<!-- Node26&#45;&gt;Node34 -->
<g id="edge60" class="edge">
<title>Node26&#45;&gt;Node34</title>
<path fill="none" stroke="midnightblue" d="M430.1,-262.91C443.68,-253.4 465.6,-237.24 482.5,-221 505.59,-198.81 528.84,-170.25 543.87,-150.77"/>
<polygon fill="midnightblue" stroke="midnightblue" points="546.69,-152.84 549.98,-142.77 541.13,-148.6 546.69,-152.84"/>
</g>
<!-- Node28&#45;&gt;Node2 -->
<g id="edge48" class="edge">
<title>Node28&#45;&gt;Node2</title>
<path fill="none" stroke="midnightblue" d="M348.11,-117.98C364.85,-108.21 392.5,-92.08 412.22,-80.58"/>
<polygon fill="midnightblue" stroke="midnightblue" points="414.04,-83.57 420.91,-75.51 410.51,-77.52 414.04,-83.57"/>
</g>
<!-- Node28&#45;&gt;Node10 -->
<g id="edge51" class="edge">
<title>Node28&#45;&gt;Node10</title>
<path fill="none" stroke="midnightblue" d="M404.77,-118C422.63,-115.95 441.76,-113.83 459.5,-112 622.99,-95.16 817.2,-78.47 905.92,-71.03"/>
<polygon fill="midnightblue" stroke="midnightblue" points="906.29,-74.51 915.96,-70.19 905.7,-67.53 906.29,-74.51"/>
</g>
<!-- Node28&#45;&gt;Node14 -->
<g id="edge50" class="edge">
<title>Node28&#45;&gt;Node14</title>
<path fill="none" stroke="midnightblue" d="M326.25,-117.67C315.29,-103.21 297.33,-74.28 312.5,-56 338.5,-24.68 460.55,-15.02 519.92,-12.16"/>
<polygon fill="midnightblue" stroke="midnightblue" points="520.4,-15.64 530.23,-11.7 520.09,-8.65 520.4,-15.64"/>
</g>
<!-- Node29 -->
<g id="node29" class="node">
<title>Node29</title>
<g id="a_node29"><a target="_blank" xlink:href="https://en.cppreference.com/w/cpp/header/stdexcept.html" xlink:title=" ">
<polygon fill="white" stroke="black" points="322,-56.5 322,-75.5 387,-75.5 387,-56.5 322,-56.5"/>
<text text-anchor="middle" x="354.5" y="-63.5" font-family="Helvetica,sans-Serif" font-size="10.00">stdexcept</text>
</a>
</g>
</g>
<!-- Node28&#45;&gt;Node29 -->
<g id="edge49" class="edge">
<title>Node28&#45;&gt;Node29</title>
<path fill="none" stroke="midnightblue" d="M336.51,-117.98C339.53,-109.4 344.29,-95.93 348.15,-84.98"/>
<polygon fill="midnightblue" stroke="midnightblue" points="351.47,-86.1 351.5,-75.51 344.87,-83.77 351.47,-86.1"/>
</g>
<!-- Node30&#45;&gt;Node10 -->
<g id="edge59" class="edge">
<title>Node30&#45;&gt;Node10</title>
<path fill="none" stroke="midnightblue" d="M165.83,-120.04C191.48,-117.33 221.96,-114.28 249.5,-112 495.74,-91.58 791.02,-75.43 905.67,-69.48"/>
<polygon fill="midnightblue" stroke="midnightblue" points="906.06,-72.96 915.87,-68.95 905.7,-65.97 906.06,-72.96"/>
</g>
<!-- Node30&#45;&gt;Node14 -->
<g id="edge57" class="edge">
<title>Node30&#45;&gt;Node14</title>
<path fill="none" stroke="midnightblue" d="M141.29,-112.39C179.93,-96.73 245.35,-71.6 303.5,-56 380.03,-35.48 472.32,-21.53 520.17,-15.09"/>
<polygon fill="midnightblue" stroke="midnightblue" points="520.79,-18.54 530.24,-13.76 519.87,-11.6 520.79,-18.54"/>
</g>
<!-- Node31 -->
<g id="node31" class="node">
<title>Node31</title>
<g id="a_node31"><a target="_blank" xlink:href="https://en.cppreference.com/w/cpp/header/functional.html" xlink:title=" ">
<polygon fill="white" stroke="black" points="75,-56.5 75,-75.5 140,-75.5 140,-56.5 75,-56.5"/>
<text text-anchor="middle" x="107.5" y="-63.5" font-family="Helvetica,sans-Serif" font-size="10.00">functional</text>
</a>
</g>
</g>
<!-- Node30&#45;&gt;Node31 -->
<g id="edge55" class="edge">
<title>Node30&#45;&gt;Node31</title>
<path fill="none" stroke="midnightblue" d="M107.5,-112.4C107.5,-104.47 107.5,-94.46 107.5,-85.86"/>
<polygon fill="midnightblue" stroke="midnightblue" points="111,-85.66 107.5,-75.66 104,-85.66 111,-85.66"/>
</g>
<!-- Node32 -->
<g id="node32" class="node">
<title>Node32</title>
<g id="a_node32"><a target="_blank" xlink:href="https://en.cppreference.com/w/cpp/header/memory.html" xlink:title=" ">
<polygon fill="white" stroke="black" points="158.5,-56.5 158.5,-75.5 216.5,-75.5 216.5,-56.5 158.5,-56.5"/>
<text text-anchor="middle" x="187.5" y="-63.5" font-family="Helvetica,sans-Serif" font-size="10.00">memory</text>
</a>
</g>
</g>
<!-- Node30&#45;&gt;Node32 -->
<g id="edge56" class="edge">
<title>Node30&#45;&gt;Node32</title>
<path fill="none" stroke="midnightblue" d="M126.46,-112.4C138.92,-103.13 155.2,-91.03 167.81,-81.65"/>
<polygon fill="midnightblue" stroke="midnightblue" points="169.92,-84.43 175.86,-75.66 165.75,-78.82 169.92,-84.43"/>
</g>
<!-- Node33 -->
<g id="node33" class="node">
<title>Node33</title>
<g id="a_node33"><a target="_blank" xlink:href="https://en.cppreference.com/w/cpp/header/typeinfo.html" xlink:title=" ">
<polygon fill="white" stroke="black" points="0,-56.5 0,-75.5 57,-75.5 57,-56.5 0,-56.5"/>
<text text-anchor="middle" x="28.5" y="-63.5" font-family="Helvetica,sans-Serif" font-size="10.00">typeinfo</text>
</a>
</g>
</g>
<!-- Node30&#45;&gt;Node33 -->
<g id="edge58" class="edge">
<title>Node30&#45;&gt;Node33</title>
<path fill="none" stroke="midnightblue" d="M88.78,-112.4C76.59,-103.22 60.71,-91.26 48.31,-81.92"/>
<polygon fill="midnightblue" stroke="midnightblue" points="50.09,-78.88 40,-75.66 45.88,-84.47 50.09,-78.88"/>
</g>
<!-- Node34&#45;&gt;Node10 -->
<g id="edge61" class="edge">
<title>Node34&#45;&gt;Node10</title>
<path fill="none" stroke="midnightblue" d="M619.28,-113.51C622.05,-112.98 624.8,-112.48 627.5,-112 725.72,-94.64 841.55,-80.08 905.63,-72.54"/>
<polygon fill="midnightblue" stroke="midnightblue" points="906.32,-75.99 915.84,-71.35 905.5,-69.03 906.32,-75.99"/>
</g>
<!-- Node35&#45;&gt;Node2 -->
<g id="edge67" class="edge">
<title>Node35&#45;&gt;Node2</title>
<path fill="none" stroke="midnightblue" d="M936.78,-257.35C919.49,-248.8 899.07,-236.53 884.5,-221 847.37,-181.43 874.02,-143.02 829.5,-112 773.05,-72.66 564.57,-67.32 475.87,-66.87"/>
<polygon fill="midnightblue" stroke="midnightblue" points="475.68,-63.37 465.66,-66.84 475.65,-70.37 475.68,-63.37"/>
</g>
<!-- Node35&#45;&gt;Node8 -->
<g id="edge65" class="edge">
<title>Node35&#45;&gt;Node8</title>
<path fill="none" stroke="midnightblue" d="M1028.55,-258.65C1031.57,-258.07 1034.57,-257.52 1037.5,-257 1154.56,-236.41 1185.81,-243.62 1302.5,-221 1316.56,-218.27 1331.85,-214.58 1345.2,-211.11"/>
<polygon fill="midnightblue" stroke="midnightblue" points="1346.21,-214.46 1354.97,-208.51 1344.41,-207.69 1346.21,-214.46"/>
</g>
<!-- Node35&#45;&gt;Node9 -->
<g id="edge66" class="edge">
<title>Node35&#45;&gt;Node9</title>
<path fill="none" stroke="midnightblue" d="M1028.56,-258.71C1031.58,-258.12 1034.57,-257.54 1037.5,-257 1140.09,-237.96 1179.44,-273.69 1269.5,-221 1289.99,-209.01 1283.32,-192.99 1302.5,-179 1339.65,-151.9 1370.14,-178.39 1399.5,-143 1412.69,-127.09 1414.7,-102.73 1414.22,-85.9"/>
<polygon fill="midnightblue" stroke="midnightblue" points="1417.69,-85.41 1413.59,-75.65 1410.71,-85.84 1417.69,-85.41"/>
</g>
<!-- Node35&#45;&gt;Node10 -->
<g id="edge69" class="edge">
<title>Node35&#45;&gt;Node10</title>
<path fill="none" stroke="midnightblue" d="M969.4,-257.44C966.59,-221.56 959.16,-126.53 955.98,-85.88"/>
<polygon fill="midnightblue" stroke="midnightblue" points="959.45,-85.44 955.18,-75.74 952.47,-85.98 959.45,-85.44"/>
</g>
<!-- Node35&#45;&gt;Node14 -->
<g id="edge68" class="edge">
<title>Node35&#45;&gt;Node14</title>
<path fill="none" stroke="midnightblue" d="M964.17,-257.28C949.66,-226.28 911.01,-152.21 856.5,-112 770.97,-48.91 643.73,-23.73 584.71,-15.02"/>
<polygon fill="midnightblue" stroke="midnightblue" points="584.9,-11.51 574.51,-13.58 583.92,-18.44 584.9,-11.51"/>
</g>
<!-- Node36 -->
<g id="node36" class="node">
<title>Node36</title>
<g id="a_node36"><a target="_blank" xlink:href="https://en.cppreference.com/w/cpp/header/initializer_list.html" xlink:title=" ">
<polygon fill="white" stroke="black" points="1003,-190.5 1003,-209.5 1086,-209.5 1086,-190.5 1003,-190.5"/>
<text text-anchor="middle" x="1044.5" y="-197.5" font-family="Helvetica,sans-Serif" font-size="10.00">initializer_list</text>
</a>
</g>
</g>
<!-- Node35&#45;&gt;Node36 -->
<g id="edge64" class="edge">
<title>Node35&#45;&gt;Node36</title>
<path fill="none" stroke="midnightblue" d="M985.48,-257.23C997.67,-245.62 1014.88,-229.22 1027.58,-217.12"/>
<polygon fill="midnightblue" stroke="midnightblue" points="1030.34,-219.33 1035.17,-209.89 1025.51,-214.26 1030.34,-219.33"/>
</g>
<!-- Node37&#45;&gt;Node7 -->
<g id="edge71" class="edge">
<title>Node37&#45;&gt;Node7</title>
<path fill="none" stroke="midnightblue" d="M1542.2,-324.49C1549.49,-314.87 1558.26,-301.46 1562.5,-288 1569.66,-265.3 1569.52,-237.62 1568.36,-219.67"/>
<polygon fill="midnightblue" stroke="midnightblue" points="1571.84,-219.33 1567.54,-209.65 1564.87,-219.9 1571.84,-219.33"/>
</g>
<!-- Node37&#45;&gt;Node8 -->
<g id="edge72" class="edge">
<title>Node37&#45;&gt;Node8</title>
<path fill="none" stroke="midnightblue" d="M1459.65,-324.41C1422.87,-315.51 1383.37,-302.88 1372.5,-288 1357.84,-267.93 1365.61,-237.95 1373.12,-218.95"/>
<polygon fill="midnightblue" stroke="midnightblue" points="1376.38,-220.22 1377.12,-209.65 1369.95,-217.45 1376.38,-220.22"/>
</g>
<!-- Node37&#45;&gt;Node9 -->
<g id="edge73" class="edge">
<title>Node37&#45;&gt;Node9</title>
<path fill="none" stroke="midnightblue" d="M1547.98,-324.15C1558.39,-314.79 1571.16,-301.8 1579.5,-288 1605.07,-245.71 1624.46,-222.76 1601.5,-179 1572.45,-123.62 1503.07,-93.23 1456.95,-78.54"/>
<polygon fill="midnightblue" stroke="midnightblue" points="1457.79,-75.14 1447.2,-75.56 1455.74,-81.83 1457.79,-75.14"/>
</g>
<!-- Node37&#45;&gt;Node15 -->
<g id="edge76" class="edge">
<title>Node37&#45;&gt;Node15</title>
<path fill="none" stroke="midnightblue" d="M1457.64,-325.53C1454.55,-325 1451.5,-324.49 1448.5,-324 1358.21,-309.11 1253.76,-293.38 1186.97,-283.5"/>
<polygon fill="midnightblue" stroke="midnightblue" points="1187.39,-280.03 1176.98,-282.03 1186.37,-286.95 1187.39,-280.03"/>
</g>
<!-- Node38 -->
<g id="node38" class="node">
<title>Node38</title>
<g id="a_node38"><a xlink:href="empty__type_8hpp.html" target="_top" xlink:title="Provides bio::meta::detail::empty_type.">
<polygon fill="white" stroke="black" points="1068,-112.5 1068,-142.5 1193,-142.5 1193,-112.5 1068,-112.5"/>
<text text-anchor="start" x="1076" y="-130.5" font-family="Helvetica,sans-Serif" font-size="10.00">bio/meta/detail/empty</text>
<text text-anchor="middle" x="1130.5" y="-119.5" font-family="Helvetica,sans-Serif" font-size="10.00">_type.hpp</text>
</a>
</g>
</g>
<!-- Node37&#45;&gt;Node38 -->
<g id="edge74" class="edge">
<title>Node37&#45;&gt;Node38</title>
<path fill="none" stroke="midnightblue" d="M1457.81,-325.1C1437.5,-317.64 1417.67,-306.05 1405.5,-288 1378.27,-247.63 1447.87,-216.24 1416.5,-179 1386.14,-142.96 1253.88,-151.36 1207.5,-143 1206.04,-142.74 1204.56,-142.47 1203.06,-142.2"/>
<polygon fill="midnightblue" stroke="midnightblue" points="1203.57,-138.73 1193.1,-140.37 1202.31,-145.62 1203.57,-138.73"/>
</g>
<!-- Node38&#45;&gt;Node10 -->
<g id="edge75" class="edge">
<title>Node38&#45;&gt;Node10</title>
<path fill="none" stroke="midnightblue" d="M1088.79,-112.4C1058.51,-102.16 1018.01,-88.47 989.43,-78.81"/>
<polygon fill="midnightblue" stroke="midnightblue" points="990.45,-75.46 979.85,-75.57 988.2,-82.09 990.45,-75.46"/>
</g>
<!-- Node39&#45;&gt;Node5 -->
<g id="edge79" class="edge">
<title>Node39&#45;&gt;Node5</title>
<path fill="none" stroke="midnightblue" d="M750.32,-329.9C760.12,-307.81 786.32,-248.73 799.58,-218.84"/>
<polygon fill="midnightblue" stroke="midnightblue" points="802.83,-220.16 803.69,-209.6 796.43,-217.32 802.83,-220.16"/>
</g>
<!-- Node39&#45;&gt;Node15 -->
<g id="edge82" class="edge">
<title>Node39&#45;&gt;Node15</title>
<path fill="none" stroke="midnightblue" d="M796.2,-329.96C854.15,-319.98 952.79,-302.93 1037.5,-288 1045.12,-286.66 1053.14,-285.23 1061.04,-283.82"/>
<polygon fill="midnightblue" stroke="midnightblue" points="1061.74,-287.26 1070.97,-282.05 1060.51,-280.37 1061.74,-287.26"/>
</g>
<!-- Node39&#45;&gt;Node16 -->
<g id="edge81" class="edge">
<title>Node39&#45;&gt;Node16</title>
<path fill="none" stroke="midnightblue" d="M744.5,-329.88C740.99,-314.94 733.35,-283.33 725.5,-257 722.32,-246.34 718.43,-234.67 715,-224.76"/>
<polygon fill="midnightblue" stroke="midnightblue" points="718.25,-223.45 711.64,-215.18 711.65,-225.77 718.25,-223.45"/>
</g>
<!-- Node39&#45;&gt;Node17 -->
<g id="edge80" class="edge">
<title>Node39&#45;&gt;Node17</title>
<path fill="none" stroke="midnightblue" d="M742.23,-329.86C734.13,-314.08 715.29,-280.06 692.5,-257 672.48,-236.75 652.83,-246.16 639.5,-221 630.76,-204.5 628.18,-193.85 639.5,-179 676.1,-130.98 713.97,-164.23 770.5,-143 771.92,-142.47 773.37,-141.89 774.82,-141.28"/>
<polygon fill="midnightblue" stroke="midnightblue" points="776.56,-144.34 784.23,-137.03 773.68,-137.96 776.56,-144.34"/>
</g>
</g>
</svg>
