<?xml version="1.0" encoding="UTF-8" standalone="no"?>
<!DOCTYPE svg PUBLIC "-//W3C//DTD SVG 1.1//EN"
 "http://www.w3.org/Graphics/SVG/1.1/DTD/svg11.dtd">
<!-- Generated by graphviz version 2.43.0 (0)
 -->
<!-- Title: bio/ranges/views/repeat_n.hpp Pages: 1 -->
<svg width="566pt" height="307pt"
 viewBox="0.00 0.00 566.00 307.00" xmlns="http://www.w3.org/2000/svg" xmlns:xlink="http://www.w3.org/1999/xlink">
<g id="graph0" class="graph" transform="scale(1 1) rotate(0) translate(4 303)">
<title>bio/ranges/views/repeat_n.hpp</title>
<polygon fill="white" stroke="transparent" points="-4,4 -4,-303 562,-303 562,4 -4,4"/>
<!-- Node1 -->
<g id="node1" class="node">
<title>Node1</title>
<g id="a_node1"><a xlink:title="Provides bio::views::repeat_n.">
<polygon fill="#bfbfbf" stroke="black" points="173,-268.5 173,-298.5 307,-298.5 307,-268.5 173,-268.5"/>
<text text-anchor="start" x="181" y="-286.5" font-family="Helvetica,sans-Serif" font-size="10.00">bio/ranges/views/repeat</text>
<text text-anchor="middle" x="240" y="-275.5" font-family="Helvetica,sans-Serif" font-size="10.00">_n.hpp</text>
</a>
</g>
</g>
<!-- Node2 -->
<g id="node2" class="node">
<title>Node2</title>
<g id="a_node2"><a xlink:href="concatenated__sequences_8hpp.html" target="_top" xlink:title="Provides bio::concatenated_sequences.">
<polygon fill="white" stroke="black" points="0,-201.5 0,-231.5 164,-231.5 164,-201.5 0,-201.5"/>
<text text-anchor="start" x="8" y="-219.5" font-family="Helvetica,sans-Serif" font-size="10.00">bio/ranges/container</text>
<text text-anchor="middle" x="82" y="-208.5" font-family="Helvetica,sans-Serif" font-size="10.00">/concatenated_sequences.hpp</text>
</a>
</g>
</g>
<!-- Node1&#45;&gt;Node2 -->
<g id="edge1" class="edge">
<title>Node1&#45;&gt;Node2</title>
<path fill="none" stroke="midnightblue" d="M196.35,-264.54C171.07,-254.14 139.7,-241.24 116.22,-231.58"/>
<polygon fill="midnightblue" stroke="midnightblue" points="195.14,-267.83 205.72,-268.4 197.8,-261.35 195.14,-267.83"/>
</g>
<!-- Node5 -->
<g id="node5" class="node">
<title>Node5</title>
<g id="a_node5"><a xlink:href="dynamic__bitset_8hpp.html" target="_top" xlink:title="A constexpr bitset implementation with dynamic size at compile time.">
<polygon fill="white" stroke="black" points="182,-201.5 182,-231.5 298,-231.5 298,-201.5 182,-201.5"/>
<text text-anchor="start" x="190" y="-219.5" font-family="Helvetica,sans-Serif" font-size="10.00">bio/ranges/container</text>
<text text-anchor="middle" x="240" y="-208.5" font-family="Helvetica,sans-Serif" font-size="10.00">/dynamic_bitset.hpp</text>
</a>
</g>
</g>
<!-- Node1&#45;&gt;Node5 -->
<g id="edge4" class="edge">
<title>Node1&#45;&gt;Node5</title>
<path fill="none" stroke="midnightblue" d="M240,-258.11C240,-249.15 240,-239.32 240,-231.58"/>
<polygon fill="midnightblue" stroke="midnightblue" points="236.5,-258.4 240,-268.4 243.5,-258.4 236.5,-258.4"/>
</g>
<!-- Node6 -->
<g id="node6" class="node">
<title>Node6</title>
<g id="a_node6"><a xlink:href="small__vector_8hpp.html" target="_top" xlink:title="A constexpr vector implementation with dynamic size at compile time.">
<polygon fill="white" stroke="black" points="316,-201.5 316,-231.5 432,-231.5 432,-201.5 316,-201.5"/>
<text text-anchor="start" x="324" y="-219.5" font-family="Helvetica,sans-Serif" font-size="10.00">bio/ranges/container</text>
<text text-anchor="middle" x="374" y="-208.5" font-family="Helvetica,sans-Serif" font-size="10.00">/small_vector.hpp</text>
</a>
</g>
</g>
<!-- Node1&#45;&gt;Node6 -->
<g id="edge5" class="edge">
<title>Node1&#45;&gt;Node6</title>
<path fill="none" stroke="midnightblue" d="M278.15,-263.99C299.39,-253.69 325.41,-241.07 344.98,-231.58"/>
<polygon fill="midnightblue" stroke="midnightblue" points="276.55,-260.88 269.08,-268.4 279.6,-267.18 276.55,-260.88"/>
</g>
<!-- Node3 -->
<g id="node3" class="node">
<title>Node3</title>
<g id="a_node3"><a xlink:href="ranges_2container_2all_8hpp.html" target="_top" xlink:title="Meta&#45;header for the container submodule .">
<polygon fill="white" stroke="black" points="24,-134.5 24,-164.5 140,-164.5 140,-134.5 24,-134.5"/>
<text text-anchor="start" x="32" y="-152.5" font-family="Helvetica,sans-Serif" font-size="10.00">bio/ranges/container</text>
<text text-anchor="middle" x="82" y="-141.5" font-family="Helvetica,sans-Serif" font-size="10.00">/all.hpp</text>
</a>
</g>
</g>
<!-- Node2&#45;&gt;Node3 -->
<g id="edge2" class="edge">
<title>Node2&#45;&gt;Node3</title>
<path fill="none" stroke="midnightblue" d="M82,-191.11C82,-182.15 82,-172.32 82,-164.58"/>
<polygon fill="midnightblue" stroke="midnightblue" points="78.5,-191.4 82,-201.4 85.5,-191.4 78.5,-191.4"/>
</g>
<!-- Node4 -->
<g id="node4" class="node">
<title>Node4</title>
<g id="a_node4"><a xlink:href="ranges_2all_8hpp.html" target="_top" xlink:title="Meta&#45;header for the range module .">
<polygon fill="white" stroke="black" points="30,-73 30,-92 134,-92 134,-73 30,-73"/>
<text text-anchor="middle" x="82" y="-80" font-family="Helvetica,sans-Serif" font-size="10.00">bio/ranges/all.hpp</text>
</a>
</g>
</g>
<!-- Node3&#45;&gt;Node4 -->
<g id="edge3" class="edge">
<title>Node3&#45;&gt;Node4</title>
<path fill="none" stroke="midnightblue" d="M82,-124.25C82,-113.02 82,-100.38 82,-92.19"/>
<polygon fill="midnightblue" stroke="midnightblue" points="78.5,-124.4 82,-134.4 85.5,-124.4 78.5,-124.4"/>
</g>
<!-- Node7 -->
<g id="node7" class="node">
<title>Node7</title>
<g id="a_node7"><a xlink:href="small__string_8hpp.html" target="_top" xlink:title="A constexpr string implementation to manipulate string literals at compile time.">
<polygon fill="white" stroke="black" points="316,-134.5 316,-164.5 432,-164.5 432,-134.5 316,-134.5"/>
<text text-anchor="start" x="324" y="-152.5" font-family="Helvetica,sans-Serif" font-size="10.00">bio/ranges/container</text>
<text text-anchor="middle" x="374" y="-141.5" font-family="Helvetica,sans-Serif" font-size="10.00">/small_string.hpp</text>
</a>
</g>
</g>
<!-- Node6&#45;&gt;Node7 -->
<g id="edge6" class="edge">
<title>Node6&#45;&gt;Node7</title>
<path fill="none" stroke="midnightblue" d="M374,-191.11C374,-182.15 374,-172.32 374,-164.58"/>
<polygon fill="midnightblue" stroke="midnightblue" points="370.5,-191.4 374,-201.4 377.5,-191.4 370.5,-191.4"/>
</g>
<!-- Node8 -->
<g id="node8" class="node">
<title>Node8</title>
<g id="a_node8"><a xlink:href="cigar_8hpp.html" target="_top" xlink:title="Provides the bio::cigar alphabet.">
<polygon fill="white" stroke="black" points="168,-67.5 168,-97.5 272,-97.5 272,-67.5 168,-67.5"/>
<text text-anchor="start" x="176" y="-85.5" font-family="Helvetica,sans-Serif" font-size="10.00">bio/alphabet/cigar</text>
<text text-anchor="middle" x="220" y="-74.5" font-family="Helvetica,sans-Serif" font-size="10.00">/cigar.hpp</text>
</a>
</g>
</g>
<!-- Node7&#45;&gt;Node8 -->
<g id="edge7" class="edge">
<title>Node7&#45;&gt;Node8</title>
<path fill="none" stroke="midnightblue" d="M331.13,-130.41C306.55,-120.03 276.14,-107.2 253.35,-97.58"/>
<polygon fill="midnightblue" stroke="midnightblue" points="330.01,-133.73 340.58,-134.4 332.73,-127.28 330.01,-133.73"/>
</g>
<!-- Node9 -->
<g id="node9" class="node">
<title>Node9</title>
<g id="a_node9"><a xlink:href="translate_8hpp.html" target="_top" xlink:title="Provides bio::views::translate and bio::views::translate_single.">
<polygon fill="white" stroke="black" points="290.5,-73 290.5,-92 457.5,-92 457.5,-73 290.5,-73"/>
<text text-anchor="middle" x="374" y="-80" font-family="Helvetica,sans-Serif" font-size="10.00">bio/ranges/views/translate.hpp</text>
</a>
</g>
</g>
<!-- Node7&#45;&gt;Node9 -->
<g id="edge8" class="edge">
<title>Node7&#45;&gt;Node9</title>
<path fill="none" stroke="midnightblue" d="M374,-124.25C374,-113.02 374,-100.38 374,-92.19"/>
<polygon fill="midnightblue" stroke="midnightblue" points="370.5,-124.4 374,-134.4 377.5,-124.4 370.5,-124.4"/>
</g>
<!-- Node11 -->
<g id="node11" class="node">
<title>Node11</title>
<g id="a_node11"><a xlink:href="translate__join_8hpp.html" target="_top" xlink:title="Provides bio::views::translate_join.">
<polygon fill="white" stroke="black" points="412,-0.5 412,-30.5 558,-30.5 558,-0.5 412,-0.5"/>
<text text-anchor="start" x="420" y="-18.5" font-family="Helvetica,sans-Serif" font-size="10.00">bio/ranges/views/translate</text>
<text text-anchor="middle" x="485" y="-7.5" font-family="Helvetica,sans-Serif" font-size="10.00">_join.hpp</text>
</a>
</g>
</g>
<!-- Node7&#45;&gt;Node11 -->
<g id="edge11" class="edge">
<title>Node7&#45;&gt;Node11</title>
<path fill="none" stroke="midnightblue" d="M425.27,-129.92C440.37,-122.17 455.61,-111.7 466,-98 481.1,-78.09 484.49,-48.14 485.08,-30.63"/>
<polygon fill="midnightblue" stroke="midnightblue" points="423.43,-126.92 415.93,-134.4 426.46,-133.23 423.43,-126.92"/>
</g>
<!-- Node10 -->
<g id="node10" class="node">
<title>Node10</title>
<g id="a_node10"><a xlink:href="ranges_2views_2all_8hpp.html" target="_top" xlink:title="Meta&#45;header for the views submodule .">
<polygon fill="white" stroke="black" points="258.5,-6 258.5,-25 393.5,-25 393.5,-6 258.5,-6"/>
<text text-anchor="middle" x="326" y="-13" font-family="Helvetica,sans-Serif" font-size="10.00">bio/ranges/views/all.hpp</text>
</a>
</g>
</g>
<!-- Node9&#45;&gt;Node10 -->
<g id="edge9" class="edge">
<title>Node9&#45;&gt;Node10</title>
<path fill="none" stroke="midnightblue" d="M361.38,-64.4C352.05,-51.77 339.74,-35.1 332.37,-25.13"/>
<polygon fill="midnightblue" stroke="midnightblue" points="358.77,-66.77 367.53,-72.73 364.4,-62.61 358.77,-66.77"/>
</g>
<!-- Node9&#45;&gt;Node11 -->
<g id="edge10" class="edge">
<title>Node9&#45;&gt;Node11</title>
<path fill="none" stroke="midnightblue" d="M397.73,-67.6C416.37,-56.69 442.22,-41.55 460.94,-30.59"/>
<polygon fill="midnightblue" stroke="midnightblue" points="395.83,-64.66 388.97,-72.73 399.37,-70.7 395.83,-64.66"/>
</g>
</g>
</svg>
