<?xml version="1.0" encoding="UTF-8" standalone="no"?>
<!DOCTYPE svg PUBLIC "-//W3C//DTD SVG 1.1//EN"
 "http://www.w3.org/Graphics/SVG/1.1/DTD/svg11.dtd">
<!-- Generated by graphviz version 2.43.0 (0)
 -->
<!-- Title: bio/ranges/views/repeat.hpp Pages: 1 -->
<svg width="636pt" height="341pt"
 viewBox="0.00 0.00 635.50 341.00" xmlns="http://www.w3.org/2000/svg" xmlns:xlink="http://www.w3.org/1999/xlink">
<g id="graph0" class="graph" transform="scale(1 1) rotate(0) translate(4 337)">
<title>bio/ranges/views/repeat.hpp</title>
<polygon fill="white" stroke="transparent" points="-4,4 -4,-337 631.5,-337 631.5,4 -4,4"/>
<!-- Node1 -->
<g id="node1" class="node">
<title>Node1</title>
<g id="a_node1"><a xlink:title="Provides the views::repeat_view.">
<polygon fill="#bfbfbf" stroke="black" points="181.5,-313.5 181.5,-332.5 336.5,-332.5 336.5,-313.5 181.5,-313.5"/>
<text text-anchor="middle" x="259" y="-320.5" font-family="Helvetica,sans-Serif" font-size="10.00">bio/ranges/views/repeat.hpp</text>
</a>
</g>
</g>
<!-- Node2 -->
<g id="node2" class="node">
<title>Node2</title>
<g id="a_node2"><a target="_blank" xlink:href="https://en.cppreference.com/w/cpp/header/algorithm.html" xlink:title=" ">
<polygon fill="white" stroke="black" points="81,-252 81,-271 145,-271 145,-252 81,-252"/>
<text text-anchor="middle" x="113" y="-259" font-family="Helvetica,sans-Serif" font-size="10.00">algorithm</text>
</a>
</g>
</g>
<!-- Node1&#45;&gt;Node2 -->
<g id="edge1" class="edge">
<title>Node1&#45;&gt;Node2</title>
<path fill="none" stroke="midnightblue" d="M238.08,-313.48C213.25,-303.36 171.66,-286.4 143.31,-274.85"/>
<polygon fill="midnightblue" stroke="midnightblue" points="144.46,-271.54 133.88,-271.01 141.82,-278.02 144.46,-271.54"/>
</g>
<!-- Node3 -->
<g id="node3" class="node">
<title>Node3</title>
<g id="a_node3"><a target="_blank" xlink:href="https://en.cppreference.com/w/cpp/header/ranges.html" xlink:title=" ">
<polygon fill="white" stroke="black" points="0,-185 0,-204 50,-204 50,-185 0,-185"/>
<text text-anchor="middle" x="25" y="-192" font-family="Helvetica,sans-Serif" font-size="10.00">ranges</text>
</a>
</g>
</g>
<!-- Node1&#45;&gt;Node3 -->
<g id="edge2" class="edge">
<title>Node1&#45;&gt;Node3</title>
<path fill="none" stroke="midnightblue" d="M245.4,-313.39C231.68,-304.59 210.01,-290.35 192,-277 174.49,-264.02 172.82,-256.99 154,-246 145.29,-240.91 92.62,-220.81 57.33,-207.56"/>
<polygon fill="midnightblue" stroke="midnightblue" points="58.48,-204.25 47.89,-204.02 56.02,-210.81 58.48,-204.25"/>
</g>
<!-- Node4 -->
<g id="node4" class="node">
<title>Node4</title>
<g id="a_node4"><a xlink:href="iterator_8hpp.html" target="_top" xlink:title="Provides various transformation traits for use on iterators.">
<polygon fill="white" stroke="black" points="316,-179.5 316,-209.5 432,-209.5 432,-179.5 316,-179.5"/>
<text text-anchor="start" x="324" y="-197.5" font-family="Helvetica,sans-Serif" font-size="10.00">bio/meta/type_traits</text>
<text text-anchor="middle" x="374" y="-186.5" font-family="Helvetica,sans-Serif" font-size="10.00">/iterator.hpp</text>
</a>
</g>
</g>
<!-- Node1&#45;&gt;Node4 -->
<g id="edge3" class="edge">
<title>Node1&#45;&gt;Node4</title>
<path fill="none" stroke="midnightblue" d="M275.96,-313.43C290.51,-305.46 311.39,-292.5 326,-277 342.1,-259.92 355.19,-236.5 363.6,-219.15"/>
<polygon fill="midnightblue" stroke="midnightblue" points="366.94,-220.27 368.01,-209.73 360.6,-217.31 366.94,-220.27"/>
</g>
<!-- Node12 -->
<g id="node12" class="node">
<title>Node12</title>
<g id="a_node12"><a xlink:href="range_8hpp.html" target="_top" xlink:title="Provides various transformation traits used by the range module.">
<polygon fill="white" stroke="black" points="201,-246.5 201,-276.5 317,-276.5 317,-246.5 201,-246.5"/>
<text text-anchor="start" x="209" y="-264.5" font-family="Helvetica,sans-Serif" font-size="10.00">bio/meta/type_traits</text>
<text text-anchor="middle" x="259" y="-253.5" font-family="Helvetica,sans-Serif" font-size="10.00">/range.hpp</text>
</a>
</g>
</g>
<!-- Node1&#45;&gt;Node12 -->
<g id="edge12" class="edge">
<title>Node1&#45;&gt;Node12</title>
<path fill="none" stroke="midnightblue" d="M259,-313.48C259,-306.47 259,-296.19 259,-286.7"/>
<polygon fill="midnightblue" stroke="midnightblue" points="262.5,-286.52 259,-276.52 255.5,-286.52 262.5,-286.52"/>
</g>
<!-- Node15 -->
<g id="node15" class="node">
<title>Node15</title>
<g id="a_node15"><a xlink:href="random__access__iterator_8hpp.html" target="_top" xlink:title="Provides the bio::detail::random_access_iterator class.">
<polygon fill="white" stroke="black" points="488.5,-179.5 488.5,-209.5 627.5,-209.5 627.5,-179.5 488.5,-179.5"/>
<text text-anchor="start" x="496.5" y="-197.5" font-family="Helvetica,sans-Serif" font-size="10.00">bio/ranges/detail/random</text>
<text text-anchor="middle" x="558" y="-186.5" font-family="Helvetica,sans-Serif" font-size="10.00">_access_iterator.hpp</text>
</a>
</g>
</g>
<!-- Node1&#45;&gt;Node15 -->
<g id="edge23" class="edge">
<title>Node1&#45;&gt;Node15</title>
<path fill="none" stroke="midnightblue" d="M279.55,-313.31C327.87,-292.86 449.51,-241.4 514.88,-213.75"/>
<polygon fill="midnightblue" stroke="midnightblue" points="516.63,-216.8 524.48,-209.68 513.91,-210.36 516.63,-216.8"/>
</g>
<!-- Node5 -->
<g id="node5" class="node">
<title>Node5</title>
<g id="a_node5"><a target="_blank" xlink:href="https://en.cppreference.com/w/cpp/header/iterator.html" xlink:title=" ">
<polygon fill="white" stroke="black" points="464.5,-118 464.5,-137 517.5,-137 517.5,-118 464.5,-118"/>
<text text-anchor="middle" x="491" y="-125" font-family="Helvetica,sans-Serif" font-size="10.00">iterator</text>
</a>
</g>
</g>
<!-- Node4&#45;&gt;Node5 -->
<g id="edge4" class="edge">
<title>Node4&#45;&gt;Node5</title>
<path fill="none" stroke="midnightblue" d="M399.39,-179.4C419.37,-168.29 447.04,-152.92 466.73,-141.98"/>
<polygon fill="midnightblue" stroke="midnightblue" points="468.65,-144.92 475.69,-137.01 465.25,-138.8 468.65,-144.92"/>
</g>
<!-- Node6 -->
<g id="node6" class="node">
<title>Node6</title>
<g id="a_node6"><a target="_blank" xlink:href="https://en.cppreference.com/w/cpp/header/type_traits.html" xlink:title=" ">
<polygon fill="white" stroke="black" points="338.5,-118 338.5,-137 407.5,-137 407.5,-118 338.5,-118"/>
<text text-anchor="middle" x="373" y="-125" font-family="Helvetica,sans-Serif" font-size="10.00">type_traits</text>
</a>
</g>
</g>
<!-- Node4&#45;&gt;Node6 -->
<g id="edge5" class="edge">
<title>Node4&#45;&gt;Node6</title>
<path fill="none" stroke="midnightblue" d="M373.78,-179.4C373.64,-170.06 373.45,-157.71 373.29,-147.52"/>
<polygon fill="midnightblue" stroke="midnightblue" points="376.79,-147.14 373.13,-137.19 369.79,-147.25 376.79,-147.14"/>
</g>
<!-- Node7 -->
<g id="node7" class="node">
<title>Node7</title>
<g id="a_node7"><a xlink:href="platform_8hpp.html" target="_top" xlink:title="Provides platform and dependency checks.">
<polygon fill="white" stroke="black" points="199,-56.5 199,-75.5 325,-75.5 325,-56.5 199,-56.5"/>
<text text-anchor="middle" x="262" y="-63.5" font-family="Helvetica,sans-Serif" font-size="10.00">bio/meta/platform.hpp</text>
</a>
</g>
</g>
<!-- Node4&#45;&gt;Node7 -->
<g id="edge6" class="edge">
<title>Node4&#45;&gt;Node7</title>
<path fill="none" stroke="midnightblue" d="M390.83,-179.45C409.01,-162.55 433.33,-133.75 417,-112 405.65,-96.88 363.2,-85.2 325.59,-77.53"/>
<polygon fill="midnightblue" stroke="midnightblue" points="326.13,-74.07 315.64,-75.57 324.78,-80.94 326.13,-74.07"/>
</g>
<!-- Node11 -->
<g id="node11" class="node">
<title>Node11</title>
<g id="a_node11"><a xlink:href="pre_8hpp.html" target="_top" xlink:title="Provides various transformation trait base templates and shortcuts.">
<polygon fill="white" stroke="black" points="204,-112.5 204,-142.5 320,-142.5 320,-112.5 204,-112.5"/>
<text text-anchor="start" x="212" y="-130.5" font-family="Helvetica,sans-Serif" font-size="10.00">bio/meta/type_traits</text>
<text text-anchor="middle" x="262" y="-119.5" font-family="Helvetica,sans-Serif" font-size="10.00">/pre.hpp</text>
</a>
</g>
</g>
<!-- Node4&#45;&gt;Node11 -->
<g id="edge10" class="edge">
<title>Node4&#45;&gt;Node11</title>
<path fill="none" stroke="midnightblue" d="M349.7,-179.4C333.7,-170.11 312.56,-157.84 295.04,-147.67"/>
<polygon fill="midnightblue" stroke="midnightblue" points="296.66,-144.57 286.25,-142.58 293.15,-150.62 296.66,-144.57"/>
</g>
<!-- Node8 -->
<g id="node8" class="node">
<title>Node8</title>
<g id="a_node8"><a target="_blank" xlink:href="https://en.cppreference.com/w/cpp/header/cinttypes.html" xlink:title=" ">
<polygon fill="white" stroke="black" points="155,-0.5 155,-19.5 217,-19.5 217,-0.5 155,-0.5"/>
<text text-anchor="middle" x="186" y="-7.5" font-family="Helvetica,sans-Serif" font-size="10.00">cinttypes</text>
</a>
</g>
</g>
<!-- Node7&#45;&gt;Node8 -->
<g id="edge7" class="edge">
<title>Node7&#45;&gt;Node8</title>
<path fill="none" stroke="midnightblue" d="M249.79,-56.32C238.22,-48.11 220.62,-35.6 206.84,-25.81"/>
<polygon fill="midnightblue" stroke="midnightblue" points="208.61,-22.77 198.43,-19.83 204.56,-28.48 208.61,-22.77"/>
</g>
<!-- Node9 -->
<g id="node9" class="node">
<title>Node9</title>
<g id="a_node9"><a target="_blank" xlink:href="https://en.cppreference.com/w/cpp/header/ciso646.html" xlink:title=" ">
<polygon fill="white" stroke="black" points="235,-0.5 235,-19.5 289,-19.5 289,-0.5 235,-0.5"/>
<text text-anchor="middle" x="262" y="-7.5" font-family="Helvetica,sans-Serif" font-size="10.00">ciso646</text>
</a>
</g>
</g>
<!-- Node7&#45;&gt;Node9 -->
<g id="edge8" class="edge">
<title>Node7&#45;&gt;Node9</title>
<path fill="none" stroke="midnightblue" d="M262,-56.08C262,-49.01 262,-38.86 262,-29.99"/>
<polygon fill="midnightblue" stroke="midnightblue" points="265.5,-29.75 262,-19.75 258.5,-29.75 265.5,-29.75"/>
</g>
<!-- Node10 -->
<g id="node10" class="node">
<title>Node10</title>
<g id="a_node10"><a target="_blank" xlink:href="https://en.cppreference.com/w/cpp/header/cstddef.html" xlink:title=" ">
<polygon fill="white" stroke="black" points="307.5,-0.5 307.5,-19.5 360.5,-19.5 360.5,-0.5 307.5,-0.5"/>
<text text-anchor="middle" x="334" y="-7.5" font-family="Helvetica,sans-Serif" font-size="10.00">cstddef</text>
</a>
</g>
</g>
<!-- Node7&#45;&gt;Node10 -->
<g id="edge9" class="edge">
<title>Node7&#45;&gt;Node10</title>
<path fill="none" stroke="midnightblue" d="M273.57,-56.32C284.42,-48.18 300.88,-35.84 313.88,-26.09"/>
<polygon fill="midnightblue" stroke="midnightblue" points="316.32,-28.63 322.22,-19.83 312.12,-23.03 316.32,-28.63"/>
</g>
<!-- Node11&#45;&gt;Node7 -->
<g id="edge11" class="edge">
<title>Node11&#45;&gt;Node7</title>
<path fill="none" stroke="midnightblue" d="M262,-112.4C262,-104.47 262,-94.46 262,-85.86"/>
<polygon fill="midnightblue" stroke="midnightblue" points="265.5,-85.66 262,-75.66 258.5,-85.66 265.5,-85.66"/>
</g>
<!-- Node12&#45;&gt;Node3 -->
<g id="edge21" class="edge">
<title>Node12&#45;&gt;Node3</title>
<path fill="none" stroke="midnightblue" d="M200.96,-247.12C161.95,-237.73 109.54,-224.32 64,-210 61.44,-209.19 58.8,-208.32 56.16,-207.41"/>
<polygon fill="midnightblue" stroke="midnightblue" points="57.32,-204.11 46.73,-204.03 54.96,-210.7 57.32,-204.11"/>
</g>
<!-- Node12&#45;&gt;Node4 -->
<g id="edge20" class="edge">
<title>Node12&#45;&gt;Node4</title>
<path fill="none" stroke="midnightblue" d="M283.95,-246.4C300.38,-237.11 322.09,-224.84 340.08,-214.67"/>
<polygon fill="midnightblue" stroke="midnightblue" points="342.11,-217.54 349.1,-209.58 338.67,-211.45 342.11,-217.54"/>
</g>
<!-- Node12&#45;&gt;Node5 -->
<g id="edge22" class="edge">
<title>Node12&#45;&gt;Node5</title>
<path fill="none" stroke="midnightblue" d="M317.16,-255.43C355.52,-249.59 405.12,-237.03 441,-210 462.6,-193.73 476.96,-165.16 484.55,-146.53"/>
<polygon fill="midnightblue" stroke="midnightblue" points="487.84,-147.71 488.15,-137.12 481.31,-145.2 487.84,-147.71"/>
</g>
<!-- Node12&#45;&gt;Node6 -->
<g id="edge13" class="edge">
<title>Node12&#45;&gt;Node6</title>
<path fill="none" stroke="midnightblue" d="M265.2,-246.46C273.22,-229.32 288.38,-200.02 307,-179 319.64,-164.74 336.8,-151.75 350.46,-142.52"/>
<polygon fill="midnightblue" stroke="midnightblue" points="352.4,-145.43 358.84,-137.02 348.56,-139.58 352.4,-145.43"/>
</g>
<!-- Node12&#45;&gt;Node7 -->
<g id="edge14" class="edge">
<title>Node12&#45;&gt;Node7</title>
<path fill="none" stroke="midnightblue" d="M202.48,-246.39C158.4,-234.81 103.57,-218.93 97,-210 71.19,-174.92 70.56,-146.61 97,-112 108.96,-96.34 152.89,-84.82 192.41,-77.36"/>
<polygon fill="midnightblue" stroke="midnightblue" points="193.13,-80.78 202.34,-75.55 191.87,-73.9 193.13,-80.78"/>
</g>
<!-- Node12&#45;&gt;Node11 -->
<g id="edge15" class="edge">
<title>Node12&#45;&gt;Node11</title>
<path fill="none" stroke="midnightblue" d="M259.32,-246.37C259.83,-224.04 260.82,-180.31 261.45,-152.85"/>
<polygon fill="midnightblue" stroke="midnightblue" points="264.95,-152.6 261.68,-142.52 257.95,-152.44 264.95,-152.6"/>
</g>
<!-- Node13 -->
<g id="node13" class="node">
<title>Node13</title>
<g id="a_node13"><a xlink:href="basic_8hpp.html" target="_top" xlink:title="Provides various type traits on generic types.">
<polygon fill="white" stroke="black" points="106,-179.5 106,-209.5 222,-209.5 222,-179.5 106,-179.5"/>
<text text-anchor="start" x="114" y="-197.5" font-family="Helvetica,sans-Serif" font-size="10.00">bio/meta/type_traits</text>
<text text-anchor="middle" x="164" y="-186.5" font-family="Helvetica,sans-Serif" font-size="10.00">/basic.hpp</text>
</a>
</g>
</g>
<!-- Node12&#45;&gt;Node13 -->
<g id="edge16" class="edge">
<title>Node12&#45;&gt;Node13</title>
<path fill="none" stroke="midnightblue" d="M238.39,-246.4C225.07,-237.28 207.54,-225.29 192.84,-215.24"/>
<polygon fill="midnightblue" stroke="midnightblue" points="194.8,-212.33 184.57,-209.58 190.85,-218.11 194.8,-212.33"/>
</g>
<!-- Node13&#45;&gt;Node6 -->
<g id="edge18" class="edge">
<title>Node13&#45;&gt;Node6</title>
<path fill="none" stroke="midnightblue" d="M211.02,-179.4C244.08,-169.42 289.31,-155.61 329,-143 331.9,-142.08 334.9,-141.12 337.91,-140.14"/>
<polygon fill="midnightblue" stroke="midnightblue" points="339.02,-143.46 347.44,-137.03 336.84,-136.8 339.02,-143.46"/>
</g>
<!-- Node13&#45;&gt;Node7 -->
<g id="edge19" class="edge">
<title>Node13&#45;&gt;Node7</title>
<path fill="none" stroke="midnightblue" d="M166.66,-179.21C170.47,-161.82 178.9,-132.27 195,-112 205.48,-98.81 220.9,-88.08 234.3,-80.41"/>
<polygon fill="midnightblue" stroke="midnightblue" points="236.05,-83.44 243.18,-75.6 232.72,-77.29 236.05,-83.44"/>
</g>
<!-- Node14 -->
<g id="node14" class="node">
<title>Node14</title>
<g id="a_node14"><a target="_blank" xlink:href="https://en.cppreference.com/w/cpp/header/tuple.html" xlink:title=" ">
<polygon fill="white" stroke="black" points="106.5,-118 106.5,-137 147.5,-137 147.5,-118 106.5,-118"/>
<text text-anchor="middle" x="127" y="-125" font-family="Helvetica,sans-Serif" font-size="10.00">tuple</text>
</a>
</g>
</g>
<!-- Node13&#45;&gt;Node14 -->
<g id="edge17" class="edge">
<title>Node13&#45;&gt;Node14</title>
<path fill="none" stroke="midnightblue" d="M155.97,-179.4C150.37,-169.56 142.87,-156.38 136.9,-145.89"/>
<polygon fill="midnightblue" stroke="midnightblue" points="139.94,-144.15 131.95,-137.19 133.85,-147.62 139.94,-144.15"/>
</g>
<!-- Node15&#45;&gt;Node5 -->
<g id="edge25" class="edge">
<title>Node15&#45;&gt;Node5</title>
<path fill="none" stroke="midnightblue" d="M543.46,-179.4C532.81,-169.06 518.34,-155.02 507.3,-144.31"/>
<polygon fill="midnightblue" stroke="midnightblue" points="509.58,-141.65 499.96,-137.19 504.7,-146.67 509.58,-141.65"/>
</g>
<!-- Node15&#45;&gt;Node6 -->
<g id="edge26" class="edge">
<title>Node15&#45;&gt;Node6</title>
<path fill="none" stroke="midnightblue" d="M517.86,-179.4C484.68,-167.74 438.1,-151.37 406.8,-140.38"/>
<polygon fill="midnightblue" stroke="midnightblue" points="407.81,-137.02 397.21,-137.01 405.49,-143.62 407.81,-137.02"/>
</g>
<!-- Node15&#45;&gt;Node7 -->
<g id="edge27" class="edge">
<title>Node15&#45;&gt;Node7</title>
<path fill="none" stroke="midnightblue" d="M556.8,-179.24C554.44,-160.73 547.47,-128.82 527,-112 498.41,-88.51 403.52,-76.85 335.46,-71.38"/>
<polygon fill="midnightblue" stroke="midnightblue" points="335.45,-67.87 325.21,-70.59 334.91,-74.85 335.45,-67.87"/>
</g>
<!-- Node16 -->
<g id="node16" class="node">
<title>Node16</title>
<g id="a_node16"><a target="_blank" xlink:href="https://en.cppreference.com/w/cpp/header/cassert.html" xlink:title=" ">
<polygon fill="white" stroke="black" points="574,-118 574,-137 626,-137 626,-118 574,-118"/>
<text text-anchor="middle" x="600" y="-125" font-family="Helvetica,sans-Serif" font-size="10.00">cassert</text>
</a>
</g>
</g>
<!-- Node15&#45;&gt;Node16 -->
<g id="edge24" class="edge">
<title>Node15&#45;&gt;Node16</title>
<path fill="none" stroke="midnightblue" d="M567.11,-179.4C573.47,-169.56 581.99,-156.38 588.76,-145.89"/>
<polygon fill="midnightblue" stroke="midnightblue" points="591.89,-147.49 594.38,-137.19 586.02,-143.69 591.89,-147.49"/>
</g>
</g>
</svg>
