<?xml version="1.0" encoding="UTF-8" standalone="no"?>
<!DOCTYPE svg PUBLIC "-//W3C//DTD SVG 1.1//EN"
 "http://www.w3.org/Graphics/SVG/1.1/DTD/svg11.dtd">
<!-- Generated by graphviz version 2.42.2 ()
 -->
<!-- Title: bio/ranges/views/repeat.hpp Pages: 1 -->
<svg width="515pt" height="274pt"
 viewBox="0.00 0.00 514.50 274.00" xmlns="http://www.w3.org/2000/svg" xmlns:xlink="http://www.w3.org/1999/xlink">
<g id="graph0" class="graph" transform="scale(1 1) rotate(0) translate(4 270)">
<title>bio/ranges/views/repeat.hpp</title>
<polygon fill="white" stroke="transparent" points="-4,4 -4,-270 510.5,-270 510.5,4 -4,4"/>
<!-- Node1 -->
<g id="node1" class="node">
<title>Node1</title>
<g id="a_node1"><a xlink:title="Provides the views::repeat_view.">
<polygon fill="#bfbfbf" stroke="black" points="66.5,-246.5 66.5,-265.5 205.5,-265.5 205.5,-246.5 66.5,-246.5"/>
<text text-anchor="middle" x="136" y="-253.5" font-family="Helvetica,sans-Serif" font-size="10.00">bio/ranges/views/repeat.hpp</text>
</a>
</g>
</g>
<!-- Node2 -->
<g id="node2" class="node">
<title>Node2</title>
<g id="a_node2"><a target="_blank" xlink:href="https://en.cppreference.com/w/cpp/header/algorithm.html" xlink:title=" ">
<polygon fill="white" stroke="black" points="6,-185 6,-204 62,-204 62,-185 6,-185"/>
<text text-anchor="middle" x="34" y="-192" font-family="Helvetica,sans-Serif" font-size="10.00">algorithm</text>
</a>
</g>
</g>
<!-- Node1&#45;&gt;Node2 -->
<g id="edge1" class="edge">
<title>Node1&#45;&gt;Node2</title>
<path fill="none" stroke="midnightblue" d="M121.39,-246.48C104.65,-236.71 77,-220.58 57.28,-209.08"/>
<polygon fill="midnightblue" stroke="midnightblue" points="58.99,-206.02 48.59,-204.01 55.46,-212.07 58.99,-206.02"/>
</g>
<!-- Node3 -->
<g id="node3" class="node">
<title>Node3</title>
<g id="a_node3"><a target="_blank" xlink:href="https://en.cppreference.com/w/cpp/header/ranges.html" xlink:title=" ">
<polygon fill="white" stroke="black" points="0,-118 0,-137 46,-137 46,-118 0,-118"/>
<text text-anchor="middle" x="23" y="-125" font-family="Helvetica,sans-Serif" font-size="10.00">ranges</text>
</a>
</g>
</g>
<!-- Node1&#45;&gt;Node3 -->
<g id="edge2" class="edge">
<title>Node1&#45;&gt;Node3</title>
<path fill="none" stroke="midnightblue" d="M128.93,-246.44C117.14,-232.24 92.63,-202.98 71,-179 60.49,-167.35 48.31,-154.54 38.85,-144.74"/>
<polygon fill="midnightblue" stroke="midnightblue" points="41.12,-142.05 31.64,-137.31 36.09,-146.92 41.12,-142.05"/>
</g>
<!-- Node4 -->
<g id="node4" class="node">
<title>Node4</title>
<g id="a_node4"><a xlink:href="random__access__iterator_8hpp.html" target="_top" xlink:title="Provides the bio::ranges::detail::random_access_iterator class.">
<polygon fill="white" stroke="black" points="265.5,-179.5 265.5,-209.5 388.5,-209.5 388.5,-179.5 265.5,-179.5"/>
<text text-anchor="start" x="273.5" y="-197.5" font-family="Helvetica,sans-Serif" font-size="10.00">bio/ranges/detail/random</text>
<text text-anchor="middle" x="327" y="-186.5" font-family="Helvetica,sans-Serif" font-size="10.00">_access_iterator.hpp</text>
</a>
</g>
</g>
<!-- Node1&#45;&gt;Node4 -->
<g id="edge3" class="edge">
<title>Node1&#45;&gt;Node4</title>
<path fill="none" stroke="midnightblue" d="M163.37,-246.48C191.65,-237.66 236.58,-223.67 272.2,-212.57"/>
<polygon fill="midnightblue" stroke="midnightblue" points="273.48,-215.84 281.99,-209.52 271.4,-209.16 273.48,-215.84"/>
</g>
<!-- Node13 -->
<g id="node13" class="node">
<title>Node13</title>
<g id="a_node13"><a xlink:href="type__traits_8hpp.html" target="_top" xlink:title="Provides various transformation traits used by the range module.">
<polygon fill="white" stroke="black" points="118.5,-185 118.5,-204 247.5,-204 247.5,-185 118.5,-185"/>
<text text-anchor="middle" x="183" y="-192" font-family="Helvetica,sans-Serif" font-size="10.00">bio/ranges/type_traits.hpp</text>
</a>
</g>
</g>
<!-- Node1&#45;&gt;Node13 -->
<g id="edge12" class="edge">
<title>Node1&#45;&gt;Node13</title>
<path fill="none" stroke="midnightblue" d="M142.73,-246.48C149.78,-237.55 161.03,-223.31 169.85,-212.14"/>
<polygon fill="midnightblue" stroke="midnightblue" points="172.83,-214.03 176.28,-204.01 167.33,-209.69 172.83,-214.03"/>
</g>
<!-- Node5 -->
<g id="node5" class="node">
<title>Node5</title>
<g id="a_node5"><a target="_blank" xlink:href="https://en.cppreference.com/w/cpp/header/cassert.html" xlink:title=" ">
<polygon fill="white" stroke="black" points="457.5,-118 457.5,-137 506.5,-137 506.5,-118 457.5,-118"/>
<text text-anchor="middle" x="482" y="-125" font-family="Helvetica,sans-Serif" font-size="10.00">cassert</text>
</a>
</g>
</g>
<!-- Node4&#45;&gt;Node5 -->
<g id="edge4" class="edge">
<title>Node4&#45;&gt;Node5</title>
<path fill="none" stroke="midnightblue" d="M361.53,-179.44C386,-169.42 419.59,-155.55 449,-143 450.4,-142.4 451.84,-141.79 453.29,-141.16"/>
<polygon fill="midnightblue" stroke="midnightblue" points="455.06,-144.2 462.84,-137 452.27,-137.79 455.06,-144.2"/>
</g>
<!-- Node6 -->
<g id="node6" class="node">
<title>Node6</title>
<g id="a_node6"><a target="_blank" xlink:href="https://en.cppreference.com/w/cpp/header/iterator.html" xlink:title=" ">
<polygon fill="white" stroke="black" points="392.5,-118 392.5,-137 439.5,-137 439.5,-118 392.5,-118"/>
<text text-anchor="middle" x="416" y="-125" font-family="Helvetica,sans-Serif" font-size="10.00">iterator</text>
</a>
</g>
</g>
<!-- Node4&#45;&gt;Node6 -->
<g id="edge5" class="edge">
<title>Node4&#45;&gt;Node6</title>
<path fill="none" stroke="midnightblue" d="M346.31,-179.4C360.96,-168.7 381.04,-154.03 395.88,-143.19"/>
<polygon fill="midnightblue" stroke="midnightblue" points="398.34,-145.73 404.35,-137.01 394.21,-140.08 398.34,-145.73"/>
</g>
<!-- Node7 -->
<g id="node7" class="node">
<title>Node7</title>
<g id="a_node7"><a target="_blank" xlink:href="https://en.cppreference.com/w/cpp/header/type_traits.html" xlink:title=" ">
<polygon fill="white" stroke="black" points="81,-56.5 81,-75.5 143,-75.5 143,-56.5 81,-56.5"/>
<text text-anchor="middle" x="112" y="-63.5" font-family="Helvetica,sans-Serif" font-size="10.00">type_traits</text>
</a>
</g>
</g>
<!-- Node4&#45;&gt;Node7 -->
<g id="edge6" class="edge">
<title>Node4&#45;&gt;Node7</title>
<path fill="none" stroke="midnightblue" d="M265.32,-180.91C211.55,-169.4 140.67,-152.74 131,-143 116.13,-128.02 112.31,-103.27 111.6,-86.11"/>
<polygon fill="midnightblue" stroke="midnightblue" points="115.1,-85.62 111.51,-75.65 108.1,-85.67 115.1,-85.62"/>
</g>
<!-- Node8 -->
<g id="node8" class="node">
<title>Node8</title>
<g id="a_node8"><a xlink:href="ranges_2biocpp_8hpp.html" target="_top" xlink:title="Module header with module&#45;wide definitions.">
<polygon fill="white" stroke="black" points="262,-118 262,-137 374,-137 374,-118 262,-118"/>
<text text-anchor="middle" x="318" y="-125" font-family="Helvetica,sans-Serif" font-size="10.00">bio/ranges/biocpp.hpp</text>
</a>
</g>
</g>
<!-- Node4&#45;&gt;Node8 -->
<g id="edge7" class="edge">
<title>Node4&#45;&gt;Node8</title>
<path fill="none" stroke="midnightblue" d="M325.05,-179.4C323.74,-169.96 322.01,-157.45 320.59,-147.19"/>
<polygon fill="midnightblue" stroke="midnightblue" points="324.04,-146.62 319.2,-137.19 317.11,-147.58 324.04,-146.62"/>
</g>
<!-- Node9 -->
<g id="node9" class="node">
<title>Node9</title>
<g id="a_node9"><a xlink:href="platform_8hpp.html" target="_top" xlink:title="Provides platform and dependency checks.">
<polygon fill="white" stroke="black" points="245.5,-56.5 245.5,-75.5 356.5,-75.5 356.5,-56.5 245.5,-56.5"/>
<text text-anchor="middle" x="301" y="-63.5" font-family="Helvetica,sans-Serif" font-size="10.00">bio/meta/platform.hpp</text>
</a>
</g>
</g>
<!-- Node8&#45;&gt;Node9 -->
<g id="edge8" class="edge">
<title>Node8&#45;&gt;Node9</title>
<path fill="none" stroke="midnightblue" d="M315.56,-117.98C313.14,-109.49 309.34,-96.2 306.23,-85.32"/>
<polygon fill="midnightblue" stroke="midnightblue" points="309.54,-84.16 303.43,-75.51 302.81,-86.09 309.54,-84.16"/>
</g>
<!-- Node10 -->
<g id="node10" class="node">
<title>Node10</title>
<g id="a_node10"><a target="_blank" xlink:href="https://en.cppreference.com/w/cpp/header/cinttypes.html" xlink:title=" ">
<polygon fill="white" stroke="black" points="202,-0.5 202,-19.5 258,-19.5 258,-0.5 202,-0.5"/>
<text text-anchor="middle" x="230" y="-7.5" font-family="Helvetica,sans-Serif" font-size="10.00">cinttypes</text>
</a>
</g>
</g>
<!-- Node9&#45;&gt;Node10 -->
<g id="edge9" class="edge">
<title>Node9&#45;&gt;Node10</title>
<path fill="none" stroke="midnightblue" d="M289.59,-56.32C278.89,-48.18 262.66,-35.84 249.84,-26.09"/>
<polygon fill="midnightblue" stroke="midnightblue" points="251.69,-23.1 241.61,-19.83 247.46,-28.67 251.69,-23.1"/>
</g>
<!-- Node11 -->
<g id="node11" class="node">
<title>Node11</title>
<g id="a_node11"><a target="_blank" xlink:href="https://en.cppreference.com/w/cpp/header/ciso646.html" xlink:title=" ">
<polygon fill="white" stroke="black" points="276,-0.5 276,-19.5 326,-19.5 326,-0.5 276,-0.5"/>
<text text-anchor="middle" x="301" y="-7.5" font-family="Helvetica,sans-Serif" font-size="10.00">ciso646</text>
</a>
</g>
</g>
<!-- Node9&#45;&gt;Node11 -->
<g id="edge10" class="edge">
<title>Node9&#45;&gt;Node11</title>
<path fill="none" stroke="midnightblue" d="M301,-56.08C301,-49.01 301,-38.86 301,-29.99"/>
<polygon fill="midnightblue" stroke="midnightblue" points="304.5,-29.75 301,-19.75 297.5,-29.75 304.5,-29.75"/>
</g>
<!-- Node12 -->
<g id="node12" class="node">
<title>Node12</title>
<g id="a_node12"><a target="_blank" xlink:href="https://en.cppreference.com/w/cpp/header/cstddef.html" xlink:title=" ">
<polygon fill="white" stroke="black" points="344.5,-0.5 344.5,-19.5 393.5,-19.5 393.5,-0.5 344.5,-0.5"/>
<text text-anchor="middle" x="369" y="-7.5" font-family="Helvetica,sans-Serif" font-size="10.00">cstddef</text>
</a>
</g>
</g>
<!-- Node9&#45;&gt;Node12 -->
<g id="edge11" class="edge">
<title>Node9&#45;&gt;Node12</title>
<path fill="none" stroke="midnightblue" d="M311.93,-56.32C322.17,-48.18 337.72,-35.84 350,-26.09"/>
<polygon fill="midnightblue" stroke="midnightblue" points="352.22,-28.79 357.88,-19.83 347.87,-23.31 352.22,-28.79"/>
</g>
<!-- Node13&#45;&gt;Node3 -->
<g id="edge14" class="edge">
<title>Node13&#45;&gt;Node3</title>
<path fill="none" stroke="midnightblue" d="M161.75,-184.87C134.06,-173.62 85.44,-153.87 53.73,-140.99"/>
<polygon fill="midnightblue" stroke="midnightblue" points="54.66,-137.58 44.08,-137.06 52.03,-144.07 54.66,-137.58"/>
</g>
<!-- Node13&#45;&gt;Node6 -->
<g id="edge13" class="edge">
<title>Node13&#45;&gt;Node6</title>
<path fill="none" stroke="midnightblue" d="M225.35,-184.96C266.24,-176.21 329.65,-161.31 383,-143 384.86,-142.36 386.77,-141.66 388.68,-140.92"/>
<polygon fill="midnightblue" stroke="midnightblue" points="390.16,-144.09 398.06,-137.03 387.48,-137.63 390.16,-144.09"/>
</g>
<!-- Node13&#45;&gt;Node7 -->
<g id="edge15" class="edge">
<title>Node13&#45;&gt;Node7</title>
<path fill="none" stroke="midnightblue" d="M154.62,-184.98C134.89,-177.41 110.06,-164.18 98,-143 87.77,-125.02 94.94,-101.12 102.27,-84.96"/>
<polygon fill="midnightblue" stroke="midnightblue" points="105.6,-86.11 106.92,-75.6 99.34,-83 105.6,-86.11"/>
</g>
<!-- Node13&#45;&gt;Node8 -->
<g id="edge20" class="edge">
<title>Node13&#45;&gt;Node8</title>
<path fill="none" stroke="midnightblue" d="M200.93,-184.87C223.92,-173.8 264.03,-154.49 290.8,-141.6"/>
<polygon fill="midnightblue" stroke="midnightblue" points="292.51,-144.66 300,-137.17 289.47,-138.35 292.51,-144.66"/>
</g>
<!-- Node14 -->
<g id="node14" class="node">
<title>Node14</title>
<g id="a_node14"><a xlink:href="basic_8hpp.html" target="_top" xlink:title="Provides various type traits on generic types.">
<polygon fill="white" stroke="black" points="140.5,-112.5 140.5,-142.5 243.5,-142.5 243.5,-112.5 140.5,-112.5"/>
<text text-anchor="start" x="148.5" y="-130.5" font-family="Helvetica,sans-Serif" font-size="10.00">bio/meta/type_traits</text>
<text text-anchor="middle" x="192" y="-119.5" font-family="Helvetica,sans-Serif" font-size="10.00">/basic.hpp</text>
</a>
</g>
</g>
<!-- Node13&#45;&gt;Node14 -->
<g id="edge16" class="edge">
<title>Node13&#45;&gt;Node14</title>
<path fill="none" stroke="midnightblue" d="M184.21,-184.73C185.35,-176.54 187.1,-163.92 188.65,-152.71"/>
<polygon fill="midnightblue" stroke="midnightblue" points="192.14,-152.97 190.05,-142.59 185.21,-152.01 192.14,-152.97"/>
</g>
<!-- Node14&#45;&gt;Node7 -->
<g id="edge18" class="edge">
<title>Node14&#45;&gt;Node7</title>
<path fill="none" stroke="midnightblue" d="M173.04,-112.4C160.58,-103.13 144.3,-91.03 131.69,-81.65"/>
<polygon fill="midnightblue" stroke="midnightblue" points="133.75,-78.82 123.64,-75.66 129.58,-84.43 133.75,-78.82"/>
</g>
<!-- Node14&#45;&gt;Node9 -->
<g id="edge19" class="edge">
<title>Node14&#45;&gt;Node9</title>
<path fill="none" stroke="midnightblue" d="M217.83,-112.4C235.47,-102.77 258.7,-90.09 276.13,-80.58"/>
<polygon fill="midnightblue" stroke="midnightblue" points="278.04,-83.52 285.14,-75.66 274.69,-77.38 278.04,-83.52"/>
</g>
<!-- Node15 -->
<g id="node15" class="node">
<title>Node15</title>
<g id="a_node15"><a target="_blank" xlink:href="https://en.cppreference.com/w/cpp/header/tuple.html" xlink:title=" ">
<polygon fill="white" stroke="black" points="173,-56.5 173,-75.5 211,-75.5 211,-56.5 173,-56.5"/>
<text text-anchor="middle" x="192" y="-63.5" font-family="Helvetica,sans-Serif" font-size="10.00">tuple</text>
</a>
</g>
</g>
<!-- Node14&#45;&gt;Node15 -->
<g id="edge17" class="edge">
<title>Node14&#45;&gt;Node15</title>
<path fill="none" stroke="midnightblue" d="M192,-112.4C192,-104.47 192,-94.46 192,-85.86"/>
<polygon fill="midnightblue" stroke="midnightblue" points="195.5,-85.66 192,-75.66 188.5,-85.66 195.5,-85.66"/>
</g>
</g>
</svg>
