<?xml version="1.0" encoding="UTF-8" standalone="no"?>
<!DOCTYPE svg PUBLIC "-//W3C//DTD SVG 1.1//EN"
 "http://www.w3.org/Graphics/SVG/1.1/DTD/svg11.dtd">
<!-- Generated by graphviz version 2.43.0 (0)
 -->
<!-- Title: bio/ranges/views/single_pass_input.hpp Pages: 1 -->
<svg width="573pt" height="330pt"
 viewBox="0.00 0.00 573.11 330.00" xmlns="http://www.w3.org/2000/svg" xmlns:xlink="http://www.w3.org/1999/xlink">
<g id="graph0" class="graph" transform="scale(1 1) rotate(0) translate(4 326)">
<title>bio/ranges/views/single_pass_input.hpp</title>
<polygon fill="white" stroke="transparent" points="-4,4 -4,-326 569.11,-326 569.11,4 -4,4"/>
<!-- Node1 -->
<g id="node1" class="node">
<title>Node1</title>
<g id="a_node1"><a xlink:title="Provides bio::alphabet::single_pass_input_view.">
<polygon fill="#bfbfbf" stroke="black" points="111.5,-291.5 111.5,-321.5 242.5,-321.5 242.5,-291.5 111.5,-291.5"/>
<text text-anchor="start" x="119.5" y="-309.5" font-family="Helvetica,sans-Serif" font-size="10.00">bio/ranges/views/single</text>
<text text-anchor="middle" x="177" y="-298.5" font-family="Helvetica,sans-Serif" font-size="10.00">_pass_input.hpp</text>
</a>
</g>
</g>
<!-- Node2 -->
<g id="node2" class="node">
<title>Node2</title>
<g id="a_node2"><a target="_blank" xlink:href="https://en.cppreference.com/w/cpp/header/cassert.html" xlink:title=" ">
<polygon fill="white" stroke="black" points="0,-235.5 0,-254.5 52,-254.5 52,-235.5 0,-235.5"/>
<text text-anchor="middle" x="26" y="-242.5" font-family="Helvetica,sans-Serif" font-size="10.00">cassert</text>
</a>
</g>
</g>
<!-- Node1&#45;&gt;Node2 -->
<g id="edge1" class="edge">
<title>Node1&#45;&gt;Node2</title>
<path fill="none" stroke="midnightblue" d="M141.22,-291.4C115.77,-281.37 81.9,-268.03 57.48,-258.4"/>
<polygon fill="midnightblue" stroke="midnightblue" points="58.56,-255.07 47.97,-254.66 55.99,-261.58 58.56,-255.07"/>
</g>
<!-- Node3 -->
<g id="node3" class="node">
<title>Node3</title>
<g id="a_node3"><a target="_blank" xlink:href="https://en.cppreference.com/w/cpp/header/concepts.html" xlink:title=" ">
<polygon fill="white" stroke="black" points="70,-235.5 70,-254.5 130,-254.5 130,-235.5 70,-235.5"/>
<text text-anchor="middle" x="100" y="-242.5" font-family="Helvetica,sans-Serif" font-size="10.00">concepts</text>
</a>
</g>
</g>
<!-- Node1&#45;&gt;Node3 -->
<g id="edge2" class="edge">
<title>Node1&#45;&gt;Node3</title>
<path fill="none" stroke="midnightblue" d="M158.75,-291.4C146.87,-282.22 131.39,-270.26 119.31,-260.92"/>
<polygon fill="midnightblue" stroke="midnightblue" points="121.26,-258 111.2,-254.66 116.98,-263.54 121.26,-258"/>
</g>
<!-- Node4 -->
<g id="node4" class="node">
<title>Node4</title>
<g id="a_node4"><a target="_blank" xlink:href="https://en.cppreference.com/w/cpp/header/iterator.html" xlink:title=" ">
<polygon fill="white" stroke="black" points="115.5,-118 115.5,-137 168.5,-137 168.5,-118 115.5,-118"/>
<text text-anchor="middle" x="142" y="-125" font-family="Helvetica,sans-Serif" font-size="10.00">iterator</text>
</a>
</g>
</g>
<!-- Node1&#45;&gt;Node4 -->
<g id="edge3" class="edge">
<title>Node1&#45;&gt;Node4</title>
<path fill="none" stroke="midnightblue" d="M174.19,-291.31C167.93,-259.63 152.8,-183.11 145.74,-147.42"/>
<polygon fill="midnightblue" stroke="midnightblue" points="149.13,-146.51 143.75,-137.37 142.26,-147.86 149.13,-146.51"/>
</g>
<!-- Node5 -->
<g id="node5" class="node">
<title>Node5</title>
<g id="a_node5"><a target="_blank" xlink:href="https://en.cppreference.com/w/cpp/header/memory.html" xlink:title=" ">
<polygon fill="white" stroke="black" points="411,-235.5 411,-254.5 469,-254.5 469,-235.5 411,-235.5"/>
<text text-anchor="middle" x="440" y="-242.5" font-family="Helvetica,sans-Serif" font-size="10.00">memory</text>
</a>
</g>
</g>
<!-- Node1&#45;&gt;Node5 -->
<g id="edge4" class="edge">
<title>Node1&#45;&gt;Node5</title>
<path fill="none" stroke="midnightblue" d="M240.57,-291.44C283.28,-281.95 341.1,-269 400.95,-255.22"/>
<polygon fill="midnightblue" stroke="midnightblue" points="402,-258.57 410.96,-252.91 400.43,-251.75 402,-258.57"/>
</g>
<!-- Node6 -->
<g id="node6" class="node">
<title>Node6</title>
<g id="a_node6"><a target="_blank" xlink:href="https://en.cppreference.com/w/cpp/header/ranges.html" xlink:title=" ">
<polygon fill="white" stroke="black" points="187,-118 187,-137 237,-137 237,-118 187,-118"/>
<text text-anchor="middle" x="212" y="-125" font-family="Helvetica,sans-Serif" font-size="10.00">ranges</text>
</a>
</g>
</g>
<!-- Node1&#45;&gt;Node6 -->
<g id="edge5" class="edge">
<title>Node1&#45;&gt;Node6</title>
<path fill="none" stroke="midnightblue" d="M179.81,-291.31C186.07,-259.63 201.2,-183.11 208.26,-147.42"/>
<polygon fill="midnightblue" stroke="midnightblue" points="211.74,-147.86 210.25,-137.37 204.87,-146.51 211.74,-147.86"/>
</g>
<!-- Node7 -->
<g id="node7" class="node">
<title>Node7</title>
<g id="a_node7"><a xlink:href="ranges_2views_2detail_8hpp_source.html" target="_top" xlink:title=" ">
<polygon fill="white" stroke="black" points="241.5,-235.5 241.5,-254.5 392.5,-254.5 392.5,-235.5 241.5,-235.5"/>
<text text-anchor="middle" x="317" y="-242.5" font-family="Helvetica,sans-Serif" font-size="10.00">bio/ranges/views/detail.hpp</text>
</a>
</g>
</g>
<!-- Node1&#45;&gt;Node7 -->
<g id="edge6" class="edge">
<title>Node1&#45;&gt;Node7</title>
<path fill="none" stroke="midnightblue" d="M210.18,-291.4C233.56,-281.46 264.61,-268.26 287.21,-258.66"/>
<polygon fill="midnightblue" stroke="midnightblue" points="288.79,-261.79 296.63,-254.66 286.06,-255.35 288.79,-261.79"/>
</g>
<!-- Node7&#45;&gt;Node6 -->
<g id="edge7" class="edge">
<title>Node7&#45;&gt;Node6</title>
<path fill="none" stroke="midnightblue" d="M301.08,-235.44C287.17,-227.4 267.05,-214.31 253,-199 238.53,-183.23 226.86,-161.51 219.72,-146.36"/>
<polygon fill="midnightblue" stroke="midnightblue" points="222.83,-144.75 215.53,-137.08 216.45,-147.63 222.83,-144.75"/>
</g>
<!-- Node8 -->
<g id="node8" class="node">
<title>Node8</title>
<g id="a_node8"><a target="_blank" xlink:href="https://en.cppreference.com/w/cpp/header/tuple.html" xlink:title=" ">
<polygon fill="white" stroke="black" points="515.5,-56.5 515.5,-75.5 556.5,-75.5 556.5,-56.5 515.5,-56.5"/>
<text text-anchor="middle" x="536" y="-63.5" font-family="Helvetica,sans-Serif" font-size="10.00">tuple</text>
</a>
</g>
</g>
<!-- Node7&#45;&gt;Node8 -->
<g id="edge8" class="edge">
<title>Node7&#45;&gt;Node8</title>
<path fill="none" stroke="midnightblue" d="M392.37,-235.45C449.49,-224.51 524.08,-199.61 560,-143 571.65,-124.64 559.95,-100.18 549.18,-84.03"/>
<polygon fill="midnightblue" stroke="midnightblue" points="551.8,-81.68 543.13,-75.59 546.11,-85.76 551.8,-81.68"/>
</g>
<!-- Node9 -->
<g id="node9" class="node">
<title>Node9</title>
<g id="a_node9"><a xlink:href="basic_8hpp.html" target="_top" xlink:title="Provides various type traits on generic types.">
<polygon fill="white" stroke="black" points="435,-112.5 435,-142.5 551,-142.5 551,-112.5 435,-112.5"/>
<text text-anchor="start" x="443" y="-130.5" font-family="Helvetica,sans-Serif" font-size="10.00">bio/meta/type_traits</text>
<text text-anchor="middle" x="493" y="-119.5" font-family="Helvetica,sans-Serif" font-size="10.00">/basic.hpp</text>
</a>
</g>
</g>
<!-- Node7&#45;&gt;Node9 -->
<g id="edge9" class="edge">
<title>Node7&#45;&gt;Node9</title>
<path fill="none" stroke="midnightblue" d="M341.02,-235.35C361.54,-227.42 391.4,-214.56 415,-199 436.42,-184.89 457.82,-165.03 472.77,-149.98"/>
<polygon fill="midnightblue" stroke="midnightblue" points="475.49,-152.21 479.97,-142.61 470.48,-147.32 475.49,-152.21"/>
</g>
<!-- Node15 -->
<g id="node15" class="node">
<title>Node15</title>
<g id="a_node15"><a xlink:href="type__traits_8hpp.html" target="_top" xlink:title="Provides various transformation traits used by the range module.">
<polygon fill="white" stroke="black" points="262,-179.5 262,-198.5 406,-198.5 406,-179.5 262,-179.5"/>
<text text-anchor="middle" x="334" y="-186.5" font-family="Helvetica,sans-Serif" font-size="10.00">bio/ranges/type_traits.hpp</text>
</a>
</g>
</g>
<!-- Node7&#45;&gt;Node15 -->
<g id="edge16" class="edge">
<title>Node7&#45;&gt;Node15</title>
<path fill="none" stroke="midnightblue" d="M319.81,-235.08C322.08,-227.85 325.37,-217.41 328.21,-208.4"/>
<polygon fill="midnightblue" stroke="midnightblue" points="331.58,-209.34 331.25,-198.75 324.9,-207.24 331.58,-209.34"/>
</g>
<!-- Node9&#45;&gt;Node8 -->
<g id="edge10" class="edge">
<title>Node9&#45;&gt;Node8</title>
<path fill="none" stroke="midnightblue" d="M503.19,-112.4C509.37,-103.84 517.3,-92.87 523.82,-83.86"/>
<polygon fill="midnightblue" stroke="midnightblue" points="526.72,-85.81 529.74,-75.66 521.05,-81.71 526.72,-85.81"/>
</g>
<!-- Node10 -->
<g id="node10" class="node">
<title>Node10</title>
<g id="a_node10"><a target="_blank" xlink:href="https://en.cppreference.com/w/cpp/header/type_traits.html" xlink:title=" ">
<polygon fill="white" stroke="black" points="276.5,-56.5 276.5,-75.5 345.5,-75.5 345.5,-56.5 276.5,-56.5"/>
<text text-anchor="middle" x="311" y="-63.5" font-family="Helvetica,sans-Serif" font-size="10.00">type_traits</text>
</a>
</g>
</g>
<!-- Node9&#45;&gt;Node10 -->
<g id="edge11" class="edge">
<title>Node9&#45;&gt;Node10</title>
<path fill="none" stroke="midnightblue" d="M449.87,-112.4C418.42,-102.12 376.31,-88.35 346.73,-78.68"/>
<polygon fill="midnightblue" stroke="midnightblue" points="347.81,-75.35 337.22,-75.57 345.63,-82.01 347.81,-75.35"/>
</g>
<!-- Node11 -->
<g id="node11" class="node">
<title>Node11</title>
<g id="a_node11"><a xlink:href="platform_8hpp.html" target="_top" xlink:title="Provides platform and dependency checks.">
<polygon fill="white" stroke="black" points="369,-56.5 369,-75.5 495,-75.5 495,-56.5 369,-56.5"/>
<text text-anchor="middle" x="432" y="-63.5" font-family="Helvetica,sans-Serif" font-size="10.00">bio/meta/platform.hpp</text>
</a>
</g>
</g>
<!-- Node9&#45;&gt;Node11 -->
<g id="edge12" class="edge">
<title>Node9&#45;&gt;Node11</title>
<path fill="none" stroke="midnightblue" d="M478.54,-112.4C469.41,-103.49 457.58,-91.95 448.14,-82.74"/>
<polygon fill="midnightblue" stroke="midnightblue" points="450.48,-80.13 440.88,-75.66 445.59,-85.15 450.48,-80.13"/>
</g>
<!-- Node12 -->
<g id="node12" class="node">
<title>Node12</title>
<g id="a_node12"><a target="_blank" xlink:href="https://en.cppreference.com/w/cpp/header/cinttypes.html" xlink:title=" ">
<polygon fill="white" stroke="black" points="325,-0.5 325,-19.5 387,-19.5 387,-0.5 325,-0.5"/>
<text text-anchor="middle" x="356" y="-7.5" font-family="Helvetica,sans-Serif" font-size="10.00">cinttypes</text>
</a>
</g>
</g>
<!-- Node11&#45;&gt;Node12 -->
<g id="edge13" class="edge">
<title>Node11&#45;&gt;Node12</title>
<path fill="none" stroke="midnightblue" d="M419.79,-56.32C408.22,-48.11 390.62,-35.6 376.84,-25.81"/>
<polygon fill="midnightblue" stroke="midnightblue" points="378.61,-22.77 368.43,-19.83 374.56,-28.48 378.61,-22.77"/>
</g>
<!-- Node13 -->
<g id="node13" class="node">
<title>Node13</title>
<g id="a_node13"><a target="_blank" xlink:href="https://en.cppreference.com/w/cpp/header/ciso646.html" xlink:title=" ">
<polygon fill="white" stroke="black" points="405,-0.5 405,-19.5 459,-19.5 459,-0.5 405,-0.5"/>
<text text-anchor="middle" x="432" y="-7.5" font-family="Helvetica,sans-Serif" font-size="10.00">ciso646</text>
</a>
</g>
</g>
<!-- Node11&#45;&gt;Node13 -->
<g id="edge14" class="edge">
<title>Node11&#45;&gt;Node13</title>
<path fill="none" stroke="midnightblue" d="M432,-56.08C432,-49.01 432,-38.86 432,-29.99"/>
<polygon fill="midnightblue" stroke="midnightblue" points="435.5,-29.75 432,-19.75 428.5,-29.75 435.5,-29.75"/>
</g>
<!-- Node14 -->
<g id="node14" class="node">
<title>Node14</title>
<g id="a_node14"><a target="_blank" xlink:href="https://en.cppreference.com/w/cpp/header/cstddef.html" xlink:title=" ">
<polygon fill="white" stroke="black" points="477.5,-0.5 477.5,-19.5 530.5,-19.5 530.5,-0.5 477.5,-0.5"/>
<text text-anchor="middle" x="504" y="-7.5" font-family="Helvetica,sans-Serif" font-size="10.00">cstddef</text>
</a>
</g>
</g>
<!-- Node11&#45;&gt;Node14 -->
<g id="edge15" class="edge">
<title>Node11&#45;&gt;Node14</title>
<path fill="none" stroke="midnightblue" d="M443.57,-56.32C454.42,-48.18 470.88,-35.84 483.88,-26.09"/>
<polygon fill="midnightblue" stroke="midnightblue" points="486.32,-28.63 492.22,-19.83 482.12,-23.03 486.32,-28.63"/>
</g>
<!-- Node15&#45;&gt;Node4 -->
<g id="edge17" class="edge">
<title>Node15&#45;&gt;Node4</title>
<path fill="none" stroke="midnightblue" d="M300.83,-179.48C269.03,-171.08 219.84,-157.42 178,-143 176.09,-142.34 174.13,-141.64 172.16,-140.91"/>
<polygon fill="midnightblue" stroke="midnightblue" points="173.01,-137.49 162.42,-137.15 170.49,-144.02 173.01,-137.49"/>
</g>
<!-- Node15&#45;&gt;Node6 -->
<g id="edge18" class="edge">
<title>Node15&#45;&gt;Node6</title>
<path fill="none" stroke="midnightblue" d="M316.52,-179.48C296.14,-169.53 262.22,-152.99 238.58,-141.46"/>
<polygon fill="midnightblue" stroke="midnightblue" points="239.97,-138.25 229.45,-137.01 236.9,-144.54 239.97,-138.25"/>
</g>
<!-- Node15&#45;&gt;Node9 -->
<g id="edge20" class="edge">
<title>Node15&#45;&gt;Node9</title>
<path fill="none" stroke="midnightblue" d="M356.78,-179.48C379.93,-170.81 416.45,-157.15 445.86,-146.14"/>
<polygon fill="midnightblue" stroke="midnightblue" points="447.39,-149.31 455.53,-142.52 444.93,-142.75 447.39,-149.31"/>
</g>
<!-- Node15&#45;&gt;Node10 -->
<g id="edge19" class="edge">
<title>Node15&#45;&gt;Node10</title>
<path fill="none" stroke="midnightblue" d="M319.05,-179.47C307.07,-171.7 291.13,-159 284,-143 275.14,-123.11 287,-99.35 297.68,-83.75"/>
<polygon fill="midnightblue" stroke="midnightblue" points="300.57,-85.73 303.67,-75.6 294.93,-81.59 300.57,-85.73"/>
</g>
<!-- Node16 -->
<g id="node16" class="node">
<title>Node16</title>
<g id="a_node16"><a xlink:href="ranges_2biocpp_8hpp.html" target="_top" xlink:title="Module header with module&#45;wide definitions.">
<polygon fill="white" stroke="black" points="293,-118 293,-137 417,-137 417,-118 293,-118"/>
<text text-anchor="middle" x="355" y="-125" font-family="Helvetica,sans-Serif" font-size="10.00">bio/ranges/biocpp.hpp</text>
</a>
</g>
</g>
<!-- Node15&#45;&gt;Node16 -->
<g id="edge21" class="edge">
<title>Node15&#45;&gt;Node16</title>
<path fill="none" stroke="midnightblue" d="M337.01,-179.48C340.03,-170.9 344.79,-157.43 348.65,-146.48"/>
<polygon fill="midnightblue" stroke="midnightblue" points="351.97,-147.6 352,-137.01 345.37,-145.27 351.97,-147.6"/>
</g>
<!-- Node16&#45;&gt;Node11 -->
<g id="edge22" class="edge">
<title>Node16&#45;&gt;Node11</title>
<path fill="none" stroke="midnightblue" d="M366.03,-117.98C378.27,-108.52 398.23,-93.1 412.99,-81.69"/>
<polygon fill="midnightblue" stroke="midnightblue" points="415.22,-84.39 420.99,-75.51 410.94,-78.85 415.22,-84.39"/>
</g>
</g>
</svg>
