<?xml version="1.0" encoding="UTF-8" standalone="no"?>
<!DOCTYPE svg PUBLIC "-//W3C//DTD SVG 1.1//EN"
 "http://www.w3.org/Graphics/SVG/1.1/DTD/svg11.dtd">
<!-- Generated by graphviz version 2.43.0 (0)
 -->
<!-- Title: bio/ranges/views/single_pass_input.hpp Pages: 1 -->
<!--zoomable 408 -->
<svg id="main" version="1.1" xmlns="http://www.w3.org/2000/svg" xmlns:xlink="http://www.w3.org/1999/xlink" xml:space="preserve" onload="init(evt)">
<style type="text/css"><![CDATA[
.edge:hover path { stroke: red; }
.edge:hover polygon { stroke: red; fill: red; }
]]></style>
<script type="text/javascript"><![CDATA[
var edges = document.getElementsByTagName('g');
if (edges && edges.length) {
  for (var i=0;i<edges.length;i++) {
    if (edges[i].id.substr(0,4)=='edge') {
      edges[i].setAttribute('class','edge');
    }
  }
}
]]></script>
        <defs>
                <circle id="rim" cx="0" cy="0" r="7"/>
                <circle id="rim2" cx="0" cy="0" r="3.5"/>
                <g id="zoomPlus">
                        <use xlink:href="#rim" fill="#404040">
                                <set attributeName="fill" to="#808080" begin="zoomplus.mouseover" end="zoomplus.mouseout"/>
                        </use>
                        <path d="M-4,0h8M0,-4v8" fill="none" stroke="white" stroke-width="1.5" pointer-events="none"/>
                </g>
                <g id="zoomMin">
                        <use xlink:href="#rim" fill="#404040">
                                <set attributeName="fill" to="#808080" begin="zoomminus.mouseover" end="zoomminus.mouseout"/>
                        </use>
                        <path d="M-4,0h8" fill="none" stroke="white" stroke-width="1.5" pointer-events="none"/>
                </g>
                <g id="dirArrow">
                        <path fill="none" stroke="white" stroke-width="1.5" d="M0,-3.0v7 M-2.5,-0.5L0,-3.0L2.5,-0.5"/>
                </g>
               <g id="resetDef">
                       <use xlink:href="#rim2" fill="#404040">
                               <set attributeName="fill" to="#808080" begin="reset.mouseover" end="reset.mouseout"/>
                       </use>
               </g>
        </defs>

<script type="text/javascript">
var viewWidth = 640;
var viewHeight = 408;
var sectionId = 'dynsection-0';
</script>
<script xlink:href="svgpan.js"/>
<svg id="graph" class="graph">
<g id="viewport">
<title>bio/ranges/views/single_pass_input.hpp</title>
<polygon fill="white" stroke="transparent" points="-4,4 -4,-404 635.5,-404 635.5,4 -4,4"/>
<!-- Node1 -->
<g id="node1" class="node">
<title>Node1</title>
<g id="a_node1"><a xlink:title="Provides bio::single_pass_input_view.">
<polygon fill="#bfbfbf" stroke="black" points="375,-369.5 375,-399.5 506,-399.5 506,-369.5 375,-369.5"/>
<text text-anchor="start" x="383" y="-387.5" font-family="Helvetica,sans-Serif" font-size="10.00">bio/ranges/views/single</text>
<text text-anchor="middle" x="440.5" y="-376.5" font-family="Helvetica,sans-Serif" font-size="10.00">_pass_input.hpp</text>
</a>
</g>
</g>
<!-- Node2 -->
<g id="node2" class="node">
<title>Node2</title>
<g id="a_node2"><a target="_blank" xlink:href="https://en.cppreference.com/w/cpp/header/cassert.html" xlink:title=" ">
<polygon fill="white" stroke="black" points="164.5,-313.5 164.5,-332.5 216.5,-332.5 216.5,-313.5 164.5,-313.5"/>
<text text-anchor="middle" x="190.5" y="-320.5" font-family="Helvetica,sans-Serif" font-size="10.00">cassert</text>
</a>
</g>
</g>
<!-- Node1&#45;&gt;Node2 -->
<g id="edge1" class="edge">
<title>Node1&#45;&gt;Node2</title>
<path fill="none" stroke="midnightblue" d="M379.25,-369.47C338.55,-360.07 283.65,-347.23 226.75,-333.27"/>
<polygon fill="midnightblue" stroke="midnightblue" points="227.4,-329.83 216.86,-330.84 225.73,-336.63 227.4,-329.83"/>
</g>
<!-- Node3 -->
<g id="node3" class="node">
<title>Node3</title>
<g id="a_node3"><a target="_blank" xlink:href="https://en.cppreference.com/w/cpp/header/concepts.html" xlink:title=" ">
<polygon fill="white" stroke="black" points="234.5,-313.5 234.5,-332.5 294.5,-332.5 294.5,-313.5 234.5,-313.5"/>
<text text-anchor="middle" x="264.5" y="-320.5" font-family="Helvetica,sans-Serif" font-size="10.00">concepts</text>
</a>
</g>
</g>
<!-- Node1&#45;&gt;Node3 -->
<g id="edge2" class="edge">
<title>Node1&#45;&gt;Node3</title>
<path fill="none" stroke="midnightblue" d="M398.79,-369.4C368.51,-359.16 328.01,-345.47 299.43,-335.81"/>
<polygon fill="midnightblue" stroke="midnightblue" points="300.45,-332.46 289.85,-332.57 298.2,-339.09 300.45,-332.46"/>
</g>
<!-- Node4 -->
<g id="node4" class="node">
<title>Node4</title>
<g id="a_node4"><a target="_blank" xlink:href="https://en.cppreference.com/w/cpp/header/iterator.html" xlink:title=" ">
<polygon fill="white" stroke="black" points="358,-118 358,-137 411,-137 411,-118 358,-118"/>
<text text-anchor="middle" x="384.5" y="-125" font-family="Helvetica,sans-Serif" font-size="10.00">iterator</text>
</a>
</g>
</g>
<!-- Node1&#45;&gt;Node4 -->
<g id="edge3" class="edge">
<title>Node1&#45;&gt;Node4</title>
<path fill="none" stroke="midnightblue" d="M458.1,-369.22C468.56,-359.89 481.33,-346.9 489.5,-333 525.16,-272.31 567.09,-236.51 526.5,-179 502.88,-145.53 455.04,-134.11 421.44,-130.29"/>
<polygon fill="midnightblue" stroke="midnightblue" points="421.37,-126.77 411.08,-129.3 420.7,-133.74 421.37,-126.77"/>
</g>
<!-- Node5 -->
<g id="node5" class="node">
<title>Node5</title>
<g id="a_node5"><a target="_blank" xlink:href="https://en.cppreference.com/w/cpp/header/memory.html" xlink:title=" ">
<polygon fill="white" stroke="black" points="573.5,-313.5 573.5,-332.5 631.5,-332.5 631.5,-313.5 573.5,-313.5"/>
<text text-anchor="middle" x="602.5" y="-320.5" font-family="Helvetica,sans-Serif" font-size="10.00">memory</text>
</a>
</g>
</g>
<!-- Node1&#45;&gt;Node5 -->
<g id="edge4" class="edge">
<title>Node1&#45;&gt;Node5</title>
<path fill="none" stroke="midnightblue" d="M478.89,-369.4C506.44,-359.28 543.17,-345.79 569.42,-336.15"/>
<polygon fill="midnightblue" stroke="midnightblue" points="570.75,-339.39 578.93,-332.66 568.33,-332.82 570.75,-339.39"/>
</g>
<!-- Node6 -->
<g id="node6" class="node">
<title>Node6</title>
<g id="a_node6"><a target="_blank" xlink:href="https://en.cppreference.com/w/cpp/header/ranges.html" xlink:title=" ">
<polygon fill="white" stroke="black" points="467.5,-185 467.5,-204 517.5,-204 517.5,-185 467.5,-185"/>
<text text-anchor="middle" x="492.5" y="-192" font-family="Helvetica,sans-Serif" font-size="10.00">ranges</text>
</a>
</g>
</g>
<!-- Node1&#45;&gt;Node6 -->
<g id="edge5" class="edge">
<title>Node1&#45;&gt;Node6</title>
<path fill="none" stroke="midnightblue" d="M452.16,-369.41C459.51,-359.76 468.51,-346.34 473.5,-333 488.65,-292.52 491.9,-241.26 492.48,-214.2"/>
<polygon fill="midnightblue" stroke="midnightblue" points="495.98,-214.23 492.6,-204.19 488.98,-214.15 495.98,-214.23"/>
</g>
<!-- Node7 -->
<g id="node7" class="node">
<title>Node7</title>
<g id="a_node7"><a xlink:href="ranges_2views_2detail_8hpp_source.html" target="_top" xlink:title=" ">
<polygon fill="white" stroke="black" points="313,-313.5 313,-332.5 464,-332.5 464,-313.5 313,-313.5"/>
<text text-anchor="middle" x="388.5" y="-320.5" font-family="Helvetica,sans-Serif" font-size="10.00">bio/ranges/views/detail.hpp</text>
</a>
</g>
</g>
<!-- Node1&#45;&gt;Node7 -->
<g id="edge6" class="edge">
<title>Node1&#45;&gt;Node7</title>
<path fill="none" stroke="midnightblue" d="M428.18,-369.4C420.54,-360.66 410.71,-349.41 402.74,-340.3"/>
<polygon fill="midnightblue" stroke="midnightblue" points="405.28,-337.88 396.07,-332.66 400.01,-342.49 405.28,-337.88"/>
</g>
<!-- Node7&#45;&gt;Node6 -->
<g id="edge28" class="edge">
<title>Node7&#45;&gt;Node6</title>
<path fill="none" stroke="midnightblue" d="M395.65,-313.31C412.79,-292.45 456.48,-239.31 478.85,-212.11"/>
<polygon fill="midnightblue" stroke="midnightblue" points="481.65,-214.2 485.3,-204.26 476.25,-209.76 481.65,-214.2"/>
</g>
<!-- Node8 -->
<g id="node8" class="node">
<title>Node8</title>
<g id="a_node8"><a target="_blank" xlink:href="https://en.cppreference.com/w/cpp/header/tuple.html" xlink:title=" ">
<polygon fill="white" stroke="black" points="0,-118 0,-137 41,-137 41,-118 0,-118"/>
<text text-anchor="middle" x="20.5" y="-125" font-family="Helvetica,sans-Serif" font-size="10.00">tuple</text>
</a>
</g>
</g>
<!-- Node7&#45;&gt;Node8 -->
<g id="edge7" class="edge">
<title>Node7&#45;&gt;Node8</title>
<path fill="none" stroke="midnightblue" d="M341.83,-313.46C255.88,-296.75 77.76,-257.22 38.5,-210 23.84,-192.37 20.43,-165.39 19.96,-147.36"/>
<polygon fill="midnightblue" stroke="midnightblue" points="23.46,-147.23 19.98,-137.22 16.46,-147.22 23.46,-147.23"/>
</g>
<!-- Node9 -->
<g id="node9" class="node">
<title>Node9</title>
<g id="a_node9"><a xlink:href="basic_8hpp.html" target="_top" xlink:title="Provides various type traits on generic types.">
<polygon fill="white" stroke="black" points="47.5,-179.5 47.5,-209.5 163.5,-209.5 163.5,-179.5 47.5,-179.5"/>
<text text-anchor="start" x="55.5" y="-197.5" font-family="Helvetica,sans-Serif" font-size="10.00">bio/meta/type_traits</text>
<text text-anchor="middle" x="105.5" y="-186.5" font-family="Helvetica,sans-Serif" font-size="10.00">/basic.hpp</text>
</a>
</g>
</g>
<!-- Node7&#45;&gt;Node9 -->
<g id="edge8" class="edge">
<title>Node7&#45;&gt;Node9</title>
<path fill="none" stroke="midnightblue" d="M360.82,-313.44C334.79,-305.1 294.95,-291.58 261.5,-277 218.09,-258.08 170.07,-232.2 138.93,-214.72"/>
<polygon fill="midnightblue" stroke="midnightblue" points="140.26,-211.45 129.83,-209.58 136.82,-217.55 140.26,-211.45"/>
</g>
<!-- Node15 -->
<g id="node15" class="node">
<title>Node15</title>
<g id="a_node15"><a xlink:href="range_8hpp.html" target="_top" xlink:title="Provides various transformation traits used by the range module.">
<polygon fill="white" stroke="black" points="270.5,-246.5 270.5,-276.5 386.5,-276.5 386.5,-246.5 270.5,-246.5"/>
<text text-anchor="start" x="278.5" y="-264.5" font-family="Helvetica,sans-Serif" font-size="10.00">bio/meta/type_traits</text>
<text text-anchor="middle" x="328.5" y="-253.5" font-family="Helvetica,sans-Serif" font-size="10.00">/range.hpp</text>
</a>
</g>
</g>
<!-- Node7&#45;&gt;Node15 -->
<g id="edge15" class="edge">
<title>Node7&#45;&gt;Node15</title>
<path fill="none" stroke="midnightblue" d="M379.9,-313.48C372.08,-305.72 360.21,-293.94 349.84,-283.66"/>
<polygon fill="midnightblue" stroke="midnightblue" points="352.21,-281.08 342.64,-276.52 347.28,-286.05 352.21,-281.08"/>
</g>
<!-- Node9&#45;&gt;Node8 -->
<g id="edge9" class="edge">
<title>Node9&#45;&gt;Node8</title>
<path fill="none" stroke="midnightblue" d="M87.06,-179.4C73.15,-168.76 54.11,-154.2 39.96,-143.38"/>
<polygon fill="midnightblue" stroke="midnightblue" points="41.94,-140.49 31.87,-137.19 37.69,-146.05 41.94,-140.49"/>
</g>
<!-- Node10 -->
<g id="node10" class="node">
<title>Node10</title>
<g id="a_node10"><a target="_blank" xlink:href="https://en.cppreference.com/w/cpp/header/type_traits.html" xlink:title=" ">
<polygon fill="white" stroke="black" points="98,-118 98,-137 167,-137 167,-118 98,-118"/>
<text text-anchor="middle" x="132.5" y="-125" font-family="Helvetica,sans-Serif" font-size="10.00">type_traits</text>
</a>
</g>
</g>
<!-- Node9&#45;&gt;Node10 -->
<g id="edge10" class="edge">
<title>Node9&#45;&gt;Node10</title>
<path fill="none" stroke="midnightblue" d="M111.36,-179.4C115.36,-169.76 120.7,-156.91 125.01,-146.54"/>
<polygon fill="midnightblue" stroke="midnightblue" points="128.28,-147.77 128.89,-137.19 121.82,-145.09 128.28,-147.77"/>
</g>
<!-- Node11 -->
<g id="node11" class="node">
<title>Node11</title>
<g id="a_node11"><a xlink:href="platform_8hpp.html" target="_top" xlink:title="Provides platform and dependency checks.">
<polygon fill="white" stroke="black" points="223.5,-56.5 223.5,-75.5 349.5,-75.5 349.5,-56.5 223.5,-56.5"/>
<text text-anchor="middle" x="286.5" y="-63.5" font-family="Helvetica,sans-Serif" font-size="10.00">bio/meta/platform.hpp</text>
</a>
</g>
</g>
<!-- Node9&#45;&gt;Node11 -->
<g id="edge11" class="edge">
<title>Node9&#45;&gt;Node11</title>
<path fill="none" stroke="midnightblue" d="M96.2,-179.21C86,-161.54 72.99,-131.43 88.5,-112 104.14,-92.41 163.5,-80.7 213.18,-74.16"/>
<polygon fill="midnightblue" stroke="midnightblue" points="213.81,-77.61 223.29,-72.88 212.93,-70.66 213.81,-77.61"/>
</g>
<!-- Node12 -->
<g id="node12" class="node">
<title>Node12</title>
<g id="a_node12"><a target="_blank" xlink:href="https://en.cppreference.com/w/cpp/header/cinttypes.html" xlink:title=" ">
<polygon fill="white" stroke="black" points="179.5,-0.5 179.5,-19.5 241.5,-19.5 241.5,-0.5 179.5,-0.5"/>
<text text-anchor="middle" x="210.5" y="-7.5" font-family="Helvetica,sans-Serif" font-size="10.00">cinttypes</text>
</a>
</g>
</g>
<!-- Node11&#45;&gt;Node12 -->
<g id="edge12" class="edge">
<title>Node11&#45;&gt;Node12</title>
<path fill="none" stroke="midnightblue" d="M274.29,-56.32C262.72,-48.11 245.12,-35.6 231.34,-25.81"/>
<polygon fill="midnightblue" stroke="midnightblue" points="233.11,-22.77 222.93,-19.83 229.06,-28.48 233.11,-22.77"/>
</g>
<!-- Node13 -->
<g id="node13" class="node">
<title>Node13</title>
<g id="a_node13"><a target="_blank" xlink:href="https://en.cppreference.com/w/cpp/header/ciso646.html" xlink:title=" ">
<polygon fill="white" stroke="black" points="259.5,-0.5 259.5,-19.5 313.5,-19.5 313.5,-0.5 259.5,-0.5"/>
<text text-anchor="middle" x="286.5" y="-7.5" font-family="Helvetica,sans-Serif" font-size="10.00">ciso646</text>
</a>
</g>
</g>
<!-- Node11&#45;&gt;Node13 -->
<g id="edge13" class="edge">
<title>Node11&#45;&gt;Node13</title>
<path fill="none" stroke="midnightblue" d="M286.5,-56.08C286.5,-49.01 286.5,-38.86 286.5,-29.99"/>
<polygon fill="midnightblue" stroke="midnightblue" points="290,-29.75 286.5,-19.75 283,-29.75 290,-29.75"/>
</g>
<!-- Node14 -->
<g id="node14" class="node">
<title>Node14</title>
<g id="a_node14"><a target="_blank" xlink:href="https://en.cppreference.com/w/cpp/header/cstddef.html" xlink:title=" ">
<polygon fill="white" stroke="black" points="332,-0.5 332,-19.5 385,-19.5 385,-0.5 332,-0.5"/>
<text text-anchor="middle" x="358.5" y="-7.5" font-family="Helvetica,sans-Serif" font-size="10.00">cstddef</text>
</a>
</g>
</g>
<!-- Node11&#45;&gt;Node14 -->
<g id="edge14" class="edge">
<title>Node11&#45;&gt;Node14</title>
<path fill="none" stroke="midnightblue" d="M298.07,-56.32C308.92,-48.18 325.38,-35.84 338.38,-26.09"/>
<polygon fill="midnightblue" stroke="midnightblue" points="340.82,-28.63 346.72,-19.83 336.62,-23.03 340.82,-28.63"/>
</g>
<!-- Node15&#45;&gt;Node4 -->
<g id="edge27" class="edge">
<title>Node15&#45;&gt;Node4</title>
<path fill="none" stroke="midnightblue" d="M350.46,-246.49C362.27,-237.62 375.77,-224.99 382.5,-210 391.44,-190.06 390.33,-164.54 388.03,-147.41"/>
<polygon fill="midnightblue" stroke="midnightblue" points="391.41,-146.38 386.36,-137.07 384.5,-147.5 391.41,-146.38"/>
</g>
<!-- Node15&#45;&gt;Node6 -->
<g id="edge26" class="edge">
<title>Node15&#45;&gt;Node6</title>
<path fill="none" stroke="midnightblue" d="M364.09,-246.4C393.12,-234.89 433.72,-218.8 461.45,-207.81"/>
<polygon fill="midnightblue" stroke="midnightblue" points="463.03,-210.95 471.04,-204.01 460.45,-204.44 463.03,-210.95"/>
</g>
<!-- Node15&#45;&gt;Node9 -->
<g id="edge20" class="edge">
<title>Node15&#45;&gt;Node9</title>
<path fill="none" stroke="midnightblue" d="M280.39,-246.48C246.21,-236.51 200.14,-223.09 163.87,-212.51"/>
<polygon fill="midnightblue" stroke="midnightblue" points="164.49,-209.05 153.91,-209.61 162.53,-215.77 164.49,-209.05"/>
</g>
<!-- Node15&#45;&gt;Node10 -->
<g id="edge16" class="edge">
<title>Node15&#45;&gt;Node10</title>
<path fill="none" stroke="midnightblue" d="M299.68,-246.48C280.93,-236.96 256.2,-223.66 235.5,-210 203.86,-189.12 169.88,-160.99 149.94,-143.83"/>
<polygon fill="midnightblue" stroke="midnightblue" points="152.14,-141.11 142.3,-137.2 147.56,-146.4 152.14,-141.11"/>
</g>
<!-- Node15&#45;&gt;Node11 -->
<g id="edge17" class="edge">
<title>Node15&#45;&gt;Node11</title>
<path fill="none" stroke="midnightblue" d="M356.52,-246.38C371.2,-237.7 388.39,-225.3 399.5,-210 425.68,-173.96 446.51,-148.17 420.5,-112 406.27,-92.21 382.92,-81.01 359.66,-74.7"/>
<polygon fill="midnightblue" stroke="midnightblue" points="360.26,-71.25 349.72,-72.29 358.61,-78.05 360.26,-71.25"/>
</g>
<!-- Node16 -->
<g id="node16" class="node">
<title>Node16</title>
<g id="a_node16"><a xlink:href="pre_8hpp.html" target="_top" xlink:title="Provides various transformation trait base templates and shortcuts.">
<polygon fill="white" stroke="black" points="185.5,-112.5 185.5,-142.5 301.5,-142.5 301.5,-112.5 185.5,-112.5"/>
<text text-anchor="start" x="193.5" y="-130.5" font-family="Helvetica,sans-Serif" font-size="10.00">bio/meta/type_traits</text>
<text text-anchor="middle" x="243.5" y="-119.5" font-family="Helvetica,sans-Serif" font-size="10.00">/pre.hpp</text>
</a>
</g>
</g>
<!-- Node15&#45;&gt;Node16 -->
<g id="edge18" class="edge">
<title>Node15&#45;&gt;Node16</title>
<path fill="none" stroke="midnightblue" d="M291.6,-246.42C275.54,-238.3 258.21,-226.4 248.5,-210 238.37,-192.89 237.84,-170.06 239.43,-152.92"/>
<polygon fill="midnightblue" stroke="midnightblue" points="242.95,-152.94 240.7,-142.59 236.01,-152.09 242.95,-152.94"/>
</g>
<!-- Node17 -->
<g id="node17" class="node">
<title>Node17</title>
<g id="a_node17"><a xlink:href="iterator_8hpp.html" target="_top" xlink:title="Provides various transformation traits for use on iterators.">
<polygon fill="white" stroke="black" points="257.5,-179.5 257.5,-209.5 373.5,-209.5 373.5,-179.5 257.5,-179.5"/>
<text text-anchor="start" x="265.5" y="-197.5" font-family="Helvetica,sans-Serif" font-size="10.00">bio/meta/type_traits</text>
<text text-anchor="middle" x="315.5" y="-186.5" font-family="Helvetica,sans-Serif" font-size="10.00">/iterator.hpp</text>
</a>
</g>
</g>
<!-- Node15&#45;&gt;Node17 -->
<g id="edge21" class="edge">
<title>Node15&#45;&gt;Node17</title>
<path fill="none" stroke="midnightblue" d="M325.68,-246.4C324.11,-238.56 322.12,-228.6 320.31,-219.57"/>
<polygon fill="midnightblue" stroke="midnightblue" points="323.71,-218.7 318.32,-209.58 316.84,-220.07 323.71,-218.7"/>
</g>
<!-- Node16&#45;&gt;Node11 -->
<g id="edge19" class="edge">
<title>Node16&#45;&gt;Node11</title>
<path fill="none" stroke="midnightblue" d="M253.69,-112.4C259.87,-103.84 267.8,-92.87 274.32,-83.86"/>
<polygon fill="midnightblue" stroke="midnightblue" points="277.22,-85.81 280.24,-75.66 271.55,-81.71 277.22,-85.81"/>
</g>
<!-- Node17&#45;&gt;Node4 -->
<g id="edge22" class="edge">
<title>Node17&#45;&gt;Node4</title>
<path fill="none" stroke="midnightblue" d="M330.47,-179.4C341.44,-169.06 356.34,-155.02 367.72,-144.31"/>
<polygon fill="midnightblue" stroke="midnightblue" points="370.39,-146.6 375.27,-137.19 365.59,-141.5 370.39,-146.6"/>
</g>
<!-- Node17&#45;&gt;Node10 -->
<g id="edge23" class="edge">
<title>Node17&#45;&gt;Node10</title>
<path fill="none" stroke="midnightblue" d="M275.79,-179.4C242.97,-167.74 196.9,-151.37 165.94,-140.38"/>
<polygon fill="midnightblue" stroke="midnightblue" points="167.05,-137.06 156.45,-137.01 164.7,-143.65 167.05,-137.06"/>
</g>
<!-- Node17&#45;&gt;Node11 -->
<g id="edge24" class="edge">
<title>Node17&#45;&gt;Node11</title>
<path fill="none" stroke="midnightblue" d="M316.43,-179.35C317.11,-162.85 316.98,-134.92 310.5,-112 307.76,-102.32 302.73,-92.38 297.98,-84.3"/>
<polygon fill="midnightblue" stroke="midnightblue" points="300.95,-82.45 292.68,-75.82 295.01,-86.15 300.95,-82.45"/>
</g>
<!-- Node17&#45;&gt;Node16 -->
<g id="edge25" class="edge">
<title>Node17&#45;&gt;Node16</title>
<path fill="none" stroke="midnightblue" d="M299.88,-179.4C290.16,-170.62 277.49,-159.18 266.62,-149.37"/>
<polygon fill="midnightblue" stroke="midnightblue" points="268.86,-146.68 259.09,-142.58 264.17,-151.88 268.86,-146.68"/>
</g>
</g>
</svg>
        <g id="navigator" transform="translate(0 0)" fill="#404254">
                <rect fill="#f2f5e9" fill-opacity="0.5" stroke="#606060" stroke-width=".5" x="0" y="0" width="60" height="60"/>
                <use id="zoomplus" xlink:href="#zoomPlus" x="17" y="9" onmousedown="handleZoom(evt,'in')"/>
                <use id="zoomminus" xlink:href="#zoomMin" x="42" y="9" onmousedown="handleZoom(evt,'out')"/>
                <use id="reset" xlink:href="#resetDef" x="30" y="36" onmousedown="handleReset()"/>
                <g id="arrowUp" xlink:href="#dirArrow" transform="translate(30 24)" onmousedown="handlePan(0,-1)">
                  <use xlink:href="#rim" fill="#404040">
                        <set attributeName="fill" to="#808080" begin="arrowUp.mouseover" end="arrowUp.mouseout"/>
                  </use>
                  <path fill="none" stroke="white" stroke-width="1.5" d="M0,-3.0v7 M-2.5,-0.5L0,-3.0L2.5,-0.5"/>
                </g>
                <g id="arrowRight" xlink:href="#dirArrow" transform="rotate(90) translate(36 -43)" onmousedown="handlePan(1,0)">
                  <use xlink:href="#rim" fill="#404040">
                        <set attributeName="fill" to="#808080" begin="arrowRight.mouseover" end="arrowRight.mouseout"/>
                  </use>
                  <path fill="none" stroke="white" stroke-width="1.5" d="M0,-3.0v7 M-2.5,-0.5L0,-3.0L2.5,-0.5"/>
                </g>
                <g id="arrowDown" xlink:href="#dirArrow" transform="rotate(180) translate(-30 -48)" onmousedown="handlePan(0,1)">
                  <use xlink:href="#rim" fill="#404040">
                        <set attributeName="fill" to="#808080" begin="arrowDown.mouseover" end="arrowDown.mouseout"/>
                  </use>
                  <path fill="none" stroke="white" stroke-width="1.5" d="M0,-3.0v7 M-2.5,-0.5L0,-3.0L2.5,-0.5"/>
                </g>
                <g id="arrowLeft" xlink:href="#dirArrow" transform="rotate(270) translate(-36 17)" onmousedown="handlePan(-1,0)">
                  <use xlink:href="#rim" fill="#404040">
                        <set attributeName="fill" to="#808080" begin="arrowLeft.mouseover" end="arrowLeft.mouseout"/>
                  </use>
                  <path fill="none" stroke="white" stroke-width="1.5" d="M0,-3.0v7 M-2.5,-0.5L0,-3.0L2.5,-0.5"/>
                </g>
        </g>
        <svg viewBox="0 0 15 15" width="100%" height="30px" preserveAspectRatio="xMaxYMin meet">
         <g id="arrow_out" transform="scale(0.3 0.3)">
          <a xlink:href="single__pass__input_8hpp__incl_org.svg" target="_base">
           <rect id="button" ry="5" rx="5" y="6" x="6" height="38" width="38"
                fill="#f2f5e9" fill-opacity="0.5" stroke="#606060" stroke-width="1.0"/>
           <path id="arrow"
             d="M 11.500037,31.436501 C 11.940474,20.09759 22.043105,11.32322 32.158766,21.979434 L 37.068811,17.246167 C 37.068811,17.246167 37.088388,32 37.088388,32 L 22.160133,31.978069 C 22.160133,31.978069 26.997745,27.140456 26.997745,27.140456 C 18.528582,18.264221 13.291696,25.230495 11.500037,31.436501 z"
             style="fill:#404040;"/>
          </a>
         </g>
        </svg>
</svg>
