<?xml version="1.0" encoding="UTF-8" standalone="no"?>
<!DOCTYPE svg PUBLIC "-//W3C//DTD SVG 1.1//EN"
 "http://www.w3.org/Graphics/SVG/1.1/DTD/svg11.dtd">
<!-- Generated by graphviz version 2.43.0 (0)
 -->
<!-- Title: bio/ranges/views/slice.hpp Pages: 1 -->
<!--zoomable 475 -->
<svg id="main" version="1.1" xmlns="http://www.w3.org/2000/svg" xmlns:xlink="http://www.w3.org/1999/xlink" xml:space="preserve" onload="init(evt)">
<style type="text/css"><![CDATA[
.edge:hover path { stroke: red; }
.edge:hover polygon { stroke: red; fill: red; }
]]></style>
<script type="text/javascript"><![CDATA[
var edges = document.getElementsByTagName('g');
if (edges && edges.length) {
  for (var i=0;i<edges.length;i++) {
    if (edges[i].id.substr(0,4)=='edge') {
      edges[i].setAttribute('class','edge');
    }
  }
}
]]></script>
        <defs>
                <circle id="rim" cx="0" cy="0" r="7"/>
                <circle id="rim2" cx="0" cy="0" r="3.5"/>
                <g id="zoomPlus">
                        <use xlink:href="#rim" fill="#404040">
                                <set attributeName="fill" to="#808080" begin="zoomplus.mouseover" end="zoomplus.mouseout"/>
                        </use>
                        <path d="M-4,0h8M0,-4v8" fill="none" stroke="white" stroke-width="1.5" pointer-events="none"/>
                </g>
                <g id="zoomMin">
                        <use xlink:href="#rim" fill="#404040">
                                <set attributeName="fill" to="#808080" begin="zoomminus.mouseover" end="zoomminus.mouseout"/>
                        </use>
                        <path d="M-4,0h8" fill="none" stroke="white" stroke-width="1.5" pointer-events="none"/>
                </g>
                <g id="dirArrow">
                        <path fill="none" stroke="white" stroke-width="1.5" d="M0,-3.0v7 M-2.5,-0.5L0,-3.0L2.5,-0.5"/>
                </g>
               <g id="resetDef">
                       <use xlink:href="#rim2" fill="#404040">
                               <set attributeName="fill" to="#808080" begin="reset.mouseover" end="reset.mouseout"/>
                       </use>
               </g>
        </defs>

<script type="text/javascript">
var viewWidth = 1392;
var viewHeight = 475;
var sectionId = 'dynsection-0';
</script>
<script xlink:href="svgpan.js"/>
<svg id="graph" class="graph">
<g id="viewport">
<title>bio/ranges/views/slice.hpp</title>
<polygon fill="white" stroke="transparent" points="-4,4 -4,-471 1387.5,-471 1387.5,4 -4,4"/>
<!-- Node1 -->
<g id="node1" class="node">
<title>Node1</title>
<g id="a_node1"><a xlink:title="Provides bio::views::slice.">
<polygon fill="#bfbfbf" stroke="black" points="1027.5,-447.5 1027.5,-466.5 1173.5,-466.5 1173.5,-447.5 1027.5,-447.5"/>
<text text-anchor="middle" x="1100.5" y="-454.5" font-family="Helvetica,sans-Serif" font-size="10.00">bio/ranges/views/slice.hpp</text>
</a>
</g>
</g>
<!-- Node2 -->
<g id="node2" class="node">
<title>Node2</title>
<g id="a_node2"><a target="_blank" xlink:href="https://en.cppreference.com/w/cpp/header/concepts.html" xlink:title=" ">
<polygon fill="white" stroke="black" points="403.5,-56.5 403.5,-75.5 463.5,-75.5 463.5,-56.5 403.5,-56.5"/>
<text text-anchor="middle" x="433.5" y="-63.5" font-family="Helvetica,sans-Serif" font-size="10.00">concepts</text>
</a>
</g>
</g>
<!-- Node1&#45;&gt;Node2 -->
<g id="edge1" class="edge">
<title>Node1&#45;&gt;Node2</title>
<path fill="none" stroke="midnightblue" d="M1027.21,-453.4C818.59,-445.04 236.5,-414.57 236.5,-335 236.5,-335 236.5,-335 236.5,-199 236.5,-157.32 240.43,-139.78 271.5,-112 289.44,-95.96 351.49,-81.91 393.37,-73.94"/>
<polygon fill="midnightblue" stroke="midnightblue" points="394.1,-77.37 403.29,-72.1 392.82,-70.49 394.1,-77.37"/>
</g>
<!-- Node3 -->
<g id="node3" class="node">
<title>Node3</title>
<g id="a_node3"><a target="_blank" xlink:href="https://en.cppreference.com/w/cpp/header/iterator.html" xlink:title=" ">
<polygon fill="white" stroke="black" points="1289,-190.5 1289,-209.5 1342,-209.5 1342,-190.5 1289,-190.5"/>
<text text-anchor="middle" x="1315.5" y="-197.5" font-family="Helvetica,sans-Serif" font-size="10.00">iterator</text>
</a>
</g>
</g>
<!-- Node1&#45;&gt;Node3 -->
<g id="edge2" class="edge">
<title>Node1&#45;&gt;Node3</title>
<path fill="none" stroke="midnightblue" d="M1162.61,-447.45C1192.68,-441.06 1228.1,-430 1255.5,-411 1286.04,-389.83 1292.57,-378.83 1305.5,-344 1321.18,-301.76 1319.68,-247.74 1317.46,-219.73"/>
<polygon fill="midnightblue" stroke="midnightblue" points="1320.94,-219.37 1316.55,-209.73 1313.97,-220.01 1320.94,-219.37"/>
</g>
<!-- Node4 -->
<g id="node4" class="node">
<title>Node4</title>
<g id="a_node4"><a target="_blank" xlink:href="https://en.cppreference.com/w/cpp/header/ranges.html" xlink:title=" ">
<polygon fill="white" stroke="black" points="1207.5,-190.5 1207.5,-209.5 1257.5,-209.5 1257.5,-190.5 1207.5,-190.5"/>
<text text-anchor="middle" x="1232.5" y="-197.5" font-family="Helvetica,sans-Serif" font-size="10.00">ranges</text>
</a>
</g>
</g>
<!-- Node1&#45;&gt;Node4 -->
<g id="edge3" class="edge">
<title>Node1&#45;&gt;Node4</title>
<path fill="none" stroke="midnightblue" d="M1135.09,-447.41C1180.41,-434.04 1257.73,-403.36 1288.5,-344 1311.31,-300 1271.47,-244.5 1247.94,-217.4"/>
<polygon fill="midnightblue" stroke="midnightblue" points="1250.26,-214.75 1240.97,-209.65 1245.05,-219.43 1250.26,-214.75"/>
</g>
<!-- Node5 -->
<g id="node5" class="node">
<title>Node5</title>
<g id="a_node5"><a target="_blank" xlink:href="https://en.cppreference.com/w/cpp/header/span.html" xlink:title=" ">
<polygon fill="white" stroke="black" points="1239.5,-324.5 1239.5,-343.5 1279.5,-343.5 1279.5,-324.5 1239.5,-324.5"/>
<text text-anchor="middle" x="1259.5" y="-331.5" font-family="Helvetica,sans-Serif" font-size="10.00">span</text>
</a>
</g>
</g>
<!-- Node1&#45;&gt;Node5 -->
<g id="edge4" class="edge">
<title>Node1&#45;&gt;Node5</title>
<path fill="none" stroke="midnightblue" d="M1111.68,-447.49C1138.41,-427.15 1206.31,-375.48 1239.97,-349.86"/>
<polygon fill="midnightblue" stroke="midnightblue" points="1242.28,-352.5 1248.12,-343.66 1238.04,-346.93 1242.28,-352.5"/>
</g>
<!-- Node6 -->
<g id="node6" class="node">
<title>Node6</title>
<g id="a_node6"><a target="_blank" xlink:href="https://en.cppreference.com/w/cpp/header/stdexcept.html" xlink:title=" ">
<polygon fill="white" stroke="black" points="280,-56.5 280,-75.5 345,-75.5 345,-56.5 280,-56.5"/>
<text text-anchor="middle" x="312.5" y="-63.5" font-family="Helvetica,sans-Serif" font-size="10.00">stdexcept</text>
</a>
</g>
</g>
<!-- Node1&#45;&gt;Node6 -->
<g id="edge5" class="edge">
<title>Node1&#45;&gt;Node6</title>
<path fill="none" stroke="midnightblue" d="M1027.48,-454.15C844,-449.18 373.45,-434.3 306.5,-411 251.07,-391.71 198.5,-393.69 198.5,-335 198.5,-335 198.5,-335 198.5,-199 198.5,-155.67 213.48,-144.18 242.5,-112 254.21,-99.01 270.5,-88.24 284.42,-80.5"/>
<polygon fill="midnightblue" stroke="midnightblue" points="286.4,-83.41 293.59,-75.63 283.12,-77.23 286.4,-83.41"/>
</g>
<!-- Node7 -->
<g id="node7" class="node">
<title>Node7</title>
<g id="a_node7"><a target="_blank" xlink:href="https://en.cppreference.com/w/cpp/header/type_traits.html" xlink:title=" ">
<polygon fill="white" stroke="black" points="1009,-56.5 1009,-75.5 1078,-75.5 1078,-56.5 1009,-56.5"/>
<text text-anchor="middle" x="1043.5" y="-63.5" font-family="Helvetica,sans-Serif" font-size="10.00">type_traits</text>
</a>
</g>
</g>
<!-- Node1&#45;&gt;Node7 -->
<g id="edge6" class="edge">
<title>Node1&#45;&gt;Node7</title>
<path fill="none" stroke="midnightblue" d="M1173.75,-455.04C1257.6,-449.6 1383.5,-426.24 1383.5,-335 1383.5,-335 1383.5,-335 1383.5,-199 1383.5,-136.37 1180.45,-91.71 1088.18,-74.65"/>
<polygon fill="midnightblue" stroke="midnightblue" points="1088.75,-71.19 1078.29,-72.84 1087.5,-78.08 1088.75,-71.19"/>
</g>
<!-- Node8 -->
<g id="node8" class="node">
<title>Node8</title>
<g id="a_node8"><a xlink:href="ranges_2concept_8hpp.html" target="_top" xlink:title="Additional non&#45;standard concepts for ranges.">
<polygon fill="white" stroke="black" points="747.5,-324.5 747.5,-343.5 877.5,-343.5 877.5,-324.5 747.5,-324.5"/>
<text text-anchor="middle" x="812.5" y="-331.5" font-family="Helvetica,sans-Serif" font-size="10.00">bio/ranges/concept.hpp</text>
</a>
</g>
</g>
<!-- Node1&#45;&gt;Node8 -->
<g id="edge7" class="edge">
<title>Node1&#45;&gt;Node8</title>
<path fill="none" stroke="midnightblue" d="M1043.63,-447.5C1007.03,-440.68 959.08,-429.18 919.5,-411 884.9,-395.1 849.87,-367.57 829.72,-350.37"/>
<polygon fill="midnightblue" stroke="midnightblue" points="831.89,-347.62 822.04,-343.7 827.29,-352.9 831.89,-347.62"/>
</g>
<!-- Node25 -->
<g id="node25" class="node">
<title>Node25</title>
<g id="a_node25"><a xlink:href="ranges_2views_2detail_8hpp_source.html" target="_top" xlink:title=" ">
<polygon fill="white" stroke="black" points="1025,-324.5 1025,-343.5 1176,-343.5 1176,-324.5 1025,-324.5"/>
<text text-anchor="middle" x="1100.5" y="-331.5" font-family="Helvetica,sans-Serif" font-size="10.00">bio/ranges/views/detail.hpp</text>
</a>
</g>
</g>
<!-- Node1&#45;&gt;Node25 -->
<g id="edge38" class="edge">
<title>Node1&#45;&gt;Node25</title>
<path fill="none" stroke="midnightblue" d="M1100.5,-447.3C1100.5,-427.85 1100.5,-380.49 1100.5,-353.9"/>
<polygon fill="midnightblue" stroke="midnightblue" points="1104,-353.62 1100.5,-343.62 1097,-353.62 1104,-353.62"/>
</g>
<!-- Node27 -->
<g id="node27" class="node">
<title>Node27</title>
<g id="a_node27"><a xlink:href="type__reduce_8hpp.html" target="_top" xlink:title="Provides bio::views::type_reduce.">
<polygon fill="white" stroke="black" points="928.5,-380.5 928.5,-410.5 1052.5,-410.5 1052.5,-380.5 928.5,-380.5"/>
<text text-anchor="start" x="936.5" y="-398.5" font-family="Helvetica,sans-Serif" font-size="10.00">bio/ranges/views/type</text>
<text text-anchor="middle" x="990.5" y="-387.5" font-family="Helvetica,sans-Serif" font-size="10.00">_reduce.hpp</text>
</a>
</g>
</g>
<!-- Node1&#45;&gt;Node27 -->
<g id="edge48" class="edge">
<title>Node1&#45;&gt;Node27</title>
<path fill="none" stroke="midnightblue" d="M1084.74,-447.48C1069.28,-439.12 1045.2,-426.09 1025.25,-415.3"/>
<polygon fill="midnightblue" stroke="midnightblue" points="1026.89,-412.2 1016.42,-410.52 1023.56,-418.36 1026.89,-412.2"/>
</g>
<!-- Node8&#45;&gt;Node4 -->
<g id="edge8" class="edge">
<title>Node8&#45;&gt;Node4</title>
<path fill="none" stroke="midnightblue" d="M877.61,-327.86C974.98,-319.72 1149.81,-303.24 1174.5,-288 1200.41,-272 1217.27,-239.61 1225.81,-219.18"/>
<polygon fill="midnightblue" stroke="midnightblue" points="1229.12,-220.33 1229.53,-209.74 1222.61,-217.76 1229.12,-220.33"/>
</g>
<!-- Node9 -->
<g id="node9" class="node">
<title>Node9</title>
<g id="a_node9"><a xlink:href="alphabet_2concept_8hpp.html" target="_top" xlink:title="Core alphabet concept and free function/type trait wrappers.">
<polygon fill="white" stroke="black" points="452.5,-263 452.5,-282 592.5,-282 592.5,-263 452.5,-263"/>
<text text-anchor="middle" x="522.5" y="-270" font-family="Helvetica,sans-Serif" font-size="10.00">bio/alphabet/concept.hpp</text>
</a>
</g>
</g>
<!-- Node8&#45;&gt;Node9 -->
<g id="edge9" class="edge">
<title>Node8&#45;&gt;Node9</title>
<path fill="none" stroke="midnightblue" d="M770.95,-324.48C719.05,-313.83 630.26,-295.61 574.07,-284.08"/>
<polygon fill="midnightblue" stroke="midnightblue" points="574.47,-280.59 563.97,-282.01 573.07,-287.45 574.47,-280.59"/>
</g>
<!-- Node9&#45;&gt;Node7 -->
<g id="edge10" class="edge">
<title>Node9&#45;&gt;Node7</title>
<path fill="none" stroke="midnightblue" d="M552.5,-262.97C610.43,-246.53 741.76,-209.39 852.5,-179 911.97,-162.68 935.43,-177.56 986.5,-143 1008.42,-128.17 1025.26,-102.06 1034.77,-84.64"/>
<polygon fill="midnightblue" stroke="midnightblue" points="1038,-86.03 1039.51,-75.55 1031.79,-82.8 1038,-86.03"/>
</g>
<!-- Node10 -->
<g id="node10" class="node">
<title>Node10</title>
<g id="a_node10"><a xlink:href="tag_8hpp.html" target="_top" xlink:title="Provides the customisation tags for the alphabet concepts.">
<polygon fill="white" stroke="black" points="340.5,-185 340.5,-215 456.5,-215 456.5,-185 340.5,-185"/>
<text text-anchor="start" x="348.5" y="-203" font-family="Helvetica,sans-Serif" font-size="10.00">bio/alphabet/custom</text>
<text text-anchor="middle" x="398.5" y="-192" font-family="Helvetica,sans-Serif" font-size="10.00">/tag.hpp</text>
</a>
</g>
</g>
<!-- Node9&#45;&gt;Node10 -->
<g id="edge11" class="edge">
<title>Node9&#45;&gt;Node10</title>
<path fill="none" stroke="midnightblue" d="M507.3,-262.86C488.72,-252.29 456.73,-234.11 432.24,-220.18"/>
<polygon fill="midnightblue" stroke="midnightblue" points="433.68,-216.98 423.26,-215.08 430.22,-223.06 433.68,-216.98"/>
</g>
<!-- Node11 -->
<g id="node11" class="node">
<title>Node11</title>
<g id="a_node11"><a xlink:href="exception_8hpp.html" target="_top" xlink:title="Exceptions thrown by entities in the alphabet module.">
<polygon fill="white" stroke="black" points="302,-118 302,-137 451,-137 451,-118 302,-118"/>
<text text-anchor="middle" x="376.5" y="-125" font-family="Helvetica,sans-Serif" font-size="10.00">bio/alphabet/exception.hpp</text>
</a>
</g>
</g>
<!-- Node9&#45;&gt;Node11 -->
<g id="edge12" class="edge">
<title>Node9&#45;&gt;Node11</title>
<path fill="none" stroke="midnightblue" d="M457.97,-262.94C408.82,-254.94 347.04,-241.18 331.5,-221 320.11,-206.21 324.86,-196.44 331.5,-179 336.73,-165.28 347.58,-152.92 357.31,-143.86"/>
<polygon fill="midnightblue" stroke="midnightblue" points="359.86,-146.29 365.08,-137.07 355.25,-141.02 359.86,-146.29"/>
</g>
<!-- Node13 -->
<g id="node13" class="node">
<title>Node13</title>
<g id="a_node13"><a xlink:href="core_8hpp.html" target="_top" xlink:title="Provides platform and dependency checks.">
<polygon fill="white" stroke="black" points="523,-56.5 523,-75.5 600,-75.5 600,-56.5 523,-56.5"/>
<text text-anchor="middle" x="561.5" y="-63.5" font-family="Helvetica,sans-Serif" font-size="10.00">bio/core.hpp</text>
</a>
</g>
</g>
<!-- Node9&#45;&gt;Node13 -->
<g id="edge21" class="edge">
<title>Node9&#45;&gt;Node13</title>
<path fill="none" stroke="midnightblue" d="M522.02,-262.96C520.92,-238.71 519.48,-167.55 536.5,-112 539.47,-102.3 544.73,-92.35 549.66,-84.28"/>
<polygon fill="midnightblue" stroke="midnightblue" points="552.65,-86.1 555.13,-75.8 546.77,-82.3 552.65,-86.1"/>
</g>
<!-- Node17 -->
<g id="node17" class="node">
<title>Node17</title>
<g id="a_node17"><a xlink:href="core__language_8hpp.html" target="_top" xlink:title="Provides concepts for core language types and relations that don&#39;t have concepts in C++20 (yet).">
<polygon fill="white" stroke="black" points="680,-112.5 680,-142.5 805,-142.5 805,-112.5 680,-112.5"/>
<text text-anchor="start" x="688" y="-130.5" font-family="Helvetica,sans-Serif" font-size="10.00">bio/meta/concept/core</text>
<text text-anchor="middle" x="742.5" y="-119.5" font-family="Helvetica,sans-Serif" font-size="10.00">_language.hpp</text>
</a>
</g>
</g>
<!-- Node9&#45;&gt;Node17 -->
<g id="edge22" class="edge">
<title>Node9&#45;&gt;Node17</title>
<path fill="none" stroke="midnightblue" d="M535.6,-262.98C570,-240.62 663.57,-179.81 712.21,-148.19"/>
<polygon fill="midnightblue" stroke="midnightblue" points="714.27,-151.02 720.75,-142.64 710.46,-145.15 714.27,-151.02"/>
</g>
<!-- Node18 -->
<g id="node18" class="node">
<title>Node18</title>
<g id="a_node18"><a xlink:href="type__inspection_8hpp.html" target="_top" xlink:title="Provides traits to inspect some information of a type, for example its name.">
<polygon fill="white" stroke="black" points="54.5,-112.5 54.5,-142.5 170.5,-142.5 170.5,-112.5 54.5,-112.5"/>
<text text-anchor="start" x="62.5" y="-130.5" font-family="Helvetica,sans-Serif" font-size="10.00">bio/meta/detail/type</text>
<text text-anchor="middle" x="112.5" y="-119.5" font-family="Helvetica,sans-Serif" font-size="10.00">_inspection.hpp</text>
</a>
</g>
</g>
<!-- Node9&#45;&gt;Node18 -->
<g id="edge26" class="edge">
<title>Node9&#45;&gt;Node18</title>
<path fill="none" stroke="midnightblue" d="M479.53,-262.93C438.41,-254.21 374.92,-239.38 321.5,-221 259.54,-199.68 190.55,-167.38 149.38,-147.13"/>
<polygon fill="midnightblue" stroke="midnightblue" points="150.8,-143.93 140.28,-142.63 147.69,-150.2 150.8,-143.93"/>
</g>
<!-- Node22 -->
<g id="node22" class="node">
<title>Node22</title>
<g id="a_node22"><a xlink:href="priority__tag_8hpp.html" target="_top" xlink:title="provides bio::meta::priority_tag.">
<polygon fill="white" stroke="black" points="545,-112.5 545,-142.5 662,-142.5 662,-112.5 545,-112.5"/>
<text text-anchor="start" x="553" y="-130.5" font-family="Helvetica,sans-Serif" font-size="10.00">bio/meta/tag/priority</text>
<text text-anchor="middle" x="603.5" y="-119.5" font-family="Helvetica,sans-Serif" font-size="10.00">_tag.hpp</text>
</a>
</g>
</g>
<!-- Node9&#45;&gt;Node22 -->
<g id="edge32" class="edge">
<title>Node9&#45;&gt;Node22</title>
<path fill="none" stroke="midnightblue" d="M527.32,-262.98C539.54,-241.42 572.01,-184.09 590.37,-151.68"/>
<polygon fill="midnightblue" stroke="midnightblue" points="593.48,-153.29 595.36,-142.86 587.39,-149.84 593.48,-153.29"/>
</g>
<!-- Node23 -->
<g id="node23" class="node">
<title>Node23</title>
<g id="a_node23"><a xlink:href="basic_8hpp.html" target="_top" xlink:title="Provides various type traits on generic types.">
<polygon fill="white" stroke="black" points="1035.5,-185 1035.5,-215 1151.5,-215 1151.5,-185 1035.5,-185"/>
<text text-anchor="start" x="1043.5" y="-203" font-family="Helvetica,sans-Serif" font-size="10.00">bio/meta/type_traits</text>
<text text-anchor="middle" x="1093.5" y="-192" font-family="Helvetica,sans-Serif" font-size="10.00">/basic.hpp</text>
</a>
</g>
</g>
<!-- Node9&#45;&gt;Node23 -->
<g id="edge34" class="edge">
<title>Node9&#45;&gt;Node23</title>
<path fill="none" stroke="midnightblue" d="M592.59,-265.67C683.98,-257.67 848.66,-241.86 988.5,-221 1000.4,-219.22 1013.01,-217.07 1025.2,-214.83"/>
<polygon fill="midnightblue" stroke="midnightblue" points="1026.14,-218.22 1035.33,-212.94 1024.85,-211.34 1026.14,-218.22"/>
</g>
<!-- Node11&#45;&gt;Node2 -->
<g id="edge13" class="edge">
<title>Node11&#45;&gt;Node2</title>
<path fill="none" stroke="midnightblue" d="M384.67,-117.98C393.39,-108.87 407.4,-94.24 418.19,-82.98"/>
<polygon fill="midnightblue" stroke="midnightblue" points="420.96,-85.15 425.35,-75.51 415.9,-80.31 420.96,-85.15"/>
</g>
<!-- Node11&#45;&gt;Node6 -->
<g id="edge14" class="edge">
<title>Node11&#45;&gt;Node6</title>
<path fill="none" stroke="midnightblue" d="M367.33,-117.98C357.35,-108.7 341.19,-93.67 328.99,-82.33"/>
<polygon fill="midnightblue" stroke="midnightblue" points="331.36,-79.75 321.65,-75.51 326.59,-84.88 331.36,-79.75"/>
</g>
<!-- Node12 -->
<g id="node12" class="node">
<title>Node12</title>
<g id="a_node12"><a target="_blank" xlink:href="https://en.cppreference.com/w/cpp/header/string.html" xlink:title=" ">
<polygon fill="white" stroke="black" points="353.5,-0.5 353.5,-19.5 397.5,-19.5 397.5,-0.5 353.5,-0.5"/>
<text text-anchor="middle" x="375.5" y="-7.5" font-family="Helvetica,sans-Serif" font-size="10.00">string</text>
</a>
</g>
</g>
<!-- Node11&#45;&gt;Node12 -->
<g id="edge15" class="edge">
<title>Node11&#45;&gt;Node12</title>
<path fill="none" stroke="midnightblue" d="M376.42,-117.82C376.26,-99.26 375.88,-55.34 375.66,-29.97"/>
<polygon fill="midnightblue" stroke="midnightblue" points="379.16,-29.75 375.58,-19.78 372.16,-29.81 379.16,-29.75"/>
</g>
<!-- Node11&#45;&gt;Node13 -->
<g id="edge16" class="edge">
<title>Node11&#45;&gt;Node13</title>
<path fill="none" stroke="midnightblue" d="M403.01,-117.98C435.15,-107.64 489.49,-90.16 525.43,-78.6"/>
<polygon fill="midnightblue" stroke="midnightblue" points="526.6,-81.9 535.04,-75.51 524.45,-75.24 526.6,-81.9"/>
</g>
<!-- Node13&#45;&gt;Node12 -->
<g id="edge20" class="edge">
<title>Node13&#45;&gt;Node12</title>
<path fill="none" stroke="midnightblue" d="M532.03,-56.44C498,-46.56 442.23,-30.37 407.26,-20.22"/>
<polygon fill="midnightblue" stroke="midnightblue" points="408.13,-16.83 397.55,-17.4 406.18,-23.55 408.13,-16.83"/>
</g>
<!-- Node14 -->
<g id="node14" class="node">
<title>Node14</title>
<g id="a_node14"><a target="_blank" xlink:href="https://en.cppreference.com/w/cpp/header/cinttypes.html" xlink:title=" ">
<polygon fill="white" stroke="black" points="530.5,-0.5 530.5,-19.5 592.5,-19.5 592.5,-0.5 530.5,-0.5"/>
<text text-anchor="middle" x="561.5" y="-7.5" font-family="Helvetica,sans-Serif" font-size="10.00">cinttypes</text>
</a>
</g>
</g>
<!-- Node13&#45;&gt;Node14 -->
<g id="edge17" class="edge">
<title>Node13&#45;&gt;Node14</title>
<path fill="none" stroke="midnightblue" d="M561.5,-56.08C561.5,-49.01 561.5,-38.86 561.5,-29.99"/>
<polygon fill="midnightblue" stroke="midnightblue" points="565,-29.75 561.5,-19.75 558,-29.75 565,-29.75"/>
</g>
<!-- Node15 -->
<g id="node15" class="node">
<title>Node15</title>
<g id="a_node15"><a target="_blank" xlink:href="https://en.cppreference.com/w/cpp/header/ciso646.html" xlink:title=" ">
<polygon fill="white" stroke="black" points="610.5,-0.5 610.5,-19.5 664.5,-19.5 664.5,-0.5 610.5,-0.5"/>
<text text-anchor="middle" x="637.5" y="-7.5" font-family="Helvetica,sans-Serif" font-size="10.00">ciso646</text>
</a>
</g>
</g>
<!-- Node13&#45;&gt;Node15 -->
<g id="edge18" class="edge">
<title>Node13&#45;&gt;Node15</title>
<path fill="none" stroke="midnightblue" d="M573.71,-56.32C585.28,-48.11 602.88,-35.6 616.66,-25.81"/>
<polygon fill="midnightblue" stroke="midnightblue" points="618.94,-28.48 625.07,-19.83 614.89,-22.77 618.94,-28.48"/>
</g>
<!-- Node16 -->
<g id="node16" class="node">
<title>Node16</title>
<g id="a_node16"><a target="_blank" xlink:href="https://en.cppreference.com/w/cpp/header/cstddef.html" xlink:title=" ">
<polygon fill="white" stroke="black" points="459,-0.5 459,-19.5 512,-19.5 512,-0.5 459,-0.5"/>
<text text-anchor="middle" x="485.5" y="-7.5" font-family="Helvetica,sans-Serif" font-size="10.00">cstddef</text>
</a>
</g>
</g>
<!-- Node13&#45;&gt;Node16 -->
<g id="edge19" class="edge">
<title>Node13&#45;&gt;Node16</title>
<path fill="none" stroke="midnightblue" d="M549.29,-56.32C537.72,-48.11 520.12,-35.6 506.34,-25.81"/>
<polygon fill="midnightblue" stroke="midnightblue" points="508.11,-22.77 497.93,-19.83 504.06,-28.48 508.11,-22.77"/>
</g>
<!-- Node17&#45;&gt;Node2 -->
<g id="edge23" class="edge">
<title>Node17&#45;&gt;Node2</title>
<path fill="none" stroke="midnightblue" d="M679.79,-113.64C676.99,-113.08 674.22,-112.53 671.5,-112 601.92,-98.32 520.74,-83.14 473.43,-74.37"/>
<polygon fill="midnightblue" stroke="midnightblue" points="474.05,-70.92 463.58,-72.54 472.78,-77.8 474.05,-70.92"/>
</g>
<!-- Node17&#45;&gt;Node7 -->
<g id="edge24" class="edge">
<title>Node17&#45;&gt;Node7</title>
<path fill="none" stroke="midnightblue" d="M805.23,-114.1C863.1,-102.66 947.58,-85.96 998.85,-75.83"/>
<polygon fill="midnightblue" stroke="midnightblue" points="999.82,-79.2 1008.96,-73.83 998.47,-72.33 999.82,-79.2"/>
</g>
<!-- Node17&#45;&gt;Node13 -->
<g id="edge25" class="edge">
<title>Node17&#45;&gt;Node13</title>
<path fill="none" stroke="midnightblue" d="M699.61,-112.4C668.47,-102.16 626.81,-88.47 597.42,-78.81"/>
<polygon fill="midnightblue" stroke="midnightblue" points="598.17,-75.37 587.57,-75.57 595.98,-82.02 598.17,-75.37"/>
</g>
<!-- Node18&#45;&gt;Node12 -->
<g id="edge29" class="edge">
<title>Node18&#45;&gt;Node12</title>
<path fill="none" stroke="midnightblue" d="M144.15,-112.35C186.65,-93.35 258.25,-61.36 270.5,-56 295.91,-44.89 324.9,-32.49 345.96,-23.52"/>
<polygon fill="midnightblue" stroke="midnightblue" points="347.5,-26.67 355.33,-19.54 344.76,-20.23 347.5,-26.67"/>
</g>
<!-- Node18&#45;&gt;Node13 -->
<g id="edge31" class="edge">
<title>Node18&#45;&gt;Node13</title>
<path fill="none" stroke="midnightblue" d="M170.74,-118.78C260.14,-106.93 429.58,-84.48 512.84,-73.45"/>
<polygon fill="midnightblue" stroke="midnightblue" points="513.34,-76.91 522.8,-72.13 512.42,-69.97 513.34,-76.91"/>
</g>
<!-- Node19 -->
<g id="node19" class="node">
<title>Node19</title>
<g id="a_node19"><a target="_blank" xlink:href="https://en.cppreference.com/w/cpp/header/functional.html" xlink:title=" ">
<polygon fill="white" stroke="black" points="0,-56.5 0,-75.5 65,-75.5 65,-56.5 0,-56.5"/>
<text text-anchor="middle" x="32.5" y="-63.5" font-family="Helvetica,sans-Serif" font-size="10.00">functional</text>
</a>
</g>
</g>
<!-- Node18&#45;&gt;Node19 -->
<g id="edge27" class="edge">
<title>Node18&#45;&gt;Node19</title>
<path fill="none" stroke="midnightblue" d="M93.54,-112.4C81.08,-103.13 64.8,-91.03 52.19,-81.65"/>
<polygon fill="midnightblue" stroke="midnightblue" points="54.25,-78.82 44.14,-75.66 50.08,-84.43 54.25,-78.82"/>
</g>
<!-- Node20 -->
<g id="node20" class="node">
<title>Node20</title>
<g id="a_node20"><a target="_blank" xlink:href="https://en.cppreference.com/w/cpp/header/memory.html" xlink:title=" ">
<polygon fill="white" stroke="black" points="83.5,-56.5 83.5,-75.5 141.5,-75.5 141.5,-56.5 83.5,-56.5"/>
<text text-anchor="middle" x="112.5" y="-63.5" font-family="Helvetica,sans-Serif" font-size="10.00">memory</text>
</a>
</g>
</g>
<!-- Node18&#45;&gt;Node20 -->
<g id="edge28" class="edge">
<title>Node18&#45;&gt;Node20</title>
<path fill="none" stroke="midnightblue" d="M112.5,-112.4C112.5,-104.47 112.5,-94.46 112.5,-85.86"/>
<polygon fill="midnightblue" stroke="midnightblue" points="116,-85.66 112.5,-75.66 109,-85.66 116,-85.66"/>
</g>
<!-- Node21 -->
<g id="node21" class="node">
<title>Node21</title>
<g id="a_node21"><a target="_blank" xlink:href="https://en.cppreference.com/w/cpp/header/typeinfo.html" xlink:title=" ">
<polygon fill="white" stroke="black" points="160,-56.5 160,-75.5 217,-75.5 217,-56.5 160,-56.5"/>
<text text-anchor="middle" x="188.5" y="-63.5" font-family="Helvetica,sans-Serif" font-size="10.00">typeinfo</text>
</a>
</g>
</g>
<!-- Node18&#45;&gt;Node21 -->
<g id="edge30" class="edge">
<title>Node18&#45;&gt;Node21</title>
<path fill="none" stroke="midnightblue" d="M130.51,-112.4C142.24,-103.22 157.52,-91.26 169.44,-81.92"/>
<polygon fill="midnightblue" stroke="midnightblue" points="171.72,-84.58 177.44,-75.66 167.41,-79.07 171.72,-84.58"/>
</g>
<!-- Node22&#45;&gt;Node13 -->
<g id="edge33" class="edge">
<title>Node22&#45;&gt;Node13</title>
<path fill="none" stroke="midnightblue" d="M593.55,-112.4C587.51,-103.84 579.76,-92.87 573.4,-83.86"/>
<polygon fill="midnightblue" stroke="midnightblue" points="576.24,-81.81 567.61,-75.66 570.52,-85.85 576.24,-81.81"/>
</g>
<!-- Node23&#45;&gt;Node7 -->
<g id="edge36" class="edge">
<title>Node23&#45;&gt;Node7</title>
<path fill="none" stroke="midnightblue" d="M1105.26,-184.69C1118.44,-166.81 1136.26,-135.68 1122.5,-112 1113.76,-96.97 1097.92,-86.54 1082.71,-79.54"/>
<polygon fill="midnightblue" stroke="midnightblue" points="1083.96,-76.27 1073.38,-75.61 1081.24,-82.72 1083.96,-76.27"/>
</g>
<!-- Node23&#45;&gt;Node17 -->
<g id="edge37" class="edge">
<title>Node23&#45;&gt;Node17</title>
<path fill="none" stroke="midnightblue" d="M1035.15,-187.28C974.82,-175.16 880.52,-156.22 815.34,-143.13"/>
<polygon fill="midnightblue" stroke="midnightblue" points="815.64,-139.62 805.14,-141.08 814.26,-146.48 815.64,-139.62"/>
</g>
<!-- Node24 -->
<g id="node24" class="node">
<title>Node24</title>
<g id="a_node24"><a target="_blank" xlink:href="https://en.cppreference.com/w/cpp/header/tuple.html" xlink:title=" ">
<polygon fill="white" stroke="black" points="1072,-118 1072,-137 1113,-137 1113,-118 1072,-118"/>
<text text-anchor="middle" x="1092.5" y="-125" font-family="Helvetica,sans-Serif" font-size="10.00">tuple</text>
</a>
</g>
</g>
<!-- Node23&#45;&gt;Node24 -->
<g id="edge35" class="edge">
<title>Node23&#45;&gt;Node24</title>
<path fill="none" stroke="midnightblue" d="M1093.3,-184.73C1093.15,-174 1092.94,-159.19 1092.77,-147.46"/>
<polygon fill="midnightblue" stroke="midnightblue" points="1096.27,-147.34 1092.63,-137.39 1089.27,-147.44 1096.27,-147.34"/>
</g>
<!-- Node25&#45;&gt;Node4 -->
<g id="edge39" class="edge">
<title>Node25&#45;&gt;Node4</title>
<path fill="none" stroke="midnightblue" d="M1143.01,-324.43C1165.08,-317.91 1190.84,-306.76 1207.5,-288 1224.43,-268.94 1229.94,-239.09 1231.71,-219.79"/>
<polygon fill="midnightblue" stroke="midnightblue" points="1235.22,-219.77 1232.38,-209.56 1228.23,-219.31 1235.22,-219.77"/>
</g>
<!-- Node25&#45;&gt;Node23 -->
<g id="edge41" class="edge">
<title>Node25&#45;&gt;Node23</title>
<path fill="none" stroke="midnightblue" d="M1064.65,-324.4C1045.62,-317.81 1023.87,-306.59 1012.5,-288 1005.31,-276.25 1006.1,-269.2 1012.5,-257 1020.72,-241.33 1035.53,-229.17 1050.27,-220.25"/>
<polygon fill="midnightblue" stroke="midnightblue" points="1052.38,-223.08 1059.37,-215.12 1048.94,-216.98 1052.38,-223.08"/>
</g>
<!-- Node25&#45;&gt;Node24 -->
<g id="edge40" class="edge">
<title>Node25&#45;&gt;Node24</title>
<path fill="none" stroke="midnightblue" d="M1057.43,-324.49C1037.1,-318.07 1014.68,-306.99 1002.5,-288 984.89,-260.53 1016.19,-193.82 1026.5,-179 1037.05,-163.85 1053.54,-151.22 1067.4,-142.39"/>
<polygon fill="midnightblue" stroke="midnightblue" points="1069.31,-145.32 1076.04,-137.14 1065.68,-139.34 1069.31,-145.32"/>
</g>
<!-- Node26 -->
<g id="node26" class="node">
<title>Node26</title>
<g id="a_node26"><a xlink:href="type__traits_8hpp.html" target="_top" xlink:title="Provides various transformation traits used by the range module.">
<polygon fill="white" stroke="black" points="1021.5,-263 1021.5,-282 1165.5,-282 1165.5,-263 1021.5,-263"/>
<text text-anchor="middle" x="1093.5" y="-270" font-family="Helvetica,sans-Serif" font-size="10.00">bio/ranges/type_traits.hpp</text>
</a>
</g>
</g>
<!-- Node25&#45;&gt;Node26 -->
<g id="edge42" class="edge">
<title>Node25&#45;&gt;Node26</title>
<path fill="none" stroke="midnightblue" d="M1099.5,-324.48C1098.51,-316.08 1096.97,-302.98 1095.7,-292.16"/>
<polygon fill="midnightblue" stroke="midnightblue" points="1099.15,-291.53 1094.5,-282.01 1092.19,-292.35 1099.15,-291.53"/>
</g>
<!-- Node26&#45;&gt;Node3 -->
<g id="edge43" class="edge">
<title>Node26&#45;&gt;Node3</title>
<path fill="none" stroke="midnightblue" d="M1126.66,-262.92C1161.73,-253.59 1218.5,-237.75 1266.5,-221 1272.88,-218.77 1279.63,-216.18 1286.02,-213.61"/>
<polygon fill="midnightblue" stroke="midnightblue" points="1287.74,-216.69 1295.65,-209.65 1285.07,-210.21 1287.74,-216.69"/>
</g>
<!-- Node26&#45;&gt;Node4 -->
<g id="edge44" class="edge">
<title>Node26&#45;&gt;Node4</title>
<path fill="none" stroke="midnightblue" d="M1110.5,-262.95C1130.41,-252.94 1164.38,-235.82 1193.5,-221 1197.73,-218.85 1202.22,-216.55 1206.59,-214.32"/>
<polygon fill="midnightblue" stroke="midnightblue" points="1208.51,-217.26 1215.81,-209.59 1205.32,-211.04 1208.51,-217.26"/>
</g>
<!-- Node26&#45;&gt;Node7 -->
<g id="edge45" class="edge">
<title>Node26&#45;&gt;Node7</title>
<path fill="none" stroke="midnightblue" d="M1113.12,-262.92C1129.14,-254.72 1150.69,-240.68 1160.5,-221 1168.83,-204.29 1163.45,-197.43 1160.5,-179 1155.55,-148.05 1159.23,-135.5 1138.5,-112 1124.89,-96.57 1104.84,-86 1086.67,-79.01"/>
<polygon fill="midnightblue" stroke="midnightblue" points="1087.69,-75.66 1077.1,-75.58 1085.33,-82.25 1087.69,-75.66"/>
</g>
<!-- Node26&#45;&gt;Node13 -->
<g id="edge46" class="edge">
<title>Node26&#45;&gt;Node13</title>
<path fill="none" stroke="midnightblue" d="M1021.29,-264.22C959.68,-256.63 877.27,-242.76 852.5,-221 813.96,-187.13 853.55,-145.27 814.5,-112 784.46,-86.41 675.13,-74.7 610.43,-69.9"/>
<polygon fill="midnightblue" stroke="midnightblue" points="610.29,-66.38 600.06,-69.17 609.79,-73.37 610.29,-66.38"/>
</g>
<!-- Node26&#45;&gt;Node23 -->
<g id="edge47" class="edge">
<title>Node26&#45;&gt;Node23</title>
<path fill="none" stroke="midnightblue" d="M1093.5,-262.86C1093.5,-253.55 1093.5,-238.33 1093.5,-225.31"/>
<polygon fill="midnightblue" stroke="midnightblue" points="1097,-225.08 1093.5,-215.08 1090,-225.08 1097,-225.08"/>
</g>
<!-- Node27&#45;&gt;Node2 -->
<g id="edge49" class="edge">
<title>Node27&#45;&gt;Node2</title>
<path fill="none" stroke="midnightblue" d="M928.21,-390.51C754.01,-378.52 274.5,-339.53 274.5,-273.5 274.5,-273.5 274.5,-273.5 274.5,-199 274.5,-159.51 266.08,-141.35 292.5,-112 317.99,-83.69 361.24,-73.08 393.13,-69.16"/>
<polygon fill="midnightblue" stroke="midnightblue" points="393.89,-72.6 403.47,-68.07 393.16,-65.64 393.89,-72.6"/>
</g>
<!-- Node27&#45;&gt;Node4 -->
<g id="edge50" class="edge">
<title>Node27&#45;&gt;Node4</title>
<path fill="none" stroke="midnightblue" d="M1052.63,-388.77C1093.15,-382.65 1145.69,-370.03 1185.5,-344 1211.99,-326.68 1218.64,-317.73 1229.5,-288 1237.66,-265.65 1236.92,-237.89 1235.14,-219.82"/>
<polygon fill="midnightblue" stroke="midnightblue" points="1238.6,-219.25 1233.93,-209.73 1231.64,-220.08 1238.6,-219.25"/>
</g>
<!-- Node27&#45;&gt;Node5 -->
<g id="edge51" class="edge">
<title>Node27&#45;&gt;Node5</title>
<path fill="none" stroke="midnightblue" d="M1052.53,-382C1100.01,-372.23 1167.06,-358 1225.5,-344 1226.77,-343.7 1228.06,-343.38 1229.37,-343.06"/>
<polygon fill="midnightblue" stroke="midnightblue" points="1230.58,-346.36 1239.4,-340.49 1228.85,-339.58 1230.58,-346.36"/>
</g>
<!-- Node27&#45;&gt;Node8 -->
<g id="edge60" class="edge">
<title>Node27&#45;&gt;Node8</title>
<path fill="none" stroke="midnightblue" d="M948.32,-380.4C917.69,-370.16 876.73,-356.47 847.83,-346.81"/>
<polygon fill="midnightblue" stroke="midnightblue" points="848.73,-343.42 838.14,-343.57 846.52,-350.06 848.73,-343.42"/>
</g>
<!-- Node27&#45;&gt;Node25 -->
<g id="edge61" class="edge">
<title>Node27&#45;&gt;Node25</title>
<path fill="none" stroke="midnightblue" d="M1016.57,-380.4C1034.37,-370.77 1057.81,-358.09 1075.4,-348.58"/>
<polygon fill="midnightblue" stroke="midnightblue" points="1077.36,-351.49 1084.49,-343.66 1074.03,-345.34 1077.36,-351.49"/>
</g>
<!-- Node28 -->
<g id="node28" class="node">
<title>Node28</title>
<g id="a_node28"><a target="_blank" xlink:href="https://en.cppreference.com/w/cpp/header/string_view.html" xlink:title=" ">
<polygon fill="white" stroke="black" points="934,-324.5 934,-343.5 1007,-343.5 1007,-324.5 934,-324.5"/>
<text text-anchor="middle" x="970.5" y="-331.5" font-family="Helvetica,sans-Serif" font-size="10.00">string_view</text>
</a>
</g>
</g>
<!-- Node27&#45;&gt;Node28 -->
<g id="edge52" class="edge">
<title>Node27&#45;&gt;Node28</title>
<path fill="none" stroke="midnightblue" d="M985.76,-380.4C983.03,-372.29 979.58,-362.01 976.64,-353.28"/>
<polygon fill="midnightblue" stroke="midnightblue" points="979.91,-352.02 973.41,-343.66 973.28,-354.25 979.91,-352.02"/>
</g>
<!-- Node29 -->
<g id="node29" class="node">
<title>Node29</title>
<g id="a_node29"><a xlink:href="template__inspection_8hpp.html" target="_top" xlink:title="Provides various traits to inspect templates.">
<polygon fill="white" stroke="black" points="787.5,-257.5 787.5,-287.5 927.5,-287.5 927.5,-257.5 787.5,-257.5"/>
<text text-anchor="start" x="795.5" y="-275.5" font-family="Helvetica,sans-Serif" font-size="10.00">bio/meta/type_traits</text>
<text text-anchor="middle" x="857.5" y="-264.5" font-family="Helvetica,sans-Serif" font-size="10.00">/template_inspection.hpp</text>
</a>
</g>
</g>
<!-- Node27&#45;&gt;Node29 -->
<g id="edge53" class="edge">
<title>Node27&#45;&gt;Node29</title>
<path fill="none" stroke="midnightblue" d="M970.86,-380.39C957.65,-370.63 940.06,-357.08 925.5,-344 908.21,-328.47 890,-309.42 876.78,-295.04"/>
<polygon fill="midnightblue" stroke="midnightblue" points="879.31,-292.62 869.98,-287.59 874.13,-297.34 879.31,-292.62"/>
</g>
<!-- Node29&#45;&gt;Node2 -->
<g id="edge54" class="edge">
<title>Node29&#45;&gt;Node2</title>
<path fill="none" stroke="midnightblue" d="M812.26,-257.46C748.57,-236.81 629.85,-195 536.5,-143 504.54,-125.2 471.09,-98.86 451.28,-82.33"/>
<polygon fill="midnightblue" stroke="midnightblue" points="453.33,-79.48 443.43,-75.69 448.81,-84.82 453.33,-79.48"/>
</g>
<!-- Node30 -->
<g id="node30" class="node">
<title>Node30</title>
<g id="a_node30"><a xlink:href="transformation__trait__or_8hpp.html" target="_top" xlink:title="Provides bio::meta::transformation_trait_or.">
<polygon fill="white" stroke="black" points="861.5,-179.5 861.5,-220.5 979.5,-220.5 979.5,-179.5 861.5,-179.5"/>
<text text-anchor="start" x="869.5" y="-208.5" font-family="Helvetica,sans-Serif" font-size="10.00">bio/meta/type_traits</text>
<text text-anchor="start" x="869.5" y="-197.5" font-family="Helvetica,sans-Serif" font-size="10.00">/transformation_trait</text>
<text text-anchor="middle" x="920.5" y="-186.5" font-family="Helvetica,sans-Serif" font-size="10.00">_or.hpp</text>
</a>
</g>
</g>
<!-- Node29&#45;&gt;Node30 -->
<g id="edge55" class="edge">
<title>Node29&#45;&gt;Node30</title>
<path fill="none" stroke="midnightblue" d="M870.25,-257.23C877.68,-248.92 887.31,-238.15 896.14,-228.26"/>
<polygon fill="midnightblue" stroke="midnightblue" points="898.94,-230.38 903,-220.59 893.72,-225.71 898.94,-230.38"/>
</g>
<!-- Node30&#45;&gt;Node7 -->
<g id="edge56" class="edge">
<title>Node30&#45;&gt;Node7</title>
<path fill="none" stroke="midnightblue" d="M971.37,-179.45C988.71,-170.6 1006.88,-158.57 1019.5,-143 1032.81,-126.58 1038.78,-102.7 1041.43,-86.1"/>
<polygon fill="midnightblue" stroke="midnightblue" points="1044.93,-86.34 1042.79,-75.96 1037.99,-85.41 1044.93,-86.34"/>
</g>
<!-- Node31 -->
<g id="node31" class="node">
<title>Node31</title>
<g id="a_node31"><a xlink:href="meta_2type__traits_2concept_8hpp.html" target="_top" xlink:title="Provides the concepts bio::meta::transformation_trait and bio::meta::unary_type_trait.">
<polygon fill="white" stroke="black" points="861.5,-112.5 861.5,-142.5 977.5,-142.5 977.5,-112.5 861.5,-112.5"/>
<text text-anchor="start" x="869.5" y="-130.5" font-family="Helvetica,sans-Serif" font-size="10.00">bio/meta/type_traits</text>
<text text-anchor="middle" x="919.5" y="-119.5" font-family="Helvetica,sans-Serif" font-size="10.00">/concept.hpp</text>
</a>
</g>
</g>
<!-- Node30&#45;&gt;Node31 -->
<g id="edge57" class="edge">
<title>Node30&#45;&gt;Node31</title>
<path fill="none" stroke="midnightblue" d="M920.22,-179.36C920.11,-171.23 919.97,-161.7 919.85,-153.11"/>
<polygon fill="midnightblue" stroke="midnightblue" points="923.35,-152.84 919.7,-142.89 916.35,-152.94 923.35,-152.84"/>
</g>
<!-- Node31&#45;&gt;Node7 -->
<g id="edge58" class="edge">
<title>Node31&#45;&gt;Node7</title>
<path fill="none" stroke="midnightblue" d="M948.89,-112.4C969.32,-102.59 996.36,-89.62 1016.3,-80.05"/>
<polygon fill="midnightblue" stroke="midnightblue" points="1017.96,-83.14 1025.46,-75.66 1014.93,-76.83 1017.96,-83.14"/>
</g>
<!-- Node31&#45;&gt;Node13 -->
<g id="edge59" class="edge">
<title>Node31&#45;&gt;Node13</title>
<path fill="none" stroke="midnightblue" d="M861.38,-114.57C856.69,-113.68 852.02,-112.81 847.5,-112 764.59,-97.14 667.68,-82.45 610.62,-74.08"/>
<polygon fill="midnightblue" stroke="midnightblue" points="610.85,-70.57 600.45,-72.59 609.83,-77.5 610.85,-70.57"/>
</g>
</g>
</svg>
        <g id="navigator" transform="translate(0 0)" fill="#404254">
                <rect fill="#f2f5e9" fill-opacity="0.5" stroke="#606060" stroke-width=".5" x="0" y="0" width="60" height="60"/>
                <use id="zoomplus" xlink:href="#zoomPlus" x="17" y="9" onmousedown="handleZoom(evt,'in')"/>
                <use id="zoomminus" xlink:href="#zoomMin" x="42" y="9" onmousedown="handleZoom(evt,'out')"/>
                <use id="reset" xlink:href="#resetDef" x="30" y="36" onmousedown="handleReset()"/>
                <g id="arrowUp" xlink:href="#dirArrow" transform="translate(30 24)" onmousedown="handlePan(0,-1)">
                  <use xlink:href="#rim" fill="#404040">
                        <set attributeName="fill" to="#808080" begin="arrowUp.mouseover" end="arrowUp.mouseout"/>
                  </use>
                  <path fill="none" stroke="white" stroke-width="1.5" d="M0,-3.0v7 M-2.5,-0.5L0,-3.0L2.5,-0.5"/>
                </g>
                <g id="arrowRight" xlink:href="#dirArrow" transform="rotate(90) translate(36 -43)" onmousedown="handlePan(1,0)">
                  <use xlink:href="#rim" fill="#404040">
                        <set attributeName="fill" to="#808080" begin="arrowRight.mouseover" end="arrowRight.mouseout"/>
                  </use>
                  <path fill="none" stroke="white" stroke-width="1.5" d="M0,-3.0v7 M-2.5,-0.5L0,-3.0L2.5,-0.5"/>
                </g>
                <g id="arrowDown" xlink:href="#dirArrow" transform="rotate(180) translate(-30 -48)" onmousedown="handlePan(0,1)">
                  <use xlink:href="#rim" fill="#404040">
                        <set attributeName="fill" to="#808080" begin="arrowDown.mouseover" end="arrowDown.mouseout"/>
                  </use>
                  <path fill="none" stroke="white" stroke-width="1.5" d="M0,-3.0v7 M-2.5,-0.5L0,-3.0L2.5,-0.5"/>
                </g>
                <g id="arrowLeft" xlink:href="#dirArrow" transform="rotate(270) translate(-36 17)" onmousedown="handlePan(-1,0)">
                  <use xlink:href="#rim" fill="#404040">
                        <set attributeName="fill" to="#808080" begin="arrowLeft.mouseover" end="arrowLeft.mouseout"/>
                  </use>
                  <path fill="none" stroke="white" stroke-width="1.5" d="M0,-3.0v7 M-2.5,-0.5L0,-3.0L2.5,-0.5"/>
                </g>
        </g>
        <svg viewBox="0 0 15 15" width="100%" height="30px" preserveAspectRatio="xMaxYMin meet">
         <g id="arrow_out" transform="scale(0.3 0.3)">
          <a xlink:href="slice_8hpp__incl_org.svg" target="_base">
           <rect id="button" ry="5" rx="5" y="6" x="6" height="38" width="38"
                fill="#f2f5e9" fill-opacity="0.5" stroke="#606060" stroke-width="1.0"/>
           <path id="arrow"
             d="M 11.500037,31.436501 C 11.940474,20.09759 22.043105,11.32322 32.158766,21.979434 L 37.068811,17.246167 C 37.068811,17.246167 37.088388,32 37.088388,32 L 22.160133,31.978069 C 22.160133,31.978069 26.997745,27.140456 26.997745,27.140456 C 18.528582,18.264221 13.291696,25.230495 11.500037,31.436501 z"
             style="fill:#404040;"/>
          </a>
         </g>
        </svg>
</svg>
