<?xml version="1.0" encoding="UTF-8" standalone="no"?>
<!DOCTYPE svg PUBLIC "-//W3C//DTD SVG 1.1//EN"
 "http://www.w3.org/Graphics/SVG/1.1/DTD/svg11.dtd">
<!-- Generated by graphviz version 2.43.0 (0)
 -->
<!-- Title: bio/ranges/container/small_vector.hpp Pages: 1 -->
<!--zoomable 698 -->
<svg id="main" version="1.1" xmlns="http://www.w3.org/2000/svg" xmlns:xlink="http://www.w3.org/1999/xlink" xml:space="preserve" onload="init(evt)">
<style type="text/css"><![CDATA[
.edge:hover path { stroke: red; }
.edge:hover polygon { stroke: red; fill: red; }
]]></style>
<script type="text/javascript"><![CDATA[
var edges = document.getElementsByTagName('g');
if (edges && edges.length) {
  for (var i=0;i<edges.length;i++) {
    if (edges[i].id.substr(0,4)=='edge') {
      edges[i].setAttribute('class','edge');
    }
  }
}
]]></script>
        <defs>
                <circle id="rim" cx="0" cy="0" r="7"/>
                <circle id="rim2" cx="0" cy="0" r="3.5"/>
                <g id="zoomPlus">
                        <use xlink:href="#rim" fill="#404040">
                                <set attributeName="fill" to="#808080" begin="zoomplus.mouseover" end="zoomplus.mouseout"/>
                        </use>
                        <path d="M-4,0h8M0,-4v8" fill="none" stroke="white" stroke-width="1.5" pointer-events="none"/>
                </g>
                <g id="zoomMin">
                        <use xlink:href="#rim" fill="#404040">
                                <set attributeName="fill" to="#808080" begin="zoomminus.mouseover" end="zoomminus.mouseout"/>
                        </use>
                        <path d="M-4,0h8" fill="none" stroke="white" stroke-width="1.5" pointer-events="none"/>
                </g>
                <g id="dirArrow">
                        <path fill="none" stroke="white" stroke-width="1.5" d="M0,-3.0v7 M-2.5,-0.5L0,-3.0L2.5,-0.5"/>
                </g>
               <g id="resetDef">
                       <use xlink:href="#rim2" fill="#404040">
                               <set attributeName="fill" to="#808080" begin="reset.mouseover" end="reset.mouseout"/>
                       </use>
               </g>
        </defs>

<script type="text/javascript">
var viewWidth = 1889;
var viewHeight = 698;
var sectionId = 'dynsection-1';
</script>
<script xlink:href="svgpan.js"/>
<svg id="graph" class="graph">
<g id="viewport">
<title>bio/ranges/container/small_vector.hpp</title>
<polygon fill="white" stroke="transparent" points="-4,4 -4,-694 1885,-694 1885,4 -4,4"/>
<!-- Node1 -->
<g id="node1" class="node">
<title>Node1</title>
<g id="a_node1"><a xlink:title="A constexpr vector implementation with dynamic size at compile time.">
<polygon fill="#bfbfbf" stroke="black" points="1667,-659.5 1667,-689.5 1783,-689.5 1783,-659.5 1667,-659.5"/>
<text text-anchor="start" x="1675" y="-677.5" font-family="Helvetica,sans-Serif" font-size="10.00">bio/ranges/container</text>
<text text-anchor="middle" x="1725" y="-666.5" font-family="Helvetica,sans-Serif" font-size="10.00">/small_vector.hpp</text>
</a>
</g>
</g>
<!-- Node2 -->
<g id="node2" class="node">
<title>Node2</title>
<g id="a_node2"><a xlink:href="small__string_8hpp.html" target="_top" xlink:title="A constexpr string implementation to manipulate string literals at compile time.">
<polygon fill="white" stroke="black" points="1667,-592.5 1667,-622.5 1783,-622.5 1783,-592.5 1667,-592.5"/>
<text text-anchor="start" x="1675" y="-610.5" font-family="Helvetica,sans-Serif" font-size="10.00">bio/ranges/container</text>
<text text-anchor="middle" x="1725" y="-599.5" font-family="Helvetica,sans-Serif" font-size="10.00">/small_string.hpp</text>
</a>
</g>
</g>
<!-- Node1&#45;&gt;Node2 -->
<g id="edge1" class="edge">
<title>Node1&#45;&gt;Node2</title>
<path fill="none" stroke="midnightblue" d="M1725,-649.11C1725,-640.15 1725,-630.32 1725,-622.58"/>
<polygon fill="midnightblue" stroke="midnightblue" points="1721.5,-649.4 1725,-659.4 1728.5,-649.4 1721.5,-649.4"/>
</g>
<!-- Node3 -->
<g id="node3" class="node">
<title>Node3</title>
<g id="a_node3"><a xlink:href="cigar_8hpp.html" target="_top" xlink:title="Provides the bio::alphabet::cigar alphabet.">
<polygon fill="white" stroke="black" points="1495,-525.5 1495,-555.5 1599,-555.5 1599,-525.5 1495,-525.5"/>
<text text-anchor="start" x="1503" y="-543.5" font-family="Helvetica,sans-Serif" font-size="10.00">bio/alphabet/cigar</text>
<text text-anchor="middle" x="1547" y="-532.5" font-family="Helvetica,sans-Serif" font-size="10.00">/cigar.hpp</text>
</a>
</g>
</g>
<!-- Node2&#45;&gt;Node3 -->
<g id="edge2" class="edge">
<title>Node2&#45;&gt;Node3</title>
<path fill="none" stroke="midnightblue" d="M1676.95,-588.96C1648.28,-578.48 1612.36,-565.37 1585.55,-555.58"/>
<polygon fill="midnightblue" stroke="midnightblue" points="1675.78,-592.25 1686.38,-592.4 1678.18,-585.68 1675.78,-592.25"/>
</g>
<!-- Node4 -->
<g id="node4" class="node">
<title>Node4</title>
<g id="a_node4"><a xlink:href="vtag_8hpp.html" target="_top" xlink:title="Provides bio::meta::vtag.">
<polygon fill="white" stroke="black" points="1617.5,-531 1617.5,-550 1742.5,-550 1742.5,-531 1617.5,-531"/>
<text text-anchor="middle" x="1680" y="-538" font-family="Helvetica,sans-Serif" font-size="10.00">bio/meta/tag/vtag.hpp</text>
</a>
</g>
</g>
<!-- Node2&#45;&gt;Node4 -->
<g id="edge3" class="edge">
<title>Node2&#45;&gt;Node4</title>
<path fill="none" stroke="midnightblue" d="M1709.41,-583.97C1701.35,-572.33 1691.98,-558.8 1686.02,-550.19"/>
<polygon fill="midnightblue" stroke="midnightblue" points="1706.67,-586.17 1715.24,-592.4 1712.42,-582.18 1706.67,-586.17"/>
</g>
<!-- Node14 -->
<g id="node14" class="node">
<title>Node14</title>
<g id="a_node14"><a xlink:href="translate_8hpp.html" target="_top" xlink:title="Provides bio::views::translate and bio::views::translate_single.">
<polygon fill="white" stroke="black" points="1548.5,-62 1548.5,-81 1715.5,-81 1715.5,-62 1548.5,-62"/>
<text text-anchor="middle" x="1632" y="-69" font-family="Helvetica,sans-Serif" font-size="10.00">bio/ranges/views/translate.hpp</text>
</a>
</g>
</g>
<!-- Node2&#45;&gt;Node14 -->
<g id="edge66" class="edge">
<title>Node2&#45;&gt;Node14</title>
<path fill="none" stroke="midnightblue" d="M1738.92,-583.53C1743.59,-575.1 1748.49,-565.33 1752,-556 1765.1,-521.19 1771,-511.69 1771,-474.5 1771,-474.5 1771,-474.5 1771,-204.5 1771,-163.75 1757.75,-151.87 1729,-123 1709.04,-102.96 1679.45,-89.14 1658.21,-81.09"/>
<polygon fill="midnightblue" stroke="midnightblue" points="1735.78,-581.97 1733.84,-592.39 1741.85,-585.45 1735.78,-581.97"/>
</g>
<!-- Node17 -->
<g id="node17" class="node">
<title>Node17</title>
<g id="a_node17"><a xlink:href="translate__join_8hpp.html" target="_top" xlink:title="Provides bio::views::translate_join.">
<polygon fill="white" stroke="black" points="1735,-56.5 1735,-86.5 1881,-86.5 1881,-56.5 1735,-56.5"/>
<text text-anchor="start" x="1743" y="-74.5" font-family="Helvetica,sans-Serif" font-size="10.00">bio/ranges/views/translate</text>
<text text-anchor="middle" x="1808" y="-63.5" font-family="Helvetica,sans-Serif" font-size="10.00">_join.hpp</text>
</a>
</g>
</g>
<!-- Node2&#45;&gt;Node17 -->
<g id="edge67" class="edge">
<title>Node2&#45;&gt;Node17</title>
<path fill="none" stroke="midnightblue" d="M1755.83,-586.23C1766.38,-577.96 1777.42,-567.6 1785,-556 1805.65,-524.39 1809,-512.26 1809,-474.5 1809,-474.5 1809,-474.5 1809,-204.5 1809,-161.64 1808.47,-110.97 1808.18,-86.76"/>
<polygon fill="midnightblue" stroke="midnightblue" points="1753.48,-583.62 1747.56,-592.4 1757.66,-589.23 1753.48,-583.62"/>
</g>
<!-- Node5 -->
<g id="node5" class="node">
<title>Node5</title>
<g id="a_node5"><a xlink:href="alphabet_2detail_2convert_8hpp_source.html" target="_top" xlink:title=" ">
<polygon fill="white" stroke="black" points="983,-458.5 983,-488.5 1091,-488.5 1091,-458.5 983,-458.5"/>
<text text-anchor="start" x="991" y="-476.5" font-family="Helvetica,sans-Serif" font-size="10.00">bio/alphabet/detail</text>
<text text-anchor="middle" x="1037" y="-465.5" font-family="Helvetica,sans-Serif" font-size="10.00">/convert.hpp</text>
</a>
</g>
</g>
<!-- Node4&#45;&gt;Node5 -->
<g id="edge4" class="edge">
<title>Node4&#45;&gt;Node5</title>
<path fill="none" stroke="midnightblue" d="M1631.78,-529.03C1623.86,-527.53 1615.72,-526.12 1608,-525 1419.13,-497.72 1192.85,-482.97 1091.16,-477.29"/>
<polygon fill="midnightblue" stroke="midnightblue" points="1631.16,-532.47 1641.65,-530.96 1632.51,-525.6 1631.16,-532.47"/>
</g>
<!-- Node34 -->
<g id="node34" class="node">
<title>Node34</title>
<g id="a_node34"><a xlink:href="meta_2tag_2all_8hpp.html" target="_top" xlink:title="Meta&#45;header for the folder.">
<polygon fill="white" stroke="black" points="1622.5,-464 1622.5,-483 1737.5,-483 1737.5,-464 1622.5,-464"/>
<text text-anchor="middle" x="1680" y="-471" font-family="Helvetica,sans-Serif" font-size="10.00">bio/meta/tag/all.hpp</text>
</a>
</g>
</g>
<!-- Node4&#45;&gt;Node34 -->
<g id="edge65" class="edge">
<title>Node4&#45;&gt;Node34</title>
<path fill="none" stroke="midnightblue" d="M1680,-520.54C1680,-508.17 1680,-492.62 1680,-483.13"/>
<polygon fill="midnightblue" stroke="midnightblue" points="1676.5,-520.73 1680,-530.73 1683.5,-520.73 1676.5,-520.73"/>
</g>
<!-- Node6 -->
<g id="node6" class="node">
<title>Node6</title>
<g id="a_node6"><a xlink:href="aminoacid__base_8hpp.html" target="_top" xlink:title="Provides bio::alphabet::aminoacid_base.">
<polygon fill="white" stroke="black" points="1150.5,-391.5 1150.5,-421.5 1281.5,-421.5 1281.5,-391.5 1150.5,-391.5"/>
<text text-anchor="start" x="1158.5" y="-409.5" font-family="Helvetica,sans-Serif" font-size="10.00">bio/alphabet/aminoacid</text>
<text text-anchor="middle" x="1216" y="-398.5" font-family="Helvetica,sans-Serif" font-size="10.00">/aminoacid_base.hpp</text>
</a>
</g>
</g>
<!-- Node5&#45;&gt;Node6 -->
<g id="edge5" class="edge">
<title>Node5&#45;&gt;Node6</title>
<path fill="none" stroke="midnightblue" d="M1085.32,-454.96C1114.15,-444.48 1150.28,-431.37 1177.24,-421.58"/>
<polygon fill="midnightblue" stroke="midnightblue" points="1084.05,-451.69 1075.84,-458.4 1086.43,-458.27 1084.05,-451.69"/>
</g>
<!-- Node19 -->
<g id="node19" class="node">
<title>Node19</title>
<g id="a_node19"><a xlink:href="nucleotide__base_8hpp.html" target="_top" xlink:title="Provides bio::alphabet::nucleotide_base.">
<polygon fill="white" stroke="black" points="710.5,-391.5 710.5,-421.5 841.5,-421.5 841.5,-391.5 710.5,-391.5"/>
<text text-anchor="start" x="718.5" y="-409.5" font-family="Helvetica,sans-Serif" font-size="10.00">bio/alphabet/nucleotide</text>
<text text-anchor="middle" x="776" y="-398.5" font-family="Helvetica,sans-Serif" font-size="10.00">/nucleotide_base.hpp</text>
</a>
</g>
</g>
<!-- Node5&#45;&gt;Node19 -->
<g id="edge27" class="edge">
<title>Node5&#45;&gt;Node19</title>
<path fill="none" stroke="midnightblue" d="M973.1,-456.59C930.01,-445.85 873.67,-431.82 832.26,-421.51"/>
<polygon fill="midnightblue" stroke="midnightblue" points="972.37,-460.01 982.92,-459.03 974.06,-453.22 972.37,-460.01"/>
</g>
<!-- Node30 -->
<g id="node30" class="node">
<title>Node30</title>
<g id="a_node30"><a xlink:href="quality__base_8hpp.html" target="_top" xlink:title="Provides bio::alphabet::phred42 quality scores.">
<polygon fill="white" stroke="black" points="144,-324.5 144,-354.5 258,-354.5 258,-324.5 144,-324.5"/>
<text text-anchor="start" x="152" y="-342.5" font-family="Helvetica,sans-Serif" font-size="10.00">bio/alphabet/quality</text>
<text text-anchor="middle" x="201" y="-331.5" font-family="Helvetica,sans-Serif" font-size="10.00">/quality_base.hpp</text>
</a>
</g>
</g>
<!-- Node5&#45;&gt;Node30 -->
<g id="edge57" class="edge">
<title>Node5&#45;&gt;Node30</title>
<path fill="none" stroke="midnightblue" d="M972.77,-463.09C905.12,-453.12 795.51,-436.8 701,-422 540.47,-396.85 351.23,-365.56 258.33,-350.08"/>
<polygon fill="midnightblue" stroke="midnightblue" points="972.44,-466.58 982.85,-464.57 973.46,-459.65 972.44,-466.58"/>
</g>
<!-- Node7 -->
<g id="node7" class="node">
<title>Node7</title>
<g id="a_node7"><a xlink:href="aa10li_8hpp.html" target="_top" xlink:title="Provides bio::alphabet::aa10li, container aliases and string literals.">
<polygon fill="white" stroke="black" points="1122.5,-190.5 1122.5,-220.5 1253.5,-220.5 1253.5,-190.5 1122.5,-190.5"/>
<text text-anchor="start" x="1130.5" y="-208.5" font-family="Helvetica,sans-Serif" font-size="10.00">bio/alphabet/aminoacid</text>
<text text-anchor="middle" x="1188" y="-197.5" font-family="Helvetica,sans-Serif" font-size="10.00">/aa10li.hpp</text>
</a>
</g>
</g>
<!-- Node6&#45;&gt;Node7 -->
<g id="edge6" class="edge">
<title>Node6&#45;&gt;Node7</title>
<path fill="none" stroke="midnightblue" d="M1212.59,-381.27C1206.68,-339.29 1194.73,-254.33 1190,-220.68"/>
<polygon fill="midnightblue" stroke="midnightblue" points="1209.13,-381.77 1213.99,-391.19 1216.06,-380.8 1209.13,-381.77"/>
</g>
<!-- Node10 -->
<g id="node10" class="node">
<title>Node10</title>
<g id="a_node10"><a xlink:href="aa10murphy_8hpp.html" target="_top" xlink:title="Provides bio::alphabet::aa10murphy, container aliases and string literals.">
<polygon fill="white" stroke="black" points="973.5,-190.5 973.5,-220.5 1104.5,-220.5 1104.5,-190.5 973.5,-190.5"/>
<text text-anchor="start" x="981.5" y="-208.5" font-family="Helvetica,sans-Serif" font-size="10.00">bio/alphabet/aminoacid</text>
<text text-anchor="middle" x="1039" y="-197.5" font-family="Helvetica,sans-Serif" font-size="10.00">/aa10murphy.hpp</text>
</a>
</g>
</g>
<!-- Node6&#45;&gt;Node10 -->
<g id="edge9" class="edge">
<title>Node6&#45;&gt;Node10</title>
<path fill="none" stroke="midnightblue" d="M1208.45,-381.61C1196.33,-344.51 1172.07,-275.4 1154,-257 1137.35,-240.04 1114.03,-228.37 1092.74,-220.55"/>
<polygon fill="midnightblue" stroke="midnightblue" points="1205.12,-382.71 1211.53,-391.15 1211.79,-380.56 1205.12,-382.71"/>
</g>
<!-- Node11 -->
<g id="node11" class="node">
<title>Node11</title>
<g id="a_node11"><a xlink:href="aa20_8hpp.html" target="_top" xlink:title="Provides bio::alphabet::aa20, container aliases and string literals.">
<polygon fill="white" stroke="black" points="1271.5,-190.5 1271.5,-220.5 1402.5,-220.5 1402.5,-190.5 1271.5,-190.5"/>
<text text-anchor="start" x="1279.5" y="-208.5" font-family="Helvetica,sans-Serif" font-size="10.00">bio/alphabet/aminoacid</text>
<text text-anchor="middle" x="1337" y="-197.5" font-family="Helvetica,sans-Serif" font-size="10.00">/aa20.hpp</text>
</a>
</g>
</g>
<!-- Node6&#45;&gt;Node11 -->
<g id="edge11" class="edge">
<title>Node6&#45;&gt;Node11</title>
<path fill="none" stroke="midnightblue" d="M1229.93,-382.59C1255.16,-341.1 1307.7,-254.68 1328.38,-220.68"/>
<polygon fill="midnightblue" stroke="midnightblue" points="1226.91,-380.83 1224.7,-391.19 1232.89,-384.46 1226.91,-380.83"/>
</g>
<!-- Node12 -->
<g id="node12" class="node">
<title>Node12</title>
<g id="a_node12"><a xlink:href="aa27_8hpp.html" target="_top" xlink:title="Provides bio::alphabet::aa27, container aliases and string literals.">
<polygon fill="white" stroke="black" points="1516.5,-324.5 1516.5,-354.5 1647.5,-354.5 1647.5,-324.5 1516.5,-324.5"/>
<text text-anchor="start" x="1524.5" y="-342.5" font-family="Helvetica,sans-Serif" font-size="10.00">bio/alphabet/aminoacid</text>
<text text-anchor="middle" x="1582" y="-331.5" font-family="Helvetica,sans-Serif" font-size="10.00">/aa27.hpp</text>
</a>
</g>
</g>
<!-- Node6&#45;&gt;Node12 -->
<g id="edge13" class="edge">
<title>Node6&#45;&gt;Node12</title>
<path fill="none" stroke="midnightblue" d="M1291.82,-392.03C1358.09,-380.27 1453.31,-363.36 1516.36,-352.16"/>
<polygon fill="midnightblue" stroke="midnightblue" points="1291.09,-388.61 1281.86,-393.8 1292.31,-395.5 1291.09,-388.61"/>
</g>
<!-- Node8 -->
<g id="node8" class="node">
<title>Node8</title>
<g id="a_node8"><a xlink:href="alphabet_2aminoacid_2all_8hpp.html" target="_top" xlink:title="Meta&#45;header for the aminoacid submodule; includes all headers from alphabet/aminoacid/.">
<polygon fill="white" stroke="black" points="1271.5,-123.5 1271.5,-153.5 1402.5,-153.5 1402.5,-123.5 1271.5,-123.5"/>
<text text-anchor="start" x="1279.5" y="-141.5" font-family="Helvetica,sans-Serif" font-size="10.00">bio/alphabet/aminoacid</text>
<text text-anchor="middle" x="1337" y="-130.5" font-family="Helvetica,sans-Serif" font-size="10.00">/all.hpp</text>
</a>
</g>
</g>
<!-- Node7&#45;&gt;Node8 -->
<g id="edge7" class="edge">
<title>Node7&#45;&gt;Node8</title>
<path fill="none" stroke="midnightblue" d="M1229.79,-186.27C1253.52,-175.92 1282.78,-163.15 1304.73,-153.58"/>
<polygon fill="midnightblue" stroke="midnightblue" points="1228.1,-183.19 1220.33,-190.4 1230.9,-189.61 1228.1,-183.19"/>
</g>
<!-- Node9 -->
<g id="node9" class="node">
<title>Node9</title>
<g id="a_node9"><a xlink:href="alphabet_2all_8hpp.html" target="_top" xlink:title="Meta&#45;header for the alphabet module.">
<polygon fill="white" stroke="black" points="669.5,-62 669.5,-81 782.5,-81 782.5,-62 669.5,-62"/>
<text text-anchor="middle" x="726" y="-69" font-family="Helvetica,sans-Serif" font-size="10.00">bio/alphabet/all.hpp</text>
</a>
</g>
</g>
<!-- Node8&#45;&gt;Node9 -->
<g id="edge8" class="edge">
<title>Node8&#45;&gt;Node9</title>
<path fill="none" stroke="midnightblue" d="M1261.14,-129.43C1137,-116.22 893.23,-90.29 782.78,-78.54"/>
<polygon fill="midnightblue" stroke="midnightblue" points="1261.01,-132.94 1271.32,-130.51 1261.75,-125.97 1261.01,-132.94"/>
</g>
<!-- Node10&#45;&gt;Node8 -->
<g id="edge10" class="edge">
<title>Node10&#45;&gt;Node8</title>
<path fill="none" stroke="midnightblue" d="M1113.2,-188.32C1162.18,-177.63 1225.71,-163.77 1272.56,-153.55"/>
<polygon fill="midnightblue" stroke="midnightblue" points="1112.32,-184.93 1103.29,-190.48 1113.81,-191.76 1112.32,-184.93"/>
</g>
<!-- Node11&#45;&gt;Node8 -->
<g id="edge12" class="edge">
<title>Node11&#45;&gt;Node8</title>
<path fill="none" stroke="midnightblue" d="M1337,-180.11C1337,-171.15 1337,-161.32 1337,-153.58"/>
<polygon fill="midnightblue" stroke="midnightblue" points="1333.5,-180.4 1337,-190.4 1340.5,-180.4 1333.5,-180.4"/>
</g>
<!-- Node12&#45;&gt;Node8 -->
<g id="edge14" class="edge">
<title>Node12&#45;&gt;Node8</title>
<path fill="none" stroke="midnightblue" d="M1564.02,-316.51C1537.63,-285.28 1485.68,-227.7 1432,-190 1411.82,-175.83 1387.2,-162.85 1368.07,-153.59"/>
<polygon fill="midnightblue" stroke="midnightblue" points="1561.37,-318.79 1570.47,-324.22 1566.74,-314.3 1561.37,-318.79"/>
</g>
<!-- Node13 -->
<g id="node13" class="node">
<title>Node13</title>
<g id="a_node13"><a xlink:href="translation_8hpp.html" target="_top" xlink:title="Provides functions for translating a triplet of nucleotides into an amino acid.">
<polygon fill="white" stroke="black" points="1497.5,-190.5 1497.5,-220.5 1628.5,-220.5 1628.5,-190.5 1497.5,-190.5"/>
<text text-anchor="start" x="1505.5" y="-208.5" font-family="Helvetica,sans-Serif" font-size="10.00">bio/alphabet/aminoacid</text>
<text text-anchor="middle" x="1563" y="-197.5" font-family="Helvetica,sans-Serif" font-size="10.00">/translation.hpp</text>
</a>
</g>
</g>
<!-- Node12&#45;&gt;Node13 -->
<g id="edge15" class="edge">
<title>Node12&#45;&gt;Node13</title>
<path fill="none" stroke="midnightblue" d="M1581.83,-313.99C1581.39,-297.73 1580.18,-275.97 1577,-257 1574.93,-244.62 1571.02,-230.91 1567.86,-220.9"/>
<polygon fill="midnightblue" stroke="midnightblue" points="1578.33,-314.33 1582.02,-324.26 1585.33,-314.2 1578.33,-314.33"/>
</g>
<!-- Node12&#45;&gt;Node14 -->
<g id="edge25" class="edge">
<title>Node12&#45;&gt;Node14</title>
<path fill="none" stroke="midnightblue" d="M1619.51,-319.12C1632.68,-310.91 1646.73,-300.36 1657,-288 1698.36,-238.22 1701.27,-217.46 1714,-154 1716.71,-140.49 1720.72,-135.03 1714,-123 1702.34,-102.13 1678.12,-88.82 1659.01,-81.13"/>
<polygon fill="midnightblue" stroke="midnightblue" points="1617.4,-316.31 1610.6,-324.43 1620.98,-322.32 1617.4,-316.31"/>
</g>
<!-- Node16 -->
<g id="node16" class="node">
<title>Node16</title>
<g id="a_node16"><a xlink:href="translate__single_8hpp.html" target="_top" xlink:title="Provides bio::views::translate and bio::views::translate_single.">
<polygon fill="white" stroke="black" points="1559,-123.5 1559,-153.5 1705,-153.5 1705,-123.5 1559,-123.5"/>
<text text-anchor="start" x="1567" y="-141.5" font-family="Helvetica,sans-Serif" font-size="10.00">bio/ranges/views/translate</text>
<text text-anchor="middle" x="1632" y="-130.5" font-family="Helvetica,sans-Serif" font-size="10.00">_single.hpp</text>
</a>
</g>
</g>
<!-- Node12&#45;&gt;Node16 -->
<g id="edge26" class="edge">
<title>Node12&#45;&gt;Node16</title>
<path fill="none" stroke="midnightblue" d="M1604.98,-317.38C1626.76,-295.66 1658.02,-259.63 1671,-221 1675.39,-207.94 1675.45,-203.04 1671,-190 1666.28,-176.16 1656.06,-163.17 1647.26,-153.83"/>
<polygon fill="midnightblue" stroke="midnightblue" points="1602.44,-314.97 1597.71,-324.45 1607.32,-319.98 1602.44,-314.97"/>
</g>
<!-- Node18 -->
<g id="node18" class="node">
<title>Node18</title>
<g id="a_node18"><a xlink:href="translation__details_8hpp.html" target="_top" xlink:title="Provides translation details for nucleotide to aminoacid translation.">
<polygon fill="white" stroke="black" points="1365.5,-257.5 1365.5,-287.5 1496.5,-287.5 1496.5,-257.5 1365.5,-257.5"/>
<text text-anchor="start" x="1373.5" y="-275.5" font-family="Helvetica,sans-Serif" font-size="10.00">bio/alphabet/aminoacid</text>
<text text-anchor="middle" x="1431" y="-264.5" font-family="Helvetica,sans-Serif" font-size="10.00">/translation_details.hpp</text>
</a>
</g>
</g>
<!-- Node12&#45;&gt;Node18 -->
<g id="edge22" class="edge">
<title>Node12&#45;&gt;Node18</title>
<path fill="none" stroke="midnightblue" d="M1539.97,-320.41C1515.86,-310.03 1486.05,-297.2 1463.7,-287.58"/>
<polygon fill="midnightblue" stroke="midnightblue" points="1538.67,-323.66 1549.24,-324.4 1541.43,-317.23 1538.67,-323.66"/>
</g>
<!-- Node13&#45;&gt;Node8 -->
<g id="edge16" class="edge">
<title>Node13&#45;&gt;Node8</title>
<path fill="none" stroke="midnightblue" d="M1504.17,-187.58C1467.46,-177.02 1420.77,-163.59 1386.06,-153.61"/>
<polygon fill="midnightblue" stroke="midnightblue" points="1503.66,-191.08 1514.24,-190.48 1505.6,-184.35 1503.66,-191.08"/>
</g>
<!-- Node13&#45;&gt;Node14 -->
<g id="edge17" class="edge">
<title>Node13&#45;&gt;Node14</title>
<path fill="none" stroke="midnightblue" d="M1551.67,-181.02C1545.17,-163.93 1540.07,-140.78 1550,-123 1561.66,-102.13 1585.88,-88.82 1604.99,-81.13"/>
<polygon fill="midnightblue" stroke="midnightblue" points="1548.47,-182.42 1555.56,-190.29 1554.92,-179.71 1548.47,-182.42"/>
</g>
<!-- Node13&#45;&gt;Node16 -->
<g id="edge19" class="edge">
<title>Node13&#45;&gt;Node16</title>
<path fill="none" stroke="midnightblue" d="M1585.49,-183.31C1595.84,-173.56 1607.84,-162.26 1617.06,-153.58"/>
<polygon fill="midnightblue" stroke="midnightblue" points="1582.85,-180.99 1577.97,-190.4 1587.65,-186.09 1582.85,-180.99"/>
</g>
<!-- Node15 -->
<g id="node15" class="node">
<title>Node15</title>
<g id="a_node15"><a xlink:href="ranges_2views_2all_8hpp.html" target="_top" xlink:title="Meta&#45;header for the views submodule .">
<polygon fill="white" stroke="black" points="1564.5,-0.5 1564.5,-19.5 1699.5,-19.5 1699.5,-0.5 1564.5,-0.5"/>
<text text-anchor="middle" x="1632" y="-7.5" font-family="Helvetica,sans-Serif" font-size="10.00">bio/ranges/views/all.hpp</text>
</a>
</g>
</g>
<!-- Node14&#45;&gt;Node15 -->
<g id="edge18" class="edge">
<title>Node14&#45;&gt;Node15</title>
<path fill="none" stroke="midnightblue" d="M1632,-51.82C1632,-41 1632,-27.9 1632,-19.51"/>
<polygon fill="midnightblue" stroke="midnightblue" points="1628.5,-51.98 1632,-61.98 1635.5,-51.98 1628.5,-51.98"/>
</g>
<!-- Node16&#45;&gt;Node14 -->
<g id="edge20" class="edge">
<title>Node16&#45;&gt;Node14</title>
<path fill="none" stroke="midnightblue" d="M1632,-113.25C1632,-102.02 1632,-89.38 1632,-81.19"/>
<polygon fill="midnightblue" stroke="midnightblue" points="1628.5,-113.4 1632,-123.4 1635.5,-113.4 1628.5,-113.4"/>
</g>
<!-- Node16&#45;&gt;Node17 -->
<g id="edge21" class="edge">
<title>Node16&#45;&gt;Node17</title>
<path fill="none" stroke="midnightblue" d="M1679.88,-119.82C1708.17,-109.37 1743.49,-96.32 1769.89,-86.58"/>
<polygon fill="midnightblue" stroke="midnightblue" points="1678.36,-116.65 1670.19,-123.4 1680.78,-123.21 1678.36,-116.65"/>
</g>
<!-- Node18&#45;&gt;Node8 -->
<g id="edge23" class="edge">
<title>Node18&#45;&gt;Node8</title>
<path fill="none" stroke="midnightblue" d="M1429.57,-246.89C1427.53,-229.65 1422.65,-206.79 1411,-190 1400.19,-174.41 1382.87,-162.21 1367.71,-153.71"/>
<polygon fill="midnightblue" stroke="midnightblue" points="1426.13,-247.65 1430.54,-257.28 1433.1,-247 1426.13,-247.65"/>
</g>
<!-- Node18&#45;&gt;Node13 -->
<g id="edge24" class="edge">
<title>Node18&#45;&gt;Node13</title>
<path fill="none" stroke="midnightblue" d="M1468.87,-252.85C1489.74,-242.58 1515.23,-230.03 1534.41,-220.58"/>
<polygon fill="midnightblue" stroke="midnightblue" points="1467.07,-249.84 1459.64,-257.4 1470.16,-256.12 1467.07,-249.84"/>
</g>
<!-- Node20 -->
<g id="node20" class="node">
<title>Node20</title>
<g id="a_node20"><a xlink:href="dna15_8hpp.html" target="_top" xlink:title="Provides bio::alphabet::dna15, container aliases and string literals.">
<polygon fill="white" stroke="black" points="660.5,-324.5 660.5,-354.5 791.5,-354.5 791.5,-324.5 660.5,-324.5"/>
<text text-anchor="start" x="668.5" y="-342.5" font-family="Helvetica,sans-Serif" font-size="10.00">bio/alphabet/nucleotide</text>
<text text-anchor="middle" x="726" y="-331.5" font-family="Helvetica,sans-Serif" font-size="10.00">/dna15.hpp</text>
</a>
</g>
</g>
<!-- Node19&#45;&gt;Node20 -->
<g id="edge28" class="edge">
<title>Node19&#45;&gt;Node20</title>
<path fill="none" stroke="midnightblue" d="M759.04,-383.45C751.69,-373.9 743.31,-363 736.83,-354.58"/>
<polygon fill="midnightblue" stroke="midnightblue" points="756.28,-385.6 765.15,-391.4 761.83,-381.34 756.28,-385.6"/>
</g>
<!-- Node22 -->
<g id="node22" class="node">
<title>Node22</title>
<g id="a_node22"><a xlink:href="rna15_8hpp.html" target="_top" xlink:title="Provides bio::alphabet::rna15, container aliases and string literals.">
<polygon fill="white" stroke="black" points="566.5,-257.5 566.5,-287.5 697.5,-287.5 697.5,-257.5 566.5,-257.5"/>
<text text-anchor="start" x="574.5" y="-275.5" font-family="Helvetica,sans-Serif" font-size="10.00">bio/alphabet/nucleotide</text>
<text text-anchor="middle" x="632" y="-264.5" font-family="Helvetica,sans-Serif" font-size="10.00">/rna15.hpp</text>
</a>
</g>
</g>
<!-- Node19&#45;&gt;Node22 -->
<g id="edge54" class="edge">
<title>Node19&#45;&gt;Node22</title>
<path fill="none" stroke="midnightblue" d="M700.86,-388.38C682.3,-380.9 664.02,-370.21 651,-355 634.66,-335.91 631.72,-305.4 631.54,-287.62"/>
<polygon fill="midnightblue" stroke="midnightblue" points="699.68,-391.67 710.27,-391.91 702.14,-385.12 699.68,-391.67"/>
</g>
<!-- Node25 -->
<g id="node25" class="node">
<title>Node25</title>
<g id="a_node25"><a xlink:href="dna16sam_8hpp.html" target="_top" xlink:title="Provides bio::alphabet::dna16sam.">
<polygon fill="white" stroke="black" points="980.5,-257.5 980.5,-287.5 1111.5,-287.5 1111.5,-257.5 980.5,-257.5"/>
<text text-anchor="start" x="988.5" y="-275.5" font-family="Helvetica,sans-Serif" font-size="10.00">bio/alphabet/nucleotide</text>
<text text-anchor="middle" x="1046" y="-264.5" font-family="Helvetica,sans-Serif" font-size="10.00">/dna16sam.hpp</text>
</a>
</g>
</g>
<!-- Node19&#45;&gt;Node25 -->
<g id="edge38" class="edge">
<title>Node19&#45;&gt;Node25</title>
<path fill="none" stroke="midnightblue" d="M851.64,-397C911.13,-388.94 987.85,-375.06 1012,-355 1032.64,-337.86 1040.95,-306.07 1044.14,-287.67"/>
<polygon fill="midnightblue" stroke="midnightblue" points="850.96,-393.56 841.51,-398.34 851.88,-400.5 850.96,-393.56"/>
</g>
<!-- Node26 -->
<g id="node26" class="node">
<title>Node26</title>
<g id="a_node26"><a xlink:href="dna4_8hpp.html" target="_top" xlink:title="Provides bio::alphabet::dna4, container aliases and string literals.">
<polygon fill="white" stroke="black" points="309.5,-324.5 309.5,-354.5 440.5,-354.5 440.5,-324.5 309.5,-324.5"/>
<text text-anchor="start" x="317.5" y="-342.5" font-family="Helvetica,sans-Serif" font-size="10.00">bio/alphabet/nucleotide</text>
<text text-anchor="middle" x="375" y="-331.5" font-family="Helvetica,sans-Serif" font-size="10.00">/dna4.hpp</text>
</a>
</g>
</g>
<!-- Node19&#45;&gt;Node26 -->
<g id="edge40" class="edge">
<title>Node19&#45;&gt;Node26</title>
<path fill="none" stroke="midnightblue" d="M699.93,-393.17C625.06,-381.03 511.91,-362.69 440.8,-351.17"/>
<polygon fill="midnightblue" stroke="midnightblue" points="699.8,-396.69 710.23,-394.84 700.92,-389.78 699.8,-396.69"/>
</g>
<!-- Node27 -->
<g id="node27" class="node">
<title>Node27</title>
<g id="a_node27"><a xlink:href="rna4_8hpp.html" target="_top" xlink:title="Provides bio::alphabet::rna4, container aliases and string literals.">
<polygon fill="white" stroke="black" points="378.5,-257.5 378.5,-287.5 509.5,-287.5 509.5,-257.5 378.5,-257.5"/>
<text text-anchor="start" x="386.5" y="-275.5" font-family="Helvetica,sans-Serif" font-size="10.00">bio/alphabet/nucleotide</text>
<text text-anchor="middle" x="444" y="-264.5" font-family="Helvetica,sans-Serif" font-size="10.00">/rna4.hpp</text>
</a>
</g>
</g>
<!-- Node19&#45;&gt;Node27 -->
<g id="edge55" class="edge">
<title>Node19&#45;&gt;Node27</title>
<path fill="none" stroke="midnightblue" d="M724.07,-388.11C696.8,-378.74 662.91,-366.72 633,-355 576.6,-332.91 512.03,-304.34 474.84,-287.56"/>
<polygon fill="midnightblue" stroke="midnightblue" points="723.21,-391.51 733.8,-391.44 725.47,-384.89 723.21,-391.51"/>
</g>
<!-- Node28 -->
<g id="node28" class="node">
<title>Node28</title>
<g id="a_node28"><a xlink:href="dna5_8hpp.html" target="_top" xlink:title="Provides bio::alphabet::dna5, container aliases and string literals.">
<polygon fill="white" stroke="black" points="872.5,-324.5 872.5,-354.5 1003.5,-354.5 1003.5,-324.5 872.5,-324.5"/>
<text text-anchor="start" x="880.5" y="-342.5" font-family="Helvetica,sans-Serif" font-size="10.00">bio/alphabet/nucleotide</text>
<text text-anchor="middle" x="938" y="-331.5" font-family="Helvetica,sans-Serif" font-size="10.00">/dna5.hpp</text>
</a>
</g>
</g>
<!-- Node19&#45;&gt;Node28 -->
<g id="edge46" class="edge">
<title>Node19&#45;&gt;Node28</title>
<path fill="none" stroke="midnightblue" d="M820.75,-387.54C846.67,-377.14 878.84,-364.24 902.92,-354.58"/>
<polygon fill="midnightblue" stroke="midnightblue" points="819.13,-384.42 811.15,-391.4 821.74,-390.92 819.13,-384.42"/>
</g>
<!-- Node29 -->
<g id="node29" class="node">
<title>Node29</title>
<g id="a_node29"><a xlink:href="rna5_8hpp.html" target="_top" xlink:title="Provides bio::alphabet::rna5, container aliases and string literals.">
<polygon fill="white" stroke="black" points="792.5,-257.5 792.5,-287.5 923.5,-287.5 923.5,-257.5 792.5,-257.5"/>
<text text-anchor="start" x="800.5" y="-275.5" font-family="Helvetica,sans-Serif" font-size="10.00">bio/alphabet/nucleotide</text>
<text text-anchor="middle" x="858" y="-264.5" font-family="Helvetica,sans-Serif" font-size="10.00">/rna5.hpp</text>
</a>
</g>
</g>
<!-- Node19&#45;&gt;Node29 -->
<g id="edge56" class="edge">
<title>Node19&#45;&gt;Node29</title>
<path fill="none" stroke="midnightblue" d="M790.08,-382.83C807.08,-355.47 835.15,-310.28 849.29,-287.52"/>
<polygon fill="midnightblue" stroke="midnightblue" points="787.08,-381.03 784.78,-391.37 793.03,-384.73 787.08,-381.03"/>
</g>
<!-- Node20&#45;&gt;Node18 -->
<g id="edge29" class="edge">
<title>Node20&#45;&gt;Node18</title>
<path fill="none" stroke="midnightblue" d="M801.77,-330.25C821.68,-328.15 843.14,-325.93 863,-324 1044.8,-306.3 1259.58,-287.88 1365.37,-278.98"/>
<polygon fill="midnightblue" stroke="midnightblue" points="801.4,-326.77 791.83,-331.31 802.14,-333.73 801.4,-326.77"/>
</g>
<!-- Node21 -->
<g id="node21" class="node">
<title>Node21</title>
<g id="a_node21"><a xlink:href="alphabet_2nucleotide_2all_8hpp.html" target="_top" xlink:title="Meta&#45;header for the nucleotide submodule; includes all headers from alphabet/nucleotide/.">
<polygon fill="white" stroke="black" points="660.5,-190.5 660.5,-220.5 791.5,-220.5 791.5,-190.5 660.5,-190.5"/>
<text text-anchor="start" x="668.5" y="-208.5" font-family="Helvetica,sans-Serif" font-size="10.00">bio/alphabet/nucleotide</text>
<text text-anchor="middle" x="726" y="-197.5" font-family="Helvetica,sans-Serif" font-size="10.00">/all.hpp</text>
</a>
</g>
</g>
<!-- Node20&#45;&gt;Node21 -->
<g id="edge30" class="edge">
<title>Node20&#45;&gt;Node21</title>
<path fill="none" stroke="midnightblue" d="M726,-314.02C726,-286.51 726,-242.79 726,-220.52"/>
<polygon fill="midnightblue" stroke="midnightblue" points="722.5,-314.37 726,-324.37 729.5,-314.37 722.5,-314.37"/>
</g>
<!-- Node20&#45;&gt;Node22 -->
<g id="edge32" class="edge">
<title>Node20&#45;&gt;Node22</title>
<path fill="none" stroke="midnightblue" d="M697.01,-318.45C682.55,-308.45 665.41,-296.6 652.36,-287.58"/>
<polygon fill="midnightblue" stroke="midnightblue" points="695.39,-321.59 705.6,-324.4 699.37,-315.83 695.39,-321.59"/>
</g>
<!-- Node23 -->
<g id="node23" class="node">
<title>Node23</title>
<g id="a_node23"><a xlink:href="aliases_8hpp.html" target="_top" xlink:title="Provides aliases for qualified.">
<polygon fill="white" stroke="black" points="434,-190.5 434,-220.5 548,-220.5 548,-190.5 434,-190.5"/>
<text text-anchor="start" x="442" y="-208.5" font-family="Helvetica,sans-Serif" font-size="10.00">bio/alphabet/quality</text>
<text text-anchor="middle" x="491" y="-197.5" font-family="Helvetica,sans-Serif" font-size="10.00">/aliases.hpp</text>
</a>
</g>
</g>
<!-- Node20&#45;&gt;Node23 -->
<g id="edge37" class="edge">
<title>Node20&#45;&gt;Node23</title>
<path fill="none" stroke="midnightblue" d="M650.41,-326.08C619.6,-318.53 584.78,-306.61 557,-288 530.68,-270.37 509.65,-239.05 498.88,-220.8"/>
<polygon fill="midnightblue" stroke="midnightblue" points="649.72,-329.52 660.26,-328.39 651.32,-322.7 649.72,-329.52"/>
</g>
<!-- Node21&#45;&gt;Node9 -->
<g id="edge31" class="edge">
<title>Node21&#45;&gt;Node9</title>
<path fill="none" stroke="midnightblue" d="M726,-180.32C726,-150.38 726,-100.91 726,-81.1"/>
<polygon fill="midnightblue" stroke="midnightblue" points="722.5,-180.37 726,-190.37 729.5,-180.37 722.5,-180.37"/>
</g>
<!-- Node22&#45;&gt;Node21 -->
<g id="edge33" class="edge">
<title>Node22&#45;&gt;Node21</title>
<path fill="none" stroke="midnightblue" d="M660.99,-251.45C675.45,-241.45 692.59,-229.6 705.64,-220.58"/>
<polygon fill="midnightblue" stroke="midnightblue" points="658.63,-248.83 652.4,-257.4 662.61,-254.59 658.63,-248.83"/>
</g>
<!-- Node22&#45;&gt;Node23 -->
<g id="edge34" class="edge">
<title>Node22&#45;&gt;Node23</title>
<path fill="none" stroke="midnightblue" d="M592.15,-253.13C569.75,-242.8 542.22,-230.11 521.54,-220.58"/>
<polygon fill="midnightblue" stroke="midnightblue" points="590.86,-256.39 601.41,-257.4 593.79,-250.03 590.86,-256.39"/>
</g>
<!-- Node24 -->
<g id="node24" class="node">
<title>Node24</title>
<g id="a_node24"><a xlink:href="alphabet_2quality_2all_8hpp.html" target="_top" xlink:title="Meta&#45;header that includes all headers from alphabet/quality/.">
<polygon fill="white" stroke="black" points="170,-123.5 170,-153.5 284,-153.5 284,-123.5 170,-123.5"/>
<text text-anchor="start" x="178" y="-141.5" font-family="Helvetica,sans-Serif" font-size="10.00">bio/alphabet/quality</text>
<text text-anchor="middle" x="227" y="-130.5" font-family="Helvetica,sans-Serif" font-size="10.00">/all.hpp</text>
</a>
</g>
</g>
<!-- Node23&#45;&gt;Node24 -->
<g id="edge35" class="edge">
<title>Node23&#45;&gt;Node24</title>
<path fill="none" stroke="midnightblue" d="M424.19,-188.05C381.03,-177.43 325.46,-163.74 284.31,-153.61"/>
<polygon fill="midnightblue" stroke="midnightblue" points="423.49,-191.48 434.04,-190.48 425.17,-184.69 423.49,-191.48"/>
</g>
<!-- Node24&#45;&gt;Node9 -->
<g id="edge36" class="edge">
<title>Node24&#45;&gt;Node9</title>
<path fill="none" stroke="midnightblue" d="M294.44,-128.71C393.59,-115.8 576.9,-91.92 669.43,-79.87"/>
<polygon fill="midnightblue" stroke="midnightblue" points="293.71,-125.28 284.24,-130.04 294.61,-132.22 293.71,-125.28"/>
</g>
<!-- Node25&#45;&gt;Node21 -->
<g id="edge39" class="edge">
<title>Node25&#45;&gt;Node21</title>
<path fill="none" stroke="midnightblue" d="M970.55,-256.17C916.23,-245.14 843.66,-230.4 791.72,-219.85"/>
<polygon fill="midnightblue" stroke="midnightblue" points="969.97,-259.63 980.47,-258.19 971.37,-252.77 969.97,-259.63"/>
</g>
<!-- Node26&#45;&gt;Node21 -->
<g id="edge41" class="edge">
<title>Node26&#45;&gt;Node21</title>
<path fill="none" stroke="midnightblue" d="M365.02,-314.69C359.24,-296.71 355.48,-272.56 369,-257 378.47,-246.1 559.72,-224.68 660.23,-213.57"/>
<polygon fill="midnightblue" stroke="midnightblue" points="361.76,-315.97 368.44,-324.2 368.35,-313.6 361.76,-315.97"/>
</g>
<!-- Node26&#45;&gt;Node23 -->
<g id="edge45" class="edge">
<title>Node26&#45;&gt;Node23</title>
<path fill="none" stroke="midnightblue" d="M352.57,-317.05C337.41,-299.9 322.42,-275.71 336,-257 358.2,-226.42 399.39,-214 433.74,-209.12"/>
<polygon fill="midnightblue" stroke="midnightblue" points="350.06,-319.49 359.45,-324.39 355.17,-314.7 350.06,-319.49"/>
</g>
<!-- Node26&#45;&gt;Node27 -->
<g id="edge42" class="edge">
<title>Node26&#45;&gt;Node27</title>
<path fill="none" stroke="midnightblue" d="M397.49,-317.31C407.84,-307.56 419.84,-296.26 429.06,-287.58"/>
<polygon fill="midnightblue" stroke="midnightblue" points="394.85,-314.99 389.97,-324.4 399.65,-320.09 394.85,-314.99"/>
</g>
<!-- Node27&#45;&gt;Node21 -->
<g id="edge43" class="edge">
<title>Node27&#45;&gt;Node21</title>
<path fill="none" stroke="midnightblue" d="M514.78,-255.19C560.96,-244.54 620.64,-230.78 664.78,-220.61"/>
<polygon fill="midnightblue" stroke="midnightblue" points="513.8,-251.82 504.84,-257.48 515.37,-258.64 513.8,-251.82"/>
</g>
<!-- Node27&#45;&gt;Node23 -->
<g id="edge44" class="edge">
<title>Node27&#45;&gt;Node23</title>
<path fill="none" stroke="midnightblue" d="M460.16,-249.16C467.01,-239.68 474.79,-228.92 480.82,-220.58"/>
<polygon fill="midnightblue" stroke="midnightblue" points="457.22,-247.24 454.2,-257.4 462.89,-251.34 457.22,-247.24"/>
</g>
<!-- Node28&#45;&gt;Node14 -->
<g id="edge52" class="edge">
<title>Node28&#45;&gt;Node14</title>
<path fill="none" stroke="midnightblue" d="M1013.67,-326.92C1057.55,-318.48 1106.72,-305.47 1120,-288 1128.34,-277.03 1128.58,-267.78 1120,-257 1075.7,-201.32 1008.3,-276.68 964,-221 955.42,-210.22 955.39,-200.76 964,-190 1035.68,-100.41 1385.32,-79.13 1548.2,-74.08"/>
<polygon fill="midnightblue" stroke="midnightblue" points="1013.01,-323.48 1003.82,-328.75 1014.29,-330.36 1013.01,-323.48"/>
</g>
<!-- Node28&#45;&gt;Node16 -->
<g id="edge53" class="edge">
<title>Node28&#45;&gt;Node16</title>
<path fill="none" stroke="midnightblue" d="M1013.66,-335.33C1146.37,-329.19 1415.57,-313.92 1506,-288 1569.24,-269.87 1603.58,-277.07 1638,-221 1650.69,-200.32 1643.75,-170.91 1637.74,-153.65"/>
<polygon fill="midnightblue" stroke="midnightblue" points="1013.41,-331.84 1003.58,-335.8 1013.73,-338.83 1013.41,-331.84"/>
</g>
<!-- Node28&#45;&gt;Node21 -->
<g id="edge47" class="edge">
<title>Node28&#45;&gt;Node21</title>
<path fill="none" stroke="midnightblue" d="M943.14,-314.29C945.44,-296.42 945.19,-272.59 932,-257 913.96,-235.67 844.92,-221.88 791.69,-214.19"/>
<polygon fill="midnightblue" stroke="midnightblue" points="939.67,-313.83 941.51,-324.26 946.57,-314.96 939.67,-313.83"/>
</g>
<!-- Node28&#45;&gt;Node23 -->
<g id="edge51" class="edge">
<title>Node28&#45;&gt;Node23</title>
<path fill="none" stroke="midnightblue" d="M882.19,-321.32C852.56,-311.95 815.62,-299.86 783,-288 748.33,-275.39 741.17,-268.14 706,-257 653.36,-240.33 591.92,-226.43 548.22,-217.47"/>
<polygon fill="midnightblue" stroke="midnightblue" points="881.35,-324.73 891.94,-324.39 883.45,-318.05 881.35,-324.73"/>
</g>
<!-- Node28&#45;&gt;Node29 -->
<g id="edge48" class="edge">
<title>Node28&#45;&gt;Node29</title>
<path fill="none" stroke="midnightblue" d="M912.63,-317.88C900.47,-308.01 886.22,-296.43 875.32,-287.58"/>
<polygon fill="midnightblue" stroke="midnightblue" points="910.67,-320.81 920.64,-324.4 915.09,-315.37 910.67,-320.81"/>
</g>
<!-- Node29&#45;&gt;Node21 -->
<g id="edge49" class="edge">
<title>Node29&#45;&gt;Node21</title>
<path fill="none" stroke="midnightblue" d="M820.13,-252.85C799.26,-242.58 773.77,-230.03 754.59,-220.58"/>
<polygon fill="midnightblue" stroke="midnightblue" points="818.84,-256.12 829.36,-257.4 821.93,-249.84 818.84,-256.12"/>
</g>
<!-- Node29&#45;&gt;Node23 -->
<g id="edge50" class="edge">
<title>Node29&#45;&gt;Node23</title>
<path fill="none" stroke="midnightblue" d="M781.9,-257.7C780.59,-257.46 779.29,-257.23 778,-257 698.31,-242.77 606.13,-226.6 548.19,-216.47"/>
<polygon fill="midnightblue" stroke="midnightblue" points="781.62,-261.2 792.08,-259.53 782.86,-254.31 781.62,-261.2"/>
</g>
<!-- Node31 -->
<g id="node31" class="node">
<title>Node31</title>
<g id="a_node31"><a xlink:href="phred42_8hpp.html" target="_top" xlink:title="Provides bio::alphabet::phred42 quality scores.">
<polygon fill="white" stroke="black" points="170,-257.5 170,-287.5 284,-287.5 284,-257.5 170,-257.5"/>
<text text-anchor="start" x="178" y="-275.5" font-family="Helvetica,sans-Serif" font-size="10.00">bio/alphabet/quality</text>
<text text-anchor="middle" x="227" y="-264.5" font-family="Helvetica,sans-Serif" font-size="10.00">/phred42.hpp</text>
</a>
</g>
</g>
<!-- Node30&#45;&gt;Node31 -->
<g id="edge58" class="edge">
<title>Node30&#45;&gt;Node31</title>
<path fill="none" stroke="midnightblue" d="M210.4,-314.99C214.08,-305.8 218.17,-295.58 221.37,-287.58"/>
<polygon fill="midnightblue" stroke="midnightblue" points="207.11,-313.81 206.64,-324.4 213.61,-316.41 207.11,-313.81"/>
</g>
<!-- Node32 -->
<g id="node32" class="node">
<title>Node32</title>
<g id="a_node32"><a xlink:href="phred63_8hpp.html" target="_top" xlink:title="Provides bio::alphabet::phred63 quality scores.">
<polygon fill="white" stroke="black" points="85,-190.5 85,-220.5 199,-220.5 199,-190.5 85,-190.5"/>
<text text-anchor="start" x="93" y="-208.5" font-family="Helvetica,sans-Serif" font-size="10.00">bio/alphabet/quality</text>
<text text-anchor="middle" x="142" y="-197.5" font-family="Helvetica,sans-Serif" font-size="10.00">/phred63.hpp</text>
</a>
</g>
</g>
<!-- Node30&#45;&gt;Node32 -->
<g id="edge61" class="edge">
<title>Node30&#45;&gt;Node32</title>
<path fill="none" stroke="midnightblue" d="M180.06,-316.44C173.1,-308.08 165.88,-298.12 161,-288 150.33,-265.89 145.47,-237.45 143.4,-220.68"/>
<polygon fill="midnightblue" stroke="midnightblue" points="177.63,-318.98 186.84,-324.22 182.91,-314.38 177.63,-318.98"/>
</g>
<!-- Node33 -->
<g id="node33" class="node">
<title>Node33</title>
<g id="a_node33"><a xlink:href="phred68legacy_8hpp.html" target="_top" xlink:title="Provides bio::alphabet::phred68legacy quality scores.">
<polygon fill="white" stroke="black" points="0,-257.5 0,-287.5 114,-287.5 114,-257.5 0,-257.5"/>
<text text-anchor="start" x="8" y="-275.5" font-family="Helvetica,sans-Serif" font-size="10.00">bio/alphabet/quality</text>
<text text-anchor="middle" x="57" y="-264.5" font-family="Helvetica,sans-Serif" font-size="10.00">/phred68legacy.hpp</text>
</a>
</g>
</g>
<!-- Node30&#45;&gt;Node33 -->
<g id="edge63" class="edge">
<title>Node30&#45;&gt;Node33</title>
<path fill="none" stroke="midnightblue" d="M160.61,-320.27C137.68,-309.92 109.4,-297.15 88.18,-287.58"/>
<polygon fill="midnightblue" stroke="midnightblue" points="159.2,-323.47 169.75,-324.4 162.08,-317.09 159.2,-323.47"/>
</g>
<!-- Node31&#45;&gt;Node23 -->
<g id="edge59" class="edge">
<title>Node31&#45;&gt;Node23</title>
<path fill="none" stroke="midnightblue" d="M293.81,-255.05C336.97,-244.43 392.54,-230.74 433.69,-220.61"/>
<polygon fill="midnightblue" stroke="midnightblue" points="292.83,-251.69 283.96,-257.48 294.51,-258.48 292.83,-251.69"/>
</g>
<!-- Node31&#45;&gt;Node24 -->
<g id="edge60" class="edge">
<title>Node31&#45;&gt;Node24</title>
<path fill="none" stroke="midnightblue" d="M227,-247.02C227,-219.51 227,-175.79 227,-153.52"/>
<polygon fill="midnightblue" stroke="midnightblue" points="223.5,-247.37 227,-257.37 230.5,-247.37 223.5,-247.37"/>
</g>
<!-- Node32&#45;&gt;Node24 -->
<g id="edge62" class="edge">
<title>Node32&#45;&gt;Node24</title>
<path fill="none" stroke="midnightblue" d="M168.59,-184.17C181.59,-174.23 196.9,-162.51 208.59,-153.58"/>
<polygon fill="midnightblue" stroke="midnightblue" points="166.26,-181.54 160.44,-190.4 170.51,-187.1 166.26,-181.54"/>
</g>
<!-- Node33&#45;&gt;Node24 -->
<g id="edge64" class="edge">
<title>Node33&#45;&gt;Node24</title>
<path fill="none" stroke="midnightblue" d="M56.64,-247.21C57.67,-229.3 61.92,-205.46 76,-190 99.91,-163.73 137.87,-151.11 169.74,-145.06"/>
<polygon fill="midnightblue" stroke="midnightblue" points="53.14,-247.12 56.36,-257.22 60.14,-247.32 53.14,-247.12"/>
</g>
</g>
</svg>
        <g id="navigator" transform="translate(0 0)" fill="#404254">
                <rect fill="#f2f5e9" fill-opacity="0.5" stroke="#606060" stroke-width=".5" x="0" y="0" width="60" height="60"/>
                <use id="zoomplus" xlink:href="#zoomPlus" x="17" y="9" onmousedown="handleZoom(evt,'in')"/>
                <use id="zoomminus" xlink:href="#zoomMin" x="42" y="9" onmousedown="handleZoom(evt,'out')"/>
                <use id="reset" xlink:href="#resetDef" x="30" y="36" onmousedown="handleReset()"/>
                <g id="arrowUp" xlink:href="#dirArrow" transform="translate(30 24)" onmousedown="handlePan(0,-1)">
                  <use xlink:href="#rim" fill="#404040">
                        <set attributeName="fill" to="#808080" begin="arrowUp.mouseover" end="arrowUp.mouseout"/>
                  </use>
                  <path fill="none" stroke="white" stroke-width="1.5" d="M0,-3.0v7 M-2.5,-0.5L0,-3.0L2.5,-0.5"/>
                </g>
                <g id="arrowRight" xlink:href="#dirArrow" transform="rotate(90) translate(36 -43)" onmousedown="handlePan(1,0)">
                  <use xlink:href="#rim" fill="#404040">
                        <set attributeName="fill" to="#808080" begin="arrowRight.mouseover" end="arrowRight.mouseout"/>
                  </use>
                  <path fill="none" stroke="white" stroke-width="1.5" d="M0,-3.0v7 M-2.5,-0.5L0,-3.0L2.5,-0.5"/>
                </g>
                <g id="arrowDown" xlink:href="#dirArrow" transform="rotate(180) translate(-30 -48)" onmousedown="handlePan(0,1)">
                  <use xlink:href="#rim" fill="#404040">
                        <set attributeName="fill" to="#808080" begin="arrowDown.mouseover" end="arrowDown.mouseout"/>
                  </use>
                  <path fill="none" stroke="white" stroke-width="1.5" d="M0,-3.0v7 M-2.5,-0.5L0,-3.0L2.5,-0.5"/>
                </g>
                <g id="arrowLeft" xlink:href="#dirArrow" transform="rotate(270) translate(-36 17)" onmousedown="handlePan(-1,0)">
                  <use xlink:href="#rim" fill="#404040">
                        <set attributeName="fill" to="#808080" begin="arrowLeft.mouseover" end="arrowLeft.mouseout"/>
                  </use>
                  <path fill="none" stroke="white" stroke-width="1.5" d="M0,-3.0v7 M-2.5,-0.5L0,-3.0L2.5,-0.5"/>
                </g>
        </g>
        <svg viewBox="0 0 15 15" width="100%" height="30px" preserveAspectRatio="xMaxYMin meet">
         <g id="arrow_out" transform="scale(0.3 0.3)">
          <a xlink:href="small__vector_8hpp__dep__incl_org.svg" target="_base">
           <rect id="button" ry="5" rx="5" y="6" x="6" height="38" width="38"
                fill="#f2f5e9" fill-opacity="0.5" stroke="#606060" stroke-width="1.0"/>
           <path id="arrow"
             d="M 11.500037,31.436501 C 11.940474,20.09759 22.043105,11.32322 32.158766,21.979434 L 37.068811,17.246167 C 37.068811,17.246167 37.088388,32 37.088388,32 L 22.160133,31.978069 C 22.160133,31.978069 26.997745,27.140456 26.997745,27.140456 C 18.528582,18.264221 13.291696,25.230495 11.500037,31.436501 z"
             style="fill:#404040;"/>
          </a>
         </g>
        </svg>
</svg>
