<?xml version="1.0" encoding="UTF-8" standalone="no"?>
<!DOCTYPE svg PUBLIC "-//W3C//DTD SVG 1.1//EN"
 "http://www.w3.org/Graphics/SVG/1.1/DTD/svg11.dtd">
<!-- Generated by graphviz version 2.43.0 (0)
 -->
<!-- Title: bio/meta/detail/strong_type.hpp Pages: 1 -->
<svg width="420pt" height="285pt"
 viewBox="0.00 0.00 420.00 285.00" xmlns="http://www.w3.org/2000/svg" xmlns:xlink="http://www.w3.org/1999/xlink">
<g id="graph0" class="graph" transform="scale(1 1) rotate(0) translate(4 281)">
<title>bio/meta/detail/strong_type.hpp</title>
<polygon fill="white" stroke="transparent" points="-4,4 -4,-281 416,-281 416,4 -4,4"/>
<!-- Node1 -->
<g id="node1" class="node">
<title>Node1</title>
<g id="a_node1"><a xlink:title="Provides basic data structure for strong types.">
<polygon fill="#bfbfbf" stroke="black" points="115.5,-246.5 115.5,-276.5 240.5,-276.5 240.5,-246.5 115.5,-246.5"/>
<text text-anchor="start" x="123.5" y="-264.5" font-family="Helvetica,sans-Serif" font-size="10.00">bio/meta/detail/strong</text>
<text text-anchor="middle" x="178" y="-253.5" font-family="Helvetica,sans-Serif" font-size="10.00">_type.hpp</text>
</a>
</g>
</g>
<!-- Node2 -->
<g id="node2" class="node">
<title>Node2</title>
<g id="a_node2"><a target="_blank" xlink:href="https://en.cppreference.com/w/cpp/header/concepts.html" xlink:title=" ">
<polygon fill="white" stroke="black" points="0,-185 0,-204 60,-204 60,-185 0,-185"/>
<text text-anchor="middle" x="30" y="-192" font-family="Helvetica,sans-Serif" font-size="10.00">concepts</text>
</a>
</g>
</g>
<!-- Node1&#45;&gt;Node2 -->
<g id="edge1" class="edge">
<title>Node1&#45;&gt;Node2</title>
<path fill="none" stroke="midnightblue" d="M145.89,-246.4C119.92,-234.99 83.69,-219.08 58.68,-208.1"/>
<polygon fill="midnightblue" stroke="midnightblue" points="59.93,-204.82 49.37,-204.01 57.12,-211.23 59.93,-204.82"/>
</g>
<!-- Node3 -->
<g id="node3" class="node">
<title>Node3</title>
<g id="a_node3"><a target="_blank" xlink:href="https://en.cppreference.com/w/cpp/header/type_traits.html" xlink:title=" ">
<polygon fill="white" stroke="black" points="246.5,-118 246.5,-137 315.5,-137 315.5,-118 246.5,-118"/>
<text text-anchor="middle" x="281" y="-125" font-family="Helvetica,sans-Serif" font-size="10.00">type_traits</text>
</a>
</g>
</g>
<!-- Node1&#45;&gt;Node3 -->
<g id="edge2" class="edge">
<title>Node1&#45;&gt;Node3</title>
<path fill="none" stroke="midnightblue" d="M204.91,-246.48C219.6,-237.68 237.17,-225.14 249,-210 263.74,-191.14 272.45,-164.66 276.97,-147.06"/>
<polygon fill="midnightblue" stroke="midnightblue" points="280.42,-147.71 279.32,-137.17 273.61,-146.09 280.42,-147.71"/>
</g>
<!-- Node4 -->
<g id="node4" class="node">
<title>Node4</title>
<g id="a_node4"><a xlink:href="add__enum__bitwise__operators_8hpp.html" target="_top" xlink:title="Provides bio::add_enum_bitwise_operators.">
<polygon fill="white" stroke="black" points="6.5,-112.5 6.5,-142.5 161.5,-142.5 161.5,-112.5 6.5,-112.5"/>
<text text-anchor="start" x="14.5" y="-130.5" font-family="Helvetica,sans-Serif" font-size="10.00">bio/meta/add_enum_bitwise</text>
<text text-anchor="middle" x="84" y="-119.5" font-family="Helvetica,sans-Serif" font-size="10.00">_operators.hpp</text>
</a>
</g>
</g>
<!-- Node1&#45;&gt;Node4 -->
<g id="edge3" class="edge">
<title>Node1&#45;&gt;Node4</title>
<path fill="none" stroke="midnightblue" d="M149.45,-246.3C134.8,-237.66 117.8,-225.33 107,-210 95.12,-193.14 89.36,-170.29 86.57,-153.07"/>
<polygon fill="midnightblue" stroke="midnightblue" points="89.97,-152.12 85.13,-142.69 83.04,-153.08 89.97,-152.12"/>
</g>
<!-- Node10 -->
<g id="node10" class="node">
<title>Node10</title>
<g id="a_node10"><a xlink:href="debug__stream__type_8hpp.html" target="_top" xlink:title="Provides bio::debug_stream and related types.">
<polygon fill="white" stroke="black" points="116,-179.5 116,-209.5 240,-209.5 240,-179.5 116,-179.5"/>
<text text-anchor="start" x="124" y="-197.5" font-family="Helvetica,sans-Serif" font-size="10.00">bio/meta/detail/debug</text>
<text text-anchor="middle" x="178" y="-186.5" font-family="Helvetica,sans-Serif" font-size="10.00">_stream_type.hpp</text>
</a>
</g>
</g>
<!-- Node1&#45;&gt;Node10 -->
<g id="edge9" class="edge">
<title>Node1&#45;&gt;Node10</title>
<path fill="none" stroke="midnightblue" d="M178,-246.4C178,-238.64 178,-228.81 178,-219.86"/>
<polygon fill="midnightblue" stroke="midnightblue" points="181.5,-219.58 178,-209.58 174.5,-219.58 181.5,-219.58"/>
</g>
<!-- Node12 -->
<g id="node12" class="node">
<title>Node12</title>
<g id="a_node12"><a xlink:href="basic_8hpp.html" target="_top" xlink:title="Provides various type traits on generic types.">
<polygon fill="white" stroke="black" points="296,-179.5 296,-209.5 412,-209.5 412,-179.5 296,-179.5"/>
<text text-anchor="start" x="304" y="-197.5" font-family="Helvetica,sans-Serif" font-size="10.00">bio/meta/type_traits</text>
<text text-anchor="middle" x="354" y="-186.5" font-family="Helvetica,sans-Serif" font-size="10.00">/basic.hpp</text>
</a>
</g>
</g>
<!-- Node1&#45;&gt;Node12 -->
<g id="edge12" class="edge">
<title>Node1&#45;&gt;Node12</title>
<path fill="none" stroke="midnightblue" d="M216.19,-246.4C242.6,-236.64 277.93,-223.59 306.2,-213.15"/>
<polygon fill="midnightblue" stroke="midnightblue" points="307.72,-216.32 315.89,-209.58 305.29,-209.76 307.72,-216.32"/>
</g>
<!-- Node5 -->
<g id="node5" class="node">
<title>Node5</title>
<g id="a_node5"><a xlink:title=" ">
<polygon fill="white" stroke="#bfbfbf" points="49.5,-56.5 49.5,-75.5 118.5,-75.5 118.5,-56.5 49.5,-56.5"/>
<text text-anchor="middle" x="84" y="-63.5" font-family="Helvetica,sans-Serif" font-size="10.00">type_traits</text>
</a>
</g>
</g>
<!-- Node4&#45;&gt;Node5 -->
<g id="edge4" class="edge">
<title>Node4&#45;&gt;Node5</title>
<path fill="none" stroke="midnightblue" d="M84,-112.4C84,-104.47 84,-94.46 84,-85.86"/>
<polygon fill="midnightblue" stroke="midnightblue" points="87.5,-85.66 84,-75.66 80.5,-85.66 87.5,-85.66"/>
</g>
<!-- Node6 -->
<g id="node6" class="node">
<title>Node6</title>
<g id="a_node6"><a xlink:href="platform_8hpp.html" target="_top" xlink:title="Provides platform and dependency checks.">
<polygon fill="white" stroke="black" points="238,-56.5 238,-75.5 364,-75.5 364,-56.5 238,-56.5"/>
<text text-anchor="middle" x="301" y="-63.5" font-family="Helvetica,sans-Serif" font-size="10.00">bio/meta/platform.hpp</text>
</a>
</g>
</g>
<!-- Node4&#45;&gt;Node6 -->
<g id="edge5" class="edge">
<title>Node4&#45;&gt;Node6</title>
<path fill="none" stroke="midnightblue" d="M135.15,-112.47C173.24,-102.03 224.57,-87.96 259.98,-78.25"/>
<polygon fill="midnightblue" stroke="midnightblue" points="261.26,-81.53 269.98,-75.51 259.41,-74.78 261.26,-81.53"/>
</g>
<!-- Node7 -->
<g id="node7" class="node">
<title>Node7</title>
<g id="a_node7"><a target="_blank" xlink:href="https://en.cppreference.com/w/cpp/header/cinttypes.html" xlink:title=" ">
<polygon fill="white" stroke="black" points="194,-0.5 194,-19.5 256,-19.5 256,-0.5 194,-0.5"/>
<text text-anchor="middle" x="225" y="-7.5" font-family="Helvetica,sans-Serif" font-size="10.00">cinttypes</text>
</a>
</g>
</g>
<!-- Node6&#45;&gt;Node7 -->
<g id="edge6" class="edge">
<title>Node6&#45;&gt;Node7</title>
<path fill="none" stroke="midnightblue" d="M288.79,-56.32C277.22,-48.11 259.62,-35.6 245.84,-25.81"/>
<polygon fill="midnightblue" stroke="midnightblue" points="247.61,-22.77 237.43,-19.83 243.56,-28.48 247.61,-22.77"/>
</g>
<!-- Node8 -->
<g id="node8" class="node">
<title>Node8</title>
<g id="a_node8"><a target="_blank" xlink:href="https://en.cppreference.com/w/cpp/header/ciso646.html" xlink:title=" ">
<polygon fill="white" stroke="black" points="274,-0.5 274,-19.5 328,-19.5 328,-0.5 274,-0.5"/>
<text text-anchor="middle" x="301" y="-7.5" font-family="Helvetica,sans-Serif" font-size="10.00">ciso646</text>
</a>
</g>
</g>
<!-- Node6&#45;&gt;Node8 -->
<g id="edge7" class="edge">
<title>Node6&#45;&gt;Node8</title>
<path fill="none" stroke="midnightblue" d="M301,-56.08C301,-49.01 301,-38.86 301,-29.99"/>
<polygon fill="midnightblue" stroke="midnightblue" points="304.5,-29.75 301,-19.75 297.5,-29.75 304.5,-29.75"/>
</g>
<!-- Node9 -->
<g id="node9" class="node">
<title>Node9</title>
<g id="a_node9"><a target="_blank" xlink:href="https://en.cppreference.com/w/cpp/header/cstddef.html" xlink:title=" ">
<polygon fill="white" stroke="black" points="346.5,-0.5 346.5,-19.5 399.5,-19.5 399.5,-0.5 346.5,-0.5"/>
<text text-anchor="middle" x="373" y="-7.5" font-family="Helvetica,sans-Serif" font-size="10.00">cstddef</text>
</a>
</g>
</g>
<!-- Node6&#45;&gt;Node9 -->
<g id="edge8" class="edge">
<title>Node6&#45;&gt;Node9</title>
<path fill="none" stroke="midnightblue" d="M312.57,-56.32C323.42,-48.18 339.88,-35.84 352.88,-26.09"/>
<polygon fill="midnightblue" stroke="midnightblue" points="355.32,-28.63 361.22,-19.83 351.12,-23.03 355.32,-28.63"/>
</g>
<!-- Node10&#45;&gt;Node4 -->
<g id="edge11" class="edge">
<title>Node10&#45;&gt;Node4</title>
<path fill="none" stroke="midnightblue" d="M157.6,-179.4C144.55,-170.37 127.4,-158.51 112.95,-148.52"/>
<polygon fill="midnightblue" stroke="midnightblue" points="114.57,-145.39 104.36,-142.58 110.59,-151.14 114.57,-145.39"/>
</g>
<!-- Node11 -->
<g id="node11" class="node">
<title>Node11</title>
<g id="a_node11"><a target="_blank" xlink:href="https://en.cppreference.com/w/cpp/header/iosfwd.html" xlink:title=" ">
<polygon fill="white" stroke="black" points="180,-118 180,-137 228,-137 228,-118 180,-118"/>
<text text-anchor="middle" x="204" y="-125" font-family="Helvetica,sans-Serif" font-size="10.00">iosfwd</text>
</a>
</g>
</g>
<!-- Node10&#45;&gt;Node11 -->
<g id="edge10" class="edge">
<title>Node10&#45;&gt;Node11</title>
<path fill="none" stroke="midnightblue" d="M183.64,-179.4C187.49,-169.76 192.63,-156.91 196.79,-146.54"/>
<polygon fill="midnightblue" stroke="midnightblue" points="200.06,-147.78 200.52,-137.19 193.56,-145.18 200.06,-147.78"/>
</g>
<!-- Node12&#45;&gt;Node3 -->
<g id="edge14" class="edge">
<title>Node12&#45;&gt;Node3</title>
<path fill="none" stroke="midnightblue" d="M338.16,-179.4C326.44,-168.96 310.48,-154.75 298.41,-144"/>
<polygon fill="midnightblue" stroke="midnightblue" points="300.56,-141.23 290.76,-137.19 295.91,-146.46 300.56,-141.23"/>
</g>
<!-- Node12&#45;&gt;Node6 -->
<g id="edge15" class="edge">
<title>Node12&#45;&gt;Node6</title>
<path fill="none" stroke="midnightblue" d="M366.56,-179.25C379.79,-162.4 397.03,-133.89 384,-112 374.9,-96.72 358.61,-86.31 342.86,-79.39"/>
<polygon fill="midnightblue" stroke="midnightblue" points="343.77,-75.98 333.18,-75.51 341.17,-82.48 343.77,-75.98"/>
</g>
<!-- Node13 -->
<g id="node13" class="node">
<title>Node13</title>
<g id="a_node13"><a target="_blank" xlink:href="https://en.cppreference.com/w/cpp/header/tuple.html" xlink:title=" ">
<polygon fill="white" stroke="black" points="333.5,-118 333.5,-137 374.5,-137 374.5,-118 333.5,-118"/>
<text text-anchor="middle" x="354" y="-125" font-family="Helvetica,sans-Serif" font-size="10.00">tuple</text>
</a>
</g>
</g>
<!-- Node12&#45;&gt;Node13 -->
<g id="edge13" class="edge">
<title>Node12&#45;&gt;Node13</title>
<path fill="none" stroke="midnightblue" d="M354,-179.4C354,-170.06 354,-157.71 354,-147.52"/>
<polygon fill="midnightblue" stroke="midnightblue" points="357.5,-147.19 354,-137.19 350.5,-147.19 357.5,-147.19"/>
</g>
</g>
</svg>
