<?xml version="1.0" encoding="UTF-8" standalone="no"?>
<!DOCTYPE svg PUBLIC "-//W3C//DTD SVG 1.1//EN"
 "http://www.w3.org/Graphics/SVG/1.1/DTD/svg11.dtd">
<!-- Generated by graphviz version 2.43.0 (0)
 -->
<!-- Title: bio::value_type&lt; t &gt; Pages: 1 -->
<svg width="240pt" height="95pt"
 viewBox="0.00 0.00 239.50 95.00" xmlns="http://www.w3.org/2000/svg" xmlns:xlink="http://www.w3.org/1999/xlink">
<g id="graph0" class="graph" transform="scale(1 1) rotate(0) translate(4 91)">
<title>bio::value_type&lt; t &gt;</title>
<polygon fill="white" stroke="transparent" points="-4,4 -4,-91 235.5,-91 235.5,4 -4,4"/>
<!-- Node1 -->
<g id="node1" class="node">
<title>Node1</title>
<g id="a_node1"><a xlink:title="Exposes the value_type of another type.">
<polygon fill="#bfbfbf" stroke="black" points="60.5,-0.5 60.5,-19.5 178.5,-19.5 178.5,-0.5 60.5,-0.5"/>
<text text-anchor="middle" x="119.5" y="-7.5" font-family="Helvetica,sans-Serif" font-size="10.00">bio::value_type&lt; t &gt;</text>
</a>
</g>
</g>
<!-- Node2 -->
<g id="node2" class="node">
<title>Node2</title>
<g id="a_node2"><a xlink:href="interfacebio_1_1transformation__trait.html" target="_top" xlink:title="Concept for a transformation trait.">
<polygon fill="white" stroke="black" points="0,-62 0,-81 115,-81 115,-62 0,-62"/>
<text text-anchor="middle" x="57.5" y="-69" font-family="Helvetica,sans-Serif" font-size="10.00">transformation_trait</text>
</a>
</g>
</g>
<!-- Node2&#45;&gt;Node1 -->
<g id="edge1" class="edge">
<title>Node2&#45;&gt;Node1</title>
<path fill="none" stroke="midnightblue" d="M73.83,-54.82C85.61,-43.52 101.06,-28.69 110.63,-19.51"/>
<polygon fill="midnightblue" stroke="midnightblue" points="71.17,-52.53 66.38,-61.98 76.02,-57.58 71.17,-52.53"/>
</g>
<!-- Node3 -->
<g id="node3" class="node">
<title>Node3</title>
<g id="a_node3"><a xlink:title=" ">
<polygon fill="white" stroke="#bfbfbf" points="133.5,-56.5 133.5,-86.5 231.5,-86.5 231.5,-56.5 133.5,-56.5"/>
<text text-anchor="start" x="141.5" y="-74.5" font-family="Helvetica,sans-Serif" font-size="10.00">bio::detail::value</text>
<text text-anchor="middle" x="182.5" y="-63.5" font-family="Helvetica,sans-Serif" font-size="10.00">_type&lt; t &gt;</text>
</a>
</g>
</g>
<!-- Node3&#45;&gt;Node1 -->
<g id="edge2" class="edge">
<title>Node3&#45;&gt;Node1</title>
<path fill="none" stroke="midnightblue" d="M160.05,-49.3C149.24,-39.09 136.87,-27.41 128.67,-19.66"/>
<polygon fill="midnightblue" stroke="midnightblue" points="157.9,-52.08 167.57,-56.4 162.7,-46.99 157.9,-52.08"/>
</g>
</g>
</svg>
