<?xml version="1.0" encoding="UTF-8" standalone="no"?>
<!DOCTYPE svg PUBLIC "-//W3C//DTD SVG 1.1//EN"
 "http://www.w3.org/Graphics/SVG/1.1/DTD/svg11.dtd">
<!-- Generated by graphviz version 2.43.0 (0)
 -->
<!-- Title: std::tuple_size&lt; t&lt; types... &gt; &gt; Pages: 1 -->
<svg width="496pt" height="98pt"
 viewBox="0.00 0.00 496.00 97.50" xmlns="http://www.w3.org/2000/svg" xmlns:xlink="http://www.w3.org/1999/xlink">
<g id="graph0" class="graph" transform="scale(1 1) rotate(0) translate(4 93.5)">
<title>std::tuple_size&lt; t&lt; types... &gt; &gt;</title>
<!-- Node1 -->
<g id="node1" class="node">
<title>Node1</title>
<g id="a_node1"><a xlink:title="Provides access to the number of elements in a tuple as a compile&#45;time constant expression.">
<polygon fill="#999999" stroke="#666666" points="488,-62.5 396,-62.5 396,-32.5 488,-32.5 488,-62.5"/>
<text text-anchor="start" x="404" y="-50.5" font-family="Helvetica,sans-Serif" font-size="10.00">std::tuple_size&lt; t</text>
<text text-anchor="middle" x="442" y="-39.5" font-family="Helvetica,sans-Serif" font-size="10.00">&lt; types... &gt; &gt;</text>
</a>
</g>
</g>
<!-- Node2 -->
<g id="node2" class="node">
<title>Node2</title>
<g id="a_node2"><a xlink:title=" ">
<polygon fill="white" stroke="#bfbfbf" points="358,-89.5 247,-89.5 247,-59.5 358,-59.5 358,-89.5"/>
<text text-anchor="start" x="255" y="-77.5" font-family="Helvetica,sans-Serif" font-size="10.00">bio::meta::unary_type</text>
<text text-anchor="middle" x="302.5" y="-66.5" font-family="Helvetica,sans-Serif" font-size="10.00">_trait</text>
</a>
</g>
</g>
<!-- Node2&#45;&gt;Node1 -->
<g id="edge1" class="edge">
<title>Node2&#45;&gt;Node1</title>
<path fill="none" stroke="#63b8ff" d="M368.25,-61.79C377.54,-59.96 386.93,-58.12 395.73,-56.39"/>
<polygon fill="#63b8ff" stroke="#63b8ff" points="367.38,-58.39 358.24,-63.75 368.73,-65.26 367.38,-58.39"/>
</g>
<!-- Node3 -->
<g id="node3" class="node">
<title>Node3</title>
<g id="a_node3"><a target="_blank" xlink:href="https://en.cppreference.com/w/cpp/types/integral_constant.html" xlink:title=" ">
<polygon fill="white" stroke="#bfbfbf" points="359,-41 246,-41 246,0 359,0 359,-41"/>
<text text-anchor="start" x="254" y="-29" font-family="Helvetica,sans-Serif" font-size="10.00">std::integral_constant</text>
<text text-anchor="start" x="254" y="-18" font-family="Helvetica,sans-Serif" font-size="10.00">&lt; std::size_t, sizeof...</text>
<text text-anchor="middle" x="302.5" y="-7" font-family="Helvetica,sans-Serif" font-size="10.00">(types)&gt;</text>
</a>
</g>
</g>
<!-- Node3&#45;&gt;Node1 -->
<g id="edge2" class="edge">
<title>Node3&#45;&gt;Node1</title>
<path fill="none" stroke="#63b8ff" d="M368.86,-33.33C377.98,-35.13 387.18,-36.93 395.81,-38.63"/>
<polygon fill="#63b8ff" stroke="#63b8ff" points="369.52,-29.9 359.03,-31.4 368.17,-36.77 369.52,-29.9"/>
</g>
<!-- Node4 -->
<g id="node4" class="node">
<title>Node4</title>
<g id="a_node4"><a target="_blank" xlink:href="https://en.cppreference.com/w/cpp/types/integral_constant.html" xlink:title=" ">
<polygon fill="white" stroke="#bfbfbf" points="110,-30 0,-30 0,-11 110,-11 110,-30"/>
<text text-anchor="middle" x="55" y="-18" font-family="Helvetica,sans-Serif" font-size="10.00">std::integral_constant</text>
</a>
</g>
</g>
<!-- Node4&#45;&gt;Node3 -->
<g id="edge3" class="edge">
<title>Node4&#45;&gt;Node3</title>
<path fill="none" stroke="orange" stroke-dasharray="5,2" d="M120.36,-20.5C159.31,-20.5 208.48,-20.5 245.76,-20.5"/>
<polygon fill="orange" stroke="orange" points="120.18,-17 110.18,-20.5 120.18,-24 120.18,-17"/>
<text text-anchor="start" x="128" y="-34.5" font-family="Helvetica,sans-Serif" font-size="10.00"> &lt; std::size_t, sizeof...</text>
<text text-anchor="middle" x="178" y="-23.5" font-family="Helvetica,sans-Serif" font-size="10.00">(types)&gt;</text>
</g>
</g>
</svg>
