<?xml version="1.0" encoding="UTF-8" standalone="no"?>
<!DOCTYPE svg PUBLIC "-//W3C//DTD SVG 1.1//EN"
 "http://www.w3.org/Graphics/SVG/1.1/DTD/svg11.dtd">
<!-- Generated by graphviz version 2.43.0 (0)
 -->
<!-- Title: bio::size_type&lt; t &gt; Pages: 1 -->
<svg width="286pt" height="84pt"
 viewBox="0.00 0.00 285.50 84.00" xmlns="http://www.w3.org/2000/svg" xmlns:xlink="http://www.w3.org/1999/xlink">
<g id="graph0" class="graph" transform="scale(1 1) rotate(0) translate(4 80)">
<title>bio::size_type&lt; t &gt;</title>
<polygon fill="white" stroke="transparent" points="-4,4 -4,-80 281.5,-80 281.5,4 -4,4"/>
<!-- Node1 -->
<g id="node1" class="node">
<title>Node1</title>
<g id="a_node1"><a xlink:title="Exposes the size_type of another type.">
<polygon fill="#bfbfbf" stroke="black" points="76.5,-0.5 76.5,-19.5 186.5,-19.5 186.5,-0.5 76.5,-0.5"/>
<text text-anchor="middle" x="131.5" y="-7.5" font-family="Helvetica,sans-Serif" font-size="10.00">bio::size_type&lt; t &gt;</text>
</a>
</g>
</g>
<!-- Node2 -->
<g id="node2" class="node">
<title>Node2</title>
<g id="a_node2"><a xlink:href="interfacebio_1_1transformation__trait.html" target="_top" xlink:title="Concept for a transformation trait.">
<polygon fill="white" stroke="black" points="0,-56.5 0,-75.5 115,-75.5 115,-56.5 0,-56.5"/>
<text text-anchor="middle" x="57.5" y="-63.5" font-family="Helvetica,sans-Serif" font-size="10.00">transformation_trait</text>
</a>
</g>
</g>
<!-- Node2&#45;&gt;Node1 -->
<g id="edge1" class="edge">
<title>Node2&#45;&gt;Node1</title>
<path fill="none" stroke="midnightblue" d="M77.53,-50.38C90.91,-40.62 108.06,-28.11 119.39,-19.83"/>
<polygon fill="midnightblue" stroke="midnightblue" points="75.4,-47.6 69.39,-56.32 79.53,-53.26 75.4,-47.6"/>
</g>
<!-- Node3 -->
<g id="node3" class="node">
<title>Node3</title>
<g id="a_node3"><a xlink:title=" ">
<polygon fill="white" stroke="#bfbfbf" points="133.5,-56.5 133.5,-75.5 277.5,-75.5 277.5,-56.5 133.5,-56.5"/>
<text text-anchor="middle" x="205.5" y="-63.5" font-family="Helvetica,sans-Serif" font-size="10.00">bio::detail::size_type&lt; t &gt;</text>
</a>
</g>
</g>
<!-- Node3&#45;&gt;Node1 -->
<g id="edge2" class="edge">
<title>Node3&#45;&gt;Node1</title>
<path fill="none" stroke="midnightblue" d="M185.47,-50.38C172.09,-40.62 154.94,-28.11 143.61,-19.83"/>
<polygon fill="midnightblue" stroke="midnightblue" points="183.47,-53.26 193.61,-56.32 187.6,-47.6 183.47,-53.26"/>
</g>
</g>
</svg>
