<?xml version="1.0" encoding="UTF-8" standalone="no"?>
<!DOCTYPE svg PUBLIC "-//W3C//DTD SVG 1.1//EN"
 "http://www.w3.org/Graphics/SVG/1.1/DTD/svg11.dtd">
<!-- Generated by graphviz version 2.43.0 (0)
 -->
<!-- Title: bio::meta::is_value_specialisation_of&lt; source_t, target_template &gt; Pages: 1 -->
<svg width="618pt" height="100pt"
 viewBox="0.00 0.00 618.00 99.50" xmlns="http://www.w3.org/2000/svg" xmlns:xlink="http://www.w3.org/1999/xlink">
<g id="graph0" class="graph" transform="scale(1 1) rotate(0) translate(4 95.5)">
<title>bio::meta::is_value_specialisation_of&lt; source_t, target_template &gt;</title>
<polygon fill="white" stroke="transparent" points="-4,4 -4,-95.5 614,-95.5 614,4 -4,4"/>
<!-- Node1 -->
<g id="node1" class="node">
<title>Node1</title>
<g id="a_node1"><a xlink:title="Determines whether a source_type is a specialisation of another template.">
<polygon fill="#bfbfbf" stroke="black" points="453,-33 453,-74 610,-74 610,-33 453,-33"/>
<text text-anchor="start" x="461" y="-62" font-family="Helvetica,sans-Serif" font-size="10.00">bio::meta::is_value</text>
<text text-anchor="start" x="461" y="-51" font-family="Helvetica,sans-Serif" font-size="10.00">_specialisation_of&lt;</text>
<text text-anchor="middle" x="531.5" y="-40" font-family="Helvetica,sans-Serif" font-size="10.00"> source_t, target_template &gt;</text>
</a>
</g>
</g>
<!-- Node2 -->
<g id="node2" class="node">
<title>Node2</title>
<g id="a_node2"><a xlink:href="interfacebio_1_1meta_1_1unary__type__trait.html" target="_top" xlink:title="Concept for a unary traits type.">
<polygon fill="white" stroke="black" points="301,-72 301,-91 398,-91 398,-72 301,-72"/>
<text text-anchor="middle" x="349.5" y="-79" font-family="Helvetica,sans-Serif" font-size="10.00">unary_type_trait</text>
</a>
</g>
</g>
<!-- Node2&#45;&gt;Node1 -->
<g id="edge1" class="edge">
<title>Node2&#45;&gt;Node1</title>
<path fill="none" stroke="midnightblue" d="M408.35,-72.5C422.54,-70.29 437.96,-67.9 452.91,-65.57"/>
<polygon fill="midnightblue" stroke="midnightblue" points="407.61,-69.07 398.26,-74.07 408.68,-75.99 407.61,-69.07"/>
</g>
<!-- Node3 -->
<g id="node3" class="node">
<title>Node3</title>
<g id="a_node3"><a target="_blank" xlink:href="https://en.cppreference.com/w/cpp/types/is_same.html" xlink:title=" ">
<polygon fill="white" stroke="black" points="283,-0.5 283,-52.5 416,-52.5 416,-0.5 283,-0.5"/>
<text text-anchor="start" x="291" y="-40.5" font-family="Helvetica,sans-Serif" font-size="10.00">std::is_same&lt; source</text>
<text text-anchor="start" x="291" y="-29.5" font-family="Helvetica,sans-Serif" font-size="10.00">_t, transfer_template</text>
<text text-anchor="start" x="291" y="-18.5" font-family="Helvetica,sans-Serif" font-size="10.00">_vargs_onto_t&lt; source</text>
<text text-anchor="middle" x="349.5" y="-7.5" font-family="Helvetica,sans-Serif" font-size="10.00">_t, target_template &gt; &gt;</text>
</a>
</g>
</g>
<!-- Node3&#45;&gt;Node1 -->
<g id="edge2" class="edge">
<title>Node3&#45;&gt;Node1</title>
<path fill="none" stroke="midnightblue" d="M426.37,-37.88C435.08,-39.19 443.97,-40.52 452.71,-41.83"/>
<polygon fill="midnightblue" stroke="midnightblue" points="426.66,-34.38 416.25,-36.36 425.62,-41.31 426.66,-34.38"/>
</g>
<!-- Node4 -->
<g id="node4" class="node">
<title>Node4</title>
<g id="a_node4"><a target="_blank" xlink:href="https://en.cppreference.com/w/cpp/types/is_same.html" xlink:title=" ">
<polygon fill="white" stroke="black" points="0,-17 0,-36 78,-36 78,-17 0,-17"/>
<text text-anchor="middle" x="39" y="-24" font-family="Helvetica,sans-Serif" font-size="10.00">std::is_same</text>
</a>
</g>
</g>
<!-- Node4&#45;&gt;Node3 -->
<g id="edge3" class="edge">
<title>Node4&#45;&gt;Node3</title>
<path fill="none" stroke="orange" stroke-dasharray="5,2" d="M88.18,-26.5C140.56,-26.5 224.59,-26.5 282.96,-26.5"/>
<polygon fill="orange" stroke="orange" points="88.14,-23 78.14,-26.5 88.14,-30 88.14,-23"/>
<text text-anchor="start" x="96" y="-51.5" font-family="Helvetica,sans-Serif" font-size="10.00"> &lt; source_t, transfer</text>
<text text-anchor="start" x="96" y="-40.5" font-family="Helvetica,sans-Serif" font-size="10.00">_template_vargs_onto</text>
<text text-anchor="middle" x="180.5" y="-29.5" font-family="Helvetica,sans-Serif" font-size="10.00">_t&lt; source_t, target_template &gt; &gt;</text>
</g>
</g>
</svg>
