<?xml version="1.0" encoding="UTF-8" standalone="no"?>
<!DOCTYPE svg PUBLIC "-//W3C//DTD SVG 1.1//EN"
 "http://www.w3.org/Graphics/SVG/1.1/DTD/svg11.dtd">
<!-- Generated by graphviz version 2.43.0 (0)
 -->
<!-- Title: bio::meta::is_type_specialisation_of&lt; source_t, target_template &gt; Pages: 1 -->
<svg width="212pt" height="106pt"
 viewBox="0.00 0.00 212.00 106.00" xmlns="http://www.w3.org/2000/svg" xmlns:xlink="http://www.w3.org/1999/xlink">
<g id="graph0" class="graph" transform="scale(1 1) rotate(0) translate(4 102)">
<title>bio::meta::is_type_specialisation_of&lt; source_t, target_template &gt;</title>
<polygon fill="white" stroke="transparent" points="-4,4 -4,-102 208,-102 208,4 -4,4"/>
<!-- Node1 -->
<g id="node1" class="node">
<title>Node1</title>
<g id="a_node1"><a xlink:title="Determines whether a source_type is a specialisation of another template.">
<polygon fill="#bfbfbf" stroke="black" points="25,-0.5 25,-41.5 182,-41.5 182,-0.5 25,-0.5"/>
<text text-anchor="start" x="33" y="-29.5" font-family="Helvetica,sans-Serif" font-size="10.00">bio::meta::is_type</text>
<text text-anchor="start" x="33" y="-18.5" font-family="Helvetica,sans-Serif" font-size="10.00">_specialisation_of&lt;</text>
<text text-anchor="middle" x="103.5" y="-7.5" font-family="Helvetica,sans-Serif" font-size="10.00"> source_t, target_template &gt;</text>
</a>
</g>
</g>
<!-- Node2 -->
<g id="node2" class="node">
<title>Node2</title>
<g id="a_node2"><a xlink:href="interfacebio_1_1meta_1_1unary__type__trait.html" target="_top" xlink:title="Concept for a unary traits type.">
<polygon fill="white" stroke="black" points="0,-78.5 0,-97.5 97,-97.5 97,-78.5 0,-78.5"/>
<text text-anchor="middle" x="48.5" y="-85.5" font-family="Helvetica,sans-Serif" font-size="10.00">unary_type_trait</text>
</a>
</g>
</g>
<!-- Node2&#45;&gt;Node1 -->
<g id="edge1" class="edge">
<title>Node2&#45;&gt;Node1</title>
<path fill="none" stroke="midnightblue" d="M62.42,-70.54C69.89,-61.72 79.14,-50.79 86.96,-41.54"/>
<polygon fill="midnightblue" stroke="midnightblue" points="59.71,-68.34 55.92,-78.23 65.05,-72.86 59.71,-68.34"/>
</g>
<!-- Node3 -->
<g id="node3" class="node">
<title>Node3</title>
<g id="a_node3"><a target="_blank" xlink:href="https://en.cppreference.com/w/cpp/types/integral_constant.html" xlink:title=" ">
<polygon fill="white" stroke="black" points="115,-78.5 115,-97.5 204,-97.5 204,-78.5 115,-78.5"/>
<text text-anchor="middle" x="159.5" y="-85.5" font-family="Helvetica,sans-Serif" font-size="10.00">std::false_type</text>
</a>
</g>
</g>
<!-- Node3&#45;&gt;Node1 -->
<g id="edge2" class="edge">
<title>Node3&#45;&gt;Node1</title>
<path fill="none" stroke="midnightblue" d="M145.32,-70.54C137.72,-61.72 128.31,-50.79 120.34,-41.54"/>
<polygon fill="midnightblue" stroke="midnightblue" points="142.77,-72.94 151.95,-78.23 148.07,-68.37 142.77,-72.94"/>
</g>
</g>
</svg>
