<?xml version="1.0" encoding="UTF-8" standalone="no"?>
<!DOCTYPE svg PUBLIC "-//W3C//DTD SVG 1.1//EN"
 "http://www.w3.org/Graphics/SVG/1.1/DTD/svg11.dtd">
<!-- Generated by graphviz version 2.43.0 (0)
 -->
<!-- Title: std::tuple_size&lt; tuple_t &gt; Pages: 1 -->
<svg width="632pt" height="100pt"
 viewBox="0.00 0.00 632.00 99.50" xmlns="http://www.w3.org/2000/svg" xmlns:xlink="http://www.w3.org/1999/xlink">
<g id="graph0" class="graph" transform="scale(1 1) rotate(0) translate(4 95.5)">
<title>std::tuple_size&lt; tuple_t &gt;</title>
<polygon fill="white" stroke="transparent" points="-4,4 -4,-95.5 628,-95.5 628,4 -4,4"/>
<!-- Node1 -->
<g id="node1" class="node">
<title>Node1</title>
<g id="a_node1"><a xlink:title="Provides access to the number of elements in a tuple as a compile&#45;time constant expression.">
<polygon fill="#bfbfbf" stroke="black" points="481,-44 481,-63 624,-63 624,-44 481,-44"/>
<text text-anchor="middle" x="552.5" y="-51" font-family="Helvetica,sans-Serif" font-size="10.00">std::tuple_size&lt; tuple_t &gt;</text>
</a>
</g>
</g>
<!-- Node2 -->
<g id="node2" class="node">
<title>Node2</title>
<g id="a_node2"><a xlink:href="interfacebio_1_1meta_1_1unary__type__trait.html" target="_top" xlink:title="Concept for a unary traits type.">
<polygon fill="white" stroke="black" points="317.5,-72 317.5,-91 414.5,-91 414.5,-72 317.5,-72"/>
<text text-anchor="middle" x="366" y="-79" font-family="Helvetica,sans-Serif" font-size="10.00">unary_type_trait</text>
</a>
</g>
</g>
<!-- Node2&#45;&gt;Node1 -->
<g id="edge1" class="edge">
<title>Node2&#45;&gt;Node1</title>
<path fill="none" stroke="midnightblue" d="M424.6,-72.76C445,-69.66 468.04,-66.17 488.84,-63.01"/>
<polygon fill="midnightblue" stroke="midnightblue" points="423.87,-69.33 414.51,-74.29 424.93,-76.25 423.87,-69.33"/>
</g>
<!-- Node3 -->
<g id="node3" class="node">
<title>Node3</title>
<g id="a_node3"><a target="_blank" xlink:href="https://en.cppreference.com/w/cpp/types/integral_constant.html" xlink:title=" ">
<polygon fill="white" stroke="black" points="288,-0.5 288,-52.5 444,-52.5 444,-0.5 288,-0.5"/>
<text text-anchor="start" x="296" y="-40.5" font-family="Helvetica,sans-Serif" font-size="10.00">std::integral_constant</text>
<text text-anchor="start" x="296" y="-29.5" font-family="Helvetica,sans-Serif" font-size="10.00">&lt; size_t, bio::meta::list</text>
<text text-anchor="start" x="296" y="-18.5" font-family="Helvetica,sans-Serif" font-size="10.00">_traits::size&lt; tuple_t::biocpp</text>
<text text-anchor="middle" x="366" y="-7.5" font-family="Helvetica,sans-Serif" font-size="10.00">_required_types &gt; &gt;</text>
</a>
</g>
</g>
<!-- Node3&#45;&gt;Node1 -->
<g id="edge2" class="edge">
<title>Node3&#45;&gt;Node1</title>
<path fill="none" stroke="midnightblue" d="M454.1,-39.25C464.95,-40.83 475.89,-42.44 486.33,-43.96"/>
<polygon fill="midnightblue" stroke="midnightblue" points="454.58,-35.78 444.18,-37.79 453.56,-42.71 454.58,-35.78"/>
</g>
<!-- Node4 -->
<g id="node4" class="node">
<title>Node4</title>
<g id="a_node4"><a target="_blank" xlink:href="https://en.cppreference.com/w/cpp/types/integral_constant.html" xlink:title=" ">
<polygon fill="white" stroke="black" points="0,-17 0,-36 122,-36 122,-17 0,-17"/>
<text text-anchor="middle" x="61" y="-24" font-family="Helvetica,sans-Serif" font-size="10.00">std::integral_constant</text>
</a>
</g>
</g>
<!-- Node4&#45;&gt;Node3 -->
<g id="edge3" class="edge">
<title>Node4&#45;&gt;Node3</title>
<path fill="none" stroke="orange" stroke-dasharray="5,2" d="M132.23,-26.5C178.82,-26.5 239.96,-26.5 287.89,-26.5"/>
<polygon fill="orange" stroke="orange" points="132.23,-23 122.23,-26.5 132.23,-30 132.23,-23"/>
<text text-anchor="start" x="140" y="-62.5" font-family="Helvetica,sans-Serif" font-size="10.00"> &lt; size_t, bio::meta</text>
<text text-anchor="start" x="140" y="-51.5" font-family="Helvetica,sans-Serif" font-size="10.00">::list_traits::size</text>
<text text-anchor="start" x="140" y="-40.5" font-family="Helvetica,sans-Serif" font-size="10.00">&lt; tuple_t::biocpp_required</text>
<text text-anchor="middle" x="205" y="-29.5" font-family="Helvetica,sans-Serif" font-size="10.00">_types &gt; &gt;</text>
</g>
</g>
</svg>
