<?xml version="1.0" encoding="UTF-8" standalone="no"?>
<!DOCTYPE svg PUBLIC "-//W3C//DTD SVG 1.1//EN"
 "http://www.w3.org/Graphics/SVG/1.1/DTD/svg11.dtd">
<!-- Generated by graphviz version 2.42.2 ()
 -->
<!-- Title: bio/ranges/views/take_exactly.hpp Pages: 1 -->
<svg width="582pt" height="374pt"
 viewBox="0.00 0.00 582.00 374.00" xmlns="http://www.w3.org/2000/svg" xmlns:xlink="http://www.w3.org/1999/xlink">
<g id="graph0" class="graph" transform="scale(1 1) rotate(0) translate(4 370)">
<title>bio/ranges/views/take_exactly.hpp</title>
<polygon fill="white" stroke="transparent" points="-4,4 -4,-370 578,-370 578,4 -4,4"/>
<!-- Node1 -->
<g id="node1" class="node">
<title>Node1</title>
<g id="a_node1"><a xlink:title="Provides bio::views::take_exactly and bio::views::take_exactly_or_throw.">
<polygon fill="#bfbfbf" stroke="black" points="71,-335.5 71,-365.5 183,-365.5 183,-335.5 71,-335.5"/>
<text text-anchor="start" x="79" y="-353.5" font-family="Helvetica,sans-Serif" font-size="10.00">bio/ranges/views/take</text>
<text text-anchor="middle" x="127" y="-342.5" font-family="Helvetica,sans-Serif" font-size="10.00">_exactly.hpp</text>
</a>
</g>
</g>
<!-- Node2 -->
<g id="node2" class="node">
<title>Node2</title>
<g id="a_node2"><a xlink:href="ranges_2views_2all_8hpp.html" target="_top" xlink:title="Meta&#45;header for the views submodule .">
<polygon fill="white" stroke="black" points="156,-6 156,-25 278,-25 278,-6 156,-6"/>
<text text-anchor="middle" x="217" y="-13" font-family="Helvetica,sans-Serif" font-size="10.00">bio/ranges/views/all.hpp</text>
</a>
</g>
</g>
<!-- Node1&#45;&gt;Node2 -->
<g id="edge1" class="edge">
<title>Node1&#45;&gt;Node2</title>
<path fill="none" stroke="midnightblue" d="M88.7,-330.3C51.3,-308.54 0,-269.24 0,-217.5 0,-217.5 0,-217.5 0,-148.5 0,-72.1 99.39,-38.65 163.64,-25.01"/>
<polygon fill="midnightblue" stroke="midnightblue" points="87.43,-333.61 97.86,-335.46 90.86,-327.5 87.43,-333.61"/>
</g>
<!-- Node3 -->
<g id="node3" class="node">
<title>Node3</title>
<g id="a_node3"><a xlink:href="repeat__n_8hpp.html" target="_top" xlink:title="Provides bio::views::repeat_n.">
<polygon fill="white" stroke="black" points="195,-268.5 195,-298.5 315,-298.5 315,-268.5 195,-268.5"/>
<text text-anchor="start" x="203" y="-286.5" font-family="Helvetica,sans-Serif" font-size="10.00">bio/ranges/views/repeat</text>
<text text-anchor="middle" x="255" y="-275.5" font-family="Helvetica,sans-Serif" font-size="10.00">_n.hpp</text>
</a>
</g>
</g>
<!-- Node1&#45;&gt;Node3 -->
<g id="edge2" class="edge">
<title>Node1&#45;&gt;Node3</title>
<path fill="none" stroke="midnightblue" d="M163.72,-330.85C183.96,-320.58 208.67,-308.03 227.28,-298.58"/>
<polygon fill="midnightblue" stroke="midnightblue" points="162.11,-327.75 154.77,-335.4 165.28,-333.99 162.11,-327.75"/>
</g>
<!-- Node4 -->
<g id="node4" class="node">
<title>Node4</title>
<g id="a_node4"><a xlink:href="bitcompressed__vector_8hpp.html" target="_top" xlink:title="Provides bio::ranges::bitcompressed_vector.">
<polygon fill="white" stroke="black" points="28,-201.5 28,-231.5 162,-231.5 162,-201.5 28,-201.5"/>
<text text-anchor="start" x="36" y="-219.5" font-family="Helvetica,sans-Serif" font-size="10.00">bio/ranges/container</text>
<text text-anchor="middle" x="95" y="-208.5" font-family="Helvetica,sans-Serif" font-size="10.00">/bitcompressed_vector.hpp</text>
</a>
</g>
</g>
<!-- Node3&#45;&gt;Node4 -->
<g id="edge3" class="edge">
<title>Node3&#45;&gt;Node4</title>
<path fill="none" stroke="midnightblue" d="M210.8,-264.54C185.2,-254.14 153.43,-241.24 129.65,-231.58"/>
<polygon fill="midnightblue" stroke="midnightblue" points="209.7,-267.87 220.28,-268.4 212.34,-261.39 209.7,-267.87"/>
</g>
<!-- Node7 -->
<g id="node7" class="node">
<title>Node7</title>
<g id="a_node7"><a xlink:href="concatenated__sequences_8hpp.html" target="_top" xlink:title="Provides bio::ranges::concatenated_sequences.">
<polygon fill="white" stroke="black" points="180.5,-201.5 180.5,-231.5 329.5,-231.5 329.5,-201.5 180.5,-201.5"/>
<text text-anchor="start" x="188.5" y="-219.5" font-family="Helvetica,sans-Serif" font-size="10.00">bio/ranges/container</text>
<text text-anchor="middle" x="255" y="-208.5" font-family="Helvetica,sans-Serif" font-size="10.00">/concatenated_sequences.hpp</text>
</a>
</g>
</g>
<!-- Node3&#45;&gt;Node7 -->
<g id="edge6" class="edge">
<title>Node3&#45;&gt;Node7</title>
<path fill="none" stroke="midnightblue" d="M255,-258.11C255,-249.15 255,-239.32 255,-231.58"/>
<polygon fill="midnightblue" stroke="midnightblue" points="251.5,-258.4 255,-268.4 258.5,-258.4 251.5,-258.4"/>
</g>
<!-- Node8 -->
<g id="node8" class="node">
<title>Node8</title>
<g id="a_node8"><a xlink:href="dynamic__bitset_8hpp.html" target="_top" xlink:title="A constexpr bitset implementation with dynamic size at compile time.">
<polygon fill="white" stroke="black" points="348,-201.5 348,-231.5 452,-231.5 452,-201.5 348,-201.5"/>
<text text-anchor="start" x="356" y="-219.5" font-family="Helvetica,sans-Serif" font-size="10.00">bio/ranges/container</text>
<text text-anchor="middle" x="400" y="-208.5" font-family="Helvetica,sans-Serif" font-size="10.00">/dynamic_bitset.hpp</text>
</a>
</g>
</g>
<!-- Node3&#45;&gt;Node8 -->
<g id="edge8" class="edge">
<title>Node3&#45;&gt;Node8</title>
<path fill="none" stroke="midnightblue" d="M295.67,-264.27C318.76,-253.92 347.24,-241.15 368.6,-231.58"/>
<polygon fill="midnightblue" stroke="midnightblue" points="294.16,-261.11 286.46,-268.4 297.02,-267.5 294.16,-261.11"/>
</g>
<!-- Node9 -->
<g id="node9" class="node">
<title>Node9</title>
<g id="a_node9"><a xlink:href="small__vector_8hpp.html" target="_top" xlink:title="A constexpr vector implementation with dynamic size at compile time.">
<polygon fill="white" stroke="black" points="470,-201.5 470,-231.5 574,-231.5 574,-201.5 470,-201.5"/>
<text text-anchor="start" x="478" y="-219.5" font-family="Helvetica,sans-Serif" font-size="10.00">bio/ranges/container</text>
<text text-anchor="middle" x="522" y="-208.5" font-family="Helvetica,sans-Serif" font-size="10.00">/small_vector.hpp</text>
</a>
</g>
</g>
<!-- Node3&#45;&gt;Node9 -->
<g id="edge9" class="edge">
<title>Node3&#45;&gt;Node9</title>
<path fill="none" stroke="midnightblue" d="M322.44,-266.08C368.2,-254.94 427.81,-240.43 469.92,-230.18"/>
<polygon fill="midnightblue" stroke="midnightblue" points="321.49,-262.71 312.61,-268.48 323.15,-269.51 321.49,-262.71"/>
</g>
<!-- Node5 -->
<g id="node5" class="node">
<title>Node5</title>
<g id="a_node5"><a xlink:href="ranges_2container_2all_8hpp.html" target="_top" xlink:title="Meta&#45;header for the container submodule .">
<polygon fill="white" stroke="black" points="65,-134.5 65,-164.5 169,-164.5 169,-134.5 65,-134.5"/>
<text text-anchor="start" x="73" y="-152.5" font-family="Helvetica,sans-Serif" font-size="10.00">bio/ranges/container</text>
<text text-anchor="middle" x="117" y="-141.5" font-family="Helvetica,sans-Serif" font-size="10.00">/all.hpp</text>
</a>
</g>
</g>
<!-- Node4&#45;&gt;Node5 -->
<g id="edge4" class="edge">
<title>Node4&#45;&gt;Node5</title>
<path fill="none" stroke="midnightblue" d="M103.06,-191.7C106.14,-182.59 109.56,-172.49 112.24,-164.58"/>
<polygon fill="midnightblue" stroke="midnightblue" points="99.66,-190.8 99.77,-201.4 106.29,-193.05 99.66,-190.8"/>
</g>
<!-- Node6 -->
<g id="node6" class="node">
<title>Node6</title>
<g id="a_node6"><a xlink:href="ranges_2all_8hpp.html" target="_top" xlink:title="Meta&#45;header for the ranges module .">
<polygon fill="white" stroke="black" points="70.5,-73 70.5,-92 163.5,-92 163.5,-73 70.5,-73"/>
<text text-anchor="middle" x="117" y="-80" font-family="Helvetica,sans-Serif" font-size="10.00">bio/ranges/all.hpp</text>
</a>
</g>
</g>
<!-- Node5&#45;&gt;Node6 -->
<g id="edge5" class="edge">
<title>Node5&#45;&gt;Node6</title>
<path fill="none" stroke="midnightblue" d="M117,-124.25C117,-113.02 117,-100.38 117,-92.19"/>
<polygon fill="midnightblue" stroke="midnightblue" points="113.5,-124.4 117,-134.4 120.5,-124.4 113.5,-124.4"/>
</g>
<!-- Node7&#45;&gt;Node5 -->
<g id="edge7" class="edge">
<title>Node7&#45;&gt;Node5</title>
<path fill="none" stroke="midnightblue" d="M216,-197.13C194.07,-186.8 167.13,-174.11 146.89,-164.58"/>
<polygon fill="midnightblue" stroke="midnightblue" points="214.52,-200.3 225.06,-201.4 217.5,-193.97 214.52,-200.3"/>
</g>
<!-- Node10 -->
<g id="node10" class="node">
<title>Node10</title>
<g id="a_node10"><a xlink:href="small__string_8hpp.html" target="_top" xlink:title="A constexpr string implementation to manipulate string literals at compile time.">
<polygon fill="white" stroke="black" points="447,-134.5 447,-164.5 551,-164.5 551,-134.5 447,-134.5"/>
<text text-anchor="start" x="455" y="-152.5" font-family="Helvetica,sans-Serif" font-size="10.00">bio/ranges/container</text>
<text text-anchor="middle" x="499" y="-141.5" font-family="Helvetica,sans-Serif" font-size="10.00">/small_string.hpp</text>
</a>
</g>
</g>
<!-- Node9&#45;&gt;Node10 -->
<g id="edge10" class="edge">
<title>Node9&#45;&gt;Node10</title>
<path fill="none" stroke="midnightblue" d="M513.58,-191.7C510.35,-182.59 506.78,-172.49 503.98,-164.58"/>
<polygon fill="midnightblue" stroke="midnightblue" points="510.37,-193.14 517.01,-201.4 516.97,-190.8 510.37,-193.14"/>
</g>
<!-- Node11 -->
<g id="node11" class="node">
<title>Node11</title>
<g id="a_node11"><a xlink:href="cigar_8hpp.html" target="_top" xlink:title="Provides the bio::alphabet::cigar alphabet.">
<polygon fill="white" stroke="black" points="269.5,-67.5 269.5,-97.5 362.5,-97.5 362.5,-67.5 269.5,-67.5"/>
<text text-anchor="start" x="277.5" y="-85.5" font-family="Helvetica,sans-Serif" font-size="10.00">bio/alphabet/cigar</text>
<text text-anchor="middle" x="316" y="-74.5" font-family="Helvetica,sans-Serif" font-size="10.00">/cigar.hpp</text>
</a>
</g>
</g>
<!-- Node10&#45;&gt;Node11 -->
<g id="edge11" class="edge">
<title>Node10&#45;&gt;Node11</title>
<path fill="none" stroke="midnightblue" d="M449.6,-130.96C420.13,-120.48 383.19,-107.37 355.63,-97.58"/>
<polygon fill="midnightblue" stroke="midnightblue" points="448.7,-134.35 459.29,-134.4 451.04,-127.75 448.7,-134.35"/>
</g>
<!-- Node12 -->
<g id="node12" class="node">
<title>Node12</title>
<g id="a_node12"><a xlink:href="translate_8hpp.html" target="_top" xlink:title="Provides bio::views::translate and bio::views::translate_single.">
<polygon fill="white" stroke="black" points="380.5,-73 380.5,-92 529.5,-92 529.5,-73 380.5,-73"/>
<text text-anchor="middle" x="455" y="-80" font-family="Helvetica,sans-Serif" font-size="10.00">bio/ranges/views/translate.hpp</text>
</a>
</g>
</g>
<!-- Node10&#45;&gt;Node12 -->
<g id="edge12" class="edge">
<title>Node10&#45;&gt;Node12</title>
<path fill="none" stroke="midnightblue" d="M483.75,-125.97C475.87,-114.33 466.71,-100.8 460.89,-92.19"/>
<polygon fill="midnightblue" stroke="midnightblue" points="480.95,-128.08 489.45,-134.4 486.75,-124.15 480.95,-128.08"/>
</g>
<!-- Node13 -->
<g id="node13" class="node">
<title>Node13</title>
<g id="a_node13"><a xlink:href="translate__join_8hpp.html" target="_top" xlink:title="Provides bio::views::translate_join.">
<polygon fill="white" stroke="black" points="440.5,-0.5 440.5,-30.5 571.5,-30.5 571.5,-0.5 440.5,-0.5"/>
<text text-anchor="start" x="448.5" y="-18.5" font-family="Helvetica,sans-Serif" font-size="10.00">bio/ranges/views/translate</text>
<text text-anchor="middle" x="506" y="-7.5" font-family="Helvetica,sans-Serif" font-size="10.00">_join.hpp</text>
</a>
</g>
</g>
<!-- Node10&#45;&gt;Node13 -->
<g id="edge15" class="edge">
<title>Node10&#45;&gt;Node13</title>
<path fill="none" stroke="midnightblue" d="M521.57,-126.62C528.55,-118.38 535.36,-108.46 539,-98 543.53,-84.99 542.93,-80.2 539,-67 534.99,-53.55 526.14,-40.34 518.61,-30.81"/>
<polygon fill="midnightblue" stroke="midnightblue" points="518.78,-124.49 514.65,-134.25 523.96,-129.19 518.78,-124.49"/>
</g>
<!-- Node12&#45;&gt;Node2 -->
<g id="edge13" class="edge">
<title>Node12&#45;&gt;Node2</title>
<path fill="none" stroke="midnightblue" d="M413.52,-70.17C366.46,-57.32 290.75,-36.64 248.36,-25.06"/>
<polygon fill="midnightblue" stroke="midnightblue" points="412.83,-73.61 423.4,-72.87 414.67,-66.86 412.83,-73.61"/>
</g>
<!-- Node12&#45;&gt;Node13 -->
<g id="edge14" class="edge">
<title>Node12&#45;&gt;Node13</title>
<path fill="none" stroke="midnightblue" d="M468.2,-64.67C476.5,-54.09 487.09,-40.6 494.95,-30.59"/>
<polygon fill="midnightblue" stroke="midnightblue" points="465.3,-62.71 461.88,-72.73 470.8,-67.03 465.3,-62.71"/>
</g>
</g>
</svg>
