<?xml version="1.0" encoding="UTF-8" standalone="no"?>
<!DOCTYPE svg PUBLIC "-//W3C//DTD SVG 1.1//EN"
 "http://www.w3.org/Graphics/SVG/1.1/DTD/svg11.dtd">
<!-- Generated by graphviz version 2.43.0 (0)
 -->
<!-- Title: bio/meta/type_traits/template_inspection.hpp Pages: 1 -->
<svg width="318pt" height="296pt"
 viewBox="0.00 0.00 318.00 296.00" xmlns="http://www.w3.org/2000/svg" xmlns:xlink="http://www.w3.org/1999/xlink">
<g id="graph0" class="graph" transform="scale(1 1) rotate(0) translate(4 292)">
<title>bio/meta/type_traits/template_inspection.hpp</title>
<polygon fill="white" stroke="transparent" points="-4,4 -4,-292 314,-292 314,4 -4,4"/>
<!-- Node1 -->
<g id="node1" class="node">
<title>Node1</title>
<g id="a_node1"><a xlink:title="Provides various traits to inspect templates.">
<polygon fill="#bfbfbf" stroke="black" points="13,-257.5 13,-287.5 153,-287.5 153,-257.5 13,-257.5"/>
<text text-anchor="start" x="21" y="-275.5" font-family="Helvetica,sans-Serif" font-size="10.00">bio/meta/type_traits</text>
<text text-anchor="middle" x="83" y="-264.5" font-family="Helvetica,sans-Serif" font-size="10.00">/template_inspection.hpp</text>
</a>
</g>
</g>
<!-- Node2 -->
<g id="node2" class="node">
<title>Node2</title>
<g id="a_node2"><a target="_blank" xlink:href="https://en.cppreference.com/w/cpp/header/concepts.html" xlink:title=" ">
<polygon fill="white" stroke="black" points="0,-190.5 0,-209.5 60,-209.5 60,-190.5 0,-190.5"/>
<text text-anchor="middle" x="30" y="-197.5" font-family="Helvetica,sans-Serif" font-size="10.00">concepts</text>
</a>
</g>
</g>
<!-- Node1&#45;&gt;Node2 -->
<g id="edge1" class="edge">
<title>Node1&#45;&gt;Node2</title>
<path fill="none" stroke="midnightblue" d="M72.27,-257.23C63.79,-245.95 51.91,-230.15 42.91,-218.17"/>
<polygon fill="midnightblue" stroke="midnightblue" points="45.49,-215.78 36.69,-209.89 39.9,-219.99 45.49,-215.78"/>
</g>
<!-- Node3 -->
<g id="node3" class="node">
<title>Node3</title>
<g id="a_node3"><a xlink:href="transformation__trait__or_8hpp.html" target="_top" xlink:title="Provides bio::meta::transformation_trait_or.">
<polygon fill="white" stroke="black" points="78,-179.5 78,-220.5 196,-220.5 196,-179.5 78,-179.5"/>
<text text-anchor="start" x="86" y="-208.5" font-family="Helvetica,sans-Serif" font-size="10.00">bio/meta/type_traits</text>
<text text-anchor="start" x="86" y="-197.5" font-family="Helvetica,sans-Serif" font-size="10.00">/transformation_trait</text>
<text text-anchor="middle" x="137" y="-186.5" font-family="Helvetica,sans-Serif" font-size="10.00">_or.hpp</text>
</a>
</g>
</g>
<!-- Node1&#45;&gt;Node3 -->
<g id="edge2" class="edge">
<title>Node1&#45;&gt;Node3</title>
<path fill="none" stroke="midnightblue" d="M93.93,-257.23C100.24,-249 108.38,-238.36 115.89,-228.56"/>
<polygon fill="midnightblue" stroke="midnightblue" points="118.69,-230.66 122,-220.59 113.14,-226.4 118.69,-230.66"/>
</g>
<!-- Node4 -->
<g id="node4" class="node">
<title>Node4</title>
<g id="a_node4"><a target="_blank" xlink:href="https://en.cppreference.com/w/cpp/header/type_traits.html" xlink:title=" ">
<polygon fill="white" stroke="black" points="59.5,-56.5 59.5,-75.5 128.5,-75.5 128.5,-56.5 59.5,-56.5"/>
<text text-anchor="middle" x="94" y="-63.5" font-family="Helvetica,sans-Serif" font-size="10.00">type_traits</text>
</a>
</g>
</g>
<!-- Node3&#45;&gt;Node4 -->
<g id="edge3" class="edge">
<title>Node3&#45;&gt;Node4</title>
<path fill="none" stroke="midnightblue" d="M127.66,-179.34C122.86,-168.74 117.15,-155.33 113,-143 106.5,-123.71 101.11,-101 97.75,-85.46"/>
<polygon fill="midnightblue" stroke="midnightblue" points="101.15,-84.63 95.67,-75.56 94.3,-86.07 101.15,-84.63"/>
</g>
<!-- Node5 -->
<g id="node5" class="node">
<title>Node5</title>
<g id="a_node5"><a xlink:href="meta_2type__traits_2concept_8hpp.html" target="_top" xlink:title="Provides the concepts bio::meta::transformation_trait and bio::meta::unary_type_trait.">
<polygon fill="white" stroke="black" points="122,-112.5 122,-142.5 238,-142.5 238,-112.5 122,-112.5"/>
<text text-anchor="start" x="130" y="-130.5" font-family="Helvetica,sans-Serif" font-size="10.00">bio/meta/type_traits</text>
<text text-anchor="middle" x="180" y="-119.5" font-family="Helvetica,sans-Serif" font-size="10.00">/concept.hpp</text>
</a>
</g>
</g>
<!-- Node3&#45;&gt;Node5 -->
<g id="edge4" class="edge">
<title>Node3&#45;&gt;Node5</title>
<path fill="none" stroke="midnightblue" d="M148.98,-179.36C154.22,-170.77 160.4,-160.64 165.86,-151.68"/>
<polygon fill="midnightblue" stroke="midnightblue" points="169,-153.25 171.22,-142.89 163.03,-149.61 169,-153.25"/>
</g>
<!-- Node5&#45;&gt;Node4 -->
<g id="edge5" class="edge">
<title>Node5&#45;&gt;Node4</title>
<path fill="none" stroke="midnightblue" d="M159.62,-112.4C146.09,-103.04 128.39,-90.79 114.78,-81.38"/>
<polygon fill="midnightblue" stroke="midnightblue" points="116.73,-78.47 106.51,-75.66 112.75,-84.23 116.73,-78.47"/>
</g>
<!-- Node6 -->
<g id="node6" class="node">
<title>Node6</title>
<g id="a_node6"><a xlink:href="core_8hpp.html" target="_top" xlink:title="Provides platform and dependency checks.">
<polygon fill="white" stroke="black" points="146.5,-56.5 146.5,-75.5 223.5,-75.5 223.5,-56.5 146.5,-56.5"/>
<text text-anchor="middle" x="185" y="-63.5" font-family="Helvetica,sans-Serif" font-size="10.00">bio/core.hpp</text>
</a>
</g>
</g>
<!-- Node5&#45;&gt;Node6 -->
<g id="edge6" class="edge">
<title>Node5&#45;&gt;Node6</title>
<path fill="none" stroke="midnightblue" d="M181.18,-112.4C181.85,-104.47 182.69,-94.46 183.42,-85.86"/>
<polygon fill="midnightblue" stroke="midnightblue" points="186.92,-85.92 184.27,-75.66 179.95,-85.33 186.92,-85.92"/>
</g>
<!-- Node7 -->
<g id="node7" class="node">
<title>Node7</title>
<g id="a_node7"><a target="_blank" xlink:href="https://en.cppreference.com/w/cpp/header/cinttypes.html" xlink:title=" ">
<polygon fill="white" stroke="black" points="42,-0.5 42,-19.5 104,-19.5 104,-0.5 42,-0.5"/>
<text text-anchor="middle" x="73" y="-7.5" font-family="Helvetica,sans-Serif" font-size="10.00">cinttypes</text>
</a>
</g>
</g>
<!-- Node6&#45;&gt;Node7 -->
<g id="edge7" class="edge">
<title>Node6&#45;&gt;Node7</title>
<path fill="none" stroke="midnightblue" d="M167.01,-56.32C148.96,-47.62 120.95,-34.12 100.2,-24.11"/>
<polygon fill="midnightblue" stroke="midnightblue" points="101.48,-20.84 90.95,-19.65 98.44,-27.15 101.48,-20.84"/>
</g>
<!-- Node8 -->
<g id="node8" class="node">
<title>Node8</title>
<g id="a_node8"><a target="_blank" xlink:href="https://en.cppreference.com/w/cpp/header/ciso646.html" xlink:title=" ">
<polygon fill="white" stroke="black" points="122,-0.5 122,-19.5 176,-19.5 176,-0.5 122,-0.5"/>
<text text-anchor="middle" x="149" y="-7.5" font-family="Helvetica,sans-Serif" font-size="10.00">ciso646</text>
</a>
</g>
</g>
<!-- Node6&#45;&gt;Node8 -->
<g id="edge8" class="edge">
<title>Node6&#45;&gt;Node8</title>
<path fill="none" stroke="midnightblue" d="M179.06,-56.08C174.02,-48.53 166.66,-37.49 160.49,-28.23"/>
<polygon fill="midnightblue" stroke="midnightblue" points="163.29,-26.13 154.83,-19.75 157.47,-30.01 163.29,-26.13"/>
</g>
<!-- Node9 -->
<g id="node9" class="node">
<title>Node9</title>
<g id="a_node9"><a target="_blank" xlink:href="https://en.cppreference.com/w/cpp/header/cstddef.html" xlink:title=" ">
<polygon fill="white" stroke="black" points="194.5,-0.5 194.5,-19.5 247.5,-19.5 247.5,-0.5 194.5,-0.5"/>
<text text-anchor="middle" x="221" y="-7.5" font-family="Helvetica,sans-Serif" font-size="10.00">cstddef</text>
</a>
</g>
</g>
<!-- Node6&#45;&gt;Node9 -->
<g id="edge9" class="edge">
<title>Node6&#45;&gt;Node9</title>
<path fill="none" stroke="midnightblue" d="M190.94,-56.08C195.98,-48.53 203.34,-37.49 209.51,-28.23"/>
<polygon fill="midnightblue" stroke="midnightblue" points="212.53,-30.01 215.17,-19.75 206.71,-26.13 212.53,-30.01"/>
</g>
<!-- Node10 -->
<g id="node10" class="node">
<title>Node10</title>
<g id="a_node10"><a target="_blank" xlink:href="https://en.cppreference.com/w/cpp/header/string.html" xlink:title=" ">
<polygon fill="white" stroke="black" points="266,-0.5 266,-19.5 310,-19.5 310,-0.5 266,-0.5"/>
<text text-anchor="middle" x="288" y="-7.5" font-family="Helvetica,sans-Serif" font-size="10.00">string</text>
</a>
</g>
</g>
<!-- Node6&#45;&gt;Node10 -->
<g id="edge10" class="edge">
<title>Node6&#45;&gt;Node10</title>
<path fill="none" stroke="midnightblue" d="M201.55,-56.32C217.99,-47.7 243.43,-34.36 262.47,-24.39"/>
<polygon fill="midnightblue" stroke="midnightblue" points="264.26,-27.4 271.49,-19.65 261.01,-21.2 264.26,-27.4"/>
</g>
</g>
</svg>
