<?xml version="1.0" encoding="UTF-8" standalone="no"?>
<!DOCTYPE svg PUBLIC "-//W3C//DTD SVG 1.1//EN"
 "http://www.w3.org/Graphics/SVG/1.1/DTD/svg11.dtd">
<!-- Generated by graphviz version 2.43.0 (0)
 -->
<!-- Title: bio/ranges/views/to_char.hpp Pages: 1 -->
<svg width="282pt" height="225pt"
 viewBox="0.00 0.00 282.00 225.00" xmlns="http://www.w3.org/2000/svg" xmlns:xlink="http://www.w3.org/1999/xlink">
<g id="graph0" class="graph" transform="scale(1 1) rotate(0) translate(4 221)">
<title>bio/ranges/views/to_char.hpp</title>
<!-- Node1 -->
<g id="node1" class="node">
<title>Node1</title>
<g id="a_node1"><a xlink:title="Provides bio::views::to_char.">
<polygon fill="#999999" stroke="#666666" points="190.5,-217 89.5,-217 89.5,-187 190.5,-187 190.5,-217"/>
<text text-anchor="start" x="97.5" y="-205" font-family="Helvetica,sans-Serif" font-size="10.00">bio/ranges/views/to</text>
<text text-anchor="middle" x="140" y="-194" font-family="Helvetica,sans-Serif" font-size="10.00">_char.hpp</text>
</a>
</g>
</g>
<!-- Node2 -->
<g id="node2" class="node">
<title>Node2</title>
<g id="a_node2"><a xlink:href="bitcompressed__vector_8hpp.html" target="_top" xlink:title="Provides bio::ranges::bitcompressed_vector.">
<polygon fill="white" stroke="#666666" points="134,-151 0,-151 0,-121 134,-121 134,-151"/>
<text text-anchor="start" x="8" y="-139" font-family="Helvetica,sans-Serif" font-size="10.00">bio/ranges/container</text>
<text text-anchor="middle" x="67" y="-128" font-family="Helvetica,sans-Serif" font-size="10.00">/bitcompressed_vector.hpp</text>
</a>
</g>
</g>
<!-- Node1&#45;&gt;Node2 -->
<g id="edge1" class="edge">
<title>Node1&#45;&gt;Node2</title>
<path fill="none" stroke="#63b8ff" d="M116.28,-180.2C105.44,-170.7 92.88,-159.69 83.16,-151.16"/>
<polygon fill="#63b8ff" stroke="#63b8ff" points="113.97,-182.84 123.8,-186.8 118.59,-177.57 113.97,-182.84"/>
</g>
<!-- Node5 -->
<g id="node5" class="node">
<title>Node5</title>
<g id="a_node5"><a xlink:href="ranges_2views_2all_8hpp.html" target="_top" xlink:title="Meta&#45;header for the views submodule .">
<polygon fill="white" stroke="#666666" points="274,-145.5 152,-145.5 152,-126.5 274,-126.5 274,-145.5"/>
<text text-anchor="middle" x="213" y="-133.5" font-family="Helvetica,sans-Serif" font-size="10.00">bio/ranges/views/all.hpp</text>
</a>
</g>
</g>
<!-- Node1&#45;&gt;Node5 -->
<g id="edge4" class="edge">
<title>Node1&#45;&gt;Node5</title>
<path fill="none" stroke="#63b8ff" d="M164.03,-179.93C177.24,-168.35 192.92,-154.61 202.91,-145.84"/>
<polygon fill="#63b8ff" stroke="#63b8ff" points="161.41,-177.57 156.2,-186.8 166.03,-182.84 161.41,-177.57"/>
</g>
<!-- Node3 -->
<g id="node3" class="node">
<title>Node3</title>
<g id="a_node3"><a xlink:href="ranges_2container_2all_8hpp.html" target="_top" xlink:title="Meta&#45;header for the container submodule .">
<polygon fill="white" stroke="#666666" points="119,-85 15,-85 15,-55 119,-55 119,-85"/>
<text text-anchor="start" x="23" y="-73" font-family="Helvetica,sans-Serif" font-size="10.00">bio/ranges/container</text>
<text text-anchor="middle" x="67" y="-62" font-family="Helvetica,sans-Serif" font-size="10.00">/all.hpp</text>
</a>
</g>
</g>
<!-- Node2&#45;&gt;Node3 -->
<g id="edge2" class="edge">
<title>Node2&#45;&gt;Node3</title>
<path fill="none" stroke="#63b8ff" d="M67,-110.54C67,-101.96 67,-92.61 67,-85.16"/>
<polygon fill="#63b8ff" stroke="#63b8ff" points="63.5,-110.8 67,-120.8 70.5,-110.8 63.5,-110.8"/>
</g>
<!-- Node4 -->
<g id="node4" class="node">
<title>Node4</title>
<g id="a_node4"><a xlink:href="ranges_2all_8hpp.html" target="_top" xlink:title="Meta&#45;header for the ranges module .">
<polygon fill="white" stroke="#666666" points="113.5,-19 20.5,-19 20.5,0 113.5,0 113.5,-19"/>
<text text-anchor="middle" x="67" y="-7" font-family="Helvetica,sans-Serif" font-size="10.00">bio/ranges/all.hpp</text>
</a>
</g>
</g>
<!-- Node3&#45;&gt;Node4 -->
<g id="edge3" class="edge">
<title>Node3&#45;&gt;Node4</title>
<path fill="none" stroke="#63b8ff" d="M67,-44.75C67,-35.72 67,-26.03 67,-19.27"/>
<polygon fill="#63b8ff" stroke="#63b8ff" points="63.5,-44.84 67,-54.84 70.5,-44.84 63.5,-44.84"/>
</g>
</g>
</svg>
