<?xml version="1.0" encoding="UTF-8" standalone="no"?>
<!DOCTYPE svg PUBLIC "-//W3C//DTD SVG 1.1//EN"
 "http://www.w3.org/Graphics/SVG/1.1/DTD/svg11.dtd">
<!-- Generated by graphviz version 2.43.0 (0)
 -->
<!-- Title: bio/ranges/views/to_upper.hpp Pages: 1 -->
<svg width="1295pt" height="408pt"
 viewBox="0.00 0.00 1295.00 408.00" xmlns="http://www.w3.org/2000/svg" xmlns:xlink="http://www.w3.org/1999/xlink">
<g id="graph0" class="graph" transform="scale(1 1) rotate(0) translate(4 404)">
<title>bio/ranges/views/to_upper.hpp</title>
<polygon fill="white" stroke="transparent" points="-4,4 -4,-404 1291,-404 1291,4 -4,4"/>
<!-- Node1 -->
<g id="node1" class="node">
<title>Node1</title>
<g id="a_node1"><a xlink:title="Provides bio::views::to_upper.">
<polygon fill="#bfbfbf" stroke="black" points="921,-369.5 921,-399.5 1033,-399.5 1033,-369.5 921,-369.5"/>
<text text-anchor="start" x="929" y="-387.5" font-family="Helvetica,sans-Serif" font-size="10.00">bio/ranges/views/to</text>
<text text-anchor="middle" x="977" y="-376.5" font-family="Helvetica,sans-Serif" font-size="10.00">_upper.hpp</text>
</a>
</g>
</g>
<!-- Node2 -->
<g id="node2" class="node">
<title>Node2</title>
<g id="a_node2"><a xlink:href="alphabet_2concept_8hpp.html" target="_top" xlink:title="Core alphabet concept and free function/type trait wrappers.">
<polygon fill="white" stroke="black" points="472,-246.5 472,-265.5 612,-265.5 612,-246.5 472,-246.5"/>
<text text-anchor="middle" x="542" y="-253.5" font-family="Helvetica,sans-Serif" font-size="10.00">bio/alphabet/concept.hpp</text>
</a>
</g>
</g>
<!-- Node1&#45;&gt;Node2 -->
<g id="edge1" class="edge">
<title>Node1&#45;&gt;Node2</title>
<path fill="none" stroke="midnightblue" d="M928.79,-369.48C841.92,-344.22 660.76,-291.54 581.06,-268.36"/>
<polygon fill="midnightblue" stroke="midnightblue" points="581.99,-264.98 571.41,-265.55 580.03,-271.7 581.99,-264.98"/>
</g>
<!-- Node21 -->
<g id="node21" class="node">
<title>Node21</title>
<g id="a_node21"><a xlink:href="alphabet_2detail_2to__lower_8hpp_source.html" target="_top" xlink:title=" ">
<polygon fill="white" stroke="black" points="312,-302.5 312,-332.5 420,-332.5 420,-302.5 312,-302.5"/>
<text text-anchor="start" x="320" y="-320.5" font-family="Helvetica,sans-Serif" font-size="10.00">bio/alphabet/detail</text>
<text text-anchor="middle" x="366" y="-309.5" font-family="Helvetica,sans-Serif" font-size="10.00">/to_lower.hpp</text>
</a>
</g>
</g>
<!-- Node1&#45;&gt;Node21 -->
<g id="edge29" class="edge">
<title>Node1&#45;&gt;Node21</title>
<path fill="none" stroke="midnightblue" d="M920.89,-377.53C807.23,-365.44 550.43,-338.12 430.27,-325.34"/>
<polygon fill="midnightblue" stroke="midnightblue" points="430.43,-321.83 420.12,-324.26 429.69,-328.8 430.43,-321.83"/>
</g>
<!-- Node22 -->
<g id="node22" class="node">
<title>Node22</title>
<g id="a_node22"><a xlink:href="deep_8hpp.html" target="_top" xlink:title="Provides bio::views::deep.">
<polygon fill="white" stroke="black" points="1059.5,-308 1059.5,-327 1206.5,-327 1206.5,-308 1059.5,-308"/>
<text text-anchor="middle" x="1133" y="-315" font-family="Helvetica,sans-Serif" font-size="10.00">bio/ranges/views/deep.hpp</text>
</a>
</g>
</g>
<!-- Node1&#45;&gt;Node22 -->
<g id="edge31" class="edge">
<title>Node1&#45;&gt;Node22</title>
<path fill="none" stroke="midnightblue" d="M1010.85,-369.4C1038.34,-357.94 1076.75,-341.94 1103.11,-330.95"/>
<polygon fill="midnightblue" stroke="midnightblue" points="1104.7,-334.08 1112.58,-327.01 1102.01,-327.62 1104.7,-334.08"/>
</g>
<!-- Node24 -->
<g id="node24" class="node">
<title>Node24</title>
<g id="a_node24"><a target="_blank" xlink:href="https://en.cppreference.com/w/cpp/header/ranges.html" xlink:title=" ">
<polygon fill="white" stroke="black" points="1237,-118 1237,-137 1287,-137 1287,-118 1237,-118"/>
<text text-anchor="middle" x="1262" y="-125" font-family="Helvetica,sans-Serif" font-size="10.00">ranges</text>
</a>
</g>
</g>
<!-- Node1&#45;&gt;Node24 -->
<g id="edge44" class="edge">
<title>Node1&#45;&gt;Node24</title>
<path fill="none" stroke="midnightblue" d="M1033.23,-377.8C1094.96,-370.5 1188.91,-355.98 1216,-333 1271.3,-286.09 1268.38,-188.31 1264.37,-147.27"/>
<polygon fill="midnightblue" stroke="midnightblue" points="1267.85,-146.84 1263.26,-137.29 1260.89,-147.61 1267.85,-146.84"/>
</g>
<!-- Node3 -->
<g id="node3" class="node">
<title>Node3</title>
<g id="a_node3"><a target="_blank" xlink:href="https://en.cppreference.com/w/cpp/header/type_traits.html" xlink:title=" ">
<polygon fill="white" stroke="black" points="815.5,-56.5 815.5,-75.5 884.5,-75.5 884.5,-56.5 815.5,-56.5"/>
<text text-anchor="middle" x="850" y="-63.5" font-family="Helvetica,sans-Serif" font-size="10.00">type_traits</text>
</a>
</g>
</g>
<!-- Node2&#45;&gt;Node3 -->
<g id="edge2" class="edge">
<title>Node2&#45;&gt;Node3</title>
<path fill="none" stroke="midnightblue" d="M580.9,-246.44C609.05,-239.25 647.37,-227.33 678,-210 736.15,-177.1 740.26,-154.27 792,-112 804.58,-101.72 819.02,-90.52 830.34,-81.86"/>
<polygon fill="midnightblue" stroke="midnightblue" points="832.47,-84.64 838.31,-75.8 828.23,-79.07 832.47,-84.64"/>
</g>
<!-- Node4 -->
<g id="node4" class="node">
<title>Node4</title>
<g id="a_node4"><a xlink:href="alphabet_2biocpp_8hpp.html" target="_top" xlink:title="Module header with module&#45;wide definitions.">
<polygon fill="white" stroke="black" points="0,-118 0,-137 134,-137 134,-118 0,-118"/>
<text text-anchor="middle" x="67" y="-125" font-family="Helvetica,sans-Serif" font-size="10.00">bio/alphabet/biocpp.hpp</text>
</a>
</g>
</g>
<!-- Node2&#45;&gt;Node4 -->
<g id="edge3" class="edge">
<title>Node2&#45;&gt;Node4</title>
<path fill="none" stroke="midnightblue" d="M471.89,-252.52C351.21,-247.6 114.37,-234.89 86,-210 68.37,-194.54 65.42,-166.17 65.64,-147.32"/>
<polygon fill="midnightblue" stroke="midnightblue" points="69.14,-147.4 66.08,-137.26 62.15,-147.1 69.14,-147.4"/>
</g>
<!-- Node9 -->
<g id="node9" class="node">
<title>Node9</title>
<g id="a_node9"><a xlink:href="exception_8hpp.html" target="_top" xlink:title="Exceptions thrown by entities in the alphabet module.">
<polygon fill="white" stroke="black" points="242.5,-185 242.5,-204 391.5,-204 391.5,-185 242.5,-185"/>
<text text-anchor="middle" x="317" y="-192" font-family="Helvetica,sans-Serif" font-size="10.00">bio/alphabet/exception.hpp</text>
</a>
</g>
</g>
<!-- Node2&#45;&gt;Node9 -->
<g id="edge8" class="edge">
<title>Node2&#45;&gt;Node9</title>
<path fill="none" stroke="midnightblue" d="M509.76,-246.48C470.08,-235.98 402.6,-218.14 358.93,-206.59"/>
<polygon fill="midnightblue" stroke="midnightblue" points="359.74,-203.18 349.18,-204.01 357.95,-209.95 359.74,-203.18"/>
</g>
<!-- Node13 -->
<g id="node13" class="node">
<title>Node13</title>
<g id="a_node13"><a xlink:href="core__language_8hpp.html" target="_top" xlink:title="Provides concepts for core language types and relations that don&#39;t have concepts in C++20 (yet).">
<polygon fill="white" stroke="black" points="409.5,-179.5 409.5,-209.5 534.5,-209.5 534.5,-179.5 409.5,-179.5"/>
<text text-anchor="start" x="417.5" y="-197.5" font-family="Helvetica,sans-Serif" font-size="10.00">bio/meta/concept/core</text>
<text text-anchor="middle" x="472" y="-186.5" font-family="Helvetica,sans-Serif" font-size="10.00">_language.hpp</text>
</a>
</g>
</g>
<!-- Node2&#45;&gt;Node13 -->
<g id="edge13" class="edge">
<title>Node2&#45;&gt;Node13</title>
<path fill="none" stroke="midnightblue" d="M531.97,-246.48C522.67,-238.57 508.45,-226.48 496.2,-216.07"/>
<polygon fill="midnightblue" stroke="midnightblue" points="498.38,-213.33 488.5,-209.52 493.85,-218.67 498.38,-213.33"/>
</g>
<!-- Node14 -->
<g id="node14" class="node">
<title>Node14</title>
<g id="a_node14"><a xlink:href="priority__tag_8hpp.html" target="_top" xlink:title="provides bio::meta::detail::priority_tag.">
<polygon fill="white" stroke="black" points="95.5,-179.5 95.5,-209.5 224.5,-209.5 224.5,-179.5 95.5,-179.5"/>
<text text-anchor="start" x="103.5" y="-197.5" font-family="Helvetica,sans-Serif" font-size="10.00">bio/meta/detail/priority</text>
<text text-anchor="middle" x="160" y="-186.5" font-family="Helvetica,sans-Serif" font-size="10.00">_tag.hpp</text>
</a>
</g>
</g>
<!-- Node2&#45;&gt;Node14 -->
<g id="edge17" class="edge">
<title>Node2&#45;&gt;Node14</title>
<path fill="none" stroke="midnightblue" d="M477.26,-246.47C417.09,-238.33 324.73,-225.3 234.66,-210.06"/>
<polygon fill="midnightblue" stroke="midnightblue" points="234.99,-206.57 224.54,-208.34 233.81,-213.47 234.99,-206.57"/>
</g>
<!-- Node15 -->
<g id="node15" class="node">
<title>Node15</title>
<g id="a_node15"><a xlink:href="type__inspection_8hpp.html" target="_top" xlink:title="Provides traits to inspect some information of a type, for example its name.">
<polygon fill="white" stroke="black" points="553,-179.5 553,-209.5 669,-209.5 669,-179.5 553,-179.5"/>
<text text-anchor="start" x="561" y="-197.5" font-family="Helvetica,sans-Serif" font-size="10.00">bio/meta/detail/type</text>
<text text-anchor="middle" x="611" y="-186.5" font-family="Helvetica,sans-Serif" font-size="10.00">_inspection.hpp</text>
</a>
</g>
</g>
<!-- Node2&#45;&gt;Node15 -->
<g id="edge19" class="edge">
<title>Node2&#45;&gt;Node15</title>
<path fill="none" stroke="midnightblue" d="M551.89,-246.48C561.06,-238.57 575.07,-226.48 587.15,-216.07"/>
<polygon fill="midnightblue" stroke="midnightblue" points="589.45,-218.7 594.74,-209.52 584.88,-213.4 589.45,-218.7"/>
</g>
<!-- Node19 -->
<g id="node19" class="node">
<title>Node19</title>
<g id="a_node19"><a xlink:href="basic_8hpp.html" target="_top" xlink:title="Provides various type traits on generic types.">
<polygon fill="white" stroke="black" points="943,-112.5 943,-142.5 1059,-142.5 1059,-112.5 943,-112.5"/>
<text text-anchor="start" x="951" y="-130.5" font-family="Helvetica,sans-Serif" font-size="10.00">bio/meta/type_traits</text>
<text text-anchor="middle" x="1001" y="-119.5" font-family="Helvetica,sans-Serif" font-size="10.00">/basic.hpp</text>
</a>
</g>
</g>
<!-- Node2&#45;&gt;Node19 -->
<g id="edge25" class="edge">
<title>Node2&#45;&gt;Node19</title>
<path fill="none" stroke="midnightblue" d="M606.18,-246.48C656.03,-239.09 726.61,-226.89 787,-210 848.76,-192.72 917.65,-164.86 960.17,-146.61"/>
<polygon fill="midnightblue" stroke="midnightblue" points="961.55,-149.83 969.35,-142.65 958.78,-143.4 961.55,-149.83"/>
</g>
<!-- Node5 -->
<g id="node5" class="node">
<title>Node5</title>
<g id="a_node5"><a xlink:href="platform_8hpp.html" target="_top" xlink:title="Provides platform and dependency checks.">
<polygon fill="white" stroke="black" points="399,-56.5 399,-75.5 525,-75.5 525,-56.5 399,-56.5"/>
<text text-anchor="middle" x="462" y="-63.5" font-family="Helvetica,sans-Serif" font-size="10.00">bio/meta/platform.hpp</text>
</a>
</g>
</g>
<!-- Node4&#45;&gt;Node5 -->
<g id="edge4" class="edge">
<title>Node4&#45;&gt;Node5</title>
<path fill="none" stroke="midnightblue" d="M113.21,-117.94C124.58,-115.92 136.72,-113.82 148,-112 230.32,-98.74 325.09,-85.42 388.8,-76.76"/>
<polygon fill="midnightblue" stroke="midnightblue" points="389.31,-80.22 398.75,-75.41 388.37,-73.28 389.31,-80.22"/>
</g>
<!-- Node6 -->
<g id="node6" class="node">
<title>Node6</title>
<g id="a_node6"><a target="_blank" xlink:href="https://en.cppreference.com/w/cpp/header/cinttypes.html" xlink:title=" ">
<polygon fill="white" stroke="black" points="355,-0.5 355,-19.5 417,-19.5 417,-0.5 355,-0.5"/>
<text text-anchor="middle" x="386" y="-7.5" font-family="Helvetica,sans-Serif" font-size="10.00">cinttypes</text>
</a>
</g>
</g>
<!-- Node5&#45;&gt;Node6 -->
<g id="edge5" class="edge">
<title>Node5&#45;&gt;Node6</title>
<path fill="none" stroke="midnightblue" d="M449.79,-56.32C438.22,-48.11 420.62,-35.6 406.84,-25.81"/>
<polygon fill="midnightblue" stroke="midnightblue" points="408.61,-22.77 398.43,-19.83 404.56,-28.48 408.61,-22.77"/>
</g>
<!-- Node7 -->
<g id="node7" class="node">
<title>Node7</title>
<g id="a_node7"><a target="_blank" xlink:href="https://en.cppreference.com/w/cpp/header/ciso646.html" xlink:title=" ">
<polygon fill="white" stroke="black" points="435,-0.5 435,-19.5 489,-19.5 489,-0.5 435,-0.5"/>
<text text-anchor="middle" x="462" y="-7.5" font-family="Helvetica,sans-Serif" font-size="10.00">ciso646</text>
</a>
</g>
</g>
<!-- Node5&#45;&gt;Node7 -->
<g id="edge6" class="edge">
<title>Node5&#45;&gt;Node7</title>
<path fill="none" stroke="midnightblue" d="M462,-56.08C462,-49.01 462,-38.86 462,-29.99"/>
<polygon fill="midnightblue" stroke="midnightblue" points="465.5,-29.75 462,-19.75 458.5,-29.75 465.5,-29.75"/>
</g>
<!-- Node8 -->
<g id="node8" class="node">
<title>Node8</title>
<g id="a_node8"><a target="_blank" xlink:href="https://en.cppreference.com/w/cpp/header/cstddef.html" xlink:title=" ">
<polygon fill="white" stroke="black" points="507.5,-0.5 507.5,-19.5 560.5,-19.5 560.5,-0.5 507.5,-0.5"/>
<text text-anchor="middle" x="534" y="-7.5" font-family="Helvetica,sans-Serif" font-size="10.00">cstddef</text>
</a>
</g>
</g>
<!-- Node5&#45;&gt;Node8 -->
<g id="edge7" class="edge">
<title>Node5&#45;&gt;Node8</title>
<path fill="none" stroke="midnightblue" d="M473.57,-56.32C484.42,-48.18 500.88,-35.84 513.88,-26.09"/>
<polygon fill="midnightblue" stroke="midnightblue" points="516.32,-28.63 522.22,-19.83 512.12,-23.03 516.32,-28.63"/>
</g>
<!-- Node9&#45;&gt;Node4 -->
<g id="edge12" class="edge">
<title>Node9&#45;&gt;Node4</title>
<path fill="none" stroke="midnightblue" d="M284.06,-184.94C239.28,-173.29 159.13,-152.45 109.76,-139.62"/>
<polygon fill="midnightblue" stroke="midnightblue" points="110.57,-136.21 100.01,-137.08 108.81,-142.99 110.57,-136.21"/>
</g>
<!-- Node10 -->
<g id="node10" class="node">
<title>Node10</title>
<g id="a_node10"><a target="_blank" xlink:href="https://en.cppreference.com/w/cpp/header/concepts.html" xlink:title=" ">
<polygon fill="white" stroke="black" points="274,-118 274,-137 334,-137 334,-118 274,-118"/>
<text text-anchor="middle" x="304" y="-125" font-family="Helvetica,sans-Serif" font-size="10.00">concepts</text>
</a>
</g>
</g>
<!-- Node9&#45;&gt;Node10 -->
<g id="edge9" class="edge">
<title>Node9&#45;&gt;Node10</title>
<path fill="none" stroke="midnightblue" d="M315.25,-184.73C313.34,-175.18 310.22,-159.62 307.76,-147.28"/>
<polygon fill="midnightblue" stroke="midnightblue" points="311.12,-146.25 305.73,-137.13 304.25,-147.62 311.12,-146.25"/>
</g>
<!-- Node11 -->
<g id="node11" class="node">
<title>Node11</title>
<g id="a_node11"><a target="_blank" xlink:href="https://en.cppreference.com/w/cpp/header/stdexcept.html" xlink:title=" ">
<polygon fill="white" stroke="black" points="190.5,-118 190.5,-137 255.5,-137 255.5,-118 190.5,-118"/>
<text text-anchor="middle" x="223" y="-125" font-family="Helvetica,sans-Serif" font-size="10.00">stdexcept</text>
</a>
</g>
</g>
<!-- Node9&#45;&gt;Node11 -->
<g id="edge10" class="edge">
<title>Node9&#45;&gt;Node11</title>
<path fill="none" stroke="midnightblue" d="M304.32,-184.73C288.82,-174.01 262.36,-155.72 243.84,-142.91"/>
<polygon fill="midnightblue" stroke="midnightblue" points="245.69,-139.94 235.48,-137.13 241.71,-145.69 245.69,-139.94"/>
</g>
<!-- Node12 -->
<g id="node12" class="node">
<title>Node12</title>
<g id="a_node12"><a target="_blank" xlink:href="https://en.cppreference.com/w/cpp/header/string.html" xlink:title=" ">
<polygon fill="white" stroke="black" points="352,-118 352,-137 396,-137 396,-118 352,-118"/>
<text text-anchor="middle" x="374" y="-125" font-family="Helvetica,sans-Serif" font-size="10.00">string</text>
</a>
</g>
</g>
<!-- Node9&#45;&gt;Node12 -->
<g id="edge11" class="edge">
<title>Node9&#45;&gt;Node12</title>
<path fill="none" stroke="midnightblue" d="M324.69,-184.73C333.66,-174.5 348.69,-157.36 359.8,-144.69"/>
<polygon fill="midnightblue" stroke="midnightblue" points="362.47,-146.95 366.43,-137.13 357.21,-142.34 362.47,-146.95"/>
</g>
<!-- Node13&#45;&gt;Node3 -->
<g id="edge14" class="edge">
<title>Node13&#45;&gt;Node3</title>
<path fill="none" stroke="midnightblue" d="M475.91,-179.29C481.87,-160.54 495.14,-128.03 519,-112 564.9,-81.17 726.07,-71.3 805.32,-68.27"/>
<polygon fill="midnightblue" stroke="midnightblue" points="805.62,-71.76 815.48,-67.9 805.36,-64.77 805.62,-71.76"/>
</g>
<!-- Node13&#45;&gt;Node5 -->
<g id="edge15" class="edge">
<title>Node13&#45;&gt;Node5</title>
<path fill="none" stroke="midnightblue" d="M463.04,-179.1C457.5,-169.33 450.9,-155.88 448,-143 443.59,-123.43 449.1,-100.8 454.46,-85.36"/>
<polygon fill="midnightblue" stroke="midnightblue" points="457.75,-86.53 458.01,-75.94 451.21,-84.06 457.75,-86.53"/>
</g>
<!-- Node13&#45;&gt;Node10 -->
<g id="edge16" class="edge">
<title>Node13&#45;&gt;Node10</title>
<path fill="none" stroke="midnightblue" d="M435.55,-179.4C405.68,-167.84 363.85,-151.66 335.44,-140.66"/>
<polygon fill="midnightblue" stroke="midnightblue" points="336.58,-137.35 325.99,-137.01 334.05,-143.88 336.58,-137.35"/>
</g>
<!-- Node14&#45;&gt;Node5 -->
<g id="edge18" class="edge">
<title>Node14&#45;&gt;Node5</title>
<path fill="none" stroke="midnightblue" d="M159.49,-179.34C159.66,-160.95 162.94,-129.17 182,-112 211.7,-85.25 316.35,-74.33 388.94,-69.92"/>
<polygon fill="midnightblue" stroke="midnightblue" points="389.18,-73.41 398.96,-69.34 388.78,-66.42 389.18,-73.41"/>
</g>
<!-- Node15&#45;&gt;Node5 -->
<g id="edge24" class="edge">
<title>Node15&#45;&gt;Node5</title>
<path fill="none" stroke="midnightblue" d="M577.34,-179.3C558.9,-170.51 536.34,-158.05 519,-143 499.42,-126.01 482.4,-101.24 472.17,-84.64"/>
<polygon fill="midnightblue" stroke="midnightblue" points="475.11,-82.73 466.97,-75.94 469.1,-86.32 475.11,-82.73"/>
</g>
<!-- Node15&#45;&gt;Node12 -->
<g id="edge22" class="edge">
<title>Node15&#45;&gt;Node12</title>
<path fill="none" stroke="midnightblue" d="M559.87,-179.48C513.15,-166.66 445.51,-148.11 406.02,-137.28"/>
<polygon fill="midnightblue" stroke="midnightblue" points="406.71,-133.84 396.14,-134.57 404.86,-140.59 406.71,-133.84"/>
</g>
<!-- Node16 -->
<g id="node16" class="node">
<title>Node16</title>
<g id="a_node16"><a target="_blank" xlink:href="https://en.cppreference.com/w/cpp/header/functional.html" xlink:title=" ">
<polygon fill="white" stroke="black" points="679.5,-118 679.5,-137 744.5,-137 744.5,-118 679.5,-118"/>
<text text-anchor="middle" x="712" y="-125" font-family="Helvetica,sans-Serif" font-size="10.00">functional</text>
</a>
</g>
</g>
<!-- Node15&#45;&gt;Node16 -->
<g id="edge20" class="edge">
<title>Node15&#45;&gt;Node16</title>
<path fill="none" stroke="midnightblue" d="M632.92,-179.4C649.85,-168.5 673.19,-153.48 690.12,-142.58"/>
<polygon fill="midnightblue" stroke="midnightblue" points="692.27,-145.36 698.78,-137.01 688.48,-139.48 692.27,-145.36"/>
</g>
<!-- Node17 -->
<g id="node17" class="node">
<title>Node17</title>
<g id="a_node17"><a target="_blank" xlink:href="https://en.cppreference.com/w/cpp/header/memory.html" xlink:title=" ">
<polygon fill="white" stroke="black" points="528,-118 528,-137 586,-137 586,-118 528,-118"/>
<text text-anchor="middle" x="557" y="-125" font-family="Helvetica,sans-Serif" font-size="10.00">memory</text>
</a>
</g>
</g>
<!-- Node15&#45;&gt;Node17 -->
<g id="edge21" class="edge">
<title>Node15&#45;&gt;Node17</title>
<path fill="none" stroke="midnightblue" d="M599.28,-179.4C590.86,-169.26 579.49,-155.57 570.66,-144.94"/>
<polygon fill="midnightblue" stroke="midnightblue" points="573.31,-142.65 564.22,-137.19 567.92,-147.12 573.31,-142.65"/>
</g>
<!-- Node18 -->
<g id="node18" class="node">
<title>Node18</title>
<g id="a_node18"><a target="_blank" xlink:href="https://en.cppreference.com/w/cpp/header/typeinfo.html" xlink:title=" ">
<polygon fill="white" stroke="black" points="604.5,-118 604.5,-137 661.5,-137 661.5,-118 604.5,-118"/>
<text text-anchor="middle" x="633" y="-125" font-family="Helvetica,sans-Serif" font-size="10.00">typeinfo</text>
</a>
</g>
</g>
<!-- Node15&#45;&gt;Node18 -->
<g id="edge23" class="edge">
<title>Node15&#45;&gt;Node18</title>
<path fill="none" stroke="midnightblue" d="M615.77,-179.4C619,-169.86 623.29,-157.18 626.79,-146.86"/>
<polygon fill="midnightblue" stroke="midnightblue" points="630.17,-147.79 630.06,-137.19 623.54,-145.54 630.17,-147.79"/>
</g>
<!-- Node19&#45;&gt;Node3 -->
<g id="edge27" class="edge">
<title>Node19&#45;&gt;Node3</title>
<path fill="none" stroke="midnightblue" d="M965.22,-112.4C939.77,-102.37 905.9,-89.03 881.48,-79.4"/>
<polygon fill="midnightblue" stroke="midnightblue" points="882.56,-76.07 871.97,-75.66 879.99,-82.58 882.56,-76.07"/>
</g>
<!-- Node19&#45;&gt;Node5 -->
<g id="edge28" class="edge">
<title>Node19&#45;&gt;Node5</title>
<path fill="none" stroke="midnightblue" d="M942.97,-113.5C939.94,-112.96 936.94,-112.46 934,-112 793.86,-90.23 628.56,-77.38 535.44,-71.31"/>
<polygon fill="midnightblue" stroke="midnightblue" points="535.49,-67.8 525.28,-70.65 535.03,-74.79 535.49,-67.8"/>
</g>
<!-- Node20 -->
<g id="node20" class="node">
<title>Node20</title>
<g id="a_node20"><a target="_blank" xlink:href="https://en.cppreference.com/w/cpp/header/tuple.html" xlink:title=" ">
<polygon fill="white" stroke="black" points="1078.5,-56.5 1078.5,-75.5 1119.5,-75.5 1119.5,-56.5 1078.5,-56.5"/>
<text text-anchor="middle" x="1099" y="-63.5" font-family="Helvetica,sans-Serif" font-size="10.00">tuple</text>
</a>
</g>
</g>
<!-- Node19&#45;&gt;Node20 -->
<g id="edge26" class="edge">
<title>Node19&#45;&gt;Node20</title>
<path fill="none" stroke="midnightblue" d="M1024.22,-112.4C1039.79,-102.95 1060.2,-90.56 1075.76,-81.11"/>
<polygon fill="midnightblue" stroke="midnightblue" points="1078.01,-83.84 1084.74,-75.66 1074.38,-77.86 1078.01,-83.84"/>
</g>
<!-- Node21&#45;&gt;Node4 -->
<g id="edge30" class="edge">
<title>Node21&#45;&gt;Node4</title>
<path fill="none" stroke="midnightblue" d="M311.79,-315.07C241.44,-309.95 121.08,-289.32 65,-210 52.01,-191.62 55.93,-164.64 60.76,-146.82"/>
<polygon fill="midnightblue" stroke="midnightblue" points="64.16,-147.66 63.75,-137.07 57.47,-145.61 64.16,-147.66"/>
</g>
<!-- Node23 -->
<g id="node23" class="node">
<title>Node23</title>
<g id="a_node23"><a xlink:href="ranges_2views_2detail_8hpp_source.html" target="_top" xlink:title=" ">
<polygon fill="white" stroke="black" points="1057.5,-246.5 1057.5,-265.5 1208.5,-265.5 1208.5,-246.5 1057.5,-246.5"/>
<text text-anchor="middle" x="1133" y="-253.5" font-family="Helvetica,sans-Serif" font-size="10.00">bio/ranges/views/detail.hpp</text>
</a>
</g>
</g>
<!-- Node22&#45;&gt;Node23 -->
<g id="edge32" class="edge">
<title>Node22&#45;&gt;Node23</title>
<path fill="none" stroke="midnightblue" d="M1133,-307.98C1133,-299.58 1133,-286.48 1133,-275.66"/>
<polygon fill="midnightblue" stroke="midnightblue" points="1136.5,-275.51 1133,-265.51 1129.5,-275.51 1136.5,-275.51"/>
</g>
<!-- Node22&#45;&gt;Node24 -->
<g id="edge43" class="edge">
<title>Node22&#45;&gt;Node24</title>
<path fill="none" stroke="midnightblue" d="M1156.31,-307.99C1175.4,-299.91 1201.79,-286.01 1218,-266 1246.7,-230.57 1256.83,-176.05 1260.29,-147.47"/>
<polygon fill="midnightblue" stroke="midnightblue" points="1263.8,-147.57 1261.37,-137.25 1256.84,-146.83 1263.8,-147.57"/>
</g>
<!-- Node23&#45;&gt;Node19 -->
<g id="edge35" class="edge">
<title>Node23&#45;&gt;Node19</title>
<path fill="none" stroke="midnightblue" d="M1079.57,-246.44C1056.78,-240.1 1031.85,-229.09 1016,-210 1002.84,-194.14 999.71,-170.51 999.51,-152.77"/>
<polygon fill="midnightblue" stroke="midnightblue" points="1003.01,-152.67 999.69,-142.61 996.01,-152.54 1003.01,-152.67"/>
</g>
<!-- Node23&#45;&gt;Node20 -->
<g id="edge34" class="edge">
<title>Node23&#45;&gt;Node20</title>
<path fill="none" stroke="midnightblue" d="M1146.06,-246.44C1156.91,-238.47 1171.57,-225.52 1178,-210 1194.67,-169.76 1199.89,-149.66 1178,-112 1167.59,-94.09 1147.09,-82.72 1129.58,-75.88"/>
<polygon fill="midnightblue" stroke="midnightblue" points="1130.31,-72.43 1119.72,-72.37 1127.96,-79.02 1130.31,-72.43"/>
</g>
<!-- Node23&#45;&gt;Node24 -->
<g id="edge33" class="edge">
<title>Node23&#45;&gt;Node24</title>
<path fill="none" stroke="midnightblue" d="M1153.7,-246.46C1170.56,-238.76 1194.24,-226.17 1211,-210 1230.28,-191.4 1245.43,-164.09 1254.05,-146.3"/>
<polygon fill="midnightblue" stroke="midnightblue" points="1257.3,-147.6 1258.36,-137.06 1250.96,-144.65 1257.3,-147.6"/>
</g>
<!-- Node25 -->
<g id="node25" class="node">
<title>Node25</title>
<g id="a_node25"><a xlink:href="type__traits_8hpp.html" target="_top" xlink:title="Provides various transformation traits used by the range module.">
<polygon fill="white" stroke="black" points="1025,-185 1025,-204 1169,-204 1169,-185 1025,-185"/>
<text text-anchor="middle" x="1097" y="-192" font-family="Helvetica,sans-Serif" font-size="10.00">bio/ranges/type_traits.hpp</text>
</a>
</g>
</g>
<!-- Node23&#45;&gt;Node25 -->
<g id="edge36" class="edge">
<title>Node23&#45;&gt;Node25</title>
<path fill="none" stroke="midnightblue" d="M1127.84,-246.48C1122.55,-237.73 1114.16,-223.87 1107.47,-212.81"/>
<polygon fill="midnightblue" stroke="midnightblue" points="1110.32,-210.75 1102.15,-204.01 1104.33,-214.38 1110.32,-210.75"/>
</g>
<!-- Node25&#45;&gt;Node3 -->
<g id="edge39" class="edge">
<title>Node25&#45;&gt;Node3</title>
<path fill="none" stroke="midnightblue" d="M1096.59,-184.84C1095.3,-168.07 1089.98,-131.13 1068,-112 1042.62,-89.91 950.87,-77.05 894.81,-71.08"/>
<polygon fill="midnightblue" stroke="midnightblue" points="895.09,-67.59 884.78,-70.05 894.37,-74.56 895.09,-67.59"/>
</g>
<!-- Node25&#45;&gt;Node19 -->
<g id="edge40" class="edge">
<title>Node25&#45;&gt;Node19</title>
<path fill="none" stroke="midnightblue" d="M1084.05,-184.73C1070.33,-175.44 1048.2,-160.46 1030.24,-148.3"/>
<polygon fill="midnightblue" stroke="midnightblue" points="1032.05,-145.3 1021.81,-142.59 1028.13,-151.09 1032.05,-145.3"/>
</g>
<!-- Node25&#45;&gt;Node24 -->
<g id="edge38" class="edge">
<title>Node25&#45;&gt;Node24</title>
<path fill="none" stroke="midnightblue" d="M1118.91,-184.87C1147.59,-173.57 1198.04,-153.7 1230.73,-140.82"/>
<polygon fill="midnightblue" stroke="midnightblue" points="1232.24,-143.99 1240.26,-137.06 1229.67,-137.47 1232.24,-143.99"/>
</g>
<!-- Node26 -->
<g id="node26" class="node">
<title>Node26</title>
<g id="a_node26"><a target="_blank" xlink:href="https://en.cppreference.com/w/cpp/header/iterator.html" xlink:title=" ">
<polygon fill="white" stroke="black" points="1115.5,-118 1115.5,-137 1168.5,-137 1168.5,-118 1115.5,-118"/>
<text text-anchor="middle" x="1142" y="-125" font-family="Helvetica,sans-Serif" font-size="10.00">iterator</text>
</a>
</g>
</g>
<!-- Node25&#45;&gt;Node26 -->
<g id="edge37" class="edge">
<title>Node25&#45;&gt;Node26</title>
<path fill="none" stroke="midnightblue" d="M1103.07,-184.73C1110.02,-174.7 1121.57,-158.01 1130.29,-145.42"/>
<polygon fill="midnightblue" stroke="midnightblue" points="1133.21,-147.34 1136.03,-137.13 1127.46,-143.36 1133.21,-147.34"/>
</g>
<!-- Node27 -->
<g id="node27" class="node">
<title>Node27</title>
<g id="a_node27"><a xlink:href="ranges_2biocpp_8hpp.html" target="_top" xlink:title="Module header with module&#45;wide definitions.">
<polygon fill="white" stroke="black" points="801,-118 801,-137 925,-137 925,-118 801,-118"/>
<text text-anchor="middle" x="863" y="-125" font-family="Helvetica,sans-Serif" font-size="10.00">bio/ranges/biocpp.hpp</text>
</a>
</g>
</g>
<!-- Node25&#45;&gt;Node27 -->
<g id="edge41" class="edge">
<title>Node25&#45;&gt;Node27</title>
<path fill="none" stroke="midnightblue" d="M1065.93,-184.87C1024.11,-173.25 949.67,-152.58 903.51,-139.75"/>
<polygon fill="midnightblue" stroke="midnightblue" points="904.4,-136.37 893.83,-137.06 902.53,-143.11 904.4,-136.37"/>
</g>
<!-- Node27&#45;&gt;Node5 -->
<g id="edge42" class="edge">
<title>Node27&#45;&gt;Node5</title>
<path fill="none" stroke="midnightblue" d="M805.55,-117.98C732.59,-107.15 606.91,-88.5 529.48,-77.01"/>
<polygon fill="midnightblue" stroke="midnightblue" points="529.75,-73.51 519.35,-75.51 528.72,-80.44 529.75,-73.51"/>
</g>
</g>
</svg>
