<?xml version="1.0" encoding="UTF-8" standalone="no"?>
<!DOCTYPE svg PUBLIC "-//W3C//DTD SVG 1.1//EN"
 "http://www.w3.org/Graphics/SVG/1.1/DTD/svg11.dtd">
<!-- Generated by graphviz version 2.43.0 (0)
 -->
<!-- Title: bio/meta/type_list/traits_detail.hpp Pages: 1 -->
<svg width="262pt" height="430pt"
 viewBox="0.00 0.00 261.50 430.00" xmlns="http://www.w3.org/2000/svg" xmlns:xlink="http://www.w3.org/1999/xlink">
<g id="graph0" class="graph" transform="scale(1 1) rotate(0) translate(4 426)">
<title>bio/meta/type_list/traits_detail.hpp</title>
<polygon fill="white" stroke="transparent" points="-4,4 -4,-426 257.5,-426 257.5,4 -4,4"/>
<!-- Node1 -->
<g id="node1" class="node">
<title>Node1</title>
<g id="a_node1"><a xlink:title="Provides various traits for template packs.">
<polygon fill="#bfbfbf" stroke="black" points="10,-391.5 10,-421.5 115,-421.5 115,-391.5 10,-391.5"/>
<text text-anchor="start" x="18" y="-409.5" font-family="Helvetica,sans-Serif" font-size="10.00">bio/meta/type_list</text>
<text text-anchor="middle" x="62.5" y="-398.5" font-family="Helvetica,sans-Serif" font-size="10.00">/traits_detail.hpp</text>
</a>
</g>
</g>
<!-- Node2 -->
<g id="node2" class="node">
<title>Node2</title>
<g id="a_node2"><a target="_blank" xlink:href="https://en.cppreference.com/w/cpp/header/type_traits.html" xlink:title=" ">
<polygon fill="white" stroke="black" points="0,-56.5 0,-75.5 69,-75.5 69,-56.5 0,-56.5"/>
<text text-anchor="middle" x="34.5" y="-63.5" font-family="Helvetica,sans-Serif" font-size="10.00">type_traits</text>
</a>
</g>
</g>
<!-- Node1&#45;&gt;Node2 -->
<g id="edge1" class="edge">
<title>Node1&#45;&gt;Node2</title>
<path fill="none" stroke="midnightblue" d="M51.6,-391.2C44.65,-381.46 35.96,-368.02 30.5,-355 16.12,-320.7 11.5,-310.69 11.5,-273.5 11.5,-273.5 11.5,-273.5 11.5,-199 11.5,-157.87 22.47,-110.58 29.26,-85.26"/>
<polygon fill="midnightblue" stroke="midnightblue" points="32.65,-86.13 31.95,-75.56 25.91,-84.26 32.65,-86.13"/>
</g>
<!-- Node3 -->
<g id="node3" class="node">
<title>Node3</title>
<g id="a_node3"><a target="_blank" xlink:href="https://en.cppreference.com/w/cpp/header/utility.html" xlink:title=" ">
<polygon fill="white" stroke="black" points="40,-330 40,-349 85,-349 85,-330 40,-330"/>
<text text-anchor="middle" x="62.5" y="-337" font-family="Helvetica,sans-Serif" font-size="10.00">utility</text>
</a>
</g>
</g>
<!-- Node1&#45;&gt;Node3 -->
<g id="edge2" class="edge">
<title>Node1&#45;&gt;Node3</title>
<path fill="none" stroke="midnightblue" d="M62.5,-391.4C62.5,-382.06 62.5,-369.71 62.5,-359.52"/>
<polygon fill="midnightblue" stroke="midnightblue" points="66,-359.19 62.5,-349.19 59,-359.19 66,-359.19"/>
</g>
<!-- Node4 -->
<g id="node4" class="node">
<title>Node4</title>
<g id="a_node4"><a xlink:href="type__list_8hpp.html" target="_top" xlink:title="Provides bio::meta::type_list.">
<polygon fill="white" stroke="black" points="103,-324.5 103,-354.5 208,-354.5 208,-324.5 103,-324.5"/>
<text text-anchor="start" x="111" y="-342.5" font-family="Helvetica,sans-Serif" font-size="10.00">bio/meta/type_list</text>
<text text-anchor="middle" x="155.5" y="-331.5" font-family="Helvetica,sans-Serif" font-size="10.00">/type_list.hpp</text>
</a>
</g>
</g>
<!-- Node1&#45;&gt;Node4 -->
<g id="edge3" class="edge">
<title>Node1&#45;&gt;Node4</title>
<path fill="none" stroke="midnightblue" d="M82.68,-391.4C95.6,-382.37 112.56,-370.51 126.86,-360.52"/>
<polygon fill="midnightblue" stroke="midnightblue" points="129.17,-363.17 135.36,-354.58 125.16,-357.44 129.17,-363.17"/>
</g>
<!-- Node5 -->
<g id="node5" class="node">
<title>Node5</title>
<g id="a_node5"><a xlink:href="template__inspection_8hpp.html" target="_top" xlink:title="Provides various traits to inspect templates.">
<polygon fill="white" stroke="black" points="85.5,-257.5 85.5,-287.5 225.5,-287.5 225.5,-257.5 85.5,-257.5"/>
<text text-anchor="start" x="93.5" y="-275.5" font-family="Helvetica,sans-Serif" font-size="10.00">bio/meta/type_traits</text>
<text text-anchor="middle" x="155.5" y="-264.5" font-family="Helvetica,sans-Serif" font-size="10.00">/template_inspection.hpp</text>
</a>
</g>
</g>
<!-- Node4&#45;&gt;Node5 -->
<g id="edge4" class="edge">
<title>Node4&#45;&gt;Node5</title>
<path fill="none" stroke="midnightblue" d="M155.5,-324.4C155.5,-316.64 155.5,-306.81 155.5,-297.86"/>
<polygon fill="midnightblue" stroke="midnightblue" points="159,-297.58 155.5,-287.58 152,-297.58 159,-297.58"/>
</g>
<!-- Node6 -->
<g id="node6" class="node">
<title>Node6</title>
<g id="a_node6"><a xlink:href="transformation__trait__or_8hpp.html" target="_top" xlink:title="Provides bio::meta::transformation_trait_or.">
<polygon fill="white" stroke="black" points="57.5,-179.5 57.5,-220.5 175.5,-220.5 175.5,-179.5 57.5,-179.5"/>
<text text-anchor="start" x="65.5" y="-208.5" font-family="Helvetica,sans-Serif" font-size="10.00">bio/meta/type_traits</text>
<text text-anchor="start" x="65.5" y="-197.5" font-family="Helvetica,sans-Serif" font-size="10.00">/transformation_trait</text>
<text text-anchor="middle" x="116.5" y="-186.5" font-family="Helvetica,sans-Serif" font-size="10.00">_or.hpp</text>
</a>
</g>
</g>
<!-- Node5&#45;&gt;Node6 -->
<g id="edge5" class="edge">
<title>Node5&#45;&gt;Node6</title>
<path fill="none" stroke="midnightblue" d="M147.61,-257.23C143.19,-249.24 137.52,-239 132.23,-229.44"/>
<polygon fill="midnightblue" stroke="midnightblue" points="135.24,-227.64 127.34,-220.59 129.11,-231.03 135.24,-227.64"/>
</g>
<!-- Node12 -->
<g id="node12" class="node">
<title>Node12</title>
<g id="a_node12"><a target="_blank" xlink:href="https://en.cppreference.com/w/cpp/header/concepts.html" xlink:title=" ">
<polygon fill="white" stroke="black" points="193.5,-190.5 193.5,-209.5 253.5,-209.5 253.5,-190.5 193.5,-190.5"/>
<text text-anchor="middle" x="223.5" y="-197.5" font-family="Helvetica,sans-Serif" font-size="10.00">concepts</text>
</a>
</g>
</g>
<!-- Node5&#45;&gt;Node12 -->
<g id="edge13" class="edge">
<title>Node5&#45;&gt;Node12</title>
<path fill="none" stroke="midnightblue" d="M169.26,-257.23C180.47,-245.62 196.28,-229.22 207.95,-217.12"/>
<polygon fill="midnightblue" stroke="midnightblue" points="210.5,-219.52 214.92,-209.89 205.46,-214.66 210.5,-219.52"/>
</g>
<!-- Node6&#45;&gt;Node2 -->
<g id="edge6" class="edge">
<title>Node6&#45;&gt;Node2</title>
<path fill="none" stroke="midnightblue" d="M97.21,-179.37C87.78,-169.1 76.72,-155.98 68.5,-143 56.81,-124.55 47.07,-101.39 41.06,-85.52"/>
<polygon fill="midnightblue" stroke="midnightblue" points="44.24,-84.03 37.51,-75.85 37.67,-86.44 44.24,-84.03"/>
</g>
<!-- Node7 -->
<g id="node7" class="node">
<title>Node7</title>
<g id="a_node7"><a xlink:href="meta_2type__traits_2concept_8hpp.html" target="_top" xlink:title="Provides the concepts bio::meta::transformation_trait and bio::meta::unary_type_trait.">
<polygon fill="white" stroke="black" points="77.5,-112.5 77.5,-142.5 193.5,-142.5 193.5,-112.5 77.5,-112.5"/>
<text text-anchor="start" x="85.5" y="-130.5" font-family="Helvetica,sans-Serif" font-size="10.00">bio/meta/type_traits</text>
<text text-anchor="middle" x="135.5" y="-119.5" font-family="Helvetica,sans-Serif" font-size="10.00">/concept.hpp</text>
</a>
</g>
</g>
<!-- Node6&#45;&gt;Node7 -->
<g id="edge7" class="edge">
<title>Node6&#45;&gt;Node7</title>
<path fill="none" stroke="midnightblue" d="M121.79,-179.36C124.01,-171.14 126.61,-161.49 128.95,-152.82"/>
<polygon fill="midnightblue" stroke="midnightblue" points="132.4,-153.46 131.62,-142.89 125.64,-151.64 132.4,-153.46"/>
</g>
<!-- Node7&#45;&gt;Node2 -->
<g id="edge8" class="edge">
<title>Node7&#45;&gt;Node2</title>
<path fill="none" stroke="midnightblue" d="M111.56,-112.4C95.37,-102.86 74.09,-90.32 58,-80.84"/>
<polygon fill="midnightblue" stroke="midnightblue" points="59.59,-77.72 49.2,-75.66 56.04,-83.75 59.59,-77.72"/>
</g>
<!-- Node8 -->
<g id="node8" class="node">
<title>Node8</title>
<g id="a_node8"><a xlink:href="platform_8hpp.html" target="_top" xlink:title="Provides platform and dependency checks.">
<polygon fill="white" stroke="black" points="87.5,-56.5 87.5,-75.5 213.5,-75.5 213.5,-56.5 87.5,-56.5"/>
<text text-anchor="middle" x="150.5" y="-63.5" font-family="Helvetica,sans-Serif" font-size="10.00">bio/meta/platform.hpp</text>
</a>
</g>
</g>
<!-- Node7&#45;&gt;Node8 -->
<g id="edge9" class="edge">
<title>Node7&#45;&gt;Node8</title>
<path fill="none" stroke="midnightblue" d="M139.05,-112.4C141.08,-104.38 143.63,-94.23 145.82,-85.57"/>
<polygon fill="midnightblue" stroke="midnightblue" points="149.27,-86.21 148.32,-75.66 142.48,-84.5 149.27,-86.21"/>
</g>
<!-- Node9 -->
<g id="node9" class="node">
<title>Node9</title>
<g id="a_node9"><a target="_blank" xlink:href="https://en.cppreference.com/w/cpp/header/cinttypes.html" xlink:title=" ">
<polygon fill="white" stroke="black" points="43.5,-0.5 43.5,-19.5 105.5,-19.5 105.5,-0.5 43.5,-0.5"/>
<text text-anchor="middle" x="74.5" y="-7.5" font-family="Helvetica,sans-Serif" font-size="10.00">cinttypes</text>
</a>
</g>
</g>
<!-- Node8&#45;&gt;Node9 -->
<g id="edge10" class="edge">
<title>Node8&#45;&gt;Node9</title>
<path fill="none" stroke="midnightblue" d="M138.29,-56.32C126.72,-48.11 109.12,-35.6 95.34,-25.81"/>
<polygon fill="midnightblue" stroke="midnightblue" points="97.11,-22.77 86.93,-19.83 93.06,-28.48 97.11,-22.77"/>
</g>
<!-- Node10 -->
<g id="node10" class="node">
<title>Node10</title>
<g id="a_node10"><a target="_blank" xlink:href="https://en.cppreference.com/w/cpp/header/ciso646.html" xlink:title=" ">
<polygon fill="white" stroke="black" points="123.5,-0.5 123.5,-19.5 177.5,-19.5 177.5,-0.5 123.5,-0.5"/>
<text text-anchor="middle" x="150.5" y="-7.5" font-family="Helvetica,sans-Serif" font-size="10.00">ciso646</text>
</a>
</g>
</g>
<!-- Node8&#45;&gt;Node10 -->
<g id="edge11" class="edge">
<title>Node8&#45;&gt;Node10</title>
<path fill="none" stroke="midnightblue" d="M150.5,-56.08C150.5,-49.01 150.5,-38.86 150.5,-29.99"/>
<polygon fill="midnightblue" stroke="midnightblue" points="154,-29.75 150.5,-19.75 147,-29.75 154,-29.75"/>
</g>
<!-- Node11 -->
<g id="node11" class="node">
<title>Node11</title>
<g id="a_node11"><a target="_blank" xlink:href="https://en.cppreference.com/w/cpp/header/cstddef.html" xlink:title=" ">
<polygon fill="white" stroke="black" points="196,-0.5 196,-19.5 249,-19.5 249,-0.5 196,-0.5"/>
<text text-anchor="middle" x="222.5" y="-7.5" font-family="Helvetica,sans-Serif" font-size="10.00">cstddef</text>
</a>
</g>
</g>
<!-- Node8&#45;&gt;Node11 -->
<g id="edge12" class="edge">
<title>Node8&#45;&gt;Node11</title>
<path fill="none" stroke="midnightblue" d="M162.07,-56.32C172.92,-48.18 189.38,-35.84 202.38,-26.09"/>
<polygon fill="midnightblue" stroke="midnightblue" points="204.82,-28.63 210.72,-19.83 200.62,-23.03 204.82,-28.63"/>
</g>
</g>
</svg>
