<?xml version="1.0" encoding="UTF-8" standalone="no"?>
<!DOCTYPE svg PUBLIC "-//W3C//DTD SVG 1.1//EN"
 "http://www.w3.org/Graphics/SVG/1.1/DTD/svg11.dtd">
<!-- Generated by graphviz version 2.43.0 (0)
 -->
<!-- Title: bio/meta/type_list/traits.hpp Pages: 1 -->
<svg width="317pt" height="497pt"
 viewBox="0.00 0.00 317.00 497.00" xmlns="http://www.w3.org/2000/svg" xmlns:xlink="http://www.w3.org/1999/xlink">
<g id="graph0" class="graph" transform="scale(1 1) rotate(0) translate(4 493)">
<title>bio/meta/type_list/traits.hpp</title>
<polygon fill="white" stroke="transparent" points="-4,4 -4,-493 313,-493 313,4 -4,4"/>
<!-- Node1 -->
<g id="node1" class="node">
<title>Node1</title>
<g id="a_node1"><a xlink:title="Provides traits for meta::type_list.">
<polygon fill="#bfbfbf" stroke="black" points="36.5,-458.5 36.5,-488.5 141.5,-488.5 141.5,-458.5 36.5,-458.5"/>
<text text-anchor="start" x="44.5" y="-476.5" font-family="Helvetica,sans-Serif" font-size="10.00">bio/meta/type_list</text>
<text text-anchor="middle" x="89" y="-465.5" font-family="Helvetica,sans-Serif" font-size="10.00">/traits.hpp</text>
</a>
</g>
</g>
<!-- Node2 -->
<g id="node2" class="node">
<title>Node2</title>
<g id="a_node2"><a target="_blank" xlink:href="https://en.cppreference.com/w/cpp/header/type_traits.html" xlink:title=" ">
<polygon fill="white" stroke="black" points="31.5,-56.5 31.5,-75.5 100.5,-75.5 100.5,-56.5 31.5,-56.5"/>
<text text-anchor="middle" x="66" y="-63.5" font-family="Helvetica,sans-Serif" font-size="10.00">type_traits</text>
</a>
</g>
</g>
<!-- Node1&#45;&gt;Node2 -->
<g id="edge1" class="edge">
<title>Node1&#45;&gt;Node2</title>
<path fill="none" stroke="midnightblue" d="M65.87,-458.43C52.83,-449.45 37.16,-436.74 27,-422 5.34,-390.58 0,-378.66 0,-340.5 0,-340.5 0,-340.5 0,-199 0,-153.13 32.27,-106.87 51.68,-83.19"/>
<polygon fill="midnightblue" stroke="midnightblue" points="54.38,-85.42 58.17,-75.53 49.04,-80.9 54.38,-85.42"/>
</g>
<!-- Node3 -->
<g id="node3" class="node">
<title>Node3</title>
<g id="a_node3"><a xlink:href="traits__detail_8hpp.html" target="_top" xlink:title="Provides various traits for template packs.">
<polygon fill="white" stroke="black" points="36.5,-391.5 36.5,-421.5 141.5,-421.5 141.5,-391.5 36.5,-391.5"/>
<text text-anchor="start" x="44.5" y="-409.5" font-family="Helvetica,sans-Serif" font-size="10.00">bio/meta/type_list</text>
<text text-anchor="middle" x="89" y="-398.5" font-family="Helvetica,sans-Serif" font-size="10.00">/traits_detail.hpp</text>
</a>
</g>
</g>
<!-- Node1&#45;&gt;Node3 -->
<g id="edge2" class="edge">
<title>Node1&#45;&gt;Node3</title>
<path fill="none" stroke="midnightblue" d="M89,-458.4C89,-450.64 89,-440.81 89,-431.86"/>
<polygon fill="midnightblue" stroke="midnightblue" points="92.5,-431.58 89,-421.58 85.5,-431.58 92.5,-431.58"/>
</g>
<!-- Node5 -->
<g id="node5" class="node">
<title>Node5</title>
<g id="a_node5"><a xlink:href="type__list_8hpp.html" target="_top" xlink:title="Provides bio::meta::type_list.">
<polygon fill="white" stroke="black" points="129.5,-324.5 129.5,-354.5 234.5,-354.5 234.5,-324.5 129.5,-324.5"/>
<text text-anchor="start" x="137.5" y="-342.5" font-family="Helvetica,sans-Serif" font-size="10.00">bio/meta/type_list</text>
<text text-anchor="middle" x="182" y="-331.5" font-family="Helvetica,sans-Serif" font-size="10.00">/type_list.hpp</text>
</a>
</g>
</g>
<!-- Node1&#45;&gt;Node5 -->
<g id="edge17" class="edge">
<title>Node1&#45;&gt;Node5</title>
<path fill="none" stroke="midnightblue" d="M111.6,-458.48C124.61,-449.43 140.44,-436.63 151,-422 163.55,-404.62 171.7,-381.53 176.48,-364.36"/>
<polygon fill="midnightblue" stroke="midnightblue" points="179.9,-365.11 179.03,-354.55 173.13,-363.35 179.9,-365.11"/>
</g>
<!-- Node3&#45;&gt;Node2 -->
<g id="edge3" class="edge">
<title>Node3&#45;&gt;Node2</title>
<path fill="none" stroke="midnightblue" d="M78.1,-391.2C71.15,-381.46 62.46,-368.02 57,-355 42.62,-320.7 38,-310.69 38,-273.5 38,-273.5 38,-273.5 38,-199 38,-157.57 51.36,-110.4 59.62,-85.18"/>
<polygon fill="midnightblue" stroke="midnightblue" points="63,-86.11 62.9,-75.52 56.37,-83.86 63,-86.11"/>
</g>
<!-- Node4 -->
<g id="node4" class="node">
<title>Node4</title>
<g id="a_node4"><a target="_blank" xlink:href="https://en.cppreference.com/w/cpp/header/utility.html" xlink:title=" ">
<polygon fill="white" stroke="black" points="66.5,-330 66.5,-349 111.5,-349 111.5,-330 66.5,-330"/>
<text text-anchor="middle" x="89" y="-337" font-family="Helvetica,sans-Serif" font-size="10.00">utility</text>
</a>
</g>
</g>
<!-- Node3&#45;&gt;Node4 -->
<g id="edge4" class="edge">
<title>Node3&#45;&gt;Node4</title>
<path fill="none" stroke="midnightblue" d="M89,-391.4C89,-382.06 89,-369.71 89,-359.52"/>
<polygon fill="midnightblue" stroke="midnightblue" points="92.5,-359.19 89,-349.19 85.5,-359.19 92.5,-359.19"/>
</g>
<!-- Node3&#45;&gt;Node5 -->
<g id="edge5" class="edge">
<title>Node3&#45;&gt;Node5</title>
<path fill="none" stroke="midnightblue" d="M109.18,-391.4C122.1,-382.37 139.06,-370.51 153.36,-360.52"/>
<polygon fill="midnightblue" stroke="midnightblue" points="155.67,-363.17 161.86,-354.58 151.66,-357.44 155.67,-363.17"/>
</g>
<!-- Node6 -->
<g id="node6" class="node">
<title>Node6</title>
<g id="a_node6"><a xlink:href="template__inspection_8hpp.html" target="_top" xlink:title="Provides various traits to inspect templates.">
<polygon fill="white" stroke="black" points="112,-257.5 112,-287.5 252,-287.5 252,-257.5 112,-257.5"/>
<text text-anchor="start" x="120" y="-275.5" font-family="Helvetica,sans-Serif" font-size="10.00">bio/meta/type_traits</text>
<text text-anchor="middle" x="182" y="-264.5" font-family="Helvetica,sans-Serif" font-size="10.00">/template_inspection.hpp</text>
</a>
</g>
</g>
<!-- Node5&#45;&gt;Node6 -->
<g id="edge6" class="edge">
<title>Node5&#45;&gt;Node6</title>
<path fill="none" stroke="midnightblue" d="M182,-324.4C182,-316.64 182,-306.81 182,-297.86"/>
<polygon fill="midnightblue" stroke="midnightblue" points="185.5,-297.58 182,-287.58 178.5,-297.58 185.5,-297.58"/>
</g>
<!-- Node7 -->
<g id="node7" class="node">
<title>Node7</title>
<g id="a_node7"><a target="_blank" xlink:href="https://en.cppreference.com/w/cpp/header/concepts.html" xlink:title=" ">
<polygon fill="white" stroke="black" points="66,-190.5 66,-209.5 126,-209.5 126,-190.5 66,-190.5"/>
<text text-anchor="middle" x="96" y="-197.5" font-family="Helvetica,sans-Serif" font-size="10.00">concepts</text>
</a>
</g>
</g>
<!-- Node6&#45;&gt;Node7 -->
<g id="edge7" class="edge">
<title>Node6&#45;&gt;Node7</title>
<path fill="none" stroke="midnightblue" d="M164.6,-257.23C150.15,-245.39 129.66,-228.59 114.83,-216.44"/>
<polygon fill="midnightblue" stroke="midnightblue" points="116.8,-213.53 106.85,-209.89 112.36,-218.94 116.8,-213.53"/>
</g>
<!-- Node8 -->
<g id="node8" class="node">
<title>Node8</title>
<g id="a_node8"><a xlink:href="transformation__trait__or_8hpp.html" target="_top" xlink:title="Provides bio::meta::transformation_trait_or.">
<polygon fill="white" stroke="black" points="144,-179.5 144,-220.5 262,-220.5 262,-179.5 144,-179.5"/>
<text text-anchor="start" x="152" y="-208.5" font-family="Helvetica,sans-Serif" font-size="10.00">bio/meta/type_traits</text>
<text text-anchor="start" x="152" y="-197.5" font-family="Helvetica,sans-Serif" font-size="10.00">/transformation_trait</text>
<text text-anchor="middle" x="203" y="-186.5" font-family="Helvetica,sans-Serif" font-size="10.00">_or.hpp</text>
</a>
</g>
</g>
<!-- Node6&#45;&gt;Node8 -->
<g id="edge8" class="edge">
<title>Node6&#45;&gt;Node8</title>
<path fill="none" stroke="midnightblue" d="M186.25,-257.23C188.56,-249.49 191.49,-239.63 194.26,-230.33"/>
<polygon fill="midnightblue" stroke="midnightblue" points="197.66,-231.17 197.17,-220.59 190.96,-229.17 197.66,-231.17"/>
</g>
<!-- Node8&#45;&gt;Node2 -->
<g id="edge9" class="edge">
<title>Node8&#45;&gt;Node2</title>
<path fill="none" stroke="midnightblue" d="M165.89,-179.33C149.77,-169.71 131.33,-157.14 117,-143 99.39,-125.63 84.33,-101.28 75.24,-84.86"/>
<polygon fill="midnightblue" stroke="midnightblue" points="78.19,-82.96 70.38,-75.8 72.02,-86.26 78.19,-82.96"/>
</g>
<!-- Node9 -->
<g id="node9" class="node">
<title>Node9</title>
<g id="a_node9"><a xlink:href="meta_2type__traits_2concept_8hpp.html" target="_top" xlink:title="Provides the concepts bio::meta::transformation_trait and bio::meta::unary_type_trait.">
<polygon fill="white" stroke="black" points="126,-112.5 126,-142.5 242,-142.5 242,-112.5 126,-112.5"/>
<text text-anchor="start" x="134" y="-130.5" font-family="Helvetica,sans-Serif" font-size="10.00">bio/meta/type_traits</text>
<text text-anchor="middle" x="184" y="-119.5" font-family="Helvetica,sans-Serif" font-size="10.00">/concept.hpp</text>
</a>
</g>
</g>
<!-- Node8&#45;&gt;Node9 -->
<g id="edge10" class="edge">
<title>Node8&#45;&gt;Node9</title>
<path fill="none" stroke="midnightblue" d="M197.71,-179.36C195.49,-171.14 192.89,-161.49 190.55,-152.82"/>
<polygon fill="midnightblue" stroke="midnightblue" points="193.86,-151.64 187.88,-142.89 187.1,-153.46 193.86,-151.64"/>
</g>
<!-- Node9&#45;&gt;Node2 -->
<g id="edge11" class="edge">
<title>Node9&#45;&gt;Node2</title>
<path fill="none" stroke="midnightblue" d="M156.04,-112.4C136.68,-102.64 111.09,-89.74 92.14,-80.18"/>
<polygon fill="midnightblue" stroke="midnightblue" points="93.67,-77.04 83.17,-75.66 90.52,-83.29 93.67,-77.04"/>
</g>
<!-- Node10 -->
<g id="node10" class="node">
<title>Node10</title>
<g id="a_node10"><a xlink:href="core_8hpp.html" target="_top" xlink:title="Provides platform and dependency checks.">
<polygon fill="white" stroke="black" points="145.5,-56.5 145.5,-75.5 222.5,-75.5 222.5,-56.5 145.5,-56.5"/>
<text text-anchor="middle" x="184" y="-63.5" font-family="Helvetica,sans-Serif" font-size="10.00">bio/core.hpp</text>
</a>
</g>
</g>
<!-- Node9&#45;&gt;Node10 -->
<g id="edge12" class="edge">
<title>Node9&#45;&gt;Node10</title>
<path fill="none" stroke="midnightblue" d="M184,-112.4C184,-104.47 184,-94.46 184,-85.86"/>
<polygon fill="midnightblue" stroke="midnightblue" points="187.5,-85.66 184,-75.66 180.5,-85.66 187.5,-85.66"/>
</g>
<!-- Node11 -->
<g id="node11" class="node">
<title>Node11</title>
<g id="a_node11"><a target="_blank" xlink:href="https://en.cppreference.com/w/cpp/header/cinttypes.html" xlink:title=" ">
<polygon fill="white" stroke="black" points="41,-0.5 41,-19.5 103,-19.5 103,-0.5 41,-0.5"/>
<text text-anchor="middle" x="72" y="-7.5" font-family="Helvetica,sans-Serif" font-size="10.00">cinttypes</text>
</a>
</g>
</g>
<!-- Node10&#45;&gt;Node11 -->
<g id="edge13" class="edge">
<title>Node10&#45;&gt;Node11</title>
<path fill="none" stroke="midnightblue" d="M166.01,-56.32C147.96,-47.62 119.95,-34.12 99.2,-24.11"/>
<polygon fill="midnightblue" stroke="midnightblue" points="100.48,-20.84 89.95,-19.65 97.44,-27.15 100.48,-20.84"/>
</g>
<!-- Node12 -->
<g id="node12" class="node">
<title>Node12</title>
<g id="a_node12"><a target="_blank" xlink:href="https://en.cppreference.com/w/cpp/header/ciso646.html" xlink:title=" ">
<polygon fill="white" stroke="black" points="121,-0.5 121,-19.5 175,-19.5 175,-0.5 121,-0.5"/>
<text text-anchor="middle" x="148" y="-7.5" font-family="Helvetica,sans-Serif" font-size="10.00">ciso646</text>
</a>
</g>
</g>
<!-- Node10&#45;&gt;Node12 -->
<g id="edge14" class="edge">
<title>Node10&#45;&gt;Node12</title>
<path fill="none" stroke="midnightblue" d="M178.06,-56.08C173.02,-48.53 165.66,-37.49 159.49,-28.23"/>
<polygon fill="midnightblue" stroke="midnightblue" points="162.29,-26.13 153.83,-19.75 156.47,-30.01 162.29,-26.13"/>
</g>
<!-- Node13 -->
<g id="node13" class="node">
<title>Node13</title>
<g id="a_node13"><a target="_blank" xlink:href="https://en.cppreference.com/w/cpp/header/cstddef.html" xlink:title=" ">
<polygon fill="white" stroke="black" points="193.5,-0.5 193.5,-19.5 246.5,-19.5 246.5,-0.5 193.5,-0.5"/>
<text text-anchor="middle" x="220" y="-7.5" font-family="Helvetica,sans-Serif" font-size="10.00">cstddef</text>
</a>
</g>
</g>
<!-- Node10&#45;&gt;Node13 -->
<g id="edge15" class="edge">
<title>Node10&#45;&gt;Node13</title>
<path fill="none" stroke="midnightblue" d="M189.94,-56.08C194.98,-48.53 202.34,-37.49 208.51,-28.23"/>
<polygon fill="midnightblue" stroke="midnightblue" points="211.53,-30.01 214.17,-19.75 205.71,-26.13 211.53,-30.01"/>
</g>
<!-- Node14 -->
<g id="node14" class="node">
<title>Node14</title>
<g id="a_node14"><a target="_blank" xlink:href="https://en.cppreference.com/w/cpp/header/string.html" xlink:title=" ">
<polygon fill="white" stroke="black" points="265,-0.5 265,-19.5 309,-19.5 309,-0.5 265,-0.5"/>
<text text-anchor="middle" x="287" y="-7.5" font-family="Helvetica,sans-Serif" font-size="10.00">string</text>
</a>
</g>
</g>
<!-- Node10&#45;&gt;Node14 -->
<g id="edge16" class="edge">
<title>Node10&#45;&gt;Node14</title>
<path fill="none" stroke="midnightblue" d="M200.55,-56.32C216.99,-47.7 242.43,-34.36 261.47,-24.39"/>
<polygon fill="midnightblue" stroke="midnightblue" points="263.26,-27.4 270.49,-19.65 260.01,-21.2 263.26,-27.4"/>
</g>
</g>
</svg>
