<?xml version="1.0" encoding="UTF-8" standalone="no"?>
<!DOCTYPE svg PUBLIC "-//W3C//DTD SVG 1.1//EN"
 "http://www.w3.org/Graphics/SVG/1.1/DTD/svg11.dtd">
<!-- Generated by graphviz version 2.43.0 (0)
 -->
<!-- Title: bio/meta/type_list/traits_detail.hpp Pages: 1 -->
<svg width="306pt" height="423pt"
 viewBox="0.00 0.00 306.00 423.00" xmlns="http://www.w3.org/2000/svg" xmlns:xlink="http://www.w3.org/1999/xlink">
<g id="graph0" class="graph" transform="scale(1 1) rotate(0) translate(4 419)">
<title>bio/meta/type_list/traits_detail.hpp</title>
<!-- Node1 -->
<g id="node1" class="node">
<title>Node1</title>
<g id="a_node1"><a xlink:title="Provides various traits for template packs.">
<polygon fill="#999999" stroke="#666666" points="95,-415 1,-415 1,-385 95,-385 95,-415"/>
<text text-anchor="start" x="9" y="-403" font-family="Helvetica,sans-Serif" font-size="10.00">bio/meta/type_list</text>
<text text-anchor="middle" x="48" y="-392" font-family="Helvetica,sans-Serif" font-size="10.00">/traits_detail.hpp</text>
</a>
</g>
</g>
<!-- Node2 -->
<g id="node2" class="node">
<title>Node2</title>
<g id="a_node2"><a target="_blank" xlink:href="https://en.cppreference.com/w/cpp/header/type_traits.html" xlink:title=" ">
<polygon fill="white" stroke="#666666" points="102,-74 40,-74 40,-55 102,-55 102,-74"/>
<text text-anchor="middle" x="71" y="-62" font-family="Helvetica,sans-Serif" font-size="10.00">type_traits</text>
</a>
</g>
</g>
<!-- Node1&#45;&gt;Node2 -->
<g id="edge1" class="edge">
<title>Node1&#45;&gt;Node2</title>
<path fill="none" stroke="#63b8ff" d="M38.19,-384.7C31.92,-375 24.05,-361.68 19,-349 5.47,-315.05 0,-305.54 0,-269 0,-269 0,-269 0,-195.5 0,-149.69 34.37,-104.69 55.29,-81.55"/>
<polygon fill="#63b8ff" stroke="#63b8ff" points="58.02,-83.75 62.29,-74.06 52.91,-78.97 58.02,-83.75"/>
</g>
<!-- Node3 -->
<g id="node3" class="node">
<title>Node3</title>
<g id="a_node3"><a target="_blank" xlink:href="https://en.cppreference.com/w/cpp/header/utility.html" xlink:title=" ">
<polygon fill="white" stroke="#666666" points="68,-343.5 28,-343.5 28,-324.5 68,-324.5 68,-343.5"/>
<text text-anchor="middle" x="48" y="-331.5" font-family="Helvetica,sans-Serif" font-size="10.00">utility</text>
</a>
</g>
</g>
<!-- Node1&#45;&gt;Node3 -->
<g id="edge2" class="edge">
<title>Node1&#45;&gt;Node3</title>
<path fill="none" stroke="#63b8ff" d="M48,-384.8C48,-375.7 48,-363.79 48,-353.9"/>
<polygon fill="#63b8ff" stroke="#63b8ff" points="51.5,-353.84 48,-343.84 44.5,-353.84 51.5,-353.84"/>
</g>
<!-- Node4 -->
<g id="node4" class="node">
<title>Node4</title>
<g id="a_node4"><a xlink:href="type__list_8hpp.html" target="_top" xlink:title="Provides bio::meta::type_list.">
<polygon fill="white" stroke="#666666" points="180,-349 86,-349 86,-319 180,-319 180,-349"/>
<text text-anchor="start" x="94" y="-337" font-family="Helvetica,sans-Serif" font-size="10.00">bio/meta/type_list</text>
<text text-anchor="middle" x="133" y="-326" font-family="Helvetica,sans-Serif" font-size="10.00">/type_list.hpp</text>
</a>
</g>
</g>
<!-- Node1&#45;&gt;Node4 -->
<g id="edge3" class="edge">
<title>Node1&#45;&gt;Node4</title>
<path fill="none" stroke="#63b8ff" d="M66.86,-384.8C78.42,-376.1 93.39,-364.82 106.17,-355.2"/>
<polygon fill="#63b8ff" stroke="#63b8ff" points="108.31,-357.98 114.19,-349.16 104.09,-352.38 108.31,-357.98"/>
</g>
<!-- Node5 -->
<g id="node5" class="node">
<title>Node5</title>
<g id="a_node5"><a xlink:href="template__inspection_8hpp.html" target="_top" xlink:title="Provides various traits to inspect templates.">
<polygon fill="white" stroke="#666666" points="195.5,-283 70.5,-283 70.5,-253 195.5,-253 195.5,-283"/>
<text text-anchor="start" x="78.5" y="-271" font-family="Helvetica,sans-Serif" font-size="10.00">bio/meta/type_traits</text>
<text text-anchor="middle" x="133" y="-260" font-family="Helvetica,sans-Serif" font-size="10.00">/template_inspection.hpp</text>
</a>
</g>
</g>
<!-- Node4&#45;&gt;Node5 -->
<g id="edge4" class="edge">
<title>Node4&#45;&gt;Node5</title>
<path fill="none" stroke="#63b8ff" d="M133,-318.8C133,-311.34 133,-301.99 133,-293.41"/>
<polygon fill="#63b8ff" stroke="#63b8ff" points="136.5,-293.16 133,-283.16 129.5,-293.16 136.5,-293.16"/>
</g>
<!-- Node6 -->
<g id="node6" class="node">
<title>Node6</title>
<g id="a_node6"><a target="_blank" xlink:href="https://en.cppreference.com/w/cpp/header/concepts.html" xlink:title=" ">
<polygon fill="white" stroke="#666666" points="84,-206 28,-206 28,-187 84,-187 84,-206"/>
<text text-anchor="middle" x="56" y="-194" font-family="Helvetica,sans-Serif" font-size="10.00">concepts</text>
</a>
</g>
</g>
<!-- Node5&#45;&gt;Node6 -->
<g id="edge5" class="edge">
<title>Node5&#45;&gt;Node6</title>
<path fill="none" stroke="#63b8ff" d="M117.42,-252.94C104.61,-241.37 86.48,-225.01 73.23,-213.06"/>
<polygon fill="#63b8ff" stroke="#63b8ff" points="75.48,-210.37 65.71,-206.27 70.79,-215.57 75.48,-210.37"/>
</g>
<!-- Node7 -->
<g id="node7" class="node">
<title>Node7</title>
<g id="a_node7"><a xlink:href="transformation__trait__or_8hpp.html" target="_top" xlink:title="Provides bio::meta::transformation_trait_or.">
<polygon fill="white" stroke="#666666" points="206,-217 102,-217 102,-176 206,-176 206,-217"/>
<text text-anchor="start" x="110" y="-205" font-family="Helvetica,sans-Serif" font-size="10.00">bio/meta/type_traits</text>
<text text-anchor="start" x="110" y="-194" font-family="Helvetica,sans-Serif" font-size="10.00">/transformation_trait</text>
<text text-anchor="middle" x="154" y="-183" font-family="Helvetica,sans-Serif" font-size="10.00">_or.hpp</text>
</a>
</g>
</g>
<!-- Node5&#45;&gt;Node7 -->
<g id="edge6" class="edge">
<title>Node5&#45;&gt;Node7</title>
<path fill="none" stroke="#63b8ff" d="M137.25,-252.94C139.51,-245.44 142.39,-235.93 145.11,-226.91"/>
<polygon fill="#63b8ff" stroke="#63b8ff" points="148.54,-227.66 148.09,-217.07 141.84,-225.63 148.54,-227.66"/>
</g>
<!-- Node7&#45;&gt;Node2 -->
<g id="edge7" class="edge">
<title>Node7&#45;&gt;Node2</title>
<path fill="none" stroke="#63b8ff" d="M126.52,-175.98C114.71,-166.35 101.67,-153.83 93,-140 82.28,-122.9 76.58,-100.33 73.69,-84.53"/>
<polygon fill="#63b8ff" stroke="#63b8ff" points="77.1,-83.71 72.05,-74.4 70.19,-84.83 77.1,-83.71"/>
</g>
<!-- Node8 -->
<g id="node8" class="node">
<title>Node8</title>
<g id="a_node8"><a xlink:href="meta_2type__traits_2concept_8hpp.html" target="_top" xlink:title="Provides the concepts bio::meta::transformation_trait and bio::meta::unary_type_trait.">
<polygon fill="white" stroke="#666666" points="205.5,-140 102.5,-140 102.5,-110 205.5,-110 205.5,-140"/>
<text text-anchor="start" x="110.5" y="-128" font-family="Helvetica,sans-Serif" font-size="10.00">bio/meta/type_traits</text>
<text text-anchor="middle" x="154" y="-117" font-family="Helvetica,sans-Serif" font-size="10.00">/concept.hpp</text>
</a>
</g>
</g>
<!-- Node7&#45;&gt;Node8 -->
<g id="edge8" class="edge">
<title>Node7&#45;&gt;Node8</title>
<path fill="none" stroke="#63b8ff" d="M154,-175.77C154,-167.85 154,-158.63 154,-150.3"/>
<polygon fill="#63b8ff" stroke="#63b8ff" points="157.5,-150.04 154,-140.04 150.5,-150.04 157.5,-150.04"/>
</g>
<!-- Node8&#45;&gt;Node2 -->
<g id="edge9" class="edge">
<title>Node8&#45;&gt;Node2</title>
<path fill="none" stroke="#63b8ff" d="M133.91,-109.84C121.12,-100.83 104.6,-89.18 91.7,-80.09"/>
<polygon fill="#63b8ff" stroke="#63b8ff" points="93.63,-77.17 83.44,-74.27 89.59,-82.89 93.63,-77.17"/>
</g>
<!-- Node9 -->
<g id="node9" class="node">
<title>Node9</title>
<g id="a_node9"><a xlink:href="core_8hpp.html" target="_top" xlink:title="Provides platform and dependency checks.">
<polygon fill="white" stroke="#666666" points="190,-74 120,-74 120,-55 190,-55 190,-74"/>
<text text-anchor="middle" x="155" y="-62" font-family="Helvetica,sans-Serif" font-size="10.00">bio/core.hpp</text>
</a>
</g>
</g>
<!-- Node8&#45;&gt;Node9 -->
<g id="edge10" class="edge">
<title>Node8&#45;&gt;Node9</title>
<path fill="none" stroke="#63b8ff" d="M154.24,-109.84C154.37,-102.21 154.53,-92.7 154.68,-84.45"/>
<polygon fill="#63b8ff" stroke="#63b8ff" points="158.18,-84.32 154.85,-74.27 151.18,-84.2 158.18,-84.32"/>
</g>
<!-- Node10 -->
<g id="node10" class="node">
<title>Node10</title>
<g id="a_node10"><a target="_blank" xlink:href="https://en.cppreference.com/w/cpp/header/cinttypes.html" xlink:title=" ">
<polygon fill="white" stroke="#666666" points="78,-19 22,-19 22,0 78,0 78,-19"/>
<text text-anchor="middle" x="50" y="-7" font-family="Helvetica,sans-Serif" font-size="10.00">cinttypes</text>
</a>
</g>
</g>
<!-- Node9&#45;&gt;Node10 -->
<g id="edge11" class="edge">
<title>Node9&#45;&gt;Node10</title>
<path fill="none" stroke="#63b8ff" d="M138.13,-54.98C121.39,-46.54 95.5,-33.47 76.11,-23.68"/>
<polygon fill="#63b8ff" stroke="#63b8ff" points="77.68,-20.55 67.18,-19.17 74.53,-26.8 77.68,-20.55"/>
</g>
<!-- Node11 -->
<g id="node11" class="node">
<title>Node11</title>
<g id="a_node11"><a target="_blank" xlink:href="https://en.cppreference.com/w/cpp/header/ciso646.html" xlink:title=" ">
<polygon fill="white" stroke="#666666" points="146,-19 96,-19 96,0 146,0 146,-19"/>
<text text-anchor="middle" x="121" y="-7" font-family="Helvetica,sans-Serif" font-size="10.00">ciso646</text>
</a>
</g>
</g>
<!-- Node9&#45;&gt;Node11 -->
<g id="edge12" class="edge">
<title>Node9&#45;&gt;Node11</title>
<path fill="none" stroke="#63b8ff" d="M149.39,-54.75C144.68,-47.42 137.83,-36.73 132.03,-27.7"/>
<polygon fill="#63b8ff" stroke="#63b8ff" points="134.86,-25.62 126.51,-19.09 128.96,-29.4 134.86,-25.62"/>
</g>
<!-- Node12 -->
<g id="node12" class="node">
<title>Node12</title>
<g id="a_node12"><a target="_blank" xlink:href="https://en.cppreference.com/w/cpp/header/cstddef.html" xlink:title=" ">
<polygon fill="white" stroke="#666666" points="213.5,-19 164.5,-19 164.5,0 213.5,0 213.5,-19"/>
<text text-anchor="middle" x="189" y="-7" font-family="Helvetica,sans-Serif" font-size="10.00">cstddef</text>
</a>
</g>
</g>
<!-- Node9&#45;&gt;Node12 -->
<g id="edge13" class="edge">
<title>Node9&#45;&gt;Node12</title>
<path fill="none" stroke="#63b8ff" d="M160.61,-54.75C165.32,-47.42 172.17,-36.73 177.97,-27.7"/>
<polygon fill="#63b8ff" stroke="#63b8ff" points="181.04,-29.4 183.49,-19.09 175.14,-25.62 181.04,-29.4"/>
</g>
<!-- Node13 -->
<g id="node13" class="node">
<title>Node13</title>
<g id="a_node13"><a target="_blank" xlink:href="https://en.cppreference.com/w/cpp/header/string_view.html" xlink:title=" ">
<polygon fill="white" stroke="#666666" points="298,-19 232,-19 232,0 298,0 298,-19"/>
<text text-anchor="middle" x="265" y="-7" font-family="Helvetica,sans-Serif" font-size="10.00">string_view</text>
</a>
</g>
</g>
<!-- Node9&#45;&gt;Node13 -->
<g id="edge14" class="edge">
<title>Node9&#45;&gt;Node13</title>
<path fill="none" stroke="#63b8ff" d="M172.67,-54.98C190.29,-46.5 217.58,-33.35 237.93,-23.54"/>
<polygon fill="#63b8ff" stroke="#63b8ff" points="239.52,-26.66 247.01,-19.17 236.48,-20.36 239.52,-26.66"/>
</g>
</g>
</svg>
