<?xml version="1.0" encoding="UTF-8" standalone="no"?>
<!DOCTYPE svg PUBLIC "-//W3C//DTD SVG 1.1//EN"
 "http://www.w3.org/Graphics/SVG/1.1/DTD/svg11.dtd">
<!-- Generated by graphviz version 2.42.2 ()
 -->
<!-- Title: bio/alphabet/aminoacid/translation.hpp Pages: 1 -->
<svg width="417pt" height="173pt"
 viewBox="0.00 0.00 416.50 173.00" xmlns="http://www.w3.org/2000/svg" xmlns:xlink="http://www.w3.org/1999/xlink">
<g id="graph0" class="graph" transform="scale(1 1) rotate(0) translate(4 169)">
<title>bio/alphabet/aminoacid/translation.hpp</title>
<polygon fill="white" stroke="transparent" points="-4,4 -4,-169 412.5,-169 412.5,4 -4,4"/>
<!-- Node1 -->
<g id="node1" class="node">
<title>Node1</title>
<g id="a_node1"><a xlink:title="Provides functions for translating a triplet of nucleotides into an amino acid.">
<polygon fill="#bfbfbf" stroke="black" points="75,-134.5 75,-164.5 191,-164.5 191,-134.5 75,-134.5"/>
<text text-anchor="start" x="83" y="-152.5" font-family="Helvetica,sans-Serif" font-size="10.00">bio/alphabet/aminoacid</text>
<text text-anchor="middle" x="133" y="-141.5" font-family="Helvetica,sans-Serif" font-size="10.00">/translation.hpp</text>
</a>
</g>
</g>
<!-- Node2 -->
<g id="node2" class="node">
<title>Node2</title>
<g id="a_node2"><a xlink:href="alphabet_2aminoacid_2all_8hpp.html" target="_top" xlink:title="Meta&#45;header for the aminoacid submodule; includes all headers from alphabet/aminoacid/.">
<polygon fill="white" stroke="black" points="0,-67.5 0,-97.5 116,-97.5 116,-67.5 0,-67.5"/>
<text text-anchor="start" x="8" y="-85.5" font-family="Helvetica,sans-Serif" font-size="10.00">bio/alphabet/aminoacid</text>
<text text-anchor="middle" x="58" y="-74.5" font-family="Helvetica,sans-Serif" font-size="10.00">/all.hpp</text>
</a>
</g>
</g>
<!-- Node1&#45;&gt;Node2 -->
<g id="edge1" class="edge">
<title>Node1&#45;&gt;Node2</title>
<path fill="none" stroke="midnightblue" d="M108.88,-127.6C97.56,-117.78 84.36,-106.34 74.24,-97.58"/>
<polygon fill="midnightblue" stroke="midnightblue" points="106.88,-130.49 116.73,-134.4 111.46,-125.2 106.88,-130.49"/>
</g>
<!-- Node4 -->
<g id="node4" class="node">
<title>Node4</title>
<g id="a_node4"><a xlink:href="translate_8hpp.html" target="_top" xlink:title="Provides bio::views::translate and bio::views::translate_single.">
<polygon fill="white" stroke="black" points="134.5,-73 134.5,-92 283.5,-92 283.5,-73 134.5,-73"/>
<text text-anchor="middle" x="209" y="-80" font-family="Helvetica,sans-Serif" font-size="10.00">bio/ranges/views/translate.hpp</text>
</a>
</g>
</g>
<!-- Node1&#45;&gt;Node4 -->
<g id="edge3" class="edge">
<title>Node1&#45;&gt;Node4</title>
<path fill="none" stroke="midnightblue" d="M157.35,-127.67C171.39,-115.67 188.28,-101.22 198.83,-92.19"/>
<polygon fill="midnightblue" stroke="midnightblue" points="154.82,-125.24 149.49,-134.4 159.37,-130.56 154.82,-125.24"/>
</g>
<!-- Node3 -->
<g id="node3" class="node">
<title>Node3</title>
<g id="a_node3"><a xlink:href="alphabet_2all_8hpp.html" target="_top" xlink:title="Meta&#45;header for the alphabet module.">
<polygon fill="white" stroke="black" points="7.5,-6 7.5,-25 108.5,-25 108.5,-6 7.5,-6"/>
<text text-anchor="middle" x="58" y="-13" font-family="Helvetica,sans-Serif" font-size="10.00">bio/alphabet/all.hpp</text>
</a>
</g>
</g>
<!-- Node2&#45;&gt;Node3 -->
<g id="edge2" class="edge">
<title>Node2&#45;&gt;Node3</title>
<path fill="none" stroke="midnightblue" d="M58,-57.25C58,-46.02 58,-33.38 58,-25.19"/>
<polygon fill="midnightblue" stroke="midnightblue" points="54.5,-57.4 58,-67.4 61.5,-57.4 54.5,-57.4"/>
</g>
<!-- Node5 -->
<g id="node5" class="node">
<title>Node5</title>
<g id="a_node5"><a xlink:href="ranges_2views_2all_8hpp.html" target="_top" xlink:title="Meta&#45;header for the views submodule .">
<polygon fill="white" stroke="black" points="137,-6 137,-25 259,-25 259,-6 137,-6"/>
<text text-anchor="middle" x="198" y="-13" font-family="Helvetica,sans-Serif" font-size="10.00">bio/ranges/views/all.hpp</text>
</a>
</g>
</g>
<!-- Node4&#45;&gt;Node5 -->
<g id="edge4" class="edge">
<title>Node4&#45;&gt;Node5</title>
<path fill="none" stroke="midnightblue" d="M205.79,-62.54C203.7,-50.17 201.07,-34.62 199.46,-25.13"/>
<polygon fill="midnightblue" stroke="midnightblue" points="202.4,-63.46 207.52,-72.73 209.3,-62.29 202.4,-63.46"/>
</g>
<!-- Node6 -->
<g id="node6" class="node">
<title>Node6</title>
<g id="a_node6"><a xlink:href="translate__join_8hpp.html" target="_top" xlink:title="Provides bio::views::translate_join.">
<polygon fill="white" stroke="black" points="277.5,-0.5 277.5,-30.5 408.5,-30.5 408.5,-0.5 277.5,-0.5"/>
<text text-anchor="start" x="285.5" y="-18.5" font-family="Helvetica,sans-Serif" font-size="10.00">bio/ranges/views/translate</text>
<text text-anchor="middle" x="343" y="-7.5" font-family="Helvetica,sans-Serif" font-size="10.00">_join.hpp</text>
</a>
</g>
</g>
<!-- Node4&#45;&gt;Node6 -->
<g id="edge5" class="edge">
<title>Node4&#45;&gt;Node6</title>
<path fill="none" stroke="midnightblue" d="M235.85,-68.47C258.51,-57.49 290.86,-41.79 314.08,-30.53"/>
<polygon fill="midnightblue" stroke="midnightblue" points="234.26,-65.35 226.79,-72.87 237.32,-71.65 234.26,-65.35"/>
</g>
</g>
</svg>
