<?xml version="1.0" encoding="UTF-8" standalone="no"?>
<!DOCTYPE svg PUBLIC "-//W3C//DTD SVG 1.1//EN"
 "http://www.w3.org/Graphics/SVG/1.1/DTD/svg11.dtd">
<!-- Generated by graphviz version 2.43.0 (0)
 -->
<!-- Title: bio/alphabet/aminoacid/translation.hpp Pages: 1 -->
<svg width="425pt" height="225pt"
 viewBox="0.00 0.00 425.00 225.00" xmlns="http://www.w3.org/2000/svg" xmlns:xlink="http://www.w3.org/1999/xlink">
<g id="graph0" class="graph" transform="scale(1 1) rotate(0) translate(4 221)">
<title>bio/alphabet/aminoacid/translation.hpp</title>
<!-- Node1 -->
<g id="node1" class="node">
<title>Node1</title>
<g id="a_node1"><a xlink:title="Provides functions for translating a triplet of nucleotides into an amino acid.">
<polygon fill="#999999" stroke="#666666" points="236.5,-217 120.5,-217 120.5,-187 236.5,-187 236.5,-217"/>
<text text-anchor="start" x="128.5" y="-205" font-family="Helvetica,sans-Serif" font-size="10.00">bio/alphabet/aminoacid</text>
<text text-anchor="middle" x="178.5" y="-194" font-family="Helvetica,sans-Serif" font-size="10.00">/translation.hpp</text>
</a>
</g>
</g>
<!-- Node2 -->
<g id="node2" class="node">
<title>Node2</title>
<g id="a_node2"><a xlink:href="alphabet_2aminoacid_2all_8hpp.html" target="_top" xlink:title="Meta&#45;header for the aminoacid submodule; includes all headers from alphabet/aminoacid/.">
<polygon fill="white" stroke="#666666" points="136.5,-151 20.5,-151 20.5,-121 136.5,-121 136.5,-151"/>
<text text-anchor="start" x="28.5" y="-139" font-family="Helvetica,sans-Serif" font-size="10.00">bio/alphabet/aminoacid</text>
<text text-anchor="middle" x="78.5" y="-128" font-family="Helvetica,sans-Serif" font-size="10.00">/all.hpp</text>
</a>
</g>
</g>
<!-- Node1&#45;&gt;Node2 -->
<g id="edge1" class="edge">
<title>Node1&#45;&gt;Node2</title>
<path fill="none" stroke="#63b8ff" d="M147.72,-181.3C132.5,-171.56 114.47,-160.02 100.63,-151.16"/>
<polygon fill="#63b8ff" stroke="#63b8ff" points="146,-184.35 156.31,-186.8 149.77,-178.46 146,-184.35"/>
</g>
<!-- Node4 -->
<g id="node4" class="node">
<title>Node4</title>
<g id="a_node4"><a xlink:href="translate_8hpp.html" target="_top" xlink:title="Provides bio::views::translate and bio::views::translate_single.">
<polygon fill="white" stroke="#666666" points="268,-79.5 119,-79.5 119,-60.5 268,-60.5 268,-79.5"/>
<text text-anchor="middle" x="193.5" y="-67.5" font-family="Helvetica,sans-Serif" font-size="10.00">bio/ranges/views/translate.hpp</text>
</a>
</g>
</g>
<!-- Node1&#45;&gt;Node4 -->
<g id="edge3" class="edge">
<title>Node1&#45;&gt;Node4</title>
<path fill="none" stroke="#63b8ff" d="M181.32,-176.57C184.71,-147.17 190.23,-99.31 192.49,-79.75"/>
<polygon fill="#63b8ff" stroke="#63b8ff" points="177.8,-176.5 180.13,-186.84 184.76,-177.31 177.8,-176.5"/>
</g>
<!-- Node6 -->
<g id="node6" class="node">
<title>Node6</title>
<g id="a_node6"><a xlink:href="translate__single_8hpp.html" target="_top" xlink:title="Provides bio::views::translate and bio::views::translate_single.">
<polygon fill="white" stroke="#666666" points="338,-151 207,-151 207,-121 338,-121 338,-151"/>
<text text-anchor="start" x="215" y="-139" font-family="Helvetica,sans-Serif" font-size="10.00">bio/ranges/views/translate</text>
<text text-anchor="middle" x="272.5" y="-128" font-family="Helvetica,sans-Serif" font-size="10.00">_single.hpp</text>
</a>
</g>
</g>
<!-- Node1&#45;&gt;Node6 -->
<g id="edge5" class="edge">
<title>Node1&#45;&gt;Node6</title>
<path fill="none" stroke="#63b8ff" d="M207.83,-181.03C222.06,-171.34 238.81,-159.94 251.7,-151.16"/>
<polygon fill="#63b8ff" stroke="#63b8ff" points="205.66,-178.28 199.36,-186.8 209.6,-184.06 205.66,-178.28"/>
</g>
<!-- Node3 -->
<g id="node3" class="node">
<title>Node3</title>
<g id="a_node3"><a xlink:href="alphabet_2all_8hpp.html" target="_top" xlink:title="Meta&#45;header for the alphabet module.">
<polygon fill="white" stroke="#666666" points="101,-79.5 0,-79.5 0,-60.5 101,-60.5 101,-79.5"/>
<text text-anchor="middle" x="50.5" y="-67.5" font-family="Helvetica,sans-Serif" font-size="10.00">bio/alphabet/all.hpp</text>
</a>
</g>
</g>
<!-- Node2&#45;&gt;Node3 -->
<g id="edge2" class="edge">
<title>Node2&#45;&gt;Node3</title>
<path fill="none" stroke="#63b8ff" d="M68.27,-111.61C63.43,-100.56 57.95,-88.03 54.37,-79.84"/>
<polygon fill="#63b8ff" stroke="#63b8ff" points="65.07,-113.04 72.29,-120.8 71.48,-110.23 65.07,-113.04"/>
</g>
<!-- Node5 -->
<g id="node5" class="node">
<title>Node5</title>
<g id="a_node5"><a xlink:href="ranges_2views_2all_8hpp.html" target="_top" xlink:title="Meta&#45;header for the views submodule .">
<polygon fill="white" stroke="#666666" points="254.5,-19 132.5,-19 132.5,0 254.5,0 254.5,-19"/>
<text text-anchor="middle" x="193.5" y="-7" font-family="Helvetica,sans-Serif" font-size="10.00">bio/ranges/views/all.hpp</text>
</a>
</g>
</g>
<!-- Node4&#45;&gt;Node5 -->
<g id="edge4" class="edge">
<title>Node4&#45;&gt;Node5</title>
<path fill="none" stroke="#63b8ff" d="M193.5,-50.16C193.5,-39.74 193.5,-27.3 193.5,-19.17"/>
<polygon fill="#63b8ff" stroke="#63b8ff" points="190,-50.37 193.5,-60.37 197,-50.37 190,-50.37"/>
</g>
<!-- Node6&#45;&gt;Node4 -->
<g id="edge6" class="edge">
<title>Node6&#45;&gt;Node4</title>
<path fill="none" stroke="#63b8ff" d="M246.9,-114.26C232.52,-102.61 215.33,-88.69 204.42,-79.84"/>
<polygon fill="#63b8ff" stroke="#63b8ff" points="244.99,-117.22 254.97,-120.8 249.4,-111.78 244.99,-117.22"/>
</g>
<!-- Node7 -->
<g id="node7" class="node">
<title>Node7</title>
<g id="a_node7"><a xlink:href="translate__join_8hpp.html" target="_top" xlink:title="Provides bio::views::translate_join.">
<polygon fill="white" stroke="#666666" points="417,-85 286,-85 286,-55 417,-55 417,-85"/>
<text text-anchor="start" x="294" y="-73" font-family="Helvetica,sans-Serif" font-size="10.00">bio/ranges/views/translate</text>
<text text-anchor="middle" x="351.5" y="-62" font-family="Helvetica,sans-Serif" font-size="10.00">_join.hpp</text>
</a>
</g>
</g>
<!-- Node6&#45;&gt;Node7 -->
<g id="edge7" class="edge">
<title>Node6&#45;&gt;Node7</title>
<path fill="none" stroke="#63b8ff" d="M297.83,-114.48C309.64,-104.91 323.39,-93.77 334.02,-85.16"/>
<polygon fill="#63b8ff" stroke="#63b8ff" points="295.6,-111.78 290.03,-120.8 300.01,-117.22 295.6,-111.78"/>
</g>
</g>
</svg>
