<?xml version="1.0" encoding="UTF-8" standalone="no"?>
<!DOCTYPE svg PUBLIC "-//W3C//DTD SVG 1.1//EN"
 "http://www.w3.org/Graphics/SVG/1.1/DTD/svg11.dtd">
<!-- Generated by graphviz version 2.43.0 (0)
 -->
<!-- Title: bio/alphabet/aminoacid/translation_details.hpp Pages: 1 -->
<!--zoomable 564 -->
<svg id="main" version="1.1" xmlns="http://www.w3.org/2000/svg" xmlns:xlink="http://www.w3.org/1999/xlink" xml:space="preserve" onload="init(evt)">
<style type="text/css"><![CDATA[
.edge:hover path { stroke: red; }
.edge:hover polygon { stroke: red; fill: red; }
]]></style>
<script type="text/javascript"><![CDATA[
var edges = document.getElementsByTagName('g');
if (edges && edges.length) {
  for (var i=0;i<edges.length;i++) {
    if (edges[i].id.substr(0,4)=='edge') {
      edges[i].setAttribute('class','edge');
    }
  }
}
]]></script>
        <defs>
                <circle id="rim" cx="0" cy="0" r="7"/>
                <circle id="rim2" cx="0" cy="0" r="3.5"/>
                <g id="zoomPlus">
                        <use xlink:href="#rim" fill="#404040">
                                <set attributeName="fill" to="#808080" begin="zoomplus.mouseover" end="zoomplus.mouseout"/>
                        </use>
                        <path d="M-4,0h8M0,-4v8" fill="none" stroke="white" stroke-width="1.5" pointer-events="none"/>
                </g>
                <g id="zoomMin">
                        <use xlink:href="#rim" fill="#404040">
                                <set attributeName="fill" to="#808080" begin="zoomminus.mouseover" end="zoomminus.mouseout"/>
                        </use>
                        <path d="M-4,0h8" fill="none" stroke="white" stroke-width="1.5" pointer-events="none"/>
                </g>
                <g id="dirArrow">
                        <path fill="none" stroke="white" stroke-width="1.5" d="M0,-3.0v7 M-2.5,-0.5L0,-3.0L2.5,-0.5"/>
                </g>
               <g id="resetDef">
                       <use xlink:href="#rim2" fill="#404040">
                               <set attributeName="fill" to="#808080" begin="reset.mouseover" end="reset.mouseout"/>
                       </use>
               </g>
        </defs>

<script type="text/javascript">
var viewWidth = 1313;
var viewHeight = 564;
var sectionId = 'dynsection-0';
</script>
<script xlink:href="svgpan.js"/>
<svg id="graph" class="graph">
<g id="viewport">
<title>bio/alphabet/aminoacid/translation_details.hpp</title>
<polygon fill="white" stroke="transparent" points="-4,4 -4,-560 1309.45,-560 1309.45,4 -4,4"/>
<!-- Node1 -->
<g id="node1" class="node">
<title>Node1</title>
<g id="a_node1"><a xlink:title="Provides translation details for nucleotide to aminoacid translation.">
<polygon fill="#bfbfbf" stroke="black" points="540.95,-525.5 540.95,-555.5 671.95,-555.5 671.95,-525.5 540.95,-525.5"/>
<text text-anchor="start" x="548.95" y="-543.5" font-family="Helvetica,sans-Serif" font-size="10.00">bio/alphabet/aminoacid</text>
<text text-anchor="middle" x="606.45" y="-532.5" font-family="Helvetica,sans-Serif" font-size="10.00">/translation_details.hpp</text>
</a>
</g>
</g>
<!-- Node2 -->
<g id="node2" class="node">
<title>Node2</title>
<g id="a_node2"><a xlink:href="aa27_8hpp.html" target="_top" xlink:title="Provides bio::alphabet::aa27, container aliases and string literals.">
<polygon fill="white" stroke="black" points="466.95,-458.5 466.95,-488.5 597.95,-488.5 597.95,-458.5 466.95,-458.5"/>
<text text-anchor="start" x="474.95" y="-476.5" font-family="Helvetica,sans-Serif" font-size="10.00">bio/alphabet/aminoacid</text>
<text text-anchor="middle" x="532.45" y="-465.5" font-family="Helvetica,sans-Serif" font-size="10.00">/aa27.hpp</text>
</a>
</g>
</g>
<!-- Node1&#45;&gt;Node2 -->
<g id="edge1" class="edge">
<title>Node1&#45;&gt;Node2</title>
<path fill="none" stroke="midnightblue" d="M590.39,-525.4C580.4,-516.62 567.38,-505.18 556.21,-495.37"/>
<polygon fill="midnightblue" stroke="midnightblue" points="558.29,-492.55 548.47,-488.58 553.67,-497.81 558.29,-492.55"/>
</g>
<!-- Node35 -->
<g id="node35" class="node">
<title>Node35</title>
<g id="a_node35"><a xlink:href="translation__genetic__code_8hpp.html" target="_top" xlink:title="Genetic codes used for translating a triplet of nucleotides into an amino acid.">
<polygon fill="white" stroke="black" points="945.95,-458.5 945.95,-488.5 1108.95,-488.5 1108.95,-458.5 945.95,-458.5"/>
<text text-anchor="start" x="953.95" y="-476.5" font-family="Helvetica,sans-Serif" font-size="10.00">bio/alphabet/aminoacid</text>
<text text-anchor="middle" x="1027.45" y="-465.5" font-family="Helvetica,sans-Serif" font-size="10.00">/translation_genetic_code.hpp</text>
</a>
</g>
</g>
<!-- Node1&#45;&gt;Node35 -->
<g id="edge58" class="edge">
<title>Node1&#45;&gt;Node35</title>
<path fill="none" stroke="midnightblue" d="M672.23,-529.34C743.08,-518.4 856.35,-500.92 935.88,-488.64"/>
<polygon fill="midnightblue" stroke="midnightblue" points="936.55,-492.08 945.9,-487.09 935.48,-485.16 936.55,-492.08"/>
</g>
<!-- Node36 -->
<g id="node36" class="node">
<title>Node36</title>
<g id="a_node36"><a xlink:href="alphabet_2nucleotide_2concept_8hpp.html" target="_top" xlink:title="Provides bio::alphabet::nucleotide_alphabet.">
<polygon fill="white" stroke="black" points="477.95,-324.5 477.95,-354.5 608.95,-354.5 608.95,-324.5 477.95,-324.5"/>
<text text-anchor="start" x="485.95" y="-342.5" font-family="Helvetica,sans-Serif" font-size="10.00">bio/alphabet/nucleotide</text>
<text text-anchor="middle" x="543.45" y="-331.5" font-family="Helvetica,sans-Serif" font-size="10.00">/concept.hpp</text>
</a>
</g>
</g>
<!-- Node1&#45;&gt;Node36 -->
<g id="edge60" class="edge">
<title>Node1&#45;&gt;Node36</title>
<path fill="none" stroke="midnightblue" d="M540.91,-526.57C487.32,-511.83 416.61,-481.61 392.45,-422 387.27,-409.23 384.4,-402.18 392.45,-391 402.04,-377.68 435.23,-365.85 468.07,-356.99"/>
<polygon fill="midnightblue" stroke="midnightblue" points="468.97,-360.37 477.76,-354.46 467.2,-353.6 468.97,-360.37"/>
</g>
<!-- Node37 -->
<g id="node37" class="node">
<title>Node37</title>
<g id="a_node37"><a xlink:href="dna15_8hpp.html" target="_top" xlink:title="Provides bio::alphabet::dna15, container aliases and string literals.">
<polygon fill="white" stroke="black" points="615.95,-458.5 615.95,-488.5 746.95,-488.5 746.95,-458.5 615.95,-458.5"/>
<text text-anchor="start" x="623.95" y="-476.5" font-family="Helvetica,sans-Serif" font-size="10.00">bio/alphabet/nucleotide</text>
<text text-anchor="middle" x="681.45" y="-465.5" font-family="Helvetica,sans-Serif" font-size="10.00">/dna15.hpp</text>
</a>
</g>
</g>
<!-- Node1&#45;&gt;Node37 -->
<g id="edge63" class="edge">
<title>Node1&#45;&gt;Node37</title>
<path fill="none" stroke="midnightblue" d="M622.72,-525.4C632.84,-516.62 646.04,-505.18 657.36,-495.37"/>
<polygon fill="midnightblue" stroke="midnightblue" points="659.94,-497.77 665.2,-488.58 655.35,-492.48 659.94,-497.77"/>
</g>
<!-- Node3 -->
<g id="node3" class="node">
<title>Node3</title>
<g id="a_node3"><a target="_blank" xlink:href="https://en.cppreference.com/w/cpp/header/vector.html" xlink:title=" ">
<polygon fill="white" stroke="black" points="550.95,-397 550.95,-416 597.95,-416 597.95,-397 550.95,-397"/>
<text text-anchor="middle" x="574.45" y="-404" font-family="Helvetica,sans-Serif" font-size="10.00">vector</text>
</a>
</g>
</g>
<!-- Node2&#45;&gt;Node3 -->
<g id="edge2" class="edge">
<title>Node2&#45;&gt;Node3</title>
<path fill="none" stroke="midnightblue" d="M541.56,-458.4C547.91,-448.56 556.43,-435.38 563.21,-424.89"/>
<polygon fill="midnightblue" stroke="midnightblue" points="566.34,-426.49 568.83,-416.19 560.46,-422.69 566.34,-426.49"/>
</g>
<!-- Node4 -->
<g id="node4" class="node">
<title>Node4</title>
<g id="a_node4"><a xlink:href="aminoacid__base_8hpp.html" target="_top" xlink:title="Provides bio::alphabet::aminoacid_base.">
<polygon fill="white" stroke="black" points="401.95,-391.5 401.95,-421.5 532.95,-421.5 532.95,-391.5 401.95,-391.5"/>
<text text-anchor="start" x="409.95" y="-409.5" font-family="Helvetica,sans-Serif" font-size="10.00">bio/alphabet/aminoacid</text>
<text text-anchor="middle" x="467.45" y="-398.5" font-family="Helvetica,sans-Serif" font-size="10.00">/aminoacid_base.hpp</text>
</a>
</g>
</g>
<!-- Node2&#45;&gt;Node4 -->
<g id="edge3" class="edge">
<title>Node2&#45;&gt;Node4</title>
<path fill="none" stroke="midnightblue" d="M518.34,-458.4C509.65,-449.71 498.35,-438.4 488.6,-428.66"/>
<polygon fill="midnightblue" stroke="midnightblue" points="491.07,-426.17 481.52,-421.58 486.12,-431.12 491.07,-426.17"/>
</g>
<!-- Node28 -->
<g id="node28" class="node">
<title>Node28</title>
<g id="a_node28"><a xlink:href="alphabet_2aminoacid_2concept_8hpp.html" target="_top" xlink:title="Provides bio::alphabet::aminoacid_alphabet.">
<polygon fill="white" stroke="black" points="187.95,-324.5 187.95,-354.5 318.95,-354.5 318.95,-324.5 187.95,-324.5"/>
<text text-anchor="start" x="195.95" y="-342.5" font-family="Helvetica,sans-Serif" font-size="10.00">bio/alphabet/aminoacid</text>
<text text-anchor="middle" x="253.45" y="-331.5" font-family="Helvetica,sans-Serif" font-size="10.00">/concept.hpp</text>
</a>
</g>
</g>
<!-- Node2&#45;&gt;Node28 -->
<g id="edge56" class="edge">
<title>Node2&#45;&gt;Node28</title>
<path fill="none" stroke="midnightblue" d="M486.83,-458.41C459.04,-449.25 423.1,-436.36 392.45,-422 353.36,-403.68 310.89,-377.84 283.32,-360.19"/>
<polygon fill="midnightblue" stroke="midnightblue" points="285.22,-357.25 274.92,-354.77 281.42,-363.14 285.22,-357.25"/>
</g>
<!-- Node34 -->
<g id="node34" class="node">
<title>Node34</title>
<g id="a_node34"><a xlink:href="alphabet_2detail_2to__lower_8hpp_source.html" target="_top" xlink:title=" ">
<polygon fill="white" stroke="black" points="753.45,-324.5 753.45,-354.5 861.45,-354.5 861.45,-324.5 753.45,-324.5"/>
<text text-anchor="start" x="761.45" y="-342.5" font-family="Helvetica,sans-Serif" font-size="10.00">bio/alphabet/detail</text>
<text text-anchor="middle" x="807.45" y="-331.5" font-family="Helvetica,sans-Serif" font-size="10.00">/to_lower.hpp</text>
</a>
</g>
</g>
<!-- Node2&#45;&gt;Node34 -->
<g id="edge57" class="edge">
<title>Node2&#45;&gt;Node34</title>
<path fill="none" stroke="midnightblue" d="M598.21,-458.96C661.91,-445.65 749.86,-426.67 756.45,-422 776.64,-407.68 790.56,-382.59 798.69,-364.02"/>
<polygon fill="midnightblue" stroke="midnightblue" points="801.94,-365.32 802.52,-354.74 795.47,-362.65 801.94,-365.32"/>
</g>
<!-- Node5 -->
<g id="node5" class="node">
<title>Node5</title>
<g id="a_node5"><a xlink:href="alphabet__base_8hpp.html" target="_top" xlink:title="Provides bio::alphabet::alphabet_base.">
<polygon fill="white" stroke="black" points="336.95,-324.5 336.95,-354.5 459.95,-354.5 459.95,-324.5 336.95,-324.5"/>
<text text-anchor="start" x="344.95" y="-342.5" font-family="Helvetica,sans-Serif" font-size="10.00">bio/alphabet/alphabet</text>
<text text-anchor="middle" x="398.45" y="-331.5" font-family="Helvetica,sans-Serif" font-size="10.00">_base.hpp</text>
</a>
</g>
</g>
<!-- Node4&#45;&gt;Node5 -->
<g id="edge4" class="edge">
<title>Node4&#45;&gt;Node5</title>
<path fill="none" stroke="midnightblue" d="M452.47,-391.4C443.25,-382.71 431.25,-371.4 420.91,-361.66"/>
<polygon fill="midnightblue" stroke="midnightblue" points="423.07,-358.89 413.39,-354.58 418.27,-363.98 423.07,-358.89"/>
</g>
<!-- Node4&#45;&gt;Node28 -->
<g id="edge41" class="edge">
<title>Node4&#45;&gt;Node28</title>
<path fill="none" stroke="midnightblue" d="M421.27,-391.48C388.62,-381.56 344.65,-368.2 309.9,-357.65"/>
<polygon fill="midnightblue" stroke="midnightblue" points="310.49,-354.17 299.9,-354.61 308.45,-360.87 310.49,-354.17"/>
</g>
<!-- Node32 -->
<g id="node32" class="node">
<title>Node32</title>
<g id="a_node32"><a xlink:href="alphabet_2detail_2convert_8hpp_source.html" target="_top" xlink:title=" ">
<polygon fill="white" stroke="black" points="627.45,-324.5 627.45,-354.5 735.45,-354.5 735.45,-324.5 627.45,-324.5"/>
<text text-anchor="start" x="635.45" y="-342.5" font-family="Helvetica,sans-Serif" font-size="10.00">bio/alphabet/detail</text>
<text text-anchor="middle" x="681.45" y="-331.5" font-family="Helvetica,sans-Serif" font-size="10.00">/convert.hpp</text>
</a>
</g>
</g>
<!-- Node4&#45;&gt;Node32 -->
<g id="edge51" class="edge">
<title>Node4&#45;&gt;Node32</title>
<path fill="none" stroke="midnightblue" d="M513.62,-391.48C546.27,-381.56 590.25,-368.2 624.99,-357.65"/>
<polygon fill="midnightblue" stroke="midnightblue" points="626.44,-360.87 634.99,-354.61 624.4,-354.17 626.44,-360.87"/>
</g>
<!-- Node4&#45;&gt;Node34 -->
<g id="edge54" class="edge">
<title>Node4&#45;&gt;Node34</title>
<path fill="none" stroke="midnightblue" d="M533.2,-392.55C535.99,-392.02 538.74,-391.5 541.45,-391 628.44,-374.76 653,-373.36 743.34,-355.17"/>
<polygon fill="midnightblue" stroke="midnightblue" points="744.08,-358.59 753.19,-353.17 742.69,-351.73 744.08,-358.59"/>
</g>
<!-- Node6 -->
<g id="node6" class="node">
<title>Node6</title>
<g id="a_node6"><a target="_blank" xlink:href="https://en.cppreference.com/w/cpp/header/cassert.html" xlink:title=" ">
<polygon fill="white" stroke="black" points="345.45,-263 345.45,-282 397.45,-282 397.45,-263 345.45,-263"/>
<text text-anchor="middle" x="371.45" y="-270" font-family="Helvetica,sans-Serif" font-size="10.00">cassert</text>
</a>
</g>
</g>
<!-- Node5&#45;&gt;Node6 -->
<g id="edge5" class="edge">
<title>Node5&#45;&gt;Node6</title>
<path fill="none" stroke="midnightblue" d="M392.59,-324.4C388.59,-314.76 383.25,-301.91 378.94,-291.54"/>
<polygon fill="midnightblue" stroke="midnightblue" points="382.13,-290.09 375.06,-282.19 375.66,-292.77 382.13,-290.09"/>
</g>
<!-- Node7 -->
<g id="node7" class="node">
<title>Node7</title>
<g id="a_node7"><a target="_blank" xlink:href="https://en.cppreference.com/w/cpp/header/concepts.html" xlink:title=" ">
<polygon fill="white" stroke="black" points="387.45,-118 387.45,-137 447.45,-137 447.45,-118 387.45,-118"/>
<text text-anchor="middle" x="417.45" y="-125" font-family="Helvetica,sans-Serif" font-size="10.00">concepts</text>
</a>
</g>
</g>
<!-- Node5&#45;&gt;Node7 -->
<g id="edge6" class="edge">
<title>Node5&#45;&gt;Node7</title>
<path fill="none" stroke="midnightblue" d="M401.02,-324.4C402.78,-314.29 405.04,-300.35 406.45,-288 412.19,-237.36 415.35,-177.3 416.68,-147.39"/>
<polygon fill="midnightblue" stroke="midnightblue" points="420.19,-147.31 417.12,-137.17 413.2,-147.01 420.19,-147.31"/>
</g>
<!-- Node8 -->
<g id="node8" class="node">
<title>Node8</title>
<g id="a_node8"><a target="_blank" xlink:href="https://en.cppreference.com/w/cpp/header/type_traits.html" xlink:title=" ">
<polygon fill="white" stroke="black" points="133.95,-56.5 133.95,-75.5 202.95,-75.5 202.95,-56.5 133.95,-56.5"/>
<text text-anchor="middle" x="168.45" y="-63.5" font-family="Helvetica,sans-Serif" font-size="10.00">type_traits</text>
</a>
</g>
</g>
<!-- Node5&#45;&gt;Node8 -->
<g id="edge7" class="edge">
<title>Node5&#45;&gt;Node8</title>
<path fill="none" stroke="midnightblue" d="M336.88,-325.88C333.69,-325.24 330.53,-324.61 327.45,-324 205.93,-299.9 117.9,-334.58 68.45,-221 48.13,-174.35 69.77,-150.14 103.45,-112 114.56,-99.42 129.89,-88.58 142.87,-80.7"/>
<polygon fill="midnightblue" stroke="midnightblue" points="144.93,-83.56 151.82,-75.5 141.41,-77.5 144.93,-83.56"/>
</g>
<!-- Node9 -->
<g id="node9" class="node">
<title>Node9</title>
<g id="a_node9"><a xlink:href="alphabet_2concept_8hpp.html" target="_top" xlink:title="Core alphabet concept and free function/type trait wrappers.">
<polygon fill="white" stroke="black" points="552.45,-263 552.45,-282 692.45,-282 692.45,-263 552.45,-263"/>
<text text-anchor="middle" x="622.45" y="-270" font-family="Helvetica,sans-Serif" font-size="10.00">bio/alphabet/concept.hpp</text>
</a>
</g>
</g>
<!-- Node5&#45;&gt;Node9 -->
<g id="edge8" class="edge">
<title>Node5&#45;&gt;Node9</title>
<path fill="none" stroke="midnightblue" d="M446.77,-324.48C487.62,-312.62 545.4,-295.86 583.37,-284.84"/>
<polygon fill="midnightblue" stroke="midnightblue" points="584.43,-288.18 593.05,-282.03 582.48,-281.45 584.43,-288.18"/>
</g>
<!-- Node26 -->
<g id="node26" class="node">
<title>Node26</title>
<g id="a_node26"><a xlink:href="int__types_8hpp.html" target="_top" xlink:title="Provides metaprogramming utilities for integer types.">
<polygon fill="white" stroke="black" points="251.95,-185 251.95,-215 358.95,-215 358.95,-185 251.95,-185"/>
<text text-anchor="start" x="259.95" y="-203" font-family="Helvetica,sans-Serif" font-size="10.00">bio/meta/detail/int</text>
<text text-anchor="middle" x="305.45" y="-192" font-family="Helvetica,sans-Serif" font-size="10.00">_types.hpp</text>
</a>
</g>
</g>
<!-- Node5&#45;&gt;Node26 -->
<g id="edge36" class="edge">
<title>Node5&#45;&gt;Node26</title>
<path fill="none" stroke="midnightblue" d="M375.44,-324.35C362.44,-315.34 346.78,-302.63 336.45,-288 322.99,-268.95 314.82,-243.46 310.27,-225"/>
<polygon fill="midnightblue" stroke="midnightblue" points="313.64,-224.01 308,-215.05 306.81,-225.57 313.64,-224.01"/>
</g>
<!-- Node9&#45;&gt;Node8 -->
<g id="edge9" class="edge">
<title>Node9&#45;&gt;Node8</title>
<path fill="none" stroke="midnightblue" d="M552.32,-267.94C457.66,-262.16 294.81,-248.51 242.45,-221 220.16,-209.29 223.89,-194.98 204.45,-179 180.42,-159.26 159.77,-170.06 144.45,-143 133.85,-124.28 144.98,-100.26 155.35,-84.29"/>
<polygon fill="midnightblue" stroke="midnightblue" points="158.34,-86.12 161.2,-75.92 152.6,-82.11 158.34,-86.12"/>
</g>
<!-- Node10 -->
<g id="node10" class="node">
<title>Node10</title>
<g id="a_node10"><a xlink:href="alphabet_2biocpp_8hpp.html" target="_top" xlink:title="Module header with module&#45;wide definitions.">
<polygon fill="white" stroke="black" points="1171.45,-118 1171.45,-137 1305.45,-137 1305.45,-118 1171.45,-118"/>
<text text-anchor="middle" x="1238.45" y="-125" font-family="Helvetica,sans-Serif" font-size="10.00">bio/alphabet/biocpp.hpp</text>
</a>
</g>
</g>
<!-- Node9&#45;&gt;Node10 -->
<g id="edge10" class="edge">
<title>Node9&#45;&gt;Node10</title>
<path fill="none" stroke="midnightblue" d="M664.55,-262.98C676.44,-260.79 689.42,-258.6 701.45,-257 796.49,-244.33 1043.06,-258.18 1131.45,-221 1136.78,-218.76 1192.21,-169.72 1221.12,-143.97"/>
<polygon fill="midnightblue" stroke="midnightblue" points="1223.7,-146.37 1228.83,-137.1 1219.04,-141.14 1223.7,-146.37"/>
</g>
<!-- Node15 -->
<g id="node15" class="node">
<title>Node15</title>
<g id="a_node15"><a xlink:href="exception_8hpp.html" target="_top" xlink:title="Exceptions thrown by entities in the alphabet module.">
<polygon fill="white" stroke="black" points="972.95,-190.5 972.95,-209.5 1121.95,-209.5 1121.95,-190.5 972.95,-190.5"/>
<text text-anchor="middle" x="1047.45" y="-197.5" font-family="Helvetica,sans-Serif" font-size="10.00">bio/alphabet/exception.hpp</text>
</a>
</g>
</g>
<!-- Node9&#45;&gt;Node15 -->
<g id="edge15" class="edge">
<title>Node9&#45;&gt;Node15</title>
<path fill="none" stroke="midnightblue" d="M667.09,-262.98C678.29,-260.93 690.3,-258.81 701.45,-257 813.99,-238.7 843.22,-241.12 955.45,-221 970.35,-218.33 986.51,-214.97 1001.07,-211.78"/>
<polygon fill="midnightblue" stroke="midnightblue" points="1001.86,-215.19 1010.86,-209.6 1000.34,-208.35 1001.86,-215.19"/>
</g>
<!-- Node18 -->
<g id="node18" class="node">
<title>Node18</title>
<g id="a_node18"><a xlink:href="core__language_8hpp.html" target="_top" xlink:title="Provides concepts for core language types and relations that don&#39;t have concepts in C++20 (yet).">
<polygon fill="white" stroke="black" points="491.95,-185 491.95,-215 616.95,-215 616.95,-185 491.95,-185"/>
<text text-anchor="start" x="499.95" y="-203" font-family="Helvetica,sans-Serif" font-size="10.00">bio/meta/concept/core</text>
<text text-anchor="middle" x="554.45" y="-192" font-family="Helvetica,sans-Serif" font-size="10.00">_language.hpp</text>
</a>
</g>
</g>
<!-- Node9&#45;&gt;Node18 -->
<g id="edge20" class="edge">
<title>Node9&#45;&gt;Node18</title>
<path fill="none" stroke="midnightblue" d="M614.11,-262.86C604.5,-252.9 588.36,-236.17 575.29,-222.61"/>
<polygon fill="midnightblue" stroke="midnightblue" points="577.48,-219.84 568.02,-215.08 572.45,-224.7 577.48,-219.84"/>
</g>
<!-- Node19 -->
<g id="node19" class="node">
<title>Node19</title>
<g id="a_node19"><a xlink:href="priority__tag_8hpp.html" target="_top" xlink:title="provides bio::meta::detail::priority_tag.">
<polygon fill="white" stroke="black" points="673.95,-185 673.95,-215 802.95,-215 802.95,-185 673.95,-185"/>
<text text-anchor="start" x="681.95" y="-203" font-family="Helvetica,sans-Serif" font-size="10.00">bio/meta/detail/priority</text>
<text text-anchor="middle" x="738.45" y="-192" font-family="Helvetica,sans-Serif" font-size="10.00">_tag.hpp</text>
</a>
</g>
</g>
<!-- Node9&#45;&gt;Node19 -->
<g id="edge24" class="edge">
<title>Node9&#45;&gt;Node19</title>
<path fill="none" stroke="midnightblue" d="M636.67,-262.86C653.97,-252.34 683.71,-234.27 706.58,-220.36"/>
<polygon fill="midnightblue" stroke="midnightblue" points="708.56,-223.26 715.29,-215.08 704.92,-217.28 708.56,-223.26"/>
</g>
<!-- Node20 -->
<g id="node20" class="node">
<title>Node20</title>
<g id="a_node20"><a xlink:href="type__inspection_8hpp.html" target="_top" xlink:title="Provides traits to inspect some information of a type, for example its name.">
<polygon fill="white" stroke="black" points="830.45,-185 830.45,-215 946.45,-215 946.45,-185 830.45,-185"/>
<text text-anchor="start" x="838.45" y="-203" font-family="Helvetica,sans-Serif" font-size="10.00">bio/meta/detail/type</text>
<text text-anchor="middle" x="888.45" y="-192" font-family="Helvetica,sans-Serif" font-size="10.00">_inspection.hpp</text>
</a>
</g>
</g>
<!-- Node9&#45;&gt;Node20 -->
<g id="edge26" class="edge">
<title>Node9&#45;&gt;Node20</title>
<path fill="none" stroke="midnightblue" d="M654.53,-263C696.81,-251.79 772.09,-231.84 825.83,-217.6"/>
<polygon fill="midnightblue" stroke="midnightblue" points="826.83,-220.95 835.6,-215.01 825.04,-214.18 826.83,-220.95"/>
</g>
<!-- Node24 -->
<g id="node24" class="node">
<title>Node24</title>
<g id="a_node24"><a xlink:href="basic_8hpp.html" target="_top" xlink:title="Provides various type traits on generic types.">
<polygon fill="white" stroke="black" points="503.45,-112.5 503.45,-142.5 619.45,-142.5 619.45,-112.5 503.45,-112.5"/>
<text text-anchor="start" x="511.45" y="-130.5" font-family="Helvetica,sans-Serif" font-size="10.00">bio/meta/type_traits</text>
<text text-anchor="middle" x="561.45" y="-119.5" font-family="Helvetica,sans-Serif" font-size="10.00">/basic.hpp</text>
</a>
</g>
</g>
<!-- Node9&#45;&gt;Node24 -->
<g id="edge32" class="edge">
<title>Node9&#45;&gt;Node24</title>
<path fill="none" stroke="midnightblue" d="M625.28,-262.79C630.31,-245.71 639.04,-207.05 625.45,-179 619.39,-166.52 608.6,-156.19 597.57,-148.2"/>
<polygon fill="midnightblue" stroke="midnightblue" points="599.42,-145.22 589.17,-142.54 595.51,-151.03 599.42,-145.22"/>
</g>
<!-- Node11 -->
<g id="node11" class="node">
<title>Node11</title>
<g id="a_node11"><a xlink:href="platform_8hpp.html" target="_top" xlink:title="Provides platform and dependency checks.">
<polygon fill="white" stroke="black" points="622.45,-56.5 622.45,-75.5 748.45,-75.5 748.45,-56.5 622.45,-56.5"/>
<text text-anchor="middle" x="685.45" y="-63.5" font-family="Helvetica,sans-Serif" font-size="10.00">bio/meta/platform.hpp</text>
</a>
</g>
</g>
<!-- Node10&#45;&gt;Node11 -->
<g id="edge11" class="edge">
<title>Node10&#45;&gt;Node11</title>
<path fill="none" stroke="midnightblue" d="M1197.54,-117.96C1186.21,-115.8 1173.88,-113.63 1162.45,-112 1020.16,-91.76 852.67,-78.34 758.8,-71.76"/>
<polygon fill="midnightblue" stroke="midnightblue" points="758.78,-68.25 748.56,-71.05 758.29,-75.23 758.78,-68.25"/>
</g>
<!-- Node12 -->
<g id="node12" class="node">
<title>Node12</title>
<g id="a_node12"><a target="_blank" xlink:href="https://en.cppreference.com/w/cpp/header/cinttypes.html" xlink:title=" ">
<polygon fill="white" stroke="black" points="578.45,-0.5 578.45,-19.5 640.45,-19.5 640.45,-0.5 578.45,-0.5"/>
<text text-anchor="middle" x="609.45" y="-7.5" font-family="Helvetica,sans-Serif" font-size="10.00">cinttypes</text>
</a>
</g>
</g>
<!-- Node11&#45;&gt;Node12 -->
<g id="edge12" class="edge">
<title>Node11&#45;&gt;Node12</title>
<path fill="none" stroke="midnightblue" d="M673.24,-56.32C661.67,-48.11 644.07,-35.6 630.29,-25.81"/>
<polygon fill="midnightblue" stroke="midnightblue" points="632.06,-22.77 621.88,-19.83 628,-28.48 632.06,-22.77"/>
</g>
<!-- Node13 -->
<g id="node13" class="node">
<title>Node13</title>
<g id="a_node13"><a target="_blank" xlink:href="https://en.cppreference.com/w/cpp/header/ciso646.html" xlink:title=" ">
<polygon fill="white" stroke="black" points="658.45,-0.5 658.45,-19.5 712.45,-19.5 712.45,-0.5 658.45,-0.5"/>
<text text-anchor="middle" x="685.45" y="-7.5" font-family="Helvetica,sans-Serif" font-size="10.00">ciso646</text>
</a>
</g>
</g>
<!-- Node11&#45;&gt;Node13 -->
<g id="edge13" class="edge">
<title>Node11&#45;&gt;Node13</title>
<path fill="none" stroke="midnightblue" d="M685.45,-56.08C685.45,-49.01 685.45,-38.86 685.45,-29.99"/>
<polygon fill="midnightblue" stroke="midnightblue" points="688.95,-29.75 685.45,-19.75 681.95,-29.75 688.95,-29.75"/>
</g>
<!-- Node14 -->
<g id="node14" class="node">
<title>Node14</title>
<g id="a_node14"><a target="_blank" xlink:href="https://en.cppreference.com/w/cpp/header/cstddef.html" xlink:title=" ">
<polygon fill="white" stroke="black" points="730.95,-0.5 730.95,-19.5 783.95,-19.5 783.95,-0.5 730.95,-0.5"/>
<text text-anchor="middle" x="757.45" y="-7.5" font-family="Helvetica,sans-Serif" font-size="10.00">cstddef</text>
</a>
</g>
</g>
<!-- Node11&#45;&gt;Node14 -->
<g id="edge14" class="edge">
<title>Node11&#45;&gt;Node14</title>
<path fill="none" stroke="midnightblue" d="M697.01,-56.32C707.87,-48.18 724.33,-35.84 737.33,-26.09"/>
<polygon fill="midnightblue" stroke="midnightblue" points="739.77,-28.63 745.67,-19.83 735.57,-23.03 739.77,-28.63"/>
</g>
<!-- Node15&#45;&gt;Node7 -->
<g id="edge16" class="edge">
<title>Node15&#45;&gt;Node7</title>
<path fill="none" stroke="midnightblue" d="M1013.57,-190.48C996.28,-186.43 974.85,-181.85 955.45,-179 752.12,-149.1 698.17,-170.06 494.45,-143 482.45,-141.41 469.5,-139.17 457.7,-136.93"/>
<polygon fill="midnightblue" stroke="midnightblue" points="458.16,-133.46 447.68,-134.98 456.82,-140.33 458.16,-133.46"/>
</g>
<!-- Node15&#45;&gt;Node10 -->
<g id="edge19" class="edge">
<title>Node15&#45;&gt;Node10</title>
<path fill="none" stroke="midnightblue" d="M1070.48,-190.5C1104.18,-178.06 1167.09,-154.84 1205.62,-140.62"/>
<polygon fill="midnightblue" stroke="midnightblue" points="1207.16,-143.78 1215.33,-137.03 1204.73,-137.21 1207.16,-143.78"/>
</g>
<!-- Node16 -->
<g id="node16" class="node">
<title>Node16</title>
<g id="a_node16"><a target="_blank" xlink:href="https://en.cppreference.com/w/cpp/header/stdexcept.html" xlink:title=" ">
<polygon fill="white" stroke="black" points="1087.95,-118 1087.95,-137 1152.95,-137 1152.95,-118 1087.95,-118"/>
<text text-anchor="middle" x="1120.45" y="-125" font-family="Helvetica,sans-Serif" font-size="10.00">stdexcept</text>
</a>
</g>
</g>
<!-- Node15&#45;&gt;Node16 -->
<g id="edge17" class="edge">
<title>Node15&#45;&gt;Node16</title>
<path fill="none" stroke="midnightblue" d="M1056.4,-190.36C1068.22,-178.94 1089.26,-158.62 1103.99,-144.4"/>
<polygon fill="midnightblue" stroke="midnightblue" points="1106.66,-146.68 1111.42,-137.22 1101.8,-141.64 1106.66,-146.68"/>
</g>
<!-- Node17 -->
<g id="node17" class="node">
<title>Node17</title>
<g id="a_node17"><a target="_blank" xlink:href="https://en.cppreference.com/w/cpp/header/string.html" xlink:title=" ">
<polygon fill="white" stroke="black" points="1025.45,-118 1025.45,-137 1069.45,-137 1069.45,-118 1025.45,-118"/>
<text text-anchor="middle" x="1047.45" y="-125" font-family="Helvetica,sans-Serif" font-size="10.00">string</text>
</a>
</g>
</g>
<!-- Node15&#45;&gt;Node17 -->
<g id="edge18" class="edge">
<title>Node15&#45;&gt;Node17</title>
<path fill="none" stroke="midnightblue" d="M1047.45,-190.36C1047.45,-179.68 1047.45,-161.22 1047.45,-147.23"/>
<polygon fill="midnightblue" stroke="midnightblue" points="1050.95,-147.22 1047.45,-137.22 1043.95,-147.22 1050.95,-147.22"/>
</g>
<!-- Node18&#45;&gt;Node7 -->
<g id="edge23" class="edge">
<title>Node18&#45;&gt;Node7</title>
<path fill="none" stroke="midnightblue" d="M527.05,-184.9C502.62,-172.33 467.12,-154.06 443.2,-141.75"/>
<polygon fill="midnightblue" stroke="midnightblue" points="444.52,-138.5 434.03,-137.03 441.32,-144.72 444.52,-138.5"/>
</g>
<!-- Node18&#45;&gt;Node8 -->
<g id="edge21" class="edge">
<title>Node18&#45;&gt;Node8</title>
<path fill="none" stroke="midnightblue" d="M539.42,-184.81C514.44,-161.34 466.12,-116.56 456.45,-112 376.56,-74.34 271.75,-67.11 213.12,-66.33"/>
<polygon fill="midnightblue" stroke="midnightblue" points="213.1,-62.83 203.07,-66.25 213.05,-69.83 213.1,-62.83"/>
</g>
<!-- Node18&#45;&gt;Node11 -->
<g id="edge22" class="edge">
<title>Node18&#45;&gt;Node11</title>
<path fill="none" stroke="midnightblue" d="M598.74,-184.93C620.36,-176.02 645.16,-162.45 661.45,-143 675.16,-126.62 681.06,-102.36 683.59,-85.68"/>
<polygon fill="midnightblue" stroke="midnightblue" points="687.09,-85.89 684.85,-75.53 680.14,-85.02 687.09,-85.89"/>
</g>
<!-- Node19&#45;&gt;Node11 -->
<g id="edge25" class="edge">
<title>Node19&#45;&gt;Node11</title>
<path fill="none" stroke="midnightblue" d="M732.77,-184.87C723.1,-160.79 703.44,-111.81 692.75,-85.2"/>
<polygon fill="midnightblue" stroke="midnightblue" points="695.87,-83.57 688.9,-75.6 689.38,-86.18 695.87,-83.57"/>
</g>
<!-- Node20&#45;&gt;Node11 -->
<g id="edge31" class="edge">
<title>Node20&#45;&gt;Node11</title>
<path fill="none" stroke="midnightblue" d="M858.08,-185C836.18,-174.45 806.24,-159.1 781.45,-143 752.38,-124.13 721.4,-98.47 702.73,-82.32"/>
<polygon fill="midnightblue" stroke="midnightblue" points="704.91,-79.57 695.07,-75.63 700.3,-84.85 704.91,-79.57"/>
</g>
<!-- Node20&#45;&gt;Node17 -->
<g id="edge29" class="edge">
<title>Node20&#45;&gt;Node17</title>
<path fill="none" stroke="midnightblue" d="M921.16,-184.95C947.09,-173.76 984.18,-157.6 1016.45,-143 1017.63,-142.46 1018.85,-141.91 1020.07,-141.35"/>
<polygon fill="midnightblue" stroke="midnightblue" points="1021.84,-144.39 1029.45,-137.01 1018.9,-138.03 1021.84,-144.39"/>
</g>
<!-- Node21 -->
<g id="node21" class="node">
<title>Node21</title>
<g id="a_node21"><a target="_blank" xlink:href="https://en.cppreference.com/w/cpp/header/functional.html" xlink:title=" ">
<polygon fill="white" stroke="black" points="789.95,-118 789.95,-137 854.95,-137 854.95,-118 789.95,-118"/>
<text text-anchor="middle" x="822.45" y="-125" font-family="Helvetica,sans-Serif" font-size="10.00">functional</text>
</a>
</g>
</g>
<!-- Node20&#45;&gt;Node21 -->
<g id="edge27" class="edge">
<title>Node20&#45;&gt;Node21</title>
<path fill="none" stroke="midnightblue" d="M875.09,-184.73C864.32,-173.23 849.15,-157.03 837.87,-144.97"/>
<polygon fill="midnightblue" stroke="midnightblue" points="840.16,-142.3 830.77,-137.39 835.05,-147.09 840.16,-142.3"/>
</g>
<!-- Node22 -->
<g id="node22" class="node">
<title>Node22</title>
<g id="a_node22"><a target="_blank" xlink:href="https://en.cppreference.com/w/cpp/header/memory.html" xlink:title=" ">
<polygon fill="white" stroke="black" points="873.45,-118 873.45,-137 931.45,-137 931.45,-118 873.45,-118"/>
<text text-anchor="middle" x="902.45" y="-125" font-family="Helvetica,sans-Serif" font-size="10.00">memory</text>
</a>
</g>
</g>
<!-- Node20&#45;&gt;Node22 -->
<g id="edge28" class="edge">
<title>Node20&#45;&gt;Node22</title>
<path fill="none" stroke="midnightblue" d="M891.28,-184.73C893.41,-174 896.35,-159.19 898.68,-147.46"/>
<polygon fill="midnightblue" stroke="midnightblue" points="902.17,-147.88 900.68,-137.39 895.3,-146.52 902.17,-147.88"/>
</g>
<!-- Node23 -->
<g id="node23" class="node">
<title>Node23</title>
<g id="a_node23"><a target="_blank" xlink:href="https://en.cppreference.com/w/cpp/header/typeinfo.html" xlink:title=" ">
<polygon fill="white" stroke="black" points="949.95,-118 949.95,-137 1006.95,-137 1006.95,-118 949.95,-118"/>
<text text-anchor="middle" x="978.45" y="-125" font-family="Helvetica,sans-Serif" font-size="10.00">typeinfo</text>
</a>
</g>
</g>
<!-- Node20&#45;&gt;Node23 -->
<g id="edge30" class="edge">
<title>Node20&#45;&gt;Node23</title>
<path fill="none" stroke="midnightblue" d="M906.66,-184.73C922,-172.72 943.87,-155.58 959.44,-143.39"/>
<polygon fill="midnightblue" stroke="midnightblue" points="961.64,-146.11 967.35,-137.19 957.32,-140.6 961.64,-146.11"/>
</g>
<!-- Node24&#45;&gt;Node8 -->
<g id="edge34" class="edge">
<title>Node24&#45;&gt;Node8</title>
<path fill="none" stroke="midnightblue" d="M503.34,-114.49C498.65,-113.61 493.97,-112.77 489.45,-112 391.39,-95.27 275.69,-80.19 213.47,-72.45"/>
<polygon fill="midnightblue" stroke="midnightblue" points="213.58,-68.94 203.23,-71.19 212.72,-75.89 213.58,-68.94"/>
</g>
<!-- Node24&#45;&gt;Node11 -->
<g id="edge35" class="edge">
<title>Node24&#45;&gt;Node11</title>
<path fill="none" stroke="midnightblue" d="M590.83,-112.4C611.27,-102.59 638.31,-89.62 658.25,-80.05"/>
<polygon fill="midnightblue" stroke="midnightblue" points="659.9,-83.14 667.4,-75.66 656.87,-76.83 659.9,-83.14"/>
</g>
<!-- Node25 -->
<g id="node25" class="node">
<title>Node25</title>
<g id="a_node25"><a target="_blank" xlink:href="https://en.cppreference.com/w/cpp/header/tuple.html" xlink:title=" ">
<polygon fill="white" stroke="black" points="540.95,-56.5 540.95,-75.5 581.95,-75.5 581.95,-56.5 540.95,-56.5"/>
<text text-anchor="middle" x="561.45" y="-63.5" font-family="Helvetica,sans-Serif" font-size="10.00">tuple</text>
</a>
</g>
</g>
<!-- Node24&#45;&gt;Node25 -->
<g id="edge33" class="edge">
<title>Node24&#45;&gt;Node25</title>
<path fill="none" stroke="midnightblue" d="M561.45,-112.4C561.45,-104.47 561.45,-94.46 561.45,-85.86"/>
<polygon fill="midnightblue" stroke="midnightblue" points="564.95,-85.66 561.45,-75.66 557.95,-85.66 564.95,-85.66"/>
</g>
<!-- Node26&#45;&gt;Node7 -->
<g id="edge37" class="edge">
<title>Node26&#45;&gt;Node7</title>
<path fill="none" stroke="midnightblue" d="M327.84,-184.9C347.46,-172.55 375.81,-154.71 395.34,-142.41"/>
<polygon fill="midnightblue" stroke="midnightblue" points="397.29,-145.32 403.89,-137.03 393.56,-139.4 397.29,-145.32"/>
</g>
<!-- Node26&#45;&gt;Node8 -->
<g id="edge39" class="edge">
<title>Node26&#45;&gt;Node8</title>
<path fill="none" stroke="midnightblue" d="M304.69,-184.83C302.96,-165.95 297.25,-132.52 278.45,-112 261.33,-93.31 235.31,-82.2 212.88,-75.69"/>
<polygon fill="midnightblue" stroke="midnightblue" points="213.76,-72.31 203.2,-73.1 211.95,-79.07 213.76,-72.31"/>
</g>
<!-- Node26&#45;&gt;Node11 -->
<g id="edge40" class="edge">
<title>Node26&#45;&gt;Node11</title>
<path fill="none" stroke="midnightblue" d="M359.28,-191.88C445.16,-180.18 605.85,-156.84 628.45,-143 651.02,-129.18 667.69,-102.81 676.99,-85.07"/>
<polygon fill="midnightblue" stroke="midnightblue" points="680.29,-86.29 681.6,-75.77 674.02,-83.18 680.29,-86.29"/>
</g>
<!-- Node27 -->
<g id="node27" class="node">
<title>Node27</title>
<g id="a_node27"><a target="_blank" xlink:href="https://en.cppreference.com/w/cpp/header/limits.html" xlink:title=" ">
<polygon fill="white" stroke="black" points="325.45,-118 325.45,-137 369.45,-137 369.45,-118 325.45,-118"/>
<text text-anchor="middle" x="347.45" y="-125" font-family="Helvetica,sans-Serif" font-size="10.00">limits</text>
</a>
</g>
</g>
<!-- Node26&#45;&gt;Node27 -->
<g id="edge38" class="edge">
<title>Node26&#45;&gt;Node27</title>
<path fill="none" stroke="midnightblue" d="M313.95,-184.73C320.6,-173.56 329.9,-157.96 337.01,-146.02"/>
<polygon fill="midnightblue" stroke="midnightblue" points="340.04,-147.78 342.15,-137.39 334.02,-144.19 340.04,-147.78"/>
</g>
<!-- Node28&#45;&gt;Node8 -->
<g id="edge42" class="edge">
<title>Node28&#45;&gt;Node8</title>
<path fill="none" stroke="midnightblue" d="M187.72,-332.19C130.64,-325.2 54.24,-311.65 35.45,-288 -13.23,-226.76 -10.15,-175.56 35.45,-112 55.42,-84.15 93.58,-73.32 123.92,-69.21"/>
<polygon fill="midnightblue" stroke="midnightblue" points="124.33,-72.69 133.87,-68.06 123.53,-65.73 124.33,-72.69"/>
</g>
<!-- Node28&#45;&gt;Node9 -->
<g id="edge43" class="edge">
<title>Node28&#45;&gt;Node9</title>
<path fill="none" stroke="midnightblue" d="M319.2,-325.53C321.98,-325.01 324.74,-324.5 327.45,-324 407.76,-309.26 500.65,-293.58 560.39,-283.68"/>
<polygon fill="midnightblue" stroke="midnightblue" points="561.13,-287.1 570.42,-282.02 559.99,-280.2 561.13,-287.1"/>
</g>
<!-- Node29 -->
<g id="node29" class="node">
<title>Node29</title>
<g id="a_node29"><a xlink:href="template__inspection_8hpp.html" target="_top" xlink:title="Provides various traits to inspect templates.">
<polygon fill="white" stroke="black" points="149.45,-257.5 149.45,-287.5 289.45,-287.5 289.45,-257.5 149.45,-257.5"/>
<text text-anchor="start" x="157.45" y="-275.5" font-family="Helvetica,sans-Serif" font-size="10.00">bio/meta/type_traits</text>
<text text-anchor="middle" x="219.45" y="-264.5" font-family="Helvetica,sans-Serif" font-size="10.00">/template_inspection.hpp</text>
</a>
</g>
</g>
<!-- Node28&#45;&gt;Node29 -->
<g id="edge44" class="edge">
<title>Node28&#45;&gt;Node29</title>
<path fill="none" stroke="midnightblue" d="M246.07,-324.4C241.84,-316.3 236.42,-305.94 231.57,-296.69"/>
<polygon fill="midnightblue" stroke="midnightblue" points="234.55,-294.82 226.81,-287.58 228.34,-298.06 234.55,-294.82"/>
</g>
<!-- Node29&#45;&gt;Node7 -->
<g id="edge50" class="edge">
<title>Node29&#45;&gt;Node7</title>
<path fill="none" stroke="midnightblue" d="M289.7,-258.95C316.32,-251.44 345.47,-239.58 367.45,-221 390.83,-201.22 405.04,-167.64 412.05,-146.85"/>
<polygon fill="midnightblue" stroke="midnightblue" points="415.4,-147.86 415.08,-137.27 408.73,-145.76 415.4,-147.86"/>
</g>
<!-- Node30 -->
<g id="node30" class="node">
<title>Node30</title>
<g id="a_node30"><a xlink:href="transformation__trait__or_8hpp.html" target="_top" xlink:title="Provides bio::meta::transformation_trait_or.">
<polygon fill="white" stroke="black" points="77.45,-179.5 77.45,-220.5 195.45,-220.5 195.45,-179.5 77.45,-179.5"/>
<text text-anchor="start" x="85.45" y="-208.5" font-family="Helvetica,sans-Serif" font-size="10.00">bio/meta/type_traits</text>
<text text-anchor="start" x="85.45" y="-197.5" font-family="Helvetica,sans-Serif" font-size="10.00">/transformation_trait</text>
<text text-anchor="middle" x="136.45" y="-186.5" font-family="Helvetica,sans-Serif" font-size="10.00">_or.hpp</text>
</a>
</g>
</g>
<!-- Node29&#45;&gt;Node30 -->
<g id="edge45" class="edge">
<title>Node29&#45;&gt;Node30</title>
<path fill="none" stroke="midnightblue" d="M202.65,-257.23C192.47,-248.59 179.17,-237.29 167.16,-227.09"/>
<polygon fill="midnightblue" stroke="midnightblue" points="169.4,-224.39 159.51,-220.59 164.86,-229.73 169.4,-224.39"/>
</g>
<!-- Node30&#45;&gt;Node8 -->
<g id="edge46" class="edge">
<title>Node30&#45;&gt;Node8</title>
<path fill="none" stroke="midnightblue" d="M122.88,-179.3C112.23,-161.19 100.82,-133.92 111.45,-112 117.84,-98.8 130.2,-88.3 141.77,-80.78"/>
<polygon fill="midnightblue" stroke="midnightblue" points="143.6,-83.77 150.36,-75.61 139.99,-77.77 143.6,-83.77"/>
</g>
<!-- Node31 -->
<g id="node31" class="node">
<title>Node31</title>
<g id="a_node31"><a xlink:href="meta_2type__traits_2concept_8hpp.html" target="_top" xlink:title="Provides the concepts bio::meta::transformation_trait and bio::meta::unary_type_trait.">
<polygon fill="white" stroke="black" points="153.45,-112.5 153.45,-142.5 269.45,-142.5 269.45,-112.5 153.45,-112.5"/>
<text text-anchor="start" x="161.45" y="-130.5" font-family="Helvetica,sans-Serif" font-size="10.00">bio/meta/type_traits</text>
<text text-anchor="middle" x="211.45" y="-119.5" font-family="Helvetica,sans-Serif" font-size="10.00">/concept.hpp</text>
</a>
</g>
</g>
<!-- Node30&#45;&gt;Node31 -->
<g id="edge47" class="edge">
<title>Node30&#45;&gt;Node31</title>
<path fill="none" stroke="midnightblue" d="M157.34,-179.36C167.05,-170.23 178.63,-159.35 188.57,-150"/>
<polygon fill="midnightblue" stroke="midnightblue" points="191.25,-152.29 196.14,-142.89 186.45,-147.19 191.25,-152.29"/>
</g>
<!-- Node31&#45;&gt;Node8 -->
<g id="edge48" class="edge">
<title>Node31&#45;&gt;Node8</title>
<path fill="none" stroke="midnightblue" d="M201.26,-112.4C195.07,-103.84 187.14,-92.87 180.63,-83.86"/>
<polygon fill="midnightblue" stroke="midnightblue" points="183.4,-81.71 174.7,-75.66 177.72,-85.81 183.4,-81.71"/>
</g>
<!-- Node31&#45;&gt;Node11 -->
<g id="edge49" class="edge">
<title>Node31&#45;&gt;Node11</title>
<path fill="none" stroke="midnightblue" d="M269.47,-118.32C284.74,-116.21 301.21,-113.98 316.45,-112 418.98,-98.67 537.7,-84.4 612.19,-75.59"/>
<polygon fill="midnightblue" stroke="midnightblue" points="612.88,-79.03 622.4,-74.38 612.06,-72.08 612.88,-79.03"/>
</g>
<!-- Node32&#45;&gt;Node9 -->
<g id="edge53" class="edge">
<title>Node32&#45;&gt;Node9</title>
<path fill="none" stroke="midnightblue" d="M668.64,-324.4C659.35,-314.16 646.77,-300.3 637.08,-289.62"/>
<polygon fill="midnightblue" stroke="midnightblue" points="639.65,-287.25 630.34,-282.19 634.47,-291.95 639.65,-287.25"/>
</g>
<!-- Node33 -->
<g id="node33" class="node">
<title>Node33</title>
<g id="a_node33"><a target="_blank" xlink:href="https://en.cppreference.com/w/cpp/header/array.html" xlink:title=" ">
<polygon fill="white" stroke="black" points="710.45,-263 710.45,-282 752.45,-282 752.45,-263 710.45,-263"/>
<text text-anchor="middle" x="731.45" y="-270" font-family="Helvetica,sans-Serif" font-size="10.00">array</text>
</a>
</g>
</g>
<!-- Node32&#45;&gt;Node33 -->
<g id="edge52" class="edge">
<title>Node32&#45;&gt;Node33</title>
<path fill="none" stroke="midnightblue" d="M692.3,-324.4C700.01,-314.36 710.42,-300.84 718.56,-290.25"/>
<polygon fill="midnightblue" stroke="midnightblue" points="721.43,-292.25 724.76,-282.19 715.89,-287.99 721.43,-292.25"/>
</g>
<!-- Node34&#45;&gt;Node10 -->
<g id="edge55" class="edge">
<title>Node34&#45;&gt;Node10</title>
<path fill="none" stroke="midnightblue" d="M861.69,-331.59C937.07,-319.76 1074.96,-289.89 1170.45,-221 1197.95,-201.16 1218.93,-166.83 1229.91,-146.03"/>
<polygon fill="midnightblue" stroke="midnightblue" points="1233.08,-147.54 1234.48,-137.04 1226.83,-144.37 1233.08,-147.54"/>
</g>
<!-- Node35&#45;&gt;Node10 -->
<g id="edge59" class="edge">
<title>Node35&#45;&gt;Node10</title>
<path fill="none" stroke="midnightblue" d="M1098.2,-458.46C1158.84,-441.82 1236.45,-407.45 1236.45,-340.5 1236.45,-340.5 1236.45,-340.5 1236.45,-271.5 1236.45,-226.96 1237.43,-174.63 1238.02,-147.29"/>
<polygon fill="midnightblue" stroke="midnightblue" points="1241.52,-147.28 1238.24,-137.2 1234.52,-147.12 1241.52,-147.28"/>
</g>
<!-- Node36&#45;&gt;Node7 -->
<g id="edge62" class="edge">
<title>Node36&#45;&gt;Node7</title>
<path fill="none" stroke="midnightblue" d="M534.98,-324.4C512.66,-287.18 452.21,-186.44 427.84,-145.82"/>
<polygon fill="midnightblue" stroke="midnightblue" points="430.73,-143.84 422.59,-137.07 424.73,-147.44 430.73,-143.84"/>
</g>
<!-- Node36&#45;&gt;Node9 -->
<g id="edge61" class="edge">
<title>Node36&#45;&gt;Node9</title>
<path fill="none" stroke="midnightblue" d="M560.59,-324.4C573.39,-313.86 590.87,-299.48 603.99,-288.69"/>
<polygon fill="midnightblue" stroke="midnightblue" points="606.38,-291.25 611.88,-282.19 601.93,-285.85 606.38,-291.25"/>
</g>
<!-- Node37&#45;&gt;Node3 -->
<g id="edge64" class="edge">
<title>Node37&#45;&gt;Node3</title>
<path fill="none" stroke="midnightblue" d="M658.23,-458.4C640.12,-447.39 615.11,-432.2 597.13,-421.28"/>
<polygon fill="midnightblue" stroke="midnightblue" points="598.81,-418.21 588.45,-416.01 595.18,-424.19 598.81,-418.21"/>
</g>
<!-- Node37&#45;&gt;Node34 -->
<g id="edge65" class="edge">
<title>Node37&#45;&gt;Node34</title>
<path fill="none" stroke="midnightblue" d="M735.1,-458.44C754.85,-450.72 775.73,-439.12 789.45,-422 802.35,-405.89 806.47,-382.48 807.58,-364.88"/>
<polygon fill="midnightblue" stroke="midnightblue" points="811.08,-364.9 807.94,-354.78 804.09,-364.65 811.08,-364.9"/>
</g>
<!-- Node38 -->
<g id="node38" class="node">
<title>Node38</title>
<g id="a_node38"><a xlink:href="nucleotide__base_8hpp.html" target="_top" xlink:title="Provides bio::alphabet::nucleotide_base.">
<polygon fill="white" stroke="black" points="615.95,-391.5 615.95,-421.5 746.95,-421.5 746.95,-391.5 615.95,-391.5"/>
<text text-anchor="start" x="623.95" y="-409.5" font-family="Helvetica,sans-Serif" font-size="10.00">bio/alphabet/nucleotide</text>
<text text-anchor="middle" x="681.45" y="-398.5" font-family="Helvetica,sans-Serif" font-size="10.00">/nucleotide_base.hpp</text>
</a>
</g>
</g>
<!-- Node37&#45;&gt;Node38 -->
<g id="edge66" class="edge">
<title>Node37&#45;&gt;Node38</title>
<path fill="none" stroke="midnightblue" d="M681.45,-458.4C681.45,-450.64 681.45,-440.81 681.45,-431.86"/>
<polygon fill="midnightblue" stroke="midnightblue" points="684.95,-431.58 681.45,-421.58 677.95,-431.58 684.95,-431.58"/>
</g>
<!-- Node38&#45;&gt;Node5 -->
<g id="edge67" class="edge">
<title>Node38&#45;&gt;Node5</title>
<path fill="none" stroke="midnightblue" d="M620.39,-391.48C576.18,-381.32 516.3,-367.57 469.87,-356.91"/>
<polygon fill="midnightblue" stroke="midnightblue" points="470.41,-353.44 459.88,-354.61 468.85,-360.26 470.41,-353.44"/>
</g>
<!-- Node38&#45;&gt;Node32 -->
<g id="edge68" class="edge">
<title>Node38&#45;&gt;Node32</title>
<path fill="none" stroke="midnightblue" d="M681.45,-391.4C681.45,-383.64 681.45,-373.81 681.45,-364.86"/>
<polygon fill="midnightblue" stroke="midnightblue" points="684.95,-364.58 681.45,-354.58 677.95,-364.58 684.95,-364.58"/>
</g>
<!-- Node38&#45;&gt;Node34 -->
<g id="edge69" class="edge">
<title>Node38&#45;&gt;Node34</title>
<path fill="none" stroke="midnightblue" d="M708.79,-391.4C727.03,-381.98 751.23,-369.5 771.09,-359.26"/>
<polygon fill="midnightblue" stroke="midnightblue" points="772.88,-362.27 780.16,-354.58 769.67,-356.05 772.88,-362.27"/>
</g>
<!-- Node38&#45;&gt;Node36 -->
<g id="edge70" class="edge">
<title>Node38&#45;&gt;Node36</title>
<path fill="none" stroke="midnightblue" d="M651.5,-391.4C631.25,-381.86 604.3,-369.16 582.38,-358.84"/>
<polygon fill="midnightblue" stroke="midnightblue" points="583.87,-355.67 573.33,-354.58 580.89,-362 583.87,-355.67"/>
</g>
</g>
</svg>
        <g id="navigator" transform="translate(0 0)" fill="#404254">
                <rect fill="#f2f5e9" fill-opacity="0.5" stroke="#606060" stroke-width=".5" x="0" y="0" width="60" height="60"/>
                <use id="zoomplus" xlink:href="#zoomPlus" x="17" y="9" onmousedown="handleZoom(evt,'in')"/>
                <use id="zoomminus" xlink:href="#zoomMin" x="42" y="9" onmousedown="handleZoom(evt,'out')"/>
                <use id="reset" xlink:href="#resetDef" x="30" y="36" onmousedown="handleReset()"/>
                <g id="arrowUp" xlink:href="#dirArrow" transform="translate(30 24)" onmousedown="handlePan(0,-1)">
                  <use xlink:href="#rim" fill="#404040">
                        <set attributeName="fill" to="#808080" begin="arrowUp.mouseover" end="arrowUp.mouseout"/>
                  </use>
                  <path fill="none" stroke="white" stroke-width="1.5" d="M0,-3.0v7 M-2.5,-0.5L0,-3.0L2.5,-0.5"/>
                </g>
                <g id="arrowRight" xlink:href="#dirArrow" transform="rotate(90) translate(36 -43)" onmousedown="handlePan(1,0)">
                  <use xlink:href="#rim" fill="#404040">
                        <set attributeName="fill" to="#808080" begin="arrowRight.mouseover" end="arrowRight.mouseout"/>
                  </use>
                  <path fill="none" stroke="white" stroke-width="1.5" d="M0,-3.0v7 M-2.5,-0.5L0,-3.0L2.5,-0.5"/>
                </g>
                <g id="arrowDown" xlink:href="#dirArrow" transform="rotate(180) translate(-30 -48)" onmousedown="handlePan(0,1)">
                  <use xlink:href="#rim" fill="#404040">
                        <set attributeName="fill" to="#808080" begin="arrowDown.mouseover" end="arrowDown.mouseout"/>
                  </use>
                  <path fill="none" stroke="white" stroke-width="1.5" d="M0,-3.0v7 M-2.5,-0.5L0,-3.0L2.5,-0.5"/>
                </g>
                <g id="arrowLeft" xlink:href="#dirArrow" transform="rotate(270) translate(-36 17)" onmousedown="handlePan(-1,0)">
                  <use xlink:href="#rim" fill="#404040">
                        <set attributeName="fill" to="#808080" begin="arrowLeft.mouseover" end="arrowLeft.mouseout"/>
                  </use>
                  <path fill="none" stroke="white" stroke-width="1.5" d="M0,-3.0v7 M-2.5,-0.5L0,-3.0L2.5,-0.5"/>
                </g>
        </g>
        <svg viewBox="0 0 15 15" width="100%" height="30px" preserveAspectRatio="xMaxYMin meet">
         <g id="arrow_out" transform="scale(0.3 0.3)">
          <a xlink:href="translation__details_8hpp__incl_org.svg" target="_base">
           <rect id="button" ry="5" rx="5" y="6" x="6" height="38" width="38"
                fill="#f2f5e9" fill-opacity="0.5" stroke="#606060" stroke-width="1.0"/>
           <path id="arrow"
             d="M 11.500037,31.436501 C 11.940474,20.09759 22.043105,11.32322 32.158766,21.979434 L 37.068811,17.246167 C 37.068811,17.246167 37.088388,32 37.088388,32 L 22.160133,31.978069 C 22.160133,31.978069 26.997745,27.140456 26.997745,27.140456 C 18.528582,18.264221 13.291696,25.230495 11.500037,31.436501 z"
             style="fill:#404040;"/>
          </a>
         </g>
        </svg>
</svg>
