<?xml version="1.0" encoding="UTF-8" standalone="no"?>
<!DOCTYPE svg PUBLIC "-//W3C//DTD SVG 1.1//EN"
 "http://www.w3.org/Graphics/SVG/1.1/DTD/svg11.dtd">
<!-- Generated by graphviz version 2.43.0 (0)
 -->
<!-- Title: bio/ranges/views/transform_by_pos.hpp Pages: 1 -->
<!--zoomable 408 -->
<svg id="main" version="1.1" xmlns="http://www.w3.org/2000/svg" xmlns:xlink="http://www.w3.org/1999/xlink" xml:space="preserve" onload="init(evt)">
<style type="text/css"><![CDATA[
.edge:hover path { stroke: red; }
.edge:hover polygon { stroke: red; fill: red; }
]]></style>
<script type="text/javascript"><![CDATA[
var edges = document.getElementsByTagName('g');
if (edges && edges.length) {
  for (var i=0;i<edges.length;i++) {
    if (edges[i].id.substr(0,4)=='edge') {
      edges[i].setAttribute('class','edge');
    }
  }
}
]]></script>
        <defs>
                <circle id="rim" cx="0" cy="0" r="7"/>
                <circle id="rim2" cx="0" cy="0" r="3.5"/>
                <g id="zoomPlus">
                        <use xlink:href="#rim" fill="#404040">
                                <set attributeName="fill" to="#808080" begin="zoomplus.mouseover" end="zoomplus.mouseout"/>
                        </use>
                        <path d="M-4,0h8M0,-4v8" fill="none" stroke="white" stroke-width="1.5" pointer-events="none"/>
                </g>
                <g id="zoomMin">
                        <use xlink:href="#rim" fill="#404040">
                                <set attributeName="fill" to="#808080" begin="zoomminus.mouseover" end="zoomminus.mouseout"/>
                        </use>
                        <path d="M-4,0h8" fill="none" stroke="white" stroke-width="1.5" pointer-events="none"/>
                </g>
                <g id="dirArrow">
                        <path fill="none" stroke="white" stroke-width="1.5" d="M0,-3.0v7 M-2.5,-0.5L0,-3.0L2.5,-0.5"/>
                </g>
               <g id="resetDef">
                       <use xlink:href="#rim2" fill="#404040">
                               <set attributeName="fill" to="#808080" begin="reset.mouseover" end="reset.mouseout"/>
                       </use>
               </g>
        </defs>

<script type="text/javascript">
var viewWidth = 1157;
var viewHeight = 408;
var sectionId = 'dynsection-0';
</script>
<script xlink:href="svgpan.js"/>
<svg id="graph" class="graph">
<g id="viewport">
<title>bio/ranges/views/transform_by_pos.hpp</title>
<polygon fill="white" stroke="transparent" points="-4,4 -4,-404 1153,-404 1153,4 -4,4"/>
<!-- Node1 -->
<g id="node1" class="node">
<title>Node1</title>
<g id="a_node1"><a xlink:title="Provides bio::views::transform_by_pos.">
<polygon fill="#bfbfbf" stroke="black" points="664.5,-369.5 664.5,-399.5 814.5,-399.5 814.5,-369.5 664.5,-369.5"/>
<text text-anchor="start" x="672.5" y="-387.5" font-family="Helvetica,sans-Serif" font-size="10.00">bio/ranges/views/transform</text>
<text text-anchor="middle" x="739.5" y="-376.5" font-family="Helvetica,sans-Serif" font-size="10.00">_by_pos.hpp</text>
</a>
</g>
</g>
<!-- Node2 -->
<g id="node2" class="node">
<title>Node2</title>
<g id="a_node2"><a target="_blank" xlink:href="https://en.cppreference.com/w/cpp/header/utility.html" xlink:title=" ">
<polygon fill="white" stroke="black" points="532,-313.5 532,-332.5 577,-332.5 577,-313.5 532,-313.5"/>
<text text-anchor="middle" x="554.5" y="-320.5" font-family="Helvetica,sans-Serif" font-size="10.00">utility</text>
</a>
</g>
</g>
<!-- Node1&#45;&gt;Node2 -->
<g id="edge1" class="edge">
<title>Node1&#45;&gt;Node2</title>
<path fill="none" stroke="midnightblue" d="M695.66,-369.4C662.25,-358.65 617.01,-344.1 586.84,-334.4"/>
<polygon fill="midnightblue" stroke="midnightblue" points="587.82,-331.04 577.23,-331.31 585.67,-337.7 587.82,-331.04"/>
</g>
<!-- Node3 -->
<g id="node3" class="node">
<title>Node3</title>
<g id="a_node3"><a xlink:href="ranges_2concept_8hpp.html" target="_top" xlink:title="Additional non&#45;standard concepts for ranges.">
<polygon fill="white" stroke="black" points="595.5,-313.5 595.5,-332.5 725.5,-332.5 725.5,-313.5 595.5,-313.5"/>
<text text-anchor="middle" x="660.5" y="-320.5" font-family="Helvetica,sans-Serif" font-size="10.00">bio/ranges/concept.hpp</text>
</a>
</g>
</g>
<!-- Node1&#45;&gt;Node3 -->
<g id="edge2" class="edge">
<title>Node1&#45;&gt;Node3</title>
<path fill="none" stroke="midnightblue" d="M720.78,-369.4C708.59,-360.22 692.71,-348.26 680.31,-338.92"/>
<polygon fill="midnightblue" stroke="midnightblue" points="682.09,-335.88 672,-332.66 677.88,-341.47 682.09,-335.88"/>
</g>
<!-- Node24 -->
<g id="node24" class="node">
<title>Node24</title>
<g id="a_node24"><a xlink:href="random__access__iterator_8hpp.html" target="_top" xlink:title="Provides the bio::ranges::detail::random_access_iterator class.">
<polygon fill="white" stroke="black" points="1010,-246.5 1010,-276.5 1149,-276.5 1149,-246.5 1010,-246.5"/>
<text text-anchor="start" x="1018" y="-264.5" font-family="Helvetica,sans-Serif" font-size="10.00">bio/ranges/detail/random</text>
<text text-anchor="middle" x="1079.5" y="-253.5" font-family="Helvetica,sans-Serif" font-size="10.00">_access_iterator.hpp</text>
</a>
</g>
</g>
<!-- Node1&#45;&gt;Node24 -->
<g id="edge33" class="edge">
<title>Node1&#45;&gt;Node24</title>
<path fill="none" stroke="midnightblue" d="M789,-369.41C821.73,-359.82 865.44,-346.46 903.5,-333 949.74,-316.65 1001.77,-295.45 1037.19,-280.59"/>
<polygon fill="midnightblue" stroke="midnightblue" points="1038.86,-283.68 1046.72,-276.57 1036.15,-277.23 1038.86,-283.68"/>
</g>
<!-- Node27 -->
<g id="node27" class="node">
<title>Node27</title>
<g id="a_node27"><a xlink:href="ranges_2views_2detail_8hpp_source.html" target="_top" xlink:title=" ">
<polygon fill="white" stroke="black" points="744,-313.5 744,-332.5 895,-332.5 895,-313.5 744,-313.5"/>
<text text-anchor="middle" x="819.5" y="-320.5" font-family="Helvetica,sans-Serif" font-size="10.00">bio/ranges/views/detail.hpp</text>
</a>
</g>
</g>
<!-- Node1&#45;&gt;Node27 -->
<g id="edge38" class="edge">
<title>Node1&#45;&gt;Node27</title>
<path fill="none" stroke="midnightblue" d="M758.46,-369.4C770.92,-360.13 787.2,-348.03 799.81,-338.65"/>
<polygon fill="midnightblue" stroke="midnightblue" points="801.92,-341.43 807.86,-332.66 797.75,-335.82 801.92,-341.43"/>
</g>
<!-- Node4 -->
<g id="node4" class="node">
<title>Node4</title>
<g id="a_node4"><a target="_blank" xlink:href="https://en.cppreference.com/w/cpp/header/ranges.html" xlink:title=" ">
<polygon fill="white" stroke="black" points="759.5,-185 759.5,-204 809.5,-204 809.5,-185 759.5,-185"/>
<text text-anchor="middle" x="784.5" y="-192" font-family="Helvetica,sans-Serif" font-size="10.00">ranges</text>
</a>
</g>
</g>
<!-- Node3&#45;&gt;Node4 -->
<g id="edge3" class="edge">
<title>Node3&#45;&gt;Node4</title>
<path fill="none" stroke="midnightblue" d="M669.02,-313.31C689.64,-292.27 742.46,-238.39 768.91,-211.4"/>
<polygon fill="midnightblue" stroke="midnightblue" points="771.42,-213.85 775.92,-204.26 766.42,-208.95 771.42,-213.85"/>
</g>
<!-- Node5 -->
<g id="node5" class="node">
<title>Node5</title>
<g id="a_node5"><a xlink:href="alphabet_2concept_8hpp.html" target="_top" xlink:title="Core alphabet concept and free function/type trait wrappers.">
<polygon fill="white" stroke="black" points="451.5,-252 451.5,-271 591.5,-271 591.5,-252 451.5,-252"/>
<text text-anchor="middle" x="521.5" y="-259" font-family="Helvetica,sans-Serif" font-size="10.00">bio/alphabet/concept.hpp</text>
</a>
</g>
</g>
<!-- Node3&#45;&gt;Node5 -->
<g id="edge4" class="edge">
<title>Node3&#45;&gt;Node5</title>
<path fill="none" stroke="midnightblue" d="M640.58,-313.48C617.05,-303.4 577.69,-286.55 550.71,-275"/>
<polygon fill="midnightblue" stroke="midnightblue" points="551.95,-271.73 541.38,-271.01 549.19,-278.16 551.95,-271.73"/>
</g>
<!-- Node6 -->
<g id="node6" class="node">
<title>Node6</title>
<g id="a_node6"><a target="_blank" xlink:href="https://en.cppreference.com/w/cpp/header/type_traits.html" xlink:title=" ">
<polygon fill="white" stroke="black" points="707,-56.5 707,-75.5 776,-75.5 776,-56.5 707,-56.5"/>
<text text-anchor="middle" x="741.5" y="-63.5" font-family="Helvetica,sans-Serif" font-size="10.00">type_traits</text>
</a>
</g>
</g>
<!-- Node5&#45;&gt;Node6 -->
<g id="edge5" class="edge">
<title>Node5&#45;&gt;Node6</title>
<path fill="none" stroke="midnightblue" d="M531.76,-252C543.76,-242.03 564.19,-224.95 581.5,-210 597.23,-196.42 599.46,-190.89 616.5,-179 644.23,-159.66 657.78,-164.93 683.5,-143 703.35,-126.08 720.69,-101.29 731.11,-84.67"/>
<polygon fill="midnightblue" stroke="midnightblue" points="734.21,-86.31 736.42,-75.95 728.23,-82.67 734.21,-86.31"/>
</g>
<!-- Node7 -->
<g id="node7" class="node">
<title>Node7</title>
<g id="a_node7"><a xlink:href="tag_8hpp.html" target="_top" xlink:title="Provides the customisation tags for the alphabet concepts.">
<polygon fill="white" stroke="black" points="339.5,-179.5 339.5,-209.5 455.5,-209.5 455.5,-179.5 339.5,-179.5"/>
<text text-anchor="start" x="347.5" y="-197.5" font-family="Helvetica,sans-Serif" font-size="10.00">bio/alphabet/custom</text>
<text text-anchor="middle" x="397.5" y="-186.5" font-family="Helvetica,sans-Serif" font-size="10.00">/tag.hpp</text>
</a>
</g>
</g>
<!-- Node5&#45;&gt;Node7 -->
<g id="edge6" class="edge">
<title>Node5&#45;&gt;Node7</title>
<path fill="none" stroke="midnightblue" d="M505.03,-251.87C486.89,-242.36 457.14,-226.77 433.53,-214.39"/>
<polygon fill="midnightblue" stroke="midnightblue" points="434.98,-211.19 424.5,-209.65 431.73,-217.39 434.98,-211.19"/>
</g>
<!-- Node8 -->
<g id="node8" class="node">
<title>Node8</title>
<g id="a_node8"><a xlink:href="exception_8hpp.html" target="_top" xlink:title="Exceptions thrown by entities in the alphabet module.">
<polygon fill="white" stroke="black" points="209,-118 209,-137 358,-137 358,-118 209,-118"/>
<text text-anchor="middle" x="283.5" y="-125" font-family="Helvetica,sans-Serif" font-size="10.00">bio/alphabet/exception.hpp</text>
</a>
</g>
</g>
<!-- Node5&#45;&gt;Node8 -->
<g id="edge7" class="edge">
<title>Node5&#45;&gt;Node8</title>
<path fill="none" stroke="midnightblue" d="M451.23,-255.12C412.37,-249.1 365.1,-236.47 330.5,-210 309.46,-193.9 296.22,-165.5 289.33,-146.83"/>
<polygon fill="midnightblue" stroke="midnightblue" points="292.56,-145.46 286.01,-137.14 285.94,-147.73 292.56,-145.46"/>
</g>
<!-- Node12 -->
<g id="node12" class="node">
<title>Node12</title>
<g id="a_node12"><a xlink:href="core_8hpp.html" target="_top" xlink:title="Provides platform and dependency checks.">
<polygon fill="white" stroke="black" points="481,-56.5 481,-75.5 558,-75.5 558,-56.5 481,-56.5"/>
<text text-anchor="middle" x="519.5" y="-63.5" font-family="Helvetica,sans-Serif" font-size="10.00">bio/core.hpp</text>
</a>
</g>
</g>
<!-- Node5&#45;&gt;Node12 -->
<g id="edge16" class="edge">
<title>Node5&#45;&gt;Node12</title>
<path fill="none" stroke="midnightblue" d="M521.41,-251.94C521.11,-222.79 520.12,-126.97 519.7,-85.93"/>
<polygon fill="midnightblue" stroke="midnightblue" points="523.2,-85.87 519.59,-75.91 516.2,-85.94 523.2,-85.87"/>
</g>
<!-- Node16 -->
<g id="node16" class="node">
<title>Node16</title>
<g id="a_node16"><a xlink:href="core__language_8hpp.html" target="_top" xlink:title="Provides concepts for core language types and relations that don&#39;t have concepts in C++20 (yet).">
<polygon fill="white" stroke="black" points="550,-112.5 550,-142.5 675,-142.5 675,-112.5 550,-112.5"/>
<text text-anchor="start" x="558" y="-130.5" font-family="Helvetica,sans-Serif" font-size="10.00">bio/meta/concept/core</text>
<text text-anchor="middle" x="612.5" y="-119.5" font-family="Helvetica,sans-Serif" font-size="10.00">_language.hpp</text>
</a>
</g>
</g>
<!-- Node5&#45;&gt;Node16 -->
<g id="edge17" class="edge">
<title>Node5&#45;&gt;Node16</title>
<path fill="none" stroke="midnightblue" d="M527.47,-251.84C541.37,-231.67 576.28,-181.03 596.79,-151.29"/>
<polygon fill="midnightblue" stroke="midnightblue" points="599.86,-153 602.65,-142.78 594.1,-149.03 599.86,-153"/>
</g>
<!-- Node17 -->
<g id="node17" class="node">
<title>Node17</title>
<g id="a_node17"><a xlink:href="type__inspection_8hpp.html" target="_top" xlink:title="Provides traits to inspect some information of a type, for example its name.">
<polygon fill="white" stroke="black" points="74.5,-112.5 74.5,-142.5 190.5,-142.5 190.5,-112.5 74.5,-112.5"/>
<text text-anchor="start" x="82.5" y="-130.5" font-family="Helvetica,sans-Serif" font-size="10.00">bio/meta/detail/type</text>
<text text-anchor="middle" x="132.5" y="-119.5" font-family="Helvetica,sans-Serif" font-size="10.00">_inspection.hpp</text>
</a>
</g>
</g>
<!-- Node5&#45;&gt;Node17 -->
<g id="edge21" class="edge">
<title>Node5&#45;&gt;Node17</title>
<path fill="none" stroke="midnightblue" d="M468.76,-251.93C423.38,-243.74 356.56,-229.72 300.5,-210 252,-192.94 199.12,-165.74 165.9,-147.51"/>
<polygon fill="midnightblue" stroke="midnightblue" points="167.51,-144.41 157.07,-142.62 164.12,-150.53 167.51,-144.41"/>
</g>
<!-- Node21 -->
<g id="node21" class="node">
<title>Node21</title>
<g id="a_node21"><a xlink:href="priority__tag_8hpp.html" target="_top" xlink:title="provides bio::meta::priority_tag.">
<polygon fill="white" stroke="black" points="376,-112.5 376,-142.5 493,-142.5 493,-112.5 376,-112.5"/>
<text text-anchor="start" x="384" y="-130.5" font-family="Helvetica,sans-Serif" font-size="10.00">bio/meta/tag/priority</text>
<text text-anchor="middle" x="434.5" y="-119.5" font-family="Helvetica,sans-Serif" font-size="10.00">_tag.hpp</text>
</a>
</g>
</g>
<!-- Node5&#45;&gt;Node21 -->
<g id="edge27" class="edge">
<title>Node5&#45;&gt;Node21</title>
<path fill="none" stroke="midnightblue" d="M515.79,-251.84C502.5,-231.67 469.12,-181.03 449.52,-151.29"/>
<polygon fill="midnightblue" stroke="midnightblue" points="452.34,-149.21 443.91,-142.78 446.49,-153.06 452.34,-149.21"/>
</g>
<!-- Node22 -->
<g id="node22" class="node">
<title>Node22</title>
<g id="a_node22"><a xlink:href="basic_8hpp.html" target="_top" xlink:title="Provides various type traits on generic types.">
<polygon fill="white" stroke="black" points="625.5,-179.5 625.5,-209.5 741.5,-209.5 741.5,-179.5 625.5,-179.5"/>
<text text-anchor="start" x="633.5" y="-197.5" font-family="Helvetica,sans-Serif" font-size="10.00">bio/meta/type_traits</text>
<text text-anchor="middle" x="683.5" y="-186.5" font-family="Helvetica,sans-Serif" font-size="10.00">/basic.hpp</text>
</a>
</g>
</g>
<!-- Node5&#45;&gt;Node22 -->
<g id="edge29" class="edge">
<title>Node5&#45;&gt;Node22</title>
<path fill="none" stroke="midnightblue" d="M543.01,-251.87C567.43,-242.07 607.91,-225.83 639.16,-213.29"/>
<polygon fill="midnightblue" stroke="midnightblue" points="640.56,-216.5 648.54,-209.53 637.95,-210 640.56,-216.5"/>
</g>
<!-- Node9 -->
<g id="node9" class="node">
<title>Node9</title>
<g id="a_node9"><a target="_blank" xlink:href="https://en.cppreference.com/w/cpp/header/concepts.html" xlink:title=" ">
<polygon fill="white" stroke="black" points="398.5,-56.5 398.5,-75.5 458.5,-75.5 458.5,-56.5 398.5,-56.5"/>
<text text-anchor="middle" x="428.5" y="-63.5" font-family="Helvetica,sans-Serif" font-size="10.00">concepts</text>
</a>
</g>
</g>
<!-- Node8&#45;&gt;Node9 -->
<g id="edge8" class="edge">
<title>Node8&#45;&gt;Node9</title>
<path fill="none" stroke="midnightblue" d="M304.27,-117.98C328.93,-107.86 370.25,-90.9 398.4,-79.35"/>
<polygon fill="midnightblue" stroke="midnightblue" points="399.84,-82.54 407.76,-75.51 397.18,-76.07 399.84,-82.54"/>
</g>
<!-- Node10 -->
<g id="node10" class="node">
<title>Node10</title>
<g id="a_node10"><a target="_blank" xlink:href="https://en.cppreference.com/w/cpp/header/stdexcept.html" xlink:title=" ">
<polygon fill="white" stroke="black" points="312,-56.5 312,-75.5 377,-75.5 377,-56.5 312,-56.5"/>
<text text-anchor="middle" x="344.5" y="-63.5" font-family="Helvetica,sans-Serif" font-size="10.00">stdexcept</text>
</a>
</g>
</g>
<!-- Node8&#45;&gt;Node10 -->
<g id="edge9" class="edge">
<title>Node8&#45;&gt;Node10</title>
<path fill="none" stroke="midnightblue" d="M292.24,-117.98C301.66,-108.78 316.86,-93.96 328.45,-82.66"/>
<polygon fill="midnightblue" stroke="midnightblue" points="331.06,-85 335.78,-75.51 326.17,-79.99 331.06,-85"/>
</g>
<!-- Node11 -->
<g id="node11" class="node">
<title>Node11</title>
<g id="a_node11"><a target="_blank" xlink:href="https://en.cppreference.com/w/cpp/header/string.html" xlink:title=" ">
<polygon fill="white" stroke="black" points="261.5,-0.5 261.5,-19.5 305.5,-19.5 305.5,-0.5 261.5,-0.5"/>
<text text-anchor="middle" x="283.5" y="-7.5" font-family="Helvetica,sans-Serif" font-size="10.00">string</text>
</a>
</g>
</g>
<!-- Node8&#45;&gt;Node11 -->
<g id="edge10" class="edge">
<title>Node8&#45;&gt;Node11</title>
<path fill="none" stroke="midnightblue" d="M283.5,-117.82C283.5,-99.26 283.5,-55.34 283.5,-29.97"/>
<polygon fill="midnightblue" stroke="midnightblue" points="287,-29.78 283.5,-19.78 280,-29.78 287,-29.78"/>
</g>
<!-- Node8&#45;&gt;Node12 -->
<g id="edge11" class="edge">
<title>Node8&#45;&gt;Node12</title>
<path fill="none" stroke="midnightblue" d="M317.31,-117.98C359.02,-107.46 430.01,-89.56 475.81,-78.01"/>
<polygon fill="midnightblue" stroke="midnightblue" points="476.91,-81.35 485.75,-75.51 475.2,-74.56 476.91,-81.35"/>
</g>
<!-- Node12&#45;&gt;Node11 -->
<g id="edge15" class="edge">
<title>Node12&#45;&gt;Node11</title>
<path fill="none" stroke="midnightblue" d="M482.11,-56.44C436.24,-45.95 359.25,-28.33 315.83,-18.4"/>
<polygon fill="midnightblue" stroke="midnightblue" points="316.34,-14.92 305.81,-16.1 314.77,-21.75 316.34,-14.92"/>
</g>
<!-- Node13 -->
<g id="node13" class="node">
<title>Node13</title>
<g id="a_node13"><a target="_blank" xlink:href="https://en.cppreference.com/w/cpp/header/cinttypes.html" xlink:title=" ">
<polygon fill="white" stroke="black" points="564.5,-0.5 564.5,-19.5 626.5,-19.5 626.5,-0.5 564.5,-0.5"/>
<text text-anchor="middle" x="595.5" y="-7.5" font-family="Helvetica,sans-Serif" font-size="10.00">cinttypes</text>
</a>
</g>
</g>
<!-- Node12&#45;&gt;Node13 -->
<g id="edge12" class="edge">
<title>Node12&#45;&gt;Node13</title>
<path fill="none" stroke="midnightblue" d="M531.71,-56.32C543.28,-48.11 560.88,-35.6 574.66,-25.81"/>
<polygon fill="midnightblue" stroke="midnightblue" points="576.94,-28.48 583.07,-19.83 572.89,-22.77 576.94,-28.48"/>
</g>
<!-- Node14 -->
<g id="node14" class="node">
<title>Node14</title>
<g id="a_node14"><a target="_blank" xlink:href="https://en.cppreference.com/w/cpp/header/ciso646.html" xlink:title=" ">
<polygon fill="white" stroke="black" points="420.5,-0.5 420.5,-19.5 474.5,-19.5 474.5,-0.5 420.5,-0.5"/>
<text text-anchor="middle" x="447.5" y="-7.5" font-family="Helvetica,sans-Serif" font-size="10.00">ciso646</text>
</a>
</g>
</g>
<!-- Node12&#45;&gt;Node14 -->
<g id="edge13" class="edge">
<title>Node12&#45;&gt;Node14</title>
<path fill="none" stroke="midnightblue" d="M507.93,-56.32C497.08,-48.18 480.62,-35.84 467.62,-26.09"/>
<polygon fill="midnightblue" stroke="midnightblue" points="469.38,-23.03 459.28,-19.83 465.18,-28.63 469.38,-23.03"/>
</g>
<!-- Node15 -->
<g id="node15" class="node">
<title>Node15</title>
<g id="a_node15"><a target="_blank" xlink:href="https://en.cppreference.com/w/cpp/header/cstddef.html" xlink:title=" ">
<polygon fill="white" stroke="black" points="493,-0.5 493,-19.5 546,-19.5 546,-0.5 493,-0.5"/>
<text text-anchor="middle" x="519.5" y="-7.5" font-family="Helvetica,sans-Serif" font-size="10.00">cstddef</text>
</a>
</g>
</g>
<!-- Node12&#45;&gt;Node15 -->
<g id="edge14" class="edge">
<title>Node12&#45;&gt;Node15</title>
<path fill="none" stroke="midnightblue" d="M519.5,-56.08C519.5,-49.01 519.5,-38.86 519.5,-29.99"/>
<polygon fill="midnightblue" stroke="midnightblue" points="523,-29.75 519.5,-19.75 516,-29.75 523,-29.75"/>
</g>
<!-- Node16&#45;&gt;Node6 -->
<g id="edge19" class="edge">
<title>Node16&#45;&gt;Node6</title>
<path fill="none" stroke="midnightblue" d="M643.07,-112.4C664.43,-102.55 692.72,-89.5 713.48,-79.92"/>
<polygon fill="midnightblue" stroke="midnightblue" points="715.11,-83.02 722.73,-75.66 712.18,-76.67 715.11,-83.02"/>
</g>
<!-- Node16&#45;&gt;Node9 -->
<g id="edge18" class="edge">
<title>Node16&#45;&gt;Node9</title>
<path fill="none" stroke="midnightblue" d="M568.89,-112.4C537.1,-102.12 494.53,-88.35 464.63,-78.68"/>
<polygon fill="midnightblue" stroke="midnightblue" points="465.6,-75.32 455.01,-75.57 463.44,-81.98 465.6,-75.32"/>
</g>
<!-- Node16&#45;&gt;Node12 -->
<g id="edge20" class="edge">
<title>Node16&#45;&gt;Node12</title>
<path fill="none" stroke="midnightblue" d="M590.46,-112.4C575.69,-102.95 556.32,-90.56 541.55,-81.11"/>
<polygon fill="midnightblue" stroke="midnightblue" points="543.34,-78.1 533.03,-75.66 539.57,-84 543.34,-78.1"/>
</g>
<!-- Node17&#45;&gt;Node11 -->
<g id="edge24" class="edge">
<title>Node17&#45;&gt;Node11</title>
<path fill="none" stroke="midnightblue" d="M164.74,-112.41C183.45,-103.42 206.92,-90.72 225.5,-76 243.2,-61.98 259.98,-42.21 270.9,-28.16"/>
<polygon fill="midnightblue" stroke="midnightblue" points="273.93,-29.95 277.17,-19.87 268.34,-25.73 273.93,-29.95"/>
</g>
<!-- Node17&#45;&gt;Node12 -->
<g id="edge26" class="edge">
<title>Node17&#45;&gt;Node12</title>
<path fill="none" stroke="midnightblue" d="M190.55,-113.64C193.57,-113.06 196.57,-112.51 199.5,-112 317.88,-91.27 348.71,-94.25 467.5,-76 468.59,-75.83 469.69,-75.66 470.79,-75.49"/>
<polygon fill="midnightblue" stroke="midnightblue" points="471.6,-78.9 480.91,-73.85 470.48,-71.99 471.6,-78.9"/>
</g>
<!-- Node18 -->
<g id="node18" class="node">
<title>Node18</title>
<g id="a_node18"><a target="_blank" xlink:href="https://en.cppreference.com/w/cpp/header/functional.html" xlink:title=" ">
<polygon fill="white" stroke="black" points="0,-56.5 0,-75.5 65,-75.5 65,-56.5 0,-56.5"/>
<text text-anchor="middle" x="32.5" y="-63.5" font-family="Helvetica,sans-Serif" font-size="10.00">functional</text>
</a>
</g>
</g>
<!-- Node17&#45;&gt;Node18 -->
<g id="edge22" class="edge">
<title>Node17&#45;&gt;Node18</title>
<path fill="none" stroke="midnightblue" d="M108.8,-112.4C92.77,-102.86 71.7,-90.32 55.76,-80.84"/>
<polygon fill="midnightblue" stroke="midnightblue" points="57.43,-77.76 47.05,-75.66 53.86,-83.78 57.43,-77.76"/>
</g>
<!-- Node19 -->
<g id="node19" class="node">
<title>Node19</title>
<g id="a_node19"><a target="_blank" xlink:href="https://en.cppreference.com/w/cpp/header/memory.html" xlink:title=" ">
<polygon fill="white" stroke="black" points="83.5,-56.5 83.5,-75.5 141.5,-75.5 141.5,-56.5 83.5,-56.5"/>
<text text-anchor="middle" x="112.5" y="-63.5" font-family="Helvetica,sans-Serif" font-size="10.00">memory</text>
</a>
</g>
</g>
<!-- Node17&#45;&gt;Node19 -->
<g id="edge23" class="edge">
<title>Node17&#45;&gt;Node19</title>
<path fill="none" stroke="midnightblue" d="M127.76,-112.4C125.03,-104.29 121.58,-94.01 118.64,-85.28"/>
<polygon fill="midnightblue" stroke="midnightblue" points="121.91,-84.02 115.41,-75.66 115.28,-86.25 121.91,-84.02"/>
</g>
<!-- Node20 -->
<g id="node20" class="node">
<title>Node20</title>
<g id="a_node20"><a target="_blank" xlink:href="https://en.cppreference.com/w/cpp/header/typeinfo.html" xlink:title=" ">
<polygon fill="white" stroke="black" points="160,-56.5 160,-75.5 217,-75.5 217,-56.5 160,-56.5"/>
<text text-anchor="middle" x="188.5" y="-63.5" font-family="Helvetica,sans-Serif" font-size="10.00">typeinfo</text>
</a>
</g>
</g>
<!-- Node17&#45;&gt;Node20 -->
<g id="edge25" class="edge">
<title>Node17&#45;&gt;Node20</title>
<path fill="none" stroke="midnightblue" d="M145.77,-112.4C154.08,-103.58 164.8,-92.18 173.42,-83.02"/>
<polygon fill="midnightblue" stroke="midnightblue" points="176.05,-85.34 180.35,-75.66 170.95,-80.54 176.05,-85.34"/>
</g>
<!-- Node21&#45;&gt;Node12 -->
<g id="edge28" class="edge">
<title>Node21&#45;&gt;Node12</title>
<path fill="none" stroke="midnightblue" d="M454.64,-112.4C467.89,-103.13 485.18,-91.03 498.58,-81.65"/>
<polygon fill="midnightblue" stroke="midnightblue" points="500.95,-84.26 507.13,-75.66 496.93,-78.53 500.95,-84.26"/>
</g>
<!-- Node22&#45;&gt;Node6 -->
<g id="edge31" class="edge">
<title>Node22&#45;&gt;Node6</title>
<path fill="none" stroke="midnightblue" d="M694.79,-179.15C702.05,-169.39 711.26,-155.95 717.5,-143 726.49,-124.35 733.17,-101.53 737.17,-85.79"/>
<polygon fill="midnightblue" stroke="midnightblue" points="740.65,-86.28 739.6,-75.74 733.85,-84.64 740.65,-86.28"/>
</g>
<!-- Node22&#45;&gt;Node16 -->
<g id="edge32" class="edge">
<title>Node22&#45;&gt;Node16</title>
<path fill="none" stroke="midnightblue" d="M668.09,-179.4C658.51,-170.62 646.01,-159.18 635.3,-149.37"/>
<polygon fill="midnightblue" stroke="midnightblue" points="637.62,-146.75 627.88,-142.58 632.89,-151.91 637.62,-146.75"/>
</g>
<!-- Node23 -->
<g id="node23" class="node">
<title>Node23</title>
<g id="a_node23"><a target="_blank" xlink:href="https://en.cppreference.com/w/cpp/header/tuple.html" xlink:title=" ">
<polygon fill="white" stroke="black" points="788,-118 788,-137 829,-137 829,-118 788,-118"/>
<text text-anchor="middle" x="808.5" y="-125" font-family="Helvetica,sans-Serif" font-size="10.00">tuple</text>
</a>
</g>
</g>
<!-- Node22&#45;&gt;Node23 -->
<g id="edge30" class="edge">
<title>Node22&#45;&gt;Node23</title>
<path fill="none" stroke="midnightblue" d="M710.62,-179.4C732.17,-168.19 762.07,-152.64 783.14,-141.69"/>
<polygon fill="midnightblue" stroke="midnightblue" points="784.88,-144.73 792.14,-137.01 781.65,-138.52 784.88,-144.73"/>
</g>
<!-- Node24&#45;&gt;Node6 -->
<g id="edge36" class="edge">
<title>Node24&#45;&gt;Node6</title>
<path fill="none" stroke="midnightblue" d="M1093.88,-246.28C1109.35,-229.21 1129.81,-200.24 1114.5,-179 1075.62,-125.06 876.34,-87.9 786.05,-73.57"/>
<polygon fill="midnightblue" stroke="midnightblue" points="786.54,-70.1 776.11,-72.01 785.45,-77.02 786.54,-70.1"/>
</g>
<!-- Node24&#45;&gt;Node12 -->
<g id="edge37" class="edge">
<title>Node24&#45;&gt;Node12</title>
<path fill="none" stroke="midnightblue" d="M1069.33,-246.3C1056.17,-228.72 1031.81,-198.7 1005.5,-179 950.93,-138.13 932.83,-131.52 867.5,-112 763.82,-81.03 636.47,-71.37 568.22,-68.36"/>
<polygon fill="midnightblue" stroke="midnightblue" points="568.32,-64.86 558.19,-67.95 568.04,-71.86 568.32,-64.86"/>
</g>
<!-- Node25 -->
<g id="node25" class="node">
<title>Node25</title>
<g id="a_node25"><a target="_blank" xlink:href="https://en.cppreference.com/w/cpp/header/cassert.html" xlink:title=" ">
<polygon fill="white" stroke="black" points="1053.5,-185 1053.5,-204 1105.5,-204 1105.5,-185 1053.5,-185"/>
<text text-anchor="middle" x="1079.5" y="-192" font-family="Helvetica,sans-Serif" font-size="10.00">cassert</text>
</a>
</g>
</g>
<!-- Node24&#45;&gt;Node25 -->
<g id="edge34" class="edge">
<title>Node24&#45;&gt;Node25</title>
<path fill="none" stroke="midnightblue" d="M1079.5,-246.4C1079.5,-237.06 1079.5,-224.71 1079.5,-214.52"/>
<polygon fill="midnightblue" stroke="midnightblue" points="1083,-214.19 1079.5,-204.19 1076,-214.19 1083,-214.19"/>
</g>
<!-- Node26 -->
<g id="node26" class="node">
<title>Node26</title>
<g id="a_node26"><a target="_blank" xlink:href="https://en.cppreference.com/w/cpp/header/iterator.html" xlink:title=" ">
<polygon fill="white" stroke="black" points="944,-185 944,-204 997,-204 997,-185 944,-185"/>
<text text-anchor="middle" x="970.5" y="-192" font-family="Helvetica,sans-Serif" font-size="10.00">iterator</text>
</a>
</g>
</g>
<!-- Node24&#45;&gt;Node26 -->
<g id="edge35" class="edge">
<title>Node24&#45;&gt;Node26</title>
<path fill="none" stroke="midnightblue" d="M1055.85,-246.4C1037.32,-235.34 1011.69,-220.06 993.36,-209.13"/>
<polygon fill="midnightblue" stroke="midnightblue" points="995.15,-206.12 984.77,-204.01 991.56,-212.13 995.15,-206.12"/>
</g>
<!-- Node27&#45;&gt;Node4 -->
<g id="edge39" class="edge">
<title>Node27&#45;&gt;Node4</title>
<path fill="none" stroke="midnightblue" d="M816.69,-313.41C813.77,-304.38 809.12,-289.75 805.5,-277 799.4,-255.53 793.1,-230.67 789.02,-214.1"/>
<polygon fill="midnightblue" stroke="midnightblue" points="792.35,-212.98 786.57,-204.1 785.55,-214.65 792.35,-212.98"/>
</g>
<!-- Node27&#45;&gt;Node22 -->
<g id="edge41" class="edge">
<title>Node27&#45;&gt;Node22</title>
<path fill="none" stroke="midnightblue" d="M810.15,-313.31C789,-293.63 736.94,-245.21 706.56,-216.95"/>
<polygon fill="midnightblue" stroke="midnightblue" points="708.67,-214.14 698.97,-209.89 703.91,-219.26 708.67,-214.14"/>
</g>
<!-- Node27&#45;&gt;Node23 -->
<g id="edge40" class="edge">
<title>Node27&#45;&gt;Node23</title>
<path fill="none" stroke="midnightblue" d="M820.01,-313.26C821.19,-290.87 823.64,-229.63 818.5,-179 817.41,-168.26 815.12,-156.42 813.01,-146.9"/>
<polygon fill="midnightblue" stroke="midnightblue" points="816.38,-145.94 810.69,-137 809.57,-147.54 816.38,-145.94"/>
</g>
<!-- Node28 -->
<g id="node28" class="node">
<title>Node28</title>
<g id="a_node28"><a xlink:href="type__traits_8hpp.html" target="_top" xlink:title="Provides various transformation traits used by the range module.">
<polygon fill="white" stroke="black" points="847.5,-252 847.5,-271 991.5,-271 991.5,-252 847.5,-252"/>
<text text-anchor="middle" x="919.5" y="-259" font-family="Helvetica,sans-Serif" font-size="10.00">bio/ranges/type_traits.hpp</text>
</a>
</g>
</g>
<!-- Node27&#45;&gt;Node28 -->
<g id="edge42" class="edge">
<title>Node27&#45;&gt;Node28</title>
<path fill="none" stroke="midnightblue" d="M833.83,-313.48C850.16,-303.75 877.1,-287.73 896.41,-276.24"/>
<polygon fill="midnightblue" stroke="midnightblue" points="898.39,-279.13 905.2,-271.01 894.82,-273.11 898.39,-279.13"/>
</g>
<!-- Node28&#45;&gt;Node4 -->
<g id="edge44" class="edge">
<title>Node28&#45;&gt;Node4</title>
<path fill="none" stroke="midnightblue" d="M901.57,-251.87C878.58,-240.8 838.47,-221.49 811.7,-208.6"/>
<polygon fill="midnightblue" stroke="midnightblue" points="813.03,-205.35 802.5,-204.17 809.99,-211.66 813.03,-205.35"/>
</g>
<!-- Node28&#45;&gt;Node6 -->
<g id="edge45" class="edge">
<title>Node28&#45;&gt;Node6</title>
<path fill="none" stroke="midnightblue" d="M920.54,-251.8C923.03,-226.62 926.64,-152.88 889.5,-112 863.43,-83.3 819.69,-72.66 786.51,-68.84"/>
<polygon fill="midnightblue" stroke="midnightblue" points="786.43,-65.31 776.14,-67.82 785.75,-72.28 786.43,-65.31"/>
</g>
<!-- Node28&#45;&gt;Node12 -->
<g id="edge46" class="edge">
<title>Node28&#45;&gt;Node12</title>
<path fill="none" stroke="midnightblue" d="M917.62,-251.99C911.41,-226.02 888.91,-147.43 837.5,-112 794.77,-82.55 646.05,-72.14 568.07,-68.65"/>
<polygon fill="midnightblue" stroke="midnightblue" points="568.15,-65.15 558.01,-68.22 567.85,-72.14 568.15,-65.15"/>
</g>
<!-- Node28&#45;&gt;Node22 -->
<g id="edge47" class="edge">
<title>Node28&#45;&gt;Node22</title>
<path fill="none" stroke="midnightblue" d="M888.16,-251.87C851.6,-241.8 790.3,-224.91 744.3,-212.24"/>
<polygon fill="midnightblue" stroke="midnightblue" points="745,-208.81 734.43,-209.53 743.14,-215.56 745,-208.81"/>
</g>
<!-- Node28&#45;&gt;Node26 -->
<g id="edge43" class="edge">
<title>Node28&#45;&gt;Node26</title>
<path fill="none" stroke="midnightblue" d="M926.38,-251.73C934.33,-241.6 947.6,-224.69 957.51,-212.06"/>
<polygon fill="midnightblue" stroke="midnightblue" points="960.31,-214.16 963.73,-204.13 954.8,-209.83 960.31,-214.16"/>
</g>
</g>
</svg>
        <g id="navigator" transform="translate(0 0)" fill="#404254">
                <rect fill="#f2f5e9" fill-opacity="0.5" stroke="#606060" stroke-width=".5" x="0" y="0" width="60" height="60"/>
                <use id="zoomplus" xlink:href="#zoomPlus" x="17" y="9" onmousedown="handleZoom(evt,'in')"/>
                <use id="zoomminus" xlink:href="#zoomMin" x="42" y="9" onmousedown="handleZoom(evt,'out')"/>
                <use id="reset" xlink:href="#resetDef" x="30" y="36" onmousedown="handleReset()"/>
                <g id="arrowUp" xlink:href="#dirArrow" transform="translate(30 24)" onmousedown="handlePan(0,-1)">
                  <use xlink:href="#rim" fill="#404040">
                        <set attributeName="fill" to="#808080" begin="arrowUp.mouseover" end="arrowUp.mouseout"/>
                  </use>
                  <path fill="none" stroke="white" stroke-width="1.5" d="M0,-3.0v7 M-2.5,-0.5L0,-3.0L2.5,-0.5"/>
                </g>
                <g id="arrowRight" xlink:href="#dirArrow" transform="rotate(90) translate(36 -43)" onmousedown="handlePan(1,0)">
                  <use xlink:href="#rim" fill="#404040">
                        <set attributeName="fill" to="#808080" begin="arrowRight.mouseover" end="arrowRight.mouseout"/>
                  </use>
                  <path fill="none" stroke="white" stroke-width="1.5" d="M0,-3.0v7 M-2.5,-0.5L0,-3.0L2.5,-0.5"/>
                </g>
                <g id="arrowDown" xlink:href="#dirArrow" transform="rotate(180) translate(-30 -48)" onmousedown="handlePan(0,1)">
                  <use xlink:href="#rim" fill="#404040">
                        <set attributeName="fill" to="#808080" begin="arrowDown.mouseover" end="arrowDown.mouseout"/>
                  </use>
                  <path fill="none" stroke="white" stroke-width="1.5" d="M0,-3.0v7 M-2.5,-0.5L0,-3.0L2.5,-0.5"/>
                </g>
                <g id="arrowLeft" xlink:href="#dirArrow" transform="rotate(270) translate(-36 17)" onmousedown="handlePan(-1,0)">
                  <use xlink:href="#rim" fill="#404040">
                        <set attributeName="fill" to="#808080" begin="arrowLeft.mouseover" end="arrowLeft.mouseout"/>
                  </use>
                  <path fill="none" stroke="white" stroke-width="1.5" d="M0,-3.0v7 M-2.5,-0.5L0,-3.0L2.5,-0.5"/>
                </g>
        </g>
        <svg viewBox="0 0 15 15" width="100%" height="30px" preserveAspectRatio="xMaxYMin meet">
         <g id="arrow_out" transform="scale(0.3 0.3)">
          <a xlink:href="transform__by__pos_8hpp__incl_org.svg" target="_base">
           <rect id="button" ry="5" rx="5" y="6" x="6" height="38" width="38"
                fill="#f2f5e9" fill-opacity="0.5" stroke="#606060" stroke-width="1.0"/>
           <path id="arrow"
             d="M 11.500037,31.436501 C 11.940474,20.09759 22.043105,11.32322 32.158766,21.979434 L 37.068811,17.246167 C 37.068811,17.246167 37.088388,32 37.088388,32 L 22.160133,31.978069 C 22.160133,31.978069 26.997745,27.140456 26.997745,27.140456 C 18.528582,18.264221 13.291696,25.230495 11.500037,31.436501 z"
             style="fill:#404040;"/>
          </a>
         </g>
        </svg>
</svg>
