<?xml version="1.0" encoding="UTF-8" standalone="no"?>
<!DOCTYPE svg PUBLIC "-//W3C//DTD SVG 1.1//EN"
 "http://www.w3.org/Graphics/SVG/1.1/DTD/svg11.dtd">
<!-- Generated by graphviz version 2.43.0 (0)
 -->
<!-- Title: bio/meta/concept/tuple.hpp Pages: 1 -->
<!--zoomable 610 -->
<svg id="main" version="1.1" xmlns="http://www.w3.org/2000/svg" xmlns:xlink="http://www.w3.org/1999/xlink" xml:space="preserve" onload="init(evt)">
<style type="text/css"><![CDATA[
.edge:hover path { stroke: red; }
.edge:hover polygon { stroke: red; fill: red; }
]]></style>
<script type="text/javascript"><![CDATA[
var edges = document.getElementsByTagName('g');
if (edges && edges.length) {
  for (var i=0;i<edges.length;i++) {
    if (edges[i].id.substr(0,4)=='edge') {
      edges[i].setAttribute('class','edge');
    }
  }
}
]]></script>
        <defs>
                <circle id="rim" cx="0" cy="0" r="7"/>
                <circle id="rim2" cx="0" cy="0" r="3.5"/>
                <g id="zoomPlus">
                        <use xlink:href="#rim" fill="#404040">
                                <set attributeName="fill" to="#808080" begin="zoomplus.mouseover" end="zoomplus.mouseout"/>
                        </use>
                        <path d="M-4,0h8M0,-4v8" fill="none" stroke="white" stroke-width="1.5" pointer-events="none"/>
                </g>
                <g id="zoomMin">
                        <use xlink:href="#rim" fill="#404040">
                                <set attributeName="fill" to="#808080" begin="zoomminus.mouseover" end="zoomminus.mouseout"/>
                        </use>
                        <path d="M-4,0h8" fill="none" stroke="white" stroke-width="1.5" pointer-events="none"/>
                </g>
                <g id="dirArrow">
                        <path fill="none" stroke="white" stroke-width="1.5" d="M0,-3.0v7 M-2.5,-0.5L0,-3.0L2.5,-0.5"/>
                </g>
               <g id="resetDef">
                       <use xlink:href="#rim2" fill="#404040">
                               <set attributeName="fill" to="#808080" begin="reset.mouseover" end="reset.mouseout"/>
                       </use>
               </g>
        </defs>

<script type="text/javascript">
var viewWidth = 634;
var viewHeight = 610;
var sectionId = 'dynsection-0';
</script>
<script xlink:href="svgpan.js"/>
<svg id="graph" class="graph">
<g id="viewport">
<title>bio/meta/concept/tuple.hpp</title>
<!-- Node1 -->
<g id="node1" class="node">
<title>Node1</title>
<g id="a_node1"><a xlink:title="Provides bio::meta::tuple_like.">
<polygon fill="#999999" stroke="#666666" points="342,-602 208,-602 208,-583 342,-583 342,-602"/>
<text text-anchor="middle" x="275" y="-590" font-family="Helvetica,sans-Serif" font-size="10.00">bio/meta/concept/tuple.hpp</text>
</a>
</g>
</g>
<!-- Node2 -->
<g id="node2" class="node">
<title>Node2</title>
<g id="a_node2"><a target="_blank" xlink:href="https://en.cppreference.com/w/cpp/header/concepts.html" xlink:title=" ">
<polygon fill="white" stroke="#666666" points="495,-206 439,-206 439,-187 495,-187 495,-206"/>
<text text-anchor="middle" x="467" y="-194" font-family="Helvetica,sans-Serif" font-size="10.00">concepts</text>
</a>
</g>
</g>
<!-- Node1&#45;&gt;Node2 -->
<g id="edge1" class="edge">
<title>Node1&#45;&gt;Node2</title>
<path fill="none" stroke="#63b8ff" d="M321.47,-582.91C378.86,-569.31 469,-536.83 469,-467 469,-467 469,-467 469,-333 469,-291.38 468.04,-242.58 467.45,-216.39"/>
<polygon fill="#63b8ff" stroke="#63b8ff" points="470.95,-215.98 467.21,-206.06 463.95,-216.14 470.95,-215.98"/>
</g>
<!-- Node3 -->
<g id="node3" class="node">
<title>Node3</title>
<g id="a_node3"><a target="_blank" xlink:href="https://en.cppreference.com/w/cpp/header/tuple.html" xlink:title=" ">
<polygon fill="white" stroke="#666666" points="258,-475.5 220,-475.5 220,-456.5 258,-456.5 258,-475.5"/>
<text text-anchor="middle" x="239" y="-463.5" font-family="Helvetica,sans-Serif" font-size="10.00">tuple</text>
</a>
</g>
</g>
<!-- Node1&#45;&gt;Node3 -->
<g id="edge2" class="edge">
<title>Node1&#45;&gt;Node3</title>
<path fill="none" stroke="#63b8ff" d="M254.8,-582.91C240.53,-575.64 222.49,-563.71 214,-547 203.64,-526.61 215.42,-501.11 226.06,-484.45"/>
<polygon fill="#63b8ff" stroke="#63b8ff" points="229.25,-486 232.02,-475.77 223.48,-482.04 229.25,-486"/>
</g>
<!-- Node4 -->
<g id="node4" class="node">
<title>Node4</title>
<g id="a_node4"><a target="_blank" xlink:href="https://en.cppreference.com/w/cpp/header/type_traits.html" xlink:title=" ">
<polygon fill="white" stroke="#666666" points="318,-74 256,-74 256,-55 318,-55 318,-74"/>
<text text-anchor="middle" x="287" y="-62" font-family="Helvetica,sans-Serif" font-size="10.00">type_traits</text>
</a>
</g>
</g>
<!-- Node1&#45;&gt;Node4 -->
<g id="edge3" class="edge">
<title>Node1&#45;&gt;Node4</title>
<path fill="none" stroke="#63b8ff" d="M207.84,-585.44C147.98,-578.86 65.92,-566.59 40,-547 8.29,-523.03 0,-506.75 0,-467 0,-467 0,-467 0,-195.5 0,-88.97 166.11,-69.29 245.58,-65.97"/>
<polygon fill="#63b8ff" stroke="#63b8ff" points="245.87,-69.46 255.74,-65.62 245.62,-62.47 245.87,-69.46"/>
</g>
<!-- Node5 -->
<g id="node5" class="node">
<title>Node5</title>
<g id="a_node5"><a xlink:href="pod__tuple_8hpp.html" target="_top" xlink:title="Provides bio::meta::pod_tuple.">
<polygon fill="white" stroke="#666666" points="167,-541.5 49,-541.5 49,-522.5 167,-522.5 167,-541.5"/>
<text text-anchor="middle" x="108" y="-529.5" font-family="Helvetica,sans-Serif" font-size="10.00">bio/meta/pod_tuple.hpp</text>
</a>
</g>
</g>
<!-- Node1&#45;&gt;Node5 -->
<g id="edge4" class="edge">
<title>Node1&#45;&gt;Node5</title>
<path fill="none" stroke="#63b8ff" d="M250.72,-582.99C222.02,-572.94 174.11,-556.16 141.8,-544.84"/>
<polygon fill="#63b8ff" stroke="#63b8ff" points="142.91,-541.52 132.31,-541.52 140.59,-548.13 142.91,-541.52"/>
</g>
<!-- Node10 -->
<g id="node10" class="node">
<title>Node10</title>
<g id="a_node10"><a xlink:href="type__list_8hpp.html" target="_top" xlink:title="Provides bio::meta::type_list.">
<polygon fill="white" stroke="#666666" points="274,-349 180,-349 180,-319 274,-319 274,-349"/>
<text text-anchor="start" x="188" y="-337" font-family="Helvetica,sans-Serif" font-size="10.00">bio/meta/type_list</text>
<text text-anchor="middle" x="227" y="-326" font-family="Helvetica,sans-Serif" font-size="10.00">/type_list.hpp</text>
</a>
</g>
</g>
<!-- Node1&#45;&gt;Node10 -->
<g id="edge25" class="edge">
<title>Node1&#45;&gt;Node10</title>
<path fill="none" stroke="#63b8ff" d="M295.2,-582.91C309.47,-575.64 327.51,-563.71 336,-547 342.04,-535.11 339.55,-529.85 336,-517 318.43,-453.46 272.14,-389.79 245.88,-357.24"/>
<polygon fill="#63b8ff" stroke="#63b8ff" points="248.4,-354.8 239.36,-349.29 242.99,-359.24 248.4,-354.8"/>
</g>
<!-- Node11 -->
<g id="node11" class="node">
<title>Node11</title>
<g id="a_node11"><a xlink:href="template__inspection_8hpp.html" target="_top" xlink:title="Provides various traits to inspect templates.">
<polygon fill="white" stroke="#666666" points="440.5,-283 315.5,-283 315.5,-253 440.5,-253 440.5,-283"/>
<text text-anchor="start" x="323.5" y="-271" font-family="Helvetica,sans-Serif" font-size="10.00">bio/meta/type_traits</text>
<text text-anchor="middle" x="378" y="-260" font-family="Helvetica,sans-Serif" font-size="10.00">/template_inspection.hpp</text>
</a>
</g>
</g>
<!-- Node1&#45;&gt;Node11 -->
<g id="edge33" class="edge">
<title>Node1&#45;&gt;Node11</title>
<path fill="none" stroke="#63b8ff" d="M296.5,-582.86C313.03,-575.35 335.58,-563.15 351,-547 378.73,-517.96 393,-507.16 393,-467 393,-467 393,-467 393,-399 393,-362.02 386.94,-319.52 382.52,-293.46"/>
<polygon fill="#63b8ff" stroke="#63b8ff" points="385.93,-292.61 380.75,-283.37 379.03,-293.82 385.93,-292.61"/>
</g>
<!-- Node19 -->
<g id="node19" class="node">
<title>Node19</title>
<g id="a_node19"><a xlink:href="basic_8hpp.html" target="_top" xlink:title="Provides various type traits on generic types.">
<polygon fill="white" stroke="#666666" points="326.5,-547 223.5,-547 223.5,-517 326.5,-517 326.5,-547"/>
<text text-anchor="start" x="231.5" y="-535" font-family="Helvetica,sans-Serif" font-size="10.00">bio/meta/type_traits</text>
<text text-anchor="middle" x="275" y="-524" font-family="Helvetica,sans-Serif" font-size="10.00">/basic.hpp</text>
</a>
</g>
</g>
<!-- Node1&#45;&gt;Node19 -->
<g id="edge26" class="edge">
<title>Node1&#45;&gt;Node19</title>
<path fill="none" stroke="#63b8ff" d="M275,-582.87C275,-576.11 275,-566.35 275,-557.26"/>
<polygon fill="#63b8ff" stroke="#63b8ff" points="278.5,-557.11 275,-547.11 271.5,-557.11 278.5,-557.11"/>
</g>
<!-- Node5&#45;&gt;Node3 -->
<g id="edge5" class="edge">
<title>Node5&#45;&gt;Node3</title>
<path fill="none" stroke="#63b8ff" d="M125.89,-522.39C146.46,-512.48 181.22,-495.67 211,-481 211.55,-480.73 212.1,-480.46 212.66,-480.18"/>
<polygon fill="#63b8ff" stroke="#63b8ff" points="214.44,-483.2 221.84,-475.62 211.33,-476.94 214.44,-483.2"/>
</g>
<!-- Node6 -->
<g id="node6" class="node">
<title>Node6</title>
<g id="a_node6"><a xlink:title=" ">
<polygon fill="#e0e0e0" stroke="#999999" points="90,-475.5 28,-475.5 28,-456.5 90,-456.5 90,-475.5"/>
<text text-anchor="middle" x="59" y="-463.5" font-family="Helvetica,sans-Serif" font-size="10.00">type_traits</text>
</a>
</g>
</g>
<!-- Node5&#45;&gt;Node6 -->
<g id="edge6" class="edge">
<title>Node5&#45;&gt;Node6</title>
<path fill="none" stroke="#63b8ff" d="M101.39,-522.37C93.91,-512.59 81.53,-496.42 72.07,-484.08"/>
<polygon fill="#63b8ff" stroke="#63b8ff" points="74.68,-481.72 65.82,-475.91 69.12,-485.97 74.68,-481.72"/>
</g>
<!-- Node7 -->
<g id="node7" class="node">
<title>Node7</title>
<g id="a_node7"><a xlink:href="traits_8hpp.html" target="_top" xlink:title="Provides traits for meta::type_list.">
<polygon fill="white" stroke="#666666" points="202,-481 108,-481 108,-451 202,-451 202,-481"/>
<text text-anchor="start" x="116" y="-469" font-family="Helvetica,sans-Serif" font-size="10.00">bio/meta/type_list</text>
<text text-anchor="middle" x="155" y="-458" font-family="Helvetica,sans-Serif" font-size="10.00">/traits.hpp</text>
</a>
</g>
</g>
<!-- Node5&#45;&gt;Node7 -->
<g id="edge7" class="edge">
<title>Node5&#45;&gt;Node7</title>
<path fill="none" stroke="#63b8ff" d="M114.34,-522.37C120.49,-513.99 130.09,-500.93 138.41,-489.59"/>
<polygon fill="#63b8ff" stroke="#63b8ff" points="141.36,-491.49 144.45,-481.36 135.71,-487.35 141.36,-491.49"/>
</g>
<!-- Node7&#45;&gt;Node4 -->
<g id="edge8" class="edge">
<title>Node7&#45;&gt;Node4</title>
<path fill="none" stroke="#63b8ff" d="M154.46,-450.96C153.6,-427.12 152,-377.22 152,-335 152,-335 152,-335 152,-195.5 152,-137.79 216.81,-97.64 256.62,-78.42"/>
<polygon fill="#63b8ff" stroke="#63b8ff" points="258.32,-81.49 265.91,-74.1 255.36,-75.15 258.32,-81.49"/>
</g>
<!-- Node8 -->
<g id="node8" class="node">
<title>Node8</title>
<g id="a_node8"><a xlink:href="traits__detail_8hpp.html" target="_top" xlink:title="Provides various traits for template packs.">
<polygon fill="white" stroke="#666666" points="124,-415 30,-415 30,-385 124,-385 124,-415"/>
<text text-anchor="start" x="38" y="-403" font-family="Helvetica,sans-Serif" font-size="10.00">bio/meta/type_list</text>
<text text-anchor="middle" x="77" y="-392" font-family="Helvetica,sans-Serif" font-size="10.00">/traits_detail.hpp</text>
</a>
</g>
</g>
<!-- Node7&#45;&gt;Node8 -->
<g id="edge9" class="edge">
<title>Node7&#45;&gt;Node8</title>
<path fill="none" stroke="#63b8ff" d="M137.69,-450.8C127.29,-442.26 113.87,-431.25 102.29,-421.75"/>
<polygon fill="#63b8ff" stroke="#63b8ff" points="104.21,-418.8 94.26,-415.16 99.77,-424.21 104.21,-418.8"/>
</g>
<!-- Node7&#45;&gt;Node10 -->
<g id="edge24" class="edge">
<title>Node7&#45;&gt;Node10</title>
<path fill="none" stroke="#63b8ff" d="M162.84,-450.84C175.18,-428.57 199.24,-385.13 214.13,-358.23"/>
<polygon fill="#63b8ff" stroke="#63b8ff" points="217.38,-359.59 219.17,-349.14 211.26,-356.19 217.38,-359.59"/>
</g>
<!-- Node8&#45;&gt;Node4 -->
<g id="edge10" class="edge">
<title>Node8&#45;&gt;Node4</title>
<path fill="none" stroke="#63b8ff" d="M73.15,-384.69C67.09,-360.88 56,-311.52 56,-269 56,-269 56,-269 56,-195.5 56,-109.45 179.25,-79.75 245.7,-69.99"/>
<polygon fill="#63b8ff" stroke="#63b8ff" points="246.42,-73.42 255.85,-68.59 245.46,-66.49 246.42,-73.42"/>
</g>
<!-- Node9 -->
<g id="node9" class="node">
<title>Node9</title>
<g id="a_node9"><a target="_blank" xlink:href="https://en.cppreference.com/w/cpp/header/utility.html" xlink:title=" ">
<polygon fill="white" stroke="#666666" points="124,-343.5 84,-343.5 84,-324.5 124,-324.5 124,-343.5"/>
<text text-anchor="middle" x="104" y="-331.5" font-family="Helvetica,sans-Serif" font-size="10.00">utility</text>
</a>
</g>
</g>
<!-- Node8&#45;&gt;Node9 -->
<g id="edge11" class="edge">
<title>Node8&#45;&gt;Node9</title>
<path fill="none" stroke="#63b8ff" d="M82.99,-384.8C86.91,-375.5 92.07,-363.27 96.3,-353.26"/>
<polygon fill="#63b8ff" stroke="#63b8ff" points="99.61,-354.42 100.27,-343.84 93.16,-351.7 99.61,-354.42"/>
</g>
<!-- Node8&#45;&gt;Node10 -->
<g id="edge12" class="edge">
<title>Node8&#45;&gt;Node10</title>
<path fill="none" stroke="#63b8ff" d="M109.92,-384.95C131.9,-375.58 161.01,-363.16 184.71,-353.05"/>
<polygon fill="#63b8ff" stroke="#63b8ff" points="186.33,-356.16 194.16,-349.01 183.59,-349.72 186.33,-356.16"/>
</g>
<!-- Node10&#45;&gt;Node11 -->
<g id="edge13" class="edge">
<title>Node10&#45;&gt;Node11</title>
<path fill="none" stroke="#63b8ff" d="M260.14,-318.95C282.27,-309.58 311.57,-297.16 335.42,-287.05"/>
<polygon fill="#63b8ff" stroke="#63b8ff" points="337.1,-290.14 344.94,-283.01 334.37,-283.69 337.1,-290.14"/>
</g>
<!-- Node11&#45;&gt;Node2 -->
<g id="edge14" class="edge">
<title>Node11&#45;&gt;Node2</title>
<path fill="none" stroke="#63b8ff" d="M396.01,-252.94C410.96,-241.26 432.17,-224.7 447.51,-212.72"/>
<polygon fill="#63b8ff" stroke="#63b8ff" points="450.05,-215.18 455.77,-206.27 445.74,-209.66 450.05,-215.18"/>
</g>
<!-- Node12 -->
<g id="node12" class="node">
<title>Node12</title>
<g id="a_node12"><a xlink:href="transformation__trait__or_8hpp.html" target="_top" xlink:title="Provides bio::meta::transformation_trait_or.">
<polygon fill="white" stroke="#666666" points="421,-217 317,-217 317,-176 421,-176 421,-217"/>
<text text-anchor="start" x="325" y="-205" font-family="Helvetica,sans-Serif" font-size="10.00">bio/meta/type_traits</text>
<text text-anchor="start" x="325" y="-194" font-family="Helvetica,sans-Serif" font-size="10.00">/transformation_trait</text>
<text text-anchor="middle" x="369" y="-183" font-family="Helvetica,sans-Serif" font-size="10.00">_or.hpp</text>
</a>
</g>
</g>
<!-- Node11&#45;&gt;Node12 -->
<g id="edge15" class="edge">
<title>Node11&#45;&gt;Node12</title>
<path fill="none" stroke="#63b8ff" d="M376.18,-252.94C375.22,-245.52 374,-236.14 372.85,-227.2"/>
<polygon fill="#63b8ff" stroke="#63b8ff" points="376.29,-226.54 371.53,-217.07 369.35,-227.44 376.29,-226.54"/>
</g>
<!-- Node12&#45;&gt;Node4 -->
<g id="edge16" class="edge">
<title>Node12&#45;&gt;Node4</title>
<path fill="none" stroke="#63b8ff" d="M356.55,-175.76C340.56,-150.41 313.08,-106.84 297.89,-82.76"/>
<polygon fill="#63b8ff" stroke="#63b8ff" points="300.66,-80.6 292.37,-74.01 294.74,-84.34 300.66,-80.6"/>
</g>
<!-- Node13 -->
<g id="node13" class="node">
<title>Node13</title>
<g id="a_node13"><a xlink:href="meta_2type__traits_2concept_8hpp.html" target="_top" xlink:title="Provides the concepts bio::meta::transformation_trait and bio::meta::unary_type_trait.">
<polygon fill="white" stroke="#666666" points="456.5,-140 353.5,-140 353.5,-110 456.5,-110 456.5,-140"/>
<text text-anchor="start" x="361.5" y="-128" font-family="Helvetica,sans-Serif" font-size="10.00">bio/meta/type_traits</text>
<text text-anchor="middle" x="405" y="-117" font-family="Helvetica,sans-Serif" font-size="10.00">/concept.hpp</text>
</a>
</g>
</g>
<!-- Node12&#45;&gt;Node13 -->
<g id="edge17" class="edge">
<title>Node12&#45;&gt;Node13</title>
<path fill="none" stroke="#63b8ff" d="M379.22,-175.77C383.51,-167.49 388.53,-157.8 392.99,-149.18"/>
<polygon fill="#63b8ff" stroke="#63b8ff" points="396.24,-150.53 397.73,-140.04 390.02,-147.31 396.24,-150.53"/>
</g>
<!-- Node13&#45;&gt;Node4 -->
<g id="edge18" class="edge">
<title>Node13&#45;&gt;Node4</title>
<path fill="none" stroke="#63b8ff" d="M376.74,-109.99C357.58,-100.49 332.42,-88.02 313.61,-78.69"/>
<polygon fill="#63b8ff" stroke="#63b8ff" points="314.94,-75.45 304.43,-74.14 311.83,-81.72 314.94,-75.45"/>
</g>
<!-- Node14 -->
<g id="node14" class="node">
<title>Node14</title>
<g id="a_node14"><a xlink:href="core_8hpp.html" target="_top" xlink:title="Provides platform and dependency checks.">
<polygon fill="white" stroke="#666666" points="518,-74 448,-74 448,-55 518,-55 518,-74"/>
<text text-anchor="middle" x="483" y="-62" font-family="Helvetica,sans-Serif" font-size="10.00">bio/core.hpp</text>
</a>
</g>
</g>
<!-- Node13&#45;&gt;Node14 -->
<g id="edge19" class="edge">
<title>Node13&#45;&gt;Node14</title>
<path fill="none" stroke="#63b8ff" d="M423.88,-109.84C435.78,-100.91 451.12,-89.41 463.2,-80.35"/>
<polygon fill="#63b8ff" stroke="#63b8ff" points="465.41,-83.07 471.31,-74.27 461.21,-77.47 465.41,-83.07"/>
</g>
<!-- Node15 -->
<g id="node15" class="node">
<title>Node15</title>
<g id="a_node15"><a target="_blank" xlink:href="https://en.cppreference.com/w/cpp/header/cinttypes.html" xlink:title=" ">
<polygon fill="white" stroke="#666666" points="406,-19 350,-19 350,0 406,0 406,-19"/>
<text text-anchor="middle" x="378" y="-7" font-family="Helvetica,sans-Serif" font-size="10.00">cinttypes</text>
</a>
</g>
</g>
<!-- Node14&#45;&gt;Node15 -->
<g id="edge20" class="edge">
<title>Node14&#45;&gt;Node15</title>
<path fill="none" stroke="#63b8ff" d="M466.13,-54.98C449.39,-46.54 423.5,-33.47 404.11,-23.68"/>
<polygon fill="#63b8ff" stroke="#63b8ff" points="405.68,-20.55 395.18,-19.17 402.53,-26.8 405.68,-20.55"/>
</g>
<!-- Node16 -->
<g id="node16" class="node">
<title>Node16</title>
<g id="a_node16"><a target="_blank" xlink:href="https://en.cppreference.com/w/cpp/header/ciso646.html" xlink:title=" ">
<polygon fill="white" stroke="#666666" points="474,-19 424,-19 424,0 474,0 474,-19"/>
<text text-anchor="middle" x="449" y="-7" font-family="Helvetica,sans-Serif" font-size="10.00">ciso646</text>
</a>
</g>
</g>
<!-- Node14&#45;&gt;Node16 -->
<g id="edge21" class="edge">
<title>Node14&#45;&gt;Node16</title>
<path fill="none" stroke="#63b8ff" d="M477.39,-54.75C472.68,-47.42 465.83,-36.73 460.03,-27.7"/>
<polygon fill="#63b8ff" stroke="#63b8ff" points="462.86,-25.62 454.51,-19.09 456.96,-29.4 462.86,-25.62"/>
</g>
<!-- Node17 -->
<g id="node17" class="node">
<title>Node17</title>
<g id="a_node17"><a target="_blank" xlink:href="https://en.cppreference.com/w/cpp/header/cstddef.html" xlink:title=" ">
<polygon fill="white" stroke="#666666" points="541.5,-19 492.5,-19 492.5,0 541.5,0 541.5,-19"/>
<text text-anchor="middle" x="517" y="-7" font-family="Helvetica,sans-Serif" font-size="10.00">cstddef</text>
</a>
</g>
</g>
<!-- Node14&#45;&gt;Node17 -->
<g id="edge22" class="edge">
<title>Node14&#45;&gt;Node17</title>
<path fill="none" stroke="#63b8ff" d="M488.61,-54.75C493.32,-47.42 500.17,-36.73 505.97,-27.7"/>
<polygon fill="#63b8ff" stroke="#63b8ff" points="509.04,-29.4 511.49,-19.09 503.14,-25.62 509.04,-29.4"/>
</g>
<!-- Node18 -->
<g id="node18" class="node">
<title>Node18</title>
<g id="a_node18"><a target="_blank" xlink:href="https://en.cppreference.com/w/cpp/header/string_view.html" xlink:title=" ">
<polygon fill="white" stroke="#666666" points="626,-19 560,-19 560,0 626,0 626,-19"/>
<text text-anchor="middle" x="593" y="-7" font-family="Helvetica,sans-Serif" font-size="10.00">string_view</text>
</a>
</g>
</g>
<!-- Node14&#45;&gt;Node18 -->
<g id="edge23" class="edge">
<title>Node14&#45;&gt;Node18</title>
<path fill="none" stroke="#63b8ff" d="M500.67,-54.98C518.29,-46.5 545.58,-33.35 565.93,-23.54"/>
<polygon fill="#63b8ff" stroke="#63b8ff" points="567.52,-26.66 575.01,-19.17 564.48,-20.36 567.52,-26.66"/>
</g>
<!-- Node19&#45;&gt;Node3 -->
<g id="edge27" class="edge">
<title>Node19&#45;&gt;Node3</title>
<path fill="none" stroke="#63b8ff" d="M267.01,-516.8C261.67,-507.31 254.61,-494.76 248.92,-484.63"/>
<polygon fill="#63b8ff" stroke="#63b8ff" points="251.93,-482.84 243.97,-475.84 245.83,-486.28 251.93,-482.84"/>
</g>
<!-- Node19&#45;&gt;Node4 -->
<g id="edge28" class="edge">
<title>Node19&#45;&gt;Node4</title>
<path fill="none" stroke="#63b8ff" d="M275.77,-516.85C277.39,-486.24 281.18,-411.6 283,-349 285.89,-249.42 286.71,-130.11 286.93,-84.49"/>
<polygon fill="#63b8ff" stroke="#63b8ff" points="290.43,-84.34 286.97,-74.32 283.43,-84.31 290.43,-84.34"/>
</g>
<!-- Node20 -->
<g id="node20" class="node">
<title>Node20</title>
<g id="a_node20"><a xlink:href="core__language_8hpp.html" target="_top" xlink:title="Provides concepts for core language types and relations that don&#39;t have concepts in C++20 (yet).">
<polygon fill="white" stroke="#666666" points="610.5,-283 497.5,-283 497.5,-253 610.5,-253 610.5,-283"/>
<text text-anchor="start" x="505.5" y="-271" font-family="Helvetica,sans-Serif" font-size="10.00">bio/meta/concept/core</text>
<text text-anchor="middle" x="554" y="-260" font-family="Helvetica,sans-Serif" font-size="10.00">_language.hpp</text>
</a>
</g>
</g>
<!-- Node19&#45;&gt;Node20 -->
<g id="edge29" class="edge">
<title>Node19&#45;&gt;Node20</title>
<path fill="none" stroke="#63b8ff" d="M290,-516.91C336.17,-473.55 476.36,-341.91 531.44,-290.19"/>
<polygon fill="#63b8ff" stroke="#63b8ff" points="534.03,-292.55 538.93,-283.16 529.24,-287.45 534.03,-292.55"/>
</g>
<!-- Node20&#45;&gt;Node2 -->
<g id="edge30" class="edge">
<title>Node20&#45;&gt;Node2</title>
<path fill="none" stroke="#63b8ff" d="M536.39,-252.94C521.78,-241.26 501.05,-224.7 486.05,-212.72"/>
<polygon fill="#63b8ff" stroke="#63b8ff" points="487.97,-209.77 477.97,-206.27 483.6,-215.24 487.97,-209.77"/>
</g>
<!-- Node20&#45;&gt;Node4 -->
<g id="edge31" class="edge">
<title>Node20&#45;&gt;Node4</title>
<path fill="none" stroke="#63b8ff" d="M550.24,-252.68C541.29,-221.54 515.65,-147.43 466,-110 425.92,-79.78 367.8,-69.88 328.77,-66.75"/>
<polygon fill="#63b8ff" stroke="#63b8ff" points="328.51,-63.23 318.3,-66.04 328.04,-70.21 328.51,-63.23"/>
</g>
<!-- Node20&#45;&gt;Node14 -->
<g id="edge32" class="edge">
<title>Node20&#45;&gt;Node14</title>
<path fill="none" stroke="#63b8ff" d="M555.84,-252.96C558.92,-224.2 562.51,-157.29 537,-110 530.26,-97.51 518.44,-87.16 507.56,-79.59"/>
<polygon fill="#63b8ff" stroke="#63b8ff" points="509.46,-76.65 499.17,-74.13 505.64,-82.51 509.46,-76.65"/>
</g>
</g>
</svg>
        <g id="navigator" transform="translate(0 0)" fill="#404254">
                <rect fill="#f2f5e9" fill-opacity="0.5" stroke="#606060" stroke-width=".5" x="0" y="0" width="60" height="60"/>
                <use id="zoomplus" xlink:href="#zoomPlus" x="17" y="9" onmousedown="handleZoom(evt,'in')"/>
                <use id="zoomminus" xlink:href="#zoomMin" x="42" y="9" onmousedown="handleZoom(evt,'out')"/>
                <use id="reset" xlink:href="#resetDef" x="30" y="36" onmousedown="handleReset()"/>
                <g id="arrowUp" xlink:href="#dirArrow" transform="translate(30 24)" onmousedown="handlePan(0,-1)">
                  <use xlink:href="#rim" fill="#404040">
                        <set attributeName="fill" to="#808080" begin="arrowUp.mouseover" end="arrowUp.mouseout"/>
                  </use>
                  <path fill="none" stroke="white" stroke-width="1.5" d="M0,-3.0v7 M-2.5,-0.5L0,-3.0L2.5,-0.5"/>
                </g>
                <g id="arrowRight" xlink:href="#dirArrow" transform="rotate(90) translate(36 -43)" onmousedown="handlePan(1,0)">
                  <use xlink:href="#rim" fill="#404040">
                        <set attributeName="fill" to="#808080" begin="arrowRight.mouseover" end="arrowRight.mouseout"/>
                  </use>
                  <path fill="none" stroke="white" stroke-width="1.5" d="M0,-3.0v7 M-2.5,-0.5L0,-3.0L2.5,-0.5"/>
                </g>
                <g id="arrowDown" xlink:href="#dirArrow" transform="rotate(180) translate(-30 -48)" onmousedown="handlePan(0,1)">
                  <use xlink:href="#rim" fill="#404040">
                        <set attributeName="fill" to="#808080" begin="arrowDown.mouseover" end="arrowDown.mouseout"/>
                  </use>
                  <path fill="none" stroke="white" stroke-width="1.5" d="M0,-3.0v7 M-2.5,-0.5L0,-3.0L2.5,-0.5"/>
                </g>
                <g id="arrowLeft" xlink:href="#dirArrow" transform="rotate(270) translate(-36 17)" onmousedown="handlePan(-1,0)">
                  <use xlink:href="#rim" fill="#404040">
                        <set attributeName="fill" to="#808080" begin="arrowLeft.mouseover" end="arrowLeft.mouseout"/>
                  </use>
                  <path fill="none" stroke="white" stroke-width="1.5" d="M0,-3.0v7 M-2.5,-0.5L0,-3.0L2.5,-0.5"/>
                </g>
        </g>
        <svg viewBox="0 0 15 15" width="100%" height="30px" preserveAspectRatio="xMaxYMin meet">
         <g id="arrow_out" transform="scale(0.3 0.3)">
          <a xlink:href="tuple_8hpp__incl_org.svg" target="_base">
           <rect id="button" ry="5" rx="5" y="6" x="6" height="38" width="38"
                fill="#f2f5e9" fill-opacity="0.5" stroke="#606060" stroke-width="1.0"/>
           <path id="arrow"
             d="M 11.500037,31.436501 C 11.940474,20.09759 22.043105,11.32322 32.158766,21.979434 L 37.068811,17.246167 C 37.068811,17.246167 37.088388,32 37.088388,32 L 22.160133,31.978069 C 22.160133,31.978069 26.997745,27.140456 26.997745,27.140456 C 18.528582,18.264221 13.291696,25.230495 11.500037,31.436501 z"
             style="fill:#404040;"/>
          </a>
         </g>
        </svg>
</svg>
