<?xml version="1.0" encoding="UTF-8" standalone="no"?>
<!DOCTYPE svg PUBLIC "-//W3C//DTD SVG 1.1//EN"
 "http://www.w3.org/Graphics/SVG/1.1/DTD/svg11.dtd">
<!-- Generated by graphviz version 2.43.0 (0)
 -->
<!-- Title: bio/alphabet/composite/tuple_base.hpp Pages: 1 -->
<svg width="1606pt" height="564pt"
 viewBox="0.00 0.00 1606.05 564.00" xmlns="http://www.w3.org/2000/svg" xmlns:xlink="http://www.w3.org/1999/xlink">
<g id="graph0" class="graph" transform="scale(1 1) rotate(0) translate(4 560)">
<title>bio/alphabet/composite/tuple_base.hpp</title>
<polygon fill="white" stroke="transparent" points="-4,4 -4,-560 1602.05,-560 1602.05,4 -4,4"/>
<!-- Node1 -->
<g id="node1" class="node">
<title>Node1</title>
<g id="a_node1"><a xlink:title="Provides bio::alphabet::tuple_base.">
<polygon fill="#bfbfbf" stroke="black" points="1097.5,-525.5 1097.5,-555.5 1228.5,-555.5 1228.5,-525.5 1097.5,-525.5"/>
<text text-anchor="start" x="1105.5" y="-543.5" font-family="Helvetica,sans-Serif" font-size="10.00">bio/alphabet/composite</text>
<text text-anchor="middle" x="1163" y="-532.5" font-family="Helvetica,sans-Serif" font-size="10.00">/tuple_base.hpp</text>
</a>
</g>
</g>
<!-- Node2 -->
<g id="node2" class="node">
<title>Node2</title>
<g id="a_node2"><a target="_blank" xlink:href="https://en.cppreference.com/w/cpp/header/cassert.html" xlink:title=" ">
<polygon fill="white" stroke="black" points="409,-263 409,-282 461,-282 461,-263 409,-263"/>
<text text-anchor="middle" x="435" y="-270" font-family="Helvetica,sans-Serif" font-size="10.00">cassert</text>
</a>
</g>
</g>
<!-- Node1&#45;&gt;Node2 -->
<g id="edge1" class="edge">
<title>Node1&#45;&gt;Node2</title>
<path fill="none" stroke="midnightblue" d="M1097.11,-536.2C980.41,-529.8 742.22,-514.09 663,-489 605.14,-470.67 589.42,-462.26 544,-422 499.06,-382.17 461.4,-320.88 444.52,-291.03"/>
<polygon fill="midnightblue" stroke="midnightblue" points="447.53,-289.24 439.61,-282.2 441.41,-292.64 447.53,-289.24"/>
</g>
<!-- Node3 -->
<g id="node3" class="node">
<title>Node3</title>
<g id="a_node3"><a target="_blank" xlink:href="https://en.cppreference.com/w/cpp/header/concepts.html" xlink:title=" ">
<polygon fill="white" stroke="black" points="998,-56.5 998,-75.5 1058,-75.5 1058,-56.5 998,-56.5"/>
<text text-anchor="middle" x="1028" y="-63.5" font-family="Helvetica,sans-Serif" font-size="10.00">concepts</text>
</a>
</g>
</g>
<!-- Node1&#45;&gt;Node3 -->
<g id="edge2" class="edge">
<title>Node1&#45;&gt;Node3</title>
<path fill="none" stroke="midnightblue" d="M1223.6,-525.48C1275.8,-509.86 1347.94,-478.93 1382,-422 1405.05,-383.48 1462.39,-562.17 1349,-179 1339.74,-147.71 1344.94,-131.79 1319,-112 1299.35,-97.01 1143.3,-78.99 1068.16,-71.07"/>
<polygon fill="midnightblue" stroke="midnightblue" points="1068.43,-67.58 1058.12,-70.02 1067.7,-74.54 1068.43,-67.58"/>
</g>
<!-- Node4 -->
<g id="node4" class="node">
<title>Node4</title>
<g id="a_node4"><a target="_blank" xlink:href="https://en.cppreference.com/w/cpp/header/utility.html" xlink:title=" ">
<polygon fill="white" stroke="black" points="1474.5,-330 1474.5,-349 1519.5,-349 1519.5,-330 1474.5,-330"/>
<text text-anchor="middle" x="1497" y="-337" font-family="Helvetica,sans-Serif" font-size="10.00">utility</text>
</a>
</g>
</g>
<!-- Node1&#45;&gt;Node4 -->
<g id="edge3" class="edge">
<title>Node1&#45;&gt;Node4</title>
<path fill="none" stroke="midnightblue" d="M1228.73,-537.24C1323.48,-532.91 1492.7,-520.85 1544,-489 1584.72,-463.72 1613.41,-432.25 1589,-391 1576.18,-369.34 1550.41,-356.35 1529.4,-348.98"/>
<polygon fill="midnightblue" stroke="midnightblue" points="1530.44,-345.64 1519.85,-345.89 1528.28,-352.3 1530.44,-345.64"/>
</g>
<!-- Node5 -->
<g id="node5" class="node">
<title>Node5</title>
<g id="a_node5"><a xlink:href="base_8hpp.html" target="_top" xlink:title="Provides bio::alphabet::base.">
<polygon fill="white" stroke="black" points="669.5,-330 669.5,-349 794.5,-349 794.5,-330 669.5,-330"/>
<text text-anchor="middle" x="732" y="-337" font-family="Helvetica,sans-Serif" font-size="10.00">bio/alphabet/base.hpp</text>
</a>
</g>
</g>
<!-- Node1&#45;&gt;Node5 -->
<g id="edge4" class="edge">
<title>Node1&#45;&gt;Node5</title>
<path fill="none" stroke="midnightblue" d="M1097.42,-536.55C1012.05,-529.36 862.83,-504.88 770,-422 751.3,-405.3 741.11,-377.49 736.11,-359.07"/>
<polygon fill="midnightblue" stroke="midnightblue" points="739.48,-358.11 733.69,-349.23 732.68,-359.78 739.48,-358.11"/>
</g>
<!-- Node7 -->
<g id="node7" class="node">
<title>Node7</title>
<g id="a_node7"><a xlink:href="alphabet_2concept_8hpp.html" target="_top" xlink:title="Core alphabet concept and free function/type trait wrappers.">
<polygon fill="white" stroke="black" points="481,-263 481,-282 621,-282 621,-263 481,-263"/>
<text text-anchor="middle" x="551" y="-270" font-family="Helvetica,sans-Serif" font-size="10.00">bio/alphabet/concept.hpp</text>
</a>
</g>
</g>
<!-- Node1&#45;&gt;Node7 -->
<g id="edge53" class="edge">
<title>Node1&#45;&gt;Node7</title>
<path fill="none" stroke="midnightblue" d="M1097.26,-535.39C1026.6,-529.72 911.56,-516.85 816,-489 676.58,-448.37 596.87,-476.94 518,-355 504.59,-334.26 521.31,-307.18 535.43,-290.06"/>
<polygon fill="midnightblue" stroke="midnightblue" points="538.45,-291.93 542.41,-282.1 533.19,-287.32 538.45,-291.93"/>
</g>
<!-- Node26 -->
<g id="node26" class="node">
<title>Node26</title>
<g id="a_node26"><a xlink:href="alphabet_2composite_2detail_8hpp_source.html" target="_top" xlink:title=" ">
<polygon fill="white" stroke="black" points="778.5,-391.5 778.5,-421.5 909.5,-421.5 909.5,-391.5 778.5,-391.5"/>
<text text-anchor="start" x="786.5" y="-409.5" font-family="Helvetica,sans-Serif" font-size="10.00">bio/alphabet/composite</text>
<text text-anchor="middle" x="844" y="-398.5" font-family="Helvetica,sans-Serif" font-size="10.00">/detail.hpp</text>
</a>
</g>
</g>
<!-- Node1&#45;&gt;Node26 -->
<g id="edge42" class="edge">
<title>Node1&#45;&gt;Node26</title>
<path fill="none" stroke="midnightblue" d="M1129.16,-525.5C1070.9,-501.39 951.72,-452.07 887.42,-425.47"/>
<polygon fill="midnightblue" stroke="midnightblue" points="888.55,-422.15 877.97,-421.56 885.87,-428.61 888.55,-422.15"/>
</g>
<!-- Node27 -->
<g id="node27" class="node">
<title>Node27</title>
<g id="a_node27"><a xlink:href="type__list_8hpp.html" target="_top" xlink:title="Provides bio::meta::type_list.">
<polygon fill="white" stroke="black" points="1191.5,-324.5 1191.5,-354.5 1296.5,-354.5 1296.5,-324.5 1191.5,-324.5"/>
<text text-anchor="start" x="1199.5" y="-342.5" font-family="Helvetica,sans-Serif" font-size="10.00">bio/meta/type_list</text>
<text text-anchor="middle" x="1244" y="-331.5" font-family="Helvetica,sans-Serif" font-size="10.00">/type_list.hpp</text>
</a>
</g>
</g>
<!-- Node1&#45;&gt;Node27 -->
<g id="edge77" class="edge">
<title>Node1&#45;&gt;Node27</title>
<path fill="none" stroke="midnightblue" d="M1168.83,-525.19C1182.63,-491.27 1217.46,-405.72 1234.42,-364.04"/>
<polygon fill="midnightblue" stroke="midnightblue" points="1237.7,-365.26 1238.23,-354.68 1231.22,-362.62 1237.7,-365.26"/>
</g>
<!-- Node28 -->
<g id="node28" class="node">
<title>Node28</title>
<g id="a_node28"><a xlink:href="template__inspection_8hpp.html" target="_top" xlink:title="Provides various traits to inspect templates.">
<polygon fill="white" stroke="black" points="1115,-257.5 1115,-287.5 1255,-287.5 1255,-257.5 1115,-257.5"/>
<text text-anchor="start" x="1123" y="-275.5" font-family="Helvetica,sans-Serif" font-size="10.00">bio/meta/type_traits</text>
<text text-anchor="middle" x="1185" y="-264.5" font-family="Helvetica,sans-Serif" font-size="10.00">/template_inspection.hpp</text>
</a>
</g>
</g>
<!-- Node1&#45;&gt;Node28 -->
<g id="edge78" class="edge">
<title>Node1&#45;&gt;Node28</title>
<path fill="none" stroke="midnightblue" d="M1164.18,-525.2C1167.76,-481.89 1178.52,-351.82 1183.01,-297.62"/>
<polygon fill="midnightblue" stroke="midnightblue" points="1186.5,-297.8 1183.84,-287.55 1179.53,-297.23 1186.5,-297.8"/>
</g>
<!-- Node31 -->
<g id="node31" class="node">
<title>Node31</title>
<g id="a_node31"><a xlink:href="proxy__base_8hpp.html" target="_top" xlink:title="Provides bio::alphabet::proxy_base.">
<polygon fill="white" stroke="black" points="935,-391.5 935,-421.5 1043,-421.5 1043,-391.5 935,-391.5"/>
<text text-anchor="start" x="943" y="-409.5" font-family="Helvetica,sans-Serif" font-size="10.00">bio/alphabet/proxy</text>
<text text-anchor="middle" x="989" y="-398.5" font-family="Helvetica,sans-Serif" font-size="10.00">_base.hpp</text>
</a>
</g>
</g>
<!-- Node1&#45;&gt;Node31 -->
<g id="edge54" class="edge">
<title>Node1&#45;&gt;Node31</title>
<path fill="none" stroke="midnightblue" d="M1144.38,-525.37C1113.37,-501.85 1051.07,-454.59 1015.5,-427.6"/>
<polygon fill="midnightblue" stroke="midnightblue" points="1017.57,-424.78 1007.49,-421.52 1013.34,-430.36 1017.57,-424.78"/>
</g>
<!-- Node34 -->
<g id="node34" class="node">
<title>Node34</title>
<g id="a_node34"><a xlink:href="function_8hpp.html" target="_top" xlink:title="Provides algorithms for meta programming, parameter packs and bio::meta::type_list.">
<polygon fill="white" stroke="black" points="1267.5,-391.5 1267.5,-421.5 1372.5,-421.5 1372.5,-391.5 1267.5,-391.5"/>
<text text-anchor="start" x="1275.5" y="-409.5" font-family="Helvetica,sans-Serif" font-size="10.00">bio/meta/type_list</text>
<text text-anchor="middle" x="1320" y="-398.5" font-family="Helvetica,sans-Serif" font-size="10.00">/function.hpp</text>
</a>
</g>
</g>
<!-- Node1&#45;&gt;Node34 -->
<g id="edge65" class="edge">
<title>Node1&#45;&gt;Node34</title>
<path fill="none" stroke="midnightblue" d="M1179.8,-525.37C1207.54,-502.05 1263.05,-455.38 1295.27,-428.29"/>
<polygon fill="midnightblue" stroke="midnightblue" points="1297.92,-430.64 1303.32,-421.52 1293.41,-425.28 1297.92,-430.64"/>
</g>
<!-- Node35 -->
<g id="node35" class="node">
<title>Node35</title>
<g id="a_node35"><a xlink:href="traits_8hpp.html" target="_top" xlink:title="Provides traits for meta::type_list.">
<polygon fill="white" stroke="black" points="1429.5,-458.5 1429.5,-488.5 1534.5,-488.5 1534.5,-458.5 1429.5,-458.5"/>
<text text-anchor="start" x="1437.5" y="-476.5" font-family="Helvetica,sans-Serif" font-size="10.00">bio/meta/type_list</text>
<text text-anchor="middle" x="1482" y="-465.5" font-family="Helvetica,sans-Serif" font-size="10.00">/traits.hpp</text>
</a>
</g>
</g>
<!-- Node1&#45;&gt;Node35 -->
<g id="edge70" class="edge">
<title>Node1&#45;&gt;Node35</title>
<path fill="none" stroke="midnightblue" d="M1228.59,-526.64C1279.48,-516.6 1351.77,-502.18 1415,-489 1416.46,-488.7 1417.93,-488.39 1419.42,-488.08"/>
<polygon fill="midnightblue" stroke="midnightblue" points="1420.29,-491.47 1429.35,-485.97 1418.84,-484.62 1420.29,-491.47"/>
</g>
<!-- Node5&#45;&gt;Node2 -->
<g id="edge5" class="edge">
<title>Node5&#45;&gt;Node2</title>
<path fill="none" stroke="midnightblue" d="M690.13,-330C680.26,-328.01 669.76,-325.92 660,-324 576.52,-307.6 553.73,-311.62 472,-288 469.42,-287.25 466.76,-286.4 464.12,-285.48"/>
<polygon fill="midnightblue" stroke="midnightblue" points="465.33,-282.2 454.74,-282.01 462.9,-288.77 465.33,-282.2"/>
</g>
<!-- Node5&#45;&gt;Node3 -->
<g id="edge6" class="edge">
<title>Node5&#45;&gt;Node3</title>
<path fill="none" stroke="midnightblue" d="M730.2,-329.56C723.95,-295.7 706.77,-174.08 768,-112 798.02,-81.57 922.43,-71.59 987.67,-68.42"/>
<polygon fill="midnightblue" stroke="midnightblue" points="988.15,-71.9 997.98,-67.95 987.84,-64.91 988.15,-71.9"/>
</g>
<!-- Node6 -->
<g id="node6" class="node">
<title>Node6</title>
<g id="a_node6"><a target="_blank" xlink:href="https://en.cppreference.com/w/cpp/header/type_traits.html" xlink:title=" ">
<polygon fill="white" stroke="black" points="1134.5,-56.5 1134.5,-75.5 1203.5,-75.5 1203.5,-56.5 1134.5,-56.5"/>
<text text-anchor="middle" x="1169" y="-63.5" font-family="Helvetica,sans-Serif" font-size="10.00">type_traits</text>
</a>
</g>
</g>
<!-- Node5&#45;&gt;Node6 -->
<g id="edge7" class="edge">
<title>Node5&#45;&gt;Node6</title>
<path fill="none" stroke="midnightblue" d="M739.63,-329.99C775.09,-290.55 923.11,-126.81 950,-112 979.38,-95.81 1068.94,-80.97 1124,-73.03"/>
<polygon fill="midnightblue" stroke="midnightblue" points="1124.79,-76.46 1134.2,-71.59 1123.8,-69.53 1124.79,-76.46"/>
</g>
<!-- Node5&#45;&gt;Node7 -->
<g id="edge8" class="edge">
<title>Node5&#45;&gt;Node7</title>
<path fill="none" stroke="midnightblue" d="M707.96,-329.87C676.23,-318.47 620.21,-298.35 584.38,-285.49"/>
<polygon fill="midnightblue" stroke="midnightblue" points="585.44,-282.15 574.85,-282.06 583.08,-288.74 585.44,-282.15"/>
</g>
<!-- Node24 -->
<g id="node24" class="node">
<title>Node24</title>
<g id="a_node24"><a xlink:href="int__types_8hpp.html" target="_top" xlink:title="Provides metaprogramming utilities for integer types.">
<polygon fill="white" stroke="black" points="551.5,-112.5 551.5,-142.5 658.5,-142.5 658.5,-112.5 551.5,-112.5"/>
<text text-anchor="start" x="559.5" y="-130.5" font-family="Helvetica,sans-Serif" font-size="10.00">bio/meta/detail/int</text>
<text text-anchor="middle" x="605" y="-119.5" font-family="Helvetica,sans-Serif" font-size="10.00">_types.hpp</text>
</a>
</g>
</g>
<!-- Node5&#45;&gt;Node24 -->
<g id="edge37" class="edge">
<title>Node5&#45;&gt;Node24</title>
<path fill="none" stroke="midnightblue" d="M726.7,-329.74C708.3,-299.32 646.74,-197.52 618.89,-151.47"/>
<polygon fill="midnightblue" stroke="midnightblue" points="621.81,-149.53 613.64,-142.79 615.82,-153.16 621.81,-149.53"/>
</g>
<!-- Node7&#45;&gt;Node6 -->
<g id="edge9" class="edge">
<title>Node7&#45;&gt;Node6</title>
<path fill="none" stroke="midnightblue" d="M565.26,-262.97C581.3,-253.25 607.99,-236.67 630,-221 693.67,-175.67 695.72,-141.72 768,-112 784.31,-105.29 1023.08,-81.29 1124.24,-71.36"/>
<polygon fill="midnightblue" stroke="midnightblue" points="1124.84,-74.81 1134.45,-70.36 1124.16,-67.85 1124.84,-74.81"/>
</g>
<!-- Node8 -->
<g id="node8" class="node">
<title>Node8</title>
<g id="a_node8"><a xlink:href="tag_8hpp.html" target="_top" xlink:title="Provides the customisation tags for the alphabet concepts.">
<polygon fill="white" stroke="black" points="505,-185 505,-215 621,-215 621,-185 505,-185"/>
<text text-anchor="start" x="513" y="-203" font-family="Helvetica,sans-Serif" font-size="10.00">bio/alphabet/custom</text>
<text text-anchor="middle" x="563" y="-192" font-family="Helvetica,sans-Serif" font-size="10.00">/tag.hpp</text>
</a>
</g>
</g>
<!-- Node7&#45;&gt;Node8 -->
<g id="edge10" class="edge">
<title>Node7&#45;&gt;Node8</title>
<path fill="none" stroke="midnightblue" d="M552.47,-262.86C554.06,-253.55 556.65,-238.33 558.86,-225.31"/>
<polygon fill="midnightblue" stroke="midnightblue" points="562.38,-225.52 560.6,-215.08 555.48,-224.35 562.38,-225.52"/>
</g>
<!-- Node9 -->
<g id="node9" class="node">
<title>Node9</title>
<g id="a_node9"><a xlink:href="exception_8hpp.html" target="_top" xlink:title="Exceptions thrown by entities in the alphabet module.">
<polygon fill="white" stroke="black" points="228.5,-118 228.5,-137 377.5,-137 377.5,-118 228.5,-118"/>
<text text-anchor="middle" x="303" y="-125" font-family="Helvetica,sans-Serif" font-size="10.00">bio/alphabet/exception.hpp</text>
</a>
</g>
</g>
<!-- Node7&#45;&gt;Node9 -->
<g id="edge11" class="edge">
<title>Node7&#45;&gt;Node9</title>
<path fill="none" stroke="midnightblue" d="M507.82,-262.97C444.59,-250.3 333.53,-227.33 327,-221 307.09,-201.72 302.94,-168.21 302.47,-147.25"/>
<polygon fill="midnightblue" stroke="midnightblue" points="305.97,-147.09 302.5,-137.07 298.97,-147.06 305.97,-147.09"/>
</g>
<!-- Node12 -->
<g id="node12" class="node">
<title>Node12</title>
<g id="a_node12"><a xlink:href="core_8hpp.html" target="_top" xlink:title="Provides platform and dependency checks.">
<polygon fill="white" stroke="black" points="404.5,-56.5 404.5,-75.5 481.5,-75.5 481.5,-56.5 404.5,-56.5"/>
<text text-anchor="middle" x="443" y="-63.5" font-family="Helvetica,sans-Serif" font-size="10.00">bio/core.hpp</text>
</a>
</g>
</g>
<!-- Node7&#45;&gt;Node12 -->
<g id="edge20" class="edge">
<title>Node7&#45;&gt;Node12</title>
<path fill="none" stroke="midnightblue" d="M507.57,-262.91C454.07,-251.9 369.1,-232.82 360,-221 348.61,-206.21 354.15,-196.73 360,-179 360.92,-176.23 407.6,-114.01 430.54,-83.53"/>
<polygon fill="midnightblue" stroke="midnightblue" points="433.36,-85.61 436.58,-75.52 427.76,-81.4 433.36,-85.61"/>
</g>
<!-- Node16 -->
<g id="node16" class="node">
<title>Node16</title>
<g id="a_node16"><a xlink:href="core__language_8hpp.html" target="_top" xlink:title="Provides concepts for core language types and relations that don&#39;t have concepts in C++20 (yet).">
<polygon fill="white" stroke="black" points="776.5,-112.5 776.5,-142.5 901.5,-142.5 901.5,-112.5 776.5,-112.5"/>
<text text-anchor="start" x="784.5" y="-130.5" font-family="Helvetica,sans-Serif" font-size="10.00">bio/meta/concept/core</text>
<text text-anchor="middle" x="839" y="-119.5" font-family="Helvetica,sans-Serif" font-size="10.00">_language.hpp</text>
</a>
</g>
</g>
<!-- Node7&#45;&gt;Node16 -->
<g id="edge21" class="edge">
<title>Node7&#45;&gt;Node16</title>
<path fill="none" stroke="midnightblue" d="M584.48,-262.99C615.56,-254.45 662.67,-239.88 701,-221 742.56,-200.53 786.29,-169.34 813.11,-148.93"/>
<polygon fill="midnightblue" stroke="midnightblue" points="815.41,-151.58 821.2,-142.71 811.14,-146.03 815.41,-151.58"/>
</g>
<!-- Node17 -->
<g id="node17" class="node">
<title>Node17</title>
<g id="a_node17"><a xlink:href="type__inspection_8hpp.html" target="_top" xlink:title="Provides traits to inspect some information of a type, for example its name.">
<polygon fill="white" stroke="black" points="92,-112.5 92,-142.5 208,-142.5 208,-112.5 92,-112.5"/>
<text text-anchor="start" x="100" y="-130.5" font-family="Helvetica,sans-Serif" font-size="10.00">bio/meta/detail/type</text>
<text text-anchor="middle" x="150" y="-119.5" font-family="Helvetica,sans-Serif" font-size="10.00">_inspection.hpp</text>
</a>
</g>
</g>
<!-- Node7&#45;&gt;Node17 -->
<g id="edge25" class="edge">
<title>Node7&#45;&gt;Node17</title>
<path fill="none" stroke="midnightblue" d="M504.66,-262.95C438.15,-250.54 321.55,-228.24 303,-221 255.63,-202.5 206.23,-169.8 176.8,-148.64"/>
<polygon fill="midnightblue" stroke="midnightblue" points="178.83,-145.8 168.69,-142.74 174.71,-151.46 178.83,-145.8"/>
</g>
<!-- Node21 -->
<g id="node21" class="node">
<title>Node21</title>
<g id="a_node21"><a xlink:href="priority__tag_8hpp.html" target="_top" xlink:title="provides bio::meta::priority_tag.">
<polygon fill="white" stroke="black" points="369.5,-185 369.5,-215 486.5,-215 486.5,-185 369.5,-185"/>
<text text-anchor="start" x="377.5" y="-203" font-family="Helvetica,sans-Serif" font-size="10.00">bio/meta/tag/priority</text>
<text text-anchor="middle" x="428" y="-192" font-family="Helvetica,sans-Serif" font-size="10.00">_tag.hpp</text>
</a>
</g>
</g>
<!-- Node7&#45;&gt;Node21 -->
<g id="edge31" class="edge">
<title>Node7&#45;&gt;Node21</title>
<path fill="none" stroke="midnightblue" d="M535.92,-262.86C517.49,-252.29 485.76,-234.11 461.46,-220.18"/>
<polygon fill="midnightblue" stroke="midnightblue" points="462.97,-217.01 452.56,-215.08 459.49,-223.09 462.97,-217.01"/>
</g>
<!-- Node22 -->
<g id="node22" class="node">
<title>Node22</title>
<g id="a_node22"><a xlink:href="basic_8hpp.html" target="_top" xlink:title="Provides various type traits on generic types.">
<polygon fill="white" stroke="black" points="905,-185 905,-215 1021,-215 1021,-185 905,-185"/>
<text text-anchor="start" x="913" y="-203" font-family="Helvetica,sans-Serif" font-size="10.00">bio/meta/type_traits</text>
<text text-anchor="middle" x="963" y="-192" font-family="Helvetica,sans-Serif" font-size="10.00">/basic.hpp</text>
</a>
</g>
</g>
<!-- Node7&#45;&gt;Node22 -->
<g id="edge33" class="edge">
<title>Node7&#45;&gt;Node22</title>
<path fill="none" stroke="midnightblue" d="M600.7,-263C674.15,-250.43 811.91,-226.85 894.77,-212.68"/>
<polygon fill="midnightblue" stroke="midnightblue" points="895.57,-216.09 904.84,-210.95 894.39,-209.19 895.57,-216.09"/>
</g>
<!-- Node9&#45;&gt;Node3 -->
<g id="edge12" class="edge">
<title>Node9&#45;&gt;Node3</title>
<path fill="none" stroke="midnightblue" d="M377.52,-120.38C529.42,-107.92 870.39,-79.94 987.56,-70.32"/>
<polygon fill="midnightblue" stroke="midnightblue" points="988.18,-73.78 997.86,-69.47 987.61,-66.8 988.18,-73.78"/>
</g>
<!-- Node10 -->
<g id="node10" class="node">
<title>Node10</title>
<g id="a_node10"><a target="_blank" xlink:href="https://en.cppreference.com/w/cpp/header/stdexcept.html" xlink:title=" ">
<polygon fill="white" stroke="black" points="272.5,-56.5 272.5,-75.5 337.5,-75.5 337.5,-56.5 272.5,-56.5"/>
<text text-anchor="middle" x="305" y="-63.5" font-family="Helvetica,sans-Serif" font-size="10.00">stdexcept</text>
</a>
</g>
</g>
<!-- Node9&#45;&gt;Node10 -->
<g id="edge13" class="edge">
<title>Node9&#45;&gt;Node10</title>
<path fill="none" stroke="midnightblue" d="M303.29,-117.98C303.57,-109.58 304.01,-96.48 304.37,-85.66"/>
<polygon fill="midnightblue" stroke="midnightblue" points="307.88,-85.62 304.71,-75.51 300.88,-85.39 307.88,-85.62"/>
</g>
<!-- Node11 -->
<g id="node11" class="node">
<title>Node11</title>
<g id="a_node11"><a target="_blank" xlink:href="https://en.cppreference.com/w/cpp/header/string.html" xlink:title=" ">
<polygon fill="white" stroke="black" points="313,-0.5 313,-19.5 357,-19.5 357,-0.5 313,-0.5"/>
<text text-anchor="middle" x="335" y="-7.5" font-family="Helvetica,sans-Serif" font-size="10.00">string</text>
</a>
</g>
</g>
<!-- Node9&#45;&gt;Node11 -->
<g id="edge14" class="edge">
<title>Node9&#45;&gt;Node11</title>
<path fill="none" stroke="midnightblue" d="M313.92,-117.82C324.43,-108.69 339.64,-93.29 346,-76 351.61,-60.74 347.61,-42.41 342.94,-29.11"/>
<polygon fill="midnightblue" stroke="midnightblue" points="346.14,-27.69 339.21,-19.67 339.63,-30.26 346.14,-27.69"/>
</g>
<!-- Node9&#45;&gt;Node12 -->
<g id="edge15" class="edge">
<title>Node9&#45;&gt;Node12</title>
<path fill="none" stroke="midnightblue" d="M323.06,-117.98C346.76,-107.9 386.41,-91.05 413.58,-79.5"/>
<polygon fill="midnightblue" stroke="midnightblue" points="415.14,-82.64 422.98,-75.51 412.41,-76.2 415.14,-82.64"/>
</g>
<!-- Node12&#45;&gt;Node11 -->
<g id="edge19" class="edge">
<title>Node12&#45;&gt;Node11</title>
<path fill="none" stroke="midnightblue" d="M425.65,-56.32C408.33,-47.66 381.48,-34.24 361.5,-24.25"/>
<polygon fill="midnightblue" stroke="midnightblue" points="362.82,-21 352.31,-19.65 359.69,-27.26 362.82,-21"/>
</g>
<!-- Node13 -->
<g id="node13" class="node">
<title>Node13</title>
<g id="a_node13"><a target="_blank" xlink:href="https://en.cppreference.com/w/cpp/header/cinttypes.html" xlink:title=" ">
<polygon fill="white" stroke="black" points="519,-0.5 519,-19.5 581,-19.5 581,-0.5 519,-0.5"/>
<text text-anchor="middle" x="550" y="-7.5" font-family="Helvetica,sans-Serif" font-size="10.00">cinttypes</text>
</a>
</g>
</g>
<!-- Node12&#45;&gt;Node13 -->
<g id="edge16" class="edge">
<title>Node12&#45;&gt;Node13</title>
<path fill="none" stroke="midnightblue" d="M460.19,-56.32C477.35,-47.66 503.95,-34.24 523.75,-24.25"/>
<polygon fill="midnightblue" stroke="midnightblue" points="525.5,-27.28 532.85,-19.65 522.35,-21.04 525.5,-27.28"/>
</g>
<!-- Node14 -->
<g id="node14" class="node">
<title>Node14</title>
<g id="a_node14"><a target="_blank" xlink:href="https://en.cppreference.com/w/cpp/header/ciso646.html" xlink:title=" ">
<polygon fill="white" stroke="black" points="375,-0.5 375,-19.5 429,-19.5 429,-0.5 375,-0.5"/>
<text text-anchor="middle" x="402" y="-7.5" font-family="Helvetica,sans-Serif" font-size="10.00">ciso646</text>
</a>
</g>
</g>
<!-- Node12&#45;&gt;Node14 -->
<g id="edge17" class="edge">
<title>Node12&#45;&gt;Node14</title>
<path fill="none" stroke="midnightblue" d="M436.23,-56.08C430.44,-48.46 421.94,-37.26 414.86,-27.94"/>
<polygon fill="midnightblue" stroke="midnightblue" points="417.48,-25.6 408.64,-19.75 411.9,-29.83 417.48,-25.6"/>
</g>
<!-- Node15 -->
<g id="node15" class="node">
<title>Node15</title>
<g id="a_node15"><a target="_blank" xlink:href="https://en.cppreference.com/w/cpp/header/cstddef.html" xlink:title=" ">
<polygon fill="white" stroke="black" points="447.5,-0.5 447.5,-19.5 500.5,-19.5 500.5,-0.5 447.5,-0.5"/>
<text text-anchor="middle" x="474" y="-7.5" font-family="Helvetica,sans-Serif" font-size="10.00">cstddef</text>
</a>
</g>
</g>
<!-- Node12&#45;&gt;Node15 -->
<g id="edge18" class="edge">
<title>Node12&#45;&gt;Node15</title>
<path fill="none" stroke="midnightblue" d="M448.12,-56.08C452.41,-48.61 458.66,-37.72 463.94,-28.52"/>
<polygon fill="midnightblue" stroke="midnightblue" points="467.03,-30.17 468.98,-19.75 460.96,-26.68 467.03,-30.17"/>
</g>
<!-- Node16&#45;&gt;Node3 -->
<g id="edge22" class="edge">
<title>Node16&#45;&gt;Node3</title>
<path fill="none" stroke="midnightblue" d="M883.79,-112.4C916.45,-102.12 960.18,-88.35 990.89,-78.68"/>
<polygon fill="midnightblue" stroke="midnightblue" points="992.29,-81.91 1000.77,-75.57 990.19,-75.24 992.29,-81.91"/>
</g>
<!-- Node16&#45;&gt;Node6 -->
<g id="edge23" class="edge">
<title>Node16&#45;&gt;Node6</title>
<path fill="none" stroke="midnightblue" d="M901.61,-114.66C906.47,-113.75 911.32,-112.86 916,-112 988.87,-98.66 1073.66,-83.69 1124.24,-74.82"/>
<polygon fill="midnightblue" stroke="midnightblue" points="1124.95,-78.25 1134.19,-73.08 1123.74,-71.35 1124.95,-78.25"/>
</g>
<!-- Node16&#45;&gt;Node12 -->
<g id="edge24" class="edge">
<title>Node16&#45;&gt;Node12</title>
<path fill="none" stroke="midnightblue" d="M776.25,-117.07C697.26,-105.2 563.26,-85.07 491.61,-74.3"/>
<polygon fill="midnightblue" stroke="midnightblue" points="491.91,-70.81 481.5,-72.79 490.87,-77.73 491.91,-70.81"/>
</g>
<!-- Node17&#45;&gt;Node11 -->
<g id="edge28" class="edge">
<title>Node17&#45;&gt;Node11</title>
<path fill="none" stroke="midnightblue" d="M130.21,-112.31C112.04,-97.57 90.05,-74.16 105,-56 129.66,-26.05 245.22,-15.75 302.56,-12.44"/>
<polygon fill="midnightblue" stroke="midnightblue" points="303.08,-15.92 312.88,-11.89 302.71,-8.93 303.08,-15.92"/>
</g>
<!-- Node17&#45;&gt;Node12 -->
<g id="edge30" class="edge">
<title>Node17&#45;&gt;Node12</title>
<path fill="none" stroke="midnightblue" d="M208.34,-114.2C211.95,-113.45 215.52,-112.71 219,-112 279.32,-99.6 348.87,-85.69 394.26,-76.66"/>
<polygon fill="midnightblue" stroke="midnightblue" points="395.01,-80.08 404.13,-74.7 393.64,-73.22 395.01,-80.08"/>
</g>
<!-- Node18 -->
<g id="node18" class="node">
<title>Node18</title>
<g id="a_node18"><a target="_blank" xlink:href="https://en.cppreference.com/w/cpp/header/functional.html" xlink:title=" ">
<polygon fill="white" stroke="black" points="114.5,-56.5 114.5,-75.5 179.5,-75.5 179.5,-56.5 114.5,-56.5"/>
<text text-anchor="middle" x="147" y="-63.5" font-family="Helvetica,sans-Serif" font-size="10.00">functional</text>
</a>
</g>
</g>
<!-- Node17&#45;&gt;Node18 -->
<g id="edge26" class="edge">
<title>Node17&#45;&gt;Node18</title>
<path fill="none" stroke="midnightblue" d="M149.29,-112.4C148.89,-104.47 148.38,-94.46 147.95,-85.86"/>
<polygon fill="midnightblue" stroke="midnightblue" points="151.44,-85.47 147.44,-75.66 144.44,-85.82 151.44,-85.47"/>
</g>
<!-- Node19 -->
<g id="node19" class="node">
<title>Node19</title>
<g id="a_node19"><a target="_blank" xlink:href="https://en.cppreference.com/w/cpp/header/memory.html" xlink:title=" ">
<polygon fill="white" stroke="black" points="0,-56.5 0,-75.5 58,-75.5 58,-56.5 0,-56.5"/>
<text text-anchor="middle" x="29" y="-63.5" font-family="Helvetica,sans-Serif" font-size="10.00">memory</text>
</a>
</g>
</g>
<!-- Node17&#45;&gt;Node19 -->
<g id="edge27" class="edge">
<title>Node17&#45;&gt;Node19</title>
<path fill="none" stroke="midnightblue" d="M121.32,-112.4C101.48,-102.64 75.24,-89.74 55.81,-80.18"/>
<polygon fill="midnightblue" stroke="midnightblue" points="57.12,-76.93 46.61,-75.66 54.04,-83.21 57.12,-76.93"/>
</g>
<!-- Node20 -->
<g id="node20" class="node">
<title>Node20</title>
<g id="a_node20"><a target="_blank" xlink:href="https://en.cppreference.com/w/cpp/header/typeinfo.html" xlink:title=" ">
<polygon fill="white" stroke="black" points="197.5,-56.5 197.5,-75.5 254.5,-75.5 254.5,-56.5 197.5,-56.5"/>
<text text-anchor="middle" x="226" y="-63.5" font-family="Helvetica,sans-Serif" font-size="10.00">typeinfo</text>
</a>
</g>
</g>
<!-- Node17&#45;&gt;Node20 -->
<g id="edge29" class="edge">
<title>Node17&#45;&gt;Node20</title>
<path fill="none" stroke="midnightblue" d="M168.01,-112.4C179.74,-103.22 195.02,-91.26 206.94,-81.92"/>
<polygon fill="midnightblue" stroke="midnightblue" points="209.22,-84.58 214.94,-75.66 204.91,-79.07 209.22,-84.58"/>
</g>
<!-- Node21&#45;&gt;Node12 -->
<g id="edge32" class="edge">
<title>Node21&#45;&gt;Node12</title>
<path fill="none" stroke="midnightblue" d="M429.61,-184.87C432.33,-160.9 437.86,-112.25 440.89,-85.56"/>
<polygon fill="midnightblue" stroke="midnightblue" points="444.37,-85.93 442.02,-75.6 437.42,-85.14 444.37,-85.93"/>
</g>
<!-- Node22&#45;&gt;Node6 -->
<g id="edge35" class="edge">
<title>Node22&#45;&gt;Node6</title>
<path fill="none" stroke="midnightblue" d="M985.05,-184.87C1024.63,-159.51 1107.33,-106.52 1146.93,-81.14"/>
<polygon fill="midnightblue" stroke="midnightblue" points="1149.05,-83.94 1155.58,-75.6 1145.27,-78.05 1149.05,-83.94"/>
</g>
<!-- Node22&#45;&gt;Node16 -->
<g id="edge36" class="edge">
<title>Node22&#45;&gt;Node16</title>
<path fill="none" stroke="midnightblue" d="M938.2,-184.9C919.37,-174.19 893.25,-159.35 872.55,-147.57"/>
<polygon fill="midnightblue" stroke="midnightblue" points="874.18,-144.47 863.75,-142.57 870.72,-150.56 874.18,-144.47"/>
</g>
<!-- Node23 -->
<g id="node23" class="node">
<title>Node23</title>
<g id="a_node23"><a target="_blank" xlink:href="https://en.cppreference.com/w/cpp/header/tuple.html" xlink:title=" ">
<polygon fill="white" stroke="black" points="958.5,-118 958.5,-137 999.5,-137 999.5,-118 958.5,-118"/>
<text text-anchor="middle" x="979" y="-125" font-family="Helvetica,sans-Serif" font-size="10.00">tuple</text>
</a>
</g>
</g>
<!-- Node22&#45;&gt;Node23 -->
<g id="edge34" class="edge">
<title>Node22&#45;&gt;Node23</title>
<path fill="none" stroke="midnightblue" d="M966.24,-184.73C968.67,-174 972.04,-159.19 974.7,-147.46"/>
<polygon fill="midnightblue" stroke="midnightblue" points="978.18,-147.92 976.98,-137.39 971.36,-146.37 978.18,-147.92"/>
</g>
<!-- Node24&#45;&gt;Node3 -->
<g id="edge38" class="edge">
<title>Node24&#45;&gt;Node3</title>
<path fill="none" stroke="midnightblue" d="M658.74,-114.6C663.55,-113.67 668.36,-112.79 673,-112 786.66,-92.71 922.08,-77.74 987.99,-70.96"/>
<polygon fill="midnightblue" stroke="midnightblue" points="988.36,-74.44 997.95,-69.95 987.65,-67.48 988.36,-74.44"/>
</g>
<!-- Node24&#45;&gt;Node6 -->
<g id="edge40" class="edge">
<title>Node24&#45;&gt;Node6</title>
<path fill="none" stroke="midnightblue" d="M658.71,-114.43C663.53,-113.53 668.35,-112.7 673,-112 684.1,-110.32 1003.78,-81.74 1123.93,-71.02"/>
<polygon fill="midnightblue" stroke="midnightblue" points="1124.6,-74.47 1134.25,-70.1 1123.98,-67.5 1124.6,-74.47"/>
</g>
<!-- Node24&#45;&gt;Node12 -->
<g id="edge41" class="edge">
<title>Node24&#45;&gt;Node12</title>
<path fill="none" stroke="midnightblue" d="M566.61,-112.4C539.06,-102.28 502.33,-88.79 476.08,-79.15"/>
<polygon fill="midnightblue" stroke="midnightblue" points="477.17,-75.82 466.57,-75.66 474.75,-82.39 477.17,-75.82"/>
</g>
<!-- Node25 -->
<g id="node25" class="node">
<title>Node25</title>
<g id="a_node25"><a target="_blank" xlink:href="https://en.cppreference.com/w/cpp/header/limits.html" xlink:title=" ">
<polygon fill="white" stroke="black" points="583,-56.5 583,-75.5 627,-75.5 627,-56.5 583,-56.5"/>
<text text-anchor="middle" x="605" y="-63.5" font-family="Helvetica,sans-Serif" font-size="10.00">limits</text>
</a>
</g>
</g>
<!-- Node24&#45;&gt;Node25 -->
<g id="edge39" class="edge">
<title>Node24&#45;&gt;Node25</title>
<path fill="none" stroke="midnightblue" d="M605,-112.4C605,-104.47 605,-94.46 605,-85.86"/>
<polygon fill="midnightblue" stroke="midnightblue" points="608.5,-85.66 605,-75.66 601.5,-85.66 608.5,-85.66"/>
</g>
<!-- Node26&#45;&gt;Node7 -->
<g id="edge43" class="edge">
<title>Node26&#45;&gt;Node7</title>
<path fill="none" stroke="midnightblue" d="M778.23,-404.63C695.24,-401.98 559.5,-391.93 528,-355 512.4,-336.71 526.11,-308.54 538.05,-290.57"/>
<polygon fill="midnightblue" stroke="midnightblue" points="541.05,-292.39 543.97,-282.21 535.34,-288.35 541.05,-292.39"/>
</g>
<!-- Node26&#45;&gt;Node16 -->
<g id="edge44" class="edge">
<title>Node26&#45;&gt;Node16</title>
<path fill="none" stroke="midnightblue" d="M840.68,-391.4C832.75,-355.71 814.12,-258.96 825,-179 826.19,-170.25 828.49,-160.88 830.89,-152.62"/>
<polygon fill="midnightblue" stroke="midnightblue" points="834.29,-153.46 833.9,-142.87 827.6,-151.39 834.29,-153.46"/>
</g>
<!-- Node26&#45;&gt;Node27 -->
<g id="edge45" class="edge">
<title>Node26&#45;&gt;Node27</title>
<path fill="none" stroke="midnightblue" d="M909.77,-393.76C915.26,-392.82 920.72,-391.89 926,-391 1014.57,-376.14 1117.21,-360.04 1181.38,-350.11"/>
<polygon fill="midnightblue" stroke="midnightblue" points="1181.99,-353.56 1191.34,-348.57 1180.93,-346.64 1181.99,-353.56"/>
</g>
<!-- Node27&#45;&gt;Node28 -->
<g id="edge46" class="edge">
<title>Node27&#45;&gt;Node28</title>
<path fill="none" stroke="midnightblue" d="M1231.2,-324.4C1223.47,-315.88 1213.45,-304.85 1204.73,-295.23"/>
<polygon fill="midnightblue" stroke="midnightblue" points="1207.09,-292.63 1197.78,-287.58 1201.91,-297.33 1207.09,-292.63"/>
</g>
<!-- Node28&#45;&gt;Node3 -->
<g id="edge47" class="edge">
<title>Node28&#45;&gt;Node3</title>
<path fill="none" stroke="midnightblue" d="M1177.46,-257.37C1161.63,-228.4 1122.84,-160.86 1080,-112 1070.41,-101.06 1058.16,-90.34 1047.97,-82.1"/>
<polygon fill="midnightblue" stroke="midnightblue" points="1050.01,-79.26 1039.98,-75.82 1045.68,-84.76 1050.01,-79.26"/>
</g>
<!-- Node29 -->
<g id="node29" class="node">
<title>Node29</title>
<g id="a_node29"><a xlink:href="transformation__trait__or_8hpp.html" target="_top" xlink:title="Provides bio::meta::transformation_trait_or.">
<polygon fill="white" stroke="black" points="1170,-179.5 1170,-220.5 1288,-220.5 1288,-179.5 1170,-179.5"/>
<text text-anchor="start" x="1178" y="-208.5" font-family="Helvetica,sans-Serif" font-size="10.00">bio/meta/type_traits</text>
<text text-anchor="start" x="1178" y="-197.5" font-family="Helvetica,sans-Serif" font-size="10.00">/transformation_trait</text>
<text text-anchor="middle" x="1229" y="-186.5" font-family="Helvetica,sans-Serif" font-size="10.00">_or.hpp</text>
</a>
</g>
</g>
<!-- Node28&#45;&gt;Node29 -->
<g id="edge48" class="edge">
<title>Node28&#45;&gt;Node29</title>
<path fill="none" stroke="midnightblue" d="M1193.9,-257.23C1198.94,-249.16 1205.42,-238.78 1211.43,-229.15"/>
<polygon fill="midnightblue" stroke="midnightblue" points="1214.45,-230.92 1216.77,-220.59 1208.51,-227.22 1214.45,-230.92"/>
</g>
<!-- Node29&#45;&gt;Node6 -->
<g id="edge49" class="edge">
<title>Node29&#45;&gt;Node6</title>
<path fill="none" stroke="midnightblue" d="M1261.05,-179.25C1285.22,-161.81 1311.6,-135.56 1295,-112 1276.71,-86.04 1242.02,-74.98 1213.66,-70.3"/>
<polygon fill="midnightblue" stroke="midnightblue" points="1213.94,-66.8 1203.54,-68.85 1212.95,-73.73 1213.94,-66.8"/>
</g>
<!-- Node30 -->
<g id="node30" class="node">
<title>Node30</title>
<g id="a_node30"><a xlink:href="meta_2type__traits_2concept_8hpp.html" target="_top" xlink:title="Provides the concepts bio::meta::transformation_trait and bio::meta::unary_type_trait.">
<polygon fill="white" stroke="black" points="1170,-112.5 1170,-142.5 1286,-142.5 1286,-112.5 1170,-112.5"/>
<text text-anchor="start" x="1178" y="-130.5" font-family="Helvetica,sans-Serif" font-size="10.00">bio/meta/type_traits</text>
<text text-anchor="middle" x="1228" y="-119.5" font-family="Helvetica,sans-Serif" font-size="10.00">/concept.hpp</text>
</a>
</g>
</g>
<!-- Node29&#45;&gt;Node30 -->
<g id="edge50" class="edge">
<title>Node29&#45;&gt;Node30</title>
<path fill="none" stroke="midnightblue" d="M1228.72,-179.36C1228.61,-171.23 1228.47,-161.7 1228.35,-153.11"/>
<polygon fill="midnightblue" stroke="midnightblue" points="1231.85,-152.84 1228.2,-142.89 1224.85,-152.94 1231.85,-152.84"/>
</g>
<!-- Node30&#45;&gt;Node6 -->
<g id="edge51" class="edge">
<title>Node30&#45;&gt;Node6</title>
<path fill="none" stroke="midnightblue" d="M1214.02,-112.4C1205.27,-103.58 1193.97,-92.18 1184.88,-83.02"/>
<polygon fill="midnightblue" stroke="midnightblue" points="1187.11,-80.29 1177.59,-75.66 1182.14,-85.22 1187.11,-80.29"/>
</g>
<!-- Node30&#45;&gt;Node12 -->
<g id="edge52" class="edge">
<title>Node30&#45;&gt;Node12</title>
<path fill="none" stroke="midnightblue" d="M1169.96,-122.1C1021.48,-110.85 629.87,-81.16 491.93,-70.71"/>
<polygon fill="midnightblue" stroke="midnightblue" points="491.91,-67.2 481.67,-69.93 491.38,-74.18 491.91,-67.2"/>
</g>
<!-- Node31&#45;&gt;Node3 -->
<g id="edge55" class="edge">
<title>Node31&#45;&gt;Node3</title>
<path fill="none" stroke="midnightblue" d="M1026.31,-391.36C1042.15,-383.28 1059.01,-371.42 1068,-355 1118.15,-263.43 1061.16,-131.84 1037.41,-84.66"/>
<polygon fill="midnightblue" stroke="midnightblue" points="1040.48,-82.97 1032.78,-75.69 1034.26,-86.18 1040.48,-82.97"/>
</g>
<!-- Node31&#45;&gt;Node5 -->
<g id="edge56" class="edge">
<title>Node31&#45;&gt;Node5</title>
<path fill="none" stroke="midnightblue" d="M934.81,-391.79C887.4,-379.8 819.43,-362.61 775.5,-351.5"/>
<polygon fill="midnightblue" stroke="midnightblue" points="776.24,-348.08 765.69,-349.02 774.53,-354.87 776.24,-348.08"/>
</g>
<!-- Node31&#45;&gt;Node16 -->
<g id="edge62" class="edge">
<title>Node31&#45;&gt;Node16</title>
<path fill="none" stroke="midnightblue" d="M954.51,-391.36C938.01,-383 919.23,-370.91 907,-355 859.14,-292.73 844.84,-197.05 840.66,-152.66"/>
<polygon fill="midnightblue" stroke="midnightblue" points="844.14,-152.2 839.81,-142.53 837.16,-152.79 844.14,-152.2"/>
</g>
<!-- Node31&#45;&gt;Node22 -->
<g id="edge63" class="edge">
<title>Node31&#45;&gt;Node22</title>
<path fill="none" stroke="midnightblue" d="M957.66,-391.44C943.08,-383.11 927.19,-371.01 919,-355 896.64,-311.29 926.05,-254.62 946.46,-223.65"/>
<polygon fill="midnightblue" stroke="midnightblue" points="949.44,-225.51 952.18,-215.27 943.65,-221.56 949.44,-225.51"/>
</g>
<!-- Node31&#45;&gt;Node28 -->
<g id="edge64" class="edge">
<title>Node31&#45;&gt;Node28</title>
<path fill="none" stroke="midnightblue" d="M1028.85,-391.45C1051.08,-382.68 1078.68,-370.17 1101,-355 1126.07,-337.96 1150.44,-313.11 1166.42,-295.34"/>
<polygon fill="midnightblue" stroke="midnightblue" points="1169.15,-297.53 1173.14,-287.72 1163.9,-292.9 1169.15,-297.53"/>
</g>
<!-- Node32 -->
<g id="node32" class="node">
<title>Node32</title>
<g id="a_node32"><a xlink:href="alphabet_2nucleotide_2concept_8hpp.html" target="_top" xlink:title="Provides bio::alphabet::nucleotide_alphabet.">
<polygon fill="white" stroke="black" points="927.5,-324.5 927.5,-354.5 1058.5,-354.5 1058.5,-324.5 927.5,-324.5"/>
<text text-anchor="start" x="935.5" y="-342.5" font-family="Helvetica,sans-Serif" font-size="10.00">bio/alphabet/nucleotide</text>
<text text-anchor="middle" x="993" y="-331.5" font-family="Helvetica,sans-Serif" font-size="10.00">/concept.hpp</text>
</a>
</g>
</g>
<!-- Node31&#45;&gt;Node32 -->
<g id="edge57" class="edge">
<title>Node31&#45;&gt;Node32</title>
<path fill="none" stroke="midnightblue" d="M989.87,-391.4C990.35,-383.56 990.96,-373.6 991.52,-364.57"/>
<polygon fill="midnightblue" stroke="midnightblue" points="995.01,-364.77 992.13,-354.58 988.03,-364.34 995.01,-364.77"/>
</g>
<!-- Node33 -->
<g id="node33" class="node">
<title>Node33</title>
<g id="a_node33"><a xlink:href="alphabet_2quality_2concept_8hpp.html" target="_top" xlink:title="Quality alphabet concept.">
<polygon fill="white" stroke="black" points="537,-324.5 537,-354.5 651,-354.5 651,-324.5 537,-324.5"/>
<text text-anchor="start" x="545" y="-342.5" font-family="Helvetica,sans-Serif" font-size="10.00">bio/alphabet/quality</text>
<text text-anchor="middle" x="594" y="-331.5" font-family="Helvetica,sans-Serif" font-size="10.00">/concept.hpp</text>
</a>
</g>
</g>
<!-- Node31&#45;&gt;Node33 -->
<g id="edge60" class="edge">
<title>Node31&#45;&gt;Node33</title>
<path fill="none" stroke="midnightblue" d="M934.8,-393.9C929.47,-392.87 924.14,-391.89 919,-391 807.61,-371.74 776.11,-375.27 661.08,-355.11"/>
<polygon fill="midnightblue" stroke="midnightblue" points="661.64,-351.65 651.18,-353.35 660.42,-358.54 661.64,-351.65"/>
</g>
<!-- Node32&#45;&gt;Node3 -->
<g id="edge58" class="edge">
<title>Node32&#45;&gt;Node3</title>
<path fill="none" stroke="midnightblue" d="M999,-324.37C1007.88,-302.63 1024.09,-259.47 1030,-221 1037.42,-172.71 1033.23,-114.89 1030.22,-85.75"/>
<polygon fill="midnightblue" stroke="midnightblue" points="1033.69,-85.31 1029.12,-75.75 1026.74,-86.08 1033.69,-85.31"/>
</g>
<!-- Node32&#45;&gt;Node7 -->
<g id="edge59" class="edge">
<title>Node32&#45;&gt;Node7</title>
<path fill="none" stroke="midnightblue" d="M927.31,-328.84C844.46,-316.66 702.74,-295.81 618.87,-283.48"/>
<polygon fill="midnightblue" stroke="midnightblue" points="619.34,-280.01 608.94,-282.02 618.33,-286.94 619.34,-280.01"/>
</g>
<!-- Node33&#45;&gt;Node7 -->
<g id="edge61" class="edge">
<title>Node33&#45;&gt;Node7</title>
<path fill="none" stroke="midnightblue" d="M584.67,-324.4C578.1,-314.46 569.26,-301.11 562.29,-290.57"/>
<polygon fill="midnightblue" stroke="midnightblue" points="565.19,-288.6 556.75,-282.19 559.35,-292.47 565.19,-288.6"/>
</g>
<!-- Node34&#45;&gt;Node3 -->
<g id="edge66" class="edge">
<title>Node34&#45;&gt;Node3</title>
<path fill="none" stroke="midnightblue" d="M1324.1,-391.22C1336.65,-344.21 1369.32,-192.68 1295,-112 1279.85,-95.56 1139.78,-78.7 1068.81,-71.13"/>
<polygon fill="midnightblue" stroke="midnightblue" points="1068.77,-67.6 1058.45,-70.04 1068.03,-74.57 1068.77,-67.6"/>
</g>
<!-- Node34&#45;&gt;Node4 -->
<g id="edge68" class="edge">
<title>Node34&#45;&gt;Node4</title>
<path fill="none" stroke="midnightblue" d="M1358.41,-391.4C1390.2,-379.72 1434.84,-363.33 1464.79,-352.33"/>
<polygon fill="midnightblue" stroke="midnightblue" points="1466.16,-355.55 1474.34,-348.82 1463.75,-348.98 1466.16,-355.55"/>
</g>
<!-- Node34&#45;&gt;Node6 -->
<g id="edge67" class="edge">
<title>Node34&#45;&gt;Node6</title>
<path fill="none" stroke="midnightblue" d="M1326.91,-391.31C1331.35,-381.4 1336.69,-367.72 1339,-355 1341.47,-341.44 1339.24,-337.78 1339,-324 1337.36,-228.97 1379,-178.4 1311,-112 1284.98,-86.6 1244.71,-75.52 1213.69,-70.7"/>
<polygon fill="midnightblue" stroke="midnightblue" points="1213.94,-67.2 1203.56,-69.29 1212.98,-74.14 1213.94,-67.2"/>
</g>
<!-- Node34&#45;&gt;Node27 -->
<g id="edge69" class="edge">
<title>Node34&#45;&gt;Node27</title>
<path fill="none" stroke="midnightblue" d="M1303.51,-391.4C1293.15,-382.54 1279.62,-370.96 1268.07,-361.09"/>
<polygon fill="midnightblue" stroke="midnightblue" points="1270.33,-358.42 1260.46,-354.58 1265.78,-363.74 1270.33,-358.42"/>
</g>
<!-- Node35&#45;&gt;Node6 -->
<g id="edge71" class="edge">
<title>Node35&#45;&gt;Node6</title>
<path fill="none" stroke="midnightblue" d="M1477.09,-458.18C1455.08,-394.27 1365.28,-137.05 1337,-112 1303.02,-81.89 1251,-71.63 1213.85,-68.28"/>
<polygon fill="midnightblue" stroke="midnightblue" points="1214.03,-64.79 1203.8,-67.51 1213.5,-71.77 1214.03,-64.79"/>
</g>
<!-- Node35&#45;&gt;Node27 -->
<g id="edge76" class="edge">
<title>Node35&#45;&gt;Node27</title>
<path fill="none" stroke="midnightblue" d="M1429.25,-467.23C1370.91,-460.28 1282.09,-446.05 1259,-422 1244.57,-406.98 1241.67,-382.88 1241.86,-364.78"/>
<polygon fill="midnightblue" stroke="midnightblue" points="1245.37,-364.81 1242.29,-354.67 1238.37,-364.51 1245.37,-364.81"/>
</g>
<!-- Node36 -->
<g id="node36" class="node">
<title>Node36</title>
<g id="a_node36"><a xlink:href="traits__detail_8hpp.html" target="_top" xlink:title="Provides various traits for template packs.">
<polygon fill="white" stroke="black" points="1474.5,-391.5 1474.5,-421.5 1579.5,-421.5 1579.5,-391.5 1474.5,-391.5"/>
<text text-anchor="start" x="1482.5" y="-409.5" font-family="Helvetica,sans-Serif" font-size="10.00">bio/meta/type_list</text>
<text text-anchor="middle" x="1527" y="-398.5" font-family="Helvetica,sans-Serif" font-size="10.00">/traits_detail.hpp</text>
</a>
</g>
</g>
<!-- Node35&#45;&gt;Node36 -->
<g id="edge72" class="edge">
<title>Node35&#45;&gt;Node36</title>
<path fill="none" stroke="midnightblue" d="M1491.76,-458.4C1497.54,-450.05 1504.99,-439.29 1511.55,-429.81"/>
<polygon fill="midnightblue" stroke="midnightblue" points="1514.44,-431.79 1517.25,-421.58 1508.68,-427.81 1514.44,-431.79"/>
</g>
<!-- Node36&#45;&gt;Node4 -->
<g id="edge74" class="edge">
<title>Node36&#45;&gt;Node4</title>
<path fill="none" stroke="midnightblue" d="M1520.49,-391.4C1516.04,-381.76 1510.11,-368.91 1505.32,-358.54"/>
<polygon fill="midnightblue" stroke="midnightblue" points="1508.38,-356.81 1501.01,-349.19 1502.03,-359.74 1508.38,-356.81"/>
</g>
<!-- Node36&#45;&gt;Node6 -->
<g id="edge73" class="edge">
<title>Node36&#45;&gt;Node6</title>
<path fill="none" stroke="midnightblue" d="M1530.75,-391.36C1536.79,-367.32 1548,-316.89 1548,-273.5 1548,-273.5 1548,-273.5 1548,-199 1548,-149.92 1522.45,-136.62 1480,-112 1435.6,-86.25 1288.47,-74.04 1213.6,-69.38"/>
<polygon fill="midnightblue" stroke="midnightblue" points="1213.73,-65.88 1203.54,-68.77 1213.31,-72.87 1213.73,-65.88"/>
</g>
<!-- Node36&#45;&gt;Node27 -->
<g id="edge75" class="edge">
<title>Node36&#45;&gt;Node27</title>
<path fill="none" stroke="midnightblue" d="M1474.43,-393.43C1426.93,-382.52 1356.94,-366.44 1306.56,-354.87"/>
<polygon fill="midnightblue" stroke="midnightblue" points="1307.29,-351.45 1296.76,-352.62 1305.73,-358.27 1307.29,-351.45"/>
</g>
</g>
</svg>
