<?xml version="1.0" encoding="UTF-8" standalone="no"?>
<!DOCTYPE svg PUBLIC "-//W3C//DTD SVG 1.1//EN"
 "http://www.w3.org/Graphics/SVG/1.1/DTD/svg11.dtd">
<!-- Generated by graphviz version 2.43.0 (0)
 -->
<!-- Title: bio/meta/concept/tuple.hpp Pages: 1 -->
<svg width="551pt" height="620pt"
 viewBox="0.00 0.00 551.40 620.00" xmlns="http://www.w3.org/2000/svg" xmlns:xlink="http://www.w3.org/1999/xlink">
<g id="graph0" class="graph" transform="scale(1 1) rotate(0) translate(4 616)">
<title>bio/meta/concept/tuple.hpp</title>
<polygon fill="white" stroke="transparent" points="-4,4 -4,-616 547.4,-616 547.4,4 -4,4"/>
<!-- Node1 -->
<g id="node1" class="node">
<title>Node1</title>
<g id="a_node1"><a xlink:title="Provides bio::tuple_like.">
<polygon fill="#bfbfbf" stroke="black" points="45,-592.5 45,-611.5 195,-611.5 195,-592.5 45,-592.5"/>
<text text-anchor="middle" x="120" y="-599.5" font-family="Helvetica,sans-Serif" font-size="10.00">bio/meta/concept/tuple.hpp</text>
</a>
</g>
</g>
<!-- Node2 -->
<g id="node2" class="node">
<title>Node2</title>
<g id="a_node2"><a target="_blank" xlink:href="https://en.cppreference.com/w/cpp/header/concepts.html" xlink:title=" ">
<polygon fill="white" stroke="black" points="87,-190.5 87,-209.5 147,-209.5 147,-190.5 87,-190.5"/>
<text text-anchor="middle" x="117" y="-197.5" font-family="Helvetica,sans-Serif" font-size="10.00">concepts</text>
</a>
</g>
</g>
<!-- Node1&#45;&gt;Node2 -->
<g id="edge1" class="edge">
<title>Node1&#45;&gt;Node2</title>
<path fill="none" stroke="midnightblue" d="M109.28,-592.44C87.05,-573.65 38,-526.32 38,-474.5 38,-474.5 38,-474.5 38,-338.5 38,-288.78 77.31,-240.79 100.47,-216.82"/>
<polygon fill="midnightblue" stroke="midnightblue" points="103.04,-219.2 107.63,-209.65 98.09,-214.26 103.04,-219.2"/>
</g>
<!-- Node3 -->
<g id="node3" class="node">
<title>Node3</title>
<g id="a_node3"><a target="_blank" xlink:href="https://en.cppreference.com/w/cpp/header/tuple.html" xlink:title=" ">
<polygon fill="white" stroke="black" points="223.5,-464 223.5,-483 264.5,-483 264.5,-464 223.5,-464"/>
<text text-anchor="middle" x="244" y="-471" font-family="Helvetica,sans-Serif" font-size="10.00">tuple</text>
</a>
</g>
</g>
<!-- Node1&#45;&gt;Node3 -->
<g id="edge2" class="edge">
<title>Node1&#45;&gt;Node3</title>
<path fill="none" stroke="midnightblue" d="M172.16,-592.49C211.51,-584.88 260.73,-572.4 273,-556 287.63,-536.44 271.97,-508.84 258.59,-491.31"/>
<polygon fill="midnightblue" stroke="midnightblue" points="261,-488.72 251.98,-483.15 255.56,-493.12 261,-488.72"/>
</g>
<!-- Node4 -->
<g id="node4" class="node">
<title>Node4</title>
<g id="a_node4"><a target="_blank" xlink:href="https://en.cppreference.com/w/cpp/header/type_traits.html" xlink:title=" ">
<polygon fill="white" stroke="black" points="147.5,-56.5 147.5,-75.5 216.5,-75.5 216.5,-56.5 147.5,-56.5"/>
<text text-anchor="middle" x="182" y="-63.5" font-family="Helvetica,sans-Serif" font-size="10.00">type_traits</text>
</a>
</g>
</g>
<!-- Node1&#45;&gt;Node4 -->
<g id="edge3" class="edge">
<title>Node1&#45;&gt;Node4</title>
<path fill="none" stroke="midnightblue" d="M101.77,-592.4C68.2,-575.15 0,-532.92 0,-474.5 0,-474.5 0,-474.5 0,-199 0,-131.2 83.78,-94.64 137.65,-78.14"/>
<polygon fill="midnightblue" stroke="midnightblue" points="138.73,-81.47 147.34,-75.29 136.76,-74.75 138.73,-81.47"/>
</g>
<!-- Node5 -->
<g id="node5" class="node">
<title>Node5</title>
<g id="a_node5"><a xlink:href="template__inspection_8hpp.html" target="_top" xlink:title="Provides bio::type_list and auxiliary type traits.">
<polygon fill="white" stroke="black" points="115,-257.5 115,-287.5 255,-287.5 255,-257.5 115,-257.5"/>
<text text-anchor="start" x="123" y="-275.5" font-family="Helvetica,sans-Serif" font-size="10.00">bio/meta/type_traits</text>
<text text-anchor="middle" x="185" y="-264.5" font-family="Helvetica,sans-Serif" font-size="10.00">/template_inspection.hpp</text>
</a>
</g>
</g>
<!-- Node1&#45;&gt;Node5 -->
<g id="edge4" class="edge">
<title>Node1&#45;&gt;Node5</title>
<path fill="none" stroke="midnightblue" d="M118.28,-592.33C111.69,-557 90.57,-421.15 134,-324 139.07,-312.65 147.94,-302.48 156.87,-294.29"/>
<polygon fill="midnightblue" stroke="midnightblue" points="159.33,-296.79 164.64,-287.62 154.77,-291.47 159.33,-296.79"/>
</g>
<!-- Node12 -->
<g id="node12" class="node">
<title>Node12</title>
<g id="a_node12"><a xlink:href="pod__tuple_8hpp.html" target="_top" xlink:title="Provides bio::pod_tuple.">
<polygon fill="white" stroke="black" points="320,-531 320,-550 452,-550 452,-531 320,-531"/>
<text text-anchor="middle" x="386" y="-538" font-family="Helvetica,sans-Serif" font-size="10.00">bio/meta/pod_tuple.hpp</text>
</a>
</g>
</g>
<!-- Node1&#45;&gt;Node12 -->
<g id="edge14" class="edge">
<title>Node1&#45;&gt;Node12</title>
<path fill="none" stroke="midnightblue" d="M158.11,-592.48C205.52,-581.87 286.48,-563.76 338.06,-552.22"/>
<polygon fill="midnightblue" stroke="midnightblue" points="338.96,-555.61 347.96,-550.01 337.44,-548.78 338.96,-555.61"/>
</g>
<!-- Node15 -->
<g id="node15" class="node">
<title>Node15</title>
<g id="a_node15"><a xlink:href="type__list_8hpp.html" target="_top" xlink:title="Provides bio::type_list.">
<polygon fill="white" stroke="black" points="142.5,-324.5 142.5,-354.5 247.5,-354.5 247.5,-324.5 142.5,-324.5"/>
<text text-anchor="start" x="150.5" y="-342.5" font-family="Helvetica,sans-Serif" font-size="10.00">bio/meta/type_list</text>
<text text-anchor="middle" x="195" y="-331.5" font-family="Helvetica,sans-Serif" font-size="10.00">/type_list.hpp</text>
</a>
</g>
</g>
<!-- Node1&#45;&gt;Node15 -->
<g id="edge26" class="edge">
<title>Node1&#45;&gt;Node15</title>
<path fill="none" stroke="midnightblue" d="M122.08,-592.07C125.43,-577.83 132.33,-549.12 139,-525 155.01,-467.11 176.09,-399.73 187.27,-364.6"/>
<polygon fill="midnightblue" stroke="midnightblue" points="190.69,-365.37 190.4,-354.78 184.02,-363.25 190.69,-365.37"/>
</g>
<!-- Node18 -->
<g id="node18" class="node">
<title>Node18</title>
<g id="a_node18"><a xlink:href="basic_8hpp.html" target="_top" xlink:title="Provides various type traits on generic types.">
<polygon fill="white" stroke="black" points="148,-525.5 148,-555.5 264,-555.5 264,-525.5 148,-525.5"/>
<text text-anchor="start" x="156" y="-543.5" font-family="Helvetica,sans-Serif" font-size="10.00">bio/meta/type_traits</text>
<text text-anchor="middle" x="206" y="-532.5" font-family="Helvetica,sans-Serif" font-size="10.00">/basic.hpp</text>
</a>
</g>
</g>
<!-- Node1&#45;&gt;Node18 -->
<g id="edge27" class="edge">
<title>Node1&#45;&gt;Node18</title>
<path fill="none" stroke="midnightblue" d="M132.32,-592.48C143.97,-584.42 161.88,-572.02 177.13,-561.47"/>
<polygon fill="midnightblue" stroke="midnightblue" points="179.5,-564.09 185.73,-555.52 175.52,-558.33 179.5,-564.09"/>
</g>
<!-- Node5&#45;&gt;Node2 -->
<g id="edge13" class="edge">
<title>Node5&#45;&gt;Node2</title>
<path fill="none" stroke="midnightblue" d="M171.24,-257.23C160.03,-245.62 144.22,-229.22 132.55,-217.12"/>
<polygon fill="midnightblue" stroke="midnightblue" points="135.04,-214.66 125.58,-209.89 130,-219.52 135.04,-214.66"/>
</g>
<!-- Node6 -->
<g id="node6" class="node">
<title>Node6</title>
<g id="a_node6"><a xlink:href="transformation__trait__or_8hpp.html" target="_top" xlink:title="Provides bio::detail::transformation_trait_or.">
<polygon fill="white" stroke="black" points="165,-179.5 165,-220.5 283,-220.5 283,-179.5 165,-179.5"/>
<text text-anchor="start" x="173" y="-208.5" font-family="Helvetica,sans-Serif" font-size="10.00">bio/meta/type_traits</text>
<text text-anchor="start" x="173" y="-197.5" font-family="Helvetica,sans-Serif" font-size="10.00">/transformation_trait</text>
<text text-anchor="middle" x="224" y="-186.5" font-family="Helvetica,sans-Serif" font-size="10.00">_or.hpp</text>
</a>
</g>
</g>
<!-- Node5&#45;&gt;Node6 -->
<g id="edge5" class="edge">
<title>Node5&#45;&gt;Node6</title>
<path fill="none" stroke="midnightblue" d="M192.89,-257.23C197.31,-249.24 202.98,-239 208.27,-229.44"/>
<polygon fill="midnightblue" stroke="midnightblue" points="211.39,-231.03 213.16,-220.59 205.26,-227.64 211.39,-231.03"/>
</g>
<!-- Node6&#45;&gt;Node4 -->
<g id="edge6" class="edge">
<title>Node6&#45;&gt;Node4</title>
<path fill="none" stroke="midnightblue" d="M190.17,-179.26C177.63,-170 164.82,-157.73 158,-143 149.05,-123.66 159.56,-100.08 169.35,-84.36"/>
<polygon fill="midnightblue" stroke="midnightblue" points="172.5,-85.95 175.17,-75.7 166.69,-82.05 172.5,-85.95"/>
</g>
<!-- Node7 -->
<g id="node7" class="node">
<title>Node7</title>
<g id="a_node7"><a xlink:href="meta_2type__traits_2concept_8hpp.html" target="_top" xlink:title="Provides the concepts bio::transformation_trait and bio::unary_type_trait.">
<polygon fill="white" stroke="black" points="167,-112.5 167,-142.5 283,-142.5 283,-112.5 167,-112.5"/>
<text text-anchor="start" x="175" y="-130.5" font-family="Helvetica,sans-Serif" font-size="10.00">bio/meta/type_traits</text>
<text text-anchor="middle" x="225" y="-119.5" font-family="Helvetica,sans-Serif" font-size="10.00">/concept.hpp</text>
</a>
</g>
</g>
<!-- Node6&#45;&gt;Node7 -->
<g id="edge7" class="edge">
<title>Node6&#45;&gt;Node7</title>
<path fill="none" stroke="midnightblue" d="M224.28,-179.36C224.39,-171.23 224.53,-161.7 224.65,-153.11"/>
<polygon fill="midnightblue" stroke="midnightblue" points="228.15,-152.94 224.8,-142.89 221.15,-152.84 228.15,-152.94"/>
</g>
<!-- Node7&#45;&gt;Node4 -->
<g id="edge8" class="edge">
<title>Node7&#45;&gt;Node4</title>
<path fill="none" stroke="midnightblue" d="M214.81,-112.4C208.63,-103.84 200.7,-92.87 194.18,-83.86"/>
<polygon fill="midnightblue" stroke="midnightblue" points="196.95,-81.71 188.26,-75.66 191.28,-85.81 196.95,-81.71"/>
</g>
<!-- Node8 -->
<g id="node8" class="node">
<title>Node8</title>
<g id="a_node8"><a xlink:href="platform_8hpp.html" target="_top" xlink:title="Provides platform and dependency checks.">
<polygon fill="white" stroke="black" points="353,-56.5 353,-75.5 479,-75.5 479,-56.5 353,-56.5"/>
<text text-anchor="middle" x="416" y="-63.5" font-family="Helvetica,sans-Serif" font-size="10.00">bio/meta/platform.hpp</text>
</a>
</g>
</g>
<!-- Node7&#45;&gt;Node8 -->
<g id="edge9" class="edge">
<title>Node7&#45;&gt;Node8</title>
<path fill="none" stroke="midnightblue" d="M270.26,-112.4C303.41,-102.07 347.85,-88.23 378.9,-78.56"/>
<polygon fill="midnightblue" stroke="midnightblue" points="379.98,-81.89 388.49,-75.57 377.9,-75.2 379.98,-81.89"/>
</g>
<!-- Node9 -->
<g id="node9" class="node">
<title>Node9</title>
<g id="a_node9"><a target="_blank" xlink:href="https://en.cppreference.com/w/cpp/header/cinttypes.html" xlink:title=" ">
<polygon fill="white" stroke="black" points="309,-0.5 309,-19.5 371,-19.5 371,-0.5 309,-0.5"/>
<text text-anchor="middle" x="340" y="-7.5" font-family="Helvetica,sans-Serif" font-size="10.00">cinttypes</text>
</a>
</g>
</g>
<!-- Node8&#45;&gt;Node9 -->
<g id="edge10" class="edge">
<title>Node8&#45;&gt;Node9</title>
<path fill="none" stroke="midnightblue" d="M403.79,-56.32C392.22,-48.11 374.62,-35.6 360.84,-25.81"/>
<polygon fill="midnightblue" stroke="midnightblue" points="362.61,-22.77 352.43,-19.83 358.56,-28.48 362.61,-22.77"/>
</g>
<!-- Node10 -->
<g id="node10" class="node">
<title>Node10</title>
<g id="a_node10"><a target="_blank" xlink:href="https://en.cppreference.com/w/cpp/header/ciso646.html" xlink:title=" ">
<polygon fill="white" stroke="black" points="389,-0.5 389,-19.5 443,-19.5 443,-0.5 389,-0.5"/>
<text text-anchor="middle" x="416" y="-7.5" font-family="Helvetica,sans-Serif" font-size="10.00">ciso646</text>
</a>
</g>
</g>
<!-- Node8&#45;&gt;Node10 -->
<g id="edge11" class="edge">
<title>Node8&#45;&gt;Node10</title>
<path fill="none" stroke="midnightblue" d="M416,-56.08C416,-49.01 416,-38.86 416,-29.99"/>
<polygon fill="midnightblue" stroke="midnightblue" points="419.5,-29.75 416,-19.75 412.5,-29.75 419.5,-29.75"/>
</g>
<!-- Node11 -->
<g id="node11" class="node">
<title>Node11</title>
<g id="a_node11"><a target="_blank" xlink:href="https://en.cppreference.com/w/cpp/header/cstddef.html" xlink:title=" ">
<polygon fill="white" stroke="black" points="461.5,-0.5 461.5,-19.5 514.5,-19.5 514.5,-0.5 461.5,-0.5"/>
<text text-anchor="middle" x="488" y="-7.5" font-family="Helvetica,sans-Serif" font-size="10.00">cstddef</text>
</a>
</g>
</g>
<!-- Node8&#45;&gt;Node11 -->
<g id="edge12" class="edge">
<title>Node8&#45;&gt;Node11</title>
<path fill="none" stroke="midnightblue" d="M427.57,-56.32C438.42,-48.18 454.88,-35.84 467.88,-26.09"/>
<polygon fill="midnightblue" stroke="midnightblue" points="470.32,-28.63 476.22,-19.83 466.12,-23.03 470.32,-28.63"/>
</g>
<!-- Node12&#45;&gt;Node3 -->
<g id="edge15" class="edge">
<title>Node12&#45;&gt;Node3</title>
<path fill="none" stroke="midnightblue" d="M366.5,-530.9C344.1,-520.97 306.27,-504.07 274,-489 272.85,-488.46 271.68,-487.91 270.49,-487.35"/>
<polygon fill="midnightblue" stroke="midnightblue" points="271.94,-484.17 261.41,-483.01 268.93,-490.48 271.94,-484.17"/>
</g>
<!-- Node12&#45;&gt;Node8 -->
<g id="edge17" class="edge">
<title>Node12&#45;&gt;Node8</title>
<path fill="none" stroke="midnightblue" d="M444.9,-530.93C472.29,-524.01 503.12,-511.52 523,-489 547.62,-461.12 542,-444.69 542,-407.5 542,-407.5 542,-407.5 542,-199 542,-142.44 480.71,-100.56 443.62,-80.4"/>
<polygon fill="midnightblue" stroke="midnightblue" points="444.8,-77.07 434.32,-75.53 441.55,-83.27 444.8,-77.07"/>
</g>
<!-- Node13 -->
<g id="node13" class="node">
<title>Node13</title>
<g id="a_node13"><a xlink:title=" ">
<polygon fill="white" stroke="#bfbfbf" points="444.5,-464 444.5,-483 513.5,-483 513.5,-464 444.5,-464"/>
<text text-anchor="middle" x="479" y="-471" font-family="Helvetica,sans-Serif" font-size="10.00">type_traits</text>
</a>
</g>
</g>
<!-- Node12&#45;&gt;Node13 -->
<g id="edge16" class="edge">
<title>Node12&#45;&gt;Node13</title>
<path fill="none" stroke="midnightblue" d="M398.54,-530.73C413.88,-520.01 440.06,-501.72 458.38,-488.91"/>
<polygon fill="midnightblue" stroke="midnightblue" points="460.46,-491.72 466.66,-483.13 456.45,-485.99 460.46,-491.72"/>
</g>
<!-- Node14 -->
<g id="node14" class="node">
<title>Node14</title>
<g id="a_node14"><a xlink:href="type__list_2traits_8hpp.html" target="_top" xlink:title="Provides traits for bio::type_list.">
<polygon fill="white" stroke="black" points="282.5,-458.5 282.5,-488.5 387.5,-488.5 387.5,-458.5 282.5,-458.5"/>
<text text-anchor="start" x="290.5" y="-476.5" font-family="Helvetica,sans-Serif" font-size="10.00">bio/meta/type_list</text>
<text text-anchor="middle" x="335" y="-465.5" font-family="Helvetica,sans-Serif" font-size="10.00">/traits.hpp</text>
</a>
</g>
</g>
<!-- Node12&#45;&gt;Node14 -->
<g id="edge18" class="edge">
<title>Node12&#45;&gt;Node14</title>
<path fill="none" stroke="midnightblue" d="M379.12,-530.73C372.3,-522.03 361.56,-508.34 352.38,-496.65"/>
<polygon fill="midnightblue" stroke="midnightblue" points="354.98,-494.3 346.05,-488.59 349.47,-498.62 354.98,-494.3"/>
</g>
<!-- Node14&#45;&gt;Node4 -->
<g id="edge19" class="edge">
<title>Node14&#45;&gt;Node4</title>
<path fill="none" stroke="midnightblue" d="M342.89,-458.34C355.3,-434.7 378,-385.33 378,-340.5 378,-340.5 378,-340.5 378,-199 378,-126.43 284.43,-91.13 226.59,-76.24"/>
<polygon fill="midnightblue" stroke="midnightblue" points="227.14,-72.77 216.59,-73.77 225.46,-79.56 227.14,-72.77"/>
</g>
<!-- Node14&#45;&gt;Node15 -->
<g id="edge20" class="edge">
<title>Node14&#45;&gt;Node15</title>
<path fill="none" stroke="midnightblue" d="M282.42,-459.17C261.16,-451.43 237.93,-439.61 222,-422 207.61,-406.09 200.87,-382.3 197.72,-364.53"/>
<polygon fill="midnightblue" stroke="midnightblue" points="201.18,-363.98 196.22,-354.61 194.25,-365.03 201.18,-363.98"/>
</g>
<!-- Node16 -->
<g id="node16" class="node">
<title>Node16</title>
<g id="a_node16"><a xlink:href="type__pack_2traits_8hpp.html" target="_top" xlink:title="Provides various traits for template packs.">
<polygon fill="white" stroke="black" points="230.5,-391.5 230.5,-421.5 343.5,-421.5 343.5,-391.5 230.5,-391.5"/>
<text text-anchor="start" x="238.5" y="-409.5" font-family="Helvetica,sans-Serif" font-size="10.00">bio/meta/type_pack</text>
<text text-anchor="middle" x="287" y="-398.5" font-family="Helvetica,sans-Serif" font-size="10.00">/traits.hpp</text>
</a>
</g>
</g>
<!-- Node14&#45;&gt;Node16 -->
<g id="edge22" class="edge">
<title>Node14&#45;&gt;Node16</title>
<path fill="none" stroke="midnightblue" d="M324.58,-458.4C318.42,-450.05 310.47,-439.29 303.48,-429.81"/>
<polygon fill="midnightblue" stroke="midnightblue" points="306.15,-427.54 297.39,-421.58 300.52,-431.7 306.15,-427.54"/>
</g>
<!-- Node15&#45;&gt;Node5 -->
<g id="edge21" class="edge">
<title>Node15&#45;&gt;Node5</title>
<path fill="none" stroke="midnightblue" d="M192.83,-324.4C191.62,-316.56 190.09,-306.6 188.7,-297.57"/>
<polygon fill="midnightblue" stroke="midnightblue" points="192.15,-296.93 187.17,-287.58 185.23,-297.99 192.15,-296.93"/>
</g>
<!-- Node16&#45;&gt;Node4 -->
<g id="edge23" class="edge">
<title>Node16&#45;&gt;Node4</title>
<path fill="none" stroke="midnightblue" d="M288.17,-391.48C292.63,-336.21 307.66,-135.32 292,-112 277.41,-90.27 250.26,-79.02 226.59,-73.21"/>
<polygon fill="midnightblue" stroke="midnightblue" points="227.22,-69.76 216.7,-71.03 225.72,-76.6 227.22,-69.76"/>
</g>
<!-- Node16&#45;&gt;Node15 -->
<g id="edge25" class="edge">
<title>Node16&#45;&gt;Node15</title>
<path fill="none" stroke="midnightblue" d="M267.04,-391.4C254.26,-382.37 237.48,-370.51 223.33,-360.52"/>
<polygon fill="midnightblue" stroke="midnightblue" points="225.11,-357.49 214.92,-354.58 221.07,-363.21 225.11,-357.49"/>
</g>
<!-- Node17 -->
<g id="node17" class="node">
<title>Node17</title>
<g id="a_node17"><a target="_blank" xlink:href="https://en.cppreference.com/w/cpp/header/utility.html" xlink:title=" ">
<polygon fill="white" stroke="black" points="304.5,-330 304.5,-349 349.5,-349 349.5,-330 304.5,-330"/>
<text text-anchor="middle" x="327" y="-337" font-family="Helvetica,sans-Serif" font-size="10.00">utility</text>
</a>
</g>
</g>
<!-- Node16&#45;&gt;Node17 -->
<g id="edge24" class="edge">
<title>Node16&#45;&gt;Node17</title>
<path fill="none" stroke="midnightblue" d="M295.68,-391.4C301.73,-381.56 309.84,-368.38 316.3,-357.89"/>
<polygon fill="midnightblue" stroke="midnightblue" points="319.39,-359.55 321.65,-349.19 313.43,-355.88 319.39,-359.55"/>
</g>
<!-- Node18&#45;&gt;Node3 -->
<g id="edge28" class="edge">
<title>Node18&#45;&gt;Node3</title>
<path fill="none" stroke="midnightblue" d="M214.25,-525.4C219.99,-515.56 227.7,-502.38 233.83,-491.89"/>
<polygon fill="midnightblue" stroke="midnightblue" points="236.89,-493.59 238.92,-483.19 230.85,-490.06 236.89,-493.59"/>
</g>
<!-- Node18&#45;&gt;Node4 -->
<g id="edge29" class="edge">
<title>Node18&#45;&gt;Node4</title>
<path fill="none" stroke="midnightblue" d="M197.91,-525.19C173.69,-481.42 101.94,-344.75 78,-221 74.46,-202.67 71.18,-196.38 78,-179 94.66,-136.58 135.78,-100.67 161.03,-81.62"/>
<polygon fill="midnightblue" stroke="midnightblue" points="163.25,-84.34 169.24,-75.61 159.11,-78.7 163.25,-84.34"/>
</g>
<!-- Node18&#45;&gt;Node8 -->
<g id="edge30" class="edge">
<title>Node18&#45;&gt;Node8</title>
<path fill="none" stroke="midnightblue" d="M264.04,-530.86C313.22,-522.37 378.6,-507.95 397,-489 422.91,-462.32 416,-444.69 416,-407.5 416,-407.5 416,-407.5 416,-199 416,-158.66 416,-111.38 416,-85.78"/>
<polygon fill="midnightblue" stroke="midnightblue" points="419.5,-85.65 416,-75.65 412.5,-85.65 419.5,-85.65"/>
</g>
</g>
</svg>
