<?xml version="1.0" encoding="UTF-8" standalone="no"?>
<!DOCTYPE svg PUBLIC "-//W3C//DTD SVG 1.1//EN"
 "http://www.w3.org/Graphics/SVG/1.1/DTD/svg11.dtd">
<!-- Generated by graphviz version 2.43.0 (0)
 -->
<!-- Title: bio/meta/concept/tuple.hpp Pages: 1 -->
<svg width="461pt" height="140pt"
 viewBox="0.00 0.00 461.00 140.00" xmlns="http://www.w3.org/2000/svg" xmlns:xlink="http://www.w3.org/1999/xlink">
<g id="graph0" class="graph" transform="scale(1 1) rotate(0) translate(4 136)">
<title>bio/meta/concept/tuple.hpp</title>
<polygon fill="white" stroke="transparent" points="-4,4 -4,-136 457,-136 457,4 -4,4"/>
<!-- Node1 -->
<g id="node1" class="node">
<title>Node1</title>
<g id="a_node1"><a xlink:title="Provides bio::meta::tuple_like.">
<polygon fill="#bfbfbf" stroke="black" points="150.5,-112.5 150.5,-131.5 300.5,-131.5 300.5,-112.5 150.5,-112.5"/>
<text text-anchor="middle" x="225.5" y="-119.5" font-family="Helvetica,sans-Serif" font-size="10.00">bio/meta/concept/tuple.hpp</text>
</a>
</g>
</g>
<!-- Node2 -->
<g id="node2" class="node">
<title>Node2</title>
<g id="a_node2"><a xlink:href="meta_2concept_2all_8hpp.html" target="_top" xlink:title="Meta&#45;include for custom concepts.">
<polygon fill="white" stroke="black" points="0,-56.5 0,-75.5 137,-75.5 137,-56.5 0,-56.5"/>
<text text-anchor="middle" x="68.5" y="-63.5" font-family="Helvetica,sans-Serif" font-size="10.00">bio/meta/concept/all.hpp</text>
</a>
</g>
</g>
<!-- Node1&#45;&gt;Node2 -->
<g id="edge1" class="edge">
<title>Node1&#45;&gt;Node2</title>
<path fill="none" stroke="midnightblue" d="M191.11,-109.17C161.55,-99 119.63,-84.59 93.26,-75.52"/>
<polygon fill="midnightblue" stroke="midnightblue" points="190.03,-112.5 200.62,-112.44 192.3,-105.88 190.03,-112.5"/>
</g>
<!-- Node4 -->
<g id="node4" class="node">
<title>Node4</title>
<g id="a_node4"><a xlink:href="tuple__utility_8hpp.html" target="_top" xlink:title="Provides utility functions for tuple like interfaces.">
<polygon fill="white" stroke="black" points="155,-56.5 155,-75.5 296,-75.5 296,-56.5 155,-56.5"/>
<text text-anchor="middle" x="225.5" y="-63.5" font-family="Helvetica,sans-Serif" font-size="10.00">bio/meta/tuple_utility.hpp</text>
</a>
</g>
</g>
<!-- Node1&#45;&gt;Node4 -->
<g id="edge3" class="edge">
<title>Node1&#45;&gt;Node4</title>
<path fill="none" stroke="midnightblue" d="M225.5,-101.8C225.5,-92.91 225.5,-82.78 225.5,-75.75"/>
<polygon fill="midnightblue" stroke="midnightblue" points="222,-102.08 225.5,-112.08 229,-102.08 222,-102.08"/>
</g>
<!-- Node5 -->
<g id="node5" class="node">
<title>Node5</title>
<g id="a_node5"><a xlink:href="get_8hpp.html" target="_top" xlink:title="Provides bio::views::get.">
<polygon fill="white" stroke="black" points="314,-56.5 314,-75.5 453,-75.5 453,-56.5 314,-56.5"/>
<text text-anchor="middle" x="383.5" y="-63.5" font-family="Helvetica,sans-Serif" font-size="10.00">bio/ranges/views/get.hpp</text>
</a>
</g>
</g>
<!-- Node1&#45;&gt;Node5 -->
<g id="edge5" class="edge">
<title>Node1&#45;&gt;Node5</title>
<path fill="none" stroke="midnightblue" d="M260.11,-109.17C289.86,-99 332.05,-84.59 358.58,-75.52"/>
<polygon fill="midnightblue" stroke="midnightblue" points="258.87,-105.9 250.54,-112.44 261.13,-112.52 258.87,-105.9"/>
</g>
<!-- Node3 -->
<g id="node3" class="node">
<title>Node3</title>
<g id="a_node3"><a xlink:href="meta_2all_8hpp.html" target="_top" xlink:title="Meta&#45;header for the meta module .">
<polygon fill="white" stroke="black" points="99.5,-0.5 99.5,-19.5 195.5,-19.5 195.5,-0.5 99.5,-0.5"/>
<text text-anchor="middle" x="147.5" y="-7.5" font-family="Helvetica,sans-Serif" font-size="10.00">bio/meta/all.hpp</text>
</a>
</g>
</g>
<!-- Node2&#45;&gt;Node3 -->
<g id="edge2" class="edge">
<title>Node2&#45;&gt;Node3</title>
<path fill="none" stroke="midnightblue" d="M89.53,-50.62C103.97,-40.76 122.64,-27.99 134.84,-19.65"/>
<polygon fill="midnightblue" stroke="midnightblue" points="87.47,-47.79 81.19,-56.32 91.42,-53.57 87.47,-47.79"/>
</g>
<!-- Node4&#45;&gt;Node3 -->
<g id="edge4" class="edge">
<title>Node4&#45;&gt;Node3</title>
<path fill="none" stroke="midnightblue" d="M204.73,-50.62C190.48,-40.76 172.04,-27.99 160,-19.65"/>
<polygon fill="midnightblue" stroke="midnightblue" points="202.75,-53.51 212.97,-56.32 206.74,-47.75 202.75,-53.51"/>
</g>
<!-- Node6 -->
<g id="node6" class="node">
<title>Node6</title>
<g id="a_node6"><a xlink:href="ranges_2views_2all_8hpp.html" target="_top" xlink:title="Meta&#45;header for the views submodule .">
<polygon fill="white" stroke="black" points="316,-0.5 316,-19.5 451,-19.5 451,-0.5 316,-0.5"/>
<text text-anchor="middle" x="383.5" y="-7.5" font-family="Helvetica,sans-Serif" font-size="10.00">bio/ranges/views/all.hpp</text>
</a>
</g>
</g>
<!-- Node5&#45;&gt;Node6 -->
<g id="edge6" class="edge">
<title>Node5&#45;&gt;Node6</title>
<path fill="none" stroke="midnightblue" d="M383.5,-45.8C383.5,-36.91 383.5,-26.78 383.5,-19.75"/>
<polygon fill="midnightblue" stroke="midnightblue" points="380,-46.08 383.5,-56.08 387,-46.08 380,-46.08"/>
</g>
</g>
</svg>
