<?xml version="1.0" encoding="UTF-8" standalone="no"?>
<!DOCTYPE svg PUBLIC "-//W3C//DTD SVG 1.1//EN"
 "http://www.w3.org/Graphics/SVG/1.1/DTD/svg11.dtd">
<!-- Generated by graphviz version 2.42.2 ()
 -->
<!-- Title: bio/meta/type_list/type_list.hpp Pages: 1 -->
<!--zoomable 698 -->
<svg id="main" version="1.1" xmlns="http://www.w3.org/2000/svg" xmlns:xlink="http://www.w3.org/1999/xlink" xml:space="preserve" onload="init(evt)">
<style type="text/css"><![CDATA[
.edge:hover path { stroke: red; }
.edge:hover polygon { stroke: red; fill: red; }
]]></style>
<script type="text/javascript"><![CDATA[
var edges = document.getElementsByTagName('g');
if (edges && edges.length) {
  for (var i=0;i<edges.length;i++) {
    if (edges[i].id.substr(0,4)=='edge') {
      edges[i].setAttribute('class','edge');
    }
  }
}
]]></script>
        <defs>
                <circle id="rim" cx="0" cy="0" r="7"/>
                <circle id="rim2" cx="0" cy="0" r="3.5"/>
                <g id="zoomPlus">
                        <use xlink:href="#rim" fill="#404040">
                                <set attributeName="fill" to="#808080" begin="zoomplus.mouseover" end="zoomplus.mouseout"/>
                        </use>
                        <path d="M-4,0h8M0,-4v8" fill="none" stroke="white" stroke-width="1.5" pointer-events="none"/>
                </g>
                <g id="zoomMin">
                        <use xlink:href="#rim" fill="#404040">
                                <set attributeName="fill" to="#808080" begin="zoomminus.mouseover" end="zoomminus.mouseout"/>
                        </use>
                        <path d="M-4,0h8" fill="none" stroke="white" stroke-width="1.5" pointer-events="none"/>
                </g>
                <g id="dirArrow">
                        <path fill="none" stroke="white" stroke-width="1.5" d="M0,-3.0v7 M-2.5,-0.5L0,-3.0L2.5,-0.5"/>
                </g>
               <g id="resetDef">
                       <use xlink:href="#rim2" fill="#404040">
                               <set attributeName="fill" to="#808080" begin="reset.mouseover" end="reset.mouseout"/>
                       </use>
               </g>
        </defs>

<script type="text/javascript">
var viewWidth = 1221;
var viewHeight = 698;
var sectionId = 'dynsection-1';
</script>
<script xlink:href="svgpan.js"/>
<svg id="graph" class="graph">
<g id="viewport">
<title>bio/meta/type_list/type_list.hpp</title>
<polygon fill="white" stroke="transparent" points="-4,4 -4,-694 1216.5,-694 1216.5,4 -4,4"/>
<!-- Node1 -->
<g id="node1" class="node">
<title>Node1</title>
<g id="a_node1"><a xlink:title="Provides bio::meta::type_list.">
<polygon fill="#bfbfbf" stroke="black" points="691,-659.5 691,-689.5 785,-689.5 785,-659.5 691,-659.5"/>
<text text-anchor="start" x="699" y="-677.5" font-family="Helvetica,sans-Serif" font-size="10.00">bio/meta/type_list</text>
<text text-anchor="middle" x="738" y="-666.5" font-family="Helvetica,sans-Serif" font-size="10.00">/type_list.hpp</text>
</a>
</g>
</g>
<!-- Node2 -->
<g id="node2" class="node">
<title>Node2</title>
<g id="a_node2"><a xlink:href="alphabet__tuple__base_8hpp.html" target="_top" xlink:title="Provides bio::alphabet::alphabet_tuple_base.">
<polygon fill="white" stroke="black" points="226,-257.5 226,-287.5 354,-287.5 354,-257.5 226,-257.5"/>
<text text-anchor="start" x="234" y="-275.5" font-family="Helvetica,sans-Serif" font-size="10.00">bio/alphabet/composite</text>
<text text-anchor="middle" x="290" y="-264.5" font-family="Helvetica,sans-Serif" font-size="10.00">/alphabet_tuple_base.hpp</text>
</a>
</g>
</g>
<!-- Node1&#45;&gt;Node2 -->
<g id="edge1" class="edge">
<title>Node1&#45;&gt;Node2</title>
<path fill="none" stroke="midnightblue" d="M680.68,-671C577.11,-665.83 363.21,-651.93 295,-623 242.53,-600.75 196,-598.49 196,-541.5 196,-541.5 196,-541.5 196,-405.5 196,-354.58 242.99,-309.68 270.52,-287.74"/>
<polygon fill="midnightblue" stroke="midnightblue" points="680.79,-674.51 690.95,-671.51 681.13,-667.52 680.79,-674.51"/>
</g>
<!-- Node13 -->
<g id="node13" class="node">
<title>Node13</title>
<g id="a_node13"><a xlink:href="alphabet_2composite_2detail_8hpp_source.html" target="_top" xlink:title=" ">
<polygon fill="white" stroke="black" points="337.5,-324.5 337.5,-354.5 454.5,-354.5 454.5,-324.5 337.5,-324.5"/>
<text text-anchor="start" x="345.5" y="-342.5" font-family="Helvetica,sans-Serif" font-size="10.00">bio/alphabet/composite</text>
<text text-anchor="middle" x="396" y="-331.5" font-family="Helvetica,sans-Serif" font-size="10.00">/detail.hpp</text>
</a>
</g>
</g>
<!-- Node1&#45;&gt;Node13 -->
<g id="edge15" class="edge">
<title>Node1&#45;&gt;Node13</title>
<path fill="none" stroke="midnightblue" d="M687.96,-655.79C606.1,-623.76 446.17,-547.62 381,-422 369.74,-400.29 380.05,-371.47 388.25,-354.56"/>
<polygon fill="midnightblue" stroke="midnightblue" points="686.95,-659.15 697.54,-659.48 689.47,-652.62 686.95,-659.15"/>
</g>
<!-- Node17 -->
<g id="node17" class="node">
<title>Node17</title>
<g id="a_node17"><a xlink:href="meta_2all_8hpp.html" target="_top" xlink:title="Meta&#45;header for the meta module .">
<polygon fill="white" stroke="black" points="807,-263 807,-282 893,-282 893,-263 807,-263"/>
<text text-anchor="middle" x="850" y="-270" font-family="Helvetica,sans-Serif" font-size="10.00">bio/meta/all.hpp</text>
</a>
</g>
</g>
<!-- Node1&#45;&gt;Node17 -->
<g id="edge22" class="edge">
<title>Node1&#45;&gt;Node17</title>
<path fill="none" stroke="midnightblue" d="M732.44,-649.49C726.83,-623.15 719,-579.55 719,-541.5 719,-541.5 719,-541.5 719,-405.5 719,-343.03 793.84,-299.58 830.39,-282.09"/>
<polygon fill="midnightblue" stroke="midnightblue" points="729.04,-650.32 734.6,-659.34 735.87,-648.82 729.04,-650.32"/>
</g>
<!-- Node18 -->
<g id="node18" class="node">
<title>Node18</title>
<g id="a_node18"><a xlink:href="tuple_8hpp.html" target="_top" xlink:title="Provides bio::meta::tuple_like.">
<polygon fill="white" stroke="black" points="941,-397 941,-416 1075,-416 1075,-397 941,-397"/>
<text text-anchor="middle" x="1008" y="-404" font-family="Helvetica,sans-Serif" font-size="10.00">bio/meta/concept/tuple.hpp</text>
</a>
</g>
</g>
<!-- Node1&#45;&gt;Node18 -->
<g id="edge23" class="edge">
<title>Node1&#45;&gt;Node18</title>
<path fill="none" stroke="midnightblue" d="M795.25,-666.21C831.85,-659.46 879.03,-646.72 915,-623 979.09,-580.74 998.29,-561.34 1024,-489 1033.08,-463.46 1020.19,-431.48 1012.71,-416.29"/>
<polygon fill="midnightblue" stroke="midnightblue" points="794.48,-662.79 785.23,-667.96 795.68,-669.69 794.48,-662.79"/>
</g>
<!-- Node22 -->
<g id="node22" class="node">
<title>Node22</title>
<g id="a_node22"><a xlink:href="meta_2type__list_2all_8hpp.html" target="_top" xlink:title="Meta&#45;header for the Utility / Type List submodule .">
<polygon fill="white" stroke="black" points="921,-458.5 921,-488.5 1015,-488.5 1015,-458.5 921,-458.5"/>
<text text-anchor="start" x="929" y="-476.5" font-family="Helvetica,sans-Serif" font-size="10.00">bio/meta/type_list</text>
<text text-anchor="middle" x="968" y="-465.5" font-family="Helvetica,sans-Serif" font-size="10.00">/all.hpp</text>
</a>
</g>
</g>
<!-- Node1&#45;&gt;Node22 -->
<g id="edge30" class="edge">
<title>Node1&#45;&gt;Node22</title>
<path fill="none" stroke="midnightblue" d="M795.1,-664.74C825.44,-657.68 861.77,-645.12 888,-623 932.1,-585.8 955.7,-517.92 964.24,-488.6"/>
<polygon fill="midnightblue" stroke="midnightblue" points="794.09,-661.38 785.06,-666.93 795.58,-668.22 794.09,-661.38"/>
</g>
<!-- Node23 -->
<g id="node23" class="node">
<title>Node23</title>
<g id="a_node23"><a xlink:href="type__list_2function_8hpp.html" target="_top" xlink:title="Provides algorithms for meta programming, parameter packs and bio::meta::type_list.">
<polygon fill="white" stroke="black" points="224,-525.5 224,-555.5 318,-555.5 318,-525.5 224,-525.5"/>
<text text-anchor="start" x="232" y="-543.5" font-family="Helvetica,sans-Serif" font-size="10.00">bio/meta/type_list</text>
<text text-anchor="middle" x="271" y="-532.5" font-family="Helvetica,sans-Serif" font-size="10.00">/function.hpp</text>
</a>
</g>
</g>
<!-- Node1&#45;&gt;Node23 -->
<g id="edge31" class="edge">
<title>Node1&#45;&gt;Node23</title>
<path fill="none" stroke="midnightblue" d="M680.48,-671.84C582.92,-668.12 389.93,-656.64 332,-623 304.95,-607.29 286.14,-574.35 277.11,-555.51"/>
<polygon fill="midnightblue" stroke="midnightblue" points="680.63,-675.34 690.75,-672.21 680.89,-668.35 680.63,-675.34"/>
</g>
<!-- Node24 -->
<g id="node24" class="node">
<title>Node24</title>
<g id="a_node24"><a xlink:href="traits_8hpp.html" target="_top" xlink:title="Provides traits for meta::type_list.">
<polygon fill="white" stroke="black" points="747,-525.5 747,-555.5 841,-555.5 841,-525.5 747,-525.5"/>
<text text-anchor="start" x="755" y="-543.5" font-family="Helvetica,sans-Serif" font-size="10.00">bio/meta/type_list</text>
<text text-anchor="middle" x="794" y="-532.5" font-family="Helvetica,sans-Serif" font-size="10.00">/traits.hpp</text>
</a>
</g>
</g>
<!-- Node1&#45;&gt;Node24 -->
<g id="edge33" class="edge">
<title>Node1&#45;&gt;Node24</title>
<path fill="none" stroke="midnightblue" d="M747.92,-650.12C759.56,-622.68 778.48,-578.09 788.05,-555.52"/>
<polygon fill="midnightblue" stroke="midnightblue" points="744.68,-648.8 743.99,-659.37 751.12,-651.53 744.68,-648.8"/>
</g>
<!-- Node30 -->
<g id="node30" class="node">
<title>Node30</title>
<g id="a_node30"><a xlink:href="traits__detail_8hpp.html" target="_top" xlink:title="Provides various traits for template packs.">
<polygon fill="white" stroke="black" points="785,-592.5 785,-622.5 879,-622.5 879,-592.5 785,-592.5"/>
<text text-anchor="start" x="793" y="-610.5" font-family="Helvetica,sans-Serif" font-size="10.00">bio/meta/type_list</text>
<text text-anchor="middle" x="832" y="-599.5" font-family="Helvetica,sans-Serif" font-size="10.00">/traits_detail.hpp</text>
</a>
</g>
</g>
<!-- Node1&#45;&gt;Node30 -->
<g id="edge49" class="edge">
<title>Node1&#45;&gt;Node30</title>
<path fill="none" stroke="midnightblue" d="M766.99,-653.45C781.45,-643.45 798.59,-631.6 811.64,-622.58"/>
<polygon fill="midnightblue" stroke="midnightblue" points="764.63,-650.83 758.4,-659.4 768.61,-656.59 764.63,-650.83"/>
</g>
<!-- Node3 -->
<g id="node3" class="node">
<title>Node3</title>
<g id="a_node3"><a xlink:href="cigar_8hpp.html" target="_top" xlink:title="Provides the bio::alphabet::cigar alphabet.">
<polygon fill="white" stroke="black" points="170.5,-190.5 170.5,-220.5 263.5,-220.5 263.5,-190.5 170.5,-190.5"/>
<text text-anchor="start" x="178.5" y="-208.5" font-family="Helvetica,sans-Serif" font-size="10.00">bio/alphabet/cigar</text>
<text text-anchor="middle" x="217" y="-197.5" font-family="Helvetica,sans-Serif" font-size="10.00">/cigar.hpp</text>
</a>
</g>
</g>
<!-- Node2&#45;&gt;Node3 -->
<g id="edge2" class="edge">
<title>Node2&#45;&gt;Node3</title>
<path fill="none" stroke="midnightblue" d="M266.53,-250.6C255.5,-240.78 242.66,-229.34 232.81,-220.58"/>
<polygon fill="midnightblue" stroke="midnightblue" points="264.36,-253.36 274.16,-257.4 269.02,-248.13 264.36,-253.36"/>
</g>
<!-- Node4 -->
<g id="node4" class="node">
<title>Node4</title>
<g id="a_node4"><a xlink:href="alphabet_2composite_2all_8hpp.html" target="_top" xlink:title="Meta&#45;header for the composite submodule; includes all headers from alphabet/composite/.">
<polygon fill="white" stroke="black" points="400.5,-190.5 400.5,-220.5 517.5,-220.5 517.5,-190.5 400.5,-190.5"/>
<text text-anchor="start" x="408.5" y="-208.5" font-family="Helvetica,sans-Serif" font-size="10.00">bio/alphabet/composite</text>
<text text-anchor="middle" x="459" y="-197.5" font-family="Helvetica,sans-Serif" font-size="10.00">/all.hpp</text>
</a>
</g>
</g>
<!-- Node2&#45;&gt;Node4 -->
<g id="edge3" class="edge">
<title>Node2&#45;&gt;Node4</title>
<path fill="none" stroke="midnightblue" d="M336.33,-253.68C363.43,-243.26 397.17,-230.28 422.4,-220.58"/>
<polygon fill="midnightblue" stroke="midnightblue" points="334.75,-250.54 326.67,-257.4 337.26,-257.07 334.75,-250.54"/>
</g>
<!-- Node6 -->
<g id="node6" class="node">
<title>Node6</title>
<g id="a_node6"><a xlink:href="masked_8hpp.html" target="_top" xlink:title="Extends a given alphabet with the mask alphabet.">
<polygon fill="white" stroke="black" points="0,-196 0,-215 152,-215 152,-196 0,-196"/>
<text text-anchor="middle" x="76" y="-203" font-family="Helvetica,sans-Serif" font-size="10.00">bio/alphabet/mask/masked.hpp</text>
</a>
</g>
</g>
<!-- Node2&#45;&gt;Node6 -->
<g id="edge5" class="edge">
<title>Node2&#45;&gt;Node6</title>
<path fill="none" stroke="midnightblue" d="M234.06,-254.51C192.3,-241.83 136.98,-225.02 104.08,-215.03"/>
<polygon fill="midnightblue" stroke="midnightblue" points="233.24,-257.92 243.83,-257.48 235.28,-251.22 233.24,-257.92"/>
</g>
<!-- Node8 -->
<g id="node8" class="node">
<title>Node8</title>
<g id="a_node8"><a xlink:href="qualified_8hpp.html" target="_top" xlink:title="Provides quality alphabet composites.">
<polygon fill="white" stroke="black" points="281.5,-190.5 281.5,-220.5 382.5,-220.5 382.5,-190.5 281.5,-190.5"/>
<text text-anchor="start" x="289.5" y="-208.5" font-family="Helvetica,sans-Serif" font-size="10.00">bio/alphabet/quality</text>
<text text-anchor="middle" x="332" y="-197.5" font-family="Helvetica,sans-Serif" font-size="10.00">/qualified.hpp</text>
</a>
</g>
</g>
<!-- Node2&#45;&gt;Node8 -->
<g id="edge8" class="edge">
<title>Node2&#45;&gt;Node8</title>
<path fill="none" stroke="midnightblue" d="M304.62,-248.87C310.7,-239.46 317.57,-228.83 322.9,-220.58"/>
<polygon fill="midnightblue" stroke="midnightblue" points="301.6,-247.1 299.11,-257.4 307.48,-250.9 301.6,-247.1"/>
</g>
<!-- Node5 -->
<g id="node5" class="node">
<title>Node5</title>
<g id="a_node5"><a xlink:href="alphabet_2all_8hpp.html" target="_top" xlink:title="Meta&#45;header for the alphabet module.">
<polygon fill="white" stroke="black" points="299.5,-0.5 299.5,-19.5 400.5,-19.5 400.5,-0.5 299.5,-0.5"/>
<text text-anchor="middle" x="350" y="-7.5" font-family="Helvetica,sans-Serif" font-size="10.00">bio/alphabet/all.hpp</text>
</a>
</g>
</g>
<!-- Node4&#45;&gt;Node5 -->
<g id="edge4" class="edge">
<title>Node4&#45;&gt;Node5</title>
<path fill="none" stroke="midnightblue" d="M434.34,-183.53C425.47,-175.05 415.96,-164.73 409,-154 383.59,-114.8 389.33,-98.97 371,-56 365.52,-43.15 358.57,-28.55 354.2,-19.55"/>
<polygon fill="midnightblue" stroke="midnightblue" points="432.16,-186.28 441.88,-190.48 436.9,-181.13 432.16,-186.28"/>
</g>
<!-- Node7 -->
<g id="node7" class="node">
<title>Node7</title>
<g id="a_node7"><a xlink:href="alphabet_2mask_2all_8hpp.html" target="_top" xlink:title="Meta&#45;header for the mask submodule; includes all headers from alphabet/mask/.">
<polygon fill="white" stroke="black" points="112,-62 112,-81 240,-81 240,-62 112,-62"/>
<text text-anchor="middle" x="176" y="-69" font-family="Helvetica,sans-Serif" font-size="10.00">bio/alphabet/mask/all.hpp</text>
</a>
</g>
</g>
<!-- Node6&#45;&gt;Node7 -->
<g id="edge6" class="edge">
<title>Node6&#45;&gt;Node7</title>
<path fill="none" stroke="midnightblue" d="M88.75,-187.66C110.33,-159.18 153.27,-102.5 169.54,-81.02"/>
<polygon fill="midnightblue" stroke="midnightblue" points="85.81,-185.75 82.56,-195.84 91.39,-189.98 85.81,-185.75"/>
</g>
<!-- Node7&#45;&gt;Node5 -->
<g id="edge7" class="edge">
<title>Node7&#45;&gt;Node5</title>
<path fill="none" stroke="midnightblue" d="M210.41,-58.73C244.24,-47.17 295.03,-29.8 325.12,-19.51"/>
<polygon fill="midnightblue" stroke="midnightblue" points="209.26,-55.43 200.93,-61.98 211.52,-62.05 209.26,-55.43"/>
</g>
<!-- Node9 -->
<g id="node9" class="node">
<title>Node9</title>
<g id="a_node9"><a xlink:href="aliases_8hpp.html" target="_top" xlink:title="Provides aliases for qualified.">
<polygon fill="white" stroke="black" points="212.5,-123.5 212.5,-153.5 313.5,-153.5 313.5,-123.5 212.5,-123.5"/>
<text text-anchor="start" x="220.5" y="-141.5" font-family="Helvetica,sans-Serif" font-size="10.00">bio/alphabet/quality</text>
<text text-anchor="middle" x="263" y="-130.5" font-family="Helvetica,sans-Serif" font-size="10.00">/aliases.hpp</text>
</a>
</g>
</g>
<!-- Node8&#45;&gt;Node9 -->
<g id="edge9" class="edge">
<title>Node8&#45;&gt;Node9</title>
<path fill="none" stroke="midnightblue" d="M309.51,-183.31C299.16,-173.56 287.16,-162.26 277.94,-153.58"/>
<polygon fill="midnightblue" stroke="midnightblue" points="307.35,-186.09 317.03,-190.4 312.15,-180.99 307.35,-186.09"/>
</g>
<!-- Node10 -->
<g id="node10" class="node">
<title>Node10</title>
<g id="a_node10"><a xlink:href="alphabet_2quality_2all_8hpp.html" target="_top" xlink:title="Meta&#45;header that includes all headers from alphabet/quality/.">
<polygon fill="white" stroke="black" points="260.5,-56.5 260.5,-86.5 361.5,-86.5 361.5,-56.5 260.5,-56.5"/>
<text text-anchor="start" x="268.5" y="-74.5" font-family="Helvetica,sans-Serif" font-size="10.00">bio/alphabet/quality</text>
<text text-anchor="middle" x="311" y="-63.5" font-family="Helvetica,sans-Serif" font-size="10.00">/all.hpp</text>
</a>
</g>
</g>
<!-- Node8&#45;&gt;Node10 -->
<g id="edge12" class="edge">
<title>Node8&#45;&gt;Node10</title>
<path fill="none" stroke="midnightblue" d="M330.09,-180.03C328.63,-163.78 326.3,-142.03 323,-123 320.85,-110.57 317.46,-96.63 314.83,-86.55"/>
<polygon fill="midnightblue" stroke="midnightblue" points="326.63,-180.62 330.97,-190.29 333.6,-180.03 326.63,-180.62"/>
</g>
<!-- Node11 -->
<g id="node11" class="node">
<title>Node11</title>
<g id="a_node11"><a xlink:href="trim__quality_8hpp.html" target="_top" xlink:title="Provides bio::views::trim_quality.">
<polygon fill="white" stroke="black" points="418,-123.5 418,-153.5 528,-153.5 528,-123.5 418,-123.5"/>
<text text-anchor="start" x="426" y="-141.5" font-family="Helvetica,sans-Serif" font-size="10.00">bio/ranges/views/trim</text>
<text text-anchor="middle" x="473" y="-130.5" font-family="Helvetica,sans-Serif" font-size="10.00">_quality.hpp</text>
</a>
</g>
</g>
<!-- Node8&#45;&gt;Node11 -->
<g id="edge13" class="edge">
<title>Node8&#45;&gt;Node11</title>
<path fill="none" stroke="midnightblue" d="M371.85,-186.13C394.25,-175.8 421.78,-163.11 442.46,-153.58"/>
<polygon fill="midnightblue" stroke="midnightblue" points="370.21,-183.03 362.59,-190.4 373.14,-189.39 370.21,-183.03"/>
</g>
<!-- Node9&#45;&gt;Node10 -->
<g id="edge10" class="edge">
<title>Node9&#45;&gt;Node10</title>
<path fill="none" stroke="midnightblue" d="M279.5,-115.16C286.5,-105.68 294.44,-94.92 300.61,-86.58"/>
<polygon fill="midnightblue" stroke="midnightblue" points="276.54,-113.27 273.42,-123.4 282.17,-117.43 276.54,-113.27"/>
</g>
<!-- Node10&#45;&gt;Node5 -->
<g id="edge11" class="edge">
<title>Node10&#45;&gt;Node5</title>
<path fill="none" stroke="midnightblue" d="M325.88,-47.8C332.33,-37.96 339.49,-27.03 344.33,-19.66"/>
<polygon fill="midnightblue" stroke="midnightblue" points="322.8,-46.12 320.24,-56.4 328.65,-49.95 322.8,-46.12"/>
</g>
<!-- Node12 -->
<g id="node12" class="node">
<title>Node12</title>
<g id="a_node12"><a xlink:href="ranges_2views_2all_8hpp.html" target="_top" xlink:title="Meta&#45;header for the views submodule .">
<polygon fill="white" stroke="black" points="644,-62 644,-81 766,-81 766,-62 644,-62"/>
<text text-anchor="middle" x="705" y="-69" font-family="Helvetica,sans-Serif" font-size="10.00">bio/ranges/views/all.hpp</text>
</a>
</g>
</g>
<!-- Node11&#45;&gt;Node12 -->
<g id="edge14" class="edge">
<title>Node11&#45;&gt;Node12</title>
<path fill="none" stroke="midnightblue" d="M532.78,-120.75C578.16,-108.04 638.67,-91.09 674.56,-81.03"/>
<polygon fill="midnightblue" stroke="midnightblue" points="531.74,-117.41 523.05,-123.48 533.63,-124.15 531.74,-117.41"/>
</g>
<!-- Node13&#45;&gt;Node2 -->
<g id="edge16" class="edge">
<title>Node13&#45;&gt;Node2</title>
<path fill="none" stroke="midnightblue" d="M364.22,-319.02C347.73,-308.9 327.95,-296.77 312.96,-287.58"/>
<polygon fill="midnightblue" stroke="midnightblue" points="362.65,-322.15 373,-324.4 366.3,-316.18 362.65,-322.15"/>
</g>
<!-- Node14 -->
<g id="node14" class="node">
<title>Node14</title>
<g id="a_node14"><a xlink:href="alphabet__variant_8hpp.html" target="_top" xlink:title="Provides bio::alphabet::alphabet_variant.">
<polygon fill="white" stroke="black" points="424.5,-257.5 424.5,-287.5 541.5,-287.5 541.5,-257.5 424.5,-257.5"/>
<text text-anchor="start" x="432.5" y="-275.5" font-family="Helvetica,sans-Serif" font-size="10.00">bio/alphabet/composite</text>
<text text-anchor="middle" x="483" y="-264.5" font-family="Helvetica,sans-Serif" font-size="10.00">/alphabet_variant.hpp</text>
</a>
</g>
</g>
<!-- Node13&#45;&gt;Node14 -->
<g id="edge17" class="edge">
<title>Node13&#45;&gt;Node14</title>
<path fill="none" stroke="midnightblue" d="M423.21,-318.17C436.52,-308.23 452.2,-296.51 464.16,-287.58"/>
<polygon fill="midnightblue" stroke="midnightblue" points="420.79,-315.61 414.88,-324.4 424.98,-321.21 420.79,-315.61"/>
</g>
<!-- Node14&#45;&gt;Node4 -->
<g id="edge18" class="edge">
<title>Node14&#45;&gt;Node4</title>
<path fill="none" stroke="midnightblue" d="M474.32,-247.99C470.93,-238.8 467.15,-228.58 464.2,-220.58"/>
<polygon fill="midnightblue" stroke="midnightblue" points="471.05,-249.23 477.79,-257.4 477.61,-246.8 471.05,-249.23"/>
</g>
<!-- Node15 -->
<g id="node15" class="node">
<title>Node15</title>
<g id="a_node15"><a xlink:href="gapped_8hpp.html" target="_top" xlink:title="Provides bio::alphabet::gapped.">
<polygon fill="white" stroke="black" points="535.5,-196 535.5,-215 676.5,-215 676.5,-196 535.5,-196"/>
<text text-anchor="middle" x="606" y="-203" font-family="Helvetica,sans-Serif" font-size="10.00">bio/alphabet/gap/gapped.hpp</text>
</a>
</g>
</g>
<!-- Node14&#45;&gt;Node15 -->
<g id="edge19" class="edge">
<title>Node14&#45;&gt;Node15</title>
<path fill="none" stroke="midnightblue" d="M518.69,-252.64C542.22,-240.2 571.91,-224.51 589.9,-215.01"/>
<polygon fill="midnightblue" stroke="midnightblue" points="516.9,-249.63 509.69,-257.4 520.17,-255.82 516.9,-249.63"/>
</g>
<!-- Node16 -->
<g id="node16" class="node">
<title>Node16</title>
<g id="a_node16"><a xlink:href="alphabet_2gap_2all_8hpp.html" target="_top" xlink:title="Meta&#45;header for the gap submodule; includes all headers from alphabet/gap/.">
<polygon fill="white" stroke="black" points="546.5,-129 546.5,-148 665.5,-148 665.5,-129 546.5,-129"/>
<text text-anchor="middle" x="606" y="-136" font-family="Helvetica,sans-Serif" font-size="10.00">bio/alphabet/gap/all.hpp</text>
</a>
</g>
</g>
<!-- Node15&#45;&gt;Node16 -->
<g id="edge20" class="edge">
<title>Node15&#45;&gt;Node16</title>
<path fill="none" stroke="midnightblue" d="M606,-185.54C606,-173.17 606,-157.62 606,-148.13"/>
<polygon fill="midnightblue" stroke="midnightblue" points="602.5,-185.73 606,-195.73 609.5,-185.73 602.5,-185.73"/>
</g>
<!-- Node16&#45;&gt;Node5 -->
<g id="edge21" class="edge">
<title>Node16&#45;&gt;Node5</title>
<path fill="none" stroke="midnightblue" d="M579.37,-124.34C526.86,-98.39 411.28,-41.28 367.38,-19.59"/>
<polygon fill="midnightblue" stroke="midnightblue" points="577.89,-127.51 588.4,-128.81 580.99,-121.24 577.89,-127.51"/>
</g>
<!-- Node19 -->
<g id="node19" class="node">
<title>Node19</title>
<g id="a_node19"><a xlink:href="meta_2concept_2all_8hpp.html" target="_top" xlink:title="Meta&#45;include for custom concepts.">
<polygon fill="white" stroke="black" points="946.5,-330 946.5,-349 1069.5,-349 1069.5,-330 946.5,-330"/>
<text text-anchor="middle" x="1008" y="-337" font-family="Helvetica,sans-Serif" font-size="10.00">bio/meta/concept/all.hpp</text>
</a>
</g>
</g>
<!-- Node18&#45;&gt;Node19 -->
<g id="edge24" class="edge">
<title>Node18&#45;&gt;Node19</title>
<path fill="none" stroke="midnightblue" d="M1008,-386.54C1008,-374.17 1008,-358.62 1008,-349.13"/>
<polygon fill="midnightblue" stroke="midnightblue" points="1004.5,-386.73 1008,-396.73 1011.5,-386.73 1004.5,-386.73"/>
</g>
<!-- Node20 -->
<g id="node20" class="node">
<title>Node20</title>
<g id="a_node20"><a xlink:href="tuple__utility_8hpp.html" target="_top" xlink:title="Provides utility functions for tuple like interfaces.">
<polygon fill="white" stroke="black" points="804,-330 804,-349 928,-349 928,-330 804,-330"/>
<text text-anchor="middle" x="866" y="-337" font-family="Helvetica,sans-Serif" font-size="10.00">bio/meta/tuple_utility.hpp</text>
</a>
</g>
</g>
<!-- Node18&#45;&gt;Node20 -->
<g id="edge26" class="edge">
<title>Node18&#45;&gt;Node20</title>
<path fill="none" stroke="midnightblue" d="M979.85,-392.61C951.72,-379.74 909.27,-360.31 884.93,-349.17"/>
<polygon fill="midnightblue" stroke="midnightblue" points="978.59,-395.89 989.14,-396.87 981.51,-389.52 978.59,-395.89"/>
</g>
<!-- Node21 -->
<g id="node21" class="node">
<title>Node21</title>
<g id="a_node21"><a xlink:href="get_8hpp.html" target="_top" xlink:title="Provides bio::views::get.">
<polygon fill="white" stroke="black" points="1087.5,-330 1087.5,-349 1212.5,-349 1212.5,-330 1087.5,-330"/>
<text text-anchor="middle" x="1150" y="-337" font-family="Helvetica,sans-Serif" font-size="10.00">bio/ranges/views/get.hpp</text>
</a>
</g>
</g>
<!-- Node18&#45;&gt;Node21 -->
<g id="edge28" class="edge">
<title>Node18&#45;&gt;Node21</title>
<path fill="none" stroke="midnightblue" d="M1036.15,-392.61C1064.28,-379.74 1106.73,-360.31 1131.07,-349.17"/>
<polygon fill="midnightblue" stroke="midnightblue" points="1034.49,-389.52 1026.86,-396.87 1037.41,-395.89 1034.49,-389.52"/>
</g>
<!-- Node19&#45;&gt;Node17 -->
<g id="edge25" class="edge">
<title>Node19&#45;&gt;Node17</title>
<path fill="none" stroke="midnightblue" d="M977.49,-325.95C946.21,-313.08 898.38,-293.4 871.07,-282.17"/>
<polygon fill="midnightblue" stroke="midnightblue" points="976.44,-329.3 987.02,-329.87 979.1,-322.83 976.44,-329.3"/>
</g>
<!-- Node20&#45;&gt;Node17 -->
<g id="edge27" class="edge">
<title>Node20&#45;&gt;Node17</title>
<path fill="none" stroke="midnightblue" d="M861.43,-319.91C858.37,-307.49 854.48,-291.72 852.12,-282.13"/>
<polygon fill="midnightblue" stroke="midnightblue" points="858.05,-320.86 863.84,-329.73 864.85,-319.19 858.05,-320.86"/>
</g>
<!-- Node21&#45;&gt;Node12 -->
<g id="edge29" class="edge">
<title>Node21&#45;&gt;Node12</title>
<path fill="none" stroke="midnightblue" d="M1126.89,-324.69C1047.05,-276.96 784.15,-119.81 719.47,-81.15"/>
<polygon fill="midnightblue" stroke="midnightblue" points="1125.32,-327.82 1135.7,-329.95 1128.91,-321.82 1125.32,-327.82"/>
</g>
<!-- Node23&#45;&gt;Node2 -->
<g id="edge32" class="edge">
<title>Node23&#45;&gt;Node2</title>
<path fill="none" stroke="midnightblue" d="M272.75,-515.07C276.64,-460.57 285.93,-330.52 289,-287.55"/>
<polygon fill="midnightblue" stroke="midnightblue" points="269.24,-514.97 272.02,-525.2 276.23,-515.47 269.24,-514.97"/>
</g>
<!-- Node24&#45;&gt;Node2 -->
<g id="edge34" class="edge">
<title>Node24&#45;&gt;Node2</title>
<path fill="none" stroke="midnightblue" d="M736.74,-536.54C650.99,-529.41 487.91,-505.07 381,-422 333.96,-385.45 305.43,-317.21 294.78,-287.7"/>
<polygon fill="midnightblue" stroke="midnightblue" points="736.56,-540.04 746.8,-537.33 737.11,-533.06 736.56,-540.04"/>
</g>
<!-- Node24&#45;&gt;Node14 -->
<g id="edge35" class="edge">
<title>Node24&#45;&gt;Node14</title>
<path fill="none" stroke="midnightblue" d="M736.56,-533.52C676,-526.13 585.84,-511.67 560,-489 528.27,-461.16 496.16,-331.05 486.17,-287.64"/>
<polygon fill="midnightblue" stroke="midnightblue" points="736.41,-537.03 746.76,-534.73 737.24,-530.08 736.41,-537.03"/>
</g>
<!-- Node24&#45;&gt;Node20 -->
<g id="edge40" class="edge">
<title>Node24&#45;&gt;Node20</title>
<path fill="none" stroke="midnightblue" d="M782.12,-515.99C775.41,-499.5 769.53,-477.09 776,-458 792.09,-410.55 835.89,-367.21 855.85,-349.25"/>
<polygon fill="midnightblue" stroke="midnightblue" points="779.05,-517.69 786.31,-525.4 785.45,-514.84 779.05,-517.69"/>
</g>
<!-- Node24&#45;&gt;Node22 -->
<g id="edge41" class="edge">
<title>Node24&#45;&gt;Node22</title>
<path fill="none" stroke="midnightblue" d="M841.33,-521.82C869.3,-511.37 904.23,-498.32 930.32,-488.58"/>
<polygon fill="midnightblue" stroke="midnightblue" points="839.9,-518.62 831.76,-525.4 842.35,-525.18 839.9,-518.62"/>
</g>
<!-- Node25 -->
<g id="node25" class="node">
<title>Node25</title>
<g id="a_node25"><a xlink:href="pod__tuple_8hpp.html" target="_top" xlink:title="Provides bio::meta::pod_tuple.">
<polygon fill="white" stroke="black" points="785,-464 785,-483 903,-483 903,-464 785,-464"/>
<text text-anchor="middle" x="844" y="-471" font-family="Helvetica,sans-Serif" font-size="10.00">bio/meta/pod_tuple.hpp</text>
</a>
</g>
</g>
<!-- Node24&#45;&gt;Node25 -->
<g id="edge36" class="edge">
<title>Node24&#45;&gt;Node25</title>
<path fill="none" stroke="midnightblue" d="M811.06,-517.32C820.08,-505.6 830.63,-491.88 837.31,-483.19"/>
<polygon fill="midnightblue" stroke="midnightblue" points="808.17,-515.34 804.85,-525.4 813.72,-519.6 808.17,-515.34"/>
</g>
<!-- Node26 -->
<g id="node26" class="node">
<title>Node26</title>
<g id="a_node26"><a xlink:href="type__traits_2function_8hpp.html" target="_top" xlink:title="Provides various type traits for use on functions.">
<polygon fill="white" stroke="black" points="568.5,-458.5 568.5,-488.5 671.5,-488.5 671.5,-458.5 568.5,-458.5"/>
<text text-anchor="start" x="576.5" y="-476.5" font-family="Helvetica,sans-Serif" font-size="10.00">bio/meta/type_traits</text>
<text text-anchor="middle" x="620" y="-465.5" font-family="Helvetica,sans-Serif" font-size="10.00">/function.hpp</text>
</a>
</g>
</g>
<!-- Node24&#45;&gt;Node26 -->
<g id="edge42" class="edge">
<title>Node24&#45;&gt;Node26</title>
<path fill="none" stroke="midnightblue" d="M746.67,-521.82C718.7,-511.37 683.77,-498.32 657.68,-488.58"/>
<polygon fill="midnightblue" stroke="midnightblue" points="745.65,-525.18 756.24,-525.4 748.1,-518.62 745.65,-525.18"/>
</g>
<!-- Node25&#45;&gt;Node17 -->
<g id="edge37" class="edge">
<title>Node25&#45;&gt;Node17</title>
<path fill="none" stroke="midnightblue" d="M830.72,-455.98C810.05,-428.16 774.6,-370.43 795,-324 803.14,-305.49 821.78,-290.78 835.1,-282.12"/>
<polygon fill="midnightblue" stroke="midnightblue" points="827.95,-458.12 836.82,-463.92 833.5,-453.86 827.95,-458.12"/>
</g>
<!-- Node25&#45;&gt;Node18 -->
<g id="edge38" class="edge">
<title>Node25&#45;&gt;Node18</title>
<path fill="none" stroke="midnightblue" d="M875.28,-460.1C907.84,-447.2 957.97,-427.33 986.39,-416.06"/>
<polygon fill="midnightblue" stroke="midnightblue" points="873.78,-456.93 865.78,-463.87 876.36,-463.44 873.78,-456.93"/>
</g>
<!-- Node25&#45;&gt;Node20 -->
<g id="edge39" class="edge">
<title>Node25&#45;&gt;Node20</title>
<path fill="none" stroke="midnightblue" d="M847.12,-453.78C851.96,-424.75 861.08,-370.04 864.58,-349.02"/>
<polygon fill="midnightblue" stroke="midnightblue" points="843.64,-453.4 845.44,-463.84 850.54,-454.55 843.64,-453.4"/>
</g>
<!-- Node27 -->
<g id="node27" class="node">
<title>Node27</title>
<g id="a_node27"><a xlink:href="lazy_8hpp.html" target="_top" xlink:title="Provides lazy template instantiation traits.">
<polygon fill="white" stroke="black" points="389.5,-391.5 389.5,-421.5 492.5,-421.5 492.5,-391.5 389.5,-391.5"/>
<text text-anchor="start" x="397.5" y="-409.5" font-family="Helvetica,sans-Serif" font-size="10.00">bio/meta/type_traits</text>
<text text-anchor="middle" x="441" y="-398.5" font-family="Helvetica,sans-Serif" font-size="10.00">/lazy.hpp</text>
</a>
</g>
</g>
<!-- Node26&#45;&gt;Node27 -->
<g id="edge43" class="edge">
<title>Node26&#45;&gt;Node27</title>
<path fill="none" stroke="midnightblue" d="M571.68,-454.96C542.85,-444.48 506.72,-431.37 479.76,-421.58"/>
<polygon fill="midnightblue" stroke="midnightblue" points="570.57,-458.27 581.16,-458.4 572.95,-451.69 570.57,-458.27"/>
</g>
<!-- Node28 -->
<g id="node28" class="node">
<title>Node28</title>
<g id="a_node28"><a xlink:href="as__const_8hpp.html" target="_top" xlink:title="Provides bio::views::as_const.">
<polygon fill="white" stroke="black" points="549,-391.5 549,-421.5 653,-421.5 653,-391.5 549,-391.5"/>
<text text-anchor="start" x="557" y="-409.5" font-family="Helvetica,sans-Serif" font-size="10.00">bio/ranges/views/as</text>
<text text-anchor="middle" x="601" y="-398.5" font-family="Helvetica,sans-Serif" font-size="10.00">_const.hpp</text>
</a>
</g>
</g>
<!-- Node26&#45;&gt;Node28 -->
<g id="edge46" class="edge">
<title>Node26&#45;&gt;Node28</title>
<path fill="none" stroke="midnightblue" d="M613.04,-448.7C610.38,-439.59 607.43,-429.49 605.11,-421.58"/>
<polygon fill="midnightblue" stroke="midnightblue" points="609.71,-449.78 615.88,-458.4 616.43,-447.82 609.71,-449.78"/>
</g>
<!-- Node29 -->
<g id="node29" class="node">
<title>Node29</title>
<g id="a_node29"><a xlink:href="move_8hpp.html" target="_top" xlink:title="Provides bio::views::move.">
<polygon fill="white" stroke="black" points="625,-263 625,-282 761,-282 761,-263 625,-263"/>
<text text-anchor="middle" x="693" y="-270" font-family="Helvetica,sans-Serif" font-size="10.00">bio/ranges/views/move.hpp</text>
</a>
</g>
</g>
<!-- Node26&#45;&gt;Node29 -->
<g id="edge47" class="edge">
<title>Node26&#45;&gt;Node29</title>
<path fill="none" stroke="midnightblue" d="M641.92,-450.92C649.32,-442.53 656.97,-432.43 662,-422 685.82,-372.67 691.4,-305.47 692.65,-282"/>
<polygon fill="midnightblue" stroke="midnightblue" points="639.22,-448.68 635,-458.4 644.36,-453.44 639.22,-448.68"/>
</g>
<!-- Node27&#45;&gt;Node13 -->
<g id="edge45" class="edge">
<title>Node27&#45;&gt;Node13</title>
<path fill="none" stroke="midnightblue" d="M425.53,-383.16C418.97,-373.68 411.52,-362.92 405.75,-354.58"/>
<polygon fill="midnightblue" stroke="midnightblue" points="422.67,-385.17 431.24,-391.4 428.42,-381.18 422.67,-385.17"/>
</g>
<!-- Node27&#45;&gt;Node14 -->
<g id="edge44" class="edge">
<title>Node27&#45;&gt;Node14</title>
<path fill="none" stroke="midnightblue" d="M452.85,-382.05C456.77,-373.66 460.92,-364.05 464,-355 471.87,-331.89 477.59,-304.02 480.6,-287.58"/>
<polygon fill="midnightblue" stroke="midnightblue" points="449.62,-380.7 448.42,-391.22 455.92,-383.74 449.62,-380.7"/>
</g>
<!-- Node29&#45;&gt;Node12 -->
<g id="edge48" class="edge">
<title>Node29&#45;&gt;Node12</title>
<path fill="none" stroke="midnightblue" d="M694.13,-252.8C696.65,-211.01 702.66,-111.33 704.47,-81.24"/>
<polygon fill="midnightblue" stroke="midnightblue" points="690.62,-252.76 693.52,-262.95 697.61,-253.18 690.62,-252.76"/>
</g>
<!-- Node30&#45;&gt;Node24 -->
<g id="edge50" class="edge">
<title>Node30&#45;&gt;Node24</title>
<path fill="none" stroke="midnightblue" d="M818.6,-583.58C813.14,-574.24 807.01,-563.75 802.23,-555.58"/>
<polygon fill="midnightblue" stroke="midnightblue" points="815.69,-585.53 823.75,-592.4 821.73,-582 815.69,-585.53"/>
</g>
</g>
</svg>
        <g id="navigator" transform="translate(0 0)" fill="#404254">
                <rect fill="#f2f5e9" fill-opacity="0.5" stroke="#606060" stroke-width=".5" x="0" y="0" width="60" height="60"/>
                <use id="zoomplus" xlink:href="#zoomPlus" x="17" y="9" onmousedown="handleZoom(evt,'in')"/>
                <use id="zoomminus" xlink:href="#zoomMin" x="42" y="9" onmousedown="handleZoom(evt,'out')"/>
                <use id="reset" xlink:href="#resetDef" x="30" y="36" onmousedown="handleReset()"/>
                <g id="arrowUp" xlink:href="#dirArrow" transform="translate(30 24)" onmousedown="handlePan(0,-1)">
                  <use xlink:href="#rim" fill="#404040">
                        <set attributeName="fill" to="#808080" begin="arrowUp.mouseover" end="arrowUp.mouseout"/>
                  </use>
                  <path fill="none" stroke="white" stroke-width="1.5" d="M0,-3.0v7 M-2.5,-0.5L0,-3.0L2.5,-0.5"/>
                </g>
                <g id="arrowRight" xlink:href="#dirArrow" transform="rotate(90) translate(36 -43)" onmousedown="handlePan(1,0)">
                  <use xlink:href="#rim" fill="#404040">
                        <set attributeName="fill" to="#808080" begin="arrowRight.mouseover" end="arrowRight.mouseout"/>
                  </use>
                  <path fill="none" stroke="white" stroke-width="1.5" d="M0,-3.0v7 M-2.5,-0.5L0,-3.0L2.5,-0.5"/>
                </g>
                <g id="arrowDown" xlink:href="#dirArrow" transform="rotate(180) translate(-30 -48)" onmousedown="handlePan(0,1)">
                  <use xlink:href="#rim" fill="#404040">
                        <set attributeName="fill" to="#808080" begin="arrowDown.mouseover" end="arrowDown.mouseout"/>
                  </use>
                  <path fill="none" stroke="white" stroke-width="1.5" d="M0,-3.0v7 M-2.5,-0.5L0,-3.0L2.5,-0.5"/>
                </g>
                <g id="arrowLeft" xlink:href="#dirArrow" transform="rotate(270) translate(-36 17)" onmousedown="handlePan(-1,0)">
                  <use xlink:href="#rim" fill="#404040">
                        <set attributeName="fill" to="#808080" begin="arrowLeft.mouseover" end="arrowLeft.mouseout"/>
                  </use>
                  <path fill="none" stroke="white" stroke-width="1.5" d="M0,-3.0v7 M-2.5,-0.5L0,-3.0L2.5,-0.5"/>
                </g>
        </g>
        <svg viewBox="0 0 15 15" width="100%" height="30px" preserveAspectRatio="xMaxYMin meet">
         <g id="arrow_out" transform="scale(0.3 0.3)">
          <a xlink:href="type__list_8hpp__dep__incl_org.svg" target="_base">
           <rect id="button" ry="5" rx="5" y="6" x="6" height="38" width="38"
                fill="#f2f5e9" fill-opacity="0.5" stroke="#606060" stroke-width="1.0"/>
           <path id="arrow"
             d="M 11.500037,31.436501 C 11.940474,20.09759 22.043105,11.32322 32.158766,21.979434 L 37.068811,17.246167 C 37.068811,17.246167 37.088388,32 37.088388,32 L 22.160133,31.978069 C 22.160133,31.978069 26.997745,27.140456 26.997745,27.140456 C 18.528582,18.264221 13.291696,25.230495 11.500037,31.436501 z"
             style="fill:#404040;"/>
          </a>
         </g>
        </svg>
</svg>
