<?xml version="1.0" encoding="UTF-8" standalone="no"?>
<!DOCTYPE svg PUBLIC "-//W3C//DTD SVG 1.1//EN"
 "http://www.w3.org/Graphics/SVG/1.1/DTD/svg11.dtd">
<!-- Generated by graphviz version 2.43.0 (0)
 -->
<!-- Title: bio/meta/type_list/type_list.hpp Pages: 1 -->
<!--zoomable 497 -->
<svg id="main" version="1.1" xmlns="http://www.w3.org/2000/svg" xmlns:xlink="http://www.w3.org/1999/xlink" xml:space="preserve" onload="init(evt)">
<style type="text/css"><![CDATA[
.edge:hover path { stroke: red; }
.edge:hover polygon { stroke: red; fill: red; }
]]></style>
<script type="text/javascript"><![CDATA[
var edges = document.getElementsByTagName('g');
if (edges && edges.length) {
  for (var i=0;i<edges.length;i++) {
    if (edges[i].id.substr(0,4)=='edge') {
      edges[i].setAttribute('class','edge');
    }
  }
}
]]></script>
        <defs>
                <circle id="rim" cx="0" cy="0" r="7"/>
                <circle id="rim2" cx="0" cy="0" r="3.5"/>
                <g id="zoomPlus">
                        <use xlink:href="#rim" fill="#404040">
                                <set attributeName="fill" to="#808080" begin="zoomplus.mouseover" end="zoomplus.mouseout"/>
                        </use>
                        <path d="M-4,0h8M0,-4v8" fill="none" stroke="white" stroke-width="1.5" pointer-events="none"/>
                </g>
                <g id="zoomMin">
                        <use xlink:href="#rim" fill="#404040">
                                <set attributeName="fill" to="#808080" begin="zoomminus.mouseover" end="zoomminus.mouseout"/>
                        </use>
                        <path d="M-4,0h8" fill="none" stroke="white" stroke-width="1.5" pointer-events="none"/>
                </g>
                <g id="dirArrow">
                        <path fill="none" stroke="white" stroke-width="1.5" d="M0,-3.0v7 M-2.5,-0.5L0,-3.0L2.5,-0.5"/>
                </g>
               <g id="resetDef">
                       <use xlink:href="#rim2" fill="#404040">
                               <set attributeName="fill" to="#808080" begin="reset.mouseover" end="reset.mouseout"/>
                       </use>
               </g>
        </defs>

<script type="text/javascript">
var viewWidth = 1179;
var viewHeight = 497;
var sectionId = 'dynsection-1';
</script>
<script xlink:href="svgpan.js"/>
<svg id="graph" class="graph">
<g id="viewport">
<title>bio/meta/type_list/type_list.hpp</title>
<polygon fill="white" stroke="transparent" points="-4,4 -4,-493 1174.55,-493 1174.55,4 -4,4"/>
<!-- Node1 -->
<g id="node1" class="node">
<title>Node1</title>
<g id="a_node1"><a xlink:title="Provides bio::meta::type_list.">
<polygon fill="#bfbfbf" stroke="black" points="779.5,-458.5 779.5,-488.5 884.5,-488.5 884.5,-458.5 779.5,-458.5"/>
<text text-anchor="start" x="787.5" y="-476.5" font-family="Helvetica,sans-Serif" font-size="10.00">bio/meta/type_list</text>
<text text-anchor="middle" x="832" y="-465.5" font-family="Helvetica,sans-Serif" font-size="10.00">/type_list.hpp</text>
</a>
</g>
</g>
<!-- Node2 -->
<g id="node2" class="node">
<title>Node2</title>
<g id="a_node2"><a xlink:href="alphabet_2composite_2detail_8hpp_source.html" target="_top" xlink:title=" ">
<polygon fill="white" stroke="black" points="587.5,-324.5 587.5,-354.5 718.5,-354.5 718.5,-324.5 587.5,-324.5"/>
<text text-anchor="start" x="595.5" y="-342.5" font-family="Helvetica,sans-Serif" font-size="10.00">bio/alphabet/composite</text>
<text text-anchor="middle" x="653" y="-331.5" font-family="Helvetica,sans-Serif" font-size="10.00">/detail.hpp</text>
</a>
</g>
</g>
<!-- Node1&#45;&gt;Node2 -->
<g id="edge1" class="edge">
<title>Node1&#45;&gt;Node2</title>
<path fill="none" stroke="midnightblue" d="M769.67,-461.75C742.53,-454.4 711.96,-442.18 690,-422 670.09,-403.71 660.15,-372.63 655.83,-354.6"/>
<polygon fill="midnightblue" stroke="midnightblue" points="768.94,-465.18 779.5,-464.25 770.66,-458.39 768.94,-465.18"/>
</g>
<!-- Node3 -->
<g id="node3" class="node">
<title>Node3</title>
<g id="a_node3"><a xlink:href="tuple__base_8hpp.html" target="_top" xlink:title="Provides bio::alphabet::tuple_base.">
<polygon fill="white" stroke="black" points="442.5,-257.5 442.5,-287.5 573.5,-287.5 573.5,-257.5 442.5,-257.5"/>
<text text-anchor="start" x="450.5" y="-275.5" font-family="Helvetica,sans-Serif" font-size="10.00">bio/alphabet/composite</text>
<text text-anchor="middle" x="508" y="-264.5" font-family="Helvetica,sans-Serif" font-size="10.00">/tuple_base.hpp</text>
</a>
</g>
</g>
<!-- Node1&#45;&gt;Node3 -->
<g id="edge21" class="edge">
<title>Node1&#45;&gt;Node3</title>
<path fill="none" stroke="midnightblue" d="M769.04,-470.67C689.64,-466.95 559.53,-455.75 527,-422 491.47,-385.13 499.37,-317.07 504.9,-287.65"/>
<polygon fill="midnightblue" stroke="midnightblue" points="769.27,-474.18 779.42,-471.12 769.58,-467.19 769.27,-474.18"/>
</g>
<!-- Node17 -->
<g id="node17" class="node">
<title>Node17</title>
<g id="a_node17"><a xlink:href="meta_2all_8hpp.html" target="_top" xlink:title="Meta&#45;header for the meta module .">
<polygon fill="white" stroke="black" points="945,-62 945,-81 1041,-81 1041,-62 945,-62"/>
<text text-anchor="middle" x="993" y="-69" font-family="Helvetica,sans-Serif" font-size="10.00">bio/meta/all.hpp</text>
</a>
</g>
</g>
<!-- Node1&#45;&gt;Node17 -->
<g id="edge22" class="edge">
<title>Node1&#45;&gt;Node17</title>
<path fill="none" stroke="midnightblue" d="M894.7,-461.22C992.17,-441.88 1169,-398.76 1169,-340.5 1169,-340.5 1169,-340.5 1169,-204.5 1169,-167.31 1175.2,-150.36 1150,-123 1122.16,-92.78 1076.2,-80.57 1041.18,-75.68"/>
<polygon fill="midnightblue" stroke="midnightblue" points="893.8,-457.83 884.66,-463.19 895.14,-464.7 893.8,-457.83"/>
</g>
<!-- Node18 -->
<g id="node18" class="node">
<title>Node18</title>
<g id="a_node18"><a xlink:href="tuple_8hpp.html" target="_top" xlink:title="Provides bio::meta::tuple_like.">
<polygon fill="white" stroke="black" points="967,-196 967,-215 1117,-215 1117,-196 967,-196"/>
<text text-anchor="middle" x="1042" y="-203" font-family="Helvetica,sans-Serif" font-size="10.00">bio/meta/concept/tuple.hpp</text>
</a>
</g>
</g>
<!-- Node1&#45;&gt;Node18 -->
<g id="edge23" class="edge">
<title>Node1&#45;&gt;Node18</title>
<path fill="none" stroke="midnightblue" d="M894.86,-468.44C932.98,-462.97 980.39,-450.44 1013,-422 1061.91,-379.35 1057.84,-351.55 1071,-288 1073.79,-274.51 1074.55,-270.31 1071,-257 1066.73,-240.98 1056.03,-224.76 1048.89,-215.17"/>
<polygon fill="midnightblue" stroke="midnightblue" points="894.34,-464.97 884.88,-469.74 895.25,-471.91 894.34,-464.97"/>
</g>
<!-- Node21 -->
<g id="node21" class="node">
<title>Node21</title>
<g id="a_node21"><a xlink:href="ttag_8hpp.html" target="_top" xlink:title="Provides bio::meta::ttag.">
<polygon fill="white" stroke="black" points="860,-397 860,-416 982,-416 982,-397 860,-397"/>
<text text-anchor="middle" x="921" y="-404" font-family="Helvetica,sans-Serif" font-size="10.00">bio/meta/tag/ttag.hpp</text>
</a>
</g>
</g>
<!-- Node1&#45;&gt;Node21 -->
<g id="edge28" class="edge">
<title>Node1&#45;&gt;Node21</title>
<path fill="none" stroke="midnightblue" d="M859.65,-452.31C876.36,-440.1 896.8,-425.18 909.35,-416.01"/>
<polygon fill="midnightblue" stroke="midnightblue" points="857.32,-449.67 851.31,-458.4 861.45,-455.32 857.32,-449.67"/>
</g>
<!-- Node23 -->
<g id="node23" class="node">
<title>Node23</title>
<g id="a_node23"><a xlink:href="meta_2type__list_2all_8hpp.html" target="_top" xlink:title="Meta&#45;header for the Utility / Type List submodule .">
<polygon fill="white" stroke="black" points="956.5,-257.5 956.5,-287.5 1061.5,-287.5 1061.5,-257.5 956.5,-257.5"/>
<text text-anchor="start" x="964.5" y="-275.5" font-family="Helvetica,sans-Serif" font-size="10.00">bio/meta/type_list</text>
<text text-anchor="middle" x="1009" y="-264.5" font-family="Helvetica,sans-Serif" font-size="10.00">/all.hpp</text>
</a>
</g>
</g>
<!-- Node1&#45;&gt;Node23 -->
<g id="edge30" class="edge">
<title>Node1&#45;&gt;Node23</title>
<path fill="none" stroke="midnightblue" d="M895.01,-468.45C928.57,-462.86 967.64,-450.19 991,-422 1023.48,-382.81 1016.77,-316.58 1011.85,-287.69"/>
<polygon fill="midnightblue" stroke="midnightblue" points="894.18,-465.04 884.8,-469.97 895.2,-471.96 894.18,-465.04"/>
</g>
<!-- Node24 -->
<g id="node24" class="node">
<title>Node24</title>
<g id="a_node24"><a xlink:href="function_8hpp.html" target="_top" xlink:title="Provides algorithms for meta programming, parameter packs and bio::meta::type_list.">
<polygon fill="white" stroke="black" points="536.5,-391.5 536.5,-421.5 641.5,-421.5 641.5,-391.5 536.5,-391.5"/>
<text text-anchor="start" x="544.5" y="-409.5" font-family="Helvetica,sans-Serif" font-size="10.00">bio/meta/type_list</text>
<text text-anchor="middle" x="589" y="-398.5" font-family="Helvetica,sans-Serif" font-size="10.00">/function.hpp</text>
</a>
</g>
</g>
<!-- Node1&#45;&gt;Node24 -->
<g id="edge31" class="edge">
<title>Node1&#45;&gt;Node24</title>
<path fill="none" stroke="midnightblue" d="M769.75,-455.85C730.14,-445.25 679.39,-431.68 641.75,-421.61"/>
<polygon fill="midnightblue" stroke="midnightblue" points="769.01,-459.27 779.57,-458.48 770.82,-452.51 769.01,-459.27"/>
</g>
<!-- Node25 -->
<g id="node25" class="node">
<title>Node25</title>
<g id="a_node25"><a xlink:href="traits_8hpp.html" target="_top" xlink:title="Provides traits for meta::type_list.">
<polygon fill="white" stroke="black" points="736.5,-324.5 736.5,-354.5 841.5,-354.5 841.5,-324.5 736.5,-324.5"/>
<text text-anchor="start" x="744.5" y="-342.5" font-family="Helvetica,sans-Serif" font-size="10.00">bio/meta/type_list</text>
<text text-anchor="middle" x="789" y="-331.5" font-family="Helvetica,sans-Serif" font-size="10.00">/traits.hpp</text>
</a>
</g>
</g>
<!-- Node1&#45;&gt;Node25 -->
<g id="edge33" class="edge">
<title>Node1&#45;&gt;Node25</title>
<path fill="none" stroke="midnightblue" d="M827.82,-448.51C824.61,-432.07 819.61,-409.9 813,-391 808.58,-378.35 801.95,-364.67 796.78,-354.74"/>
<polygon fill="midnightblue" stroke="midnightblue" points="824.39,-449.21 829.66,-458.4 831.27,-447.92 824.39,-449.21"/>
</g>
<!-- Node27 -->
<g id="node27" class="node">
<title>Node27</title>
<g id="a_node27"><a xlink:href="traits__detail_8hpp.html" target="_top" xlink:title="Provides various traits for template packs.">
<polygon fill="white" stroke="black" points="698.5,-391.5 698.5,-421.5 803.5,-421.5 803.5,-391.5 698.5,-391.5"/>
<text text-anchor="start" x="706.5" y="-409.5" font-family="Helvetica,sans-Serif" font-size="10.00">bio/meta/type_list</text>
<text text-anchor="middle" x="751" y="-398.5" font-family="Helvetica,sans-Serif" font-size="10.00">/traits_detail.hpp</text>
</a>
</g>
</g>
<!-- Node1&#45;&gt;Node27 -->
<g id="edge42" class="edge">
<title>Node1&#45;&gt;Node27</title>
<path fill="none" stroke="midnightblue" d="M806.31,-451.88C794,-442.01 779.57,-430.43 768.54,-421.58"/>
<polygon fill="midnightblue" stroke="midnightblue" points="804.43,-454.87 814.42,-458.4 808.82,-449.41 804.43,-454.87"/>
</g>
<!-- Node2&#45;&gt;Node3 -->
<g id="edge2" class="edge">
<title>Node2&#45;&gt;Node3</title>
<path fill="none" stroke="midnightblue" d="M612.33,-320.27C589.24,-309.92 560.76,-297.15 539.4,-287.58"/>
<polygon fill="midnightblue" stroke="midnightblue" points="610.98,-323.5 621.54,-324.4 613.84,-317.11 610.98,-323.5"/>
</g>
<!-- Node14 -->
<g id="node14" class="node">
<title>Node14</title>
<g id="a_node14"><a xlink:href="variant_8hpp.html" target="_top" xlink:title="Provides bio::alphabet::variant.">
<polygon fill="white" stroke="black" points="598.5,-257.5 598.5,-287.5 729.5,-287.5 729.5,-257.5 598.5,-257.5"/>
<text text-anchor="start" x="606.5" y="-275.5" font-family="Helvetica,sans-Serif" font-size="10.00">bio/alphabet/composite</text>
<text text-anchor="middle" x="664" y="-264.5" font-family="Helvetica,sans-Serif" font-size="10.00">/variant.hpp</text>
</a>
</g>
</g>
<!-- Node2&#45;&gt;Node14 -->
<g id="edge16" class="edge">
<title>Node2&#45;&gt;Node14</title>
<path fill="none" stroke="midnightblue" d="M657.08,-314.4C658.61,-305.37 660.29,-295.41 661.62,-287.58"/>
<polygon fill="midnightblue" stroke="midnightblue" points="653.6,-313.95 655.39,-324.4 660.51,-315.12 653.6,-313.95"/>
</g>
<!-- Node4 -->
<g id="node4" class="node">
<title>Node4</title>
<g id="a_node4"><a xlink:href="cigar_8hpp.html" target="_top" xlink:title="Provides the bio::alphabet::cigar alphabet.">
<polygon fill="white" stroke="black" points="188,-190.5 188,-220.5 292,-220.5 292,-190.5 188,-190.5"/>
<text text-anchor="start" x="196" y="-208.5" font-family="Helvetica,sans-Serif" font-size="10.00">bio/alphabet/cigar</text>
<text text-anchor="middle" x="240" y="-197.5" font-family="Helvetica,sans-Serif" font-size="10.00">/cigar.hpp</text>
</a>
</g>
</g>
<!-- Node3&#45;&gt;Node4 -->
<g id="edge3" class="edge">
<title>Node3&#45;&gt;Node4</title>
<path fill="none" stroke="midnightblue" d="M440.3,-255.08C394.37,-243.94 334.54,-229.43 292.27,-219.18"/>
<polygon fill="midnightblue" stroke="midnightblue" points="439.63,-258.52 450.18,-257.48 441.28,-251.72 439.63,-258.52"/>
</g>
<!-- Node5 -->
<g id="node5" class="node">
<title>Node5</title>
<g id="a_node5"><a xlink:href="alphabet_2composite_2all_8hpp.html" target="_top" xlink:title="Meta&#45;header for the composite submodule; includes all headers from alphabet/composite/.">
<polygon fill="white" stroke="black" points="442.5,-190.5 442.5,-220.5 573.5,-220.5 573.5,-190.5 442.5,-190.5"/>
<text text-anchor="start" x="450.5" y="-208.5" font-family="Helvetica,sans-Serif" font-size="10.00">bio/alphabet/composite</text>
<text text-anchor="middle" x="508" y="-197.5" font-family="Helvetica,sans-Serif" font-size="10.00">/all.hpp</text>
</a>
</g>
</g>
<!-- Node3&#45;&gt;Node5 -->
<g id="edge4" class="edge">
<title>Node3&#45;&gt;Node5</title>
<path fill="none" stroke="midnightblue" d="M508,-247.11C508,-238.15 508,-228.32 508,-220.58"/>
<polygon fill="midnightblue" stroke="midnightblue" points="504.5,-247.4 508,-257.4 511.5,-247.4 504.5,-247.4"/>
</g>
<!-- Node7 -->
<g id="node7" class="node">
<title>Node7</title>
<g id="a_node7"><a xlink:href="masked_8hpp.html" target="_top" xlink:title="Extends a given alphabet with the mask alphabet.">
<polygon fill="white" stroke="black" points="0,-196 0,-215 170,-215 170,-196 0,-196"/>
<text text-anchor="middle" x="85" y="-203" font-family="Helvetica,sans-Serif" font-size="10.00">bio/alphabet/mask/masked.hpp</text>
</a>
</g>
</g>
<!-- Node3&#45;&gt;Node7 -->
<g id="edge6" class="edge">
<title>Node3&#45;&gt;Node7</title>
<path fill="none" stroke="midnightblue" d="M432.45,-259.92C365.77,-249.69 265.92,-234.38 179,-221 166.43,-219.07 152.92,-216.98 140.17,-215.02"/>
<polygon fill="midnightblue" stroke="midnightblue" points="432.04,-263.4 442.45,-261.45 433.1,-256.48 432.04,-263.4"/>
</g>
<!-- Node9 -->
<g id="node9" class="node">
<title>Node9</title>
<g id="a_node9"><a xlink:href="qualified_8hpp.html" target="_top" xlink:title="Provides quality alphabet composites.">
<polygon fill="white" stroke="black" points="310,-190.5 310,-220.5 424,-220.5 424,-190.5 310,-190.5"/>
<text text-anchor="start" x="318" y="-208.5" font-family="Helvetica,sans-Serif" font-size="10.00">bio/alphabet/quality</text>
<text text-anchor="middle" x="367" y="-197.5" font-family="Helvetica,sans-Serif" font-size="10.00">/qualified.hpp</text>
</a>
</g>
</g>
<!-- Node3&#45;&gt;Node9 -->
<g id="edge9" class="edge">
<title>Node3&#45;&gt;Node9</title>
<path fill="none" stroke="midnightblue" d="M468.15,-253.13C445.75,-242.8 418.22,-230.11 397.54,-220.58"/>
<polygon fill="midnightblue" stroke="midnightblue" points="466.86,-256.39 477.41,-257.4 469.79,-250.03 466.86,-256.39"/>
</g>
<!-- Node6 -->
<g id="node6" class="node">
<title>Node6</title>
<g id="a_node6"><a xlink:href="alphabet_2all_8hpp.html" target="_top" xlink:title="Meta&#45;header for the alphabet module.">
<polygon fill="white" stroke="black" points="348.5,-0.5 348.5,-19.5 461.5,-19.5 461.5,-0.5 348.5,-0.5"/>
<text text-anchor="middle" x="405" y="-7.5" font-family="Helvetica,sans-Serif" font-size="10.00">bio/alphabet/all.hpp</text>
</a>
</g>
</g>
<!-- Node5&#45;&gt;Node6 -->
<g id="edge5" class="edge">
<title>Node5&#45;&gt;Node6</title>
<path fill="none" stroke="midnightblue" d="M514.83,-180.31C522.2,-148.86 529.8,-93.52 505,-56 492.45,-37.02 469.83,-25.96 449.27,-19.55"/>
<polygon fill="midnightblue" stroke="midnightblue" points="511.35,-179.82 512.29,-190.37 518.14,-181.53 511.35,-179.82"/>
</g>
<!-- Node8 -->
<g id="node8" class="node">
<title>Node8</title>
<g id="a_node8"><a xlink:href="alphabet_2mask_2all_8hpp.html" target="_top" xlink:title="Meta&#45;header for the mask submodule; includes all headers from alphabet/mask/.">
<polygon fill="white" stroke="black" points="58.5,-62 58.5,-81 201.5,-81 201.5,-62 58.5,-62"/>
<text text-anchor="middle" x="130" y="-69" font-family="Helvetica,sans-Serif" font-size="10.00">bio/alphabet/mask/all.hpp</text>
</a>
</g>
</g>
<!-- Node7&#45;&gt;Node8 -->
<g id="edge7" class="edge">
<title>Node7&#45;&gt;Node8</title>
<path fill="none" stroke="midnightblue" d="M91.25,-186.16C101.11,-157.23 119.9,-102.13 127.1,-81.02"/>
<polygon fill="midnightblue" stroke="midnightblue" points="87.87,-185.24 87.95,-195.84 94.49,-187.5 87.87,-185.24"/>
</g>
<!-- Node8&#45;&gt;Node6 -->
<g id="edge8" class="edge">
<title>Node8&#45;&gt;Node6</title>
<path fill="none" stroke="midnightblue" d="M179.31,-59.83C232.64,-48.29 316.59,-30.13 365.67,-19.51"/>
<polygon fill="midnightblue" stroke="midnightblue" points="178.43,-56.44 169.4,-61.98 179.91,-63.28 178.43,-56.44"/>
</g>
<!-- Node10 -->
<g id="node10" class="node">
<title>Node10</title>
<g id="a_node10"><a xlink:href="aliases_8hpp.html" target="_top" xlink:title="Provides aliases for qualified.">
<polygon fill="white" stroke="black" points="201,-123.5 201,-153.5 315,-153.5 315,-123.5 201,-123.5"/>
<text text-anchor="start" x="209" y="-141.5" font-family="Helvetica,sans-Serif" font-size="10.00">bio/alphabet/quality</text>
<text text-anchor="middle" x="258" y="-130.5" font-family="Helvetica,sans-Serif" font-size="10.00">/aliases.hpp</text>
</a>
</g>
</g>
<!-- Node9&#45;&gt;Node10 -->
<g id="edge10" class="edge">
<title>Node9&#45;&gt;Node10</title>
<path fill="none" stroke="midnightblue" d="M334.33,-185.02C317.36,-174.9 297.02,-162.77 281.61,-153.58"/>
<polygon fill="midnightblue" stroke="midnightblue" points="332.97,-188.28 343.35,-190.4 336.55,-182.27 332.97,-188.28"/>
</g>
<!-- Node11 -->
<g id="node11" class="node">
<title>Node11</title>
<g id="a_node11"><a xlink:href="alphabet_2quality_2all_8hpp.html" target="_top" xlink:title="Meta&#45;header that includes all headers from alphabet/quality/.">
<polygon fill="white" stroke="black" points="229,-56.5 229,-86.5 343,-86.5 343,-56.5 229,-56.5"/>
<text text-anchor="start" x="237" y="-74.5" font-family="Helvetica,sans-Serif" font-size="10.00">bio/alphabet/quality</text>
<text text-anchor="middle" x="286" y="-63.5" font-family="Helvetica,sans-Serif" font-size="10.00">/all.hpp</text>
</a>
</g>
</g>
<!-- Node9&#45;&gt;Node11 -->
<g id="edge13" class="edge">
<title>Node9&#45;&gt;Node11</title>
<path fill="none" stroke="midnightblue" d="M355.98,-181.27C347.81,-164.66 336.03,-141.97 324,-123 315.89,-110.21 305.48,-96.54 297.61,-86.65"/>
<polygon fill="midnightblue" stroke="midnightblue" points="352.84,-182.81 360.35,-190.28 359.13,-179.75 352.84,-182.81"/>
</g>
<!-- Node12 -->
<g id="node12" class="node">
<title>Node12</title>
<g id="a_node12"><a xlink:href="trim__quality_8hpp.html" target="_top" xlink:title="Provides bio::views::trim_quality.">
<polygon fill="white" stroke="black" points="371,-123.5 371,-153.5 493,-153.5 493,-123.5 371,-123.5"/>
<text text-anchor="start" x="379" y="-141.5" font-family="Helvetica,sans-Serif" font-size="10.00">bio/ranges/views/trim</text>
<text text-anchor="middle" x="432" y="-130.5" font-family="Helvetica,sans-Serif" font-size="10.00">_quality.hpp</text>
</a>
</g>
</g>
<!-- Node9&#45;&gt;Node12 -->
<g id="edge14" class="edge">
<title>Node9&#45;&gt;Node12</title>
<path fill="none" stroke="midnightblue" d="M388.19,-183.31C397.94,-173.56 409.24,-162.26 417.92,-153.58"/>
<polygon fill="midnightblue" stroke="midnightblue" points="385.7,-180.85 381.1,-190.4 390.65,-185.8 385.7,-180.85"/>
</g>
<!-- Node10&#45;&gt;Node11 -->
<g id="edge11" class="edge">
<title>Node10&#45;&gt;Node11</title>
<path fill="none" stroke="midnightblue" d="M268.13,-113.99C272.08,-104.8 276.49,-94.58 279.94,-86.58"/>
<polygon fill="midnightblue" stroke="midnightblue" points="264.82,-112.83 264.08,-123.4 271.25,-115.6 264.82,-112.83"/>
</g>
<!-- Node11&#45;&gt;Node6 -->
<g id="edge12" class="edge">
<title>Node11&#45;&gt;Node6</title>
<path fill="none" stroke="midnightblue" d="M323.41,-51.8C344.91,-41.04 370.91,-28.05 387.68,-19.66"/>
<polygon fill="midnightblue" stroke="midnightblue" points="321.58,-48.8 314.2,-56.4 324.71,-55.06 321.58,-48.8"/>
</g>
<!-- Node13 -->
<g id="node13" class="node">
<title>Node13</title>
<g id="a_node13"><a xlink:href="ranges_2views_2all_8hpp.html" target="_top" xlink:title="Meta&#45;header for the views submodule .">
<polygon fill="white" stroke="black" points="361.5,-62 361.5,-81 496.5,-81 496.5,-62 361.5,-62"/>
<text text-anchor="middle" x="429" y="-69" font-family="Helvetica,sans-Serif" font-size="10.00">bio/ranges/views/all.hpp</text>
</a>
</g>
</g>
<!-- Node12&#45;&gt;Node13 -->
<g id="edge15" class="edge">
<title>Node12&#45;&gt;Node13</title>
<path fill="none" stroke="midnightblue" d="M430.88,-113.25C430.36,-102.02 429.78,-89.38 429.4,-81.19"/>
<polygon fill="midnightblue" stroke="midnightblue" points="427.39,-113.57 431.35,-123.4 434.38,-113.25 427.39,-113.57"/>
</g>
<!-- Node14&#45;&gt;Node5 -->
<g id="edge17" class="edge">
<title>Node14&#45;&gt;Node5</title>
<path fill="none" stroke="midnightblue" d="M620.91,-253.54C595.94,-243.14 564.97,-230.24 541.78,-220.58"/>
<polygon fill="midnightblue" stroke="midnightblue" points="619.57,-256.78 630.15,-257.4 622.27,-250.32 619.57,-256.78"/>
</g>
<!-- Node15 -->
<g id="node15" class="node">
<title>Node15</title>
<g id="a_node15"><a xlink:href="gapped_8hpp.html" target="_top" xlink:title="Provides bio::alphabet::gapped.">
<polygon fill="white" stroke="black" points="592,-196 592,-215 750,-215 750,-196 592,-196"/>
<text text-anchor="middle" x="671" y="-203" font-family="Helvetica,sans-Serif" font-size="10.00">bio/alphabet/gap/gapped.hpp</text>
</a>
</g>
</g>
<!-- Node14&#45;&gt;Node15 -->
<g id="edge18" class="edge">
<title>Node14&#45;&gt;Node15</title>
<path fill="none" stroke="midnightblue" d="M666.61,-247.25C667.82,-236.02 669.18,-223.38 670.06,-215.19"/>
<polygon fill="midnightblue" stroke="midnightblue" points="663.11,-247.08 665.52,-257.4 670.07,-247.83 663.11,-247.08"/>
</g>
<!-- Node16 -->
<g id="node16" class="node">
<title>Node16</title>
<g id="a_node16"><a xlink:href="alphabet_2gap_2all_8hpp.html" target="_top" xlink:title="Meta&#45;header for the gap submodule; includes all headers from alphabet/gap/.">
<polygon fill="white" stroke="black" points="562,-62 562,-81 696,-81 696,-62 562,-62"/>
<text text-anchor="middle" x="629" y="-69" font-family="Helvetica,sans-Serif" font-size="10.00">bio/alphabet/gap/all.hpp</text>
</a>
</g>
</g>
<!-- Node15&#45;&gt;Node16 -->
<g id="edge19" class="edge">
<title>Node15&#45;&gt;Node16</title>
<path fill="none" stroke="midnightblue" d="M665.16,-186.16C655.96,-157.23 638.43,-102.13 631.71,-81.02"/>
<polygon fill="midnightblue" stroke="midnightblue" points="661.88,-187.37 668.24,-195.84 668.55,-185.25 661.88,-187.37"/>
</g>
<!-- Node16&#45;&gt;Node6 -->
<g id="edge20" class="edge">
<title>Node16&#45;&gt;Node6</title>
<path fill="none" stroke="midnightblue" d="M587.2,-59.4C543.69,-47.84 476.51,-30 437.03,-19.51"/>
<polygon fill="midnightblue" stroke="midnightblue" points="586.34,-62.79 596.91,-61.98 588.14,-56.03 586.34,-62.79"/>
</g>
<!-- Node19 -->
<g id="node19" class="node">
<title>Node19</title>
<g id="a_node19"><a xlink:href="meta_2concept_2all_8hpp.html" target="_top" xlink:title="Meta&#45;include for custom concepts.">
<polygon fill="white" stroke="black" points="1003.5,-129 1003.5,-148 1140.5,-148 1140.5,-129 1003.5,-129"/>
<text text-anchor="middle" x="1072" y="-136" font-family="Helvetica,sans-Serif" font-size="10.00">bio/meta/concept/all.hpp</text>
</a>
</g>
</g>
<!-- Node18&#45;&gt;Node19 -->
<g id="edge24" class="edge">
<title>Node18&#45;&gt;Node19</title>
<path fill="none" stroke="midnightblue" d="M1050.4,-186.29C1056.17,-173.81 1063.55,-157.81 1068.02,-148.13"/>
<polygon fill="midnightblue" stroke="midnightblue" points="1047.06,-185.19 1046.05,-195.73 1053.41,-188.12 1047.06,-185.19"/>
</g>
<!-- Node20 -->
<g id="node20" class="node">
<title>Node20</title>
<g id="a_node20"><a xlink:href="tuple__utility_8hpp.html" target="_top" xlink:title="Provides utility functions for tuple like interfaces.">
<polygon fill="white" stroke="black" points="844.5,-129 844.5,-148 985.5,-148 985.5,-129 844.5,-129"/>
<text text-anchor="middle" x="915" y="-136" font-family="Helvetica,sans-Serif" font-size="10.00">bio/meta/tuple_utility.hpp</text>
</a>
</g>
</g>
<!-- Node18&#45;&gt;Node20 -->
<g id="edge26" class="edge">
<title>Node18&#45;&gt;Node20</title>
<path fill="none" stroke="midnightblue" d="M1016.16,-191.27C991,-178.4 953.51,-159.21 931.93,-148.17"/>
<polygon fill="midnightblue" stroke="midnightblue" points="1014.64,-194.43 1025.14,-195.87 1017.83,-188.2 1014.64,-194.43"/>
</g>
<!-- Node19&#45;&gt;Node17 -->
<g id="edge25" class="edge">
<title>Node19&#45;&gt;Node17</title>
<path fill="none" stroke="midnightblue" d="M1053.42,-122.21C1037.86,-109.41 1016.2,-91.59 1003.49,-81.13"/>
<polygon fill="midnightblue" stroke="midnightblue" points="1051.4,-125.08 1061.35,-128.73 1055.85,-119.68 1051.4,-125.08"/>
</g>
<!-- Node20&#45;&gt;Node17 -->
<g id="edge27" class="edge">
<title>Node20&#45;&gt;Node17</title>
<path fill="none" stroke="midnightblue" d="M933.34,-122.21C948.71,-109.41 970.09,-91.59 982.65,-81.13"/>
<polygon fill="midnightblue" stroke="midnightblue" points="930.96,-119.64 925.52,-128.73 935.44,-125.02 930.96,-119.64"/>
</g>
<!-- Node22 -->
<g id="node22" class="node">
<title>Node22</title>
<g id="a_node22"><a xlink:href="meta_2tag_2all_8hpp.html" target="_top" xlink:title="Meta&#45;header for the folder.">
<polygon fill="white" stroke="black" points="863.5,-330 863.5,-349 978.5,-349 978.5,-330 863.5,-330"/>
<text text-anchor="middle" x="921" y="-337" font-family="Helvetica,sans-Serif" font-size="10.00">bio/meta/tag/all.hpp</text>
</a>
</g>
</g>
<!-- Node21&#45;&gt;Node22 -->
<g id="edge29" class="edge">
<title>Node21&#45;&gt;Node22</title>
<path fill="none" stroke="midnightblue" d="M921,-386.54C921,-374.17 921,-358.62 921,-349.13"/>
<polygon fill="midnightblue" stroke="midnightblue" points="917.5,-386.73 921,-396.73 924.5,-386.73 917.5,-386.73"/>
</g>
<!-- Node24&#45;&gt;Node3 -->
<g id="edge32" class="edge">
<title>Node24&#45;&gt;Node3</title>
<path fill="none" stroke="midnightblue" d="M575.09,-382.83C558.3,-355.47 530.57,-310.28 516.61,-287.52"/>
<polygon fill="midnightblue" stroke="midnightblue" points="572.12,-384.68 580.33,-391.37 578.08,-381.02 572.12,-384.68"/>
</g>
<!-- Node25&#45;&gt;Node3 -->
<g id="edge34" class="edge">
<title>Node25&#45;&gt;Node3</title>
<path fill="none" stroke="midnightblue" d="M726.66,-323.69C668.21,-310.06 611.46,-297.06 569.67,-287.52"/>
<polygon fill="midnightblue" stroke="midnightblue" points="725.9,-327.11 736.43,-325.98 727.49,-320.3 725.9,-327.11"/>
</g>
<!-- Node25&#45;&gt;Node14 -->
<g id="edge35" class="edge">
<title>Node25&#45;&gt;Node14</title>
<path fill="none" stroke="midnightblue" d="M752.87,-319.71C733.16,-309.46 709.16,-296.98 691.07,-287.58"/>
<polygon fill="midnightblue" stroke="midnightblue" points="751.39,-322.89 761.88,-324.4 754.62,-316.68 751.39,-322.89"/>
</g>
<!-- Node25&#45;&gt;Node20 -->
<g id="edge40" class="edge">
<title>Node25&#45;&gt;Node20</title>
<path fill="none" stroke="midnightblue" d="M787.18,-314.34C786.89,-297.5 788.51,-274.92 797,-257 820.9,-206.58 875.83,-165.4 901.42,-148.19"/>
<polygon fill="midnightblue" stroke="midnightblue" points="783.69,-314.63 787.6,-324.48 790.69,-314.35 783.69,-314.63"/>
</g>
<!-- Node25&#45;&gt;Node23 -->
<g id="edge41" class="edge">
<title>Node25&#45;&gt;Node23</title>
<path fill="none" stroke="midnightblue" d="M846.27,-321.58C882,-311.02 927.46,-297.59 961.24,-287.61"/>
<polygon fill="midnightblue" stroke="midnightblue" points="845.06,-318.29 836.47,-324.48 847.05,-325 845.06,-318.29"/>
</g>
<!-- Node26 -->
<g id="node26" class="node">
<title>Node26</title>
<g id="a_node26"><a xlink:href="pod__tuple_8hpp.html" target="_top" xlink:title="Provides bio::meta::pod_tuple.">
<polygon fill="white" stroke="black" points="806,-263 806,-282 938,-282 938,-263 806,-263"/>
<text text-anchor="middle" x="872" y="-270" font-family="Helvetica,sans-Serif" font-size="10.00">bio/meta/pod_tuple.hpp</text>
</a>
</g>
</g>
<!-- Node25&#45;&gt;Node26 -->
<g id="edge36" class="edge">
<title>Node25&#45;&gt;Node26</title>
<path fill="none" stroke="midnightblue" d="M815.17,-318.01C830.58,-305.94 849.26,-291.3 860.9,-282.19"/>
<polygon fill="midnightblue" stroke="midnightblue" points="812.72,-315.47 807.01,-324.4 817.04,-320.99 812.72,-315.47"/>
</g>
<!-- Node26&#45;&gt;Node17 -->
<g id="edge37" class="edge">
<title>Node26&#45;&gt;Node17</title>
<path fill="none" stroke="midnightblue" d="M859.7,-254.44C840.02,-224.88 806.53,-163.43 836,-123 860.71,-89.1 908.55,-77.46 944.96,-73.71"/>
<polygon fill="midnightblue" stroke="midnightblue" points="856.94,-256.61 865.5,-262.85 862.7,-252.63 856.94,-256.61"/>
</g>
<!-- Node26&#45;&gt;Node18 -->
<g id="edge38" class="edge">
<title>Node26&#45;&gt;Node18</title>
<path fill="none" stroke="midnightblue" d="M903.98,-259.27C937.72,-246.37 990.02,-226.38 1019.6,-215.06"/>
<polygon fill="midnightblue" stroke="midnightblue" points="902.67,-256.03 894.57,-262.87 905.17,-262.57 902.67,-256.03"/>
</g>
<!-- Node26&#45;&gt;Node20 -->
<g id="edge39" class="edge">
<title>Node26&#45;&gt;Node20</title>
<path fill="none" stroke="midnightblue" d="M877.97,-253.16C887.4,-224.23 905.35,-169.13 912.22,-148.02"/>
<polygon fill="midnightblue" stroke="midnightblue" points="874.59,-252.25 874.82,-262.84 881.25,-254.41 874.59,-252.25"/>
</g>
<!-- Node27&#45;&gt;Node25 -->
<g id="edge43" class="edge">
<title>Node27&#45;&gt;Node25</title>
<path fill="none" stroke="midnightblue" d="M764.4,-382.58C769.86,-373.24 775.99,-362.75 780.77,-354.58"/>
<polygon fill="midnightblue" stroke="midnightblue" points="761.27,-381 759.25,-391.4 767.31,-384.53 761.27,-381"/>
</g>
</g>
</svg>
        <g id="navigator" transform="translate(0 0)" fill="#404254">
                <rect fill="#f2f5e9" fill-opacity="0.5" stroke="#606060" stroke-width=".5" x="0" y="0" width="60" height="60"/>
                <use id="zoomplus" xlink:href="#zoomPlus" x="17" y="9" onmousedown="handleZoom(evt,'in')"/>
                <use id="zoomminus" xlink:href="#zoomMin" x="42" y="9" onmousedown="handleZoom(evt,'out')"/>
                <use id="reset" xlink:href="#resetDef" x="30" y="36" onmousedown="handleReset()"/>
                <g id="arrowUp" xlink:href="#dirArrow" transform="translate(30 24)" onmousedown="handlePan(0,-1)">
                  <use xlink:href="#rim" fill="#404040">
                        <set attributeName="fill" to="#808080" begin="arrowUp.mouseover" end="arrowUp.mouseout"/>
                  </use>
                  <path fill="none" stroke="white" stroke-width="1.5" d="M0,-3.0v7 M-2.5,-0.5L0,-3.0L2.5,-0.5"/>
                </g>
                <g id="arrowRight" xlink:href="#dirArrow" transform="rotate(90) translate(36 -43)" onmousedown="handlePan(1,0)">
                  <use xlink:href="#rim" fill="#404040">
                        <set attributeName="fill" to="#808080" begin="arrowRight.mouseover" end="arrowRight.mouseout"/>
                  </use>
                  <path fill="none" stroke="white" stroke-width="1.5" d="M0,-3.0v7 M-2.5,-0.5L0,-3.0L2.5,-0.5"/>
                </g>
                <g id="arrowDown" xlink:href="#dirArrow" transform="rotate(180) translate(-30 -48)" onmousedown="handlePan(0,1)">
                  <use xlink:href="#rim" fill="#404040">
                        <set attributeName="fill" to="#808080" begin="arrowDown.mouseover" end="arrowDown.mouseout"/>
                  </use>
                  <path fill="none" stroke="white" stroke-width="1.5" d="M0,-3.0v7 M-2.5,-0.5L0,-3.0L2.5,-0.5"/>
                </g>
                <g id="arrowLeft" xlink:href="#dirArrow" transform="rotate(270) translate(-36 17)" onmousedown="handlePan(-1,0)">
                  <use xlink:href="#rim" fill="#404040">
                        <set attributeName="fill" to="#808080" begin="arrowLeft.mouseover" end="arrowLeft.mouseout"/>
                  </use>
                  <path fill="none" stroke="white" stroke-width="1.5" d="M0,-3.0v7 M-2.5,-0.5L0,-3.0L2.5,-0.5"/>
                </g>
        </g>
        <svg viewBox="0 0 15 15" width="100%" height="30px" preserveAspectRatio="xMaxYMin meet">
         <g id="arrow_out" transform="scale(0.3 0.3)">
          <a xlink:href="type__list_8hpp__dep__incl_org.svg" target="_base">
           <rect id="button" ry="5" rx="5" y="6" x="6" height="38" width="38"
                fill="#f2f5e9" fill-opacity="0.5" stroke="#606060" stroke-width="1.0"/>
           <path id="arrow"
             d="M 11.500037,31.436501 C 11.940474,20.09759 22.043105,11.32322 32.158766,21.979434 L 37.068811,17.246167 C 37.068811,17.246167 37.088388,32 37.088388,32 L 22.160133,31.978069 C 22.160133,31.978069 26.997745,27.140456 26.997745,27.140456 C 18.528582,18.264221 13.291696,25.230495 11.500037,31.436501 z"
             style="fill:#404040;"/>
          </a>
         </g>
        </svg>
</svg>
