<?xml version="1.0" encoding="UTF-8" standalone="no"?>
<!DOCTYPE svg PUBLIC "-//W3C//DTD SVG 1.1//EN"
 "http://www.w3.org/Graphics/SVG/1.1/DTD/svg11.dtd">
<!-- Generated by graphviz version 2.43.0 (0)
 -->
<!-- Title: bio/meta/type_list/type_list.hpp Pages: 1 -->
<svg width="1699pt" height="698pt"
 viewBox="0.00 0.00 1698.50 698.00" xmlns="http://www.w3.org/2000/svg" xmlns:xlink="http://www.w3.org/1999/xlink">
<g id="graph0" class="graph" transform="scale(1 1) rotate(0) translate(4 694)">
<title>bio/meta/type_list/type_list.hpp</title>
<polygon fill="white" stroke="transparent" points="-4,4 -4,-694 1694.5,-694 1694.5,4 -4,4"/>
<!-- Node1 -->
<g id="node1" class="node">
<title>Node1</title>
<g id="a_node1"><a xlink:title="Provides bio::type_list.">
<polygon fill="#bfbfbf" stroke="black" points="1191.5,-659.5 1191.5,-689.5 1296.5,-689.5 1296.5,-659.5 1191.5,-659.5"/>
<text text-anchor="start" x="1199.5" y="-677.5" font-family="Helvetica,sans-Serif" font-size="10.00">bio/meta/type_list</text>
<text text-anchor="middle" x="1244" y="-666.5" font-family="Helvetica,sans-Serif" font-size="10.00">/type_list.hpp</text>
</a>
</g>
</g>
<!-- Node2 -->
<g id="node2" class="node">
<title>Node2</title>
<g id="a_node2"><a xlink:href="alphabet__tuple__base_8hpp.html" target="_top" xlink:title="Provides bio::alphabet_tuple_base.">
<polygon fill="white" stroke="black" points="450,-257.5 450,-287.5 592,-287.5 592,-257.5 450,-257.5"/>
<text text-anchor="start" x="458" y="-275.5" font-family="Helvetica,sans-Serif" font-size="10.00">bio/alphabet/composite</text>
<text text-anchor="middle" x="521" y="-264.5" font-family="Helvetica,sans-Serif" font-size="10.00">/alphabet_tuple_base.hpp</text>
</a>
</g>
</g>
<!-- Node1&#45;&gt;Node2 -->
<g id="edge1" class="edge">
<title>Node1&#45;&gt;Node2</title>
<path fill="none" stroke="midnightblue" d="M1180.85,-673.2C1016.59,-671.82 585.37,-664.28 537,-623 508.71,-598.85 518,-578.69 518,-541.5 518,-541.5 518,-541.5 518,-405.5 518,-362.63 519.6,-311.96 520.46,-287.76"/>
<polygon fill="midnightblue" stroke="midnightblue" points="1181.25,-676.7 1191.27,-673.28 1181.3,-669.7 1181.25,-676.7"/>
</g>
<!-- Node16 -->
<g id="node16" class="node">
<title>Node16</title>
<g id="a_node16"><a xlink:href="alphabet_2composite_2detail_8hpp_source.html" target="_top" xlink:title=" ">
<polygon fill="white" stroke="black" points="674.5,-324.5 674.5,-354.5 805.5,-354.5 805.5,-324.5 674.5,-324.5"/>
<text text-anchor="start" x="682.5" y="-342.5" font-family="Helvetica,sans-Serif" font-size="10.00">bio/alphabet/composite</text>
<text text-anchor="middle" x="740" y="-331.5" font-family="Helvetica,sans-Serif" font-size="10.00">/detail.hpp</text>
</a>
</g>
</g>
<!-- Node1&#45;&gt;Node16 -->
<g id="edge20" class="edge">
<title>Node1&#45;&gt;Node16</title>
<path fill="none" stroke="midnightblue" d="M1181.29,-670.24C1046.24,-661.51 740,-631.75 740,-541.5 740,-541.5 740,-541.5 740,-472.5 740,-429.65 740,-378.97 740,-354.76"/>
<polygon fill="midnightblue" stroke="midnightblue" points="1181.29,-673.75 1191.49,-670.88 1181.73,-666.76 1181.29,-673.75"/>
</g>
<!-- Node20 -->
<g id="node20" class="node">
<title>Node20</title>
<g id="a_node20"><a xlink:href="meta_2all_8hpp.html" target="_top" xlink:title="Meta&#45;header for the core module .">
<polygon fill="white" stroke="black" points="1408,-263 1408,-282 1504,-282 1504,-263 1408,-263"/>
<text text-anchor="middle" x="1456" y="-270" font-family="Helvetica,sans-Serif" font-size="10.00">bio/meta/all.hpp</text>
</a>
</g>
</g>
<!-- Node1&#45;&gt;Node20 -->
<g id="edge27" class="edge">
<title>Node1&#45;&gt;Node20</title>
<path fill="none" stroke="midnightblue" d="M1306.83,-667.42C1426.2,-654.12 1674,-617.38 1674,-541.5 1674,-541.5 1674,-541.5 1674,-405.5 1674,-326.63 1568.31,-293.6 1504.11,-280.81"/>
<polygon fill="midnightblue" stroke="midnightblue" points="1306.29,-663.96 1296.73,-668.52 1307.05,-670.92 1306.29,-663.96"/>
</g>
<!-- Node21 -->
<g id="node21" class="node">
<title>Node21</title>
<g id="a_node21"><a xlink:href="tuple_8hpp.html" target="_top" xlink:title="Provides bio::tuple_like.">
<polygon fill="white" stroke="black" points="1470,-397 1470,-416 1620,-416 1620,-397 1470,-397"/>
<text text-anchor="middle" x="1545" y="-404" font-family="Helvetica,sans-Serif" font-size="10.00">bio/meta/concept/tuple.hpp</text>
</a>
</g>
</g>
<!-- Node1&#45;&gt;Node21 -->
<g id="edge28" class="edge">
<title>Node1&#45;&gt;Node21</title>
<path fill="none" stroke="midnightblue" d="M1306.26,-656.33C1331.32,-648.09 1359.92,-636.94 1384,-623 1463.69,-576.87 1501.78,-571.83 1542,-489 1553.75,-464.8 1549.71,-431.63 1546.85,-416.13"/>
<polygon fill="midnightblue" stroke="midnightblue" points="1304.95,-653.08 1296.49,-659.46 1307.09,-659.74 1304.95,-653.08"/>
</g>
<!-- Node25 -->
<g id="node25" class="node">
<title>Node25</title>
<g id="a_node25"><a xlink:href="meta_2type__list_2all_8hpp.html" target="_top" xlink:title="Meta&#45;header for the Utility / Type List submodule .">
<polygon fill="white" stroke="black" points="1427.5,-458.5 1427.5,-488.5 1532.5,-488.5 1532.5,-458.5 1427.5,-458.5"/>
<text text-anchor="start" x="1435.5" y="-476.5" font-family="Helvetica,sans-Serif" font-size="10.00">bio/meta/type_list</text>
<text text-anchor="middle" x="1480" y="-465.5" font-family="Helvetica,sans-Serif" font-size="10.00">/all.hpp</text>
</a>
</g>
</g>
<!-- Node1&#45;&gt;Node25 -->
<g id="edge35" class="edge">
<title>Node1&#45;&gt;Node25</title>
<path fill="none" stroke="midnightblue" d="M1294.19,-655.59C1313.61,-647.33 1335.36,-636.37 1353,-623 1405.99,-582.84 1452.28,-517.13 1471.07,-488.53"/>
<polygon fill="midnightblue" stroke="midnightblue" points="1292.79,-652.38 1284.88,-659.42 1295.46,-658.85 1292.79,-652.38"/>
</g>
<!-- Node26 -->
<g id="node26" class="node">
<title>Node26</title>
<g id="a_node26"><a xlink:href="type__list__algorithm_8hpp.html" target="_top" xlink:title="Provides algorithms for meta programming, parameter packs and bio::type_list.">
<polygon fill="white" stroke="black" points="546,-592.5 546,-622.5 712,-622.5 712,-592.5 546,-592.5"/>
<text text-anchor="start" x="554" y="-610.5" font-family="Helvetica,sans-Serif" font-size="10.00">bio/meta/type_list</text>
<text text-anchor="middle" x="629" y="-599.5" font-family="Helvetica,sans-Serif" font-size="10.00">/detail/type_list_algorithm.hpp</text>
</a>
</g>
</g>
<!-- Node1&#45;&gt;Node26 -->
<g id="edge36" class="edge">
<title>Node1&#45;&gt;Node26</title>
<path fill="none" stroke="midnightblue" d="M1181.34,-668.43C1083.83,-660.31 889.91,-643.23 726,-623 721.44,-622.44 716.76,-621.83 712.04,-621.2"/>
<polygon fill="midnightblue" stroke="midnightblue" points="1181.07,-671.92 1191.33,-669.26 1181.65,-664.95 1181.07,-671.92"/>
</g>
<!-- Node27 -->
<g id="node27" class="node">
<title>Node27</title>
<g id="a_node27"><a xlink:href="type__list_2traits_8hpp.html" target="_top" xlink:title="Provides traits for bio::type_list.">
<polygon fill="white" stroke="black" points="1149.5,-525.5 1149.5,-555.5 1254.5,-555.5 1254.5,-525.5 1149.5,-525.5"/>
<text text-anchor="start" x="1157.5" y="-543.5" font-family="Helvetica,sans-Serif" font-size="10.00">bio/meta/type_list</text>
<text text-anchor="middle" x="1202" y="-532.5" font-family="Helvetica,sans-Serif" font-size="10.00">/traits.hpp</text>
</a>
</g>
</g>
<!-- Node1&#45;&gt;Node27 -->
<g id="edge38" class="edge">
<title>Node1&#45;&gt;Node27</title>
<path fill="none" stroke="midnightblue" d="M1232.77,-649.98C1229.02,-641.59 1225.04,-631.99 1222,-623 1214.17,-599.81 1208,-571.96 1204.69,-555.55"/>
<polygon fill="midnightblue" stroke="midnightblue" points="1229.63,-651.54 1236.98,-659.17 1235.99,-648.62 1229.63,-651.54"/>
</g>
<!-- Node36 -->
<g id="node36" class="node">
<title>Node36</title>
<g id="a_node36"><a xlink:href="type__pack_2traits_8hpp.html" target="_top" xlink:title="Provides various traits for template packs.">
<polygon fill="white" stroke="black" points="1230.5,-592.5 1230.5,-622.5 1343.5,-622.5 1343.5,-592.5 1230.5,-592.5"/>
<text text-anchor="start" x="1238.5" y="-610.5" font-family="Helvetica,sans-Serif" font-size="10.00">bio/meta/type_pack</text>
<text text-anchor="middle" x="1287" y="-599.5" font-family="Helvetica,sans-Serif" font-size="10.00">/traits.hpp</text>
</a>
</g>
</g>
<!-- Node1&#45;&gt;Node36 -->
<g id="edge57" class="edge">
<title>Node1&#45;&gt;Node36</title>
<path fill="none" stroke="midnightblue" d="M1258.97,-650.87C1265.2,-641.46 1272.23,-630.83 1277.69,-622.58"/>
<polygon fill="midnightblue" stroke="midnightblue" points="1255.93,-649.12 1253.33,-659.4 1261.77,-652.99 1255.93,-649.12"/>
</g>
<!-- Node3 -->
<g id="node3" class="node">
<title>Node3</title>
<g id="a_node3"><a xlink:href="cigar_8hpp.html" target="_top" xlink:title="Provides the bio::cigar alphabet.">
<polygon fill="white" stroke="black" points="188,-190.5 188,-220.5 292,-220.5 292,-190.5 188,-190.5"/>
<text text-anchor="start" x="196" y="-208.5" font-family="Helvetica,sans-Serif" font-size="10.00">bio/alphabet/cigar</text>
<text text-anchor="middle" x="240" y="-197.5" font-family="Helvetica,sans-Serif" font-size="10.00">/cigar.hpp</text>
</a>
</g>
</g>
<!-- Node2&#45;&gt;Node3 -->
<g id="edge2" class="edge">
<title>Node2&#45;&gt;Node3</title>
<path fill="none" stroke="midnightblue" d="M449.51,-255.24C406.46,-245.41 350.56,-232.58 301,-221 298.14,-220.33 295.2,-219.64 292.24,-218.95"/>
<polygon fill="midnightblue" stroke="midnightblue" points="448.8,-258.67 459.33,-257.48 450.36,-251.84 448.8,-258.67"/>
</g>
<!-- Node4 -->
<g id="node4" class="node">
<title>Node4</title>
<g id="a_node4"><a xlink:href="alphabet_2composite_2all_8hpp.html" target="_top" xlink:title="Meta&#45;header for the composite submodule; includes all headers from alphabet/composite/.">
<polygon fill="white" stroke="black" points="726.5,-190.5 726.5,-220.5 857.5,-220.5 857.5,-190.5 726.5,-190.5"/>
<text text-anchor="start" x="734.5" y="-208.5" font-family="Helvetica,sans-Serif" font-size="10.00">bio/alphabet/composite</text>
<text text-anchor="middle" x="792" y="-197.5" font-family="Helvetica,sans-Serif" font-size="10.00">/all.hpp</text>
</a>
</g>
</g>
<!-- Node2&#45;&gt;Node4 -->
<g id="edge3" class="edge">
<title>Node2&#45;&gt;Node4</title>
<path fill="none" stroke="midnightblue" d="M589.3,-255.12C633.64,-244.48 690.84,-230.76 733.17,-220.61"/>
<polygon fill="midnightblue" stroke="midnightblue" points="588.38,-251.74 579.47,-257.48 590.01,-258.55 588.38,-251.74"/>
</g>
<!-- Node6 -->
<g id="node6" class="node">
<title>Node6</title>
<g id="a_node6"><a xlink:href="masked_8hpp.html" target="_top" xlink:title="Extends a given alphabet with the mask alphabet.">
<polygon fill="white" stroke="black" points="0,-196 0,-215 170,-215 170,-196 0,-196"/>
<text text-anchor="middle" x="85" y="-203" font-family="Helvetica,sans-Serif" font-size="10.00">bio/alphabet/mask/masked.hpp</text>
</a>
</g>
</g>
<!-- Node2&#45;&gt;Node6 -->
<g id="edge5" class="edge">
<title>Node2&#45;&gt;Node6</title>
<path fill="none" stroke="midnightblue" d="M439.93,-259.68C370.62,-249.54 268.23,-234.47 179,-221 166.43,-219.1 152.91,-217.03 140.16,-215.07"/>
<polygon fill="midnightblue" stroke="midnightblue" points="439.51,-263.16 449.91,-261.14 440.52,-256.23 439.51,-263.16"/>
</g>
<!-- Node8 -->
<g id="node8" class="node">
<title>Node8</title>
<g id="a_node8"><a xlink:href="qualified_8hpp.html" target="_top" xlink:title="Provides quality alphabet composites.">
<polygon fill="white" stroke="black" points="594,-190.5 594,-220.5 708,-220.5 708,-190.5 594,-190.5"/>
<text text-anchor="start" x="602" y="-208.5" font-family="Helvetica,sans-Serif" font-size="10.00">bio/alphabet/quality</text>
<text text-anchor="middle" x="651" y="-197.5" font-family="Helvetica,sans-Serif" font-size="10.00">/qualified.hpp</text>
</a>
</g>
</g>
<!-- Node2&#45;&gt;Node8 -->
<g id="edge8" class="edge">
<title>Node2&#45;&gt;Node8</title>
<path fill="none" stroke="midnightblue" d="M558.29,-252.85C578.85,-242.58 603.95,-230.03 622.85,-220.58"/>
<polygon fill="midnightblue" stroke="midnightblue" points="556.59,-249.79 549.21,-257.4 559.72,-256.05 556.59,-249.79"/>
</g>
<!-- Node13 -->
<g id="node13" class="node">
<title>Node13</title>
<g id="a_node13"><a xlink:href="structured__aa_8hpp.html" target="_top" xlink:title="Provides the composite of aminoacid with structure alphabets.">
<polygon fill="white" stroke="black" points="452,-190.5 452,-220.5 576,-220.5 576,-190.5 452,-190.5"/>
<text text-anchor="start" x="460" y="-208.5" font-family="Helvetica,sans-Serif" font-size="10.00">bio/alphabet/structure</text>
<text text-anchor="middle" x="514" y="-197.5" font-family="Helvetica,sans-Serif" font-size="10.00">/structured_aa.hpp</text>
</a>
</g>
</g>
<!-- Node2&#45;&gt;Node13 -->
<g id="edge15" class="edge">
<title>Node2&#45;&gt;Node13</title>
<path fill="none" stroke="midnightblue" d="M518.4,-247.4C517.43,-238.37 516.36,-228.41 515.52,-220.58"/>
<polygon fill="midnightblue" stroke="midnightblue" points="514.93,-247.83 519.48,-257.4 521.89,-247.08 514.93,-247.83"/>
</g>
<!-- Node15 -->
<g id="node15" class="node">
<title>Node15</title>
<g id="a_node15"><a xlink:href="structured__rna_8hpp.html" target="_top" xlink:title="Provides the composite of nucleotide with structure alphabets.">
<polygon fill="white" stroke="black" points="310,-190.5 310,-220.5 434,-220.5 434,-190.5 310,-190.5"/>
<text text-anchor="start" x="318" y="-208.5" font-family="Helvetica,sans-Serif" font-size="10.00">bio/alphabet/structure</text>
<text text-anchor="middle" x="372" y="-197.5" font-family="Helvetica,sans-Serif" font-size="10.00">/structured_rna.hpp</text>
</a>
</g>
</g>
<!-- Node2&#45;&gt;Node15 -->
<g id="edge18" class="edge">
<title>Node2&#45;&gt;Node15</title>
<path fill="none" stroke="midnightblue" d="M479.21,-253.27C455.48,-242.92 426.22,-230.15 404.27,-220.58"/>
<polygon fill="midnightblue" stroke="midnightblue" points="478.1,-256.61 488.67,-257.4 480.9,-250.19 478.1,-256.61"/>
</g>
<!-- Node5 -->
<g id="node5" class="node">
<title>Node5</title>
<g id="a_node5"><a xlink:href="alphabet_2all_8hpp.html" target="_top" xlink:title="Meta&#45;header for the alphabet module.">
<polygon fill="white" stroke="black" points="613.5,-0.5 613.5,-19.5 726.5,-19.5 726.5,-0.5 613.5,-0.5"/>
<text text-anchor="middle" x="670" y="-7.5" font-family="Helvetica,sans-Serif" font-size="10.00">bio/alphabet/all.hpp</text>
</a>
</g>
</g>
<!-- Node4&#45;&gt;Node5 -->
<g id="edge4" class="edge">
<title>Node4&#45;&gt;Node5</title>
<path fill="none" stroke="midnightblue" d="M787.62,-180.39C780.93,-149.02 765.71,-93.78 736,-56 723.22,-39.76 702.96,-27.18 688.26,-19.5"/>
<polygon fill="midnightblue" stroke="midnightblue" points="784.23,-181.3 789.63,-190.42 791.09,-179.92 784.23,-181.3"/>
</g>
<!-- Node7 -->
<g id="node7" class="node">
<title>Node7</title>
<g id="a_node7"><a xlink:href="alphabet_2mask_2all_8hpp.html" target="_top" xlink:title="Meta&#45;header for the mask submodule; includes all headers from alphabet/mask/.">
<polygon fill="white" stroke="black" points="382.5,-62 382.5,-81 525.5,-81 525.5,-62 382.5,-62"/>
<text text-anchor="middle" x="454" y="-69" font-family="Helvetica,sans-Serif" font-size="10.00">bio/alphabet/mask/all.hpp</text>
</a>
</g>
</g>
<!-- Node6&#45;&gt;Node7 -->
<g id="edge6" class="edge">
<title>Node6&#45;&gt;Node7</title>
<path fill="none" stroke="midnightblue" d="M118.63,-192.47C192.31,-166.11 366.43,-103.82 430.13,-81.04"/>
<polygon fill="midnightblue" stroke="midnightblue" points="117.16,-189.28 108.93,-195.94 119.52,-195.87 117.16,-189.28"/>
</g>
<!-- Node7&#45;&gt;Node5 -->
<g id="edge7" class="edge">
<title>Node7&#45;&gt;Node5</title>
<path fill="none" stroke="midnightblue" d="M494.84,-59.25C536.81,-47.69 601.2,-29.95 639.11,-19.51"/>
<polygon fill="midnightblue" stroke="midnightblue" points="493.66,-55.94 484.95,-61.98 495.52,-62.69 493.66,-55.94"/>
</g>
<!-- Node9 -->
<g id="node9" class="node">
<title>Node9</title>
<g id="a_node9"><a xlink:href="aliases_8hpp.html" target="_top" xlink:title="Provides aliases for qualified.">
<polygon fill="white" stroke="black" points="594,-123.5 594,-153.5 708,-153.5 708,-123.5 594,-123.5"/>
<text text-anchor="start" x="602" y="-141.5" font-family="Helvetica,sans-Serif" font-size="10.00">bio/alphabet/quality</text>
<text text-anchor="middle" x="651" y="-130.5" font-family="Helvetica,sans-Serif" font-size="10.00">/aliases.hpp</text>
</a>
</g>
</g>
<!-- Node8&#45;&gt;Node9 -->
<g id="edge9" class="edge">
<title>Node8&#45;&gt;Node9</title>
<path fill="none" stroke="midnightblue" d="M651,-180.11C651,-171.15 651,-161.32 651,-153.58"/>
<polygon fill="midnightblue" stroke="midnightblue" points="647.5,-180.4 651,-190.4 654.5,-180.4 647.5,-180.4"/>
</g>
<!-- Node10 -->
<g id="node10" class="node">
<title>Node10</title>
<g id="a_node10"><a xlink:href="alphabet_2quality_2all_8hpp.html" target="_top" xlink:title="Meta&#45;header that includes all headers from alphabet/quality/.">
<polygon fill="white" stroke="black" points="613,-56.5 613,-86.5 727,-86.5 727,-56.5 613,-56.5"/>
<text text-anchor="start" x="621" y="-74.5" font-family="Helvetica,sans-Serif" font-size="10.00">bio/alphabet/quality</text>
<text text-anchor="middle" x="670" y="-63.5" font-family="Helvetica,sans-Serif" font-size="10.00">/all.hpp</text>
</a>
</g>
</g>
<!-- Node8&#45;&gt;Node10 -->
<g id="edge12" class="edge">
<title>Node8&#45;&gt;Node10</title>
<path fill="none" stroke="midnightblue" d="M688.5,-184.83C699.78,-176.88 710.79,-166.58 717,-154 723.1,-141.65 722.04,-135.82 717,-123 711.3,-108.51 699.27,-95.71 688.81,-86.63"/>
<polygon fill="midnightblue" stroke="midnightblue" points="686.37,-182.05 679.91,-190.45 690.2,-187.91 686.37,-182.05"/>
</g>
<!-- Node11 -->
<g id="node11" class="node">
<title>Node11</title>
<g id="a_node11"><a xlink:href="trim__quality_8hpp.html" target="_top" xlink:title="Provides bio::views::trim_quality.">
<polygon fill="white" stroke="black" points="804,-123.5 804,-153.5 926,-153.5 926,-123.5 804,-123.5"/>
<text text-anchor="start" x="812" y="-141.5" font-family="Helvetica,sans-Serif" font-size="10.00">bio/ranges/views/trim</text>
<text text-anchor="middle" x="865" y="-130.5" font-family="Helvetica,sans-Serif" font-size="10.00">_quality.hpp</text>
</a>
</g>
</g>
<!-- Node8&#45;&gt;Node11 -->
<g id="edge13" class="edge">
<title>Node8&#45;&gt;Node11</title>
<path fill="none" stroke="midnightblue" d="M707.15,-187.44C741.84,-176.91 785.82,-163.55 818.54,-153.61"/>
<polygon fill="midnightblue" stroke="midnightblue" points="705.72,-184.22 697.17,-190.48 707.76,-190.92 705.72,-184.22"/>
</g>
<!-- Node9&#45;&gt;Node10 -->
<g id="edge10" class="edge">
<title>Node9&#45;&gt;Node10</title>
<path fill="none" stroke="midnightblue" d="M657.96,-113.7C660.62,-104.59 663.57,-94.49 665.89,-86.58"/>
<polygon fill="midnightblue" stroke="midnightblue" points="654.57,-112.82 655.12,-123.4 661.29,-114.78 654.57,-112.82"/>
</g>
<!-- Node10&#45;&gt;Node5 -->
<g id="edge11" class="edge">
<title>Node10&#45;&gt;Node5</title>
<path fill="none" stroke="midnightblue" d="M670,-46.29C670,-36.86 670,-26.65 670,-19.66"/>
<polygon fill="midnightblue" stroke="midnightblue" points="666.5,-46.4 670,-56.4 673.5,-46.4 666.5,-46.4"/>
</g>
<!-- Node12 -->
<g id="node12" class="node">
<title>Node12</title>
<g id="a_node12"><a xlink:href="ranges_2views_2all_8hpp.html" target="_top" xlink:title="Meta&#45;header for the views submodule .">
<polygon fill="white" stroke="black" points="994.5,-62 994.5,-81 1129.5,-81 1129.5,-62 994.5,-62"/>
<text text-anchor="middle" x="1062" y="-69" font-family="Helvetica,sans-Serif" font-size="10.00">bio/ranges/views/all.hpp</text>
</a>
</g>
</g>
<!-- Node11&#45;&gt;Node12 -->
<g id="edge14" class="edge">
<title>Node11&#45;&gt;Node12</title>
<path fill="none" stroke="midnightblue" d="M917.71,-120.11C956.04,-107.46 1006.26,-90.89 1036.22,-81.01"/>
<polygon fill="midnightblue" stroke="midnightblue" points="916.15,-116.94 907.75,-123.4 918.34,-123.59 916.15,-116.94"/>
</g>
<!-- Node14 -->
<g id="node14" class="node">
<title>Node14</title>
<g id="a_node14"><a xlink:href="alphabet_2structure_2all_8hpp.html" target="_top" xlink:title="Meta&#45;header for the structure module. It includes all headers from alphabet/structure/.">
<polygon fill="white" stroke="black" points="452,-123.5 452,-153.5 576,-153.5 576,-123.5 452,-123.5"/>
<text text-anchor="start" x="460" y="-141.5" font-family="Helvetica,sans-Serif" font-size="10.00">bio/alphabet/structure</text>
<text text-anchor="middle" x="514" y="-130.5" font-family="Helvetica,sans-Serif" font-size="10.00">/all.hpp</text>
</a>
</g>
</g>
<!-- Node13&#45;&gt;Node14 -->
<g id="edge16" class="edge">
<title>Node13&#45;&gt;Node14</title>
<path fill="none" stroke="midnightblue" d="M514,-180.11C514,-171.15 514,-161.32 514,-153.58"/>
<polygon fill="midnightblue" stroke="midnightblue" points="510.5,-180.4 514,-190.4 517.5,-180.4 510.5,-180.4"/>
</g>
<!-- Node14&#45;&gt;Node5 -->
<g id="edge17" class="edge">
<title>Node14&#45;&gt;Node5</title>
<path fill="none" stroke="midnightblue" d="M535.98,-116.03C553.75,-99.05 579.73,-75.11 604,-56 621.32,-42.36 642.59,-28.3 656.21,-19.61"/>
<polygon fill="midnightblue" stroke="midnightblue" points="533.2,-113.84 528.42,-123.3 538.06,-118.89 533.2,-113.84"/>
</g>
<!-- Node15&#45;&gt;Node14 -->
<g id="edge19" class="edge">
<title>Node15&#45;&gt;Node14</title>
<path fill="none" stroke="midnightblue" d="M412.13,-186.13C434.69,-175.8 462.42,-163.11 483.25,-153.58"/>
<polygon fill="midnightblue" stroke="midnightblue" points="410.45,-183.05 402.81,-190.4 413.36,-189.42 410.45,-183.05"/>
</g>
<!-- Node16&#45;&gt;Node2 -->
<g id="edge21" class="edge">
<title>Node16&#45;&gt;Node2</title>
<path fill="none" stroke="midnightblue" d="M682.99,-321.58C647.42,-311.02 602.17,-297.59 568.54,-287.61"/>
<polygon fill="midnightblue" stroke="midnightblue" points="682.17,-324.99 692.75,-324.48 684.16,-318.28 682.17,-324.99"/>
</g>
<!-- Node17 -->
<g id="node17" class="node">
<title>Node17</title>
<g id="a_node17"><a xlink:href="alphabet__variant_8hpp.html" target="_top" xlink:title="Provides bio::alphabet_variant.">
<polygon fill="white" stroke="black" points="768.5,-257.5 768.5,-287.5 899.5,-287.5 899.5,-257.5 768.5,-257.5"/>
<text text-anchor="start" x="776.5" y="-275.5" font-family="Helvetica,sans-Serif" font-size="10.00">bio/alphabet/composite</text>
<text text-anchor="middle" x="834" y="-264.5" font-family="Helvetica,sans-Serif" font-size="10.00">/alphabet_variant.hpp</text>
</a>
</g>
</g>
<!-- Node16&#45;&gt;Node17 -->
<g id="edge22" class="edge">
<title>Node16&#45;&gt;Node17</title>
<path fill="none" stroke="midnightblue" d="M768.99,-318.45C783.45,-308.45 800.59,-296.6 813.64,-287.58"/>
<polygon fill="midnightblue" stroke="midnightblue" points="766.63,-315.83 760.4,-324.4 770.61,-321.59 766.63,-315.83"/>
</g>
<!-- Node17&#45;&gt;Node4 -->
<g id="edge23" class="edge">
<title>Node17&#45;&gt;Node4</title>
<path fill="none" stroke="midnightblue" d="M819.38,-248.87C813.3,-239.46 806.43,-228.83 801.1,-220.58"/>
<polygon fill="midnightblue" stroke="midnightblue" points="816.52,-250.9 824.89,-257.4 822.4,-247.1 816.52,-250.9"/>
</g>
<!-- Node18 -->
<g id="node18" class="node">
<title>Node18</title>
<g id="a_node18"><a xlink:href="gapped_8hpp.html" target="_top" xlink:title="Provides bio::gapped.">
<polygon fill="white" stroke="black" points="876,-196 876,-215 1034,-215 1034,-196 876,-196"/>
<text text-anchor="middle" x="955" y="-203" font-family="Helvetica,sans-Serif" font-size="10.00">bio/alphabet/gap/gapped.hpp</text>
</a>
</g>
</g>
<!-- Node17&#45;&gt;Node18 -->
<g id="edge24" class="edge">
<title>Node17&#45;&gt;Node18</title>
<path fill="none" stroke="midnightblue" d="M869.11,-252.64C892.26,-240.2 921.47,-224.51 939.16,-215.01"/>
<polygon fill="midnightblue" stroke="midnightblue" points="867.41,-249.58 860.26,-257.4 870.72,-255.75 867.41,-249.58"/>
</g>
<!-- Node19 -->
<g id="node19" class="node">
<title>Node19</title>
<g id="a_node19"><a xlink:href="alphabet_2gap_2all_8hpp.html" target="_top" xlink:title="Meta&#45;header for the gap submodule; includes all headers from alphabet/gap/.">
<polygon fill="white" stroke="black" points="822,-62 822,-81 956,-81 956,-62 822,-62"/>
<text text-anchor="middle" x="889" y="-69" font-family="Helvetica,sans-Serif" font-size="10.00">bio/alphabet/gap/all.hpp</text>
</a>
</g>
</g>
<!-- Node18&#45;&gt;Node19 -->
<g id="edge25" class="edge">
<title>Node18&#45;&gt;Node19</title>
<path fill="none" stroke="midnightblue" d="M953.05,-185.55C950.67,-168.39 945.58,-142.85 935,-123 925.96,-106.05 909.94,-90.33 899.4,-81.07"/>
<polygon fill="midnightblue" stroke="midnightblue" points="949.63,-186.4 954.29,-195.91 956.58,-185.57 949.63,-186.4"/>
</g>
<!-- Node19&#45;&gt;Node5 -->
<g id="edge26" class="edge">
<title>Node19&#45;&gt;Node5</title>
<path fill="none" stroke="midnightblue" d="M847.86,-59.32C805.32,-47.76 739.83,-29.97 701.32,-19.51"/>
<polygon fill="midnightblue" stroke="midnightblue" points="847.05,-62.73 857.62,-61.98 848.89,-55.98 847.05,-62.73"/>
</g>
<!-- Node22 -->
<g id="node22" class="node">
<title>Node22</title>
<g id="a_node22"><a xlink:href="meta_2concept_2all_8hpp.html" target="_top" xlink:title="Meta&#45;include for custom concepts.">
<polygon fill="white" stroke="black" points="1470.5,-330 1470.5,-349 1607.5,-349 1607.5,-330 1470.5,-330"/>
<text text-anchor="middle" x="1539" y="-337" font-family="Helvetica,sans-Serif" font-size="10.00">bio/meta/concept/all.hpp</text>
</a>
</g>
</g>
<!-- Node21&#45;&gt;Node22 -->
<g id="edge29" class="edge">
<title>Node21&#45;&gt;Node22</title>
<path fill="none" stroke="midnightblue" d="M1543.25,-386.54C1542.11,-374.17 1540.67,-358.62 1539.8,-349.13"/>
<polygon fill="midnightblue" stroke="midnightblue" points="1539.79,-387.1 1544.19,-396.73 1546.76,-386.45 1539.79,-387.1"/>
</g>
<!-- Node23 -->
<g id="node23" class="node">
<title>Node23</title>
<g id="a_node23"><a xlink:href="tuple__utility_8hpp.html" target="_top" xlink:title="Provides utility functions for tuple like interfaces.">
<polygon fill="white" stroke="black" points="1272.5,-330 1272.5,-349 1413.5,-349 1413.5,-330 1272.5,-330"/>
<text text-anchor="middle" x="1343" y="-337" font-family="Helvetica,sans-Serif" font-size="10.00">bio/meta/tuple_utility.hpp</text>
</a>
</g>
</g>
<!-- Node21&#45;&gt;Node23 -->
<g id="edge31" class="edge">
<title>Node21&#45;&gt;Node23</title>
<path fill="none" stroke="midnightblue" d="M1508.53,-393.77C1468.51,-380.89 1405.22,-360.52 1369.61,-349.06"/>
<polygon fill="midnightblue" stroke="midnightblue" points="1507.58,-397.14 1518.18,-396.87 1509.73,-390.47 1507.58,-397.14"/>
</g>
<!-- Node24 -->
<g id="node24" class="node">
<title>Node24</title>
<g id="a_node24"><a xlink:href="get_8hpp.html" target="_top" xlink:title="Provides bio::views::get.">
<polygon fill="white" stroke="black" points="1551.5,-263 1551.5,-282 1690.5,-282 1690.5,-263 1551.5,-263"/>
<text text-anchor="middle" x="1621" y="-270" font-family="Helvetica,sans-Serif" font-size="10.00">bio/ranges/views/get.hpp</text>
</a>
</g>
</g>
<!-- Node21&#45;&gt;Node24 -->
<g id="edge33" class="edge">
<title>Node21&#45;&gt;Node24</title>
<path fill="none" stroke="midnightblue" d="M1575.62,-392.17C1590.85,-383.82 1607.9,-371.5 1617,-355 1630.07,-331.31 1625.86,-297.6 1622.88,-282.01"/>
<polygon fill="midnightblue" stroke="midnightblue" points="1573.77,-389.18 1566.46,-396.85 1576.96,-395.41 1573.77,-389.18"/>
</g>
<!-- Node22&#45;&gt;Node20 -->
<g id="edge30" class="edge">
<title>Node22&#45;&gt;Node20</title>
<path fill="none" stroke="midnightblue" d="M1519.93,-323.57C1503.55,-310.74 1480.5,-292.69 1467.02,-282.13"/>
<polygon fill="midnightblue" stroke="midnightblue" points="1517.78,-326.32 1527.81,-329.73 1522.09,-320.81 1517.78,-326.32"/>
</g>
<!-- Node23&#45;&gt;Node20 -->
<g id="edge32" class="edge">
<title>Node23&#45;&gt;Node20</title>
<path fill="none" stroke="midnightblue" d="M1367.14,-324.62C1389.53,-311.74 1422.14,-292.98 1441,-282.13"/>
<polygon fill="midnightblue" stroke="midnightblue" points="1365.16,-321.71 1358.24,-329.73 1368.65,-327.78 1365.16,-321.71"/>
</g>
<!-- Node24&#45;&gt;Node12 -->
<g id="edge34" class="edge">
<title>Node24&#45;&gt;Node12</title>
<path fill="none" stroke="midnightblue" d="M1587.39,-259.54C1484.36,-222.86 1174.57,-112.57 1085.93,-81.02"/>
<polygon fill="midnightblue" stroke="midnightblue" points="1586.39,-262.89 1596.98,-262.95 1588.73,-256.3 1586.39,-262.89"/>
</g>
<!-- Node26&#45;&gt;Node2 -->
<g id="edge37" class="edge">
<title>Node26&#45;&gt;Node2</title>
<path fill="none" stroke="midnightblue" d="M615.39,-583.5C601.51,-557.83 582,-514.62 582,-474.5 582,-474.5 582,-474.5 582,-405.5 582,-358.8 550.14,-310.66 532.47,-287.55"/>
<polygon fill="midnightblue" stroke="midnightblue" points="612.45,-585.41 620.38,-592.44 618.56,-582 612.45,-585.41"/>
</g>
<!-- Node27&#45;&gt;Node2 -->
<g id="edge39" class="edge">
<title>Node27&#45;&gt;Node2</title>
<path fill="none" stroke="midnightblue" d="M1139.06,-536.89C1072.44,-532.49 965.09,-520.68 878,-489 805.71,-462.71 607.45,-331.58 542.16,-287.77"/>
<polygon fill="midnightblue" stroke="midnightblue" points="1139.19,-540.4 1149.39,-537.53 1139.63,-533.42 1139.19,-540.4"/>
</g>
<!-- Node27&#45;&gt;Node17 -->
<g id="edge40" class="edge">
<title>Node27&#45;&gt;Node17</title>
<path fill="none" stroke="midnightblue" d="M1139.17,-539.09C1056.39,-534.8 913.12,-513.61 843,-422 812.23,-381.8 823.3,-316.11 830.18,-287.52"/>
<polygon fill="midnightblue" stroke="midnightblue" points="1139.05,-542.59 1149.2,-539.55 1139.37,-535.6 1139.05,-542.59"/>
</g>
<!-- Node27&#45;&gt;Node23 -->
<g id="edge45" class="edge">
<title>Node27&#45;&gt;Node23</title>
<path fill="none" stroke="midnightblue" d="M1218.01,-516.91C1248.99,-473.18 1315.95,-378.68 1336.72,-349.36"/>
<polygon fill="midnightblue" stroke="midnightblue" points="1215.07,-515.01 1212.14,-525.19 1220.78,-519.05 1215.07,-515.01"/>
</g>
<!-- Node27&#45;&gt;Node25 -->
<g id="edge46" class="edge">
<title>Node27&#45;&gt;Node25</title>
<path fill="none" stroke="midnightblue" d="M1264.46,-524.9C1313.43,-513.45 1380.81,-497.69 1427.13,-486.86"/>
<polygon fill="midnightblue" stroke="midnightblue" points="1263.56,-521.51 1254.62,-527.2 1265.15,-528.33 1263.56,-521.51"/>
</g>
<!-- Node28 -->
<g id="node28" class="node">
<title>Node28</title>
<g id="a_node28"><a xlink:href="pod__tuple_8hpp.html" target="_top" xlink:title="Provides bio::pod_tuple.">
<polygon fill="white" stroke="black" points="1277,-464 1277,-483 1409,-483 1409,-464 1277,-464"/>
<text text-anchor="middle" x="1343" y="-471" font-family="Helvetica,sans-Serif" font-size="10.00">bio/meta/pod_tuple.hpp</text>
</a>
</g>
</g>
<!-- Node27&#45;&gt;Node28 -->
<g id="edge41" class="edge">
<title>Node27&#45;&gt;Node28</title>
<path fill="none" stroke="midnightblue" d="M1241.85,-521.13C1268.98,-508.62 1303.65,-492.64 1324.55,-483.01"/>
<polygon fill="midnightblue" stroke="midnightblue" points="1240.21,-518.03 1232.59,-525.4 1243.14,-524.39 1240.21,-518.03"/>
</g>
<!-- Node29 -->
<g id="node29" class="node">
<title>Node29</title>
<g id="a_node29"><a xlink:href="function_8hpp.html" target="_top" xlink:title="Provides various type traits for use on functions.">
<polygon fill="white" stroke="black" points="1051,-458.5 1051,-488.5 1167,-488.5 1167,-458.5 1051,-458.5"/>
<text text-anchor="start" x="1059" y="-476.5" font-family="Helvetica,sans-Serif" font-size="10.00">bio/meta/type_traits</text>
<text text-anchor="middle" x="1109" y="-465.5" font-family="Helvetica,sans-Serif" font-size="10.00">/function.hpp</text>
</a>
</g>
</g>
<!-- Node27&#45;&gt;Node29 -->
<g id="edge47" class="edge">
<title>Node27&#45;&gt;Node29</title>
<path fill="none" stroke="midnightblue" d="M1173.31,-519.45C1159.01,-509.45 1142.05,-497.6 1129.14,-488.58"/>
<polygon fill="midnightblue" stroke="midnightblue" points="1171.62,-522.54 1181.82,-525.4 1175.63,-516.8 1171.62,-522.54"/>
</g>
<!-- Node28&#45;&gt;Node20 -->
<g id="edge42" class="edge">
<title>Node28&#45;&gt;Node20</title>
<path fill="none" stroke="midnightblue" d="M1356.12,-455.72C1373.06,-433.55 1402.74,-392.87 1423,-355 1436.54,-329.7 1447.99,-297.6 1453.12,-282.34"/>
<polygon fill="midnightblue" stroke="midnightblue" points="1353.25,-453.72 1349.91,-463.77 1358.79,-458 1353.25,-453.72"/>
</g>
<!-- Node28&#45;&gt;Node21 -->
<g id="edge43" class="edge">
<title>Node28&#45;&gt;Node21</title>
<path fill="none" stroke="midnightblue" d="M1379.47,-460.77C1419.49,-447.89 1482.78,-427.52 1518.39,-416.06"/>
<polygon fill="midnightblue" stroke="midnightblue" points="1378.27,-457.47 1369.82,-463.87 1380.42,-464.14 1378.27,-457.47"/>
</g>
<!-- Node28&#45;&gt;Node23 -->
<g id="edge44" class="edge">
<title>Node28&#45;&gt;Node23</title>
<path fill="none" stroke="midnightblue" d="M1343,-453.78C1343,-424.75 1343,-370.04 1343,-349.02"/>
<polygon fill="midnightblue" stroke="midnightblue" points="1339.5,-453.84 1343,-463.84 1346.5,-453.84 1339.5,-453.84"/>
</g>
<!-- Node30 -->
<g id="node30" class="node">
<title>Node30</title>
<g id="a_node30"><a xlink:href="lazy_8hpp.html" target="_top" xlink:title="Provides lazy template instantiation traits.">
<polygon fill="white" stroke="black" points="852,-391.5 852,-421.5 968,-421.5 968,-391.5 852,-391.5"/>
<text text-anchor="start" x="860" y="-409.5" font-family="Helvetica,sans-Serif" font-size="10.00">bio/meta/type_traits</text>
<text text-anchor="middle" x="910" y="-398.5" font-family="Helvetica,sans-Serif" font-size="10.00">/lazy.hpp</text>
</a>
</g>
</g>
<!-- Node29&#45;&gt;Node30 -->
<g id="edge48" class="edge">
<title>Node29&#45;&gt;Node30</title>
<path fill="none" stroke="midnightblue" d="M1056.12,-455.23C1023.93,-444.71 983.33,-431.45 953.1,-421.58"/>
<polygon fill="midnightblue" stroke="midnightblue" points="1055.23,-458.62 1065.82,-458.4 1057.4,-451.96 1055.23,-458.62"/>
</g>
<!-- Node31 -->
<g id="node31" class="node">
<title>Node31</title>
<g id="a_node31"><a xlink:href="as__const_8hpp.html" target="_top" xlink:title="Provides bio::views::as_const.">
<polygon fill="white" stroke="black" points="1155.5,-391.5 1155.5,-421.5 1268.5,-421.5 1268.5,-391.5 1155.5,-391.5"/>
<text text-anchor="start" x="1163.5" y="-409.5" font-family="Helvetica,sans-Serif" font-size="10.00">bio/ranges/views/as</text>
<text text-anchor="middle" x="1212" y="-398.5" font-family="Helvetica,sans-Serif" font-size="10.00">_const.hpp</text>
</a>
</g>
</g>
<!-- Node29&#45;&gt;Node31 -->
<g id="edge51" class="edge">
<title>Node29&#45;&gt;Node31</title>
<path fill="none" stroke="midnightblue" d="M1139.88,-453.02C1155.9,-442.9 1175.13,-430.77 1189.69,-421.58"/>
<polygon fill="midnightblue" stroke="midnightblue" points="1137.94,-450.1 1131.35,-458.4 1141.67,-456.02 1137.94,-450.1"/>
</g>
<!-- Node35 -->
<g id="node35" class="node">
<title>Node35</title>
<g id="a_node35"><a xlink:href="move_8hpp.html" target="_top" xlink:title="Provides bio::views::move.">
<polygon fill="white" stroke="black" points="986.5,-397 986.5,-416 1137.5,-416 1137.5,-397 986.5,-397"/>
<text text-anchor="middle" x="1062" y="-404" font-family="Helvetica,sans-Serif" font-size="10.00">bio/ranges/views/move.hpp</text>
</a>
</g>
</g>
<!-- Node29&#45;&gt;Node35 -->
<g id="edge55" class="edge">
<title>Node29&#45;&gt;Node35</title>
<path fill="none" stroke="midnightblue" d="M1092.71,-449.97C1084.29,-438.33 1074.51,-424.8 1068.29,-416.19"/>
<polygon fill="midnightblue" stroke="midnightblue" points="1090.11,-452.34 1098.8,-458.4 1095.78,-448.24 1090.11,-452.34"/>
</g>
<!-- Node30&#45;&gt;Node16 -->
<g id="edge50" class="edge">
<title>Node30&#45;&gt;Node16</title>
<path fill="none" stroke="midnightblue" d="M863.76,-387.82C836.43,-377.37 802.31,-364.32 776.82,-354.58"/>
<polygon fill="midnightblue" stroke="midnightblue" points="862.52,-391.09 873.11,-391.4 865.02,-384.56 862.52,-391.09"/>
</g>
<!-- Node30&#45;&gt;Node17 -->
<g id="edge49" class="edge">
<title>Node30&#45;&gt;Node17</title>
<path fill="none" stroke="midnightblue" d="M896.74,-382.48C880.97,-355.07 855.12,-310.19 842.07,-287.52"/>
<polygon fill="midnightblue" stroke="midnightblue" points="893.84,-384.45 901.87,-391.37 899.91,-380.96 893.84,-384.45"/>
</g>
<!-- Node32 -->
<g id="node32" class="node">
<title>Node32</title>
<g id="a_node32"><a xlink:href="concatenated__sequences_8hpp.html" target="_top" xlink:title="Provides bio::concatenated_sequences.">
<polygon fill="white" stroke="black" points="1090,-324.5 1090,-354.5 1254,-354.5 1254,-324.5 1090,-324.5"/>
<text text-anchor="start" x="1098" y="-342.5" font-family="Helvetica,sans-Serif" font-size="10.00">bio/ranges/container</text>
<text text-anchor="middle" x="1172" y="-331.5" font-family="Helvetica,sans-Serif" font-size="10.00">/concatenated_sequences.hpp</text>
</a>
</g>
</g>
<!-- Node31&#45;&gt;Node32 -->
<g id="edge52" class="edge">
<title>Node31&#45;&gt;Node32</title>
<path fill="none" stroke="midnightblue" d="M1198.07,-382.87C1192.28,-373.46 1185.74,-362.83 1180.66,-354.58"/>
<polygon fill="midnightblue" stroke="midnightblue" points="1195.1,-384.71 1203.32,-391.4 1201.06,-381.05 1195.1,-384.71"/>
</g>
<!-- Node33 -->
<g id="node33" class="node">
<title>Node33</title>
<g id="a_node33"><a xlink:href="ranges_2container_2all_8hpp.html" target="_top" xlink:title="Meta&#45;header for the container submodule .">
<polygon fill="white" stroke="black" points="1114,-257.5 1114,-287.5 1230,-287.5 1230,-257.5 1114,-257.5"/>
<text text-anchor="start" x="1122" y="-275.5" font-family="Helvetica,sans-Serif" font-size="10.00">bio/ranges/container</text>
<text text-anchor="middle" x="1172" y="-264.5" font-family="Helvetica,sans-Serif" font-size="10.00">/all.hpp</text>
</a>
</g>
</g>
<!-- Node32&#45;&gt;Node33 -->
<g id="edge53" class="edge">
<title>Node32&#45;&gt;Node33</title>
<path fill="none" stroke="midnightblue" d="M1172,-314.11C1172,-305.15 1172,-295.32 1172,-287.58"/>
<polygon fill="midnightblue" stroke="midnightblue" points="1168.5,-314.4 1172,-324.4 1175.5,-314.4 1168.5,-314.4"/>
</g>
<!-- Node34 -->
<g id="node34" class="node">
<title>Node34</title>
<g id="a_node34"><a xlink:href="ranges_2all_8hpp.html" target="_top" xlink:title="Meta&#45;header for the range module .">
<polygon fill="white" stroke="black" points="1120,-196 1120,-215 1224,-215 1224,-196 1120,-196"/>
<text text-anchor="middle" x="1172" y="-203" font-family="Helvetica,sans-Serif" font-size="10.00">bio/ranges/all.hpp</text>
</a>
</g>
</g>
<!-- Node33&#45;&gt;Node34 -->
<g id="edge54" class="edge">
<title>Node33&#45;&gt;Node34</title>
<path fill="none" stroke="midnightblue" d="M1172,-247.25C1172,-236.02 1172,-223.38 1172,-215.19"/>
<polygon fill="midnightblue" stroke="midnightblue" points="1168.5,-247.4 1172,-257.4 1175.5,-247.4 1168.5,-247.4"/>
</g>
<!-- Node35&#45;&gt;Node12 -->
<g id="edge56" class="edge">
<title>Node35&#45;&gt;Node12</title>
<path fill="none" stroke="midnightblue" d="M1062,-386.72C1062,-361.12 1062,-313.84 1062,-273.5 1062,-273.5 1062,-273.5 1062,-204.5 1062,-157.98 1062,-102.24 1062,-81.15"/>
<polygon fill="midnightblue" stroke="midnightblue" points="1058.5,-386.85 1062,-396.85 1065.5,-386.85 1058.5,-386.85"/>
</g>
<!-- Node36&#45;&gt;Node27 -->
<g id="edge58" class="edge">
<title>Node36&#45;&gt;Node27</title>
<path fill="none" stroke="midnightblue" d="M1260.41,-586.17C1247.41,-576.23 1232.1,-564.51 1220.41,-555.58"/>
<polygon fill="midnightblue" stroke="midnightblue" points="1258.49,-589.1 1268.56,-592.4 1262.74,-583.54 1258.49,-589.1"/>
</g>
<!-- Node37 -->
<g id="node37" class="node">
<title>Node37</title>
<g id="a_node37"><a xlink:href="meta_2type__pack_2all_8hpp.html" target="_top" xlink:title="Meta&#45;header for the Utility / Type Pack submodule .">
<polygon fill="white" stroke="black" points="1272.5,-525.5 1272.5,-555.5 1385.5,-555.5 1385.5,-525.5 1272.5,-525.5"/>
<text text-anchor="start" x="1280.5" y="-543.5" font-family="Helvetica,sans-Serif" font-size="10.00">bio/meta/type_pack</text>
<text text-anchor="middle" x="1329" y="-532.5" font-family="Helvetica,sans-Serif" font-size="10.00">/all.hpp</text>
</a>
</g>
</g>
<!-- Node36&#45;&gt;Node37 -->
<g id="edge59" class="edge">
<title>Node36&#45;&gt;Node37</title>
<path fill="none" stroke="midnightblue" d="M1301.62,-583.87C1307.7,-574.46 1314.57,-563.83 1319.9,-555.58"/>
<polygon fill="midnightblue" stroke="midnightblue" points="1298.6,-582.1 1296.11,-592.4 1304.48,-585.9 1298.6,-582.1"/>
</g>
</g>
</svg>
