<?xml version="1.0" encoding="UTF-8" standalone="no"?>
<!DOCTYPE svg PUBLIC "-//W3C//DTD SVG 1.1//EN"
 "http://www.w3.org/Graphics/SVG/1.1/DTD/svg11.dtd">
<!-- Generated by graphviz version 2.43.0 (0)
 -->
<!-- Title: bio/meta/type_list/function.hpp Pages: 1 -->
<svg width="299pt" height="430pt"
 viewBox="0.00 0.00 299.00 430.00" xmlns="http://www.w3.org/2000/svg" xmlns:xlink="http://www.w3.org/1999/xlink">
<g id="graph0" class="graph" transform="scale(1 1) rotate(0) translate(4 426)">
<title>bio/meta/type_list/function.hpp</title>
<polygon fill="white" stroke="transparent" points="-4,4 -4,-426 295,-426 295,4 -4,4"/>
<!-- Node1 -->
<g id="node1" class="node">
<title>Node1</title>
<g id="a_node1"><a xlink:title="Provides algorithms for meta programming, parameter packs and bio::meta::type_list.">
<polygon fill="#bfbfbf" stroke="black" points="35.5,-391.5 35.5,-421.5 140.5,-421.5 140.5,-391.5 35.5,-391.5"/>
<text text-anchor="start" x="43.5" y="-409.5" font-family="Helvetica,sans-Serif" font-size="10.00">bio/meta/type_list</text>
<text text-anchor="middle" x="88" y="-398.5" font-family="Helvetica,sans-Serif" font-size="10.00">/function.hpp</text>
</a>
</g>
</g>
<!-- Node2 -->
<g id="node2" class="node">
<title>Node2</title>
<g id="a_node2"><a target="_blank" xlink:href="https://en.cppreference.com/w/cpp/header/concepts.html" xlink:title=" ">
<polygon fill="white" stroke="black" points="28,-190.5 28,-209.5 88,-209.5 88,-190.5 28,-190.5"/>
<text text-anchor="middle" x="58" y="-197.5" font-family="Helvetica,sans-Serif" font-size="10.00">concepts</text>
</a>
</g>
</g>
<!-- Node1&#45;&gt;Node2 -->
<g id="edge1" class="edge">
<title>Node1&#45;&gt;Node2</title>
<path fill="none" stroke="midnightblue" d="M80.6,-391.34C75.81,-381.45 69.94,-367.77 67,-355 56.02,-307.31 56.13,-249.23 57.09,-219.9"/>
<polygon fill="midnightblue" stroke="midnightblue" points="60.59,-219.96 57.5,-209.83 53.6,-219.68 60.59,-219.96"/>
</g>
<!-- Node3 -->
<g id="node3" class="node">
<title>Node3</title>
<g id="a_node3"><a target="_blank" xlink:href="https://en.cppreference.com/w/cpp/header/type_traits.html" xlink:title=" ">
<polygon fill="white" stroke="black" points="40.5,-56.5 40.5,-75.5 109.5,-75.5 109.5,-56.5 40.5,-56.5"/>
<text text-anchor="middle" x="75" y="-63.5" font-family="Helvetica,sans-Serif" font-size="10.00">type_traits</text>
</a>
</g>
</g>
<!-- Node1&#45;&gt;Node3 -->
<g id="edge2" class="edge">
<title>Node1&#45;&gt;Node3</title>
<path fill="none" stroke="midnightblue" d="M70.19,-391.35C44.48,-369.2 0,-323.63 0,-273.5 0,-273.5 0,-273.5 0,-199 0,-151.84 36.63,-106.13 58.69,-82.87"/>
<polygon fill="midnightblue" stroke="midnightblue" points="61.3,-85.21 65.8,-75.62 56.3,-80.31 61.3,-85.21"/>
</g>
<!-- Node4 -->
<g id="node4" class="node">
<title>Node4</title>
<g id="a_node4"><a target="_blank" xlink:href="https://en.cppreference.com/w/cpp/header/utility.html" xlink:title=" ">
<polygon fill="white" stroke="black" points="199.5,-330 199.5,-349 244.5,-349 244.5,-330 199.5,-330"/>
<text text-anchor="middle" x="222" y="-337" font-family="Helvetica,sans-Serif" font-size="10.00">utility</text>
</a>
</g>
</g>
<!-- Node1&#45;&gt;Node4 -->
<g id="edge3" class="edge">
<title>Node1&#45;&gt;Node4</title>
<path fill="none" stroke="midnightblue" d="M117.08,-391.4C140.38,-380.09 172.81,-364.36 195.43,-353.39"/>
<polygon fill="midnightblue" stroke="midnightblue" points="196.99,-356.52 204.46,-349.01 193.94,-350.22 196.99,-356.52"/>
</g>
<!-- Node5 -->
<g id="node5" class="node">
<title>Node5</title>
<g id="a_node5"><a xlink:href="type__list_8hpp.html" target="_top" xlink:title="Provides bio::meta::type_list.">
<polygon fill="white" stroke="black" points="76.5,-324.5 76.5,-354.5 181.5,-354.5 181.5,-324.5 76.5,-324.5"/>
<text text-anchor="start" x="84.5" y="-342.5" font-family="Helvetica,sans-Serif" font-size="10.00">bio/meta/type_list</text>
<text text-anchor="middle" x="129" y="-331.5" font-family="Helvetica,sans-Serif" font-size="10.00">/type_list.hpp</text>
</a>
</g>
</g>
<!-- Node1&#45;&gt;Node5 -->
<g id="edge4" class="edge">
<title>Node1&#45;&gt;Node5</title>
<path fill="none" stroke="midnightblue" d="M96.9,-391.4C102.11,-383.13 108.81,-372.51 114.74,-363.1"/>
<polygon fill="midnightblue" stroke="midnightblue" points="117.75,-364.9 120.12,-354.58 111.83,-361.17 117.75,-364.9"/>
</g>
<!-- Node6 -->
<g id="node6" class="node">
<title>Node6</title>
<g id="a_node6"><a xlink:href="template__inspection_8hpp.html" target="_top" xlink:title="Provides various traits to inspect templates.">
<polygon fill="white" stroke="black" points="76,-257.5 76,-287.5 216,-287.5 216,-257.5 76,-257.5"/>
<text text-anchor="start" x="84" y="-275.5" font-family="Helvetica,sans-Serif" font-size="10.00">bio/meta/type_traits</text>
<text text-anchor="middle" x="146" y="-264.5" font-family="Helvetica,sans-Serif" font-size="10.00">/template_inspection.hpp</text>
</a>
</g>
</g>
<!-- Node5&#45;&gt;Node6 -->
<g id="edge5" class="edge">
<title>Node5&#45;&gt;Node6</title>
<path fill="none" stroke="midnightblue" d="M132.69,-324.4C134.76,-316.47 137.4,-306.38 139.78,-297.27"/>
<polygon fill="midnightblue" stroke="midnightblue" points="143.17,-298.14 142.32,-287.58 136.4,-296.37 143.17,-298.14"/>
</g>
<!-- Node6&#45;&gt;Node2 -->
<g id="edge15" class="edge">
<title>Node6&#45;&gt;Node2</title>
<path fill="none" stroke="midnightblue" d="M128.19,-257.23C113.41,-245.39 92.44,-228.59 77.27,-216.44"/>
<polygon fill="midnightblue" stroke="midnightblue" points="79.09,-213.41 69.1,-209.89 74.72,-218.88 79.09,-213.41"/>
</g>
<!-- Node7 -->
<g id="node7" class="node">
<title>Node7</title>
<g id="a_node7"><a xlink:href="transformation__trait__or_8hpp.html" target="_top" xlink:title="Provides bio::meta::transformation_trait_or.">
<polygon fill="white" stroke="black" points="106,-179.5 106,-220.5 224,-220.5 224,-179.5 106,-179.5"/>
<text text-anchor="start" x="114" y="-208.5" font-family="Helvetica,sans-Serif" font-size="10.00">bio/meta/type_traits</text>
<text text-anchor="start" x="114" y="-197.5" font-family="Helvetica,sans-Serif" font-size="10.00">/transformation_trait</text>
<text text-anchor="middle" x="165" y="-186.5" font-family="Helvetica,sans-Serif" font-size="10.00">_or.hpp</text>
</a>
</g>
</g>
<!-- Node6&#45;&gt;Node7 -->
<g id="edge6" class="edge">
<title>Node6&#45;&gt;Node7</title>
<path fill="none" stroke="midnightblue" d="M149.84,-257.23C151.93,-249.49 154.59,-239.63 157.1,-230.33"/>
<polygon fill="midnightblue" stroke="midnightblue" points="160.5,-231.15 159.72,-220.59 153.74,-229.33 160.5,-231.15"/>
</g>
<!-- Node7&#45;&gt;Node3 -->
<g id="edge7" class="edge">
<title>Node7&#45;&gt;Node3</title>
<path fill="none" stroke="midnightblue" d="M134.48,-179.48C121.61,-169.87 107.45,-157.29 98,-143 86.39,-125.44 80.44,-101.77 77.54,-85.54"/>
<polygon fill="midnightblue" stroke="midnightblue" points="81,-85 75.98,-75.66 74.08,-86.09 81,-85"/>
</g>
<!-- Node8 -->
<g id="node8" class="node">
<title>Node8</title>
<g id="a_node8"><a xlink:href="meta_2type__traits_2concept_8hpp.html" target="_top" xlink:title="Provides the concepts bio::meta::transformation_trait and bio::meta::unary_type_trait.">
<polygon fill="white" stroke="black" points="107,-112.5 107,-142.5 223,-142.5 223,-112.5 107,-112.5"/>
<text text-anchor="start" x="115" y="-130.5" font-family="Helvetica,sans-Serif" font-size="10.00">bio/meta/type_traits</text>
<text text-anchor="middle" x="165" y="-119.5" font-family="Helvetica,sans-Serif" font-size="10.00">/concept.hpp</text>
</a>
</g>
</g>
<!-- Node7&#45;&gt;Node8 -->
<g id="edge8" class="edge">
<title>Node7&#45;&gt;Node8</title>
<path fill="none" stroke="midnightblue" d="M165,-179.36C165,-171.23 165,-161.7 165,-153.11"/>
<polygon fill="midnightblue" stroke="midnightblue" points="168.5,-152.89 165,-142.89 161.5,-152.89 168.5,-152.89"/>
</g>
<!-- Node8&#45;&gt;Node3 -->
<g id="edge9" class="edge">
<title>Node8&#45;&gt;Node3</title>
<path fill="none" stroke="midnightblue" d="M143.67,-112.4C129.51,-103.04 110.99,-90.79 96.75,-81.38"/>
<polygon fill="midnightblue" stroke="midnightblue" points="98.37,-78.25 88.1,-75.66 94.51,-84.09 98.37,-78.25"/>
</g>
<!-- Node9 -->
<g id="node9" class="node">
<title>Node9</title>
<g id="a_node9"><a xlink:href="core_8hpp.html" target="_top" xlink:title="Provides platform and dependency checks.">
<polygon fill="white" stroke="black" points="127.5,-56.5 127.5,-75.5 204.5,-75.5 204.5,-56.5 127.5,-56.5"/>
<text text-anchor="middle" x="166" y="-63.5" font-family="Helvetica,sans-Serif" font-size="10.00">bio/core.hpp</text>
</a>
</g>
</g>
<!-- Node8&#45;&gt;Node9 -->
<g id="edge10" class="edge">
<title>Node8&#45;&gt;Node9</title>
<path fill="none" stroke="midnightblue" d="M165.24,-112.4C165.37,-104.47 165.54,-94.46 165.68,-85.86"/>
<polygon fill="midnightblue" stroke="midnightblue" points="169.19,-85.72 165.85,-75.66 162.19,-85.6 169.19,-85.72"/>
</g>
<!-- Node10 -->
<g id="node10" class="node">
<title>Node10</title>
<g id="a_node10"><a target="_blank" xlink:href="https://en.cppreference.com/w/cpp/header/cinttypes.html" xlink:title=" ">
<polygon fill="white" stroke="black" points="23,-0.5 23,-19.5 85,-19.5 85,-0.5 23,-0.5"/>
<text text-anchor="middle" x="54" y="-7.5" font-family="Helvetica,sans-Serif" font-size="10.00">cinttypes</text>
</a>
</g>
</g>
<!-- Node9&#45;&gt;Node10 -->
<g id="edge11" class="edge">
<title>Node9&#45;&gt;Node10</title>
<path fill="none" stroke="midnightblue" d="M148.01,-56.32C129.96,-47.62 101.95,-34.12 81.2,-24.11"/>
<polygon fill="midnightblue" stroke="midnightblue" points="82.48,-20.84 71.95,-19.65 79.44,-27.15 82.48,-20.84"/>
</g>
<!-- Node11 -->
<g id="node11" class="node">
<title>Node11</title>
<g id="a_node11"><a target="_blank" xlink:href="https://en.cppreference.com/w/cpp/header/ciso646.html" xlink:title=" ">
<polygon fill="white" stroke="black" points="103,-0.5 103,-19.5 157,-19.5 157,-0.5 103,-0.5"/>
<text text-anchor="middle" x="130" y="-7.5" font-family="Helvetica,sans-Serif" font-size="10.00">ciso646</text>
</a>
</g>
</g>
<!-- Node9&#45;&gt;Node11 -->
<g id="edge12" class="edge">
<title>Node9&#45;&gt;Node11</title>
<path fill="none" stroke="midnightblue" d="M160.06,-56.08C155.02,-48.53 147.66,-37.49 141.49,-28.23"/>
<polygon fill="midnightblue" stroke="midnightblue" points="144.29,-26.13 135.83,-19.75 138.47,-30.01 144.29,-26.13"/>
</g>
<!-- Node12 -->
<g id="node12" class="node">
<title>Node12</title>
<g id="a_node12"><a target="_blank" xlink:href="https://en.cppreference.com/w/cpp/header/cstddef.html" xlink:title=" ">
<polygon fill="white" stroke="black" points="175.5,-0.5 175.5,-19.5 228.5,-19.5 228.5,-0.5 175.5,-0.5"/>
<text text-anchor="middle" x="202" y="-7.5" font-family="Helvetica,sans-Serif" font-size="10.00">cstddef</text>
</a>
</g>
</g>
<!-- Node9&#45;&gt;Node12 -->
<g id="edge13" class="edge">
<title>Node9&#45;&gt;Node12</title>
<path fill="none" stroke="midnightblue" d="M171.94,-56.08C176.98,-48.53 184.34,-37.49 190.51,-28.23"/>
<polygon fill="midnightblue" stroke="midnightblue" points="193.53,-30.01 196.17,-19.75 187.71,-26.13 193.53,-30.01"/>
</g>
<!-- Node13 -->
<g id="node13" class="node">
<title>Node13</title>
<g id="a_node13"><a target="_blank" xlink:href="https://en.cppreference.com/w/cpp/header/string.html" xlink:title=" ">
<polygon fill="white" stroke="black" points="247,-0.5 247,-19.5 291,-19.5 291,-0.5 247,-0.5"/>
<text text-anchor="middle" x="269" y="-7.5" font-family="Helvetica,sans-Serif" font-size="10.00">string</text>
</a>
</g>
</g>
<!-- Node9&#45;&gt;Node13 -->
<g id="edge14" class="edge">
<title>Node9&#45;&gt;Node13</title>
<path fill="none" stroke="midnightblue" d="M182.55,-56.32C198.99,-47.7 224.43,-34.36 243.47,-24.39"/>
<polygon fill="midnightblue" stroke="midnightblue" points="245.26,-27.4 252.49,-19.65 242.01,-21.2 245.26,-27.4"/>
</g>
</g>
</svg>
