<?xml version="1.0" encoding="UTF-8" standalone="no"?>
<!DOCTYPE svg PUBLIC "-//W3C//DTD SVG 1.1//EN"
 "http://www.w3.org/Graphics/SVG/1.1/DTD/svg11.dtd">
<!-- Generated by graphviz version 2.42.2 ()
 -->
<!-- Title: bio/ranges/type_traits.hpp Pages: 1 -->
<svg width="1851pt" height="687pt"
 viewBox="0.00 0.00 1851.50 687.00" xmlns="http://www.w3.org/2000/svg" xmlns:xlink="http://www.w3.org/1999/xlink">
<g id="graph0" class="graph" transform="scale(1 1) rotate(0) translate(4 683)">
<title>bio/ranges/type_traits.hpp</title>
<polygon fill="white" stroke="transparent" points="-4,4 -4,-683 1847.5,-683 1847.5,4 -4,4"/>
<!-- Node1 -->
<g id="node1" class="node">
<title>Node1</title>
<g id="a_node1"><a xlink:title="Provides various transformation traits used by the range module.">
<polygon fill="#bfbfbf" stroke="black" points="423.5,-659.5 423.5,-678.5 552.5,-678.5 552.5,-659.5 423.5,-659.5"/>
<text text-anchor="middle" x="488" y="-666.5" font-family="Helvetica,sans-Serif" font-size="10.00">bio/ranges/type_traits.hpp</text>
</a>
</g>
</g>
<!-- Node2 -->
<g id="node2" class="node">
<title>Node2</title>
<g id="a_node2"><a xlink:href="translation_8hpp.html" target="_top" xlink:title="Provides functions for translating a triplet of nucleotides into an amino acid.">
<polygon fill="white" stroke="black" points="92,-592.5 92,-622.5 208,-622.5 208,-592.5 92,-592.5"/>
<text text-anchor="start" x="100" y="-610.5" font-family="Helvetica,sans-Serif" font-size="10.00">bio/alphabet/aminoacid</text>
<text text-anchor="middle" x="150" y="-599.5" font-family="Helvetica,sans-Serif" font-size="10.00">/translation.hpp</text>
</a>
</g>
</g>
<!-- Node1&#45;&gt;Node2 -->
<g id="edge1" class="edge">
<title>Node1&#45;&gt;Node2</title>
<path fill="none" stroke="midnightblue" d="M424.57,-657.84C370.61,-649.06 291.12,-635.8 222,-623 217.49,-622.16 212.82,-621.28 208.13,-620.37"/>
<polygon fill="midnightblue" stroke="midnightblue" points="424.24,-661.33 434.67,-659.48 425.36,-654.42 424.24,-661.33"/>
</g>
<!-- Node5 -->
<g id="node5" class="node">
<title>Node5</title>
<g id="a_node5"><a xlink:href="translate_8hpp.html" target="_top" xlink:title="Provides bio::views::translate and bio::views::translate_single.">
<polygon fill="white" stroke="black" points="215.5,-196 215.5,-215 364.5,-215 364.5,-196 215.5,-196"/>
<text text-anchor="middle" x="290" y="-203" font-family="Helvetica,sans-Serif" font-size="10.00">bio/ranges/views/translate.hpp</text>
</a>
</g>
</g>
<!-- Node1&#45;&gt;Node5 -->
<g id="edge69" class="edge">
<title>Node1&#45;&gt;Node5</title>
<path fill="none" stroke="midnightblue" d="M413.15,-661.75C338.86,-650.96 236,-621.57 236,-541.5 236,-541.5 236,-541.5 236,-338.5 236,-288.73 269.29,-235.74 283.59,-215.27"/>
<polygon fill="midnightblue" stroke="midnightblue" points="413.05,-665.27 423.43,-663.15 414,-658.33 413.05,-665.27"/>
</g>
<!-- Node7 -->
<g id="node7" class="node">
<title>Node7</title>
<g id="a_node7"><a xlink:href="translate__join_8hpp.html" target="_top" xlink:title="Provides bio::views::translate_join.">
<polygon fill="white" stroke="black" points="122.5,-123.5 122.5,-153.5 253.5,-153.5 253.5,-123.5 122.5,-123.5"/>
<text text-anchor="start" x="130.5" y="-141.5" font-family="Helvetica,sans-Serif" font-size="10.00">bio/ranges/views/translate</text>
<text text-anchor="middle" x="188" y="-130.5" font-family="Helvetica,sans-Serif" font-size="10.00">_join.hpp</text>
</a>
</g>
</g>
<!-- Node1&#45;&gt;Node7 -->
<g id="edge70" class="edge">
<title>Node1&#45;&gt;Node7</title>
<path fill="none" stroke="midnightblue" d="M413.36,-665.51C312.77,-661.17 139.76,-649.96 83,-623 36.3,-600.82 0,-593.2 0,-541.5 0,-541.5 0,-541.5 0,-271.5 0,-206.69 75.75,-170.97 131.08,-153.53"/>
<polygon fill="midnightblue" stroke="midnightblue" points="413.32,-669.01 423.46,-665.93 413.62,-662.02 413.32,-669.01"/>
</g>
<!-- Node8 -->
<g id="node8" class="node">
<title>Node8</title>
<g id="a_node8"><a xlink:href="inherited__iterator__base_8hpp.html" target="_top" xlink:title="Provides the bio::ranges::detail::inherited_iterator_base template.">
<polygon fill="white" stroke="black" points="424,-592.5 424,-622.5 552,-622.5 552,-592.5 424,-592.5"/>
<text text-anchor="start" x="432" y="-610.5" font-family="Helvetica,sans-Serif" font-size="10.00">bio/ranges/detail/inherited</text>
<text text-anchor="middle" x="488" y="-599.5" font-family="Helvetica,sans-Serif" font-size="10.00">_iterator_base.hpp</text>
</a>
</g>
</g>
<!-- Node1&#45;&gt;Node8 -->
<g id="edge7" class="edge">
<title>Node1&#45;&gt;Node8</title>
<path fill="none" stroke="midnightblue" d="M488,-649.23C488,-640.59 488,-630.5 488,-622.52"/>
<polygon fill="midnightblue" stroke="midnightblue" points="484.5,-649.48 488,-659.48 491.5,-649.48 484.5,-649.48"/>
</g>
<!-- Node9 -->
<g id="node9" class="node">
<title>Node9</title>
<g id="a_node9"><a xlink:href="take_8hpp.html" target="_top" xlink:title="Provides bio::views::take.">
<polygon fill="white" stroke="black" points="514.5,-531 514.5,-550 645.5,-550 645.5,-531 514.5,-531"/>
<text text-anchor="middle" x="580" y="-538" font-family="Helvetica,sans-Serif" font-size="10.00">bio/ranges/views/take.hpp</text>
</a>
</g>
</g>
<!-- Node1&#45;&gt;Node9 -->
<g id="edge68" class="edge">
<title>Node1&#45;&gt;Node9</title>
<path fill="none" stroke="midnightblue" d="M520.39,-655.01C534.85,-647.66 550.87,-637.08 561,-623 577.21,-600.47 579.81,-566.19 580.08,-550.24"/>
<polygon fill="midnightblue" stroke="midnightblue" points="518.72,-651.93 511.19,-659.39 521.72,-658.25 518.72,-651.93"/>
</g>
<!-- Node20 -->
<g id="node20" class="node">
<title>Node20</title>
<g id="a_node20"><a xlink:href="ranges_2hash_8hpp.html" target="_top" xlink:title="Provides overloads for std::hash.">
<polygon fill="white" stroke="black" points="1057,-598 1057,-617 1161,-617 1161,-598 1057,-598"/>
<text text-anchor="middle" x="1109" y="-605" font-family="Helvetica,sans-Serif" font-size="10.00">bio/ranges/hash.hpp</text>
</a>
</g>
</g>
<!-- Node1&#45;&gt;Node20 -->
<g id="edge23" class="edge">
<title>Node1&#45;&gt;Node20</title>
<path fill="none" stroke="midnightblue" d="M562.89,-665.15C669.86,-660.34 872.35,-648.54 1043,-623 1053.21,-621.47 1064.2,-619.28 1074.23,-617.06"/>
<polygon fill="midnightblue" stroke="midnightblue" points="562.68,-661.65 552.84,-665.59 562.99,-668.65 562.68,-661.65"/>
</g>
<!-- Node21 -->
<g id="node21" class="node">
<title>Node21</title>
<g id="a_node21"><a xlink:href="ranges_2views_2detail_8hpp_source.html" target="_top" xlink:title=" ">
<polygon fill="white" stroke="black" points="865.5,-598 865.5,-617 1000.5,-617 1000.5,-598 865.5,-598"/>
<text text-anchor="middle" x="933" y="-605" font-family="Helvetica,sans-Serif" font-size="10.00">bio/ranges/views/detail.hpp</text>
</a>
</g>
</g>
<!-- Node1&#45;&gt;Node21 -->
<g id="edge24" class="edge">
<title>Node1&#45;&gt;Node21</title>
<path fill="none" stroke="midnightblue" d="M561.69,-658.15C647.57,-646.66 788.05,-627.88 869.36,-617.01"/>
<polygon fill="midnightblue" stroke="midnightblue" points="561.21,-654.68 551.76,-659.48 562.13,-661.62 561.21,-654.68"/>
</g>
<!-- Node33 -->
<g id="node33" class="node">
<title>Node33</title>
<g id="a_node33"><a xlink:href="persist_8hpp.html" target="_top" xlink:title="Provides bio::views::persist.">
<polygon fill="white" stroke="black" points="1702.5,-531 1702.5,-550 1843.5,-550 1843.5,-531 1702.5,-531"/>
<text text-anchor="middle" x="1773" y="-538" font-family="Helvetica,sans-Serif" font-size="10.00">bio/ranges/views/persist.hpp</text>
</a>
</g>
</g>
<!-- Node1&#45;&gt;Node33 -->
<g id="edge65" class="edge">
<title>Node1&#45;&gt;Node33</title>
<path fill="none" stroke="midnightblue" d="M562.7,-666.95C687.11,-664.31 930.88,-655.08 1010,-623 1030.2,-614.81 1027.68,-599.89 1048,-592 1180.79,-540.46 1546.45,-572 1688,-556 1701.24,-554.5 1715.55,-552.29 1728.58,-550.05"/>
<polygon fill="midnightblue" stroke="midnightblue" points="562.43,-663.45 552.5,-667.16 562.57,-670.45 562.43,-663.45"/>
</g>
<!-- Node39 -->
<g id="node39" class="node">
<title>Node39</title>
<g id="a_node39"><a xlink:href="repeat_8hpp.html" target="_top" xlink:title="Provides the views::repeat_view.">
<polygon fill="white" stroke="black" points="264.5,-464 264.5,-483 403.5,-483 403.5,-464 264.5,-464"/>
<text text-anchor="middle" x="334" y="-471" font-family="Helvetica,sans-Serif" font-size="10.00">bio/ranges/views/repeat.hpp</text>
</a>
</g>
</g>
<!-- Node1&#45;&gt;Node39 -->
<g id="edge66" class="edge">
<title>Node1&#45;&gt;Node39</title>
<path fill="none" stroke="midnightblue" d="M459.29,-654.8C444.73,-647.06 427.52,-636.2 415,-623 372.77,-578.46 345.5,-507.67 336.92,-483.17"/>
<polygon fill="midnightblue" stroke="midnightblue" points="457.9,-658.02 468.4,-659.42 461.07,-651.77 457.9,-658.02"/>
</g>
<!-- Node3 -->
<g id="node3" class="node">
<title>Node3</title>
<g id="a_node3"><a xlink:href="alphabet_2aminoacid_2all_8hpp.html" target="_top" xlink:title="Meta&#45;header for the aminoacid submodule; includes all headers from alphabet/aminoacid/.">
<polygon fill="white" stroke="black" points="54,-525.5 54,-555.5 170,-555.5 170,-525.5 54,-525.5"/>
<text text-anchor="start" x="62" y="-543.5" font-family="Helvetica,sans-Serif" font-size="10.00">bio/alphabet/aminoacid</text>
<text text-anchor="middle" x="112" y="-532.5" font-family="Helvetica,sans-Serif" font-size="10.00">/all.hpp</text>
</a>
</g>
</g>
<!-- Node2&#45;&gt;Node3 -->
<g id="edge2" class="edge">
<title>Node2&#45;&gt;Node3</title>
<path fill="none" stroke="midnightblue" d="M136.6,-583.58C131.14,-574.24 125.01,-563.75 120.23,-555.58"/>
<polygon fill="midnightblue" stroke="midnightblue" points="133.69,-585.53 141.75,-592.4 139.73,-582 133.69,-585.53"/>
</g>
<!-- Node2&#45;&gt;Node5 -->
<g id="edge4" class="edge">
<title>Node2&#45;&gt;Node5</title>
<path fill="none" stroke="midnightblue" d="M164.85,-583.91C169.92,-575.43 175.25,-565.53 179,-556 192.63,-521.39 198,-511.69 198,-474.5 198,-474.5 198,-474.5 198,-338.5 198,-300.74 200.39,-287.97 222,-257 235.04,-238.31 257.22,-223.74 272.69,-215.15"/>
<polygon fill="midnightblue" stroke="midnightblue" points="161.84,-582.13 159.55,-592.48 167.79,-585.82 161.84,-582.13"/>
</g>
<!-- Node4 -->
<g id="node4" class="node">
<title>Node4</title>
<g id="a_node4"><a xlink:href="alphabet_2all_8hpp.html" target="_top" xlink:title="Meta&#45;header for the alphabet module.">
<polygon fill="white" stroke="black" points="61.5,-464 61.5,-483 162.5,-483 162.5,-464 61.5,-464"/>
<text text-anchor="middle" x="112" y="-471" font-family="Helvetica,sans-Serif" font-size="10.00">bio/alphabet/all.hpp</text>
</a>
</g>
</g>
<!-- Node3&#45;&gt;Node4 -->
<g id="edge3" class="edge">
<title>Node3&#45;&gt;Node4</title>
<path fill="none" stroke="midnightblue" d="M112,-515.25C112,-504.02 112,-491.38 112,-483.19"/>
<polygon fill="midnightblue" stroke="midnightblue" points="108.5,-515.4 112,-525.4 115.5,-515.4 108.5,-515.4"/>
</g>
<!-- Node6 -->
<g id="node6" class="node">
<title>Node6</title>
<g id="a_node6"><a xlink:href="ranges_2views_2all_8hpp.html" target="_top" xlink:title="Meta&#45;header for the views submodule .">
<polygon fill="white" stroke="black" points="1175,-129 1175,-148 1297,-148 1297,-129 1175,-129"/>
<text text-anchor="middle" x="1236" y="-136" font-family="Helvetica,sans-Serif" font-size="10.00">bio/ranges/views/all.hpp</text>
</a>
</g>
</g>
<!-- Node5&#45;&gt;Node6 -->
<g id="edge5" class="edge">
<title>Node5&#45;&gt;Node6</title>
<path fill="none" stroke="midnightblue" d="M374.73,-198.68C562.71,-185.76 1010.94,-154.96 1174.73,-143.71"/>
<polygon fill="midnightblue" stroke="midnightblue" points="374.36,-195.2 364.63,-199.37 374.84,-202.18 374.36,-195.2"/>
</g>
<!-- Node5&#45;&gt;Node7 -->
<g id="edge6" class="edge">
<title>Node5&#45;&gt;Node7</title>
<path fill="none" stroke="midnightblue" d="M267.49,-190.15C250.42,-179.27 227.08,-164.4 210.11,-153.59"/>
<polygon fill="midnightblue" stroke="midnightblue" points="265.93,-193.31 276.24,-195.73 269.69,-187.41 265.93,-193.31"/>
</g>
<!-- Node8&#45;&gt;Node9 -->
<g id="edge8" class="edge">
<title>Node8&#45;&gt;Node9</title>
<path fill="none" stroke="midnightblue" d="M516.58,-586.31C533.86,-574.1 554.98,-559.18 567.96,-550.01"/>
<polygon fill="midnightblue" stroke="midnightblue" points="514.11,-583.77 507.96,-592.4 518.15,-589.48 514.11,-583.77"/>
</g>
<!-- Node10 -->
<g id="node10" class="node">
<title>Node10</title>
<g id="a_node10"><a xlink:href="take__exactly_8hpp.html" target="_top" xlink:title="Provides bio::views::take_exactly and bio::views::take_exactly_or_throw.">
<polygon fill="white" stroke="black" points="572,-458.5 572,-488.5 684,-488.5 684,-458.5 572,-458.5"/>
<text text-anchor="start" x="580" y="-476.5" font-family="Helvetica,sans-Serif" font-size="10.00">bio/ranges/views/take</text>
<text text-anchor="middle" x="628" y="-465.5" font-family="Helvetica,sans-Serif" font-size="10.00">_exactly.hpp</text>
</a>
</g>
</g>
<!-- Node9&#45;&gt;Node10 -->
<g id="edge9" class="edge">
<title>Node9&#45;&gt;Node10</title>
<path fill="none" stroke="midnightblue" d="M592.43,-522.67C600.24,-512.09 610.2,-498.6 617.6,-488.59"/>
<polygon fill="midnightblue" stroke="midnightblue" points="589.6,-520.61 586.47,-530.73 595.23,-524.77 589.6,-520.61"/>
</g>
<!-- Node10&#45;&gt;Node6 -->
<g id="edge10" class="edge">
<title>Node10&#45;&gt;Node6</title>
<path fill="none" stroke="midnightblue" d="M635.28,-448.57C654.04,-391.57 710.05,-248.19 814,-190 874.44,-156.17 1073.21,-144.8 1174.9,-141.14"/>
<polygon fill="midnightblue" stroke="midnightblue" points="631.92,-447.58 632.2,-458.17 638.59,-449.71 631.92,-447.58"/>
</g>
<!-- Node11 -->
<g id="node11" class="node">
<title>Node11</title>
<g id="a_node11"><a xlink:href="repeat__n_8hpp.html" target="_top" xlink:title="Provides bio::views::repeat_n.">
<polygon fill="white" stroke="black" points="463,-391.5 463,-421.5 583,-421.5 583,-391.5 463,-391.5"/>
<text text-anchor="start" x="471" y="-409.5" font-family="Helvetica,sans-Serif" font-size="10.00">bio/ranges/views/repeat</text>
<text text-anchor="middle" x="523" y="-398.5" font-family="Helvetica,sans-Serif" font-size="10.00">_n.hpp</text>
</a>
</g>
</g>
<!-- Node10&#45;&gt;Node11 -->
<g id="edge11" class="edge">
<title>Node10&#45;&gt;Node11</title>
<path fill="none" stroke="midnightblue" d="M596.52,-453.02C580.18,-442.9 560.59,-430.77 545.74,-421.58"/>
<polygon fill="midnightblue" stroke="midnightblue" points="594.87,-456.11 605.22,-458.4 598.56,-450.16 594.87,-456.11"/>
</g>
<!-- Node12 -->
<g id="node12" class="node">
<title>Node12</title>
<g id="a_node12"><a xlink:href="bitcompressed__vector_8hpp.html" target="_top" xlink:title="Provides bio::ranges::bitcompressed_vector.">
<polygon fill="white" stroke="black" points="468,-123.5 468,-153.5 602,-153.5 602,-123.5 468,-123.5"/>
<text text-anchor="start" x="476" y="-141.5" font-family="Helvetica,sans-Serif" font-size="10.00">bio/ranges/container</text>
<text text-anchor="middle" x="535" y="-130.5" font-family="Helvetica,sans-Serif" font-size="10.00">/bitcompressed_vector.hpp</text>
</a>
</g>
</g>
<!-- Node11&#45;&gt;Node12 -->
<g id="edge12" class="edge">
<title>Node11&#45;&gt;Node12</title>
<path fill="none" stroke="midnightblue" d="M534.91,-382.26C538.59,-373.9 542.16,-364.24 544,-355 558.56,-282.06 502.69,-263.18 516,-190 518.31,-177.28 523.65,-163.6 528.09,-153.69"/>
<polygon fill="midnightblue" stroke="midnightblue" points="531.71,-380.85 530.64,-391.39 538.05,-383.82 531.71,-380.85"/>
</g>
<!-- Node15 -->
<g id="node15" class="node">
<title>Node15</title>
<g id="a_node15"><a xlink:href="concatenated__sequences_8hpp.html" target="_top" xlink:title="Provides bio::ranges::concatenated_sequences.">
<polygon fill="white" stroke="black" points="263.5,-324.5 263.5,-354.5 412.5,-354.5 412.5,-324.5 263.5,-324.5"/>
<text text-anchor="start" x="271.5" y="-342.5" font-family="Helvetica,sans-Serif" font-size="10.00">bio/ranges/container</text>
<text text-anchor="middle" x="338" y="-331.5" font-family="Helvetica,sans-Serif" font-size="10.00">/concatenated_sequences.hpp</text>
</a>
</g>
</g>
<!-- Node11&#45;&gt;Node15 -->
<g id="edge15" class="edge">
<title>Node11&#45;&gt;Node15</title>
<path fill="none" stroke="midnightblue" d="M473.06,-387.96C443.26,-377.48 405.93,-364.37 378.06,-354.58"/>
<polygon fill="midnightblue" stroke="midnightblue" points="472.26,-391.38 482.86,-391.4 474.58,-384.78 472.26,-391.38"/>
</g>
<!-- Node16 -->
<g id="node16" class="node">
<title>Node16</title>
<g id="a_node16"><a xlink:href="dynamic__bitset_8hpp.html" target="_top" xlink:title="A constexpr bitset implementation with dynamic size at compile time.">
<polygon fill="white" stroke="black" points="717,-324.5 717,-354.5 821,-354.5 821,-324.5 717,-324.5"/>
<text text-anchor="start" x="725" y="-342.5" font-family="Helvetica,sans-Serif" font-size="10.00">bio/ranges/container</text>
<text text-anchor="middle" x="769" y="-331.5" font-family="Helvetica,sans-Serif" font-size="10.00">/dynamic_bitset.hpp</text>
</a>
</g>
</g>
<!-- Node11&#45;&gt;Node16 -->
<g id="edge17" class="edge">
<title>Node11&#45;&gt;Node16</title>
<path fill="none" stroke="midnightblue" d="M585.86,-388.89C626.44,-378.17 678.6,-364.39 716.86,-354.28"/>
<polygon fill="midnightblue" stroke="midnightblue" points="584.85,-385.54 576.08,-391.48 586.64,-392.31 584.85,-385.54"/>
</g>
<!-- Node17 -->
<g id="node17" class="node">
<title>Node17</title>
<g id="a_node17"><a xlink:href="small__vector_8hpp.html" target="_top" xlink:title="A constexpr vector implementation with dynamic size at compile time.">
<polygon fill="white" stroke="black" points="431,-324.5 431,-354.5 535,-354.5 535,-324.5 431,-324.5"/>
<text text-anchor="start" x="439" y="-342.5" font-family="Helvetica,sans-Serif" font-size="10.00">bio/ranges/container</text>
<text text-anchor="middle" x="483" y="-331.5" font-family="Helvetica,sans-Serif" font-size="10.00">/small_vector.hpp</text>
</a>
</g>
</g>
<!-- Node11&#45;&gt;Node17 -->
<g id="edge18" class="edge">
<title>Node11&#45;&gt;Node17</title>
<path fill="none" stroke="midnightblue" d="M509.07,-382.87C503.28,-373.46 496.74,-362.83 491.66,-354.58"/>
<polygon fill="midnightblue" stroke="midnightblue" points="506.1,-384.71 514.32,-391.4 512.06,-381.05 506.1,-384.71"/>
</g>
<!-- Node13 -->
<g id="node13" class="node">
<title>Node13</title>
<g id="a_node13"><a xlink:href="ranges_2container_2all_8hpp.html" target="_top" xlink:title="Meta&#45;header for the container submodule .">
<polygon fill="white" stroke="black" points="215,-56.5 215,-86.5 319,-86.5 319,-56.5 215,-56.5"/>
<text text-anchor="start" x="223" y="-74.5" font-family="Helvetica,sans-Serif" font-size="10.00">bio/ranges/container</text>
<text text-anchor="middle" x="267" y="-63.5" font-family="Helvetica,sans-Serif" font-size="10.00">/all.hpp</text>
</a>
</g>
</g>
<!-- Node12&#45;&gt;Node13 -->
<g id="edge13" class="edge">
<title>Node12&#45;&gt;Node13</title>
<path fill="none" stroke="midnightblue" d="M467.3,-121.08C421.37,-109.94 361.54,-95.43 319.27,-85.18"/>
<polygon fill="midnightblue" stroke="midnightblue" points="466.63,-124.52 477.18,-123.48 468.28,-117.72 466.63,-124.52"/>
</g>
<!-- Node14 -->
<g id="node14" class="node">
<title>Node14</title>
<g id="a_node14"><a xlink:href="ranges_2all_8hpp.html" target="_top" xlink:title="Meta&#45;header for the ranges module .">
<polygon fill="white" stroke="black" points="220.5,-0.5 220.5,-19.5 313.5,-19.5 313.5,-0.5 220.5,-0.5"/>
<text text-anchor="middle" x="267" y="-7.5" font-family="Helvetica,sans-Serif" font-size="10.00">bio/ranges/all.hpp</text>
</a>
</g>
</g>
<!-- Node13&#45;&gt;Node14 -->
<g id="edge14" class="edge">
<title>Node13&#45;&gt;Node14</title>
<path fill="none" stroke="midnightblue" d="M267,-46.29C267,-36.86 267,-26.65 267,-19.66"/>
<polygon fill="midnightblue" stroke="midnightblue" points="263.5,-46.4 267,-56.4 270.5,-46.4 263.5,-46.4"/>
</g>
<!-- Node15&#45;&gt;Node13 -->
<g id="edge16" class="edge">
<title>Node15&#45;&gt;Node13</title>
<path fill="none" stroke="midnightblue" d="M253.09,-334.9C179.71,-329.8 81.68,-317.51 57,-288 7.32,-228.59 48.9,-166.45 113,-123 143.63,-102.24 183.42,-89.48 214.89,-81.98"/>
<polygon fill="midnightblue" stroke="midnightblue" points="253.06,-338.41 263.27,-335.57 253.52,-331.42 253.06,-338.41"/>
</g>
<!-- Node18 -->
<g id="node18" class="node">
<title>Node18</title>
<g id="a_node18"><a xlink:href="small__string_8hpp.html" target="_top" xlink:title="A constexpr string implementation to manipulate string literals at compile time.">
<polygon fill="white" stroke="black" points="66,-257.5 66,-287.5 170,-287.5 170,-257.5 66,-257.5"/>
<text text-anchor="start" x="74" y="-275.5" font-family="Helvetica,sans-Serif" font-size="10.00">bio/ranges/container</text>
<text text-anchor="middle" x="118" y="-264.5" font-family="Helvetica,sans-Serif" font-size="10.00">/small_string.hpp</text>
</a>
</g>
</g>
<!-- Node17&#45;&gt;Node18 -->
<g id="edge19" class="edge">
<title>Node17&#45;&gt;Node18</title>
<path fill="none" stroke="midnightblue" d="M420.86,-323.85C327.02,-305.16 228.74,-289.77 170.11,-281.04"/>
<polygon fill="midnightblue" stroke="midnightblue" points="420.32,-327.31 430.81,-325.84 421.69,-320.44 420.32,-327.31"/>
</g>
<!-- Node18&#45;&gt;Node5 -->
<g id="edge21" class="edge">
<title>Node18&#45;&gt;Node5</title>
<path fill="none" stroke="midnightblue" d="M164.88,-253.78C198.23,-241.18 241.55,-224.81 267.49,-215.01"/>
<polygon fill="midnightblue" stroke="midnightblue" points="163.44,-250.59 155.32,-257.4 165.91,-257.13 163.44,-250.59"/>
</g>
<!-- Node18&#45;&gt;Node7 -->
<g id="edge22" class="edge">
<title>Node18&#45;&gt;Node7</title>
<path fill="none" stroke="midnightblue" d="M143.81,-250.61C152.65,-242.25 161.85,-231.99 168,-221 180.1,-199.39 184.95,-170.54 186.84,-153.6"/>
<polygon fill="midnightblue" stroke="midnightblue" points="141.32,-248.14 136.23,-257.43 146,-253.34 141.32,-248.14"/>
</g>
<!-- Node19 -->
<g id="node19" class="node">
<title>Node19</title>
<g id="a_node19"><a xlink:href="cigar_8hpp.html" target="_top" xlink:title="Provides the bio::alphabet::cigar alphabet.">
<polygon fill="white" stroke="black" points="66.5,-190.5 66.5,-220.5 159.5,-220.5 159.5,-190.5 66.5,-190.5"/>
<text text-anchor="start" x="74.5" y="-208.5" font-family="Helvetica,sans-Serif" font-size="10.00">bio/alphabet/cigar</text>
<text text-anchor="middle" x="113" y="-197.5" font-family="Helvetica,sans-Serif" font-size="10.00">/cigar.hpp</text>
</a>
</g>
</g>
<!-- Node18&#45;&gt;Node19 -->
<g id="edge20" class="edge">
<title>Node18&#45;&gt;Node19</title>
<path fill="none" stroke="midnightblue" d="M116.15,-247.4C115.45,-238.37 114.69,-228.41 114.08,-220.58"/>
<polygon fill="midnightblue" stroke="midnightblue" points="112.66,-247.69 116.92,-257.4 119.64,-247.16 112.66,-247.69"/>
</g>
<!-- Node21&#45;&gt;Node5 -->
<g id="edge60" class="edge">
<title>Node21&#45;&gt;Node5</title>
<path fill="none" stroke="midnightblue" d="M855.24,-603.87C813.98,-598.67 764.93,-585.94 731,-556 671.77,-503.75 717.7,-449.83 665,-391 570.72,-285.75 402.86,-233.86 327.94,-215.06"/>
<polygon fill="midnightblue" stroke="midnightblue" points="854.95,-607.36 865.28,-605.01 855.74,-600.4 854.95,-607.36"/>
</g>
<!-- Node21&#45;&gt;Node9 -->
<g id="edge56" class="edge">
<title>Node21&#45;&gt;Node9</title>
<path fill="none" stroke="midnightblue" d="M876.61,-596.12C807.23,-583.34 690.74,-561.89 626.33,-550.03"/>
<polygon fill="midnightblue" stroke="midnightblue" points="876.02,-599.57 886.49,-597.94 877.29,-592.68 876.02,-599.57"/>
</g>
<!-- Node22 -->
<g id="node22" class="node">
<title>Node22</title>
<g id="a_node22"><a xlink:href="deep_8hpp.html" target="_top" xlink:title="Provides bio::views::deep.">
<polygon fill="white" stroke="black" points="1100.5,-263 1100.5,-282 1233.5,-282 1233.5,-263 1100.5,-263"/>
<text text-anchor="middle" x="1167" y="-270" font-family="Helvetica,sans-Serif" font-size="10.00">bio/ranges/views/deep.hpp</text>
</a>
</g>
</g>
<!-- Node21&#45;&gt;Node22 -->
<g id="edge25" class="edge">
<title>Node21&#45;&gt;Node22</title>
<path fill="none" stroke="midnightblue" d="M968.45,-594.66C1033.88,-571.73 1167,-519.53 1167,-474.5 1167,-474.5 1167,-474.5 1167,-405.5 1167,-358.98 1167,-303.24 1167,-282.15"/>
<polygon fill="midnightblue" stroke="midnightblue" points="967.24,-591.38 958.94,-597.96 969.53,-597.99 967.24,-591.38"/>
</g>
<!-- Node31 -->
<g id="node31" class="node">
<title>Node31</title>
<g id="a_node31"><a xlink:href="interleave_8hpp.html" target="_top" xlink:title="Provides bio::views::interleave.">
<polygon fill="white" stroke="black" points="985,-464 985,-483 1139,-483 1139,-464 985,-464"/>
<text text-anchor="middle" x="1062" y="-471" font-family="Helvetica,sans-Serif" font-size="10.00">bio/ranges/views/interleave.hpp</text>
</a>
</g>
</g>
<!-- Node21&#45;&gt;Node31 -->
<g id="edge44" class="edge">
<title>Node21&#45;&gt;Node31</title>
<path fill="none" stroke="midnightblue" d="M976.82,-594.65C998.01,-586.86 1022.21,-574.58 1038,-556 1056.34,-534.42 1060.67,-499.37 1061.69,-483.19"/>
<polygon fill="midnightblue" stroke="midnightblue" points="975.65,-591.35 967.34,-597.92 977.93,-597.97 975.65,-591.35"/>
</g>
<!-- Node32 -->
<g id="node32" class="node">
<title>Node32</title>
<g id="a_node32"><a xlink:href="pairwise__combine_8hpp.html" target="_top" xlink:title="Provides bio::views::pairwise_combine.">
<polygon fill="white" stroke="black" points="1358.5,-391.5 1358.5,-421.5 1487.5,-421.5 1487.5,-391.5 1358.5,-391.5"/>
<text text-anchor="start" x="1366.5" y="-409.5" font-family="Helvetica,sans-Serif" font-size="10.00">bio/ranges/views/pairwise</text>
<text text-anchor="middle" x="1423" y="-398.5" font-family="Helvetica,sans-Serif" font-size="10.00">_combine.hpp</text>
</a>
</g>
</g>
<!-- Node21&#45;&gt;Node32 -->
<g id="edge47" class="edge">
<title>Node21&#45;&gt;Node32</title>
<path fill="none" stroke="midnightblue" d="M985.92,-595.96C1057.39,-581.7 1176.43,-557.8 1181,-556 1271.57,-520.28 1366.43,-451.29 1405.05,-421.62"/>
<polygon fill="midnightblue" stroke="midnightblue" points="984.86,-592.6 975.74,-597.99 986.23,-599.47 984.86,-592.6"/>
</g>
<!-- Node21&#45;&gt;Node33 -->
<g id="edge49" class="edge">
<title>Node21&#45;&gt;Node33</title>
<path fill="none" stroke="midnightblue" d="M985.44,-596.25C995.24,-594.61 1005.41,-593.1 1015,-592 1312.59,-557.86 1390.31,-589.24 1688,-556 1701.24,-554.52 1715.55,-552.32 1728.58,-550.07"/>
<polygon fill="midnightblue" stroke="midnightblue" points="984.67,-592.83 975.42,-597.99 985.87,-599.73 984.67,-592.83"/>
</g>
<!-- Node34 -->
<g id="node34" class="node">
<title>Node34</title>
<g id="a_node34"><a xlink:href="single__pass__input_8hpp.html" target="_top" xlink:title="Provides bio::alphabet::single_pass_input_view.">
<polygon fill="white" stroke="black" points="1664.5,-257.5 1664.5,-287.5 1783.5,-287.5 1783.5,-257.5 1664.5,-257.5"/>
<text text-anchor="start" x="1672.5" y="-275.5" font-family="Helvetica,sans-Serif" font-size="10.00">bio/ranges/views/single</text>
<text text-anchor="middle" x="1724" y="-264.5" font-family="Helvetica,sans-Serif" font-size="10.00">_pass_input.hpp</text>
</a>
</g>
</g>
<!-- Node21&#45;&gt;Node34 -->
<g id="edge52" class="edge">
<title>Node21&#45;&gt;Node34</title>
<path fill="none" stroke="midnightblue" d="M984.9,-595.96C991.98,-594.59 999.17,-593.24 1006,-592 1154.32,-565.2 1674,-625.22 1674,-474.5 1674,-474.5 1674,-474.5 1674,-405.5 1674,-360.16 1700.11,-311.42 1714.6,-287.87"/>
<polygon fill="midnightblue" stroke="midnightblue" points="983.79,-592.61 974.64,-597.97 985.13,-599.48 983.79,-592.61"/>
</g>
<!-- Node35 -->
<g id="node35" class="node">
<title>Node35</title>
<g id="a_node35"><a xlink:href="slice_8hpp.html" target="_top" xlink:title="Provides bio::views::slice.">
<polygon fill="white" stroke="black" points="422,-464 422,-483 554,-483 554,-464 422,-464"/>
<text text-anchor="middle" x="488" y="-471" font-family="Helvetica,sans-Serif" font-size="10.00">bio/ranges/views/slice.hpp</text>
</a>
</g>
</g>
<!-- Node21&#45;&gt;Node35 -->
<g id="edge54" class="edge">
<title>Node21&#45;&gt;Node35</title>
<path fill="none" stroke="midnightblue" d="M855.25,-598C808.23,-590.88 747.92,-578.18 698,-556 676.47,-546.43 676.12,-535.44 655,-525 614.41,-504.93 564.27,-491.08 529.58,-483.03"/>
<polygon fill="midnightblue" stroke="midnightblue" points="854.98,-601.5 865.38,-599.48 855.99,-594.57 854.98,-601.5"/>
</g>
<!-- Node36 -->
<g id="node36" class="node">
<title>Node36</title>
<g id="a_node36"><a xlink:href="to_8hpp_source.html" target="_top" xlink:title=" ">
<polygon fill="white" stroke="black" points="717,-397 717,-416 837,-416 837,-397 717,-397"/>
<text text-anchor="middle" x="777" y="-404" font-family="Helvetica,sans-Serif" font-size="10.00">bio/ranges/views/to.hpp</text>
</a>
</g>
</g>
<!-- Node21&#45;&gt;Node36 -->
<g id="edge57" class="edge">
<title>Node21&#45;&gt;Node36</title>
<path fill="none" stroke="midnightblue" d="M963.95,-593.34C979.27,-585.05 996.31,-572.71 1005,-556 1011.36,-543.78 1012.17,-536.76 1005,-525 981.65,-486.69 853.8,-435.89 800.43,-416"/>
<polygon fill="midnightblue" stroke="midnightblue" points="962.08,-590.36 954.72,-597.99 965.22,-596.62 962.08,-590.36"/>
</g>
<!-- Node37 -->
<g id="node37" class="node">
<title>Node37</title>
<g id="a_node37"><a xlink:href="type__reduce_8hpp.html" target="_top" xlink:title="Provides bio::views::type_reduce.">
<polygon fill="white" stroke="black" points="740,-525.5 740,-555.5 852,-555.5 852,-525.5 740,-525.5"/>
<text text-anchor="start" x="748" y="-543.5" font-family="Helvetica,sans-Serif" font-size="10.00">bio/ranges/views/type</text>
<text text-anchor="middle" x="796" y="-532.5" font-family="Helvetica,sans-Serif" font-size="10.00">_reduce.hpp</text>
</a>
</g>
</g>
<!-- Node21&#45;&gt;Node37 -->
<g id="edge61" class="edge">
<title>Node21&#45;&gt;Node37</title>
<path fill="none" stroke="midnightblue" d="M905.54,-593.47C882.38,-582.49 849.31,-566.79 825.57,-555.53"/>
<polygon fill="midnightblue" stroke="midnightblue" points="904.27,-596.74 914.81,-597.87 907.27,-590.42 904.27,-596.74"/>
</g>
<!-- Node38 -->
<g id="node38" class="node">
<title>Node38</title>
<g id="a_node38"><a xlink:href="zip_8hpp.html" target="_top" xlink:title="Provides bio::views::zip.">
<polygon fill="white" stroke="black" points="870.5,-531 870.5,-550 995.5,-550 995.5,-531 870.5,-531"/>
<text text-anchor="middle" x="933" y="-538" font-family="Helvetica,sans-Serif" font-size="10.00">bio/ranges/views/zip.hpp</text>
</a>
</g>
</g>
<!-- Node21&#45;&gt;Node38 -->
<g id="edge64" class="edge">
<title>Node21&#45;&gt;Node38</title>
<path fill="none" stroke="midnightblue" d="M933,-587.54C933,-575.17 933,-559.62 933,-550.13"/>
<polygon fill="midnightblue" stroke="midnightblue" points="929.5,-587.73 933,-597.73 936.5,-587.73 929.5,-587.73"/>
</g>
<!-- Node22&#45;&gt;Node5 -->
<g id="edge41" class="edge">
<title>Node22&#45;&gt;Node5</title>
<path fill="none" stroke="midnightblue" d="M1090.18,-265.81C923.27,-253.44 529.32,-224.24 364.52,-212.02"/>
<polygon fill="midnightblue" stroke="midnightblue" points="1090.13,-269.31 1100.36,-266.56 1090.65,-262.33 1090.13,-269.31"/>
</g>
<!-- Node22&#45;&gt;Node6 -->
<g id="edge26" class="edge">
<title>Node22&#45;&gt;Node6</title>
<path fill="none" stroke="midnightblue" d="M1243.62,-261.73C1292.67,-253.72 1349.86,-240.49 1365,-221 1393.28,-184.6 1323.52,-160.03 1275.93,-148.03"/>
<polygon fill="midnightblue" stroke="midnightblue" points="1242.94,-258.29 1233.61,-263.31 1244.04,-265.2 1242.94,-258.29"/>
</g>
<!-- Node23 -->
<g id="node23" class="node">
<title>Node23</title>
<g id="a_node23"><a xlink:href="char__to_8hpp.html" target="_top" xlink:title="Provides bio::views::char_to.">
<polygon fill="white" stroke="black" points="1412,-190.5 1412,-220.5 1524,-220.5 1524,-190.5 1412,-190.5"/>
<text text-anchor="start" x="1420" y="-208.5" font-family="Helvetica,sans-Serif" font-size="10.00">bio/ranges/views/char</text>
<text text-anchor="middle" x="1468" y="-197.5" font-family="Helvetica,sans-Serif" font-size="10.00">_to.hpp</text>
</a>
</g>
</g>
<!-- Node22&#45;&gt;Node23 -->
<g id="edge27" class="edge">
<title>Node22&#45;&gt;Node23</title>
<path fill="none" stroke="midnightblue" d="M1216.63,-260.78C1270.31,-249.19 1355.73,-230.74 1411.84,-218.63"/>
<polygon fill="midnightblue" stroke="midnightblue" points="1215.7,-257.4 1206.66,-262.94 1217.17,-264.25 1215.7,-257.4"/>
</g>
<!-- Node24 -->
<g id="node24" class="node">
<title>Node24</title>
<g id="a_node24"><a xlink:href="complement_8hpp.html" target="_top" xlink:title="Provides bio::views::complement.">
<polygon fill="white" stroke="black" points="1542.5,-196 1542.5,-215 1707.5,-215 1707.5,-196 1542.5,-196"/>
<text text-anchor="middle" x="1625" y="-203" font-family="Helvetica,sans-Serif" font-size="10.00">bio/ranges/views/complement.hpp</text>
</a>
</g>
</g>
<!-- Node22&#45;&gt;Node24 -->
<g id="edge29" class="edge">
<title>Node22&#45;&gt;Node24</title>
<path fill="none" stroke="midnightblue" d="M1241.67,-261.62C1315.68,-251.74 1432.25,-235.89 1533,-221 1545.64,-219.13 1559.24,-217.04 1572,-215.03"/>
<polygon fill="midnightblue" stroke="midnightblue" points="1240.96,-258.19 1231.51,-262.98 1241.89,-265.13 1240.96,-258.19"/>
</g>
<!-- Node25 -->
<g id="node25" class="node">
<title>Node25</title>
<g id="a_node25"><a xlink:href="rank__to_8hpp.html" target="_top" xlink:title="Provides bio::views::rank_to.">
<polygon fill="white" stroke="black" points="1116,-190.5 1116,-220.5 1228,-220.5 1228,-190.5 1116,-190.5"/>
<text text-anchor="start" x="1124" y="-208.5" font-family="Helvetica,sans-Serif" font-size="10.00">bio/ranges/views/rank</text>
<text text-anchor="middle" x="1172" y="-197.5" font-family="Helvetica,sans-Serif" font-size="10.00">_to.hpp</text>
</a>
</g>
</g>
<!-- Node22&#45;&gt;Node25 -->
<g id="edge31" class="edge">
<title>Node22&#45;&gt;Node25</title>
<path fill="none" stroke="midnightblue" d="M1168.44,-252.74C1169.23,-242.49 1170.19,-230 1170.92,-220.59"/>
<polygon fill="midnightblue" stroke="midnightblue" points="1164.95,-252.49 1167.67,-262.73 1171.93,-253.03 1164.95,-252.49"/>
</g>
<!-- Node26 -->
<g id="node26" class="node">
<title>Node26</title>
<g id="a_node26"><a xlink:href="to__char_8hpp.html" target="_top" xlink:title="Provides bio::views::to_char.">
<polygon fill="white" stroke="black" points="643.5,-190.5 643.5,-220.5 744.5,-220.5 744.5,-190.5 643.5,-190.5"/>
<text text-anchor="start" x="651.5" y="-208.5" font-family="Helvetica,sans-Serif" font-size="10.00">bio/ranges/views/to</text>
<text text-anchor="middle" x="694" y="-197.5" font-family="Helvetica,sans-Serif" font-size="10.00">_char.hpp</text>
</a>
</g>
</g>
<!-- Node22&#45;&gt;Node26 -->
<g id="edge33" class="edge">
<title>Node22&#45;&gt;Node26</title>
<path fill="none" stroke="midnightblue" d="M1094.68,-261.56C997.9,-248.26 828.69,-225.01 744.53,-213.44"/>
<polygon fill="midnightblue" stroke="midnightblue" points="1094.29,-265.04 1104.68,-262.94 1095.25,-258.11 1094.29,-265.04"/>
</g>
<!-- Node27 -->
<g id="node27" class="node">
<title>Node27</title>
<g id="a_node27"><a xlink:href="ranges_2views_2to__lower_8hpp.html" target="_top" xlink:title="Provides bio::views::to_lower.">
<polygon fill="white" stroke="black" points="877.5,-190.5 877.5,-220.5 978.5,-220.5 978.5,-190.5 877.5,-190.5"/>
<text text-anchor="start" x="885.5" y="-208.5" font-family="Helvetica,sans-Serif" font-size="10.00">bio/ranges/views/to</text>
<text text-anchor="middle" x="928" y="-197.5" font-family="Helvetica,sans-Serif" font-size="10.00">_lower.hpp</text>
</a>
</g>
</g>
<!-- Node22&#45;&gt;Node27 -->
<g id="edge36" class="edge">
<title>Node22&#45;&gt;Node27</title>
<path fill="none" stroke="midnightblue" d="M1125.38,-260.18C1084.58,-249.08 1022.33,-232.16 978.68,-220.28"/>
<polygon fill="midnightblue" stroke="midnightblue" points="1124.69,-263.62 1135.26,-262.87 1126.53,-256.87 1124.69,-263.62"/>
</g>
<!-- Node28 -->
<g id="node28" class="node">
<title>Node28</title>
<g id="a_node28"><a xlink:href="to__rank_8hpp.html" target="_top" xlink:title="Provides bio::views::to_rank.">
<polygon fill="white" stroke="black" points="524.5,-190.5 524.5,-220.5 625.5,-220.5 625.5,-190.5 524.5,-190.5"/>
<text text-anchor="start" x="532.5" y="-208.5" font-family="Helvetica,sans-Serif" font-size="10.00">bio/ranges/views/to</text>
<text text-anchor="middle" x="575" y="-197.5" font-family="Helvetica,sans-Serif" font-size="10.00">_rank.hpp</text>
</a>
</g>
</g>
<!-- Node22&#45;&gt;Node28 -->
<g id="edge37" class="edge">
<title>Node22&#45;&gt;Node28</title>
<path fill="none" stroke="midnightblue" d="M1090.17,-267.65C986.35,-261.67 795.73,-247.91 635,-221 631.93,-220.49 628.79,-219.9 625.63,-219.27"/>
<polygon fill="midnightblue" stroke="midnightblue" points="1090.07,-271.15 1100.25,-268.22 1090.47,-264.16 1090.07,-271.15"/>
</g>
<!-- Node29 -->
<g id="node29" class="node">
<title>Node29</title>
<g id="a_node29"><a xlink:href="to__upper_8hpp.html" target="_top" xlink:title="Provides bio::views::to_upper.">
<polygon fill="white" stroke="black" points="996.5,-190.5 996.5,-220.5 1097.5,-220.5 1097.5,-190.5 996.5,-190.5"/>
<text text-anchor="start" x="1004.5" y="-208.5" font-family="Helvetica,sans-Serif" font-size="10.00">bio/ranges/views/to</text>
<text text-anchor="middle" x="1047" y="-197.5" font-family="Helvetica,sans-Serif" font-size="10.00">_upper.hpp</text>
</a>
</g>
</g>
<!-- Node22&#45;&gt;Node29 -->
<g id="edge40" class="edge">
<title>Node22&#45;&gt;Node29</title>
<path fill="none" stroke="midnightblue" d="M1141.9,-257.9C1121.71,-246.97 1093.44,-231.65 1073.01,-220.59"/>
<polygon fill="midnightblue" stroke="midnightblue" points="1140.36,-261.05 1150.82,-262.73 1143.69,-254.89 1140.36,-261.05"/>
</g>
<!-- Node30 -->
<g id="node30" class="node">
<title>Node30</title>
<g id="a_node30"><a xlink:href="trim__quality_8hpp.html" target="_top" xlink:title="Provides bio::views::trim_quality.">
<polygon fill="white" stroke="black" points="1246,-190.5 1246,-220.5 1356,-220.5 1356,-190.5 1246,-190.5"/>
<text text-anchor="start" x="1254" y="-208.5" font-family="Helvetica,sans-Serif" font-size="10.00">bio/ranges/views/trim</text>
<text text-anchor="middle" x="1301" y="-197.5" font-family="Helvetica,sans-Serif" font-size="10.00">_quality.hpp</text>
</a>
</g>
</g>
<!-- Node22&#45;&gt;Node30 -->
<g id="edge42" class="edge">
<title>Node22&#45;&gt;Node30</title>
<path fill="none" stroke="midnightblue" d="M1193.85,-258.47C1216.51,-247.49 1248.86,-231.79 1272.08,-220.53"/>
<polygon fill="midnightblue" stroke="midnightblue" points="1192.26,-255.35 1184.79,-262.87 1195.32,-261.65 1192.26,-255.35"/>
</g>
<!-- Node23&#45;&gt;Node6 -->
<g id="edge28" class="edge">
<title>Node23&#45;&gt;Node6</title>
<path fill="none" stroke="midnightblue" d="M1408.22,-187.75C1362.84,-175.04 1302.33,-158.09 1266.44,-148.03"/>
<polygon fill="midnightblue" stroke="midnightblue" points="1407.37,-191.15 1417.95,-190.48 1409.26,-184.41 1407.37,-191.15"/>
</g>
<!-- Node24&#45;&gt;Node6 -->
<g id="edge30" class="edge">
<title>Node24&#45;&gt;Node6</title>
<path fill="none" stroke="midnightblue" d="M1563.79,-194.27C1487.45,-181.52 1358.33,-159.94 1287.06,-148.03"/>
<polygon fill="midnightblue" stroke="midnightblue" points="1563.3,-197.74 1573.75,-195.94 1564.46,-190.84 1563.3,-197.74"/>
</g>
<!-- Node25&#45;&gt;Node6 -->
<g id="edge32" class="edge">
<title>Node25&#45;&gt;Node6</title>
<path fill="none" stroke="midnightblue" d="M1193.17,-183C1204.85,-171.13 1218.72,-157.05 1227.44,-148.19"/>
<polygon fill="midnightblue" stroke="midnightblue" points="1190.41,-180.81 1185.89,-190.4 1195.4,-185.73 1190.41,-180.81"/>
</g>
<!-- Node26&#45;&gt;Node6 -->
<g id="edge35" class="edge">
<title>Node26&#45;&gt;Node6</title>
<path fill="none" stroke="midnightblue" d="M754.57,-190.75C756.06,-190.49 757.54,-190.24 759,-190 907.33,-165.68 1083.63,-150.55 1174.71,-143.74"/>
<polygon fill="midnightblue" stroke="midnightblue" points="753.82,-187.33 744.63,-192.62 755.11,-194.21 753.82,-187.33"/>
</g>
<!-- Node26&#45;&gt;Node12 -->
<g id="edge34" class="edge">
<title>Node26&#45;&gt;Node12</title>
<path fill="none" stroke="midnightblue" d="M650.08,-186.54C624.63,-176.14 593.07,-163.24 569.43,-153.58"/>
<polygon fill="midnightblue" stroke="midnightblue" points="648.92,-189.85 659.5,-190.4 651.57,-183.37 648.92,-189.85"/>
</g>
<!-- Node28&#45;&gt;Node6 -->
<g id="edge39" class="edge">
<title>Node28&#45;&gt;Node6</title>
<path fill="none" stroke="midnightblue" d="M635.56,-190.09C838.15,-157.94 1067.22,-145.82 1174.63,-141.55"/>
<polygon fill="midnightblue" stroke="midnightblue" points="634.95,-186.65 625.63,-191.69 636.06,-193.56 634.95,-186.65"/>
</g>
<!-- Node28&#45;&gt;Node12 -->
<g id="edge38" class="edge">
<title>Node28&#45;&gt;Node12</title>
<path fill="none" stroke="midnightblue" d="M561.07,-181.87C555.28,-172.46 548.74,-161.83 543.66,-153.58"/>
<polygon fill="midnightblue" stroke="midnightblue" points="558.1,-183.71 566.32,-190.4 564.06,-180.05 558.1,-183.71"/>
</g>
<!-- Node30&#45;&gt;Node6 -->
<g id="edge43" class="edge">
<title>Node30&#45;&gt;Node6</title>
<path fill="none" stroke="midnightblue" d="M1279.5,-183C1267.63,-171.13 1253.55,-157.05 1244.69,-148.19"/>
<polygon fill="midnightblue" stroke="midnightblue" points="1277.35,-185.8 1286.9,-190.4 1282.3,-180.85 1277.35,-185.8"/>
</g>
<!-- Node31&#45;&gt;Node6 -->
<g id="edge46" class="edge">
<title>Node31&#45;&gt;Node6</title>
<path fill="none" stroke="midnightblue" d="M1039.1,-458.47C972.12,-415.81 786.43,-284.72 869,-190 907.94,-145.34 1080.93,-138.81 1174.85,-138.65"/>
<polygon fill="midnightblue" stroke="midnightblue" points="1037.39,-461.53 1047.72,-463.89 1041.12,-455.61 1037.39,-461.53"/>
</g>
<!-- Node31&#45;&gt;Node16 -->
<g id="edge45" class="edge">
<title>Node31&#45;&gt;Node16</title>
<path fill="none" stroke="midnightblue" d="M1007.79,-461.69C972.79,-453.51 926.87,-440.5 889,-422 867.83,-411.66 865.41,-404.35 846,-391 827.69,-378.41 806.56,-364.6 791.08,-354.61"/>
<polygon fill="midnightblue" stroke="midnightblue" points="1007.3,-465.17 1017.83,-463.97 1008.85,-458.34 1007.3,-465.17"/>
</g>
<!-- Node32&#45;&gt;Node6 -->
<g id="edge48" class="edge">
<title>Node32&#45;&gt;Node6</title>
<path fill="none" stroke="midnightblue" d="M1453.23,-385.77C1497.47,-357 1582.56,-302.06 1656,-257 1682.83,-240.54 1701.39,-248.34 1717,-221 1723.83,-209.04 1726.22,-200.24 1717,-190 1689.4,-159.35 1420.78,-146 1297.4,-141.45"/>
<polygon fill="midnightblue" stroke="midnightblue" points="1451.16,-382.94 1444.69,-391.33 1454.98,-388.8 1451.16,-382.94"/>
</g>
<!-- Node33&#45;&gt;Node6 -->
<g id="edge50" class="edge">
<title>Node33&#45;&gt;Node6</title>
<path fill="none" stroke="midnightblue" d="M1781.9,-521.52C1793.41,-496.57 1812,-449.74 1812,-407.5 1812,-407.5 1812,-407.5 1812,-271.5 1812,-230.12 1801.6,-212.69 1767,-190 1728.43,-164.7 1428.23,-148.19 1297.03,-142.11"/>
<polygon fill="midnightblue" stroke="midnightblue" points="1778.62,-520.27 1777.47,-530.8 1784.94,-523.28 1778.62,-520.27"/>
</g>
<!-- Node33&#45;&gt;Node31 -->
<g id="edge51" class="edge">
<title>Node33&#45;&gt;Node31</title>
<path fill="none" stroke="midnightblue" d="M1692.13,-532.11C1554.07,-519.48 1274.69,-493.94 1139.19,-481.56"/>
<polygon fill="midnightblue" stroke="midnightblue" points="1691.95,-535.6 1702.23,-533.03 1692.59,-528.63 1691.95,-535.6"/>
</g>
<!-- Node34&#45;&gt;Node6 -->
<g id="edge53" class="edge">
<title>Node34&#45;&gt;Node6</title>
<path fill="none" stroke="midnightblue" d="M1741.7,-249.16C1753.67,-231.2 1764.83,-206.36 1750,-190 1720.08,-156.99 1426.8,-144.8 1297.13,-140.99"/>
<polygon fill="midnightblue" stroke="midnightblue" points="1738.81,-247.18 1735.87,-257.36 1744.52,-251.24 1738.81,-247.18"/>
</g>
<!-- Node35&#45;&gt;Node15 -->
<g id="edge55" class="edge">
<title>Node35&#45;&gt;Node15</title>
<path fill="none" stroke="midnightblue" d="M470.38,-456.99C441.04,-431.18 382.62,-379.76 354.23,-354.78"/>
<polygon fill="midnightblue" stroke="midnightblue" points="468.34,-459.86 478.16,-463.84 472.96,-454.61 468.34,-459.86"/>
</g>
<!-- Node36&#45;&gt;Node6 -->
<g id="edge59" class="edge">
<title>Node36&#45;&gt;Node6</title>
<path fill="none" stroke="midnightblue" d="M799.53,-390.61C810.88,-381.75 823.56,-369.43 830,-355 859.91,-288.01 785.64,-244.28 835,-190 857.45,-165.31 1068,-149.43 1174.68,-142.9"/>
<polygon fill="midnightblue" stroke="midnightblue" points="797.24,-387.95 791.24,-396.69 801.38,-393.6 797.24,-387.95"/>
</g>
<!-- Node36&#45;&gt;Node16 -->
<g id="edge58" class="edge">
<title>Node36&#45;&gt;Node16</title>
<path fill="none" stroke="midnightblue" d="M774.69,-386.74C773.43,-376.49 771.89,-364 770.73,-354.59"/>
<polygon fill="midnightblue" stroke="midnightblue" points="771.23,-387.24 775.92,-396.73 778.17,-386.38 771.23,-387.24"/>
</g>
<!-- Node37&#45;&gt;Node31 -->
<g id="edge62" class="edge">
<title>Node37&#45;&gt;Node31</title>
<path fill="none" stroke="midnightblue" d="M861.95,-523.38C914.26,-510.6 985.29,-493.24 1027.13,-483.02"/>
<polygon fill="midnightblue" stroke="midnightblue" points="860.97,-520.02 852.09,-525.79 862.63,-526.82 860.97,-520.02"/>
</g>
<!-- Node37&#45;&gt;Node35 -->
<g id="edge63" class="edge">
<title>Node37&#45;&gt;Node35</title>
<path fill="none" stroke="midnightblue" d="M729.92,-525.56C668.77,-512.65 579.79,-493.87 528.52,-483.05"/>
<polygon fill="midnightblue" stroke="midnightblue" points="729.36,-529.01 739.87,-527.65 730.8,-522.16 729.36,-529.01"/>
</g>
<!-- Node39&#45;&gt;Node11 -->
<g id="edge67" class="edge">
<title>Node39&#45;&gt;Node11</title>
<path fill="none" stroke="midnightblue" d="M368.92,-460.49C400.96,-449.47 448.44,-433.14 482.21,-421.53"/>
<polygon fill="midnightblue" stroke="midnightblue" points="367.42,-457.31 359.1,-463.87 369.69,-463.93 367.42,-457.31"/>
</g>
</g>
</svg>
