<?xml version="1.0" encoding="UTF-8" standalone="no"?>
<!DOCTYPE svg PUBLIC "-//W3C//DTD SVG 1.1//EN"
 "http://www.w3.org/Graphics/SVG/1.1/DTD/svg11.dtd">
<!-- Generated by graphviz version 2.42.2 ()
 -->
<!-- Title: bio/meta/type_traits/function.hpp Pages: 1 -->
<svg width="310pt" height="564pt"
 viewBox="0.00 0.00 309.50 564.00" xmlns="http://www.w3.org/2000/svg" xmlns:xlink="http://www.w3.org/1999/xlink">
<g id="graph0" class="graph" transform="scale(1 1) rotate(0) translate(4 560)">
<title>bio/meta/type_traits/function.hpp</title>
<polygon fill="white" stroke="transparent" points="-4,4 -4,-560 305.5,-560 305.5,4 -4,4"/>
<!-- Node1 -->
<g id="node1" class="node">
<title>Node1</title>
<g id="a_node1"><a xlink:title="Provides various type traits for use on functions.">
<polygon fill="#bfbfbf" stroke="black" points="25,-525.5 25,-555.5 128,-555.5 128,-525.5 25,-525.5"/>
<text text-anchor="start" x="33" y="-543.5" font-family="Helvetica,sans-Serif" font-size="10.00">bio/meta/type_traits</text>
<text text-anchor="middle" x="76.5" y="-532.5" font-family="Helvetica,sans-Serif" font-size="10.00">/function.hpp</text>
</a>
</g>
</g>
<!-- Node2 -->
<g id="node2" class="node">
<title>Node2</title>
<g id="a_node2"><a target="_blank" xlink:href="https://en.cppreference.com/w/cpp/header/functional.html" xlink:title=" ">
<polygon fill="white" stroke="black" points="0,-464 0,-483 59,-483 59,-464 0,-464"/>
<text text-anchor="middle" x="29.5" y="-471" font-family="Helvetica,sans-Serif" font-size="10.00">functional</text>
</a>
</g>
</g>
<!-- Node1&#45;&gt;Node2 -->
<g id="edge1" class="edge">
<title>Node1&#45;&gt;Node2</title>
<path fill="none" stroke="midnightblue" d="M66.3,-525.4C59.12,-515.46 49.46,-502.11 41.84,-491.57"/>
<polygon fill="midnightblue" stroke="midnightblue" points="44.48,-489.25 35.79,-483.19 38.81,-493.35 44.48,-489.25"/>
</g>
<!-- Node3 -->
<g id="node3" class="node">
<title>Node3</title>
<g id="a_node3"><a xlink:href="traits_8hpp.html" target="_top" xlink:title="Provides traits for meta::type_list.">
<polygon fill="white" stroke="black" points="77.5,-458.5 77.5,-488.5 171.5,-488.5 171.5,-458.5 77.5,-458.5"/>
<text text-anchor="start" x="85.5" y="-476.5" font-family="Helvetica,sans-Serif" font-size="10.00">bio/meta/type_list</text>
<text text-anchor="middle" x="124.5" y="-465.5" font-family="Helvetica,sans-Serif" font-size="10.00">/traits.hpp</text>
</a>
</g>
</g>
<!-- Node1&#45;&gt;Node3 -->
<g id="edge2" class="edge">
<title>Node1&#45;&gt;Node3</title>
<path fill="none" stroke="midnightblue" d="M86.92,-525.4C93.08,-517.05 101.03,-506.29 108.02,-496.81"/>
<polygon fill="midnightblue" stroke="midnightblue" points="110.98,-498.7 114.11,-488.58 105.35,-494.54 110.98,-498.7"/>
</g>
<!-- Node4 -->
<g id="node4" class="node">
<title>Node4</title>
<g id="a_node4"><a target="_blank" xlink:href="https://en.cppreference.com/w/cpp/header/type_traits.html" xlink:title=" ">
<polygon fill="white" stroke="black" points="52.5,-56.5 52.5,-75.5 114.5,-75.5 114.5,-56.5 52.5,-56.5"/>
<text text-anchor="middle" x="83.5" y="-63.5" font-family="Helvetica,sans-Serif" font-size="10.00">type_traits</text>
</a>
</g>
</g>
<!-- Node3&#45;&gt;Node4 -->
<g id="edge3" class="edge">
<title>Node3&#45;&gt;Node4</title>
<path fill="none" stroke="midnightblue" d="M104.36,-458.3C92.55,-449.09 78.11,-436.2 68.5,-422 46.87,-390.03 38.5,-379.1 38.5,-340.5 38.5,-340.5 38.5,-340.5 38.5,-199 38.5,-156.01 60.14,-109.16 73.41,-84.48"/>
<polygon fill="midnightblue" stroke="midnightblue" points="76.54,-86.06 78.34,-75.61 70.42,-82.66 76.54,-86.06"/>
</g>
<!-- Node5 -->
<g id="node5" class="node">
<title>Node5</title>
<g id="a_node5"><a xlink:href="traits__detail_8hpp.html" target="_top" xlink:title="Provides various traits for template packs.">
<polygon fill="white" stroke="black" points="77.5,-391.5 77.5,-421.5 171.5,-421.5 171.5,-391.5 77.5,-391.5"/>
<text text-anchor="start" x="85.5" y="-409.5" font-family="Helvetica,sans-Serif" font-size="10.00">bio/meta/type_list</text>
<text text-anchor="middle" x="124.5" y="-398.5" font-family="Helvetica,sans-Serif" font-size="10.00">/traits_detail.hpp</text>
</a>
</g>
</g>
<!-- Node3&#45;&gt;Node5 -->
<g id="edge4" class="edge">
<title>Node3&#45;&gt;Node5</title>
<path fill="none" stroke="midnightblue" d="M124.5,-458.4C124.5,-450.64 124.5,-440.81 124.5,-431.86"/>
<polygon fill="midnightblue" stroke="midnightblue" points="128,-431.58 124.5,-421.58 121,-431.58 128,-431.58"/>
</g>
<!-- Node7 -->
<g id="node7" class="node">
<title>Node7</title>
<g id="a_node7"><a xlink:href="type__list_8hpp.html" target="_top" xlink:title="Provides bio::meta::type_list.">
<polygon fill="white" stroke="black" points="162.5,-324.5 162.5,-354.5 256.5,-354.5 256.5,-324.5 162.5,-324.5"/>
<text text-anchor="start" x="170.5" y="-342.5" font-family="Helvetica,sans-Serif" font-size="10.00">bio/meta/type_list</text>
<text text-anchor="middle" x="209.5" y="-331.5" font-family="Helvetica,sans-Serif" font-size="10.00">/type_list.hpp</text>
</a>
</g>
</g>
<!-- Node3&#45;&gt;Node7 -->
<g id="edge18" class="edge">
<title>Node3&#45;&gt;Node7</title>
<path fill="none" stroke="midnightblue" d="M144.7,-458.33C156.53,-449.15 170.97,-436.26 180.5,-422 192.25,-404.42 199.85,-381.53 204.31,-364.49"/>
<polygon fill="midnightblue" stroke="midnightblue" points="207.72,-365.27 206.69,-354.73 200.92,-363.61 207.72,-365.27"/>
</g>
<!-- Node5&#45;&gt;Node4 -->
<g id="edge5" class="edge">
<title>Node5&#45;&gt;Node4</title>
<path fill="none" stroke="midnightblue" d="M114.95,-391.48C108.64,-381.64 100.61,-367.98 95.5,-355 81.87,-320.39 76.5,-310.69 76.5,-273.5 76.5,-273.5 76.5,-273.5 76.5,-199 76.5,-158.6 79.81,-111.34 81.88,-85.77"/>
<polygon fill="midnightblue" stroke="midnightblue" points="85.38,-85.9 82.72,-75.64 78.4,-85.31 85.38,-85.9"/>
</g>
<!-- Node6 -->
<g id="node6" class="node">
<title>Node6</title>
<g id="a_node6"><a target="_blank" xlink:href="https://en.cppreference.com/w/cpp/header/utility.html" xlink:title=" ">
<polygon fill="white" stroke="black" points="104.5,-330 104.5,-349 144.5,-349 144.5,-330 104.5,-330"/>
<text text-anchor="middle" x="124.5" y="-337" font-family="Helvetica,sans-Serif" font-size="10.00">utility</text>
</a>
</g>
</g>
<!-- Node5&#45;&gt;Node6 -->
<g id="edge6" class="edge">
<title>Node5&#45;&gt;Node6</title>
<path fill="none" stroke="midnightblue" d="M124.5,-391.4C124.5,-382.06 124.5,-369.71 124.5,-359.52"/>
<polygon fill="midnightblue" stroke="midnightblue" points="128,-359.19 124.5,-349.19 121,-359.19 128,-359.19"/>
</g>
<!-- Node5&#45;&gt;Node7 -->
<g id="edge7" class="edge">
<title>Node5&#45;&gt;Node7</title>
<path fill="none" stroke="midnightblue" d="M142.94,-391.4C154.64,-382.45 169.96,-370.74 182.95,-360.8"/>
<polygon fill="midnightblue" stroke="midnightblue" points="185.27,-363.43 191.09,-354.58 181.02,-357.87 185.27,-363.43"/>
</g>
<!-- Node8 -->
<g id="node8" class="node">
<title>Node8</title>
<g id="a_node8"><a xlink:href="template__inspection_8hpp.html" target="_top" xlink:title="Provides various traits to inspect templates.">
<polygon fill="white" stroke="black" points="147,-257.5 147,-287.5 272,-287.5 272,-257.5 147,-257.5"/>
<text text-anchor="start" x="155" y="-275.5" font-family="Helvetica,sans-Serif" font-size="10.00">bio/meta/type_traits</text>
<text text-anchor="middle" x="209.5" y="-264.5" font-family="Helvetica,sans-Serif" font-size="10.00">/template_inspection.hpp</text>
</a>
</g>
</g>
<!-- Node7&#45;&gt;Node8 -->
<g id="edge8" class="edge">
<title>Node7&#45;&gt;Node8</title>
<path fill="none" stroke="midnightblue" d="M209.5,-324.4C209.5,-316.64 209.5,-306.81 209.5,-297.86"/>
<polygon fill="midnightblue" stroke="midnightblue" points="213,-297.58 209.5,-287.58 206,-297.58 213,-297.58"/>
</g>
<!-- Node9 -->
<g id="node9" class="node">
<title>Node9</title>
<g id="a_node9"><a xlink:href="transformation__trait__or_8hpp.html" target="_top" xlink:title="Provides bio::meta::transformation_trait_or.">
<polygon fill="white" stroke="black" points="123.5,-179.5 123.5,-220.5 227.5,-220.5 227.5,-179.5 123.5,-179.5"/>
<text text-anchor="start" x="131.5" y="-208.5" font-family="Helvetica,sans-Serif" font-size="10.00">bio/meta/type_traits</text>
<text text-anchor="start" x="131.5" y="-197.5" font-family="Helvetica,sans-Serif" font-size="10.00">/transformation_trait</text>
<text text-anchor="middle" x="175.5" y="-186.5" font-family="Helvetica,sans-Serif" font-size="10.00">_or.hpp</text>
</a>
</g>
</g>
<!-- Node8&#45;&gt;Node9 -->
<g id="edge9" class="edge">
<title>Node8&#45;&gt;Node9</title>
<path fill="none" stroke="midnightblue" d="M202.62,-257.23C198.81,-249.33 193.93,-239.21 189.36,-229.74"/>
<polygon fill="midnightblue" stroke="midnightblue" points="192.44,-228.08 184.95,-220.59 186.14,-231.12 192.44,-228.08"/>
</g>
<!-- Node15 -->
<g id="node15" class="node">
<title>Node15</title>
<g id="a_node15"><a target="_blank" xlink:href="https://en.cppreference.com/w/cpp/header/concepts.html" xlink:title=" ">
<polygon fill="white" stroke="black" points="245.5,-190.5 245.5,-209.5 301.5,-209.5 301.5,-190.5 245.5,-190.5"/>
<text text-anchor="middle" x="273.5" y="-197.5" font-family="Helvetica,sans-Serif" font-size="10.00">concepts</text>
</a>
</g>
</g>
<!-- Node8&#45;&gt;Node15 -->
<g id="edge17" class="edge">
<title>Node8&#45;&gt;Node15</title>
<path fill="none" stroke="midnightblue" d="M222.45,-257.23C232.9,-245.73 247.6,-229.53 258.55,-217.47"/>
<polygon fill="midnightblue" stroke="midnightblue" points="261.3,-219.65 265.43,-209.89 256.11,-214.94 261.3,-219.65"/>
</g>
<!-- Node9&#45;&gt;Node4 -->
<g id="edge10" class="edge">
<title>Node9&#45;&gt;Node4</title>
<path fill="none" stroke="midnightblue" d="M160.23,-179.26C152.13,-168.63 142.1,-155.23 133.5,-143 119.51,-123.1 104.25,-99.63 94.32,-84.1"/>
<polygon fill="midnightblue" stroke="midnightblue" points="97.2,-82.11 88.88,-75.55 91.3,-85.86 97.2,-82.11"/>
</g>
<!-- Node10 -->
<g id="node10" class="node">
<title>Node10</title>
<g id="a_node10"><a xlink:href="meta_2type__traits_2concept_8hpp.html" target="_top" xlink:title="Provides the concepts bio::meta::transformation_trait and bio::meta::unary_type_trait.">
<polygon fill="white" stroke="black" points="143,-112.5 143,-142.5 246,-142.5 246,-112.5 143,-112.5"/>
<text text-anchor="start" x="151" y="-130.5" font-family="Helvetica,sans-Serif" font-size="10.00">bio/meta/type_traits</text>
<text text-anchor="middle" x="194.5" y="-119.5" font-family="Helvetica,sans-Serif" font-size="10.00">/concept.hpp</text>
</a>
</g>
</g>
<!-- Node9&#45;&gt;Node10 -->
<g id="edge11" class="edge">
<title>Node9&#45;&gt;Node10</title>
<path fill="none" stroke="midnightblue" d="M180.79,-179.36C183.01,-171.14 185.61,-161.49 187.95,-152.82"/>
<polygon fill="midnightblue" stroke="midnightblue" points="191.4,-153.46 190.62,-142.89 184.64,-151.64 191.4,-153.46"/>
</g>
<!-- Node10&#45;&gt;Node4 -->
<g id="edge12" class="edge">
<title>Node10&#45;&gt;Node4</title>
<path fill="none" stroke="midnightblue" d="M168.19,-112.4C150.24,-102.77 126.58,-90.09 108.83,-80.58"/>
<polygon fill="midnightblue" stroke="midnightblue" points="110.12,-77.3 99.65,-75.66 106.81,-83.47 110.12,-77.3"/>
</g>
<!-- Node11 -->
<g id="node11" class="node">
<title>Node11</title>
<g id="a_node11"><a xlink:href="platform_8hpp.html" target="_top" xlink:title="Provides platform and dependency checks.">
<polygon fill="white" stroke="black" points="139,-56.5 139,-75.5 250,-75.5 250,-56.5 139,-56.5"/>
<text text-anchor="middle" x="194.5" y="-63.5" font-family="Helvetica,sans-Serif" font-size="10.00">bio/meta/platform.hpp</text>
</a>
</g>
</g>
<!-- Node10&#45;&gt;Node11 -->
<g id="edge13" class="edge">
<title>Node10&#45;&gt;Node11</title>
<path fill="none" stroke="midnightblue" d="M194.5,-112.4C194.5,-104.47 194.5,-94.46 194.5,-85.86"/>
<polygon fill="midnightblue" stroke="midnightblue" points="198,-85.66 194.5,-75.66 191,-85.66 198,-85.66"/>
</g>
<!-- Node12 -->
<g id="node12" class="node">
<title>Node12</title>
<g id="a_node12"><a target="_blank" xlink:href="https://en.cppreference.com/w/cpp/header/cinttypes.html" xlink:title=" ">
<polygon fill="white" stroke="black" points="95.5,-0.5 95.5,-19.5 151.5,-19.5 151.5,-0.5 95.5,-0.5"/>
<text text-anchor="middle" x="123.5" y="-7.5" font-family="Helvetica,sans-Serif" font-size="10.00">cinttypes</text>
</a>
</g>
</g>
<!-- Node11&#45;&gt;Node12 -->
<g id="edge14" class="edge">
<title>Node11&#45;&gt;Node12</title>
<path fill="none" stroke="midnightblue" d="M183.09,-56.32C172.39,-48.18 156.16,-35.84 143.34,-26.09"/>
<polygon fill="midnightblue" stroke="midnightblue" points="145.19,-23.1 135.11,-19.83 140.96,-28.67 145.19,-23.1"/>
</g>
<!-- Node13 -->
<g id="node13" class="node">
<title>Node13</title>
<g id="a_node13"><a target="_blank" xlink:href="https://en.cppreference.com/w/cpp/header/ciso646.html" xlink:title=" ">
<polygon fill="white" stroke="black" points="169.5,-0.5 169.5,-19.5 219.5,-19.5 219.5,-0.5 169.5,-0.5"/>
<text text-anchor="middle" x="194.5" y="-7.5" font-family="Helvetica,sans-Serif" font-size="10.00">ciso646</text>
</a>
</g>
</g>
<!-- Node11&#45;&gt;Node13 -->
<g id="edge15" class="edge">
<title>Node11&#45;&gt;Node13</title>
<path fill="none" stroke="midnightblue" d="M194.5,-56.08C194.5,-49.01 194.5,-38.86 194.5,-29.99"/>
<polygon fill="midnightblue" stroke="midnightblue" points="198,-29.75 194.5,-19.75 191,-29.75 198,-29.75"/>
</g>
<!-- Node14 -->
<g id="node14" class="node">
<title>Node14</title>
<g id="a_node14"><a target="_blank" xlink:href="https://en.cppreference.com/w/cpp/header/cstddef.html" xlink:title=" ">
<polygon fill="white" stroke="black" points="238,-0.5 238,-19.5 287,-19.5 287,-0.5 238,-0.5"/>
<text text-anchor="middle" x="262.5" y="-7.5" font-family="Helvetica,sans-Serif" font-size="10.00">cstddef</text>
</a>
</g>
</g>
<!-- Node11&#45;&gt;Node14 -->
<g id="edge16" class="edge">
<title>Node11&#45;&gt;Node14</title>
<path fill="none" stroke="midnightblue" d="M205.43,-56.32C215.67,-48.18 231.22,-35.84 243.5,-26.09"/>
<polygon fill="midnightblue" stroke="midnightblue" points="245.72,-28.79 251.38,-19.83 241.37,-23.31 245.72,-28.79"/>
</g>
</g>
</svg>
