<?xml version="1.0" encoding="UTF-8" standalone="no"?>
<!DOCTYPE svg PUBLIC "-//W3C//DTD SVG 1.1//EN"
 "http://www.w3.org/Graphics/SVG/1.1/DTD/svg11.dtd">
<!-- Generated by graphviz version 2.43.0 (0)
 -->
<!-- Title: bio/meta/type_list/detail/type_list_algorithm.hpp Pages: 1 -->
<svg width="452pt" height="430pt"
 viewBox="0.00 0.00 451.50 430.00" xmlns="http://www.w3.org/2000/svg" xmlns:xlink="http://www.w3.org/1999/xlink">
<g id="graph0" class="graph" transform="scale(1 1) rotate(0) translate(4 426)">
<title>bio/meta/type_list/detail/type_list_algorithm.hpp</title>
<polygon fill="white" stroke="transparent" points="-4,4 -4,-426 447.5,-426 447.5,4 -4,4"/>
<!-- Node1 -->
<g id="node1" class="node">
<title>Node1</title>
<g id="a_node1"><a xlink:title="Provides algorithms for meta programming, parameter packs and bio::type_list.">
<polygon fill="#bfbfbf" stroke="black" points="36,-391.5 36,-421.5 202,-421.5 202,-391.5 36,-391.5"/>
<text text-anchor="start" x="44" y="-409.5" font-family="Helvetica,sans-Serif" font-size="10.00">bio/meta/type_list</text>
<text text-anchor="middle" x="119" y="-398.5" font-family="Helvetica,sans-Serif" font-size="10.00">/detail/type_list_algorithm.hpp</text>
</a>
</g>
</g>
<!-- Node2 -->
<g id="node2" class="node">
<title>Node2</title>
<g id="a_node2"><a target="_blank" xlink:href="https://en.cppreference.com/w/cpp/header/concepts.html" xlink:title=" ">
<polygon fill="white" stroke="black" points="90,-190.5 90,-209.5 150,-209.5 150,-190.5 90,-190.5"/>
<text text-anchor="middle" x="120" y="-197.5" font-family="Helvetica,sans-Serif" font-size="10.00">concepts</text>
</a>
</g>
</g>
<!-- Node1&#45;&gt;Node2 -->
<g id="edge1" class="edge">
<title>Node1&#45;&gt;Node2</title>
<path fill="none" stroke="midnightblue" d="M92.44,-391.47C79.17,-382.88 64.39,-370.55 57,-355 38.3,-315.66 39.16,-296.73 57,-257 64.99,-239.2 81.75,-224.75 95.97,-214.99"/>
<polygon fill="midnightblue" stroke="midnightblue" points="97.91,-217.91 104.4,-209.53 94.1,-212.03 97.91,-217.91"/>
</g>
<!-- Node3 -->
<g id="node3" class="node">
<title>Node3</title>
<g id="a_node3"><a target="_blank" xlink:href="https://en.cppreference.com/w/cpp/header/type_traits.html" xlink:title=" ">
<polygon fill="white" stroke="black" points="146.5,-56.5 146.5,-75.5 215.5,-75.5 215.5,-56.5 146.5,-56.5"/>
<text text-anchor="middle" x="181" y="-63.5" font-family="Helvetica,sans-Serif" font-size="10.00">type_traits</text>
</a>
</g>
</g>
<!-- Node1&#45;&gt;Node3 -->
<g id="edge2" class="edge">
<title>Node1&#45;&gt;Node3</title>
<path fill="none" stroke="midnightblue" d="M90.4,-391.45C74.64,-382.63 55.59,-370.09 42,-355 14.73,-324.72 0,-314.25 0,-273.5 0,-273.5 0,-273.5 0,-199 0,-131.63 82.87,-95 136.46,-78.35"/>
<polygon fill="midnightblue" stroke="midnightblue" points="137.52,-81.68 146.1,-75.47 135.52,-74.98 137.52,-81.68"/>
</g>
<!-- Node4 -->
<g id="node4" class="node">
<title>Node4</title>
<g id="a_node4"><a target="_blank" xlink:href="https://en.cppreference.com/w/cpp/header/utility.html" xlink:title=" ">
<polygon fill="white" stroke="black" points="398.5,-263 398.5,-282 443.5,-282 443.5,-263 398.5,-263"/>
<text text-anchor="middle" x="421" y="-270" font-family="Helvetica,sans-Serif" font-size="10.00">utility</text>
</a>
</g>
</g>
<!-- Node1&#45;&gt;Node4 -->
<g id="edge3" class="edge">
<title>Node1&#45;&gt;Node4</title>
<path fill="none" stroke="midnightblue" d="M202.31,-396.36C265.49,-388.08 345.92,-374.23 373,-355 394.93,-339.43 408.44,-310.43 415.34,-291.55"/>
<polygon fill="midnightblue" stroke="midnightblue" points="418.67,-292.61 418.57,-282.02 412.04,-290.37 418.67,-292.61"/>
</g>
<!-- Node5 -->
<g id="node5" class="node">
<title>Node5</title>
<g id="a_node5"><a xlink:href="type__list_8hpp.html" target="_top" xlink:title="Provides bio::type_list.">
<polygon fill="white" stroke="black" points="66.5,-324.5 66.5,-354.5 171.5,-354.5 171.5,-324.5 66.5,-324.5"/>
<text text-anchor="start" x="74.5" y="-342.5" font-family="Helvetica,sans-Serif" font-size="10.00">bio/meta/type_list</text>
<text text-anchor="middle" x="119" y="-331.5" font-family="Helvetica,sans-Serif" font-size="10.00">/type_list.hpp</text>
</a>
</g>
</g>
<!-- Node1&#45;&gt;Node5 -->
<g id="edge4" class="edge">
<title>Node1&#45;&gt;Node5</title>
<path fill="none" stroke="midnightblue" d="M119,-391.4C119,-383.64 119,-373.81 119,-364.86"/>
<polygon fill="midnightblue" stroke="midnightblue" points="122.5,-364.58 119,-354.58 115.5,-364.58 122.5,-364.58"/>
</g>
<!-- Node13 -->
<g id="node13" class="node">
<title>Node13</title>
<g id="a_node13"><a xlink:href="type__pack__algorithm_8hpp.html" target="_top" xlink:title="Provides algorithms for meta programming, parameter packs and bio::type_list.">
<polygon fill="white" stroke="black" points="190,-324.5 190,-354.5 364,-354.5 364,-324.5 190,-324.5"/>
<text text-anchor="start" x="198" y="-342.5" font-family="Helvetica,sans-Serif" font-size="10.00">bio/meta/type_pack</text>
<text text-anchor="middle" x="277" y="-331.5" font-family="Helvetica,sans-Serif" font-size="10.00">/detail/type_pack_algorithm.hpp</text>
</a>
</g>
</g>
<!-- Node1&#45;&gt;Node13 -->
<g id="edge15" class="edge">
<title>Node1&#45;&gt;Node13</title>
<path fill="none" stroke="midnightblue" d="M153.28,-391.4C176.78,-381.73 208.15,-368.82 233.43,-358.43"/>
<polygon fill="midnightblue" stroke="midnightblue" points="234.87,-361.62 242.78,-354.58 232.2,-355.14 234.87,-361.62"/>
</g>
<!-- Node6 -->
<g id="node6" class="node">
<title>Node6</title>
<g id="a_node6"><a xlink:href="template__inspection_8hpp.html" target="_top" xlink:title="Provides bio::type_list and auxiliary type traits.">
<polygon fill="white" stroke="black" points="66,-257.5 66,-287.5 206,-287.5 206,-257.5 66,-257.5"/>
<text text-anchor="start" x="74" y="-275.5" font-family="Helvetica,sans-Serif" font-size="10.00">bio/meta/type_traits</text>
<text text-anchor="middle" x="136" y="-264.5" font-family="Helvetica,sans-Serif" font-size="10.00">/template_inspection.hpp</text>
</a>
</g>
</g>
<!-- Node5&#45;&gt;Node6 -->
<g id="edge5" class="edge">
<title>Node5&#45;&gt;Node6</title>
<path fill="none" stroke="midnightblue" d="M122.69,-324.4C124.76,-316.47 127.4,-306.38 129.78,-297.27"/>
<polygon fill="midnightblue" stroke="midnightblue" points="133.17,-298.14 132.32,-287.58 126.4,-296.37 133.17,-298.14"/>
</g>
<!-- Node6&#45;&gt;Node2 -->
<g id="edge14" class="edge">
<title>Node6&#45;&gt;Node2</title>
<path fill="none" stroke="midnightblue" d="M132.76,-257.23C130.33,-246.5 126.96,-231.69 124.3,-219.96"/>
<polygon fill="midnightblue" stroke="midnightblue" points="127.64,-218.87 122.02,-209.89 120.82,-220.42 127.64,-218.87"/>
</g>
<!-- Node7 -->
<g id="node7" class="node">
<title>Node7</title>
<g id="a_node7"><a xlink:href="transformation__trait__or_8hpp.html" target="_top" xlink:title="Provides bio::detail::transformation_trait_or.">
<polygon fill="white" stroke="black" points="206,-179.5 206,-220.5 324,-220.5 324,-179.5 206,-179.5"/>
<text text-anchor="start" x="214" y="-208.5" font-family="Helvetica,sans-Serif" font-size="10.00">bio/meta/type_traits</text>
<text text-anchor="start" x="214" y="-197.5" font-family="Helvetica,sans-Serif" font-size="10.00">/transformation_trait</text>
<text text-anchor="middle" x="265" y="-186.5" font-family="Helvetica,sans-Serif" font-size="10.00">_or.hpp</text>
</a>
</g>
</g>
<!-- Node6&#45;&gt;Node7 -->
<g id="edge6" class="edge">
<title>Node6&#45;&gt;Node7</title>
<path fill="none" stroke="midnightblue" d="M161.8,-257.4C178.43,-248.31 200.5,-236.25 219.97,-225.61"/>
<polygon fill="midnightblue" stroke="midnightblue" points="221.89,-228.55 228.99,-220.68 218.54,-222.4 221.89,-228.55"/>
</g>
<!-- Node7&#45;&gt;Node3 -->
<g id="edge7" class="edge">
<title>Node7&#45;&gt;Node3</title>
<path fill="none" stroke="midnightblue" d="M245.83,-179.29C236.43,-169 225.36,-155.89 217,-143 204.99,-124.49 194.62,-101.35 188.13,-85.49"/>
<polygon fill="midnightblue" stroke="midnightblue" points="191.23,-83.83 184.29,-75.83 184.73,-86.42 191.23,-83.83"/>
</g>
<!-- Node8 -->
<g id="node8" class="node">
<title>Node8</title>
<g id="a_node8"><a xlink:href="meta_2type__traits_2concept_8hpp.html" target="_top" xlink:title="Provides the concepts bio::transformation_trait and bio::unary_type_trait.">
<polygon fill="white" stroke="black" points="226,-112.5 226,-142.5 342,-142.5 342,-112.5 226,-112.5"/>
<text text-anchor="start" x="234" y="-130.5" font-family="Helvetica,sans-Serif" font-size="10.00">bio/meta/type_traits</text>
<text text-anchor="middle" x="284" y="-119.5" font-family="Helvetica,sans-Serif" font-size="10.00">/concept.hpp</text>
</a>
</g>
</g>
<!-- Node7&#45;&gt;Node8 -->
<g id="edge8" class="edge">
<title>Node7&#45;&gt;Node8</title>
<path fill="none" stroke="midnightblue" d="M270.29,-179.36C272.51,-171.14 275.11,-161.49 277.45,-152.82"/>
<polygon fill="midnightblue" stroke="midnightblue" points="280.9,-153.46 280.12,-142.89 274.14,-151.64 280.9,-153.46"/>
</g>
<!-- Node8&#45;&gt;Node3 -->
<g id="edge9" class="edge">
<title>Node8&#45;&gt;Node3</title>
<path fill="none" stroke="midnightblue" d="M259.59,-112.4C243.08,-102.86 221.38,-90.32 204.96,-80.84"/>
<polygon fill="midnightblue" stroke="midnightblue" points="206.4,-77.63 195.99,-75.66 202.9,-83.69 206.4,-77.63"/>
</g>
<!-- Node9 -->
<g id="node9" class="node">
<title>Node9</title>
<g id="a_node9"><a xlink:href="platform_8hpp.html" target="_top" xlink:title="Provides platform and dependency checks.">
<polygon fill="white" stroke="black" points="238,-56.5 238,-75.5 364,-75.5 364,-56.5 238,-56.5"/>
<text text-anchor="middle" x="301" y="-63.5" font-family="Helvetica,sans-Serif" font-size="10.00">bio/meta/platform.hpp</text>
</a>
</g>
</g>
<!-- Node8&#45;&gt;Node9 -->
<g id="edge10" class="edge">
<title>Node8&#45;&gt;Node9</title>
<path fill="none" stroke="midnightblue" d="M288.03,-112.4C290.35,-104.29 293.28,-94.01 295.78,-85.28"/>
<polygon fill="midnightblue" stroke="midnightblue" points="299.14,-86.23 298.53,-75.66 292.41,-84.31 299.14,-86.23"/>
</g>
<!-- Node10 -->
<g id="node10" class="node">
<title>Node10</title>
<g id="a_node10"><a target="_blank" xlink:href="https://en.cppreference.com/w/cpp/header/cinttypes.html" xlink:title=" ">
<polygon fill="white" stroke="black" points="194,-0.5 194,-19.5 256,-19.5 256,-0.5 194,-0.5"/>
<text text-anchor="middle" x="225" y="-7.5" font-family="Helvetica,sans-Serif" font-size="10.00">cinttypes</text>
</a>
</g>
</g>
<!-- Node9&#45;&gt;Node10 -->
<g id="edge11" class="edge">
<title>Node9&#45;&gt;Node10</title>
<path fill="none" stroke="midnightblue" d="M288.79,-56.32C277.22,-48.11 259.62,-35.6 245.84,-25.81"/>
<polygon fill="midnightblue" stroke="midnightblue" points="247.61,-22.77 237.43,-19.83 243.56,-28.48 247.61,-22.77"/>
</g>
<!-- Node11 -->
<g id="node11" class="node">
<title>Node11</title>
<g id="a_node11"><a target="_blank" xlink:href="https://en.cppreference.com/w/cpp/header/ciso646.html" xlink:title=" ">
<polygon fill="white" stroke="black" points="274,-0.5 274,-19.5 328,-19.5 328,-0.5 274,-0.5"/>
<text text-anchor="middle" x="301" y="-7.5" font-family="Helvetica,sans-Serif" font-size="10.00">ciso646</text>
</a>
</g>
</g>
<!-- Node9&#45;&gt;Node11 -->
<g id="edge12" class="edge">
<title>Node9&#45;&gt;Node11</title>
<path fill="none" stroke="midnightblue" d="M301,-56.08C301,-49.01 301,-38.86 301,-29.99"/>
<polygon fill="midnightblue" stroke="midnightblue" points="304.5,-29.75 301,-19.75 297.5,-29.75 304.5,-29.75"/>
</g>
<!-- Node12 -->
<g id="node12" class="node">
<title>Node12</title>
<g id="a_node12"><a target="_blank" xlink:href="https://en.cppreference.com/w/cpp/header/cstddef.html" xlink:title=" ">
<polygon fill="white" stroke="black" points="346.5,-0.5 346.5,-19.5 399.5,-19.5 399.5,-0.5 346.5,-0.5"/>
<text text-anchor="middle" x="373" y="-7.5" font-family="Helvetica,sans-Serif" font-size="10.00">cstddef</text>
</a>
</g>
</g>
<!-- Node9&#45;&gt;Node12 -->
<g id="edge13" class="edge">
<title>Node9&#45;&gt;Node12</title>
<path fill="none" stroke="midnightblue" d="M312.57,-56.32C323.42,-48.18 339.88,-35.84 352.88,-26.09"/>
<polygon fill="midnightblue" stroke="midnightblue" points="355.32,-28.63 361.22,-19.83 351.12,-23.03 355.32,-28.63"/>
</g>
<!-- Node13&#45;&gt;Node2 -->
<g id="edge16" class="edge">
<title>Node13&#45;&gt;Node2</title>
<path fill="none" stroke="midnightblue" d="M268.74,-324.5C257.99,-307.12 237.86,-277.31 215,-257 194.95,-239.18 168.4,-224.1 148.47,-214.09"/>
<polygon fill="midnightblue" stroke="midnightblue" points="149.79,-210.84 139.27,-209.59 146.72,-217.13 149.79,-210.84"/>
</g>
<!-- Node13&#45;&gt;Node3 -->
<g id="edge17" class="edge">
<title>Node13&#45;&gt;Node3</title>
<path fill="none" stroke="midnightblue" d="M273.73,-324.38C269.23,-307.15 259.82,-277.77 244,-257 228.06,-236.07 209.85,-243.96 197,-221 172.67,-177.53 175.18,-116.29 178.42,-85.79"/>
<polygon fill="midnightblue" stroke="midnightblue" points="181.91,-86.06 179.64,-75.71 174.97,-85.21 181.91,-86.06"/>
</g>
<!-- Node13&#45;&gt;Node4 -->
<g id="edge18" class="edge">
<title>Node13&#45;&gt;Node4</title>
<path fill="none" stroke="midnightblue" d="M308.25,-324.4C333.4,-313.04 368.45,-297.22 392.77,-286.24"/>
<polygon fill="midnightblue" stroke="midnightblue" points="394.48,-289.31 402.15,-282.01 391.6,-282.93 394.48,-289.31"/>
</g>
<!-- Node13&#45;&gt;Node6 -->
<g id="edge20" class="edge">
<title>Node13&#45;&gt;Node6</title>
<path fill="none" stroke="midnightblue" d="M246.41,-324.4C225.71,-314.86 198.18,-302.16 175.78,-291.84"/>
<polygon fill="midnightblue" stroke="midnightblue" points="177.08,-288.58 166.54,-287.58 174.15,-294.94 177.08,-288.58"/>
</g>
<!-- Node13&#45;&gt;Node9 -->
<g id="edge19" class="edge">
<title>Node13&#45;&gt;Node9</title>
<path fill="none" stroke="midnightblue" d="M284.94,-324.46C296.86,-302.84 319.45,-259.83 333,-221 344.72,-187.41 346.97,-178.35 351,-143 352.56,-129.31 356.61,-124.59 351,-112 345.43,-99.5 334.48,-89.01 324.25,-81.32"/>
<polygon fill="midnightblue" stroke="midnightblue" points="326.16,-78.38 315.95,-75.53 322.15,-84.12 326.16,-78.38"/>
</g>
</g>
</svg>
