<?xml version="1.0" encoding="UTF-8" standalone="no"?>
<!DOCTYPE svg PUBLIC "-//W3C//DTD SVG 1.1//EN"
 "http://www.w3.org/Graphics/SVG/1.1/DTD/svg11.dtd">
<!-- Generated by graphviz version 2.42.2 ()
 -->
<!-- Title: bio/meta/type_list/function.hpp Pages: 1 -->
<svg width="261pt" height="430pt"
 viewBox="0.00 0.00 260.50 430.00" xmlns="http://www.w3.org/2000/svg" xmlns:xlink="http://www.w3.org/1999/xlink">
<g id="graph0" class="graph" transform="scale(1 1) rotate(0) translate(4 426)">
<title>bio/meta/type_list/function.hpp</title>
<polygon fill="white" stroke="transparent" points="-4,4 -4,-426 256.5,-426 256.5,4 -4,4"/>
<!-- Node1 -->
<g id="node1" class="node">
<title>Node1</title>
<g id="a_node1"><a xlink:title="Provides algorithms for meta programming, parameter packs and bio::meta::type_list.">
<polygon fill="#bfbfbf" stroke="black" points="37,-391.5 37,-421.5 131,-421.5 131,-391.5 37,-391.5"/>
<text text-anchor="start" x="45" y="-409.5" font-family="Helvetica,sans-Serif" font-size="10.00">bio/meta/type_list</text>
<text text-anchor="middle" x="84" y="-398.5" font-family="Helvetica,sans-Serif" font-size="10.00">/function.hpp</text>
</a>
</g>
</g>
<!-- Node2 -->
<g id="node2" class="node">
<title>Node2</title>
<g id="a_node2"><a target="_blank" xlink:href="https://en.cppreference.com/w/cpp/header/concepts.html" xlink:title=" ">
<polygon fill="white" stroke="black" points="28,-190.5 28,-209.5 84,-209.5 84,-190.5 28,-190.5"/>
<text text-anchor="middle" x="56" y="-197.5" font-family="Helvetica,sans-Serif" font-size="10.00">concepts</text>
</a>
</g>
</g>
<!-- Node1&#45;&gt;Node2 -->
<g id="edge1" class="edge">
<title>Node1&#45;&gt;Node2</title>
<path fill="none" stroke="midnightblue" d="M77.71,-391.22C73.63,-381.27 68.6,-367.58 66,-355 56.1,-307.05 55.24,-249.08 55.56,-219.84"/>
<polygon fill="midnightblue" stroke="midnightblue" points="59.06,-219.85 55.73,-209.8 52.06,-219.74 59.06,-219.85"/>
</g>
<!-- Node3 -->
<g id="node3" class="node">
<title>Node3</title>
<g id="a_node3"><a target="_blank" xlink:href="https://en.cppreference.com/w/cpp/header/type_traits.html" xlink:title=" ">
<polygon fill="white" stroke="black" points="24,-56.5 24,-75.5 86,-75.5 86,-56.5 24,-56.5"/>
<text text-anchor="middle" x="55" y="-63.5" font-family="Helvetica,sans-Serif" font-size="10.00">type_traits</text>
</a>
</g>
</g>
<!-- Node1&#45;&gt;Node3 -->
<g id="edge2" class="edge">
<title>Node1&#45;&gt;Node3</title>
<path fill="none" stroke="midnightblue" d="M67,-391.18C42.46,-368.8 0,-322.94 0,-273.5 0,-273.5 0,-273.5 0,-199 0,-154.95 26.42,-108.54 42.64,-84.22"/>
<polygon fill="midnightblue" stroke="midnightblue" points="45.68,-85.97 48.47,-75.75 39.92,-82 45.68,-85.97"/>
</g>
<!-- Node4 -->
<g id="node4" class="node">
<title>Node4</title>
<g id="a_node4"><a target="_blank" xlink:href="https://en.cppreference.com/w/cpp/header/utility.html" xlink:title=" ">
<polygon fill="white" stroke="black" points="187,-330 187,-349 227,-349 227,-330 187,-330"/>
<text text-anchor="middle" x="207" y="-337" font-family="Helvetica,sans-Serif" font-size="10.00">utility</text>
</a>
</g>
</g>
<!-- Node1&#45;&gt;Node4 -->
<g id="edge3" class="edge">
<title>Node1&#45;&gt;Node4</title>
<path fill="none" stroke="midnightblue" d="M110.69,-391.4C131.89,-380.19 161.32,-364.64 182.05,-353.69"/>
<polygon fill="midnightblue" stroke="midnightblue" points="183.7,-356.77 190.9,-349.01 180.43,-350.58 183.7,-356.77"/>
</g>
<!-- Node5 -->
<g id="node5" class="node">
<title>Node5</title>
<g id="a_node5"><a xlink:href="type__list_8hpp.html" target="_top" xlink:title="Provides bio::meta::type_list.">
<polygon fill="white" stroke="black" points="75,-324.5 75,-354.5 169,-354.5 169,-324.5 75,-324.5"/>
<text text-anchor="start" x="83" y="-342.5" font-family="Helvetica,sans-Serif" font-size="10.00">bio/meta/type_list</text>
<text text-anchor="middle" x="122" y="-331.5" font-family="Helvetica,sans-Serif" font-size="10.00">/type_list.hpp</text>
</a>
</g>
</g>
<!-- Node1&#45;&gt;Node5 -->
<g id="edge4" class="edge">
<title>Node1&#45;&gt;Node5</title>
<path fill="none" stroke="midnightblue" d="M92.25,-391.4C97.03,-383.22 103.16,-372.73 108.62,-363.39"/>
<polygon fill="midnightblue" stroke="midnightblue" points="111.75,-364.98 113.77,-354.58 105.7,-361.44 111.75,-364.98"/>
</g>
<!-- Node6 -->
<g id="node6" class="node">
<title>Node6</title>
<g id="a_node6"><a xlink:href="template__inspection_8hpp.html" target="_top" xlink:title="Provides various traits to inspect templates.">
<polygon fill="white" stroke="black" points="75.5,-257.5 75.5,-287.5 200.5,-287.5 200.5,-257.5 75.5,-257.5"/>
<text text-anchor="start" x="83.5" y="-275.5" font-family="Helvetica,sans-Serif" font-size="10.00">bio/meta/type_traits</text>
<text text-anchor="middle" x="138" y="-264.5" font-family="Helvetica,sans-Serif" font-size="10.00">/template_inspection.hpp</text>
</a>
</g>
</g>
<!-- Node5&#45;&gt;Node6 -->
<g id="edge5" class="edge">
<title>Node5&#45;&gt;Node6</title>
<path fill="none" stroke="midnightblue" d="M125.47,-324.4C127.4,-316.56 129.85,-306.6 132.08,-297.57"/>
<polygon fill="midnightblue" stroke="midnightblue" points="135.54,-298.12 134.54,-287.58 128.75,-296.45 135.54,-298.12"/>
</g>
<!-- Node6&#45;&gt;Node2 -->
<g id="edge14" class="edge">
<title>Node6&#45;&gt;Node2</title>
<path fill="none" stroke="midnightblue" d="M121.41,-257.23C107.64,-245.39 88.09,-228.59 73.96,-216.44"/>
<polygon fill="midnightblue" stroke="midnightblue" points="76.21,-213.76 66.34,-209.89 71.64,-219.07 76.21,-213.76"/>
</g>
<!-- Node7 -->
<g id="node7" class="node">
<title>Node7</title>
<g id="a_node7"><a xlink:href="transformation__trait__or_8hpp.html" target="_top" xlink:title="Provides bio::meta::transformation_trait_or.">
<polygon fill="white" stroke="black" points="102,-179.5 102,-220.5 206,-220.5 206,-179.5 102,-179.5"/>
<text text-anchor="start" x="110" y="-208.5" font-family="Helvetica,sans-Serif" font-size="10.00">bio/meta/type_traits</text>
<text text-anchor="start" x="110" y="-197.5" font-family="Helvetica,sans-Serif" font-size="10.00">/transformation_trait</text>
<text text-anchor="middle" x="154" y="-186.5" font-family="Helvetica,sans-Serif" font-size="10.00">_or.hpp</text>
</a>
</g>
</g>
<!-- Node6&#45;&gt;Node7 -->
<g id="edge6" class="edge">
<title>Node6&#45;&gt;Node7</title>
<path fill="none" stroke="midnightblue" d="M141.24,-257.23C142.98,-249.57 145.19,-239.84 147.28,-230.63"/>
<polygon fill="midnightblue" stroke="midnightblue" points="150.75,-231.12 149.55,-220.59 143.93,-229.57 150.75,-231.12"/>
</g>
<!-- Node7&#45;&gt;Node3 -->
<g id="edge7" class="edge">
<title>Node7&#45;&gt;Node3</title>
<path fill="none" stroke="midnightblue" d="M128.53,-179.28C116.74,-169.28 103.12,-156.43 93,-143 79.31,-124.83 68.32,-100.97 61.75,-84.87"/>
<polygon fill="midnightblue" stroke="midnightblue" points="65,-83.58 58.09,-75.55 58.49,-86.14 65,-83.58"/>
</g>
<!-- Node8 -->
<g id="node8" class="node">
<title>Node8</title>
<g id="a_node8"><a xlink:href="meta_2type__traits_2concept_8hpp.html" target="_top" xlink:title="Provides the concepts bio::meta::transformation_trait and bio::meta::unary_type_trait.">
<polygon fill="white" stroke="black" points="102.5,-112.5 102.5,-142.5 205.5,-142.5 205.5,-112.5 102.5,-112.5"/>
<text text-anchor="start" x="110.5" y="-130.5" font-family="Helvetica,sans-Serif" font-size="10.00">bio/meta/type_traits</text>
<text text-anchor="middle" x="154" y="-119.5" font-family="Helvetica,sans-Serif" font-size="10.00">/concept.hpp</text>
</a>
</g>
</g>
<!-- Node7&#45;&gt;Node8 -->
<g id="edge8" class="edge">
<title>Node7&#45;&gt;Node8</title>
<path fill="none" stroke="midnightblue" d="M154,-179.36C154,-171.23 154,-161.7 154,-153.11"/>
<polygon fill="midnightblue" stroke="midnightblue" points="157.5,-152.89 154,-142.89 150.5,-152.89 157.5,-152.89"/>
</g>
<!-- Node8&#45;&gt;Node3 -->
<g id="edge9" class="edge">
<title>Node8&#45;&gt;Node3</title>
<path fill="none" stroke="midnightblue" d="M130.54,-112.4C114.67,-102.86 93.81,-90.32 78.03,-80.84"/>
<polygon fill="midnightblue" stroke="midnightblue" points="79.78,-77.81 69.41,-75.66 76.17,-83.81 79.78,-77.81"/>
</g>
<!-- Node9 -->
<g id="node9" class="node">
<title>Node9</title>
<g id="a_node9"><a xlink:href="platform_8hpp.html" target="_top" xlink:title="Provides platform and dependency checks.">
<polygon fill="white" stroke="black" points="104.5,-56.5 104.5,-75.5 215.5,-75.5 215.5,-56.5 104.5,-56.5"/>
<text text-anchor="middle" x="160" y="-63.5" font-family="Helvetica,sans-Serif" font-size="10.00">bio/meta/platform.hpp</text>
</a>
</g>
</g>
<!-- Node8&#45;&gt;Node9 -->
<g id="edge10" class="edge">
<title>Node8&#45;&gt;Node9</title>
<path fill="none" stroke="midnightblue" d="M155.42,-112.4C156.22,-104.47 157.23,-94.46 158.1,-85.86"/>
<polygon fill="midnightblue" stroke="midnightblue" points="161.61,-85.96 159.13,-75.66 154.64,-85.26 161.61,-85.96"/>
</g>
<!-- Node10 -->
<g id="node10" class="node">
<title>Node10</title>
<g id="a_node10"><a target="_blank" xlink:href="https://en.cppreference.com/w/cpp/header/cinttypes.html" xlink:title=" ">
<polygon fill="white" stroke="black" points="61,-0.5 61,-19.5 117,-19.5 117,-0.5 61,-0.5"/>
<text text-anchor="middle" x="89" y="-7.5" font-family="Helvetica,sans-Serif" font-size="10.00">cinttypes</text>
</a>
</g>
</g>
<!-- Node9&#45;&gt;Node10 -->
<g id="edge11" class="edge">
<title>Node9&#45;&gt;Node10</title>
<path fill="none" stroke="midnightblue" d="M148.59,-56.32C137.89,-48.18 121.66,-35.84 108.84,-26.09"/>
<polygon fill="midnightblue" stroke="midnightblue" points="110.69,-23.1 100.61,-19.83 106.46,-28.67 110.69,-23.1"/>
</g>
<!-- Node11 -->
<g id="node11" class="node">
<title>Node11</title>
<g id="a_node11"><a target="_blank" xlink:href="https://en.cppreference.com/w/cpp/header/ciso646.html" xlink:title=" ">
<polygon fill="white" stroke="black" points="135,-0.5 135,-19.5 185,-19.5 185,-0.5 135,-0.5"/>
<text text-anchor="middle" x="160" y="-7.5" font-family="Helvetica,sans-Serif" font-size="10.00">ciso646</text>
</a>
</g>
</g>
<!-- Node9&#45;&gt;Node11 -->
<g id="edge12" class="edge">
<title>Node9&#45;&gt;Node11</title>
<path fill="none" stroke="midnightblue" d="M160,-56.08C160,-49.01 160,-38.86 160,-29.99"/>
<polygon fill="midnightblue" stroke="midnightblue" points="163.5,-29.75 160,-19.75 156.5,-29.75 163.5,-29.75"/>
</g>
<!-- Node12 -->
<g id="node12" class="node">
<title>Node12</title>
<g id="a_node12"><a target="_blank" xlink:href="https://en.cppreference.com/w/cpp/header/cstddef.html" xlink:title=" ">
<polygon fill="white" stroke="black" points="203.5,-0.5 203.5,-19.5 252.5,-19.5 252.5,-0.5 203.5,-0.5"/>
<text text-anchor="middle" x="228" y="-7.5" font-family="Helvetica,sans-Serif" font-size="10.00">cstddef</text>
</a>
</g>
</g>
<!-- Node9&#45;&gt;Node12 -->
<g id="edge13" class="edge">
<title>Node9&#45;&gt;Node12</title>
<path fill="none" stroke="midnightblue" d="M170.93,-56.32C181.17,-48.18 196.72,-35.84 209,-26.09"/>
<polygon fill="midnightblue" stroke="midnightblue" points="211.22,-28.79 216.88,-19.83 206.87,-23.31 211.22,-28.79"/>
</g>
</g>
</svg>
