<?xml version="1.0" encoding="UTF-8" standalone="no"?>
<!DOCTYPE svg PUBLIC "-//W3C//DTD SVG 1.1//EN"
 "http://www.w3.org/Graphics/SVG/1.1/DTD/svg11.dtd">
<!-- Generated by graphviz version 2.43.0 (0)
 -->
<!-- Title: bio/alphabet/custom/uint.hpp Pages: 1 -->
<svg width="863pt" height="341pt"
 viewBox="0.00 0.00 862.50 341.00" xmlns="http://www.w3.org/2000/svg" xmlns:xlink="http://www.w3.org/1999/xlink">
<g id="graph0" class="graph" transform="scale(1 1) rotate(0) translate(4 337)">
<title>bio/alphabet/custom/uint.hpp</title>
<polygon fill="white" stroke="transparent" points="-4,4 -4,-337 858.5,-337 858.5,4 -4,4"/>
<!-- Node1 -->
<g id="node1" class="node">
<title>Node1</title>
<g id="a_node1"><a xlink:title="Provides alphabet adaptations for standard uint types.">
<polygon fill="#bfbfbf" stroke="black" points="101.5,-302.5 101.5,-332.5 217.5,-332.5 217.5,-302.5 101.5,-302.5"/>
<text text-anchor="start" x="109.5" y="-320.5" font-family="Helvetica,sans-Serif" font-size="10.00">bio/alphabet/custom</text>
<text text-anchor="middle" x="159.5" y="-309.5" font-family="Helvetica,sans-Serif" font-size="10.00">/uint.hpp</text>
</a>
</g>
</g>
<!-- Node2 -->
<g id="node2" class="node">
<title>Node2</title>
<g id="a_node2"><a xlink:href="alphabet_2concept_8hpp.html" target="_top" xlink:title="Core alphabet concept and free function/type trait wrappers.">
<polygon fill="white" stroke="black" points="218.5,-246.5 218.5,-265.5 358.5,-265.5 358.5,-246.5 218.5,-246.5"/>
<text text-anchor="middle" x="288.5" y="-253.5" font-family="Helvetica,sans-Serif" font-size="10.00">bio/alphabet/concept.hpp</text>
</a>
</g>
</g>
<!-- Node1&#45;&gt;Node2 -->
<g id="edge1" class="edge">
<title>Node1&#45;&gt;Node2</title>
<path fill="none" stroke="midnightblue" d="M190.07,-302.4C211.43,-292.55 239.72,-279.5 260.48,-269.92"/>
<polygon fill="midnightblue" stroke="midnightblue" points="262.11,-273.02 269.73,-265.66 259.18,-266.67 262.11,-273.02"/>
</g>
<!-- Node21 -->
<g id="node21" class="node">
<title>Node21</title>
<g id="a_node21"><a xlink:href="int__types_8hpp.html" target="_top" xlink:title="Provides metaprogramming utilities for integer types.">
<polygon fill="white" stroke="black" points="59,-112.5 59,-142.5 166,-142.5 166,-112.5 59,-112.5"/>
<text text-anchor="start" x="67" y="-130.5" font-family="Helvetica,sans-Serif" font-size="10.00">bio/meta/detail/int</text>
<text text-anchor="middle" x="112.5" y="-119.5" font-family="Helvetica,sans-Serif" font-size="10.00">_types.hpp</text>
</a>
</g>
</g>
<!-- Node1&#45;&gt;Node21 -->
<g id="edge30" class="edge">
<title>Node1&#45;&gt;Node21</title>
<path fill="none" stroke="midnightblue" d="M136.09,-302.29C109.35,-284.53 67.03,-251.36 49.5,-210 44.12,-197.31 43.54,-191.42 49.5,-179 55.45,-166.61 66.07,-156.31 76.93,-148.31"/>
<polygon fill="midnightblue" stroke="midnightblue" points="78.93,-151.18 85.2,-142.64 74.97,-145.41 78.93,-151.18"/>
</g>
<!-- Node3 -->
<g id="node3" class="node">
<title>Node3</title>
<g id="a_node3"><a target="_blank" xlink:href="https://en.cppreference.com/w/cpp/header/type_traits.html" xlink:title=" ">
<polygon fill="white" stroke="black" points="0,-56.5 0,-75.5 69,-75.5 69,-56.5 0,-56.5"/>
<text text-anchor="middle" x="34.5" y="-63.5" font-family="Helvetica,sans-Serif" font-size="10.00">type_traits</text>
</a>
</g>
</g>
<!-- Node2&#45;&gt;Node3 -->
<g id="edge2" class="edge">
<title>Node2&#45;&gt;Node3</title>
<path fill="none" stroke="midnightblue" d="M218.43,-250.24C156.75,-244.59 73.18,-232.89 49.5,-210 15.93,-177.56 23.4,-116.19 29.87,-85.48"/>
<polygon fill="midnightblue" stroke="midnightblue" points="33.3,-86.19 32.13,-75.66 26.47,-84.62 33.3,-86.19"/>
</g>
<!-- Node4 -->
<g id="node4" class="node">
<title>Node4</title>
<g id="a_node4"><a xlink:href="exception_8hpp.html" target="_top" xlink:title="Exceptions thrown by entities in the alphabet module.">
<polygon fill="white" stroke="black" points="485,-118 485,-137 634,-137 634,-118 485,-118"/>
<text text-anchor="middle" x="559.5" y="-125" font-family="Helvetica,sans-Serif" font-size="10.00">bio/alphabet/exception.hpp</text>
</a>
</g>
</g>
<!-- Node2&#45;&gt;Node4 -->
<g id="edge3" class="edge">
<title>Node2&#45;&gt;Node4</title>
<path fill="none" stroke="midnightblue" d="M358.53,-248.9C418.62,-242.39 499.38,-230.18 524.5,-210 543.88,-194.43 552.73,-166.1 556.63,-147.28"/>
<polygon fill="midnightblue" stroke="midnightblue" points="560.11,-147.69 558.43,-137.23 553.22,-146.46 560.11,-147.69"/>
</g>
<!-- Node8 -->
<g id="node8" class="node">
<title>Node8</title>
<g id="a_node8"><a xlink:href="core_8hpp.html" target="_top" xlink:title="Provides platform and dependency checks.">
<polygon fill="white" stroke="black" points="383,-56.5 383,-75.5 460,-75.5 460,-56.5 383,-56.5"/>
<text text-anchor="middle" x="421.5" y="-63.5" font-family="Helvetica,sans-Serif" font-size="10.00">bio/core.hpp</text>
</a>
</g>
</g>
<!-- Node2&#45;&gt;Node8 -->
<g id="edge13" class="edge">
<title>Node2&#45;&gt;Node8</title>
<path fill="none" stroke="midnightblue" d="M358.53,-248.73C410.42,-242.46 474.89,-230.69 491.5,-210 500.12,-199.26 495.3,-192.24 491.5,-179 485.7,-158.78 452.26,-110.02 433.78,-84.01"/>
<polygon fill="midnightblue" stroke="midnightblue" points="436.39,-81.64 427.72,-75.55 430.7,-85.72 436.39,-81.64"/>
</g>
<!-- Node12 -->
<g id="node12" class="node">
<title>Node12</title>
<g id="a_node12"><a xlink:href="tag_8hpp.html" target="_top" xlink:title="Provides the customisation tags for the alphabet concepts.">
<polygon fill="white" stroke="black" points="230.5,-179.5 230.5,-209.5 346.5,-209.5 346.5,-179.5 230.5,-179.5"/>
<text text-anchor="start" x="238.5" y="-197.5" font-family="Helvetica,sans-Serif" font-size="10.00">bio/alphabet/custom</text>
<text text-anchor="middle" x="288.5" y="-186.5" font-family="Helvetica,sans-Serif" font-size="10.00">/tag.hpp</text>
</a>
</g>
</g>
<!-- Node2&#45;&gt;Node12 -->
<g id="edge12" class="edge">
<title>Node2&#45;&gt;Node12</title>
<path fill="none" stroke="midnightblue" d="M288.5,-246.48C288.5,-239.47 288.5,-229.19 288.5,-219.7"/>
<polygon fill="midnightblue" stroke="midnightblue" points="292,-219.52 288.5,-209.52 285,-219.52 292,-219.52"/>
</g>
<!-- Node13 -->
<g id="node13" class="node">
<title>Node13</title>
<g id="a_node13"><a xlink:href="core__language_8hpp.html" target="_top" xlink:title="Provides concepts for core language types and relations that don&#39;t have concepts in C++20 (yet).">
<polygon fill="white" stroke="black" points="243,-112.5 243,-142.5 368,-142.5 368,-112.5 243,-112.5"/>
<text text-anchor="start" x="251" y="-130.5" font-family="Helvetica,sans-Serif" font-size="10.00">bio/meta/concept/core</text>
<text text-anchor="middle" x="305.5" y="-119.5" font-family="Helvetica,sans-Serif" font-size="10.00">_language.hpp</text>
</a>
</g>
</g>
<!-- Node2&#45;&gt;Node13 -->
<g id="edge14" class="edge">
<title>Node2&#45;&gt;Node13</title>
<path fill="none" stroke="midnightblue" d="M265.71,-246.47C250.17,-239.32 230.79,-227.44 221.5,-210 215.02,-197.84 214.72,-190.99 221.5,-179 229.27,-165.27 242.42,-154.86 256.04,-147.17"/>
<polygon fill="midnightblue" stroke="midnightblue" points="257.76,-150.22 265.01,-142.5 254.53,-144.02 257.76,-150.22"/>
</g>
<!-- Node14 -->
<g id="node14" class="node">
<title>Node14</title>
<g id="a_node14"><a xlink:href="type__inspection_8hpp.html" target="_top" xlink:title="Provides traits to inspect some information of a type, for example its name.">
<polygon fill="white" stroke="black" points="651.5,-112.5 651.5,-142.5 767.5,-142.5 767.5,-112.5 651.5,-112.5"/>
<text text-anchor="start" x="659.5" y="-130.5" font-family="Helvetica,sans-Serif" font-size="10.00">bio/meta/detail/type</text>
<text text-anchor="middle" x="709.5" y="-119.5" font-family="Helvetica,sans-Serif" font-size="10.00">_inspection.hpp</text>
</a>
</g>
</g>
<!-- Node2&#45;&gt;Node14 -->
<g id="edge18" class="edge">
<title>Node2&#45;&gt;Node14</title>
<path fill="none" stroke="midnightblue" d="M358.58,-248.69C411.94,-242.51 486.67,-230.89 549.5,-210 596.62,-194.34 647.04,-166.62 678.42,-147.9"/>
<polygon fill="midnightblue" stroke="midnightblue" points="680.38,-150.81 687.13,-142.65 676.76,-144.82 680.38,-150.81"/>
</g>
<!-- Node18 -->
<g id="node18" class="node">
<title>Node18</title>
<g id="a_node18"><a xlink:href="priority__tag_8hpp.html" target="_top" xlink:title="provides bio::meta::priority_tag.">
<polygon fill="white" stroke="black" points="365,-179.5 365,-209.5 482,-209.5 482,-179.5 365,-179.5"/>
<text text-anchor="start" x="373" y="-197.5" font-family="Helvetica,sans-Serif" font-size="10.00">bio/meta/tag/priority</text>
<text text-anchor="middle" x="423.5" y="-186.5" font-family="Helvetica,sans-Serif" font-size="10.00">_tag.hpp</text>
</a>
</g>
</g>
<!-- Node2&#45;&gt;Node18 -->
<g id="edge24" class="edge">
<title>Node2&#45;&gt;Node18</title>
<path fill="none" stroke="midnightblue" d="M307.84,-246.48C327.24,-237.93 357.7,-224.5 382.49,-213.57"/>
<polygon fill="midnightblue" stroke="midnightblue" points="383.94,-216.76 391.68,-209.52 381.12,-210.35 383.94,-216.76"/>
</g>
<!-- Node19 -->
<g id="node19" class="node">
<title>Node19</title>
<g id="a_node19"><a xlink:href="basic_8hpp.html" target="_top" xlink:title="Provides various type traits on generic types.">
<polygon fill="white" stroke="black" points="58.5,-179.5 58.5,-209.5 174.5,-209.5 174.5,-179.5 58.5,-179.5"/>
<text text-anchor="start" x="66.5" y="-197.5" font-family="Helvetica,sans-Serif" font-size="10.00">bio/meta/type_traits</text>
<text text-anchor="middle" x="116.5" y="-186.5" font-family="Helvetica,sans-Serif" font-size="10.00">/basic.hpp</text>
</a>
</g>
</g>
<!-- Node2&#45;&gt;Node19 -->
<g id="edge26" class="edge">
<title>Node2&#45;&gt;Node19</title>
<path fill="none" stroke="midnightblue" d="M263.86,-246.48C238.6,-237.74 198.62,-223.91 166.67,-212.86"/>
<polygon fill="midnightblue" stroke="midnightblue" points="167.63,-209.48 157.04,-209.52 165.34,-216.1 167.63,-209.48"/>
</g>
<!-- Node5 -->
<g id="node5" class="node">
<title>Node5</title>
<g id="a_node5"><a target="_blank" xlink:href="https://en.cppreference.com/w/cpp/header/concepts.html" xlink:title=" ">
<polygon fill="white" stroke="black" points="275.5,-56.5 275.5,-75.5 335.5,-75.5 335.5,-56.5 275.5,-56.5"/>
<text text-anchor="middle" x="305.5" y="-63.5" font-family="Helvetica,sans-Serif" font-size="10.00">concepts</text>
</a>
</g>
</g>
<!-- Node4&#45;&gt;Node5 -->
<g id="edge4" class="edge">
<title>Node4&#45;&gt;Node5</title>
<path fill="none" stroke="midnightblue" d="M523.11,-117.98C476.11,-106.97 394.56,-87.86 345.75,-76.43"/>
<polygon fill="midnightblue" stroke="midnightblue" points="346.4,-72.99 335.86,-74.11 344.8,-79.8 346.4,-72.99"/>
</g>
<!-- Node6 -->
<g id="node6" class="node">
<title>Node6</title>
<g id="a_node6"><a target="_blank" xlink:href="https://en.cppreference.com/w/cpp/header/stdexcept.html" xlink:title=" ">
<polygon fill="white" stroke="black" points="478,-56.5 478,-75.5 543,-75.5 543,-56.5 478,-56.5"/>
<text text-anchor="middle" x="510.5" y="-63.5" font-family="Helvetica,sans-Serif" font-size="10.00">stdexcept</text>
</a>
</g>
</g>
<!-- Node4&#45;&gt;Node6 -->
<g id="edge5" class="edge">
<title>Node4&#45;&gt;Node6</title>
<path fill="none" stroke="midnightblue" d="M552.48,-117.98C545.06,-108.96 533.17,-94.52 523.93,-83.31"/>
<polygon fill="midnightblue" stroke="midnightblue" points="526.57,-81 517.51,-75.51 521.16,-85.45 526.57,-81"/>
</g>
<!-- Node7 -->
<g id="node7" class="node">
<title>Node7</title>
<g id="a_node7"><a target="_blank" xlink:href="https://en.cppreference.com/w/cpp/header/string.html" xlink:title=" ">
<polygon fill="white" stroke="black" points="549.5,-0.5 549.5,-19.5 593.5,-19.5 593.5,-0.5 549.5,-0.5"/>
<text text-anchor="middle" x="571.5" y="-7.5" font-family="Helvetica,sans-Serif" font-size="10.00">string</text>
</a>
</g>
</g>
<!-- Node4&#45;&gt;Node7 -->
<g id="edge6" class="edge">
<title>Node4&#45;&gt;Node7</title>
<path fill="none" stroke="midnightblue" d="M560.4,-117.82C562.33,-99.26 566.89,-55.34 569.53,-29.97"/>
<polygon fill="midnightblue" stroke="midnightblue" points="573.04,-30.09 570.59,-19.78 566.07,-29.37 573.04,-30.09"/>
</g>
<!-- Node4&#45;&gt;Node8 -->
<g id="edge7" class="edge">
<title>Node4&#45;&gt;Node8</title>
<path fill="none" stroke="midnightblue" d="M539.73,-117.98C516.36,-107.9 477.29,-91.05 450.5,-79.5"/>
<polygon fill="midnightblue" stroke="midnightblue" points="451.8,-76.25 441.24,-75.51 449.03,-82.68 451.8,-76.25"/>
</g>
<!-- Node8&#45;&gt;Node7 -->
<g id="edge11" class="edge">
<title>Node8&#45;&gt;Node7</title>
<path fill="none" stroke="midnightblue" d="M445.27,-56.44C470.84,-47.24 511.62,-32.56 539.88,-22.38"/>
<polygon fill="midnightblue" stroke="midnightblue" points="541.09,-25.67 549.31,-18.99 538.72,-19.08 541.09,-25.67"/>
</g>
<!-- Node9 -->
<g id="node9" class="node">
<title>Node9</title>
<g id="a_node9"><a target="_blank" xlink:href="https://en.cppreference.com/w/cpp/header/cinttypes.html" xlink:title=" ">
<polygon fill="white" stroke="black" points="390.5,-0.5 390.5,-19.5 452.5,-19.5 452.5,-0.5 390.5,-0.5"/>
<text text-anchor="middle" x="421.5" y="-7.5" font-family="Helvetica,sans-Serif" font-size="10.00">cinttypes</text>
</a>
</g>
</g>
<!-- Node8&#45;&gt;Node9 -->
<g id="edge8" class="edge">
<title>Node8&#45;&gt;Node9</title>
<path fill="none" stroke="midnightblue" d="M421.5,-56.08C421.5,-49.01 421.5,-38.86 421.5,-29.99"/>
<polygon fill="midnightblue" stroke="midnightblue" points="425,-29.75 421.5,-19.75 418,-29.75 425,-29.75"/>
</g>
<!-- Node10 -->
<g id="node10" class="node">
<title>Node10</title>
<g id="a_node10"><a target="_blank" xlink:href="https://en.cppreference.com/w/cpp/header/ciso646.html" xlink:title=" ">
<polygon fill="white" stroke="black" points="470.5,-0.5 470.5,-19.5 524.5,-19.5 524.5,-0.5 470.5,-0.5"/>
<text text-anchor="middle" x="497.5" y="-7.5" font-family="Helvetica,sans-Serif" font-size="10.00">ciso646</text>
</a>
</g>
</g>
<!-- Node8&#45;&gt;Node10 -->
<g id="edge9" class="edge">
<title>Node8&#45;&gt;Node10</title>
<path fill="none" stroke="midnightblue" d="M433.71,-56.32C445.28,-48.11 462.88,-35.6 476.66,-25.81"/>
<polygon fill="midnightblue" stroke="midnightblue" points="478.94,-28.48 485.07,-19.83 474.89,-22.77 478.94,-28.48"/>
</g>
<!-- Node11 -->
<g id="node11" class="node">
<title>Node11</title>
<g id="a_node11"><a target="_blank" xlink:href="https://en.cppreference.com/w/cpp/header/cstddef.html" xlink:title=" ">
<polygon fill="white" stroke="black" points="319,-0.5 319,-19.5 372,-19.5 372,-0.5 319,-0.5"/>
<text text-anchor="middle" x="345.5" y="-7.5" font-family="Helvetica,sans-Serif" font-size="10.00">cstddef</text>
</a>
</g>
</g>
<!-- Node8&#45;&gt;Node11 -->
<g id="edge10" class="edge">
<title>Node8&#45;&gt;Node11</title>
<path fill="none" stroke="midnightblue" d="M409.29,-56.32C397.72,-48.11 380.12,-35.6 366.34,-25.81"/>
<polygon fill="midnightblue" stroke="midnightblue" points="368.11,-22.77 357.93,-19.83 364.06,-28.48 368.11,-22.77"/>
</g>
<!-- Node13&#45;&gt;Node3 -->
<g id="edge16" class="edge">
<title>Node13&#45;&gt;Node3</title>
<path fill="none" stroke="midnightblue" d="M242.99,-112.77C192.96,-101.79 124,-86.65 79.34,-76.84"/>
<polygon fill="midnightblue" stroke="midnightblue" points="79.88,-73.38 69.36,-74.65 78.38,-80.22 79.88,-73.38"/>
</g>
<!-- Node13&#45;&gt;Node5 -->
<g id="edge15" class="edge">
<title>Node13&#45;&gt;Node5</title>
<path fill="none" stroke="midnightblue" d="M305.5,-112.4C305.5,-104.47 305.5,-94.46 305.5,-85.86"/>
<polygon fill="midnightblue" stroke="midnightblue" points="309,-85.66 305.5,-75.66 302,-85.66 309,-85.66"/>
</g>
<!-- Node13&#45;&gt;Node8 -->
<g id="edge17" class="edge">
<title>Node13&#45;&gt;Node8</title>
<path fill="none" stroke="midnightblue" d="M332.99,-112.4C351.93,-102.68 376.94,-89.86 395.54,-80.31"/>
<polygon fill="midnightblue" stroke="midnightblue" points="397.32,-83.34 404.62,-75.66 394.13,-77.11 397.32,-83.34"/>
</g>
<!-- Node14&#45;&gt;Node7 -->
<g id="edge21" class="edge">
<title>Node14&#45;&gt;Node7</title>
<path fill="none" stroke="midnightblue" d="M727.38,-112.24C743.77,-97.44 763.51,-73.99 749.5,-56 731.79,-33.25 650.22,-20.18 603.89,-14.47"/>
<polygon fill="midnightblue" stroke="midnightblue" points="604.09,-10.97 593.75,-13.27 603.27,-17.92 604.09,-10.97"/>
</g>
<!-- Node14&#45;&gt;Node8 -->
<g id="edge23" class="edge">
<title>Node14&#45;&gt;Node8</title>
<path fill="none" stroke="midnightblue" d="M651.21,-113.64C648.6,-113.08 646.03,-112.53 643.5,-112 583.89,-99.41 515.12,-85.58 470.11,-76.62"/>
<polygon fill="midnightblue" stroke="midnightblue" points="470.53,-73.13 460.04,-74.61 469.17,-80 470.53,-73.13"/>
</g>
<!-- Node15 -->
<g id="node15" class="node">
<title>Node15</title>
<g id="a_node15"><a target="_blank" xlink:href="https://en.cppreference.com/w/cpp/header/functional.html" xlink:title=" ">
<polygon fill="white" stroke="black" points="675,-56.5 675,-75.5 740,-75.5 740,-56.5 675,-56.5"/>
<text text-anchor="middle" x="707.5" y="-63.5" font-family="Helvetica,sans-Serif" font-size="10.00">functional</text>
</a>
</g>
</g>
<!-- Node14&#45;&gt;Node15 -->
<g id="edge19" class="edge">
<title>Node14&#45;&gt;Node15</title>
<path fill="none" stroke="midnightblue" d="M709.03,-112.4C708.76,-104.47 708.42,-94.46 708.13,-85.86"/>
<polygon fill="midnightblue" stroke="midnightblue" points="711.63,-85.53 707.79,-75.66 704.63,-85.77 711.63,-85.53"/>
</g>
<!-- Node16 -->
<g id="node16" class="node">
<title>Node16</title>
<g id="a_node16"><a target="_blank" xlink:href="https://en.cppreference.com/w/cpp/header/memory.html" xlink:title=" ">
<polygon fill="white" stroke="black" points="796.5,-56.5 796.5,-75.5 854.5,-75.5 854.5,-56.5 796.5,-56.5"/>
<text text-anchor="middle" x="825.5" y="-63.5" font-family="Helvetica,sans-Serif" font-size="10.00">memory</text>
</a>
</g>
</g>
<!-- Node14&#45;&gt;Node16 -->
<g id="edge20" class="edge">
<title>Node14&#45;&gt;Node16</title>
<path fill="none" stroke="midnightblue" d="M736.99,-112.4C755.93,-102.68 780.94,-89.86 799.54,-80.31"/>
<polygon fill="midnightblue" stroke="midnightblue" points="801.32,-83.34 808.62,-75.66 798.13,-77.11 801.32,-83.34"/>
</g>
<!-- Node17 -->
<g id="node17" class="node">
<title>Node17</title>
<g id="a_node17"><a target="_blank" xlink:href="https://en.cppreference.com/w/cpp/header/typeinfo.html" xlink:title=" ">
<polygon fill="white" stroke="black" points="600,-56.5 600,-75.5 657,-75.5 657,-56.5 600,-56.5"/>
<text text-anchor="middle" x="628.5" y="-63.5" font-family="Helvetica,sans-Serif" font-size="10.00">typeinfo</text>
</a>
</g>
</g>
<!-- Node14&#45;&gt;Node17 -->
<g id="edge22" class="edge">
<title>Node14&#45;&gt;Node17</title>
<path fill="none" stroke="midnightblue" d="M690.3,-112.4C677.68,-103.13 661.21,-91.03 648.44,-81.65"/>
<polygon fill="midnightblue" stroke="midnightblue" points="650.42,-78.76 640.29,-75.66 646.27,-84.4 650.42,-78.76"/>
</g>
<!-- Node18&#45;&gt;Node8 -->
<g id="edge25" class="edge">
<title>Node18&#45;&gt;Node8</title>
<path fill="none" stroke="midnightblue" d="M423.28,-179.48C422.92,-156.72 422.21,-111.7 421.8,-86.06"/>
<polygon fill="midnightblue" stroke="midnightblue" points="425.3,-85.73 421.64,-75.79 418.3,-85.84 425.3,-85.73"/>
</g>
<!-- Node19&#45;&gt;Node3 -->
<g id="edge28" class="edge">
<title>Node19&#45;&gt;Node3</title>
<path fill="none" stroke="midnightblue" d="M89.42,-179.48C75.37,-170.83 59.17,-158.43 49.5,-143 38.69,-125.76 35.42,-102.36 34.55,-86.09"/>
<polygon fill="midnightblue" stroke="midnightblue" points="38.04,-85.6 34.27,-75.7 31.04,-85.79 38.04,-85.6"/>
</g>
<!-- Node19&#45;&gt;Node13 -->
<g id="edge29" class="edge">
<title>Node19&#45;&gt;Node13</title>
<path fill="none" stroke="midnightblue" d="M157.51,-179.4C186.12,-169.56 224.47,-156.37 254.97,-145.88"/>
<polygon fill="midnightblue" stroke="midnightblue" points="256.25,-149.14 264.57,-142.58 253.98,-142.52 256.25,-149.14"/>
</g>
<!-- Node20 -->
<g id="node20" class="node">
<title>Node20</title>
<g id="a_node20"><a target="_blank" xlink:href="https://en.cppreference.com/w/cpp/header/tuple.html" xlink:title=" ">
<polygon fill="white" stroke="black" points="184,-118 184,-137 225,-137 225,-118 184,-118"/>
<text text-anchor="middle" x="204.5" y="-125" font-family="Helvetica,sans-Serif" font-size="10.00">tuple</text>
</a>
</g>
</g>
<!-- Node19&#45;&gt;Node20 -->
<g id="edge27" class="edge">
<title>Node19&#45;&gt;Node20</title>
<path fill="none" stroke="midnightblue" d="M135.59,-179.4C150.08,-168.7 169.93,-154.03 184.61,-143.19"/>
<polygon fill="midnightblue" stroke="midnightblue" points="187.02,-145.76 192.98,-137.01 182.86,-140.13 187.02,-145.76"/>
</g>
<!-- Node21&#45;&gt;Node3 -->
<g id="edge33" class="edge">
<title>Node21&#45;&gt;Node3</title>
<path fill="none" stroke="midnightblue" d="M94.02,-112.4C81.98,-103.22 66.3,-91.26 54.06,-81.92"/>
<polygon fill="midnightblue" stroke="midnightblue" points="55.92,-78.94 45.85,-75.66 51.68,-84.51 55.92,-78.94"/>
</g>
<!-- Node21&#45;&gt;Node5 -->
<g id="edge31" class="edge">
<title>Node21&#45;&gt;Node5</title>
<path fill="none" stroke="midnightblue" d="M158.24,-112.4C191.73,-102.07 236.63,-88.23 268.02,-78.56"/>
<polygon fill="midnightblue" stroke="midnightblue" points="269.17,-81.86 277.7,-75.57 267.11,-75.17 269.17,-81.86"/>
</g>
<!-- Node21&#45;&gt;Node8 -->
<g id="edge34" class="edge">
<title>Node21&#45;&gt;Node8</title>
<path fill="none" stroke="midnightblue" d="M166.08,-113.99C169.26,-113.31 172.42,-112.64 175.5,-112 243.58,-97.95 322.73,-83.87 372.47,-75.3"/>
<polygon fill="midnightblue" stroke="midnightblue" points="373.36,-78.69 382.62,-73.55 372.17,-71.79 373.36,-78.69"/>
</g>
<!-- Node22 -->
<g id="node22" class="node">
<title>Node22</title>
<g id="a_node22"><a target="_blank" xlink:href="https://en.cppreference.com/w/cpp/header/limits.html" xlink:title=" ">
<polygon fill="white" stroke="black" points="90.5,-56.5 90.5,-75.5 134.5,-75.5 134.5,-56.5 90.5,-56.5"/>
<text text-anchor="middle" x="112.5" y="-63.5" font-family="Helvetica,sans-Serif" font-size="10.00">limits</text>
</a>
</g>
</g>
<!-- Node21&#45;&gt;Node22 -->
<g id="edge32" class="edge">
<title>Node21&#45;&gt;Node22</title>
<path fill="none" stroke="midnightblue" d="M112.5,-112.4C112.5,-104.47 112.5,-94.46 112.5,-85.86"/>
<polygon fill="midnightblue" stroke="midnightblue" points="116,-85.66 112.5,-75.66 109,-85.66 116,-85.66"/>
</g>
</g>
</svg>
