<?xml version="1.0" encoding="UTF-8" standalone="no"?>
<!DOCTYPE svg PUBLIC "-//W3C//DTD SVG 1.1//EN"
 "http://www.w3.org/Graphics/SVG/1.1/DTD/svg11.dtd">
<!-- Generated by graphviz version 2.43.0 (0)
 -->
<!-- Title: bio/alphabet/custom/uint.hpp Pages: 1 -->
<svg width="452pt" height="214pt"
 viewBox="0.00 0.00 452.00 214.00" xmlns="http://www.w3.org/2000/svg" xmlns:xlink="http://www.w3.org/1999/xlink">
<g id="graph0" class="graph" transform="scale(1 1) rotate(0) translate(4 210)">
<title>bio/alphabet/custom/uint.hpp</title>
<!-- Node1 -->
<g id="node1" class="node">
<title>Node1</title>
<g id="a_node1"><a xlink:title="Provides alphabet adaptations for standard uint types.">
<polygon fill="#999999" stroke="#666666" points="231,-206 127,-206 127,-176 231,-176 231,-206"/>
<text text-anchor="start" x="135" y="-194" font-family="Helvetica,sans-Serif" font-size="10.00">bio/alphabet/custom</text>
<text text-anchor="middle" x="179" y="-183" font-family="Helvetica,sans-Serif" font-size="10.00">/uint.hpp</text>
</a>
</g>
</g>
<!-- Node2 -->
<g id="node2" class="node">
<title>Node2</title>
<g id="a_node2"><a xlink:href="tag_8hpp.html" target="_top" xlink:title="Provides the customisation tags for the alphabet concepts.">
<polygon fill="white" stroke="#666666" points="104,-140 0,-140 0,-110 104,-110 104,-140"/>
<text text-anchor="start" x="8" y="-128" font-family="Helvetica,sans-Serif" font-size="10.00">bio/alphabet/custom</text>
<text text-anchor="middle" x="52" y="-117" font-family="Helvetica,sans-Serif" font-size="10.00">/tag.hpp</text>
</a>
</g>
</g>
<!-- Node1&#45;&gt;Node2 -->
<g id="edge1" class="edge">
<title>Node1&#45;&gt;Node2</title>
<path fill="none" stroke="#63b8ff" d="M151.13,-175.95C132.85,-166.74 108.75,-154.6 88.88,-144.59"/>
<polygon fill="#63b8ff" stroke="#63b8ff" points="90.31,-141.39 79.81,-140.01 87.16,-147.64 90.31,-141.39"/>
</g>
<!-- Node3 -->
<g id="node3" class="node">
<title>Node3</title>
<g id="a_node3"><a xlink:href="core__language_8hpp.html" target="_top" xlink:title="Provides concepts for core language types and relations that don&#39;t have concepts in C++20 (yet).">
<polygon fill="white" stroke="#666666" points="235.5,-140 122.5,-140 122.5,-110 235.5,-110 235.5,-140"/>
<text text-anchor="start" x="130.5" y="-128" font-family="Helvetica,sans-Serif" font-size="10.00">bio/meta/concept/core</text>
<text text-anchor="middle" x="179" y="-117" font-family="Helvetica,sans-Serif" font-size="10.00">_language.hpp</text>
</a>
</g>
</g>
<!-- Node1&#45;&gt;Node3 -->
<g id="edge2" class="edge">
<title>Node1&#45;&gt;Node3</title>
<path fill="none" stroke="#63b8ff" d="M179,-175.8C179,-168.34 179,-158.99 179,-150.41"/>
<polygon fill="#63b8ff" stroke="#63b8ff" points="182.5,-150.16 179,-140.16 175.5,-150.16 182.5,-150.16"/>
</g>
<!-- Node11 -->
<g id="node11" class="node">
<title>Node11</title>
<g id="a_node11"><a xlink:href="int__types_8hpp.html" target="_top" xlink:title="Provides metaprogramming utilities for integer types.">
<polygon fill="white" stroke="#666666" points="348,-140 254,-140 254,-110 348,-110 348,-140"/>
<text text-anchor="start" x="262" y="-128" font-family="Helvetica,sans-Serif" font-size="10.00">bio/meta/detail/int</text>
<text text-anchor="middle" x="301" y="-117" font-family="Helvetica,sans-Serif" font-size="10.00">_types.hpp</text>
</a>
</g>
</g>
<!-- Node1&#45;&gt;Node11 -->
<g id="edge10" class="edge">
<title>Node1&#45;&gt;Node11</title>
<path fill="none" stroke="#63b8ff" d="M205.77,-175.95C223.25,-166.78 246.28,-154.71 265.31,-144.72"/>
<polygon fill="#63b8ff" stroke="#63b8ff" points="267.06,-147.76 274.29,-140.01 263.81,-141.56 267.06,-147.76"/>
</g>
<!-- Node4 -->
<g id="node4" class="node">
<title>Node4</title>
<g id="a_node4"><a target="_blank" xlink:href="https://en.cppreference.com/w/cpp/header/concepts.html" xlink:title=" ">
<polygon fill="white" stroke="#666666" points="168,-74 112,-74 112,-55 168,-55 168,-74"/>
<text text-anchor="middle" x="140" y="-62" font-family="Helvetica,sans-Serif" font-size="10.00">concepts</text>
</a>
</g>
</g>
<!-- Node3&#45;&gt;Node4 -->
<g id="edge3" class="edge">
<title>Node3&#45;&gt;Node4</title>
<path fill="none" stroke="#63b8ff" d="M169.56,-109.84C164.13,-101.69 157.27,-91.4 151.52,-82.78"/>
<polygon fill="#63b8ff" stroke="#63b8ff" points="154.3,-80.65 145.84,-74.27 148.48,-84.53 154.3,-80.65"/>
</g>
<!-- Node5 -->
<g id="node5" class="node">
<title>Node5</title>
<g id="a_node5"><a target="_blank" xlink:href="https://en.cppreference.com/w/cpp/header/type_traits.html" xlink:title=" ">
<polygon fill="white" stroke="#666666" points="248,-74 186,-74 186,-55 248,-55 248,-74"/>
<text text-anchor="middle" x="217" y="-62" font-family="Helvetica,sans-Serif" font-size="10.00">type_traits</text>
</a>
</g>
</g>
<!-- Node3&#45;&gt;Node5 -->
<g id="edge4" class="edge">
<title>Node3&#45;&gt;Node5</title>
<path fill="none" stroke="#63b8ff" d="M188.2,-109.84C193.49,-101.69 200.18,-91.4 205.78,-82.78"/>
<polygon fill="#63b8ff" stroke="#63b8ff" points="208.79,-84.56 211.31,-74.27 202.92,-80.75 208.79,-84.56"/>
</g>
<!-- Node6 -->
<g id="node6" class="node">
<title>Node6</title>
<g id="a_node6"><a xlink:href="core_8hpp.html" target="_top" xlink:title="Provides platform and dependency checks.">
<polygon fill="white" stroke="#666666" points="336,-74 266,-74 266,-55 336,-55 336,-74"/>
<text text-anchor="middle" x="301" y="-62" font-family="Helvetica,sans-Serif" font-size="10.00">bio/core.hpp</text>
</a>
</g>
</g>
<!-- Node3&#45;&gt;Node6 -->
<g id="edge5" class="edge">
<title>Node3&#45;&gt;Node6</title>
<path fill="none" stroke="#63b8ff" d="M208.22,-109.99C228.12,-100.45 254.28,-87.9 273.75,-78.57"/>
<polygon fill="#63b8ff" stroke="#63b8ff" points="275.48,-81.62 282.98,-74.14 272.45,-75.31 275.48,-81.62"/>
</g>
<!-- Node7 -->
<g id="node7" class="node">
<title>Node7</title>
<g id="a_node7"><a target="_blank" xlink:href="https://en.cppreference.com/w/cpp/header/cinttypes.html" xlink:title=" ">
<polygon fill="white" stroke="#666666" points="224,-19 168,-19 168,0 224,0 224,-19"/>
<text text-anchor="middle" x="196" y="-7" font-family="Helvetica,sans-Serif" font-size="10.00">cinttypes</text>
</a>
</g>
</g>
<!-- Node6&#45;&gt;Node7 -->
<g id="edge6" class="edge">
<title>Node6&#45;&gt;Node7</title>
<path fill="none" stroke="#63b8ff" d="M284.13,-54.98C267.39,-46.54 241.5,-33.47 222.11,-23.68"/>
<polygon fill="#63b8ff" stroke="#63b8ff" points="223.68,-20.55 213.18,-19.17 220.53,-26.8 223.68,-20.55"/>
</g>
<!-- Node8 -->
<g id="node8" class="node">
<title>Node8</title>
<g id="a_node8"><a target="_blank" xlink:href="https://en.cppreference.com/w/cpp/header/ciso646.html" xlink:title=" ">
<polygon fill="white" stroke="#666666" points="292,-19 242,-19 242,0 292,0 292,-19"/>
<text text-anchor="middle" x="267" y="-7" font-family="Helvetica,sans-Serif" font-size="10.00">ciso646</text>
</a>
</g>
</g>
<!-- Node6&#45;&gt;Node8 -->
<g id="edge7" class="edge">
<title>Node6&#45;&gt;Node8</title>
<path fill="none" stroke="#63b8ff" d="M295.39,-54.75C290.68,-47.42 283.83,-36.73 278.03,-27.7"/>
<polygon fill="#63b8ff" stroke="#63b8ff" points="280.86,-25.62 272.51,-19.09 274.96,-29.4 280.86,-25.62"/>
</g>
<!-- Node9 -->
<g id="node9" class="node">
<title>Node9</title>
<g id="a_node9"><a target="_blank" xlink:href="https://en.cppreference.com/w/cpp/header/cstddef.html" xlink:title=" ">
<polygon fill="white" stroke="#666666" points="359.5,-19 310.5,-19 310.5,0 359.5,0 359.5,-19"/>
<text text-anchor="middle" x="335" y="-7" font-family="Helvetica,sans-Serif" font-size="10.00">cstddef</text>
</a>
</g>
</g>
<!-- Node6&#45;&gt;Node9 -->
<g id="edge8" class="edge">
<title>Node6&#45;&gt;Node9</title>
<path fill="none" stroke="#63b8ff" d="M306.61,-54.75C311.32,-47.42 318.17,-36.73 323.97,-27.7"/>
<polygon fill="#63b8ff" stroke="#63b8ff" points="327.04,-29.4 329.49,-19.09 321.14,-25.62 327.04,-29.4"/>
</g>
<!-- Node10 -->
<g id="node10" class="node">
<title>Node10</title>
<g id="a_node10"><a target="_blank" xlink:href="https://en.cppreference.com/w/cpp/header/string_view.html" xlink:title=" ">
<polygon fill="white" stroke="#666666" points="444,-19 378,-19 378,0 444,0 444,-19"/>
<text text-anchor="middle" x="411" y="-7" font-family="Helvetica,sans-Serif" font-size="10.00">string_view</text>
</a>
</g>
</g>
<!-- Node6&#45;&gt;Node10 -->
<g id="edge9" class="edge">
<title>Node6&#45;&gt;Node10</title>
<path fill="none" stroke="#63b8ff" d="M318.67,-54.98C336.29,-46.5 363.58,-33.35 383.93,-23.54"/>
<polygon fill="#63b8ff" stroke="#63b8ff" points="385.52,-26.66 393.01,-19.17 382.48,-20.36 385.52,-26.66"/>
</g>
<!-- Node11&#45;&gt;Node4 -->
<g id="edge11" class="edge">
<title>Node11&#45;&gt;Node4</title>
<path fill="none" stroke="#63b8ff" d="M262.44,-109.99C235.21,-100.1 199.12,-86.98 173.18,-77.56"/>
<polygon fill="#63b8ff" stroke="#63b8ff" points="174.37,-74.26 163.78,-74.14 171.98,-80.84 174.37,-74.26"/>
</g>
<!-- Node11&#45;&gt;Node5 -->
<g id="edge13" class="edge">
<title>Node11&#45;&gt;Node5</title>
<path fill="none" stroke="#63b8ff" d="M280.67,-109.84C267.73,-100.83 251.01,-89.18 237.95,-80.09"/>
<polygon fill="#63b8ff" stroke="#63b8ff" points="239.79,-77.11 229.59,-74.27 235.79,-82.85 239.79,-77.11"/>
</g>
<!-- Node11&#45;&gt;Node6 -->
<g id="edge14" class="edge">
<title>Node11&#45;&gt;Node6</title>
<path fill="none" stroke="#63b8ff" d="M301,-109.84C301,-102.21 301,-92.7 301,-84.45"/>
<polygon fill="#63b8ff" stroke="#63b8ff" points="304.5,-84.27 301,-74.27 297.5,-84.27 304.5,-84.27"/>
</g>
<!-- Node12 -->
<g id="node12" class="node">
<title>Node12</title>
<g id="a_node12"><a target="_blank" xlink:href="https://en.cppreference.com/w/cpp/header/limits.html" xlink:title=" ">
<polygon fill="white" stroke="#666666" points="394,-74 354,-74 354,-55 394,-55 394,-74"/>
<text text-anchor="middle" x="374" y="-62" font-family="Helvetica,sans-Serif" font-size="10.00">limits</text>
</a>
</g>
</g>
<!-- Node11&#45;&gt;Node12 -->
<g id="edge12" class="edge">
<title>Node11&#45;&gt;Node12</title>
<path fill="none" stroke="#63b8ff" d="M318.67,-109.84C329.7,-101 343.89,-89.63 355.13,-80.62"/>
<polygon fill="#63b8ff" stroke="#63b8ff" points="357.45,-83.25 363.06,-74.27 353.07,-77.79 357.45,-83.25"/>
</g>
</g>
</svg>
