<?xml version="1.0" encoding="UTF-8" standalone="no"?>
<!DOCTYPE svg PUBLIC "-//W3C//DTD SVG 1.1//EN"
 "http://www.w3.org/Graphics/SVG/1.1/DTD/svg11.dtd">
<!-- Generated by graphviz version 2.42.2 ()
 -->
<!-- Title: bio/alphabet/adaptation/uint.hpp Pages: 1 -->
<svg width="236pt" height="162pt"
 viewBox="0.00 0.00 236.00 162.00" xmlns="http://www.w3.org/2000/svg" xmlns:xlink="http://www.w3.org/1999/xlink">
<g id="graph0" class="graph" transform="scale(1 1) rotate(0) translate(4 158)">
<title>bio/alphabet/adaptation/uint.hpp</title>
<polygon fill="white" stroke="transparent" points="-4,4 -4,-158 232,-158 232,4 -4,4"/>
<!-- Node1 -->
<g id="node1" class="node">
<title>Node1</title>
<g id="a_node1"><a xlink:title="Provides alphabet adaptations for standard uint types.">
<polygon fill="#bfbfbf" stroke="black" points="61,-123.5 61,-153.5 178,-153.5 178,-123.5 61,-123.5"/>
<text text-anchor="start" x="69" y="-141.5" font-family="Helvetica,sans-Serif" font-size="10.00">bio/alphabet/adaptation</text>
<text text-anchor="middle" x="119.5" y="-130.5" font-family="Helvetica,sans-Serif" font-size="10.00">/uint.hpp</text>
</a>
</g>
</g>
<!-- Node2 -->
<g id="node2" class="node">
<title>Node2</title>
<g id="a_node2"><a xlink:href="alphabet_2adaptation_2all_8hpp.html" target="_top" xlink:title="Meta&#45;header for the adaptation submodule; includes all headers from alphabet/adaptation/.">
<polygon fill="white" stroke="black" points="0,-56.5 0,-86.5 117,-86.5 117,-56.5 0,-56.5"/>
<text text-anchor="start" x="8" y="-74.5" font-family="Helvetica,sans-Serif" font-size="10.00">bio/alphabet/adaptation</text>
<text text-anchor="middle" x="58.5" y="-63.5" font-family="Helvetica,sans-Serif" font-size="10.00">/all.hpp</text>
</a>
</g>
</g>
<!-- Node1&#45;&gt;Node2 -->
<g id="edge1" class="edge">
<title>Node1&#45;&gt;Node2</title>
<path fill="none" stroke="midnightblue" d="M99.35,-116.02C90.26,-106.34 79.78,-95.17 71.71,-86.58"/>
<polygon fill="midnightblue" stroke="midnightblue" points="96.87,-118.5 106.26,-123.4 101.97,-113.71 96.87,-118.5"/>
</g>
<!-- Node4 -->
<g id="node4" class="node">
<title>Node4</title>
<g id="a_node4"><a xlink:href="cigar_8hpp.html" target="_top" xlink:title="Provides the bio::alphabet::cigar alphabet.">
<polygon fill="white" stroke="black" points="135,-56.5 135,-86.5 228,-86.5 228,-56.5 135,-56.5"/>
<text text-anchor="start" x="143" y="-74.5" font-family="Helvetica,sans-Serif" font-size="10.00">bio/alphabet/cigar</text>
<text text-anchor="middle" x="181.5" y="-63.5" font-family="Helvetica,sans-Serif" font-size="10.00">/cigar.hpp</text>
</a>
</g>
</g>
<!-- Node1&#45;&gt;Node4 -->
<g id="edge3" class="edge">
<title>Node1&#45;&gt;Node4</title>
<path fill="none" stroke="midnightblue" d="M139.98,-116.02C149.22,-106.34 159.87,-95.17 168.07,-86.58"/>
<polygon fill="midnightblue" stroke="midnightblue" points="137.32,-113.74 132.95,-123.4 142.39,-118.58 137.32,-113.74"/>
</g>
<!-- Node3 -->
<g id="node3" class="node">
<title>Node3</title>
<g id="a_node3"><a xlink:href="alphabet_2all_8hpp.html" target="_top" xlink:title="Meta&#45;header for the alphabet module.">
<polygon fill="white" stroke="black" points="8,-0.5 8,-19.5 109,-19.5 109,-0.5 8,-0.5"/>
<text text-anchor="middle" x="58.5" y="-7.5" font-family="Helvetica,sans-Serif" font-size="10.00">bio/alphabet/all.hpp</text>
</a>
</g>
</g>
<!-- Node2&#45;&gt;Node3 -->
<g id="edge2" class="edge">
<title>Node2&#45;&gt;Node3</title>
<path fill="none" stroke="midnightblue" d="M58.5,-46.29C58.5,-36.86 58.5,-26.65 58.5,-19.66"/>
<polygon fill="midnightblue" stroke="midnightblue" points="55,-46.4 58.5,-56.4 62,-46.4 55,-46.4"/>
</g>
</g>
</svg>
