<?xml version="1.0" encoding="UTF-8" standalone="no"?>
<!DOCTYPE svg PUBLIC "-//W3C//DTD SVG 1.1//EN"
 "http://www.w3.org/Graphics/SVG/1.1/DTD/svg11.dtd">
<!-- Generated by graphviz version 2.43.0 (0)
 -->
<!-- Title: bio/alphabet/adaptation/uint.hpp Pages: 1 -->
<!--zoomable 341 -->
<svg id="main" version="1.1" xmlns="http://www.w3.org/2000/svg" xmlns:xlink="http://www.w3.org/1999/xlink" xml:space="preserve" onload="init(evt)">
<style type="text/css"><![CDATA[
.edge:hover path { stroke: red; }
.edge:hover polygon { stroke: red; fill: red; }
]]></style>
<script type="text/javascript"><![CDATA[
var edges = document.getElementsByTagName('g');
if (edges && edges.length) {
  for (var i=0;i<edges.length;i++) {
    if (edges[i].id.substr(0,4)=='edge') {
      edges[i].setAttribute('class','edge');
    }
  }
}
]]></script>
        <defs>
                <circle id="rim" cx="0" cy="0" r="7"/>
                <circle id="rim2" cx="0" cy="0" r="3.5"/>
                <g id="zoomPlus">
                        <use xlink:href="#rim" fill="#404040">
                                <set attributeName="fill" to="#808080" begin="zoomplus.mouseover" end="zoomplus.mouseout"/>
                        </use>
                        <path d="M-4,0h8M0,-4v8" fill="none" stroke="white" stroke-width="1.5" pointer-events="none"/>
                </g>
                <g id="zoomMin">
                        <use xlink:href="#rim" fill="#404040">
                                <set attributeName="fill" to="#808080" begin="zoomminus.mouseover" end="zoomminus.mouseout"/>
                        </use>
                        <path d="M-4,0h8" fill="none" stroke="white" stroke-width="1.5" pointer-events="none"/>
                </g>
                <g id="dirArrow">
                        <path fill="none" stroke="white" stroke-width="1.5" d="M0,-3.0v7 M-2.5,-0.5L0,-3.0L2.5,-0.5"/>
                </g>
               <g id="resetDef">
                       <use xlink:href="#rim2" fill="#404040">
                               <set attributeName="fill" to="#808080" begin="reset.mouseover" end="reset.mouseout"/>
                       </use>
               </g>
        </defs>

<script type="text/javascript">
var viewWidth = 1200;
var viewHeight = 341;
var sectionId = 'dynsection-0';
</script>
<script xlink:href="svgpan.js"/>
<svg id="graph" class="graph">
<g id="viewport">
<title>bio/alphabet/adaptation/uint.hpp</title>
<polygon fill="white" stroke="transparent" points="-4,4 -4,-337 1195.5,-337 1195.5,4 -4,4"/>
<!-- Node1 -->
<g id="node1" class="node">
<title>Node1</title>
<g id="a_node1"><a xlink:title="Provides alphabet adaptations for standard uint types.">
<polygon fill="#bfbfbf" stroke="black" points="471.5,-302.5 471.5,-332.5 604.5,-332.5 604.5,-302.5 471.5,-302.5"/>
<text text-anchor="start" x="479.5" y="-320.5" font-family="Helvetica,sans-Serif" font-size="10.00">bio/alphabet/adaptation</text>
<text text-anchor="middle" x="538" y="-309.5" font-family="Helvetica,sans-Serif" font-size="10.00">/uint.hpp</text>
</a>
</g>
</g>
<!-- Node2 -->
<g id="node2" class="node">
<title>Node2</title>
<g id="a_node2"><a xlink:href="alphabet_2concept_8hpp.html" target="_top" xlink:title="Core alphabet concept and free function/type trait wrappers.">
<polygon fill="white" stroke="black" points="419,-246.5 419,-265.5 559,-265.5 559,-246.5 419,-246.5"/>
<text text-anchor="middle" x="489" y="-253.5" font-family="Helvetica,sans-Serif" font-size="10.00">bio/alphabet/concept.hpp</text>
</a>
</g>
</g>
<!-- Node1&#45;&gt;Node2 -->
<g id="edge1" class="edge">
<title>Node1&#45;&gt;Node2</title>
<path fill="none" stroke="midnightblue" d="M526.39,-302.4C519.27,-293.75 510.12,-282.64 502.65,-273.58"/>
<polygon fill="midnightblue" stroke="midnightblue" points="505.19,-271.15 496.13,-265.66 499.79,-275.6 505.19,-271.15"/>
</g>
<!-- Node22 -->
<g id="node22" class="node">
<title>Node22</title>
<g id="a_node22"><a xlink:href="int__types_8hpp.html" target="_top" xlink:title="Provides metaprogramming utilities for integer types.">
<polygon fill="white" stroke="black" points="669.5,-179.5 669.5,-209.5 776.5,-209.5 776.5,-179.5 669.5,-179.5"/>
<text text-anchor="start" x="677.5" y="-197.5" font-family="Helvetica,sans-Serif" font-size="10.00">bio/meta/detail/int</text>
<text text-anchor="middle" x="723" y="-186.5" font-family="Helvetica,sans-Serif" font-size="10.00">_types.hpp</text>
</a>
</g>
</g>
<!-- Node1&#45;&gt;Node22 -->
<g id="edge32" class="edge">
<title>Node1&#45;&gt;Node22</title>
<path fill="none" stroke="midnightblue" d="M559.58,-302.38C592.59,-280.8 655.69,-239.53 693.08,-215.07"/>
<polygon fill="midnightblue" stroke="midnightblue" points="695.1,-217.93 701.55,-209.53 691.27,-212.07 695.1,-217.93"/>
</g>
<!-- Node3 -->
<g id="node3" class="node">
<title>Node3</title>
<g id="a_node3"><a xlink:href="exception_8hpp.html" target="_top" xlink:title="Exceptions thrown by entities in the alphabet module.">
<polygon fill="white" stroke="black" points="794.5,-185 794.5,-204 943.5,-204 943.5,-185 794.5,-185"/>
<text text-anchor="middle" x="869" y="-192" font-family="Helvetica,sans-Serif" font-size="10.00">bio/alphabet/exception.hpp</text>
</a>
</g>
</g>
<!-- Node2&#45;&gt;Node3 -->
<g id="edge2" class="edge">
<title>Node2&#45;&gt;Node3</title>
<path fill="none" stroke="midnightblue" d="M547.95,-246.47C607.92,-237.7 703.52,-223.45 786,-210 794.2,-208.66 802.84,-207.21 811.33,-205.75"/>
<polygon fill="midnightblue" stroke="midnightblue" points="811.93,-209.2 821.19,-204.04 810.74,-202.3 811.93,-209.2"/>
</g>
<!-- Node12 -->
<g id="node12" class="node">
<title>Node12</title>
<g id="a_node12"><a xlink:href="cereal_8hpp.html" target="_top" xlink:title="Adaptions of concepts from the Cereal library.">
<polygon fill="white" stroke="black" points="172.5,-185 172.5,-204 327.5,-204 327.5,-185 172.5,-185"/>
<text text-anchor="middle" x="250" y="-192" font-family="Helvetica,sans-Serif" font-size="10.00">bio/meta/concept/cereal.hpp</text>
</a>
</g>
</g>
<!-- Node2&#45;&gt;Node12 -->
<g id="edge12" class="edge">
<title>Node2&#45;&gt;Node12</title>
<path fill="none" stroke="midnightblue" d="M454.76,-246.48C412.43,-235.94 340.32,-217.99 293.95,-206.44"/>
<polygon fill="midnightblue" stroke="midnightblue" points="294.73,-203.03 284.18,-204.01 293.04,-209.82 294.73,-203.03"/>
</g>
<!-- Node13 -->
<g id="node13" class="node">
<title>Node13</title>
<g id="a_node13"><a target="_blank" xlink:href="https://en.cppreference.com/w/cpp/header/type_traits.html" xlink:title=" ">
<polygon fill="white" stroke="black" points="215.5,-118 215.5,-137 284.5,-137 284.5,-118 215.5,-118"/>
<text text-anchor="middle" x="250" y="-125" font-family="Helvetica,sans-Serif" font-size="10.00">type_traits</text>
</a>
</g>
</g>
<!-- Node2&#45;&gt;Node13 -->
<g id="edge31" class="edge">
<title>Node2&#45;&gt;Node13</title>
<path fill="none" stroke="midnightblue" d="M418.65,-255.63C332.93,-254.71 195.47,-247.26 163,-210 140.04,-183.66 185.21,-156.61 218.63,-141.25"/>
<polygon fill="midnightblue" stroke="midnightblue" points="220.37,-144.3 228.1,-137.05 217.54,-137.9 220.37,-144.3"/>
</g>
<!-- Node14 -->
<g id="node14" class="node">
<title>Node14</title>
<g id="a_node14"><a xlink:href="core__language_8hpp.html" target="_top" xlink:title="Provides concepts for core language types and relations that don&#39;t have concepts in C++20 (yet).">
<polygon fill="white" stroke="black" points="345.5,-179.5 345.5,-209.5 470.5,-209.5 470.5,-179.5 345.5,-179.5"/>
<text text-anchor="start" x="353.5" y="-197.5" font-family="Helvetica,sans-Serif" font-size="10.00">bio/meta/concept/core</text>
<text text-anchor="middle" x="408" y="-186.5" font-family="Helvetica,sans-Serif" font-size="10.00">_language.hpp</text>
</a>
</g>
</g>
<!-- Node2&#45;&gt;Node14 -->
<g id="edge15" class="edge">
<title>Node2&#45;&gt;Node14</title>
<path fill="none" stroke="midnightblue" d="M477.39,-246.48C466.42,-238.42 449.55,-226.02 435.19,-215.47"/>
<polygon fill="midnightblue" stroke="midnightblue" points="437.22,-212.62 427.09,-209.52 433.08,-218.26 437.22,-212.62"/>
</g>
<!-- Node15 -->
<g id="node15" class="node">
<title>Node15</title>
<g id="a_node15"><a xlink:href="customisation__point_8hpp.html" target="_top" xlink:title="Helper utilities for defining customisation point objects.">
<polygon fill="white" stroke="black" points="488.5,-179.5 488.5,-209.5 651.5,-209.5 651.5,-179.5 488.5,-179.5"/>
<text text-anchor="start" x="496.5" y="-197.5" font-family="Helvetica,sans-Serif" font-size="10.00">bio/meta/detail/customisation</text>
<text text-anchor="middle" x="570" y="-186.5" font-family="Helvetica,sans-Serif" font-size="10.00">_point.hpp</text>
</a>
</g>
</g>
<!-- Node2&#45;&gt;Node15 -->
<g id="edge19" class="edge">
<title>Node2&#45;&gt;Node15</title>
<path fill="none" stroke="midnightblue" d="M500.61,-246.48C511.58,-238.42 528.45,-226.02 542.81,-215.47"/>
<polygon fill="midnightblue" stroke="midnightblue" points="544.92,-218.26 550.91,-209.52 540.78,-212.62 544.92,-218.26"/>
</g>
<!-- Node16 -->
<g id="node16" class="node">
<title>Node16</title>
<g id="a_node16"><a xlink:href="type__inspection_8hpp.html" target="_top" xlink:title="Provides traits to inspect some information of a type, for example its name.">
<polygon fill="white" stroke="black" points="996,-112.5 996,-142.5 1112,-142.5 1112,-112.5 996,-112.5"/>
<text text-anchor="start" x="1004" y="-130.5" font-family="Helvetica,sans-Serif" font-size="10.00">bio/meta/detail/type</text>
<text text-anchor="middle" x="1054" y="-119.5" font-family="Helvetica,sans-Serif" font-size="10.00">_inspection.hpp</text>
</a>
</g>
</g>
<!-- Node2&#45;&gt;Node16 -->
<g id="edge21" class="edge">
<title>Node2&#45;&gt;Node16</title>
<path fill="none" stroke="midnightblue" d="M559.38,-253.1C671.1,-249.26 883.51,-238.39 953,-210 985.45,-196.74 1015.76,-169.5 1034.54,-150.17"/>
<polygon fill="midnightblue" stroke="midnightblue" points="1037.3,-152.35 1041.63,-142.68 1032.21,-147.54 1037.3,-152.35"/>
</g>
<!-- Node20 -->
<g id="node20" class="node">
<title>Node20</title>
<g id="a_node20"><a xlink:href="basic_8hpp.html" target="_top" xlink:title="Provides various type traits on generic types.">
<polygon fill="white" stroke="black" points="0,-179.5 0,-209.5 116,-209.5 116,-179.5 0,-179.5"/>
<text text-anchor="start" x="8" y="-197.5" font-family="Helvetica,sans-Serif" font-size="10.00">bio/meta/type_traits</text>
<text text-anchor="middle" x="58" y="-186.5" font-family="Helvetica,sans-Serif" font-size="10.00">/basic.hpp</text>
</a>
</g>
</g>
<!-- Node2&#45;&gt;Node20 -->
<g id="edge27" class="edge">
<title>Node2&#45;&gt;Node20</title>
<path fill="none" stroke="midnightblue" d="M418.95,-247.77C346.43,-239.93 229.97,-226.31 130,-210 128.73,-209.79 127.44,-209.58 126.14,-209.36"/>
<polygon fill="midnightblue" stroke="midnightblue" points="126.55,-205.88 116.09,-207.58 125.33,-212.77 126.55,-205.88"/>
</g>
<!-- Node4 -->
<g id="node4" class="node">
<title>Node4</title>
<g id="a_node4"><a target="_blank" xlink:href="https://en.cppreference.com/w/cpp/header/stdexcept.html" xlink:title=" ">
<polygon fill="white" stroke="black" points="715.5,-118 715.5,-137 780.5,-137 780.5,-118 715.5,-118"/>
<text text-anchor="middle" x="748" y="-125" font-family="Helvetica,sans-Serif" font-size="10.00">stdexcept</text>
</a>
</g>
</g>
<!-- Node3&#45;&gt;Node4 -->
<g id="edge3" class="edge">
<title>Node3&#45;&gt;Node4</title>
<path fill="none" stroke="midnightblue" d="M852.68,-184.73C832.18,-173.72 796.8,-154.71 772.91,-141.88"/>
<polygon fill="midnightblue" stroke="midnightblue" points="774.53,-138.78 764.06,-137.13 771.21,-144.94 774.53,-138.78"/>
</g>
<!-- Node5 -->
<g id="node5" class="node">
<title>Node5</title>
<g id="a_node5"><a target="_blank" xlink:href="https://en.cppreference.com/w/cpp/header/string.html" xlink:title=" ">
<polygon fill="white" stroke="black" points="912,-56.5 912,-75.5 956,-75.5 956,-56.5 912,-56.5"/>
<text text-anchor="middle" x="934" y="-63.5" font-family="Helvetica,sans-Serif" font-size="10.00">string</text>
</a>
</g>
</g>
<!-- Node3&#45;&gt;Node5 -->
<g id="edge4" class="edge">
<title>Node3&#45;&gt;Node5</title>
<path fill="none" stroke="midnightblue" d="M894.98,-184.85C913.7,-177.1 937.58,-163.71 949,-143 959.01,-124.84 951.52,-100.98 943.98,-84.87"/>
<polygon fill="midnightblue" stroke="midnightblue" points="946.87,-82.85 939.2,-75.55 940.64,-86.05 946.87,-82.85"/>
</g>
<!-- Node6 -->
<g id="node6" class="node">
<title>Node6</title>
<g id="a_node6"><a xlink:href="pretty__print_8hpp.html" target="_top" xlink:title="Provides pretty printing for chars.">
<polygon fill="white" stroke="black" points="798.5,-112.5 798.5,-142.5 939.5,-142.5 939.5,-112.5 798.5,-112.5"/>
<text text-anchor="start" x="806.5" y="-130.5" font-family="Helvetica,sans-Serif" font-size="10.00">bio/meta/char_operations</text>
<text text-anchor="middle" x="869" y="-119.5" font-family="Helvetica,sans-Serif" font-size="10.00">/pretty_print.hpp</text>
</a>
</g>
</g>
<!-- Node3&#45;&gt;Node6 -->
<g id="edge5" class="edge">
<title>Node3&#45;&gt;Node6</title>
<path fill="none" stroke="midnightblue" d="M869,-184.73C869,-176.54 869,-163.92 869,-152.71"/>
<polygon fill="midnightblue" stroke="midnightblue" points="872.5,-152.59 869,-142.59 865.5,-152.59 872.5,-152.59"/>
</g>
<!-- Node11 -->
<g id="node11" class="node">
<title>Node11</title>
<g id="a_node11"><a target="_blank" xlink:href="https://en.cppreference.com/w/cpp/header/concepts.html" xlink:title=" ">
<polygon fill="white" stroke="black" points="537,-118 537,-137 597,-137 597,-118 537,-118"/>
<text text-anchor="middle" x="567" y="-125" font-family="Helvetica,sans-Serif" font-size="10.00">concepts</text>
</a>
</g>
</g>
<!-- Node3&#45;&gt;Node11 -->
<g id="edge11" class="edge">
<title>Node3&#45;&gt;Node11</title>
<path fill="none" stroke="midnightblue" d="M829.21,-184.94C771.49,-172.51 665.13,-149.62 607.19,-137.15"/>
<polygon fill="midnightblue" stroke="midnightblue" points="607.81,-133.7 597.29,-135.02 606.33,-140.55 607.81,-133.7"/>
</g>
<!-- Node6&#45;&gt;Node5 -->
<g id="edge6" class="edge">
<title>Node6&#45;&gt;Node5</title>
<path fill="none" stroke="midnightblue" d="M884.4,-112.4C894.24,-103.4 906.99,-91.72 917.11,-82.47"/>
<polygon fill="midnightblue" stroke="midnightblue" points="919.53,-84.99 924.54,-75.66 914.8,-79.83 919.53,-84.99"/>
</g>
<!-- Node7 -->
<g id="node7" class="node">
<title>Node7</title>
<g id="a_node7"><a xlink:href="platform_8hpp.html" target="_top" xlink:title="Provides platform and dependency checks.">
<polygon fill="white" stroke="black" points="446,-56.5 446,-75.5 572,-75.5 572,-56.5 446,-56.5"/>
<text text-anchor="middle" x="509" y="-63.5" font-family="Helvetica,sans-Serif" font-size="10.00">bio/meta/platform.hpp</text>
</a>
</g>
</g>
<!-- Node6&#45;&gt;Node7 -->
<g id="edge7" class="edge">
<title>Node6&#45;&gt;Node7</title>
<path fill="none" stroke="midnightblue" d="M798.38,-113.46C795.55,-112.96 792.75,-112.47 790,-112 716.27,-99.33 631.46,-85.91 574.47,-77.05"/>
<polygon fill="midnightblue" stroke="midnightblue" points="574.93,-73.58 564.51,-75.51 573.86,-80.5 574.93,-73.58"/>
</g>
<!-- Node8 -->
<g id="node8" class="node">
<title>Node8</title>
<g id="a_node8"><a target="_blank" xlink:href="https://en.cppreference.com/w/cpp/header/cinttypes.html" xlink:title=" ">
<polygon fill="white" stroke="black" points="402,-0.5 402,-19.5 464,-19.5 464,-0.5 402,-0.5"/>
<text text-anchor="middle" x="433" y="-7.5" font-family="Helvetica,sans-Serif" font-size="10.00">cinttypes</text>
</a>
</g>
</g>
<!-- Node7&#45;&gt;Node8 -->
<g id="edge8" class="edge">
<title>Node7&#45;&gt;Node8</title>
<path fill="none" stroke="midnightblue" d="M496.79,-56.32C485.22,-48.11 467.62,-35.6 453.84,-25.81"/>
<polygon fill="midnightblue" stroke="midnightblue" points="455.61,-22.77 445.43,-19.83 451.56,-28.48 455.61,-22.77"/>
</g>
<!-- Node9 -->
<g id="node9" class="node">
<title>Node9</title>
<g id="a_node9"><a target="_blank" xlink:href="https://en.cppreference.com/w/cpp/header/ciso646.html" xlink:title=" ">
<polygon fill="white" stroke="black" points="482,-0.5 482,-19.5 536,-19.5 536,-0.5 482,-0.5"/>
<text text-anchor="middle" x="509" y="-7.5" font-family="Helvetica,sans-Serif" font-size="10.00">ciso646</text>
</a>
</g>
</g>
<!-- Node7&#45;&gt;Node9 -->
<g id="edge9" class="edge">
<title>Node7&#45;&gt;Node9</title>
<path fill="none" stroke="midnightblue" d="M509,-56.08C509,-49.01 509,-38.86 509,-29.99"/>
<polygon fill="midnightblue" stroke="midnightblue" points="512.5,-29.75 509,-19.75 505.5,-29.75 512.5,-29.75"/>
</g>
<!-- Node10 -->
<g id="node10" class="node">
<title>Node10</title>
<g id="a_node10"><a target="_blank" xlink:href="https://en.cppreference.com/w/cpp/header/cstddef.html" xlink:title=" ">
<polygon fill="white" stroke="black" points="554.5,-0.5 554.5,-19.5 607.5,-19.5 607.5,-0.5 554.5,-0.5"/>
<text text-anchor="middle" x="581" y="-7.5" font-family="Helvetica,sans-Serif" font-size="10.00">cstddef</text>
</a>
</g>
</g>
<!-- Node7&#45;&gt;Node10 -->
<g id="edge10" class="edge">
<title>Node7&#45;&gt;Node10</title>
<path fill="none" stroke="midnightblue" d="M520.57,-56.32C531.42,-48.18 547.88,-35.84 560.88,-26.09"/>
<polygon fill="midnightblue" stroke="midnightblue" points="563.32,-28.63 569.22,-19.83 559.12,-23.03 563.32,-28.63"/>
</g>
<!-- Node12&#45;&gt;Node7 -->
<g id="edge14" class="edge">
<title>Node12&#45;&gt;Node7</title>
<path fill="none" stroke="midnightblue" d="M267.8,-184.81C312.45,-163 429.4,-105.88 482.31,-80.03"/>
<polygon fill="midnightblue" stroke="midnightblue" points="483.97,-83.12 491.42,-75.59 480.89,-76.83 483.97,-83.12"/>
</g>
<!-- Node12&#45;&gt;Node13 -->
<g id="edge13" class="edge">
<title>Node12&#45;&gt;Node13</title>
<path fill="none" stroke="midnightblue" d="M250,-184.73C250,-175.18 250,-159.62 250,-147.28"/>
<polygon fill="midnightblue" stroke="midnightblue" points="253.5,-147.13 250,-137.13 246.5,-147.13 253.5,-147.13"/>
</g>
<!-- Node14&#45;&gt;Node7 -->
<g id="edge17" class="edge">
<title>Node14&#45;&gt;Node7</title>
<path fill="none" stroke="midnightblue" d="M419.19,-179.48C437.94,-156 475.59,-108.84 495.67,-83.69"/>
<polygon fill="midnightblue" stroke="midnightblue" points="498.48,-85.79 501.98,-75.79 493.01,-81.42 498.48,-85.79"/>
</g>
<!-- Node14&#45;&gt;Node11 -->
<g id="edge18" class="edge">
<title>Node14&#45;&gt;Node11</title>
<path fill="none" stroke="midnightblue" d="M442.5,-179.4C470.65,-167.89 510.01,-151.8 536.89,-140.81"/>
<polygon fill="midnightblue" stroke="midnightblue" points="538.26,-144.03 546.19,-137.01 535.61,-137.55 538.26,-144.03"/>
</g>
<!-- Node14&#45;&gt;Node13 -->
<g id="edge16" class="edge">
<title>Node14&#45;&gt;Node13</title>
<path fill="none" stroke="midnightblue" d="M373.72,-179.4C345.87,-167.94 306.97,-151.94 280.27,-140.95"/>
<polygon fill="midnightblue" stroke="midnightblue" points="281.26,-137.57 270.68,-137.01 278.59,-144.05 281.26,-137.57"/>
</g>
<!-- Node15&#45;&gt;Node7 -->
<g id="edge20" class="edge">
<title>Node15&#45;&gt;Node7</title>
<path fill="none" stroke="midnightblue" d="M555.18,-179.31C546.1,-169.83 534.91,-156.63 528,-143 518.79,-124.85 513.86,-101.94 511.35,-86.05"/>
<polygon fill="midnightblue" stroke="midnightblue" points="514.77,-85.3 509.92,-75.88 507.84,-86.27 514.77,-85.3"/>
</g>
<!-- Node16&#45;&gt;Node5 -->
<g id="edge24" class="edge">
<title>Node16&#45;&gt;Node5</title>
<path fill="none" stroke="midnightblue" d="M1025.56,-112.4C1005.88,-102.64 979.86,-89.74 960.59,-80.18"/>
<polygon fill="midnightblue" stroke="midnightblue" points="961.98,-76.96 951.46,-75.66 958.87,-83.24 961.98,-76.96"/>
</g>
<!-- Node16&#45;&gt;Node7 -->
<g id="edge26" class="edge">
<title>Node16&#45;&gt;Node7</title>
<path fill="none" stroke="midnightblue" d="M995.73,-118.08C980.53,-115.99 964.16,-113.82 949,-112 820.11,-96.51 669.57,-81.86 582.18,-73.69"/>
<polygon fill="midnightblue" stroke="midnightblue" points="582.39,-70.19 572.1,-72.75 581.74,-77.16 582.39,-70.19"/>
</g>
<!-- Node17 -->
<g id="node17" class="node">
<title>Node17</title>
<g id="a_node17"><a target="_blank" xlink:href="https://en.cppreference.com/w/cpp/header/functional.html" xlink:title=" ">
<polygon fill="white" stroke="black" points="974.5,-56.5 974.5,-75.5 1039.5,-75.5 1039.5,-56.5 974.5,-56.5"/>
<text text-anchor="middle" x="1007" y="-63.5" font-family="Helvetica,sans-Serif" font-size="10.00">functional</text>
</a>
</g>
</g>
<!-- Node16&#45;&gt;Node17 -->
<g id="edge22" class="edge">
<title>Node16&#45;&gt;Node17</title>
<path fill="none" stroke="midnightblue" d="M1042.86,-112.4C1036.03,-103.75 1027.26,-92.64 1020.09,-83.58"/>
<polygon fill="midnightblue" stroke="midnightblue" points="1022.78,-81.34 1013.84,-75.66 1017.29,-85.67 1022.78,-81.34"/>
</g>
<!-- Node18 -->
<g id="node18" class="node">
<title>Node18</title>
<g id="a_node18"><a target="_blank" xlink:href="https://en.cppreference.com/w/cpp/header/memory.html" xlink:title=" ">
<polygon fill="white" stroke="black" points="1058,-56.5 1058,-75.5 1116,-75.5 1116,-56.5 1058,-56.5"/>
<text text-anchor="middle" x="1087" y="-63.5" font-family="Helvetica,sans-Serif" font-size="10.00">memory</text>
</a>
</g>
</g>
<!-- Node16&#45;&gt;Node18 -->
<g id="edge23" class="edge">
<title>Node16&#45;&gt;Node18</title>
<path fill="none" stroke="midnightblue" d="M1061.82,-112.4C1066.47,-104.02 1072.4,-93.33 1077.34,-84.42"/>
<polygon fill="midnightblue" stroke="midnightblue" points="1080.41,-86.1 1082.2,-75.66 1074.29,-82.71 1080.41,-86.1"/>
</g>
<!-- Node19 -->
<g id="node19" class="node">
<title>Node19</title>
<g id="a_node19"><a target="_blank" xlink:href="https://en.cppreference.com/w/cpp/header/typeinfo.html" xlink:title=" ">
<polygon fill="white" stroke="black" points="1134.5,-56.5 1134.5,-75.5 1191.5,-75.5 1191.5,-56.5 1134.5,-56.5"/>
<text text-anchor="middle" x="1163" y="-63.5" font-family="Helvetica,sans-Serif" font-size="10.00">typeinfo</text>
</a>
</g>
</g>
<!-- Node16&#45;&gt;Node19 -->
<g id="edge25" class="edge">
<title>Node16&#45;&gt;Node19</title>
<path fill="none" stroke="midnightblue" d="M1079.83,-112.4C1097.47,-102.77 1120.7,-90.09 1138.13,-80.58"/>
<polygon fill="midnightblue" stroke="midnightblue" points="1140.04,-83.52 1147.14,-75.66 1136.69,-77.38 1140.04,-83.52"/>
</g>
<!-- Node20&#45;&gt;Node7 -->
<g id="edge30" class="edge">
<title>Node20&#45;&gt;Node7</title>
<path fill="none" stroke="midnightblue" d="M78,-179.43C105.47,-160.84 157.08,-128.5 206,-112 281.9,-86.39 373.37,-75.34 435.82,-70.58"/>
<polygon fill="midnightblue" stroke="midnightblue" points="436.25,-74.06 445.97,-69.84 435.74,-67.08 436.25,-74.06"/>
</g>
<!-- Node20&#45;&gt;Node13 -->
<g id="edge29" class="edge">
<title>Node20&#45;&gt;Node13</title>
<path fill="none" stroke="midnightblue" d="M99.66,-179.4C134.24,-167.69 182.86,-151.23 215.34,-140.23"/>
<polygon fill="midnightblue" stroke="midnightblue" points="216.52,-143.53 224.87,-137.01 214.28,-136.9 216.52,-143.53"/>
</g>
<!-- Node21 -->
<g id="node21" class="node">
<title>Node21</title>
<g id="a_node21"><a target="_blank" xlink:href="https://en.cppreference.com/w/cpp/header/tuple.html" xlink:title=" ">
<polygon fill="white" stroke="black" points="37.5,-118 37.5,-137 78.5,-137 78.5,-118 37.5,-118"/>
<text text-anchor="middle" x="58" y="-125" font-family="Helvetica,sans-Serif" font-size="10.00">tuple</text>
</a>
</g>
</g>
<!-- Node20&#45;&gt;Node21 -->
<g id="edge28" class="edge">
<title>Node20&#45;&gt;Node21</title>
<path fill="none" stroke="midnightblue" d="M58,-179.4C58,-170.06 58,-157.71 58,-147.52"/>
<polygon fill="midnightblue" stroke="midnightblue" points="61.5,-147.19 58,-137.19 54.5,-147.19 61.5,-147.19"/>
</g>
<!-- Node22&#45;&gt;Node7 -->
<g id="edge36" class="edge">
<title>Node22&#45;&gt;Node7</title>
<path fill="none" stroke="midnightblue" d="M699.37,-179.39C683.42,-169.62 662.07,-156.08 644,-143 626.34,-130.22 624.47,-123.57 606,-112 585.27,-99.02 560.19,-87.48 540.72,-79.34"/>
<polygon fill="midnightblue" stroke="midnightblue" points="541.97,-76.07 531.39,-75.51 539.31,-82.55 541.97,-76.07"/>
</g>
<!-- Node22&#45;&gt;Node11 -->
<g id="edge33" class="edge">
<title>Node22&#45;&gt;Node11</title>
<path fill="none" stroke="midnightblue" d="M689.15,-179.4C661.66,-167.94 623.25,-151.94 596.89,-140.95"/>
<polygon fill="midnightblue" stroke="midnightblue" points="597.99,-137.62 587.42,-137.01 595.3,-144.08 597.99,-137.62"/>
</g>
<!-- Node22&#45;&gt;Node13 -->
<g id="edge35" class="edge">
<title>Node22&#45;&gt;Node13</title>
<path fill="none" stroke="midnightblue" d="M669.3,-180.57C666.5,-180.01 663.72,-179.48 661,-179 528.67,-155.47 370.42,-139.37 294.68,-132.4"/>
<polygon fill="midnightblue" stroke="midnightblue" points="294.83,-128.9 284.56,-131.48 294.2,-135.87 294.83,-128.9"/>
</g>
<!-- Node23 -->
<g id="node23" class="node">
<title>Node23</title>
<g id="a_node23"><a target="_blank" xlink:href="https://en.cppreference.com/w/cpp/header/limits.html" xlink:title=" ">
<polygon fill="white" stroke="black" points="653,-118 653,-137 697,-137 697,-118 653,-118"/>
<text text-anchor="middle" x="675" y="-125" font-family="Helvetica,sans-Serif" font-size="10.00">limits</text>
</a>
</g>
</g>
<!-- Node22&#45;&gt;Node23 -->
<g id="edge34" class="edge">
<title>Node22&#45;&gt;Node23</title>
<path fill="none" stroke="midnightblue" d="M712.58,-179.4C705.17,-169.36 695.19,-155.84 687.37,-145.25"/>
<polygon fill="midnightblue" stroke="midnightblue" points="690.18,-143.16 681.42,-137.19 684.55,-147.32 690.18,-143.16"/>
</g>
</g>
</svg>
        <g id="navigator" transform="translate(0 0)" fill="#404254">
                <rect fill="#f2f5e9" fill-opacity="0.5" stroke="#606060" stroke-width=".5" x="0" y="0" width="60" height="60"/>
                <use id="zoomplus" xlink:href="#zoomPlus" x="17" y="9" onmousedown="handleZoom(evt,'in')"/>
                <use id="zoomminus" xlink:href="#zoomMin" x="42" y="9" onmousedown="handleZoom(evt,'out')"/>
                <use id="reset" xlink:href="#resetDef" x="30" y="36" onmousedown="handleReset()"/>
                <g id="arrowUp" xlink:href="#dirArrow" transform="translate(30 24)" onmousedown="handlePan(0,-1)">
                  <use xlink:href="#rim" fill="#404040">
                        <set attributeName="fill" to="#808080" begin="arrowUp.mouseover" end="arrowUp.mouseout"/>
                  </use>
                  <path fill="none" stroke="white" stroke-width="1.5" d="M0,-3.0v7 M-2.5,-0.5L0,-3.0L2.5,-0.5"/>
                </g>
                <g id="arrowRight" xlink:href="#dirArrow" transform="rotate(90) translate(36 -43)" onmousedown="handlePan(1,0)">
                  <use xlink:href="#rim" fill="#404040">
                        <set attributeName="fill" to="#808080" begin="arrowRight.mouseover" end="arrowRight.mouseout"/>
                  </use>
                  <path fill="none" stroke="white" stroke-width="1.5" d="M0,-3.0v7 M-2.5,-0.5L0,-3.0L2.5,-0.5"/>
                </g>
                <g id="arrowDown" xlink:href="#dirArrow" transform="rotate(180) translate(-30 -48)" onmousedown="handlePan(0,1)">
                  <use xlink:href="#rim" fill="#404040">
                        <set attributeName="fill" to="#808080" begin="arrowDown.mouseover" end="arrowDown.mouseout"/>
                  </use>
                  <path fill="none" stroke="white" stroke-width="1.5" d="M0,-3.0v7 M-2.5,-0.5L0,-3.0L2.5,-0.5"/>
                </g>
                <g id="arrowLeft" xlink:href="#dirArrow" transform="rotate(270) translate(-36 17)" onmousedown="handlePan(-1,0)">
                  <use xlink:href="#rim" fill="#404040">
                        <set attributeName="fill" to="#808080" begin="arrowLeft.mouseover" end="arrowLeft.mouseout"/>
                  </use>
                  <path fill="none" stroke="white" stroke-width="1.5" d="M0,-3.0v7 M-2.5,-0.5L0,-3.0L2.5,-0.5"/>
                </g>
        </g>
        <svg viewBox="0 0 15 15" width="100%" height="30px" preserveAspectRatio="xMaxYMin meet">
         <g id="arrow_out" transform="scale(0.3 0.3)">
          <a xlink:href="uint_8hpp__incl_org.svg" target="_base">
           <rect id="button" ry="5" rx="5" y="6" x="6" height="38" width="38"
                fill="#f2f5e9" fill-opacity="0.5" stroke="#606060" stroke-width="1.0"/>
           <path id="arrow"
             d="M 11.500037,31.436501 C 11.940474,20.09759 22.043105,11.32322 32.158766,21.979434 L 37.068811,17.246167 C 37.068811,17.246167 37.088388,32 37.088388,32 L 22.160133,31.978069 C 22.160133,31.978069 26.997745,27.140456 26.997745,27.140456 C 18.528582,18.264221 13.291696,25.230495 11.500037,31.436501 z"
             style="fill:#404040;"/>
          </a>
         </g>
        </svg>
</svg>
