<?xml version="1.0" encoding="UTF-8" standalone="no"?>
<!DOCTYPE svg PUBLIC "-//W3C//DTD SVG 1.1//EN"
 "http://www.w3.org/Graphics/SVG/1.1/DTD/svg11.dtd">
<!-- Generated by graphviz version 2.43.0 (0)
 -->
<!-- Title: bio/alphabet/composite/variant.hpp Pages: 1 -->
<svg width="263pt" height="214pt"
 viewBox="0.00 0.00 263.00 214.00" xmlns="http://www.w3.org/2000/svg" xmlns:xlink="http://www.w3.org/1999/xlink">
<g id="graph0" class="graph" transform="scale(1 1) rotate(0) translate(4 210)">
<title>bio/alphabet/composite/variant.hpp</title>
<!-- Node1 -->
<g id="node1" class="node">
<title>Node1</title>
<g id="a_node1"><a xlink:title="Provides bio::alphabet::variant.">
<polygon fill="#999999" stroke="#666666" points="184,-206 67,-206 67,-176 184,-176 184,-206"/>
<text text-anchor="start" x="75" y="-194" font-family="Helvetica,sans-Serif" font-size="10.00">bio/alphabet/composite</text>
<text text-anchor="middle" x="125.5" y="-183" font-family="Helvetica,sans-Serif" font-size="10.00">/variant.hpp</text>
</a>
</g>
</g>
<!-- Node2 -->
<g id="node2" class="node">
<title>Node2</title>
<g id="a_node2"><a xlink:href="alphabet_2composite_2all_8hpp.html" target="_top" xlink:title="Meta&#45;header for the composite submodule; includes all headers from alphabet/composite/.">
<polygon fill="white" stroke="#666666" points="117,-85 0,-85 0,-55 117,-55 117,-85"/>
<text text-anchor="start" x="8" y="-73" font-family="Helvetica,sans-Serif" font-size="10.00">bio/alphabet/composite</text>
<text text-anchor="middle" x="58.5" y="-62" font-family="Helvetica,sans-Serif" font-size="10.00">/all.hpp</text>
</a>
</g>
</g>
<!-- Node1&#45;&gt;Node2 -->
<g id="edge1" class="edge">
<title>Node1&#45;&gt;Node2</title>
<path fill="none" stroke="#63b8ff" d="M112.55,-166.99C98.89,-142.74 77.82,-105.31 66.44,-85.1"/>
<polygon fill="#63b8ff" stroke="#63b8ff" points="109.6,-168.89 117.55,-175.88 115.69,-165.45 109.6,-168.89"/>
</g>
<!-- Node4 -->
<g id="node4" class="node">
<title>Node4</title>
<g id="a_node4"><a xlink:href="gapped_8hpp.html" target="_top" xlink:title="Provides bio::alphabet::gapped.">
<polygon fill="white" stroke="#666666" points="255,-140 114,-140 114,-121 255,-121 255,-140"/>
<text text-anchor="middle" x="184.5" y="-128" font-family="Helvetica,sans-Serif" font-size="10.00">bio/alphabet/gap/gapped.hpp</text>
</a>
</g>
</g>
<!-- Node1&#45;&gt;Node4 -->
<g id="edge3" class="edge">
<title>Node1&#45;&gt;Node4</title>
<path fill="none" stroke="#63b8ff" d="M147.01,-168.67C156.91,-158.86 168.1,-147.76 175.66,-140.27"/>
<polygon fill="#63b8ff" stroke="#63b8ff" points="144.42,-166.31 139.78,-175.84 149.35,-171.28 144.42,-166.31"/>
</g>
<!-- Node3 -->
<g id="node3" class="node">
<title>Node3</title>
<g id="a_node3"><a xlink:href="alphabet_2all_8hpp.html" target="_top" xlink:title="Meta&#45;header for the alphabet module.">
<polygon fill="white" stroke="#666666" points="177,-19 76,-19 76,0 177,0 177,-19"/>
<text text-anchor="middle" x="126.5" y="-7" font-family="Helvetica,sans-Serif" font-size="10.00">bio/alphabet/all.hpp</text>
</a>
</g>
</g>
<!-- Node2&#45;&gt;Node3 -->
<g id="edge2" class="edge">
<title>Node2&#45;&gt;Node3</title>
<path fill="none" stroke="#63b8ff" d="M82.63,-48.24C94.19,-38.29 107.43,-26.91 116.31,-19.27"/>
<polygon fill="#63b8ff" stroke="#63b8ff" points="80.26,-45.66 74.96,-54.84 84.82,-50.97 80.26,-45.66"/>
</g>
<!-- Node5 -->
<g id="node5" class="node">
<title>Node5</title>
<g id="a_node5"><a xlink:href="alphabet_2gap_2all_8hpp.html" target="_top" xlink:title="Meta&#45;header for the gap submodule; includes all headers from alphabet/gap/.">
<polygon fill="white" stroke="#666666" points="254,-79.5 135,-79.5 135,-60.5 254,-60.5 254,-79.5"/>
<text text-anchor="middle" x="194.5" y="-67.5" font-family="Helvetica,sans-Serif" font-size="10.00">bio/alphabet/gap/all.hpp</text>
</a>
</g>
</g>
<!-- Node4&#45;&gt;Node5 -->
<g id="edge4" class="edge">
<title>Node4&#45;&gt;Node5</title>
<path fill="none" stroke="#63b8ff" d="M187.66,-110.99C189.46,-100.51 191.61,-87.89 193.02,-79.67"/>
<polygon fill="#63b8ff" stroke="#63b8ff" points="184.21,-110.42 185.98,-120.87 191.11,-111.6 184.21,-110.42"/>
</g>
<!-- Node5&#45;&gt;Node3 -->
<g id="edge5" class="edge">
<title>Node5&#45;&gt;Node3</title>
<path fill="none" stroke="#63b8ff" d="M176.74,-53.72C163.95,-42.71 147.14,-28.25 136.57,-19.17"/>
<polygon fill="#63b8ff" stroke="#63b8ff" points="174.6,-56.5 184.47,-60.37 179.17,-51.19 174.6,-56.5"/>
</g>
</g>
</svg>
