<?xml version="1.0" encoding="UTF-8" standalone="no"?>
<!DOCTYPE svg PUBLIC "-//W3C//DTD SVG 1.1//EN"
 "http://www.w3.org/Graphics/SVG/1.1/DTD/svg11.dtd">
<!-- Generated by graphviz version 2.43.0 (0)
 -->
<!-- Title: bio/meta/tag/vtag.hpp Pages: 1 -->
<svg width="1731pt" height="544pt"
 viewBox="0.00 0.00 1731.00 544.00" xmlns="http://www.w3.org/2000/svg" xmlns:xlink="http://www.w3.org/1999/xlink">
<g id="graph0" class="graph" transform="scale(1 1) rotate(0) translate(4 540)">
<title>bio/meta/tag/vtag.hpp</title>
<!-- Node1 -->
<g id="node1" class="node">
<title>Node1</title>
<g id="a_node1"><a xlink:title="Provides bio::meta::vtag.">
<polygon fill="#999999" stroke="#666666" points="1226,-536 1115,-536 1115,-517 1226,-517 1226,-536"/>
<text text-anchor="middle" x="1170.5" y="-524" font-family="Helvetica,sans-Serif" font-size="10.00">bio/meta/tag/vtag.hpp</text>
</a>
</g>
</g>
<!-- Node2 -->
<g id="node2" class="node">
<title>Node2</title>
<g id="a_node2"><a xlink:href="alphabet_2detail_2convert_8hpp_source.html" target="_top" xlink:title=" ">
<polygon fill="white" stroke="#666666" points="1101,-481 1006,-481 1006,-451 1101,-451 1101,-481"/>
<text text-anchor="start" x="1014" y="-469" font-family="Helvetica,sans-Serif" font-size="10.00">bio/alphabet/detail</text>
<text text-anchor="middle" x="1053.5" y="-458" font-family="Helvetica,sans-Serif" font-size="10.00">/convert.hpp</text>
</a>
</g>
</g>
<!-- Node1&#45;&gt;Node2 -->
<g id="edge1" class="edge">
<title>Node1&#45;&gt;Node2</title>
<path fill="none" stroke="#63b8ff" d="M1144.42,-512.46C1125.85,-503.18 1100.92,-490.71 1081.86,-481.18"/>
<polygon fill="#63b8ff" stroke="#63b8ff" points="1142.98,-515.65 1153.49,-516.99 1146.11,-509.39 1142.98,-515.65"/>
</g>
<!-- Node31 -->
<g id="node31" class="node">
<title>Node31</title>
<g id="a_node31"><a xlink:href="meta_2tag_2all_8hpp.html" target="_top" xlink:title="Meta&#45;header for the folder.">
<polygon fill="white" stroke="#666666" points="1221.5,-475.5 1119.5,-475.5 1119.5,-456.5 1221.5,-456.5 1221.5,-475.5"/>
<text text-anchor="middle" x="1170.5" y="-463.5" font-family="Helvetica,sans-Serif" font-size="10.00">bio/meta/tag/all.hpp</text>
</a>
</g>
</g>
<!-- Node1&#45;&gt;Node31 -->
<g id="edge62" class="edge">
<title>Node1&#45;&gt;Node31</title>
<path fill="none" stroke="#63b8ff" d="M1170.5,-506.66C1170.5,-496.24 1170.5,-483.8 1170.5,-475.67"/>
<polygon fill="#63b8ff" stroke="#63b8ff" points="1167,-506.87 1170.5,-516.87 1174,-506.87 1167,-506.87"/>
</g>
<!-- Node32 -->
<g id="node32" class="node">
<title>Node32</title>
<g id="a_node32"><a xlink:href="dictionary_8hpp.html" target="_top" xlink:title="Provides bio::ranges::dictionary.">
<polygon fill="white" stroke="#666666" points="1343.5,-481 1239.5,-481 1239.5,-451 1343.5,-451 1343.5,-481"/>
<text text-anchor="start" x="1247.5" y="-469" font-family="Helvetica,sans-Serif" font-size="10.00">bio/ranges/container</text>
<text text-anchor="middle" x="1291.5" y="-458" font-family="Helvetica,sans-Serif" font-size="10.00">/dictionary.hpp</text>
</a>
</g>
</g>
<!-- Node1&#45;&gt;Node32 -->
<g id="edge63" class="edge">
<title>Node1&#45;&gt;Node32</title>
<path fill="none" stroke="#63b8ff" d="M1197.2,-512.59C1216.43,-503.29 1242.37,-490.75 1262.18,-481.18"/>
<polygon fill="#63b8ff" stroke="#63b8ff" points="1195.57,-509.49 1188.09,-516.99 1198.62,-515.79 1195.57,-509.49"/>
</g>
<!-- Node3 -->
<g id="node3" class="node">
<title>Node3</title>
<g id="a_node3"><a xlink:href="aminoacid__base_8hpp.html" target="_top" xlink:title="Provides bio::alphabet::aminoacid_base.">
<polygon fill="white" stroke="#666666" points="557.5,-415 441.5,-415 441.5,-385 557.5,-385 557.5,-415"/>
<text text-anchor="start" x="449.5" y="-403" font-family="Helvetica,sans-Serif" font-size="10.00">bio/alphabet/aminoacid</text>
<text text-anchor="middle" x="499.5" y="-392" font-family="Helvetica,sans-Serif" font-size="10.00">/aminoacid_base.hpp</text>
</a>
</g>
</g>
<!-- Node2&#45;&gt;Node3 -->
<g id="edge2" class="edge">
<title>Node2&#45;&gt;Node3</title>
<path fill="none" stroke="#63b8ff" d="M995.57,-458.31C889.21,-446.02 664.01,-420 557.56,-407.71"/>
<polygon fill="#63b8ff" stroke="#63b8ff" points="995.45,-461.82 1005.79,-459.49 996.25,-454.86 995.45,-461.82"/>
</g>
<!-- Node16 -->
<g id="node16" class="node">
<title>Node16</title>
<g id="a_node16"><a xlink:href="nucleotide__base_8hpp.html" target="_top" xlink:title="Provides bio::alphabet::nucleotide_base.">
<polygon fill="white" stroke="#666666" points="1111.5,-415 995.5,-415 995.5,-385 1111.5,-385 1111.5,-415"/>
<text text-anchor="start" x="1003.5" y="-403" font-family="Helvetica,sans-Serif" font-size="10.00">bio/alphabet/nucleotide</text>
<text text-anchor="middle" x="1053.5" y="-392" font-family="Helvetica,sans-Serif" font-size="10.00">/nucleotide_base.hpp</text>
</a>
</g>
</g>
<!-- Node2&#45;&gt;Node16 -->
<g id="edge24" class="edge">
<title>Node2&#45;&gt;Node16</title>
<path fill="none" stroke="#63b8ff" d="M1053.5,-440.54C1053.5,-431.96 1053.5,-422.61 1053.5,-415.16"/>
<polygon fill="#63b8ff" stroke="#63b8ff" points="1050,-440.8 1053.5,-450.8 1057,-440.8 1050,-440.8"/>
</g>
<!-- Node27 -->
<g id="node27" class="node">
<title>Node27</title>
<g id="a_node27"><a xlink:href="quality__base_8hpp.html" target="_top" xlink:title="Provides bio::alphabet::phred42 quality scores.">
<polygon fill="white" stroke="#666666" points="1604,-349 1503,-349 1503,-319 1604,-319 1604,-349"/>
<text text-anchor="start" x="1511" y="-337" font-family="Helvetica,sans-Serif" font-size="10.00">bio/alphabet/quality</text>
<text text-anchor="middle" x="1553.5" y="-326" font-family="Helvetica,sans-Serif" font-size="10.00">/quality_base.hpp</text>
</a>
</g>
</g>
<!-- Node2&#45;&gt;Node27 -->
<g id="edge54" class="edge">
<title>Node2&#45;&gt;Node27</title>
<path fill="none" stroke="#63b8ff" d="M1111.24,-449.99C1209.85,-424.35 1409.12,-372.54 1502.74,-348.2"/>
<polygon fill="#63b8ff" stroke="#63b8ff" points="1110.24,-446.63 1101.44,-452.54 1112,-453.41 1110.24,-446.63"/>
</g>
<!-- Node4 -->
<g id="node4" class="node">
<title>Node4</title>
<g id="a_node4"><a xlink:href="aa10li_8hpp.html" target="_top" xlink:title="Provides bio::alphabet::aa10li, container aliases and string literals.">
<polygon fill="white" stroke="#666666" points="423.5,-217 307.5,-217 307.5,-187 423.5,-187 423.5,-217"/>
<text text-anchor="start" x="315.5" y="-205" font-family="Helvetica,sans-Serif" font-size="10.00">bio/alphabet/aminoacid</text>
<text text-anchor="middle" x="365.5" y="-194" font-family="Helvetica,sans-Serif" font-size="10.00">/aa10li.hpp</text>
</a>
</g>
</g>
<!-- Node3&#45;&gt;Node4 -->
<g id="edge3" class="edge">
<title>Node3&#45;&gt;Node4</title>
<path fill="none" stroke="#63b8ff" d="M484.09,-376.46C456.23,-335.71 398.25,-250.91 375.23,-217.23"/>
<polygon fill="#63b8ff" stroke="#63b8ff" points="481.33,-378.62 489.86,-384.9 487.11,-374.67 481.33,-378.62"/>
</g>
<!-- Node7 -->
<g id="node7" class="node">
<title>Node7</title>
<g id="a_node7"><a xlink:href="aa10murphy_8hpp.html" target="_top" xlink:title="Provides bio::alphabet::aa10murphy, container aliases and string literals.">
<polygon fill="white" stroke="#666666" points="557.5,-217 441.5,-217 441.5,-187 557.5,-187 557.5,-217"/>
<text text-anchor="start" x="449.5" y="-205" font-family="Helvetica,sans-Serif" font-size="10.00">bio/alphabet/aminoacid</text>
<text text-anchor="middle" x="499.5" y="-194" font-family="Helvetica,sans-Serif" font-size="10.00">/aa10murphy.hpp</text>
</a>
</g>
</g>
<!-- Node3&#45;&gt;Node7 -->
<g id="edge6" class="edge">
<title>Node3&#45;&gt;Node7</title>
<path fill="none" stroke="#63b8ff" d="M499.5,-374.89C499.5,-333.58 499.5,-250.48 499.5,-217.23"/>
<polygon fill="#63b8ff" stroke="#63b8ff" points="496,-374.9 499.5,-384.9 503,-374.9 496,-374.9"/>
</g>
<!-- Node8 -->
<g id="node8" class="node">
<title>Node8</title>
<g id="a_node8"><a xlink:href="aa20_8hpp.html" target="_top" xlink:title="Provides bio::alphabet::aa20, container aliases and string literals.">
<polygon fill="white" stroke="#666666" points="691.5,-217 575.5,-217 575.5,-187 691.5,-187 691.5,-217"/>
<text text-anchor="start" x="583.5" y="-205" font-family="Helvetica,sans-Serif" font-size="10.00">bio/alphabet/aminoacid</text>
<text text-anchor="middle" x="633.5" y="-194" font-family="Helvetica,sans-Serif" font-size="10.00">/aa20.hpp</text>
</a>
</g>
</g>
<!-- Node3&#45;&gt;Node8 -->
<g id="edge8" class="edge">
<title>Node3&#45;&gt;Node8</title>
<path fill="none" stroke="#63b8ff" d="M514.91,-376.46C542.77,-335.71 600.75,-250.91 623.77,-217.23"/>
<polygon fill="#63b8ff" stroke="#63b8ff" points="511.89,-374.67 509.14,-384.9 517.67,-378.62 511.89,-374.67"/>
</g>
<!-- Node9 -->
<g id="node9" class="node">
<title>Node9</title>
<g id="a_node9"><a xlink:href="aa27_8hpp.html" target="_top" xlink:title="Provides bio::alphabet::aa27, container aliases and string literals.">
<polygon fill="white" stroke="#666666" points="195.5,-349 79.5,-349 79.5,-319 195.5,-319 195.5,-349"/>
<text text-anchor="start" x="87.5" y="-337" font-family="Helvetica,sans-Serif" font-size="10.00">bio/alphabet/aminoacid</text>
<text text-anchor="middle" x="137.5" y="-326" font-family="Helvetica,sans-Serif" font-size="10.00">/aa27.hpp</text>
</a>
</g>
</g>
<!-- Node3&#45;&gt;Node9 -->
<g id="edge10" class="edge">
<title>Node3&#45;&gt;Node9</title>
<path fill="none" stroke="#63b8ff" d="M431.14,-386.91C363.07,-374.88 259.71,-356.61 195.52,-345.26"/>
<polygon fill="#63b8ff" stroke="#63b8ff" points="430.88,-390.42 441.34,-388.72 432.1,-383.53 430.88,-390.42"/>
</g>
<!-- Node5 -->
<g id="node5" class="node">
<title>Node5</title>
<g id="a_node5"><a xlink:href="alphabet_2aminoacid_2all_8hpp.html" target="_top" xlink:title="Meta&#45;header for the aminoacid submodule; includes all headers from alphabet/aminoacid/.">
<polygon fill="white" stroke="#666666" points="423.5,-151 307.5,-151 307.5,-121 423.5,-121 423.5,-151"/>
<text text-anchor="start" x="315.5" y="-139" font-family="Helvetica,sans-Serif" font-size="10.00">bio/alphabet/aminoacid</text>
<text text-anchor="middle" x="365.5" y="-128" font-family="Helvetica,sans-Serif" font-size="10.00">/all.hpp</text>
</a>
</g>
</g>
<!-- Node4&#45;&gt;Node5 -->
<g id="edge4" class="edge">
<title>Node4&#45;&gt;Node5</title>
<path fill="none" stroke="#63b8ff" d="M365.5,-176.54C365.5,-167.96 365.5,-158.61 365.5,-151.16"/>
<polygon fill="#63b8ff" stroke="#63b8ff" points="362,-176.8 365.5,-186.8 369,-176.8 362,-176.8"/>
</g>
<!-- Node6 -->
<g id="node6" class="node">
<title>Node6</title>
<g id="a_node6"><a xlink:href="alphabet_2all_8hpp.html" target="_top" xlink:title="Meta&#45;header for the alphabet module.">
<polygon fill="white" stroke="#666666" points="1104,-79.5 1003,-79.5 1003,-60.5 1104,-60.5 1104,-79.5"/>
<text text-anchor="middle" x="1053.5" y="-67.5" font-family="Helvetica,sans-Serif" font-size="10.00">bio/alphabet/all.hpp</text>
</a>
</g>
</g>
<!-- Node5&#45;&gt;Node6 -->
<g id="edge5" class="edge">
<title>Node5&#45;&gt;Node6</title>
<path fill="none" stroke="#63b8ff" d="M433.59,-128.67C571.52,-115.84 881.11,-87.04 1002.91,-75.71"/>
<polygon fill="#63b8ff" stroke="#63b8ff" points="433.2,-125.19 423.57,-129.6 433.85,-132.16 433.2,-125.19"/>
</g>
<!-- Node7&#45;&gt;Node5 -->
<g id="edge7" class="edge">
<title>Node7&#45;&gt;Node5</title>
<path fill="none" stroke="#63b8ff" d="M460.79,-182.51C439.77,-172.47 414.2,-160.26 394.84,-151.01"/>
<polygon fill="#63b8ff" stroke="#63b8ff" points="459.56,-185.8 470.09,-186.95 462.58,-179.49 459.56,-185.8"/>
</g>
<!-- Node8&#45;&gt;Node5 -->
<g id="edge9" class="edge">
<title>Node8&#45;&gt;Node5</title>
<path fill="none" stroke="#63b8ff" d="M565.35,-184.73C521.53,-174.26 465.22,-160.81 423.54,-150.86"/>
<polygon fill="#63b8ff" stroke="#63b8ff" points="564.81,-188.19 575.35,-187.11 566.43,-181.39 564.81,-188.19"/>
</g>
<!-- Node9&#45;&gt;Node5 -->
<g id="edge11" class="edge">
<title>Node9&#45;&gt;Node5</title>
<path fill="none" stroke="#63b8ff" d="M150.95,-310.15C161.4,-293.38 176.88,-270.56 193.5,-253 236.57,-207.48 300.55,-170.25 337.12,-151.07"/>
<polygon fill="#63b8ff" stroke="#63b8ff" points="147.91,-308.41 145.68,-318.77 153.88,-312.06 147.91,-308.41"/>
</g>
<!-- Node10 -->
<g id="node10" class="node">
<title>Node10</title>
<g id="a_node10"><a xlink:href="translation_8hpp.html" target="_top" xlink:title="Provides functions for translating a triplet of nucleotides into an amino acid.">
<polygon fill="white" stroke="#666666" points="175.5,-217 59.5,-217 59.5,-187 175.5,-187 175.5,-217"/>
<text text-anchor="start" x="67.5" y="-205" font-family="Helvetica,sans-Serif" font-size="10.00">bio/alphabet/aminoacid</text>
<text text-anchor="middle" x="117.5" y="-194" font-family="Helvetica,sans-Serif" font-size="10.00">/translation.hpp</text>
</a>
</g>
</g>
<!-- Node9&#45;&gt;Node10 -->
<g id="edge12" class="edge">
<title>Node9&#45;&gt;Node10</title>
<path fill="none" stroke="#63b8ff" d="M133.76,-308.68C129.61,-281.7 123.06,-239.11 119.68,-217.14"/>
<polygon fill="#63b8ff" stroke="#63b8ff" points="130.34,-309.49 135.32,-318.84 137.26,-308.42 130.34,-309.49"/>
</g>
<!-- Node11 -->
<g id="node11" class="node">
<title>Node11</title>
<g id="a_node11"><a xlink:href="translate_8hpp.html" target="_top" xlink:title="Provides bio::views::translate and bio::views::translate_single.">
<polygon fill="white" stroke="#666666" points="149,-79.5 0,-79.5 0,-60.5 149,-60.5 149,-79.5"/>
<text text-anchor="middle" x="74.5" y="-67.5" font-family="Helvetica,sans-Serif" font-size="10.00">bio/ranges/views/translate.hpp</text>
</a>
</g>
</g>
<!-- Node9&#45;&gt;Node11 -->
<g id="edge22" class="edge">
<title>Node9&#45;&gt;Node11</title>
<path fill="none" stroke="#63b8ff" d="M90.27,-314.25C76.21,-306.52 62.02,-296.22 52.5,-283 5.58,-217.84 54.01,-110.82 69.86,-79.72"/>
<polygon fill="#63b8ff" stroke="#63b8ff" points="88.96,-317.5 99.45,-318.95 92.15,-311.28 88.96,-317.5"/>
</g>
<!-- Node13 -->
<g id="node13" class="node">
<title>Node13</title>
<g id="a_node13"><a xlink:href="translate__single_8hpp.html" target="_top" xlink:title="Provides bio::views::translate and bio::views::translate_single.">
<polygon fill="white" stroke="#666666" points="234,-151 103,-151 103,-121 234,-121 234,-151"/>
<text text-anchor="start" x="111" y="-139" font-family="Helvetica,sans-Serif" font-size="10.00">bio/ranges/views/translate</text>
<text text-anchor="middle" x="168.5" y="-128" font-family="Helvetica,sans-Serif" font-size="10.00">_single.hpp</text>
</a>
</g>
</g>
<!-- Node9&#45;&gt;Node13 -->
<g id="edge23" class="edge">
<title>Node9&#45;&gt;Node13</title>
<path fill="none" stroke="#63b8ff" d="M109.69,-312.45C74.46,-283.84 21.61,-230.61 50.5,-187 62.54,-168.82 82.65,-157.23 102.9,-149.85"/>
<polygon fill="#63b8ff" stroke="#63b8ff" points="107.76,-315.38 117.77,-318.84 112.1,-309.89 107.76,-315.38"/>
</g>
<!-- Node15 -->
<g id="node15" class="node">
<title>Node15</title>
<g id="a_node15"><a xlink:href="translation__details_8hpp.html" target="_top" xlink:title="Provides translation details for nucleotide to aminoacid translation.">
<polygon fill="white" stroke="#666666" points="320,-283 203,-283 203,-253 320,-253 320,-283"/>
<text text-anchor="start" x="211" y="-271" font-family="Helvetica,sans-Serif" font-size="10.00">bio/alphabet/aminoacid</text>
<text text-anchor="middle" x="261.5" y="-260" font-family="Helvetica,sans-Serif" font-size="10.00">/translation_details.hpp</text>
</a>
</g>
</g>
<!-- Node9&#45;&gt;Node15 -->
<g id="edge19" class="edge">
<title>Node9&#45;&gt;Node15</title>
<path fill="none" stroke="#63b8ff" d="M173.84,-314.24C193.2,-304.25 216.6,-292.18 234.35,-283.01"/>
<polygon fill="#63b8ff" stroke="#63b8ff" points="171.99,-311.26 164.71,-318.95 175.2,-317.48 171.99,-311.26"/>
</g>
<!-- Node10&#45;&gt;Node5 -->
<g id="edge13" class="edge">
<title>Node10&#45;&gt;Node5</title>
<path fill="none" stroke="#63b8ff" d="M181.63,-184.45C221.81,-174.08 273.03,-160.86 311.2,-151.01"/>
<polygon fill="#63b8ff" stroke="#63b8ff" points="180.73,-181.07 171.92,-186.95 182.48,-187.85 180.73,-181.07"/>
</g>
<!-- Node10&#45;&gt;Node11 -->
<g id="edge14" class="edge">
<title>Node10&#45;&gt;Node11</title>
<path fill="none" stroke="#63b8ff" d="M105.11,-177.84C101.01,-169.54 96.69,-160 93.5,-151 84.54,-125.7 78.49,-94.42 75.91,-79.58"/>
<polygon fill="#63b8ff" stroke="#63b8ff" points="102.07,-179.59 109.73,-186.91 108.31,-176.41 102.07,-179.59"/>
</g>
<!-- Node10&#45;&gt;Node13 -->
<g id="edge16" class="edge">
<title>Node10&#45;&gt;Node13</title>
<path fill="none" stroke="#63b8ff" d="M135.18,-178.81C142.49,-169.64 150.75,-159.28 157.21,-151.16"/>
<polygon fill="#63b8ff" stroke="#63b8ff" points="132.31,-176.79 128.82,-186.8 137.79,-181.16 132.31,-176.79"/>
</g>
<!-- Node12 -->
<g id="node12" class="node">
<title>Node12</title>
<g id="a_node12"><a xlink:href="ranges_2views_2all_8hpp.html" target="_top" xlink:title="Meta&#45;header for the views submodule .">
<polygon fill="white" stroke="#666666" points="135.5,-19 13.5,-19 13.5,0 135.5,0 135.5,-19"/>
<text text-anchor="middle" x="74.5" y="-7" font-family="Helvetica,sans-Serif" font-size="10.00">bio/ranges/views/all.hpp</text>
</a>
</g>
</g>
<!-- Node11&#45;&gt;Node12 -->
<g id="edge15" class="edge">
<title>Node11&#45;&gt;Node12</title>
<path fill="none" stroke="#63b8ff" d="M74.5,-50.16C74.5,-39.74 74.5,-27.3 74.5,-19.17"/>
<polygon fill="#63b8ff" stroke="#63b8ff" points="71,-50.37 74.5,-60.37 78,-50.37 71,-50.37"/>
</g>
<!-- Node13&#45;&gt;Node11 -->
<g id="edge17" class="edge">
<title>Node13&#45;&gt;Node11</title>
<path fill="none" stroke="#63b8ff" d="M138.94,-114.87C121.54,-103.03 100.42,-88.65 87.22,-79.66"/>
<polygon fill="#63b8ff" stroke="#63b8ff" points="137.4,-118.06 147.64,-120.8 141.34,-112.28 137.4,-118.06"/>
</g>
<!-- Node14 -->
<g id="node14" class="node">
<title>Node14</title>
<g id="a_node14"><a xlink:href="translate__join_8hpp.html" target="_top" xlink:title="Provides bio::views::translate_join.">
<polygon fill="white" stroke="#666666" points="298,-85 167,-85 167,-55 298,-55 298,-85"/>
<text text-anchor="start" x="175" y="-73" font-family="Helvetica,sans-Serif" font-size="10.00">bio/ranges/views/translate</text>
<text text-anchor="middle" x="232.5" y="-62" font-family="Helvetica,sans-Serif" font-size="10.00">_join.hpp</text>
</a>
</g>
</g>
<!-- Node13&#45;&gt;Node14 -->
<g id="edge18" class="edge">
<title>Node13&#45;&gt;Node14</title>
<path fill="none" stroke="#63b8ff" d="M189.85,-113.65C199.23,-104.27 209.97,-93.53 218.34,-85.16"/>
<polygon fill="#63b8ff" stroke="#63b8ff" points="187.3,-111.25 182.7,-120.8 192.25,-116.2 187.3,-111.25"/>
</g>
<!-- Node15&#45;&gt;Node5 -->
<g id="edge20" class="edge">
<title>Node15&#45;&gt;Node5</title>
<path fill="none" stroke="#63b8ff" d="M268.99,-243.14C275.1,-226.25 284.93,-203.73 298.5,-187 310.2,-172.57 326.95,-160.07 340.78,-151.18"/>
<polygon fill="#63b8ff" stroke="#63b8ff" points="265.6,-242.23 265.67,-252.82 272.23,-244.5 265.6,-242.23"/>
</g>
<!-- Node15&#45;&gt;Node10 -->
<g id="edge21" class="edge">
<title>Node15&#45;&gt;Node10</title>
<path fill="none" stroke="#63b8ff" d="M220.51,-248.78C197.81,-238.69 170.02,-226.34 149.03,-217.01"/>
<polygon fill="#63b8ff" stroke="#63b8ff" points="219.34,-252.09 229.9,-252.95 222.18,-245.7 219.34,-252.09"/>
</g>
<!-- Node17 -->
<g id="node17" class="node">
<title>Node17</title>
<g id="a_node17"><a xlink:href="dna15_8hpp.html" target="_top" xlink:title="Provides bio::alphabet::dna15, container aliases and string literals.">
<polygon fill="white" stroke="#666666" points="1111.5,-349 995.5,-349 995.5,-319 1111.5,-319 1111.5,-349"/>
<text text-anchor="start" x="1003.5" y="-337" font-family="Helvetica,sans-Serif" font-size="10.00">bio/alphabet/nucleotide</text>
<text text-anchor="middle" x="1053.5" y="-326" font-family="Helvetica,sans-Serif" font-size="10.00">/dna15.hpp</text>
</a>
</g>
</g>
<!-- Node16&#45;&gt;Node17 -->
<g id="edge25" class="edge">
<title>Node16&#45;&gt;Node17</title>
<path fill="none" stroke="#63b8ff" d="M1053.5,-374.54C1053.5,-365.96 1053.5,-356.61 1053.5,-349.16"/>
<polygon fill="#63b8ff" stroke="#63b8ff" points="1050,-374.8 1053.5,-384.8 1057,-374.8 1050,-374.8"/>
</g>
<!-- Node19 -->
<g id="node19" class="node">
<title>Node19</title>
<g id="a_node19"><a xlink:href="rna15_8hpp.html" target="_top" xlink:title="Provides bio::alphabet::rna15, container aliases and string literals.">
<polygon fill="white" stroke="#666666" points="1197.5,-283 1081.5,-283 1081.5,-253 1197.5,-253 1197.5,-283"/>
<text text-anchor="start" x="1089.5" y="-271" font-family="Helvetica,sans-Serif" font-size="10.00">bio/alphabet/nucleotide</text>
<text text-anchor="middle" x="1139.5" y="-260" font-family="Helvetica,sans-Serif" font-size="10.00">/rna15.hpp</text>
</a>
</g>
</g>
<!-- Node16&#45;&gt;Node19 -->
<g id="edge51" class="edge">
<title>Node16&#45;&gt;Node19</title>
<path fill="none" stroke="#63b8ff" d="M1089.35,-379.15C1100.85,-371.17 1112.62,-360.98 1120.5,-349 1133.83,-328.72 1137.83,-300.1 1139.02,-283.15"/>
<polygon fill="#63b8ff" stroke="#63b8ff" points="1087.14,-376.42 1080.69,-384.82 1090.97,-382.28 1087.14,-376.42"/>
</g>
<!-- Node22 -->
<g id="node22" class="node">
<title>Node22</title>
<g id="a_node22"><a xlink:href="dna16sam_8hpp.html" target="_top" xlink:title="Provides bio::alphabet::dna16sam.">
<polygon fill="white" stroke="#666666" points="815.5,-283 699.5,-283 699.5,-253 815.5,-253 815.5,-283"/>
<text text-anchor="start" x="707.5" y="-271" font-family="Helvetica,sans-Serif" font-size="10.00">bio/alphabet/nucleotide</text>
<text text-anchor="middle" x="757.5" y="-260" font-family="Helvetica,sans-Serif" font-size="10.00">/dna16sam.hpp</text>
</a>
</g>
</g>
<!-- Node16&#45;&gt;Node22 -->
<g id="edge35" class="edge">
<title>Node16&#45;&gt;Node22</title>
<path fill="none" stroke="#63b8ff" d="M984.99,-391.45C921.89,-383.4 833.88,-369.03 805.5,-349 782.34,-332.65 768.42,-301.27 761.92,-283.05"/>
<polygon fill="#63b8ff" stroke="#63b8ff" points="984.93,-394.97 995.28,-392.74 985.79,-388.03 984.93,-394.97"/>
</g>
<!-- Node23 -->
<g id="node23" class="node">
<title>Node23</title>
<g id="a_node23"><a xlink:href="dna4_8hpp.html" target="_top" xlink:title="Provides bio::alphabet::dna4, container aliases and string literals.">
<polygon fill="white" stroke="#666666" points="1321.5,-349 1205.5,-349 1205.5,-319 1321.5,-319 1321.5,-349"/>
<text text-anchor="start" x="1213.5" y="-337" font-family="Helvetica,sans-Serif" font-size="10.00">bio/alphabet/nucleotide</text>
<text text-anchor="middle" x="1263.5" y="-326" font-family="Helvetica,sans-Serif" font-size="10.00">/dna4.hpp</text>
</a>
</g>
</g>
<!-- Node16&#45;&gt;Node23 -->
<g id="edge37" class="edge">
<title>Node16&#45;&gt;Node23</title>
<path fill="none" stroke="#63b8ff" d="M1109.32,-381.99C1143.11,-371.69 1185.68,-358.72 1217.52,-349.01"/>
<polygon fill="#63b8ff" stroke="#63b8ff" points="1108.13,-378.69 1099.59,-384.95 1110.17,-385.39 1108.13,-378.69"/>
</g>
<!-- Node24 -->
<g id="node24" class="node">
<title>Node24</title>
<g id="a_node24"><a xlink:href="rna4_8hpp.html" target="_top" xlink:title="Provides bio::alphabet::rna4, container aliases and string literals.">
<polygon fill="white" stroke="#666666" points="1407.5,-283 1291.5,-283 1291.5,-253 1407.5,-253 1407.5,-283"/>
<text text-anchor="start" x="1299.5" y="-271" font-family="Helvetica,sans-Serif" font-size="10.00">bio/alphabet/nucleotide</text>
<text text-anchor="middle" x="1349.5" y="-260" font-family="Helvetica,sans-Serif" font-size="10.00">/rna4.hpp</text>
</a>
</g>
</g>
<!-- Node16&#45;&gt;Node24 -->
<g id="edge52" class="edge">
<title>Node16&#45;&gt;Node24</title>
<path fill="none" stroke="#63b8ff" d="M1122.04,-395.08C1194.14,-389.53 1301.16,-376.78 1330.5,-349 1348.54,-331.92 1350.83,-301.1 1350.45,-283.11"/>
<polygon fill="#63b8ff" stroke="#63b8ff" points="1121.39,-391.62 1111.67,-395.85 1121.9,-398.6 1121.39,-391.62"/>
</g>
<!-- Node25 -->
<g id="node25" class="node">
<title>Node25</title>
<g id="a_node25"><a xlink:href="dna5_8hpp.html" target="_top" xlink:title="Provides bio::alphabet::dna5, container aliases and string literals.">
<polygon fill="white" stroke="#666666" points="930.5,-349 814.5,-349 814.5,-319 930.5,-319 930.5,-349"/>
<text text-anchor="start" x="822.5" y="-337" font-family="Helvetica,sans-Serif" font-size="10.00">bio/alphabet/nucleotide</text>
<text text-anchor="middle" x="872.5" y="-326" font-family="Helvetica,sans-Serif" font-size="10.00">/dna5.hpp</text>
</a>
</g>
</g>
<!-- Node16&#45;&gt;Node25 -->
<g id="edge43" class="edge">
<title>Node16&#45;&gt;Node25</title>
<path fill="none" stroke="#63b8ff" d="M1004.26,-381.59C975.32,-371.36 939.22,-358.59 912.13,-349.01"/>
<polygon fill="#63b8ff" stroke="#63b8ff" points="1003.18,-384.92 1013.78,-384.95 1005.52,-378.32 1003.18,-384.92"/>
</g>
<!-- Node26 -->
<g id="node26" class="node">
<title>Node26</title>
<g id="a_node26"><a xlink:href="rna5_8hpp.html" target="_top" xlink:title="Provides bio::alphabet::rna5, container aliases and string literals.">
<polygon fill="white" stroke="#666666" points="1025.5,-283 909.5,-283 909.5,-253 1025.5,-253 1025.5,-283"/>
<text text-anchor="start" x="917.5" y="-271" font-family="Helvetica,sans-Serif" font-size="10.00">bio/alphabet/nucleotide</text>
<text text-anchor="middle" x="967.5" y="-260" font-family="Helvetica,sans-Serif" font-size="10.00">/rna5.hpp</text>
</a>
</g>
</g>
<!-- Node16&#45;&gt;Node26 -->
<g id="edge53" class="edge">
<title>Node16&#45;&gt;Node26</title>
<path fill="none" stroke="#63b8ff" d="M1017.65,-379.15C1006.15,-371.17 994.38,-360.98 986.5,-349 973.17,-328.72 969.17,-300.1 967.98,-283.15"/>
<polygon fill="#63b8ff" stroke="#63b8ff" points="1016.03,-382.28 1026.31,-384.82 1019.86,-376.42 1016.03,-382.28"/>
</g>
<!-- Node17&#45;&gt;Node15 -->
<g id="edge26" class="edge">
<title>Node17&#45;&gt;Node15</title>
<path fill="none" stroke="#63b8ff" d="M985.04,-324.05C970.05,-322.24 954.25,-320.45 939.5,-319 710.74,-296.53 437.66,-279.31 320.08,-272.36"/>
<polygon fill="#63b8ff" stroke="#63b8ff" points="984.92,-327.56 995.27,-325.3 985.77,-320.61 984.92,-327.56"/>
</g>
<!-- Node18 -->
<g id="node18" class="node">
<title>Node18</title>
<g id="a_node18"><a xlink:href="alphabet_2nucleotide_2all_8hpp.html" target="_top" xlink:title="Meta&#45;header for the nucleotide submodule; includes all headers from alphabet/nucleotide/.">
<polygon fill="white" stroke="#666666" points="1111.5,-217 995.5,-217 995.5,-187 1111.5,-187 1111.5,-217"/>
<text text-anchor="start" x="1003.5" y="-205" font-family="Helvetica,sans-Serif" font-size="10.00">bio/alphabet/nucleotide</text>
<text text-anchor="middle" x="1053.5" y="-194" font-family="Helvetica,sans-Serif" font-size="10.00">/all.hpp</text>
</a>
</g>
</g>
<!-- Node17&#45;&gt;Node18 -->
<g id="edge27" class="edge">
<title>Node17&#45;&gt;Node18</title>
<path fill="none" stroke="#63b8ff" d="M1053.5,-308.68C1053.5,-281.7 1053.5,-239.11 1053.5,-217.14"/>
<polygon fill="#63b8ff" stroke="#63b8ff" points="1050,-308.84 1053.5,-318.84 1057,-308.84 1050,-308.84"/>
</g>
<!-- Node17&#45;&gt;Node19 -->
<g id="edge29" class="edge">
<title>Node17&#45;&gt;Node19</title>
<path fill="none" stroke="#63b8ff" d="M1080.71,-312.75C1093.64,-303.13 1108.79,-291.86 1120.47,-283.16"/>
<polygon fill="#63b8ff" stroke="#63b8ff" points="1078.52,-310.02 1072.59,-318.8 1082.7,-315.63 1078.52,-310.02"/>
</g>
<!-- Node20 -->
<g id="node20" class="node">
<title>Node20</title>
<g id="a_node20"><a xlink:href="aliases_8hpp.html" target="_top" xlink:title="Provides aliases for qualified.">
<polygon fill="white" stroke="#666666" points="1338,-217 1237,-217 1237,-187 1338,-187 1338,-217"/>
<text text-anchor="start" x="1245" y="-205" font-family="Helvetica,sans-Serif" font-size="10.00">bio/alphabet/quality</text>
<text text-anchor="middle" x="1287.5" y="-194" font-family="Helvetica,sans-Serif" font-size="10.00">/aliases.hpp</text>
</a>
</g>
</g>
<!-- Node17&#45;&gt;Node20 -->
<g id="edge34" class="edge">
<title>Node17&#45;&gt;Node20</title>
<path fill="none" stroke="#63b8ff" d="M1121.78,-317.99C1149.35,-310.11 1180.68,-298.74 1206.5,-283 1235.69,-265.2 1262.42,-234.92 1276.68,-217.16"/>
<polygon fill="#63b8ff" stroke="#63b8ff" points="1120.53,-314.7 1111.82,-320.73 1122.39,-321.45 1120.53,-314.7"/>
</g>
<!-- Node18&#45;&gt;Node6 -->
<g id="edge28" class="edge">
<title>Node18&#45;&gt;Node6</title>
<path fill="none" stroke="#63b8ff" d="M1053.5,-176.57C1053.5,-147.17 1053.5,-99.31 1053.5,-79.75"/>
<polygon fill="#63b8ff" stroke="#63b8ff" points="1050,-176.84 1053.5,-186.84 1057,-176.84 1050,-176.84"/>
</g>
<!-- Node19&#45;&gt;Node18 -->
<g id="edge30" class="edge">
<title>Node19&#45;&gt;Node18</title>
<path fill="none" stroke="#63b8ff" d="M1112.29,-246.75C1099.36,-237.13 1084.21,-225.86 1072.53,-217.16"/>
<polygon fill="#63b8ff" stroke="#63b8ff" points="1110.3,-249.63 1120.41,-252.8 1114.48,-244.02 1110.3,-249.63"/>
</g>
<!-- Node19&#45;&gt;Node20 -->
<g id="edge31" class="edge">
<title>Node19&#45;&gt;Node20</title>
<path fill="none" stroke="#63b8ff" d="M1181.31,-248.92C1204.7,-238.8 1233.42,-226.38 1255.1,-217.01"/>
<polygon fill="#63b8ff" stroke="#63b8ff" points="1179.77,-245.77 1171.98,-252.95 1182.55,-252.2 1179.77,-245.77"/>
</g>
<!-- Node21 -->
<g id="node21" class="node">
<title>Node21</title>
<g id="a_node21"><a xlink:href="alphabet_2quality_2all_8hpp.html" target="_top" xlink:title="Meta&#45;header that includes all headers from alphabet/quality/.">
<polygon fill="white" stroke="#666666" points="1565,-151 1464,-151 1464,-121 1565,-121 1565,-151"/>
<text text-anchor="start" x="1472" y="-139" font-family="Helvetica,sans-Serif" font-size="10.00">bio/alphabet/quality</text>
<text text-anchor="middle" x="1514.5" y="-128" font-family="Helvetica,sans-Serif" font-size="10.00">/all.hpp</text>
</a>
</g>
</g>
<!-- Node20&#45;&gt;Node21 -->
<g id="edge32" class="edge">
<title>Node20&#45;&gt;Node21</title>
<path fill="none" stroke="#63b8ff" d="M1347.37,-184.12C1383.97,-173.8 1430.23,-160.76 1464.8,-151.01"/>
<polygon fill="#63b8ff" stroke="#63b8ff" points="1345.99,-180.87 1337.32,-186.95 1347.89,-187.61 1345.99,-180.87"/>
</g>
<!-- Node21&#45;&gt;Node6 -->
<g id="edge33" class="edge">
<title>Node21&#45;&gt;Node6</title>
<path fill="none" stroke="#63b8ff" d="M1453.88,-126.58C1362.15,-113.85 1189.74,-89.91 1104.24,-78.04"/>
<polygon fill="#63b8ff" stroke="#63b8ff" points="1453.46,-130.06 1463.85,-127.97 1454.42,-123.13 1453.46,-130.06"/>
</g>
<!-- Node22&#45;&gt;Node18 -->
<g id="edge36" class="edge">
<title>Node22&#45;&gt;Node18</title>
<path fill="none" stroke="#63b8ff" d="M825.63,-252.27C876.94,-241.18 946.52,-226.13 995.25,-215.59"/>
<polygon fill="#63b8ff" stroke="#63b8ff" points="824.66,-248.9 815.63,-254.43 826.14,-255.74 824.66,-248.9"/>
</g>
<!-- Node23&#45;&gt;Node18 -->
<g id="edge38" class="edge">
<title>Node23&#45;&gt;Node18</title>
<path fill="none" stroke="#63b8ff" d="M1252.08,-309.54C1242.27,-291.68 1226.56,-267.74 1206.5,-253 1178.69,-232.56 1142.11,-220.21 1111.68,-212.89"/>
<polygon fill="#63b8ff" stroke="#63b8ff" points="1249.16,-311.51 1256.91,-318.73 1255.36,-308.25 1249.16,-311.51"/>
</g>
<!-- Node23&#45;&gt;Node20 -->
<g id="edge42" class="edge">
<title>Node23&#45;&gt;Node20</title>
<path fill="none" stroke="#63b8ff" d="M1331.55,-328.45C1362.74,-322.54 1397.03,-309.84 1416.5,-283 1441.33,-248.76 1384.32,-226.01 1338.33,-213.8"/>
<polygon fill="#63b8ff" stroke="#63b8ff" points="1330.83,-325.02 1321.56,-330.13 1332,-331.92 1330.83,-325.02"/>
</g>
<!-- Node23&#45;&gt;Node24 -->
<g id="edge39" class="edge">
<title>Node23&#45;&gt;Node24</title>
<path fill="none" stroke="#63b8ff" d="M1290.71,-312.75C1303.64,-303.13 1318.79,-291.86 1330.47,-283.16"/>
<polygon fill="#63b8ff" stroke="#63b8ff" points="1288.52,-310.02 1282.59,-318.8 1292.7,-315.63 1288.52,-310.02"/>
</g>
<!-- Node24&#45;&gt;Node18 -->
<g id="edge40" class="edge">
<title>Node24&#45;&gt;Node18</title>
<path fill="none" stroke="#63b8ff" d="M1281.37,-252.27C1230.06,-241.18 1160.48,-226.13 1111.75,-215.59"/>
<polygon fill="#63b8ff" stroke="#63b8ff" points="1280.86,-255.74 1291.37,-254.43 1282.34,-248.9 1280.86,-255.74"/>
</g>
<!-- Node24&#45;&gt;Node20 -->
<g id="edge41" class="edge">
<title>Node24&#45;&gt;Node20</title>
<path fill="none" stroke="#63b8ff" d="M1328.54,-245.37C1319.53,-236.06 1309.24,-225.44 1301.22,-217.16"/>
<polygon fill="#63b8ff" stroke="#63b8ff" points="1326.27,-248.05 1335.74,-252.8 1331.3,-243.18 1326.27,-248.05"/>
</g>
<!-- Node25&#45;&gt;Node11 -->
<g id="edge49" class="edge">
<title>Node25&#45;&gt;Node11</title>
<path fill="none" stroke="#63b8ff" d="M804.38,-323.02C758.76,-314.79 704.57,-301.45 690.5,-283 664.49,-248.88 726.96,-220.77 700.5,-187 624.77,-90.36 278.92,-103.18 157.5,-85 146.37,-83.33 134.43,-81.4 123.17,-79.52"/>
<polygon fill="#63b8ff" stroke="#63b8ff" points="803.82,-326.48 814.27,-324.75 805.02,-319.58 803.82,-326.48"/>
</g>
<!-- Node25&#45;&gt;Node13 -->
<g id="edge50" class="edge">
<title>Node25&#45;&gt;Node13</title>
<path fill="none" stroke="#63b8ff" d="M804.11,-327.02C694.23,-315.7 473.05,-285.81 298.5,-217 255.6,-200.09 210.96,-169.21 186.77,-151.16"/>
<polygon fill="#63b8ff" stroke="#63b8ff" points="804.08,-330.53 814.39,-328.05 804.79,-323.57 804.08,-330.53"/>
</g>
<!-- Node25&#45;&gt;Node18 -->
<g id="edge44" class="edge">
<title>Node25&#45;&gt;Node18</title>
<path fill="none" stroke="#63b8ff" d="M863.3,-309.03C858.35,-291.72 855.44,-268.73 867.5,-253 883.11,-232.63 946.88,-218.71 995.43,-210.83"/>
<polygon fill="#63b8ff" stroke="#63b8ff" points="860.11,-310.52 866.53,-318.95 866.76,-308.36 860.11,-310.52"/>
</g>
<!-- Node25&#45;&gt;Node20 -->
<g id="edge48" class="edge">
<title>Node25&#45;&gt;Node20</title>
<path fill="none" stroke="#63b8ff" d="M874.35,-308.73C877.09,-290.52 883.86,-266.49 900.5,-253 913.44,-242.51 1135.08,-218.61 1236.98,-208.11"/>
<polygon fill="#63b8ff" stroke="#63b8ff" points="870.84,-308.57 873.13,-318.91 877.79,-309.4 870.84,-308.57"/>
</g>
<!-- Node25&#45;&gt;Node26 -->
<g id="edge45" class="edge">
<title>Node25&#45;&gt;Node26</title>
<path fill="none" stroke="#63b8ff" d="M902.15,-313.03C916.52,-303.34 933.45,-291.94 946.48,-283.16"/>
<polygon fill="#63b8ff" stroke="#63b8ff" points="899.92,-310.31 893.58,-318.8 903.83,-316.11 899.92,-310.31"/>
</g>
<!-- Node26&#45;&gt;Node18 -->
<g id="edge46" class="edge">
<title>Node26&#45;&gt;Node18</title>
<path fill="none" stroke="#63b8ff" d="M994.71,-246.75C1007.64,-237.13 1022.79,-225.86 1034.47,-217.16"/>
<polygon fill="#63b8ff" stroke="#63b8ff" points="992.52,-244.02 986.59,-252.8 996.7,-249.63 992.52,-244.02"/>
</g>
<!-- Node26&#45;&gt;Node20 -->
<g id="edge47" class="edge">
<title>Node26&#45;&gt;Node20</title>
<path fill="none" stroke="#63b8ff" d="M1035.64,-253.37C1095.96,-241.31 1182.63,-223.97 1236.95,-213.11"/>
<polygon fill="#63b8ff" stroke="#63b8ff" points="1034.94,-249.94 1025.82,-255.34 1036.31,-256.81 1034.94,-249.94"/>
</g>
<!-- Node28 -->
<g id="node28" class="node">
<title>Node28</title>
<g id="a_node28"><a xlink:href="phred42_8hpp.html" target="_top" xlink:title="Provides bio::alphabet::phred42 quality scores.">
<polygon fill="white" stroke="#666666" points="1565,-283 1464,-283 1464,-253 1565,-253 1565,-283"/>
<text text-anchor="start" x="1472" y="-271" font-family="Helvetica,sans-Serif" font-size="10.00">bio/alphabet/quality</text>
<text text-anchor="middle" x="1514.5" y="-260" font-family="Helvetica,sans-Serif" font-size="10.00">/phred42.hpp</text>
</a>
</g>
</g>
<!-- Node27&#45;&gt;Node28 -->
<g id="edge55" class="edge">
<title>Node27&#45;&gt;Node28</title>
<path fill="none" stroke="#63b8ff" d="M1539.63,-310.24C1534.13,-301.21 1527.97,-291.11 1523.13,-283.16"/>
<polygon fill="#63b8ff" stroke="#63b8ff" points="1536.65,-312.08 1544.84,-318.8 1542.63,-308.44 1536.65,-312.08"/>
</g>
<!-- Node29 -->
<g id="node29" class="node">
<title>Node29</title>
<g id="a_node29"><a xlink:href="phred63_8hpp.html" target="_top" xlink:title="Provides bio::alphabet::phred63 quality scores.">
<polygon fill="white" stroke="#666666" points="1644,-217 1543,-217 1543,-187 1644,-187 1644,-217"/>
<text text-anchor="start" x="1551" y="-205" font-family="Helvetica,sans-Serif" font-size="10.00">bio/alphabet/quality</text>
<text text-anchor="middle" x="1593.5" y="-194" font-family="Helvetica,sans-Serif" font-size="10.00">/phred63.hpp</text>
</a>
</g>
</g>
<!-- Node27&#45;&gt;Node29 -->
<g id="edge58" class="edge">
<title>Node27&#45;&gt;Node29</title>
<path fill="none" stroke="#63b8ff" d="M1564.34,-309.42C1567.88,-301.18 1571.63,-291.78 1574.5,-283 1581.9,-260.34 1587.73,-233.2 1590.89,-217.07"/>
<polygon fill="#63b8ff" stroke="#63b8ff" points="1561.04,-308.23 1560.2,-318.8 1567.44,-311.06 1561.04,-308.23"/>
</g>
<!-- Node30 -->
<g id="node30" class="node">
<title>Node30</title>
<g id="a_node30"><a xlink:href="phred68legacy_8hpp.html" target="_top" xlink:title="Provides bio::alphabet::phred68legacy quality scores.">
<polygon fill="white" stroke="#666666" points="1723,-283 1622,-283 1622,-253 1723,-253 1723,-283"/>
<text text-anchor="start" x="1630" y="-271" font-family="Helvetica,sans-Serif" font-size="10.00">bio/alphabet/quality</text>
<text text-anchor="middle" x="1672.5" y="-260" font-family="Helvetica,sans-Serif" font-size="10.00">/phred68legacy.hpp</text>
</a>
</g>
</g>
<!-- Node27&#45;&gt;Node30 -->
<g id="edge60" class="edge">
<title>Node27&#45;&gt;Node30</title>
<path fill="none" stroke="#63b8ff" d="M1588.63,-314.11C1607.15,-304.14 1629.49,-292.13 1646.45,-283.01"/>
<polygon fill="#63b8ff" stroke="#63b8ff" points="1586.76,-311.14 1579.62,-318.95 1590.08,-317.3 1586.76,-311.14"/>
</g>
<!-- Node28&#45;&gt;Node20 -->
<g id="edge56" class="edge">
<title>Node28&#45;&gt;Node20</title>
<path fill="none" stroke="#63b8ff" d="M1454.63,-250.12C1418.03,-239.8 1371.77,-226.76 1337.2,-217.01"/>
<polygon fill="#63b8ff" stroke="#63b8ff" points="1454.11,-253.61 1464.68,-252.95 1456.01,-246.87 1454.11,-253.61"/>
</g>
<!-- Node28&#45;&gt;Node21 -->
<g id="edge57" class="edge">
<title>Node28&#45;&gt;Node21</title>
<path fill="none" stroke="#63b8ff" d="M1514.5,-242.68C1514.5,-215.7 1514.5,-173.11 1514.5,-151.14"/>
<polygon fill="#63b8ff" stroke="#63b8ff" points="1511,-242.84 1514.5,-252.84 1518,-242.84 1511,-242.84"/>
</g>
<!-- Node29&#45;&gt;Node21 -->
<g id="edge59" class="edge">
<title>Node29&#45;&gt;Node21</title>
<path fill="none" stroke="#63b8ff" d="M1568.17,-180.48C1556.36,-170.91 1542.61,-159.77 1531.98,-151.16"/>
<polygon fill="#63b8ff" stroke="#63b8ff" points="1565.99,-183.22 1575.97,-186.8 1570.4,-177.78 1565.99,-183.22"/>
</g>
<!-- Node30&#45;&gt;Node21 -->
<g id="edge61" class="edge">
<title>Node30&#45;&gt;Node21</title>
<path fill="none" stroke="#63b8ff" d="M1672.6,-242.69C1671.4,-225.22 1667.05,-202.16 1653.5,-187 1631.03,-161.85 1594.97,-149.35 1565.2,-143.13"/>
<polygon fill="#63b8ff" stroke="#63b8ff" points="1669.1,-242.87 1672.99,-252.73 1676.1,-242.6 1669.1,-242.87"/>
</g>
</g>
</svg>
