<?xml version="1.0" encoding="UTF-8" standalone="no"?>
<!DOCTYPE svg PUBLIC "-//W3C//DTD SVG 1.1//EN"
 "http://www.w3.org/Graphics/SVG/1.1/DTD/svg11.dtd">
<!-- Generated by graphviz version 2.43.0 (0)
 -->
<!-- Title: bio/meta/tag/vtag.hpp Pages: 1 -->
<svg width="1879pt" height="553pt"
 viewBox="0.00 0.00 1878.50 553.00" xmlns="http://www.w3.org/2000/svg" xmlns:xlink="http://www.w3.org/1999/xlink">
<g id="graph0" class="graph" transform="scale(1 1) rotate(0) translate(4 549)">
<title>bio/meta/tag/vtag.hpp</title>
<polygon fill="white" stroke="transparent" points="-4,4 -4,-549 1874.5,-549 1874.5,4 -4,4"/>
<!-- Node1 -->
<g id="node1" class="node">
<title>Node1</title>
<g id="a_node1"><a xlink:title="Provides bio::meta::vtag.">
<polygon fill="#bfbfbf" stroke="black" points="1147,-525.5 1147,-544.5 1272,-544.5 1272,-525.5 1147,-525.5"/>
<text text-anchor="middle" x="1209.5" y="-532.5" font-family="Helvetica,sans-Serif" font-size="10.00">bio/meta/tag/vtag.hpp</text>
</a>
</g>
</g>
<!-- Node2 -->
<g id="node2" class="node">
<title>Node2</title>
<g id="a_node2"><a xlink:href="alphabet_2detail_2convert_8hpp_source.html" target="_top" xlink:title=" ">
<polygon fill="white" stroke="black" points="1090.5,-458.5 1090.5,-488.5 1198.5,-488.5 1198.5,-458.5 1090.5,-458.5"/>
<text text-anchor="start" x="1098.5" y="-476.5" font-family="Helvetica,sans-Serif" font-size="10.00">bio/alphabet/detail</text>
<text text-anchor="middle" x="1144.5" y="-465.5" font-family="Helvetica,sans-Serif" font-size="10.00">/convert.hpp</text>
</a>
</g>
</g>
<!-- Node1&#45;&gt;Node2 -->
<g id="edge1" class="edge">
<title>Node1&#45;&gt;Node2</title>
<path fill="none" stroke="midnightblue" d="M1192.73,-518.65C1182.57,-509.35 1169.7,-497.57 1159.82,-488.52"/>
<polygon fill="midnightblue" stroke="midnightblue" points="1190.45,-521.3 1200.19,-525.48 1195.17,-516.14 1190.45,-521.3"/>
</g>
<!-- Node31 -->
<g id="node31" class="node">
<title>Node31</title>
<g id="a_node31"><a xlink:href="meta_2tag_2all_8hpp.html" target="_top" xlink:title="Meta&#45;header for the folder.">
<polygon fill="white" stroke="black" points="1217,-464 1217,-483 1332,-483 1332,-464 1217,-464"/>
<text text-anchor="middle" x="1274.5" y="-471" font-family="Helvetica,sans-Serif" font-size="10.00">bio/meta/tag/all.hpp</text>
</a>
</g>
</g>
<!-- Node1&#45;&gt;Node31 -->
<g id="edge62" class="edge">
<title>Node1&#45;&gt;Node31</title>
<path fill="none" stroke="midnightblue" d="M1226.27,-518.65C1238.66,-507.31 1255.08,-492.28 1265.2,-483.01"/>
<polygon fill="midnightblue" stroke="midnightblue" points="1223.83,-516.14 1218.81,-525.48 1228.55,-521.3 1223.83,-516.14"/>
</g>
<!-- Node3 -->
<g id="node3" class="node">
<title>Node3</title>
<g id="a_node3"><a xlink:href="aminoacid__base_8hpp.html" target="_top" xlink:title="Provides bio::alphabet::aminoacid_base.">
<polygon fill="white" stroke="black" points="478,-391.5 478,-421.5 609,-421.5 609,-391.5 478,-391.5"/>
<text text-anchor="start" x="486" y="-409.5" font-family="Helvetica,sans-Serif" font-size="10.00">bio/alphabet/aminoacid</text>
<text text-anchor="middle" x="543.5" y="-398.5" font-family="Helvetica,sans-Serif" font-size="10.00">/aminoacid_base.hpp</text>
</a>
</g>
</g>
<!-- Node2&#45;&gt;Node3 -->
<g id="edge2" class="edge">
<title>Node2&#45;&gt;Node3</title>
<path fill="none" stroke="midnightblue" d="M1080.3,-465.56C965.26,-453.11 725.17,-427.15 609.11,-414.6"/>
<polygon fill="midnightblue" stroke="midnightblue" points="1080.05,-469.05 1090.37,-466.65 1080.81,-462.09 1080.05,-469.05"/>
</g>
<!-- Node16 -->
<g id="node16" class="node">
<title>Node16</title>
<g id="a_node16"><a xlink:href="nucleotide__base_8hpp.html" target="_top" xlink:title="Provides bio::alphabet::nucleotide_base.">
<polygon fill="white" stroke="black" points="1079,-391.5 1079,-421.5 1210,-421.5 1210,-391.5 1079,-391.5"/>
<text text-anchor="start" x="1087" y="-409.5" font-family="Helvetica,sans-Serif" font-size="10.00">bio/alphabet/nucleotide</text>
<text text-anchor="middle" x="1144.5" y="-398.5" font-family="Helvetica,sans-Serif" font-size="10.00">/nucleotide_base.hpp</text>
</a>
</g>
</g>
<!-- Node2&#45;&gt;Node16 -->
<g id="edge24" class="edge">
<title>Node2&#45;&gt;Node16</title>
<path fill="none" stroke="midnightblue" d="M1144.5,-448.11C1144.5,-439.15 1144.5,-429.32 1144.5,-421.58"/>
<polygon fill="midnightblue" stroke="midnightblue" points="1141,-448.4 1144.5,-458.4 1148,-448.4 1141,-448.4"/>
</g>
<!-- Node27 -->
<g id="node27" class="node">
<title>Node27</title>
<g id="a_node27"><a xlink:href="quality__base_8hpp.html" target="_top" xlink:title="Provides bio::alphabet::phred42 quality scores.">
<polygon fill="white" stroke="black" points="1628.5,-324.5 1628.5,-354.5 1742.5,-354.5 1742.5,-324.5 1628.5,-324.5"/>
<text text-anchor="start" x="1636.5" y="-342.5" font-family="Helvetica,sans-Serif" font-size="10.00">bio/alphabet/quality</text>
<text text-anchor="middle" x="1685.5" y="-331.5" font-family="Helvetica,sans-Serif" font-size="10.00">/quality_base.hpp</text>
</a>
</g>
</g>
<!-- Node2&#45;&gt;Node27 -->
<g id="edge54" class="edge">
<title>Node2&#45;&gt;Node27</title>
<path fill="none" stroke="midnightblue" d="M1208.56,-456.87C1314.99,-430.9 1526.56,-379.28 1628.28,-354.46"/>
<polygon fill="midnightblue" stroke="midnightblue" points="1207.49,-453.53 1198.6,-459.3 1209.15,-460.33 1207.49,-453.53"/>
</g>
<!-- Node4 -->
<g id="node4" class="node">
<title>Node4</title>
<g id="a_node4"><a xlink:href="aa10li_8hpp.html" target="_top" xlink:title="Provides bio::alphabet::aa10li, container aliases and string literals.">
<polygon fill="white" stroke="black" points="329,-190.5 329,-220.5 460,-220.5 460,-190.5 329,-190.5"/>
<text text-anchor="start" x="337" y="-208.5" font-family="Helvetica,sans-Serif" font-size="10.00">bio/alphabet/aminoacid</text>
<text text-anchor="middle" x="394.5" y="-197.5" font-family="Helvetica,sans-Serif" font-size="10.00">/aa10li.hpp</text>
</a>
</g>
</g>
<!-- Node3&#45;&gt;Node4 -->
<g id="edge3" class="edge">
<title>Node3&#45;&gt;Node4</title>
<path fill="none" stroke="midnightblue" d="M526.73,-383.11C495.83,-341.83 430.68,-254.83 405.12,-220.68"/>
<polygon fill="midnightblue" stroke="midnightblue" points="523.99,-385.28 532.78,-391.19 529.59,-381.09 523.99,-385.28"/>
</g>
<!-- Node7 -->
<g id="node7" class="node">
<title>Node7</title>
<g id="a_node7"><a xlink:href="aa10murphy_8hpp.html" target="_top" xlink:title="Provides bio::alphabet::aa10murphy, container aliases and string literals.">
<polygon fill="white" stroke="black" points="478,-190.5 478,-220.5 609,-220.5 609,-190.5 478,-190.5"/>
<text text-anchor="start" x="486" y="-208.5" font-family="Helvetica,sans-Serif" font-size="10.00">bio/alphabet/aminoacid</text>
<text text-anchor="middle" x="543.5" y="-197.5" font-family="Helvetica,sans-Serif" font-size="10.00">/aa10murphy.hpp</text>
</a>
</g>
</g>
<!-- Node3&#45;&gt;Node7 -->
<g id="edge6" class="edge">
<title>Node3&#45;&gt;Node7</title>
<path fill="none" stroke="midnightblue" d="M543.5,-381C543.5,-338.93 543.5,-254.26 543.5,-220.68"/>
<polygon fill="midnightblue" stroke="midnightblue" points="540,-381.19 543.5,-391.19 547,-381.19 540,-381.19"/>
</g>
<!-- Node8 -->
<g id="node8" class="node">
<title>Node8</title>
<g id="a_node8"><a xlink:href="aa20_8hpp.html" target="_top" xlink:title="Provides bio::alphabet::aa20, container aliases and string literals.">
<polygon fill="white" stroke="black" points="627,-190.5 627,-220.5 758,-220.5 758,-190.5 627,-190.5"/>
<text text-anchor="start" x="635" y="-208.5" font-family="Helvetica,sans-Serif" font-size="10.00">bio/alphabet/aminoacid</text>
<text text-anchor="middle" x="692.5" y="-197.5" font-family="Helvetica,sans-Serif" font-size="10.00">/aa20.hpp</text>
</a>
</g>
</g>
<!-- Node3&#45;&gt;Node8 -->
<g id="edge8" class="edge">
<title>Node3&#45;&gt;Node8</title>
<path fill="none" stroke="midnightblue" d="M560.27,-383.11C591.17,-341.83 656.32,-254.83 681.88,-220.68"/>
<polygon fill="midnightblue" stroke="midnightblue" points="557.41,-381.09 554.22,-391.19 563.01,-385.28 557.41,-381.09"/>
</g>
<!-- Node9 -->
<g id="node9" class="node">
<title>Node9</title>
<g id="a_node9"><a xlink:href="aa27_8hpp.html" target="_top" xlink:title="Provides bio::alphabet::aa27, container aliases and string literals.">
<polygon fill="white" stroke="black" points="103,-324.5 103,-354.5 234,-354.5 234,-324.5 103,-324.5"/>
<text text-anchor="start" x="111" y="-342.5" font-family="Helvetica,sans-Serif" font-size="10.00">bio/alphabet/aminoacid</text>
<text text-anchor="middle" x="168.5" y="-331.5" font-family="Helvetica,sans-Serif" font-size="10.00">/aa27.hpp</text>
</a>
</g>
</g>
<!-- Node3&#45;&gt;Node9 -->
<g id="edge10" class="edge">
<title>Node3&#45;&gt;Node9</title>
<path fill="none" stroke="midnightblue" d="M467.88,-392.39C399.36,-380.52 299.42,-363.19 234.17,-351.88"/>
<polygon fill="midnightblue" stroke="midnightblue" points="467.3,-395.84 477.75,-394.1 468.5,-388.95 467.3,-395.84"/>
</g>
<!-- Node5 -->
<g id="node5" class="node">
<title>Node5</title>
<g id="a_node5"><a xlink:href="alphabet_2aminoacid_2all_8hpp.html" target="_top" xlink:title="Meta&#45;header for the aminoacid submodule; includes all headers from alphabet/aminoacid/.">
<polygon fill="white" stroke="black" points="329,-123.5 329,-153.5 460,-153.5 460,-123.5 329,-123.5"/>
<text text-anchor="start" x="337" y="-141.5" font-family="Helvetica,sans-Serif" font-size="10.00">bio/alphabet/aminoacid</text>
<text text-anchor="middle" x="394.5" y="-130.5" font-family="Helvetica,sans-Serif" font-size="10.00">/all.hpp</text>
</a>
</g>
</g>
<!-- Node4&#45;&gt;Node5 -->
<g id="edge4" class="edge">
<title>Node4&#45;&gt;Node5</title>
<path fill="none" stroke="midnightblue" d="M394.5,-180.11C394.5,-171.15 394.5,-161.32 394.5,-153.58"/>
<polygon fill="midnightblue" stroke="midnightblue" points="391,-180.4 394.5,-190.4 398,-180.4 391,-180.4"/>
</g>
<!-- Node6 -->
<g id="node6" class="node">
<title>Node6</title>
<g id="a_node6"><a xlink:href="alphabet_2all_8hpp.html" target="_top" xlink:title="Meta&#45;header for the alphabet module.">
<polygon fill="white" stroke="black" points="1088,-62 1088,-81 1201,-81 1201,-62 1088,-62"/>
<text text-anchor="middle" x="1144.5" y="-69" font-family="Helvetica,sans-Serif" font-size="10.00">bio/alphabet/all.hpp</text>
</a>
</g>
</g>
<!-- Node5&#45;&gt;Node6 -->
<g id="edge5" class="edge">
<title>Node5&#45;&gt;Node6</title>
<path fill="none" stroke="midnightblue" d="M470.15,-130.94C620.6,-117.9 954.36,-88.98 1087.78,-77.42"/>
<polygon fill="midnightblue" stroke="midnightblue" points="469.73,-127.47 460.07,-131.82 470.34,-134.44 469.73,-127.47"/>
</g>
<!-- Node7&#45;&gt;Node5 -->
<g id="edge7" class="edge">
<title>Node7&#45;&gt;Node5</title>
<path fill="none" stroke="midnightblue" d="M501.71,-186.27C477.98,-175.92 448.72,-163.15 426.77,-153.58"/>
<polygon fill="midnightblue" stroke="midnightblue" points="500.6,-189.61 511.17,-190.4 503.4,-183.19 500.6,-189.61"/>
</g>
<!-- Node8&#45;&gt;Node5 -->
<g id="edge9" class="edge">
<title>Node8&#45;&gt;Node5</title>
<path fill="none" stroke="midnightblue" d="M618.3,-188.32C569.32,-177.63 505.79,-163.77 458.94,-153.55"/>
<polygon fill="midnightblue" stroke="midnightblue" points="617.69,-191.76 628.21,-190.48 619.18,-184.93 617.69,-191.76"/>
</g>
<!-- Node9&#45;&gt;Node5 -->
<g id="edge11" class="edge">
<title>Node9&#45;&gt;Node5</title>
<path fill="none" stroke="midnightblue" d="M176.09,-314.47C182.35,-297.22 192.49,-274.1 206.5,-257 247.71,-206.68 316.44,-171.59 358.4,-153.55"/>
<polygon fill="midnightblue" stroke="midnightblue" points="172.64,-313.75 172.69,-324.34 179.26,-316.03 172.64,-313.75"/>
</g>
<!-- Node10 -->
<g id="node10" class="node">
<title>Node10</title>
<g id="a_node10"><a xlink:href="translation_8hpp.html" target="_top" xlink:title="Provides functions for translating a triplet of nucleotides into an amino acid.">
<polygon fill="white" stroke="black" points="65,-190.5 65,-220.5 196,-220.5 196,-190.5 65,-190.5"/>
<text text-anchor="start" x="73" y="-208.5" font-family="Helvetica,sans-Serif" font-size="10.00">bio/alphabet/aminoacid</text>
<text text-anchor="middle" x="130.5" y="-197.5" font-family="Helvetica,sans-Serif" font-size="10.00">/translation.hpp</text>
</a>
</g>
</g>
<!-- Node9&#45;&gt;Node10 -->
<g id="edge12" class="edge">
<title>Node9&#45;&gt;Node10</title>
<path fill="none" stroke="midnightblue" d="M161.66,-314.75C153.76,-287.29 141,-242.99 134.54,-220.52"/>
<polygon fill="midnightblue" stroke="midnightblue" points="158.3,-315.73 164.43,-324.37 165.03,-313.8 158.3,-315.73"/>
</g>
<!-- Node11 -->
<g id="node11" class="node">
<title>Node11</title>
<g id="a_node11"><a xlink:href="translate_8hpp.html" target="_top" xlink:title="Provides bio::views::translate and bio::views::translate_single.">
<polygon fill="white" stroke="black" points="0,-62 0,-81 167,-81 167,-62 0,-62"/>
<text text-anchor="middle" x="83.5" y="-69" font-family="Helvetica,sans-Serif" font-size="10.00">bio/ranges/views/translate.hpp</text>
</a>
</g>
</g>
<!-- Node9&#45;&gt;Node11 -->
<g id="edge22" class="edge">
<title>Node9&#45;&gt;Node11</title>
<path fill="none" stroke="midnightblue" d="M105.12,-320.52C88.17,-312.95 71.31,-302.44 59.5,-288 7.54,-224.48 61.48,-112.87 78.64,-81.14"/>
<polygon fill="midnightblue" stroke="midnightblue" points="103.93,-323.82 114.51,-324.43 106.62,-317.35 103.93,-323.82"/>
</g>
<!-- Node13 -->
<g id="node13" class="node">
<title>Node13</title>
<g id="a_node13"><a xlink:href="translate__single_8hpp.html" target="_top" xlink:title="Provides bio::views::translate and bio::views::translate_single.">
<polygon fill="white" stroke="black" points="111.5,-123.5 111.5,-153.5 257.5,-153.5 257.5,-123.5 111.5,-123.5"/>
<text text-anchor="start" x="119.5" y="-141.5" font-family="Helvetica,sans-Serif" font-size="10.00">bio/ranges/views/translate</text>
<text text-anchor="middle" x="184.5" y="-130.5" font-family="Helvetica,sans-Serif" font-size="10.00">_single.hpp</text>
</a>
</g>
</g>
<!-- Node9&#45;&gt;Node13 -->
<g id="edge23" class="edge">
<title>Node9&#45;&gt;Node13</title>
<path fill="none" stroke="midnightblue" d="M134.53,-318.91C90.49,-290.95 22.95,-237.69 55.5,-190 68.45,-171.03 89.69,-159.18 111.23,-151.79"/>
<polygon fill="midnightblue" stroke="midnightblue" points="132.92,-322.03 143.26,-324.32 136.6,-316.08 132.92,-322.03"/>
</g>
<!-- Node15 -->
<g id="node15" class="node">
<title>Node15</title>
<g id="a_node15"><a xlink:href="translation__details_8hpp.html" target="_top" xlink:title="Provides translation details for nucleotide to aminoacid translation.">
<polygon fill="white" stroke="black" points="216,-257.5 216,-287.5 347,-287.5 347,-257.5 216,-257.5"/>
<text text-anchor="start" x="224" y="-275.5" font-family="Helvetica,sans-Serif" font-size="10.00">bio/alphabet/aminoacid</text>
<text text-anchor="middle" x="281.5" y="-264.5" font-family="Helvetica,sans-Serif" font-size="10.00">/translation_details.hpp</text>
</a>
</g>
</g>
<!-- Node9&#45;&gt;Node15 -->
<g id="edge19" class="edge">
<title>Node9&#45;&gt;Node15</title>
<path fill="none" stroke="midnightblue" d="M201.89,-319.3C219.57,-309.12 240.9,-296.85 257.03,-287.58"/>
<polygon fill="midnightblue" stroke="midnightblue" points="199.94,-316.38 193.02,-324.4 203.43,-322.44 199.94,-316.38"/>
</g>
<!-- Node10&#45;&gt;Node5 -->
<g id="edge13" class="edge">
<title>Node10&#45;&gt;Node5</title>
<path fill="none" stroke="midnightblue" d="M197.31,-188.05C240.47,-177.43 296.04,-163.74 337.19,-153.61"/>
<polygon fill="midnightblue" stroke="midnightblue" points="196.33,-184.69 187.46,-190.48 198.01,-191.48 196.33,-184.69"/>
</g>
<!-- Node10&#45;&gt;Node11 -->
<g id="edge14" class="edge">
<title>Node10&#45;&gt;Node11</title>
<path fill="none" stroke="midnightblue" d="M116.03,-181.59C111.19,-173.16 106.11,-163.38 102.5,-154 92.68,-128.51 87.04,-96.51 84.73,-81.3"/>
<polygon fill="midnightblue" stroke="midnightblue" points="113.18,-183.64 121.31,-190.43 119.19,-180.05 113.18,-183.64"/>
</g>
<!-- Node10&#45;&gt;Node13 -->
<g id="edge16" class="edge">
<title>Node10&#45;&gt;Node13</title>
<path fill="none" stroke="midnightblue" d="M148.82,-182.45C156.75,-172.9 165.8,-162 172.81,-153.58"/>
<polygon fill="midnightblue" stroke="midnightblue" points="145.92,-180.47 142.22,-190.4 151.3,-184.94 145.92,-180.47"/>
</g>
<!-- Node12 -->
<g id="node12" class="node">
<title>Node12</title>
<g id="a_node12"><a xlink:href="ranges_2views_2all_8hpp.html" target="_top" xlink:title="Meta&#45;header for the views submodule .">
<polygon fill="white" stroke="black" points="16,-0.5 16,-19.5 151,-19.5 151,-0.5 16,-0.5"/>
<text text-anchor="middle" x="83.5" y="-7.5" font-family="Helvetica,sans-Serif" font-size="10.00">bio/ranges/views/all.hpp</text>
</a>
</g>
</g>
<!-- Node11&#45;&gt;Node12 -->
<g id="edge15" class="edge">
<title>Node11&#45;&gt;Node12</title>
<path fill="none" stroke="midnightblue" d="M83.5,-51.82C83.5,-41 83.5,-27.9 83.5,-19.51"/>
<polygon fill="midnightblue" stroke="midnightblue" points="80,-51.98 83.5,-61.98 87,-51.98 80,-51.98"/>
</g>
<!-- Node13&#45;&gt;Node11 -->
<g id="edge17" class="edge">
<title>Node13&#45;&gt;Node11</title>
<path fill="none" stroke="midnightblue" d="M154.16,-117.97C135.01,-105.65 111.23,-90.35 96.72,-81.01"/>
<polygon fill="midnightblue" stroke="midnightblue" points="152.28,-120.93 162.58,-123.4 156.07,-115.04 152.28,-120.93"/>
</g>
<!-- Node14 -->
<g id="node14" class="node">
<title>Node14</title>
<g id="a_node14"><a xlink:href="translate__join_8hpp.html" target="_top" xlink:title="Provides bio::views::translate_join.">
<polygon fill="white" stroke="black" points="185.5,-56.5 185.5,-86.5 331.5,-86.5 331.5,-56.5 185.5,-56.5"/>
<text text-anchor="start" x="193.5" y="-74.5" font-family="Helvetica,sans-Serif" font-size="10.00">bio/ranges/views/translate</text>
<text text-anchor="middle" x="258.5" y="-63.5" font-family="Helvetica,sans-Serif" font-size="10.00">_join.hpp</text>
</a>
</g>
</g>
<!-- Node13&#45;&gt;Node14 -->
<g id="edge18" class="edge">
<title>Node13&#45;&gt;Node14</title>
<path fill="none" stroke="midnightblue" d="M208.3,-116.6C219.47,-106.78 232.49,-95.34 242.47,-86.58"/>
<polygon fill="midnightblue" stroke="midnightblue" points="205.76,-114.17 200.56,-123.4 210.38,-119.43 205.76,-114.17"/>
</g>
<!-- Node15&#45;&gt;Node5 -->
<g id="edge20" class="edge">
<title>Node15&#45;&gt;Node5</title>
<path fill="none" stroke="midnightblue" d="M288.88,-247.29C295.04,-229.96 305.14,-206.81 319.5,-190 332.45,-174.85 351.01,-162.3 366.43,-153.5"/>
<polygon fill="midnightblue" stroke="midnightblue" points="285.41,-246.63 285.55,-257.22 292.04,-248.85 285.41,-246.63"/>
</g>
<!-- Node15&#45;&gt;Node10 -->
<g id="edge21" class="edge">
<title>Node15&#45;&gt;Node10</title>
<path fill="none" stroke="midnightblue" d="M239.47,-253.41C215.36,-243.03 185.55,-230.2 163.2,-220.58"/>
<polygon fill="midnightblue" stroke="midnightblue" points="238.17,-256.66 248.74,-257.4 240.93,-250.23 238.17,-256.66"/>
</g>
<!-- Node17 -->
<g id="node17" class="node">
<title>Node17</title>
<g id="a_node17"><a xlink:href="dna15_8hpp.html" target="_top" xlink:title="Provides bio::alphabet::dna15, container aliases and string literals.">
<polygon fill="white" stroke="black" points="1079,-324.5 1079,-354.5 1210,-354.5 1210,-324.5 1079,-324.5"/>
<text text-anchor="start" x="1087" y="-342.5" font-family="Helvetica,sans-Serif" font-size="10.00">bio/alphabet/nucleotide</text>
<text text-anchor="middle" x="1144.5" y="-331.5" font-family="Helvetica,sans-Serif" font-size="10.00">/dna15.hpp</text>
</a>
</g>
</g>
<!-- Node16&#45;&gt;Node17 -->
<g id="edge25" class="edge">
<title>Node16&#45;&gt;Node17</title>
<path fill="none" stroke="midnightblue" d="M1144.5,-381.11C1144.5,-372.15 1144.5,-362.32 1144.5,-354.58"/>
<polygon fill="midnightblue" stroke="midnightblue" points="1141,-381.4 1144.5,-391.4 1148,-381.4 1141,-381.4"/>
</g>
<!-- Node19 -->
<g id="node19" class="node">
<title>Node19</title>
<g id="a_node19"><a xlink:href="rna15_8hpp.html" target="_top" xlink:title="Provides bio::alphabet::rna15, container aliases and string literals.">
<polygon fill="white" stroke="black" points="1173,-257.5 1173,-287.5 1304,-287.5 1304,-257.5 1173,-257.5"/>
<text text-anchor="start" x="1181" y="-275.5" font-family="Helvetica,sans-Serif" font-size="10.00">bio/alphabet/nucleotide</text>
<text text-anchor="middle" x="1238.5" y="-264.5" font-family="Helvetica,sans-Serif" font-size="10.00">/rna15.hpp</text>
</a>
</g>
</g>
<!-- Node16&#45;&gt;Node19 -->
<g id="edge51" class="edge">
<title>Node16&#45;&gt;Node19</title>
<path fill="none" stroke="midnightblue" d="M1184.52,-386.28C1197.43,-378.27 1210.67,-367.81 1219.5,-355 1233.6,-334.55 1237.34,-305.05 1238.27,-287.72"/>
<polygon fill="midnightblue" stroke="midnightblue" points="1182.57,-383.37 1175.7,-391.44 1186.1,-389.42 1182.57,-383.37"/>
</g>
<!-- Node22 -->
<g id="node22" class="node">
<title>Node22</title>
<g id="a_node22"><a xlink:href="dna16sam_8hpp.html" target="_top" xlink:title="Provides bio::alphabet::dna16sam.">
<polygon fill="white" stroke="black" points="759,-257.5 759,-287.5 890,-287.5 890,-257.5 759,-257.5"/>
<text text-anchor="start" x="767" y="-275.5" font-family="Helvetica,sans-Serif" font-size="10.00">bio/alphabet/nucleotide</text>
<text text-anchor="middle" x="824.5" y="-264.5" font-family="Helvetica,sans-Serif" font-size="10.00">/dna16sam.hpp</text>
</a>
</g>
</g>
<!-- Node16&#45;&gt;Node22 -->
<g id="edge35" class="edge">
<title>Node16&#45;&gt;Node22</title>
<path fill="none" stroke="midnightblue" d="M1068.76,-398.5C999.59,-390.86 903.53,-376.73 872.5,-355 848.83,-338.42 835.02,-306.12 828.7,-287.54"/>
<polygon fill="midnightblue" stroke="midnightblue" points="1068.44,-401.98 1078.76,-399.58 1069.19,-395.02 1068.44,-401.98"/>
</g>
<!-- Node23 -->
<g id="node23" class="node">
<title>Node23</title>
<g id="a_node23"><a xlink:href="dna4_8hpp.html" target="_top" xlink:title="Provides bio::alphabet::dna4, container aliases and string literals.">
<polygon fill="white" stroke="black" points="1305,-324.5 1305,-354.5 1436,-354.5 1436,-324.5 1305,-324.5"/>
<text text-anchor="start" x="1313" y="-342.5" font-family="Helvetica,sans-Serif" font-size="10.00">bio/alphabet/nucleotide</text>
<text text-anchor="middle" x="1370.5" y="-331.5" font-family="Helvetica,sans-Serif" font-size="10.00">/dna4.hpp</text>
</a>
</g>
</g>
<!-- Node16&#45;&gt;Node23 -->
<g id="edge37" class="edge">
<title>Node16&#45;&gt;Node23</title>
<path fill="none" stroke="midnightblue" d="M1203.33,-388.58C1240.04,-378.02 1286.73,-364.59 1321.44,-354.61"/>
<polygon fill="midnightblue" stroke="midnightblue" points="1201.9,-385.35 1193.26,-391.48 1203.84,-392.08 1201.9,-385.35"/>
</g>
<!-- Node24 -->
<g id="node24" class="node">
<title>Node24</title>
<g id="a_node24"><a xlink:href="rna4_8hpp.html" target="_top" xlink:title="Provides bio::alphabet::rna4, container aliases and string literals.">
<polygon fill="white" stroke="black" points="1399,-257.5 1399,-287.5 1530,-287.5 1530,-257.5 1399,-257.5"/>
<text text-anchor="start" x="1407" y="-275.5" font-family="Helvetica,sans-Serif" font-size="10.00">bio/alphabet/nucleotide</text>
<text text-anchor="middle" x="1464.5" y="-264.5" font-family="Helvetica,sans-Serif" font-size="10.00">/rna4.hpp</text>
</a>
</g>
</g>
<!-- Node16&#45;&gt;Node24 -->
<g id="edge52" class="edge">
<title>Node16&#45;&gt;Node24</title>
<path fill="none" stroke="midnightblue" d="M1220.38,-402.18C1298.69,-397.16 1413.76,-384.81 1445.5,-355 1464.03,-337.6 1466.11,-305.9 1465.56,-287.59"/>
<polygon fill="midnightblue" stroke="midnightblue" points="1219.83,-398.71 1210.07,-402.81 1220.26,-405.69 1219.83,-398.71"/>
</g>
<!-- Node25 -->
<g id="node25" class="node">
<title>Node25</title>
<g id="a_node25"><a xlink:href="dna5_8hpp.html" target="_top" xlink:title="Provides bio::alphabet::dna5, container aliases and string literals.">
<polygon fill="white" stroke="black" points="882,-324.5 882,-354.5 1013,-354.5 1013,-324.5 882,-324.5"/>
<text text-anchor="start" x="890" y="-342.5" font-family="Helvetica,sans-Serif" font-size="10.00">bio/alphabet/nucleotide</text>
<text text-anchor="middle" x="947.5" y="-331.5" font-family="Helvetica,sans-Serif" font-size="10.00">/dna5.hpp</text>
</a>
</g>
</g>
<!-- Node16&#45;&gt;Node25 -->
<g id="edge43" class="edge">
<title>Node16&#45;&gt;Node25</title>
<path fill="none" stroke="midnightblue" d="M1092.15,-388.23C1060.28,-377.71 1020.09,-364.45 990.16,-354.58"/>
<polygon fill="midnightblue" stroke="midnightblue" points="1091.16,-391.59 1101.75,-391.4 1093.35,-384.94 1091.16,-391.59"/>
</g>
<!-- Node26 -->
<g id="node26" class="node">
<title>Node26</title>
<g id="a_node26"><a xlink:href="rna5_8hpp.html" target="_top" xlink:title="Provides bio::alphabet::rna5, container aliases and string literals.">
<polygon fill="white" stroke="black" points="985,-257.5 985,-287.5 1116,-287.5 1116,-257.5 985,-257.5"/>
<text text-anchor="start" x="993" y="-275.5" font-family="Helvetica,sans-Serif" font-size="10.00">bio/alphabet/nucleotide</text>
<text text-anchor="middle" x="1050.5" y="-264.5" font-family="Helvetica,sans-Serif" font-size="10.00">/rna5.hpp</text>
</a>
</g>
</g>
<!-- Node16&#45;&gt;Node26 -->
<g id="edge53" class="edge">
<title>Node16&#45;&gt;Node26</title>
<path fill="none" stroke="midnightblue" d="M1105.09,-386.12C1092.36,-378.1 1079.29,-367.67 1070.5,-355 1056.3,-334.53 1052.15,-305.04 1050.96,-287.72"/>
<polygon fill="midnightblue" stroke="midnightblue" points="1103.4,-389.19 1113.79,-391.29 1106.98,-383.18 1103.4,-389.19"/>
</g>
<!-- Node17&#45;&gt;Node15 -->
<g id="edge26" class="edge">
<title>Node17&#45;&gt;Node15</title>
<path fill="none" stroke="midnightblue" d="M1068.78,-328.9C1053.47,-327.13 1037.48,-325.4 1022.5,-324 773.43,-300.73 476.32,-283.73 347.01,-276.86"/>
<polygon fill="midnightblue" stroke="midnightblue" points="1068.38,-332.38 1078.72,-330.07 1069.19,-325.43 1068.38,-332.38"/>
</g>
<!-- Node18 -->
<g id="node18" class="node">
<title>Node18</title>
<g id="a_node18"><a xlink:href="alphabet_2nucleotide_2all_8hpp.html" target="_top" xlink:title="Meta&#45;header for the nucleotide submodule; includes all headers from alphabet/nucleotide/.">
<polygon fill="white" stroke="black" points="1079,-190.5 1079,-220.5 1210,-220.5 1210,-190.5 1079,-190.5"/>
<text text-anchor="start" x="1087" y="-208.5" font-family="Helvetica,sans-Serif" font-size="10.00">bio/alphabet/nucleotide</text>
<text text-anchor="middle" x="1144.5" y="-197.5" font-family="Helvetica,sans-Serif" font-size="10.00">/all.hpp</text>
</a>
</g>
</g>
<!-- Node17&#45;&gt;Node18 -->
<g id="edge27" class="edge">
<title>Node17&#45;&gt;Node18</title>
<path fill="none" stroke="midnightblue" d="M1144.5,-314.02C1144.5,-286.51 1144.5,-242.79 1144.5,-220.52"/>
<polygon fill="midnightblue" stroke="midnightblue" points="1141,-314.37 1144.5,-324.37 1148,-314.37 1141,-314.37"/>
</g>
<!-- Node17&#45;&gt;Node19 -->
<g id="edge29" class="edge">
<title>Node17&#45;&gt;Node19</title>
<path fill="none" stroke="midnightblue" d="M1173.49,-318.45C1187.95,-308.45 1205.09,-296.6 1218.14,-287.58"/>
<polygon fill="midnightblue" stroke="midnightblue" points="1171.13,-315.83 1164.9,-324.4 1175.11,-321.59 1171.13,-315.83"/>
</g>
<!-- Node20 -->
<g id="node20" class="node">
<title>Node20</title>
<g id="a_node20"><a xlink:href="aliases_8hpp.html" target="_top" xlink:title="Provides aliases for qualified.">
<polygon fill="white" stroke="black" points="1341.5,-190.5 1341.5,-220.5 1455.5,-220.5 1455.5,-190.5 1341.5,-190.5"/>
<text text-anchor="start" x="1349.5" y="-208.5" font-family="Helvetica,sans-Serif" font-size="10.00">bio/alphabet/quality</text>
<text text-anchor="middle" x="1398.5" y="-197.5" font-family="Helvetica,sans-Serif" font-size="10.00">/aliases.hpp</text>
</a>
</g>
</g>
<!-- Node17&#45;&gt;Node20 -->
<g id="edge34" class="edge">
<title>Node17&#45;&gt;Node20</title>
<path fill="none" stroke="midnightblue" d="M1219.75,-324.13C1250.2,-316.29 1284.85,-304.69 1313.5,-288 1344.24,-270.1 1372.46,-238.88 1387.39,-220.72"/>
<polygon fill="midnightblue" stroke="midnightblue" points="1218.89,-320.74 1210.03,-326.54 1220.57,-327.53 1218.89,-320.74"/>
</g>
<!-- Node18&#45;&gt;Node6 -->
<g id="edge28" class="edge">
<title>Node18&#45;&gt;Node6</title>
<path fill="none" stroke="midnightblue" d="M1144.5,-180.32C1144.5,-150.38 1144.5,-100.91 1144.5,-81.1"/>
<polygon fill="midnightblue" stroke="midnightblue" points="1141,-180.37 1144.5,-190.37 1148,-180.37 1141,-180.37"/>
</g>
<!-- Node19&#45;&gt;Node18 -->
<g id="edge30" class="edge">
<title>Node19&#45;&gt;Node18</title>
<path fill="none" stroke="midnightblue" d="M1209.51,-251.45C1195.05,-241.45 1177.91,-229.6 1164.86,-220.58"/>
<polygon fill="midnightblue" stroke="midnightblue" points="1207.89,-254.59 1218.1,-257.4 1211.87,-248.83 1207.89,-254.59"/>
</g>
<!-- Node19&#45;&gt;Node20 -->
<g id="edge31" class="edge">
<title>Node19&#45;&gt;Node20</title>
<path fill="none" stroke="midnightblue" d="M1282.7,-253.54C1308.3,-243.14 1340.07,-230.24 1363.85,-220.58"/>
<polygon fill="midnightblue" stroke="midnightblue" points="1281.16,-250.39 1273.22,-257.4 1283.8,-256.87 1281.16,-250.39"/>
</g>
<!-- Node21 -->
<g id="node21" class="node">
<title>Node21</title>
<g id="a_node21"><a xlink:href="alphabet_2quality_2all_8hpp.html" target="_top" xlink:title="Meta&#45;header that includes all headers from alphabet/quality/.">
<polygon fill="white" stroke="black" points="1586.5,-123.5 1586.5,-153.5 1700.5,-153.5 1700.5,-123.5 1586.5,-123.5"/>
<text text-anchor="start" x="1594.5" y="-141.5" font-family="Helvetica,sans-Serif" font-size="10.00">bio/alphabet/quality</text>
<text text-anchor="middle" x="1643.5" y="-130.5" font-family="Helvetica,sans-Serif" font-size="10.00">/all.hpp</text>
</a>
</g>
</g>
<!-- Node20&#45;&gt;Node21 -->
<g id="edge32" class="edge">
<title>Node20&#45;&gt;Node21</title>
<path fill="none" stroke="midnightblue" d="M1461.26,-187.85C1501.2,-177.25 1552.37,-163.68 1590.31,-153.61"/>
<polygon fill="midnightblue" stroke="midnightblue" points="1460.13,-184.53 1451.36,-190.48 1461.92,-191.29 1460.13,-184.53"/>
</g>
<!-- Node21&#45;&gt;Node6 -->
<g id="edge33" class="edge">
<title>Node21&#45;&gt;Node6</title>
<path fill="none" stroke="midnightblue" d="M1576.06,-128.71C1476.91,-115.8 1293.6,-91.92 1201.07,-79.87"/>
<polygon fill="midnightblue" stroke="midnightblue" points="1575.89,-132.22 1586.26,-130.04 1576.79,-125.28 1575.89,-132.22"/>
</g>
<!-- Node22&#45;&gt;Node18 -->
<g id="edge36" class="edge">
<title>Node22&#45;&gt;Node18</title>
<path fill="none" stroke="midnightblue" d="M899.95,-256.17C954.27,-245.14 1026.84,-230.4 1078.78,-219.85"/>
<polygon fill="midnightblue" stroke="midnightblue" points="899.13,-252.77 890.03,-258.19 900.53,-259.63 899.13,-252.77"/>
</g>
<!-- Node23&#45;&gt;Node18 -->
<g id="edge38" class="edge">
<title>Node23&#45;&gt;Node18</title>
<path fill="none" stroke="midnightblue" d="M1359.75,-315.34C1350.1,-296.98 1334.26,-271.99 1313.5,-257 1283.21,-235.13 1243.41,-222.63 1210.04,-215.55"/>
<polygon fill="midnightblue" stroke="midnightblue" points="1356.74,-317.13 1364.35,-324.5 1362.99,-313.99 1356.74,-317.13"/>
</g>
<!-- Node23&#45;&gt;Node20 -->
<g id="edge42" class="edge">
<title>Node23&#45;&gt;Node20</title>
<path fill="none" stroke="midnightblue" d="M1446.18,-335.54C1480.41,-329.94 1517.94,-316.95 1539.5,-288 1566.27,-252.06 1505.84,-229.38 1455.93,-217.32"/>
<polygon fill="midnightblue" stroke="midnightblue" points="1445.56,-332.09 1436.16,-336.99 1446.56,-339.02 1445.56,-332.09"/>
</g>
<!-- Node23&#45;&gt;Node24 -->
<g id="edge39" class="edge">
<title>Node23&#45;&gt;Node24</title>
<path fill="none" stroke="midnightblue" d="M1399.49,-318.45C1413.95,-308.45 1431.09,-296.6 1444.14,-287.58"/>
<polygon fill="midnightblue" stroke="midnightblue" points="1397.13,-315.83 1390.9,-324.4 1401.11,-321.59 1397.13,-315.83"/>
</g>
<!-- Node24&#45;&gt;Node18 -->
<g id="edge40" class="edge">
<title>Node24&#45;&gt;Node18</title>
<path fill="none" stroke="midnightblue" d="M1389.05,-256.17C1334.73,-245.14 1262.16,-230.4 1210.22,-219.85"/>
<polygon fill="midnightblue" stroke="midnightblue" points="1388.47,-259.63 1398.97,-258.19 1389.87,-252.77 1388.47,-259.63"/>
</g>
<!-- Node24&#45;&gt;Node20 -->
<g id="edge41" class="edge">
<title>Node24&#45;&gt;Node20</title>
<path fill="none" stroke="midnightblue" d="M1442.99,-250.31C1433.09,-240.56 1421.61,-229.26 1412.79,-220.58"/>
<polygon fill="midnightblue" stroke="midnightblue" points="1440.6,-252.87 1450.18,-257.4 1445.51,-247.89 1440.6,-252.87"/>
</g>
<!-- Node25&#45;&gt;Node11 -->
<g id="edge49" class="edge">
<title>Node25&#45;&gt;Node11</title>
<path fill="none" stroke="midnightblue" d="M871.87,-328.89C822.6,-320.89 764.75,-307.62 749.5,-288 722.38,-253.09 794.12,-224.52 766.5,-190 683.35,-86.08 308.32,-105.4 176.5,-87 163.55,-85.19 149.62,-83.1 136.57,-81.07"/>
<polygon fill="midnightblue" stroke="midnightblue" points="871.49,-332.37 881.91,-330.46 872.58,-325.45 871.49,-332.37"/>
</g>
<!-- Node25&#45;&gt;Node13 -->
<g id="edge50" class="edge">
<title>Node25&#45;&gt;Node13</title>
<path fill="none" stroke="midnightblue" d="M871.46,-333.07C750.92,-322.54 510.1,-293.63 319.5,-221 274.73,-203.94 228.08,-172.12 203.05,-153.69"/>
<polygon fill="midnightblue" stroke="midnightblue" points="871.43,-336.58 881.69,-333.95 872.02,-329.61 871.43,-336.58"/>
</g>
<!-- Node25&#45;&gt;Node18 -->
<g id="edge44" class="edge">
<title>Node25&#45;&gt;Node18</title>
<path fill="none" stroke="midnightblue" d="M938.32,-314.82C933.12,-297.07 929.88,-273.16 942.5,-257 959.3,-235.49 1026.56,-221.78 1078.91,-214.16"/>
<polygon fill="midnightblue" stroke="midnightblue" points="935.04,-316.05 941.5,-324.45 941.69,-313.86 935.04,-316.05"/>
</g>
<!-- Node25&#45;&gt;Node20 -->
<g id="edge48" class="edge">
<title>Node25&#45;&gt;Node20</title>
<path fill="none" stroke="midnightblue" d="M949.41,-314.3C952.24,-295.65 959.24,-270.79 976.5,-257 990.59,-245.75 1229.27,-222.23 1341.29,-211.74"/>
<polygon fill="midnightblue" stroke="midnightblue" points="945.91,-314.08 948.18,-324.43 952.86,-314.93 945.91,-314.08"/>
</g>
<!-- Node25&#45;&gt;Node26 -->
<g id="edge45" class="edge">
<title>Node25&#45;&gt;Node26</title>
<path fill="none" stroke="midnightblue" d="M978.38,-319.02C994.4,-308.9 1013.63,-296.77 1028.19,-287.58"/>
<polygon fill="midnightblue" stroke="midnightblue" points="976.44,-316.1 969.85,-324.4 980.17,-322.02 976.44,-316.1"/>
</g>
<!-- Node26&#45;&gt;Node18 -->
<g id="edge46" class="edge">
<title>Node26&#45;&gt;Node18</title>
<path fill="none" stroke="midnightblue" d="M1079.49,-251.45C1093.95,-241.45 1111.09,-229.6 1124.14,-220.58"/>
<polygon fill="midnightblue" stroke="midnightblue" points="1077.13,-248.83 1070.9,-257.4 1081.11,-254.59 1077.13,-248.83"/>
</g>
<!-- Node26&#45;&gt;Node20 -->
<g id="edge47" class="edge">
<title>Node26&#45;&gt;Node20</title>
<path fill="none" stroke="midnightblue" d="M1126.5,-257.3C1191.17,-245.22 1282.64,-228.14 1341.26,-217.19"/>
<polygon fill="midnightblue" stroke="midnightblue" points="1125.55,-253.92 1116.37,-259.2 1126.84,-260.8 1125.55,-253.92"/>
</g>
<!-- Node28 -->
<g id="node28" class="node">
<title>Node28</title>
<g id="a_node28"><a xlink:href="phred42_8hpp.html" target="_top" xlink:title="Provides bio::alphabet::phred42 quality scores.">
<polygon fill="white" stroke="black" points="1586.5,-257.5 1586.5,-287.5 1700.5,-287.5 1700.5,-257.5 1586.5,-257.5"/>
<text text-anchor="start" x="1594.5" y="-275.5" font-family="Helvetica,sans-Serif" font-size="10.00">bio/alphabet/quality</text>
<text text-anchor="middle" x="1643.5" y="-264.5" font-family="Helvetica,sans-Serif" font-size="10.00">/phred42.hpp</text>
</a>
</g>
</g>
<!-- Node27&#45;&gt;Node28 -->
<g id="edge55" class="edge">
<title>Node27&#45;&gt;Node28</title>
<path fill="none" stroke="midnightblue" d="M1670.88,-315.87C1664.8,-306.46 1657.93,-295.83 1652.6,-287.58"/>
<polygon fill="midnightblue" stroke="midnightblue" points="1668.02,-317.9 1676.39,-324.4 1673.9,-314.1 1668.02,-317.9"/>
</g>
<!-- Node29 -->
<g id="node29" class="node">
<title>Node29</title>
<g id="a_node29"><a xlink:href="phred63_8hpp.html" target="_top" xlink:title="Provides bio::alphabet::phred63 quality scores.">
<polygon fill="white" stroke="black" points="1671.5,-190.5 1671.5,-220.5 1785.5,-220.5 1785.5,-190.5 1671.5,-190.5"/>
<text text-anchor="start" x="1679.5" y="-208.5" font-family="Helvetica,sans-Serif" font-size="10.00">bio/alphabet/quality</text>
<text text-anchor="middle" x="1728.5" y="-197.5" font-family="Helvetica,sans-Serif" font-size="10.00">/phred63.hpp</text>
</a>
</g>
</g>
<!-- Node27&#45;&gt;Node29 -->
<g id="edge58" class="edge">
<title>Node27&#45;&gt;Node29</title>
<path fill="none" stroke="midnightblue" d="M1697.91,-315.1C1702,-306.72 1706.32,-297.09 1709.5,-288 1717.56,-264.96 1723.22,-237.06 1726.16,-220.6"/>
<polygon fill="midnightblue" stroke="midnightblue" points="1694.66,-313.76 1693.28,-324.26 1700.91,-316.91 1694.66,-313.76"/>
</g>
<!-- Node30 -->
<g id="node30" class="node">
<title>Node30</title>
<g id="a_node30"><a xlink:href="phred68legacy_8hpp.html" target="_top" xlink:title="Provides bio::alphabet::phred68legacy quality scores.">
<polygon fill="white" stroke="black" points="1756.5,-257.5 1756.5,-287.5 1870.5,-287.5 1870.5,-257.5 1756.5,-257.5"/>
<text text-anchor="start" x="1764.5" y="-275.5" font-family="Helvetica,sans-Serif" font-size="10.00">bio/alphabet/quality</text>
<text text-anchor="middle" x="1813.5" y="-264.5" font-family="Helvetica,sans-Serif" font-size="10.00">/phred68legacy.hpp</text>
</a>
</g>
</g>
<!-- Node27&#45;&gt;Node30 -->
<g id="edge60" class="edge">
<title>Node27&#45;&gt;Node30</title>
<path fill="none" stroke="midnightblue" d="M1722.22,-319.85C1742.46,-309.58 1767.17,-297.03 1785.78,-287.58"/>
<polygon fill="midnightblue" stroke="midnightblue" points="1720.61,-316.75 1713.27,-324.4 1723.78,-322.99 1720.61,-316.75"/>
</g>
<!-- Node28&#45;&gt;Node20 -->
<g id="edge56" class="edge">
<title>Node28&#45;&gt;Node20</title>
<path fill="none" stroke="midnightblue" d="M1580.74,-254.85C1540.8,-244.25 1489.63,-230.68 1451.69,-220.61"/>
<polygon fill="midnightblue" stroke="midnightblue" points="1580.08,-258.29 1590.64,-257.48 1581.87,-251.53 1580.08,-258.29"/>
</g>
<!-- Node28&#45;&gt;Node21 -->
<g id="edge57" class="edge">
<title>Node28&#45;&gt;Node21</title>
<path fill="none" stroke="midnightblue" d="M1643.5,-247.02C1643.5,-219.51 1643.5,-175.79 1643.5,-153.52"/>
<polygon fill="midnightblue" stroke="midnightblue" points="1640,-247.37 1643.5,-257.37 1647,-247.37 1640,-247.37"/>
</g>
<!-- Node29&#45;&gt;Node21 -->
<g id="edge59" class="edge">
<title>Node29&#45;&gt;Node21</title>
<path fill="none" stroke="midnightblue" d="M1701.91,-184.17C1688.91,-174.23 1673.6,-162.51 1661.91,-153.58"/>
<polygon fill="midnightblue" stroke="midnightblue" points="1699.99,-187.1 1710.06,-190.4 1704.24,-181.54 1699.99,-187.1"/>
</g>
<!-- Node30&#45;&gt;Node21 -->
<g id="edge61" class="edge">
<title>Node30&#45;&gt;Node21</title>
<path fill="none" stroke="midnightblue" d="M1813.86,-247.21C1812.83,-229.3 1808.58,-205.46 1794.5,-190 1770.59,-163.73 1732.63,-151.11 1700.76,-145.06"/>
<polygon fill="midnightblue" stroke="midnightblue" points="1810.36,-247.32 1814.14,-257.22 1817.36,-247.12 1810.36,-247.32"/>
</g>
</g>
</svg>
